G04 Layer: BottomLayer*
G04 Panelize: V-CUT, Column: 2, Row: 2, Board Size: 58.42mm x 58.42mm, Panelized Board Size: 118.84mm x 118.84mm*
G04 EasyEDA v6.5.32, 2023-07-30 20:53:33*
G04 c3515dc738d34e5298cd013e7790fecd,5a6b42c53f6a479593ecc07194224c93,10*
G04 Gerber Generator version 0.2*
G04 Scale: 100 percent, Rotated: No, Reflected: No *
G04 Dimensions in millimeters *
G04 leading zeros omitted , absolute positions ,4 integer and 5 decimal *
%FSLAX45Y45*%
%MOMM*%

%ADD10C,0.2540*%
%ADD11C,1.0000*%
%ADD12C,2.5400*%
%ADD13C,2.2500*%
%ADD14C,2.0000*%
%ADD15C,5.0000*%
%ADD16C,1.8000*%
%ADD17C,1.7000*%
%ADD18C,0.6096*%
%ADD19C,0.0155*%

%LPD*%
G36*
X5805932Y25908D02*
G01*
X36068Y26416D01*
X32156Y27178D01*
X28905Y29362D01*
X26670Y32664D01*
X25908Y36576D01*
X25908Y5805932D01*
X26670Y5809843D01*
X28905Y5813094D01*
X32156Y5815330D01*
X36068Y5816092D01*
X5805932Y5816092D01*
X5809843Y5815330D01*
X5813094Y5813094D01*
X5815330Y5809843D01*
X5816092Y5805932D01*
X5816092Y36068D01*
X5815330Y32207D01*
X5813094Y28905D01*
X5809843Y26670D01*
G37*

%LPC*%
G36*
X4584700Y5600700D02*
G01*
X4687112Y5600700D01*
X4686960Y5602528D01*
X4684268Y5616803D01*
X4679746Y5630672D01*
X4673549Y5643829D01*
X4665776Y5656122D01*
X4656480Y5667349D01*
X4645863Y5677306D01*
X4634077Y5685840D01*
X4621326Y5692851D01*
X4607814Y5698236D01*
X4593691Y5701842D01*
X4584700Y5702960D01*
G37*
G36*
X393700Y105562D02*
G01*
X398322Y105664D01*
X421284Y108051D01*
X443992Y112369D01*
X466242Y118618D01*
X487934Y126644D01*
X508812Y136499D01*
X528828Y148031D01*
X547827Y161239D01*
X565607Y175971D01*
X582117Y192125D01*
X597204Y209600D01*
X610819Y228295D01*
X622757Y248107D01*
X633018Y268782D01*
X641553Y290271D01*
X648208Y312369D01*
X653034Y334975D01*
X655929Y357936D01*
X656336Y368300D01*
X393700Y368300D01*
G37*
G36*
X5448300Y105613D02*
G01*
X5448300Y368300D01*
X5185410Y368300D01*
X5187289Y346405D01*
X5191150Y323646D01*
X5196890Y301244D01*
X5204460Y279450D01*
X5213858Y258317D01*
X5224983Y238099D01*
X5237784Y218846D01*
X5252161Y200710D01*
X5267960Y183896D01*
X5285130Y168402D01*
X5303520Y154432D01*
X5323027Y142087D01*
X5343499Y131368D01*
X5364835Y122428D01*
X5386781Y115265D01*
X5409285Y109982D01*
X5432145Y106629D01*
G37*
G36*
X368300Y105613D02*
G01*
X368300Y368300D01*
X105410Y368300D01*
X107289Y346405D01*
X111150Y323646D01*
X116890Y301244D01*
X124460Y279450D01*
X133858Y258317D01*
X144983Y238099D01*
X157784Y218846D01*
X172161Y200710D01*
X187960Y183896D01*
X205130Y168402D01*
X223520Y154432D01*
X243027Y142087D01*
X263499Y131368D01*
X284835Y122428D01*
X306781Y115265D01*
X329285Y109982D01*
X352145Y106629D01*
G37*
G36*
X393700Y393700D02*
G01*
X656336Y393700D01*
X655929Y404063D01*
X653034Y427024D01*
X648208Y449630D01*
X641553Y471728D01*
X633018Y493217D01*
X622757Y513892D01*
X610819Y533704D01*
X597204Y552348D01*
X582117Y569874D01*
X565607Y586028D01*
X547827Y600760D01*
X528828Y613968D01*
X508812Y625500D01*
X487934Y635355D01*
X466242Y643382D01*
X443992Y649630D01*
X421284Y653948D01*
X398322Y656336D01*
X393700Y656437D01*
G37*
G36*
X5473700Y393700D02*
G01*
X5736336Y393700D01*
X5735929Y404063D01*
X5733034Y427024D01*
X5728208Y449630D01*
X5721553Y471728D01*
X5713018Y493217D01*
X5702757Y513892D01*
X5690819Y533704D01*
X5677204Y552348D01*
X5662117Y569874D01*
X5645607Y586028D01*
X5627827Y600760D01*
X5608828Y613968D01*
X5588812Y625500D01*
X5567934Y635355D01*
X5546242Y643382D01*
X5523992Y649630D01*
X5501284Y653948D01*
X5478322Y656336D01*
X5473700Y656437D01*
G37*
G36*
X5185410Y393700D02*
G01*
X5448300Y393700D01*
X5448300Y656386D01*
X5432145Y655370D01*
X5409285Y652018D01*
X5386781Y646734D01*
X5364835Y639572D01*
X5343499Y630631D01*
X5323027Y619912D01*
X5303520Y607568D01*
X5285130Y593598D01*
X5267960Y578104D01*
X5252161Y561289D01*
X5237784Y543153D01*
X5224983Y523900D01*
X5213858Y503682D01*
X5204460Y482549D01*
X5196890Y460756D01*
X5191150Y438353D01*
X5187289Y415594D01*
G37*
G36*
X105410Y393700D02*
G01*
X368300Y393700D01*
X368300Y656386D01*
X352145Y655370D01*
X329285Y652018D01*
X306781Y646734D01*
X284835Y639572D01*
X263499Y630631D01*
X243027Y619912D01*
X223520Y607568D01*
X205130Y593598D01*
X187960Y578104D01*
X172161Y561289D01*
X157784Y543153D01*
X144983Y523900D01*
X133858Y503682D01*
X124460Y482549D01*
X116890Y460756D01*
X111150Y438353D01*
X107289Y415594D01*
G37*
G36*
X1252220Y862177D02*
G01*
X1267409Y863092D01*
X1282344Y865835D01*
X1296873Y870356D01*
X1310741Y876604D01*
X1323746Y884428D01*
X1335684Y893826D01*
X1346454Y904595D01*
X1355801Y916533D01*
X1363675Y929538D01*
X1369923Y943406D01*
X1374444Y957935D01*
X1377188Y972870D01*
X1378102Y988060D01*
X1377188Y1003249D01*
X1374444Y1018184D01*
X1369923Y1032713D01*
X1363675Y1046581D01*
X1355801Y1059586D01*
X1346454Y1071524D01*
X1335684Y1082294D01*
X1323746Y1091641D01*
X1310741Y1099515D01*
X1296873Y1105763D01*
X1282344Y1110284D01*
X1267409Y1113028D01*
X1252220Y1113942D01*
X1237030Y1113028D01*
X1222095Y1110284D01*
X1207566Y1105763D01*
X1193698Y1099515D01*
X1180693Y1091641D01*
X1168755Y1082294D01*
X1157986Y1071524D01*
X1148588Y1059586D01*
X1140764Y1046581D01*
X1134516Y1032713D01*
X1129995Y1018184D01*
X1127252Y1003249D01*
X1126337Y988060D01*
X1127252Y972870D01*
X1129995Y957935D01*
X1134516Y943406D01*
X1140764Y929538D01*
X1148588Y916533D01*
X1157986Y904595D01*
X1168755Y893826D01*
X1180693Y884428D01*
X1193698Y876604D01*
X1207566Y870356D01*
X1222095Y865835D01*
X1237030Y863092D01*
G37*
G36*
X365760Y1100023D02*
G01*
X369874Y1100277D01*
X386486Y1103020D01*
X402691Y1107592D01*
X418287Y1113942D01*
X433120Y1121968D01*
X446938Y1131570D01*
X459689Y1142644D01*
X471068Y1155039D01*
X481076Y1168603D01*
X489458Y1183182D01*
X496265Y1198626D01*
X501294Y1214678D01*
X504494Y1231239D01*
X505206Y1239520D01*
X365760Y1239520D01*
G37*
G36*
X340360Y1100023D02*
G01*
X340360Y1239520D01*
X200914Y1239520D01*
X201625Y1231239D01*
X204825Y1214678D01*
X209854Y1198626D01*
X216611Y1183182D01*
X225044Y1168603D01*
X235051Y1155039D01*
X246430Y1142644D01*
X259130Y1131570D01*
X272999Y1121968D01*
X287782Y1113942D01*
X303428Y1107592D01*
X319633Y1103020D01*
X336245Y1100277D01*
G37*
G36*
X1551940Y1113637D02*
G01*
X1567129Y1114552D01*
X1582064Y1117295D01*
X1596593Y1121816D01*
X1610461Y1128064D01*
X1623466Y1135888D01*
X1635404Y1145286D01*
X1646174Y1156055D01*
X1655521Y1167993D01*
X1663395Y1180998D01*
X1669643Y1194866D01*
X1674164Y1209395D01*
X1676907Y1224330D01*
X1677822Y1239520D01*
X1676907Y1254709D01*
X1674164Y1269644D01*
X1669643Y1284173D01*
X1663395Y1298041D01*
X1655521Y1311046D01*
X1646174Y1322984D01*
X1635404Y1333754D01*
X1623466Y1343101D01*
X1610461Y1350975D01*
X1596593Y1357223D01*
X1582064Y1361744D01*
X1567129Y1364488D01*
X1551940Y1365402D01*
X1536750Y1364488D01*
X1521815Y1361744D01*
X1507286Y1357223D01*
X1493418Y1350975D01*
X1480413Y1343101D01*
X1468475Y1333754D01*
X1457706Y1322984D01*
X1448308Y1311046D01*
X1440484Y1298041D01*
X1434236Y1284173D01*
X1429715Y1269644D01*
X1426972Y1254709D01*
X1426057Y1239520D01*
X1426972Y1224330D01*
X1429715Y1209395D01*
X1434236Y1194866D01*
X1440484Y1180998D01*
X1448308Y1167993D01*
X1457706Y1156055D01*
X1468475Y1145286D01*
X1480413Y1135888D01*
X1493418Y1128064D01*
X1507286Y1121816D01*
X1521815Y1117295D01*
X1536750Y1114552D01*
G37*
G36*
X2794000Y1175562D02*
G01*
X2803804Y1176426D01*
X2813253Y1178966D01*
X2822194Y1183081D01*
X2830220Y1188720D01*
X2837180Y1195679D01*
X2842818Y1203706D01*
X2846933Y1212646D01*
X2849473Y1222095D01*
X2850337Y1231900D01*
X2849473Y1241704D01*
X2846933Y1251153D01*
X2842818Y1260094D01*
X2837180Y1268120D01*
X2835605Y1269695D01*
X2833370Y1272997D01*
X2832608Y1276908D01*
X2832608Y3523691D01*
X2833370Y3527602D01*
X2835605Y3530904D01*
X2837180Y3532479D01*
X2842818Y3540506D01*
X2846933Y3549446D01*
X2849473Y3558895D01*
X2850337Y3568700D01*
X2849473Y3578504D01*
X2846933Y3587953D01*
X2842818Y3596894D01*
X2837180Y3604920D01*
X2830220Y3611879D01*
X2822194Y3617518D01*
X2813253Y3621633D01*
X2803804Y3624173D01*
X2794000Y3625037D01*
X2784195Y3624173D01*
X2774746Y3621633D01*
X2765806Y3617518D01*
X2757779Y3611879D01*
X2750820Y3604920D01*
X2745181Y3596894D01*
X2741066Y3587953D01*
X2738526Y3578504D01*
X2737662Y3568700D01*
X2738526Y3558895D01*
X2741066Y3549446D01*
X2745181Y3540506D01*
X2750820Y3532479D01*
X2752394Y3530904D01*
X2754630Y3527602D01*
X2755392Y3523691D01*
X2755392Y1276908D01*
X2754630Y1272997D01*
X2752394Y1269695D01*
X2750820Y1268120D01*
X2745181Y1260094D01*
X2741066Y1251153D01*
X2738526Y1241704D01*
X2737662Y1231900D01*
X2738526Y1222095D01*
X2741066Y1212646D01*
X2745181Y1203706D01*
X2750820Y1195679D01*
X2757779Y1188720D01*
X2765806Y1183081D01*
X2774746Y1178966D01*
X2784195Y1176426D01*
G37*
G36*
X200710Y1264920D02*
G01*
X340360Y1264920D01*
X340360Y1415034D01*
X341122Y1418945D01*
X343306Y1422196D01*
X346608Y1424432D01*
X350520Y1425194D01*
X355600Y1425194D01*
X359460Y1424432D01*
X362762Y1422196D01*
X364998Y1418945D01*
X365760Y1415034D01*
X365760Y1264920D01*
X505409Y1264920D01*
X503123Y1281531D01*
X498957Y1297838D01*
X493064Y1313637D01*
X485444Y1328674D01*
X476250Y1342745D01*
X465531Y1355750D01*
X453491Y1367536D01*
X440182Y1377848D01*
X425805Y1386687D01*
X410565Y1393850D01*
X394665Y1399336D01*
X388924Y1400606D01*
X385470Y1402130D01*
X382778Y1404772D01*
X381254Y1408277D01*
X381101Y1412036D01*
X382371Y1415592D01*
X390398Y1429562D01*
X397205Y1445006D01*
X402234Y1461058D01*
X405434Y1477568D01*
X406146Y1485900D01*
X266700Y1485900D01*
X266700Y1335684D01*
X265938Y1331772D01*
X263702Y1328470D01*
X260451Y1326286D01*
X256540Y1325524D01*
X251460Y1325524D01*
X247548Y1326286D01*
X244297Y1328470D01*
X242062Y1331772D01*
X241300Y1335684D01*
X241300Y1485900D01*
X101854Y1485900D01*
X102565Y1477568D01*
X105765Y1461058D01*
X110794Y1445006D01*
X117602Y1429562D01*
X125983Y1414983D01*
X135991Y1401419D01*
X147370Y1389024D01*
X160070Y1377950D01*
X173939Y1368348D01*
X188772Y1360322D01*
X204368Y1353972D01*
X218744Y1349908D01*
X222148Y1348232D01*
X224688Y1345387D01*
X226009Y1341882D01*
X225958Y1338072D01*
X224485Y1334566D01*
X220624Y1328674D01*
X213055Y1313637D01*
X207111Y1297838D01*
X202996Y1281531D01*
G37*
G36*
X4456887Y5600700D02*
G01*
X4559300Y5600700D01*
X4559300Y5702960D01*
X4550308Y5701842D01*
X4536186Y5698236D01*
X4522673Y5692851D01*
X4509922Y5685840D01*
X4498136Y5677306D01*
X4487519Y5667349D01*
X4478223Y5656122D01*
X4470450Y5643829D01*
X4464253Y5630672D01*
X4459732Y5616803D01*
X4457039Y5602528D01*
G37*
G36*
X105410Y5473700D02*
G01*
X368300Y5473700D01*
X368300Y5736386D01*
X352145Y5735370D01*
X329285Y5732018D01*
X306781Y5726734D01*
X284835Y5719572D01*
X263499Y5710631D01*
X243027Y5699912D01*
X223520Y5687568D01*
X205130Y5673598D01*
X187960Y5658104D01*
X172161Y5641289D01*
X157784Y5623153D01*
X144983Y5603900D01*
X133858Y5583682D01*
X124460Y5562549D01*
X116890Y5540756D01*
X111150Y5518353D01*
X107289Y5495594D01*
G37*
G36*
X4191000Y1505762D02*
G01*
X4200804Y1506626D01*
X4210253Y1509166D01*
X4219194Y1513281D01*
X4227220Y1518920D01*
X4234180Y1525879D01*
X4239818Y1533906D01*
X4243933Y1542846D01*
X4246473Y1552295D01*
X4247337Y1562100D01*
X4246473Y1571904D01*
X4243933Y1581353D01*
X4239818Y1590294D01*
X4234180Y1598320D01*
X4232605Y1599895D01*
X4230370Y1603197D01*
X4229608Y1607108D01*
X4229608Y2609291D01*
X4230370Y2613202D01*
X4232605Y2616504D01*
X4234180Y2618079D01*
X4239818Y2626106D01*
X4243933Y2635046D01*
X4246473Y2644495D01*
X4247337Y2654300D01*
X4246473Y2664104D01*
X4243933Y2673553D01*
X4239818Y2682494D01*
X4234180Y2690520D01*
X4232554Y2692095D01*
X4230370Y2695397D01*
X4229608Y2699308D01*
X4229608Y2990291D01*
X4230370Y2994202D01*
X4232554Y2997504D01*
X4234180Y2999079D01*
X4239818Y3007106D01*
X4243933Y3016046D01*
X4246473Y3025495D01*
X4247337Y3035300D01*
X4246473Y3045104D01*
X4243933Y3054553D01*
X4239818Y3063494D01*
X4234180Y3071520D01*
X4227220Y3078480D01*
X4219194Y3084118D01*
X4210253Y3088233D01*
X4200804Y3090773D01*
X4191000Y3091637D01*
X4181195Y3090773D01*
X4171746Y3088233D01*
X4162806Y3084118D01*
X4154779Y3078480D01*
X4147820Y3071520D01*
X4142181Y3063494D01*
X4138066Y3054553D01*
X4135526Y3045104D01*
X4134662Y3035300D01*
X4135526Y3025495D01*
X4138066Y3016046D01*
X4142181Y3007106D01*
X4147820Y2999079D01*
X4149394Y2997504D01*
X4151629Y2994202D01*
X4152392Y2990342D01*
X4152392Y2699258D01*
X4151629Y2695397D01*
X4149394Y2692095D01*
X4147820Y2690520D01*
X4142181Y2682494D01*
X4138066Y2673553D01*
X4135526Y2664104D01*
X4134662Y2654300D01*
X4135526Y2644495D01*
X4138066Y2635046D01*
X4142181Y2626106D01*
X4147820Y2618079D01*
X4149394Y2616504D01*
X4151629Y2613202D01*
X4152392Y2609291D01*
X4152392Y1607108D01*
X4151629Y1603197D01*
X4149394Y1599895D01*
X4147820Y1598320D01*
X4142181Y1590294D01*
X4138066Y1581353D01*
X4135526Y1571904D01*
X4134662Y1562100D01*
X4135526Y1552295D01*
X4138066Y1542846D01*
X4142181Y1533906D01*
X4147820Y1525879D01*
X4154779Y1518920D01*
X4162806Y1513281D01*
X4171746Y1509166D01*
X4181195Y1506626D01*
G37*
G36*
X266700Y1511300D02*
G01*
X406349Y1511300D01*
X404063Y1527911D01*
X399897Y1544218D01*
X394004Y1560017D01*
X386384Y1575054D01*
X377190Y1589125D01*
X366471Y1602130D01*
X354431Y1613865D01*
X341122Y1624228D01*
X326745Y1633067D01*
X311556Y1640230D01*
X295605Y1645716D01*
X279146Y1649374D01*
X266700Y1650796D01*
G37*
G36*
X101650Y1511300D02*
G01*
X241300Y1511300D01*
X241300Y1650796D01*
X228854Y1649374D01*
X212394Y1645716D01*
X196443Y1640230D01*
X181254Y1633067D01*
X166878Y1624228D01*
X153568Y1613865D01*
X141528Y1602130D01*
X130810Y1589125D01*
X121615Y1575054D01*
X113995Y1560017D01*
X108102Y1544218D01*
X103936Y1527911D01*
G37*
G36*
X1264920Y1581912D02*
G01*
X1268272Y1582115D01*
X1284122Y1584909D01*
X1299565Y1589532D01*
X1314348Y1595882D01*
X1328267Y1603959D01*
X1341170Y1613560D01*
X1352854Y1624584D01*
X1363218Y1636928D01*
X1372057Y1650390D01*
X1379270Y1664766D01*
X1384808Y1679905D01*
X1388516Y1695551D01*
X1389837Y1706880D01*
X1264920Y1706880D01*
G37*
G36*
X1239520Y1581912D02*
G01*
X1239520Y1706880D01*
X1114602Y1706880D01*
X1115923Y1695551D01*
X1119632Y1679905D01*
X1125118Y1664766D01*
X1132382Y1650390D01*
X1141222Y1636928D01*
X1151534Y1624584D01*
X1163269Y1613560D01*
X1176172Y1603959D01*
X1190091Y1595882D01*
X1204874Y1589532D01*
X1220317Y1584909D01*
X1236167Y1582115D01*
G37*
G36*
X4911344Y1616354D02*
G01*
X4925517Y1616811D01*
X4939538Y1619097D01*
X4953203Y1623110D01*
X4966157Y1628901D01*
X4978298Y1636268D01*
X4989423Y1645107D01*
X4999329Y1655318D01*
X5007813Y1666697D01*
X5014772Y1679092D01*
X5020106Y1692249D01*
X5023713Y1706016D01*
X5025542Y1720088D01*
X5025542Y1734312D01*
X5023713Y1748383D01*
X5020106Y1762150D01*
X5014772Y1775307D01*
X5007813Y1787702D01*
X4999329Y1799082D01*
X4989423Y1809292D01*
X4978298Y1818132D01*
X4966157Y1825498D01*
X4953203Y1831238D01*
X4939538Y1835302D01*
X4925517Y1837588D01*
X4911344Y1838045D01*
X4897170Y1836674D01*
X4883353Y1833473D01*
X4869992Y1828596D01*
X4857394Y1821992D01*
X4845761Y1813864D01*
X4835245Y1804314D01*
X4826000Y1793493D01*
X4818278Y1781606D01*
X4812080Y1768805D01*
X4807610Y1755343D01*
X4804918Y1741373D01*
X4804003Y1727200D01*
X4804918Y1713026D01*
X4807610Y1699056D01*
X4812080Y1685594D01*
X4818278Y1672793D01*
X4826000Y1660855D01*
X4835245Y1650034D01*
X4845761Y1640484D01*
X4857394Y1632356D01*
X4869992Y1625803D01*
X4883353Y1620875D01*
X4897170Y1617726D01*
G37*
G36*
X5419344Y1616354D02*
G01*
X5433517Y1616811D01*
X5447538Y1619097D01*
X5461152Y1623110D01*
X5474157Y1628901D01*
X5486298Y1636268D01*
X5497423Y1645107D01*
X5507329Y1655318D01*
X5515813Y1666697D01*
X5522772Y1679092D01*
X5528106Y1692249D01*
X5531713Y1706016D01*
X5533542Y1720088D01*
X5533542Y1734312D01*
X5531713Y1748383D01*
X5528106Y1762150D01*
X5522772Y1775307D01*
X5515813Y1787702D01*
X5507329Y1799082D01*
X5497423Y1809292D01*
X5486298Y1818132D01*
X5474157Y1825498D01*
X5461152Y1831238D01*
X5447538Y1835302D01*
X5433517Y1837588D01*
X5419344Y1838045D01*
X5405170Y1836674D01*
X5391353Y1833473D01*
X5377992Y1828596D01*
X5365394Y1821992D01*
X5353761Y1813864D01*
X5343245Y1804314D01*
X5334000Y1793493D01*
X5326278Y1781606D01*
X5320080Y1768805D01*
X5315610Y1755343D01*
X5312918Y1741373D01*
X5312003Y1727200D01*
X5312918Y1713026D01*
X5315610Y1699056D01*
X5320080Y1685594D01*
X5326278Y1672793D01*
X5334000Y1660855D01*
X5343245Y1650034D01*
X5353761Y1640484D01*
X5365394Y1632356D01*
X5377992Y1625803D01*
X5391353Y1620875D01*
X5405170Y1617726D01*
G37*
G36*
X5165344Y1616354D02*
G01*
X5179517Y1616811D01*
X5193538Y1619097D01*
X5207203Y1623110D01*
X5220157Y1628901D01*
X5232298Y1636268D01*
X5243423Y1645107D01*
X5253329Y1655318D01*
X5261813Y1666697D01*
X5268772Y1679092D01*
X5274106Y1692249D01*
X5277713Y1706016D01*
X5279542Y1720088D01*
X5279542Y1734312D01*
X5277713Y1748383D01*
X5274106Y1762150D01*
X5272125Y1767078D01*
X5271363Y1770938D01*
X5272176Y1774799D01*
X5274360Y1778050D01*
X5360924Y1864664D01*
X5366054Y1870862D01*
X5369610Y1877517D01*
X5371795Y1884781D01*
X5372608Y1892807D01*
X5372608Y2467152D01*
X5373370Y2471064D01*
X5375554Y2474366D01*
X5377180Y2475941D01*
X5382818Y2483967D01*
X5386933Y2492908D01*
X5389473Y2502357D01*
X5390337Y2512161D01*
X5389473Y2521966D01*
X5386933Y2531414D01*
X5382818Y2540355D01*
X5377180Y2548382D01*
X5370220Y2555341D01*
X5362194Y2560980D01*
X5353253Y2565095D01*
X5343804Y2567635D01*
X5334000Y2568498D01*
X5324195Y2567635D01*
X5314746Y2565095D01*
X5305806Y2560980D01*
X5297779Y2555341D01*
X5290820Y2548382D01*
X5285181Y2540355D01*
X5281066Y2531414D01*
X5278526Y2521966D01*
X5277662Y2512161D01*
X5278526Y2502357D01*
X5281066Y2492908D01*
X5285181Y2483967D01*
X5290820Y2475941D01*
X5292394Y2474366D01*
X5294630Y2471064D01*
X5295392Y2467203D01*
X5295392Y1912518D01*
X5294630Y1908606D01*
X5292394Y1905304D01*
X5219852Y1832762D01*
X5216499Y1830527D01*
X5212486Y1829765D01*
X5193538Y1835302D01*
X5179517Y1837588D01*
X5165344Y1838045D01*
X5151170Y1836674D01*
X5137353Y1833473D01*
X5123992Y1828596D01*
X5111394Y1821992D01*
X5099761Y1813864D01*
X5089245Y1804314D01*
X5080000Y1793493D01*
X5072278Y1781606D01*
X5066080Y1768805D01*
X5061610Y1755343D01*
X5058918Y1741373D01*
X5058003Y1727200D01*
X5058918Y1713026D01*
X5061610Y1699056D01*
X5066080Y1685594D01*
X5072278Y1672793D01*
X5080000Y1660855D01*
X5089245Y1650034D01*
X5099761Y1640484D01*
X5111394Y1632356D01*
X5123992Y1625803D01*
X5137353Y1620875D01*
X5151170Y1617726D01*
G37*
G36*
X4318000Y1670862D02*
G01*
X4327804Y1671726D01*
X4337253Y1674266D01*
X4346194Y1678381D01*
X4354220Y1684020D01*
X4361180Y1690979D01*
X4366818Y1699006D01*
X4370933Y1707946D01*
X4373473Y1717395D01*
X4374337Y1727200D01*
X4373473Y1737004D01*
X4370933Y1746453D01*
X4366818Y1755393D01*
X4361180Y1763420D01*
X4359554Y1764995D01*
X4357370Y1768297D01*
X4356608Y1772208D01*
X4356608Y2467152D01*
X4357370Y2471064D01*
X4359554Y2474366D01*
X4361180Y2475941D01*
X4366818Y2483967D01*
X4370933Y2492908D01*
X4373473Y2502357D01*
X4374337Y2512161D01*
X4373473Y2521966D01*
X4370933Y2531414D01*
X4366818Y2540355D01*
X4361180Y2548382D01*
X4354220Y2555341D01*
X4346194Y2560980D01*
X4337253Y2565095D01*
X4327804Y2567635D01*
X4318000Y2568498D01*
X4308195Y2567635D01*
X4298746Y2565095D01*
X4289806Y2560980D01*
X4281779Y2555341D01*
X4274820Y2548382D01*
X4269181Y2540355D01*
X4265066Y2531414D01*
X4262526Y2521966D01*
X4261662Y2512161D01*
X4262526Y2502357D01*
X4265066Y2492908D01*
X4269181Y2483967D01*
X4274820Y2475941D01*
X4276394Y2474366D01*
X4278630Y2471064D01*
X4279392Y2467203D01*
X4279392Y1772157D01*
X4278630Y1768297D01*
X4276394Y1764995D01*
X4274820Y1763420D01*
X4269181Y1755393D01*
X4265066Y1746453D01*
X4262526Y1737004D01*
X4261662Y1727200D01*
X4262526Y1717395D01*
X4265066Y1707946D01*
X4269181Y1699006D01*
X4274820Y1690979D01*
X4281779Y1684020D01*
X4289806Y1678381D01*
X4298746Y1674266D01*
X4308195Y1671726D01*
G37*
G36*
X1264920Y1732280D02*
G01*
X1389837Y1732280D01*
X1388516Y1743608D01*
X1384808Y1759254D01*
X1379270Y1774393D01*
X1372057Y1788769D01*
X1363218Y1802231D01*
X1352854Y1814525D01*
X1341170Y1825599D01*
X1328267Y1835200D01*
X1314348Y1843227D01*
X1299565Y1849628D01*
X1284122Y1854250D01*
X1268272Y1857044D01*
X1264920Y1857248D01*
G37*
G36*
X1114602Y1732280D02*
G01*
X1239520Y1732280D01*
X1239520Y1857248D01*
X1236167Y1857044D01*
X1220317Y1854250D01*
X1204874Y1849628D01*
X1190091Y1843227D01*
X1176172Y1835200D01*
X1163269Y1825599D01*
X1151534Y1814525D01*
X1141222Y1802231D01*
X1132382Y1788769D01*
X1125118Y1774393D01*
X1119632Y1759254D01*
X1115923Y1743608D01*
G37*
G36*
X5185410Y5473700D02*
G01*
X5448300Y5473700D01*
X5448300Y5736386D01*
X5432145Y5735370D01*
X5409285Y5732018D01*
X5386781Y5726734D01*
X5364835Y5719572D01*
X5343499Y5710631D01*
X5323027Y5699912D01*
X5303520Y5687568D01*
X5285130Y5673598D01*
X5267960Y5658104D01*
X5252161Y5641289D01*
X5237784Y5623153D01*
X5224983Y5603900D01*
X5213858Y5583682D01*
X5204460Y5562549D01*
X5196890Y5540756D01*
X5191150Y5518353D01*
X5187289Y5495594D01*
G37*
G36*
X3556000Y1835962D02*
G01*
X3565804Y1836826D01*
X3575253Y1839366D01*
X3584194Y1843481D01*
X3592220Y1849120D01*
X3599179Y1856079D01*
X3604818Y1864106D01*
X3608933Y1873046D01*
X3611473Y1882495D01*
X3612337Y1892300D01*
X3611473Y1902104D01*
X3608933Y1911553D01*
X3604818Y1920493D01*
X3599179Y1928520D01*
X3597605Y1930095D01*
X3595370Y1933397D01*
X3594608Y1937308D01*
X3594608Y2029968D01*
X3595522Y2034133D01*
X3598011Y2037537D01*
X3601720Y2039620D01*
X3605936Y2040026D01*
X3610000Y2038654D01*
X3613099Y2035759D01*
X3614420Y2033879D01*
X3621379Y2026920D01*
X3629406Y2021281D01*
X3638296Y2017166D01*
X3647795Y2014626D01*
X3657600Y2013762D01*
X3667353Y2014626D01*
X3676853Y2017166D01*
X3685743Y2021281D01*
X3693820Y2026920D01*
X3700729Y2033879D01*
X3706368Y2041906D01*
X3710533Y2050846D01*
X3713073Y2060295D01*
X3713937Y2070100D01*
X3713073Y2079904D01*
X3710533Y2089353D01*
X3706368Y2098294D01*
X3700729Y2106320D01*
X3699154Y2107895D01*
X3696970Y2111197D01*
X3696208Y2115108D01*
X3696208Y2367991D01*
X3696970Y2371902D01*
X3699154Y2375204D01*
X3700779Y2376779D01*
X3706418Y2384806D01*
X3710533Y2393746D01*
X3713073Y2403195D01*
X3713937Y2413000D01*
X3713073Y2422804D01*
X3710533Y2432253D01*
X3706418Y2441194D01*
X3700779Y2449220D01*
X3699205Y2450795D01*
X3696970Y2454097D01*
X3696208Y2458008D01*
X3696208Y3244291D01*
X3696970Y3248202D01*
X3699154Y3251504D01*
X3700779Y3253079D01*
X3706418Y3261106D01*
X3710533Y3270046D01*
X3713073Y3279495D01*
X3713937Y3289300D01*
X3713073Y3299104D01*
X3710533Y3308553D01*
X3706418Y3317494D01*
X3700779Y3325520D01*
X3693820Y3332479D01*
X3685794Y3338118D01*
X3676853Y3342233D01*
X3667404Y3344773D01*
X3657600Y3345637D01*
X3647795Y3344773D01*
X3638346Y3342233D01*
X3629406Y3338118D01*
X3621379Y3332479D01*
X3614420Y3325520D01*
X3608781Y3317494D01*
X3604666Y3308553D01*
X3602126Y3299104D01*
X3601262Y3289300D01*
X3602126Y3279495D01*
X3604666Y3270046D01*
X3608781Y3261106D01*
X3614420Y3253079D01*
X3615994Y3251504D01*
X3618229Y3248202D01*
X3618992Y3244342D01*
X3618992Y2567432D01*
X3618077Y2563266D01*
X3615588Y2559862D01*
X3611879Y2557729D01*
X3607663Y2557322D01*
X3603599Y2558694D01*
X3600500Y2561590D01*
X3599179Y2563520D01*
X3592220Y2570480D01*
X3584194Y2576118D01*
X3575253Y2580233D01*
X3565804Y2582773D01*
X3556000Y2583637D01*
X3546195Y2582773D01*
X3536746Y2580233D01*
X3527806Y2576118D01*
X3519779Y2570480D01*
X3512820Y2563520D01*
X3507181Y2555494D01*
X3503066Y2546553D01*
X3500526Y2537104D01*
X3499662Y2527300D01*
X3500526Y2517495D01*
X3503066Y2508046D01*
X3507181Y2499106D01*
X3512820Y2491079D01*
X3514394Y2489504D01*
X3516629Y2486202D01*
X3517392Y2482291D01*
X3517392Y1937308D01*
X3516629Y1933397D01*
X3514394Y1930095D01*
X3512820Y1928520D01*
X3507181Y1920493D01*
X3503066Y1911553D01*
X3500526Y1902104D01*
X3499662Y1892300D01*
X3500526Y1882495D01*
X3503066Y1873046D01*
X3507181Y1864106D01*
X3512820Y1856079D01*
X3519779Y1849120D01*
X3527806Y1843481D01*
X3536746Y1839366D01*
X3546195Y1836826D01*
G37*
G36*
X241300Y1861312D02*
G01*
X241300Y2000808D01*
X101854Y2000808D01*
X102565Y1992477D01*
X105765Y1975967D01*
X110794Y1959914D01*
X117602Y1944471D01*
X125983Y1929892D01*
X135991Y1916328D01*
X147370Y1903933D01*
X160070Y1892858D01*
X173939Y1883257D01*
X188772Y1875231D01*
X204368Y1868881D01*
X220573Y1864309D01*
X237185Y1861515D01*
G37*
G36*
X266700Y1861312D02*
G01*
X270814Y1861515D01*
X287426Y1864309D01*
X303631Y1868881D01*
X319227Y1875231D01*
X334060Y1883257D01*
X347929Y1892858D01*
X360629Y1903933D01*
X372008Y1916328D01*
X382016Y1929892D01*
X390398Y1944471D01*
X397205Y1959914D01*
X402234Y1975967D01*
X405434Y1992477D01*
X406146Y2000808D01*
X266700Y2000808D01*
G37*
G36*
X393700Y5473700D02*
G01*
X656336Y5473700D01*
X655929Y5484063D01*
X653034Y5507024D01*
X648208Y5529630D01*
X641553Y5551728D01*
X633018Y5573217D01*
X622757Y5593892D01*
X610819Y5613704D01*
X597204Y5632348D01*
X582117Y5649874D01*
X565607Y5666028D01*
X547827Y5680760D01*
X528828Y5693968D01*
X508812Y5705500D01*
X487934Y5715355D01*
X466242Y5723382D01*
X443992Y5729630D01*
X421284Y5733948D01*
X398322Y5736336D01*
X393700Y5736437D01*
G37*
G36*
X101650Y2026208D02*
G01*
X241300Y2026208D01*
X241300Y2176322D01*
X242062Y2180234D01*
X244297Y2183485D01*
X247548Y2185720D01*
X251460Y2186482D01*
X256540Y2186482D01*
X260451Y2185720D01*
X263702Y2183485D01*
X265938Y2180234D01*
X266700Y2176322D01*
X266700Y2026208D01*
X406349Y2026208D01*
X404063Y2042820D01*
X399897Y2059127D01*
X394004Y2074925D01*
X386334Y2090013D01*
X384911Y2093518D01*
X384860Y2097328D01*
X386181Y2100884D01*
X388721Y2103678D01*
X392074Y2105355D01*
X402691Y2108352D01*
X418287Y2114702D01*
X433120Y2122728D01*
X446938Y2132330D01*
X459689Y2143404D01*
X471068Y2155799D01*
X481076Y2169363D01*
X489458Y2183942D01*
X496265Y2199386D01*
X501294Y2215438D01*
X504494Y2231999D01*
X505206Y2240280D01*
X365760Y2240280D01*
X365760Y2090064D01*
X364998Y2086152D01*
X362762Y2082850D01*
X359460Y2080666D01*
X355600Y2079904D01*
X350520Y2079904D01*
X346608Y2080666D01*
X343306Y2082850D01*
X341122Y2086152D01*
X340360Y2090064D01*
X340360Y2240280D01*
X200914Y2240280D01*
X201625Y2231999D01*
X204825Y2215438D01*
X209854Y2199386D01*
X216611Y2183942D01*
X221183Y2176119D01*
X222402Y2172512D01*
X222250Y2168753D01*
X220725Y2165299D01*
X218033Y2162606D01*
X214579Y2161133D01*
X212394Y2160625D01*
X196443Y2155139D01*
X181254Y2147976D01*
X166878Y2139137D01*
X153568Y2128774D01*
X141528Y2117039D01*
X130810Y2104034D01*
X121615Y2089962D01*
X113995Y2074925D01*
X108102Y2059127D01*
X103936Y2042820D01*
G37*
G36*
X5473700Y5473700D02*
G01*
X5736336Y5473700D01*
X5735929Y5484063D01*
X5733034Y5507024D01*
X5728208Y5529630D01*
X5721553Y5551728D01*
X5713018Y5573217D01*
X5702757Y5593892D01*
X5690819Y5613704D01*
X5677204Y5632348D01*
X5662117Y5649874D01*
X5645607Y5666028D01*
X5627827Y5680760D01*
X5608828Y5693968D01*
X5588812Y5705500D01*
X5567934Y5715355D01*
X5546242Y5723382D01*
X5523992Y5729630D01*
X5501284Y5733948D01*
X5478322Y5736336D01*
X5473700Y5736437D01*
G37*
G36*
X5156250Y2043734D02*
G01*
X5170068Y2044598D01*
X5183632Y2047341D01*
X5196738Y2051761D01*
X5209184Y2057907D01*
X5220665Y2065578D01*
X5231079Y2074722D01*
X5240223Y2085136D01*
X5247944Y2096668D01*
X5254040Y2109063D01*
X5258511Y2122220D01*
X5261203Y2135784D01*
X5262118Y2149602D01*
X5261203Y2163419D01*
X5258511Y2176983D01*
X5254040Y2190140D01*
X5247944Y2202535D01*
X5240223Y2214067D01*
X5231079Y2224481D01*
X5220665Y2233625D01*
X5209184Y2241296D01*
X5196738Y2247442D01*
X5183632Y2251862D01*
X5170068Y2254605D01*
X5156250Y2255469D01*
X5142382Y2254605D01*
X5128818Y2251862D01*
X5115712Y2247442D01*
X5103266Y2241296D01*
X5091785Y2233625D01*
X5081371Y2224481D01*
X5072227Y2214067D01*
X5064506Y2202535D01*
X5058410Y2190140D01*
X5053939Y2176983D01*
X5051247Y2163419D01*
X5050332Y2149602D01*
X5051247Y2135784D01*
X5053939Y2122220D01*
X5058410Y2109063D01*
X5064506Y2096668D01*
X5072227Y2085136D01*
X5081371Y2074722D01*
X5091785Y2065578D01*
X5103266Y2057907D01*
X5115712Y2051761D01*
X5128818Y2047341D01*
X5142382Y2044598D01*
G37*
G36*
X4559300Y5473039D02*
G01*
X4559300Y5575300D01*
X4456887Y5575300D01*
X4457039Y5573471D01*
X4459732Y5559196D01*
X4464253Y5545328D01*
X4470450Y5532170D01*
X4478223Y5519877D01*
X4487519Y5508650D01*
X4498136Y5498693D01*
X4509922Y5490159D01*
X4522673Y5483148D01*
X4536186Y5477764D01*
X4550308Y5474157D01*
G37*
G36*
X1551940Y2142337D02*
G01*
X1567129Y2143252D01*
X1582064Y2145995D01*
X1596593Y2150516D01*
X1610461Y2156764D01*
X1623466Y2164588D01*
X1635404Y2173986D01*
X1646174Y2184755D01*
X1655521Y2196693D01*
X1663395Y2209698D01*
X1669643Y2223566D01*
X1674164Y2238095D01*
X1676907Y2253030D01*
X1677822Y2268220D01*
X1676907Y2283409D01*
X1674164Y2298344D01*
X1669643Y2312873D01*
X1663395Y2326741D01*
X1655521Y2339746D01*
X1646174Y2351684D01*
X1635404Y2362454D01*
X1623466Y2371801D01*
X1610461Y2379675D01*
X1596593Y2385923D01*
X1582064Y2390444D01*
X1567129Y2393188D01*
X1551940Y2394102D01*
X1536750Y2393188D01*
X1521815Y2390444D01*
X1507286Y2385923D01*
X1493418Y2379675D01*
X1480413Y2371801D01*
X1468475Y2362454D01*
X1457706Y2351684D01*
X1448308Y2339746D01*
X1440484Y2326741D01*
X1434236Y2312873D01*
X1429715Y2298344D01*
X1426972Y2283409D01*
X1426057Y2268220D01*
X1426972Y2253030D01*
X1429715Y2238095D01*
X1434236Y2223566D01*
X1440484Y2209698D01*
X1448308Y2196693D01*
X1457706Y2184755D01*
X1468475Y2173986D01*
X1480413Y2164588D01*
X1493418Y2156764D01*
X1507286Y2150516D01*
X1521815Y2145995D01*
X1536750Y2143252D01*
G37*
G36*
X4064000Y2204262D02*
G01*
X4073804Y2205126D01*
X4083253Y2207666D01*
X4092194Y2211781D01*
X4100220Y2217420D01*
X4107179Y2224379D01*
X4112818Y2232406D01*
X4116933Y2241346D01*
X4119473Y2250795D01*
X4120337Y2260600D01*
X4119473Y2270404D01*
X4116933Y2279853D01*
X4112818Y2288794D01*
X4107179Y2296820D01*
X4105554Y2298395D01*
X4103370Y2301697D01*
X4102608Y2305608D01*
X4102608Y2736291D01*
X4103370Y2740202D01*
X4105554Y2743504D01*
X4107179Y2745079D01*
X4112818Y2753106D01*
X4116933Y2762046D01*
X4119473Y2771495D01*
X4120337Y2781300D01*
X4119473Y2791104D01*
X4116933Y2800553D01*
X4112818Y2809494D01*
X4107179Y2817520D01*
X4100220Y2824480D01*
X4092194Y2830118D01*
X4083253Y2834233D01*
X4073804Y2836773D01*
X4064000Y2837637D01*
X4054195Y2836773D01*
X4044746Y2834233D01*
X4035806Y2830118D01*
X4027779Y2824480D01*
X4020820Y2817520D01*
X4015181Y2809494D01*
X4011066Y2800553D01*
X4008526Y2791104D01*
X4007662Y2781300D01*
X4008526Y2771495D01*
X4011066Y2762046D01*
X4015181Y2753106D01*
X4020820Y2745079D01*
X4022394Y2743504D01*
X4024629Y2740202D01*
X4025392Y2736342D01*
X4025392Y2305558D01*
X4024629Y2301697D01*
X4022394Y2298395D01*
X4020820Y2296820D01*
X4015181Y2288794D01*
X4011066Y2279853D01*
X4008526Y2270404D01*
X4007662Y2260600D01*
X4008526Y2250795D01*
X4011066Y2241346D01*
X4015181Y2232406D01*
X4020820Y2224379D01*
X4027779Y2217420D01*
X4035806Y2211781D01*
X4044746Y2207666D01*
X4054195Y2205126D01*
G37*
G36*
X200710Y2265680D02*
G01*
X340360Y2265680D01*
X340360Y2405176D01*
X327914Y2403805D01*
X311454Y2400096D01*
X295503Y2394610D01*
X280263Y2387447D01*
X265938Y2378608D01*
X252628Y2368296D01*
X240588Y2356510D01*
X229870Y2343505D01*
X220624Y2329434D01*
X213055Y2314397D01*
X207111Y2298598D01*
X202996Y2282291D01*
G37*
G36*
X365760Y2265680D02*
G01*
X505409Y2265680D01*
X503123Y2282291D01*
X498957Y2298598D01*
X493064Y2314397D01*
X485444Y2329434D01*
X476250Y2343505D01*
X465531Y2356510D01*
X453491Y2368296D01*
X440182Y2378608D01*
X425805Y2387447D01*
X410565Y2394610D01*
X394665Y2400096D01*
X378206Y2403805D01*
X365760Y2405176D01*
G37*
G36*
X4572000Y2356662D02*
G01*
X4581804Y2357526D01*
X4591253Y2360066D01*
X4600194Y2364181D01*
X4608220Y2369820D01*
X4615180Y2376779D01*
X4620818Y2384806D01*
X4624933Y2393746D01*
X4627473Y2403195D01*
X4628337Y2413000D01*
X4627473Y2422804D01*
X4624933Y2432253D01*
X4620818Y2441194D01*
X4615180Y2449220D01*
X4613554Y2450795D01*
X4611370Y2454097D01*
X4610608Y2458008D01*
X4610608Y3231591D01*
X4611370Y3235502D01*
X4613554Y3238804D01*
X4615180Y3240379D01*
X4620818Y3248406D01*
X4624933Y3257346D01*
X4627473Y3266795D01*
X4628337Y3276600D01*
X4627473Y3286404D01*
X4624933Y3295853D01*
X4620818Y3304794D01*
X4615180Y3312820D01*
X4608220Y3319779D01*
X4600194Y3325418D01*
X4591253Y3329533D01*
X4581804Y3332073D01*
X4572000Y3332937D01*
X4562195Y3332073D01*
X4552746Y3329533D01*
X4543806Y3325418D01*
X4535779Y3319779D01*
X4528820Y3312820D01*
X4523181Y3304794D01*
X4519066Y3295853D01*
X4516526Y3286404D01*
X4515662Y3276600D01*
X4516526Y3266795D01*
X4519066Y3257346D01*
X4523181Y3248406D01*
X4528820Y3240379D01*
X4530394Y3238804D01*
X4532630Y3235502D01*
X4533392Y3231642D01*
X4533392Y2457958D01*
X4532630Y2454097D01*
X4530394Y2450795D01*
X4528820Y2449220D01*
X4523181Y2441194D01*
X4519066Y2432253D01*
X4516526Y2422804D01*
X4515662Y2413000D01*
X4516526Y2403195D01*
X4519066Y2393746D01*
X4523181Y2384806D01*
X4528820Y2376779D01*
X4535779Y2369820D01*
X4543806Y2364181D01*
X4552746Y2360066D01*
X4562195Y2357526D01*
G37*
G36*
X4931206Y2386279D02*
G01*
X4946396Y2387193D01*
X4961331Y2389936D01*
X4975860Y2394458D01*
X4989728Y2400706D01*
X5002733Y2408580D01*
X5014722Y2417927D01*
X5025440Y2428697D01*
X5034838Y2440635D01*
X5042662Y2453690D01*
X5048910Y2467508D01*
X5053431Y2482037D01*
X5056174Y2496972D01*
X5057089Y2512161D01*
X5056174Y2527350D01*
X5053431Y2542286D01*
X5048910Y2556814D01*
X5042662Y2570683D01*
X5034838Y2583688D01*
X5025440Y2595626D01*
X5014722Y2606395D01*
X5002733Y2615793D01*
X4989728Y2623616D01*
X4975809Y2629916D01*
X4972659Y2632151D01*
X4970526Y2635351D01*
X4969814Y2639161D01*
X4970526Y2642971D01*
X4972659Y2646222D01*
X4975809Y2648458D01*
X4989728Y2654706D01*
X5002733Y2662580D01*
X5014722Y2671927D01*
X5025440Y2682697D01*
X5034838Y2694635D01*
X5042662Y2707690D01*
X5048910Y2721508D01*
X5053431Y2736037D01*
X5056174Y2750972D01*
X5057089Y2766161D01*
X5056174Y2781350D01*
X5053431Y2796286D01*
X5048910Y2810814D01*
X5042662Y2824683D01*
X5034838Y2837688D01*
X5025440Y2849626D01*
X5014722Y2860395D01*
X5002733Y2869793D01*
X4989728Y2877616D01*
X4975809Y2883916D01*
X4972659Y2886151D01*
X4970526Y2889351D01*
X4969814Y2893161D01*
X4970526Y2896971D01*
X4972659Y2900222D01*
X4975809Y2902458D01*
X4989728Y2908706D01*
X5002733Y2916580D01*
X5014722Y2925927D01*
X5025440Y2936697D01*
X5034838Y2948635D01*
X5042662Y2961690D01*
X5048910Y2975508D01*
X5053431Y2990037D01*
X5056174Y3004972D01*
X5057089Y3020161D01*
X5056174Y3035350D01*
X5053431Y3050286D01*
X5048910Y3064814D01*
X5042662Y3078683D01*
X5034838Y3091688D01*
X5025440Y3103626D01*
X5014722Y3114395D01*
X5002733Y3123793D01*
X4989728Y3131616D01*
X4975809Y3137916D01*
X4972659Y3140151D01*
X4970526Y3143351D01*
X4969814Y3147161D01*
X4970526Y3150971D01*
X4972659Y3154222D01*
X4975809Y3156458D01*
X4989728Y3162706D01*
X5002733Y3170580D01*
X5014722Y3179927D01*
X5025440Y3190697D01*
X5034838Y3202635D01*
X5042662Y3215690D01*
X5048910Y3229508D01*
X5053431Y3244037D01*
X5056174Y3258972D01*
X5057089Y3274161D01*
X5056174Y3289350D01*
X5053431Y3304286D01*
X5048910Y3318814D01*
X5042662Y3332683D01*
X5034838Y3345687D01*
X5025440Y3357626D01*
X5014722Y3368395D01*
X5002733Y3377793D01*
X4989728Y3385616D01*
X4975860Y3391865D01*
X4961331Y3396386D01*
X4946396Y3399129D01*
X4931206Y3400044D01*
X4916017Y3399129D01*
X4901082Y3396386D01*
X4886553Y3391865D01*
X4872736Y3385616D01*
X4859680Y3377793D01*
X4847742Y3368395D01*
X4836972Y3357626D01*
X4827625Y3345687D01*
X4819751Y3332683D01*
X4813503Y3318814D01*
X4808982Y3304286D01*
X4806238Y3289350D01*
X4805324Y3274161D01*
X4806238Y3258972D01*
X4808982Y3244037D01*
X4813503Y3229508D01*
X4819751Y3215690D01*
X4827625Y3202635D01*
X4836972Y3190697D01*
X4847742Y3179927D01*
X4859680Y3170580D01*
X4872736Y3162706D01*
X4886655Y3156458D01*
X4889804Y3154222D01*
X4891887Y3150971D01*
X4892649Y3147161D01*
X4891887Y3143351D01*
X4889804Y3140151D01*
X4886655Y3137916D01*
X4872736Y3131616D01*
X4859680Y3123793D01*
X4847742Y3114395D01*
X4836972Y3103626D01*
X4827625Y3091688D01*
X4819751Y3078683D01*
X4813503Y3064814D01*
X4808982Y3050286D01*
X4806238Y3035350D01*
X4805324Y3020161D01*
X4806238Y3004972D01*
X4808982Y2990037D01*
X4813503Y2975508D01*
X4819751Y2961690D01*
X4827625Y2948635D01*
X4836972Y2936697D01*
X4847742Y2925927D01*
X4859680Y2916580D01*
X4872736Y2908706D01*
X4886655Y2902458D01*
X4889804Y2900222D01*
X4891887Y2896971D01*
X4892649Y2893161D01*
X4891887Y2889351D01*
X4889804Y2886151D01*
X4886655Y2883916D01*
X4872736Y2877616D01*
X4859680Y2869793D01*
X4847742Y2860395D01*
X4836972Y2849626D01*
X4827625Y2837688D01*
X4819751Y2824683D01*
X4813503Y2810814D01*
X4808982Y2796286D01*
X4806238Y2781350D01*
X4805324Y2766161D01*
X4806238Y2750972D01*
X4808982Y2736037D01*
X4813503Y2721508D01*
X4819751Y2707690D01*
X4827625Y2694635D01*
X4836972Y2682697D01*
X4847742Y2671927D01*
X4859680Y2662580D01*
X4872736Y2654706D01*
X4886655Y2648458D01*
X4889804Y2646222D01*
X4891887Y2642971D01*
X4892649Y2639161D01*
X4891887Y2635351D01*
X4889804Y2632151D01*
X4886655Y2629916D01*
X4872736Y2623616D01*
X4859680Y2615793D01*
X4847742Y2606395D01*
X4836972Y2595626D01*
X4827625Y2583688D01*
X4819751Y2570683D01*
X4813503Y2556814D01*
X4808982Y2542286D01*
X4806238Y2527350D01*
X4805324Y2512161D01*
X4806238Y2496972D01*
X4808982Y2482037D01*
X4813503Y2467508D01*
X4819751Y2453690D01*
X4827625Y2440635D01*
X4836972Y2428697D01*
X4847742Y2417927D01*
X4859680Y2408580D01*
X4872736Y2400706D01*
X4886553Y2394458D01*
X4901082Y2389936D01*
X4916017Y2387193D01*
G37*
G36*
X1252220Y2391257D02*
G01*
X1267409Y2392172D01*
X1282344Y2394915D01*
X1296873Y2399436D01*
X1310741Y2405684D01*
X1323746Y2413508D01*
X1335684Y2422906D01*
X1346454Y2433675D01*
X1355801Y2445613D01*
X1363675Y2458618D01*
X1369923Y2472486D01*
X1374444Y2487015D01*
X1377188Y2501950D01*
X1378102Y2517140D01*
X1377188Y2532329D01*
X1374444Y2547264D01*
X1369923Y2561793D01*
X1363675Y2575661D01*
X1355801Y2588666D01*
X1346454Y2600604D01*
X1335684Y2611374D01*
X1323746Y2620721D01*
X1310741Y2628595D01*
X1296873Y2634843D01*
X1282344Y2639364D01*
X1267409Y2642108D01*
X1252220Y2643022D01*
X1237030Y2642108D01*
X1222095Y2639364D01*
X1207566Y2634843D01*
X1193698Y2628595D01*
X1180693Y2620721D01*
X1168755Y2611374D01*
X1157986Y2600604D01*
X1148588Y2588666D01*
X1140764Y2575661D01*
X1134516Y2561793D01*
X1129995Y2547264D01*
X1127252Y2532329D01*
X1126337Y2517140D01*
X1127252Y2501950D01*
X1129995Y2487015D01*
X1134516Y2472486D01*
X1140764Y2458618D01*
X1148588Y2445613D01*
X1157986Y2433675D01*
X1168755Y2422906D01*
X1180693Y2413508D01*
X1193698Y2405684D01*
X1207566Y2399436D01*
X1222095Y2394915D01*
X1237030Y2392172D01*
G37*
G36*
X4584700Y5473039D02*
G01*
X4593691Y5474157D01*
X4607814Y5477764D01*
X4621326Y5483148D01*
X4634077Y5490159D01*
X4645863Y5498693D01*
X4656480Y5508650D01*
X4665776Y5519877D01*
X4673549Y5532170D01*
X4679746Y5545328D01*
X4684268Y5559196D01*
X4686960Y5573471D01*
X4687112Y5575300D01*
X4584700Y5575300D01*
G37*
G36*
X3073400Y2597962D02*
G01*
X3083204Y2598826D01*
X3092653Y2601366D01*
X3101594Y2605481D01*
X3109620Y2611120D01*
X3116580Y2618079D01*
X3122218Y2626106D01*
X3126333Y2635046D01*
X3128873Y2644495D01*
X3129737Y2654300D01*
X3128873Y2664104D01*
X3126333Y2673553D01*
X3122218Y2682494D01*
X3116580Y2690520D01*
X3115005Y2692095D01*
X3112770Y2695397D01*
X3112008Y2699258D01*
X3112008Y4171391D01*
X3112770Y4175302D01*
X3115005Y4178604D01*
X3116580Y4180179D01*
X3122218Y4188206D01*
X3126333Y4197096D01*
X3128873Y4206595D01*
X3129737Y4216400D01*
X3128873Y4226153D01*
X3126333Y4235653D01*
X3122218Y4244543D01*
X3116580Y4252620D01*
X3109620Y4259580D01*
X3101594Y4265168D01*
X3092653Y4269333D01*
X3083204Y4271873D01*
X3073400Y4272737D01*
X3063595Y4271873D01*
X3054146Y4269333D01*
X3045206Y4265168D01*
X3037179Y4259580D01*
X3030220Y4252620D01*
X3024581Y4244543D01*
X3020466Y4235653D01*
X3017926Y4226153D01*
X3017062Y4216400D01*
X3017926Y4206595D01*
X3020466Y4197096D01*
X3024581Y4188206D01*
X3030220Y4180179D01*
X3031794Y4178604D01*
X3034030Y4175302D01*
X3034792Y4171391D01*
X3034792Y2699308D01*
X3034030Y2695397D01*
X3031794Y2692095D01*
X3030220Y2690520D01*
X3024581Y2682494D01*
X3020466Y2673553D01*
X3017926Y2664104D01*
X3017062Y2654300D01*
X3017926Y2644495D01*
X3020466Y2635046D01*
X3024581Y2626106D01*
X3030220Y2618079D01*
X3037179Y2611120D01*
X3045206Y2605481D01*
X3054146Y2601366D01*
X3063595Y2598826D01*
G37*
G36*
X4318000Y2712262D02*
G01*
X4327804Y2713126D01*
X4337253Y2715666D01*
X4346194Y2719781D01*
X4354220Y2725420D01*
X4361180Y2732379D01*
X4366818Y2740406D01*
X4370933Y2749346D01*
X4373473Y2758795D01*
X4374337Y2768600D01*
X4373473Y2778404D01*
X4370933Y2787853D01*
X4366818Y2796794D01*
X4361180Y2804820D01*
X4359554Y2806395D01*
X4357370Y2809697D01*
X4356608Y2813608D01*
X4356608Y3117291D01*
X4357370Y3121202D01*
X4359554Y3124504D01*
X4361180Y3126079D01*
X4366818Y3134106D01*
X4370933Y3143046D01*
X4373473Y3152495D01*
X4374337Y3162300D01*
X4373473Y3172104D01*
X4370933Y3181553D01*
X4366818Y3190494D01*
X4361180Y3198520D01*
X4359605Y3200095D01*
X4357370Y3203397D01*
X4356608Y3207308D01*
X4356608Y3676091D01*
X4357370Y3680002D01*
X4359605Y3683304D01*
X4361180Y3684879D01*
X4366818Y3692906D01*
X4370933Y3701846D01*
X4373473Y3711295D01*
X4374337Y3721100D01*
X4373473Y3730904D01*
X4370933Y3740353D01*
X4366818Y3749294D01*
X4361180Y3757320D01*
X4354220Y3764279D01*
X4346194Y3769918D01*
X4337253Y3774033D01*
X4327804Y3776573D01*
X4318000Y3777437D01*
X4308195Y3776573D01*
X4298746Y3774033D01*
X4289806Y3769918D01*
X4281779Y3764279D01*
X4274820Y3757320D01*
X4269181Y3749294D01*
X4265066Y3740353D01*
X4262526Y3730904D01*
X4261662Y3721100D01*
X4262526Y3711295D01*
X4265066Y3701846D01*
X4269181Y3692906D01*
X4274820Y3684879D01*
X4276394Y3683304D01*
X4278630Y3680002D01*
X4279392Y3676091D01*
X4279392Y3207308D01*
X4278630Y3203397D01*
X4276394Y3200095D01*
X4274820Y3198520D01*
X4269181Y3190494D01*
X4265066Y3181553D01*
X4262526Y3172104D01*
X4261662Y3162300D01*
X4262526Y3152495D01*
X4265066Y3143046D01*
X4269181Y3134106D01*
X4274820Y3126079D01*
X4276394Y3124504D01*
X4278630Y3121202D01*
X4279392Y3117342D01*
X4279392Y2813558D01*
X4278630Y2809697D01*
X4276394Y2806395D01*
X4274820Y2804820D01*
X4269181Y2796794D01*
X4265066Y2787853D01*
X4262526Y2778404D01*
X4261662Y2768600D01*
X4262526Y2758795D01*
X4265066Y2749346D01*
X4269181Y2740406D01*
X4274820Y2732379D01*
X4281779Y2725420D01*
X4289806Y2719781D01*
X4298746Y2715666D01*
X4308195Y2713126D01*
G37*
G36*
X3454400Y2724962D02*
G01*
X3464204Y2725826D01*
X3473653Y2728366D01*
X3482594Y2732481D01*
X3490620Y2738120D01*
X3497579Y2745079D01*
X3503218Y2753106D01*
X3507333Y2762046D01*
X3509873Y2771495D01*
X3510737Y2781300D01*
X3509873Y2791104D01*
X3507333Y2800553D01*
X3503218Y2809494D01*
X3497579Y2817520D01*
X3496005Y2819095D01*
X3493770Y2822397D01*
X3493008Y2826308D01*
X3493008Y3117291D01*
X3493770Y3121202D01*
X3496005Y3124504D01*
X3497579Y3126079D01*
X3503218Y3134106D01*
X3507333Y3143046D01*
X3509873Y3152495D01*
X3510737Y3162300D01*
X3509873Y3172104D01*
X3507333Y3181553D01*
X3503218Y3190494D01*
X3497579Y3198520D01*
X3496005Y3200095D01*
X3493770Y3203397D01*
X3493008Y3207308D01*
X3493008Y3853891D01*
X3493770Y3857802D01*
X3496005Y3861104D01*
X3497579Y3862679D01*
X3503218Y3870706D01*
X3507333Y3879646D01*
X3509873Y3889095D01*
X3510737Y3898900D01*
X3509873Y3908704D01*
X3507333Y3918153D01*
X3503218Y3927094D01*
X3497579Y3935120D01*
X3490620Y3942079D01*
X3482594Y3947718D01*
X3473653Y3951833D01*
X3464204Y3954373D01*
X3454400Y3955237D01*
X3444595Y3954373D01*
X3435146Y3951833D01*
X3426206Y3947718D01*
X3418179Y3942079D01*
X3411220Y3935120D01*
X3405581Y3927094D01*
X3401466Y3918153D01*
X3398926Y3908704D01*
X3398062Y3898900D01*
X3398926Y3889095D01*
X3401466Y3879646D01*
X3405581Y3870706D01*
X3411220Y3862679D01*
X3412794Y3861104D01*
X3415029Y3857802D01*
X3415792Y3853891D01*
X3415792Y3207308D01*
X3415029Y3203397D01*
X3412794Y3200095D01*
X3411220Y3198520D01*
X3405581Y3190494D01*
X3401466Y3181553D01*
X3398926Y3172104D01*
X3398062Y3162300D01*
X3398926Y3152495D01*
X3401466Y3143046D01*
X3405581Y3134106D01*
X3411220Y3126079D01*
X3412794Y3124504D01*
X3415029Y3121202D01*
X3415792Y3117291D01*
X3415792Y2826308D01*
X3415029Y2822397D01*
X3412794Y2819095D01*
X3411220Y2817520D01*
X3405581Y2809494D01*
X3401466Y2800553D01*
X3398926Y2791104D01*
X3398062Y2781300D01*
X3398926Y2771495D01*
X3401466Y2762046D01*
X3405581Y2753106D01*
X3411220Y2745079D01*
X3418179Y2738120D01*
X3426206Y2732481D01*
X3435146Y2728366D01*
X3444595Y2725826D01*
G37*
G36*
X5473700Y105562D02*
G01*
X5478322Y105664D01*
X5501284Y108051D01*
X5523992Y112369D01*
X5546242Y118618D01*
X5567934Y126644D01*
X5588812Y136499D01*
X5608828Y148031D01*
X5627827Y161239D01*
X5645607Y175971D01*
X5662117Y192125D01*
X5677204Y209600D01*
X5690819Y228295D01*
X5702757Y248107D01*
X5713018Y268782D01*
X5721553Y290271D01*
X5728208Y312369D01*
X5733034Y334975D01*
X5735929Y357936D01*
X5736336Y368300D01*
X5473700Y368300D01*
G37*
G36*
X4445000Y2966262D02*
G01*
X4454804Y2967126D01*
X4464253Y2969666D01*
X4473194Y2973781D01*
X4481220Y2979420D01*
X4488180Y2986379D01*
X4493818Y2994406D01*
X4497933Y3003346D01*
X4500473Y3012795D01*
X4501337Y3022600D01*
X4500473Y3032404D01*
X4497933Y3041853D01*
X4493818Y3050794D01*
X4488180Y3058820D01*
X4486605Y3060395D01*
X4484370Y3063697D01*
X4483608Y3067608D01*
X4483608Y4018991D01*
X4484370Y4022902D01*
X4486605Y4026204D01*
X4488180Y4027779D01*
X4493818Y4035806D01*
X4497933Y4044746D01*
X4500473Y4054195D01*
X4501337Y4064000D01*
X4500473Y4073804D01*
X4497933Y4083253D01*
X4493818Y4092194D01*
X4488180Y4100220D01*
X4481220Y4107179D01*
X4473194Y4112818D01*
X4464253Y4116933D01*
X4454804Y4119473D01*
X4445000Y4120337D01*
X4435195Y4119473D01*
X4425746Y4116933D01*
X4416806Y4112818D01*
X4408779Y4107179D01*
X4401820Y4100220D01*
X4396181Y4092194D01*
X4392066Y4083253D01*
X4389526Y4073804D01*
X4388662Y4064000D01*
X4389526Y4054195D01*
X4392066Y4044746D01*
X4396181Y4035806D01*
X4401820Y4027779D01*
X4403394Y4026204D01*
X4405630Y4022902D01*
X4406392Y4018991D01*
X4406392Y3067608D01*
X4405630Y3063697D01*
X4403394Y3060395D01*
X4401820Y3058820D01*
X4396181Y3050794D01*
X4392066Y3041853D01*
X4389526Y3032404D01*
X4388662Y3022600D01*
X4389526Y3012795D01*
X4392066Y3003346D01*
X4396181Y2994406D01*
X4401820Y2986379D01*
X4408779Y2979420D01*
X4416806Y2973781D01*
X4425746Y2969666D01*
X4435195Y2967126D01*
G37*
G36*
X5334000Y2966262D02*
G01*
X5343804Y2967126D01*
X5353253Y2969666D01*
X5362194Y2973781D01*
X5370220Y2979420D01*
X5377180Y2986379D01*
X5382818Y2994406D01*
X5386933Y3003346D01*
X5389473Y3012795D01*
X5390337Y3022600D01*
X5389473Y3032404D01*
X5386933Y3041853D01*
X5382818Y3050794D01*
X5377180Y3058820D01*
X5375554Y3060395D01*
X5373370Y3063697D01*
X5372608Y3067608D01*
X5372608Y3898341D01*
X5371795Y3906367D01*
X5369610Y3913632D01*
X5366054Y3920286D01*
X5360924Y3926484D01*
X5274360Y4013098D01*
X5272125Y4016349D01*
X5271363Y4020210D01*
X5272125Y4024122D01*
X5274106Y4029049D01*
X5277713Y4042765D01*
X5279542Y4056887D01*
X5279542Y4071112D01*
X5277713Y4085183D01*
X5274106Y4098899D01*
X5268772Y4112107D01*
X5261813Y4124451D01*
X5253278Y4135882D01*
X5243423Y4146092D01*
X5232298Y4154932D01*
X5220157Y4162298D01*
X5207152Y4168038D01*
X5193538Y4172102D01*
X5179517Y4174337D01*
X5165293Y4174794D01*
X5151170Y4173423D01*
X5137302Y4170273D01*
X5123992Y4165396D01*
X5111394Y4158792D01*
X5099710Y4150664D01*
X5089194Y4141114D01*
X5080000Y4130294D01*
X5072227Y4118406D01*
X5066080Y4105605D01*
X5061610Y4092092D01*
X5058867Y4078173D01*
X5058003Y4064000D01*
X5058867Y4049826D01*
X5061610Y4035856D01*
X5066080Y4022394D01*
X5072227Y4009593D01*
X5080000Y3997655D01*
X5089194Y3986834D01*
X5099710Y3977284D01*
X5111394Y3969156D01*
X5123992Y3962603D01*
X5137302Y3957675D01*
X5151170Y3954526D01*
X5165293Y3953154D01*
X5179517Y3953611D01*
X5193538Y3955897D01*
X5212486Y3961384D01*
X5216448Y3960672D01*
X5219801Y3958437D01*
X5292394Y3885844D01*
X5294630Y3882542D01*
X5295392Y3878630D01*
X5295392Y3067558D01*
X5294630Y3063697D01*
X5292394Y3060395D01*
X5290820Y3058820D01*
X5285181Y3050794D01*
X5281066Y3041853D01*
X5278526Y3032404D01*
X5277662Y3022600D01*
X5278526Y3012795D01*
X5281066Y3003346D01*
X5285181Y2994406D01*
X5290820Y2986379D01*
X5297779Y2979420D01*
X5305806Y2973781D01*
X5314746Y2969666D01*
X5324195Y2967126D01*
G37*
G36*
X1252220Y3198977D02*
G01*
X1267409Y3199892D01*
X1282344Y3202635D01*
X1296873Y3207156D01*
X1310741Y3213404D01*
X1323746Y3221228D01*
X1335684Y3230626D01*
X1346454Y3241395D01*
X1355801Y3253333D01*
X1363675Y3266338D01*
X1369923Y3280206D01*
X1374444Y3294735D01*
X1377188Y3309670D01*
X1378102Y3324860D01*
X1377188Y3340049D01*
X1374444Y3354984D01*
X1369923Y3369513D01*
X1363675Y3383330D01*
X1355801Y3396386D01*
X1346454Y3408324D01*
X1335684Y3419094D01*
X1323746Y3428441D01*
X1310741Y3436315D01*
X1296873Y3442563D01*
X1282344Y3447084D01*
X1267409Y3449828D01*
X1252220Y3450742D01*
X1237030Y3449828D01*
X1222095Y3447084D01*
X1207566Y3442563D01*
X1193698Y3436315D01*
X1180693Y3428441D01*
X1168755Y3419094D01*
X1157986Y3408324D01*
X1148588Y3396386D01*
X1140764Y3383330D01*
X1134516Y3369513D01*
X1129995Y3354984D01*
X1127252Y3340049D01*
X1126337Y3324860D01*
X1127252Y3309670D01*
X1129995Y3294735D01*
X1134516Y3280206D01*
X1140764Y3266338D01*
X1148588Y3253333D01*
X1157986Y3241395D01*
X1168755Y3230626D01*
X1180693Y3221228D01*
X1193698Y3213404D01*
X1207566Y3207156D01*
X1222095Y3202635D01*
X1237030Y3199892D01*
G37*
G36*
X365760Y3436823D02*
G01*
X369874Y3437026D01*
X386486Y3439820D01*
X402691Y3444392D01*
X418287Y3450742D01*
X433120Y3458768D01*
X446938Y3468370D01*
X459689Y3479444D01*
X471068Y3491839D01*
X481076Y3505403D01*
X489458Y3519982D01*
X496265Y3535426D01*
X501294Y3551478D01*
X504494Y3567988D01*
X505206Y3576320D01*
X365760Y3576320D01*
G37*
G36*
X340360Y3436823D02*
G01*
X340360Y3576320D01*
X200914Y3576320D01*
X201625Y3567988D01*
X204825Y3551478D01*
X209854Y3535426D01*
X216611Y3519982D01*
X225044Y3505403D01*
X235051Y3491839D01*
X246430Y3479444D01*
X259130Y3468370D01*
X272999Y3458768D01*
X287782Y3450742D01*
X303428Y3444392D01*
X319633Y3439820D01*
X336245Y3437026D01*
G37*
G36*
X1551940Y3450437D02*
G01*
X1567129Y3451351D01*
X1582064Y3454095D01*
X1596593Y3458616D01*
X1610461Y3464864D01*
X1623466Y3472687D01*
X1635404Y3482086D01*
X1646174Y3492855D01*
X1655521Y3504793D01*
X1663395Y3517798D01*
X1669643Y3531666D01*
X1674164Y3546195D01*
X1676907Y3561130D01*
X1677822Y3576320D01*
X1676907Y3591509D01*
X1674164Y3606444D01*
X1669643Y3620973D01*
X1663395Y3634790D01*
X1655521Y3647846D01*
X1646174Y3659784D01*
X1635404Y3670554D01*
X1623466Y3679901D01*
X1610461Y3687775D01*
X1596593Y3694023D01*
X1582064Y3698544D01*
X1567129Y3701287D01*
X1551940Y3702202D01*
X1536750Y3701287D01*
X1521815Y3698544D01*
X1507286Y3694023D01*
X1493418Y3687775D01*
X1480413Y3679901D01*
X1468475Y3670554D01*
X1457706Y3659784D01*
X1448308Y3647846D01*
X1440484Y3634790D01*
X1434236Y3620973D01*
X1429715Y3606444D01*
X1426972Y3591509D01*
X1426057Y3576320D01*
X1426972Y3561130D01*
X1429715Y3546195D01*
X1434236Y3531666D01*
X1440484Y3517798D01*
X1448308Y3504793D01*
X1457706Y3492855D01*
X1468475Y3482086D01*
X1480413Y3472687D01*
X1493418Y3464864D01*
X1507286Y3458616D01*
X1521815Y3454095D01*
X1536750Y3451351D01*
G37*
G36*
X3841496Y3512362D02*
G01*
X3851300Y3513226D01*
X3860749Y3515766D01*
X3869690Y3519881D01*
X3877716Y3525520D01*
X3884676Y3532479D01*
X3890314Y3540506D01*
X3894429Y3549446D01*
X3896969Y3558895D01*
X3897833Y3568700D01*
X3896969Y3578504D01*
X3894429Y3587953D01*
X3890314Y3596894D01*
X3884676Y3604920D01*
X3877716Y3611879D01*
X3869690Y3617518D01*
X3860749Y3621633D01*
X3851300Y3624173D01*
X3841496Y3625037D01*
X3831691Y3624173D01*
X3822242Y3621633D01*
X3813301Y3617518D01*
X3805275Y3611879D01*
X3798315Y3604920D01*
X3792677Y3596894D01*
X3788562Y3587953D01*
X3786022Y3578504D01*
X3785158Y3568700D01*
X3786022Y3558895D01*
X3788562Y3549446D01*
X3792677Y3540506D01*
X3798315Y3532479D01*
X3805275Y3525520D01*
X3813301Y3519881D01*
X3822242Y3515766D01*
X3831691Y3513226D01*
G37*
G36*
X4152900Y3512362D02*
G01*
X4162704Y3513226D01*
X4172153Y3515766D01*
X4181094Y3519881D01*
X4189120Y3525520D01*
X4196080Y3532479D01*
X4201718Y3540506D01*
X4205833Y3549446D01*
X4208373Y3558895D01*
X4209237Y3568700D01*
X4208373Y3578504D01*
X4205833Y3587953D01*
X4201718Y3596894D01*
X4196080Y3604920D01*
X4194505Y3606495D01*
X4192270Y3609797D01*
X4191508Y3613708D01*
X4191508Y5039512D01*
X4191965Y5042560D01*
X4193336Y5045354D01*
X4197908Y5051806D01*
X4202023Y5060746D01*
X4204563Y5070195D01*
X4205427Y5080000D01*
X4204563Y5089804D01*
X4202023Y5099253D01*
X4197908Y5108194D01*
X4192270Y5116220D01*
X4185310Y5123180D01*
X4177284Y5128818D01*
X4168343Y5132933D01*
X4158894Y5135473D01*
X4149090Y5136337D01*
X4139285Y5135473D01*
X4129836Y5132933D01*
X4120896Y5128818D01*
X4112869Y5123180D01*
X4105910Y5116220D01*
X4100271Y5108194D01*
X4096156Y5099253D01*
X4093616Y5089804D01*
X4092752Y5080000D01*
X4093616Y5070195D01*
X4096156Y5060746D01*
X4100271Y5051806D01*
X4105910Y5043779D01*
X4111294Y5038394D01*
X4113529Y5035092D01*
X4114292Y5031181D01*
X4114292Y3613708D01*
X4113529Y3609797D01*
X4111294Y3606495D01*
X4109720Y3604920D01*
X4104081Y3596894D01*
X4099966Y3587953D01*
X4097426Y3578504D01*
X4096562Y3568700D01*
X4097426Y3558895D01*
X4099966Y3549446D01*
X4104081Y3540506D01*
X4109720Y3532479D01*
X4116679Y3525520D01*
X4124706Y3519881D01*
X4133646Y3515766D01*
X4143095Y3513226D01*
G37*
G36*
X5156250Y3530803D02*
G01*
X5170068Y3531717D01*
X5183632Y3534410D01*
X5196738Y3538880D01*
X5209184Y3544976D01*
X5220665Y3552698D01*
X5231079Y3561842D01*
X5240223Y3572256D01*
X5247944Y3583736D01*
X5254040Y3596182D01*
X5258511Y3609289D01*
X5261203Y3622852D01*
X5262118Y3636670D01*
X5261203Y3650538D01*
X5258511Y3664102D01*
X5254040Y3677208D01*
X5247944Y3689654D01*
X5240223Y3701135D01*
X5231079Y3711549D01*
X5220665Y3720693D01*
X5209184Y3728415D01*
X5196738Y3734511D01*
X5183632Y3738981D01*
X5170068Y3741674D01*
X5156250Y3742588D01*
X5142382Y3741674D01*
X5128818Y3738981D01*
X5115712Y3734511D01*
X5103266Y3728415D01*
X5091785Y3720693D01*
X5081371Y3711549D01*
X5072227Y3701135D01*
X5064506Y3689654D01*
X5058410Y3677208D01*
X5053939Y3664102D01*
X5051247Y3650538D01*
X5050332Y3636670D01*
X5051247Y3622852D01*
X5053939Y3609289D01*
X5058410Y3596182D01*
X5064506Y3583736D01*
X5072227Y3572256D01*
X5081371Y3561842D01*
X5091785Y3552698D01*
X5103266Y3544976D01*
X5115712Y3538880D01*
X5128818Y3534410D01*
X5142382Y3531717D01*
G37*
G36*
X200710Y3601720D02*
G01*
X340360Y3601720D01*
X340360Y3751834D01*
X341122Y3755745D01*
X343306Y3758996D01*
X346608Y3761232D01*
X350520Y3761994D01*
X355600Y3761994D01*
X359460Y3761232D01*
X362762Y3758996D01*
X364998Y3755745D01*
X365760Y3751834D01*
X365760Y3601720D01*
X505409Y3601720D01*
X503123Y3618331D01*
X498957Y3634638D01*
X493064Y3650437D01*
X485444Y3665474D01*
X476250Y3679545D01*
X465531Y3692550D01*
X453491Y3704285D01*
X440182Y3714648D01*
X425805Y3723487D01*
X410565Y3730650D01*
X394665Y3736136D01*
X388924Y3737406D01*
X385470Y3738930D01*
X382778Y3741572D01*
X381254Y3745077D01*
X381101Y3748836D01*
X382371Y3752392D01*
X390398Y3766362D01*
X397205Y3781806D01*
X402234Y3797858D01*
X405434Y3814368D01*
X406146Y3822700D01*
X266700Y3822700D01*
X266700Y3672484D01*
X265938Y3668572D01*
X263702Y3665270D01*
X260451Y3663086D01*
X256540Y3662324D01*
X251460Y3662324D01*
X247548Y3663086D01*
X244297Y3665270D01*
X242062Y3668572D01*
X241300Y3672484D01*
X241300Y3822700D01*
X101854Y3822700D01*
X102565Y3814368D01*
X105765Y3797858D01*
X110794Y3781806D01*
X117602Y3766362D01*
X125983Y3751783D01*
X135991Y3738219D01*
X147370Y3725824D01*
X160070Y3714750D01*
X173939Y3705148D01*
X188772Y3697122D01*
X204368Y3690772D01*
X218744Y3686708D01*
X222148Y3685032D01*
X224688Y3682187D01*
X226009Y3678682D01*
X225958Y3674872D01*
X224536Y3671366D01*
X220624Y3665474D01*
X213055Y3650437D01*
X207111Y3634638D01*
X202996Y3618331D01*
G37*
G36*
X4818735Y5472328D02*
G01*
X4833264Y5472328D01*
X4847691Y5474157D01*
X4861814Y5477764D01*
X4875326Y5483148D01*
X4888077Y5490159D01*
X4899863Y5498693D01*
X4910480Y5508650D01*
X4919776Y5519877D01*
X4927549Y5532170D01*
X4933746Y5545328D01*
X4938268Y5559196D01*
X4940960Y5573471D01*
X4941874Y5588000D01*
X4940960Y5602528D01*
X4938268Y5616803D01*
X4933746Y5630672D01*
X4927549Y5643829D01*
X4919776Y5656122D01*
X4910480Y5667349D01*
X4899863Y5677306D01*
X4888077Y5685840D01*
X4875326Y5692851D01*
X4861814Y5698236D01*
X4847691Y5701842D01*
X4833264Y5703671D01*
X4818735Y5703671D01*
X4804308Y5701842D01*
X4790186Y5698236D01*
X4776673Y5692851D01*
X4763922Y5685840D01*
X4752136Y5677306D01*
X4741519Y5667349D01*
X4732223Y5656122D01*
X4724450Y5643829D01*
X4718253Y5630672D01*
X4713732Y5616803D01*
X4711039Y5602528D01*
X4710125Y5588000D01*
X4711039Y5573471D01*
X4713732Y5559196D01*
X4718253Y5545328D01*
X4724450Y5532170D01*
X4732223Y5519877D01*
X4741519Y5508650D01*
X4752136Y5498693D01*
X4763922Y5490159D01*
X4776673Y5483148D01*
X4790186Y5477764D01*
X4804308Y5474157D01*
G37*
G36*
X4584700Y5346700D02*
G01*
X4687112Y5346700D01*
X4686960Y5348528D01*
X4684268Y5362803D01*
X4679746Y5376672D01*
X4673549Y5389829D01*
X4665776Y5402122D01*
X4656480Y5413349D01*
X4645863Y5423306D01*
X4634077Y5431840D01*
X4621326Y5438851D01*
X4607814Y5444236D01*
X4593691Y5447842D01*
X4584700Y5448960D01*
G37*
G36*
X266700Y3848100D02*
G01*
X406349Y3848100D01*
X404063Y3864711D01*
X399897Y3881018D01*
X394004Y3896817D01*
X386384Y3911854D01*
X377190Y3925925D01*
X366471Y3938930D01*
X354431Y3950665D01*
X341122Y3961028D01*
X326745Y3969867D01*
X311556Y3977030D01*
X295605Y3982516D01*
X279146Y3986174D01*
X266700Y3987596D01*
G37*
G36*
X101650Y3848100D02*
G01*
X241300Y3848100D01*
X241300Y3987596D01*
X228854Y3986174D01*
X212394Y3982516D01*
X196443Y3977030D01*
X181254Y3969867D01*
X166878Y3961028D01*
X153568Y3950665D01*
X141528Y3938930D01*
X130810Y3925925D01*
X121615Y3911854D01*
X113995Y3896817D01*
X108102Y3881018D01*
X103936Y3864711D01*
G37*
G36*
X1239520Y3918712D02*
G01*
X1239520Y4043679D01*
X1114602Y4043679D01*
X1115923Y4032351D01*
X1119632Y4016705D01*
X1125118Y4001566D01*
X1132382Y3987190D01*
X1141222Y3973728D01*
X1151534Y3961384D01*
X1163269Y3950360D01*
X1176172Y3940759D01*
X1190091Y3932682D01*
X1204874Y3926332D01*
X1220317Y3921709D01*
X1236167Y3918915D01*
G37*
G36*
X1264920Y3918712D02*
G01*
X1268272Y3918915D01*
X1284122Y3921709D01*
X1299565Y3926332D01*
X1314348Y3932682D01*
X1328267Y3940759D01*
X1341170Y3950360D01*
X1352854Y3961384D01*
X1363218Y3973728D01*
X1372057Y3987190D01*
X1379270Y4001566D01*
X1384808Y4016705D01*
X1388516Y4032351D01*
X1389837Y4043679D01*
X1264920Y4043679D01*
G37*
G36*
X4911293Y3953154D02*
G01*
X4925517Y3953611D01*
X4939538Y3955897D01*
X4953152Y3959910D01*
X4966157Y3965651D01*
X4978298Y3973017D01*
X4989423Y3981907D01*
X4999278Y3992118D01*
X5007813Y4003497D01*
X5014772Y4015892D01*
X5020106Y4029049D01*
X5023713Y4042765D01*
X5025542Y4056887D01*
X5025542Y4071112D01*
X5023713Y4085183D01*
X5020106Y4098899D01*
X5014772Y4112107D01*
X5007813Y4124451D01*
X4999278Y4135882D01*
X4989423Y4146092D01*
X4978298Y4154932D01*
X4966157Y4162298D01*
X4953152Y4168038D01*
X4939538Y4172102D01*
X4925517Y4174337D01*
X4911293Y4174794D01*
X4897170Y4173423D01*
X4883302Y4170273D01*
X4869992Y4165396D01*
X4857394Y4158792D01*
X4845710Y4150664D01*
X4835194Y4141114D01*
X4826000Y4130294D01*
X4818227Y4118406D01*
X4812080Y4105605D01*
X4807610Y4092092D01*
X4804867Y4078173D01*
X4804003Y4064000D01*
X4804867Y4049826D01*
X4807610Y4035856D01*
X4812080Y4022394D01*
X4818227Y4009593D01*
X4826000Y3997655D01*
X4835194Y3986834D01*
X4845710Y3977284D01*
X4857394Y3969156D01*
X4869992Y3962603D01*
X4883302Y3957675D01*
X4897170Y3954526D01*
G37*
G36*
X5419293Y3953154D02*
G01*
X5433517Y3953611D01*
X5447538Y3955897D01*
X5461152Y3959910D01*
X5474157Y3965651D01*
X5486298Y3973017D01*
X5497423Y3981907D01*
X5507278Y3992118D01*
X5515813Y4003497D01*
X5522772Y4015892D01*
X5528106Y4029049D01*
X5531713Y4042765D01*
X5533542Y4056887D01*
X5533542Y4071112D01*
X5531713Y4085183D01*
X5528106Y4098899D01*
X5522772Y4112107D01*
X5515813Y4124451D01*
X5507278Y4135882D01*
X5497423Y4146092D01*
X5486298Y4154932D01*
X5474157Y4162298D01*
X5461152Y4168038D01*
X5447538Y4172102D01*
X5433517Y4174337D01*
X5419293Y4174794D01*
X5405170Y4173423D01*
X5391302Y4170273D01*
X5377992Y4165396D01*
X5365394Y4158792D01*
X5353710Y4150664D01*
X5343194Y4141114D01*
X5334000Y4130294D01*
X5326227Y4118406D01*
X5320080Y4105605D01*
X5315610Y4092092D01*
X5312867Y4078173D01*
X5311952Y4064000D01*
X5312867Y4049826D01*
X5315610Y4035856D01*
X5320080Y4022394D01*
X5326227Y4009593D01*
X5334000Y3997655D01*
X5343194Y3986834D01*
X5353710Y3977284D01*
X5365394Y3969156D01*
X5377992Y3962603D01*
X5391302Y3957675D01*
X5405170Y3954526D01*
G37*
G36*
X4456887Y5346700D02*
G01*
X4559300Y5346700D01*
X4559300Y5448960D01*
X4550308Y5447842D01*
X4536186Y5444236D01*
X4522673Y5438851D01*
X4509922Y5431840D01*
X4498136Y5423306D01*
X4487519Y5413349D01*
X4478223Y5402122D01*
X4470450Y5389829D01*
X4464253Y5376672D01*
X4459732Y5362803D01*
X4457039Y5348528D01*
G37*
G36*
X1264920Y4069079D02*
G01*
X1389837Y4069079D01*
X1388516Y4080408D01*
X1384808Y4096054D01*
X1379270Y4111193D01*
X1372057Y4125569D01*
X1363218Y4139031D01*
X1352854Y4151325D01*
X1341170Y4162399D01*
X1328267Y4172000D01*
X1314348Y4180027D01*
X1299565Y4186428D01*
X1284122Y4191050D01*
X1268272Y4193844D01*
X1264920Y4194048D01*
G37*
G36*
X1114602Y4069079D02*
G01*
X1239520Y4069079D01*
X1239520Y4194048D01*
X1236167Y4193844D01*
X1220317Y4191050D01*
X1204874Y4186428D01*
X1190091Y4180027D01*
X1176172Y4172000D01*
X1163269Y4162399D01*
X1151534Y4151325D01*
X1141222Y4139031D01*
X1132382Y4125569D01*
X1125118Y4111193D01*
X1119632Y4096054D01*
X1115923Y4080408D01*
G37*
G36*
X266700Y4198112D02*
G01*
X270814Y4198315D01*
X287426Y4201109D01*
X303631Y4205681D01*
X319227Y4212031D01*
X334060Y4220057D01*
X347929Y4229658D01*
X360629Y4240733D01*
X372008Y4253128D01*
X382016Y4266692D01*
X390398Y4281271D01*
X397205Y4296714D01*
X402234Y4312767D01*
X405434Y4329277D01*
X406146Y4337608D01*
X266700Y4337608D01*
G37*
G36*
X241300Y4198112D02*
G01*
X241300Y4337608D01*
X101854Y4337608D01*
X102565Y4329277D01*
X105765Y4312767D01*
X110794Y4296714D01*
X117602Y4281271D01*
X125983Y4266692D01*
X135991Y4253128D01*
X147370Y4240733D01*
X160070Y4229658D01*
X173939Y4220057D01*
X188772Y4212031D01*
X204368Y4205681D01*
X220573Y4201109D01*
X237185Y4198315D01*
G37*
G36*
X101650Y4363008D02*
G01*
X241300Y4363008D01*
X241300Y4513122D01*
X242062Y4517034D01*
X244297Y4520285D01*
X247548Y4522520D01*
X251460Y4523282D01*
X256540Y4523282D01*
X260451Y4522520D01*
X263702Y4520285D01*
X265938Y4517034D01*
X266700Y4513122D01*
X266700Y4363008D01*
X406349Y4363008D01*
X404063Y4379620D01*
X399897Y4395927D01*
X394004Y4411726D01*
X386334Y4426813D01*
X384911Y4430318D01*
X384860Y4434128D01*
X386181Y4437684D01*
X388721Y4440478D01*
X392074Y4442155D01*
X402691Y4445152D01*
X418287Y4451502D01*
X433120Y4459528D01*
X446938Y4469130D01*
X459689Y4480204D01*
X471068Y4492599D01*
X481076Y4506163D01*
X489458Y4520742D01*
X496265Y4536186D01*
X501294Y4552238D01*
X504494Y4568748D01*
X505206Y4577080D01*
X365760Y4577080D01*
X365760Y4426864D01*
X364998Y4422952D01*
X362762Y4419650D01*
X359460Y4417466D01*
X355600Y4416704D01*
X350520Y4416704D01*
X346608Y4417466D01*
X343306Y4419650D01*
X341122Y4422952D01*
X340360Y4426864D01*
X340360Y4577080D01*
X200914Y4577080D01*
X201625Y4568748D01*
X204825Y4552238D01*
X209854Y4536186D01*
X216611Y4520742D01*
X221132Y4512919D01*
X222402Y4509312D01*
X222250Y4505553D01*
X220725Y4502099D01*
X218033Y4499406D01*
X214579Y4497933D01*
X212394Y4497425D01*
X196443Y4491939D01*
X181254Y4484776D01*
X166878Y4475937D01*
X153568Y4465574D01*
X141528Y4453839D01*
X130810Y4440834D01*
X121615Y4426762D01*
X113995Y4411726D01*
X108102Y4395927D01*
X103936Y4379620D01*
G37*
G36*
X4584700Y5219039D02*
G01*
X4593691Y5220157D01*
X4607814Y5223764D01*
X4621326Y5229148D01*
X4634077Y5236159D01*
X4645863Y5244693D01*
X4656480Y5254650D01*
X4665776Y5265877D01*
X4673549Y5278170D01*
X4679746Y5291328D01*
X4684268Y5305196D01*
X4686960Y5319471D01*
X4687112Y5321300D01*
X4584700Y5321300D01*
G37*
G36*
X4559300Y5219039D02*
G01*
X4559300Y5321300D01*
X4456887Y5321300D01*
X4457039Y5319471D01*
X4459732Y5305196D01*
X4464253Y5291328D01*
X4470450Y5278170D01*
X4478223Y5265877D01*
X4487519Y5254650D01*
X4498136Y5244693D01*
X4509922Y5236159D01*
X4522673Y5229148D01*
X4536186Y5223764D01*
X4550308Y5220157D01*
G37*
G36*
X1551940Y4479137D02*
G01*
X1567129Y4480052D01*
X1582064Y4482795D01*
X1596593Y4487316D01*
X1610461Y4493564D01*
X1623466Y4501388D01*
X1635404Y4510786D01*
X1646174Y4521555D01*
X1655521Y4533493D01*
X1663395Y4546498D01*
X1669643Y4560366D01*
X1674164Y4574895D01*
X1676907Y4589830D01*
X1677822Y4605020D01*
X1676907Y4620209D01*
X1674164Y4635144D01*
X1669643Y4649673D01*
X1663395Y4663490D01*
X1655521Y4676546D01*
X1646174Y4688484D01*
X1635404Y4699254D01*
X1623466Y4708601D01*
X1610461Y4716475D01*
X1596593Y4722723D01*
X1582064Y4727244D01*
X1567129Y4729988D01*
X1551940Y4730902D01*
X1536750Y4729988D01*
X1521815Y4727244D01*
X1507286Y4722723D01*
X1493418Y4716475D01*
X1480413Y4708601D01*
X1468475Y4699254D01*
X1457706Y4688484D01*
X1448308Y4676546D01*
X1440484Y4663490D01*
X1434236Y4649673D01*
X1429715Y4635144D01*
X1426972Y4620209D01*
X1426057Y4605020D01*
X1426972Y4589830D01*
X1429715Y4574895D01*
X1434236Y4560366D01*
X1440484Y4546498D01*
X1448308Y4533493D01*
X1457706Y4521555D01*
X1468475Y4510786D01*
X1480413Y4501388D01*
X1493418Y4493564D01*
X1507286Y4487316D01*
X1521815Y4482795D01*
X1536750Y4480052D01*
G37*
G36*
X365760Y4602480D02*
G01*
X505409Y4602480D01*
X503123Y4619091D01*
X498957Y4635398D01*
X493064Y4651197D01*
X485444Y4666234D01*
X476250Y4680305D01*
X465531Y4693310D01*
X453491Y4705045D01*
X440182Y4715408D01*
X425805Y4724247D01*
X410565Y4731410D01*
X394665Y4736896D01*
X378206Y4740554D01*
X365760Y4741976D01*
G37*
G36*
X200710Y4602480D02*
G01*
X340360Y4602480D01*
X340360Y4741976D01*
X327914Y4740554D01*
X311454Y4736896D01*
X295503Y4731410D01*
X280263Y4724247D01*
X265938Y4715408D01*
X252628Y4705045D01*
X240588Y4693310D01*
X229870Y4680305D01*
X220624Y4666234D01*
X213055Y4651197D01*
X207111Y4635398D01*
X202996Y4619091D01*
G37*
G36*
X1252220Y4728057D02*
G01*
X1267409Y4728972D01*
X1282344Y4731715D01*
X1296873Y4736236D01*
X1310741Y4742484D01*
X1323746Y4750308D01*
X1335684Y4759706D01*
X1346454Y4770475D01*
X1355801Y4782413D01*
X1363675Y4795418D01*
X1369923Y4809286D01*
X1374444Y4823815D01*
X1377188Y4838750D01*
X1378102Y4853940D01*
X1377188Y4869129D01*
X1374444Y4884064D01*
X1369923Y4898593D01*
X1363675Y4912410D01*
X1355801Y4925466D01*
X1346454Y4937404D01*
X1335684Y4948174D01*
X1323746Y4957521D01*
X1310741Y4965395D01*
X1296873Y4971643D01*
X1282344Y4976164D01*
X1267409Y4978908D01*
X1252220Y4979822D01*
X1237030Y4978908D01*
X1222095Y4976164D01*
X1207566Y4971643D01*
X1193698Y4965395D01*
X1180693Y4957521D01*
X1168755Y4948174D01*
X1157986Y4937404D01*
X1148588Y4925466D01*
X1140764Y4912410D01*
X1134516Y4898593D01*
X1129995Y4884064D01*
X1127252Y4869129D01*
X1126337Y4853940D01*
X1127252Y4838750D01*
X1129995Y4823815D01*
X1134516Y4809286D01*
X1140764Y4795418D01*
X1148588Y4782413D01*
X1157986Y4770475D01*
X1168755Y4759706D01*
X1180693Y4750308D01*
X1193698Y4742484D01*
X1207566Y4736236D01*
X1222095Y4731715D01*
X1237030Y4728972D01*
G37*
G36*
X4826000Y5022138D02*
G01*
X4835804Y5023002D01*
X4845253Y5025542D01*
X4854194Y5029708D01*
X4862220Y5035346D01*
X4869180Y5042255D01*
X4874818Y5050332D01*
X4878933Y5059222D01*
X4881473Y5068722D01*
X4882337Y5078476D01*
X4881473Y5088280D01*
X4878933Y5097780D01*
X4874818Y5106670D01*
X4869180Y5114747D01*
X4867605Y5116322D01*
X4865370Y5119624D01*
X4864608Y5123484D01*
X4864608Y5217972D01*
X4865420Y5221935D01*
X4867656Y5225237D01*
X4871008Y5227421D01*
X4875326Y5229148D01*
X4888077Y5236159D01*
X4899863Y5244693D01*
X4910480Y5254650D01*
X4919776Y5265877D01*
X4927549Y5278170D01*
X4933746Y5291328D01*
X4938268Y5305196D01*
X4940960Y5319471D01*
X4941874Y5334000D01*
X4940960Y5348528D01*
X4938268Y5362803D01*
X4933746Y5376672D01*
X4927549Y5389829D01*
X4919776Y5402122D01*
X4910480Y5413349D01*
X4899863Y5423306D01*
X4888077Y5431840D01*
X4875326Y5438851D01*
X4861814Y5444236D01*
X4847691Y5447842D01*
X4833264Y5449671D01*
X4818735Y5449671D01*
X4804308Y5447842D01*
X4790186Y5444236D01*
X4776673Y5438851D01*
X4763922Y5431840D01*
X4752136Y5423306D01*
X4741519Y5413349D01*
X4732223Y5402122D01*
X4724450Y5389829D01*
X4718253Y5376672D01*
X4713732Y5362803D01*
X4711039Y5348528D01*
X4710125Y5334000D01*
X4711039Y5319471D01*
X4713732Y5305196D01*
X4718253Y5291328D01*
X4724450Y5278170D01*
X4732223Y5265877D01*
X4741519Y5254650D01*
X4752136Y5244693D01*
X4763922Y5236159D01*
X4776673Y5229148D01*
X4780991Y5227421D01*
X4784344Y5225237D01*
X4786579Y5221935D01*
X4787392Y5217972D01*
X4787392Y5123484D01*
X4786630Y5119624D01*
X4784394Y5116322D01*
X4782820Y5114747D01*
X4777181Y5106670D01*
X4773066Y5097780D01*
X4770526Y5088280D01*
X4769662Y5078476D01*
X4770526Y5068722D01*
X4773066Y5059222D01*
X4777181Y5050332D01*
X4782820Y5042255D01*
X4789779Y5035346D01*
X4797806Y5029708D01*
X4806746Y5025542D01*
X4816195Y5023002D01*
G37*
G36*
X5473700Y5185562D02*
G01*
X5478322Y5185664D01*
X5501284Y5188051D01*
X5523992Y5192369D01*
X5546242Y5198618D01*
X5567934Y5206644D01*
X5588812Y5216499D01*
X5608828Y5228031D01*
X5627827Y5241239D01*
X5645607Y5255971D01*
X5662117Y5272125D01*
X5677204Y5289600D01*
X5690819Y5308295D01*
X5702757Y5328107D01*
X5713018Y5348782D01*
X5721553Y5370271D01*
X5728208Y5392369D01*
X5733034Y5414975D01*
X5735929Y5437936D01*
X5736336Y5448300D01*
X5473700Y5448300D01*
G37*
G36*
X393700Y5185562D02*
G01*
X398322Y5185664D01*
X421284Y5188051D01*
X443992Y5192369D01*
X466242Y5198618D01*
X487934Y5206644D01*
X508812Y5216499D01*
X528828Y5228031D01*
X547827Y5241239D01*
X565607Y5255971D01*
X582117Y5272125D01*
X597204Y5289600D01*
X610819Y5308295D01*
X622757Y5328107D01*
X633018Y5348782D01*
X641553Y5370271D01*
X648208Y5392369D01*
X653034Y5414975D01*
X655929Y5437936D01*
X656336Y5448300D01*
X393700Y5448300D01*
G37*
G36*
X5448300Y5185613D02*
G01*
X5448300Y5448300D01*
X5185410Y5448300D01*
X5187289Y5426405D01*
X5191150Y5403646D01*
X5196890Y5381244D01*
X5204460Y5359450D01*
X5213858Y5338318D01*
X5224983Y5318099D01*
X5237784Y5298846D01*
X5252161Y5280710D01*
X5267960Y5263896D01*
X5285130Y5248402D01*
X5303520Y5234432D01*
X5323027Y5222087D01*
X5343499Y5211368D01*
X5364835Y5202428D01*
X5386781Y5195265D01*
X5409285Y5189982D01*
X5432145Y5186629D01*
G37*
G36*
X368300Y5185613D02*
G01*
X368300Y5448300D01*
X105410Y5448300D01*
X107289Y5426405D01*
X111150Y5403646D01*
X116890Y5381244D01*
X124460Y5359450D01*
X133858Y5338318D01*
X144983Y5318099D01*
X157784Y5298846D01*
X172161Y5280710D01*
X187960Y5263896D01*
X205130Y5248402D01*
X223520Y5234432D01*
X243027Y5222087D01*
X263499Y5211368D01*
X284835Y5202428D01*
X306781Y5195265D01*
X329285Y5189982D01*
X352145Y5186629D01*
G37*
G36*
X2933700Y2851962D02*
G01*
X2943504Y2852826D01*
X2952953Y2855366D01*
X2961894Y2859481D01*
X2969920Y2865120D01*
X2976880Y2872079D01*
X2982518Y2880106D01*
X2986633Y2889046D01*
X2989173Y2898495D01*
X2990037Y2908300D01*
X2989173Y2918104D01*
X2986633Y2927553D01*
X2982518Y2936494D01*
X2976880Y2944520D01*
X2975305Y2946095D01*
X2973070Y2949397D01*
X2972308Y2953258D01*
X2972308Y4565091D01*
X2973070Y4569002D01*
X2975305Y4572304D01*
X2976880Y4573879D01*
X2982518Y4581906D01*
X2986633Y4590846D01*
X2989173Y4600295D01*
X2990037Y4610100D01*
X2989173Y4619904D01*
X2986633Y4629353D01*
X2982518Y4638294D01*
X2976880Y4646320D01*
X2969920Y4653280D01*
X2961894Y4658918D01*
X2952953Y4663033D01*
X2943504Y4665573D01*
X2933700Y4666437D01*
X2923895Y4665573D01*
X2914446Y4663033D01*
X2905506Y4658918D01*
X2897479Y4653280D01*
X2890520Y4646320D01*
X2884881Y4638294D01*
X2880766Y4629353D01*
X2878226Y4619904D01*
X2877362Y4610100D01*
X2878226Y4600295D01*
X2880766Y4590846D01*
X2884881Y4581906D01*
X2890520Y4573879D01*
X2892094Y4572304D01*
X2894330Y4569002D01*
X2895092Y4565091D01*
X2895092Y2953308D01*
X2894330Y2949397D01*
X2892094Y2946095D01*
X2890520Y2944520D01*
X2884881Y2936494D01*
X2880766Y2927553D01*
X2878226Y2918104D01*
X2877362Y2908300D01*
X2878226Y2898495D01*
X2880766Y2889046D01*
X2884881Y2880106D01*
X2890520Y2872079D01*
X2897479Y2865120D01*
X2905506Y2859481D01*
X2914446Y2855366D01*
X2923895Y2852826D01*
G37*

%LPD*%
D10*
X5333987Y2512164D02*
G01*
X5333987Y1892294D01*
X5168889Y1727197D01*
X5333989Y3022594D02*
G01*
X5333989Y3898851D01*
X5168856Y4063984D01*
X4826000Y5078501D02*
G01*
X4826000Y5334000D01*
X3073400Y2654300D02*
G01*
X3073400Y4216400D01*
X4445000Y4064000D02*
G01*
X4445000Y3022605D01*
X4444987Y3022594D01*
X4152900Y3568700D02*
G01*
X4152900Y5076192D01*
X4149092Y5080000D01*
X4191000Y2654300D02*
G01*
X4191000Y1562100D01*
X4571987Y2412994D02*
G01*
X4571987Y3276587D01*
X4572000Y3276600D01*
X2794000Y1231900D02*
G01*
X2794000Y3568700D01*
X2933700Y4610100D02*
G01*
X2933700Y2908300D01*
X3454400Y3162300D02*
G01*
X3454400Y3898900D01*
X4063987Y2260594D02*
G01*
X4063987Y2781294D01*
X4317987Y3162294D02*
G01*
X4317987Y2768594D01*
X3454400Y2781300D02*
G01*
X3454400Y3162300D01*
X3556000Y2527300D02*
G01*
X3556000Y1892300D01*
X3657592Y3289292D02*
G01*
X3657600Y2413000D01*
X4317987Y2512164D02*
G01*
X4317987Y1727200D01*
X4190992Y3035294D02*
G01*
X4190992Y2654294D01*
X4318000Y3162300D02*
G01*
X4318000Y3721094D01*
X3657587Y2070100D02*
G01*
X3657587Y2412994D01*
D11*
G01*
X999997Y6041999D03*
G01*
X10884001Y6041999D03*
G01*
X1499996Y-6241999D03*
G01*
X10384002Y-6241999D03*
D12*
G01*
X353060Y2252979D03*
G01*
X353060Y1252220D03*
D13*
G01*
X1252220Y1719579D03*
D14*
G01*
X1252220Y2517139D03*
G01*
X1252220Y988060D03*
G01*
X1551939Y1239520D03*
G01*
X1551939Y2268220D03*
D12*
G01*
X353060Y4589779D03*
G01*
X353060Y3589020D03*
D13*
G01*
X1252220Y4056379D03*
D14*
G01*
X1252220Y4853939D03*
G01*
X1252220Y3324860D03*
G01*
X1551939Y3576320D03*
G01*
X1551939Y4605020D03*
D15*
G01*
X381000Y5461000D03*
G01*
X5461000Y5461000D03*
G01*
X5461000Y381000D03*
G01*
X381000Y381000D03*
D14*
G01*
X4931206Y3274161D03*
G01*
X4931206Y2512161D03*
G01*
X4931206Y2766161D03*
G01*
X4931206Y3020161D03*
D16*
G01*
X4826000Y5588000D03*
G01*
X4826000Y5334000D03*
G01*
X4572000Y5334000D03*
G01*
X4572000Y5588000D03*
D12*
G01*
X254000Y4350308D03*
G01*
X254000Y2013508D03*
G01*
X254000Y1498600D03*
G01*
X254000Y3835400D03*
D17*
G01*
X5422900Y1727200D03*
G01*
X5168900Y1727200D03*
G01*
X4914900Y1727200D03*
G01*
X4914849Y4063974D03*
G01*
X5168849Y4063974D03*
G01*
X5422849Y4063974D03*
D18*
G01*
X4149090Y5080000D03*
G01*
X4826000Y5078501D03*
G01*
X3657600Y3289300D03*
G01*
X4318000Y3162300D03*
G01*
X4318000Y2768600D03*
G01*
X3841495Y3568700D03*
G01*
X4152900Y3568700D03*
G01*
X2794000Y1231900D03*
G01*
X4064000Y2260600D03*
G01*
X4064000Y2781300D03*
G01*
X4191000Y3035300D03*
G01*
X3454400Y3162300D03*
G01*
X3454400Y3898900D03*
G01*
X2933700Y4610100D03*
G01*
X2933700Y2908300D03*
G01*
X2794000Y3568700D03*
G01*
X4572000Y3276600D03*
G01*
X3657600Y2413000D03*
G01*
X4572000Y2413000D03*
G01*
X4191000Y2654300D03*
G01*
X3454400Y2781300D03*
G01*
X3073400Y2654300D03*
G01*
X4445000Y3022600D03*
G01*
X3556000Y2527300D03*
G01*
X3556000Y1892300D03*
G01*
X4318000Y2512161D03*
G01*
X4318000Y1727200D03*
G01*
X4445000Y4064000D03*
G01*
X4191000Y1562100D03*
G01*
X5334000Y3022600D03*
G01*
X5334000Y2512161D03*
G01*
X3073400Y4216400D03*
G01*
X4318000Y3721100D03*
G01*
X3657600Y2070100D03*
M02*
