G04 Layer: BottomSolderMaskLayer*
G04 Panelize: V-CUT, Column: 2, Row: 2, Board Size: 58.42mm x 58.42mm, Panelized Board Size: 118.84mm x 118.84mm*
G04 EasyEDA v6.5.32, 2023-07-30 20:53:33*
G04 c3515dc738d34e5298cd013e7790fecd,5a6b42c53f6a479593ecc07194224c93,10*
G04 Gerber Generator version 0.2*
G04 Scale: 100 percent, Rotated: No, Reflected: No *
G04 Dimensions in millimeters *
G04 leading zeros omitted , absolute positions ,4 integer and 5 decimal *
%FSLAX45Y45*%
%MOMM*%

%ADD10C,2.7432*%
%ADD11C,2.4532*%
%ADD12C,2.2032*%
%ADD13C,5.2032*%
%ADD14C,2.1016*%
%ADD15C,1.9016*%
%ADD16C,1.8016*%
%ADD17C,3.0000*%

%LPD*%
D10*
G01*
X353060Y2252979D03*
G01*
X353060Y1252220D03*
D11*
G01*
X1252220Y1719579D03*
D12*
G01*
X1252220Y2517139D03*
G01*
X1252220Y988060D03*
G01*
X1551939Y1239520D03*
G01*
X1551939Y2268220D03*
D10*
G01*
X353060Y4589779D03*
G01*
X353060Y3589020D03*
D11*
G01*
X1252220Y4056379D03*
D12*
G01*
X1252220Y4853939D03*
G01*
X1252220Y3324860D03*
G01*
X1551939Y3576320D03*
G01*
X1551939Y4605020D03*
D13*
G01*
X381000Y5461000D03*
G01*
X5461000Y5461000D03*
G01*
X5461000Y381000D03*
G01*
X381000Y381000D03*
D14*
G01*
X4931206Y3274161D03*
G01*
X4931206Y2512161D03*
G01*
X4931206Y2766161D03*
G01*
X4931206Y3020161D03*
D15*
G01*
X4826000Y5588000D03*
G01*
X4826000Y5334000D03*
G01*
X4572000Y5334000D03*
G01*
X4572000Y5588000D03*
D10*
G01*
X254000Y4350308D03*
G01*
X254000Y2013508D03*
G01*
X254000Y1498600D03*
G01*
X254000Y3835400D03*
D16*
G01*
X5422900Y1727200D03*
G01*
X5168900Y1727200D03*
G01*
X4914900Y1727200D03*
G01*
X4914849Y4063974D03*
G01*
X5168849Y4063974D03*
G01*
X5422849Y4063974D03*
D17*
G01*
X999997Y6041999D03*
G01*
X10884001Y6041999D03*
G01*
X1499996Y-6241999D03*
G01*
X10384002Y-6241999D03*
M02*
