G04 Layer: TopSilkscreenLayer*
G04 EasyEDA v6.5.32, 2023-07-25 14:04:49*
G04 c8ab560ed44a410f903f0410a66912ea,5a6b42c53f6a479593ecc07194224c93,10*
G04 Gerber Generator version 0.2*
G04 Scale: 100 percent, Rotated: No, Reflected: No *
G04 Dimensions in millimeters *
G04 leading zeros omitted , absolute positions ,4 integer and 5 decimal *
%FSLAX45Y45*%
%MOMM*%

%ADD10C,0.1524*%
%ADD11C,0.3860*%
%ADD12C,0.1500*%
%ADD13C,0.2540*%
%ADD14C,0.1520*%
%ADD15C,0.0114*%

%LPD*%
D10*
X762000Y5423915D02*
G01*
X762000Y5314950D01*
X762000Y5423915D02*
G01*
X808736Y5423915D01*
X824229Y5418836D01*
X829563Y5413502D01*
X834644Y5403087D01*
X834644Y5387594D01*
X829563Y5377179D01*
X824229Y5372100D01*
X808736Y5366765D01*
X762000Y5366765D01*
X910589Y5423915D02*
G01*
X868934Y5314950D01*
X910589Y5423915D02*
G01*
X952245Y5314950D01*
X884681Y5351271D02*
G01*
X936497Y5351271D01*
X986536Y5423915D02*
G01*
X986536Y5314950D01*
X986536Y5423915D02*
G01*
X1033271Y5423915D01*
X1048765Y5418836D01*
X1054100Y5413502D01*
X1059179Y5403087D01*
X1059179Y5392673D01*
X1054100Y5382260D01*
X1048765Y5377179D01*
X1033271Y5372100D01*
X986536Y5372100D01*
X1022857Y5372100D02*
G01*
X1059179Y5314950D01*
X1129792Y5423915D02*
G01*
X1129792Y5314950D01*
X1093470Y5423915D02*
G01*
X1166113Y5423915D01*
X1280413Y5423915D02*
G01*
X1280413Y5314950D01*
X1280413Y5423915D02*
G01*
X1353312Y5314950D01*
X1353312Y5423915D02*
G01*
X1353312Y5314950D01*
X1387602Y5423915D02*
G01*
X1387602Y5345937D01*
X1392681Y5330444D01*
X1403095Y5320029D01*
X1418589Y5314950D01*
X1429004Y5314950D01*
X1444752Y5320029D01*
X1455165Y5330444D01*
X1460245Y5345937D01*
X1460245Y5423915D01*
X1494536Y5423915D02*
G01*
X1494536Y5314950D01*
X1494536Y5423915D02*
G01*
X1536192Y5314950D01*
X1577594Y5423915D02*
G01*
X1536192Y5314950D01*
X1577594Y5423915D02*
G01*
X1577594Y5314950D01*
X1611884Y5423915D02*
G01*
X1611884Y5314950D01*
X1611884Y5423915D02*
G01*
X1658620Y5423915D01*
X1674368Y5418836D01*
X1679447Y5413502D01*
X1684781Y5403087D01*
X1684781Y5392673D01*
X1679447Y5382260D01*
X1674368Y5377179D01*
X1658620Y5372100D01*
X1611884Y5372100D02*
G01*
X1658620Y5372100D01*
X1674368Y5366765D01*
X1679447Y5361686D01*
X1684781Y5351271D01*
X1684781Y5335523D01*
X1679447Y5325110D01*
X1674368Y5320029D01*
X1658620Y5314950D01*
X1611884Y5314950D01*
X1719071Y5423915D02*
G01*
X1719071Y5314950D01*
X1719071Y5423915D02*
G01*
X1786636Y5423915D01*
X1719071Y5372100D02*
G01*
X1760473Y5372100D01*
X1719071Y5314950D02*
G01*
X1786636Y5314950D01*
X1820926Y5423915D02*
G01*
X1820926Y5314950D01*
X1820926Y5423915D02*
G01*
X1867662Y5423915D01*
X1883155Y5418836D01*
X1888489Y5413502D01*
X1893570Y5403087D01*
X1893570Y5392673D01*
X1888489Y5382260D01*
X1883155Y5377179D01*
X1867662Y5372100D01*
X1820926Y5372100D01*
X1857247Y5372100D02*
G01*
X1893570Y5314950D01*
X2007870Y5403087D02*
G01*
X2018284Y5408421D01*
X2033777Y5423915D01*
X2033777Y5314950D01*
X2099309Y5423915D02*
G01*
X2083815Y5418836D01*
X2073402Y5403087D01*
X2068068Y5377179D01*
X2068068Y5361686D01*
X2073402Y5335523D01*
X2083815Y5320029D01*
X2099309Y5314950D01*
X2109724Y5314950D01*
X2125218Y5320029D01*
X2135631Y5335523D01*
X2140965Y5361686D01*
X2140965Y5377179D01*
X2135631Y5403087D01*
X2125218Y5418836D01*
X2109724Y5423915D01*
X2099309Y5423915D01*
X2237486Y5423915D02*
G01*
X2185670Y5423915D01*
X2180336Y5377179D01*
X2185670Y5382260D01*
X2201163Y5387594D01*
X2216658Y5387594D01*
X2232406Y5382260D01*
X2242820Y5372100D01*
X2247900Y5356352D01*
X2247900Y5345937D01*
X2242820Y5330444D01*
X2232406Y5320029D01*
X2216658Y5314950D01*
X2201163Y5314950D01*
X2185670Y5320029D01*
X2180336Y5325110D01*
X2175256Y5335523D01*
X2354834Y5423915D02*
G01*
X2303018Y5314950D01*
X2282190Y5423915D02*
G01*
X2354834Y5423915D01*
X2389124Y5361686D02*
G01*
X2482850Y5361686D01*
X2548127Y5423915D02*
G01*
X2532634Y5418836D01*
X2522220Y5403087D01*
X2517140Y5377179D01*
X2517140Y5361686D01*
X2522220Y5335523D01*
X2532634Y5320029D01*
X2548127Y5314950D01*
X2558541Y5314950D01*
X2574290Y5320029D01*
X2584450Y5335523D01*
X2589784Y5361686D01*
X2589784Y5377179D01*
X2584450Y5403087D01*
X2574290Y5418836D01*
X2558541Y5423915D01*
X2548127Y5423915D01*
X2624074Y5403087D02*
G01*
X2634488Y5408421D01*
X2649981Y5423915D01*
X2649981Y5314950D01*
X2715513Y5423915D02*
G01*
X2700020Y5418836D01*
X2689606Y5403087D01*
X2684272Y5377179D01*
X2684272Y5361686D01*
X2689606Y5335523D01*
X2700020Y5320029D01*
X2715513Y5314950D01*
X2725927Y5314950D01*
X2741422Y5320029D01*
X2751836Y5335523D01*
X2757170Y5361686D01*
X2757170Y5377179D01*
X2751836Y5403087D01*
X2741422Y5418836D01*
X2725927Y5423915D01*
X2715513Y5423915D01*
X2791459Y5403087D02*
G01*
X2801620Y5408421D01*
X2817368Y5423915D01*
X2817368Y5314950D01*
X762000Y5601715D02*
G01*
X762000Y5492750D01*
X762000Y5601715D02*
G01*
X808736Y5601715D01*
X824229Y5596636D01*
X829563Y5591302D01*
X834644Y5580887D01*
X834644Y5565394D01*
X829563Y5554979D01*
X824229Y5549900D01*
X808736Y5544565D01*
X762000Y5544565D01*
X868934Y5601715D02*
G01*
X868934Y5492750D01*
X868934Y5601715D02*
G01*
X915670Y5601715D01*
X931418Y5596636D01*
X936497Y5591302D01*
X941831Y5580887D01*
X941831Y5570473D01*
X936497Y5560060D01*
X931418Y5554979D01*
X915670Y5549900D01*
X868934Y5549900D01*
X905510Y5549900D02*
G01*
X941831Y5492750D01*
X1007110Y5601715D02*
G01*
X996950Y5596636D01*
X986536Y5586221D01*
X981202Y5575807D01*
X976121Y5560060D01*
X976121Y5534152D01*
X981202Y5518657D01*
X986536Y5508244D01*
X996950Y5497829D01*
X1007110Y5492750D01*
X1027937Y5492750D01*
X1038352Y5497829D01*
X1048765Y5508244D01*
X1054100Y5518657D01*
X1059179Y5534152D01*
X1059179Y5560060D01*
X1054100Y5575807D01*
X1048765Y5586221D01*
X1038352Y5596636D01*
X1027937Y5601715D01*
X1007110Y5601715D01*
X1129792Y5601715D02*
G01*
X1129792Y5492750D01*
X1093470Y5601715D02*
G01*
X1166113Y5601715D01*
X1231645Y5601715D02*
G01*
X1221231Y5596636D01*
X1210818Y5586221D01*
X1205737Y5575807D01*
X1200404Y5560060D01*
X1200404Y5534152D01*
X1205737Y5518657D01*
X1210818Y5508244D01*
X1221231Y5497829D01*
X1231645Y5492750D01*
X1252473Y5492750D01*
X1262887Y5497829D01*
X1273302Y5508244D01*
X1278381Y5518657D01*
X1283715Y5534152D01*
X1283715Y5560060D01*
X1278381Y5575807D01*
X1273302Y5586221D01*
X1262887Y5596636D01*
X1252473Y5601715D01*
X1231645Y5601715D01*
X1318005Y5601715D02*
G01*
X1318005Y5492750D01*
X1318005Y5601715D02*
G01*
X1390650Y5492750D01*
X1390650Y5601715D02*
G01*
X1390650Y5492750D01*
X1424939Y5601715D02*
G01*
X1424939Y5492750D01*
X1424939Y5601715D02*
G01*
X1492504Y5601715D01*
X1424939Y5549900D02*
G01*
X1466595Y5549900D01*
X1424939Y5492750D02*
G01*
X1492504Y5492750D01*
X1526794Y5601715D02*
G01*
X1526794Y5492750D01*
X1526794Y5601715D02*
G01*
X1568450Y5492750D01*
X1609852Y5601715D02*
G01*
X1568450Y5492750D01*
X1609852Y5601715D02*
G01*
X1609852Y5492750D01*
X1685797Y5601715D02*
G01*
X1644142Y5492750D01*
X1685797Y5601715D02*
G01*
X1727200Y5492750D01*
X1659889Y5529071D02*
G01*
X1711705Y5529071D01*
X1841500Y5601715D02*
G01*
X1841500Y5492750D01*
X1841500Y5601715D02*
G01*
X1909063Y5601715D01*
X1841500Y5549900D02*
G01*
X1883155Y5549900D01*
X1841500Y5492750D02*
G01*
X1909063Y5492750D01*
X1943354Y5601715D02*
G01*
X1943354Y5523737D01*
X1948688Y5508244D01*
X1959102Y5497829D01*
X1974595Y5492750D01*
X1985009Y5492750D01*
X2000504Y5497829D01*
X2010918Y5508244D01*
X2016252Y5523737D01*
X2016252Y5601715D01*
X2050541Y5601715D02*
G01*
X2050541Y5492750D01*
X2050541Y5601715D02*
G01*
X2097277Y5601715D01*
X2112772Y5596636D01*
X2118106Y5591302D01*
X2123186Y5580887D01*
X2123186Y5570473D01*
X2118106Y5560060D01*
X2112772Y5554979D01*
X2097277Y5549900D01*
X2050541Y5549900D01*
X2086863Y5549900D02*
G01*
X2123186Y5492750D01*
X2188718Y5601715D02*
G01*
X2178304Y5596636D01*
X2167890Y5586221D01*
X2162809Y5575807D01*
X2157475Y5560060D01*
X2157475Y5534152D01*
X2162809Y5518657D01*
X2167890Y5508244D01*
X2178304Y5497829D01*
X2188718Y5492750D01*
X2209545Y5492750D01*
X2219959Y5497829D01*
X2230120Y5508244D01*
X2235454Y5518657D01*
X2240534Y5534152D01*
X2240534Y5560060D01*
X2235454Y5575807D01*
X2230120Y5586221D01*
X2219959Y5596636D01*
X2209545Y5601715D01*
X2188718Y5601715D01*
X2274824Y5601715D02*
G01*
X2274824Y5492750D01*
X2274824Y5601715D02*
G01*
X2321559Y5601715D01*
X2337308Y5596636D01*
X2342388Y5591302D01*
X2347722Y5580887D01*
X2347722Y5570473D01*
X2342388Y5560060D01*
X2337308Y5554979D01*
X2321559Y5549900D01*
X2274824Y5549900D01*
X2311400Y5549900D02*
G01*
X2347722Y5492750D01*
X2423413Y5601715D02*
G01*
X2382011Y5492750D01*
X2423413Y5601715D02*
G01*
X2465070Y5492750D01*
X2397506Y5529071D02*
G01*
X2449575Y5529071D01*
X2577338Y5575807D02*
G01*
X2572004Y5586221D01*
X2561590Y5596636D01*
X2551429Y5601715D01*
X2530602Y5601715D01*
X2520188Y5596636D01*
X2509774Y5586221D01*
X2504440Y5575807D01*
X2499359Y5560060D01*
X2499359Y5534152D01*
X2504440Y5518657D01*
X2509774Y5508244D01*
X2520188Y5497829D01*
X2530602Y5492750D01*
X2551429Y5492750D01*
X2561590Y5497829D01*
X2572004Y5508244D01*
X2577338Y5518657D01*
X2611627Y5601715D02*
G01*
X2611627Y5492750D01*
X2684272Y5601715D02*
G01*
X2611627Y5529071D01*
X2637536Y5554979D02*
G01*
X2684272Y5492750D01*
X2798572Y5601715D02*
G01*
X2798572Y5492750D01*
X2798572Y5601715D02*
G01*
X2845308Y5601715D01*
X2861056Y5596636D01*
X2866136Y5591302D01*
X2871470Y5580887D01*
X2871470Y5565394D01*
X2866136Y5554979D01*
X2861056Y5549900D01*
X2845308Y5544565D01*
X2798572Y5544565D01*
X2905759Y5601715D02*
G01*
X2931668Y5492750D01*
X2957575Y5601715D02*
G01*
X2931668Y5492750D01*
X2957575Y5601715D02*
G01*
X2983484Y5492750D01*
X3009645Y5601715D02*
G01*
X2983484Y5492750D01*
X3043936Y5601715D02*
G01*
X3043936Y5492750D01*
X3043936Y5601715D02*
G01*
X3090672Y5601715D01*
X3106165Y5596636D01*
X3111500Y5591302D01*
X3116579Y5580887D01*
X3116579Y5570473D01*
X3111500Y5560060D01*
X3106165Y5554979D01*
X3090672Y5549900D01*
X3043936Y5549900D01*
X3080258Y5549900D02*
G01*
X3116579Y5492750D01*
X3262122Y5601715D02*
G01*
X3251708Y5596636D01*
X3241293Y5586221D01*
X3235959Y5575807D01*
X3230879Y5560060D01*
X3230879Y5534152D01*
X3235959Y5518657D01*
X3241293Y5508244D01*
X3251708Y5497829D01*
X3262122Y5492750D01*
X3282950Y5492750D01*
X3293109Y5497829D01*
X3303524Y5508244D01*
X3308858Y5518657D01*
X3313938Y5534152D01*
X3313938Y5560060D01*
X3308858Y5575807D01*
X3303524Y5586221D01*
X3293109Y5596636D01*
X3282950Y5601715D01*
X3262122Y5601715D01*
X3348227Y5601715D02*
G01*
X3348227Y5523737D01*
X3353561Y5508244D01*
X3363975Y5497829D01*
X3379470Y5492750D01*
X3389884Y5492750D01*
X3405377Y5497829D01*
X3415791Y5508244D01*
X3421125Y5523737D01*
X3421125Y5601715D01*
X3491738Y5601715D02*
G01*
X3491738Y5492750D01*
X3455415Y5601715D02*
G01*
X3528059Y5601715D01*
X3642359Y5601715D02*
G01*
X3684015Y5492750D01*
X3725418Y5601715D02*
G01*
X3684015Y5492750D01*
X3759708Y5580887D02*
G01*
X3770122Y5586221D01*
X3785870Y5601715D01*
X3785870Y5492750D01*
X4533879Y1410698D02*
G01*
X4533879Y1301595D01*
X4533879Y1410698D02*
G01*
X4601420Y1410698D01*
X4533879Y1358745D02*
G01*
X4575444Y1358745D01*
X4533879Y1301595D02*
G01*
X4601420Y1301595D01*
X4635710Y1410698D02*
G01*
X4635710Y1332765D01*
X4640905Y1317180D01*
X4651296Y1306789D01*
X4666884Y1301595D01*
X4677275Y1301595D01*
X4692860Y1306789D01*
X4703251Y1317180D01*
X4708446Y1332765D01*
X4708446Y1410698D01*
X4742736Y1410698D02*
G01*
X4742736Y1301595D01*
X4742736Y1410698D02*
G01*
X4789495Y1410698D01*
X4805083Y1405503D01*
X4810277Y1400307D01*
X4815474Y1389915D01*
X4815474Y1379524D01*
X4810277Y1369133D01*
X4805083Y1363939D01*
X4789495Y1358745D01*
X4742736Y1358745D01*
X4779103Y1358745D02*
G01*
X4815474Y1301595D01*
X4880935Y1410698D02*
G01*
X4870543Y1405503D01*
X4860155Y1395112D01*
X4854958Y1384721D01*
X4849764Y1369133D01*
X4849764Y1343157D01*
X4854958Y1327571D01*
X4860155Y1317180D01*
X4870543Y1306789D01*
X4880935Y1301595D01*
X4901717Y1301595D01*
X4912108Y1306789D01*
X4922499Y1317180D01*
X4927693Y1327571D01*
X4932890Y1343157D01*
X4932890Y1369133D01*
X4927693Y1384721D01*
X4922499Y1395112D01*
X4912108Y1405503D01*
X4901717Y1410698D01*
X4880935Y1410698D01*
X4967180Y1410698D02*
G01*
X4967180Y1301595D01*
X4967180Y1410698D02*
G01*
X5013939Y1410698D01*
X5029525Y1405503D01*
X5034721Y1400307D01*
X5039916Y1389915D01*
X5039916Y1379524D01*
X5034721Y1369133D01*
X5029525Y1363939D01*
X5013939Y1358745D01*
X4967180Y1358745D01*
X5003548Y1358745D02*
G01*
X5039916Y1301595D01*
X5115770Y1410698D02*
G01*
X5074206Y1301595D01*
X5115770Y1410698D02*
G01*
X5157335Y1301595D01*
X5089794Y1337962D02*
G01*
X5141747Y1337962D01*
X5269555Y1384721D02*
G01*
X5264360Y1395112D01*
X5253969Y1405503D01*
X5243578Y1410698D01*
X5222796Y1410698D01*
X5212405Y1405503D01*
X5202013Y1395112D01*
X5196819Y1384721D01*
X5191625Y1369133D01*
X5191625Y1343157D01*
X5196819Y1327571D01*
X5202013Y1317180D01*
X5212405Y1306789D01*
X5222796Y1301595D01*
X5243578Y1301595D01*
X5253969Y1306789D01*
X5264360Y1317180D01*
X5269555Y1327571D01*
X5303845Y1410698D02*
G01*
X5303845Y1301595D01*
X5376583Y1410698D02*
G01*
X5303845Y1337962D01*
X5329824Y1363939D02*
G01*
X5376583Y1301595D01*
X4495789Y1232913D02*
G01*
X4495789Y1123947D01*
X4495789Y1232913D02*
G01*
X4542525Y1232913D01*
X4558019Y1227833D01*
X4563353Y1222499D01*
X4568433Y1212085D01*
X4568433Y1196591D01*
X4563353Y1186177D01*
X4558019Y1181097D01*
X4542525Y1175763D01*
X4495789Y1175763D01*
X4633965Y1232913D02*
G01*
X4623551Y1227833D01*
X4613137Y1217419D01*
X4608057Y1207005D01*
X4602723Y1191257D01*
X4602723Y1165349D01*
X4608057Y1149855D01*
X4613137Y1139441D01*
X4623551Y1129027D01*
X4633965Y1123947D01*
X4654793Y1123947D01*
X4665207Y1129027D01*
X4675621Y1139441D01*
X4680701Y1149855D01*
X4686035Y1165349D01*
X4686035Y1191257D01*
X4680701Y1207005D01*
X4675621Y1217419D01*
X4665207Y1227833D01*
X4654793Y1232913D01*
X4633965Y1232913D01*
X4720325Y1232913D02*
G01*
X4746233Y1123947D01*
X4772141Y1232913D02*
G01*
X4746233Y1123947D01*
X4772141Y1232913D02*
G01*
X4798049Y1123947D01*
X4824211Y1232913D02*
G01*
X4798049Y1123947D01*
X4858501Y1232913D02*
G01*
X4858501Y1123947D01*
X4858501Y1232913D02*
G01*
X4926065Y1232913D01*
X4858501Y1181097D02*
G01*
X4899903Y1181097D01*
X4858501Y1123947D02*
G01*
X4926065Y1123947D01*
X4960355Y1232913D02*
G01*
X4960355Y1123947D01*
X4960355Y1232913D02*
G01*
X5007091Y1232913D01*
X5022585Y1227833D01*
X5027919Y1222499D01*
X5032999Y1212085D01*
X5032999Y1201671D01*
X5027919Y1191257D01*
X5022585Y1186177D01*
X5007091Y1181097D01*
X4960355Y1181097D01*
X4996677Y1181097D02*
G01*
X5032999Y1123947D01*
X5178541Y1232913D02*
G01*
X5168127Y1227833D01*
X5157713Y1217419D01*
X5152379Y1207005D01*
X5147299Y1191257D01*
X5147299Y1165349D01*
X5152379Y1149855D01*
X5157713Y1139441D01*
X5168127Y1129027D01*
X5178541Y1123947D01*
X5199369Y1123947D01*
X5209529Y1129027D01*
X5219943Y1139441D01*
X5225277Y1149855D01*
X5230357Y1165349D01*
X5230357Y1191257D01*
X5225277Y1207005D01*
X5219943Y1217419D01*
X5209529Y1227833D01*
X5199369Y1232913D01*
X5178541Y1232913D01*
X5264647Y1232913D02*
G01*
X5264647Y1154935D01*
X5269981Y1139441D01*
X5280395Y1129027D01*
X5295889Y1123947D01*
X5306303Y1123947D01*
X5321797Y1129027D01*
X5332211Y1139441D01*
X5337545Y1154935D01*
X5337545Y1232913D01*
X5408157Y1232913D02*
G01*
X5408157Y1123947D01*
X5371835Y1232913D02*
G01*
X5444479Y1232913D01*
X4194797Y5790427D02*
G01*
X4149331Y5790427D01*
X4144759Y5749533D01*
X4149331Y5754105D01*
X4162793Y5758677D01*
X4176509Y5758677D01*
X4190225Y5754105D01*
X4199369Y5744961D01*
X4203941Y5731499D01*
X4203941Y5722355D01*
X4199369Y5708639D01*
X4190225Y5699495D01*
X4176509Y5694923D01*
X4162793Y5694923D01*
X4149331Y5699495D01*
X4144759Y5704067D01*
X4140187Y5713211D01*
X4233913Y5790427D02*
G01*
X4270235Y5694923D01*
X4306557Y5790427D02*
G01*
X4270235Y5694923D01*
X1275560Y3352243D02*
G01*
X1270226Y3363165D01*
X1259304Y3374087D01*
X1248382Y3379675D01*
X1226538Y3379675D01*
X1215616Y3374087D01*
X1204694Y3363165D01*
X1199106Y3352243D01*
X1193772Y3335987D01*
X1193772Y3308809D01*
X1199106Y3292299D01*
X1204694Y3281377D01*
X1215616Y3270455D01*
X1226538Y3265121D01*
X1248382Y3265121D01*
X1259304Y3270455D01*
X1270226Y3281377D01*
X1275560Y3292299D01*
X1275560Y3308809D01*
X1248382Y3308809D02*
G01*
X1275560Y3308809D01*
X1355316Y3379675D02*
G01*
X1311628Y3265121D01*
X1355316Y3379675D02*
G01*
X1398750Y3265121D01*
X1327884Y3303221D02*
G01*
X1382494Y3303221D01*
X1473172Y3379675D02*
G01*
X1473172Y3265121D01*
X1434818Y3379675D02*
G01*
X1511272Y3379675D01*
X1547340Y3379675D02*
G01*
X1547340Y3265121D01*
X1547340Y3379675D02*
G01*
X1618206Y3379675D01*
X1547340Y3325065D02*
G01*
X1590774Y3325065D01*
X1547340Y3265121D02*
G01*
X1618206Y3265121D01*
X1275587Y3098292D02*
G01*
X1270254Y3109213D01*
X1259331Y3120136D01*
X1248410Y3125723D01*
X1226565Y3125723D01*
X1215644Y3120136D01*
X1204721Y3109213D01*
X1199134Y3098292D01*
X1193800Y3082036D01*
X1193800Y3054604D01*
X1199134Y3038347D01*
X1204721Y3027426D01*
X1215644Y3016504D01*
X1226565Y3011170D01*
X1248410Y3011170D01*
X1259331Y3016504D01*
X1270254Y3027426D01*
X1275587Y3038347D01*
X1311655Y3125723D02*
G01*
X1355344Y3011170D01*
X1398778Y3125723D02*
G01*
X1355344Y3011170D01*
X1242821Y2855213D02*
G01*
X1242821Y2757170D01*
X1193800Y2806192D02*
G01*
X1291844Y2806192D01*
X1327912Y2849879D02*
G01*
X1338834Y2855213D01*
X1355344Y2871723D01*
X1355344Y2757170D01*
X1396745Y2844292D02*
G01*
X1396745Y2849879D01*
X1402079Y2860802D01*
X1407668Y2866136D01*
X1418589Y2871723D01*
X1440434Y2871723D01*
X1451102Y2866136D01*
X1456689Y2860802D01*
X1462023Y2849879D01*
X1462023Y2838957D01*
X1456689Y2828036D01*
X1445768Y2811526D01*
X1391157Y2757170D01*
X1467612Y2757170D01*
X1503679Y2871723D02*
G01*
X1547113Y2757170D01*
X1590802Y2871723D02*
G01*
X1547113Y2757170D01*
X1193800Y2552192D02*
G01*
X1291844Y2552192D01*
X1327912Y2595879D02*
G01*
X1338834Y2601213D01*
X1355344Y2617723D01*
X1355344Y2503170D01*
X1396745Y2590292D02*
G01*
X1396745Y2595879D01*
X1402079Y2606802D01*
X1407668Y2612136D01*
X1418589Y2617723D01*
X1440434Y2617723D01*
X1451102Y2612136D01*
X1456689Y2606802D01*
X1462023Y2595879D01*
X1462023Y2584957D01*
X1456689Y2574036D01*
X1445768Y2557526D01*
X1391157Y2503170D01*
X1467612Y2503170D01*
X1503679Y2617723D02*
G01*
X1547113Y2503170D01*
X1590802Y2617723D02*
G01*
X1547113Y2503170D01*
X299440Y3987030D02*
G01*
X299440Y3914386D01*
X294868Y3900670D01*
X290296Y3896098D01*
X281152Y3891526D01*
X272262Y3891526D01*
X263118Y3896098D01*
X258546Y3900670D01*
X253974Y3914386D01*
X253974Y3923530D01*
X333984Y3964424D02*
G01*
X333984Y3968996D01*
X338556Y3977886D01*
X343128Y3982458D01*
X352272Y3987030D01*
X370306Y3987030D01*
X379450Y3982458D01*
X384022Y3977886D01*
X388594Y3968996D01*
X388594Y3959852D01*
X384022Y3950708D01*
X374878Y3936992D01*
X329412Y3891526D01*
X393166Y3891526D01*
X2391409Y3580627D02*
G01*
X2345943Y3580627D01*
X2341372Y3539733D01*
X2345943Y3544305D01*
X2359406Y3548877D01*
X2373122Y3548877D01*
X2386838Y3544305D01*
X2395981Y3535161D01*
X2400554Y3521699D01*
X2400554Y3512555D01*
X2395981Y3498839D01*
X2386838Y3489695D01*
X2373122Y3485123D01*
X2359406Y3485123D01*
X2345943Y3489695D01*
X2341372Y3494267D01*
X2336800Y3503411D01*
X2430525Y3580627D02*
G01*
X2466847Y3485123D01*
X2503170Y3580627D02*
G01*
X2466847Y3485123D01*
X2634995Y3580627D02*
G01*
X2634995Y3485123D01*
X2603245Y3580627D02*
G01*
X2666745Y3580627D01*
X2724150Y3580627D02*
G01*
X2715006Y3576055D01*
X2705861Y3567165D01*
X2701290Y3558021D01*
X2696718Y3544305D01*
X2696718Y3521699D01*
X2701290Y3507983D01*
X2705861Y3498839D01*
X2715006Y3489695D01*
X2724150Y3485123D01*
X2742184Y3485123D01*
X2751327Y3489695D01*
X2760472Y3498839D01*
X2765043Y3507983D01*
X2769615Y3521699D01*
X2769615Y3544305D01*
X2765043Y3558021D01*
X2760472Y3567165D01*
X2751327Y3576055D01*
X2742184Y3580627D01*
X2724150Y3580627D01*
X2326893Y3414765D02*
G01*
X2326893Y3332723D01*
X2286000Y3373871D02*
G01*
X2367788Y3373871D01*
X2479547Y3446515D02*
G01*
X2397759Y3300973D01*
X2509520Y3373871D02*
G01*
X2591561Y3373871D01*
X2621534Y3410193D02*
G01*
X2630424Y3414765D01*
X2644140Y3428227D01*
X2644140Y3332723D01*
X2678684Y3405621D02*
G01*
X2678684Y3410193D01*
X2683256Y3419083D01*
X2687827Y3423655D01*
X2696972Y3428227D01*
X2715006Y3428227D01*
X2724150Y3423655D01*
X2728722Y3419083D01*
X2733293Y3410193D01*
X2733293Y3401049D01*
X2728722Y3391905D01*
X2719577Y3378189D01*
X2674111Y3332723D01*
X2737865Y3332723D01*
X2767838Y3428227D02*
G01*
X2804159Y3332723D01*
X2840481Y3428227D02*
G01*
X2804159Y3332723D01*
X2201672Y3240521D02*
G01*
X2197354Y3249665D01*
X2188209Y3258555D01*
X2179065Y3263127D01*
X2160777Y3263127D01*
X2151888Y3258555D01*
X2142743Y3249665D01*
X2138172Y3240521D01*
X2133600Y3226805D01*
X2133600Y3204199D01*
X2138172Y3190483D01*
X2142743Y3181339D01*
X2151888Y3172195D01*
X2160777Y3167623D01*
X2179065Y3167623D01*
X2188209Y3172195D01*
X2197354Y3181339D01*
X2201672Y3190483D01*
X2259075Y3263127D02*
G01*
X2249931Y3258555D01*
X2240788Y3249665D01*
X2236215Y3240521D01*
X2231897Y3226805D01*
X2231897Y3204199D01*
X2236215Y3190483D01*
X2240788Y3181339D01*
X2249931Y3172195D01*
X2259075Y3167623D01*
X2277109Y3167623D01*
X2286254Y3172195D01*
X2295397Y3181339D01*
X2299970Y3190483D01*
X2304541Y3204199D01*
X2304541Y3226805D01*
X2299970Y3240521D01*
X2295397Y3249665D01*
X2286254Y3258555D01*
X2277109Y3263127D01*
X2259075Y3263127D01*
X2334513Y3263127D02*
G01*
X2334513Y3167623D01*
X2334513Y3263127D02*
G01*
X2398268Y3167623D01*
X2398268Y3263127D02*
G01*
X2398268Y3167623D01*
X2428240Y3263127D02*
G01*
X2464561Y3167623D01*
X2500884Y3263127D02*
G01*
X2464561Y3167623D01*
X2530856Y3263127D02*
G01*
X2530856Y3167623D01*
X2530856Y3263127D02*
G01*
X2590038Y3263127D01*
X2530856Y3217661D02*
G01*
X2567177Y3217661D01*
X2530856Y3167623D02*
G01*
X2590038Y3167623D01*
X2620009Y3263127D02*
G01*
X2620009Y3167623D01*
X2620009Y3263127D02*
G01*
X2660904Y3263127D01*
X2674620Y3258555D01*
X2678938Y3253983D01*
X2683509Y3245093D01*
X2683509Y3235949D01*
X2678938Y3226805D01*
X2674620Y3222233D01*
X2660904Y3217661D01*
X2620009Y3217661D01*
X2651759Y3217661D02*
G01*
X2683509Y3167623D01*
X2745486Y3263127D02*
G01*
X2745486Y3167623D01*
X2713481Y3263127D02*
G01*
X2777236Y3263127D01*
X2807208Y3263127D02*
G01*
X2807208Y3167623D01*
X2807208Y3263127D02*
G01*
X2866390Y3263127D01*
X2807208Y3217661D02*
G01*
X2843529Y3217661D01*
X2807208Y3167623D02*
G01*
X2866390Y3167623D01*
X2896361Y3263127D02*
G01*
X2896361Y3167623D01*
X2896361Y3263127D02*
G01*
X2937256Y3263127D01*
X2950972Y3258555D01*
X2955543Y3253983D01*
X2959861Y3245093D01*
X2959861Y3235949D01*
X2955543Y3226805D01*
X2950972Y3222233D01*
X2937256Y3217661D01*
X2896361Y3217661D01*
X2928111Y3217661D02*
G01*
X2959861Y3167623D01*
X3719322Y3692144D02*
G01*
X3708908Y3681729D01*
X3698493Y3666236D01*
X3688079Y3645407D01*
X3683000Y3619500D01*
X3683000Y3598671D01*
X3688079Y3572510D01*
X3698493Y3551936D01*
X3708908Y3536187D01*
X3719322Y3525773D01*
X3816095Y3671315D02*
G01*
X3764025Y3671315D01*
X3758945Y3624579D01*
X3764025Y3629660D01*
X3779520Y3634994D01*
X3795268Y3634994D01*
X3810761Y3629660D01*
X3821175Y3619500D01*
X3826509Y3603752D01*
X3826509Y3593337D01*
X3821175Y3577844D01*
X3810761Y3567429D01*
X3795268Y3562350D01*
X3779520Y3562350D01*
X3764025Y3567429D01*
X3758945Y3572510D01*
X3753611Y3582923D01*
X3860800Y3671315D02*
G01*
X3902202Y3562350D01*
X3943858Y3671315D02*
G01*
X3902202Y3562350D01*
X3978147Y3692144D02*
G01*
X3988561Y3681729D01*
X3998975Y3666236D01*
X4009390Y3645407D01*
X4014470Y3619500D01*
X4014470Y3598671D01*
X4009390Y3572510D01*
X3998975Y3551936D01*
X3988561Y3536187D01*
X3978147Y3525773D01*
X3719322Y3057144D02*
G01*
X3708908Y3046729D01*
X3698493Y3031236D01*
X3688079Y3010407D01*
X3683000Y2984245D01*
X3683000Y2963671D01*
X3688079Y2937510D01*
X3698493Y2916936D01*
X3708908Y2901187D01*
X3719322Y2890773D01*
X3753611Y3015487D02*
G01*
X3764025Y3020821D01*
X3779520Y3036315D01*
X3779520Y2927095D01*
X3819143Y3010407D02*
G01*
X3819143Y3015487D01*
X3824224Y3025902D01*
X3829558Y3031236D01*
X3839972Y3036315D01*
X3860800Y3036315D01*
X3870959Y3031236D01*
X3876293Y3025902D01*
X3881374Y3015487D01*
X3881374Y3005073D01*
X3876293Y2994660D01*
X3865879Y2979165D01*
X3813809Y2927095D01*
X3886708Y2927095D01*
X3920997Y3036315D02*
G01*
X3962400Y2927095D01*
X4004056Y3036315D02*
G01*
X3962400Y2927095D01*
X4038345Y3057144D02*
G01*
X4048759Y3046729D01*
X4059174Y3031236D01*
X4069588Y3010407D01*
X4074668Y2984245D01*
X4074668Y2963671D01*
X4069588Y2937510D01*
X4059174Y2916936D01*
X4048759Y2901187D01*
X4038345Y2890773D01*
X3719322Y2414523D02*
G01*
X3708908Y2404363D01*
X3698493Y2388615D01*
X3688079Y2367787D01*
X3683000Y2341879D01*
X3683000Y2321052D01*
X3688079Y2295144D01*
X3698493Y2274315D01*
X3708908Y2258821D01*
X3719322Y2248407D01*
X3753611Y2331465D02*
G01*
X3847084Y2331465D01*
X3881374Y2373121D02*
G01*
X3891788Y2378202D01*
X3907536Y2393950D01*
X3907536Y2284729D01*
X3946906Y2367787D02*
G01*
X3946906Y2373121D01*
X3952240Y2383536D01*
X3957320Y2388615D01*
X3967734Y2393950D01*
X3988561Y2393950D01*
X3998975Y2388615D01*
X4004056Y2383536D01*
X4009390Y2373121D01*
X4009390Y2362707D01*
X4004056Y2352294D01*
X3993641Y2336800D01*
X3941825Y2284729D01*
X4014470Y2284729D01*
X4048759Y2393950D02*
G01*
X4090415Y2284729D01*
X4131818Y2393950D02*
G01*
X4090415Y2284729D01*
X4166108Y2414523D02*
G01*
X4176522Y2404363D01*
X4186936Y2388615D01*
X4197350Y2367787D01*
X4202429Y2341879D01*
X4202429Y2321052D01*
X4197350Y2295144D01*
X4186936Y2274315D01*
X4176522Y2258821D01*
X4166108Y2248407D01*
X2032000Y1110485D02*
G01*
X2042413Y1115819D01*
X2057908Y1131313D01*
X2057908Y1022347D01*
X2097531Y1105405D02*
G01*
X2097531Y1110485D01*
X2102611Y1120899D01*
X2107945Y1126233D01*
X2118359Y1131313D01*
X2138934Y1131313D01*
X2149347Y1126233D01*
X2154681Y1120899D01*
X2159761Y1110485D01*
X2159761Y1100071D01*
X2154681Y1089657D01*
X2144268Y1074163D01*
X2092197Y1022347D01*
X2165095Y1022347D01*
X2199386Y1131313D02*
G01*
X2240788Y1022347D01*
X2282443Y1131313D02*
G01*
X2240788Y1022347D01*
X2717777Y1069083D02*
G01*
X2811249Y1069083D01*
X2845539Y1110485D02*
G01*
X2855953Y1115819D01*
X2871701Y1131313D01*
X2871701Y1022347D01*
X2911071Y1105405D02*
G01*
X2911071Y1110485D01*
X2916151Y1120899D01*
X2921485Y1126233D01*
X2931899Y1131313D01*
X2952727Y1131313D01*
X2963141Y1126233D01*
X2968221Y1120899D01*
X2973301Y1110485D01*
X2973301Y1100071D01*
X2968221Y1089657D01*
X2957807Y1074163D01*
X2905991Y1022347D01*
X2978635Y1022347D01*
X3012925Y1131313D02*
G01*
X3054581Y1022347D01*
X3095983Y1131313D02*
G01*
X3054581Y1022347D01*
X105227Y2506685D02*
G01*
X177871Y2547833D01*
X105227Y2588727D01*
X105227Y2760685D02*
G01*
X177871Y2801833D01*
X105227Y2842727D01*
X5036565Y5714237D02*
G01*
X5036565Y5641594D01*
X5031993Y5627878D01*
X5027422Y5623305D01*
X5018277Y5618734D01*
X5009388Y5618734D01*
X5000243Y5623305D01*
X4995672Y5627878D01*
X4991100Y5641594D01*
X4991100Y5650737D01*
X5066538Y5696204D02*
G01*
X5075681Y5700776D01*
X5089397Y5714237D01*
X5089397Y5618734D01*
X2387594Y773935D02*
G01*
X2387594Y678431D01*
X2387594Y773935D02*
G01*
X2428488Y773935D01*
X2442204Y769363D01*
X2446776Y764791D01*
X2451348Y755901D01*
X2451348Y746757D01*
X2446776Y737613D01*
X2442204Y733041D01*
X2428488Y728469D01*
X2387594Y728469D01*
X2419344Y728469D02*
G01*
X2451348Y678431D01*
X2485892Y751329D02*
G01*
X2485892Y755901D01*
X2490210Y764791D01*
X2494782Y769363D01*
X2503926Y773935D01*
X2522214Y773935D01*
X2531104Y769363D01*
X2535676Y764791D01*
X2540248Y755901D01*
X2540248Y746757D01*
X2535676Y737613D01*
X2526786Y723897D01*
X2481320Y678431D01*
X2544820Y678431D01*
X2095500Y773937D02*
G01*
X2095500Y678434D01*
X2095500Y773937D02*
G01*
X2127250Y773937D01*
X2140965Y769365D01*
X2150109Y760476D01*
X2154681Y751331D01*
X2159254Y737615D01*
X2159254Y715010D01*
X2154681Y701294D01*
X2150109Y692150D01*
X2140965Y683005D01*
X2127250Y678434D01*
X2095500Y678434D01*
X2193797Y751331D02*
G01*
X2193797Y755904D01*
X2198115Y764794D01*
X2202688Y769365D01*
X2211831Y773937D01*
X2230120Y773937D01*
X2239009Y769365D01*
X2243581Y764794D01*
X2248154Y755904D01*
X2248154Y746760D01*
X2243581Y737615D01*
X2234691Y723900D01*
X2189225Y678434D01*
X2252725Y678434D01*
X3149592Y786635D02*
G01*
X3149592Y691131D01*
X3149592Y786635D02*
G01*
X3190486Y786635D01*
X3204202Y782063D01*
X3208774Y777491D01*
X3213346Y768601D01*
X3213346Y759457D01*
X3208774Y750313D01*
X3204202Y745741D01*
X3190486Y741169D01*
X3149592Y741169D01*
X3181342Y741169D02*
G01*
X3213346Y691131D01*
X3252208Y786635D02*
G01*
X3302246Y786635D01*
X3275068Y750313D01*
X3288784Y750313D01*
X3297674Y745741D01*
X3302246Y741169D01*
X3306818Y727707D01*
X3306818Y718563D01*
X3302246Y704847D01*
X3293102Y695703D01*
X3279640Y691131D01*
X3265924Y691131D01*
X3252208Y695703D01*
X3247890Y700275D01*
X3243318Y709419D01*
X2857500Y773937D02*
G01*
X2857500Y678434D01*
X2857500Y773937D02*
G01*
X2889250Y773937D01*
X2902965Y769365D01*
X2912109Y760476D01*
X2916681Y751331D01*
X2921254Y737615D01*
X2921254Y715010D01*
X2916681Y701294D01*
X2912109Y692150D01*
X2902965Y683005D01*
X2889250Y678434D01*
X2857500Y678434D01*
X2960115Y773937D02*
G01*
X3010154Y773937D01*
X2982975Y737615D01*
X2996691Y737615D01*
X3005581Y733044D01*
X3010154Y728471D01*
X3014725Y715010D01*
X3014725Y705865D01*
X3010154Y692150D01*
X3001009Y683005D01*
X2987547Y678434D01*
X2973831Y678434D01*
X2960115Y683005D01*
X2955797Y687578D01*
X2951225Y696721D01*
X3873500Y5434837D02*
G01*
X3873500Y5339334D01*
X3873500Y5434837D02*
G01*
X3914393Y5434837D01*
X3928109Y5430265D01*
X3932681Y5425694D01*
X3937254Y5416804D01*
X3937254Y5407660D01*
X3932681Y5398515D01*
X3928109Y5393944D01*
X3914393Y5389371D01*
X3873500Y5389371D01*
X3905250Y5389371D02*
G01*
X3937254Y5339334D01*
X3967225Y5416804D02*
G01*
X3976115Y5421376D01*
X3989831Y5434837D01*
X3989831Y5339334D01*
X3873500Y5625337D02*
G01*
X3873500Y5529834D01*
X3873500Y5625337D02*
G01*
X3905250Y5625337D01*
X3918965Y5620765D01*
X3928109Y5611876D01*
X3932681Y5602731D01*
X3937254Y5589015D01*
X3937254Y5566410D01*
X3932681Y5552694D01*
X3928109Y5543550D01*
X3918965Y5534405D01*
X3905250Y5529834D01*
X3873500Y5529834D01*
X3967225Y5607304D02*
G01*
X3976115Y5611876D01*
X3989831Y5625337D01*
X3989831Y5529834D01*
X4928621Y4509625D02*
G01*
X4928621Y4426313D01*
X4923541Y4410819D01*
X4918461Y4405485D01*
X4908047Y4400405D01*
X4897633Y4400405D01*
X4887219Y4405485D01*
X4881885Y4410819D01*
X4876805Y4426313D01*
X4876805Y4436727D01*
X4973325Y4509625D02*
G01*
X5030475Y4509625D01*
X4999487Y4467969D01*
X5014981Y4467969D01*
X5025395Y4462635D01*
X5030475Y4457555D01*
X5035809Y4442061D01*
X5035809Y4431647D01*
X5030475Y4415899D01*
X5020061Y4405485D01*
X5004567Y4400405D01*
X4989073Y4400405D01*
X4973325Y4405485D01*
X4968245Y4410819D01*
X4962911Y4421233D01*
X3454392Y2401336D02*
G01*
X3454392Y2292116D01*
X3454392Y2401336D02*
G01*
X3521956Y2401336D01*
X3454392Y2349266D02*
G01*
X3496048Y2349266D01*
X3566660Y2401336D02*
G01*
X3623810Y2401336D01*
X3592568Y2359680D01*
X3608062Y2359680D01*
X3618476Y2354600D01*
X3623810Y2349266D01*
X3628890Y2333772D01*
X3628890Y2323358D01*
X3623810Y2307864D01*
X3613396Y2297450D01*
X3597902Y2292116D01*
X3582154Y2292116D01*
X3566660Y2297450D01*
X3561326Y2302530D01*
X3556246Y2312944D01*
X3454392Y3036336D02*
G01*
X3454392Y2927116D01*
X3454392Y3036336D02*
G01*
X3521956Y3036336D01*
X3454392Y2984266D02*
G01*
X3496048Y2984266D01*
X3561326Y3010428D02*
G01*
X3561326Y3015508D01*
X3566660Y3025922D01*
X3571740Y3031256D01*
X3582154Y3036336D01*
X3602982Y3036336D01*
X3613396Y3031256D01*
X3618476Y3025922D01*
X3623810Y3015508D01*
X3623810Y3005094D01*
X3618476Y2994680D01*
X3608062Y2979186D01*
X3556246Y2927116D01*
X3628890Y2927116D01*
X3428992Y3671336D02*
G01*
X3428992Y3562116D01*
X3428992Y3671336D02*
G01*
X3496556Y3671336D01*
X3428992Y3619266D02*
G01*
X3470648Y3619266D01*
X3530846Y3650508D02*
G01*
X3541260Y3655842D01*
X3556754Y3671336D01*
X3556754Y3562116D01*
D11*
X1917700Y4025889D02*
G01*
X3187700Y4025889D01*
X1917700Y4025889D02*
G01*
X1917700Y1725886D01*
X3187700Y4025889D02*
G01*
X3187700Y1725886D01*
X1917700Y1727189D02*
G01*
X3187700Y1727189D01*
D10*
X2529855Y1007818D02*
G01*
X2529855Y1103706D01*
X2397734Y1103706D01*
X2397734Y1007818D01*
X2529855Y922576D02*
G01*
X2529855Y826688D01*
X2397734Y826688D01*
X2397734Y922576D01*
D12*
X2175995Y889220D02*
G01*
X2141994Y889220D01*
X1983988Y853993D02*
G01*
X1983988Y843991D01*
X2013983Y813988D01*
X2198989Y963996D02*
G01*
X2313990Y963996D01*
X2198989Y813988D02*
G01*
X2313990Y813988D01*
X2118989Y963996D02*
G01*
X2013983Y963996D01*
X2118989Y813988D02*
G01*
X2013983Y813988D01*
X2313990Y963983D02*
G01*
X2313990Y815992D01*
X1983988Y923985D02*
G01*
X1983988Y853993D01*
X1983988Y923985D02*
G01*
X1983988Y934001D01*
X2013983Y963996D01*
X2175995Y923993D02*
G01*
X2175995Y855995D01*
D10*
X3159732Y922576D02*
G01*
X3159732Y826688D01*
X3291852Y826688D01*
X3291852Y922576D01*
X3159732Y1007818D02*
G01*
X3159732Y1103706D01*
X3291852Y1103706D01*
X3291852Y1007818D01*
D12*
X2903992Y888776D02*
G01*
X2937992Y888776D01*
X3095998Y924003D02*
G01*
X3095998Y934006D01*
X3066003Y964008D01*
X2880997Y814001D02*
G01*
X2765996Y814001D01*
X2880997Y964008D02*
G01*
X2765996Y964008D01*
X2960997Y814001D02*
G01*
X3066003Y814001D01*
X2960997Y964008D02*
G01*
X3066003Y964008D01*
X2765996Y814014D02*
G01*
X2765996Y962004D01*
X3095998Y854011D02*
G01*
X3095998Y924003D01*
X3095998Y854011D02*
G01*
X3095998Y843996D01*
X3066003Y814001D01*
X2903992Y854003D02*
G01*
X2903992Y922002D01*
D13*
X4074038Y5291587D02*
G01*
X4074038Y5451591D01*
X4384095Y5292097D02*
G01*
X4384095Y5452102D01*
X4199034Y5451591D02*
G01*
X4074038Y5451591D01*
X4199034Y5291587D02*
G01*
X4074038Y5291587D01*
X4259092Y5452102D02*
G01*
X4384095Y5452102D01*
X4259092Y5292097D02*
G01*
X4384095Y5292097D01*
D12*
X4246100Y5575523D02*
G01*
X4212099Y5575523D01*
X4054093Y5540296D02*
G01*
X4054093Y5530293D01*
X4084088Y5500291D01*
X4269094Y5650298D02*
G01*
X4384095Y5650298D01*
X4269094Y5500291D02*
G01*
X4384095Y5500291D01*
X4189095Y5650298D02*
G01*
X4084088Y5650298D01*
X4189095Y5500291D02*
G01*
X4084088Y5500291D01*
X4384095Y5650285D02*
G01*
X4384095Y5502295D01*
X4054093Y5610288D02*
G01*
X4054093Y5540296D01*
X4054093Y5610288D02*
G01*
X4054093Y5620303D01*
X4084088Y5650298D01*
X4246100Y5610296D02*
G01*
X4246100Y5542297D01*
D13*
X4512990Y1525000D02*
G01*
X4512990Y4316991D01*
X4512990Y4316989D02*
G01*
X5392988Y4316991D01*
X5392988Y4316991D02*
G01*
X5392988Y1525000D01*
X5392988Y1525000D02*
G01*
X4512990Y1525000D01*
X5384789Y2666994D02*
G01*
X5257789Y2666994D01*
X5257789Y3174994D01*
X5384789Y3174994D01*
X5333989Y1574794D02*
G01*
X4571989Y1574794D01*
X4571989Y4267194D01*
X5333989Y4267194D01*
X5333989Y3174994D01*
X5333989Y2666994D02*
G01*
X5333989Y1574794D01*
X5335117Y1668018D02*
G01*
X5181589Y1752594D01*
X5335117Y1845818D01*
D14*
X3428992Y2211771D02*
G01*
X3428992Y1856171D01*
X3987792Y2209794D02*
G01*
X3987792Y1854194D01*
D10*
X3581392Y1828794D02*
G01*
X3454392Y1828794D01*
X3835392Y1828794D02*
G01*
X3962392Y1828794D01*
X3454392Y2235194D02*
G01*
X3584897Y2235194D01*
X3962392Y2235194D02*
G01*
X3835392Y2235194D01*
D14*
X3428992Y2846771D02*
G01*
X3428992Y2491171D01*
X3987792Y2844794D02*
G01*
X3987792Y2489194D01*
D10*
X3581392Y2463794D02*
G01*
X3454392Y2463794D01*
X3835392Y2463794D02*
G01*
X3962392Y2463794D01*
X3454392Y2870194D02*
G01*
X3584897Y2870194D01*
X3962392Y2870194D02*
G01*
X3835392Y2870194D01*
D14*
X3428992Y3481768D02*
G01*
X3428992Y3126168D01*
X3987792Y3479792D02*
G01*
X3987792Y3124192D01*
D10*
X3581392Y3098792D02*
G01*
X3454392Y3098792D01*
X3835392Y3098792D02*
G01*
X3962392Y3098792D01*
X3454392Y3505192D02*
G01*
X3584897Y3505192D01*
X3962392Y3505192D02*
G01*
X3835392Y3505192D01*
D14*
G75*
G01*
X3378192Y2031995D02*
G02*
X3378192Y1968495I0J-31750D01*
G75*
G01*
X3378192Y2031995D02*
G02*
X3378192Y2095495I0J31750D01*
G75*
G01*
X3378192Y2666995D02*
G02*
X3378192Y2603495I0J-31750D01*
G75*
G01*
X3378192Y2666995D02*
G02*
X3378192Y2730495I0J31750D01*
G75*
G01*
X3378192Y3301992D02*
G02*
X3378192Y3238492I0J-31750D01*
G75*
G01*
X3378192Y3301992D02*
G02*
X3378192Y3365492I0J31750D01*
D13*
X4445000Y5715000D02*
G01*
X4953000Y5715000D01*
X4953000Y5207000D01*
X4445000Y5207000D01*
X4445000Y5715000D01*
X260807Y3825011D02*
G01*
X1110818Y3825011D01*
X1110818Y2025014D01*
X260807Y2025014D01*
X260807Y3825011D01*
M02*
