G04 Layer: TopSolderMaskLayer*
G04 EasyEDA v6.5.32, 2023-07-25 14:04:49*
G04 c8ab560ed44a410f903f0410a66912ea,5a6b42c53f6a479593ecc07194224c93,10*
G04 Gerber Generator version 0.2*
G04 Scale: 100 percent, Rotated: No, Reflected: No *
G04 Dimensions in millimeters *
G04 leading zeros omitted , absolute positions ,4 integer and 5 decimal *
%FSLAX45Y45*%
%MOMM*%

%AMMACRO1*1,1,$1,$2,$3*1,1,$1,$4,$5*1,1,$1,0-$2,0-$3*1,1,$1,0-$4,0-$5*20,1,$1,$2,$3,$4,$5,0*20,1,$1,$4,$5,0-$2,0-$3,0*20,1,$1,0-$2,0-$3,0-$4,0-$5,0*20,1,$1,0-$4,0-$5,$2,$3,0*4,1,4,$2,$3,$4,$5,0-$2,0-$3,0-$4,0-$5,$2,$3,0*%
%ADD10MACRO1,0.1016X0.432X-0.4032X-0.432X-0.4032*%
%ADD11MACRO1,0.1016X0.432X0.4032X-0.432X0.4032*%
%ADD12MACRO1,0.2032X-0.45X-0.5X-0.45X0.5*%
%ADD13MACRO1,0.1016X-0.432X0.4032X0.432X0.4032*%
%ADD14MACRO1,0.1016X-0.432X-0.4032X0.432X-0.4032*%
%ADD15MACRO1,0.2032X0.45X0.5X0.45X-0.5*%
%ADD16MACRO1,0.2032X0.5X-0.55X-0.5X-0.55*%
%ADD17MACRO1,0.1016X-0.9X-0.9X-0.9X0.9*%
%ADD18C,1.9016*%
%ADD19MACRO1,0.1016X-0.7033X-1.7496X-0.7033X1.7496*%
%ADD20MACRO1,0.1016X0.7033X-1.7496X0.7033X1.7496*%
%ADD21C,5.2032*%
%ADD22C,2.1016*%

%LPD*%
D10*
G01*
X2463794Y1040522D03*
D11*
G01*
X2463794Y889872D03*
D12*
G01*
X2073986Y888989D03*
G01*
X2243985Y888989D03*
D13*
G01*
X3225792Y889872D03*
D14*
G01*
X3225792Y1040522D03*
D15*
G01*
X3006001Y889007D03*
G01*
X2836001Y889007D03*
D16*
G01*
X4149092Y5372100D03*
G01*
X4309092Y5372100D03*
D12*
G01*
X4144091Y5575292D03*
G01*
X4314090Y5575292D03*
D17*
G01*
X5079989Y2031994D03*
D18*
G01*
X4826000Y2032000D03*
G01*
X5080000Y2286000D03*
G01*
X4826000Y2286000D03*
G01*
X5080000Y2540000D03*
G01*
X4826000Y2540000D03*
G01*
X5080000Y2794000D03*
G01*
X4826000Y2794000D03*
G01*
X5080000Y3048000D03*
G01*
X4826000Y3048000D03*
G01*
X5080000Y3302000D03*
G01*
X4826000Y3302000D03*
G01*
X5080000Y3556000D03*
G01*
X4826000Y3556000D03*
G01*
X5080000Y3810000D03*
G01*
X4826000Y3810000D03*
D19*
G01*
X3893726Y2031994D03*
D20*
G01*
X3523058Y2031994D03*
D19*
G01*
X3893726Y2666994D03*
D20*
G01*
X3523058Y2666994D03*
D19*
G01*
X3893726Y3301992D03*
D20*
G01*
X3523058Y3301992D03*
D21*
G01*
X381000Y5461000D03*
G01*
X5461000Y5461000D03*
G01*
X5461000Y381000D03*
G01*
X381000Y381000D03*
D18*
G01*
X4826000Y5588000D03*
G01*
X4826000Y5334000D03*
G01*
X4572000Y5334000D03*
G01*
X4572000Y5588000D03*
D22*
G01*
X910818Y2799714D03*
G01*
X910818Y3053714D03*
G01*
X910818Y3307714D03*
G01*
X910818Y2545714D03*
G01*
X2044700Y3886200D03*
G01*
X3060700Y3886200D03*
G01*
X2552700Y3886200D03*
G01*
X2933700Y1854200D03*
G01*
X2171700Y1854200D03*
M02*
