G04 Layer: BottomSolderMaskLayer*
G04 EasyEDA v6.5.29, 2023-07-09 11:22:14*
G04 16bb6769e9674cb0b1f37b37bddf88b5,5a6b42c53f6a479593ecc07194224c93,10*
G04 Gerber Generator version 0.2*
G04 Scale: 100 percent, Rotated: No, Reflected: No *
G04 Dimensions in millimeters *
G04 leading zeros omitted , absolute positions ,4 integer and 5 decimal *
%FSLAX45Y45*%
%MOMM*%

%AMMACRO1*1,1,$1,$2,$3*1,1,$1,$4,$5*1,1,$1,0-$2,0-$3*1,1,$1,0-$4,0-$5*20,1,$1,$2,$3,$4,$5,0*20,1,$1,$4,$5,0-$2,0-$3,0*20,1,$1,0-$2,0-$3,0-$4,0-$5,0*20,1,$1,0-$4,0-$5,$2,$3,0*4,1,4,$2,$3,$4,$5,0-$2,0-$3,0-$4,0-$5,$2,$3,0*%
%ADD10MACRO1,0.1016X-0.762X-0.762X-0.762X0.762*%
%ADD11C,1.6256*%
%ADD12MACRO1,0.1016X-0.762X0.762X-0.762X-0.762*%
%ADD13C,5.2032*%

%LPD*%
D10*
G01*
X635000Y1396979D03*
D11*
G01*
X635000Y1142974D03*
D12*
G01*
X2032000Y1396979D03*
D11*
G01*
X1778000Y1396974D03*
G01*
X2032000Y1142974D03*
G01*
X1778000Y1142974D03*
D12*
G01*
X3682994Y1396977D03*
D11*
G01*
X3429000Y1396974D03*
G01*
X3683000Y1142974D03*
G01*
X3429000Y1142974D03*
D10*
G01*
X2285994Y1396977D03*
D11*
G01*
X2286000Y1142974D03*
D12*
G01*
X5333992Y1396977D03*
D11*
G01*
X5080000Y1396974D03*
G01*
X5334000Y1142974D03*
G01*
X5080000Y1142974D03*
D10*
G01*
X3936992Y1396977D03*
D11*
G01*
X3937000Y1142974D03*
D12*
G01*
X6984989Y1396977D03*
D11*
G01*
X6731000Y1396974D03*
G01*
X6985000Y1142974D03*
G01*
X6731000Y1142974D03*
D10*
G01*
X5587989Y1396977D03*
D11*
G01*
X5588000Y1142974D03*
D12*
G01*
X8635984Y1396977D03*
D11*
G01*
X8381974Y1396974D03*
G01*
X8635974Y1142974D03*
G01*
X8381974Y1142974D03*
D10*
G01*
X7238984Y1396977D03*
D11*
G01*
X7238974Y1142974D03*
D12*
G01*
X10286982Y1396977D03*
D11*
G01*
X10032974Y1396974D03*
G01*
X10286974Y1142974D03*
G01*
X10032974Y1142974D03*
D10*
G01*
X8889982Y1396977D03*
D11*
G01*
X8889974Y1142974D03*
D10*
G01*
X11302974Y3174974D03*
D11*
G01*
X11302974Y2920974D03*
D12*
G01*
X13512774Y3174974D03*
D11*
G01*
X13258774Y3174974D03*
G01*
X13512774Y2920974D03*
G01*
X13258774Y2920974D03*
D10*
G01*
X8635979Y3174974D03*
D11*
G01*
X8635974Y2920974D03*
D12*
G01*
X10845779Y3174974D03*
D11*
G01*
X10591774Y3174974D03*
G01*
X10845774Y2920974D03*
G01*
X10591774Y2920974D03*
D12*
G01*
X8178784Y3174974D03*
D11*
G01*
X7924774Y3174974D03*
G01*
X8178774Y2920974D03*
G01*
X7924774Y2920974D03*
D10*
G01*
X5968984Y3174974D03*
D11*
G01*
X5968974Y2920974D03*
D12*
G01*
X2847995Y3174972D03*
D11*
G01*
X2594000Y3174974D03*
G01*
X2848000Y2920974D03*
G01*
X2594000Y2920974D03*
D10*
G01*
X638195Y3174972D03*
D11*
G01*
X638200Y2920974D03*
D10*
G01*
X3301989Y3174974D03*
D11*
G01*
X3302000Y2920974D03*
D12*
G01*
X5511789Y3174974D03*
D11*
G01*
X5257800Y3174974D03*
G01*
X5511800Y2920974D03*
G01*
X5257800Y2920974D03*
D13*
G01*
X381000Y3936949D03*
G01*
X13842974Y3936974D03*
G01*
X7111974Y3936974D03*
G01*
X381000Y2158974D03*
G01*
X7111974Y2159000D03*
G01*
X13842974Y2159000D03*
G01*
X381000Y381000D03*
G01*
X7111974Y381025D03*
G01*
X13842974Y381025D03*
M02*
