M48
METRIC,LZ,000.000
;FILE_FORMAT=3:3
;TYPE=PLATED
;Layer: PTH_Through
;EasyEDA v6.5.22, 2023-02-15 20:21:58
;734b4a54bc3d48cea6392fdb8e28a27f,5a6b42c53f6a479593ecc07194224c93,10
;Gerber Generator version 0.2
;Holesize 1 = 0.915 mm
T01C0.915
;Holesize 2 = 1.101 mm
T02C1.101
;Holesize 3 = 1.301 mm
T03C1.301
;Holesize 4 = 3.000 mm
T04C3.000
%
G05
G90
T01
X009144Y016637
X014224Y016637
X016764Y041637
X014224Y041637
X011684Y041637
X009144Y041637
X026924Y041637
X029464Y041637
X032004Y041637
X029464Y016637
X024384Y016637
X024384Y041637
T02
X045720Y055880
X045720Y053340
T03
X049566Y038072
X049566Y035532
X049566Y032992
X049566Y030452
X049566Y027912
X049566Y025372
X049566Y022832
X049566Y020292
T04
X003810Y054610
X054610Y054610
X054610Y003810
X003810Y003810
M30
