G04 Layer: TopSilkscreenLayer*
G04 EasyEDA v6.5.22, 2022-11-24 17:16:00*
G04 6a124e1b7ee84966bd2cac91662d51f7,5a6b42c53f6a479593ecc07194224c93,10*
G04 Gerber Generator version 0.2*
G04 Scale: 100 percent, Rotated: No, Reflected: No *
G04 Dimensions in millimeters *
G04 leading zeros omitted , absolute positions ,4 integer and 5 decimal *
%FSLAX45Y45*%
%MOMM*%

%ADD10C,0.1524*%
%ADD11C,0.2540*%

%LPD*%
D10*
X1353565Y354837D02*
G01*
X1353565Y282194D01*
X1348994Y268478D01*
X1344421Y263905D01*
X1335278Y259334D01*
X1326387Y259334D01*
X1317244Y263905D01*
X1312671Y268478D01*
X1308100Y282194D01*
X1308100Y291337D01*
X1392681Y354837D02*
G01*
X1442720Y354837D01*
X1415287Y318515D01*
X1429004Y318515D01*
X1438147Y313944D01*
X1442720Y309371D01*
X1447292Y295910D01*
X1447292Y286765D01*
X1442720Y273050D01*
X1433576Y263905D01*
X1419860Y259334D01*
X1406397Y259334D01*
X1392681Y263905D01*
X1388110Y268478D01*
X1383537Y277621D01*
X5493765Y4495037D02*
G01*
X5493765Y4422394D01*
X5489193Y4408678D01*
X5484622Y4404105D01*
X5475477Y4399534D01*
X5466588Y4399534D01*
X5457443Y4404105D01*
X5452872Y4408678D01*
X5448300Y4422394D01*
X5448300Y4431537D01*
X5528309Y4472431D02*
G01*
X5528309Y4477004D01*
X5532881Y4485894D01*
X5537454Y4490465D01*
X5546597Y4495037D01*
X5564631Y4495037D01*
X5573775Y4490465D01*
X5578347Y4485894D01*
X5582920Y4477004D01*
X5582920Y4467860D01*
X5578347Y4458715D01*
X5569204Y4445000D01*
X5523738Y4399534D01*
X5587491Y4399534D01*
X945387Y931926D02*
G01*
X940054Y942847D01*
X929131Y953770D01*
X918210Y959357D01*
X896365Y959357D01*
X885444Y953770D01*
X874521Y942847D01*
X868934Y931926D01*
X863600Y915670D01*
X863600Y888492D01*
X868934Y871981D01*
X874521Y861060D01*
X885444Y850137D01*
X896365Y844804D01*
X918210Y844804D01*
X929131Y850137D01*
X940054Y861060D01*
X945387Y871981D01*
X1014221Y959357D02*
G01*
X1003300Y953770D01*
X992378Y942847D01*
X986789Y931926D01*
X981455Y915670D01*
X981455Y888492D01*
X986789Y871981D01*
X992378Y861060D01*
X1003300Y850137D01*
X1014221Y844804D01*
X1036065Y844804D01*
X1046987Y850137D01*
X1057655Y861060D01*
X1063244Y871981D01*
X1068578Y888492D01*
X1068578Y915670D01*
X1063244Y931926D01*
X1057655Y942847D01*
X1046987Y953770D01*
X1036065Y959357D01*
X1014221Y959357D01*
X1104645Y959357D02*
G01*
X1104645Y844804D01*
X1104645Y844804D02*
G01*
X1170178Y844804D01*
X1290065Y937513D02*
G01*
X1300987Y942847D01*
X1317497Y959357D01*
X1317497Y844804D01*
X4577588Y931926D02*
G01*
X4572254Y942847D01*
X4561331Y953770D01*
X4550409Y959357D01*
X4528565Y959357D01*
X4517643Y953770D01*
X4506722Y942847D01*
X4501134Y931926D01*
X4495800Y915670D01*
X4495800Y888492D01*
X4501134Y871981D01*
X4506722Y861060D01*
X4517643Y850137D01*
X4528565Y844804D01*
X4550409Y844804D01*
X4561331Y850137D01*
X4572254Y861060D01*
X4577588Y871981D01*
X4646422Y959357D02*
G01*
X4635500Y953770D01*
X4624577Y942847D01*
X4618990Y931926D01*
X4613656Y915670D01*
X4613656Y888492D01*
X4618990Y871981D01*
X4624577Y861060D01*
X4635500Y850137D01*
X4646422Y844804D01*
X4668265Y844804D01*
X4679188Y850137D01*
X4689856Y861060D01*
X4695443Y871981D01*
X4700777Y888492D01*
X4700777Y915670D01*
X4695443Y931926D01*
X4689856Y942847D01*
X4679188Y953770D01*
X4668265Y959357D01*
X4646422Y959357D01*
X4736845Y959357D02*
G01*
X4736845Y844804D01*
X4736845Y844804D02*
G01*
X4802377Y844804D01*
X4949697Y959357D02*
G01*
X4933188Y953770D01*
X4927854Y942847D01*
X4927854Y931926D01*
X4933188Y921004D01*
X4944109Y915670D01*
X4965954Y910081D01*
X4982463Y904747D01*
X4993131Y893826D01*
X4998720Y882904D01*
X4998720Y866647D01*
X4993131Y855726D01*
X4987797Y850137D01*
X4971541Y844804D01*
X4949697Y844804D01*
X4933188Y850137D01*
X4927854Y855726D01*
X4922265Y866647D01*
X4922265Y882904D01*
X4927854Y893826D01*
X4938775Y904747D01*
X4955031Y910081D01*
X4976875Y915670D01*
X4987797Y921004D01*
X4993131Y931926D01*
X4993131Y942847D01*
X4987797Y953770D01*
X4971541Y959357D01*
X4949697Y959357D01*
X4851400Y1340357D02*
G01*
X4851400Y1225804D01*
X4851400Y1340357D02*
G01*
X4900422Y1340357D01*
X4916931Y1334770D01*
X4922265Y1329436D01*
X4927854Y1318513D01*
X4927854Y1307592D01*
X4922265Y1296670D01*
X4916931Y1291081D01*
X4900422Y1285747D01*
X4851400Y1285747D01*
X4889500Y1285747D02*
G01*
X4927854Y1225804D01*
X4996434Y1340357D02*
G01*
X4985511Y1334770D01*
X4974590Y1323847D01*
X4969256Y1312926D01*
X4963668Y1296670D01*
X4963668Y1269492D01*
X4969256Y1252981D01*
X4974590Y1242060D01*
X4985511Y1231137D01*
X4996434Y1225804D01*
X5018277Y1225804D01*
X5029200Y1231137D01*
X5040122Y1242060D01*
X5045456Y1252981D01*
X5051043Y1269492D01*
X5051043Y1296670D01*
X5045456Y1312926D01*
X5040122Y1323847D01*
X5029200Y1334770D01*
X5018277Y1340357D01*
X4996434Y1340357D01*
X5087111Y1340357D02*
G01*
X5114290Y1225804D01*
X5141468Y1340357D02*
G01*
X5114290Y1225804D01*
X5141468Y1340357D02*
G01*
X5168900Y1225804D01*
X5196077Y1340357D02*
G01*
X5168900Y1225804D01*
X5343397Y1340357D02*
G01*
X5327141Y1334770D01*
X5321554Y1323847D01*
X5321554Y1312926D01*
X5327141Y1302004D01*
X5338063Y1296670D01*
X5359654Y1291081D01*
X5376163Y1285747D01*
X5387086Y1274826D01*
X5392420Y1263904D01*
X5392420Y1247647D01*
X5387086Y1236726D01*
X5381497Y1231137D01*
X5365241Y1225804D01*
X5343397Y1225804D01*
X5327141Y1231137D01*
X5321554Y1236726D01*
X5316220Y1247647D01*
X5316220Y1263904D01*
X5321554Y1274826D01*
X5332475Y1285747D01*
X5348731Y1291081D01*
X5370575Y1296670D01*
X5381497Y1302004D01*
X5387086Y1312926D01*
X5387086Y1323847D01*
X5381497Y1334770D01*
X5365241Y1340357D01*
X5343397Y1340357D01*
X4876800Y4616957D02*
G01*
X4876800Y4502404D01*
X4876800Y4616957D02*
G01*
X4925822Y4616957D01*
X4942331Y4611370D01*
X4947665Y4606036D01*
X4953254Y4595113D01*
X4953254Y4584192D01*
X4947665Y4573270D01*
X4942331Y4567681D01*
X4925822Y4562347D01*
X4876800Y4562347D01*
X4914900Y4562347D02*
G01*
X4953254Y4502404D01*
X5021834Y4616957D02*
G01*
X5010911Y4611370D01*
X4999990Y4600447D01*
X4994656Y4589526D01*
X4989068Y4573270D01*
X4989068Y4546092D01*
X4994656Y4529581D01*
X4999990Y4518660D01*
X5010911Y4507737D01*
X5021834Y4502404D01*
X5043677Y4502404D01*
X5054600Y4507737D01*
X5065522Y4518660D01*
X5070856Y4529581D01*
X5076443Y4546092D01*
X5076443Y4573270D01*
X5070856Y4589526D01*
X5065522Y4600447D01*
X5054600Y4611370D01*
X5043677Y4616957D01*
X5021834Y4616957D01*
X5112511Y4616957D02*
G01*
X5139690Y4502404D01*
X5166868Y4616957D02*
G01*
X5139690Y4502404D01*
X5166868Y4616957D02*
G01*
X5194300Y4502404D01*
X5221477Y4616957D02*
G01*
X5194300Y4502404D01*
X5341620Y4595113D02*
G01*
X5352541Y4600447D01*
X5368797Y4616957D01*
X5368797Y4502404D01*
X1433321Y4444237D02*
G01*
X1397000Y4348734D01*
X1433321Y4444237D02*
G01*
X1469644Y4348734D01*
X1410715Y4380737D02*
G01*
X1456181Y4380737D01*
X1499615Y4389881D02*
G01*
X1581657Y4389881D01*
X1620520Y4444237D02*
G01*
X1670557Y4444237D01*
X1643379Y4407915D01*
X1657095Y4407915D01*
X1665986Y4403344D01*
X1670557Y4398771D01*
X1675129Y4385310D01*
X1675129Y4376165D01*
X1670557Y4362450D01*
X1661668Y4353305D01*
X1647952Y4348734D01*
X1634236Y4348734D01*
X1620520Y4353305D01*
X1616202Y4357878D01*
X1611629Y4367021D01*
X1727962Y4444237D02*
G01*
X1714245Y4439665D01*
X1709673Y4430776D01*
X1709673Y4421631D01*
X1714245Y4412487D01*
X1723389Y4407915D01*
X1741423Y4403344D01*
X1755139Y4398771D01*
X1764284Y4389881D01*
X1768855Y4380737D01*
X1768855Y4367021D01*
X1764284Y4357878D01*
X1759712Y4353305D01*
X1745995Y4348734D01*
X1727962Y4348734D01*
X1714245Y4353305D01*
X1709673Y4357878D01*
X1705102Y4367021D01*
X1705102Y4380737D01*
X1709673Y4389881D01*
X1718818Y4398771D01*
X1732534Y4403344D01*
X1750568Y4407915D01*
X1759712Y4412487D01*
X1764284Y4421631D01*
X1764284Y4430776D01*
X1759712Y4439665D01*
X1745995Y4444237D01*
X1727962Y4444237D01*
X1821434Y4444237D02*
G01*
X1807971Y4439665D01*
X1803400Y4430776D01*
X1803400Y4421631D01*
X1807971Y4412487D01*
X1817115Y4407915D01*
X1835150Y4403344D01*
X1848865Y4398771D01*
X1858010Y4389881D01*
X1862328Y4380737D01*
X1862328Y4367021D01*
X1858010Y4357878D01*
X1853437Y4353305D01*
X1839721Y4348734D01*
X1821434Y4348734D01*
X1807971Y4353305D01*
X1803400Y4357878D01*
X1798828Y4367021D01*
X1798828Y4380737D01*
X1803400Y4389881D01*
X1812544Y4398771D01*
X1826005Y4403344D01*
X1844294Y4407915D01*
X1853437Y4412487D01*
X1858010Y4421631D01*
X1858010Y4430776D01*
X1853437Y4439665D01*
X1839721Y4444237D01*
X1821434Y4444237D01*
X1919731Y4444237D02*
G01*
X1906015Y4439665D01*
X1897126Y4426204D01*
X1892554Y4403344D01*
X1892554Y4389881D01*
X1897126Y4367021D01*
X1906015Y4353305D01*
X1919731Y4348734D01*
X1928876Y4348734D01*
X1942338Y4353305D01*
X1951481Y4367021D01*
X1956054Y4389881D01*
X1956054Y4403344D01*
X1951481Y4426204D01*
X1942338Y4439665D01*
X1928876Y4444237D01*
X1919731Y4444237D01*
X2022347Y4444237D02*
G01*
X1986025Y4348734D01*
X2022347Y4444237D02*
G01*
X2058924Y4348734D01*
X1999741Y4380737D02*
G01*
X2045208Y4380737D01*
X2088895Y4389881D02*
G01*
X2170684Y4389881D01*
X2200656Y4444237D02*
G01*
X2200656Y4348734D01*
X2200656Y4444237D02*
G01*
X2241550Y4444237D01*
X2255265Y4439665D01*
X2259838Y4435094D01*
X2264156Y4426204D01*
X2264156Y4417060D01*
X2259838Y4407915D01*
X2255265Y4403344D01*
X2241550Y4398771D01*
X2200656Y4398771D01*
X2232406Y4398771D02*
G01*
X2264156Y4348734D01*
X2364231Y4444237D02*
G01*
X2364231Y4348734D01*
X2364231Y4348734D02*
G01*
X2418841Y4348734D01*
X2448813Y4444237D02*
G01*
X2448813Y4348734D01*
X2448813Y4444237D02*
G01*
X2507995Y4444237D01*
X2448813Y4398771D02*
G01*
X2485136Y4398771D01*
X2448813Y4348734D02*
G01*
X2507995Y4348734D01*
X2537968Y4444237D02*
G01*
X2537968Y4348734D01*
X2537968Y4444237D02*
G01*
X2569718Y4444237D01*
X2583434Y4439665D01*
X2592577Y4430776D01*
X2596895Y4421631D01*
X2601468Y4407915D01*
X2601468Y4385310D01*
X2596895Y4371594D01*
X2592577Y4362450D01*
X2583434Y4353305D01*
X2569718Y4348734D01*
X2537968Y4348734D01*
X2701543Y4444237D02*
G01*
X2701543Y4348734D01*
X2701543Y4444237D02*
G01*
X2737865Y4348734D01*
X2774188Y4444237D02*
G01*
X2737865Y4348734D01*
X2774188Y4444237D02*
G01*
X2774188Y4348734D01*
X2840736Y4444237D02*
G01*
X2804159Y4348734D01*
X2840736Y4444237D02*
G01*
X2877058Y4348734D01*
X2817875Y4380737D02*
G01*
X2863341Y4380737D01*
X2938779Y4444237D02*
G01*
X2938779Y4348734D01*
X2907029Y4444237D02*
G01*
X2970529Y4444237D01*
X3000756Y4444237D02*
G01*
X3000756Y4348734D01*
X3000756Y4444237D02*
G01*
X3041650Y4444237D01*
X3055111Y4439665D01*
X3059684Y4435094D01*
X3064256Y4426204D01*
X3064256Y4417060D01*
X3059684Y4407915D01*
X3055111Y4403344D01*
X3041650Y4398771D01*
X3000756Y4398771D01*
X3032506Y4398771D02*
G01*
X3064256Y4348734D01*
X3094227Y4444237D02*
G01*
X3094227Y4348734D01*
X3124200Y4444237D02*
G01*
X3187954Y4348734D01*
X3187954Y4444237D02*
G01*
X3124200Y4348734D01*
X1028700Y4444237D02*
G01*
X1028700Y4348734D01*
X1028700Y4444237D02*
G01*
X1060450Y4444237D01*
X1074165Y4439665D01*
X1083310Y4430776D01*
X1087881Y4421631D01*
X1092454Y4407915D01*
X1092454Y4385310D01*
X1087881Y4371594D01*
X1083310Y4362450D01*
X1074165Y4353305D01*
X1060450Y4348734D01*
X1028700Y4348734D01*
X1185926Y4430776D02*
G01*
X1176781Y4439665D01*
X1163320Y4444237D01*
X1145031Y4444237D01*
X1131315Y4439665D01*
X1122426Y4430776D01*
X1122426Y4421631D01*
X1126997Y4412487D01*
X1131315Y4407915D01*
X1140460Y4403344D01*
X1167892Y4394200D01*
X1176781Y4389881D01*
X1181354Y4385310D01*
X1185926Y4376165D01*
X1185926Y4362450D01*
X1176781Y4353305D01*
X1163320Y4348734D01*
X1145031Y4348734D01*
X1131315Y4353305D01*
X1122426Y4362450D01*
X1215897Y4426204D02*
G01*
X1225042Y4430776D01*
X1238757Y4444237D01*
X1238757Y4348734D01*
X4111243Y5790437D02*
G01*
X4161281Y5790437D01*
X4133850Y5754115D01*
X4147565Y5754115D01*
X4156709Y5749544D01*
X4161281Y5744971D01*
X4165854Y5731510D01*
X4165854Y5722365D01*
X4161281Y5708650D01*
X4152138Y5699505D01*
X4138422Y5694934D01*
X4124706Y5694934D01*
X4111243Y5699505D01*
X4106672Y5704078D01*
X4102100Y5713221D01*
X4195825Y5790437D02*
G01*
X4232147Y5694934D01*
X4268470Y5790437D02*
G01*
X4232147Y5694934D01*
X4307586Y5790437D02*
G01*
X4357624Y5790437D01*
X4330191Y5754115D01*
X4343908Y5754115D01*
X4353052Y5749544D01*
X4357624Y5744971D01*
X4362195Y5731510D01*
X4362195Y5722365D01*
X4357624Y5708650D01*
X4348479Y5699505D01*
X4334763Y5694934D01*
X4321302Y5694934D01*
X4307586Y5699505D01*
X4303013Y5704078D01*
X4298441Y5713221D01*
X4782565Y5714237D02*
G01*
X4782565Y5641594D01*
X4777993Y5627878D01*
X4773422Y5623305D01*
X4764277Y5618734D01*
X4755388Y5618734D01*
X4746243Y5623305D01*
X4741672Y5627878D01*
X4737100Y5641594D01*
X4737100Y5650737D01*
X4812538Y5696204D02*
G01*
X4821681Y5700776D01*
X4835397Y5714237D01*
X4835397Y5618734D01*
X4805172Y5424931D02*
G01*
X4800854Y5434076D01*
X4791709Y5442965D01*
X4782565Y5447537D01*
X4764277Y5447537D01*
X4755388Y5442965D01*
X4746243Y5434076D01*
X4741672Y5424931D01*
X4737100Y5411215D01*
X4737100Y5388610D01*
X4741672Y5374894D01*
X4746243Y5365750D01*
X4755388Y5356605D01*
X4764277Y5352034D01*
X4782565Y5352034D01*
X4791709Y5356605D01*
X4800854Y5365750D01*
X4805172Y5374894D01*
X4805172Y5388610D01*
X4782565Y5388610D02*
G01*
X4805172Y5388610D01*
X4835397Y5447537D02*
G01*
X4835397Y5352034D01*
X4835397Y5447537D02*
G01*
X4898897Y5352034D01*
X4898897Y5447537D02*
G01*
X4898897Y5352034D01*
X4928870Y5447537D02*
G01*
X4928870Y5352034D01*
X4928870Y5447537D02*
G01*
X4960620Y5447537D01*
X4974336Y5442965D01*
X4983479Y5434076D01*
X4988052Y5424931D01*
X4992624Y5411215D01*
X4992624Y5388610D01*
X4988052Y5374894D01*
X4983479Y5365750D01*
X4974336Y5356605D01*
X4960620Y5352034D01*
X4928870Y5352034D01*
X4764277Y5307837D02*
G01*
X4755388Y5303265D01*
X4746243Y5294376D01*
X4741672Y5285231D01*
X4737100Y5271515D01*
X4737100Y5248910D01*
X4741672Y5235194D01*
X4746243Y5226050D01*
X4755388Y5216905D01*
X4764277Y5212334D01*
X4782565Y5212334D01*
X4791709Y5216905D01*
X4800854Y5226050D01*
X4805172Y5235194D01*
X4809743Y5248910D01*
X4809743Y5271515D01*
X4805172Y5285231D01*
X4800854Y5294376D01*
X4791709Y5303265D01*
X4782565Y5307837D01*
X4764277Y5307837D01*
X4839715Y5307837D02*
G01*
X4839715Y5212334D01*
X4839715Y5307837D02*
G01*
X4903470Y5212334D01*
X4903470Y5307837D02*
G01*
X4903470Y5212334D01*
X4933441Y5307837D02*
G01*
X4933441Y5212334D01*
X4933441Y5212334D02*
G01*
X4988052Y5212334D01*
X5018024Y5307837D02*
G01*
X5054345Y5262371D01*
X5054345Y5212334D01*
X5090668Y5307837D02*
G01*
X5054345Y5262371D01*
X2070973Y83215D02*
G01*
X2030079Y156113D01*
X1989185Y83215D01*
X2324973Y83215D02*
G01*
X2284079Y156113D01*
X2243185Y83215D01*
X2578973Y83215D02*
G01*
X2538079Y156113D01*
X2497185Y83215D01*
X2832973Y83215D02*
G01*
X2792079Y156113D01*
X2751185Y83215D01*
X3086973Y83215D02*
G01*
X3046079Y156113D01*
X3005185Y83215D01*
X3340973Y83215D02*
G01*
X3300079Y156113D01*
X3259185Y83215D01*
X3594973Y83215D02*
G01*
X3554079Y156113D01*
X3513185Y83215D01*
X3848973Y83215D02*
G01*
X3808079Y156113D01*
X3767185Y83215D01*
X5762365Y2068179D02*
G01*
X5689467Y2027285D01*
X5762365Y1986391D01*
X5762365Y2322179D02*
G01*
X5689467Y2281285D01*
X5762365Y2240391D01*
X5762365Y2576179D02*
G01*
X5689467Y2535285D01*
X5762365Y2494391D01*
X5762365Y2830179D02*
G01*
X5689467Y2789285D01*
X5762365Y2748391D01*
X5762365Y3084179D02*
G01*
X5689467Y3043285D01*
X5762365Y3002391D01*
X5762365Y3338179D02*
G01*
X5689467Y3297285D01*
X5762365Y3256391D01*
X5762365Y3592179D02*
G01*
X5689467Y3551285D01*
X5762365Y3510391D01*
X5762365Y3846179D02*
G01*
X5689467Y3805285D01*
X5762365Y3764391D01*
X762000Y5601715D02*
G01*
X762000Y5492750D01*
X762000Y5601715D02*
G01*
X808736Y5601715D01*
X824229Y5596636D01*
X829563Y5591302D01*
X834644Y5580887D01*
X834644Y5565394D01*
X829563Y5554979D01*
X824229Y5549900D01*
X808736Y5544565D01*
X762000Y5544565D01*
X868934Y5601715D02*
G01*
X868934Y5492750D01*
X868934Y5601715D02*
G01*
X915670Y5601715D01*
X931418Y5596636D01*
X936497Y5591302D01*
X941831Y5580887D01*
X941831Y5570473D01*
X936497Y5560060D01*
X931418Y5554979D01*
X915670Y5549900D01*
X868934Y5549900D01*
X905510Y5549900D02*
G01*
X941831Y5492750D01*
X1007110Y5601715D02*
G01*
X996950Y5596636D01*
X986536Y5586221D01*
X981202Y5575807D01*
X976121Y5560060D01*
X976121Y5534152D01*
X981202Y5518657D01*
X986536Y5508244D01*
X996950Y5497829D01*
X1007110Y5492750D01*
X1027937Y5492750D01*
X1038352Y5497829D01*
X1048765Y5508244D01*
X1054100Y5518657D01*
X1059179Y5534152D01*
X1059179Y5560060D01*
X1054100Y5575807D01*
X1048765Y5586221D01*
X1038352Y5596636D01*
X1027937Y5601715D01*
X1007110Y5601715D01*
X1129792Y5601715D02*
G01*
X1129792Y5492750D01*
X1093470Y5601715D02*
G01*
X1166113Y5601715D01*
X1231645Y5601715D02*
G01*
X1221231Y5596636D01*
X1210818Y5586221D01*
X1205737Y5575807D01*
X1200404Y5560060D01*
X1200404Y5534152D01*
X1205737Y5518657D01*
X1210818Y5508244D01*
X1221231Y5497829D01*
X1231645Y5492750D01*
X1252473Y5492750D01*
X1262887Y5497829D01*
X1273302Y5508244D01*
X1278381Y5518657D01*
X1283715Y5534152D01*
X1283715Y5560060D01*
X1278381Y5575807D01*
X1273302Y5586221D01*
X1262887Y5596636D01*
X1252473Y5601715D01*
X1231645Y5601715D01*
X1318005Y5601715D02*
G01*
X1318005Y5492750D01*
X1318005Y5601715D02*
G01*
X1390650Y5492750D01*
X1390650Y5601715D02*
G01*
X1390650Y5492750D01*
X1424939Y5601715D02*
G01*
X1424939Y5492750D01*
X1424939Y5601715D02*
G01*
X1492504Y5601715D01*
X1424939Y5549900D02*
G01*
X1466595Y5549900D01*
X1424939Y5492750D02*
G01*
X1492504Y5492750D01*
X1526794Y5601715D02*
G01*
X1526794Y5492750D01*
X1526794Y5601715D02*
G01*
X1568450Y5492750D01*
X1609852Y5601715D02*
G01*
X1568450Y5492750D01*
X1609852Y5601715D02*
G01*
X1609852Y5492750D01*
X1685797Y5601715D02*
G01*
X1644142Y5492750D01*
X1685797Y5601715D02*
G01*
X1727200Y5492750D01*
X1659889Y5529071D02*
G01*
X1711705Y5529071D01*
X1841500Y5601715D02*
G01*
X1841500Y5492750D01*
X1841500Y5492750D02*
G01*
X1903984Y5492750D01*
X1938274Y5601715D02*
G01*
X1938274Y5492750D01*
X1938274Y5601715D02*
G01*
X2005838Y5601715D01*
X1938274Y5549900D02*
G01*
X1979929Y5549900D01*
X1938274Y5492750D02*
G01*
X2005838Y5492750D01*
X2040127Y5601715D02*
G01*
X2040127Y5492750D01*
X2040127Y5601715D02*
G01*
X2076450Y5601715D01*
X2091943Y5596636D01*
X2102358Y5586221D01*
X2107691Y5575807D01*
X2112772Y5560060D01*
X2112772Y5534152D01*
X2107691Y5518657D01*
X2102358Y5508244D01*
X2091943Y5497829D01*
X2076450Y5492750D01*
X2040127Y5492750D01*
X2227072Y5601715D02*
G01*
X2227072Y5492750D01*
X2227072Y5601715D02*
G01*
X2268727Y5492750D01*
X2310129Y5601715D02*
G01*
X2268727Y5492750D01*
X2310129Y5601715D02*
G01*
X2310129Y5492750D01*
X2386075Y5601715D02*
G01*
X2344420Y5492750D01*
X2386075Y5601715D02*
G01*
X2427731Y5492750D01*
X2360168Y5529071D02*
G01*
X2411984Y5529071D01*
X2498343Y5601715D02*
G01*
X2498343Y5492750D01*
X2462022Y5601715D02*
G01*
X2534665Y5601715D01*
X2568956Y5601715D02*
G01*
X2568956Y5492750D01*
X2568956Y5601715D02*
G01*
X2615691Y5601715D01*
X2631440Y5596636D01*
X2636520Y5591302D01*
X2641600Y5580887D01*
X2641600Y5570473D01*
X2636520Y5560060D01*
X2631440Y5554979D01*
X2615691Y5549900D01*
X2568956Y5549900D01*
X2605277Y5549900D02*
G01*
X2641600Y5492750D01*
X2675890Y5601715D02*
G01*
X2675890Y5492750D01*
X2710179Y5601715D02*
G01*
X2783077Y5492750D01*
X2783077Y5601715D02*
G01*
X2710179Y5492750D01*
X2897377Y5601715D02*
G01*
X2938779Y5492750D01*
X2980436Y5601715D02*
G01*
X2938779Y5492750D01*
X3014725Y5580887D02*
G01*
X3025140Y5586221D01*
X3040634Y5601715D01*
X3040634Y5492750D01*
X762000Y5423915D02*
G01*
X762000Y5314950D01*
X762000Y5423915D02*
G01*
X808736Y5423915D01*
X824229Y5418836D01*
X829563Y5413502D01*
X834644Y5403087D01*
X834644Y5387594D01*
X829563Y5377179D01*
X824229Y5372100D01*
X808736Y5366765D01*
X762000Y5366765D01*
X910589Y5423915D02*
G01*
X868934Y5314950D01*
X910589Y5423915D02*
G01*
X952245Y5314950D01*
X884681Y5351271D02*
G01*
X936497Y5351271D01*
X986536Y5423915D02*
G01*
X986536Y5314950D01*
X986536Y5423915D02*
G01*
X1033271Y5423915D01*
X1048765Y5418836D01*
X1054100Y5413502D01*
X1059179Y5403087D01*
X1059179Y5392673D01*
X1054100Y5382260D01*
X1048765Y5377179D01*
X1033271Y5372100D01*
X986536Y5372100D01*
X1022857Y5372100D02*
G01*
X1059179Y5314950D01*
X1129792Y5423915D02*
G01*
X1129792Y5314950D01*
X1093470Y5423915D02*
G01*
X1166113Y5423915D01*
X1280413Y5423915D02*
G01*
X1280413Y5314950D01*
X1280413Y5423915D02*
G01*
X1353312Y5314950D01*
X1353312Y5423915D02*
G01*
X1353312Y5314950D01*
X1387602Y5423915D02*
G01*
X1387602Y5345937D01*
X1392681Y5330444D01*
X1403095Y5320029D01*
X1418589Y5314950D01*
X1429004Y5314950D01*
X1444752Y5320029D01*
X1455165Y5330444D01*
X1460245Y5345937D01*
X1460245Y5423915D01*
X1494536Y5423915D02*
G01*
X1494536Y5314950D01*
X1494536Y5423915D02*
G01*
X1536192Y5314950D01*
X1577594Y5423915D02*
G01*
X1536192Y5314950D01*
X1577594Y5423915D02*
G01*
X1577594Y5314950D01*
X1611884Y5423915D02*
G01*
X1611884Y5314950D01*
X1611884Y5423915D02*
G01*
X1658620Y5423915D01*
X1674368Y5418836D01*
X1679447Y5413502D01*
X1684781Y5403087D01*
X1684781Y5392673D01*
X1679447Y5382260D01*
X1674368Y5377179D01*
X1658620Y5372100D01*
X1611884Y5372100D02*
G01*
X1658620Y5372100D01*
X1674368Y5366765D01*
X1679447Y5361686D01*
X1684781Y5351271D01*
X1684781Y5335523D01*
X1679447Y5325110D01*
X1674368Y5320029D01*
X1658620Y5314950D01*
X1611884Y5314950D01*
X1719071Y5423915D02*
G01*
X1719071Y5314950D01*
X1719071Y5423915D02*
G01*
X1786636Y5423915D01*
X1719071Y5372100D02*
G01*
X1760473Y5372100D01*
X1719071Y5314950D02*
G01*
X1786636Y5314950D01*
X1820926Y5423915D02*
G01*
X1820926Y5314950D01*
X1820926Y5423915D02*
G01*
X1867662Y5423915D01*
X1883155Y5418836D01*
X1888489Y5413502D01*
X1893570Y5403087D01*
X1893570Y5392673D01*
X1888489Y5382260D01*
X1883155Y5377179D01*
X1867662Y5372100D01*
X1820926Y5372100D01*
X1857247Y5372100D02*
G01*
X1893570Y5314950D01*
X2007870Y5403087D02*
G01*
X2018284Y5408421D01*
X2033777Y5423915D01*
X2033777Y5314950D01*
X2099309Y5423915D02*
G01*
X2083815Y5418836D01*
X2073402Y5403087D01*
X2068068Y5377179D01*
X2068068Y5361686D01*
X2073402Y5335523D01*
X2083815Y5320029D01*
X2099309Y5314950D01*
X2109724Y5314950D01*
X2125218Y5320029D01*
X2135631Y5335523D01*
X2140965Y5361686D01*
X2140965Y5377179D01*
X2135631Y5403087D01*
X2125218Y5418836D01*
X2109724Y5423915D01*
X2099309Y5423915D01*
X2185670Y5423915D02*
G01*
X2242820Y5423915D01*
X2211577Y5382260D01*
X2227072Y5382260D01*
X2237486Y5377179D01*
X2242820Y5372100D01*
X2247900Y5356352D01*
X2247900Y5345937D01*
X2242820Y5330444D01*
X2232406Y5320029D01*
X2216658Y5314950D01*
X2201163Y5314950D01*
X2185670Y5320029D01*
X2180336Y5325110D01*
X2175256Y5335523D01*
X2287270Y5398007D02*
G01*
X2287270Y5403087D01*
X2292604Y5413502D01*
X2297684Y5418836D01*
X2308097Y5423915D01*
X2328925Y5423915D01*
X2339340Y5418836D01*
X2344420Y5413502D01*
X2349754Y5403087D01*
X2349754Y5392673D01*
X2344420Y5382260D01*
X2334259Y5366765D01*
X2282190Y5314950D01*
X2354834Y5314950D01*
X2389124Y5361686D02*
G01*
X2482850Y5361686D01*
X2548127Y5423915D02*
G01*
X2532634Y5418836D01*
X2522220Y5403087D01*
X2517140Y5377179D01*
X2517140Y5361686D01*
X2522220Y5335523D01*
X2532634Y5320029D01*
X2548127Y5314950D01*
X2558541Y5314950D01*
X2574290Y5320029D01*
X2584450Y5335523D01*
X2589784Y5361686D01*
X2589784Y5377179D01*
X2584450Y5403087D01*
X2574290Y5418836D01*
X2558541Y5423915D01*
X2548127Y5423915D01*
X2624074Y5403087D02*
G01*
X2634488Y5408421D01*
X2649981Y5423915D01*
X2649981Y5314950D01*
X2715513Y5423915D02*
G01*
X2700020Y5418836D01*
X2689606Y5403087D01*
X2684272Y5377179D01*
X2684272Y5361686D01*
X2689606Y5335523D01*
X2700020Y5320029D01*
X2715513Y5314950D01*
X2725927Y5314950D01*
X2741422Y5320029D01*
X2751836Y5335523D01*
X2757170Y5361686D01*
X2757170Y5377179D01*
X2751836Y5403087D01*
X2741422Y5418836D01*
X2725927Y5423915D01*
X2715513Y5423915D01*
X2791459Y5403087D02*
G01*
X2801620Y5408421D01*
X2817368Y5423915D01*
X2817368Y5314950D01*
X245871Y1665731D02*
G01*
X245871Y1670304D01*
X250444Y1679194D01*
X255015Y1683765D01*
X263905Y1688337D01*
X282194Y1688337D01*
X291337Y1683765D01*
X295910Y1679194D01*
X300481Y1670304D01*
X300481Y1661160D01*
X295910Y1652015D01*
X286765Y1638300D01*
X241300Y1592834D01*
X305054Y1592834D01*
X335026Y1688337D02*
G01*
X335026Y1592834D01*
X335026Y1688337D02*
G01*
X398526Y1592834D01*
X398526Y1688337D02*
G01*
X398526Y1592834D01*
X433070Y1665731D02*
G01*
X433070Y1670304D01*
X437642Y1679194D01*
X442213Y1683765D01*
X451357Y1688337D01*
X469392Y1688337D01*
X478536Y1683765D01*
X483107Y1679194D01*
X487679Y1670304D01*
X487679Y1661160D01*
X483107Y1652015D01*
X473963Y1638300D01*
X428497Y1592834D01*
X492252Y1592834D01*
X526795Y1665731D02*
G01*
X526795Y1670304D01*
X531368Y1679194D01*
X535939Y1683765D01*
X544829Y1688337D01*
X563118Y1688337D01*
X572262Y1683765D01*
X576834Y1679194D01*
X581405Y1670304D01*
X581405Y1661160D01*
X576834Y1652015D01*
X567689Y1638300D01*
X522223Y1592834D01*
X585723Y1592834D01*
X620268Y1665731D02*
G01*
X620268Y1670304D01*
X624839Y1679194D01*
X629412Y1683765D01*
X638555Y1688337D01*
X656844Y1688337D01*
X665734Y1683765D01*
X670305Y1679194D01*
X674878Y1670304D01*
X674878Y1661160D01*
X670305Y1652015D01*
X661415Y1638300D01*
X615950Y1592834D01*
X679450Y1592834D01*
X713994Y1665731D02*
G01*
X713994Y1670304D01*
X718565Y1679194D01*
X723137Y1683765D01*
X732281Y1688337D01*
X750315Y1688337D01*
X759460Y1683765D01*
X764031Y1679194D01*
X768604Y1670304D01*
X768604Y1661160D01*
X764031Y1652015D01*
X754887Y1638300D01*
X709421Y1592834D01*
X773176Y1592834D01*
X1054100Y1670304D02*
G01*
X1063244Y1674876D01*
X1076705Y1688337D01*
X1076705Y1592834D01*
X1106931Y1688337D02*
G01*
X1106931Y1592834D01*
X1170431Y1688337D02*
G01*
X1106931Y1624837D01*
X1129537Y1647444D02*
G01*
X1170431Y1592834D01*
X4167377Y4761737D02*
G01*
X4153915Y4757165D01*
X4144772Y4743704D01*
X4140200Y4720844D01*
X4140200Y4707381D01*
X4144772Y4684521D01*
X4153915Y4670805D01*
X4167377Y4666234D01*
X4176522Y4666234D01*
X4190238Y4670805D01*
X4199381Y4684521D01*
X4203954Y4707381D01*
X4203954Y4720844D01*
X4199381Y4743704D01*
X4190238Y4757165D01*
X4176522Y4761737D01*
X4167377Y4761737D01*
X4238497Y4689094D02*
G01*
X4233925Y4684521D01*
X4238497Y4679950D01*
X4242815Y4684521D01*
X4238497Y4689094D01*
X4327397Y4748276D02*
G01*
X4322825Y4757165D01*
X4309363Y4761737D01*
X4300220Y4761737D01*
X4286504Y4757165D01*
X4277359Y4743704D01*
X4273041Y4720844D01*
X4273041Y4698237D01*
X4277359Y4679950D01*
X4286504Y4670805D01*
X4300220Y4666234D01*
X4304791Y4666234D01*
X4318508Y4670805D01*
X4327397Y4679950D01*
X4331970Y4693665D01*
X4331970Y4698237D01*
X4327397Y4711700D01*
X4318508Y4720844D01*
X4304791Y4725415D01*
X4300220Y4725415D01*
X4286504Y4720844D01*
X4277359Y4711700D01*
X4273041Y4698237D01*
X4416552Y4761737D02*
G01*
X4371086Y4761737D01*
X4366513Y4720844D01*
X4371086Y4725415D01*
X4384802Y4729987D01*
X4398263Y4729987D01*
X4411979Y4725415D01*
X4421124Y4716271D01*
X4425695Y4702810D01*
X4425695Y4693665D01*
X4421124Y4679950D01*
X4411979Y4670805D01*
X4398263Y4666234D01*
X4384802Y4666234D01*
X4371086Y4670805D01*
X4366513Y4675378D01*
X4361941Y4684521D01*
X4455668Y4761737D02*
G01*
X4455668Y4666234D01*
X4519168Y4761737D02*
G01*
X4455668Y4698237D01*
X4478274Y4720844D02*
G01*
X4519168Y4666234D01*
X217678Y2691637D02*
G01*
X208787Y2687065D01*
X199644Y2678176D01*
X195071Y2669031D01*
X190500Y2655315D01*
X190500Y2632710D01*
X195071Y2618994D01*
X199644Y2609850D01*
X208787Y2600705D01*
X217678Y2596134D01*
X235965Y2596134D01*
X245110Y2600705D01*
X254254Y2609850D01*
X258571Y2618994D01*
X263144Y2632710D01*
X263144Y2655315D01*
X258571Y2669031D01*
X254254Y2678176D01*
X245110Y2687065D01*
X235965Y2691637D01*
X217678Y2691637D01*
X231394Y2614421D02*
G01*
X258571Y2587244D01*
X347726Y2678176D02*
G01*
X343154Y2687065D01*
X329692Y2691637D01*
X320547Y2691637D01*
X306831Y2687065D01*
X297687Y2673604D01*
X293115Y2650744D01*
X293115Y2628137D01*
X297687Y2609850D01*
X306831Y2600705D01*
X320547Y2596134D01*
X325120Y2596134D01*
X338581Y2600705D01*
X347726Y2609850D01*
X352297Y2623565D01*
X352297Y2628137D01*
X347726Y2641600D01*
X338581Y2650744D01*
X325120Y2655315D01*
X320547Y2655315D01*
X306831Y2650744D01*
X297687Y2641600D01*
X293115Y2628137D01*
X535178Y2945637D02*
G01*
X526287Y2941065D01*
X517144Y2932176D01*
X512571Y2923031D01*
X508000Y2909315D01*
X508000Y2886710D01*
X512571Y2872994D01*
X517144Y2863850D01*
X526287Y2854705D01*
X535178Y2850134D01*
X553465Y2850134D01*
X562610Y2854705D01*
X571754Y2863850D01*
X576071Y2872994D01*
X580644Y2886710D01*
X580644Y2909315D01*
X576071Y2923031D01*
X571754Y2932176D01*
X562610Y2941065D01*
X553465Y2945637D01*
X535178Y2945637D01*
X548894Y2868421D02*
G01*
X576071Y2841244D01*
X665226Y2945637D02*
G01*
X619760Y2945637D01*
X615187Y2904744D01*
X619760Y2909315D01*
X633476Y2913887D01*
X647192Y2913887D01*
X660654Y2909315D01*
X669797Y2900171D01*
X674370Y2886710D01*
X674370Y2877565D01*
X669797Y2863850D01*
X660654Y2854705D01*
X647192Y2850134D01*
X633476Y2850134D01*
X619760Y2854705D01*
X615187Y2859278D01*
X610615Y2868421D01*
X217678Y3199637D02*
G01*
X208787Y3195065D01*
X199644Y3186176D01*
X195071Y3177031D01*
X190500Y3163315D01*
X190500Y3140710D01*
X195071Y3126994D01*
X199644Y3117850D01*
X208787Y3108705D01*
X217678Y3104134D01*
X235965Y3104134D01*
X245110Y3108705D01*
X254254Y3117850D01*
X258571Y3126994D01*
X263144Y3140710D01*
X263144Y3163315D01*
X258571Y3177031D01*
X254254Y3186176D01*
X245110Y3195065D01*
X235965Y3199637D01*
X217678Y3199637D01*
X231394Y3122421D02*
G01*
X258571Y3095244D01*
X338581Y3199637D02*
G01*
X293115Y3136137D01*
X361442Y3136137D01*
X338581Y3199637D02*
G01*
X338581Y3104134D01*
X2857500Y4990337D02*
G01*
X2857500Y4894834D01*
X2857500Y4990337D02*
G01*
X2898393Y4990337D01*
X2912109Y4985765D01*
X2916681Y4981194D01*
X2921254Y4972304D01*
X2921254Y4963160D01*
X2916681Y4954015D01*
X2912109Y4949444D01*
X2898393Y4944871D01*
X2857500Y4944871D01*
X2889250Y4944871D02*
G01*
X2921254Y4894834D01*
X2996691Y4990337D02*
G01*
X2951225Y4926837D01*
X3019297Y4926837D01*
X2996691Y4990337D02*
G01*
X2996691Y4894834D01*
X2603500Y4990337D02*
G01*
X2603500Y4894834D01*
X2603500Y4990337D02*
G01*
X2644393Y4990337D01*
X2658109Y4985765D01*
X2662681Y4981194D01*
X2667254Y4972304D01*
X2667254Y4963160D01*
X2662681Y4954015D01*
X2658109Y4949444D01*
X2644393Y4944871D01*
X2603500Y4944871D01*
X2635250Y4944871D02*
G01*
X2667254Y4894834D01*
X2706115Y4990337D02*
G01*
X2756154Y4990337D01*
X2728975Y4954015D01*
X2742691Y4954015D01*
X2751581Y4949444D01*
X2756154Y4944871D01*
X2760725Y4931410D01*
X2760725Y4922265D01*
X2756154Y4908550D01*
X2747009Y4899405D01*
X2733547Y4894834D01*
X2719831Y4894834D01*
X2706115Y4899405D01*
X2701797Y4903978D01*
X2697225Y4913121D01*
X535178Y3453637D02*
G01*
X526287Y3449065D01*
X517144Y3440176D01*
X512571Y3431031D01*
X508000Y3417315D01*
X508000Y3394710D01*
X512571Y3380994D01*
X517144Y3371850D01*
X526287Y3362705D01*
X535178Y3358134D01*
X553465Y3358134D01*
X562610Y3362705D01*
X571754Y3371850D01*
X576071Y3380994D01*
X580644Y3394710D01*
X580644Y3417315D01*
X576071Y3431031D01*
X571754Y3440176D01*
X562610Y3449065D01*
X553465Y3453637D01*
X535178Y3453637D01*
X548894Y3376421D02*
G01*
X576071Y3349244D01*
X619760Y3453637D02*
G01*
X669797Y3453637D01*
X642620Y3417315D01*
X656081Y3417315D01*
X665226Y3412744D01*
X669797Y3408171D01*
X674370Y3394710D01*
X674370Y3385565D01*
X669797Y3371850D01*
X660654Y3362705D01*
X647192Y3358134D01*
X633476Y3358134D01*
X619760Y3362705D01*
X615187Y3367278D01*
X610615Y3376421D01*
X2095500Y4990337D02*
G01*
X2095500Y4894834D01*
X2095500Y4990337D02*
G01*
X2136393Y4990337D01*
X2150109Y4985765D01*
X2154681Y4981194D01*
X2159254Y4972304D01*
X2159254Y4963160D01*
X2154681Y4954015D01*
X2150109Y4949444D01*
X2136393Y4944871D01*
X2095500Y4944871D01*
X2127250Y4944871D02*
G01*
X2159254Y4894834D01*
X2189225Y4972304D02*
G01*
X2198115Y4976876D01*
X2211831Y4990337D01*
X2211831Y4894834D01*
X2349500Y4990337D02*
G01*
X2349500Y4894834D01*
X2349500Y4990337D02*
G01*
X2390393Y4990337D01*
X2404109Y4985765D01*
X2408681Y4981194D01*
X2413254Y4972304D01*
X2413254Y4963160D01*
X2408681Y4954015D01*
X2404109Y4949444D01*
X2390393Y4944871D01*
X2349500Y4944871D01*
X2381250Y4944871D02*
G01*
X2413254Y4894834D01*
X2447797Y4967731D02*
G01*
X2447797Y4972304D01*
X2452115Y4981194D01*
X2456688Y4985765D01*
X2465831Y4990337D01*
X2484120Y4990337D01*
X2493009Y4985765D01*
X2497581Y4981194D01*
X2502154Y4972304D01*
X2502154Y4963160D01*
X2497581Y4954015D01*
X2488691Y4940300D01*
X2443225Y4894834D01*
X2506725Y4894834D01*
X535178Y3961637D02*
G01*
X526287Y3957065D01*
X517144Y3948176D01*
X512571Y3939031D01*
X508000Y3925315D01*
X508000Y3902710D01*
X512571Y3888994D01*
X517144Y3879850D01*
X526287Y3870705D01*
X535178Y3866134D01*
X553465Y3866134D01*
X562610Y3870705D01*
X571754Y3879850D01*
X576071Y3888994D01*
X580644Y3902710D01*
X580644Y3925315D01*
X576071Y3939031D01*
X571754Y3948176D01*
X562610Y3957065D01*
X553465Y3961637D01*
X535178Y3961637D01*
X548894Y3884421D02*
G01*
X576071Y3857244D01*
X610615Y3943604D02*
G01*
X619760Y3948176D01*
X633476Y3961637D01*
X633476Y3866134D01*
X221234Y3715512D02*
G01*
X212344Y3710939D01*
X203200Y3702050D01*
X198628Y3692905D01*
X194055Y3679189D01*
X194055Y3656584D01*
X198628Y3642868D01*
X203200Y3633723D01*
X212344Y3624579D01*
X221234Y3620007D01*
X239521Y3620007D01*
X248665Y3624579D01*
X257810Y3633723D01*
X262128Y3642868D01*
X266700Y3656584D01*
X266700Y3679189D01*
X262128Y3692905D01*
X257810Y3702050D01*
X248665Y3710939D01*
X239521Y3715512D01*
X221234Y3715512D01*
X234950Y3638295D02*
G01*
X262128Y3611118D01*
X301244Y3692905D02*
G01*
X301244Y3697478D01*
X305815Y3706368D01*
X310387Y3710939D01*
X319531Y3715512D01*
X337565Y3715512D01*
X346710Y3710939D01*
X351281Y3706368D01*
X355854Y3697478D01*
X355854Y3688334D01*
X351281Y3679189D01*
X342137Y3665473D01*
X296671Y3620007D01*
X360426Y3620007D01*
X723900Y3847337D02*
G01*
X723900Y3751834D01*
X723900Y3847337D02*
G01*
X764794Y3847337D01*
X778510Y3842765D01*
X783081Y3838194D01*
X787654Y3829304D01*
X787654Y3820160D01*
X783081Y3811015D01*
X778510Y3806444D01*
X764794Y3801871D01*
X723900Y3801871D01*
X755650Y3801871D02*
G01*
X787654Y3751834D01*
X876554Y3815587D02*
G01*
X871981Y3801871D01*
X863092Y3792981D01*
X849376Y3788410D01*
X844804Y3788410D01*
X831087Y3792981D01*
X822197Y3801871D01*
X817626Y3815587D01*
X817626Y3820160D01*
X822197Y3833876D01*
X831087Y3842765D01*
X844804Y3847337D01*
X849376Y3847337D01*
X863092Y3842765D01*
X871981Y3833876D01*
X876554Y3815587D01*
X876554Y3792981D01*
X871981Y3770121D01*
X863092Y3756405D01*
X849376Y3751834D01*
X840231Y3751834D01*
X826515Y3756405D01*
X822197Y3765550D01*
X723900Y3593337D02*
G01*
X723900Y3497834D01*
X723900Y3593337D02*
G01*
X764794Y3593337D01*
X778510Y3588765D01*
X783081Y3584194D01*
X787654Y3575304D01*
X787654Y3566160D01*
X783081Y3557015D01*
X778510Y3552444D01*
X764794Y3547871D01*
X723900Y3547871D01*
X755650Y3547871D02*
G01*
X787654Y3497834D01*
X817626Y3575304D02*
G01*
X826515Y3579876D01*
X840231Y3593337D01*
X840231Y3497834D01*
X897636Y3593337D02*
G01*
X883920Y3588765D01*
X874776Y3575304D01*
X870204Y3552444D01*
X870204Y3538981D01*
X874776Y3516121D01*
X883920Y3502405D01*
X897636Y3497834D01*
X906526Y3497834D01*
X920242Y3502405D01*
X929386Y3516121D01*
X933957Y3538981D01*
X933957Y3552444D01*
X929386Y3575304D01*
X920242Y3588765D01*
X906526Y3593337D01*
X897636Y3593337D01*
X723900Y3339337D02*
G01*
X723900Y3243834D01*
X723900Y3339337D02*
G01*
X764794Y3339337D01*
X778510Y3334765D01*
X783081Y3330194D01*
X787654Y3321304D01*
X787654Y3312160D01*
X783081Y3303015D01*
X778510Y3298444D01*
X764794Y3293871D01*
X723900Y3293871D01*
X755650Y3293871D02*
G01*
X787654Y3243834D01*
X817626Y3321304D02*
G01*
X826515Y3325876D01*
X840231Y3339337D01*
X840231Y3243834D01*
X870204Y3321304D02*
G01*
X879347Y3325876D01*
X893063Y3339337D01*
X893063Y3243834D01*
X723900Y3085337D02*
G01*
X723900Y2989834D01*
X723900Y3085337D02*
G01*
X764794Y3085337D01*
X778510Y3080765D01*
X783081Y3076194D01*
X787654Y3067304D01*
X787654Y3058160D01*
X783081Y3049015D01*
X778510Y3044444D01*
X764794Y3039871D01*
X723900Y3039871D01*
X755650Y3039871D02*
G01*
X787654Y2989834D01*
X817626Y3067304D02*
G01*
X826515Y3071876D01*
X840231Y3085337D01*
X840231Y2989834D01*
X874776Y3062731D02*
G01*
X874776Y3067304D01*
X879347Y3076194D01*
X883920Y3080765D01*
X893063Y3085337D01*
X911097Y3085337D01*
X920242Y3080765D01*
X924813Y3076194D01*
X929386Y3067304D01*
X929386Y3058160D01*
X924813Y3049015D01*
X915670Y3035300D01*
X870204Y2989834D01*
X933957Y2989834D01*
X723900Y2831337D02*
G01*
X723900Y2735834D01*
X723900Y2831337D02*
G01*
X764794Y2831337D01*
X778510Y2826765D01*
X783081Y2822194D01*
X787654Y2813304D01*
X787654Y2804160D01*
X783081Y2795015D01*
X778510Y2790444D01*
X764794Y2785871D01*
X723900Y2785871D01*
X755650Y2785871D02*
G01*
X787654Y2735834D01*
X817626Y2813304D02*
G01*
X826515Y2817876D01*
X840231Y2831337D01*
X840231Y2735834D01*
X879347Y2831337D02*
G01*
X929386Y2831337D01*
X902207Y2795015D01*
X915670Y2795015D01*
X924813Y2790444D01*
X929386Y2785871D01*
X933957Y2772410D01*
X933957Y2763265D01*
X929386Y2749550D01*
X920242Y2740405D01*
X906526Y2735834D01*
X893063Y2735834D01*
X879347Y2740405D01*
X874776Y2744978D01*
X870204Y2754121D01*
X723900Y2577337D02*
G01*
X723900Y2481834D01*
X723900Y2577337D02*
G01*
X764794Y2577337D01*
X778510Y2572765D01*
X783081Y2568194D01*
X787654Y2559304D01*
X787654Y2550160D01*
X783081Y2541015D01*
X778510Y2536444D01*
X764794Y2531871D01*
X723900Y2531871D01*
X755650Y2531871D02*
G01*
X787654Y2481834D01*
X817626Y2559304D02*
G01*
X826515Y2563876D01*
X840231Y2577337D01*
X840231Y2481834D01*
X915670Y2577337D02*
G01*
X870204Y2513837D01*
X938529Y2513837D01*
X915670Y2577337D02*
G01*
X915670Y2481834D01*
X723900Y2323337D02*
G01*
X723900Y2227834D01*
X723900Y2323337D02*
G01*
X764794Y2323337D01*
X778510Y2318765D01*
X783081Y2314194D01*
X787654Y2305304D01*
X787654Y2296160D01*
X783081Y2287015D01*
X778510Y2282444D01*
X764794Y2277871D01*
X723900Y2277871D01*
X755650Y2277871D02*
G01*
X787654Y2227834D01*
X817626Y2305304D02*
G01*
X826515Y2309876D01*
X840231Y2323337D01*
X840231Y2227834D01*
X924813Y2323337D02*
G01*
X879347Y2323337D01*
X874776Y2282444D01*
X879347Y2287015D01*
X893063Y2291587D01*
X906526Y2291587D01*
X920242Y2287015D01*
X929386Y2277871D01*
X933957Y2264410D01*
X933957Y2255265D01*
X929386Y2241550D01*
X920242Y2232405D01*
X906526Y2227834D01*
X893063Y2227834D01*
X879347Y2232405D01*
X874776Y2236978D01*
X870204Y2246121D01*
X723900Y2069337D02*
G01*
X723900Y1973834D01*
X723900Y2069337D02*
G01*
X764794Y2069337D01*
X778510Y2064765D01*
X783081Y2060194D01*
X787654Y2051304D01*
X787654Y2042160D01*
X783081Y2033015D01*
X778510Y2028444D01*
X764794Y2023871D01*
X723900Y2023871D01*
X755650Y2023871D02*
G01*
X787654Y1973834D01*
X817626Y2051304D02*
G01*
X826515Y2055876D01*
X840231Y2069337D01*
X840231Y1973834D01*
X924813Y2055876D02*
G01*
X920242Y2064765D01*
X906526Y2069337D01*
X897636Y2069337D01*
X883920Y2064765D01*
X874776Y2051304D01*
X870204Y2028444D01*
X870204Y2005837D01*
X874776Y1987550D01*
X883920Y1978405D01*
X897636Y1973834D01*
X902207Y1973834D01*
X915670Y1978405D01*
X924813Y1987550D01*
X929386Y2001265D01*
X929386Y2005837D01*
X924813Y2019300D01*
X915670Y2028444D01*
X902207Y2033015D01*
X897636Y2033015D01*
X883920Y2028444D01*
X874776Y2019300D01*
X870204Y2005837D01*
X3352800Y4990337D02*
G01*
X3352800Y4894834D01*
X3352800Y4990337D02*
G01*
X3393693Y4990337D01*
X3407409Y4985765D01*
X3411981Y4981194D01*
X3416554Y4972304D01*
X3416554Y4963160D01*
X3411981Y4954015D01*
X3407409Y4949444D01*
X3393693Y4944871D01*
X3352800Y4944871D01*
X3384550Y4944871D02*
G01*
X3416554Y4894834D01*
X3500881Y4976876D02*
G01*
X3496309Y4985765D01*
X3482847Y4990337D01*
X3473704Y4990337D01*
X3459988Y4985765D01*
X3451097Y4972304D01*
X3446525Y4949444D01*
X3446525Y4926837D01*
X3451097Y4908550D01*
X3459988Y4899405D01*
X3473704Y4894834D01*
X3478275Y4894834D01*
X3491991Y4899405D01*
X3500881Y4908550D01*
X3505454Y4922265D01*
X3505454Y4926837D01*
X3500881Y4940300D01*
X3491991Y4949444D01*
X3478275Y4954015D01*
X3473704Y4954015D01*
X3459988Y4949444D01*
X3451097Y4940300D01*
X3446525Y4926837D01*
X3098800Y4990337D02*
G01*
X3098800Y4894834D01*
X3098800Y4990337D02*
G01*
X3139693Y4990337D01*
X3153409Y4985765D01*
X3157981Y4981194D01*
X3162554Y4972304D01*
X3162554Y4963160D01*
X3157981Y4954015D01*
X3153409Y4949444D01*
X3139693Y4944871D01*
X3098800Y4944871D01*
X3130550Y4944871D02*
G01*
X3162554Y4894834D01*
X3246881Y4990337D02*
G01*
X3201415Y4990337D01*
X3197097Y4949444D01*
X3201415Y4954015D01*
X3215131Y4958587D01*
X3228847Y4958587D01*
X3242309Y4954015D01*
X3251454Y4944871D01*
X3256025Y4931410D01*
X3256025Y4922265D01*
X3251454Y4908550D01*
X3242309Y4899405D01*
X3228847Y4894834D01*
X3215131Y4894834D01*
X3201415Y4899405D01*
X3197097Y4903978D01*
X3192525Y4913121D01*
X535178Y2437637D02*
G01*
X526287Y2433065D01*
X517144Y2424176D01*
X512571Y2415031D01*
X508000Y2401315D01*
X508000Y2378710D01*
X512571Y2364994D01*
X517144Y2355850D01*
X526287Y2346705D01*
X535178Y2342134D01*
X553465Y2342134D01*
X562610Y2346705D01*
X571754Y2355850D01*
X576071Y2364994D01*
X580644Y2378710D01*
X580644Y2401315D01*
X576071Y2415031D01*
X571754Y2424176D01*
X562610Y2433065D01*
X553465Y2437637D01*
X535178Y2437637D01*
X548894Y2360421D02*
G01*
X576071Y2333244D01*
X674370Y2437637D02*
G01*
X628904Y2342134D01*
X610615Y2437637D02*
G01*
X674370Y2437637D01*
X3606800Y4990337D02*
G01*
X3606800Y4894834D01*
X3606800Y4990337D02*
G01*
X3647693Y4990337D01*
X3661409Y4985765D01*
X3665981Y4981194D01*
X3670554Y4972304D01*
X3670554Y4963160D01*
X3665981Y4954015D01*
X3661409Y4949444D01*
X3647693Y4944871D01*
X3606800Y4944871D01*
X3638550Y4944871D02*
G01*
X3670554Y4894834D01*
X3764025Y4990337D02*
G01*
X3718559Y4894834D01*
X3700525Y4990337D02*
G01*
X3764025Y4990337D01*
X3860800Y4990337D02*
G01*
X3860800Y4894834D01*
X3860800Y4990337D02*
G01*
X3901693Y4990337D01*
X3915409Y4985765D01*
X3919981Y4981194D01*
X3924554Y4972304D01*
X3924554Y4963160D01*
X3919981Y4954015D01*
X3915409Y4949444D01*
X3901693Y4944871D01*
X3860800Y4944871D01*
X3892550Y4944871D02*
G01*
X3924554Y4894834D01*
X3977131Y4990337D02*
G01*
X3963415Y4985765D01*
X3959097Y4976876D01*
X3959097Y4967731D01*
X3963415Y4958587D01*
X3972559Y4954015D01*
X3990847Y4949444D01*
X4004309Y4944871D01*
X4013454Y4935981D01*
X4018025Y4926837D01*
X4018025Y4913121D01*
X4013454Y4903978D01*
X4008881Y4899405D01*
X3995420Y4894834D01*
X3977131Y4894834D01*
X3963415Y4899405D01*
X3959097Y4903978D01*
X3954525Y4913121D01*
X3954525Y4926837D01*
X3959097Y4935981D01*
X3967988Y4944871D01*
X3981704Y4949444D01*
X3999991Y4954015D01*
X4008881Y4958587D01*
X4013454Y4967731D01*
X4013454Y4976876D01*
X4008881Y4985765D01*
X3995420Y4990337D01*
X3977131Y4990337D01*
X217678Y2183637D02*
G01*
X208787Y2179065D01*
X199644Y2170176D01*
X195071Y2161031D01*
X190500Y2147315D01*
X190500Y2124710D01*
X195071Y2110994D01*
X199644Y2101850D01*
X208787Y2092705D01*
X217678Y2088134D01*
X235965Y2088134D01*
X245110Y2092705D01*
X254254Y2101850D01*
X258571Y2110994D01*
X263144Y2124710D01*
X263144Y2147315D01*
X258571Y2161031D01*
X254254Y2170176D01*
X245110Y2179065D01*
X235965Y2183637D01*
X217678Y2183637D01*
X231394Y2106421D02*
G01*
X258571Y2079244D01*
X315976Y2183637D02*
G01*
X302260Y2179065D01*
X297687Y2170176D01*
X297687Y2161031D01*
X302260Y2151887D01*
X311404Y2147315D01*
X329692Y2142744D01*
X343154Y2138171D01*
X352297Y2129281D01*
X356870Y2120137D01*
X356870Y2106421D01*
X352297Y2097278D01*
X347726Y2092705D01*
X334010Y2088134D01*
X315976Y2088134D01*
X302260Y2092705D01*
X297687Y2097278D01*
X293115Y2106421D01*
X293115Y2120137D01*
X297687Y2129281D01*
X306831Y2138171D01*
X320547Y2142744D01*
X338581Y2147315D01*
X347726Y2151887D01*
X352297Y2161031D01*
X352297Y2170176D01*
X347726Y2179065D01*
X334010Y2183637D01*
X315976Y2183637D01*
X193530Y2260379D02*
G01*
X365269Y2260379D01*
X365269Y2363541D01*
X193530Y2565620D02*
G01*
X365269Y2565620D01*
X365269Y2462458D01*
X193530Y2367460D02*
G01*
X193530Y2458539D01*
X511030Y2514379D02*
G01*
X682769Y2514379D01*
X682769Y2617541D01*
X511030Y2819620D02*
G01*
X682769Y2819620D01*
X682769Y2716458D01*
X511030Y2621460D02*
G01*
X511030Y2712539D01*
X193530Y2768379D02*
G01*
X365269Y2768379D01*
X365269Y2871541D01*
X193530Y3073620D02*
G01*
X365269Y3073620D01*
X365269Y2970458D01*
X193530Y2875460D02*
G01*
X193530Y2966539D01*
D11*
X2847091Y4866761D02*
G01*
X3007095Y4866761D01*
X2847601Y4556704D02*
G01*
X3007606Y4556704D01*
X3007095Y4741765D02*
G01*
X3007095Y4866761D01*
X2847091Y4741765D02*
G01*
X2847091Y4866761D01*
X3007606Y4681707D02*
G01*
X3007606Y4556704D01*
X2847601Y4681707D02*
G01*
X2847601Y4556704D01*
X2593091Y4866761D02*
G01*
X2753095Y4866761D01*
X2593601Y4556704D02*
G01*
X2753606Y4556704D01*
X2753095Y4741765D02*
G01*
X2753095Y4866761D01*
X2593091Y4741765D02*
G01*
X2593091Y4866761D01*
X2753606Y4681707D02*
G01*
X2753606Y4556704D01*
X2593601Y4681707D02*
G01*
X2593601Y4556704D01*
D10*
X511030Y3022379D02*
G01*
X682769Y3022379D01*
X682769Y3125541D01*
X511030Y3327620D02*
G01*
X682769Y3327620D01*
X682769Y3224458D01*
X511030Y3129460D02*
G01*
X511030Y3220539D01*
D11*
X2085091Y4866761D02*
G01*
X2245095Y4866761D01*
X2085601Y4556704D02*
G01*
X2245606Y4556704D01*
X2245095Y4741765D02*
G01*
X2245095Y4866761D01*
X2085091Y4741765D02*
G01*
X2085091Y4866761D01*
X2245606Y4681707D02*
G01*
X2245606Y4556704D01*
X2085601Y4681707D02*
G01*
X2085601Y4556704D01*
X2339091Y4866761D02*
G01*
X2499095Y4866761D01*
X2339601Y4556704D02*
G01*
X2499606Y4556704D01*
X2499095Y4741765D02*
G01*
X2499095Y4866761D01*
X2339091Y4741765D02*
G01*
X2339091Y4866761D01*
X2499606Y4681707D02*
G01*
X2499606Y4556704D01*
X2339601Y4681707D02*
G01*
X2339601Y4556704D01*
D10*
X511030Y3530379D02*
G01*
X682769Y3530379D01*
X682769Y3633541D01*
X511030Y3835620D02*
G01*
X682769Y3835620D01*
X682769Y3732458D01*
X511030Y3637460D02*
G01*
X511030Y3728539D01*
X193530Y3276379D02*
G01*
X365269Y3276379D01*
X365269Y3379541D01*
X193530Y3581620D02*
G01*
X365269Y3581620D01*
X365269Y3478458D01*
X193530Y3383460D02*
G01*
X193530Y3474539D01*
D11*
X975238Y3729487D02*
G01*
X975238Y3889491D01*
X1285295Y3729997D02*
G01*
X1285295Y3890002D01*
X1100234Y3889491D02*
G01*
X975238Y3889491D01*
X1100234Y3729487D02*
G01*
X975238Y3729487D01*
X1160292Y3890002D02*
G01*
X1285295Y3890002D01*
X1160292Y3729997D02*
G01*
X1285295Y3729997D01*
X975238Y3475487D02*
G01*
X975238Y3635491D01*
X1285295Y3475997D02*
G01*
X1285295Y3636002D01*
X1100234Y3635491D02*
G01*
X975238Y3635491D01*
X1100234Y3475487D02*
G01*
X975238Y3475487D01*
X1160292Y3636002D02*
G01*
X1285295Y3636002D01*
X1160292Y3475997D02*
G01*
X1285295Y3475997D01*
X975238Y3221487D02*
G01*
X975238Y3381491D01*
X1285295Y3221997D02*
G01*
X1285295Y3382002D01*
X1100234Y3381491D02*
G01*
X975238Y3381491D01*
X1100234Y3221487D02*
G01*
X975238Y3221487D01*
X1160292Y3382002D02*
G01*
X1285295Y3382002D01*
X1160292Y3221997D02*
G01*
X1285295Y3221997D01*
X975238Y2967487D02*
G01*
X975238Y3127491D01*
X1285295Y2967997D02*
G01*
X1285295Y3128002D01*
X1100234Y3127491D02*
G01*
X975238Y3127491D01*
X1100234Y2967487D02*
G01*
X975238Y2967487D01*
X1160292Y3128002D02*
G01*
X1285295Y3128002D01*
X1160292Y2967997D02*
G01*
X1285295Y2967997D01*
X975238Y2713487D02*
G01*
X975238Y2873491D01*
X1285295Y2713997D02*
G01*
X1285295Y2874002D01*
X1100234Y2873491D02*
G01*
X975238Y2873491D01*
X1100234Y2713487D02*
G01*
X975238Y2713487D01*
X1160292Y2874002D02*
G01*
X1285295Y2874002D01*
X1160292Y2713997D02*
G01*
X1285295Y2713997D01*
X975238Y2459487D02*
G01*
X975238Y2619491D01*
X1285295Y2459997D02*
G01*
X1285295Y2620002D01*
X1100234Y2619491D02*
G01*
X975238Y2619491D01*
X1100234Y2459487D02*
G01*
X975238Y2459487D01*
X1160292Y2620002D02*
G01*
X1285295Y2620002D01*
X1160292Y2459997D02*
G01*
X1285295Y2459997D01*
X975238Y2205487D02*
G01*
X975238Y2365491D01*
X1285295Y2205997D02*
G01*
X1285295Y2366002D01*
X1100234Y2365491D02*
G01*
X975238Y2365491D01*
X1100234Y2205487D02*
G01*
X975238Y2205487D01*
X1160292Y2366002D02*
G01*
X1285295Y2366002D01*
X1160292Y2205997D02*
G01*
X1285295Y2205997D01*
X975238Y1951487D02*
G01*
X975238Y2111491D01*
X1285295Y1951997D02*
G01*
X1285295Y2112002D01*
X1100234Y2111491D02*
G01*
X975238Y2111491D01*
X1100234Y1951487D02*
G01*
X975238Y1951487D01*
X1160292Y2112002D02*
G01*
X1285295Y2112002D01*
X1160292Y1951997D02*
G01*
X1285295Y1951997D01*
X3355091Y4866761D02*
G01*
X3515095Y4866761D01*
X3355601Y4556704D02*
G01*
X3515606Y4556704D01*
X3515095Y4741765D02*
G01*
X3515095Y4866761D01*
X3355091Y4741765D02*
G01*
X3355091Y4866761D01*
X3515606Y4681707D02*
G01*
X3515606Y4556704D01*
X3355601Y4681707D02*
G01*
X3355601Y4556704D01*
X3101091Y4866761D02*
G01*
X3261095Y4866761D01*
X3101601Y4556704D02*
G01*
X3261606Y4556704D01*
X3261095Y4741765D02*
G01*
X3261095Y4866761D01*
X3101091Y4741765D02*
G01*
X3101091Y4866761D01*
X3261606Y4681707D02*
G01*
X3261606Y4556704D01*
X3101601Y4681707D02*
G01*
X3101601Y4556704D01*
D10*
X511030Y2006379D02*
G01*
X682769Y2006379D01*
X682769Y2109541D01*
X511030Y2311620D02*
G01*
X682769Y2311620D01*
X682769Y2208458D01*
X511030Y2113460D02*
G01*
X511030Y2204539D01*
D11*
X3609091Y4866761D02*
G01*
X3769095Y4866761D01*
X3609601Y4556704D02*
G01*
X3769606Y4556704D01*
X3769095Y4741765D02*
G01*
X3769095Y4866761D01*
X3609091Y4741765D02*
G01*
X3609091Y4866761D01*
X3769606Y4681707D02*
G01*
X3769606Y4556704D01*
X3609601Y4681707D02*
G01*
X3609601Y4556704D01*
X3863091Y4866761D02*
G01*
X4023095Y4866761D01*
X3863601Y4556704D02*
G01*
X4023606Y4556704D01*
X4023095Y4741765D02*
G01*
X4023095Y4866761D01*
X3863091Y4741765D02*
G01*
X3863091Y4866761D01*
X4023606Y4681707D02*
G01*
X4023606Y4556704D01*
X3863601Y4681707D02*
G01*
X3863601Y4556704D01*
D10*
X193530Y1752379D02*
G01*
X365269Y1752379D01*
X365269Y1855541D01*
X193530Y2057620D02*
G01*
X365269Y2057620D01*
X365269Y1954458D01*
X193530Y1859460D02*
G01*
X193530Y1950539D01*
D11*
X1493393Y1088999D02*
G01*
X4343400Y1088999D01*
X4343400Y238988D01*
X1493393Y238988D01*
X1493393Y1088999D01*
X4756581Y4340605D02*
G01*
X5606592Y4340605D01*
X5606592Y1490598D01*
X4756581Y1490598D01*
X4756581Y4340605D01*
X1321003Y4520996D02*
G01*
X4520996Y4520996D01*
X4520996Y1321003D01*
X1321003Y1321003D01*
X1321003Y4520996D01*
X4445000Y5715000D02*
G01*
X4699000Y5715000D01*
X4699000Y5207000D01*
X4445000Y5207000D01*
X4445000Y5715000D01*
M02*
