G04 Layer: TopPasteMaskLayer*
G04 Panelize: , Column: 2, Row: 2, Board Size: 58.42mm x 58.42mm, Panelized Board Size: 118.84mm x 118.84mm*
G04 EasyEDA v6.5.34, 2023-10-07 22:52:34*
G04 b7e43a5b2ceb43bf805b1727b84d9839,5a6b42c53f6a479593ecc07194224c93,10*
G04 Gerber Generator version 0.2*
G04 Scale: 100 percent, Rotated: No, Reflected: No *
G04 Dimensions in millimeters *
G04 leading zeros omitted , absolute positions ,4 integer and 5 decimal *
%FSLAX45Y45*%
%MOMM*%

%AMMACRO1*21,1,$1,$2,0,0,$3*%
%ADD10R,1.5200X1.7800*%
%ADD11MACRO1,2.241X2.0475X0.0000*%
%ADD12R,0.8000X0.8000*%
%ADD13R,0.8000X0.9000*%
%ADD14O,0.5739892X2.0379944*%
%ADD15O,0.0119X2.0379944*%

%LPD*%
G36*
X3823868Y1715922D02*
G01*
X3813860Y1705914D01*
X3813860Y1605127D01*
X3823868Y1595170D01*
X3973931Y1595170D01*
X3983939Y1605127D01*
X3983939Y1705914D01*
X3973931Y1715922D01*
X3937812Y1715922D01*
X3927805Y1705914D01*
X3927805Y1684832D01*
X3917797Y1674825D01*
X3880002Y1674825D01*
X3869994Y1684832D01*
X3869994Y1705914D01*
X3859987Y1715922D01*
G37*
G36*
X3823868Y2011629D02*
G01*
X3813860Y2001672D01*
X3813860Y1900885D01*
X3823868Y1890877D01*
X3859987Y1890877D01*
X3869994Y1900885D01*
X3869994Y1921967D01*
X3880002Y1931974D01*
X3917797Y1931974D01*
X3927805Y1921967D01*
X3927805Y1900885D01*
X3937812Y1890877D01*
X3973931Y1890877D01*
X3983939Y1900885D01*
X3983939Y2001672D01*
X3973931Y2011629D01*
G37*
G36*
X3569868Y1715922D02*
G01*
X3559860Y1705914D01*
X3559860Y1605127D01*
X3569868Y1595170D01*
X3719931Y1595170D01*
X3729939Y1605127D01*
X3729939Y1705914D01*
X3719931Y1715922D01*
X3683812Y1715922D01*
X3673805Y1705914D01*
X3673805Y1684832D01*
X3663797Y1674825D01*
X3626002Y1674825D01*
X3615994Y1684832D01*
X3615994Y1705914D01*
X3605987Y1715922D01*
G37*
G36*
X3569868Y2011629D02*
G01*
X3559860Y2001672D01*
X3559860Y1900885D01*
X3569868Y1890877D01*
X3605987Y1890877D01*
X3615994Y1900885D01*
X3615994Y1921967D01*
X3626002Y1931974D01*
X3663797Y1931974D01*
X3673805Y1921967D01*
X3673805Y1900885D01*
X3683812Y1890877D01*
X3719931Y1890877D01*
X3729939Y1900885D01*
X3729939Y2001672D01*
X3719931Y2011629D01*
G37*
G36*
X3315868Y1715922D02*
G01*
X3305860Y1705914D01*
X3305860Y1605127D01*
X3315868Y1595170D01*
X3465931Y1595170D01*
X3475939Y1605127D01*
X3475939Y1705914D01*
X3465931Y1715922D01*
X3429812Y1715922D01*
X3419805Y1705914D01*
X3419805Y1684832D01*
X3409797Y1674825D01*
X3372002Y1674825D01*
X3361994Y1684832D01*
X3361994Y1705914D01*
X3351987Y1715922D01*
G37*
G36*
X3315868Y2011629D02*
G01*
X3305860Y2001672D01*
X3305860Y1900885D01*
X3315868Y1890877D01*
X3351987Y1890877D01*
X3361994Y1900885D01*
X3361994Y1921967D01*
X3372002Y1931974D01*
X3409797Y1931974D01*
X3419805Y1921967D01*
X3419805Y1900885D01*
X3429812Y1890877D01*
X3465931Y1890877D01*
X3475939Y1900885D01*
X3475939Y2001672D01*
X3465931Y2011629D01*
G37*
G36*
X3061868Y1715922D02*
G01*
X3051860Y1705914D01*
X3051860Y1605127D01*
X3061868Y1595170D01*
X3211931Y1595170D01*
X3221939Y1605127D01*
X3221939Y1705914D01*
X3211931Y1715922D01*
X3175812Y1715922D01*
X3165805Y1705914D01*
X3165805Y1684832D01*
X3155797Y1674825D01*
X3118002Y1674825D01*
X3107994Y1684832D01*
X3107994Y1705914D01*
X3097987Y1715922D01*
G37*
G36*
X3061868Y2011629D02*
G01*
X3051860Y2001672D01*
X3051860Y1900885D01*
X3061868Y1890877D01*
X3097987Y1890877D01*
X3107994Y1900885D01*
X3107994Y1921967D01*
X3118002Y1931974D01*
X3155797Y1931974D01*
X3165805Y1921967D01*
X3165805Y1900885D01*
X3175812Y1890877D01*
X3211931Y1890877D01*
X3221939Y1900885D01*
X3221939Y2001672D01*
X3211931Y2011629D01*
G37*
G36*
X2045868Y1715922D02*
G01*
X2035860Y1705914D01*
X2035860Y1605127D01*
X2045868Y1595170D01*
X2195931Y1595170D01*
X2205939Y1605127D01*
X2205939Y1705914D01*
X2195931Y1715922D01*
X2159812Y1715922D01*
X2149805Y1705914D01*
X2149805Y1684832D01*
X2139797Y1674825D01*
X2102002Y1674825D01*
X2091994Y1684832D01*
X2091994Y1705914D01*
X2081987Y1715922D01*
G37*
G36*
X2045868Y2011629D02*
G01*
X2035860Y2001672D01*
X2035860Y1900885D01*
X2045868Y1890877D01*
X2081987Y1890877D01*
X2091994Y1900885D01*
X2091994Y1921967D01*
X2102002Y1931974D01*
X2139797Y1931974D01*
X2149805Y1921967D01*
X2149805Y1900885D01*
X2159812Y1890877D01*
X2195931Y1890877D01*
X2205939Y1900885D01*
X2205939Y2001672D01*
X2195931Y2011629D01*
G37*
G36*
X2299868Y1715922D02*
G01*
X2289860Y1705914D01*
X2289860Y1605127D01*
X2299868Y1595170D01*
X2449931Y1595170D01*
X2459939Y1605127D01*
X2459939Y1705914D01*
X2449931Y1715922D01*
X2413812Y1715922D01*
X2403805Y1705914D01*
X2403805Y1684832D01*
X2393797Y1674825D01*
X2356002Y1674825D01*
X2345994Y1684832D01*
X2345994Y1705914D01*
X2335987Y1715922D01*
G37*
G36*
X2299868Y2011629D02*
G01*
X2289860Y2001672D01*
X2289860Y1900885D01*
X2299868Y1890877D01*
X2335987Y1890877D01*
X2345994Y1900885D01*
X2345994Y1921967D01*
X2356002Y1931974D01*
X2393797Y1931974D01*
X2403805Y1921967D01*
X2403805Y1900885D01*
X2413812Y1890877D01*
X2449931Y1890877D01*
X2459939Y1900885D01*
X2459939Y2001672D01*
X2449931Y2011629D01*
G37*
G36*
X2553868Y1715922D02*
G01*
X2543860Y1705914D01*
X2543860Y1605127D01*
X2553868Y1595170D01*
X2703931Y1595170D01*
X2713939Y1605127D01*
X2713939Y1705914D01*
X2703931Y1715922D01*
X2667812Y1715922D01*
X2657805Y1705914D01*
X2657805Y1684832D01*
X2647797Y1674825D01*
X2610002Y1674825D01*
X2599994Y1684832D01*
X2599994Y1705914D01*
X2589987Y1715922D01*
G37*
G36*
X2553868Y2011629D02*
G01*
X2543860Y2001672D01*
X2543860Y1900885D01*
X2553868Y1890877D01*
X2589987Y1890877D01*
X2599994Y1900885D01*
X2599994Y1921967D01*
X2610002Y1931974D01*
X2647797Y1931974D01*
X2657805Y1921967D01*
X2657805Y1900885D01*
X2667812Y1890877D01*
X2703931Y1890877D01*
X2713939Y1900885D01*
X2713939Y2001672D01*
X2703931Y2011629D01*
G37*
G36*
X2807868Y1715922D02*
G01*
X2797860Y1705914D01*
X2797860Y1605127D01*
X2807868Y1595170D01*
X2957931Y1595170D01*
X2967939Y1605127D01*
X2967939Y1705914D01*
X2957931Y1715922D01*
X2921812Y1715922D01*
X2911805Y1705914D01*
X2911805Y1684832D01*
X2901797Y1674825D01*
X2864002Y1674825D01*
X2853994Y1684832D01*
X2853994Y1705914D01*
X2843987Y1715922D01*
G37*
G36*
X2807868Y2011629D02*
G01*
X2797860Y2001672D01*
X2797860Y1900885D01*
X2807868Y1890877D01*
X2843987Y1890877D01*
X2853994Y1900885D01*
X2853994Y1921967D01*
X2864002Y1931974D01*
X2901797Y1931974D01*
X2911805Y1921967D01*
X2911805Y1900885D01*
X2921812Y1890877D01*
X2957931Y1890877D01*
X2967939Y1900885D01*
X2967939Y2001672D01*
X2957931Y2011629D01*
G37*
G36*
X1792122Y1099108D02*
G01*
X1787093Y1094079D01*
X1787093Y1071321D01*
X1824126Y1071321D01*
X1824126Y1038301D01*
X1787093Y1038301D01*
X1787093Y1014120D01*
X1792122Y1009091D01*
X1872081Y1009091D01*
X1877110Y1014120D01*
X1877110Y1094079D01*
X1872081Y1099108D01*
G37*
G36*
X1633118Y1099108D02*
G01*
X1628089Y1094079D01*
X1628089Y1014120D01*
X1633118Y1009091D01*
X1712112Y1009091D01*
X1717090Y1014120D01*
X1717090Y1038301D01*
X1679092Y1038301D01*
X1679092Y1071321D01*
X1717090Y1071321D01*
X1717090Y1094079D01*
X1712112Y1099108D01*
G37*
G36*
X1792122Y946708D02*
G01*
X1787093Y941679D01*
X1787093Y918921D01*
X1824126Y918921D01*
X1824126Y885901D01*
X1787093Y885901D01*
X1787093Y861720D01*
X1792122Y856691D01*
X1872081Y856691D01*
X1877110Y861720D01*
X1877110Y941679D01*
X1872081Y946708D01*
G37*
G36*
X1633118Y946708D02*
G01*
X1628089Y941679D01*
X1628089Y861720D01*
X1633118Y856691D01*
X1712112Y856691D01*
X1717090Y861720D01*
X1717090Y885901D01*
X1679092Y885901D01*
X1679092Y918921D01*
X1717090Y918921D01*
X1717090Y941679D01*
X1712112Y946708D01*
G37*
G36*
X1792122Y794308D02*
G01*
X1787093Y789279D01*
X1787093Y766521D01*
X1824126Y766521D01*
X1824126Y733501D01*
X1787093Y733501D01*
X1787093Y709320D01*
X1792122Y704291D01*
X1872081Y704291D01*
X1877110Y709320D01*
X1877110Y789279D01*
X1872081Y794308D01*
G37*
G36*
X1633118Y794308D02*
G01*
X1628089Y789279D01*
X1628089Y709320D01*
X1633118Y704291D01*
X1712112Y704291D01*
X1717090Y709320D01*
X1717090Y733501D01*
X1679092Y733501D01*
X1679092Y766521D01*
X1717090Y766521D01*
X1717090Y789279D01*
X1712112Y794308D01*
G37*
G36*
X1792122Y641908D02*
G01*
X1787093Y636879D01*
X1787093Y614121D01*
X1824126Y614121D01*
X1824126Y581101D01*
X1787093Y581101D01*
X1787093Y556920D01*
X1792122Y551891D01*
X1872081Y551891D01*
X1877110Y556920D01*
X1877110Y636879D01*
X1872081Y641908D01*
G37*
G36*
X1633118Y641908D02*
G01*
X1628089Y636879D01*
X1628089Y556920D01*
X1633118Y551891D01*
X1712112Y551891D01*
X1717090Y556920D01*
X1717090Y581101D01*
X1679092Y581101D01*
X1679092Y614121D01*
X1717090Y614121D01*
X1717090Y636879D01*
X1712112Y641908D01*
G37*
G36*
X3731920Y4429810D02*
G01*
X3726891Y4424781D01*
X3726891Y4344822D01*
X3731920Y4339793D01*
X3754678Y4339793D01*
X3754678Y4376826D01*
X3787698Y4376826D01*
X3787698Y4339793D01*
X3811879Y4339793D01*
X3816908Y4344822D01*
X3816908Y4424781D01*
X3811879Y4429810D01*
G37*
G36*
X3731920Y4269790D02*
G01*
X3726891Y4264812D01*
X3726891Y4185818D01*
X3731920Y4180789D01*
X3811879Y4180789D01*
X3816908Y4185818D01*
X3816908Y4264812D01*
X3811879Y4269790D01*
X3787698Y4269790D01*
X3787698Y4231792D01*
X3754678Y4231792D01*
X3754678Y4269790D01*
G37*
G36*
X3223920Y4429810D02*
G01*
X3218891Y4424781D01*
X3218891Y4344822D01*
X3223920Y4339793D01*
X3246678Y4339793D01*
X3246678Y4376826D01*
X3279698Y4376826D01*
X3279698Y4339793D01*
X3303879Y4339793D01*
X3308908Y4344822D01*
X3308908Y4424781D01*
X3303879Y4429810D01*
G37*
G36*
X3223920Y4269790D02*
G01*
X3218891Y4264812D01*
X3218891Y4185818D01*
X3223920Y4180789D01*
X3303879Y4180789D01*
X3308908Y4185818D01*
X3308908Y4264812D01*
X3303879Y4269790D01*
X3279698Y4269790D01*
X3279698Y4231792D01*
X3246678Y4231792D01*
X3246678Y4269790D01*
G37*
G36*
X2715920Y4429810D02*
G01*
X2710891Y4424781D01*
X2710891Y4344822D01*
X2715920Y4339793D01*
X2738678Y4339793D01*
X2738678Y4376826D01*
X2771698Y4376826D01*
X2771698Y4339793D01*
X2795879Y4339793D01*
X2800908Y4344822D01*
X2800908Y4424781D01*
X2795879Y4429810D01*
G37*
G36*
X2715920Y4269790D02*
G01*
X2710891Y4264812D01*
X2710891Y4185818D01*
X2715920Y4180789D01*
X2795879Y4180789D01*
X2800908Y4185818D01*
X2800908Y4264812D01*
X2795879Y4269790D01*
X2771698Y4269790D01*
X2771698Y4231792D01*
X2738678Y4231792D01*
X2738678Y4269790D01*
G37*
G36*
X2207920Y4429810D02*
G01*
X2202891Y4424781D01*
X2202891Y4344822D01*
X2207920Y4339793D01*
X2230678Y4339793D01*
X2230678Y4376826D01*
X2263698Y4376826D01*
X2263698Y4339793D01*
X2287879Y4339793D01*
X2292908Y4344822D01*
X2292908Y4424781D01*
X2287879Y4429810D01*
G37*
G36*
X2207920Y4269790D02*
G01*
X2202891Y4264812D01*
X2202891Y4185818D01*
X2207920Y4180789D01*
X2287879Y4180789D01*
X2292908Y4185818D01*
X2292908Y4264812D01*
X2287879Y4269790D01*
X2263698Y4269790D01*
X2263698Y4231792D01*
X2230678Y4231792D01*
X2230678Y4269790D01*
G37*
G36*
X4268622Y5315508D02*
G01*
X4263593Y5310479D01*
X4263593Y5287721D01*
X4300575Y5287721D01*
X4300575Y5254701D01*
X4263593Y5254701D01*
X4263593Y5230520D01*
X4268622Y5225491D01*
X4348581Y5225491D01*
X4353610Y5230520D01*
X4353610Y5310479D01*
X4348581Y5315508D01*
G37*
G36*
X4109618Y5315508D02*
G01*
X4104589Y5310479D01*
X4104589Y5230520D01*
X4109618Y5225491D01*
X4188612Y5225491D01*
X4193590Y5230520D01*
X4193590Y5254701D01*
X4155592Y5254701D01*
X4155592Y5287721D01*
X4193590Y5287721D01*
X4193590Y5310479D01*
X4188612Y5315508D01*
G37*
D10*
G01*
X2887218Y1231798D03*
G01*
X2633218Y1231798D03*
G01*
X2379218Y1231798D03*
G01*
X2125218Y1231798D03*
G01*
X3141218Y1231798D03*
G01*
X3395218Y1231798D03*
G01*
X3649218Y1231798D03*
G01*
X3903218Y1231798D03*
G01*
X3903218Y431800D03*
G01*
X3649218Y431800D03*
G01*
X3395218Y431800D03*
G01*
X3141218Y431800D03*
G01*
X2125218Y431800D03*
G01*
X2379218Y431800D03*
G01*
X2633218Y431800D03*
G01*
X2887218Y431800D03*
D11*
G01*
X3390900Y2306274D03*
G01*
X3390900Y2824525D03*
G01*
X2882900Y2306274D03*
G01*
X2882900Y2824525D03*
G01*
X2374900Y2306274D03*
G01*
X2374900Y2824525D03*
D12*
G01*
X3771900Y4575810D03*
G01*
X3771900Y4745989D03*
G01*
X3263900Y4575810D03*
G01*
X3263900Y4745989D03*
G01*
X2755900Y4575810D03*
G01*
X2755900Y4745989D03*
G01*
X2247900Y4575810D03*
G01*
X2247900Y4745989D03*
D13*
G01*
X5023002Y279400D03*
G01*
X4882997Y279400D03*
D14*
G01*
X5029200Y1089710D03*
G01*
X4902200Y1089710D03*
G01*
X4775200Y1089710D03*
G01*
X4648200Y1089710D03*
G01*
X4521200Y1089710D03*
G01*
X4394200Y1089710D03*
G01*
X4267200Y1089710D03*
G01*
X5029200Y535889D03*
G01*
X4902200Y535889D03*
G01*
X4775200Y535889D03*
G01*
X4648200Y535889D03*
G01*
X4521200Y535889D03*
G01*
X4394200Y535889D03*
G01*
X4267200Y535889D03*
D11*
G01*
X3898900Y2306274D03*
G01*
X3898900Y2824525D03*
D12*
G01*
X3958590Y5270500D03*
G01*
X3788409Y5270500D03*
M02*
