G04 Layer: TopSilkscreenLayer*
G04 EasyEDA v6.5.34, 2023-09-17 23:42:40*
G04 4de15a2352ea40a9a8a41922b0a97411,5a6b42c53f6a479593ecc07194224c93,10*
G04 Gerber Generator version 0.2*
G04 Scale: 100 percent, Rotated: No, Reflected: No *
G04 Dimensions in millimeters *
G04 leading zeros omitted , absolute positions ,4 integer and 5 decimal *
%FSLAX45Y45*%
%MOMM*%

%ADD10C,0.1524*%
%ADD11C,0.2540*%
%ADD12C,0.1270*%
%ADD13C,0.1500*%
%ADD14C,0.2000*%
%ADD15C,0.0185*%

%LPD*%
D10*
X761992Y5601759D02*
G01*
X761992Y5492539D01*
X761992Y5601759D02*
G01*
X808728Y5601759D01*
X824222Y5596425D01*
X829556Y5591345D01*
X834636Y5580931D01*
X834636Y5565437D01*
X829556Y5555023D01*
X824222Y5549689D01*
X808728Y5544609D01*
X761992Y5544609D01*
X868926Y5601759D02*
G01*
X868926Y5492539D01*
X868926Y5601759D02*
G01*
X915662Y5601759D01*
X931410Y5596425D01*
X936490Y5591345D01*
X941824Y5580931D01*
X941824Y5570517D01*
X936490Y5560103D01*
X931410Y5555023D01*
X915662Y5549689D01*
X868926Y5549689D01*
X905502Y5549689D02*
G01*
X941824Y5492539D01*
X1007102Y5601759D02*
G01*
X996942Y5596425D01*
X986528Y5586265D01*
X981194Y5575851D01*
X976114Y5560103D01*
X976114Y5534195D01*
X981194Y5518701D01*
X986528Y5508287D01*
X996942Y5497873D01*
X1007102Y5492539D01*
X1027930Y5492539D01*
X1038344Y5497873D01*
X1048758Y5508287D01*
X1054092Y5518701D01*
X1059172Y5534195D01*
X1059172Y5560103D01*
X1054092Y5575851D01*
X1048758Y5586265D01*
X1038344Y5596425D01*
X1027930Y5601759D01*
X1007102Y5601759D01*
X1129784Y5601759D02*
G01*
X1129784Y5492539D01*
X1093462Y5601759D02*
G01*
X1166106Y5601759D01*
X1231638Y5601759D02*
G01*
X1221224Y5596425D01*
X1210810Y5586265D01*
X1205730Y5575851D01*
X1200396Y5560103D01*
X1200396Y5534195D01*
X1205730Y5518701D01*
X1210810Y5508287D01*
X1221224Y5497873D01*
X1231638Y5492539D01*
X1252466Y5492539D01*
X1262880Y5497873D01*
X1273294Y5508287D01*
X1278374Y5518701D01*
X1283708Y5534195D01*
X1283708Y5560103D01*
X1278374Y5575851D01*
X1273294Y5586265D01*
X1262880Y5596425D01*
X1252466Y5601759D01*
X1231638Y5601759D01*
X1317998Y5601759D02*
G01*
X1317998Y5492539D01*
X1317998Y5601759D02*
G01*
X1390642Y5492539D01*
X1390642Y5601759D02*
G01*
X1390642Y5492539D01*
X1424932Y5601759D02*
G01*
X1424932Y5492539D01*
X1424932Y5601759D02*
G01*
X1492496Y5601759D01*
X1424932Y5549689D02*
G01*
X1466588Y5549689D01*
X1424932Y5492539D02*
G01*
X1492496Y5492539D01*
X1526786Y5601759D02*
G01*
X1526786Y5492539D01*
X1526786Y5601759D02*
G01*
X1568442Y5492539D01*
X1609844Y5601759D02*
G01*
X1568442Y5492539D01*
X1609844Y5601759D02*
G01*
X1609844Y5492539D01*
X1685790Y5601759D02*
G01*
X1644134Y5492539D01*
X1685790Y5601759D02*
G01*
X1727192Y5492539D01*
X1659882Y5529115D02*
G01*
X1711698Y5529115D01*
X1841492Y5601759D02*
G01*
X1841492Y5492539D01*
X1841492Y5601759D02*
G01*
X1888482Y5601759D01*
X1903976Y5596425D01*
X1909056Y5591345D01*
X1914390Y5580931D01*
X1914390Y5570517D01*
X1909056Y5560103D01*
X1903976Y5555023D01*
X1888482Y5549689D01*
X1841492Y5549689D01*
X1878068Y5549689D02*
G01*
X1914390Y5492539D01*
X1948680Y5601759D02*
G01*
X1948680Y5492539D01*
X1948680Y5601759D02*
G01*
X1995416Y5601759D01*
X2010910Y5596425D01*
X2016244Y5591345D01*
X2021324Y5580931D01*
X2021324Y5565437D01*
X2016244Y5555023D01*
X2010910Y5549689D01*
X1995416Y5544609D01*
X1948680Y5544609D01*
X2060948Y5575851D02*
G01*
X2060948Y5580931D01*
X2066028Y5591345D01*
X2071362Y5596425D01*
X2081522Y5601759D01*
X2102350Y5601759D01*
X2112764Y5596425D01*
X2118098Y5591345D01*
X2123178Y5580931D01*
X2123178Y5570517D01*
X2118098Y5560103D01*
X2107684Y5544609D01*
X2055614Y5492539D01*
X2128512Y5492539D01*
X2193790Y5601759D02*
G01*
X2178296Y5596425D01*
X2167882Y5580931D01*
X2162802Y5555023D01*
X2162802Y5539275D01*
X2167882Y5513367D01*
X2178296Y5497873D01*
X2193790Y5492539D01*
X2204204Y5492539D01*
X2219952Y5497873D01*
X2230112Y5513367D01*
X2235446Y5539275D01*
X2235446Y5555023D01*
X2230112Y5580931D01*
X2219952Y5596425D01*
X2204204Y5601759D01*
X2193790Y5601759D01*
X2321552Y5601759D02*
G01*
X2269736Y5529115D01*
X2347714Y5529115D01*
X2321552Y5601759D02*
G01*
X2321552Y5492539D01*
X2412992Y5601759D02*
G01*
X2397498Y5596425D01*
X2387084Y5580931D01*
X2382004Y5555023D01*
X2382004Y5539275D01*
X2387084Y5513367D01*
X2397498Y5497873D01*
X2412992Y5492539D01*
X2423406Y5492539D01*
X2439154Y5497873D01*
X2449568Y5513367D01*
X2454648Y5539275D01*
X2454648Y5555023D01*
X2449568Y5580931D01*
X2439154Y5596425D01*
X2423406Y5601759D01*
X2412992Y5601759D01*
X2568948Y5601759D02*
G01*
X2568948Y5492539D01*
X2568948Y5601759D02*
G01*
X2615684Y5601759D01*
X2631432Y5596425D01*
X2636512Y5591345D01*
X2641592Y5580931D01*
X2641592Y5570517D01*
X2636512Y5560103D01*
X2631432Y5555023D01*
X2615684Y5549689D01*
X2568948Y5549689D02*
G01*
X2615684Y5549689D01*
X2631432Y5544609D01*
X2636512Y5539275D01*
X2641592Y5529115D01*
X2641592Y5513367D01*
X2636512Y5502953D01*
X2631432Y5497873D01*
X2615684Y5492539D01*
X2568948Y5492539D01*
X2675882Y5601759D02*
G01*
X2675882Y5492539D01*
X2675882Y5492539D02*
G01*
X2738366Y5492539D01*
X2803898Y5601759D02*
G01*
X2793484Y5596425D01*
X2783070Y5586265D01*
X2777736Y5575851D01*
X2772656Y5560103D01*
X2772656Y5534195D01*
X2777736Y5518701D01*
X2783070Y5508287D01*
X2793484Y5497873D01*
X2803898Y5492539D01*
X2824472Y5492539D01*
X2834886Y5497873D01*
X2845300Y5508287D01*
X2850634Y5518701D01*
X2855714Y5534195D01*
X2855714Y5560103D01*
X2850634Y5575851D01*
X2845300Y5586265D01*
X2834886Y5596425D01*
X2824472Y5601759D01*
X2803898Y5601759D01*
X2967982Y5575851D02*
G01*
X2962902Y5586265D01*
X2952488Y5596425D01*
X2942074Y5601759D01*
X2921246Y5601759D01*
X2910832Y5596425D01*
X2900418Y5586265D01*
X2895338Y5575851D01*
X2890004Y5560103D01*
X2890004Y5534195D01*
X2895338Y5518701D01*
X2900418Y5508287D01*
X2910832Y5497873D01*
X2921246Y5492539D01*
X2942074Y5492539D01*
X2952488Y5497873D01*
X2962902Y5508287D01*
X2967982Y5518701D01*
X3002272Y5601759D02*
G01*
X3002272Y5492539D01*
X3074916Y5601759D02*
G01*
X3002272Y5529115D01*
X3028180Y5555023D02*
G01*
X3074916Y5492539D01*
X3189216Y5601759D02*
G01*
X3230872Y5492539D01*
X3272528Y5601759D02*
G01*
X3230872Y5492539D01*
X3337806Y5601759D02*
G01*
X3322312Y5596425D01*
X3311898Y5580931D01*
X3306818Y5555023D01*
X3306818Y5539275D01*
X3311898Y5513367D01*
X3322312Y5497873D01*
X3337806Y5492539D01*
X3348220Y5492539D01*
X3363968Y5497873D01*
X3374382Y5513367D01*
X3379462Y5539275D01*
X3379462Y5555023D01*
X3374382Y5580931D01*
X3363968Y5596425D01*
X3348220Y5601759D01*
X3337806Y5601759D01*
X3418832Y5518701D02*
G01*
X3413752Y5513367D01*
X3418832Y5508287D01*
X3424166Y5513367D01*
X3418832Y5518701D01*
X3458456Y5580931D02*
G01*
X3468870Y5586265D01*
X3484364Y5601759D01*
X3484364Y5492539D01*
X761992Y5423959D02*
G01*
X761992Y5314739D01*
X761992Y5423959D02*
G01*
X808728Y5423959D01*
X824222Y5418625D01*
X829556Y5413545D01*
X834636Y5403131D01*
X834636Y5387637D01*
X829556Y5377223D01*
X824222Y5371889D01*
X808728Y5366809D01*
X761992Y5366809D01*
X910582Y5423959D02*
G01*
X868926Y5314739D01*
X910582Y5423959D02*
G01*
X952238Y5314739D01*
X884674Y5351315D02*
G01*
X936490Y5351315D01*
X986528Y5423959D02*
G01*
X986528Y5314739D01*
X986528Y5423959D02*
G01*
X1033264Y5423959D01*
X1048758Y5418625D01*
X1054092Y5413545D01*
X1059172Y5403131D01*
X1059172Y5392717D01*
X1054092Y5382303D01*
X1048758Y5377223D01*
X1033264Y5371889D01*
X986528Y5371889D01*
X1022850Y5371889D02*
G01*
X1059172Y5314739D01*
X1129784Y5423959D02*
G01*
X1129784Y5314739D01*
X1093462Y5423959D02*
G01*
X1166106Y5423959D01*
X1280406Y5423959D02*
G01*
X1280406Y5314739D01*
X1280406Y5423959D02*
G01*
X1353304Y5314739D01*
X1353304Y5423959D02*
G01*
X1353304Y5314739D01*
X1387594Y5423959D02*
G01*
X1387594Y5345981D01*
X1392674Y5330487D01*
X1403088Y5320073D01*
X1418582Y5314739D01*
X1428996Y5314739D01*
X1444744Y5320073D01*
X1455158Y5330487D01*
X1460238Y5345981D01*
X1460238Y5423959D01*
X1494528Y5423959D02*
G01*
X1494528Y5314739D01*
X1494528Y5423959D02*
G01*
X1536184Y5314739D01*
X1577586Y5423959D02*
G01*
X1536184Y5314739D01*
X1577586Y5423959D02*
G01*
X1577586Y5314739D01*
X1611876Y5423959D02*
G01*
X1611876Y5314739D01*
X1611876Y5423959D02*
G01*
X1658612Y5423959D01*
X1674360Y5418625D01*
X1679440Y5413545D01*
X1684774Y5403131D01*
X1684774Y5392717D01*
X1679440Y5382303D01*
X1674360Y5377223D01*
X1658612Y5371889D01*
X1611876Y5371889D02*
G01*
X1658612Y5371889D01*
X1674360Y5366809D01*
X1679440Y5361475D01*
X1684774Y5351315D01*
X1684774Y5335567D01*
X1679440Y5325153D01*
X1674360Y5320073D01*
X1658612Y5314739D01*
X1611876Y5314739D01*
X1719064Y5423959D02*
G01*
X1719064Y5314739D01*
X1719064Y5423959D02*
G01*
X1786628Y5423959D01*
X1719064Y5371889D02*
G01*
X1760466Y5371889D01*
X1719064Y5314739D02*
G01*
X1786628Y5314739D01*
X1820918Y5423959D02*
G01*
X1820918Y5314739D01*
X1820918Y5423959D02*
G01*
X1867654Y5423959D01*
X1883148Y5418625D01*
X1888482Y5413545D01*
X1893562Y5403131D01*
X1893562Y5392717D01*
X1888482Y5382303D01*
X1883148Y5377223D01*
X1867654Y5371889D01*
X1820918Y5371889D01*
X1857240Y5371889D02*
G01*
X1893562Y5314739D01*
X2007862Y5403131D02*
G01*
X2018276Y5408465D01*
X2033770Y5423959D01*
X2033770Y5314739D01*
X2068060Y5403131D02*
G01*
X2078474Y5408465D01*
X2094222Y5423959D01*
X2094222Y5314739D01*
X2128512Y5403131D02*
G01*
X2138672Y5408465D01*
X2154420Y5423959D01*
X2154420Y5314739D01*
X2240526Y5423959D02*
G01*
X2188710Y5351315D01*
X2266688Y5351315D01*
X2240526Y5423959D02*
G01*
X2240526Y5314739D01*
X2300978Y5361475D02*
G01*
X2394450Y5361475D01*
X2459982Y5423959D02*
G01*
X2444234Y5418625D01*
X2433820Y5403131D01*
X2428740Y5377223D01*
X2428740Y5361475D01*
X2433820Y5335567D01*
X2444234Y5320073D01*
X2459982Y5314739D01*
X2470142Y5314739D01*
X2485890Y5320073D01*
X2496304Y5335567D01*
X2501384Y5361475D01*
X2501384Y5377223D01*
X2496304Y5403131D01*
X2485890Y5418625D01*
X2470142Y5423959D01*
X2459982Y5423959D01*
X2535674Y5403131D02*
G01*
X2546088Y5408465D01*
X2561582Y5423959D01*
X2561582Y5314739D01*
X2627114Y5423959D02*
G01*
X2611620Y5418625D01*
X2601206Y5403131D01*
X2595872Y5377223D01*
X2595872Y5361475D01*
X2601206Y5335567D01*
X2611620Y5320073D01*
X2627114Y5314739D01*
X2637528Y5314739D01*
X2653022Y5320073D01*
X2663436Y5335567D01*
X2668770Y5361475D01*
X2668770Y5377223D01*
X2663436Y5403131D01*
X2653022Y5418625D01*
X2637528Y5423959D01*
X2627114Y5423959D01*
X2703060Y5403131D02*
G01*
X2713474Y5408465D01*
X2728968Y5423959D01*
X2728968Y5314739D01*
X5036558Y5714230D02*
G01*
X5036558Y5641586D01*
X5031986Y5627870D01*
X5027414Y5623298D01*
X5018270Y5618726D01*
X5009380Y5618726D01*
X5000236Y5623298D01*
X4995664Y5627870D01*
X4991092Y5641586D01*
X4991092Y5650730D01*
X5066530Y5696196D02*
G01*
X5075674Y5700768D01*
X5089390Y5714230D01*
X5089390Y5618726D01*
X4111236Y5790430D02*
G01*
X4161274Y5790430D01*
X4133842Y5754108D01*
X4147558Y5754108D01*
X4156702Y5749536D01*
X4161274Y5744964D01*
X4165846Y5731502D01*
X4165846Y5722358D01*
X4161274Y5708642D01*
X4152130Y5699498D01*
X4138414Y5694926D01*
X4124698Y5694926D01*
X4111236Y5699498D01*
X4106664Y5704070D01*
X4102092Y5713214D01*
X4195818Y5790430D02*
G01*
X4232140Y5694926D01*
X4268462Y5790430D02*
G01*
X4232140Y5694926D01*
X4307578Y5790430D02*
G01*
X4357616Y5790430D01*
X4330184Y5754108D01*
X4343900Y5754108D01*
X4353044Y5749536D01*
X4357616Y5744964D01*
X4362188Y5731502D01*
X4362188Y5722358D01*
X4357616Y5708642D01*
X4348472Y5699498D01*
X4334756Y5694926D01*
X4321294Y5694926D01*
X4307578Y5699498D01*
X4303006Y5704070D01*
X4298434Y5713214D01*
X4140174Y2305888D02*
G01*
X4140174Y2239086D01*
X4140174Y2305888D02*
G01*
X4168876Y2305888D01*
X4178274Y2302586D01*
X4181576Y2299538D01*
X4184624Y2293188D01*
X4184624Y2286838D01*
X4181576Y2280488D01*
X4178274Y2277186D01*
X4168876Y2274138D01*
X4140174Y2274138D01*
X4162526Y2274138D02*
G01*
X4184624Y2239086D01*
X4205706Y2305888D02*
G01*
X4205706Y2239086D01*
X4205706Y2305888D02*
G01*
X4234408Y2305888D01*
X4243806Y2302586D01*
X4247108Y2299538D01*
X4250156Y2293188D01*
X4250156Y2283536D01*
X4247108Y2277186D01*
X4243806Y2274138D01*
X4234408Y2270836D01*
X4205706Y2270836D01*
X4274540Y2289886D02*
G01*
X4274540Y2293188D01*
X4277588Y2299538D01*
X4280890Y2302586D01*
X4287240Y2305888D01*
X4299940Y2305888D01*
X4306290Y2302586D01*
X4309338Y2299538D01*
X4312640Y2293188D01*
X4312640Y2286838D01*
X4309338Y2280488D01*
X4302988Y2270836D01*
X4271238Y2239086D01*
X4315942Y2239086D01*
X4355820Y2305888D02*
G01*
X4346422Y2302586D01*
X4340072Y2293188D01*
X4336770Y2277186D01*
X4336770Y2267534D01*
X4340072Y2251786D01*
X4346422Y2242134D01*
X4355820Y2239086D01*
X4362170Y2239086D01*
X4371822Y2242134D01*
X4378172Y2251786D01*
X4381474Y2267534D01*
X4381474Y2277186D01*
X4378172Y2293188D01*
X4371822Y2302586D01*
X4362170Y2305888D01*
X4355820Y2305888D01*
X4434306Y2305888D02*
G01*
X4402302Y2261184D01*
X4450054Y2261184D01*
X4434306Y2305888D02*
G01*
X4434306Y2239086D01*
X4490186Y2305888D02*
G01*
X4480534Y2302586D01*
X4474184Y2293188D01*
X4471136Y2277186D01*
X4471136Y2267534D01*
X4474184Y2251786D01*
X4480534Y2242134D01*
X4490186Y2239086D01*
X4496536Y2239086D01*
X4506188Y2242134D01*
X4512538Y2251786D01*
X4515586Y2267534D01*
X4515586Y2277186D01*
X4512538Y2293188D01*
X4506188Y2302586D01*
X4496536Y2305888D01*
X4490186Y2305888D01*
X4844280Y550918D02*
G01*
X4838946Y561840D01*
X4828024Y572762D01*
X4817102Y578350D01*
X4795258Y578350D01*
X4784336Y572762D01*
X4773414Y561840D01*
X4767826Y550918D01*
X4762492Y534662D01*
X4762492Y507484D01*
X4767826Y490974D01*
X4773414Y480052D01*
X4784336Y469130D01*
X4795258Y463796D01*
X4817102Y463796D01*
X4828024Y469130D01*
X4838946Y480052D01*
X4844280Y490974D01*
X4844280Y507484D01*
X4817102Y507484D02*
G01*
X4844280Y507484D01*
X4880348Y578350D02*
G01*
X4880348Y463796D01*
X4880348Y578350D02*
G01*
X4956548Y463796D01*
X4956548Y578350D02*
G01*
X4956548Y463796D01*
X4992616Y578350D02*
G01*
X4992616Y463796D01*
X4992616Y578350D02*
G01*
X5030970Y578350D01*
X5047226Y572762D01*
X5058148Y561840D01*
X5063482Y550918D01*
X5069070Y534662D01*
X5069070Y507484D01*
X5063482Y490974D01*
X5058148Y480052D01*
X5047226Y469130D01*
X5030970Y463796D01*
X4992616Y463796D01*
X4470392Y578350D02*
G01*
X4470392Y463796D01*
X4470392Y578350D02*
G01*
X4519414Y578350D01*
X4535924Y572762D01*
X4541258Y567428D01*
X4546846Y556506D01*
X4546846Y545584D01*
X4541258Y534662D01*
X4535924Y529074D01*
X4519414Y523740D01*
X4470392Y523740D01*
X4508492Y523740D02*
G01*
X4546846Y463796D01*
X4582660Y578350D02*
G01*
X4659114Y463796D01*
X4659114Y578350D02*
G01*
X4582660Y463796D01*
X4229092Y578350D02*
G01*
X4229092Y463796D01*
X4190992Y578350D02*
G01*
X4267446Y578350D01*
X4303260Y578350D02*
G01*
X4379714Y463796D01*
X4379714Y578350D02*
G01*
X4303260Y463796D01*
X3340346Y561840D02*
G01*
X3329424Y572762D01*
X3312914Y578350D01*
X3291070Y578350D01*
X3274814Y572762D01*
X3263892Y561840D01*
X3263892Y550918D01*
X3269226Y539996D01*
X3274814Y534662D01*
X3285736Y529074D01*
X3318502Y518406D01*
X3329424Y512818D01*
X3334758Y507484D01*
X3340346Y496562D01*
X3340346Y480052D01*
X3329424Y469130D01*
X3312914Y463796D01*
X3291070Y463796D01*
X3274814Y469130D01*
X3263892Y480052D01*
X3376160Y578350D02*
G01*
X3403592Y463796D01*
X3430770Y578350D02*
G01*
X3403592Y463796D01*
X3430770Y578350D02*
G01*
X3457948Y463796D01*
X3485380Y578350D02*
G01*
X3457948Y463796D01*
X3521448Y578350D02*
G01*
X3521448Y463796D01*
X3521448Y578350D02*
G01*
X3559548Y578350D01*
X3575804Y572762D01*
X3586726Y561840D01*
X3592314Y550918D01*
X3597648Y534662D01*
X3597648Y507484D01*
X3592314Y490974D01*
X3586726Y480052D01*
X3575804Y469130D01*
X3559548Y463796D01*
X3521448Y463796D01*
X3732014Y600194D02*
G01*
X3633716Y425442D01*
X3844282Y561840D02*
G01*
X3833360Y572762D01*
X3817104Y578350D01*
X3795260Y578350D01*
X3778750Y572762D01*
X3767828Y561840D01*
X3767828Y550918D01*
X3773416Y539996D01*
X3778750Y534662D01*
X3789672Y529074D01*
X3822438Y518406D01*
X3833360Y512818D01*
X3838694Y507484D01*
X3844282Y496562D01*
X3844282Y480052D01*
X3833360Y469130D01*
X3817104Y463796D01*
X3795260Y463796D01*
X3778750Y469130D01*
X3767828Y480052D01*
X3880350Y578350D02*
G01*
X3907528Y463796D01*
X3934706Y578350D02*
G01*
X3907528Y463796D01*
X3934706Y578350D02*
G01*
X3962138Y463796D01*
X3989316Y578350D02*
G01*
X3962138Y463796D01*
X4107172Y550918D02*
G01*
X4101584Y561840D01*
X4090916Y572762D01*
X4079994Y578350D01*
X4058150Y578350D01*
X4047228Y572762D01*
X4036306Y561840D01*
X4030718Y550918D01*
X4025384Y534662D01*
X4025384Y507484D01*
X4030718Y490974D01*
X4036306Y480052D01*
X4047228Y469130D01*
X4058150Y463796D01*
X4079994Y463796D01*
X4090916Y469130D01*
X4101584Y480052D01*
X4107172Y490974D01*
X5711459Y3846466D02*
G01*
X5638815Y3805572D01*
X5711459Y3764678D01*
X5741431Y3846466D02*
G01*
X5814329Y3805572D01*
X5741431Y3764678D01*
X5506448Y4495022D02*
G01*
X5506448Y4422378D01*
X5501876Y4408662D01*
X5497304Y4404090D01*
X5488160Y4399518D01*
X5479270Y4399518D01*
X5470126Y4404090D01*
X5465554Y4408662D01*
X5460982Y4422378D01*
X5460982Y4431522D01*
X5540992Y4472416D02*
G01*
X5540992Y4476988D01*
X5545564Y4485878D01*
X5550136Y4490450D01*
X5559280Y4495022D01*
X5577314Y4495022D01*
X5586458Y4490450D01*
X5591030Y4485878D01*
X5595602Y4476988D01*
X5595602Y4467844D01*
X5591030Y4458700D01*
X5581886Y4444984D01*
X5536420Y4399518D01*
X5600174Y4399518D01*
X5711459Y3592466D02*
G01*
X5638815Y3551572D01*
X5711459Y3510678D01*
X5741431Y3592466D02*
G01*
X5814329Y3551572D01*
X5741431Y3510678D01*
X5711459Y3338466D02*
G01*
X5638815Y3297572D01*
X5711459Y3256678D01*
X5741431Y3338466D02*
G01*
X5814329Y3297572D01*
X5741431Y3256678D01*
X5711459Y3084466D02*
G01*
X5638815Y3043572D01*
X5711459Y3002678D01*
X5741431Y3084466D02*
G01*
X5814329Y3043572D01*
X5741431Y3002678D01*
X5711459Y2830466D02*
G01*
X5638815Y2789572D01*
X5711459Y2748678D01*
X5741431Y2830466D02*
G01*
X5814329Y2789572D01*
X5741431Y2748678D01*
X5711459Y2576466D02*
G01*
X5638815Y2535572D01*
X5711459Y2494678D01*
X5741431Y2576466D02*
G01*
X5814329Y2535572D01*
X5741431Y2494678D01*
X5711459Y2322466D02*
G01*
X5638815Y2281572D01*
X5711459Y2240678D01*
X5741431Y2322466D02*
G01*
X5814329Y2281572D01*
X5741431Y2240678D01*
X5711459Y2068466D02*
G01*
X5638815Y2027572D01*
X5711459Y1986678D01*
X5741431Y2068466D02*
G01*
X5814329Y2027572D01*
X5741431Y1986678D01*
X130525Y3773517D02*
G01*
X203169Y3814411D01*
X130525Y3855305D01*
X100553Y3773517D02*
G01*
X27655Y3814411D01*
X100553Y3855305D01*
X130525Y3519517D02*
G01*
X203169Y3560411D01*
X130525Y3601305D01*
X100553Y3519517D02*
G01*
X27655Y3560411D01*
X100553Y3601305D01*
X130525Y3265517D02*
G01*
X203169Y3306411D01*
X130525Y3347305D01*
X100553Y3265517D02*
G01*
X27655Y3306411D01*
X100553Y3347305D01*
X130525Y3011517D02*
G01*
X203169Y3052411D01*
X130525Y3093305D01*
X100553Y3011517D02*
G01*
X27655Y3052411D01*
X100553Y3093305D01*
X130525Y2757517D02*
G01*
X203169Y2798411D01*
X130525Y2839305D01*
X100553Y2757517D02*
G01*
X27655Y2798411D01*
X100553Y2839305D01*
X130525Y2503517D02*
G01*
X203169Y2544411D01*
X130525Y2585305D01*
X100553Y2503517D02*
G01*
X27655Y2544411D01*
X100553Y2585305D01*
X130525Y2249517D02*
G01*
X203169Y2290411D01*
X130525Y2331305D01*
X100553Y2249517D02*
G01*
X27655Y2290411D01*
X100553Y2331305D01*
X312158Y4495081D02*
G01*
X312158Y4422437D01*
X307586Y4408721D01*
X303014Y4404149D01*
X293870Y4399577D01*
X284980Y4399577D01*
X275836Y4404149D01*
X271264Y4408721D01*
X266692Y4422437D01*
X266692Y4431581D01*
X351274Y4495081D02*
G01*
X401312Y4495081D01*
X373880Y4458759D01*
X387596Y4458759D01*
X396740Y4454187D01*
X401312Y4449615D01*
X405884Y4435899D01*
X405884Y4427009D01*
X401312Y4413293D01*
X392168Y4404149D01*
X378452Y4399577D01*
X364990Y4399577D01*
X351274Y4404149D01*
X346702Y4408721D01*
X342130Y4417865D01*
X130525Y1995517D02*
G01*
X203169Y2036411D01*
X130525Y2077305D01*
X100553Y1995517D02*
G01*
X27655Y2036411D01*
X100553Y2077305D01*
X3543546Y1725465D02*
G01*
X3534402Y1734609D01*
X3520686Y1739181D01*
X3502398Y1739181D01*
X3488936Y1734609D01*
X3479792Y1725465D01*
X3479792Y1716575D01*
X3484364Y1707431D01*
X3488936Y1702859D01*
X3498080Y1698287D01*
X3525258Y1689143D01*
X3534402Y1684571D01*
X3538974Y1679999D01*
X3543546Y1671109D01*
X3543546Y1657393D01*
X3534402Y1648249D01*
X3520686Y1643677D01*
X3502398Y1643677D01*
X3488936Y1648249D01*
X3479792Y1657393D01*
X3573518Y1739181D02*
G01*
X3596124Y1643677D01*
X3618984Y1739181D02*
G01*
X3596124Y1643677D01*
X3618984Y1739181D02*
G01*
X3641590Y1643677D01*
X3664450Y1739181D02*
G01*
X3641590Y1643677D01*
X3694422Y1739181D02*
G01*
X3694422Y1643677D01*
X3694422Y1739181D02*
G01*
X3726172Y1739181D01*
X3739888Y1734609D01*
X3748778Y1725465D01*
X3753350Y1716575D01*
X3757922Y1702859D01*
X3757922Y1679999D01*
X3753350Y1666537D01*
X3748778Y1657393D01*
X3739888Y1648249D01*
X3726172Y1643677D01*
X3694422Y1643677D01*
X4051292Y1739181D02*
G01*
X4051292Y1671109D01*
X4055864Y1657393D01*
X4065008Y1648249D01*
X4078470Y1643677D01*
X4087614Y1643677D01*
X4101330Y1648249D01*
X4110474Y1657393D01*
X4115046Y1671109D01*
X4115046Y1739181D01*
X4181340Y1739181D02*
G01*
X4145018Y1643677D01*
X4181340Y1739181D02*
G01*
X4217662Y1643677D01*
X4158480Y1675681D02*
G01*
X4203946Y1675681D01*
X4247634Y1739181D02*
G01*
X4247634Y1643677D01*
X4247634Y1739181D02*
G01*
X4288528Y1739181D01*
X4302244Y1734609D01*
X4306816Y1730037D01*
X4311388Y1721147D01*
X4311388Y1712003D01*
X4306816Y1702859D01*
X4302244Y1698287D01*
X4288528Y1693715D01*
X4247634Y1693715D01*
X4279384Y1693715D02*
G01*
X4311388Y1643677D01*
X4373110Y1739181D02*
G01*
X4373110Y1643677D01*
X4341360Y1739181D02*
G01*
X4404860Y1739181D01*
X3207758Y1586781D02*
G01*
X3207758Y1514137D01*
X3203186Y1500421D01*
X3198614Y1495849D01*
X3189470Y1491277D01*
X3180580Y1491277D01*
X3171436Y1495849D01*
X3166864Y1500421D01*
X3162292Y1514137D01*
X3162292Y1523281D01*
X3292340Y1586781D02*
G01*
X3246874Y1586781D01*
X3242302Y1545887D01*
X3246874Y1550459D01*
X3260590Y1555031D01*
X3274052Y1555031D01*
X3287768Y1550459D01*
X3296912Y1541315D01*
X3301484Y1527599D01*
X3301484Y1518709D01*
X3296912Y1504993D01*
X3287768Y1495849D01*
X3274052Y1491277D01*
X3260590Y1491277D01*
X3246874Y1495849D01*
X3242302Y1500421D01*
X3237730Y1509565D01*
X4592053Y1586781D02*
G01*
X4592053Y1514137D01*
X4587481Y1500421D01*
X4582909Y1495849D01*
X4573765Y1491277D01*
X4564875Y1491277D01*
X4555731Y1495849D01*
X4551159Y1500421D01*
X4546587Y1514137D01*
X4546587Y1523281D01*
X4676635Y1573065D02*
G01*
X4672063Y1582209D01*
X4658347Y1586781D01*
X4649203Y1586781D01*
X4635741Y1582209D01*
X4626597Y1568747D01*
X4622025Y1545887D01*
X4622025Y1523281D01*
X4626597Y1504993D01*
X4635741Y1495849D01*
X4649203Y1491277D01*
X4653775Y1491277D01*
X4667491Y1495849D01*
X4676635Y1504993D01*
X4681207Y1518709D01*
X4681207Y1523281D01*
X4676635Y1536743D01*
X4667491Y1545887D01*
X4653775Y1550459D01*
X4649203Y1550459D01*
X4635741Y1545887D01*
X4626597Y1536743D01*
X4622025Y1523281D01*
X4592116Y2082185D02*
G01*
X4592116Y2009287D01*
X4587544Y1995825D01*
X4582972Y1991253D01*
X4573828Y1986681D01*
X4564684Y1986681D01*
X4555794Y1991253D01*
X4551222Y1995825D01*
X4546650Y2009287D01*
X4546650Y2018431D01*
X4667554Y2082185D02*
G01*
X4622088Y2018431D01*
X4690160Y2018431D01*
X4667554Y2082185D02*
G01*
X4667554Y1986681D01*
X3479805Y2304206D02*
G01*
X3524255Y2237404D01*
X3524255Y2304206D02*
G01*
X3479805Y2237404D01*
X3545337Y2291506D02*
G01*
X3551687Y2294808D01*
X3561339Y2304206D01*
X3561339Y2237404D01*
X3505202Y3015409D02*
G01*
X3505202Y2967657D01*
X3508504Y2958259D01*
X3514854Y2951909D01*
X3524252Y2948607D01*
X3530602Y2948607D01*
X3540254Y2951909D01*
X3546604Y2958259D01*
X3549652Y2967657D01*
X3549652Y3015409D01*
X3570734Y3002709D02*
G01*
X3577084Y3006011D01*
X3586736Y3015409D01*
X3586736Y2948607D01*
X3733794Y3588512D02*
G01*
X3733794Y3540760D01*
X3736842Y3531362D01*
X3743446Y3525012D01*
X3752844Y3521710D01*
X3759194Y3521710D01*
X3768846Y3525012D01*
X3775196Y3531362D01*
X3778244Y3540760D01*
X3778244Y3588512D01*
X3802628Y3572510D02*
G01*
X3802628Y3575812D01*
X3805676Y3582162D01*
X3808978Y3585463D01*
X3815328Y3588512D01*
X3828028Y3588512D01*
X3834378Y3585463D01*
X3837426Y3582162D01*
X3840728Y3575812D01*
X3840728Y3569462D01*
X3837426Y3563112D01*
X3831076Y3553460D01*
X3799326Y3521710D01*
X3843776Y3521710D01*
X3873492Y5625330D02*
G01*
X3873492Y5529826D01*
X3873492Y5625330D02*
G01*
X3905242Y5625330D01*
X3918958Y5620758D01*
X3928102Y5611868D01*
X3932674Y5602724D01*
X3937246Y5589008D01*
X3937246Y5566402D01*
X3932674Y5552686D01*
X3928102Y5543542D01*
X3918958Y5534398D01*
X3905242Y5529826D01*
X3873492Y5529826D01*
X3967218Y5607296D02*
G01*
X3976108Y5611868D01*
X3989824Y5625330D01*
X3989824Y5529826D01*
X3873492Y5434830D02*
G01*
X3873492Y5339326D01*
X3873492Y5434830D02*
G01*
X3914386Y5434830D01*
X3928102Y5430258D01*
X3932674Y5425686D01*
X3937246Y5416796D01*
X3937246Y5407652D01*
X3932674Y5398508D01*
X3928102Y5393936D01*
X3914386Y5389364D01*
X3873492Y5389364D01*
X3905242Y5389364D02*
G01*
X3937246Y5339326D01*
X3967218Y5416796D02*
G01*
X3976108Y5421368D01*
X3989824Y5434830D01*
X3989824Y5339326D01*
G36*
X0Y5842000D02*
G01*
X0Y5588000D01*
X254000Y5842000D01*
G37*
G36*
X0Y254000D02*
G01*
X0Y0D01*
X254000Y0D01*
G37*
G36*
X5842000Y254000D02*
G01*
X5588000Y0D01*
X5842000Y0D01*
G37*
G36*
X5588000Y5842000D02*
G01*
X5842000Y5588000D01*
X5842000Y5842000D01*
G37*
G36*
X5092700Y317500D02*
G01*
X4991100Y254000D01*
X5092700Y190500D01*
G37*
G36*
X3480003Y2622702D02*
G01*
X3480003Y2577693D01*
X3502456Y2600198D01*
G37*
D11*
X3469467Y1606052D02*
G01*
X3339416Y1606052D01*
X3339510Y1399694D01*
X3339416Y1176032D02*
G01*
X3899606Y1176032D01*
X3769504Y1609699D02*
G01*
X3899507Y1609699D01*
X3899507Y1399694D01*
X4079067Y1606052D02*
G01*
X3949016Y1606052D01*
X3949110Y1399694D01*
X3949016Y1176032D02*
G01*
X4509206Y1176032D01*
X4379104Y1609699D02*
G01*
X4509107Y1609699D01*
X4509107Y1399694D01*
X4364291Y1781195D02*
G01*
X3484293Y1781195D01*
X4504293Y1981197D02*
G01*
X4504293Y2101194D01*
X4384288Y2101194D01*
X3464295Y2101194D02*
G01*
X3344290Y2101194D01*
X3344290Y1981197D01*
D10*
X4318932Y3581422D02*
G01*
X4318932Y3502413D01*
X4418652Y3502413D02*
G01*
X4418652Y3581422D01*
X4403412Y3596662D02*
G01*
X4334172Y3596662D01*
X4318932Y3378161D02*
G01*
X4318932Y3457171D01*
X4418652Y3457171D02*
G01*
X4418652Y3378161D01*
X4403412Y3362921D02*
G01*
X4334172Y3362921D01*
X4025861Y3417232D02*
G01*
X4104871Y3417232D01*
X4104871Y3516952D02*
G01*
X4025861Y3516952D01*
X4010621Y3501712D02*
G01*
X4010621Y3432472D01*
X4229122Y3417232D02*
G01*
X4150113Y3417232D01*
X4150113Y3516952D02*
G01*
X4229122Y3516952D01*
X4244362Y3501712D02*
G01*
X4244362Y3432472D01*
X4420529Y3457168D02*
G01*
X4420529Y3378161D01*
X4520250Y3378161D02*
G01*
X4520247Y3457171D01*
X4435772Y3362921D02*
G01*
X4505010Y3362924D01*
X4520250Y3581422D02*
G01*
X4520250Y3502416D01*
X4420532Y3502413D02*
G01*
X4420529Y3581422D01*
X4435769Y3596660D02*
G01*
X4505007Y3596662D01*
X3619832Y2232446D02*
G01*
X3619832Y2568168D01*
X4025552Y2568168D01*
X4025552Y2232446D01*
X3619832Y2232446D01*
X3596972Y2375306D02*
G01*
X3596972Y2209586D01*
X3782692Y2209586D01*
X3431771Y2424755D02*
G01*
X3352761Y2424755D01*
X3352761Y2325034D02*
G01*
X3431771Y2325037D01*
X3337521Y2409512D02*
G01*
X3337524Y2340274D01*
X3556022Y2325034D02*
G01*
X3477013Y2325034D01*
X3477013Y2424752D02*
G01*
X3556022Y2424755D01*
X3571260Y2409515D02*
G01*
X3571262Y2340277D01*
X4142966Y2424755D02*
G01*
X4063959Y2424755D01*
X4063959Y2325034D02*
G01*
X4142968Y2325037D01*
X4048719Y2409512D02*
G01*
X4048721Y2340274D01*
X4267220Y2325034D02*
G01*
X4188213Y2325034D01*
X4188211Y2424752D02*
G01*
X4267220Y2424755D01*
X4282457Y2409515D02*
G01*
X4282460Y2340277D01*
X4142966Y2526355D02*
G01*
X4063959Y2526355D01*
X4063959Y2426634D02*
G01*
X4142968Y2426637D01*
X4048719Y2511112D02*
G01*
X4048721Y2441874D01*
X4267220Y2426634D02*
G01*
X4188213Y2426634D01*
X4188211Y2526352D02*
G01*
X4267220Y2526355D01*
X4282457Y2511115D02*
G01*
X4282460Y2441877D01*
X4396966Y2526355D02*
G01*
X4317959Y2526355D01*
X4317959Y2426634D02*
G01*
X4396968Y2426637D01*
X4302719Y2511112D02*
G01*
X4302721Y2441874D01*
X4521220Y2426634D02*
G01*
X4442213Y2426634D01*
X4442211Y2526352D02*
G01*
X4521220Y2526355D01*
X4536457Y2511115D02*
G01*
X4536460Y2441877D01*
D11*
X3701793Y3347196D02*
G01*
X3701793Y3337511D01*
X3675885Y3311603D01*
X3675885Y3290313D02*
G01*
X3732773Y3347196D01*
X3675885Y3290313D02*
G01*
X3675885Y3347196D01*
X3732773Y2647203D02*
G01*
X3685887Y2647203D01*
X3675885Y2647203D01*
X3675885Y2704086D01*
X4375884Y2704086D02*
G01*
X4375884Y2647203D01*
X4319000Y2647203D01*
X4319000Y3347196D02*
G01*
X4375884Y3347196D01*
X4375884Y3290313D01*
X3675885Y3347196D02*
G01*
X3732773Y3347196D01*
D10*
X4150113Y3518832D02*
G01*
X4229120Y3518832D01*
X4229120Y3618552D02*
G01*
X4150111Y3618550D01*
X4244360Y3534074D02*
G01*
X4244357Y3603312D01*
X4025859Y3618552D02*
G01*
X4104866Y3618552D01*
X4104868Y3518834D02*
G01*
X4025859Y3518832D01*
X4010621Y3534072D02*
G01*
X4010619Y3603310D01*
X4396966Y2627955D02*
G01*
X4317959Y2627955D01*
X4317959Y2528234D02*
G01*
X4396968Y2528237D01*
X4302719Y2612712D02*
G01*
X4302721Y2543474D01*
X4521220Y2528234D02*
G01*
X4442213Y2528234D01*
X4442211Y2627952D02*
G01*
X4521220Y2627955D01*
X4536457Y2612715D02*
G01*
X4536460Y2543477D01*
X4433229Y2911071D02*
G01*
X4433229Y2832064D01*
X4532950Y2832064D02*
G01*
X4532947Y2911073D01*
X4448472Y2816824D02*
G01*
X4517710Y2816826D01*
X4532950Y3035325D02*
G01*
X4532950Y2956318D01*
X4433232Y2956316D02*
G01*
X4433229Y3035325D01*
X4448469Y3050562D02*
G01*
X4517707Y3050565D01*
X3688199Y3587427D02*
G01*
X3372962Y3587427D01*
X3372962Y3372180D02*
G01*
X3688199Y3372180D01*
X3580452Y3235716D02*
G01*
X3580452Y3314722D01*
X3480732Y3314722D02*
G01*
X3480734Y3235713D01*
X3565210Y3329962D02*
G01*
X3495972Y3329960D01*
X3480732Y3111461D02*
G01*
X3480732Y3190468D01*
X3580450Y3190471D02*
G01*
X3580452Y3111461D01*
X3565212Y3096224D02*
G01*
X3495974Y3096221D01*
X3478852Y3235716D02*
G01*
X3478852Y3314722D01*
X3379132Y3314722D02*
G01*
X3379134Y3235713D01*
X3463610Y3329962D02*
G01*
X3394372Y3329960D01*
X3379132Y3111461D02*
G01*
X3379132Y3190468D01*
X3478850Y3190471D02*
G01*
X3478852Y3111461D01*
X3463612Y3096224D02*
G01*
X3394374Y3096221D01*
X3478852Y2791218D02*
G01*
X3478852Y2870225D01*
X3379132Y2870225D02*
G01*
X3379134Y2791216D01*
X3463610Y2885465D02*
G01*
X3394372Y2885462D01*
X3379132Y2666964D02*
G01*
X3379132Y2745971D01*
X3478850Y2745973D02*
G01*
X3478852Y2666964D01*
X3463612Y2651726D02*
G01*
X3394374Y2651724D01*
X3580452Y2791218D02*
G01*
X3580452Y2870225D01*
X3480732Y2870225D02*
G01*
X3480734Y2791216D01*
X3565210Y2885465D02*
G01*
X3495972Y2885462D01*
X3480732Y2666964D02*
G01*
X3480732Y2745971D01*
X3580450Y2745973D02*
G01*
X3580452Y2666964D01*
X3565212Y2651726D02*
G01*
X3495974Y2651724D01*
D12*
X3542543Y2442700D02*
G01*
X3602487Y2442700D01*
X3602487Y2497818D01*
X3402487Y2462715D02*
G01*
X3402487Y2642725D01*
X3582497Y2642725D01*
X3582497Y2462715D01*
X3402487Y2462715D01*
D13*
X4246092Y5575515D02*
G01*
X4212092Y5575515D01*
X4054086Y5540288D02*
G01*
X4054086Y5530286D01*
X4084081Y5500283D01*
X4269087Y5650290D02*
G01*
X4384088Y5650290D01*
X4269087Y5500283D02*
G01*
X4384088Y5500283D01*
X4189087Y5650290D02*
G01*
X4084081Y5650290D01*
X4189087Y5500283D02*
G01*
X4084081Y5500283D01*
X4384088Y5650278D02*
G01*
X4384088Y5502287D01*
X4054086Y5610280D02*
G01*
X4054086Y5540288D01*
X4054086Y5610280D02*
G01*
X4054086Y5620296D01*
X4084081Y5650290D01*
X4246092Y5610288D02*
G01*
X4246092Y5542290D01*
D11*
X4074030Y5291579D02*
G01*
X4074030Y5451584D01*
X4384088Y5292089D02*
G01*
X4384088Y5452094D01*
X4199026Y5451584D02*
G01*
X4074030Y5451584D01*
X4199026Y5291579D02*
G01*
X4074030Y5291579D01*
X4259084Y5452094D02*
G01*
X4384088Y5452094D01*
X4259084Y5292089D02*
G01*
X4384088Y5292089D01*
D10*
G75*
G01*
X4418653Y3581423D02*
G03*
X4403413Y3596663I-15240J0D01*
G75*
G01*
X4334172Y3596663D02*
G03*
X4318932Y3581423I0J-15240D01*
G75*
G01*
X4418653Y3378162D02*
G02*
X4403413Y3362922I-15240J0D01*
G75*
G01*
X4334172Y3362922D02*
G02*
X4318932Y3378162I0J15240D01*
G75*
G01*
X4025862Y3516953D02*
G03*
X4010622Y3501713I0J-15240D01*
G75*
G01*
X4010622Y3432472D02*
G03*
X4025862Y3417232I15240J0D01*
G75*
G01*
X4229123Y3516953D02*
G02*
X4244363Y3501713I0J-15240D01*
G75*
G01*
X4244363Y3432472D02*
G02*
X4229123Y3417232I-15240J0D01*
G75*
G01*
X4420530Y3378162D02*
G03*
X4435772Y3362922I15240J0D01*
G75*
G01*
X4505010Y3362924D02*
G03*
X4520250Y3378162I0J15240D01*
G75*
G01*
X4420530Y3581423D02*
G02*
X4435770Y3596660I15240J-3D01*
G75*
G01*
X4505008Y3596663D02*
G02*
X4520250Y3581423I2J-15240D01*
G75*
G01*
X3352762Y2424755D02*
G03*
X3337522Y2409513I0J-15240D01*
G75*
G01*
X3337524Y2340275D02*
G03*
X3352762Y2325035I15240J0D01*
G75*
G01*
X3556023Y2424755D02*
G02*
X3571260Y2409515I-3J-15240D01*
G75*
G01*
X3571263Y2340277D02*
G02*
X3556023Y2325035I-15240J-2D01*
G75*
G01*
X4063959Y2424755D02*
G03*
X4048719Y2409513I0J-15240D01*
G75*
G01*
X4048722Y2340275D02*
G03*
X4063959Y2325035I15240J0D01*
G75*
G01*
X4267220Y2424755D02*
G02*
X4282458Y2409515I-2J-15240D01*
G75*
G01*
X4282460Y2340277D02*
G02*
X4267220Y2325035I-15240J-2D01*
G75*
G01*
X4063959Y2526355D02*
G03*
X4048719Y2511113I0J-15240D01*
G75*
G01*
X4048722Y2441875D02*
G03*
X4063959Y2426635I15240J0D01*
G75*
G01*
X4267220Y2526355D02*
G02*
X4282458Y2511115I-2J-15240D01*
G75*
G01*
X4282460Y2441877D02*
G02*
X4267220Y2426635I-15240J-2D01*
G75*
G01*
X4317959Y2526355D02*
G03*
X4302719Y2511113I0J-15240D01*
G75*
G01*
X4302722Y2441875D02*
G03*
X4317959Y2426635I15240J0D01*
G75*
G01*
X4521220Y2526355D02*
G02*
X4536458Y2511115I-2J-15240D01*
G75*
G01*
X4536460Y2441877D02*
G02*
X4521220Y2426635I-15240J-2D01*
G75*
G01*
X4229120Y3518832D02*
G03*
X4244360Y3534075I0J15240D01*
G75*
G01*
X4244358Y3603313D02*
G03*
X4229120Y3618553I-15240J0D01*
G75*
G01*
X4025859Y3518832D02*
G02*
X4010622Y3534072I3J15240D01*
G75*
G01*
X4010619Y3603310D02*
G02*
X4025859Y3618553I15240J3D01*
G75*
G01*
X4317959Y2627955D02*
G03*
X4302719Y2612713I0J-15240D01*
G75*
G01*
X4302722Y2543475D02*
G03*
X4317959Y2528235I15240J0D01*
G75*
G01*
X4521220Y2627955D02*
G02*
X4536458Y2612715I-2J-15240D01*
G75*
G01*
X4536460Y2543477D02*
G02*
X4521220Y2528235I-15240J-2D01*
G75*
G01*
X4433230Y2832064D02*
G03*
X4448472Y2816824I15240J0D01*
G75*
G01*
X4517710Y2816827D02*
G03*
X4532950Y2832064I0J15240D01*
G75*
G01*
X4433230Y3035325D02*
G02*
X4448470Y3050563I15240J-2D01*
G75*
G01*
X4517708Y3050565D02*
G02*
X4532950Y3035325I2J-15240D01*
G75*
G01*
X3580453Y3314723D02*
G03*
X3565210Y3329963I-15240J0D01*
G75*
G01*
X3495972Y3329960D02*
G03*
X3480732Y3314723I0J-15240D01*
G75*
G01*
X3580453Y3111462D02*
G02*
X3565213Y3096224I-15240J2D01*
G75*
G01*
X3495975Y3096222D02*
G02*
X3480732Y3111462I-3J15240D01*
G75*
G01*
X3478853Y3314723D02*
G03*
X3463610Y3329963I-15240J0D01*
G75*
G01*
X3394372Y3329960D02*
G03*
X3379132Y3314723I0J-15240D01*
G75*
G01*
X3478853Y3111462D02*
G02*
X3463613Y3096224I-15240J2D01*
G75*
G01*
X3394375Y3096222D02*
G02*
X3379132Y3111462I-3J15240D01*
G75*
G01*
X3478853Y2870225D02*
G03*
X3463610Y2885465I-15240J0D01*
G75*
G01*
X3394372Y2885463D02*
G03*
X3379132Y2870225I0J-15240D01*
G75*
G01*
X3478853Y2666964D02*
G02*
X3463613Y2651727I-15240J3D01*
G75*
G01*
X3394375Y2651724D02*
G02*
X3379132Y2666964I-3J15240D01*
G75*
G01*
X3580453Y2870225D02*
G03*
X3565210Y2885465I-15240J0D01*
G75*
G01*
X3495972Y2885463D02*
G03*
X3480732Y2870225I0J-15240D01*
G75*
G01*
X3580453Y2666964D02*
G02*
X3565213Y2651727I-15240J3D01*
G75*
G01*
X3495975Y2651724D02*
G02*
X3480732Y2666964I-3J15240D01*
D11*
G75*
G01
X3403618Y1562092D02*
G03X3403618Y1562092I-12700J0D01*
G75*
G01
X4013218Y1562092D02*
G03X4013218Y1562092I-12700J0D01*
G75*
G01
X3638593Y3367194D02*
G03X3638593Y3367194I-12700J0D01*
D14*
G75*
G01
X3743800Y3403592D02*
G03X3743800Y3403592I-10008J0D01*
D11*
X4444992Y5714992D02*
G01*
X4952992Y5714992D01*
X4952992Y5206992D01*
X4444992Y5206992D01*
X4444992Y5714992D01*
X3301992Y3619492D02*
G01*
X4546592Y3619492D01*
X4546592Y2209792D01*
X3301992Y2209792D01*
X3301992Y3619492D01*
X4756574Y4340598D02*
G01*
X5606585Y4340598D01*
X5606585Y1490591D01*
X4756574Y1490591D01*
X4756574Y4340598D01*
X235399Y4351393D02*
G01*
X1085410Y4351393D01*
X1085410Y1501386D01*
X235399Y1501386D01*
X235399Y4351393D01*
X3416292Y380992D02*
G01*
X4940292Y380992D01*
X4940292Y126992D01*
X3416292Y126992D01*
X3416292Y380992D01*
M02*
