G04 Layer: TopSilkscreenLayer*
G04 Panelize: , Column: 2, Row: 2, Board Size: 58.42mm x 58.42mm, Panelized Board Size: 118.84mm x 118.84mm*
G04 EasyEDA v6.5.32, 2023-07-25 14:04:49*
G04 2213a410c616409eb271ed70bd61ba3f,5a6b42c53f6a479593ecc07194224c93,10*
G04 Gerber Generator version 0.2*
G04 Scale: 100 percent, Rotated: No, Reflected: No *
G04 Dimensions in millimeters *
G04 leading zeros omitted , absolute positions ,4 integer and 5 decimal *
%FSLAX45Y45*%
%MOMM*%

%ADD10C,0.1524*%

%LPD*%
D10*
X762000Y5423915D02*
G01*
X762000Y5314950D01*
X762000Y5423915D02*
G01*
X808736Y5423915D01*
X824229Y5418836D01*
X829563Y5413502D01*
X834644Y5403087D01*
X834644Y5387594D01*
X829563Y5377179D01*
X824229Y5372100D01*
X808736Y5366765D01*
X762000Y5366765D01*
X910589Y5423915D02*
G01*
X868934Y5314950D01*
X910589Y5423915D02*
G01*
X952245Y5314950D01*
X884681Y5351271D02*
G01*
X936497Y5351271D01*
X986536Y5423915D02*
G01*
X986536Y5314950D01*
X986536Y5423915D02*
G01*
X1033271Y5423915D01*
X1048765Y5418836D01*
X1054100Y5413502D01*
X1059179Y5403087D01*
X1059179Y5392673D01*
X1054100Y5382260D01*
X1048765Y5377179D01*
X1033271Y5372100D01*
X986536Y5372100D01*
X1022857Y5372100D02*
G01*
X1059179Y5314950D01*
X1129792Y5423915D02*
G01*
X1129792Y5314950D01*
X1093470Y5423915D02*
G01*
X1166113Y5423915D01*
X1280413Y5423915D02*
G01*
X1280413Y5314950D01*
X1280413Y5423915D02*
G01*
X1353312Y5314950D01*
X1353312Y5423915D02*
G01*
X1353312Y5314950D01*
X1387602Y5423915D02*
G01*
X1387602Y5345937D01*
X1392681Y5330444D01*
X1403095Y5320029D01*
X1418589Y5314950D01*
X1429004Y5314950D01*
X1444752Y5320029D01*
X1455165Y5330444D01*
X1460245Y5345937D01*
X1460245Y5423915D01*
X1494536Y5423915D02*
G01*
X1494536Y5314950D01*
X1494536Y5423915D02*
G01*
X1536192Y5314950D01*
X1577594Y5423915D02*
G01*
X1536192Y5314950D01*
X1577594Y5423915D02*
G01*
X1577594Y5314950D01*
X1611884Y5423915D02*
G01*
X1611884Y5314950D01*
X1611884Y5423915D02*
G01*
X1658620Y5423915D01*
X1674368Y5418836D01*
X1679447Y5413502D01*
X1684781Y5403087D01*
X1684781Y5392673D01*
X1679447Y5382260D01*
X1674368Y5377179D01*
X1658620Y5372100D01*
X1611884Y5372100D02*
G01*
X1658620Y5372100D01*
X1674368Y5366765D01*
X1679447Y5361686D01*
X1684781Y5351271D01*
X1684781Y5335523D01*
X1679447Y5325110D01*
X1674368Y5320029D01*
X1658620Y5314950D01*
X1611884Y5314950D01*
X1719071Y5423915D02*
G01*
X1719071Y5314950D01*
X1719071Y5423915D02*
G01*
X1786636Y5423915D01*
X1719071Y5372100D02*
G01*
X1760473Y5372100D01*
X1719071Y5314950D02*
G01*
X1786636Y5314950D01*
X1820926Y5423915D02*
G01*
X1820926Y5314950D01*
X1820926Y5423915D02*
G01*
X1867662Y5423915D01*
X1883155Y5418836D01*
X1888489Y5413502D01*
X1893570Y5403087D01*
X1893570Y5392673D01*
X1888489Y5382260D01*
X1883155Y5377179D01*
X1867662Y5372100D01*
X1820926Y5372100D01*
X1857247Y5372100D02*
G01*
X1893570Y5314950D01*
X2007870Y5403087D02*
G01*
X2018284Y5408421D01*
X2033777Y5423915D01*
X2033777Y5314950D01*
X2099309Y5423915D02*
G01*
X2083815Y5418836D01*
X2073402Y5403087D01*
X2068068Y5377179D01*
X2068068Y5361686D01*
X2073402Y5335523D01*
X2083815Y5320029D01*
X2099309Y5314950D01*
X2109724Y5314950D01*
X2125218Y5320029D01*
X2135631Y5335523D01*
X2140965Y5361686D01*
X2140965Y5377179D01*
X2135631Y5403087D01*
X2125218Y5418836D01*
X2109724Y5423915D01*
X2099309Y5423915D01*
X2185670Y5423915D02*
G01*
X2242820Y5423915D01*
X2211577Y5382260D01*
X2227072Y5382260D01*
X2237486Y5377179D01*
X2242820Y5372100D01*
X2247900Y5356352D01*
X2247900Y5345937D01*
X2242820Y5330444D01*
X2232406Y5320029D01*
X2216658Y5314950D01*
X2201163Y5314950D01*
X2185670Y5320029D01*
X2180336Y5325110D01*
X2175256Y5335523D01*
X2354834Y5423915D02*
G01*
X2303018Y5314950D01*
X2282190Y5423915D02*
G01*
X2354834Y5423915D01*
X2389124Y5361686D02*
G01*
X2482850Y5361686D01*
X2548127Y5423915D02*
G01*
X2532634Y5418836D01*
X2522220Y5403087D01*
X2517140Y5377179D01*
X2517140Y5361686D01*
X2522220Y5335523D01*
X2532634Y5320029D01*
X2548127Y5314950D01*
X2558541Y5314950D01*
X2574290Y5320029D01*
X2584450Y5335523D01*
X2589784Y5361686D01*
X2589784Y5377179D01*
X2584450Y5403087D01*
X2574290Y5418836D01*
X2558541Y5423915D01*
X2548127Y5423915D01*
X2629154Y5398007D02*
G01*
X2629154Y5403087D01*
X2634488Y5413502D01*
X2639568Y5418836D01*
X2649981Y5423915D01*
X2670809Y5423915D01*
X2681224Y5418836D01*
X2686304Y5413502D01*
X2691638Y5403087D01*
X2691638Y5392673D01*
X2686304Y5382260D01*
X2675890Y5366765D01*
X2624074Y5314950D01*
X2696718Y5314950D01*
X2762250Y5423915D02*
G01*
X2746756Y5418836D01*
X2736341Y5403087D01*
X2731008Y5377179D01*
X2731008Y5361686D01*
X2736341Y5335523D01*
X2746756Y5320029D01*
X2762250Y5314950D01*
X2772663Y5314950D01*
X2788158Y5320029D01*
X2798572Y5335523D01*
X2803906Y5361686D01*
X2803906Y5377179D01*
X2798572Y5403087D01*
X2788158Y5418836D01*
X2772663Y5423915D01*
X2762250Y5423915D01*
X2838195Y5403087D02*
G01*
X2848609Y5408421D01*
X2864104Y5423915D01*
X2864104Y5314950D01*
X762000Y5601715D02*
G01*
X762000Y5492750D01*
X762000Y5601715D02*
G01*
X808736Y5601715D01*
X824229Y5596636D01*
X829563Y5591302D01*
X834644Y5580887D01*
X834644Y5565394D01*
X829563Y5554979D01*
X824229Y5549900D01*
X808736Y5544565D01*
X762000Y5544565D01*
X868934Y5601715D02*
G01*
X868934Y5492750D01*
X868934Y5601715D02*
G01*
X915670Y5601715D01*
X931418Y5596636D01*
X936497Y5591302D01*
X941831Y5580887D01*
X941831Y5570473D01*
X936497Y5560060D01*
X931418Y5554979D01*
X915670Y5549900D01*
X868934Y5549900D01*
X905510Y5549900D02*
G01*
X941831Y5492750D01*
X1007110Y5601715D02*
G01*
X996950Y5596636D01*
X986536Y5586221D01*
X981202Y5575807D01*
X976121Y5560060D01*
X976121Y5534152D01*
X981202Y5518657D01*
X986536Y5508244D01*
X996950Y5497829D01*
X1007110Y5492750D01*
X1027937Y5492750D01*
X1038352Y5497829D01*
X1048765Y5508244D01*
X1054100Y5518657D01*
X1059179Y5534152D01*
X1059179Y5560060D01*
X1054100Y5575807D01*
X1048765Y5586221D01*
X1038352Y5596636D01*
X1027937Y5601715D01*
X1007110Y5601715D01*
X1129792Y5601715D02*
G01*
X1129792Y5492750D01*
X1093470Y5601715D02*
G01*
X1166113Y5601715D01*
X1231645Y5601715D02*
G01*
X1221231Y5596636D01*
X1210818Y5586221D01*
X1205737Y5575807D01*
X1200404Y5560060D01*
X1200404Y5534152D01*
X1205737Y5518657D01*
X1210818Y5508244D01*
X1221231Y5497829D01*
X1231645Y5492750D01*
X1252473Y5492750D01*
X1262887Y5497829D01*
X1273302Y5508244D01*
X1278381Y5518657D01*
X1283715Y5534152D01*
X1283715Y5560060D01*
X1278381Y5575807D01*
X1273302Y5586221D01*
X1262887Y5596636D01*
X1252473Y5601715D01*
X1231645Y5601715D01*
X1318005Y5601715D02*
G01*
X1318005Y5492750D01*
X1318005Y5601715D02*
G01*
X1390650Y5492750D01*
X1390650Y5601715D02*
G01*
X1390650Y5492750D01*
X1424939Y5601715D02*
G01*
X1424939Y5492750D01*
X1424939Y5601715D02*
G01*
X1492504Y5601715D01*
X1424939Y5549900D02*
G01*
X1466595Y5549900D01*
X1424939Y5492750D02*
G01*
X1492504Y5492750D01*
X1526794Y5601715D02*
G01*
X1526794Y5492750D01*
X1526794Y5601715D02*
G01*
X1568450Y5492750D01*
X1609852Y5601715D02*
G01*
X1568450Y5492750D01*
X1609852Y5601715D02*
G01*
X1609852Y5492750D01*
X1685797Y5601715D02*
G01*
X1644142Y5492750D01*
X1685797Y5601715D02*
G01*
X1727200Y5492750D01*
X1659889Y5529071D02*
G01*
X1711705Y5529071D01*
X1841500Y5601715D02*
G01*
X1841500Y5492750D01*
X1841500Y5492750D02*
G01*
X1903984Y5492750D01*
X2016252Y5575807D02*
G01*
X2010918Y5586221D01*
X2000504Y5596636D01*
X1990090Y5601715D01*
X1969515Y5601715D01*
X1959102Y5596636D01*
X1948688Y5586221D01*
X1943354Y5575807D01*
X1938274Y5560060D01*
X1938274Y5534152D01*
X1943354Y5518657D01*
X1948688Y5508244D01*
X1959102Y5497829D01*
X1969515Y5492750D01*
X1990090Y5492750D01*
X2000504Y5497829D01*
X2010918Y5508244D01*
X2016252Y5518657D01*
X2050541Y5601715D02*
G01*
X2050541Y5492750D01*
X2050541Y5601715D02*
G01*
X2086863Y5601715D01*
X2102358Y5596636D01*
X2112772Y5586221D01*
X2118106Y5575807D01*
X2123186Y5560060D01*
X2123186Y5534152D01*
X2118106Y5518657D01*
X2112772Y5508244D01*
X2102358Y5497829D01*
X2086863Y5492750D01*
X2050541Y5492750D01*
X2237486Y5601715D02*
G01*
X2237486Y5492750D01*
X2237486Y5601715D02*
G01*
X2305050Y5601715D01*
X2237486Y5549900D02*
G01*
X2279141Y5549900D01*
X2339340Y5601715D02*
G01*
X2339340Y5492750D01*
X2339340Y5601715D02*
G01*
X2386075Y5601715D01*
X2401570Y5596636D01*
X2406904Y5591302D01*
X2411984Y5580887D01*
X2411984Y5570473D01*
X2406904Y5560060D01*
X2401570Y5554979D01*
X2386075Y5549900D01*
X2339340Y5549900D01*
X2375661Y5549900D02*
G01*
X2411984Y5492750D01*
X2477515Y5601715D02*
G01*
X2467102Y5596636D01*
X2456688Y5586221D01*
X2451608Y5575807D01*
X2446274Y5560060D01*
X2446274Y5534152D01*
X2451608Y5518657D01*
X2456688Y5508244D01*
X2467102Y5497829D01*
X2477515Y5492750D01*
X2498343Y5492750D01*
X2508758Y5497829D01*
X2519172Y5508244D01*
X2524252Y5518657D01*
X2529586Y5534152D01*
X2529586Y5560060D01*
X2524252Y5575807D01*
X2519172Y5586221D01*
X2508758Y5596636D01*
X2498343Y5601715D01*
X2477515Y5601715D01*
X2563875Y5601715D02*
G01*
X2563875Y5492750D01*
X2563875Y5601715D02*
G01*
X2636520Y5492750D01*
X2636520Y5601715D02*
G01*
X2636520Y5492750D01*
X2707131Y5601715D02*
G01*
X2707131Y5492750D01*
X2670809Y5601715D02*
G01*
X2743454Y5601715D01*
X2857754Y5601715D02*
G01*
X2857754Y5492750D01*
X2857754Y5601715D02*
G01*
X2904490Y5601715D01*
X2920238Y5596636D01*
X2925318Y5591302D01*
X2930652Y5580887D01*
X2930652Y5565394D01*
X2925318Y5554979D01*
X2920238Y5549900D01*
X2904490Y5544565D01*
X2857754Y5544565D01*
X3006343Y5601715D02*
G01*
X2964941Y5492750D01*
X3006343Y5601715D02*
G01*
X3048000Y5492750D01*
X2980436Y5529071D02*
G01*
X3032506Y5529071D01*
X3082290Y5601715D02*
G01*
X3082290Y5492750D01*
X3082290Y5601715D02*
G01*
X3154934Y5492750D01*
X3154934Y5601715D02*
G01*
X3154934Y5492750D01*
X3189224Y5601715D02*
G01*
X3189224Y5492750D01*
X3189224Y5601715D02*
G01*
X3256788Y5601715D01*
X3189224Y5549900D02*
G01*
X3230879Y5549900D01*
X3189224Y5492750D02*
G01*
X3256788Y5492750D01*
X3291077Y5601715D02*
G01*
X3291077Y5492750D01*
X3291077Y5492750D02*
G01*
X3353561Y5492750D01*
X3467861Y5601715D02*
G01*
X3509263Y5492750D01*
X3550920Y5601715D02*
G01*
X3509263Y5492750D01*
X3585209Y5580887D02*
G01*
X3595624Y5586221D01*
X3611118Y5601715D01*
X3611118Y5492750D01*
X3650741Y5518657D02*
G01*
X3645408Y5513323D01*
X3650741Y5508244D01*
X3655822Y5513323D01*
X3650741Y5518657D01*
X3690111Y5580887D02*
G01*
X3700525Y5586221D01*
X3716020Y5601715D01*
X3716020Y5492750D01*
X4820645Y4571220D02*
G01*
X4820645Y4498576D01*
X4816073Y4484860D01*
X4811501Y4480288D01*
X4802357Y4475716D01*
X4793467Y4475716D01*
X4784323Y4480288D01*
X4779751Y4484860D01*
X4775179Y4498576D01*
X4775179Y4507720D01*
X4855189Y4548614D02*
G01*
X4855189Y4553186D01*
X4859761Y4562076D01*
X4864333Y4566648D01*
X4873477Y4571220D01*
X4891511Y4571220D01*
X4900655Y4566648D01*
X4905227Y4562076D01*
X4909799Y4553186D01*
X4909799Y4544042D01*
X4905227Y4534898D01*
X4896083Y4521182D01*
X4850617Y4475716D01*
X4914371Y4475716D01*
X4318000Y3880357D02*
G01*
X4318000Y3765804D01*
X4318000Y3880357D02*
G01*
X4367022Y3880357D01*
X4383531Y3874770D01*
X4388865Y3869436D01*
X4394454Y3858513D01*
X4394454Y3847592D01*
X4388865Y3836670D01*
X4383531Y3831081D01*
X4367022Y3825747D01*
X4318000Y3825747D02*
G01*
X4367022Y3825747D01*
X4383531Y3820160D01*
X4388865Y3814826D01*
X4394454Y3803904D01*
X4394454Y3787647D01*
X4388865Y3776726D01*
X4383531Y3771137D01*
X4367022Y3765804D01*
X4318000Y3765804D01*
X4430268Y3880357D02*
G01*
X4430268Y3765804D01*
X4430268Y3765804D02*
G01*
X4495800Y3765804D01*
X4531868Y3880357D02*
G01*
X4531868Y3765804D01*
X4608068Y3880357D02*
G01*
X4531868Y3803904D01*
X4559045Y3831081D02*
G01*
X4608068Y3765804D01*
X4419600Y3372357D02*
G01*
X4419600Y3257804D01*
X4419600Y3372357D02*
G01*
X4457700Y3372357D01*
X4474209Y3366770D01*
X4485131Y3355847D01*
X4490465Y3344926D01*
X4496054Y3328670D01*
X4496054Y3301492D01*
X4490465Y3284981D01*
X4485131Y3274060D01*
X4474209Y3263137D01*
X4457700Y3257804D01*
X4419600Y3257804D01*
X4613656Y3344926D02*
G01*
X4608322Y3355847D01*
X4597400Y3366770D01*
X4586477Y3372357D01*
X4564634Y3372357D01*
X4553711Y3366770D01*
X4542790Y3355847D01*
X4537456Y3344926D01*
X4531868Y3328670D01*
X4531868Y3301492D01*
X4537456Y3284981D01*
X4542790Y3274060D01*
X4553711Y3263137D01*
X4564634Y3257804D01*
X4586477Y3257804D01*
X4597400Y3263137D01*
X4608322Y3274060D01*
X4613656Y3284981D01*
X4318000Y3118357D02*
G01*
X4318000Y3003804D01*
X4318000Y3118357D02*
G01*
X4367022Y3118357D01*
X4383531Y3112770D01*
X4388865Y3107436D01*
X4394454Y3096513D01*
X4394454Y3085592D01*
X4388865Y3074670D01*
X4383531Y3069081D01*
X4367022Y3063747D01*
X4318000Y3063747D01*
X4356100Y3063747D02*
G01*
X4394454Y3003804D01*
X4506722Y3101847D02*
G01*
X4495800Y3112770D01*
X4479543Y3118357D01*
X4457700Y3118357D01*
X4441190Y3112770D01*
X4430268Y3101847D01*
X4430268Y3090926D01*
X4435856Y3080004D01*
X4441190Y3074670D01*
X4452111Y3069081D01*
X4484877Y3058413D01*
X4495800Y3052826D01*
X4501388Y3047492D01*
X4506722Y3036570D01*
X4506722Y3020060D01*
X4495800Y3009137D01*
X4479543Y3003804D01*
X4457700Y3003804D01*
X4441190Y3009137D01*
X4430268Y3020060D01*
X4580890Y3118357D02*
G01*
X4580890Y3003804D01*
X4542790Y3118357D02*
G01*
X4618990Y3118357D01*
X4394454Y2593847D02*
G01*
X4383531Y2604770D01*
X4367022Y2610357D01*
X4345177Y2610357D01*
X4328922Y2604770D01*
X4318000Y2593847D01*
X4318000Y2582926D01*
X4323334Y2572004D01*
X4328922Y2566670D01*
X4339843Y2561081D01*
X4372609Y2550160D01*
X4383531Y2544826D01*
X4388865Y2539492D01*
X4394454Y2528570D01*
X4394454Y2512060D01*
X4383531Y2501137D01*
X4367022Y2495804D01*
X4345177Y2495804D01*
X4328922Y2501137D01*
X4318000Y2512060D01*
X4512056Y2582926D02*
G01*
X4506722Y2593847D01*
X4495800Y2604770D01*
X4484877Y2610357D01*
X4463034Y2610357D01*
X4452111Y2604770D01*
X4441190Y2593847D01*
X4435856Y2582926D01*
X4430268Y2566670D01*
X4430268Y2539492D01*
X4435856Y2522981D01*
X4441190Y2512060D01*
X4452111Y2501137D01*
X4463034Y2495804D01*
X4484877Y2495804D01*
X4495800Y2501137D01*
X4506722Y2512060D01*
X4512056Y2522981D01*
X4548124Y2610357D02*
G01*
X4548124Y2495804D01*
X4548124Y2495804D02*
G01*
X4613656Y2495804D01*
X4013192Y3626350D02*
G01*
X4013192Y3511796D01*
X4013192Y3511796D02*
G01*
X4078724Y3511796D01*
X4196580Y3598918D02*
G01*
X4190992Y3609840D01*
X4180070Y3620762D01*
X4169148Y3626350D01*
X4147304Y3626350D01*
X4136382Y3620762D01*
X4125460Y3609840D01*
X4120126Y3598918D01*
X4114538Y3582662D01*
X4114538Y3555484D01*
X4120126Y3538974D01*
X4125460Y3528052D01*
X4136382Y3517130D01*
X4147304Y3511796D01*
X4169148Y3511796D01*
X4180070Y3517130D01*
X4190992Y3528052D01*
X4196580Y3538974D01*
X4232394Y3626350D02*
G01*
X4232394Y3511796D01*
X4232394Y3626350D02*
G01*
X4270748Y3626350D01*
X4287004Y3620762D01*
X4297926Y3609840D01*
X4303260Y3598918D01*
X4308848Y3582662D01*
X4308848Y3555484D01*
X4303260Y3538974D01*
X4297926Y3528052D01*
X4287004Y3517130D01*
X4270748Y3511796D01*
X4232394Y3511796D01*
X4510524Y3598918D02*
G01*
X4505190Y3609840D01*
X4494268Y3620762D01*
X4483346Y3626350D01*
X4461502Y3626350D01*
X4450580Y3620762D01*
X4439658Y3609840D01*
X4434324Y3598918D01*
X4428736Y3582662D01*
X4428736Y3555484D01*
X4434324Y3538974D01*
X4439658Y3528052D01*
X4450580Y3517130D01*
X4461502Y3511796D01*
X4483346Y3511796D01*
X4494268Y3517130D01*
X4505190Y3528052D01*
X4510524Y3538974D01*
X4623046Y3609840D02*
G01*
X4612124Y3620762D01*
X4595614Y3626350D01*
X4574024Y3626350D01*
X4557514Y3620762D01*
X4546592Y3609840D01*
X4546592Y3598918D01*
X4552180Y3587996D01*
X4557514Y3582662D01*
X4568436Y3577074D01*
X4601202Y3566406D01*
X4612124Y3560818D01*
X4617458Y3555484D01*
X4623046Y3544562D01*
X4623046Y3528052D01*
X4612124Y3517130D01*
X4595614Y3511796D01*
X4574024Y3511796D01*
X4557514Y3517130D01*
X4546592Y3528052D01*
X4470638Y2847837D02*
G01*
X4459716Y2858759D01*
X4443206Y2864347D01*
X4421362Y2864347D01*
X4405106Y2858759D01*
X4394184Y2847837D01*
X4394184Y2836915D01*
X4399518Y2825993D01*
X4405106Y2820659D01*
X4416028Y2815071D01*
X4448794Y2804403D01*
X4459716Y2798815D01*
X4465050Y2793481D01*
X4470638Y2782559D01*
X4470638Y2766049D01*
X4459716Y2755127D01*
X4443206Y2749793D01*
X4421362Y2749793D01*
X4405106Y2755127D01*
X4394184Y2766049D01*
X4506452Y2864347D02*
G01*
X4506452Y2749793D01*
X4506452Y2864347D02*
G01*
X4544806Y2864347D01*
X4561062Y2858759D01*
X4571984Y2847837D01*
X4577572Y2836915D01*
X4582906Y2820659D01*
X4582906Y2793481D01*
X4577572Y2776971D01*
X4571984Y2766049D01*
X4561062Y2755127D01*
X4544806Y2749793D01*
X4506452Y2749793D01*
X4618974Y2864347D02*
G01*
X4618974Y2749793D01*
X4369046Y2339842D02*
G01*
X4358124Y2350764D01*
X4341614Y2356352D01*
X4319770Y2356352D01*
X4303514Y2350764D01*
X4292592Y2339842D01*
X4292592Y2328920D01*
X4297926Y2317998D01*
X4303514Y2312664D01*
X4314436Y2307076D01*
X4347202Y2296408D01*
X4358124Y2290820D01*
X4363458Y2285486D01*
X4369046Y2274564D01*
X4369046Y2258054D01*
X4358124Y2247132D01*
X4341614Y2241798D01*
X4319770Y2241798D01*
X4303514Y2247132D01*
X4292592Y2258054D01*
X4404860Y2356352D02*
G01*
X4404860Y2241798D01*
X4404860Y2356352D02*
G01*
X4443214Y2356352D01*
X4459470Y2350764D01*
X4470392Y2339842D01*
X4475980Y2328920D01*
X4481314Y2312664D01*
X4481314Y2285486D01*
X4475980Y2268976D01*
X4470392Y2258054D01*
X4459470Y2247132D01*
X4443214Y2241798D01*
X4404860Y2241798D01*
X4550148Y2356352D02*
G01*
X4539226Y2350764D01*
X4528304Y2339842D01*
X4522716Y2328920D01*
X4517382Y2312664D01*
X4517382Y2285486D01*
X4522716Y2268976D01*
X4528304Y2258054D01*
X4539226Y2247132D01*
X4550148Y2241798D01*
X4571738Y2241798D01*
X4582660Y2247132D01*
X4593582Y2258054D01*
X4599170Y2268976D01*
X4604504Y2285486D01*
X4604504Y2312664D01*
X4599170Y2328920D01*
X4593582Y2339842D01*
X4582660Y2350764D01*
X4571738Y2356352D01*
X4550148Y2356352D01*
X4171180Y2074920D02*
G01*
X4165846Y2085842D01*
X4154924Y2096764D01*
X4144002Y2102352D01*
X4122158Y2102352D01*
X4111236Y2096764D01*
X4100314Y2085842D01*
X4094726Y2074920D01*
X4089392Y2058664D01*
X4089392Y2031486D01*
X4094726Y2014976D01*
X4100314Y2004054D01*
X4111236Y1993132D01*
X4122158Y1987798D01*
X4144002Y1987798D01*
X4154924Y1993132D01*
X4165846Y2004054D01*
X4171180Y2014976D01*
X4289036Y2074920D02*
G01*
X4283448Y2085842D01*
X4272780Y2096764D01*
X4261858Y2102352D01*
X4240014Y2102352D01*
X4229092Y2096764D01*
X4218170Y2085842D01*
X4212582Y2074920D01*
X4207248Y2058664D01*
X4207248Y2031486D01*
X4212582Y2014976D01*
X4218170Y2004054D01*
X4229092Y1993132D01*
X4240014Y1987798D01*
X4261858Y1987798D01*
X4272780Y1993132D01*
X4283448Y2004054D01*
X4289036Y2014976D01*
X4289036Y2031486D01*
X4261858Y2031486D02*
G01*
X4289036Y2031486D01*
X4490966Y2074920D02*
G01*
X4485378Y2085842D01*
X4474456Y2096764D01*
X4463534Y2102352D01*
X4441690Y2102352D01*
X4430768Y2096764D01*
X4419846Y2085842D01*
X4414512Y2074920D01*
X4408924Y2058664D01*
X4408924Y2031486D01*
X4414512Y2014976D01*
X4419846Y2004054D01*
X4430768Y1993132D01*
X4441690Y1987798D01*
X4463534Y1987798D01*
X4474456Y1993132D01*
X4485378Y2004054D01*
X4490966Y2014976D01*
X4603234Y2085842D02*
G01*
X4592312Y2096764D01*
X4576056Y2102352D01*
X4554212Y2102352D01*
X4537702Y2096764D01*
X4526780Y2085842D01*
X4526780Y2074920D01*
X4532368Y2063998D01*
X4537702Y2058664D01*
X4548624Y2053076D01*
X4581390Y2042408D01*
X4592312Y2036820D01*
X4597646Y2031486D01*
X4603234Y2020564D01*
X4603234Y2004054D01*
X4592312Y1993132D01*
X4576056Y1987798D01*
X4554212Y1987798D01*
X4537702Y1993132D01*
X4526780Y2004054D01*
M02*
