G04 Layer: BottomLayer*
G04 Panelize: Stamp Hole, Column: 2, Row: 2, Board Size: 58.42mm x 58.42mm, Panelized Board Size: 122.84mm x 122.84mm*
G04 EasyEDA v6.5.32, 2023-07-30 21:55:26*
G04 0189717723f44532b496580ac8dbca45,5a6b42c53f6a479593ecc07194224c93,10*
G04 Gerber Generator version 0.2*
G04 Scale: 100 percent, Rotated: No, Reflected: No *
G04 Dimensions in millimeters *
G04 leading zeros omitted , absolute positions ,4 integer and 5 decimal *
%FSLAX45Y45*%
%MOMM*%

%ADD10C,0.1524*%
%ADD11C,0.5000*%
%ADD12C,1.0000*%
%ADD13O,1.9999959999999999X1.0999978000000001*%
%ADD14C,5.0000*%
%ADD15C,1.8000*%
%ADD16C,1.7000*%
%ADD17C,2.0000*%
%ADD18C,0.6096*%
%ADD19C,0.0112*%

%LPD*%
G36*
X5805932Y25908D02*
G01*
X36068Y26416D01*
X32156Y27178D01*
X28905Y29362D01*
X26670Y32664D01*
X25908Y36576D01*
X25908Y5805932D01*
X26670Y5809843D01*
X28905Y5813094D01*
X32156Y5815330D01*
X36068Y5816092D01*
X2555240Y5816092D01*
X2559151Y5815330D01*
X2562402Y5813094D01*
X2564638Y5809843D01*
X2565400Y5805932D01*
X2566162Y5809843D01*
X2568397Y5813094D01*
X2571648Y5815330D01*
X2575560Y5816092D01*
X5805932Y5816092D01*
X5809843Y5815330D01*
X5813094Y5813094D01*
X5815330Y5809843D01*
X5816092Y5805932D01*
X5816092Y36068D01*
X5815330Y32207D01*
X5813094Y28905D01*
X5809843Y26670D01*
G37*

%LPC*%
G36*
X5638393Y3272078D02*
G01*
X5670296Y3272078D01*
X5682183Y3272942D01*
X5693460Y3275380D01*
X5704281Y3279444D01*
X5714390Y3284931D01*
X5723636Y3291890D01*
X5731814Y3300018D01*
X5738723Y3309264D01*
X5744260Y3319373D01*
X5748274Y3330194D01*
X5750458Y3340303D01*
X5638393Y3340303D01*
G37*
G36*
X393700Y105562D02*
G01*
X398322Y105664D01*
X421284Y108051D01*
X443992Y112369D01*
X466242Y118618D01*
X487934Y126644D01*
X508812Y136499D01*
X528828Y148031D01*
X547827Y161239D01*
X565607Y175971D01*
X582117Y192125D01*
X597204Y209600D01*
X610819Y228295D01*
X622757Y248107D01*
X633018Y268782D01*
X641553Y290271D01*
X648208Y312369D01*
X653034Y334975D01*
X655929Y357936D01*
X656336Y368300D01*
X393700Y368300D01*
G37*
G36*
X5448300Y105613D02*
G01*
X5448300Y368300D01*
X5185410Y368300D01*
X5187289Y346405D01*
X5191150Y323646D01*
X5196890Y301244D01*
X5204460Y279450D01*
X5213858Y258317D01*
X5224983Y238099D01*
X5237784Y218846D01*
X5252161Y200710D01*
X5267960Y183896D01*
X5285130Y168402D01*
X5303520Y154432D01*
X5323027Y142087D01*
X5343499Y131368D01*
X5364835Y122428D01*
X5386781Y115265D01*
X5409285Y109982D01*
X5432145Y106629D01*
G37*
G36*
X368300Y105613D02*
G01*
X368300Y368300D01*
X105410Y368300D01*
X107289Y346405D01*
X111150Y323646D01*
X116890Y301244D01*
X124460Y279450D01*
X133858Y258317D01*
X144983Y238099D01*
X157784Y218846D01*
X172161Y200710D01*
X187960Y183896D01*
X205130Y168402D01*
X223520Y154432D01*
X243027Y142087D01*
X263499Y131368D01*
X284835Y122428D01*
X306781Y115265D01*
X329285Y109982D01*
X352145Y106629D01*
G37*
G36*
X5473700Y393700D02*
G01*
X5736336Y393700D01*
X5735929Y404063D01*
X5733034Y427024D01*
X5728208Y449630D01*
X5721553Y471728D01*
X5713018Y493217D01*
X5702757Y513892D01*
X5690819Y533704D01*
X5677204Y552348D01*
X5662117Y569874D01*
X5645607Y586028D01*
X5627827Y600760D01*
X5608828Y613968D01*
X5588812Y625500D01*
X5567934Y635355D01*
X5546242Y643382D01*
X5523992Y649630D01*
X5501284Y653948D01*
X5478322Y656336D01*
X5473700Y656437D01*
G37*
G36*
X393700Y393700D02*
G01*
X656336Y393700D01*
X655929Y404063D01*
X653034Y427024D01*
X648208Y449630D01*
X641553Y471728D01*
X633018Y493217D01*
X622757Y513892D01*
X610819Y533704D01*
X597204Y552348D01*
X582117Y569874D01*
X565607Y586028D01*
X547827Y600760D01*
X528828Y613968D01*
X508812Y625500D01*
X487934Y635355D01*
X466242Y643382D01*
X443992Y649630D01*
X421284Y653948D01*
X398322Y656336D01*
X393700Y656437D01*
G37*
G36*
X5185410Y393700D02*
G01*
X5448300Y393700D01*
X5448300Y656386D01*
X5432145Y655370D01*
X5409285Y652018D01*
X5386781Y646734D01*
X5364835Y639572D01*
X5343499Y630631D01*
X5323027Y619912D01*
X5303520Y607568D01*
X5285130Y593598D01*
X5267960Y578104D01*
X5252161Y561289D01*
X5237784Y543153D01*
X5224983Y523900D01*
X5213858Y503682D01*
X5204460Y482549D01*
X5196890Y460756D01*
X5191150Y438353D01*
X5187289Y415594D01*
G37*
G36*
X105410Y393700D02*
G01*
X368300Y393700D01*
X368300Y656386D01*
X352145Y655370D01*
X329285Y652018D01*
X306781Y646734D01*
X284835Y639572D01*
X263499Y630631D01*
X243027Y619912D01*
X223520Y607568D01*
X205130Y593598D01*
X187960Y578104D01*
X172161Y561289D01*
X157784Y543153D01*
X144983Y523900D01*
X133858Y503682D01*
X124460Y482549D01*
X116890Y460756D01*
X111150Y438353D01*
X107289Y415594D01*
G37*
G36*
X685800Y2077212D02*
G01*
X699617Y2078126D01*
X713181Y2080818D01*
X726338Y2085289D01*
X738733Y2091385D01*
X750265Y2099106D01*
X760679Y2108250D01*
X769823Y2118664D01*
X777494Y2130145D01*
X783640Y2142591D01*
X788060Y2155698D01*
X790803Y2169261D01*
X791667Y2183079D01*
X790803Y2196947D01*
X788060Y2210511D01*
X783640Y2223617D01*
X777494Y2236063D01*
X769823Y2247544D01*
X760679Y2257958D01*
X750265Y2267102D01*
X738733Y2274824D01*
X726338Y2280920D01*
X713181Y2285390D01*
X699617Y2288082D01*
X685800Y2288997D01*
X671982Y2288082D01*
X658418Y2285390D01*
X645261Y2280920D01*
X632866Y2274824D01*
X621334Y2267102D01*
X610920Y2257958D01*
X601776Y2247544D01*
X594106Y2236063D01*
X587959Y2223617D01*
X583539Y2210511D01*
X580796Y2196947D01*
X579932Y2183079D01*
X580796Y2169261D01*
X583539Y2155698D01*
X587959Y2142591D01*
X594106Y2130145D01*
X601776Y2118664D01*
X610920Y2108250D01*
X621334Y2099106D01*
X632866Y2091385D01*
X645261Y2085289D01*
X658418Y2080818D01*
X671982Y2078126D01*
G37*
G36*
X5581040Y2408072D02*
G01*
X5612993Y2408072D01*
X5612993Y2476296D01*
X5500878Y2476296D01*
X5503062Y2466187D01*
X5507075Y2455418D01*
X5512612Y2445258D01*
X5519572Y2436012D01*
X5527700Y2427884D01*
X5536946Y2420975D01*
X5547055Y2415438D01*
X5557875Y2411374D01*
X5569153Y2408936D01*
G37*
G36*
X5201056Y2408072D02*
G01*
X5232958Y2408072D01*
X5232958Y2476296D01*
X5120894Y2476296D01*
X5123078Y2466187D01*
X5127091Y2455418D01*
X5132628Y2445258D01*
X5139537Y2436012D01*
X5147716Y2427884D01*
X5156962Y2420975D01*
X5167071Y2415438D01*
X5177891Y2411374D01*
X5189169Y2408936D01*
G37*
G36*
X5258358Y2408072D02*
G01*
X5290312Y2408072D01*
X5302199Y2408936D01*
X5313476Y2411374D01*
X5324297Y2415438D01*
X5334406Y2420975D01*
X5343652Y2427884D01*
X5351780Y2436012D01*
X5358739Y2445258D01*
X5364226Y2455418D01*
X5368290Y2466187D01*
X5370474Y2476296D01*
X5258358Y2476296D01*
G37*
G36*
X5638393Y2408072D02*
G01*
X5670296Y2408072D01*
X5682183Y2408936D01*
X5693460Y2411374D01*
X5704281Y2415438D01*
X5714390Y2420975D01*
X5723636Y2427884D01*
X5731814Y2436012D01*
X5738723Y2445258D01*
X5744260Y2455418D01*
X5748274Y2466187D01*
X5750458Y2476296D01*
X5638393Y2476296D01*
G37*
G36*
X910793Y2419858D02*
G01*
X925982Y2420772D01*
X940917Y2423515D01*
X955446Y2428036D01*
X969314Y2434285D01*
X982319Y2442108D01*
X994308Y2451506D01*
X1005027Y2462276D01*
X1014425Y2474214D01*
X1022299Y2487218D01*
X1028496Y2501087D01*
X1033018Y2515616D01*
X1035761Y2530551D01*
X1036675Y2545740D01*
X1035761Y2560929D01*
X1033018Y2575864D01*
X1028496Y2590393D01*
X1022299Y2604211D01*
X1014425Y2617266D01*
X1005027Y2629204D01*
X994308Y2639974D01*
X982319Y2649321D01*
X969314Y2657195D01*
X955395Y2663444D01*
X952246Y2665679D01*
X950112Y2668930D01*
X949401Y2672740D01*
X950112Y2676550D01*
X952246Y2679750D01*
X955395Y2681986D01*
X969314Y2688285D01*
X982319Y2696108D01*
X994308Y2705506D01*
X1005027Y2716276D01*
X1014425Y2728214D01*
X1022299Y2741218D01*
X1028496Y2755087D01*
X1033018Y2769616D01*
X1035761Y2784551D01*
X1035913Y2787040D01*
X923493Y2787040D01*
X923493Y2681630D01*
X922731Y2677769D01*
X920546Y2674467D01*
X917244Y2672283D01*
X913333Y2671470D01*
X908253Y2671470D01*
X904392Y2672283D01*
X901090Y2674467D01*
X898906Y2677769D01*
X898093Y2681630D01*
X898093Y2787040D01*
X785672Y2787040D01*
X785825Y2784551D01*
X788568Y2769616D01*
X793089Y2755087D01*
X799338Y2741218D01*
X807212Y2728214D01*
X816559Y2716276D01*
X827328Y2705506D01*
X839317Y2696108D01*
X852322Y2688285D01*
X866241Y2681986D01*
X869391Y2679750D01*
X871474Y2676550D01*
X872236Y2672740D01*
X871474Y2668930D01*
X869391Y2665679D01*
X866241Y2663444D01*
X852322Y2657195D01*
X839317Y2649321D01*
X827328Y2639974D01*
X816559Y2629204D01*
X807212Y2617266D01*
X799338Y2604211D01*
X793089Y2590393D01*
X788568Y2575864D01*
X785825Y2560929D01*
X784910Y2545740D01*
X785825Y2530551D01*
X788568Y2515616D01*
X793089Y2501087D01*
X799338Y2487218D01*
X807212Y2474214D01*
X816559Y2462276D01*
X827328Y2451506D01*
X839317Y2442108D01*
X852322Y2434285D01*
X866190Y2428036D01*
X880668Y2423515D01*
X895654Y2420772D01*
G37*
G36*
X5258358Y2501696D02*
G01*
X5370474Y2501696D01*
X5368290Y2511806D01*
X5364226Y2522575D01*
X5358739Y2532735D01*
X5351780Y2541981D01*
X5343652Y2550109D01*
X5334406Y2557018D01*
X5324297Y2562555D01*
X5313476Y2566619D01*
X5302199Y2569057D01*
X5290312Y2569921D01*
X5258358Y2569921D01*
G37*
G36*
X5120894Y2501696D02*
G01*
X5232958Y2501696D01*
X5232958Y2569921D01*
X5201056Y2569921D01*
X5189169Y2569057D01*
X5177891Y2566619D01*
X5167071Y2562555D01*
X5156962Y2557018D01*
X5147716Y2550109D01*
X5139537Y2541981D01*
X5132628Y2532735D01*
X5127091Y2522575D01*
X5123078Y2511806D01*
G37*
G36*
X5638393Y2501696D02*
G01*
X5750458Y2501696D01*
X5748274Y2511806D01*
X5744260Y2522575D01*
X5738723Y2532735D01*
X5731814Y2541981D01*
X5723636Y2550109D01*
X5714390Y2557018D01*
X5704281Y2562555D01*
X5693460Y2566619D01*
X5682183Y2569057D01*
X5670296Y2569921D01*
X5638393Y2569921D01*
G37*
G36*
X5500878Y2501696D02*
G01*
X5612993Y2501696D01*
X5612993Y2569921D01*
X5581040Y2569921D01*
X5569153Y2569057D01*
X5557875Y2566619D01*
X5547055Y2562555D01*
X5536946Y2557018D01*
X5527700Y2550109D01*
X5519572Y2541981D01*
X5512612Y2532735D01*
X5507075Y2522575D01*
X5503062Y2511806D01*
G37*
G36*
X2032000Y2636062D02*
G01*
X2041804Y2636926D01*
X2051253Y2639466D01*
X2060193Y2643581D01*
X2068220Y2649220D01*
X2075180Y2656179D01*
X2080818Y2664206D01*
X2084933Y2673146D01*
X2087473Y2682595D01*
X2088337Y2692400D01*
X2087473Y2702204D01*
X2084933Y2711653D01*
X2083866Y2713990D01*
X2082901Y2718308D01*
X2082901Y4721606D01*
X2083562Y4725212D01*
X2085492Y4728362D01*
X2101138Y4739284D01*
X2111654Y4748834D01*
X2120849Y4759655D01*
X2128621Y4771593D01*
X2134768Y4784394D01*
X2139238Y4797856D01*
X2141982Y4811826D01*
X2142896Y4826000D01*
X2141982Y4840173D01*
X2139238Y4854143D01*
X2134768Y4867605D01*
X2128621Y4880406D01*
X2120849Y4892344D01*
X2111654Y4903165D01*
X2101138Y4912715D01*
X2089505Y4920843D01*
X2076907Y4927396D01*
X2063546Y4932324D01*
X2049678Y4935474D01*
X2035556Y4936845D01*
X2021332Y4936388D01*
X2007311Y4934102D01*
X1993696Y4930038D01*
X1980692Y4924298D01*
X1968550Y4916932D01*
X1957425Y4908092D01*
X1947570Y4897882D01*
X1939086Y4886502D01*
X1932076Y4874107D01*
X1926742Y4860950D01*
X1923135Y4847183D01*
X1921357Y4833112D01*
X1921357Y4818888D01*
X1923135Y4804816D01*
X1926742Y4791049D01*
X1932076Y4777892D01*
X1939086Y4765497D01*
X1947570Y4754118D01*
X1957425Y4743907D01*
X1968550Y4735068D01*
X1976221Y4730445D01*
X1978812Y4728159D01*
X1980488Y4725162D01*
X1981098Y4721707D01*
X1981098Y2718308D01*
X1980133Y2713990D01*
X1979066Y2711653D01*
X1976526Y2702204D01*
X1975662Y2692400D01*
X1976526Y2682595D01*
X1979066Y2673146D01*
X1983181Y2664206D01*
X1988820Y2656179D01*
X1995779Y2649220D01*
X2003806Y2643581D01*
X2012746Y2639466D01*
X2022195Y2636926D01*
G37*
G36*
X4456887Y5600700D02*
G01*
X4559300Y5600700D01*
X4559300Y5702960D01*
X4550308Y5701842D01*
X4536186Y5698236D01*
X4522673Y5692851D01*
X4509922Y5685840D01*
X4498136Y5677306D01*
X4487519Y5667349D01*
X4478223Y5656122D01*
X4470450Y5643829D01*
X4464253Y5630672D01*
X4459732Y5616803D01*
X4457039Y5602528D01*
G37*
G36*
X923493Y2812440D02*
G01*
X1035913Y2812440D01*
X1035761Y2814929D01*
X1033018Y2829864D01*
X1028496Y2844393D01*
X1022299Y2858211D01*
X1014425Y2871266D01*
X1005027Y2883204D01*
X994308Y2893974D01*
X982319Y2903321D01*
X969314Y2911195D01*
X955395Y2917444D01*
X952246Y2919679D01*
X950112Y2922930D01*
X949401Y2926740D01*
X950112Y2930550D01*
X952246Y2933750D01*
X955395Y2935986D01*
X969314Y2942285D01*
X982319Y2950108D01*
X994308Y2959506D01*
X1005027Y2970276D01*
X1014425Y2982214D01*
X1022299Y2995218D01*
X1028496Y3009087D01*
X1033018Y3023616D01*
X1035761Y3038551D01*
X1035913Y3041040D01*
X923493Y3041040D01*
G37*
G36*
X785672Y2812440D02*
G01*
X898093Y2812440D01*
X898093Y3041040D01*
X785672Y3041040D01*
X785825Y3038551D01*
X788568Y3023616D01*
X793089Y3009087D01*
X799338Y2995218D01*
X807212Y2982214D01*
X816559Y2970276D01*
X827328Y2959506D01*
X839317Y2950108D01*
X852322Y2942285D01*
X866241Y2935986D01*
X869391Y2933750D01*
X871474Y2930550D01*
X872236Y2926740D01*
X871474Y2922930D01*
X869391Y2919679D01*
X866241Y2917444D01*
X852322Y2911195D01*
X839317Y2903321D01*
X827328Y2893974D01*
X816559Y2883204D01*
X807212Y2871266D01*
X799338Y2858211D01*
X793089Y2844393D01*
X788568Y2829864D01*
X785825Y2814929D01*
G37*
G36*
X3683000Y2890062D02*
G01*
X3692804Y2890926D01*
X3702253Y2893466D01*
X3711194Y2897581D01*
X3719220Y2903220D01*
X3726179Y2910179D01*
X3731818Y2918206D01*
X3735933Y2927146D01*
X3738473Y2936595D01*
X3739337Y2946400D01*
X3738473Y2956204D01*
X3735933Y2965653D01*
X3734866Y2967990D01*
X3733901Y2972308D01*
X3733901Y3281832D01*
X3734866Y3286099D01*
X3735933Y3288436D01*
X3738473Y3297936D01*
X3739337Y3307740D01*
X3738473Y3317494D01*
X3735933Y3326993D01*
X3734866Y3329330D01*
X3733901Y3333648D01*
X3733901Y4546092D01*
X3734866Y4550359D01*
X3735933Y4552696D01*
X3738473Y4562195D01*
X3739337Y4572000D01*
X3738473Y4581753D01*
X3735933Y4591253D01*
X3731818Y4600143D01*
X3726179Y4608220D01*
X3719220Y4615180D01*
X3711194Y4620768D01*
X3702253Y4624933D01*
X3692804Y4627473D01*
X3683000Y4628337D01*
X3673195Y4627473D01*
X3663746Y4624933D01*
X3654806Y4620768D01*
X3646779Y4615180D01*
X3639820Y4608220D01*
X3634181Y4600143D01*
X3630066Y4591253D01*
X3627526Y4581753D01*
X3626662Y4572000D01*
X3627526Y4562195D01*
X3630066Y4552696D01*
X3631133Y4550359D01*
X3632098Y4546092D01*
X3632098Y3333648D01*
X3631133Y3329330D01*
X3630015Y3326993D01*
X3627475Y3317494D01*
X3626662Y3307740D01*
X3627475Y3297936D01*
X3630015Y3288436D01*
X3631133Y3286099D01*
X3632098Y3281832D01*
X3632098Y2972308D01*
X3631133Y2968040D01*
X3630066Y2965653D01*
X3627526Y2956204D01*
X3626662Y2946400D01*
X3627526Y2936595D01*
X3630066Y2927146D01*
X3634181Y2918206D01*
X3639820Y2910179D01*
X3646779Y2903220D01*
X3654806Y2897581D01*
X3663746Y2893466D01*
X3673195Y2890926D01*
G37*
G36*
X785672Y3066440D02*
G01*
X898093Y3066440D01*
X898093Y3171799D01*
X898906Y3175711D01*
X901090Y3179013D01*
X904392Y3181197D01*
X908253Y3181959D01*
X913333Y3181959D01*
X917244Y3181197D01*
X920546Y3179013D01*
X922731Y3175711D01*
X923493Y3171799D01*
X923493Y3066440D01*
X1035913Y3066440D01*
X1035761Y3068929D01*
X1033018Y3083864D01*
X1028496Y3098393D01*
X1022299Y3112211D01*
X1014425Y3125266D01*
X1005027Y3137204D01*
X994308Y3147974D01*
X982319Y3157321D01*
X969314Y3165195D01*
X955395Y3171444D01*
X952246Y3173679D01*
X950112Y3176930D01*
X949401Y3180740D01*
X950112Y3184550D01*
X952246Y3187750D01*
X955395Y3189986D01*
X969314Y3196285D01*
X982319Y3204108D01*
X994308Y3213506D01*
X1005027Y3224276D01*
X1014425Y3236214D01*
X1022299Y3249218D01*
X1028496Y3263087D01*
X1033018Y3277615D01*
X1035761Y3292551D01*
X1036675Y3307740D01*
X1035761Y3322929D01*
X1033018Y3337864D01*
X1028496Y3352393D01*
X1022299Y3366211D01*
X1014425Y3379266D01*
X1005027Y3391204D01*
X994308Y3401974D01*
X982319Y3411321D01*
X969314Y3419195D01*
X955446Y3425444D01*
X940917Y3429965D01*
X925982Y3432708D01*
X910793Y3433622D01*
X895654Y3432708D01*
X880668Y3429965D01*
X866190Y3425444D01*
X852322Y3419195D01*
X839317Y3411321D01*
X827328Y3401974D01*
X816559Y3391204D01*
X807212Y3379266D01*
X799338Y3366211D01*
X793089Y3352393D01*
X788568Y3337864D01*
X785825Y3322929D01*
X784910Y3307740D01*
X785825Y3292551D01*
X788568Y3277615D01*
X793089Y3263087D01*
X799338Y3249218D01*
X807212Y3236214D01*
X816559Y3224276D01*
X827328Y3213506D01*
X839317Y3204108D01*
X852322Y3196285D01*
X866241Y3189986D01*
X869391Y3187750D01*
X871474Y3184550D01*
X872236Y3180740D01*
X871474Y3176930D01*
X869391Y3173679D01*
X866241Y3171444D01*
X852322Y3165195D01*
X839317Y3157321D01*
X827328Y3147974D01*
X816559Y3137204D01*
X807212Y3125266D01*
X799338Y3112211D01*
X793089Y3098393D01*
X788568Y3083864D01*
X785825Y3068929D01*
G37*
G36*
X4584700Y5600700D02*
G01*
X4687112Y5600700D01*
X4686960Y5602528D01*
X4684268Y5616803D01*
X4679746Y5630672D01*
X4673549Y5643829D01*
X4665776Y5656122D01*
X4656480Y5667349D01*
X4645863Y5677306D01*
X4634077Y5685840D01*
X4621326Y5692851D01*
X4607814Y5698236D01*
X4593691Y5701842D01*
X4584700Y5702960D01*
G37*
G36*
X5201056Y3272078D02*
G01*
X5232958Y3272078D01*
X5232958Y3340303D01*
X5120894Y3340303D01*
X5123078Y3330194D01*
X5127091Y3319373D01*
X5132628Y3309264D01*
X5139537Y3300018D01*
X5147716Y3291840D01*
X5156962Y3284931D01*
X5167071Y3279394D01*
X5177891Y3275380D01*
X5189169Y3272942D01*
G37*
G36*
X5581040Y3272078D02*
G01*
X5612993Y3272078D01*
X5612993Y3340303D01*
X5500878Y3340303D01*
X5503062Y3330194D01*
X5507075Y3319373D01*
X5512612Y3309264D01*
X5519572Y3300018D01*
X5527700Y3291890D01*
X5536946Y3284931D01*
X5547055Y3279444D01*
X5557875Y3275380D01*
X5569153Y3272942D01*
G37*
G36*
X5258358Y3272078D02*
G01*
X5290312Y3272078D01*
X5302199Y3272942D01*
X5313476Y3275380D01*
X5324297Y3279394D01*
X5334406Y3284931D01*
X5343652Y3291840D01*
X5351780Y3300018D01*
X5358739Y3309264D01*
X5364226Y3319373D01*
X5368290Y3330194D01*
X5370474Y3340303D01*
X5258358Y3340303D01*
G37*
G36*
X5473700Y105562D02*
G01*
X5478322Y105664D01*
X5501284Y108051D01*
X5523992Y112369D01*
X5546242Y118618D01*
X5567934Y126644D01*
X5588812Y136499D01*
X5608828Y148031D01*
X5627827Y161239D01*
X5645607Y175971D01*
X5662117Y192125D01*
X5677204Y209600D01*
X5690819Y228295D01*
X5702757Y248107D01*
X5713018Y268782D01*
X5721553Y290271D01*
X5728208Y312369D01*
X5733034Y334975D01*
X5735929Y357936D01*
X5736336Y368300D01*
X5473700Y368300D01*
G37*
G36*
X5258358Y3365703D02*
G01*
X5370474Y3365703D01*
X5368290Y3375761D01*
X5364226Y3386582D01*
X5358739Y3396691D01*
X5351780Y3405936D01*
X5343652Y3414115D01*
X5334406Y3421024D01*
X5324297Y3426561D01*
X5313476Y3430574D01*
X5302199Y3433064D01*
X5290312Y3433876D01*
X5258358Y3433876D01*
G37*
G36*
X5120894Y3365703D02*
G01*
X5232958Y3365703D01*
X5232958Y3433876D01*
X5201056Y3433876D01*
X5189169Y3433064D01*
X5177891Y3430574D01*
X5167071Y3426561D01*
X5156962Y3421024D01*
X5147716Y3414115D01*
X5139537Y3405936D01*
X5132628Y3396691D01*
X5127091Y3386582D01*
X5123078Y3375761D01*
G37*
G36*
X5500878Y3365703D02*
G01*
X5612993Y3365703D01*
X5612993Y3433876D01*
X5581040Y3433876D01*
X5569153Y3433064D01*
X5557875Y3430574D01*
X5547055Y3426561D01*
X5536946Y3421024D01*
X5527700Y3414115D01*
X5519572Y3405936D01*
X5512612Y3396742D01*
X5507075Y3386582D01*
X5503062Y3375761D01*
G37*
G36*
X5638393Y3365703D02*
G01*
X5750458Y3365703D01*
X5748274Y3375761D01*
X5744260Y3386582D01*
X5738723Y3396742D01*
X5731814Y3405936D01*
X5723636Y3414115D01*
X5714390Y3421024D01*
X5704281Y3426561D01*
X5693460Y3430574D01*
X5682183Y3433064D01*
X5670296Y3433876D01*
X5638393Y3433876D01*
G37*
G36*
X685800Y3564432D02*
G01*
X699617Y3565296D01*
X713181Y3568039D01*
X726338Y3572459D01*
X738733Y3578606D01*
X750265Y3586276D01*
X760679Y3595420D01*
X769823Y3605834D01*
X777494Y3617366D01*
X783640Y3629761D01*
X788060Y3642918D01*
X790803Y3656482D01*
X791667Y3670300D01*
X790803Y3684117D01*
X788060Y3697681D01*
X783640Y3710838D01*
X777494Y3723233D01*
X769823Y3734765D01*
X760679Y3745179D01*
X750265Y3754323D01*
X738733Y3761994D01*
X726338Y3768140D01*
X713181Y3772560D01*
X699617Y3775303D01*
X685800Y3776167D01*
X671982Y3775303D01*
X658418Y3772560D01*
X645261Y3768140D01*
X632866Y3761994D01*
X621334Y3754323D01*
X610920Y3745179D01*
X601776Y3734765D01*
X594106Y3723233D01*
X587959Y3710838D01*
X583539Y3697681D01*
X580796Y3684117D01*
X579932Y3670300D01*
X580796Y3656482D01*
X583539Y3642918D01*
X587959Y3629761D01*
X594106Y3617366D01*
X601776Y3605834D01*
X610920Y3595420D01*
X621334Y3586276D01*
X632866Y3578606D01*
X645261Y3572459D01*
X658418Y3568039D01*
X671982Y3565296D01*
G37*
G36*
X5080000Y4515612D02*
G01*
X5089804Y4516475D01*
X5099253Y4519015D01*
X5108194Y4523181D01*
X5116220Y4528820D01*
X5123180Y4535728D01*
X5128818Y4543806D01*
X5132933Y4552696D01*
X5135473Y4562195D01*
X5136337Y4571949D01*
X5135473Y4581753D01*
X5132933Y4591253D01*
X5131866Y4593590D01*
X5130901Y4597857D01*
X5130901Y5562092D01*
X5131866Y5566410D01*
X5132933Y5568746D01*
X5135473Y5578195D01*
X5136337Y5588000D01*
X5135473Y5597804D01*
X5132933Y5607253D01*
X5128818Y5616194D01*
X5123180Y5624220D01*
X5116220Y5631180D01*
X5108194Y5636818D01*
X5099253Y5640933D01*
X5089804Y5643473D01*
X5080000Y5644337D01*
X5070195Y5643473D01*
X5060746Y5640933D01*
X5051806Y5636818D01*
X5043779Y5631180D01*
X5036820Y5624220D01*
X5031181Y5616194D01*
X5027066Y5607253D01*
X5024526Y5597804D01*
X5023662Y5588000D01*
X5024526Y5578195D01*
X5027066Y5568746D01*
X5028133Y5566410D01*
X5029098Y5562092D01*
X5029098Y4597857D01*
X5028133Y4593590D01*
X5027066Y4591253D01*
X5024526Y4581753D01*
X5023662Y4571949D01*
X5024526Y4562195D01*
X5027066Y4552696D01*
X5031181Y4543806D01*
X5036820Y4535728D01*
X5043779Y4528820D01*
X5051806Y4523181D01*
X5060746Y4519015D01*
X5070195Y4516475D01*
G37*
G36*
X2289556Y4715154D02*
G01*
X2303678Y4716526D01*
X2317546Y4719675D01*
X2330907Y4724603D01*
X2343505Y4731156D01*
X2355138Y4739284D01*
X2365654Y4748834D01*
X2374849Y4759655D01*
X2382621Y4771593D01*
X2388768Y4784394D01*
X2393238Y4797856D01*
X2395982Y4811826D01*
X2396896Y4826000D01*
X2395982Y4840173D01*
X2393238Y4854143D01*
X2388768Y4867605D01*
X2382621Y4880406D01*
X2374849Y4892344D01*
X2365654Y4903165D01*
X2355138Y4912715D01*
X2343505Y4920843D01*
X2330907Y4927396D01*
X2317546Y4932324D01*
X2303678Y4935474D01*
X2289556Y4936845D01*
X2275332Y4936388D01*
X2261311Y4934102D01*
X2247696Y4930038D01*
X2234692Y4924298D01*
X2222550Y4916932D01*
X2211425Y4908092D01*
X2201570Y4897882D01*
X2193086Y4886502D01*
X2186076Y4874107D01*
X2180742Y4860950D01*
X2177135Y4847183D01*
X2175357Y4833112D01*
X2175357Y4818888D01*
X2177135Y4804816D01*
X2180742Y4791049D01*
X2186076Y4777892D01*
X2193086Y4765497D01*
X2201570Y4754118D01*
X2211425Y4743907D01*
X2222550Y4735068D01*
X2234692Y4727702D01*
X2247696Y4721910D01*
X2261311Y4717897D01*
X2275332Y4715611D01*
G37*
G36*
X4826000Y4769612D02*
G01*
X4835804Y4770475D01*
X4845253Y4773015D01*
X4854194Y4777181D01*
X4862220Y4782820D01*
X4869180Y4789728D01*
X4874818Y4797806D01*
X4878933Y4806696D01*
X4881473Y4816195D01*
X4882337Y4825949D01*
X4881473Y4835753D01*
X4878933Y4845253D01*
X4877866Y4847590D01*
X4876901Y4851908D01*
X4876901Y5155692D01*
X4877866Y5160010D01*
X4878933Y5162346D01*
X4881473Y5171795D01*
X4882337Y5181600D01*
X4881473Y5191404D01*
X4878933Y5200853D01*
X4877866Y5203190D01*
X4876901Y5207508D01*
X4876901Y5224018D01*
X4877562Y5227523D01*
X4879390Y5230622D01*
X4882184Y5232908D01*
X4888077Y5236159D01*
X4899863Y5244693D01*
X4910480Y5254650D01*
X4919776Y5265877D01*
X4927549Y5278170D01*
X4933746Y5291328D01*
X4938268Y5305196D01*
X4940960Y5319471D01*
X4941874Y5334000D01*
X4940960Y5348528D01*
X4938268Y5362803D01*
X4933746Y5376672D01*
X4927549Y5389829D01*
X4919776Y5402122D01*
X4910480Y5413349D01*
X4899863Y5423306D01*
X4888077Y5431840D01*
X4875326Y5438851D01*
X4861814Y5444236D01*
X4847691Y5447842D01*
X4833264Y5449671D01*
X4818735Y5449671D01*
X4804308Y5447842D01*
X4790186Y5444236D01*
X4776673Y5438851D01*
X4763922Y5431840D01*
X4752136Y5423306D01*
X4741519Y5413349D01*
X4732223Y5402122D01*
X4724450Y5389829D01*
X4718253Y5376672D01*
X4713732Y5362803D01*
X4711039Y5348528D01*
X4710125Y5334000D01*
X4711039Y5319471D01*
X4713732Y5305196D01*
X4718253Y5291328D01*
X4724450Y5278170D01*
X4732223Y5265877D01*
X4741519Y5254650D01*
X4752136Y5244693D01*
X4763922Y5236159D01*
X4769815Y5232908D01*
X4772609Y5230622D01*
X4774438Y5227523D01*
X4775098Y5224018D01*
X4775098Y5207508D01*
X4774133Y5203190D01*
X4773066Y5200853D01*
X4770526Y5191404D01*
X4769662Y5181600D01*
X4770526Y5171795D01*
X4773066Y5162346D01*
X4774133Y5160010D01*
X4775098Y5155692D01*
X4775098Y4851857D01*
X4774133Y4847539D01*
X4773066Y4845253D01*
X4770526Y4835753D01*
X4769662Y4825949D01*
X4770526Y4816195D01*
X4773066Y4806696D01*
X4777181Y4797806D01*
X4782820Y4789728D01*
X4789779Y4782820D01*
X4797806Y4777181D01*
X4806746Y4773015D01*
X4816195Y4770475D01*
G37*
G36*
X5473700Y5185562D02*
G01*
X5478322Y5185664D01*
X5501284Y5188051D01*
X5523992Y5192369D01*
X5546242Y5198618D01*
X5567934Y5206644D01*
X5588812Y5216499D01*
X5608828Y5228031D01*
X5627827Y5241239D01*
X5645607Y5255971D01*
X5662117Y5272125D01*
X5677204Y5289600D01*
X5690819Y5308295D01*
X5702757Y5328107D01*
X5713018Y5348782D01*
X5721553Y5370271D01*
X5728208Y5392369D01*
X5733034Y5414975D01*
X5735929Y5437936D01*
X5736336Y5448300D01*
X5473700Y5448300D01*
G37*
G36*
X393700Y5185562D02*
G01*
X398322Y5185664D01*
X421284Y5188051D01*
X443992Y5192369D01*
X466242Y5198618D01*
X487934Y5206644D01*
X508812Y5216499D01*
X528828Y5228031D01*
X547827Y5241239D01*
X565607Y5255971D01*
X582117Y5272125D01*
X597204Y5289600D01*
X610819Y5308295D01*
X622757Y5328107D01*
X633018Y5348782D01*
X641553Y5370271D01*
X648208Y5392369D01*
X653034Y5414975D01*
X655929Y5437936D01*
X656336Y5448300D01*
X393700Y5448300D01*
G37*
G36*
X5448300Y5185613D02*
G01*
X5448300Y5448300D01*
X5185410Y5448300D01*
X5187289Y5426405D01*
X5191150Y5403646D01*
X5196890Y5381244D01*
X5204460Y5359450D01*
X5213858Y5338318D01*
X5224983Y5318099D01*
X5237784Y5298846D01*
X5252161Y5280710D01*
X5267960Y5263896D01*
X5285130Y5248402D01*
X5303520Y5234432D01*
X5323027Y5222087D01*
X5343499Y5211368D01*
X5364835Y5202428D01*
X5386781Y5195265D01*
X5409285Y5189982D01*
X5432145Y5186629D01*
G37*
G36*
X368300Y5185613D02*
G01*
X368300Y5448300D01*
X105410Y5448300D01*
X107289Y5426405D01*
X111150Y5403646D01*
X116890Y5381244D01*
X124460Y5359450D01*
X133858Y5338318D01*
X144983Y5318099D01*
X157784Y5298846D01*
X172161Y5280710D01*
X187960Y5263896D01*
X205130Y5248402D01*
X223520Y5234432D01*
X243027Y5222087D01*
X263499Y5211368D01*
X284835Y5202428D01*
X306781Y5195265D01*
X329285Y5189982D01*
X352145Y5186629D01*
G37*
G36*
X4584700Y5219039D02*
G01*
X4593691Y5220157D01*
X4607814Y5223764D01*
X4621326Y5229148D01*
X4634077Y5236159D01*
X4645863Y5244693D01*
X4656480Y5254650D01*
X4665776Y5265877D01*
X4673549Y5278170D01*
X4679746Y5291328D01*
X4684268Y5305196D01*
X4686960Y5319471D01*
X4687112Y5321300D01*
X4584700Y5321300D01*
G37*
G36*
X4559300Y5219039D02*
G01*
X4559300Y5321300D01*
X4456887Y5321300D01*
X4457039Y5319471D01*
X4459732Y5305196D01*
X4464253Y5291328D01*
X4470450Y5278170D01*
X4478223Y5265877D01*
X4487519Y5254650D01*
X4498136Y5244693D01*
X4509922Y5236159D01*
X4522673Y5229148D01*
X4536186Y5223764D01*
X4550308Y5220157D01*
G37*
G36*
X4584700Y5346700D02*
G01*
X4687112Y5346700D01*
X4686960Y5348528D01*
X4684268Y5362803D01*
X4679746Y5376672D01*
X4673549Y5389829D01*
X4665776Y5402122D01*
X4656480Y5413349D01*
X4645863Y5423306D01*
X4634077Y5431840D01*
X4621326Y5438851D01*
X4607814Y5444236D01*
X4593691Y5447842D01*
X4584700Y5448960D01*
G37*
G36*
X4456887Y5346700D02*
G01*
X4559300Y5346700D01*
X4559300Y5448960D01*
X4550308Y5447842D01*
X4536186Y5444236D01*
X4522673Y5438851D01*
X4509922Y5431840D01*
X4498136Y5423306D01*
X4487519Y5413349D01*
X4478223Y5402122D01*
X4470450Y5389829D01*
X4464253Y5376672D01*
X4459732Y5362803D01*
X4457039Y5348528D01*
G37*
G36*
X4818735Y5472328D02*
G01*
X4833264Y5472328D01*
X4847691Y5474157D01*
X4861814Y5477764D01*
X4875326Y5483148D01*
X4888077Y5490159D01*
X4899863Y5498693D01*
X4910480Y5508650D01*
X4919776Y5519877D01*
X4927549Y5532170D01*
X4933746Y5545328D01*
X4938268Y5559196D01*
X4940960Y5573471D01*
X4941874Y5588000D01*
X4940960Y5602528D01*
X4938268Y5616803D01*
X4933746Y5630672D01*
X4927549Y5643829D01*
X4919776Y5656122D01*
X4910480Y5667349D01*
X4899863Y5677306D01*
X4888077Y5685840D01*
X4882184Y5689092D01*
X4879390Y5691378D01*
X4877562Y5694476D01*
X4876901Y5697982D01*
X4876901Y5701792D01*
X4877866Y5706110D01*
X4878933Y5708446D01*
X4881473Y5717895D01*
X4882337Y5727700D01*
X4881473Y5737504D01*
X4878933Y5746953D01*
X4874818Y5755894D01*
X4869180Y5763920D01*
X4862220Y5770880D01*
X4854194Y5776518D01*
X4845253Y5780633D01*
X4835804Y5783173D01*
X4826000Y5784037D01*
X4816195Y5783173D01*
X4806746Y5780633D01*
X4797806Y5776518D01*
X4789779Y5770880D01*
X4782820Y5763920D01*
X4777181Y5755894D01*
X4773066Y5746953D01*
X4770526Y5737504D01*
X4769662Y5727700D01*
X4770526Y5717895D01*
X4773066Y5708446D01*
X4774133Y5706110D01*
X4775098Y5701792D01*
X4775098Y5697982D01*
X4774438Y5694476D01*
X4772609Y5691378D01*
X4769815Y5689092D01*
X4763922Y5685840D01*
X4752136Y5677306D01*
X4741519Y5667349D01*
X4732223Y5656122D01*
X4724450Y5643829D01*
X4718253Y5630672D01*
X4713732Y5616803D01*
X4711039Y5602528D01*
X4710125Y5588000D01*
X4711039Y5573471D01*
X4713732Y5559196D01*
X4718253Y5545328D01*
X4724450Y5532170D01*
X4732223Y5519877D01*
X4741519Y5508650D01*
X4752136Y5498693D01*
X4763922Y5490159D01*
X4776673Y5483148D01*
X4790186Y5477764D01*
X4804308Y5474157D01*
G37*
G36*
X4584700Y5473039D02*
G01*
X4593691Y5474157D01*
X4607814Y5477764D01*
X4621326Y5483148D01*
X4634077Y5490159D01*
X4645863Y5498693D01*
X4656480Y5508650D01*
X4665776Y5519877D01*
X4673549Y5532170D01*
X4679746Y5545328D01*
X4684268Y5559196D01*
X4686960Y5573471D01*
X4687112Y5575300D01*
X4584700Y5575300D01*
G37*
G36*
X4559300Y5473039D02*
G01*
X4559300Y5575300D01*
X4456887Y5575300D01*
X4457039Y5573471D01*
X4459732Y5559196D01*
X4464253Y5545328D01*
X4470450Y5532170D01*
X4478223Y5519877D01*
X4487519Y5508650D01*
X4498136Y5498693D01*
X4509922Y5490159D01*
X4522673Y5483148D01*
X4536186Y5477764D01*
X4550308Y5474157D01*
G37*
G36*
X5473700Y5473700D02*
G01*
X5736336Y5473700D01*
X5735929Y5484063D01*
X5733034Y5507024D01*
X5728208Y5529630D01*
X5721553Y5551728D01*
X5713018Y5573217D01*
X5702757Y5593892D01*
X5690819Y5613704D01*
X5677204Y5632348D01*
X5662117Y5649874D01*
X5645607Y5666028D01*
X5627827Y5680760D01*
X5608828Y5693968D01*
X5588812Y5705500D01*
X5567934Y5715355D01*
X5546242Y5723382D01*
X5523992Y5729630D01*
X5501284Y5733948D01*
X5478322Y5736336D01*
X5473700Y5736437D01*
G37*
G36*
X393700Y5473700D02*
G01*
X656336Y5473700D01*
X655929Y5484063D01*
X653034Y5507024D01*
X648208Y5529630D01*
X641553Y5551728D01*
X633018Y5573217D01*
X622757Y5593892D01*
X610819Y5613704D01*
X597204Y5632348D01*
X582117Y5649874D01*
X565607Y5666028D01*
X547827Y5680760D01*
X528828Y5693968D01*
X508812Y5705500D01*
X487934Y5715355D01*
X466242Y5723382D01*
X443992Y5729630D01*
X421284Y5733948D01*
X398322Y5736336D01*
X393700Y5736437D01*
G37*
G36*
X5185410Y5473700D02*
G01*
X5448300Y5473700D01*
X5448300Y5736386D01*
X5432145Y5735370D01*
X5409285Y5732018D01*
X5386781Y5726734D01*
X5364835Y5719572D01*
X5343499Y5710631D01*
X5323027Y5699912D01*
X5303520Y5687568D01*
X5285130Y5673598D01*
X5267960Y5658104D01*
X5252161Y5641289D01*
X5237784Y5623153D01*
X5224983Y5603900D01*
X5213858Y5583682D01*
X5204460Y5562549D01*
X5196890Y5540756D01*
X5191150Y5518353D01*
X5187289Y5495594D01*
G37*
G36*
X105410Y5473700D02*
G01*
X368300Y5473700D01*
X368300Y5736386D01*
X352145Y5735370D01*
X329285Y5732018D01*
X306781Y5726734D01*
X284835Y5719572D01*
X263499Y5710631D01*
X243027Y5699912D01*
X223520Y5687568D01*
X205130Y5673598D01*
X187960Y5658104D01*
X172161Y5641289D01*
X157784Y5623153D01*
X144983Y5603900D01*
X133858Y5583682D01*
X124460Y5562549D01*
X116890Y5540756D01*
X111150Y5518353D01*
X107289Y5495594D01*
G37*
G36*
X2691688Y5583682D02*
G01*
X2750261Y5583682D01*
X2756560Y5584393D01*
X2764840Y5587593D01*
X2767634Y5588000D01*
X2970784Y5588000D01*
X2971800Y5589016D01*
X2971800Y5713984D01*
X2970784Y5715000D01*
X2763520Y5715000D01*
X2760167Y5715558D01*
X2756560Y5716828D01*
X2750261Y5717540D01*
X2691688Y5717540D01*
X2685389Y5716828D01*
X2681782Y5715558D01*
X2678430Y5715000D01*
X2575560Y5715000D01*
X2571648Y5715762D01*
X2568397Y5717997D01*
X2566162Y5721248D01*
X2565400Y5725160D01*
X2565400Y5589016D01*
X2566416Y5588000D01*
X2674315Y5588000D01*
X2677109Y5587593D01*
X2679903Y5586323D01*
X2685389Y5584393D01*
G37*

%LPD*%
D10*
X2739897Y5668010D02*
G01*
X2739897Y5671312D01*
X2736850Y5677662D01*
X2733547Y5680963D01*
X2727197Y5684012D01*
X2714497Y5684012D01*
X2708147Y5680963D01*
X2705100Y5677662D01*
X2701797Y5671312D01*
X2701797Y5664962D01*
X2705100Y5658612D01*
X2711450Y5648960D01*
X2743200Y5617210D01*
X2698750Y5617210D01*
D11*
X3683000Y2946400D02*
G01*
X3682987Y3307717D01*
X3683000Y4572000D01*
X2031994Y2692394D02*
G01*
X2032000Y4826000D01*
X4826000Y5727700D02*
G01*
X4826000Y5588000D01*
X4826000Y5334000D02*
G01*
X4826000Y5181600D01*
X5080000Y5588000D02*
G01*
X5080000Y4571987D01*
X4825987Y4825987D02*
G01*
X4826000Y5181600D01*
D12*
G01*
X999997Y6641998D03*
G01*
X11284000Y6641998D03*
G01*
X1499996Y-7241997D03*
G01*
X10784001Y-7241997D03*
D13*
G01*
X5245684Y3353003D03*
G01*
X5245684Y2488996D03*
G01*
X5625693Y2488996D03*
G01*
X5625693Y3353003D03*
D14*
G01*
X381000Y5461000D03*
G01*
X5461000Y5461000D03*
G01*
X5461000Y381000D03*
G01*
X381000Y381000D03*
G01*
X5461000Y5461000D03*
G01*
X381000Y5461000D03*
D15*
G01*
X4826000Y5588000D03*
G01*
X4826000Y5334000D03*
G01*
X4572000Y5334000D03*
G01*
X4572000Y5588000D03*
D16*
G01*
X2286000Y4826000D03*
G01*
X2032000Y4826000D03*
D17*
G01*
X910818Y2799714D03*
G01*
X910818Y3053714D03*
G01*
X910818Y3307714D03*
G01*
X910818Y2545714D03*
D18*
G01*
X4826000Y4825974D03*
G01*
X5080000Y4571974D03*
G01*
X4826000Y5727700D03*
G01*
X5080000Y5588000D03*
G01*
X4826000Y5181600D03*
G01*
X3683000Y4572000D03*
G01*
X3683000Y2946400D03*
G01*
X2032000Y2692400D03*
G01*
X3683000Y3307714D03*
M02*
