M48
METRIC,LZ,000.000
;FILE_FORMAT=3:3
;TYPE=PLATED
;Layer: PTH_Through_Via
;EasyEDA v6.5.29, 2023-07-09 12:24:00
;97f15dd9b7304d05b9f7bb3fd5aabb56,5a6b42c53f6a479593ecc07194224c93,10
;Gerber Generator version 0.2
;Holesize 1 = 0.305 mm
T01C0.305
%
G05
G90
T01
X024130Y041910
X029210Y042545
X031750Y043180
X021590Y016510
X024130Y015875
X031750Y014605
X029210Y015240
X003810Y007620
X004445Y008255
X053340Y036195
X055753Y036830
X025400Y036830
X027940Y036195
X008763Y036068
X052070Y035433
X048260Y057277
X050800Y055880
X048260Y051181
X050800Y049530
X043853Y057277
X003810Y049530
X052070Y034290
X006731Y034290
X043091Y051181
X000635Y051181
X046990Y024130
X004318Y024130
X005715Y026797
X003114Y031877
X004064Y019558
X006731Y019558
X009668Y008255
X011668Y007620
X042164Y005969
X050038Y005969
X037592Y003302
X006731Y024130
X026670Y022352
X026670Y036195
X006096Y015240
X002032Y015240
X002159Y049276
X002159Y045085
X046228Y011811
M30
