G04 Layer: BottomLayer*
G04 EasyEDA v6.5.29, 2023-07-09 12:24:00*
G04 97f15dd9b7304d05b9f7bb3fd5aabb56,5a6b42c53f6a479593ecc07194224c93,10*
G04 Gerber Generator version 0.2*
G04 Scale: 100 percent, Rotated: No, Reflected: No *
G04 Dimensions in millimeters *
G04 leading zeros omitted , absolute positions ,4 integer and 5 decimal *
%FSLAX45Y45*%
%MOMM*%

%ADD10C,0.1524*%
%ADD11C,0.2540*%
%ADD12C,0.5000*%
%ADD13C,0.6350*%
%ADD14C,1.0000*%
%ADD15C,5.0000*%
%ADD16C,2.0000*%
%ADD17C,1.7000*%
%ADD18C,1.8000*%
%ADD19C,0.6096*%
%ADD20C,0.0196*%

%LPD*%
G36*
X5805932Y25908D02*
G01*
X36068Y26416D01*
X32156Y27178D01*
X28905Y29413D01*
X26670Y32664D01*
X25908Y36576D01*
X25908Y5056327D01*
X26720Y5060238D01*
X28956Y5063591D01*
X32308Y5065776D01*
X36220Y5066487D01*
X40132Y5065623D01*
X44805Y5063591D01*
X54000Y5061254D01*
X63906Y5060442D01*
X4825796Y5060442D01*
X4830775Y5060645D01*
X4835499Y5061254D01*
X4840173Y5062220D01*
X4844694Y5063591D01*
X4849164Y5065318D01*
X4853432Y5067401D01*
X4857546Y5069840D01*
X4861407Y5072583D01*
X4865065Y5075682D01*
X4868418Y5079034D01*
X4871516Y5082692D01*
X4874260Y5086553D01*
X4876698Y5090668D01*
X4878781Y5094935D01*
X4880508Y5099405D01*
X4881880Y5103926D01*
X4882845Y5108600D01*
X4883454Y5113324D01*
X4883658Y5118303D01*
X4883658Y5227726D01*
X4884166Y5230876D01*
X4885588Y5233720D01*
X4887823Y5235956D01*
X4899863Y5244693D01*
X4910480Y5254650D01*
X4919776Y5265877D01*
X4927549Y5278170D01*
X4933746Y5291328D01*
X4938268Y5305196D01*
X4940960Y5319471D01*
X4941874Y5334000D01*
X4940960Y5348528D01*
X4938268Y5362803D01*
X4933746Y5376672D01*
X4927549Y5389829D01*
X4919776Y5402122D01*
X4910480Y5413349D01*
X4899863Y5423306D01*
X4888077Y5431840D01*
X4875326Y5438851D01*
X4861814Y5444236D01*
X4847691Y5447842D01*
X4833264Y5449671D01*
X4818735Y5449671D01*
X4804308Y5447842D01*
X4790186Y5444236D01*
X4776673Y5438851D01*
X4763922Y5431840D01*
X4752136Y5423306D01*
X4741519Y5413349D01*
X4732223Y5402122D01*
X4724450Y5389829D01*
X4718253Y5376672D01*
X4713732Y5362803D01*
X4711039Y5348528D01*
X4710125Y5334000D01*
X4711039Y5319471D01*
X4713732Y5305196D01*
X4718253Y5291328D01*
X4724450Y5278170D01*
X4732223Y5265877D01*
X4741519Y5254650D01*
X4752136Y5244693D01*
X4764176Y5235956D01*
X4766411Y5233720D01*
X4767834Y5230876D01*
X4768342Y5227726D01*
X4768342Y5185918D01*
X4767580Y5182006D01*
X4765344Y5178755D01*
X4762093Y5176520D01*
X4758182Y5175758D01*
X458571Y5175758D01*
X454558Y5176621D01*
X451154Y5179009D01*
X449021Y5182514D01*
X448462Y5186629D01*
X449580Y5190591D01*
X452170Y5193792D01*
X455879Y5195722D01*
X466242Y5198618D01*
X487934Y5206644D01*
X508812Y5216499D01*
X528828Y5228031D01*
X547827Y5241239D01*
X565607Y5255971D01*
X582117Y5272125D01*
X597204Y5289600D01*
X610819Y5308295D01*
X622757Y5328107D01*
X633018Y5348782D01*
X641553Y5370271D01*
X648208Y5392369D01*
X653034Y5414975D01*
X655929Y5437936D01*
X656336Y5448300D01*
X393700Y5448300D01*
X393700Y5185918D01*
X392938Y5182006D01*
X390702Y5178755D01*
X387400Y5176520D01*
X383540Y5175758D01*
X378460Y5175758D01*
X374548Y5176520D01*
X371246Y5178755D01*
X369062Y5182006D01*
X368300Y5185918D01*
X368300Y5448300D01*
X105410Y5448300D01*
X107289Y5426405D01*
X111150Y5403646D01*
X116890Y5381244D01*
X124460Y5359450D01*
X133858Y5338318D01*
X144983Y5318099D01*
X157784Y5298846D01*
X172161Y5280710D01*
X187960Y5263896D01*
X205130Y5248402D01*
X223520Y5234432D01*
X243027Y5222087D01*
X263499Y5211368D01*
X284835Y5202428D01*
X305816Y5195570D01*
X309372Y5193588D01*
X311861Y5190337D01*
X312826Y5186375D01*
X312216Y5182362D01*
X310032Y5178907D01*
X306679Y5176570D01*
X302666Y5175758D01*
X63906Y5175758D01*
X54000Y5174945D01*
X44805Y5172608D01*
X40132Y5170576D01*
X36220Y5169712D01*
X32308Y5170424D01*
X28956Y5172608D01*
X26720Y5175961D01*
X25908Y5179872D01*
X25908Y5805932D01*
X26670Y5809843D01*
X28905Y5813094D01*
X32156Y5815330D01*
X36068Y5816092D01*
X2555240Y5816092D01*
X2559151Y5815330D01*
X2562402Y5813094D01*
X2564638Y5809843D01*
X2565400Y5805932D01*
X2566162Y5809843D01*
X2568397Y5813094D01*
X2571648Y5815330D01*
X2575560Y5816092D01*
X5805932Y5816092D01*
X5809843Y5815330D01*
X5813094Y5813094D01*
X5815330Y5809843D01*
X5816092Y5805932D01*
X5816092Y3902303D01*
X5815279Y3898341D01*
X5812993Y3894988D01*
X5809589Y3892804D01*
X5805627Y3892143D01*
X5801664Y3893058D01*
X5798413Y3895445D01*
X5792165Y3902354D01*
X5781344Y3911549D01*
X5769406Y3919321D01*
X5756605Y3925468D01*
X5743143Y3929938D01*
X5729173Y3932682D01*
X5715000Y3933596D01*
X5700826Y3932682D01*
X5686856Y3929938D01*
X5673394Y3925468D01*
X5660593Y3919321D01*
X5648655Y3911549D01*
X5637834Y3902354D01*
X5628284Y3891838D01*
X5620156Y3880205D01*
X5613603Y3867607D01*
X5608675Y3854246D01*
X5605526Y3840378D01*
X5604154Y3826256D01*
X5604611Y3812032D01*
X5606897Y3798011D01*
X5612434Y3779062D01*
X5611672Y3775100D01*
X5609437Y3771747D01*
X5579821Y3742131D01*
X5576925Y3740099D01*
X5573522Y3739184D01*
X5565495Y3738473D01*
X5557012Y3736238D01*
X5552795Y3735984D01*
X5548884Y3737508D01*
X5545886Y3740454D01*
X5544362Y3744366D01*
X5544566Y3748582D01*
X5546445Y3752342D01*
X5551932Y3759250D01*
X5559298Y3771392D01*
X5565089Y3784396D01*
X5569102Y3798011D01*
X5571388Y3812032D01*
X5571845Y3826256D01*
X5570474Y3840378D01*
X5567324Y3854246D01*
X5562396Y3867607D01*
X5555843Y3880205D01*
X5547715Y3891838D01*
X5538165Y3902354D01*
X5527344Y3911549D01*
X5515406Y3919321D01*
X5502605Y3925468D01*
X5489143Y3929938D01*
X5475173Y3932682D01*
X5461000Y3933596D01*
X5446826Y3932682D01*
X5432856Y3929938D01*
X5419394Y3925468D01*
X5406593Y3919321D01*
X5394655Y3911549D01*
X5383834Y3902354D01*
X5374284Y3891838D01*
X5366156Y3880205D01*
X5359603Y3867607D01*
X5354675Y3854246D01*
X5351526Y3840378D01*
X5350154Y3826256D01*
X5350611Y3812032D01*
X5352897Y3798011D01*
X5356961Y3784396D01*
X5362702Y3771392D01*
X5369661Y3759911D01*
X5370982Y3756456D01*
X5370931Y3752748D01*
X5369560Y3749294D01*
X5325059Y3678021D01*
X5322468Y3675278D01*
X5319064Y3673601D01*
X5314746Y3672433D01*
X5305806Y3668318D01*
X5297779Y3662679D01*
X5290820Y3655720D01*
X5285181Y3647694D01*
X5281066Y3638753D01*
X5278526Y3629304D01*
X5277662Y3619500D01*
X5278526Y3609695D01*
X5281066Y3600246D01*
X5285181Y3591306D01*
X5290820Y3583279D01*
X5297779Y3576320D01*
X5305806Y3570681D01*
X5314746Y3566566D01*
X5324195Y3564026D01*
X5334000Y3563162D01*
X5343804Y3564026D01*
X5353253Y3566566D01*
X5362194Y3570681D01*
X5370220Y3576320D01*
X5377180Y3583279D01*
X5382818Y3591306D01*
X5386933Y3600246D01*
X5389473Y3609695D01*
X5390337Y3619500D01*
X5389270Y3633470D01*
X5390692Y3637330D01*
X5435142Y3708501D01*
X5437784Y3711295D01*
X5441238Y3712921D01*
X5445048Y3713175D01*
X5453888Y3712057D01*
X5468112Y3712057D01*
X5482183Y3713835D01*
X5495950Y3717442D01*
X5509107Y3722776D01*
X5512460Y3724706D01*
X5516524Y3725976D01*
X5520740Y3725468D01*
X5524347Y3723284D01*
X5526786Y3719829D01*
X5527598Y3715664D01*
X5526684Y3711549D01*
X5522366Y3702253D01*
X5519826Y3692804D01*
X5518962Y3683000D01*
X5519826Y3673195D01*
X5522366Y3663746D01*
X5526481Y3654806D01*
X5532120Y3646779D01*
X5539079Y3639820D01*
X5547106Y3634181D01*
X5556046Y3630066D01*
X5565495Y3627526D01*
X5575300Y3626662D01*
X5585104Y3627526D01*
X5594553Y3630066D01*
X5603494Y3634181D01*
X5611520Y3639820D01*
X5618480Y3646779D01*
X5624118Y3654806D01*
X5628233Y3663746D01*
X5630773Y3673195D01*
X5631484Y3681222D01*
X5632399Y3684625D01*
X5634431Y3687521D01*
X5664149Y3717239D01*
X5667400Y3719423D01*
X5671261Y3720185D01*
X5675122Y3719474D01*
X5680049Y3717442D01*
X5693816Y3713835D01*
X5707888Y3712057D01*
X5722112Y3712057D01*
X5736183Y3713835D01*
X5749950Y3717442D01*
X5763107Y3722776D01*
X5775502Y3729786D01*
X5786882Y3738270D01*
X5801207Y3751935D01*
X5805170Y3753053D01*
X5809284Y3752545D01*
X5812840Y3750411D01*
X5815228Y3747008D01*
X5816092Y3742944D01*
X5816092Y3697935D01*
X5815330Y3694074D01*
X5813094Y3690772D01*
X5707227Y3584905D01*
X5703925Y3582670D01*
X5700064Y3581908D01*
X5461406Y3581908D01*
X5457596Y3581603D01*
X5450535Y3579571D01*
X5445658Y3576828D01*
X5442407Y3574034D01*
X5315966Y3447592D01*
X5313476Y3444697D01*
X5309920Y3438245D01*
X5308396Y3432860D01*
X5308092Y3428593D01*
X5308092Y2413406D01*
X5308396Y2409596D01*
X5310428Y2402535D01*
X5313172Y2397658D01*
X5315966Y2394407D01*
X5442407Y2267966D01*
X5445302Y2265476D01*
X5451754Y2261920D01*
X5457139Y2260396D01*
X5461406Y2260092D01*
X5700064Y2260092D01*
X5703925Y2259330D01*
X5707227Y2257094D01*
X5813094Y2151227D01*
X5815330Y2147925D01*
X5816092Y2144064D01*
X5816092Y2124303D01*
X5815279Y2120341D01*
X5812993Y2116988D01*
X5809589Y2114804D01*
X5805627Y2114143D01*
X5801664Y2115058D01*
X5798413Y2117445D01*
X5792165Y2124354D01*
X5781344Y2133549D01*
X5769406Y2141321D01*
X5756605Y2147468D01*
X5743143Y2151938D01*
X5729173Y2154682D01*
X5715000Y2155596D01*
X5700826Y2154682D01*
X5686856Y2151938D01*
X5673394Y2147468D01*
X5660593Y2141321D01*
X5648655Y2133549D01*
X5637834Y2124354D01*
X5628284Y2113838D01*
X5620156Y2102205D01*
X5613603Y2089607D01*
X5608675Y2076246D01*
X5605526Y2062378D01*
X5604154Y2048256D01*
X5604611Y2034032D01*
X5606897Y2020011D01*
X5610961Y2006396D01*
X5616702Y1993392D01*
X5624068Y1981250D01*
X5632907Y1970125D01*
X5643118Y1960270D01*
X5654497Y1951786D01*
X5666892Y1944776D01*
X5680049Y1939442D01*
X5693816Y1935835D01*
X5707888Y1934057D01*
X5722112Y1934057D01*
X5736183Y1935835D01*
X5749950Y1939442D01*
X5763107Y1944776D01*
X5775502Y1951786D01*
X5786882Y1960270D01*
X5801207Y1973935D01*
X5805170Y1975053D01*
X5809284Y1974545D01*
X5812840Y1972411D01*
X5815228Y1969007D01*
X5816092Y1964943D01*
X5816092Y36068D01*
X5815330Y32207D01*
X5813094Y28905D01*
X5809843Y26670D01*
G37*

%LPC*%
G36*
X2794000Y3563162D02*
G01*
X2803804Y3564026D01*
X2813253Y3566566D01*
X2822194Y3570681D01*
X2830220Y3576320D01*
X2837180Y3583279D01*
X2842818Y3591306D01*
X2846933Y3600246D01*
X2849473Y3609695D01*
X2850337Y3619500D01*
X2849473Y3629304D01*
X2846933Y3638753D01*
X2842818Y3647694D01*
X2837180Y3655720D01*
X2830220Y3662679D01*
X2822194Y3668318D01*
X2813253Y3672433D01*
X2803804Y3674973D01*
X2794000Y3675837D01*
X2784195Y3674973D01*
X2774746Y3672433D01*
X2765806Y3668318D01*
X2757779Y3662679D01*
X2750820Y3655720D01*
X2745181Y3647694D01*
X2741066Y3638753D01*
X2738526Y3629304D01*
X2737662Y3619500D01*
X2738526Y3609695D01*
X2741066Y3600246D01*
X2745181Y3591306D01*
X2750820Y3583279D01*
X2757779Y3576320D01*
X2765806Y3570681D01*
X2774746Y3566566D01*
X2784195Y3564026D01*
G37*
G36*
X393700Y105562D02*
G01*
X398322Y105664D01*
X421284Y108051D01*
X443992Y112369D01*
X466242Y118618D01*
X487934Y126644D01*
X508812Y136499D01*
X528828Y148031D01*
X547827Y161239D01*
X565607Y175971D01*
X582117Y192125D01*
X597204Y209600D01*
X610819Y228295D01*
X622757Y248107D01*
X633018Y268782D01*
X641553Y290271D01*
X648208Y312369D01*
X653034Y334975D01*
X655929Y357936D01*
X656336Y368300D01*
X393700Y368300D01*
G37*
G36*
X5448300Y105613D02*
G01*
X5448300Y368300D01*
X5185410Y368300D01*
X5187289Y346405D01*
X5191150Y323646D01*
X5196890Y301244D01*
X5204460Y279450D01*
X5213858Y258317D01*
X5224983Y238099D01*
X5237784Y218846D01*
X5252161Y200710D01*
X5267960Y183896D01*
X5285130Y168402D01*
X5303520Y154432D01*
X5323027Y142087D01*
X5343499Y131368D01*
X5364835Y122428D01*
X5386781Y115265D01*
X5409285Y109982D01*
X5432145Y106629D01*
G37*
G36*
X368300Y105613D02*
G01*
X368300Y368300D01*
X105410Y368300D01*
X107289Y346405D01*
X111150Y323646D01*
X116890Y301244D01*
X124460Y279450D01*
X133858Y258317D01*
X144983Y238099D01*
X157784Y218846D01*
X172161Y200710D01*
X187960Y183896D01*
X205130Y168402D01*
X223520Y154432D01*
X243027Y142087D01*
X263499Y131368D01*
X284835Y122428D01*
X306781Y115265D01*
X329285Y109982D01*
X352145Y106629D01*
G37*
G36*
X3759200Y273862D02*
G01*
X3769004Y274726D01*
X3778453Y277266D01*
X3787394Y281381D01*
X3795420Y287020D01*
X3802379Y293979D01*
X3808018Y302006D01*
X3812133Y310946D01*
X3814673Y320395D01*
X3815537Y330200D01*
X3814673Y340004D01*
X3812133Y349453D01*
X3808018Y358394D01*
X3802379Y366420D01*
X3795420Y373380D01*
X3787394Y379018D01*
X3778453Y383133D01*
X3769004Y385673D01*
X3760978Y386384D01*
X3757574Y387299D01*
X3754678Y389331D01*
X3667201Y476758D01*
X3665321Y479450D01*
X3664356Y482600D01*
X3664458Y485901D01*
X3665982Y493826D01*
X3666896Y508000D01*
X3665982Y522173D01*
X3663238Y536143D01*
X3658768Y549605D01*
X3652621Y562406D01*
X3644849Y574344D01*
X3635654Y585165D01*
X3625138Y594715D01*
X3613505Y602843D01*
X3600907Y609396D01*
X3587546Y614324D01*
X3573678Y617474D01*
X3559556Y618845D01*
X3545332Y618388D01*
X3531311Y616102D01*
X3517696Y612038D01*
X3504692Y606298D01*
X3492550Y598932D01*
X3481425Y590092D01*
X3471570Y579882D01*
X3463086Y568502D01*
X3456076Y556107D01*
X3450742Y542950D01*
X3447135Y529183D01*
X3445357Y515112D01*
X3445357Y500888D01*
X3447135Y486816D01*
X3450742Y473049D01*
X3456076Y459892D01*
X3463086Y447497D01*
X3471570Y436118D01*
X3481425Y425907D01*
X3492550Y417068D01*
X3504692Y409701D01*
X3517696Y403910D01*
X3531311Y399897D01*
X3545332Y397611D01*
X3559556Y397154D01*
X3573678Y398526D01*
X3587546Y401675D01*
X3600907Y406603D01*
X3612235Y412496D01*
X3616299Y413664D01*
X3620515Y413004D01*
X3624122Y410718D01*
X3700068Y334721D01*
X3702100Y331825D01*
X3703015Y328422D01*
X3703726Y320395D01*
X3706266Y310946D01*
X3710381Y302006D01*
X3716020Y293979D01*
X3722979Y287020D01*
X3731006Y281381D01*
X3739946Y277266D01*
X3749395Y274726D01*
G37*
G36*
X393700Y393700D02*
G01*
X656336Y393700D01*
X655929Y404063D01*
X653034Y427024D01*
X648208Y449630D01*
X641553Y471728D01*
X633018Y493217D01*
X622757Y513892D01*
X610819Y533704D01*
X597204Y552348D01*
X582117Y569874D01*
X565607Y586028D01*
X547827Y600760D01*
X528828Y613968D01*
X508812Y625500D01*
X487934Y635355D01*
X466242Y643382D01*
X443992Y649630D01*
X421284Y653948D01*
X398322Y656336D01*
X393700Y656437D01*
G37*
G36*
X5473700Y393700D02*
G01*
X5736336Y393700D01*
X5735929Y404063D01*
X5733034Y427024D01*
X5728208Y449630D01*
X5721553Y471728D01*
X5713018Y493217D01*
X5702757Y513892D01*
X5690819Y533704D01*
X5677204Y552348D01*
X5662117Y569874D01*
X5645607Y586028D01*
X5627827Y600760D01*
X5608828Y613968D01*
X5588812Y625500D01*
X5567934Y635355D01*
X5546242Y643382D01*
X5523992Y649630D01*
X5501284Y653948D01*
X5478322Y656336D01*
X5473700Y656437D01*
G37*
G36*
X5185410Y393700D02*
G01*
X5448300Y393700D01*
X5448300Y656386D01*
X5432145Y655370D01*
X5409285Y652018D01*
X5386781Y646734D01*
X5364835Y639572D01*
X5343499Y630631D01*
X5323027Y619912D01*
X5303520Y607568D01*
X5285130Y593598D01*
X5267960Y578104D01*
X5252161Y561289D01*
X5237784Y543153D01*
X5224983Y523900D01*
X5213858Y503682D01*
X5204460Y482549D01*
X5196890Y460756D01*
X5191150Y438353D01*
X5187289Y415594D01*
G37*
G36*
X105410Y393700D02*
G01*
X368300Y393700D01*
X368300Y656386D01*
X352145Y655370D01*
X329285Y652018D01*
X306781Y646734D01*
X284835Y639572D01*
X263499Y630631D01*
X243027Y619912D01*
X223520Y607568D01*
X205130Y593598D01*
X187960Y578104D01*
X172161Y561289D01*
X157784Y543153D01*
X144983Y523900D01*
X133858Y503682D01*
X124460Y482549D01*
X116890Y460756D01*
X111150Y438353D01*
X107289Y415594D01*
G37*
G36*
X3305556Y397154D02*
G01*
X3319678Y398526D01*
X3333546Y401675D01*
X3346907Y406603D01*
X3359505Y413156D01*
X3371138Y421284D01*
X3381654Y430834D01*
X3390849Y441655D01*
X3398621Y453593D01*
X3404768Y466394D01*
X3409238Y479856D01*
X3411982Y493826D01*
X3412896Y508000D01*
X3411982Y522173D01*
X3409238Y536143D01*
X3404768Y549605D01*
X3398621Y562406D01*
X3390849Y574344D01*
X3381654Y585165D01*
X3371138Y594715D01*
X3359505Y602843D01*
X3346907Y609396D01*
X3333546Y614324D01*
X3319678Y617474D01*
X3305556Y618845D01*
X3291332Y618388D01*
X3277311Y616102D01*
X3263696Y612038D01*
X3250692Y606298D01*
X3238550Y598932D01*
X3227425Y590092D01*
X3217570Y579882D01*
X3209086Y568502D01*
X3202076Y556107D01*
X3196742Y542950D01*
X3193135Y529183D01*
X3191357Y515112D01*
X3191357Y500888D01*
X3193135Y486816D01*
X3196742Y473049D01*
X3202076Y459892D01*
X3209086Y447497D01*
X3217570Y436118D01*
X3227425Y425907D01*
X3238550Y417068D01*
X3250692Y409701D01*
X3263696Y403910D01*
X3277311Y399897D01*
X3291332Y397611D01*
G37*
G36*
X2691688Y5583682D02*
G01*
X2750261Y5583682D01*
X2756560Y5584393D01*
X2764840Y5587593D01*
X2767634Y5588000D01*
X2970784Y5588000D01*
X2971800Y5589016D01*
X2971800Y5713984D01*
X2970784Y5715000D01*
X2763520Y5715000D01*
X2760167Y5715558D01*
X2756560Y5716828D01*
X2750261Y5717540D01*
X2691688Y5717540D01*
X2685389Y5716828D01*
X2681782Y5715558D01*
X2678430Y5715000D01*
X2575560Y5715000D01*
X2571648Y5715762D01*
X2568397Y5717997D01*
X2566162Y5721248D01*
X2565400Y5725160D01*
X2565400Y5589016D01*
X2566416Y5588000D01*
X2674315Y5588000D01*
X2677109Y5587593D01*
X2679903Y5586323D01*
X2685389Y5584393D01*
G37*
G36*
X4216400Y540562D02*
G01*
X4226204Y541426D01*
X4235653Y543966D01*
X4244594Y548081D01*
X4252620Y553720D01*
X4254195Y555294D01*
X4257497Y557530D01*
X4261408Y558292D01*
X4958791Y558292D01*
X4962702Y557530D01*
X4966004Y555294D01*
X4967579Y553720D01*
X4975606Y548081D01*
X4984546Y543966D01*
X4993995Y541426D01*
X5003800Y540562D01*
X5013604Y541426D01*
X5023053Y543966D01*
X5031994Y548081D01*
X5040020Y553720D01*
X5046980Y560679D01*
X5052618Y568706D01*
X5056733Y577646D01*
X5059273Y587095D01*
X5060137Y596900D01*
X5059273Y606704D01*
X5056733Y616153D01*
X5052618Y625094D01*
X5046980Y633120D01*
X5040020Y640080D01*
X5031994Y645718D01*
X5023053Y649833D01*
X5013604Y652373D01*
X5003800Y653237D01*
X4993995Y652373D01*
X4984546Y649833D01*
X4975606Y645718D01*
X4967579Y640080D01*
X4966004Y638505D01*
X4962702Y636270D01*
X4958791Y635508D01*
X4261408Y635508D01*
X4257497Y636270D01*
X4254195Y638505D01*
X4252620Y640080D01*
X4244594Y645718D01*
X4235653Y649833D01*
X4226204Y652373D01*
X4216400Y653237D01*
X4206595Y652373D01*
X4197146Y649833D01*
X4188206Y645718D01*
X4180179Y640080D01*
X4173220Y633120D01*
X4167581Y625094D01*
X4163466Y616153D01*
X4160926Y606704D01*
X4160062Y596900D01*
X4160926Y587095D01*
X4163466Y577646D01*
X4167581Y568706D01*
X4173220Y560679D01*
X4180179Y553720D01*
X4188206Y548081D01*
X4197146Y543966D01*
X4206595Y541426D01*
G37*
G36*
X105410Y5473700D02*
G01*
X368300Y5473700D01*
X368300Y5736386D01*
X352145Y5735370D01*
X329285Y5732018D01*
X306781Y5726734D01*
X284835Y5719572D01*
X263499Y5710631D01*
X243027Y5699912D01*
X223520Y5687568D01*
X205130Y5673598D01*
X187960Y5658104D01*
X172161Y5641289D01*
X157784Y5623153D01*
X144983Y5603900D01*
X133858Y5583682D01*
X124460Y5562549D01*
X116890Y5540756D01*
X111150Y5518353D01*
X107289Y5495594D01*
G37*
G36*
X5185410Y5473700D02*
G01*
X5448300Y5473700D01*
X5448300Y5736386D01*
X5432145Y5735370D01*
X5409285Y5732018D01*
X5386781Y5726734D01*
X5364835Y5719572D01*
X5343499Y5710631D01*
X5323027Y5699912D01*
X5303520Y5687568D01*
X5285130Y5673598D01*
X5267960Y5658104D01*
X5252161Y5641289D01*
X5237784Y5623153D01*
X5224983Y5603900D01*
X5213858Y5583682D01*
X5204460Y5562549D01*
X5196890Y5540756D01*
X5191150Y5518353D01*
X5187289Y5495594D01*
G37*
G36*
X381000Y705662D02*
G01*
X390804Y706526D01*
X400253Y709066D01*
X409194Y713181D01*
X417220Y718820D01*
X418795Y720394D01*
X422097Y722630D01*
X426008Y723392D01*
X1121816Y723392D01*
X1125728Y722630D01*
X1129030Y720394D01*
X1130604Y718820D01*
X1138631Y713181D01*
X1147572Y709066D01*
X1157020Y706526D01*
X1166825Y705662D01*
X1176629Y706526D01*
X1186078Y709066D01*
X1195019Y713181D01*
X1203045Y718820D01*
X1210005Y725779D01*
X1215644Y733806D01*
X1219758Y742746D01*
X1222298Y752195D01*
X1223162Y762000D01*
X1222298Y771804D01*
X1219758Y781253D01*
X1215644Y790194D01*
X1210005Y798220D01*
X1203045Y805180D01*
X1195019Y810818D01*
X1186078Y814933D01*
X1176629Y817473D01*
X1166825Y818337D01*
X1157020Y817473D01*
X1147572Y814933D01*
X1138631Y810818D01*
X1130604Y805180D01*
X1129030Y803605D01*
X1125728Y801370D01*
X1121816Y800608D01*
X1031494Y800608D01*
X1027887Y801268D01*
X1024737Y803198D01*
X1022451Y806145D01*
X1021384Y809701D01*
X1021689Y813409D01*
X1022299Y815695D01*
X1023162Y825500D01*
X1022299Y835304D01*
X1019759Y844753D01*
X1015644Y853694D01*
X1010005Y861720D01*
X1003046Y868680D01*
X995019Y874318D01*
X986078Y878433D01*
X976630Y880973D01*
X966825Y881837D01*
X957021Y880973D01*
X947572Y878433D01*
X938631Y874318D01*
X930605Y868680D01*
X929030Y867105D01*
X925728Y864869D01*
X921816Y864108D01*
X489508Y864108D01*
X485597Y864869D01*
X482295Y867105D01*
X480720Y868680D01*
X472693Y874318D01*
X463753Y878433D01*
X454304Y880973D01*
X444500Y881837D01*
X434695Y880973D01*
X425246Y878433D01*
X416306Y874318D01*
X408279Y868680D01*
X401320Y861720D01*
X395681Y853694D01*
X391566Y844753D01*
X389026Y835304D01*
X388315Y827430D01*
X387400Y824026D01*
X385368Y821131D01*
X382473Y819099D01*
X379069Y818184D01*
X371195Y817473D01*
X361746Y814933D01*
X352806Y810818D01*
X344779Y805180D01*
X337820Y798220D01*
X332181Y790194D01*
X328066Y781253D01*
X325526Y771804D01*
X324662Y762000D01*
X325526Y752195D01*
X328066Y742746D01*
X332181Y733806D01*
X337820Y725779D01*
X344779Y718820D01*
X352806Y713181D01*
X361746Y709066D01*
X371195Y706526D01*
G37*
G36*
X393700Y5473700D02*
G01*
X656336Y5473700D01*
X655929Y5484063D01*
X653034Y5507024D01*
X648208Y5529630D01*
X641553Y5551728D01*
X633018Y5573217D01*
X622757Y5593892D01*
X610819Y5613704D01*
X597204Y5632348D01*
X582117Y5649874D01*
X565607Y5666028D01*
X547827Y5680760D01*
X528828Y5693968D01*
X508812Y5705500D01*
X487934Y5715355D01*
X466242Y5723382D01*
X443992Y5729630D01*
X421284Y5733948D01*
X398322Y5736336D01*
X393700Y5736437D01*
G37*
G36*
X5473700Y5473700D02*
G01*
X5736336Y5473700D01*
X5735929Y5484063D01*
X5733034Y5507024D01*
X5728208Y5529630D01*
X5721553Y5551728D01*
X5713018Y5573217D01*
X5702757Y5593892D01*
X5690819Y5613704D01*
X5677204Y5632348D01*
X5662117Y5649874D01*
X5645607Y5666028D01*
X5627827Y5680760D01*
X5608828Y5693968D01*
X5588812Y5705500D01*
X5567934Y5715355D01*
X5546242Y5723382D01*
X5523992Y5729630D01*
X5501284Y5733948D01*
X5478322Y5736336D01*
X5473700Y5736437D01*
G37*
G36*
X4584700Y5473039D02*
G01*
X4593691Y5474157D01*
X4607814Y5477764D01*
X4621326Y5483148D01*
X4634077Y5490159D01*
X4645863Y5498693D01*
X4656480Y5508650D01*
X4665776Y5519877D01*
X4673549Y5532170D01*
X4679746Y5545328D01*
X4684268Y5559196D01*
X4686960Y5573471D01*
X4687112Y5575300D01*
X4584700Y5575300D01*
G37*
G36*
X209804Y999032D02*
G01*
X223621Y999896D01*
X237185Y1002639D01*
X250342Y1007059D01*
X262737Y1013206D01*
X274269Y1020876D01*
X284683Y1030020D01*
X293827Y1040434D01*
X301498Y1051966D01*
X307644Y1064361D01*
X312064Y1077518D01*
X314807Y1091082D01*
X315671Y1104900D01*
X314807Y1118717D01*
X312064Y1132281D01*
X307644Y1145438D01*
X301498Y1157833D01*
X293827Y1169365D01*
X284683Y1179779D01*
X274269Y1188923D01*
X262737Y1196594D01*
X250342Y1202740D01*
X237185Y1207160D01*
X223621Y1209903D01*
X209804Y1210767D01*
X195986Y1209903D01*
X182422Y1207160D01*
X169265Y1202740D01*
X156870Y1196594D01*
X145338Y1188923D01*
X134924Y1179779D01*
X125780Y1169365D01*
X118110Y1157833D01*
X111963Y1145438D01*
X107543Y1132281D01*
X104800Y1118717D01*
X103936Y1104900D01*
X104800Y1091082D01*
X107543Y1077518D01*
X111963Y1064361D01*
X118110Y1051966D01*
X125780Y1040434D01*
X134924Y1030020D01*
X145338Y1020876D01*
X156870Y1013206D01*
X169265Y1007059D01*
X182422Y1002639D01*
X195986Y999896D01*
G37*
G36*
X2731008Y999032D02*
G01*
X2744825Y999896D01*
X2758389Y1002639D01*
X2771546Y1007059D01*
X2783941Y1013206D01*
X2795473Y1020876D01*
X2805887Y1030020D01*
X2815031Y1040434D01*
X2822702Y1051966D01*
X2828848Y1064361D01*
X2833268Y1077518D01*
X2836011Y1091082D01*
X2836875Y1104900D01*
X2836011Y1118717D01*
X2833268Y1132281D01*
X2828848Y1145438D01*
X2822702Y1157833D01*
X2815031Y1169365D01*
X2805887Y1179779D01*
X2795473Y1188923D01*
X2783941Y1196594D01*
X2771546Y1202740D01*
X2758389Y1207160D01*
X2744825Y1209903D01*
X2731008Y1210767D01*
X2717190Y1209903D01*
X2703626Y1207160D01*
X2690469Y1202740D01*
X2678074Y1196594D01*
X2666542Y1188923D01*
X2656128Y1179779D01*
X2646984Y1169365D01*
X2639314Y1157833D01*
X2633167Y1145438D01*
X2628747Y1132281D01*
X2626004Y1118717D01*
X2625140Y1104900D01*
X2626004Y1091082D01*
X2628747Y1077518D01*
X2633167Y1064361D01*
X2639314Y1051966D01*
X2646984Y1040434D01*
X2656128Y1030020D01*
X2666542Y1020876D01*
X2678074Y1013206D01*
X2690469Y1007059D01*
X2703626Y1002639D01*
X2717190Y999896D01*
G37*
G36*
X3105404Y999032D02*
G01*
X3119221Y999896D01*
X3132785Y1002639D01*
X3145942Y1007059D01*
X3158337Y1013206D01*
X3169869Y1020876D01*
X3180283Y1030020D01*
X3189427Y1040434D01*
X3197098Y1051966D01*
X3203244Y1064361D01*
X3207664Y1077518D01*
X3210407Y1091082D01*
X3211271Y1104900D01*
X3210407Y1118717D01*
X3207664Y1132281D01*
X3203244Y1145438D01*
X3197098Y1157833D01*
X3189427Y1169365D01*
X3180283Y1179779D01*
X3169869Y1188923D01*
X3158337Y1196594D01*
X3145942Y1202740D01*
X3132785Y1207160D01*
X3119221Y1209903D01*
X3105404Y1210767D01*
X3091586Y1209903D01*
X3078022Y1207160D01*
X3064865Y1202740D01*
X3052470Y1196594D01*
X3040938Y1188923D01*
X3030524Y1179779D01*
X3021380Y1169365D01*
X3013710Y1157833D01*
X3007563Y1145438D01*
X3003143Y1132281D01*
X3000400Y1118717D01*
X2999536Y1104900D01*
X3000400Y1091082D01*
X3003143Y1077518D01*
X3007563Y1064361D01*
X3013710Y1051966D01*
X3021380Y1040434D01*
X3030524Y1030020D01*
X3040938Y1020876D01*
X3052470Y1013206D01*
X3064865Y1007059D01*
X3078022Y1002639D01*
X3091586Y999896D01*
G37*
G36*
X5626608Y999032D02*
G01*
X5640425Y999896D01*
X5653989Y1002639D01*
X5667095Y1007059D01*
X5679541Y1013206D01*
X5691022Y1020876D01*
X5701436Y1030020D01*
X5710580Y1040434D01*
X5718302Y1051966D01*
X5724398Y1064361D01*
X5728868Y1077518D01*
X5731560Y1091082D01*
X5732475Y1104900D01*
X5731560Y1118717D01*
X5728868Y1132281D01*
X5724398Y1145438D01*
X5718302Y1157833D01*
X5710580Y1169365D01*
X5701436Y1179779D01*
X5691022Y1188923D01*
X5679541Y1196594D01*
X5667095Y1202740D01*
X5653989Y1207160D01*
X5640425Y1209903D01*
X5626608Y1210767D01*
X5612739Y1209903D01*
X5599176Y1207160D01*
X5586069Y1202740D01*
X5573623Y1196594D01*
X5562142Y1188923D01*
X5551728Y1179779D01*
X5542584Y1169365D01*
X5534863Y1157833D01*
X5528767Y1145438D01*
X5524296Y1132281D01*
X5521604Y1118717D01*
X5520690Y1104900D01*
X5521604Y1091082D01*
X5524296Y1077518D01*
X5528767Y1064361D01*
X5534863Y1051966D01*
X5542584Y1040434D01*
X5551728Y1030020D01*
X5562142Y1020876D01*
X5573623Y1013206D01*
X5586069Y1007059D01*
X5599176Y1002639D01*
X5612739Y999896D01*
G37*
G36*
X3477006Y1204010D02*
G01*
X3492195Y1204925D01*
X3507130Y1207668D01*
X3521659Y1212189D01*
X3535527Y1218438D01*
X3548532Y1226312D01*
X3560470Y1235659D01*
X3571240Y1246428D01*
X3580587Y1258366D01*
X3588461Y1271371D01*
X3594760Y1285290D01*
X3596944Y1288491D01*
X3600196Y1290574D01*
X3604006Y1291285D01*
X3607815Y1290574D01*
X3611067Y1288491D01*
X3613251Y1285290D01*
X3619550Y1271371D01*
X3627424Y1258366D01*
X3636772Y1246428D01*
X3647541Y1235659D01*
X3659479Y1226312D01*
X3672484Y1218438D01*
X3686352Y1212189D01*
X3700881Y1207668D01*
X3715816Y1204925D01*
X3731006Y1204010D01*
X3746195Y1204925D01*
X3761130Y1207668D01*
X3775659Y1212189D01*
X3789527Y1218438D01*
X3802532Y1226312D01*
X3814470Y1235659D01*
X3825240Y1246428D01*
X3834587Y1258366D01*
X3842461Y1271371D01*
X3848760Y1285290D01*
X3850944Y1288491D01*
X3854196Y1290574D01*
X3858006Y1291285D01*
X3861815Y1290574D01*
X3865067Y1288491D01*
X3867251Y1285290D01*
X3873550Y1271371D01*
X3881424Y1258366D01*
X3890772Y1246428D01*
X3901541Y1235659D01*
X3913479Y1226312D01*
X3926484Y1218438D01*
X3940352Y1212189D01*
X3954881Y1207668D01*
X3969816Y1204925D01*
X3985006Y1204010D01*
X4000195Y1204925D01*
X4015130Y1207668D01*
X4029659Y1212189D01*
X4043527Y1218438D01*
X4056532Y1226312D01*
X4068470Y1235659D01*
X4079240Y1246428D01*
X4088587Y1258366D01*
X4096461Y1271371D01*
X4102760Y1285290D01*
X4104944Y1288491D01*
X4108196Y1290574D01*
X4112006Y1291285D01*
X4115815Y1290574D01*
X4119067Y1288491D01*
X4121251Y1285290D01*
X4127550Y1271371D01*
X4135424Y1258366D01*
X4144772Y1246428D01*
X4155541Y1235659D01*
X4167479Y1226312D01*
X4180484Y1218438D01*
X4194352Y1212189D01*
X4208881Y1207668D01*
X4223816Y1204925D01*
X4239006Y1204010D01*
X4254195Y1204925D01*
X4269130Y1207668D01*
X4283659Y1212189D01*
X4297527Y1218438D01*
X4310532Y1226312D01*
X4322470Y1235659D01*
X4333240Y1246428D01*
X4342587Y1258366D01*
X4350461Y1271371D01*
X4356760Y1285290D01*
X4358944Y1288491D01*
X4362196Y1290574D01*
X4366006Y1291285D01*
X4369816Y1290574D01*
X4373067Y1288491D01*
X4375251Y1285290D01*
X4381550Y1271371D01*
X4389424Y1258366D01*
X4398772Y1246428D01*
X4409541Y1235659D01*
X4421479Y1226312D01*
X4434484Y1218438D01*
X4448352Y1212189D01*
X4462881Y1207668D01*
X4477816Y1204925D01*
X4493006Y1204010D01*
X4508195Y1204925D01*
X4523130Y1207668D01*
X4537659Y1212189D01*
X4551527Y1218438D01*
X4564532Y1226312D01*
X4576470Y1235659D01*
X4587240Y1246428D01*
X4596587Y1258366D01*
X4604461Y1271371D01*
X4610760Y1285290D01*
X4612944Y1288491D01*
X4616196Y1290574D01*
X4620006Y1291285D01*
X4623816Y1290574D01*
X4627067Y1288491D01*
X4629251Y1285290D01*
X4635550Y1271371D01*
X4643424Y1258366D01*
X4652772Y1246428D01*
X4663541Y1235659D01*
X4675479Y1226312D01*
X4688484Y1218438D01*
X4702352Y1212189D01*
X4716881Y1207668D01*
X4731816Y1204925D01*
X4747006Y1204010D01*
X4762195Y1204925D01*
X4777130Y1207668D01*
X4791659Y1212189D01*
X4805527Y1218438D01*
X4818532Y1226312D01*
X4830470Y1235659D01*
X4841240Y1246428D01*
X4850587Y1258366D01*
X4858461Y1271371D01*
X4864760Y1285290D01*
X4866944Y1288491D01*
X4870196Y1290574D01*
X4874006Y1291285D01*
X4877816Y1290574D01*
X4881067Y1288491D01*
X4883251Y1285290D01*
X4889550Y1271371D01*
X4897424Y1258366D01*
X4906772Y1246428D01*
X4917541Y1235659D01*
X4929479Y1226312D01*
X4942484Y1218438D01*
X4956352Y1212189D01*
X4970881Y1207668D01*
X4985816Y1204925D01*
X5001006Y1204010D01*
X5016195Y1204925D01*
X5031130Y1207668D01*
X5045659Y1212189D01*
X5059527Y1218438D01*
X5072532Y1226312D01*
X5084470Y1235659D01*
X5095240Y1246428D01*
X5104587Y1258366D01*
X5112461Y1271371D01*
X5118760Y1285290D01*
X5120944Y1288491D01*
X5124196Y1290574D01*
X5128006Y1291285D01*
X5131816Y1290574D01*
X5135067Y1288491D01*
X5137251Y1285290D01*
X5143550Y1271371D01*
X5151424Y1258366D01*
X5160772Y1246428D01*
X5171541Y1235659D01*
X5183479Y1226312D01*
X5196484Y1218438D01*
X5210352Y1212189D01*
X5224881Y1207668D01*
X5239816Y1204925D01*
X5255006Y1204010D01*
X5270195Y1204925D01*
X5285130Y1207668D01*
X5299659Y1212189D01*
X5313527Y1218438D01*
X5326532Y1226312D01*
X5338470Y1235659D01*
X5349240Y1246428D01*
X5358587Y1258366D01*
X5366461Y1271371D01*
X5372709Y1285240D01*
X5377230Y1299768D01*
X5379974Y1314704D01*
X5380888Y1329893D01*
X5379974Y1345082D01*
X5377230Y1360017D01*
X5372709Y1374546D01*
X5366461Y1388414D01*
X5358587Y1401419D01*
X5349240Y1413357D01*
X5338470Y1424127D01*
X5326532Y1433474D01*
X5313527Y1441348D01*
X5299659Y1447596D01*
X5285130Y1452118D01*
X5270195Y1454861D01*
X5255006Y1455775D01*
X5239816Y1454861D01*
X5224881Y1452118D01*
X5210352Y1447596D01*
X5196484Y1441348D01*
X5183479Y1433474D01*
X5171541Y1424127D01*
X5160772Y1413357D01*
X5151424Y1401419D01*
X5143550Y1388414D01*
X5137251Y1374495D01*
X5135067Y1371295D01*
X5131816Y1369212D01*
X5128006Y1368501D01*
X5124196Y1369212D01*
X5120944Y1371295D01*
X5118760Y1374495D01*
X5112461Y1388414D01*
X5104587Y1401419D01*
X5095240Y1413357D01*
X5084470Y1424127D01*
X5072532Y1433474D01*
X5059527Y1441348D01*
X5045659Y1447596D01*
X5031130Y1452118D01*
X5016195Y1454861D01*
X5001006Y1455775D01*
X4985816Y1454861D01*
X4970881Y1452118D01*
X4956352Y1447596D01*
X4942484Y1441348D01*
X4929479Y1433474D01*
X4917541Y1424127D01*
X4906772Y1413357D01*
X4897424Y1401419D01*
X4889550Y1388414D01*
X4883251Y1374495D01*
X4881067Y1371295D01*
X4877816Y1369212D01*
X4874006Y1368501D01*
X4870196Y1369212D01*
X4866944Y1371295D01*
X4864760Y1374495D01*
X4858461Y1388414D01*
X4850587Y1401419D01*
X4841240Y1413357D01*
X4830470Y1424127D01*
X4818532Y1433474D01*
X4805527Y1441348D01*
X4791659Y1447596D01*
X4777130Y1452118D01*
X4762195Y1454861D01*
X4747006Y1455775D01*
X4731816Y1454861D01*
X4716881Y1452118D01*
X4702352Y1447596D01*
X4688484Y1441348D01*
X4675479Y1433474D01*
X4663541Y1424127D01*
X4652772Y1413357D01*
X4643424Y1401419D01*
X4635550Y1388414D01*
X4629251Y1374495D01*
X4627067Y1371295D01*
X4623816Y1369212D01*
X4620006Y1368501D01*
X4616196Y1369212D01*
X4612944Y1371295D01*
X4610760Y1374495D01*
X4604461Y1388414D01*
X4596587Y1401419D01*
X4587240Y1413357D01*
X4576470Y1424127D01*
X4564532Y1433474D01*
X4551527Y1441348D01*
X4537659Y1447596D01*
X4523130Y1452118D01*
X4508195Y1454861D01*
X4493006Y1455775D01*
X4477816Y1454861D01*
X4462881Y1452118D01*
X4448352Y1447596D01*
X4434484Y1441348D01*
X4421479Y1433474D01*
X4409541Y1424127D01*
X4398772Y1413357D01*
X4389424Y1401419D01*
X4381550Y1388414D01*
X4375251Y1374495D01*
X4373067Y1371295D01*
X4369816Y1369212D01*
X4366006Y1368501D01*
X4362196Y1369212D01*
X4358944Y1371295D01*
X4356760Y1374495D01*
X4350461Y1388414D01*
X4342587Y1401419D01*
X4333240Y1413357D01*
X4322470Y1424127D01*
X4310532Y1433474D01*
X4297527Y1441348D01*
X4283659Y1447596D01*
X4269130Y1452118D01*
X4254195Y1454861D01*
X4239006Y1455775D01*
X4223816Y1454861D01*
X4208881Y1452118D01*
X4194352Y1447596D01*
X4180484Y1441348D01*
X4167479Y1433474D01*
X4155541Y1424127D01*
X4144772Y1413357D01*
X4135424Y1401419D01*
X4127550Y1388414D01*
X4121251Y1374495D01*
X4119067Y1371295D01*
X4115815Y1369212D01*
X4112006Y1368501D01*
X4108196Y1369212D01*
X4104944Y1371295D01*
X4102760Y1374495D01*
X4096461Y1388414D01*
X4088587Y1401419D01*
X4079240Y1413357D01*
X4068470Y1424127D01*
X4056532Y1433474D01*
X4043527Y1441348D01*
X4029659Y1447596D01*
X4015130Y1452118D01*
X4000195Y1454861D01*
X3985006Y1455775D01*
X3969816Y1454861D01*
X3954881Y1452118D01*
X3940352Y1447596D01*
X3926484Y1441348D01*
X3913479Y1433474D01*
X3901541Y1424127D01*
X3890772Y1413357D01*
X3881424Y1401419D01*
X3873550Y1388414D01*
X3867251Y1374495D01*
X3865067Y1371295D01*
X3861815Y1369212D01*
X3858006Y1368501D01*
X3854196Y1369212D01*
X3850944Y1371295D01*
X3848760Y1374495D01*
X3842461Y1388414D01*
X3834587Y1401419D01*
X3825240Y1413357D01*
X3814470Y1424127D01*
X3802532Y1433474D01*
X3789527Y1441348D01*
X3775659Y1447596D01*
X3761130Y1452118D01*
X3746195Y1454861D01*
X3731006Y1455775D01*
X3715816Y1454861D01*
X3700881Y1452118D01*
X3686352Y1447596D01*
X3672484Y1441348D01*
X3659479Y1433474D01*
X3647541Y1424127D01*
X3636772Y1413357D01*
X3627424Y1401419D01*
X3619550Y1388414D01*
X3613251Y1374495D01*
X3611067Y1371295D01*
X3607815Y1369212D01*
X3604006Y1368501D01*
X3600196Y1369212D01*
X3596944Y1371295D01*
X3594760Y1374495D01*
X3588461Y1388414D01*
X3580587Y1401419D01*
X3571240Y1413357D01*
X3560470Y1424127D01*
X3548532Y1433474D01*
X3535527Y1441348D01*
X3521659Y1447596D01*
X3507130Y1452118D01*
X3492195Y1454861D01*
X3477006Y1455775D01*
X3461816Y1454861D01*
X3446881Y1452118D01*
X3432352Y1447596D01*
X3418484Y1441348D01*
X3405479Y1433474D01*
X3393541Y1424127D01*
X3382772Y1413357D01*
X3373424Y1401419D01*
X3365550Y1388414D01*
X3359302Y1374546D01*
X3354781Y1360017D01*
X3352037Y1345082D01*
X3351123Y1329893D01*
X3352037Y1314704D01*
X3354781Y1299768D01*
X3359302Y1285240D01*
X3365550Y1271371D01*
X3373424Y1258366D01*
X3382772Y1246428D01*
X3393541Y1235659D01*
X3405479Y1226312D01*
X3418484Y1218438D01*
X3432352Y1212189D01*
X3446881Y1207668D01*
X3461816Y1204925D01*
G37*
G36*
X4559300Y5473039D02*
G01*
X4559300Y5575300D01*
X4456887Y5575300D01*
X4457039Y5573471D01*
X4459732Y5559196D01*
X4464253Y5545328D01*
X4470450Y5532170D01*
X4478223Y5519877D01*
X4487519Y5508650D01*
X4498136Y5498693D01*
X4509922Y5490159D01*
X4522673Y5483148D01*
X4536186Y5477764D01*
X4550308Y5474157D01*
G37*
G36*
X4818735Y5472328D02*
G01*
X4833264Y5472328D01*
X4847691Y5474157D01*
X4861814Y5477764D01*
X4875326Y5483148D01*
X4888077Y5490159D01*
X4899863Y5498693D01*
X4910480Y5508650D01*
X4919776Y5519877D01*
X4923383Y5525617D01*
X4925669Y5528157D01*
X4928616Y5529783D01*
X4931968Y5530342D01*
X5079593Y5530342D01*
X5089499Y5531154D01*
X5098694Y5533491D01*
X5107432Y5537301D01*
X5115407Y5542534D01*
X5122418Y5548985D01*
X5128260Y5556504D01*
X5132781Y5564835D01*
X5135880Y5573877D01*
X5137404Y5583224D01*
X5137404Y5592775D01*
X5135880Y5602122D01*
X5132781Y5611164D01*
X5128260Y5619496D01*
X5122418Y5627014D01*
X5115407Y5633466D01*
X5107432Y5638698D01*
X5098694Y5642508D01*
X5089499Y5644845D01*
X5079593Y5645658D01*
X4931968Y5645658D01*
X4928616Y5646216D01*
X4925669Y5647842D01*
X4923383Y5650382D01*
X4919776Y5656122D01*
X4910480Y5667349D01*
X4899863Y5677306D01*
X4888077Y5685840D01*
X4880762Y5689854D01*
X4877816Y5692292D01*
X4875987Y5695645D01*
X4875530Y5699404D01*
X4876444Y5703062D01*
X4878933Y5708446D01*
X4881473Y5717895D01*
X4882337Y5727700D01*
X4881473Y5737504D01*
X4878933Y5746953D01*
X4874818Y5755894D01*
X4869180Y5763920D01*
X4862220Y5770880D01*
X4854194Y5776518D01*
X4845253Y5780633D01*
X4835804Y5783173D01*
X4826000Y5784037D01*
X4816195Y5783173D01*
X4806746Y5780633D01*
X4804410Y5779566D01*
X4800092Y5778601D01*
X4411218Y5778601D01*
X4406900Y5779566D01*
X4404563Y5780633D01*
X4395114Y5783173D01*
X4385310Y5784037D01*
X4375505Y5783173D01*
X4366056Y5780633D01*
X4357116Y5776518D01*
X4349089Y5770880D01*
X4342130Y5763920D01*
X4336491Y5755894D01*
X4332376Y5746953D01*
X4329836Y5737504D01*
X4328972Y5727700D01*
X4329836Y5717895D01*
X4332376Y5708446D01*
X4336491Y5699506D01*
X4342130Y5691479D01*
X4349089Y5684520D01*
X4357116Y5678881D01*
X4366056Y5674766D01*
X4375505Y5672226D01*
X4385310Y5671362D01*
X4395114Y5672226D01*
X4404563Y5674766D01*
X4406900Y5675833D01*
X4411218Y5676798D01*
X4473752Y5676798D01*
X4477512Y5676087D01*
X4480712Y5674055D01*
X4482947Y5670956D01*
X4483912Y5667248D01*
X4483404Y5663488D01*
X4481576Y5660136D01*
X4478223Y5656122D01*
X4470450Y5643829D01*
X4464253Y5630672D01*
X4459732Y5616803D01*
X4457039Y5602528D01*
X4456887Y5600700D01*
X4559300Y5600700D01*
X4559300Y5666638D01*
X4560062Y5670499D01*
X4562297Y5673801D01*
X4565548Y5676036D01*
X4569460Y5676798D01*
X4574540Y5676798D01*
X4578451Y5676036D01*
X4581702Y5673801D01*
X4583938Y5670499D01*
X4584700Y5666638D01*
X4584700Y5600700D01*
X4687112Y5600700D01*
X4686960Y5602528D01*
X4684268Y5616803D01*
X4679746Y5630672D01*
X4673549Y5643829D01*
X4665776Y5656122D01*
X4662424Y5660136D01*
X4660595Y5663488D01*
X4660087Y5667248D01*
X4661052Y5670956D01*
X4663287Y5674055D01*
X4666488Y5676087D01*
X4670247Y5676798D01*
X4727752Y5676798D01*
X4731512Y5676087D01*
X4734712Y5674055D01*
X4736947Y5670956D01*
X4737912Y5667248D01*
X4737404Y5663488D01*
X4735576Y5660136D01*
X4732223Y5656122D01*
X4724450Y5643829D01*
X4718253Y5630672D01*
X4713732Y5616803D01*
X4711039Y5602528D01*
X4710125Y5588000D01*
X4711039Y5573471D01*
X4713732Y5559196D01*
X4718253Y5545328D01*
X4724450Y5532170D01*
X4732223Y5519877D01*
X4741519Y5508650D01*
X4752136Y5498693D01*
X4763922Y5490159D01*
X4776673Y5483148D01*
X4790186Y5477764D01*
X4804308Y5474157D01*
G37*
G36*
X4584700Y5346700D02*
G01*
X4687112Y5346700D01*
X4686960Y5348528D01*
X4684268Y5362803D01*
X4679746Y5376672D01*
X4673549Y5389829D01*
X4665776Y5402122D01*
X4656480Y5413349D01*
X4645863Y5423306D01*
X4634077Y5431840D01*
X4621326Y5438851D01*
X4607814Y5444236D01*
X4593691Y5447842D01*
X4584700Y5448960D01*
G37*
G36*
X4456887Y5346700D02*
G01*
X4559300Y5346700D01*
X4559300Y5448960D01*
X4550308Y5447842D01*
X4536186Y5444236D01*
X4522673Y5438851D01*
X4509922Y5431840D01*
X4498136Y5423306D01*
X4487519Y5413349D01*
X4478223Y5402122D01*
X4470450Y5389829D01*
X4464253Y5376672D01*
X4459732Y5362803D01*
X4457039Y5348528D01*
G37*
G36*
X4584700Y5219039D02*
G01*
X4593691Y5220157D01*
X4607814Y5223764D01*
X4621326Y5229148D01*
X4634077Y5236159D01*
X4645863Y5244693D01*
X4656480Y5254650D01*
X4665776Y5265877D01*
X4673549Y5278170D01*
X4679746Y5291328D01*
X4684268Y5305196D01*
X4686960Y5319471D01*
X4687112Y5321300D01*
X4584700Y5321300D01*
G37*
G36*
X4559300Y5219039D02*
G01*
X4559300Y5321300D01*
X4456887Y5321300D01*
X4457039Y5319471D01*
X4459732Y5305196D01*
X4464253Y5291328D01*
X4470450Y5278170D01*
X4478223Y5265877D01*
X4487519Y5254650D01*
X4498136Y5244693D01*
X4509922Y5236159D01*
X4522673Y5229148D01*
X4536186Y5223764D01*
X4550308Y5220157D01*
G37*
G36*
X5448300Y5185613D02*
G01*
X5448300Y5448300D01*
X5185410Y5448300D01*
X5187289Y5426405D01*
X5191150Y5403646D01*
X5196890Y5381244D01*
X5204460Y5359450D01*
X5213858Y5338318D01*
X5224983Y5318099D01*
X5237784Y5298846D01*
X5252161Y5280710D01*
X5267960Y5263896D01*
X5285130Y5248402D01*
X5303520Y5234432D01*
X5323027Y5222087D01*
X5343499Y5211368D01*
X5364835Y5202428D01*
X5386781Y5195265D01*
X5409285Y5189982D01*
X5432145Y5186629D01*
G37*
G36*
X581406Y1204010D02*
G01*
X596595Y1204925D01*
X611530Y1207668D01*
X626059Y1212189D01*
X639927Y1218438D01*
X652932Y1226312D01*
X664870Y1235659D01*
X675640Y1246428D01*
X684987Y1258366D01*
X692861Y1271371D01*
X699160Y1285290D01*
X701344Y1288491D01*
X704596Y1290574D01*
X708406Y1291285D01*
X712216Y1290574D01*
X715467Y1288491D01*
X717651Y1285290D01*
X723950Y1271371D01*
X731824Y1258366D01*
X741172Y1246428D01*
X751941Y1235659D01*
X763879Y1226312D01*
X776884Y1218438D01*
X790752Y1212189D01*
X805281Y1207668D01*
X820216Y1204925D01*
X835406Y1204010D01*
X850595Y1204925D01*
X865530Y1207668D01*
X880059Y1212189D01*
X893927Y1218438D01*
X906932Y1226312D01*
X918870Y1235659D01*
X929640Y1246428D01*
X938987Y1258366D01*
X946861Y1271371D01*
X953160Y1285290D01*
X955344Y1288491D01*
X958596Y1290574D01*
X962406Y1291285D01*
X966216Y1290574D01*
X969467Y1288491D01*
X971651Y1285290D01*
X977950Y1271371D01*
X985824Y1258366D01*
X995171Y1246428D01*
X1005941Y1235659D01*
X1017879Y1226312D01*
X1030884Y1218438D01*
X1044752Y1212189D01*
X1059281Y1207668D01*
X1074216Y1204925D01*
X1089406Y1204010D01*
X1104595Y1204925D01*
X1119530Y1207668D01*
X1134059Y1212189D01*
X1147927Y1218438D01*
X1160932Y1226312D01*
X1172870Y1235659D01*
X1183640Y1246428D01*
X1192987Y1258366D01*
X1200861Y1271371D01*
X1207160Y1285290D01*
X1209344Y1288491D01*
X1212596Y1290574D01*
X1216406Y1291285D01*
X1220216Y1290574D01*
X1223467Y1288491D01*
X1225651Y1285290D01*
X1231950Y1271371D01*
X1239824Y1258366D01*
X1249172Y1246428D01*
X1259941Y1235659D01*
X1271879Y1226312D01*
X1284884Y1218438D01*
X1298752Y1212189D01*
X1313281Y1207668D01*
X1328216Y1204925D01*
X1343406Y1204010D01*
X1358595Y1204925D01*
X1373530Y1207668D01*
X1388059Y1212189D01*
X1401927Y1218438D01*
X1414932Y1226312D01*
X1426870Y1235659D01*
X1437640Y1246428D01*
X1446987Y1258366D01*
X1454861Y1271371D01*
X1461160Y1285290D01*
X1463344Y1288491D01*
X1466596Y1290574D01*
X1470406Y1291285D01*
X1474216Y1290574D01*
X1477467Y1288491D01*
X1479651Y1285290D01*
X1485950Y1271371D01*
X1493824Y1258366D01*
X1503172Y1246428D01*
X1513941Y1235659D01*
X1525879Y1226312D01*
X1538884Y1218438D01*
X1552752Y1212189D01*
X1567281Y1207668D01*
X1582216Y1204925D01*
X1597406Y1204010D01*
X1612595Y1204925D01*
X1627530Y1207668D01*
X1642059Y1212189D01*
X1655927Y1218438D01*
X1668932Y1226312D01*
X1680870Y1235659D01*
X1691639Y1246428D01*
X1700987Y1258366D01*
X1708861Y1271371D01*
X1715160Y1285290D01*
X1717344Y1288491D01*
X1720596Y1290574D01*
X1724406Y1291285D01*
X1728216Y1290574D01*
X1731467Y1288491D01*
X1733651Y1285290D01*
X1739950Y1271371D01*
X1747824Y1258366D01*
X1757172Y1246428D01*
X1767941Y1235659D01*
X1779879Y1226312D01*
X1792884Y1218438D01*
X1806752Y1212189D01*
X1821281Y1207668D01*
X1836216Y1204925D01*
X1851406Y1204010D01*
X1866595Y1204925D01*
X1881530Y1207668D01*
X1896059Y1212189D01*
X1909927Y1218438D01*
X1922932Y1226312D01*
X1934870Y1235659D01*
X1945639Y1246428D01*
X1954987Y1258366D01*
X1962861Y1271371D01*
X1969160Y1285290D01*
X1971344Y1288491D01*
X1974596Y1290574D01*
X1978406Y1291285D01*
X1982216Y1290574D01*
X1985467Y1288491D01*
X1987651Y1285290D01*
X1993950Y1271371D01*
X2001824Y1258366D01*
X2011172Y1246428D01*
X2021941Y1235659D01*
X2033879Y1226312D01*
X2046884Y1218438D01*
X2060752Y1212189D01*
X2075281Y1207668D01*
X2090216Y1204925D01*
X2105406Y1204010D01*
X2120595Y1204925D01*
X2135530Y1207668D01*
X2150059Y1212189D01*
X2163927Y1218438D01*
X2176932Y1226312D01*
X2188870Y1235659D01*
X2199640Y1246428D01*
X2208987Y1258366D01*
X2216861Y1271371D01*
X2223160Y1285290D01*
X2225344Y1288491D01*
X2228596Y1290574D01*
X2232406Y1291285D01*
X2236216Y1290574D01*
X2239467Y1288491D01*
X2241651Y1285290D01*
X2247950Y1271371D01*
X2255824Y1258366D01*
X2265172Y1246428D01*
X2275941Y1235659D01*
X2287879Y1226312D01*
X2300884Y1218438D01*
X2314752Y1212189D01*
X2329281Y1207668D01*
X2344216Y1204925D01*
X2359406Y1204010D01*
X2374595Y1204925D01*
X2389530Y1207668D01*
X2404059Y1212189D01*
X2417927Y1218438D01*
X2430932Y1226312D01*
X2442870Y1235659D01*
X2453640Y1246428D01*
X2462987Y1258366D01*
X2470861Y1271371D01*
X2477109Y1285240D01*
X2481630Y1299768D01*
X2484374Y1314704D01*
X2485288Y1329893D01*
X2484374Y1345082D01*
X2481630Y1360017D01*
X2477109Y1374546D01*
X2474264Y1380896D01*
X2473350Y1384858D01*
X2474112Y1388821D01*
X2476347Y1392224D01*
X2503017Y1418894D01*
X2506319Y1421130D01*
X2510231Y1421892D01*
X3129991Y1421892D01*
X3133902Y1421130D01*
X3137204Y1418894D01*
X3138779Y1417320D01*
X3146806Y1411681D01*
X3155746Y1407566D01*
X3165195Y1405026D01*
X3175000Y1404162D01*
X3184804Y1405026D01*
X3194253Y1407566D01*
X3203194Y1411681D01*
X3211220Y1417320D01*
X3218180Y1424279D01*
X3223818Y1432306D01*
X3227933Y1441246D01*
X3230473Y1450695D01*
X3231337Y1460500D01*
X3230473Y1470304D01*
X3227933Y1479753D01*
X3223818Y1488694D01*
X3218180Y1496720D01*
X3211220Y1503680D01*
X3203194Y1509318D01*
X3194253Y1513433D01*
X3184804Y1515973D01*
X3175000Y1516837D01*
X3165195Y1515973D01*
X3155746Y1513433D01*
X3146806Y1509318D01*
X3138779Y1503680D01*
X3137204Y1502105D01*
X3133902Y1499870D01*
X3129991Y1499108D01*
X2985668Y1499108D01*
X2982061Y1499768D01*
X2978912Y1501698D01*
X2976626Y1504645D01*
X2975559Y1508201D01*
X2975864Y1511909D01*
X2976473Y1514195D01*
X2977337Y1524000D01*
X2976473Y1533804D01*
X2973933Y1543253D01*
X2969818Y1552194D01*
X2964180Y1560220D01*
X2957220Y1567180D01*
X2949194Y1572818D01*
X2940253Y1576933D01*
X2930804Y1579473D01*
X2921000Y1580337D01*
X2911195Y1579473D01*
X2901746Y1576933D01*
X2892806Y1572818D01*
X2884779Y1567180D01*
X2883204Y1565605D01*
X2879902Y1563370D01*
X2875991Y1562608D01*
X2477668Y1562608D01*
X2474061Y1563268D01*
X2470912Y1565198D01*
X2468626Y1568145D01*
X2467559Y1571701D01*
X2467864Y1575409D01*
X2468473Y1577695D01*
X2469337Y1587500D01*
X2468473Y1597304D01*
X2465933Y1606753D01*
X2461818Y1615694D01*
X2456180Y1623720D01*
X2449220Y1630680D01*
X2441194Y1636318D01*
X2432253Y1640433D01*
X2422804Y1642973D01*
X2413000Y1643837D01*
X2403195Y1642973D01*
X2393746Y1640433D01*
X2384806Y1636318D01*
X2376779Y1630680D01*
X2375204Y1629105D01*
X2371902Y1626870D01*
X2367991Y1626107D01*
X2223668Y1626107D01*
X2220061Y1626768D01*
X2216912Y1628698D01*
X2214626Y1631645D01*
X2213559Y1635201D01*
X2213864Y1638909D01*
X2214473Y1641195D01*
X2215337Y1651000D01*
X2214473Y1660804D01*
X2211933Y1670253D01*
X2207818Y1679193D01*
X2202180Y1687220D01*
X2195220Y1694180D01*
X2187194Y1699818D01*
X2178253Y1703933D01*
X2168804Y1706473D01*
X2159000Y1707337D01*
X2149195Y1706473D01*
X2139746Y1703933D01*
X2130806Y1699818D01*
X2122779Y1694180D01*
X2121204Y1692605D01*
X2117902Y1690370D01*
X2113991Y1689607D01*
X1919020Y1689607D01*
X1910994Y1688795D01*
X1903780Y1686610D01*
X1897075Y1683054D01*
X1890877Y1677924D01*
X1659737Y1446834D01*
X1656334Y1444599D01*
X1652371Y1443837D01*
X1648409Y1444752D01*
X1642059Y1447596D01*
X1627530Y1452118D01*
X1612595Y1454861D01*
X1597406Y1455775D01*
X1582216Y1454861D01*
X1567281Y1452118D01*
X1552752Y1447596D01*
X1538884Y1441348D01*
X1525879Y1433474D01*
X1513941Y1424127D01*
X1503172Y1413357D01*
X1493824Y1401419D01*
X1485950Y1388414D01*
X1479651Y1374495D01*
X1477467Y1371295D01*
X1474216Y1369212D01*
X1470406Y1368501D01*
X1466596Y1369212D01*
X1463344Y1371295D01*
X1461160Y1374495D01*
X1454861Y1388414D01*
X1446987Y1401419D01*
X1437640Y1413357D01*
X1426870Y1424127D01*
X1414932Y1433474D01*
X1401927Y1441348D01*
X1388059Y1447596D01*
X1373530Y1452118D01*
X1358595Y1454861D01*
X1343406Y1455775D01*
X1328216Y1454861D01*
X1313281Y1452118D01*
X1298752Y1447596D01*
X1284884Y1441348D01*
X1271879Y1433474D01*
X1259941Y1424127D01*
X1249172Y1413357D01*
X1239824Y1401419D01*
X1231950Y1388414D01*
X1225651Y1374495D01*
X1223467Y1371295D01*
X1220216Y1369212D01*
X1216406Y1368501D01*
X1212596Y1369212D01*
X1209344Y1371295D01*
X1207160Y1374495D01*
X1200861Y1388414D01*
X1192987Y1401419D01*
X1183640Y1413357D01*
X1172870Y1424127D01*
X1160932Y1433474D01*
X1147927Y1441348D01*
X1134059Y1447596D01*
X1119530Y1452118D01*
X1104595Y1454861D01*
X1089406Y1455775D01*
X1074216Y1454861D01*
X1059281Y1452118D01*
X1044752Y1447596D01*
X1030884Y1441348D01*
X1017879Y1433474D01*
X1005941Y1424127D01*
X995171Y1413357D01*
X985824Y1401419D01*
X977950Y1388414D01*
X971651Y1374495D01*
X969467Y1371295D01*
X966216Y1369212D01*
X962406Y1368501D01*
X958596Y1369212D01*
X955344Y1371295D01*
X953160Y1374495D01*
X946861Y1388414D01*
X938987Y1401419D01*
X929640Y1413357D01*
X918870Y1424127D01*
X906932Y1433474D01*
X893927Y1441348D01*
X880059Y1447596D01*
X865530Y1452118D01*
X850595Y1454861D01*
X835406Y1455775D01*
X820216Y1454861D01*
X805281Y1452118D01*
X790752Y1447596D01*
X776884Y1441348D01*
X763879Y1433474D01*
X751941Y1424127D01*
X741172Y1413357D01*
X731824Y1401419D01*
X723950Y1388414D01*
X717651Y1374495D01*
X715467Y1371295D01*
X712216Y1369212D01*
X708406Y1368501D01*
X704596Y1369212D01*
X701344Y1371295D01*
X699160Y1374495D01*
X692861Y1388414D01*
X684987Y1401419D01*
X675640Y1413357D01*
X664870Y1424127D01*
X652932Y1433474D01*
X639927Y1441348D01*
X626059Y1447596D01*
X611530Y1452118D01*
X596595Y1454861D01*
X581406Y1455775D01*
X566216Y1454861D01*
X551281Y1452118D01*
X536752Y1447596D01*
X522884Y1441348D01*
X509879Y1433474D01*
X497941Y1424127D01*
X487172Y1413357D01*
X477824Y1401419D01*
X469950Y1388414D01*
X463702Y1374546D01*
X459181Y1360017D01*
X456438Y1345082D01*
X455523Y1329893D01*
X456438Y1314704D01*
X459181Y1299768D01*
X463702Y1285240D01*
X469950Y1271371D01*
X477824Y1258366D01*
X487172Y1246428D01*
X497941Y1235659D01*
X509879Y1226312D01*
X522884Y1218438D01*
X536752Y1212189D01*
X551281Y1207668D01*
X566216Y1204925D01*
G37*
G36*
X5473700Y5185562D02*
G01*
X5478322Y5185664D01*
X5501284Y5188051D01*
X5523992Y5192369D01*
X5546242Y5198618D01*
X5567934Y5206644D01*
X5588812Y5216499D01*
X5608828Y5228031D01*
X5627827Y5241239D01*
X5645607Y5255971D01*
X5662117Y5272125D01*
X5677204Y5289600D01*
X5690819Y5308295D01*
X5702757Y5328107D01*
X5713018Y5348782D01*
X5721553Y5370271D01*
X5728208Y5392369D01*
X5733034Y5414975D01*
X5735929Y5437936D01*
X5736336Y5448300D01*
X5473700Y5448300D01*
G37*
G36*
X381406Y4895342D02*
G01*
X5079593Y4895342D01*
X5089499Y4896154D01*
X5098694Y4898491D01*
X5107432Y4902301D01*
X5115407Y4907534D01*
X5122418Y4913985D01*
X5128260Y4921504D01*
X5132781Y4929835D01*
X5135880Y4938877D01*
X5137404Y4948224D01*
X5137404Y4957775D01*
X5135880Y4967122D01*
X5132781Y4976164D01*
X5128260Y4984496D01*
X5122418Y4992014D01*
X5115407Y4998466D01*
X5107432Y5003698D01*
X5098694Y5007508D01*
X5089499Y5009845D01*
X5079593Y5010658D01*
X381406Y5010658D01*
X371500Y5009845D01*
X362305Y5007508D01*
X353568Y5003698D01*
X345592Y4998466D01*
X338582Y4992014D01*
X332740Y4984496D01*
X328218Y4976164D01*
X325120Y4967122D01*
X323596Y4957775D01*
X323596Y4948224D01*
X325120Y4938877D01*
X328218Y4929835D01*
X332740Y4921504D01*
X338582Y4913985D01*
X345592Y4907534D01*
X353568Y4902301D01*
X362305Y4898491D01*
X371500Y4896154D01*
G37*
G36*
X2733802Y4614926D02*
G01*
X2747619Y4615789D01*
X2761183Y4618532D01*
X2774340Y4622952D01*
X2786735Y4629099D01*
X2798267Y4636770D01*
X2808681Y4645914D01*
X2817825Y4656328D01*
X2825496Y4667859D01*
X2831642Y4680254D01*
X2836062Y4693412D01*
X2838805Y4706975D01*
X2839669Y4720793D01*
X2838805Y4734610D01*
X2836062Y4748174D01*
X2831642Y4761331D01*
X2825496Y4773726D01*
X2817825Y4785258D01*
X2808681Y4795672D01*
X2798267Y4804816D01*
X2786735Y4812487D01*
X2774340Y4818634D01*
X2761183Y4823053D01*
X2747619Y4825796D01*
X2733802Y4826660D01*
X2719984Y4825796D01*
X2706420Y4823053D01*
X2693263Y4818634D01*
X2680868Y4812487D01*
X2669336Y4804816D01*
X2658922Y4795672D01*
X2649778Y4785258D01*
X2642108Y4773726D01*
X2635961Y4761331D01*
X2631541Y4748174D01*
X2628798Y4734610D01*
X2627934Y4720793D01*
X2628798Y4706975D01*
X2631541Y4693412D01*
X2635961Y4680254D01*
X2642108Y4667859D01*
X2649778Y4656328D01*
X2658922Y4645914D01*
X2669336Y4636770D01*
X2680868Y4629099D01*
X2693263Y4622952D01*
X2706420Y4618532D01*
X2719984Y4615789D01*
G37*
G36*
X3108198Y4614926D02*
G01*
X3122015Y4615789D01*
X3135579Y4618532D01*
X3148736Y4622952D01*
X3161131Y4629099D01*
X3172663Y4636770D01*
X3183077Y4645914D01*
X3192221Y4656328D01*
X3199892Y4667859D01*
X3206038Y4680254D01*
X3210458Y4693412D01*
X3213201Y4706975D01*
X3214065Y4720793D01*
X3213201Y4734610D01*
X3210458Y4748174D01*
X3206038Y4761331D01*
X3199892Y4773726D01*
X3192221Y4785258D01*
X3183077Y4795672D01*
X3172663Y4804816D01*
X3161131Y4812487D01*
X3148736Y4818634D01*
X3135579Y4823053D01*
X3122015Y4825796D01*
X3108198Y4826660D01*
X3094380Y4825796D01*
X3080816Y4823053D01*
X3067659Y4818634D01*
X3055264Y4812487D01*
X3043732Y4804816D01*
X3033318Y4795672D01*
X3024174Y4785258D01*
X3016504Y4773726D01*
X3010357Y4761331D01*
X3005937Y4748174D01*
X3003194Y4734610D01*
X3002330Y4720793D01*
X3003194Y4706975D01*
X3005937Y4693412D01*
X3010357Y4680254D01*
X3016504Y4667859D01*
X3024174Y4656328D01*
X3033318Y4645914D01*
X3043732Y4636770D01*
X3055264Y4629099D01*
X3067659Y4622952D01*
X3080816Y4618532D01*
X3094380Y4615789D01*
G37*
G36*
X5629402Y4614926D02*
G01*
X5643219Y4615789D01*
X5656783Y4618532D01*
X5669940Y4622952D01*
X5682335Y4629099D01*
X5693867Y4636770D01*
X5704281Y4645914D01*
X5713425Y4656328D01*
X5721096Y4667859D01*
X5727242Y4680254D01*
X5731662Y4693412D01*
X5734405Y4706975D01*
X5735269Y4720793D01*
X5734405Y4734610D01*
X5731662Y4748174D01*
X5727242Y4761331D01*
X5721096Y4773726D01*
X5713425Y4785258D01*
X5704281Y4795672D01*
X5693867Y4804816D01*
X5682335Y4812487D01*
X5669940Y4818634D01*
X5656783Y4823053D01*
X5643219Y4825796D01*
X5629402Y4826660D01*
X5615584Y4825796D01*
X5602020Y4823053D01*
X5588863Y4818634D01*
X5576468Y4812487D01*
X5564936Y4804816D01*
X5554522Y4795672D01*
X5545378Y4785258D01*
X5537708Y4773726D01*
X5531561Y4761331D01*
X5527141Y4748174D01*
X5524398Y4734610D01*
X5523534Y4720793D01*
X5524398Y4706975D01*
X5527141Y4693412D01*
X5531561Y4680254D01*
X5537708Y4667859D01*
X5545378Y4656328D01*
X5554522Y4645914D01*
X5564936Y4636770D01*
X5576468Y4629099D01*
X5588863Y4622952D01*
X5602020Y4618532D01*
X5615584Y4615789D01*
G37*
G36*
X212598Y4614926D02*
G01*
X226415Y4615789D01*
X239979Y4618532D01*
X253136Y4622952D01*
X265531Y4629099D01*
X277063Y4636770D01*
X287477Y4645914D01*
X296621Y4656328D01*
X304292Y4667859D01*
X310438Y4680254D01*
X314858Y4693412D01*
X317601Y4706975D01*
X318465Y4720793D01*
X317601Y4734610D01*
X314858Y4748174D01*
X310438Y4761331D01*
X304292Y4773726D01*
X296621Y4785258D01*
X287477Y4795672D01*
X277063Y4804816D01*
X265531Y4812487D01*
X253136Y4818634D01*
X239979Y4823053D01*
X226415Y4825796D01*
X212598Y4826660D01*
X198780Y4825796D01*
X185216Y4823053D01*
X172059Y4818634D01*
X159664Y4812487D01*
X148132Y4804816D01*
X137718Y4795672D01*
X128574Y4785258D01*
X120904Y4773726D01*
X114757Y4761331D01*
X110337Y4748174D01*
X107594Y4734610D01*
X106730Y4720793D01*
X107594Y4706975D01*
X110337Y4693412D01*
X114757Y4680254D01*
X120904Y4667859D01*
X128574Y4656328D01*
X137718Y4645914D01*
X148132Y4636770D01*
X159664Y4629099D01*
X172059Y4622952D01*
X185216Y4618532D01*
X198780Y4615789D01*
G37*
G36*
X3479800Y4369917D02*
G01*
X3494989Y4370832D01*
X3509924Y4373575D01*
X3524453Y4378096D01*
X3538321Y4384344D01*
X3551326Y4392218D01*
X3563264Y4401566D01*
X3574034Y4412335D01*
X3583381Y4424273D01*
X3591255Y4437278D01*
X3597554Y4451197D01*
X3599738Y4454398D01*
X3602990Y4456480D01*
X3606800Y4457192D01*
X3610610Y4456480D01*
X3613861Y4454398D01*
X3616045Y4451197D01*
X3622344Y4437278D01*
X3630218Y4424273D01*
X3639565Y4412335D01*
X3650335Y4401566D01*
X3662273Y4392218D01*
X3675278Y4384344D01*
X3689146Y4378096D01*
X3703675Y4373575D01*
X3718610Y4370832D01*
X3733800Y4369917D01*
X3748989Y4370832D01*
X3763924Y4373575D01*
X3778453Y4378096D01*
X3792321Y4384344D01*
X3805326Y4392218D01*
X3817264Y4401566D01*
X3828034Y4412335D01*
X3837381Y4424273D01*
X3845255Y4437278D01*
X3851554Y4451197D01*
X3853738Y4454398D01*
X3856990Y4456480D01*
X3860800Y4457192D01*
X3864610Y4456480D01*
X3867861Y4454398D01*
X3870045Y4451197D01*
X3876344Y4437278D01*
X3884218Y4424273D01*
X3893565Y4412335D01*
X3904335Y4401566D01*
X3916273Y4392218D01*
X3929278Y4384344D01*
X3943146Y4378096D01*
X3957675Y4373575D01*
X3972610Y4370832D01*
X3987800Y4369917D01*
X4002989Y4370832D01*
X4017924Y4373575D01*
X4032453Y4378096D01*
X4046321Y4384344D01*
X4059326Y4392218D01*
X4071264Y4401566D01*
X4082034Y4412335D01*
X4091381Y4424273D01*
X4099255Y4437278D01*
X4105554Y4451197D01*
X4107738Y4454398D01*
X4110990Y4456480D01*
X4114800Y4457192D01*
X4118610Y4456480D01*
X4121861Y4454398D01*
X4124045Y4451197D01*
X4130344Y4437278D01*
X4138218Y4424273D01*
X4147565Y4412335D01*
X4158335Y4401566D01*
X4170273Y4392218D01*
X4183278Y4384344D01*
X4197146Y4378096D01*
X4211675Y4373575D01*
X4226610Y4370832D01*
X4241800Y4369917D01*
X4256989Y4370832D01*
X4271924Y4373575D01*
X4286453Y4378096D01*
X4300321Y4384344D01*
X4313326Y4392218D01*
X4325264Y4401566D01*
X4336034Y4412335D01*
X4345381Y4424273D01*
X4353255Y4437278D01*
X4359554Y4451197D01*
X4361738Y4454398D01*
X4364990Y4456480D01*
X4368800Y4457192D01*
X4372610Y4456480D01*
X4375861Y4454398D01*
X4378045Y4451197D01*
X4384344Y4437278D01*
X4392218Y4424273D01*
X4401566Y4412335D01*
X4412335Y4401566D01*
X4424273Y4392218D01*
X4437278Y4384344D01*
X4451146Y4378096D01*
X4465675Y4373575D01*
X4480610Y4370832D01*
X4495800Y4369917D01*
X4510989Y4370832D01*
X4525924Y4373575D01*
X4540453Y4378096D01*
X4554321Y4384344D01*
X4567326Y4392218D01*
X4579264Y4401566D01*
X4590034Y4412335D01*
X4599381Y4424273D01*
X4607255Y4437278D01*
X4613554Y4451197D01*
X4615738Y4454398D01*
X4618990Y4456480D01*
X4622800Y4457192D01*
X4626610Y4456480D01*
X4629861Y4454398D01*
X4632045Y4451197D01*
X4638344Y4437278D01*
X4646218Y4424273D01*
X4655566Y4412335D01*
X4666335Y4401566D01*
X4678273Y4392218D01*
X4691278Y4384344D01*
X4705146Y4378096D01*
X4719675Y4373575D01*
X4734610Y4370832D01*
X4749800Y4369917D01*
X4764989Y4370832D01*
X4779924Y4373575D01*
X4794453Y4378096D01*
X4808321Y4384344D01*
X4821326Y4392218D01*
X4833264Y4401566D01*
X4844034Y4412335D01*
X4853381Y4424273D01*
X4861255Y4437278D01*
X4867554Y4451197D01*
X4869738Y4454398D01*
X4872990Y4456480D01*
X4876800Y4457192D01*
X4880610Y4456480D01*
X4883861Y4454398D01*
X4886045Y4451197D01*
X4892344Y4437278D01*
X4900218Y4424273D01*
X4909566Y4412335D01*
X4920335Y4401566D01*
X4932273Y4392218D01*
X4945278Y4384344D01*
X4959146Y4378096D01*
X4973675Y4373575D01*
X4988610Y4370832D01*
X5003800Y4369917D01*
X5018989Y4370832D01*
X5033924Y4373575D01*
X5048453Y4378096D01*
X5062321Y4384344D01*
X5075326Y4392218D01*
X5087264Y4401566D01*
X5098034Y4412335D01*
X5107381Y4424273D01*
X5115255Y4437278D01*
X5121554Y4451197D01*
X5123738Y4454398D01*
X5126990Y4456480D01*
X5130800Y4457192D01*
X5134610Y4456480D01*
X5137861Y4454398D01*
X5140045Y4451197D01*
X5146344Y4437278D01*
X5154218Y4424273D01*
X5163566Y4412335D01*
X5174335Y4401566D01*
X5186273Y4392218D01*
X5199278Y4384344D01*
X5213146Y4378096D01*
X5227675Y4373575D01*
X5242610Y4370832D01*
X5257800Y4369917D01*
X5272989Y4370832D01*
X5287924Y4373575D01*
X5302453Y4378096D01*
X5316321Y4384344D01*
X5329326Y4392218D01*
X5341264Y4401566D01*
X5352034Y4412335D01*
X5361381Y4424273D01*
X5369255Y4437278D01*
X5375503Y4451146D01*
X5380024Y4465675D01*
X5382768Y4480610D01*
X5383682Y4495800D01*
X5382768Y4510989D01*
X5380024Y4525924D01*
X5375503Y4540453D01*
X5369255Y4554321D01*
X5361381Y4567326D01*
X5352034Y4579264D01*
X5341264Y4590034D01*
X5329326Y4599381D01*
X5316321Y4607255D01*
X5302453Y4613503D01*
X5287924Y4618024D01*
X5272989Y4620768D01*
X5257800Y4621682D01*
X5242610Y4620768D01*
X5227675Y4618024D01*
X5213146Y4613503D01*
X5199278Y4607255D01*
X5186273Y4599381D01*
X5174335Y4590034D01*
X5163566Y4579264D01*
X5154218Y4567326D01*
X5146344Y4554321D01*
X5140045Y4540402D01*
X5137861Y4537202D01*
X5134610Y4535119D01*
X5130800Y4534408D01*
X5126990Y4535119D01*
X5123738Y4537202D01*
X5121554Y4540402D01*
X5115255Y4554321D01*
X5107381Y4567326D01*
X5098034Y4579264D01*
X5087264Y4590034D01*
X5075326Y4599381D01*
X5062321Y4607255D01*
X5048453Y4613503D01*
X5033924Y4618024D01*
X5018989Y4620768D01*
X5003800Y4621682D01*
X4988610Y4620768D01*
X4973675Y4618024D01*
X4959146Y4613503D01*
X4945278Y4607255D01*
X4932273Y4599381D01*
X4920335Y4590034D01*
X4909566Y4579264D01*
X4900218Y4567326D01*
X4892344Y4554321D01*
X4886045Y4540402D01*
X4883861Y4537202D01*
X4880610Y4535119D01*
X4876800Y4534408D01*
X4872990Y4535119D01*
X4869738Y4537202D01*
X4867554Y4540402D01*
X4861255Y4554321D01*
X4853381Y4567326D01*
X4844034Y4579264D01*
X4833264Y4590034D01*
X4821326Y4599381D01*
X4808321Y4607255D01*
X4794453Y4613503D01*
X4779924Y4618024D01*
X4764989Y4620768D01*
X4749800Y4621682D01*
X4734610Y4620768D01*
X4719675Y4618024D01*
X4705146Y4613503D01*
X4691278Y4607255D01*
X4678273Y4599381D01*
X4666335Y4590034D01*
X4655566Y4579264D01*
X4646218Y4567326D01*
X4638344Y4554321D01*
X4632045Y4540402D01*
X4629861Y4537202D01*
X4626610Y4535119D01*
X4622800Y4534408D01*
X4618990Y4535119D01*
X4615738Y4537202D01*
X4613554Y4540402D01*
X4607255Y4554321D01*
X4599381Y4567326D01*
X4590034Y4579264D01*
X4579264Y4590034D01*
X4567326Y4599381D01*
X4554321Y4607255D01*
X4540453Y4613503D01*
X4525924Y4618024D01*
X4510989Y4620768D01*
X4495800Y4621682D01*
X4480610Y4620768D01*
X4465675Y4618024D01*
X4451146Y4613503D01*
X4437278Y4607255D01*
X4424273Y4599381D01*
X4412335Y4590034D01*
X4401566Y4579264D01*
X4392218Y4567326D01*
X4384344Y4554321D01*
X4378045Y4540402D01*
X4375861Y4537202D01*
X4372610Y4535119D01*
X4368800Y4534408D01*
X4364990Y4535119D01*
X4361738Y4537202D01*
X4359554Y4540402D01*
X4353255Y4554321D01*
X4345381Y4567326D01*
X4336034Y4579264D01*
X4325264Y4590034D01*
X4313326Y4599381D01*
X4300321Y4607255D01*
X4286453Y4613503D01*
X4271924Y4618024D01*
X4256989Y4620768D01*
X4241800Y4621682D01*
X4226610Y4620768D01*
X4211675Y4618024D01*
X4197146Y4613503D01*
X4183278Y4607255D01*
X4170273Y4599381D01*
X4158335Y4590034D01*
X4147565Y4579264D01*
X4138218Y4567326D01*
X4130344Y4554321D01*
X4124045Y4540402D01*
X4121861Y4537202D01*
X4118610Y4535119D01*
X4114800Y4534408D01*
X4110990Y4535119D01*
X4107738Y4537202D01*
X4105554Y4540402D01*
X4099255Y4554321D01*
X4091381Y4567326D01*
X4082034Y4579264D01*
X4071264Y4590034D01*
X4059326Y4599381D01*
X4046321Y4607255D01*
X4032453Y4613503D01*
X4017924Y4618024D01*
X4002989Y4620768D01*
X3987800Y4621682D01*
X3972610Y4620768D01*
X3957675Y4618024D01*
X3943146Y4613503D01*
X3929278Y4607255D01*
X3916273Y4599381D01*
X3904335Y4590034D01*
X3893565Y4579264D01*
X3884218Y4567326D01*
X3876344Y4554321D01*
X3870045Y4540402D01*
X3867861Y4537202D01*
X3864610Y4535119D01*
X3860800Y4534408D01*
X3856990Y4535119D01*
X3853738Y4537202D01*
X3851554Y4540402D01*
X3845255Y4554321D01*
X3837381Y4567326D01*
X3828034Y4579264D01*
X3817264Y4590034D01*
X3805326Y4599381D01*
X3792321Y4607255D01*
X3778453Y4613503D01*
X3763924Y4618024D01*
X3748989Y4620768D01*
X3733800Y4621682D01*
X3718610Y4620768D01*
X3703675Y4618024D01*
X3689146Y4613503D01*
X3675278Y4607255D01*
X3662273Y4599381D01*
X3650335Y4590034D01*
X3639565Y4579264D01*
X3630218Y4567326D01*
X3622344Y4554321D01*
X3616045Y4540402D01*
X3613861Y4537202D01*
X3610610Y4535119D01*
X3606800Y4534408D01*
X3602990Y4535119D01*
X3599738Y4537202D01*
X3597554Y4540402D01*
X3591255Y4554321D01*
X3583381Y4567326D01*
X3574034Y4579264D01*
X3563264Y4590034D01*
X3551326Y4599381D01*
X3538321Y4607255D01*
X3524453Y4613503D01*
X3509924Y4618024D01*
X3494989Y4620768D01*
X3479800Y4621682D01*
X3464610Y4620768D01*
X3449675Y4618024D01*
X3435146Y4613503D01*
X3421278Y4607255D01*
X3408273Y4599381D01*
X3396335Y4590034D01*
X3385565Y4579264D01*
X3376218Y4567326D01*
X3368344Y4554321D01*
X3362096Y4540453D01*
X3357575Y4525924D01*
X3354832Y4510989D01*
X3353917Y4495800D01*
X3354832Y4480610D01*
X3357575Y4465675D01*
X3362096Y4451146D01*
X3368344Y4437278D01*
X3376218Y4424273D01*
X3385565Y4412335D01*
X3396335Y4401566D01*
X3408273Y4392218D01*
X3421278Y4384344D01*
X3435146Y4378096D01*
X3449675Y4373575D01*
X3464610Y4370832D01*
G37*
G36*
X2413000Y4134662D02*
G01*
X2422804Y4135526D01*
X2432253Y4138066D01*
X2441194Y4142181D01*
X2449220Y4147820D01*
X2456180Y4154779D01*
X2461818Y4162806D01*
X2465933Y4171746D01*
X2468473Y4181195D01*
X2469337Y4191000D01*
X2468473Y4200804D01*
X2467864Y4203090D01*
X2467559Y4206798D01*
X2468626Y4210354D01*
X2470912Y4213301D01*
X2474061Y4215231D01*
X2477668Y4215892D01*
X2875991Y4215892D01*
X2879902Y4215130D01*
X2883204Y4212894D01*
X2884779Y4211320D01*
X2892806Y4205681D01*
X2901746Y4201566D01*
X2911195Y4199026D01*
X2921000Y4198162D01*
X2930804Y4199026D01*
X2940253Y4201566D01*
X2949194Y4205681D01*
X2957220Y4211320D01*
X2964180Y4218279D01*
X2969818Y4226306D01*
X2973933Y4235246D01*
X2976473Y4244695D01*
X2977337Y4254500D01*
X2976473Y4264304D01*
X2975864Y4266590D01*
X2975559Y4270298D01*
X2976626Y4273854D01*
X2978912Y4276801D01*
X2982061Y4278731D01*
X2985668Y4279392D01*
X3129991Y4279392D01*
X3133902Y4278630D01*
X3137204Y4276394D01*
X3138779Y4274820D01*
X3146806Y4269181D01*
X3155746Y4265066D01*
X3165195Y4262526D01*
X3175000Y4261662D01*
X3184804Y4262526D01*
X3194253Y4265066D01*
X3203194Y4269181D01*
X3211220Y4274820D01*
X3218180Y4281779D01*
X3223818Y4289806D01*
X3227933Y4298746D01*
X3230473Y4308195D01*
X3231337Y4318000D01*
X3230473Y4327804D01*
X3227933Y4337253D01*
X3223818Y4346194D01*
X3218180Y4354220D01*
X3211220Y4361180D01*
X3203194Y4366818D01*
X3194253Y4370933D01*
X3184804Y4373473D01*
X3175000Y4374337D01*
X3165195Y4373473D01*
X3155746Y4370933D01*
X3146806Y4366818D01*
X3138779Y4361180D01*
X3137204Y4359605D01*
X3133902Y4357370D01*
X3129991Y4356608D01*
X2433218Y4356608D01*
X2429306Y4357370D01*
X2426004Y4359605D01*
X2417724Y4367885D01*
X2415641Y4370933D01*
X2414727Y4374489D01*
X2415184Y4378096D01*
X2416911Y4381347D01*
X2419654Y4383786D01*
X2433726Y4392218D01*
X2445664Y4401566D01*
X2456434Y4412335D01*
X2465781Y4424273D01*
X2473655Y4437278D01*
X2479903Y4451146D01*
X2484424Y4465675D01*
X2487168Y4480610D01*
X2488082Y4495800D01*
X2487168Y4510989D01*
X2484424Y4525924D01*
X2479903Y4540453D01*
X2473655Y4554321D01*
X2465781Y4567326D01*
X2456434Y4579264D01*
X2445664Y4590034D01*
X2433726Y4599381D01*
X2420721Y4607255D01*
X2406853Y4613503D01*
X2392324Y4618024D01*
X2377389Y4620768D01*
X2362200Y4621682D01*
X2347010Y4620768D01*
X2332075Y4618024D01*
X2317546Y4613503D01*
X2303678Y4607255D01*
X2290673Y4599381D01*
X2278735Y4590034D01*
X2267966Y4579264D01*
X2258618Y4567326D01*
X2250744Y4554321D01*
X2244445Y4540402D01*
X2242261Y4537202D01*
X2239010Y4535119D01*
X2235200Y4534408D01*
X2231390Y4535119D01*
X2228138Y4537202D01*
X2225954Y4540402D01*
X2219655Y4554321D01*
X2211781Y4567326D01*
X2202434Y4579264D01*
X2191664Y4590034D01*
X2179726Y4599381D01*
X2166721Y4607255D01*
X2152853Y4613503D01*
X2138324Y4618024D01*
X2123389Y4620768D01*
X2108200Y4621682D01*
X2093010Y4620768D01*
X2078075Y4618024D01*
X2063546Y4613503D01*
X2049678Y4607255D01*
X2036673Y4599381D01*
X2024735Y4590034D01*
X2013966Y4579264D01*
X2004618Y4567326D01*
X1996744Y4554321D01*
X1990445Y4540402D01*
X1988261Y4537202D01*
X1985010Y4535119D01*
X1981200Y4534408D01*
X1977389Y4535119D01*
X1974138Y4537202D01*
X1971954Y4540402D01*
X1965655Y4554321D01*
X1957781Y4567326D01*
X1948434Y4579264D01*
X1937664Y4590034D01*
X1925726Y4599381D01*
X1912721Y4607255D01*
X1898853Y4613503D01*
X1884324Y4618024D01*
X1869389Y4620768D01*
X1854200Y4621682D01*
X1839010Y4620768D01*
X1824075Y4618024D01*
X1809546Y4613503D01*
X1795678Y4607255D01*
X1782673Y4599381D01*
X1770735Y4590034D01*
X1759966Y4579264D01*
X1750618Y4567326D01*
X1742744Y4554321D01*
X1736445Y4540402D01*
X1734261Y4537202D01*
X1731010Y4535119D01*
X1727200Y4534408D01*
X1723389Y4535119D01*
X1720138Y4537202D01*
X1717954Y4540402D01*
X1711655Y4554321D01*
X1703781Y4567326D01*
X1694434Y4579264D01*
X1683664Y4590034D01*
X1671726Y4599381D01*
X1658721Y4607255D01*
X1644853Y4613503D01*
X1630324Y4618024D01*
X1615389Y4620768D01*
X1600200Y4621682D01*
X1585010Y4620768D01*
X1570075Y4618024D01*
X1555546Y4613503D01*
X1541678Y4607255D01*
X1528673Y4599381D01*
X1516735Y4590034D01*
X1505966Y4579264D01*
X1496618Y4567326D01*
X1488744Y4554321D01*
X1482445Y4540402D01*
X1480261Y4537202D01*
X1477010Y4535119D01*
X1473200Y4534408D01*
X1469390Y4535119D01*
X1466138Y4537202D01*
X1463954Y4540402D01*
X1457655Y4554321D01*
X1449781Y4567326D01*
X1440434Y4579264D01*
X1429664Y4590034D01*
X1417726Y4599381D01*
X1404721Y4607255D01*
X1390853Y4613503D01*
X1376324Y4618024D01*
X1361389Y4620768D01*
X1346200Y4621682D01*
X1331010Y4620768D01*
X1316075Y4618024D01*
X1301546Y4613503D01*
X1287678Y4607255D01*
X1274673Y4599381D01*
X1262735Y4590034D01*
X1251966Y4579264D01*
X1242618Y4567326D01*
X1234744Y4554321D01*
X1228445Y4540402D01*
X1226261Y4537202D01*
X1223010Y4535119D01*
X1219200Y4534408D01*
X1215390Y4535119D01*
X1212138Y4537202D01*
X1209954Y4540402D01*
X1203655Y4554321D01*
X1195781Y4567326D01*
X1186434Y4579264D01*
X1175664Y4590034D01*
X1163726Y4599381D01*
X1150721Y4607255D01*
X1136853Y4613503D01*
X1122324Y4618024D01*
X1107389Y4620768D01*
X1092200Y4621682D01*
X1077010Y4620768D01*
X1062075Y4618024D01*
X1047546Y4613503D01*
X1033678Y4607255D01*
X1020673Y4599381D01*
X1008735Y4590034D01*
X997966Y4579264D01*
X988618Y4567326D01*
X980744Y4554321D01*
X974445Y4540402D01*
X972261Y4537202D01*
X969010Y4535119D01*
X965200Y4534408D01*
X961390Y4535119D01*
X958138Y4537202D01*
X955954Y4540402D01*
X949655Y4554321D01*
X941781Y4567326D01*
X932434Y4579264D01*
X921664Y4590034D01*
X909726Y4599381D01*
X896721Y4607255D01*
X882853Y4613503D01*
X868324Y4618024D01*
X853389Y4620768D01*
X838200Y4621682D01*
X823010Y4620768D01*
X808075Y4618024D01*
X793546Y4613503D01*
X779678Y4607255D01*
X766673Y4599381D01*
X754735Y4590034D01*
X743966Y4579264D01*
X734618Y4567326D01*
X726744Y4554321D01*
X720445Y4540402D01*
X718261Y4537202D01*
X715010Y4535119D01*
X711200Y4534408D01*
X707390Y4535119D01*
X704138Y4537202D01*
X701954Y4540402D01*
X695655Y4554321D01*
X687781Y4567326D01*
X678434Y4579264D01*
X667664Y4590034D01*
X655726Y4599381D01*
X642721Y4607255D01*
X628853Y4613503D01*
X614324Y4618024D01*
X599389Y4620768D01*
X584200Y4621682D01*
X569010Y4620768D01*
X554075Y4618024D01*
X539546Y4613503D01*
X525678Y4607255D01*
X512673Y4599381D01*
X500735Y4590034D01*
X489966Y4579264D01*
X480618Y4567326D01*
X472744Y4554321D01*
X466496Y4540453D01*
X461975Y4525924D01*
X459232Y4510989D01*
X458317Y4495800D01*
X459232Y4480610D01*
X461975Y4465675D01*
X466496Y4451146D01*
X472744Y4437278D01*
X480618Y4424273D01*
X489966Y4412335D01*
X500735Y4401566D01*
X512673Y4392218D01*
X525678Y4384344D01*
X539546Y4378096D01*
X554075Y4373575D01*
X569010Y4370832D01*
X584200Y4369917D01*
X599389Y4370832D01*
X614324Y4373575D01*
X628853Y4378096D01*
X642721Y4384344D01*
X655726Y4392218D01*
X667664Y4401566D01*
X678434Y4412335D01*
X687781Y4424273D01*
X695655Y4437278D01*
X701954Y4451197D01*
X704138Y4454398D01*
X707390Y4456480D01*
X711200Y4457192D01*
X715010Y4456480D01*
X718261Y4454398D01*
X720445Y4451197D01*
X726744Y4437278D01*
X734618Y4424273D01*
X743966Y4412335D01*
X754735Y4401566D01*
X766673Y4392218D01*
X779678Y4384344D01*
X793546Y4378096D01*
X808075Y4373575D01*
X823010Y4370832D01*
X838200Y4369917D01*
X853389Y4370832D01*
X868324Y4373575D01*
X882853Y4378096D01*
X896721Y4384344D01*
X909726Y4392218D01*
X921664Y4401566D01*
X932434Y4412335D01*
X941781Y4424273D01*
X949655Y4437278D01*
X955954Y4451197D01*
X958138Y4454398D01*
X961390Y4456480D01*
X965200Y4457192D01*
X969010Y4456480D01*
X972261Y4454398D01*
X974445Y4451197D01*
X980744Y4437278D01*
X988618Y4424273D01*
X997966Y4412335D01*
X1008735Y4401566D01*
X1020673Y4392218D01*
X1033678Y4384344D01*
X1047546Y4378096D01*
X1062075Y4373575D01*
X1077010Y4370832D01*
X1092200Y4369917D01*
X1107389Y4370832D01*
X1122324Y4373575D01*
X1136853Y4378096D01*
X1150721Y4384344D01*
X1163726Y4392218D01*
X1175664Y4401566D01*
X1186434Y4412335D01*
X1195781Y4424273D01*
X1203655Y4437278D01*
X1209954Y4451197D01*
X1212138Y4454398D01*
X1215390Y4456480D01*
X1219200Y4457192D01*
X1223010Y4456480D01*
X1226261Y4454398D01*
X1228445Y4451197D01*
X1234744Y4437278D01*
X1242618Y4424273D01*
X1251966Y4412335D01*
X1262735Y4401566D01*
X1274673Y4392218D01*
X1287678Y4384344D01*
X1301546Y4378096D01*
X1316075Y4373575D01*
X1331010Y4370832D01*
X1346200Y4369917D01*
X1361389Y4370832D01*
X1376324Y4373575D01*
X1390853Y4378096D01*
X1404721Y4384344D01*
X1417726Y4392218D01*
X1429664Y4401566D01*
X1440434Y4412335D01*
X1449781Y4424273D01*
X1457655Y4437278D01*
X1463954Y4451197D01*
X1466138Y4454398D01*
X1469390Y4456480D01*
X1473200Y4457192D01*
X1477010Y4456480D01*
X1480261Y4454398D01*
X1482445Y4451197D01*
X1488744Y4437278D01*
X1496618Y4424273D01*
X1505966Y4412335D01*
X1516735Y4401566D01*
X1528673Y4392218D01*
X1541678Y4384344D01*
X1555546Y4378096D01*
X1570075Y4373575D01*
X1585010Y4370832D01*
X1600200Y4369917D01*
X1615389Y4370832D01*
X1630324Y4373575D01*
X1644853Y4378096D01*
X1658721Y4384344D01*
X1671726Y4392218D01*
X1683664Y4401566D01*
X1694434Y4412335D01*
X1703781Y4424273D01*
X1711655Y4437278D01*
X1717954Y4451197D01*
X1720138Y4454398D01*
X1723389Y4456480D01*
X1727200Y4457192D01*
X1731010Y4456480D01*
X1734261Y4454398D01*
X1736445Y4451197D01*
X1742744Y4437278D01*
X1750618Y4424273D01*
X1759966Y4412335D01*
X1770735Y4401566D01*
X1782673Y4392218D01*
X1795678Y4384344D01*
X1809597Y4378096D01*
X1812747Y4375861D01*
X1814880Y4372610D01*
X1815592Y4368800D01*
X1815592Y4242308D01*
X1816404Y4234281D01*
X1818589Y4227068D01*
X1822145Y4220362D01*
X1827275Y4214164D01*
X1877364Y4164076D01*
X1883562Y4158945D01*
X1890268Y4155389D01*
X1897481Y4153204D01*
X1905507Y4152392D01*
X2367991Y4152392D01*
X2371902Y4151629D01*
X2375204Y4149394D01*
X2376779Y4147820D01*
X2384806Y4142181D01*
X2393746Y4138066D01*
X2403195Y4135526D01*
G37*
G36*
X5219700Y3835400D02*
G01*
X5316931Y3835400D01*
X5316474Y3840378D01*
X5313324Y3854246D01*
X5308396Y3867607D01*
X5301843Y3880205D01*
X5293715Y3891838D01*
X5284165Y3902354D01*
X5273344Y3911549D01*
X5261406Y3919321D01*
X5248605Y3925468D01*
X5235143Y3929938D01*
X5221173Y3932682D01*
X5219700Y3932783D01*
G37*
G36*
X5097068Y3835400D02*
G01*
X5194300Y3835400D01*
X5194300Y3932783D01*
X5192826Y3932682D01*
X5178856Y3929938D01*
X5165394Y3925468D01*
X5152593Y3919321D01*
X5140655Y3911549D01*
X5129834Y3902354D01*
X5120284Y3891838D01*
X5112156Y3880205D01*
X5105603Y3867607D01*
X5100675Y3854246D01*
X5097526Y3840378D01*
G37*
G36*
X3949700Y3835400D02*
G01*
X4046931Y3835400D01*
X4046474Y3840378D01*
X4043324Y3854246D01*
X4038396Y3867607D01*
X4031843Y3880205D01*
X4023715Y3891838D01*
X4014165Y3902354D01*
X4003344Y3911549D01*
X3991406Y3919321D01*
X3978605Y3925468D01*
X3965143Y3929938D01*
X3951173Y3932682D01*
X3949700Y3932783D01*
G37*
G36*
X2679700Y3835400D02*
G01*
X2776931Y3835400D01*
X2776474Y3840378D01*
X2773324Y3854246D01*
X2768396Y3867607D01*
X2761843Y3880205D01*
X2753715Y3891838D01*
X2744165Y3902354D01*
X2733344Y3911549D01*
X2721406Y3919321D01*
X2708605Y3925468D01*
X2695143Y3929938D01*
X2681173Y3932682D01*
X2679700Y3932783D01*
G37*
G36*
X2557068Y3835400D02*
G01*
X2654300Y3835400D01*
X2654300Y3932783D01*
X2652826Y3932682D01*
X2638856Y3929938D01*
X2625394Y3925468D01*
X2612593Y3919321D01*
X2600655Y3911549D01*
X2589834Y3902354D01*
X2580284Y3891838D01*
X2572156Y3880205D01*
X2565603Y3867607D01*
X2560675Y3854246D01*
X2557526Y3840378D01*
G37*
G36*
X3827068Y3835400D02*
G01*
X3924300Y3835400D01*
X3924300Y3932783D01*
X3922826Y3932682D01*
X3908856Y3929938D01*
X3895394Y3925468D01*
X3882593Y3919321D01*
X3870655Y3911549D01*
X3859834Y3902354D01*
X3850284Y3891838D01*
X3842156Y3880205D01*
X3835603Y3867607D01*
X3830675Y3854246D01*
X3827526Y3840378D01*
G37*
G36*
X1409700Y3835400D02*
G01*
X1506931Y3835400D01*
X1506474Y3840378D01*
X1503324Y3854246D01*
X1498396Y3867607D01*
X1491843Y3880205D01*
X1483715Y3891838D01*
X1474165Y3902354D01*
X1463344Y3911549D01*
X1451406Y3919321D01*
X1438605Y3925468D01*
X1425143Y3929938D01*
X1411173Y3932682D01*
X1409700Y3932783D01*
G37*
G36*
X1287068Y3835400D02*
G01*
X1384300Y3835400D01*
X1384300Y3932783D01*
X1382826Y3932682D01*
X1368856Y3929938D01*
X1355394Y3925468D01*
X1342593Y3919321D01*
X1330655Y3911549D01*
X1319834Y3902354D01*
X1310284Y3891838D01*
X1302156Y3880205D01*
X1295603Y3867607D01*
X1290675Y3854246D01*
X1287526Y3840378D01*
G37*
G36*
X435356Y3724554D02*
G01*
X449478Y3725926D01*
X463346Y3729075D01*
X476707Y3734003D01*
X489305Y3740556D01*
X500938Y3748684D01*
X511454Y3758234D01*
X520649Y3769055D01*
X528421Y3780993D01*
X534568Y3793794D01*
X539038Y3807256D01*
X541782Y3821226D01*
X542696Y3835400D01*
X541782Y3849573D01*
X539038Y3863543D01*
X534568Y3877005D01*
X528421Y3889806D01*
X520649Y3901744D01*
X511454Y3912565D01*
X500938Y3922115D01*
X489305Y3930243D01*
X476707Y3936796D01*
X463346Y3941724D01*
X449478Y3944874D01*
X435356Y3946245D01*
X421132Y3945788D01*
X407111Y3943502D01*
X393496Y3939438D01*
X380492Y3933698D01*
X368350Y3926332D01*
X357225Y3917492D01*
X347370Y3907282D01*
X338886Y3895902D01*
X331876Y3883507D01*
X326542Y3870350D01*
X322935Y3856583D01*
X321157Y3842512D01*
X321157Y3828287D01*
X322935Y3814216D01*
X326542Y3800449D01*
X331876Y3787292D01*
X338886Y3774897D01*
X347370Y3763518D01*
X357225Y3753307D01*
X368350Y3744468D01*
X380492Y3737101D01*
X393496Y3731310D01*
X407111Y3727297D01*
X421132Y3725011D01*
G37*
G36*
X181356Y3724554D02*
G01*
X195478Y3725926D01*
X209346Y3729075D01*
X222707Y3734003D01*
X235305Y3740556D01*
X246938Y3748684D01*
X257454Y3758234D01*
X266649Y3769055D01*
X274421Y3780993D01*
X280568Y3793794D01*
X285038Y3807256D01*
X287782Y3821226D01*
X288696Y3835400D01*
X287782Y3849573D01*
X285038Y3863543D01*
X280568Y3877005D01*
X274421Y3889806D01*
X266649Y3901744D01*
X257454Y3912565D01*
X246938Y3922115D01*
X235305Y3930243D01*
X222707Y3936796D01*
X209346Y3941724D01*
X195478Y3944874D01*
X181356Y3946245D01*
X167132Y3945788D01*
X153111Y3943502D01*
X139496Y3939438D01*
X126492Y3933698D01*
X114350Y3926332D01*
X103225Y3917492D01*
X93370Y3907282D01*
X84886Y3895902D01*
X77876Y3883507D01*
X72542Y3870350D01*
X68935Y3856583D01*
X67157Y3842512D01*
X67157Y3828287D01*
X68935Y3814216D01*
X72542Y3800449D01*
X77876Y3787292D01*
X84886Y3774897D01*
X93370Y3763518D01*
X103225Y3753307D01*
X114350Y3744468D01*
X126492Y3737101D01*
X139496Y3731310D01*
X153111Y3727297D01*
X167132Y3725011D01*
G37*
G36*
X1409700Y3712768D02*
G01*
X1418183Y3713835D01*
X1431950Y3717442D01*
X1445107Y3722776D01*
X1457502Y3729786D01*
X1468882Y3738270D01*
X1479092Y3748125D01*
X1487932Y3759250D01*
X1495298Y3771392D01*
X1501089Y3784396D01*
X1505102Y3798011D01*
X1507032Y3810000D01*
X1409700Y3810000D01*
G37*
G36*
X1384300Y3712768D02*
G01*
X1384300Y3810000D01*
X1286967Y3810000D01*
X1288897Y3798011D01*
X1292961Y3784396D01*
X1298702Y3771392D01*
X1306068Y3759250D01*
X1314907Y3748125D01*
X1325118Y3738270D01*
X1336497Y3729786D01*
X1348892Y3722776D01*
X1362049Y3717442D01*
X1375816Y3713835D01*
G37*
G36*
X5219700Y3712768D02*
G01*
X5228183Y3713835D01*
X5241950Y3717442D01*
X5255107Y3722776D01*
X5267502Y3729786D01*
X5278882Y3738270D01*
X5289092Y3748125D01*
X5297932Y3759250D01*
X5305298Y3771392D01*
X5311089Y3784396D01*
X5315102Y3798011D01*
X5317032Y3810000D01*
X5219700Y3810000D01*
G37*
G36*
X2679700Y3712768D02*
G01*
X2688183Y3713835D01*
X2701950Y3717442D01*
X2715107Y3722776D01*
X2727502Y3729786D01*
X2738882Y3738270D01*
X2749092Y3748125D01*
X2757932Y3759250D01*
X2765298Y3771392D01*
X2771038Y3784396D01*
X2775102Y3798011D01*
X2777032Y3810000D01*
X2679700Y3810000D01*
G37*
G36*
X2654300Y3712768D02*
G01*
X2654300Y3810000D01*
X2556967Y3810000D01*
X2558897Y3798011D01*
X2562961Y3784396D01*
X2568702Y3771392D01*
X2576068Y3759250D01*
X2584907Y3748125D01*
X2595118Y3738270D01*
X2606497Y3729786D01*
X2618892Y3722776D01*
X2632049Y3717442D01*
X2645816Y3713835D01*
G37*
G36*
X406400Y1899462D02*
G01*
X416204Y1900326D01*
X425653Y1902866D01*
X434593Y1906981D01*
X442620Y1912620D01*
X444195Y1914194D01*
X447497Y1916430D01*
X451408Y1917192D01*
X628091Y1917192D01*
X632002Y1916430D01*
X635304Y1914194D01*
X636879Y1912620D01*
X644906Y1906981D01*
X653846Y1902866D01*
X663295Y1900326D01*
X673100Y1899462D01*
X682904Y1900326D01*
X692353Y1902866D01*
X701294Y1906981D01*
X709320Y1912620D01*
X716280Y1919579D01*
X721918Y1927606D01*
X726033Y1936546D01*
X728573Y1945995D01*
X729437Y1955800D01*
X728573Y1965604D01*
X726033Y1975053D01*
X721918Y1983993D01*
X716280Y1992020D01*
X709320Y1998980D01*
X701294Y2004618D01*
X692353Y2008733D01*
X682904Y2011273D01*
X673100Y2012137D01*
X663295Y2011273D01*
X653846Y2008733D01*
X644906Y2004618D01*
X636879Y1998980D01*
X635304Y1997405D01*
X632002Y1995170D01*
X628091Y1994407D01*
X451408Y1994407D01*
X447497Y1995170D01*
X444195Y1997405D01*
X442620Y1998980D01*
X434593Y2004618D01*
X425653Y2008733D01*
X416204Y2011273D01*
X406400Y2012137D01*
X396595Y2011273D01*
X387146Y2008733D01*
X378206Y2004618D01*
X370179Y1998980D01*
X363220Y1992020D01*
X357581Y1983993D01*
X353466Y1975053D01*
X350926Y1965604D01*
X350062Y1955800D01*
X350926Y1945995D01*
X353466Y1936546D01*
X357581Y1927606D01*
X363220Y1919579D01*
X370179Y1912620D01*
X378206Y1906981D01*
X387146Y1902866D01*
X396595Y1900326D01*
G37*
G36*
X3924300Y3712768D02*
G01*
X3924300Y3810000D01*
X3826967Y3810000D01*
X3828897Y3798011D01*
X3832961Y3784396D01*
X3838701Y3771392D01*
X3846068Y3759250D01*
X3854907Y3748125D01*
X3865118Y3738270D01*
X3876497Y3729786D01*
X3888892Y3722776D01*
X3902049Y3717442D01*
X3915816Y3713835D01*
G37*
G36*
X1135888Y1934057D02*
G01*
X1150112Y1934057D01*
X1164183Y1935835D01*
X1177950Y1939442D01*
X1191107Y1944776D01*
X1203502Y1951786D01*
X1214882Y1960270D01*
X1225092Y1970125D01*
X1233932Y1981250D01*
X1241298Y1993392D01*
X1247089Y2006396D01*
X1251102Y2020011D01*
X1253388Y2034032D01*
X1253845Y2048256D01*
X1252474Y2062378D01*
X1249324Y2076246D01*
X1244396Y2089607D01*
X1237843Y2102205D01*
X1229715Y2113838D01*
X1220165Y2124354D01*
X1209344Y2133549D01*
X1197406Y2141321D01*
X1184605Y2147468D01*
X1171143Y2151938D01*
X1157173Y2154682D01*
X1143000Y2155596D01*
X1128826Y2154682D01*
X1114856Y2151938D01*
X1101394Y2147468D01*
X1088593Y2141321D01*
X1076655Y2133549D01*
X1065834Y2124354D01*
X1056284Y2113838D01*
X1048156Y2102205D01*
X1041603Y2089607D01*
X1036675Y2076246D01*
X1033526Y2062378D01*
X1032154Y2048256D01*
X1032611Y2034032D01*
X1034897Y2020011D01*
X1038961Y2006396D01*
X1044702Y1993392D01*
X1052068Y1981250D01*
X1060907Y1970125D01*
X1071118Y1960270D01*
X1082497Y1951786D01*
X1094892Y1944776D01*
X1108049Y1939442D01*
X1121816Y1935835D01*
G37*
G36*
X1643888Y1934057D02*
G01*
X1658112Y1934057D01*
X1672183Y1935835D01*
X1685950Y1939442D01*
X1699107Y1944776D01*
X1711502Y1951786D01*
X1722882Y1960270D01*
X1733092Y1970125D01*
X1741932Y1981250D01*
X1749298Y1993392D01*
X1755089Y2006396D01*
X1759102Y2020011D01*
X1761388Y2034032D01*
X1761845Y2048256D01*
X1760474Y2062378D01*
X1757324Y2076246D01*
X1752396Y2089607D01*
X1745843Y2102205D01*
X1737715Y2113838D01*
X1728165Y2124354D01*
X1717344Y2133549D01*
X1705406Y2141321D01*
X1692605Y2147468D01*
X1679143Y2151938D01*
X1665173Y2154682D01*
X1651000Y2155596D01*
X1636826Y2154682D01*
X1622856Y2151938D01*
X1609394Y2147468D01*
X1596593Y2141321D01*
X1584655Y2133549D01*
X1573834Y2124354D01*
X1564284Y2113838D01*
X1556156Y2102205D01*
X1549603Y2089607D01*
X1544675Y2076246D01*
X1541526Y2062378D01*
X1540154Y2048256D01*
X1540611Y2034032D01*
X1542897Y2020011D01*
X1546961Y2006396D01*
X1552702Y1993392D01*
X1560068Y1981250D01*
X1568907Y1970125D01*
X1579118Y1960270D01*
X1590497Y1951786D01*
X1602892Y1944776D01*
X1616049Y1939442D01*
X1629816Y1935835D01*
G37*
G36*
X881887Y1934057D02*
G01*
X896112Y1934057D01*
X910183Y1935835D01*
X923950Y1939442D01*
X937107Y1944776D01*
X949502Y1951786D01*
X960882Y1960270D01*
X971092Y1970125D01*
X979932Y1981250D01*
X987298Y1993392D01*
X993089Y2006396D01*
X997102Y2020011D01*
X999388Y2034032D01*
X999845Y2048256D01*
X998474Y2062378D01*
X995324Y2076246D01*
X990396Y2089607D01*
X983843Y2102205D01*
X975715Y2113838D01*
X966165Y2124354D01*
X955344Y2133549D01*
X943406Y2141321D01*
X930605Y2147468D01*
X917143Y2151938D01*
X903173Y2154682D01*
X889000Y2155596D01*
X874826Y2154682D01*
X860856Y2151938D01*
X847394Y2147468D01*
X834593Y2141321D01*
X822655Y2133549D01*
X811834Y2124354D01*
X802284Y2113838D01*
X794156Y2102205D01*
X787603Y2089607D01*
X782675Y2076246D01*
X779526Y2062378D01*
X778154Y2048256D01*
X778611Y2034032D01*
X780897Y2020011D01*
X784961Y2006396D01*
X790702Y1993392D01*
X798068Y1981250D01*
X806907Y1970125D01*
X817118Y1960270D01*
X828497Y1951786D01*
X840892Y1944776D01*
X854049Y1939442D01*
X867816Y1935835D01*
G37*
G36*
X1897888Y1934057D02*
G01*
X1912112Y1934057D01*
X1926183Y1935835D01*
X1939950Y1939442D01*
X1953107Y1944776D01*
X1965502Y1951786D01*
X1976882Y1960270D01*
X1987092Y1970125D01*
X1995932Y1981250D01*
X2003298Y1993392D01*
X2009038Y2006396D01*
X2013102Y2020011D01*
X2015388Y2034032D01*
X2015845Y2048256D01*
X2014474Y2062378D01*
X2011324Y2076246D01*
X2006396Y2089607D01*
X1999843Y2102205D01*
X1991715Y2113838D01*
X1982165Y2124354D01*
X1971344Y2133549D01*
X1959406Y2141321D01*
X1946605Y2147468D01*
X1933143Y2151938D01*
X1919173Y2154682D01*
X1905000Y2155596D01*
X1890826Y2154682D01*
X1876856Y2151938D01*
X1863394Y2147468D01*
X1850593Y2141321D01*
X1838655Y2133549D01*
X1827834Y2124354D01*
X1818284Y2113838D01*
X1810156Y2102205D01*
X1803603Y2089607D01*
X1798675Y2076246D01*
X1795525Y2062378D01*
X1794154Y2048256D01*
X1794611Y2034032D01*
X1796897Y2020011D01*
X1800961Y2006396D01*
X1806702Y1993392D01*
X1814068Y1981250D01*
X1822907Y1970125D01*
X1833118Y1960270D01*
X1844497Y1951786D01*
X1856892Y1944776D01*
X1870049Y1939442D01*
X1883816Y1935835D01*
G37*
G36*
X4183887Y1934057D02*
G01*
X4198112Y1934057D01*
X4212183Y1935835D01*
X4225950Y1939442D01*
X4239107Y1944776D01*
X4251502Y1951786D01*
X4262882Y1960270D01*
X4273092Y1970125D01*
X4281932Y1981250D01*
X4289298Y1993392D01*
X4295038Y2006396D01*
X4299102Y2020011D01*
X4301388Y2034032D01*
X4301845Y2048256D01*
X4300474Y2062378D01*
X4297324Y2076246D01*
X4292396Y2089607D01*
X4285843Y2102205D01*
X4277715Y2113838D01*
X4268165Y2124354D01*
X4257344Y2133549D01*
X4245406Y2141321D01*
X4232605Y2147468D01*
X4219143Y2151938D01*
X4205173Y2154682D01*
X4191000Y2155596D01*
X4176826Y2154682D01*
X4162856Y2151938D01*
X4149394Y2147468D01*
X4136593Y2141321D01*
X4124655Y2133549D01*
X4113834Y2124354D01*
X4104284Y2113838D01*
X4096156Y2102205D01*
X4089603Y2089607D01*
X4084675Y2076246D01*
X4081526Y2062378D01*
X4080154Y2048256D01*
X4080611Y2034032D01*
X4082897Y2020011D01*
X4086961Y2006396D01*
X4092701Y1993392D01*
X4100068Y1981250D01*
X4108907Y1970125D01*
X4119118Y1960270D01*
X4130497Y1951786D01*
X4142892Y1944776D01*
X4156049Y1939442D01*
X4169816Y1935835D01*
G37*
G36*
X2151888Y1934057D02*
G01*
X2166112Y1934057D01*
X2180183Y1935835D01*
X2193950Y1939442D01*
X2207107Y1944776D01*
X2219502Y1951786D01*
X2230882Y1960270D01*
X2241092Y1970125D01*
X2249932Y1981250D01*
X2257298Y1993392D01*
X2263038Y2006396D01*
X2267102Y2020011D01*
X2269388Y2034032D01*
X2269845Y2048256D01*
X2268474Y2062378D01*
X2265324Y2076246D01*
X2260396Y2089607D01*
X2253843Y2102205D01*
X2245715Y2113838D01*
X2236165Y2124354D01*
X2225344Y2133549D01*
X2213406Y2141321D01*
X2200605Y2147468D01*
X2187143Y2151938D01*
X2173173Y2154682D01*
X2159000Y2155596D01*
X2144826Y2154682D01*
X2130856Y2151938D01*
X2117394Y2147468D01*
X2104593Y2141321D01*
X2092655Y2133549D01*
X2081834Y2124354D01*
X2072284Y2113838D01*
X2064156Y2102205D01*
X2057603Y2089607D01*
X2052675Y2076246D01*
X2049525Y2062378D01*
X2048154Y2048256D01*
X2048611Y2034032D01*
X2050897Y2020011D01*
X2054961Y2006396D01*
X2060702Y1993392D01*
X2068068Y1981250D01*
X2076907Y1970125D01*
X2087118Y1960270D01*
X2098497Y1951786D01*
X2110892Y1944776D01*
X2124049Y1939442D01*
X2137816Y1935835D01*
G37*
G36*
X2405888Y1934057D02*
G01*
X2420112Y1934057D01*
X2434183Y1935835D01*
X2447950Y1939442D01*
X2461107Y1944776D01*
X2473502Y1951786D01*
X2484882Y1960270D01*
X2495092Y1970125D01*
X2503932Y1981250D01*
X2511298Y1993392D01*
X2517038Y2006396D01*
X2521102Y2020011D01*
X2523388Y2034032D01*
X2523845Y2048256D01*
X2522474Y2062378D01*
X2519324Y2076246D01*
X2514396Y2089607D01*
X2507843Y2102205D01*
X2499715Y2113838D01*
X2490165Y2124354D01*
X2479344Y2133549D01*
X2467406Y2141321D01*
X2454605Y2147468D01*
X2441143Y2151938D01*
X2427173Y2154682D01*
X2413000Y2155596D01*
X2398826Y2154682D01*
X2384856Y2151938D01*
X2371394Y2147468D01*
X2358593Y2141321D01*
X2346655Y2133549D01*
X2335834Y2124354D01*
X2326284Y2113838D01*
X2318156Y2102205D01*
X2311603Y2089607D01*
X2306675Y2076246D01*
X2303526Y2062378D01*
X2302154Y2048256D01*
X2302611Y2034032D01*
X2304897Y2020011D01*
X2308961Y2006396D01*
X2314702Y1993392D01*
X2322068Y1981250D01*
X2330907Y1970125D01*
X2341118Y1960270D01*
X2352497Y1951786D01*
X2364892Y1944776D01*
X2378049Y1939442D01*
X2391816Y1935835D01*
G37*
G36*
X4691888Y1934057D02*
G01*
X4706112Y1934057D01*
X4720183Y1935835D01*
X4733950Y1939442D01*
X4747107Y1944776D01*
X4759502Y1951786D01*
X4770882Y1960270D01*
X4781092Y1970125D01*
X4789932Y1981250D01*
X4797298Y1993392D01*
X4803089Y2006396D01*
X4807102Y2020011D01*
X4809388Y2034032D01*
X4809845Y2048256D01*
X4808474Y2062378D01*
X4805324Y2076246D01*
X4800396Y2089607D01*
X4793843Y2102205D01*
X4785715Y2113838D01*
X4776165Y2124354D01*
X4765344Y2133549D01*
X4753406Y2141321D01*
X4740605Y2147468D01*
X4727143Y2151938D01*
X4713173Y2154682D01*
X4699000Y2155596D01*
X4684826Y2154682D01*
X4670856Y2151938D01*
X4657394Y2147468D01*
X4644593Y2141321D01*
X4632655Y2133549D01*
X4621834Y2124354D01*
X4612284Y2113838D01*
X4604156Y2102205D01*
X4597603Y2089607D01*
X4592675Y2076246D01*
X4589526Y2062378D01*
X4588154Y2048256D01*
X4588611Y2034032D01*
X4590897Y2020011D01*
X4594961Y2006396D01*
X4600702Y1993392D01*
X4608068Y1981250D01*
X4616907Y1970125D01*
X4627118Y1960270D01*
X4638497Y1951786D01*
X4650892Y1944776D01*
X4664049Y1939442D01*
X4677816Y1935835D01*
G37*
G36*
X3675887Y1934057D02*
G01*
X3690112Y1934057D01*
X3704183Y1935835D01*
X3717950Y1939442D01*
X3731107Y1944776D01*
X3743502Y1951786D01*
X3754882Y1960270D01*
X3765092Y1970125D01*
X3773932Y1981250D01*
X3781298Y1993392D01*
X3787038Y2006396D01*
X3791102Y2020011D01*
X3793388Y2034032D01*
X3793845Y2048256D01*
X3792474Y2062378D01*
X3789324Y2076246D01*
X3784396Y2089607D01*
X3777843Y2102205D01*
X3769715Y2113838D01*
X3760165Y2124354D01*
X3749344Y2133549D01*
X3737406Y2141321D01*
X3724605Y2147468D01*
X3711143Y2151938D01*
X3697173Y2154682D01*
X3683000Y2155596D01*
X3668826Y2154682D01*
X3654856Y2151938D01*
X3641394Y2147468D01*
X3628593Y2141321D01*
X3616655Y2133549D01*
X3605834Y2124354D01*
X3596284Y2113838D01*
X3588156Y2102205D01*
X3581603Y2089607D01*
X3576675Y2076246D01*
X3573526Y2062378D01*
X3572154Y2048256D01*
X3572611Y2034032D01*
X3574897Y2020011D01*
X3578961Y2006396D01*
X3584701Y1993392D01*
X3592068Y1981250D01*
X3600907Y1970125D01*
X3611118Y1960270D01*
X3622497Y1951786D01*
X3634892Y1944776D01*
X3648049Y1939442D01*
X3661816Y1935835D01*
G37*
G36*
X3167888Y1934057D02*
G01*
X3182112Y1934057D01*
X3196183Y1935835D01*
X3209950Y1939442D01*
X3223107Y1944776D01*
X3235502Y1951786D01*
X3246882Y1960270D01*
X3257092Y1970125D01*
X3265932Y1981250D01*
X3273298Y1993392D01*
X3279038Y2006396D01*
X3283102Y2020011D01*
X3285388Y2034032D01*
X3285845Y2048256D01*
X3284474Y2062378D01*
X3281324Y2076246D01*
X3276396Y2089607D01*
X3269843Y2102205D01*
X3261715Y2113838D01*
X3252165Y2124354D01*
X3241344Y2133549D01*
X3229406Y2141321D01*
X3216605Y2147468D01*
X3203143Y2151938D01*
X3189173Y2154682D01*
X3175000Y2155596D01*
X3160826Y2154682D01*
X3146856Y2151938D01*
X3133394Y2147468D01*
X3120593Y2141321D01*
X3108655Y2133549D01*
X3097834Y2124354D01*
X3088284Y2113838D01*
X3080156Y2102205D01*
X3073603Y2089607D01*
X3068675Y2076246D01*
X3065526Y2062378D01*
X3064154Y2048256D01*
X3064611Y2034032D01*
X3066897Y2020011D01*
X3070961Y2006396D01*
X3076702Y1993392D01*
X3084068Y1981250D01*
X3092907Y1970125D01*
X3103118Y1960270D01*
X3114497Y1951786D01*
X3126892Y1944776D01*
X3140049Y1939442D01*
X3153816Y1935835D01*
G37*
G36*
X4437888Y1934057D02*
G01*
X4452112Y1934057D01*
X4466183Y1935835D01*
X4479950Y1939442D01*
X4493107Y1944776D01*
X4505502Y1951786D01*
X4516882Y1960270D01*
X4527092Y1970125D01*
X4535932Y1981250D01*
X4543298Y1993392D01*
X4549089Y2006396D01*
X4553102Y2020011D01*
X4555388Y2034032D01*
X4555845Y2048256D01*
X4554474Y2062378D01*
X4551324Y2076246D01*
X4546396Y2089607D01*
X4539843Y2102205D01*
X4531715Y2113838D01*
X4522165Y2124354D01*
X4511344Y2133549D01*
X4499406Y2141321D01*
X4486605Y2147468D01*
X4473143Y2151938D01*
X4459173Y2154682D01*
X4445000Y2155596D01*
X4430826Y2154682D01*
X4416856Y2151938D01*
X4403394Y2147468D01*
X4390593Y2141321D01*
X4378655Y2133549D01*
X4367834Y2124354D01*
X4358284Y2113838D01*
X4350156Y2102205D01*
X4343603Y2089607D01*
X4338675Y2076246D01*
X4335526Y2062378D01*
X4334154Y2048256D01*
X4334611Y2034032D01*
X4336897Y2020011D01*
X4340961Y2006396D01*
X4346702Y1993392D01*
X4354068Y1981250D01*
X4362907Y1970125D01*
X4373118Y1960270D01*
X4384497Y1951786D01*
X4396892Y1944776D01*
X4410049Y1939442D01*
X4423816Y1935835D01*
G37*
G36*
X3421887Y1934057D02*
G01*
X3436112Y1934057D01*
X3450183Y1935835D01*
X3463950Y1939442D01*
X3477107Y1944776D01*
X3489502Y1951786D01*
X3500882Y1960270D01*
X3511092Y1970125D01*
X3519932Y1981250D01*
X3527298Y1993392D01*
X3533038Y2006396D01*
X3537102Y2020011D01*
X3539388Y2034032D01*
X3539845Y2048256D01*
X3538474Y2062378D01*
X3535324Y2076246D01*
X3530396Y2089607D01*
X3523843Y2102205D01*
X3515715Y2113838D01*
X3506165Y2124354D01*
X3495344Y2133549D01*
X3483406Y2141321D01*
X3470605Y2147468D01*
X3457143Y2151938D01*
X3443173Y2154682D01*
X3429000Y2155596D01*
X3414826Y2154682D01*
X3400856Y2151938D01*
X3387394Y2147468D01*
X3374593Y2141321D01*
X3362655Y2133549D01*
X3351834Y2124354D01*
X3342284Y2113838D01*
X3334156Y2102205D01*
X3327603Y2089607D01*
X3322675Y2076246D01*
X3319526Y2062378D01*
X3318154Y2048256D01*
X3318611Y2034032D01*
X3320897Y2020011D01*
X3324961Y2006396D01*
X3330701Y1993392D01*
X3338068Y1981250D01*
X3346907Y1970125D01*
X3357118Y1960270D01*
X3368497Y1951786D01*
X3380892Y1944776D01*
X3394049Y1939442D01*
X3407816Y1935835D01*
G37*
G36*
X4945888Y1934057D02*
G01*
X4960112Y1934057D01*
X4974183Y1935835D01*
X4987950Y1939442D01*
X5001107Y1944776D01*
X5013502Y1951786D01*
X5024882Y1960270D01*
X5035092Y1970125D01*
X5043932Y1981250D01*
X5051298Y1993392D01*
X5057089Y2006396D01*
X5061102Y2020011D01*
X5063388Y2034032D01*
X5063845Y2048256D01*
X5062474Y2062378D01*
X5059324Y2076246D01*
X5054396Y2089607D01*
X5047843Y2102205D01*
X5039715Y2113838D01*
X5030165Y2124354D01*
X5019344Y2133549D01*
X5007406Y2141321D01*
X4994605Y2147468D01*
X4981143Y2151938D01*
X4967173Y2154682D01*
X4953000Y2155596D01*
X4938826Y2154682D01*
X4924856Y2151938D01*
X4911394Y2147468D01*
X4898593Y2141321D01*
X4886655Y2133549D01*
X4875834Y2124354D01*
X4866284Y2113838D01*
X4858156Y2102205D01*
X4851603Y2089607D01*
X4846675Y2076246D01*
X4843526Y2062378D01*
X4842154Y2048256D01*
X4842611Y2034032D01*
X4844897Y2020011D01*
X4848961Y2006396D01*
X4854702Y1993392D01*
X4862068Y1981250D01*
X4870907Y1970125D01*
X4881118Y1960270D01*
X4892497Y1951786D01*
X4904892Y1944776D01*
X4918049Y1939442D01*
X4931816Y1935835D01*
G37*
G36*
X2913888Y1934057D02*
G01*
X2928112Y1934057D01*
X2942183Y1935835D01*
X2955950Y1939442D01*
X2969107Y1944776D01*
X2981502Y1951786D01*
X2992882Y1960270D01*
X3003092Y1970125D01*
X3011932Y1981250D01*
X3019298Y1993392D01*
X3025038Y2006396D01*
X3029102Y2020011D01*
X3031388Y2034032D01*
X3031845Y2048256D01*
X3030474Y2062378D01*
X3027324Y2076246D01*
X3022396Y2089607D01*
X3015843Y2102205D01*
X3007715Y2113838D01*
X2998165Y2124354D01*
X2987344Y2133549D01*
X2975406Y2141321D01*
X2962605Y2147468D01*
X2949143Y2151938D01*
X2935173Y2154682D01*
X2921000Y2155596D01*
X2906826Y2154682D01*
X2892856Y2151938D01*
X2879394Y2147468D01*
X2866593Y2141321D01*
X2854655Y2133549D01*
X2843834Y2124354D01*
X2834284Y2113838D01*
X2826156Y2102205D01*
X2819603Y2089607D01*
X2814675Y2076246D01*
X2811526Y2062378D01*
X2810154Y2048256D01*
X2810611Y2034032D01*
X2812897Y2020011D01*
X2816961Y2006396D01*
X2822702Y1993392D01*
X2830068Y1981250D01*
X2838907Y1970125D01*
X2849118Y1960270D01*
X2860497Y1951786D01*
X2872892Y1944776D01*
X2886049Y1939442D01*
X2899816Y1935835D01*
G37*
G36*
X5453888Y1934057D02*
G01*
X5468112Y1934057D01*
X5482183Y1935835D01*
X5495950Y1939442D01*
X5509107Y1944776D01*
X5521502Y1951786D01*
X5532882Y1960270D01*
X5543092Y1970125D01*
X5551932Y1981250D01*
X5559298Y1993392D01*
X5565089Y2006396D01*
X5569102Y2020011D01*
X5571388Y2034032D01*
X5571845Y2048256D01*
X5570474Y2062378D01*
X5567324Y2076246D01*
X5562396Y2089607D01*
X5555843Y2102205D01*
X5547715Y2113838D01*
X5538165Y2124354D01*
X5527344Y2133549D01*
X5515406Y2141321D01*
X5502605Y2147468D01*
X5489143Y2151938D01*
X5475173Y2154682D01*
X5461000Y2155596D01*
X5446826Y2154682D01*
X5432856Y2151938D01*
X5419394Y2147468D01*
X5406593Y2141321D01*
X5394655Y2133549D01*
X5383834Y2124354D01*
X5374284Y2113838D01*
X5366156Y2102205D01*
X5359603Y2089607D01*
X5354675Y2076246D01*
X5351526Y2062378D01*
X5350154Y2048256D01*
X5350611Y2034032D01*
X5352897Y2020011D01*
X5356961Y2006396D01*
X5362702Y1993392D01*
X5370068Y1981250D01*
X5378907Y1970125D01*
X5389118Y1960270D01*
X5400497Y1951786D01*
X5412892Y1944776D01*
X5426049Y1939442D01*
X5439816Y1935835D01*
G37*
G36*
X5194300Y3712768D02*
G01*
X5194300Y3810000D01*
X5096967Y3810000D01*
X5098897Y3798011D01*
X5102961Y3784396D01*
X5108702Y3771392D01*
X5116068Y3759250D01*
X5124907Y3748125D01*
X5135118Y3738270D01*
X5146497Y3729786D01*
X5158892Y3722776D01*
X5172049Y3717442D01*
X5185816Y3713835D01*
G37*
G36*
X2679700Y1934768D02*
G01*
X2688183Y1935835D01*
X2701950Y1939442D01*
X2715107Y1944776D01*
X2727502Y1951786D01*
X2738882Y1960270D01*
X2749092Y1970125D01*
X2757932Y1981250D01*
X2765298Y1993392D01*
X2771038Y2006396D01*
X2775102Y2020011D01*
X2777032Y2032000D01*
X2679700Y2032000D01*
G37*
G36*
X3949700Y1934768D02*
G01*
X3958183Y1935835D01*
X3971950Y1939442D01*
X3985107Y1944776D01*
X3997502Y1951786D01*
X4008882Y1960270D01*
X4019092Y1970125D01*
X4027932Y1981250D01*
X4035298Y1993392D01*
X4041038Y2006396D01*
X4045102Y2020011D01*
X4047032Y2032000D01*
X3949700Y2032000D01*
G37*
G36*
X3924300Y1934768D02*
G01*
X3924300Y2032000D01*
X3826967Y2032000D01*
X3828897Y2020011D01*
X3832961Y2006396D01*
X3838701Y1993392D01*
X3846068Y1981250D01*
X3854907Y1970125D01*
X3865118Y1960270D01*
X3876497Y1951786D01*
X3888892Y1944776D01*
X3902049Y1939442D01*
X3915816Y1935835D01*
G37*
G36*
X5194300Y1934768D02*
G01*
X5194300Y2032000D01*
X5096967Y2032000D01*
X5098897Y2020011D01*
X5102961Y2006396D01*
X5108702Y1993392D01*
X5116068Y1981250D01*
X5124907Y1970125D01*
X5135118Y1960270D01*
X5146497Y1951786D01*
X5158892Y1944776D01*
X5172049Y1939442D01*
X5185816Y1935835D01*
G37*
G36*
X2654300Y1934768D02*
G01*
X2654300Y2032000D01*
X2556967Y2032000D01*
X2558897Y2020011D01*
X2562961Y2006396D01*
X2568702Y1993392D01*
X2576068Y1981250D01*
X2584907Y1970125D01*
X2595118Y1960270D01*
X2606497Y1951786D01*
X2618892Y1944776D01*
X2632049Y1939442D01*
X2645816Y1935835D01*
G37*
G36*
X5219700Y1934768D02*
G01*
X5228183Y1935835D01*
X5241950Y1939442D01*
X5255107Y1944776D01*
X5267502Y1951786D01*
X5278882Y1960270D01*
X5289092Y1970125D01*
X5297932Y1981250D01*
X5305298Y1993392D01*
X5311089Y2006396D01*
X5315102Y2020011D01*
X5317032Y2032000D01*
X5219700Y2032000D01*
G37*
G36*
X1384300Y1934768D02*
G01*
X1384300Y2032000D01*
X1286967Y2032000D01*
X1288897Y2020011D01*
X1292961Y2006396D01*
X1298702Y1993392D01*
X1306068Y1981250D01*
X1314907Y1970125D01*
X1325118Y1960270D01*
X1336497Y1951786D01*
X1348892Y1944776D01*
X1362049Y1939442D01*
X1375816Y1935835D01*
G37*
G36*
X1409700Y1934768D02*
G01*
X1418183Y1935835D01*
X1431950Y1939442D01*
X1445107Y1944776D01*
X1457502Y1951786D01*
X1468882Y1960270D01*
X1479092Y1970125D01*
X1487932Y1981250D01*
X1495298Y1993392D01*
X1501089Y2006396D01*
X1505102Y2020011D01*
X1507032Y2032000D01*
X1409700Y2032000D01*
G37*
G36*
X3949700Y3712768D02*
G01*
X3958183Y3713835D01*
X3971950Y3717442D01*
X3985107Y3722776D01*
X3997502Y3729786D01*
X4008882Y3738270D01*
X4019092Y3748125D01*
X4027932Y3759250D01*
X4035298Y3771392D01*
X4041038Y3784396D01*
X4045102Y3798011D01*
X4047032Y3810000D01*
X3949700Y3810000D01*
G37*
G36*
X1409700Y2057400D02*
G01*
X1506931Y2057400D01*
X1506474Y2062378D01*
X1503324Y2076246D01*
X1498396Y2089607D01*
X1491843Y2102205D01*
X1483715Y2113838D01*
X1474165Y2124354D01*
X1463344Y2133549D01*
X1451406Y2141321D01*
X1438605Y2147468D01*
X1425143Y2151938D01*
X1411173Y2154682D01*
X1409700Y2154783D01*
G37*
G36*
X1287068Y2057400D02*
G01*
X1384300Y2057400D01*
X1384300Y2154783D01*
X1382826Y2154682D01*
X1368856Y2151938D01*
X1355394Y2147468D01*
X1342593Y2141321D01*
X1330655Y2133549D01*
X1319834Y2124354D01*
X1310284Y2113838D01*
X1302156Y2102205D01*
X1295603Y2089607D01*
X1290675Y2076246D01*
X1287526Y2062378D01*
G37*
G36*
X3949700Y2057400D02*
G01*
X4046931Y2057400D01*
X4046474Y2062378D01*
X4043324Y2076246D01*
X4038396Y2089607D01*
X4031843Y2102205D01*
X4023715Y2113838D01*
X4014165Y2124354D01*
X4003344Y2133549D01*
X3991406Y2141321D01*
X3978605Y2147468D01*
X3965143Y2151938D01*
X3951173Y2154682D01*
X3949700Y2154783D01*
G37*
G36*
X3827068Y2057400D02*
G01*
X3924300Y2057400D01*
X3924300Y2154783D01*
X3922826Y2154682D01*
X3908856Y2151938D01*
X3895394Y2147468D01*
X3882593Y2141321D01*
X3870655Y2133549D01*
X3859834Y2124354D01*
X3850284Y2113838D01*
X3842156Y2102205D01*
X3835603Y2089607D01*
X3830675Y2076246D01*
X3827526Y2062378D01*
G37*
G36*
X2557068Y2057400D02*
G01*
X2654300Y2057400D01*
X2654300Y2154783D01*
X2652826Y2154682D01*
X2638856Y2151938D01*
X2625394Y2147468D01*
X2612593Y2141321D01*
X2600655Y2133549D01*
X2589834Y2124354D01*
X2580284Y2113838D01*
X2572156Y2102205D01*
X2565603Y2089607D01*
X2560675Y2076246D01*
X2557526Y2062378D01*
G37*
G36*
X2679700Y2057400D02*
G01*
X2776931Y2057400D01*
X2776474Y2062378D01*
X2773324Y2076246D01*
X2768396Y2089607D01*
X2761843Y2102205D01*
X2753715Y2113838D01*
X2744165Y2124354D01*
X2733344Y2133549D01*
X2721406Y2141321D01*
X2708605Y2147468D01*
X2695143Y2151938D01*
X2681173Y2154682D01*
X2679700Y2154783D01*
G37*
G36*
X5097068Y2057400D02*
G01*
X5194300Y2057400D01*
X5194300Y2154783D01*
X5192826Y2154682D01*
X5178856Y2151938D01*
X5165394Y2147468D01*
X5152593Y2141321D01*
X5140655Y2133549D01*
X5129834Y2124354D01*
X5120284Y2113838D01*
X5112156Y2102205D01*
X5105603Y2089607D01*
X5100675Y2076246D01*
X5097526Y2062378D01*
G37*
G36*
X5219700Y2057400D02*
G01*
X5316931Y2057400D01*
X5316474Y2062378D01*
X5313324Y2076246D01*
X5308396Y2089607D01*
X5301843Y2102205D01*
X5293715Y2113838D01*
X5284165Y2124354D01*
X5273344Y2133549D01*
X5261406Y2141321D01*
X5248605Y2147468D01*
X5235143Y2151938D01*
X5221173Y2154682D01*
X5219700Y2154783D01*
G37*
G36*
X2913888Y3712057D02*
G01*
X2928112Y3712057D01*
X2942183Y3713835D01*
X2955950Y3717442D01*
X2969107Y3722776D01*
X2981502Y3729786D01*
X2992882Y3738270D01*
X3003092Y3748125D01*
X3011932Y3759250D01*
X3019298Y3771392D01*
X3025038Y3784396D01*
X3029102Y3798011D01*
X3031388Y3812032D01*
X3031845Y3826256D01*
X3030474Y3840378D01*
X3027324Y3854246D01*
X3022396Y3867607D01*
X3015843Y3880205D01*
X3007715Y3891838D01*
X2998165Y3902354D01*
X2987344Y3911549D01*
X2975406Y3919321D01*
X2962605Y3925468D01*
X2949143Y3929938D01*
X2935173Y3932682D01*
X2921000Y3933596D01*
X2906826Y3932682D01*
X2892856Y3929938D01*
X2879394Y3925468D01*
X2866593Y3919321D01*
X2854655Y3911549D01*
X2843834Y3902354D01*
X2834284Y3891838D01*
X2826156Y3880205D01*
X2819603Y3867607D01*
X2814675Y3854246D01*
X2811526Y3840378D01*
X2810154Y3826256D01*
X2810611Y3812032D01*
X2812897Y3798011D01*
X2816961Y3784396D01*
X2822702Y3771392D01*
X2830068Y3759250D01*
X2838907Y3748125D01*
X2849118Y3738270D01*
X2860497Y3729786D01*
X2872892Y3722776D01*
X2886049Y3717442D01*
X2899816Y3713835D01*
G37*
G36*
X432206Y2355342D02*
G01*
X4698593Y2355342D01*
X4708499Y2356154D01*
X4717694Y2358491D01*
X4726432Y2362301D01*
X4734407Y2367534D01*
X4741418Y2373985D01*
X4747260Y2381504D01*
X4751781Y2389835D01*
X4754880Y2398877D01*
X4756404Y2408224D01*
X4756404Y2417775D01*
X4754880Y2427122D01*
X4751781Y2436164D01*
X4747260Y2444496D01*
X4741418Y2452014D01*
X4734407Y2458466D01*
X4726432Y2463698D01*
X4717694Y2467508D01*
X4708499Y2469845D01*
X4698593Y2470658D01*
X432206Y2470658D01*
X422300Y2469845D01*
X413105Y2467508D01*
X404368Y2463698D01*
X396392Y2458466D01*
X389382Y2452014D01*
X383540Y2444496D01*
X379018Y2436164D01*
X375920Y2427122D01*
X374396Y2417775D01*
X374396Y2408224D01*
X375920Y2398877D01*
X379018Y2389835D01*
X383540Y2381504D01*
X389382Y2373985D01*
X396392Y2367534D01*
X404368Y2362301D01*
X413105Y2358491D01*
X422300Y2356154D01*
G37*
G36*
X885444Y2568854D02*
G01*
X899668Y2569311D01*
X913688Y2571597D01*
X927303Y2575610D01*
X940308Y2581402D01*
X952449Y2588768D01*
X963574Y2597607D01*
X973429Y2607818D01*
X981913Y2619197D01*
X988923Y2631592D01*
X994257Y2644749D01*
X997864Y2658516D01*
X999642Y2672588D01*
X999642Y2686812D01*
X997864Y2700883D01*
X994257Y2714650D01*
X988923Y2727807D01*
X981913Y2740202D01*
X973429Y2751582D01*
X963574Y2761792D01*
X952449Y2770632D01*
X940308Y2777998D01*
X927303Y2783738D01*
X913688Y2787802D01*
X899668Y2790088D01*
X885444Y2790545D01*
X871321Y2789174D01*
X857453Y2786024D01*
X844092Y2781096D01*
X831494Y2774543D01*
X819861Y2766415D01*
X809345Y2756865D01*
X800150Y2746044D01*
X792378Y2734106D01*
X787552Y2724048D01*
X785317Y2721000D01*
X782116Y2719019D01*
X778408Y2718308D01*
X616508Y2718308D01*
X612597Y2719070D01*
X609295Y2721305D01*
X607720Y2722880D01*
X599694Y2728518D01*
X590753Y2732633D01*
X581304Y2735173D01*
X571500Y2736037D01*
X561695Y2735173D01*
X552246Y2732633D01*
X543306Y2728518D01*
X535279Y2722880D01*
X528320Y2715920D01*
X522681Y2707894D01*
X518566Y2698953D01*
X516026Y2689504D01*
X515162Y2679700D01*
X516026Y2669895D01*
X518566Y2660446D01*
X522681Y2651506D01*
X528320Y2643479D01*
X535279Y2636520D01*
X543306Y2630881D01*
X552246Y2626766D01*
X561695Y2624226D01*
X571500Y2623362D01*
X581304Y2624226D01*
X590753Y2626766D01*
X599694Y2630881D01*
X607720Y2636520D01*
X609295Y2638094D01*
X612597Y2640330D01*
X616508Y2641092D01*
X778408Y2641092D01*
X782116Y2640380D01*
X785317Y2638399D01*
X787552Y2635351D01*
X792378Y2625293D01*
X800150Y2613355D01*
X809345Y2602534D01*
X819861Y2592984D01*
X831494Y2584856D01*
X844092Y2578303D01*
X857453Y2573375D01*
X871321Y2570226D01*
G37*
G36*
X4945888Y3712057D02*
G01*
X4960112Y3712057D01*
X4974183Y3713835D01*
X4987950Y3717442D01*
X5001107Y3722776D01*
X5013502Y3729786D01*
X5024882Y3738270D01*
X5035092Y3748125D01*
X5043932Y3759250D01*
X5051298Y3771392D01*
X5057089Y3784396D01*
X5061102Y3798011D01*
X5063388Y3812032D01*
X5063845Y3826256D01*
X5062474Y3840378D01*
X5059324Y3854246D01*
X5054396Y3867607D01*
X5047843Y3880205D01*
X5039715Y3891838D01*
X5030165Y3902354D01*
X5019344Y3911549D01*
X5007406Y3919321D01*
X4994605Y3925468D01*
X4981143Y3929938D01*
X4967173Y3932682D01*
X4953000Y3933596D01*
X4938826Y3932682D01*
X4924856Y3929938D01*
X4911394Y3925468D01*
X4898593Y3919321D01*
X4886655Y3911549D01*
X4875834Y3902354D01*
X4866284Y3891838D01*
X4858156Y3880205D01*
X4851603Y3867607D01*
X4846675Y3854246D01*
X4843526Y3840378D01*
X4842154Y3826256D01*
X4842611Y3812032D01*
X4844897Y3798011D01*
X4848961Y3784396D01*
X4854702Y3771392D01*
X4862068Y3759250D01*
X4870907Y3748125D01*
X4881118Y3738270D01*
X4892497Y3729786D01*
X4904892Y3722776D01*
X4918049Y3717442D01*
X4931816Y3713835D01*
G37*
G36*
X2405888Y3712057D02*
G01*
X2420112Y3712057D01*
X2434183Y3713835D01*
X2447950Y3717442D01*
X2461107Y3722776D01*
X2473502Y3729786D01*
X2484882Y3738270D01*
X2495092Y3748125D01*
X2503932Y3759250D01*
X2511298Y3771392D01*
X2517038Y3784396D01*
X2521102Y3798011D01*
X2523388Y3812032D01*
X2523845Y3826256D01*
X2522474Y3840378D01*
X2519324Y3854246D01*
X2514396Y3867607D01*
X2507843Y3880205D01*
X2499715Y3891838D01*
X2490165Y3902354D01*
X2479344Y3911549D01*
X2467406Y3919321D01*
X2454605Y3925468D01*
X2441143Y3929938D01*
X2427173Y3932682D01*
X2413000Y3933596D01*
X2398826Y3932682D01*
X2384856Y3929938D01*
X2371394Y3925468D01*
X2358593Y3919321D01*
X2346655Y3911549D01*
X2335834Y3902354D01*
X2326284Y3891838D01*
X2318156Y3880205D01*
X2311603Y3867607D01*
X2306675Y3854246D01*
X2303526Y3840378D01*
X2302154Y3826256D01*
X2302611Y3812032D01*
X2304897Y3798011D01*
X2308961Y3784396D01*
X2314702Y3771392D01*
X2322068Y3759250D01*
X2330907Y3748125D01*
X2341118Y3738270D01*
X2352497Y3729786D01*
X2364892Y3722776D01*
X2378049Y3717442D01*
X2391816Y3713835D01*
G37*
G36*
X881887Y2823057D02*
G01*
X896112Y2823057D01*
X910183Y2824835D01*
X923950Y2828442D01*
X937107Y2833776D01*
X949502Y2840786D01*
X960882Y2849270D01*
X971092Y2859125D01*
X979932Y2870250D01*
X987298Y2882392D01*
X993089Y2895396D01*
X997102Y2909011D01*
X999388Y2923032D01*
X999845Y2937256D01*
X998474Y2951378D01*
X995324Y2965246D01*
X990396Y2978607D01*
X983843Y2991205D01*
X975715Y3002838D01*
X966165Y3013354D01*
X955344Y3022549D01*
X943406Y3030321D01*
X930605Y3036468D01*
X917143Y3040938D01*
X903173Y3043682D01*
X889000Y3044596D01*
X874826Y3043682D01*
X860856Y3040938D01*
X847394Y3036468D01*
X834593Y3030321D01*
X822655Y3022549D01*
X811834Y3013354D01*
X802284Y3002838D01*
X794156Y2991205D01*
X787603Y2978607D01*
X782675Y2965246D01*
X779526Y2951378D01*
X778154Y2937256D01*
X778611Y2923032D01*
X780897Y2909011D01*
X784961Y2895396D01*
X790702Y2882392D01*
X798068Y2870250D01*
X806907Y2859125D01*
X817118Y2849270D01*
X828497Y2840786D01*
X840892Y2833776D01*
X854049Y2828442D01*
X867816Y2824835D01*
G37*
G36*
X885444Y3076854D02*
G01*
X899668Y3077311D01*
X913688Y3079597D01*
X927303Y3083610D01*
X940308Y3089402D01*
X952449Y3096768D01*
X963574Y3105607D01*
X973429Y3115818D01*
X981913Y3127197D01*
X988923Y3139592D01*
X994257Y3152749D01*
X997864Y3166516D01*
X999642Y3180588D01*
X999642Y3194812D01*
X997864Y3208883D01*
X994257Y3222650D01*
X988923Y3235807D01*
X981913Y3248202D01*
X973429Y3259582D01*
X963574Y3269792D01*
X952449Y3278632D01*
X940308Y3285998D01*
X927303Y3291738D01*
X913688Y3295802D01*
X899668Y3298088D01*
X885444Y3298545D01*
X871321Y3297174D01*
X857453Y3294024D01*
X844092Y3289096D01*
X831494Y3282543D01*
X819861Y3274415D01*
X809345Y3264865D01*
X800150Y3254044D01*
X792378Y3242106D01*
X787552Y3232048D01*
X785317Y3229000D01*
X782116Y3227019D01*
X778408Y3226308D01*
X356412Y3226308D01*
X352501Y3227070D01*
X349199Y3229305D01*
X347624Y3230880D01*
X339598Y3236518D01*
X330657Y3240633D01*
X321208Y3243173D01*
X311404Y3244037D01*
X301599Y3243173D01*
X292150Y3240633D01*
X283210Y3236518D01*
X275183Y3230880D01*
X268224Y3223920D01*
X262585Y3215894D01*
X258470Y3206953D01*
X255930Y3197504D01*
X255066Y3187700D01*
X255930Y3177895D01*
X258470Y3168446D01*
X262585Y3159506D01*
X268224Y3151479D01*
X275183Y3144520D01*
X283210Y3138881D01*
X292150Y3134766D01*
X301599Y3132226D01*
X311404Y3131362D01*
X321208Y3132226D01*
X330657Y3134766D01*
X339598Y3138881D01*
X347624Y3144520D01*
X349199Y3146094D01*
X352501Y3148330D01*
X356412Y3149092D01*
X778408Y3149092D01*
X782116Y3148380D01*
X785317Y3146399D01*
X787552Y3143351D01*
X792378Y3133293D01*
X800150Y3121355D01*
X809345Y3110534D01*
X819861Y3100984D01*
X831494Y3092856D01*
X844092Y3086303D01*
X857453Y3081375D01*
X871321Y3078226D01*
G37*
G36*
X4691888Y3712057D02*
G01*
X4706112Y3712057D01*
X4720183Y3713835D01*
X4733950Y3717442D01*
X4747107Y3722776D01*
X4759502Y3729786D01*
X4770882Y3738270D01*
X4781092Y3748125D01*
X4789932Y3759250D01*
X4797298Y3771392D01*
X4803089Y3784396D01*
X4807102Y3798011D01*
X4809388Y3812032D01*
X4809845Y3826256D01*
X4808474Y3840378D01*
X4805324Y3854246D01*
X4800396Y3867607D01*
X4793843Y3880205D01*
X4785715Y3891838D01*
X4776165Y3902354D01*
X4765344Y3911549D01*
X4753406Y3919321D01*
X4740605Y3925468D01*
X4727143Y3929938D01*
X4713173Y3932682D01*
X4699000Y3933596D01*
X4684826Y3932682D01*
X4670856Y3929938D01*
X4657394Y3925468D01*
X4644593Y3919321D01*
X4632655Y3911549D01*
X4621834Y3902354D01*
X4612284Y3891838D01*
X4604156Y3880205D01*
X4597603Y3867607D01*
X4592675Y3854246D01*
X4589526Y3840378D01*
X4588154Y3826256D01*
X4588611Y3812032D01*
X4590897Y3798011D01*
X4594961Y3784396D01*
X4600702Y3771392D01*
X4608068Y3759250D01*
X4616907Y3748125D01*
X4627118Y3738270D01*
X4638497Y3729786D01*
X4650892Y3722776D01*
X4664049Y3717442D01*
X4677816Y3713835D01*
G37*
G36*
X4437888Y3712057D02*
G01*
X4452112Y3712057D01*
X4466183Y3713835D01*
X4479950Y3717442D01*
X4493107Y3722776D01*
X4505502Y3729786D01*
X4516882Y3738270D01*
X4527092Y3748125D01*
X4535932Y3759250D01*
X4543298Y3771392D01*
X4549089Y3784396D01*
X4553102Y3798011D01*
X4555388Y3812032D01*
X4555845Y3826256D01*
X4554474Y3840378D01*
X4551324Y3854246D01*
X4546396Y3867607D01*
X4539843Y3880205D01*
X4531715Y3891838D01*
X4522165Y3902354D01*
X4511344Y3911549D01*
X4499406Y3919321D01*
X4486605Y3925468D01*
X4473143Y3929938D01*
X4459173Y3932682D01*
X4445000Y3933596D01*
X4430826Y3932682D01*
X4416856Y3929938D01*
X4403394Y3925468D01*
X4390593Y3919321D01*
X4378655Y3911549D01*
X4367834Y3902354D01*
X4358284Y3891838D01*
X4350156Y3880205D01*
X4343603Y3867607D01*
X4338675Y3854246D01*
X4335526Y3840378D01*
X4334154Y3826256D01*
X4334611Y3812032D01*
X4336897Y3798011D01*
X4340961Y3784396D01*
X4346702Y3771392D01*
X4354068Y3759250D01*
X4362907Y3748125D01*
X4373118Y3738270D01*
X4384497Y3729786D01*
X4396892Y3722776D01*
X4410049Y3717442D01*
X4423816Y3713835D01*
G37*
G36*
X673506Y3371342D02*
G01*
X5206593Y3371342D01*
X5216499Y3372154D01*
X5225694Y3374491D01*
X5234432Y3378301D01*
X5242407Y3383534D01*
X5249418Y3389985D01*
X5255260Y3397504D01*
X5259781Y3405835D01*
X5262880Y3414877D01*
X5264404Y3424224D01*
X5264404Y3433775D01*
X5262880Y3443122D01*
X5259781Y3452164D01*
X5255260Y3460496D01*
X5249418Y3468014D01*
X5242407Y3474465D01*
X5234432Y3479698D01*
X5225694Y3483508D01*
X5216499Y3485845D01*
X5206593Y3486658D01*
X673506Y3486658D01*
X663600Y3485845D01*
X654405Y3483508D01*
X645668Y3479698D01*
X637692Y3474465D01*
X630682Y3468014D01*
X624840Y3460496D01*
X620318Y3452164D01*
X617220Y3443122D01*
X615696Y3433775D01*
X615696Y3424224D01*
X617220Y3414877D01*
X620318Y3405835D01*
X624840Y3397504D01*
X630682Y3389985D01*
X637692Y3383534D01*
X645668Y3378301D01*
X654405Y3374491D01*
X663600Y3372154D01*
G37*
G36*
X5473700Y105562D02*
G01*
X5478322Y105664D01*
X5501284Y108051D01*
X5523992Y112369D01*
X5546242Y118618D01*
X5567934Y126644D01*
X5588812Y136499D01*
X5608828Y148031D01*
X5627827Y161239D01*
X5645607Y175971D01*
X5662117Y192125D01*
X5677204Y209600D01*
X5690819Y228295D01*
X5702757Y248107D01*
X5713018Y268782D01*
X5721553Y290271D01*
X5728208Y312369D01*
X5733034Y334975D01*
X5735929Y357936D01*
X5736336Y368300D01*
X5473700Y368300D01*
G37*
G36*
X3167888Y3712057D02*
G01*
X3182112Y3712057D01*
X3196183Y3713835D01*
X3209950Y3717442D01*
X3223107Y3722776D01*
X3235502Y3729786D01*
X3246882Y3738270D01*
X3257092Y3748125D01*
X3265932Y3759250D01*
X3273298Y3771392D01*
X3279038Y3784396D01*
X3283102Y3798011D01*
X3285388Y3812032D01*
X3285845Y3826256D01*
X3284474Y3840378D01*
X3281324Y3854246D01*
X3276396Y3867607D01*
X3269843Y3880205D01*
X3261715Y3891838D01*
X3252165Y3902354D01*
X3241344Y3911549D01*
X3229406Y3919321D01*
X3216605Y3925468D01*
X3203143Y3929938D01*
X3189173Y3932682D01*
X3175000Y3933596D01*
X3160826Y3932682D01*
X3146856Y3929938D01*
X3133394Y3925468D01*
X3120593Y3919321D01*
X3108655Y3911549D01*
X3097834Y3902354D01*
X3088284Y3891838D01*
X3080156Y3880205D01*
X3073603Y3867607D01*
X3068675Y3854246D01*
X3065526Y3840378D01*
X3064154Y3826256D01*
X3064611Y3812032D01*
X3066897Y3798011D01*
X3070961Y3784396D01*
X3076702Y3771392D01*
X3084068Y3759250D01*
X3092907Y3748125D01*
X3103118Y3738270D01*
X3114497Y3729786D01*
X3126892Y3722776D01*
X3140049Y3717442D01*
X3153816Y3713835D01*
G37*
G36*
X2540000Y3626662D02*
G01*
X2549804Y3627526D01*
X2559253Y3630066D01*
X2568194Y3634181D01*
X2576220Y3639820D01*
X2583180Y3646779D01*
X2588818Y3654806D01*
X2592933Y3663746D01*
X2595473Y3673195D01*
X2596337Y3683000D01*
X2595473Y3692804D01*
X2592933Y3702253D01*
X2588818Y3711194D01*
X2583180Y3719220D01*
X2576220Y3726179D01*
X2568194Y3731818D01*
X2559253Y3735933D01*
X2549804Y3738473D01*
X2540000Y3739337D01*
X2530195Y3738473D01*
X2520746Y3735933D01*
X2511806Y3731818D01*
X2503779Y3726179D01*
X2496820Y3719220D01*
X2491181Y3711194D01*
X2487066Y3702253D01*
X2484526Y3692804D01*
X2483662Y3683000D01*
X2484526Y3673195D01*
X2487066Y3663746D01*
X2491181Y3654806D01*
X2496820Y3646779D01*
X2503779Y3639820D01*
X2511806Y3634181D01*
X2520746Y3630066D01*
X2530195Y3627526D01*
G37*
G36*
X3421887Y3712057D02*
G01*
X3436112Y3712057D01*
X3450183Y3713835D01*
X3463950Y3717442D01*
X3477107Y3722776D01*
X3489502Y3729786D01*
X3500882Y3738270D01*
X3511092Y3748125D01*
X3519932Y3759250D01*
X3527298Y3771392D01*
X3533038Y3784396D01*
X3537102Y3798011D01*
X3539388Y3812032D01*
X3539845Y3826256D01*
X3538474Y3840378D01*
X3535324Y3854246D01*
X3530396Y3867607D01*
X3523843Y3880205D01*
X3515715Y3891838D01*
X3506165Y3902354D01*
X3495344Y3911549D01*
X3483406Y3919321D01*
X3470605Y3925468D01*
X3457143Y3929938D01*
X3443173Y3932682D01*
X3429000Y3933596D01*
X3414826Y3932682D01*
X3400856Y3929938D01*
X3387394Y3925468D01*
X3374593Y3919321D01*
X3362655Y3911549D01*
X3351834Y3902354D01*
X3342284Y3891838D01*
X3334156Y3880205D01*
X3327603Y3867607D01*
X3322675Y3854246D01*
X3319526Y3840378D01*
X3318154Y3826256D01*
X3318611Y3812032D01*
X3320897Y3798011D01*
X3324961Y3784396D01*
X3330701Y3771392D01*
X3338068Y3759250D01*
X3346907Y3748125D01*
X3357118Y3738270D01*
X3368497Y3729786D01*
X3380892Y3722776D01*
X3394049Y3717442D01*
X3407816Y3713835D01*
G37*
G36*
X881887Y3712057D02*
G01*
X896112Y3712057D01*
X910183Y3713835D01*
X923950Y3717442D01*
X937107Y3722776D01*
X949502Y3729786D01*
X960882Y3738270D01*
X971092Y3748125D01*
X979932Y3759250D01*
X987298Y3771392D01*
X993089Y3784396D01*
X997102Y3798011D01*
X999388Y3812032D01*
X999845Y3826256D01*
X998474Y3840378D01*
X995324Y3854246D01*
X990396Y3867607D01*
X983843Y3880205D01*
X975715Y3891838D01*
X966165Y3902354D01*
X955344Y3911549D01*
X943406Y3919321D01*
X930605Y3925468D01*
X917143Y3929938D01*
X903173Y3932682D01*
X889000Y3933596D01*
X874826Y3932682D01*
X860856Y3929938D01*
X847394Y3925468D01*
X834593Y3919321D01*
X822655Y3911549D01*
X811834Y3902354D01*
X802284Y3891838D01*
X794156Y3880205D01*
X787603Y3867607D01*
X782675Y3854246D01*
X779526Y3840378D01*
X778154Y3826256D01*
X778611Y3812032D01*
X780897Y3798011D01*
X784961Y3784396D01*
X790702Y3771392D01*
X798068Y3759250D01*
X806907Y3748125D01*
X817118Y3738270D01*
X828497Y3729786D01*
X840892Y3722776D01*
X854049Y3717442D01*
X867816Y3713835D01*
G37*
G36*
X1643888Y3712057D02*
G01*
X1658112Y3712057D01*
X1672183Y3713835D01*
X1685950Y3717442D01*
X1699107Y3722776D01*
X1711502Y3729786D01*
X1722882Y3738270D01*
X1733092Y3748125D01*
X1741932Y3759250D01*
X1749298Y3771392D01*
X1755089Y3784396D01*
X1759102Y3798011D01*
X1761388Y3812032D01*
X1761845Y3826256D01*
X1760474Y3840378D01*
X1757324Y3854246D01*
X1752396Y3867607D01*
X1745843Y3880205D01*
X1737715Y3891838D01*
X1728165Y3902354D01*
X1717344Y3911549D01*
X1705406Y3919321D01*
X1692605Y3925468D01*
X1679143Y3929938D01*
X1665173Y3932682D01*
X1651000Y3933596D01*
X1636826Y3932682D01*
X1622856Y3929938D01*
X1609394Y3925468D01*
X1596593Y3919321D01*
X1584655Y3911549D01*
X1573834Y3902354D01*
X1564284Y3891838D01*
X1556156Y3880205D01*
X1549603Y3867607D01*
X1544675Y3854246D01*
X1541526Y3840378D01*
X1540154Y3826256D01*
X1540611Y3812032D01*
X1542897Y3798011D01*
X1546961Y3784396D01*
X1552702Y3771392D01*
X1560068Y3759250D01*
X1568907Y3748125D01*
X1579118Y3738270D01*
X1590497Y3729786D01*
X1602892Y3722776D01*
X1616049Y3717442D01*
X1629816Y3713835D01*
G37*
G36*
X1135888Y3712057D02*
G01*
X1150112Y3712057D01*
X1164183Y3713835D01*
X1177950Y3717442D01*
X1191107Y3722776D01*
X1203502Y3729786D01*
X1214882Y3738270D01*
X1225092Y3748125D01*
X1233932Y3759250D01*
X1241298Y3771392D01*
X1247089Y3784396D01*
X1251102Y3798011D01*
X1253388Y3812032D01*
X1253845Y3826256D01*
X1252474Y3840378D01*
X1249324Y3854246D01*
X1244396Y3867607D01*
X1237843Y3880205D01*
X1229715Y3891838D01*
X1220165Y3902354D01*
X1209344Y3911549D01*
X1197406Y3919321D01*
X1184605Y3925468D01*
X1171143Y3929938D01*
X1157173Y3932682D01*
X1143000Y3933596D01*
X1128826Y3932682D01*
X1114856Y3929938D01*
X1101394Y3925468D01*
X1088593Y3919321D01*
X1076655Y3911549D01*
X1065834Y3902354D01*
X1056284Y3891838D01*
X1048156Y3880205D01*
X1041603Y3867607D01*
X1036675Y3854246D01*
X1033526Y3840378D01*
X1032154Y3826256D01*
X1032611Y3812032D01*
X1034897Y3798011D01*
X1038961Y3784396D01*
X1044702Y3771392D01*
X1052068Y3759250D01*
X1060907Y3748125D01*
X1071118Y3738270D01*
X1082497Y3729786D01*
X1094892Y3722776D01*
X1108049Y3717442D01*
X1121816Y3713835D01*
G37*
G36*
X1897888Y3712057D02*
G01*
X1912112Y3712057D01*
X1926183Y3713835D01*
X1939950Y3717442D01*
X1953107Y3722776D01*
X1965502Y3729786D01*
X1976882Y3738270D01*
X1987092Y3748125D01*
X1995932Y3759250D01*
X2003298Y3771392D01*
X2009038Y3784396D01*
X2013102Y3798011D01*
X2015388Y3812032D01*
X2015845Y3826256D01*
X2014474Y3840378D01*
X2011324Y3854246D01*
X2006396Y3867607D01*
X1999843Y3880205D01*
X1991715Y3891838D01*
X1982165Y3902354D01*
X1971344Y3911549D01*
X1959406Y3919321D01*
X1946605Y3925468D01*
X1933143Y3929938D01*
X1919173Y3932682D01*
X1905000Y3933596D01*
X1890826Y3932682D01*
X1876856Y3929938D01*
X1863394Y3925468D01*
X1850593Y3919321D01*
X1838655Y3911549D01*
X1827834Y3902354D01*
X1818284Y3891838D01*
X1810156Y3880205D01*
X1803603Y3867607D01*
X1798675Y3854246D01*
X1795525Y3840378D01*
X1794154Y3826256D01*
X1794611Y3812032D01*
X1796897Y3798011D01*
X1800961Y3784396D01*
X1806702Y3771392D01*
X1814068Y3759250D01*
X1822907Y3748125D01*
X1833118Y3738270D01*
X1844497Y3729786D01*
X1856892Y3722776D01*
X1870049Y3717442D01*
X1883816Y3713835D01*
G37*
G36*
X3675887Y3712057D02*
G01*
X3690112Y3712057D01*
X3704183Y3713835D01*
X3717950Y3717442D01*
X3731107Y3722776D01*
X3743502Y3729786D01*
X3754882Y3738270D01*
X3765092Y3748125D01*
X3773932Y3759250D01*
X3781298Y3771392D01*
X3787038Y3784396D01*
X3791102Y3798011D01*
X3793388Y3812032D01*
X3793845Y3826256D01*
X3792474Y3840378D01*
X3789324Y3854246D01*
X3784396Y3867607D01*
X3777843Y3880205D01*
X3769715Y3891838D01*
X3760165Y3902354D01*
X3749344Y3911549D01*
X3737406Y3919321D01*
X3724605Y3925468D01*
X3711143Y3929938D01*
X3697173Y3932682D01*
X3683000Y3933596D01*
X3668826Y3932682D01*
X3654856Y3929938D01*
X3641394Y3925468D01*
X3628593Y3919321D01*
X3616655Y3911549D01*
X3605834Y3902354D01*
X3596284Y3891838D01*
X3588156Y3880205D01*
X3581603Y3867607D01*
X3576675Y3854246D01*
X3573526Y3840378D01*
X3572154Y3826256D01*
X3572611Y3812032D01*
X3574897Y3798011D01*
X3578961Y3784396D01*
X3584701Y3771392D01*
X3592068Y3759250D01*
X3600907Y3748125D01*
X3611118Y3738270D01*
X3622497Y3729786D01*
X3634892Y3722776D01*
X3648049Y3717442D01*
X3661816Y3713835D01*
G37*
G36*
X4183887Y3712057D02*
G01*
X4198112Y3712057D01*
X4212183Y3713835D01*
X4225950Y3717442D01*
X4239107Y3722776D01*
X4251502Y3729786D01*
X4262882Y3738270D01*
X4273092Y3748125D01*
X4281932Y3759250D01*
X4289298Y3771392D01*
X4295038Y3784396D01*
X4299102Y3798011D01*
X4301388Y3812032D01*
X4301845Y3826256D01*
X4300474Y3840378D01*
X4297324Y3854246D01*
X4292396Y3867607D01*
X4285843Y3880205D01*
X4277715Y3891838D01*
X4268165Y3902354D01*
X4257344Y3911549D01*
X4245406Y3919321D01*
X4232605Y3925468D01*
X4219143Y3929938D01*
X4205173Y3932682D01*
X4191000Y3933596D01*
X4176826Y3932682D01*
X4162856Y3929938D01*
X4149394Y3925468D01*
X4136593Y3919321D01*
X4124655Y3911549D01*
X4113834Y3902354D01*
X4104284Y3891838D01*
X4096156Y3880205D01*
X4089603Y3867607D01*
X4084675Y3854246D01*
X4081526Y3840378D01*
X4080154Y3826256D01*
X4080611Y3812032D01*
X4082897Y3798011D01*
X4086961Y3784396D01*
X4092701Y3771392D01*
X4100068Y3759250D01*
X4108907Y3748125D01*
X4119118Y3738270D01*
X4130497Y3729786D01*
X4142892Y3722776D01*
X4156049Y3717442D01*
X4169816Y3713835D01*
G37*
G36*
X2151888Y3712057D02*
G01*
X2166112Y3712057D01*
X2180183Y3713835D01*
X2193950Y3717442D01*
X2207107Y3722776D01*
X2219502Y3729786D01*
X2230882Y3738270D01*
X2241092Y3748125D01*
X2249932Y3759250D01*
X2257298Y3771392D01*
X2263038Y3784396D01*
X2267102Y3798011D01*
X2269388Y3812032D01*
X2269845Y3826256D01*
X2268474Y3840378D01*
X2265324Y3854246D01*
X2260396Y3867607D01*
X2253843Y3880205D01*
X2245715Y3891838D01*
X2236165Y3902354D01*
X2225344Y3911549D01*
X2213406Y3919321D01*
X2200605Y3925468D01*
X2187143Y3929938D01*
X2173173Y3932682D01*
X2159000Y3933596D01*
X2144826Y3932682D01*
X2130856Y3929938D01*
X2117394Y3925468D01*
X2104593Y3919321D01*
X2092655Y3911549D01*
X2081834Y3902354D01*
X2072284Y3891838D01*
X2064156Y3880205D01*
X2057603Y3867607D01*
X2052675Y3854246D01*
X2049525Y3840378D01*
X2048154Y3826256D01*
X2048611Y3812032D01*
X2050897Y3798011D01*
X2054961Y3784396D01*
X2060702Y3771392D01*
X2068068Y3759250D01*
X2076907Y3748125D01*
X2087118Y3738270D01*
X2098497Y3729786D01*
X2110892Y3722776D01*
X2124049Y3717442D01*
X2137816Y3713835D01*
G37*

%LPD*%
D10*
X2739897Y5668010D02*
G01*
X2739897Y5671312D01*
X2736850Y5677662D01*
X2733547Y5680963D01*
X2727197Y5684012D01*
X2714497Y5684012D01*
X2708147Y5680963D01*
X2705100Y5677662D01*
X2701797Y5671312D01*
X2701797Y5664962D01*
X2705100Y5658612D01*
X2711450Y5648960D01*
X2743200Y5617210D01*
X2698750Y5617210D01*
D11*
X2413000Y4191000D02*
G01*
X1905000Y4191000D01*
X1854200Y4241800D01*
X1854200Y4495800D01*
X2921000Y4254500D02*
G01*
X2159000Y4254500D01*
X2108200Y4305300D01*
X2108200Y4495800D01*
X3175000Y4318000D02*
G01*
X2413000Y4318000D01*
X2362200Y4368800D01*
X2362200Y4495800D01*
X2413000Y1587500D02*
G01*
X2109012Y1587500D01*
X1851405Y1329893D01*
X3175000Y1460500D02*
G01*
X2490012Y1460500D01*
X2359406Y1329893D01*
X2921000Y1524000D02*
G01*
X2299512Y1524000D01*
X2105406Y1329893D01*
X5575300Y3683000D02*
G01*
X5715000Y3822700D01*
X5334000Y3619500D02*
G01*
X5461000Y3822700D01*
X2159000Y1651000D02*
G01*
X1918512Y1651000D01*
X1597405Y1329893D01*
D12*
X4385307Y5727700D02*
G01*
X4385307Y5727700D01*
X4826000Y5727700D01*
D13*
X4826000Y5588000D02*
G01*
X5080000Y5588000D01*
X381000Y4953000D02*
G01*
X5080000Y4953000D01*
X5207000Y3429000D02*
G01*
X673100Y3429000D01*
X4699000Y2413000D02*
G01*
X431800Y2413000D01*
D11*
X889000Y2679700D02*
G01*
X571500Y2679700D01*
X889000Y3187700D02*
G01*
X311404Y3187700D01*
X406400Y1955800D02*
G01*
X673100Y1955800D01*
X966825Y825500D02*
G01*
X444500Y825500D01*
X1166825Y762000D02*
G01*
X381000Y762000D01*
X4216400Y596900D02*
G01*
X5003800Y596900D01*
D13*
X63500Y5118100D02*
G01*
X4309094Y5118100D01*
X4826000Y5334000D02*
G01*
X4826000Y5118100D01*
X4309099Y5118100D02*
G01*
X4826000Y5118100D01*
D11*
X3556000Y508000D02*
G01*
X3581400Y508000D01*
X3759200Y330200D01*
D14*
G01*
X999997Y6641998D03*
G01*
X17725999Y6641998D03*
G01*
X1499996Y-13683995D03*
G01*
X17226000Y-13683995D03*
D15*
G01*
X381000Y5461000D03*
G01*
X5461000Y5461000D03*
G01*
X5461000Y381000D03*
G01*
X381000Y381000D03*
D16*
G01*
X2362200Y4495800D03*
G01*
X2108200Y4495800D03*
G01*
X1854200Y4495800D03*
G01*
X1600200Y4495800D03*
G01*
X1346200Y4495800D03*
G01*
X1092200Y4495800D03*
G01*
X838200Y4495800D03*
G01*
X584200Y4495800D03*
D17*
G01*
X889000Y2679700D03*
G01*
X889000Y3187700D03*
G01*
X889000Y2933700D03*
G01*
X889000Y2044700D03*
G01*
X1143000Y2044700D03*
G01*
X1397000Y2044700D03*
G01*
X1651000Y2044700D03*
G01*
X1905000Y2044700D03*
G01*
X2159000Y2044700D03*
G01*
X2413000Y2044700D03*
G01*
X2667000Y2044700D03*
G01*
X2921000Y2044700D03*
G01*
X3175000Y2044700D03*
G01*
X3429000Y2044700D03*
G01*
X3683000Y2044700D03*
G01*
X3937000Y2044700D03*
G01*
X4191000Y2044700D03*
G01*
X4445000Y2044700D03*
G01*
X4699000Y2044700D03*
G01*
X4953000Y2044700D03*
G01*
X5207000Y2044700D03*
G01*
X5461000Y2044700D03*
G01*
X889000Y3822700D03*
G01*
X1143000Y3822700D03*
G01*
X1397000Y3822700D03*
G01*
X1651000Y3822700D03*
G01*
X1905000Y3822700D03*
G01*
X2159000Y3822700D03*
G01*
X2413000Y3822700D03*
G01*
X2667000Y3822700D03*
G01*
X2921000Y3822700D03*
G01*
X3175000Y3822700D03*
G01*
X3429000Y3822700D03*
G01*
X3683000Y3822700D03*
G01*
X3937000Y3822700D03*
G01*
X4191000Y3822700D03*
G01*
X4445000Y3822700D03*
G01*
X4699000Y3822700D03*
G01*
X4953000Y3822700D03*
G01*
X5207000Y3822700D03*
G01*
X5461000Y3822700D03*
G01*
X5715000Y2044700D03*
G01*
X5715000Y3822700D03*
D16*
G01*
X3479800Y4495800D03*
G01*
X3733800Y4495800D03*
G01*
X3987800Y4495800D03*
G01*
X4241800Y4495800D03*
G01*
X4495800Y4495800D03*
G01*
X4749800Y4495800D03*
G01*
X5003800Y4495800D03*
G01*
X5257800Y4495800D03*
G01*
X2359406Y1329893D03*
G01*
X2105406Y1329893D03*
G01*
X1851405Y1329893D03*
G01*
X1597405Y1329893D03*
G01*
X1343405Y1329893D03*
G01*
X1089405Y1329893D03*
G01*
X835405Y1329893D03*
G01*
X581405Y1329893D03*
G01*
X5255006Y1329893D03*
G01*
X5001006Y1329893D03*
G01*
X4747006Y1329893D03*
G01*
X4493006Y1329893D03*
G01*
X4239006Y1329893D03*
G01*
X3985006Y1329893D03*
G01*
X3731006Y1329893D03*
G01*
X3477006Y1329893D03*
D18*
G01*
X4826000Y5588000D03*
G01*
X4826000Y5334000D03*
G01*
X4572000Y5334000D03*
G01*
X4572000Y5588000D03*
D17*
G01*
X3302000Y508000D03*
G01*
X3556000Y508000D03*
G01*
X431800Y3835400D03*
G01*
X177800Y3835400D03*
D19*
G01*
X2413000Y4191000D03*
G01*
X2921000Y4254500D03*
G01*
X3175000Y4318000D03*
G01*
X2159000Y1651000D03*
G01*
X2413000Y1587500D03*
G01*
X3175000Y1460500D03*
G01*
X2921000Y1524000D03*
G01*
X381000Y762000D03*
G01*
X444500Y825500D03*
G01*
X5334000Y3619500D03*
G01*
X5575300Y3683000D03*
G01*
X2540000Y3683000D03*
G01*
X2794000Y3619500D03*
G01*
X876300Y3606800D03*
G01*
X5207000Y3543300D03*
G01*
X4826000Y5727700D03*
G01*
X5080000Y5588000D03*
G01*
X4826000Y5118100D03*
G01*
X5080000Y4953000D03*
G01*
X4385309Y5727700D03*
G01*
X381000Y4953000D03*
G01*
X5207000Y3429000D03*
G01*
X673100Y3429000D03*
G01*
X4309109Y5118100D03*
G01*
X63500Y5118100D03*
G01*
X4699000Y2413000D03*
G01*
X431800Y2413000D03*
G01*
X571500Y2679700D03*
G01*
X311404Y3187700D03*
G01*
X406400Y1955800D03*
G01*
X673100Y1955800D03*
G01*
X966825Y825500D03*
G01*
X1166825Y762000D03*
G01*
X4216400Y596900D03*
G01*
X5003800Y596900D03*
G01*
X3759200Y330200D03*
G01*
X673100Y2413000D03*
G01*
X2667000Y2235200D03*
G01*
X2667000Y3619500D03*
G01*
X609600Y1524000D03*
G01*
X203200Y1524000D03*
G01*
X215900Y4927600D03*
G01*
X215900Y4508500D03*
G01*
X4622800Y1181100D03*
M02*
