G04 Layer: TopLayer*
G04 EasyEDA v6.5.29, 2023-07-09 12:24:00*
G04 97f15dd9b7304d05b9f7bb3fd5aabb56,5a6b42c53f6a479593ecc07194224c93,10*
G04 Gerber Generator version 0.2*
G04 Scale: 100 percent, Rotated: No, Reflected: No *
G04 Dimensions in millimeters *
G04 leading zeros omitted , absolute positions ,4 integer and 5 decimal *
%FSLAX45Y45*%
%MOMM*%

%AMMACRO1*21,1,$1,$2,0,0,$3*%
%ADD10C,0.1524*%
%ADD11C,0.6350*%
%ADD12C,0.2540*%
%ADD13C,0.5000*%
%ADD14C,0.6250*%
%ADD15R,0.8000X0.8000*%
%ADD16R,0.9000X0.8000*%
%ADD17R,1.2000X1.8000*%
%ADD18MACRO1,1.2014X1.7983X0.0000*%
%ADD19R,0.6000X1.5500*%
%ADD20MACRO1,0.864X0.8065X90.0000*%
%ADD21R,0.6000X1.0700*%
%ADD22R,0.5320X1.0720*%
%ADD23C,1.0000*%
%ADD24C,5.0000*%
%ADD25C,2.0000*%
%ADD26C,1.7000*%
%ADD27C,1.8000*%
%ADD28C,0.6096*%
%ADD29C,0.0153*%

%LPD*%
G36*
X2207768Y4127500D02*
G01*
X2203856Y4128262D01*
X2200605Y4130497D01*
X2198370Y4133748D01*
X2197608Y4137660D01*
X2197608Y4253992D01*
X2196795Y4262018D01*
X2194610Y4269232D01*
X2191054Y4275937D01*
X2185924Y4282135D01*
X2123135Y4344924D01*
X2116937Y4350054D01*
X2114346Y4351426D01*
X2111044Y4354271D01*
X2109216Y4358233D01*
X2109216Y4362551D01*
X2111044Y4366514D01*
X2114346Y4369358D01*
X2118512Y4370527D01*
X2123389Y4370832D01*
X2138324Y4373575D01*
X2152853Y4378096D01*
X2166721Y4384344D01*
X2179726Y4392218D01*
X2191664Y4401566D01*
X2202434Y4412335D01*
X2211781Y4424273D01*
X2219655Y4437278D01*
X2225954Y4451197D01*
X2228138Y4454398D01*
X2231390Y4456480D01*
X2235200Y4457192D01*
X2239010Y4456480D01*
X2242261Y4454398D01*
X2244445Y4451197D01*
X2250744Y4437278D01*
X2258618Y4424273D01*
X2267966Y4412335D01*
X2278735Y4401566D01*
X2290673Y4392218D01*
X2303678Y4384344D01*
X2317546Y4378096D01*
X2332075Y4373575D01*
X2347010Y4370832D01*
X2362200Y4369917D01*
X2377389Y4370832D01*
X2392324Y4373575D01*
X2406853Y4378096D01*
X2420721Y4384344D01*
X2433726Y4392218D01*
X2445664Y4401566D01*
X2456434Y4412335D01*
X2465781Y4424273D01*
X2473655Y4437278D01*
X2479903Y4451146D01*
X2484424Y4465675D01*
X2487168Y4480610D01*
X2488082Y4495800D01*
X2487168Y4510989D01*
X2484424Y4525924D01*
X2479903Y4540453D01*
X2473655Y4554321D01*
X2465781Y4567326D01*
X2456434Y4579264D01*
X2445664Y4590034D01*
X2433726Y4599381D01*
X2420721Y4607255D01*
X2406853Y4613503D01*
X2392324Y4618024D01*
X2377389Y4620768D01*
X2362200Y4621682D01*
X2347010Y4620768D01*
X2332075Y4618024D01*
X2317546Y4613503D01*
X2303678Y4607255D01*
X2290673Y4599381D01*
X2278735Y4590034D01*
X2267966Y4579264D01*
X2258618Y4567326D01*
X2250744Y4554321D01*
X2244445Y4540402D01*
X2242261Y4537202D01*
X2239010Y4535119D01*
X2235200Y4534408D01*
X2231390Y4535119D01*
X2228138Y4537202D01*
X2225954Y4540402D01*
X2219655Y4554321D01*
X2211781Y4567326D01*
X2202434Y4579264D01*
X2191664Y4590034D01*
X2179726Y4599381D01*
X2166721Y4607255D01*
X2152853Y4613503D01*
X2138324Y4618024D01*
X2123389Y4620768D01*
X2108200Y4621682D01*
X2093010Y4620768D01*
X2078075Y4618024D01*
X2063546Y4613503D01*
X2049678Y4607255D01*
X2036673Y4599381D01*
X2024735Y4590034D01*
X2013966Y4579264D01*
X2004618Y4567326D01*
X1996744Y4554321D01*
X1990445Y4540402D01*
X1988261Y4537202D01*
X1985010Y4535119D01*
X1981200Y4534408D01*
X1977389Y4535119D01*
X1974138Y4537202D01*
X1971954Y4540402D01*
X1965655Y4554321D01*
X1957781Y4567326D01*
X1948434Y4579264D01*
X1937664Y4590034D01*
X1925726Y4599381D01*
X1912721Y4607255D01*
X1898853Y4613503D01*
X1884324Y4618024D01*
X1869389Y4620768D01*
X1854200Y4621682D01*
X1839010Y4620768D01*
X1824075Y4618024D01*
X1809546Y4613503D01*
X1795678Y4607255D01*
X1782673Y4599381D01*
X1770735Y4590034D01*
X1759966Y4579264D01*
X1750618Y4567326D01*
X1742744Y4554321D01*
X1736445Y4540402D01*
X1734261Y4537202D01*
X1731010Y4535119D01*
X1727200Y4534408D01*
X1723389Y4535119D01*
X1720138Y4537202D01*
X1717954Y4540402D01*
X1711655Y4554321D01*
X1703781Y4567326D01*
X1694434Y4579264D01*
X1683664Y4590034D01*
X1671726Y4599381D01*
X1658721Y4607255D01*
X1644853Y4613503D01*
X1630324Y4618024D01*
X1615389Y4620768D01*
X1600200Y4621682D01*
X1585010Y4620768D01*
X1570075Y4618024D01*
X1555546Y4613503D01*
X1541678Y4607255D01*
X1528673Y4599381D01*
X1516735Y4590034D01*
X1505966Y4579264D01*
X1496618Y4567326D01*
X1488744Y4554321D01*
X1482445Y4540402D01*
X1480261Y4537202D01*
X1477010Y4535119D01*
X1473200Y4534408D01*
X1469390Y4535119D01*
X1466138Y4537202D01*
X1463954Y4540402D01*
X1457655Y4554321D01*
X1449781Y4567326D01*
X1440434Y4579264D01*
X1429664Y4590034D01*
X1417726Y4599381D01*
X1404721Y4607255D01*
X1390853Y4613503D01*
X1376324Y4618024D01*
X1361389Y4620768D01*
X1346200Y4621682D01*
X1331010Y4620768D01*
X1316075Y4618024D01*
X1301546Y4613503D01*
X1287678Y4607255D01*
X1274673Y4599381D01*
X1262735Y4590034D01*
X1251966Y4579264D01*
X1242618Y4567326D01*
X1234744Y4554321D01*
X1228445Y4540402D01*
X1226261Y4537202D01*
X1223010Y4535119D01*
X1219200Y4534408D01*
X1215390Y4535119D01*
X1212138Y4537202D01*
X1209954Y4540402D01*
X1203655Y4554321D01*
X1195781Y4567326D01*
X1186434Y4579264D01*
X1175664Y4590034D01*
X1163726Y4599381D01*
X1150721Y4607255D01*
X1136853Y4613503D01*
X1122324Y4618024D01*
X1107389Y4620768D01*
X1092200Y4621682D01*
X1077010Y4620768D01*
X1062075Y4618024D01*
X1047546Y4613503D01*
X1033678Y4607255D01*
X1020673Y4599381D01*
X1008735Y4590034D01*
X997966Y4579264D01*
X988618Y4567326D01*
X980744Y4554321D01*
X974445Y4540402D01*
X972261Y4537202D01*
X969010Y4535119D01*
X965200Y4534408D01*
X961390Y4535119D01*
X958138Y4537202D01*
X955954Y4540402D01*
X949655Y4554321D01*
X941781Y4567326D01*
X932434Y4579264D01*
X921664Y4590034D01*
X909726Y4599381D01*
X896721Y4607255D01*
X882853Y4613503D01*
X868324Y4618024D01*
X853389Y4620768D01*
X838200Y4621682D01*
X823010Y4620768D01*
X808075Y4618024D01*
X793546Y4613503D01*
X779678Y4607255D01*
X766673Y4599381D01*
X754735Y4590034D01*
X743966Y4579264D01*
X734618Y4567326D01*
X726744Y4554321D01*
X720445Y4540402D01*
X718261Y4537202D01*
X715010Y4535119D01*
X711200Y4534408D01*
X707390Y4535119D01*
X704138Y4537202D01*
X701954Y4540402D01*
X695655Y4554321D01*
X687781Y4567326D01*
X678434Y4579264D01*
X667664Y4590034D01*
X655726Y4599381D01*
X642721Y4607255D01*
X628853Y4613503D01*
X614324Y4618024D01*
X599389Y4620768D01*
X584200Y4621682D01*
X569010Y4620768D01*
X554075Y4618024D01*
X539546Y4613503D01*
X525678Y4607255D01*
X512673Y4599381D01*
X500735Y4590034D01*
X489966Y4579264D01*
X480618Y4567326D01*
X472744Y4554321D01*
X466496Y4540453D01*
X461975Y4525924D01*
X459232Y4510989D01*
X458978Y4506518D01*
X457708Y4502251D01*
X454812Y4498949D01*
X450748Y4497171D01*
X446278Y4497273D01*
X442366Y4499305D01*
X439623Y4502810D01*
X438658Y4507128D01*
X438658Y4952593D01*
X437845Y4962499D01*
X435508Y4971694D01*
X431698Y4980432D01*
X426466Y4988407D01*
X420014Y4995418D01*
X412496Y5001260D01*
X404164Y5005781D01*
X395122Y5008880D01*
X385775Y5010404D01*
X376224Y5010404D01*
X366877Y5008880D01*
X357835Y5005781D01*
X349504Y5001260D01*
X341985Y4995418D01*
X335534Y4988407D01*
X330301Y4980432D01*
X326491Y4971694D01*
X324154Y4962499D01*
X323342Y4952593D01*
X323342Y4778705D01*
X322427Y4774488D01*
X319887Y4771034D01*
X316128Y4768951D01*
X311861Y4768596D01*
X307797Y4770069D01*
X304749Y4773066D01*
X296621Y4785258D01*
X287477Y4795672D01*
X277063Y4804816D01*
X265531Y4812487D01*
X253136Y4818634D01*
X239979Y4823053D01*
X226415Y4825796D01*
X212598Y4826660D01*
X198780Y4825796D01*
X185216Y4823053D01*
X172059Y4818634D01*
X159664Y4812487D01*
X148132Y4804816D01*
X137515Y4795469D01*
X134213Y4793538D01*
X130352Y4792980D01*
X126644Y4793843D01*
X123494Y4796078D01*
X121412Y4799330D01*
X120650Y4803140D01*
X120650Y5117693D01*
X119837Y5127498D01*
X117551Y5136642D01*
X113741Y5145278D01*
X108559Y5153202D01*
X102209Y5160111D01*
X94742Y5165902D01*
X86461Y5170424D01*
X77520Y5173472D01*
X68224Y5175046D01*
X58775Y5175046D01*
X49530Y5173472D01*
X39420Y5169966D01*
X35610Y5169408D01*
X31851Y5170271D01*
X28702Y5172506D01*
X26619Y5175758D01*
X25908Y5179517D01*
X25908Y5805932D01*
X26670Y5809843D01*
X28905Y5813094D01*
X32156Y5815330D01*
X36068Y5816092D01*
X2555240Y5816092D01*
X2559151Y5815330D01*
X2562402Y5813094D01*
X2564638Y5809843D01*
X2565400Y5805932D01*
X2566162Y5809843D01*
X2568397Y5813094D01*
X2571648Y5815330D01*
X2575560Y5816092D01*
X3063240Y5816092D01*
X3067151Y5815330D01*
X3070402Y5813094D01*
X3072638Y5809843D01*
X3073400Y5805932D01*
X3074162Y5809843D01*
X3076397Y5813094D01*
X3079648Y5815330D01*
X3083560Y5816092D01*
X5805932Y5816092D01*
X5809843Y5815330D01*
X5813094Y5813094D01*
X5815330Y5809843D01*
X5816092Y5805932D01*
X5816092Y4137660D01*
X5815330Y4133748D01*
X5813094Y4130497D01*
X5809843Y4128262D01*
X5805932Y4127500D01*
X5763768Y4127500D01*
X5759856Y4128262D01*
X5756605Y4130497D01*
X5754370Y4133748D01*
X5753608Y4137660D01*
X5753608Y4190492D01*
X5752795Y4198518D01*
X5750610Y4205732D01*
X5747054Y4212437D01*
X5742279Y4218279D01*
X5736031Y4223359D01*
X5384800Y4457547D01*
X5382006Y4460290D01*
X5380482Y4463897D01*
X5380431Y4467809D01*
X5382768Y4480610D01*
X5383682Y4495800D01*
X5382768Y4510989D01*
X5380024Y4525924D01*
X5375503Y4540453D01*
X5369255Y4554321D01*
X5361381Y4567326D01*
X5352034Y4579264D01*
X5341264Y4590034D01*
X5329326Y4599381D01*
X5316321Y4607255D01*
X5302453Y4613503D01*
X5287924Y4618024D01*
X5272989Y4620768D01*
X5257800Y4621682D01*
X5242610Y4620768D01*
X5227675Y4618024D01*
X5213146Y4613503D01*
X5199278Y4607255D01*
X5186273Y4599381D01*
X5174335Y4590034D01*
X5163566Y4579264D01*
X5154218Y4567326D01*
X5146344Y4554321D01*
X5140045Y4540402D01*
X5137861Y4537202D01*
X5134610Y4535119D01*
X5130800Y4534408D01*
X5126990Y4535119D01*
X5123738Y4537202D01*
X5121554Y4540402D01*
X5115255Y4554321D01*
X5107381Y4567326D01*
X5098034Y4579264D01*
X5087264Y4590034D01*
X5075326Y4599381D01*
X5062321Y4607255D01*
X5048453Y4613503D01*
X5033924Y4618024D01*
X5018989Y4620768D01*
X5003800Y4621682D01*
X4988610Y4620768D01*
X4973675Y4618024D01*
X4959146Y4613503D01*
X4945278Y4607255D01*
X4932273Y4599381D01*
X4920335Y4590034D01*
X4909566Y4579264D01*
X4900218Y4567326D01*
X4892344Y4554321D01*
X4886045Y4540402D01*
X4883861Y4537202D01*
X4880610Y4535119D01*
X4876800Y4534408D01*
X4872990Y4535119D01*
X4869738Y4537202D01*
X4867554Y4540402D01*
X4861255Y4554321D01*
X4853381Y4567326D01*
X4844034Y4579264D01*
X4833264Y4590034D01*
X4821326Y4599381D01*
X4808321Y4607255D01*
X4794453Y4613503D01*
X4779924Y4618024D01*
X4764989Y4620768D01*
X4749800Y4621682D01*
X4734610Y4620768D01*
X4719675Y4618024D01*
X4705146Y4613503D01*
X4691278Y4607255D01*
X4678273Y4599381D01*
X4666335Y4590034D01*
X4655566Y4579264D01*
X4646218Y4567326D01*
X4638344Y4554321D01*
X4632045Y4540402D01*
X4629861Y4537202D01*
X4626610Y4535119D01*
X4622800Y4534408D01*
X4618990Y4535119D01*
X4615738Y4537202D01*
X4613554Y4540402D01*
X4607255Y4554321D01*
X4599381Y4567326D01*
X4590034Y4579264D01*
X4579264Y4590034D01*
X4567326Y4599381D01*
X4554321Y4607255D01*
X4540453Y4613503D01*
X4525924Y4618024D01*
X4510989Y4620768D01*
X4495800Y4621682D01*
X4480610Y4620768D01*
X4465675Y4618024D01*
X4451146Y4613503D01*
X4437278Y4607255D01*
X4424273Y4599381D01*
X4412335Y4590034D01*
X4401566Y4579264D01*
X4392218Y4567326D01*
X4384344Y4554321D01*
X4378045Y4540402D01*
X4375861Y4537202D01*
X4372610Y4535119D01*
X4368800Y4534408D01*
X4364990Y4535119D01*
X4361738Y4537202D01*
X4359554Y4540402D01*
X4353255Y4554321D01*
X4345381Y4567326D01*
X4336034Y4579264D01*
X4325264Y4590034D01*
X4313326Y4599381D01*
X4300321Y4607255D01*
X4286453Y4613503D01*
X4271924Y4618024D01*
X4256989Y4620768D01*
X4241800Y4621682D01*
X4226610Y4620768D01*
X4211675Y4618024D01*
X4197146Y4613503D01*
X4183278Y4607255D01*
X4170273Y4599381D01*
X4158335Y4590034D01*
X4147565Y4579264D01*
X4138218Y4567326D01*
X4130344Y4554321D01*
X4124045Y4540402D01*
X4121861Y4537202D01*
X4118610Y4535119D01*
X4114800Y4534408D01*
X4110990Y4535119D01*
X4107738Y4537202D01*
X4105554Y4540402D01*
X4099255Y4554321D01*
X4091381Y4567326D01*
X4082034Y4579264D01*
X4071264Y4590034D01*
X4059326Y4599381D01*
X4046321Y4607255D01*
X4032453Y4613503D01*
X4017924Y4618024D01*
X4002989Y4620768D01*
X3987800Y4621682D01*
X3972610Y4620768D01*
X3957675Y4618024D01*
X3943146Y4613503D01*
X3929278Y4607255D01*
X3916273Y4599381D01*
X3904335Y4590034D01*
X3893565Y4579264D01*
X3884218Y4567326D01*
X3876344Y4554321D01*
X3870045Y4540402D01*
X3867861Y4537202D01*
X3864610Y4535119D01*
X3860800Y4534408D01*
X3856990Y4535119D01*
X3853738Y4537202D01*
X3851554Y4540402D01*
X3845255Y4554321D01*
X3837381Y4567326D01*
X3828034Y4579264D01*
X3817264Y4590034D01*
X3805326Y4599381D01*
X3792321Y4607255D01*
X3778453Y4613503D01*
X3763924Y4618024D01*
X3748989Y4620768D01*
X3733800Y4621682D01*
X3718610Y4620768D01*
X3703675Y4618024D01*
X3689146Y4613503D01*
X3675278Y4607255D01*
X3662273Y4599381D01*
X3650335Y4590034D01*
X3639565Y4579264D01*
X3630218Y4567326D01*
X3622344Y4554321D01*
X3616045Y4540402D01*
X3613861Y4537202D01*
X3610610Y4535119D01*
X3606800Y4534408D01*
X3602990Y4535119D01*
X3599738Y4537202D01*
X3597554Y4540402D01*
X3591255Y4554321D01*
X3583381Y4567326D01*
X3574034Y4579264D01*
X3563264Y4590034D01*
X3551326Y4599381D01*
X3538321Y4607255D01*
X3524453Y4613503D01*
X3509924Y4618024D01*
X3494989Y4620768D01*
X3479800Y4621682D01*
X3464610Y4620768D01*
X3449675Y4618024D01*
X3435146Y4613503D01*
X3421278Y4607255D01*
X3408273Y4599381D01*
X3396335Y4590034D01*
X3385565Y4579264D01*
X3376218Y4567326D01*
X3368344Y4554321D01*
X3362096Y4540453D01*
X3357575Y4525924D01*
X3354832Y4510989D01*
X3353917Y4495800D01*
X3354832Y4480610D01*
X3357575Y4465675D01*
X3362096Y4451146D01*
X3368344Y4437278D01*
X3376218Y4424273D01*
X3385565Y4412335D01*
X3396335Y4401566D01*
X3408273Y4392218D01*
X3421278Y4384344D01*
X3435197Y4378096D01*
X3438347Y4375861D01*
X3440480Y4372610D01*
X3441192Y4368800D01*
X3441192Y4262018D01*
X3440429Y4258106D01*
X3438194Y4254804D01*
X3402076Y4218635D01*
X3396945Y4212437D01*
X3393389Y4205732D01*
X3391204Y4198518D01*
X3390392Y4190492D01*
X3390392Y4137660D01*
X3389629Y4133748D01*
X3387394Y4130497D01*
X3384143Y4128262D01*
X3380232Y4127500D01*
X3223768Y4127500D01*
X3219856Y4128262D01*
X3216605Y4130497D01*
X3214370Y4133748D01*
X3213608Y4137660D01*
X3213608Y4272991D01*
X3214370Y4276902D01*
X3216605Y4280204D01*
X3218180Y4281779D01*
X3223818Y4289806D01*
X3227933Y4298746D01*
X3230473Y4308195D01*
X3231337Y4318000D01*
X3230473Y4327804D01*
X3227933Y4337253D01*
X3223818Y4346194D01*
X3218180Y4354220D01*
X3211220Y4361180D01*
X3203194Y4366818D01*
X3194253Y4370933D01*
X3184804Y4373473D01*
X3175000Y4374337D01*
X3165195Y4373473D01*
X3155746Y4370933D01*
X3146806Y4366818D01*
X3138779Y4361180D01*
X3131820Y4354220D01*
X3126181Y4346194D01*
X3122066Y4337253D01*
X3119526Y4327804D01*
X3118662Y4318000D01*
X3119526Y4308195D01*
X3122066Y4298746D01*
X3126181Y4289806D01*
X3131820Y4281779D01*
X3133394Y4280204D01*
X3135630Y4276902D01*
X3136392Y4272991D01*
X3136392Y4137660D01*
X3135630Y4133748D01*
X3133394Y4130497D01*
X3130143Y4128262D01*
X3126232Y4127500D01*
X2969768Y4127500D01*
X2965856Y4128262D01*
X2962605Y4130497D01*
X2960370Y4133748D01*
X2959608Y4137660D01*
X2959608Y4209491D01*
X2960370Y4213402D01*
X2962605Y4216704D01*
X2964180Y4218279D01*
X2969818Y4226306D01*
X2973933Y4235246D01*
X2976473Y4244695D01*
X2977337Y4254500D01*
X2976473Y4264304D01*
X2973933Y4273753D01*
X2969818Y4282694D01*
X2964180Y4290720D01*
X2957220Y4297680D01*
X2949194Y4303318D01*
X2940253Y4307433D01*
X2930804Y4309973D01*
X2921000Y4310837D01*
X2911195Y4309973D01*
X2901746Y4307433D01*
X2892806Y4303318D01*
X2884779Y4297680D01*
X2877820Y4290720D01*
X2872181Y4282694D01*
X2868066Y4273753D01*
X2865526Y4264304D01*
X2864662Y4254500D01*
X2865526Y4244695D01*
X2868066Y4235246D01*
X2872181Y4226306D01*
X2877820Y4218279D01*
X2879394Y4216704D01*
X2881630Y4213402D01*
X2882392Y4209491D01*
X2882392Y4137660D01*
X2881630Y4133748D01*
X2879394Y4130497D01*
X2876143Y4128262D01*
X2872232Y4127500D01*
X2461768Y4127500D01*
X2457856Y4128262D01*
X2454605Y4130497D01*
X2452370Y4133748D01*
X2451608Y4137660D01*
X2451608Y4145991D01*
X2452370Y4149902D01*
X2454605Y4153204D01*
X2456180Y4154779D01*
X2461818Y4162806D01*
X2465933Y4171746D01*
X2468473Y4181195D01*
X2469337Y4191000D01*
X2468473Y4200804D01*
X2465933Y4210253D01*
X2461818Y4219194D01*
X2456180Y4227220D01*
X2449220Y4234180D01*
X2441194Y4239818D01*
X2432253Y4243933D01*
X2422804Y4246473D01*
X2413000Y4247337D01*
X2403195Y4246473D01*
X2393746Y4243933D01*
X2384806Y4239818D01*
X2376779Y4234180D01*
X2369820Y4227220D01*
X2364181Y4219194D01*
X2360066Y4210253D01*
X2357526Y4200804D01*
X2356662Y4191000D01*
X2357526Y4181195D01*
X2360066Y4171746D01*
X2364181Y4162806D01*
X2369820Y4154779D01*
X2371394Y4153204D01*
X2373630Y4149902D01*
X2374392Y4145991D01*
X2374392Y4137660D01*
X2373630Y4133748D01*
X2371394Y4130497D01*
X2368143Y4128262D01*
X2364232Y4127500D01*
G37*

%LPC*%
G36*
X3108198Y4614926D02*
G01*
X3122015Y4615789D01*
X3135579Y4618532D01*
X3148736Y4622952D01*
X3161131Y4629099D01*
X3172663Y4636770D01*
X3183077Y4645914D01*
X3192221Y4656328D01*
X3199892Y4667859D01*
X3206038Y4680254D01*
X3210458Y4693412D01*
X3213201Y4706975D01*
X3214065Y4720793D01*
X3213201Y4734610D01*
X3210458Y4748174D01*
X3206038Y4761331D01*
X3199892Y4773726D01*
X3192221Y4785258D01*
X3183077Y4795672D01*
X3172663Y4804816D01*
X3161131Y4812487D01*
X3148736Y4818634D01*
X3135579Y4823053D01*
X3122015Y4825796D01*
X3108198Y4826660D01*
X3094380Y4825796D01*
X3080816Y4823053D01*
X3067659Y4818634D01*
X3055264Y4812487D01*
X3043732Y4804816D01*
X3033318Y4795672D01*
X3024174Y4785258D01*
X3016504Y4773726D01*
X3010357Y4761331D01*
X3005937Y4748174D01*
X3003194Y4734610D01*
X3002330Y4720793D01*
X3003194Y4706975D01*
X3005937Y4693412D01*
X3010357Y4680254D01*
X3016504Y4667859D01*
X3024174Y4656328D01*
X3033318Y4645914D01*
X3043732Y4636770D01*
X3055264Y4629099D01*
X3067659Y4622952D01*
X3080816Y4618532D01*
X3094380Y4615789D01*
G37*
G36*
X3722522Y5664200D02*
G01*
X3775710Y5664200D01*
X3775710Y5717387D01*
X3748989Y5717387D01*
X3742639Y5716676D01*
X3737203Y5714796D01*
X3732276Y5711698D01*
X3728212Y5707634D01*
X3725113Y5702706D01*
X3723233Y5697270D01*
X3722522Y5690920D01*
G37*
G36*
X5629402Y4614926D02*
G01*
X5643219Y4615789D01*
X5656783Y4618532D01*
X5669940Y4622952D01*
X5682335Y4629099D01*
X5693867Y4636770D01*
X5704281Y4645914D01*
X5713425Y4656328D01*
X5721096Y4667859D01*
X5727242Y4680254D01*
X5731662Y4693412D01*
X5734405Y4706975D01*
X5735269Y4720793D01*
X5734405Y4734610D01*
X5731662Y4748174D01*
X5727242Y4761331D01*
X5721096Y4773726D01*
X5713425Y4785258D01*
X5704281Y4795672D01*
X5693867Y4804816D01*
X5682335Y4812487D01*
X5669940Y4818634D01*
X5656783Y4823053D01*
X5643219Y4825796D01*
X5629402Y4826660D01*
X5615584Y4825796D01*
X5602020Y4823053D01*
X5588863Y4818634D01*
X5576468Y4812487D01*
X5564936Y4804816D01*
X5554522Y4795672D01*
X5545378Y4785258D01*
X5537708Y4773726D01*
X5531561Y4761331D01*
X5527141Y4748174D01*
X5524398Y4734610D01*
X5523534Y4720793D01*
X5524398Y4706975D01*
X5527141Y4693412D01*
X5531561Y4680254D01*
X5537708Y4667859D01*
X5545378Y4656328D01*
X5554522Y4645914D01*
X5564936Y4636770D01*
X5576468Y4629099D01*
X5588863Y4622952D01*
X5602020Y4618532D01*
X5615584Y4615789D01*
G37*
G36*
X5075224Y4895596D02*
G01*
X5084775Y4895596D01*
X5094122Y4897120D01*
X5103164Y4900218D01*
X5111496Y4904740D01*
X5119014Y4910582D01*
X5125466Y4917592D01*
X5130698Y4925568D01*
X5134508Y4934305D01*
X5136845Y4943500D01*
X5137658Y4953406D01*
X5137658Y5587593D01*
X5136845Y5597499D01*
X5134508Y5606694D01*
X5130698Y5615432D01*
X5125466Y5623407D01*
X5119014Y5630418D01*
X5111496Y5636260D01*
X5103164Y5640781D01*
X5094122Y5643880D01*
X5084775Y5645404D01*
X5075224Y5645404D01*
X5065877Y5643880D01*
X5056835Y5640781D01*
X5048504Y5636260D01*
X5040985Y5630418D01*
X5034534Y5623407D01*
X5029301Y5615432D01*
X5025491Y5606694D01*
X5023154Y5597499D01*
X5022342Y5587593D01*
X5022342Y4953406D01*
X5023154Y4943500D01*
X5025491Y4934305D01*
X5029301Y4925568D01*
X5034534Y4917592D01*
X5040985Y4910582D01*
X5048504Y4904740D01*
X5056835Y4900218D01*
X5065877Y4897120D01*
G37*
G36*
X4826000Y5061762D02*
G01*
X4835804Y5062626D01*
X4845253Y5065166D01*
X4854194Y5069281D01*
X4862220Y5074920D01*
X4869180Y5081879D01*
X4874818Y5089906D01*
X4878933Y5098846D01*
X4881473Y5108295D01*
X4882337Y5118100D01*
X4881473Y5127904D01*
X4878933Y5137353D01*
X4874818Y5146294D01*
X4869180Y5154320D01*
X4862220Y5161280D01*
X4854194Y5166918D01*
X4845253Y5171033D01*
X4835804Y5173573D01*
X4826000Y5174437D01*
X4816195Y5173573D01*
X4806746Y5171033D01*
X4797806Y5166918D01*
X4789779Y5161280D01*
X4782820Y5154320D01*
X4777181Y5146294D01*
X4773066Y5137353D01*
X4770526Y5127904D01*
X4769662Y5118100D01*
X4770526Y5108295D01*
X4773066Y5098846D01*
X4777181Y5089906D01*
X4782820Y5081879D01*
X4789779Y5074920D01*
X4797806Y5069281D01*
X4806746Y5065166D01*
X4816195Y5062626D01*
G37*
G36*
X4309110Y5061762D02*
G01*
X4318863Y5062626D01*
X4328363Y5065166D01*
X4337253Y5069281D01*
X4345330Y5074920D01*
X4352290Y5081879D01*
X4357878Y5089906D01*
X4362043Y5098846D01*
X4364583Y5108295D01*
X4365447Y5118100D01*
X4364583Y5127904D01*
X4362043Y5137353D01*
X4357878Y5146294D01*
X4349242Y5158435D01*
X4348429Y5162296D01*
X4348226Y5194046D01*
X4349038Y5198110D01*
X4351477Y5201513D01*
X4355947Y5204002D01*
X4360875Y5207101D01*
X4364939Y5211165D01*
X4368038Y5216093D01*
X4369968Y5221528D01*
X4370679Y5227878D01*
X4370679Y5313121D01*
X4369968Y5319471D01*
X4368038Y5324906D01*
X4364939Y5329834D01*
X4360875Y5333898D01*
X4355947Y5336997D01*
X4350512Y5338876D01*
X4344162Y5339588D01*
X4264660Y5339588D01*
X4258360Y5338876D01*
X4252874Y5336997D01*
X4247997Y5333898D01*
X4243882Y5329834D01*
X4240834Y5324906D01*
X4238701Y5318861D01*
X4236567Y5315305D01*
X4233164Y5312867D01*
X4229100Y5312054D01*
X4225036Y5312867D01*
X4221632Y5315305D01*
X4219498Y5318861D01*
X4217365Y5324906D01*
X4214317Y5329834D01*
X4210202Y5333898D01*
X4205325Y5336997D01*
X4199839Y5338876D01*
X4193540Y5339588D01*
X4114037Y5339588D01*
X4107687Y5338876D01*
X4102252Y5336997D01*
X4097324Y5333898D01*
X4093260Y5329834D01*
X4090162Y5324906D01*
X4088231Y5319471D01*
X4087063Y5314594D01*
X4084777Y5311698D01*
X4081627Y5309768D01*
X4078020Y5309108D01*
X4033469Y5309108D01*
X4029456Y5309971D01*
X4026052Y5312359D01*
X4023918Y5315915D01*
X4021886Y5321706D01*
X4018787Y5326634D01*
X4014724Y5330698D01*
X4009796Y5333796D01*
X4004360Y5335676D01*
X3998010Y5336387D01*
X3919169Y5336387D01*
X3912819Y5335676D01*
X3907383Y5333796D01*
X3902456Y5330698D01*
X3898392Y5326634D01*
X3895293Y5321706D01*
X3893413Y5316270D01*
X3892702Y5309920D01*
X3892702Y5231079D01*
X3893413Y5224729D01*
X3895293Y5219293D01*
X3898392Y5214366D01*
X3902456Y5210302D01*
X3907383Y5207203D01*
X3912819Y5205323D01*
X3919169Y5204612D01*
X3998010Y5204612D01*
X4004360Y5205323D01*
X4009796Y5207203D01*
X4014724Y5210302D01*
X4018787Y5214366D01*
X4021886Y5219293D01*
X4023918Y5225084D01*
X4026052Y5228640D01*
X4029456Y5231028D01*
X4033469Y5231892D01*
X4078020Y5231892D01*
X4081627Y5231231D01*
X4084777Y5229301D01*
X4087063Y5226405D01*
X4088231Y5221528D01*
X4090162Y5216093D01*
X4093260Y5211165D01*
X4097324Y5207101D01*
X4102252Y5204002D01*
X4107687Y5202123D01*
X4114037Y5201412D01*
X4193540Y5201412D01*
X4199839Y5202123D01*
X4205325Y5204002D01*
X4210202Y5207101D01*
X4214317Y5211165D01*
X4217365Y5216093D01*
X4219498Y5222138D01*
X4221632Y5225694D01*
X4225036Y5228132D01*
X4229100Y5228945D01*
X4233164Y5228132D01*
X4236567Y5225694D01*
X4238701Y5222138D01*
X4240834Y5216093D01*
X4243882Y5211165D01*
X4247997Y5207101D01*
X4252874Y5204002D01*
X4258360Y5202123D01*
X4262018Y5201716D01*
X4265523Y5200650D01*
X4268419Y5198414D01*
X4270349Y5195265D01*
X4271010Y5191658D01*
X4271213Y5163870D01*
X4270451Y5159959D01*
X4268216Y5156606D01*
X4265930Y5154320D01*
X4260291Y5146294D01*
X4256125Y5137353D01*
X4253585Y5127904D01*
X4252772Y5118100D01*
X4253585Y5108295D01*
X4256125Y5098846D01*
X4260291Y5089906D01*
X4265930Y5081879D01*
X4272889Y5074920D01*
X4280916Y5069281D01*
X4289806Y5065166D01*
X4299305Y5062626D01*
G37*
G36*
X3076905Y5181092D02*
G01*
X3583787Y5181092D01*
X3590086Y5181803D01*
X3595573Y5183682D01*
X3600450Y5186781D01*
X3604564Y5190896D01*
X3607612Y5195773D01*
X3609543Y5201208D01*
X3610254Y5207558D01*
X3610254Y5714441D01*
X3609543Y5720740D01*
X3607612Y5726226D01*
X3604564Y5731103D01*
X3600450Y5735218D01*
X3595573Y5738266D01*
X3590086Y5740196D01*
X3583787Y5740908D01*
X3083560Y5740908D01*
X3079648Y5741670D01*
X3076397Y5743854D01*
X3074162Y5747156D01*
X3073400Y5751068D01*
X3073400Y5748375D01*
X3072536Y5744311D01*
X3070148Y5740908D01*
X3066592Y5738774D01*
X3065119Y5738266D01*
X3060242Y5735218D01*
X3056128Y5731103D01*
X3053080Y5726226D01*
X3051149Y5720740D01*
X3050438Y5714441D01*
X3050438Y5207558D01*
X3051149Y5201208D01*
X3053080Y5195773D01*
X3056128Y5190896D01*
X3060242Y5186781D01*
X3065119Y5183682D01*
X3070606Y5181803D01*
G37*
G36*
X5473700Y5185562D02*
G01*
X5478322Y5185664D01*
X5501284Y5188051D01*
X5523992Y5192369D01*
X5546242Y5198618D01*
X5567934Y5206644D01*
X5588812Y5216499D01*
X5608828Y5228031D01*
X5627827Y5241239D01*
X5645607Y5255971D01*
X5662117Y5272125D01*
X5677204Y5289600D01*
X5690819Y5308295D01*
X5702757Y5328107D01*
X5713018Y5348782D01*
X5721553Y5370271D01*
X5728208Y5392369D01*
X5733034Y5414975D01*
X5735929Y5437936D01*
X5736336Y5448300D01*
X5473700Y5448300D01*
G37*
G36*
X393700Y5185562D02*
G01*
X398322Y5185664D01*
X421284Y5188051D01*
X443992Y5192369D01*
X466242Y5198618D01*
X487934Y5206644D01*
X508812Y5216499D01*
X528828Y5228031D01*
X547827Y5241239D01*
X565607Y5255971D01*
X582117Y5272125D01*
X597204Y5289600D01*
X610819Y5308295D01*
X622757Y5328107D01*
X633018Y5348782D01*
X641553Y5370271D01*
X648208Y5392369D01*
X653034Y5414975D01*
X655929Y5437936D01*
X656336Y5448300D01*
X393700Y5448300D01*
G37*
G36*
X5448300Y5185613D02*
G01*
X5448300Y5448300D01*
X5185410Y5448300D01*
X5187289Y5426405D01*
X5191150Y5403646D01*
X5196890Y5381244D01*
X5204460Y5359450D01*
X5213858Y5338318D01*
X5224983Y5318099D01*
X5237784Y5298846D01*
X5252161Y5280710D01*
X5267960Y5263896D01*
X5285130Y5248402D01*
X5303520Y5234432D01*
X5323027Y5222087D01*
X5343499Y5211368D01*
X5364835Y5202428D01*
X5386781Y5195265D01*
X5409285Y5189982D01*
X5432145Y5186629D01*
G37*
G36*
X368300Y5185613D02*
G01*
X368300Y5448300D01*
X105410Y5448300D01*
X107289Y5426405D01*
X111150Y5403646D01*
X116890Y5381244D01*
X124460Y5359450D01*
X133858Y5338318D01*
X144983Y5318099D01*
X157784Y5298846D01*
X172161Y5280710D01*
X187960Y5263896D01*
X205130Y5248402D01*
X223520Y5234432D01*
X243027Y5222087D01*
X263499Y5211368D01*
X284835Y5202428D01*
X306781Y5195265D01*
X329285Y5189982D01*
X352145Y5186629D01*
G37*
G36*
X3801110Y5204612D02*
G01*
X3827830Y5204612D01*
X3834180Y5205323D01*
X3839616Y5207203D01*
X3844544Y5210302D01*
X3848608Y5214366D01*
X3851706Y5219293D01*
X3853586Y5224729D01*
X3854297Y5231079D01*
X3854297Y5257800D01*
X3801110Y5257800D01*
G37*
G36*
X3748989Y5204612D02*
G01*
X3775710Y5204612D01*
X3775710Y5257800D01*
X3722522Y5257800D01*
X3722522Y5231079D01*
X3723233Y5224729D01*
X3725113Y5219293D01*
X3728212Y5214366D01*
X3732276Y5210302D01*
X3737203Y5207203D01*
X3742639Y5205323D01*
G37*
G36*
X4818735Y5218328D02*
G01*
X4833264Y5218328D01*
X4847691Y5220157D01*
X4861814Y5223764D01*
X4875326Y5229148D01*
X4888077Y5236159D01*
X4899863Y5244693D01*
X4910480Y5254650D01*
X4919776Y5265877D01*
X4927549Y5278170D01*
X4933746Y5291328D01*
X4938268Y5305196D01*
X4940960Y5319471D01*
X4941874Y5334000D01*
X4940960Y5348528D01*
X4938268Y5362803D01*
X4933746Y5376672D01*
X4927549Y5389829D01*
X4919776Y5402122D01*
X4910480Y5413349D01*
X4899863Y5423306D01*
X4888077Y5431840D01*
X4875326Y5438851D01*
X4861814Y5444236D01*
X4847691Y5447842D01*
X4833264Y5449671D01*
X4818735Y5449671D01*
X4804308Y5447842D01*
X4790186Y5444236D01*
X4776673Y5438851D01*
X4763922Y5431840D01*
X4752136Y5423306D01*
X4741519Y5413349D01*
X4732223Y5402122D01*
X4724450Y5389829D01*
X4718253Y5376672D01*
X4713732Y5362803D01*
X4711039Y5348528D01*
X4710125Y5334000D01*
X4711039Y5319471D01*
X4713732Y5305196D01*
X4718253Y5291328D01*
X4724450Y5278170D01*
X4732223Y5265877D01*
X4741519Y5254650D01*
X4752136Y5244693D01*
X4763922Y5236159D01*
X4776673Y5229148D01*
X4790186Y5223764D01*
X4804308Y5220157D01*
G37*
G36*
X4584700Y5219039D02*
G01*
X4593691Y5220157D01*
X4607814Y5223764D01*
X4621326Y5229148D01*
X4634077Y5236159D01*
X4645863Y5244693D01*
X4656480Y5254650D01*
X4665776Y5265877D01*
X4673549Y5278170D01*
X4679746Y5291328D01*
X4684268Y5305196D01*
X4686960Y5319471D01*
X4687112Y5321300D01*
X4584700Y5321300D01*
G37*
G36*
X4559300Y5219039D02*
G01*
X4559300Y5321300D01*
X4456887Y5321300D01*
X4457039Y5319471D01*
X4459732Y5305196D01*
X4464253Y5291328D01*
X4470450Y5278170D01*
X4478223Y5265877D01*
X4487519Y5254650D01*
X4498136Y5244693D01*
X4509922Y5236159D01*
X4522673Y5229148D01*
X4536186Y5223764D01*
X4550308Y5220157D01*
G37*
G36*
X3722522Y5283200D02*
G01*
X3775710Y5283200D01*
X3775710Y5336387D01*
X3748989Y5336387D01*
X3742639Y5335676D01*
X3737203Y5333796D01*
X3732276Y5330698D01*
X3728212Y5326634D01*
X3725113Y5321706D01*
X3723233Y5316270D01*
X3722522Y5309920D01*
G37*
G36*
X3801110Y5283200D02*
G01*
X3854297Y5283200D01*
X3854297Y5309920D01*
X3853586Y5316270D01*
X3851706Y5321706D01*
X3848608Y5326634D01*
X3844544Y5330698D01*
X3839616Y5333796D01*
X3834180Y5335676D01*
X3827830Y5336387D01*
X3801110Y5336387D01*
G37*
G36*
X4456887Y5346700D02*
G01*
X4559300Y5346700D01*
X4559300Y5448960D01*
X4550308Y5447842D01*
X4536186Y5444236D01*
X4522673Y5438851D01*
X4509922Y5431840D01*
X4498136Y5423306D01*
X4487519Y5413349D01*
X4478223Y5402122D01*
X4470450Y5389829D01*
X4464253Y5376672D01*
X4459732Y5362803D01*
X4457039Y5348528D01*
G37*
G36*
X4584700Y5346700D02*
G01*
X4687112Y5346700D01*
X4686960Y5348528D01*
X4684268Y5362803D01*
X4679746Y5376672D01*
X4673549Y5389829D01*
X4665776Y5402122D01*
X4656480Y5413349D01*
X4645863Y5423306D01*
X4634077Y5431840D01*
X4621326Y5438851D01*
X4607814Y5444236D01*
X4593691Y5447842D01*
X4584700Y5448960D01*
G37*
G36*
X4818735Y5472328D02*
G01*
X4833264Y5472328D01*
X4847691Y5474157D01*
X4861814Y5477764D01*
X4875326Y5483148D01*
X4888077Y5490159D01*
X4899863Y5498693D01*
X4910480Y5508650D01*
X4919776Y5519877D01*
X4927549Y5532170D01*
X4933746Y5545328D01*
X4938268Y5559196D01*
X4940960Y5573471D01*
X4941874Y5588000D01*
X4940960Y5602528D01*
X4938268Y5616803D01*
X4933746Y5630672D01*
X4927549Y5643829D01*
X4919776Y5656122D01*
X4910480Y5667349D01*
X4899863Y5677306D01*
X4888077Y5685840D01*
X4882184Y5689092D01*
X4879390Y5691378D01*
X4877562Y5694476D01*
X4876901Y5697982D01*
X4876901Y5701792D01*
X4877866Y5706110D01*
X4878933Y5708446D01*
X4881473Y5717895D01*
X4882337Y5727700D01*
X4881473Y5737504D01*
X4878933Y5746953D01*
X4874818Y5755894D01*
X4869180Y5763920D01*
X4862220Y5770880D01*
X4854194Y5776518D01*
X4845253Y5780633D01*
X4835804Y5783173D01*
X4826000Y5784037D01*
X4816195Y5783173D01*
X4806746Y5780633D01*
X4797806Y5776518D01*
X4789779Y5770880D01*
X4782820Y5763920D01*
X4777181Y5755894D01*
X4773066Y5746953D01*
X4770526Y5737504D01*
X4769662Y5727700D01*
X4770526Y5717895D01*
X4773066Y5708446D01*
X4774133Y5706110D01*
X4775098Y5701792D01*
X4775098Y5697982D01*
X4774438Y5694476D01*
X4772609Y5691378D01*
X4769815Y5689092D01*
X4763922Y5685840D01*
X4752136Y5677306D01*
X4741519Y5667349D01*
X4732223Y5656122D01*
X4724450Y5643829D01*
X4718253Y5630672D01*
X4713732Y5616803D01*
X4711039Y5602528D01*
X4710125Y5588000D01*
X4711039Y5573471D01*
X4713732Y5559196D01*
X4718253Y5545328D01*
X4724450Y5532170D01*
X4732223Y5519877D01*
X4741519Y5508650D01*
X4752136Y5498693D01*
X4763922Y5490159D01*
X4776673Y5483148D01*
X4790186Y5477764D01*
X4804308Y5474157D01*
G37*
G36*
X4584700Y5473039D02*
G01*
X4593691Y5474157D01*
X4607814Y5477764D01*
X4621326Y5483148D01*
X4634077Y5490159D01*
X4645863Y5498693D01*
X4656480Y5508650D01*
X4665776Y5519877D01*
X4673549Y5532170D01*
X4679746Y5545328D01*
X4684268Y5559196D01*
X4686960Y5573471D01*
X4687112Y5575300D01*
X4584700Y5575300D01*
G37*
G36*
X4559300Y5473039D02*
G01*
X4559300Y5575300D01*
X4456887Y5575300D01*
X4457039Y5573471D01*
X4459732Y5559196D01*
X4464253Y5545328D01*
X4470450Y5532170D01*
X4478223Y5519877D01*
X4487519Y5508650D01*
X4498136Y5498693D01*
X4509922Y5490159D01*
X4522673Y5483148D01*
X4536186Y5477764D01*
X4550308Y5474157D01*
G37*
G36*
X393700Y5473700D02*
G01*
X656336Y5473700D01*
X655929Y5484063D01*
X653034Y5507024D01*
X648208Y5529630D01*
X641553Y5551728D01*
X633018Y5573217D01*
X622757Y5593892D01*
X610819Y5613704D01*
X597204Y5632348D01*
X582117Y5649874D01*
X565607Y5666028D01*
X547827Y5680760D01*
X528828Y5693968D01*
X508812Y5705500D01*
X487934Y5715355D01*
X466242Y5723382D01*
X443992Y5729630D01*
X421284Y5733948D01*
X398322Y5736336D01*
X393700Y5736437D01*
G37*
G36*
X5473700Y5473700D02*
G01*
X5736336Y5473700D01*
X5735929Y5484063D01*
X5733034Y5507024D01*
X5728208Y5529630D01*
X5721553Y5551728D01*
X5713018Y5573217D01*
X5702757Y5593892D01*
X5690819Y5613704D01*
X5677204Y5632348D01*
X5662117Y5649874D01*
X5645607Y5666028D01*
X5627827Y5680760D01*
X5608828Y5693968D01*
X5588812Y5705500D01*
X5567934Y5715355D01*
X5546242Y5723382D01*
X5523992Y5729630D01*
X5501284Y5733948D01*
X5478322Y5736336D01*
X5473700Y5736437D01*
G37*
G36*
X5185410Y5473700D02*
G01*
X5448300Y5473700D01*
X5448300Y5736386D01*
X5432145Y5735370D01*
X5409285Y5732018D01*
X5386781Y5726734D01*
X5364835Y5719572D01*
X5343499Y5710631D01*
X5323027Y5699912D01*
X5303520Y5687568D01*
X5285130Y5673598D01*
X5267960Y5658104D01*
X5252161Y5641289D01*
X5237784Y5623153D01*
X5224983Y5603900D01*
X5213858Y5583682D01*
X5204460Y5562549D01*
X5196890Y5540756D01*
X5191150Y5518353D01*
X5187289Y5495594D01*
G37*
G36*
X105410Y5473700D02*
G01*
X368300Y5473700D01*
X368300Y5736386D01*
X352145Y5735370D01*
X329285Y5732018D01*
X306781Y5726734D01*
X284835Y5719572D01*
X263499Y5710631D01*
X243027Y5699912D01*
X223520Y5687568D01*
X205130Y5673598D01*
X187960Y5658104D01*
X172161Y5641289D01*
X157784Y5623153D01*
X144983Y5603900D01*
X133858Y5583682D01*
X124460Y5562549D01*
X116890Y5540756D01*
X111150Y5518353D01*
X107289Y5495594D01*
G37*
G36*
X4114037Y5582412D02*
G01*
X4193540Y5582412D01*
X4199839Y5583123D01*
X4205325Y5585002D01*
X4210202Y5588101D01*
X4214317Y5592165D01*
X4217365Y5597093D01*
X4219498Y5603138D01*
X4221632Y5606694D01*
X4225036Y5609132D01*
X4229100Y5609945D01*
X4233164Y5609132D01*
X4236567Y5606694D01*
X4238701Y5603138D01*
X4240834Y5597093D01*
X4243882Y5592165D01*
X4247997Y5588101D01*
X4252874Y5585002D01*
X4258360Y5583123D01*
X4264660Y5582412D01*
X4344162Y5582412D01*
X4350512Y5583123D01*
X4355947Y5585002D01*
X4360875Y5588101D01*
X4364939Y5592165D01*
X4368038Y5597093D01*
X4369968Y5602528D01*
X4370679Y5608878D01*
X4370679Y5636869D01*
X4371441Y5640730D01*
X4373626Y5644032D01*
X4402886Y5673293D01*
X4405782Y5675325D01*
X4413504Y5678881D01*
X4421530Y5684520D01*
X4428490Y5691479D01*
X4434128Y5699506D01*
X4438243Y5708446D01*
X4440783Y5717895D01*
X4441647Y5727700D01*
X4440783Y5737504D01*
X4438243Y5746953D01*
X4434128Y5755894D01*
X4428490Y5763920D01*
X4421530Y5770880D01*
X4413504Y5776518D01*
X4404563Y5780633D01*
X4395114Y5783173D01*
X4385310Y5784037D01*
X4375505Y5783173D01*
X4366056Y5780633D01*
X4357116Y5776518D01*
X4349089Y5770880D01*
X4342130Y5763920D01*
X4336491Y5755894D01*
X4332935Y5748172D01*
X4330903Y5745276D01*
X4309211Y5723585D01*
X4305909Y5721400D01*
X4301998Y5720588D01*
X4264660Y5720588D01*
X4258360Y5719876D01*
X4252874Y5717997D01*
X4247997Y5714898D01*
X4243882Y5710834D01*
X4240834Y5705906D01*
X4238701Y5699861D01*
X4236567Y5696305D01*
X4233164Y5693867D01*
X4229100Y5693054D01*
X4225036Y5693867D01*
X4221632Y5696305D01*
X4219498Y5699861D01*
X4217365Y5705906D01*
X4214317Y5710834D01*
X4210202Y5714898D01*
X4205325Y5717997D01*
X4199839Y5719876D01*
X4193540Y5720588D01*
X4114037Y5720588D01*
X4107687Y5719876D01*
X4102252Y5717997D01*
X4097324Y5714898D01*
X4093260Y5710834D01*
X4090162Y5705906D01*
X4088231Y5700471D01*
X4087063Y5695594D01*
X4084777Y5692698D01*
X4081627Y5690768D01*
X4078020Y5690108D01*
X4033469Y5690108D01*
X4029456Y5690971D01*
X4026052Y5693359D01*
X4023918Y5696915D01*
X4021886Y5702706D01*
X4018787Y5707634D01*
X4014724Y5711698D01*
X4009796Y5714796D01*
X4004360Y5716676D01*
X3998010Y5717387D01*
X3919169Y5717387D01*
X3912819Y5716676D01*
X3907383Y5714796D01*
X3902456Y5711698D01*
X3898392Y5707634D01*
X3895293Y5702706D01*
X3893413Y5697270D01*
X3892702Y5690920D01*
X3892702Y5612079D01*
X3893413Y5605729D01*
X3895293Y5600293D01*
X3898392Y5595366D01*
X3902456Y5591302D01*
X3907383Y5588203D01*
X3912819Y5586323D01*
X3919169Y5585612D01*
X3998010Y5585612D01*
X4004360Y5586323D01*
X4009796Y5588203D01*
X4014724Y5591302D01*
X4018787Y5595366D01*
X4021886Y5600293D01*
X4023918Y5606084D01*
X4026052Y5609640D01*
X4029456Y5612028D01*
X4033469Y5612892D01*
X4078020Y5612892D01*
X4081627Y5612231D01*
X4084777Y5610301D01*
X4087063Y5607405D01*
X4088231Y5602528D01*
X4090162Y5597093D01*
X4093260Y5592165D01*
X4097324Y5588101D01*
X4102252Y5585002D01*
X4107687Y5583123D01*
G37*
G36*
X2596438Y5583682D02*
G01*
X2626563Y5583682D01*
X2632862Y5584393D01*
X2641142Y5587593D01*
X2643936Y5588000D01*
X2970784Y5588000D01*
X2971800Y5589016D01*
X2971800Y5713984D01*
X2970784Y5715000D01*
X2639822Y5715000D01*
X2636469Y5715558D01*
X2632862Y5716828D01*
X2626563Y5717540D01*
X2596438Y5717540D01*
X2590139Y5716828D01*
X2586532Y5715558D01*
X2583180Y5715000D01*
X2575560Y5715000D01*
X2571648Y5715762D01*
X2568397Y5717997D01*
X2566162Y5721248D01*
X2565400Y5725160D01*
X2565400Y5589016D01*
X2566416Y5588000D01*
X2579065Y5588000D01*
X2581859Y5587593D01*
X2584653Y5586323D01*
X2590139Y5584393D01*
G37*
G36*
X3801110Y5585612D02*
G01*
X3827830Y5585612D01*
X3834180Y5586323D01*
X3839616Y5588203D01*
X3844544Y5591302D01*
X3848608Y5595366D01*
X3851706Y5600293D01*
X3853586Y5605729D01*
X3854297Y5612079D01*
X3854297Y5638800D01*
X3801110Y5638800D01*
G37*
G36*
X3748989Y5585612D02*
G01*
X3775710Y5585612D01*
X3775710Y5638800D01*
X3722522Y5638800D01*
X3722522Y5612079D01*
X3723233Y5605729D01*
X3725113Y5600293D01*
X3728212Y5595366D01*
X3732276Y5591302D01*
X3737203Y5588203D01*
X3742639Y5586323D01*
G37*
G36*
X4584700Y5600700D02*
G01*
X4687112Y5600700D01*
X4686960Y5602528D01*
X4684268Y5616803D01*
X4679746Y5630672D01*
X4673549Y5643829D01*
X4665776Y5656122D01*
X4656480Y5667349D01*
X4645863Y5677306D01*
X4634077Y5685840D01*
X4621326Y5692851D01*
X4607814Y5698236D01*
X4593691Y5701842D01*
X4584700Y5702960D01*
G37*
G36*
X4456887Y5600700D02*
G01*
X4559300Y5600700D01*
X4559300Y5702960D01*
X4550308Y5701842D01*
X4536186Y5698236D01*
X4522673Y5692851D01*
X4509922Y5685840D01*
X4498136Y5677306D01*
X4487519Y5667349D01*
X4478223Y5656122D01*
X4470450Y5643829D01*
X4464253Y5630672D01*
X4459732Y5616803D01*
X4457039Y5602528D01*
G37*
G36*
X3801110Y5664200D02*
G01*
X3854297Y5664200D01*
X3854297Y5690920D01*
X3853586Y5697270D01*
X3851706Y5702706D01*
X3848608Y5707634D01*
X3844544Y5711698D01*
X3839616Y5714796D01*
X3834180Y5716676D01*
X3827830Y5717387D01*
X3801110Y5717387D01*
G37*
G36*
X2733802Y4614926D02*
G01*
X2747619Y4615789D01*
X2761183Y4618532D01*
X2774340Y4622952D01*
X2786735Y4629099D01*
X2798267Y4636770D01*
X2808681Y4645914D01*
X2817825Y4656328D01*
X2825496Y4667859D01*
X2831642Y4680254D01*
X2836062Y4693412D01*
X2838805Y4706975D01*
X2839669Y4720793D01*
X2838805Y4734610D01*
X2836062Y4748174D01*
X2831642Y4761331D01*
X2825496Y4773726D01*
X2817825Y4785258D01*
X2808681Y4795672D01*
X2798267Y4804816D01*
X2786735Y4812487D01*
X2774340Y4818634D01*
X2761183Y4823053D01*
X2747619Y4825796D01*
X2733802Y4826660D01*
X2719984Y4825796D01*
X2706420Y4823053D01*
X2693263Y4818634D01*
X2680868Y4812487D01*
X2669336Y4804816D01*
X2658922Y4795672D01*
X2649778Y4785258D01*
X2642108Y4773726D01*
X2635961Y4761331D01*
X2631541Y4748174D01*
X2628798Y4734610D01*
X2627934Y4720793D01*
X2628798Y4706975D01*
X2631541Y4693412D01*
X2635961Y4680254D01*
X2642108Y4667859D01*
X2649778Y4656328D01*
X2658922Y4645914D01*
X2669336Y4636770D01*
X2680868Y4629099D01*
X2693263Y4622952D01*
X2706420Y4618532D01*
X2719984Y4615789D01*
G37*

%LPD*%
G36*
X2842768Y2159000D02*
G01*
X2838856Y2159762D01*
X2835605Y2161997D01*
X2833370Y2165248D01*
X2832608Y2169160D01*
X2832608Y3570732D01*
X2833370Y3574643D01*
X2835605Y3577894D01*
X2838856Y3580129D01*
X2842768Y3580892D01*
X5288991Y3580892D01*
X5292902Y3580129D01*
X5296204Y3577894D01*
X5297779Y3576320D01*
X5305806Y3570681D01*
X5314746Y3566566D01*
X5324195Y3564026D01*
X5334000Y3563162D01*
X5343804Y3564026D01*
X5353253Y3566566D01*
X5362194Y3570681D01*
X5370220Y3576320D01*
X5377180Y3583279D01*
X5382818Y3591306D01*
X5386933Y3600246D01*
X5389473Y3609695D01*
X5390337Y3619500D01*
X5389473Y3629304D01*
X5388864Y3631590D01*
X5388559Y3635298D01*
X5389626Y3638854D01*
X5391912Y3641801D01*
X5395061Y3643731D01*
X5398668Y3644392D01*
X5530291Y3644392D01*
X5534202Y3643629D01*
X5537504Y3641394D01*
X5539079Y3639820D01*
X5547106Y3634181D01*
X5556046Y3630066D01*
X5565495Y3627526D01*
X5575300Y3626662D01*
X5585104Y3627526D01*
X5594553Y3630066D01*
X5603494Y3634181D01*
X5611520Y3639820D01*
X5618480Y3646779D01*
X5624118Y3654806D01*
X5628233Y3663746D01*
X5631840Y3677310D01*
X5634075Y3680307D01*
X5637276Y3682288D01*
X5640984Y3683000D01*
X5780836Y3683000D01*
X5784697Y3682237D01*
X5787999Y3680002D01*
X5790234Y3676751D01*
X5790996Y3672840D01*
X5790234Y3668928D01*
X5787999Y3665677D01*
X5707227Y3584905D01*
X5703925Y3582670D01*
X5700064Y3581908D01*
X5461406Y3581908D01*
X5457596Y3581603D01*
X5450535Y3579571D01*
X5445658Y3576828D01*
X5442407Y3574034D01*
X5315966Y3447592D01*
X5313476Y3444697D01*
X5309920Y3438245D01*
X5308396Y3432860D01*
X5308092Y3428593D01*
X5308092Y2413406D01*
X5308396Y2409596D01*
X5310428Y2402535D01*
X5313172Y2397658D01*
X5315966Y2394407D01*
X5442407Y2267966D01*
X5445302Y2265476D01*
X5451754Y2261920D01*
X5457139Y2260396D01*
X5461406Y2260092D01*
X5700064Y2260092D01*
X5703925Y2259330D01*
X5707227Y2257094D01*
X5787999Y2176322D01*
X5790234Y2173071D01*
X5790996Y2169160D01*
X5790234Y2165248D01*
X5787999Y2161997D01*
X5784697Y2159762D01*
X5780836Y2159000D01*
X5432450Y2159000D01*
X5428538Y2159762D01*
X5425287Y2161997D01*
X5267655Y2319629D01*
X5265420Y2322880D01*
X5264658Y2326792D01*
X5264658Y3428593D01*
X5263845Y3438499D01*
X5261508Y3447694D01*
X5257698Y3456432D01*
X5252466Y3464407D01*
X5246014Y3471418D01*
X5238496Y3477260D01*
X5230164Y3481781D01*
X5221122Y3484879D01*
X5211775Y3486404D01*
X5202224Y3486404D01*
X5192877Y3484879D01*
X5183835Y3481781D01*
X5175504Y3477260D01*
X5167985Y3471418D01*
X5161534Y3464407D01*
X5156301Y3456432D01*
X5152491Y3447694D01*
X5150154Y3438499D01*
X5149342Y3428593D01*
X5149342Y2299106D01*
X5150154Y2289200D01*
X5152491Y2280005D01*
X5156301Y2271268D01*
X5161584Y2263241D01*
X5166461Y2257704D01*
X5247792Y2176322D01*
X5250027Y2173071D01*
X5250789Y2169160D01*
X5250027Y2165248D01*
X5247792Y2161997D01*
X5244541Y2159762D01*
X5240629Y2159000D01*
X4766818Y2159000D01*
X4762906Y2159762D01*
X4759655Y2161997D01*
X4757420Y2165248D01*
X4756658Y2169160D01*
X4756658Y2412593D01*
X4755845Y2422499D01*
X4753508Y2431694D01*
X4749698Y2440432D01*
X4744466Y2448407D01*
X4738014Y2455418D01*
X4730496Y2461260D01*
X4722164Y2465781D01*
X4713122Y2468880D01*
X4703775Y2470404D01*
X4694224Y2470404D01*
X4684877Y2468880D01*
X4675835Y2465781D01*
X4667504Y2461260D01*
X4659985Y2455418D01*
X4653534Y2448407D01*
X4648301Y2440432D01*
X4644491Y2431694D01*
X4642154Y2422499D01*
X4641342Y2412593D01*
X4641342Y2169160D01*
X4640580Y2165248D01*
X4638344Y2161997D01*
X4635093Y2159762D01*
X4631182Y2159000D01*
G37*

%LPD*%
G36*
X2589479Y2159000D02*
G01*
X2585618Y2159762D01*
X2582316Y2161997D01*
X2580081Y2165248D01*
X2579319Y2169160D01*
X2578608Y3634232D01*
X2579420Y3638092D01*
X2581605Y3641394D01*
X2584907Y3643629D01*
X2588768Y3644392D01*
X2729331Y3644392D01*
X2732938Y3643731D01*
X2736088Y3641801D01*
X2738374Y3638854D01*
X2739440Y3635298D01*
X2739136Y3631590D01*
X2738526Y3629304D01*
X2737662Y3619500D01*
X2738526Y3609695D01*
X2741066Y3600246D01*
X2745181Y3591306D01*
X2750820Y3583279D01*
X2752394Y3581704D01*
X2754630Y3578402D01*
X2755392Y3574491D01*
X2755392Y2169160D01*
X2754630Y2165248D01*
X2752394Y2161997D01*
X2749143Y2159762D01*
X2745232Y2159000D01*
G37*

%LPD*%
G36*
X4695037Y482041D02*
G01*
X4691126Y482803D01*
X4687824Y484987D01*
X4685588Y488289D01*
X4684826Y492201D01*
X4684115Y500227D01*
X4682185Y505714D01*
X4679086Y510590D01*
X4675022Y514705D01*
X4672279Y516432D01*
X4669739Y518668D01*
X4668062Y521665D01*
X4667504Y525018D01*
X4667504Y939495D01*
X4666691Y947521D01*
X4664506Y954735D01*
X4660950Y961440D01*
X4655820Y967638D01*
X4419244Y1204214D01*
X4416958Y1207719D01*
X4416298Y1211884D01*
X4417314Y1215898D01*
X4419904Y1219200D01*
X4423613Y1221181D01*
X4427778Y1221486D01*
X4431690Y1220114D01*
X4434484Y1218438D01*
X4448352Y1212189D01*
X4462881Y1207668D01*
X4477816Y1204925D01*
X4493006Y1204010D01*
X4508195Y1204925D01*
X4523130Y1207668D01*
X4537659Y1212189D01*
X4551527Y1218438D01*
X4564532Y1226312D01*
X4576470Y1235659D01*
X4587240Y1246428D01*
X4596587Y1258366D01*
X4604461Y1271371D01*
X4610760Y1285290D01*
X4612944Y1288491D01*
X4616196Y1290574D01*
X4620006Y1291285D01*
X4623816Y1290574D01*
X4627067Y1288491D01*
X4629251Y1285290D01*
X4635550Y1271371D01*
X4643424Y1258366D01*
X4652772Y1246428D01*
X4663541Y1235659D01*
X4675479Y1226312D01*
X4688484Y1218438D01*
X4702352Y1212189D01*
X4716881Y1207668D01*
X4731816Y1204925D01*
X4747006Y1204010D01*
X4762195Y1204925D01*
X4777130Y1207668D01*
X4791659Y1212189D01*
X4805527Y1218438D01*
X4818532Y1226312D01*
X4830470Y1235659D01*
X4841240Y1246428D01*
X4850587Y1258366D01*
X4858461Y1271371D01*
X4864760Y1285290D01*
X4866944Y1288491D01*
X4870196Y1290574D01*
X4874006Y1291285D01*
X4877816Y1290574D01*
X4881067Y1288491D01*
X4883251Y1285290D01*
X4889550Y1271371D01*
X4897424Y1258366D01*
X4906772Y1246428D01*
X4917541Y1235659D01*
X4929479Y1226312D01*
X4942484Y1218438D01*
X4956403Y1212189D01*
X4959553Y1209954D01*
X4961686Y1206703D01*
X4962398Y1202893D01*
X4962398Y638860D01*
X4961940Y635812D01*
X4960569Y633018D01*
X4954981Y625094D01*
X4950866Y616153D01*
X4948326Y606704D01*
X4947462Y596900D01*
X4948326Y587095D01*
X4950866Y577646D01*
X4954981Y568706D01*
X4960620Y560679D01*
X4962194Y559104D01*
X4964430Y555802D01*
X4965192Y551891D01*
X4965192Y522935D01*
X4964328Y518820D01*
X4961890Y515416D01*
X4958283Y513283D01*
X4951323Y510946D01*
X4946497Y507898D01*
X4942382Y503834D01*
X4939334Y498906D01*
X4937201Y492861D01*
X4935067Y489305D01*
X4931664Y486867D01*
X4927600Y486054D01*
X4923536Y486867D01*
X4920132Y489305D01*
X4917998Y492861D01*
X4915865Y498906D01*
X4912817Y503834D01*
X4908702Y507898D01*
X4903825Y510997D01*
X4898339Y512876D01*
X4892040Y513588D01*
X4812538Y513588D01*
X4806188Y512876D01*
X4800752Y510997D01*
X4795824Y507898D01*
X4791760Y503834D01*
X4788662Y498906D01*
X4786731Y493471D01*
X4785512Y488137D01*
X4783277Y485241D01*
X4780127Y483311D01*
X4776520Y482600D01*
G37*

%LPD*%
G36*
X5805932Y25908D02*
G01*
X36068Y26416D01*
X32156Y27178D01*
X28905Y29413D01*
X26670Y32664D01*
X25908Y36576D01*
X25908Y3881932D01*
X26670Y3885793D01*
X28905Y3889095D01*
X32156Y3891330D01*
X36068Y3892092D01*
X39979Y3891330D01*
X43230Y3889095D01*
X66243Y3866134D01*
X68072Y3863644D01*
X69088Y3860698D01*
X69138Y3857599D01*
X67157Y3842512D01*
X67157Y3828287D01*
X68935Y3814216D01*
X72542Y3800449D01*
X77876Y3787292D01*
X84886Y3774897D01*
X93370Y3763518D01*
X103225Y3753307D01*
X114350Y3744468D01*
X126492Y3737101D01*
X139496Y3731310D01*
X153111Y3727297D01*
X167132Y3725011D01*
X181356Y3724554D01*
X195478Y3725926D01*
X209346Y3729075D01*
X222707Y3734003D01*
X235305Y3740556D01*
X246938Y3748684D01*
X257454Y3758234D01*
X266649Y3769055D01*
X274421Y3780993D01*
X280568Y3793794D01*
X285038Y3807256D01*
X287782Y3821226D01*
X288696Y3835400D01*
X287782Y3849573D01*
X285038Y3863543D01*
X280568Y3877005D01*
X274421Y3889806D01*
X266649Y3901744D01*
X257454Y3912565D01*
X246938Y3922115D01*
X235305Y3930243D01*
X222707Y3936796D01*
X209346Y3941724D01*
X195478Y3944874D01*
X181356Y3946245D01*
X167132Y3945788D01*
X156006Y3943959D01*
X152806Y3943959D01*
X149809Y3944924D01*
X147218Y3946804D01*
X123647Y3970375D01*
X121412Y3973677D01*
X120650Y3977589D01*
X120650Y4638446D01*
X121412Y4642256D01*
X123494Y4645507D01*
X126644Y4647742D01*
X130352Y4648606D01*
X134213Y4648047D01*
X137515Y4646117D01*
X148132Y4636770D01*
X159664Y4629099D01*
X172059Y4622952D01*
X185216Y4618532D01*
X198780Y4615789D01*
X212598Y4614926D01*
X226415Y4615789D01*
X239979Y4618532D01*
X253136Y4622952D01*
X265531Y4629099D01*
X277063Y4636770D01*
X287477Y4645914D01*
X296621Y4656328D01*
X304749Y4668520D01*
X307797Y4671517D01*
X311861Y4672990D01*
X316128Y4672634D01*
X319887Y4670552D01*
X322427Y4667097D01*
X323342Y4662881D01*
X323342Y4381906D01*
X324154Y4372000D01*
X326491Y4362805D01*
X330301Y4354068D01*
X335584Y4346041D01*
X340461Y4340504D01*
X612444Y4068470D01*
X614680Y4065219D01*
X615442Y4061307D01*
X615442Y3429406D01*
X616254Y3419500D01*
X618591Y3410305D01*
X622401Y3401568D01*
X627634Y3393592D01*
X634085Y3386582D01*
X641604Y3380740D01*
X649935Y3376218D01*
X658977Y3373120D01*
X668324Y3371596D01*
X677875Y3371596D01*
X687222Y3373120D01*
X696264Y3376218D01*
X704596Y3380740D01*
X712114Y3386582D01*
X718566Y3393592D01*
X723798Y3401568D01*
X727608Y3410305D01*
X729945Y3419500D01*
X730758Y3429406D01*
X730758Y4088993D01*
X729945Y4098899D01*
X727608Y4108094D01*
X723798Y4116832D01*
X718515Y4124858D01*
X713638Y4130395D01*
X441655Y4402429D01*
X439420Y4405680D01*
X438658Y4409592D01*
X438658Y4484471D01*
X439623Y4488789D01*
X442366Y4492294D01*
X446278Y4494326D01*
X450748Y4494428D01*
X454812Y4492650D01*
X457708Y4489348D01*
X458978Y4485081D01*
X459232Y4480610D01*
X461975Y4465675D01*
X466496Y4451146D01*
X472744Y4437278D01*
X480618Y4424273D01*
X489966Y4412335D01*
X500735Y4401566D01*
X512673Y4392218D01*
X525678Y4384344D01*
X539546Y4378096D01*
X554075Y4373575D01*
X569010Y4370832D01*
X584200Y4369917D01*
X599389Y4370832D01*
X614324Y4373575D01*
X628853Y4378096D01*
X635203Y4380941D01*
X639165Y4381855D01*
X643128Y4381093D01*
X646531Y4378858D01*
X847394Y4177995D01*
X849630Y4174693D01*
X850392Y4170781D01*
X850392Y4137660D01*
X849630Y4133748D01*
X847394Y4130497D01*
X844143Y4128262D01*
X840232Y4127500D01*
X763016Y4127500D01*
X762000Y4126484D01*
X762000Y3684015D01*
X763016Y3683000D01*
X2474366Y3683000D01*
X2478024Y3682288D01*
X2481224Y3680307D01*
X2483459Y3677310D01*
X2487066Y3663746D01*
X2491181Y3654806D01*
X2496820Y3646779D01*
X2498445Y3645154D01*
X2500630Y3641902D01*
X2501392Y3637991D01*
X2502103Y2169160D01*
X2501341Y2165299D01*
X2499156Y2161997D01*
X2495854Y2159762D01*
X2491943Y2159000D01*
X763016Y2159000D01*
X762000Y2157984D01*
X762000Y1715516D01*
X763016Y1714500D01*
X840232Y1714500D01*
X844143Y1713738D01*
X847394Y1711502D01*
X849630Y1708251D01*
X850392Y1704339D01*
X850392Y1657705D01*
X849630Y1653793D01*
X847394Y1650492D01*
X643737Y1446834D01*
X640334Y1444599D01*
X636371Y1443837D01*
X632409Y1444752D01*
X626059Y1447596D01*
X611530Y1452118D01*
X596595Y1454861D01*
X581406Y1455775D01*
X566216Y1454861D01*
X551281Y1452118D01*
X536752Y1447596D01*
X522884Y1441348D01*
X509879Y1433474D01*
X499516Y1425397D01*
X495452Y1423466D01*
X490931Y1423466D01*
X486918Y1425448D01*
X484124Y1429004D01*
X483108Y1433372D01*
X483108Y1440281D01*
X483870Y1444193D01*
X486105Y1447495D01*
X528320Y1489760D01*
X533450Y1495958D01*
X537006Y1502664D01*
X539191Y1509877D01*
X540004Y1517904D01*
X540004Y1758899D01*
X540816Y1762810D01*
X543052Y1766163D01*
X548233Y1771243D01*
X551281Y1776069D01*
X553212Y1781556D01*
X553923Y1787855D01*
X553923Y1893925D01*
X553212Y1900275D01*
X551281Y1905711D01*
X548182Y1910638D01*
X544118Y1914702D01*
X539191Y1917801D01*
X533755Y1919681D01*
X527405Y1920392D01*
X475386Y1920392D01*
X468528Y1919630D01*
X464261Y1920087D01*
X460552Y1922221D01*
X458063Y1925675D01*
X457250Y1929841D01*
X458165Y1934006D01*
X459333Y1936546D01*
X461873Y1945995D01*
X462737Y1955800D01*
X461873Y1965604D01*
X459333Y1975053D01*
X458165Y1977593D01*
X457250Y1981758D01*
X458063Y1985924D01*
X460552Y1989378D01*
X464261Y1991512D01*
X468528Y1991969D01*
X475386Y1991207D01*
X527405Y1991207D01*
X533755Y1991918D01*
X539191Y1993798D01*
X544118Y1996897D01*
X548182Y2000961D01*
X551281Y2005888D01*
X553212Y2011324D01*
X553923Y2017674D01*
X553923Y2123744D01*
X553212Y2130044D01*
X551281Y2135530D01*
X548233Y2140356D01*
X543052Y2145436D01*
X540816Y2148789D01*
X540004Y2152700D01*
X540004Y2208377D01*
X540766Y2212289D01*
X543001Y2215591D01*
X598424Y2271064D01*
X603554Y2277262D01*
X607110Y2283968D01*
X609295Y2291181D01*
X610108Y2299208D01*
X610108Y2372868D01*
X611022Y2377033D01*
X613511Y2380437D01*
X617220Y2382570D01*
X621436Y2382977D01*
X625500Y2381605D01*
X628599Y2378710D01*
X631494Y2375204D01*
X633730Y2371902D01*
X634492Y2367991D01*
X634492Y2000808D01*
X633730Y1996897D01*
X631494Y1993595D01*
X629920Y1992020D01*
X624281Y1983993D01*
X620166Y1975053D01*
X617626Y1965604D01*
X616762Y1955800D01*
X617626Y1945995D01*
X620166Y1936546D01*
X624281Y1927606D01*
X629920Y1919579D01*
X636879Y1912620D01*
X644906Y1906981D01*
X653846Y1902866D01*
X663295Y1900326D01*
X673100Y1899462D01*
X682904Y1900326D01*
X692353Y1902866D01*
X701294Y1906981D01*
X709320Y1912620D01*
X716280Y1919579D01*
X721918Y1927606D01*
X726033Y1936546D01*
X728573Y1945995D01*
X729437Y1955800D01*
X728573Y1965604D01*
X726033Y1975053D01*
X721918Y1983993D01*
X716280Y1992020D01*
X714705Y1993595D01*
X712470Y1996897D01*
X711708Y2000808D01*
X711708Y2367991D01*
X712470Y2371902D01*
X714705Y2375204D01*
X716280Y2376779D01*
X721918Y2384806D01*
X726033Y2393746D01*
X728573Y2403195D01*
X729437Y2413000D01*
X728573Y2422804D01*
X726033Y2432253D01*
X721918Y2441194D01*
X716280Y2449220D01*
X709320Y2456180D01*
X701294Y2461818D01*
X692353Y2465933D01*
X682904Y2468473D01*
X673100Y2469337D01*
X663295Y2468473D01*
X653846Y2465933D01*
X644906Y2461818D01*
X636879Y2456180D01*
X629920Y2449220D01*
X628599Y2447290D01*
X625500Y2444394D01*
X621436Y2443022D01*
X617220Y2443429D01*
X613511Y2445562D01*
X611022Y2448966D01*
X610108Y2453132D01*
X610108Y2560472D01*
X610870Y2564333D01*
X613105Y2567635D01*
X616356Y2569819D01*
X620268Y2570632D01*
X624179Y2569819D01*
X627430Y2567635D01*
X631596Y2563520D01*
X636473Y2560421D01*
X641959Y2558542D01*
X648258Y2557780D01*
X901141Y2557780D01*
X907440Y2558542D01*
X912926Y2560421D01*
X917803Y2563520D01*
X921918Y2567584D01*
X925169Y2572816D01*
X927150Y2575052D01*
X929640Y2576677D01*
X940308Y2581402D01*
X952449Y2588768D01*
X963574Y2597607D01*
X973429Y2607818D01*
X981913Y2619197D01*
X988923Y2631592D01*
X994257Y2644749D01*
X997864Y2658516D01*
X999642Y2672588D01*
X999642Y2686812D01*
X997864Y2700883D01*
X994257Y2714650D01*
X988923Y2727807D01*
X981913Y2740202D01*
X973429Y2751582D01*
X963574Y2761792D01*
X952449Y2770632D01*
X940308Y2777998D01*
X928369Y2783281D01*
X925830Y2784906D01*
X923899Y2787192D01*
X921918Y2790342D01*
X917803Y2794406D01*
X913130Y2797352D01*
X910183Y2800197D01*
X908608Y2803906D01*
X908608Y2808020D01*
X910183Y2811729D01*
X913130Y2814574D01*
X917803Y2817520D01*
X921918Y2821584D01*
X925271Y2826918D01*
X927303Y2829306D01*
X930046Y2830931D01*
X937107Y2833776D01*
X949502Y2840786D01*
X960882Y2849270D01*
X971092Y2859125D01*
X979932Y2870250D01*
X987298Y2882392D01*
X993089Y2895396D01*
X997102Y2909011D01*
X999388Y2923032D01*
X999845Y2937256D01*
X998474Y2951378D01*
X995324Y2965246D01*
X990396Y2978607D01*
X983843Y2991205D01*
X975715Y3002838D01*
X966165Y3013354D01*
X955344Y3022549D01*
X943406Y3030321D01*
X926236Y3038551D01*
X923899Y3041142D01*
X921918Y3044342D01*
X917803Y3048406D01*
X913130Y3051352D01*
X910183Y3054197D01*
X908608Y3057906D01*
X908608Y3062020D01*
X910183Y3065729D01*
X913130Y3068574D01*
X917803Y3071520D01*
X921918Y3075584D01*
X925169Y3080816D01*
X927150Y3083052D01*
X929640Y3084677D01*
X940308Y3089402D01*
X952449Y3096768D01*
X963574Y3105607D01*
X973429Y3115818D01*
X981913Y3127197D01*
X988923Y3139592D01*
X994257Y3152749D01*
X997864Y3166516D01*
X999642Y3180588D01*
X999642Y3194812D01*
X997864Y3208883D01*
X994257Y3222650D01*
X988923Y3235807D01*
X981913Y3248202D01*
X973429Y3259582D01*
X963574Y3269792D01*
X952449Y3278632D01*
X940308Y3285998D01*
X928369Y3291281D01*
X925830Y3292906D01*
X923899Y3295192D01*
X921918Y3298342D01*
X917803Y3302406D01*
X912926Y3305505D01*
X907440Y3307384D01*
X901141Y3308096D01*
X648258Y3308096D01*
X641959Y3307384D01*
X636473Y3305505D01*
X631596Y3302406D01*
X627481Y3298342D01*
X624433Y3293414D01*
X622503Y3287979D01*
X621792Y3281629D01*
X621792Y3092297D01*
X622503Y3085947D01*
X624433Y3080512D01*
X627481Y3075584D01*
X631596Y3071520D01*
X636270Y3068574D01*
X639216Y3065729D01*
X640842Y3062020D01*
X640842Y3057906D01*
X639216Y3054197D01*
X636270Y3051352D01*
X631596Y3048406D01*
X627481Y3044342D01*
X624433Y3039414D01*
X622503Y3033979D01*
X621792Y3027629D01*
X621792Y2838297D01*
X622503Y2831947D01*
X624433Y2826512D01*
X627481Y2821584D01*
X631596Y2817520D01*
X636270Y2814574D01*
X639216Y2811729D01*
X640842Y2808020D01*
X640842Y2803906D01*
X639216Y2800197D01*
X636270Y2797352D01*
X631596Y2794406D01*
X627481Y2790342D01*
X624433Y2785414D01*
X622503Y2779979D01*
X621792Y2773629D01*
X621792Y2732532D01*
X620826Y2728214D01*
X618185Y2724759D01*
X614273Y2722727D01*
X609854Y2722524D01*
X605790Y2724200D01*
X599694Y2728518D01*
X590753Y2732633D01*
X581304Y2735173D01*
X571500Y2736037D01*
X561695Y2735173D01*
X552246Y2732633D01*
X543306Y2728518D01*
X535279Y2722880D01*
X528320Y2715920D01*
X522681Y2707894D01*
X518566Y2698953D01*
X516026Y2689504D01*
X515162Y2679700D01*
X516026Y2669895D01*
X518566Y2660446D01*
X522681Y2651506D01*
X528320Y2643479D01*
X529894Y2641904D01*
X532130Y2638602D01*
X532892Y2634691D01*
X532892Y2318918D01*
X532130Y2315006D01*
X529894Y2311704D01*
X474472Y2256231D01*
X469341Y2250033D01*
X465785Y2243328D01*
X463600Y2236114D01*
X462788Y2228088D01*
X462788Y2154275D01*
X461873Y2150110D01*
X459333Y2146655D01*
X455574Y2144572D01*
X451256Y2144217D01*
X447243Y2145690D01*
X444195Y2147570D01*
X438759Y2149500D01*
X432409Y2150211D01*
X419100Y2150211D01*
X419100Y2083409D01*
X438708Y2083409D01*
X442620Y2082647D01*
X445922Y2080412D01*
X448106Y2077110D01*
X448868Y2073249D01*
X448868Y2068169D01*
X448106Y2064257D01*
X445922Y2060956D01*
X442620Y2058771D01*
X438708Y2058009D01*
X419100Y2058009D01*
X419100Y2022144D01*
X418338Y2018233D01*
X416102Y2014931D01*
X412851Y2012746D01*
X408940Y2011984D01*
X403860Y2011984D01*
X399948Y2012746D01*
X396697Y2014931D01*
X394462Y2018233D01*
X393700Y2022144D01*
X393700Y2058009D01*
X374091Y2058009D01*
X370179Y2058771D01*
X366877Y2060956D01*
X364693Y2064257D01*
X363931Y2068169D01*
X363931Y2073249D01*
X364693Y2077110D01*
X366877Y2080412D01*
X370179Y2082647D01*
X374091Y2083409D01*
X393700Y2083409D01*
X393700Y2150211D01*
X380390Y2150211D01*
X374040Y2149500D01*
X368604Y2147570D01*
X365556Y2145690D01*
X361543Y2144217D01*
X357225Y2144572D01*
X353466Y2146655D01*
X350926Y2150110D01*
X350012Y2154275D01*
X350012Y3142691D01*
X350774Y3146602D01*
X353009Y3149904D01*
X356158Y3153765D01*
X359257Y3156661D01*
X363321Y3158032D01*
X367538Y3157626D01*
X371246Y3155492D01*
X373735Y3152089D01*
X374650Y3147923D01*
X374650Y2413406D01*
X375462Y2403602D01*
X377748Y2394458D01*
X381558Y2385822D01*
X386740Y2377897D01*
X393090Y2370988D01*
X400558Y2365197D01*
X408838Y2360676D01*
X417779Y2357628D01*
X427075Y2356053D01*
X436524Y2356053D01*
X445820Y2357628D01*
X454761Y2360676D01*
X463042Y2365197D01*
X470509Y2370988D01*
X476859Y2377897D01*
X482041Y2385822D01*
X485851Y2394458D01*
X488137Y2403602D01*
X488950Y2413406D01*
X488950Y3735070D01*
X489458Y3738270D01*
X490982Y3741115D01*
X493318Y3743401D01*
X500938Y3748684D01*
X511454Y3758234D01*
X520649Y3769055D01*
X528421Y3780993D01*
X534568Y3793794D01*
X539038Y3807256D01*
X541782Y3821226D01*
X542696Y3835400D01*
X541782Y3849573D01*
X539038Y3863543D01*
X534568Y3877005D01*
X528421Y3889806D01*
X520649Y3901744D01*
X511454Y3912565D01*
X500938Y3922115D01*
X489305Y3930243D01*
X476707Y3936796D01*
X463346Y3941724D01*
X449478Y3944874D01*
X435356Y3946245D01*
X421132Y3945788D01*
X407111Y3943502D01*
X393496Y3939438D01*
X380492Y3933698D01*
X368350Y3926332D01*
X357225Y3917492D01*
X347370Y3907282D01*
X338886Y3895902D01*
X331876Y3883507D01*
X326542Y3870350D01*
X322935Y3856583D01*
X321157Y3842512D01*
X321157Y3828287D01*
X322935Y3814216D01*
X326542Y3800449D01*
X331876Y3787292D01*
X338886Y3774897D01*
X347370Y3763518D01*
X357225Y3753307D01*
X372364Y3741318D01*
X374040Y3738321D01*
X374650Y3734917D01*
X374650Y3227476D01*
X373735Y3223310D01*
X371246Y3219907D01*
X367538Y3217773D01*
X363321Y3217367D01*
X359257Y3218738D01*
X356158Y3221634D01*
X354584Y3223920D01*
X347624Y3230880D01*
X339598Y3236518D01*
X330657Y3240633D01*
X321208Y3243173D01*
X311404Y3244037D01*
X301599Y3243173D01*
X292150Y3240633D01*
X283210Y3236518D01*
X275183Y3230880D01*
X268224Y3223920D01*
X262585Y3215894D01*
X258470Y3206953D01*
X255930Y3197504D01*
X255066Y3187700D01*
X255930Y3177895D01*
X258470Y3168446D01*
X262585Y3159506D01*
X268224Y3151479D01*
X269798Y3149904D01*
X272034Y3146602D01*
X272796Y3142691D01*
X272796Y2152700D01*
X271983Y2148789D01*
X269748Y2145436D01*
X264566Y2140356D01*
X261518Y2135530D01*
X259588Y2130044D01*
X258876Y2123744D01*
X258876Y2017674D01*
X259588Y2011324D01*
X261518Y2005888D01*
X264617Y2000961D01*
X268681Y1996897D01*
X273608Y1993798D01*
X279044Y1991918D01*
X285394Y1991207D01*
X337413Y1991207D01*
X344271Y1991969D01*
X348538Y1991512D01*
X352247Y1989378D01*
X354736Y1985924D01*
X355549Y1981758D01*
X354634Y1977593D01*
X353466Y1975053D01*
X350926Y1965604D01*
X350062Y1955800D01*
X350926Y1945995D01*
X353466Y1936546D01*
X354634Y1934006D01*
X355549Y1929841D01*
X354736Y1925675D01*
X352247Y1922221D01*
X348538Y1920087D01*
X344271Y1919630D01*
X337413Y1920392D01*
X285394Y1920392D01*
X279044Y1919681D01*
X273608Y1917801D01*
X268681Y1914702D01*
X264617Y1910638D01*
X261518Y1905711D01*
X259588Y1900275D01*
X258876Y1893925D01*
X258876Y1787855D01*
X259588Y1781556D01*
X261518Y1776069D01*
X264566Y1771243D01*
X269748Y1766163D01*
X271983Y1762810D01*
X272796Y1758899D01*
X272796Y1530604D01*
X273608Y1522577D01*
X275793Y1515364D01*
X279349Y1508658D01*
X284480Y1502460D01*
X339394Y1447495D01*
X341630Y1444193D01*
X342392Y1440281D01*
X342392Y807008D01*
X341630Y803097D01*
X339394Y799795D01*
X337820Y798220D01*
X332181Y790194D01*
X328066Y781253D01*
X325526Y771804D01*
X324662Y762000D01*
X325526Y752195D01*
X328066Y742746D01*
X332181Y733806D01*
X337820Y725779D01*
X344779Y718820D01*
X352806Y713181D01*
X361746Y709066D01*
X371195Y706526D01*
X381000Y705662D01*
X390804Y706526D01*
X400253Y709066D01*
X409194Y713181D01*
X417220Y718820D01*
X424180Y725779D01*
X429818Y733806D01*
X433933Y742746D01*
X436473Y752195D01*
X437184Y760069D01*
X438099Y763473D01*
X440131Y766368D01*
X443026Y768400D01*
X446430Y769315D01*
X454304Y770026D01*
X463753Y772566D01*
X472693Y776681D01*
X480720Y782320D01*
X487680Y789279D01*
X493318Y797306D01*
X497433Y806246D01*
X499973Y815695D01*
X500837Y825500D01*
X499973Y835304D01*
X497433Y844753D01*
X493318Y853694D01*
X487680Y861720D01*
X486105Y863295D01*
X483870Y866597D01*
X483108Y870508D01*
X483108Y1226413D01*
X484124Y1230782D01*
X486918Y1234338D01*
X490931Y1236319D01*
X495452Y1236319D01*
X499516Y1234389D01*
X509879Y1226312D01*
X522884Y1218438D01*
X536752Y1212189D01*
X551281Y1207668D01*
X566216Y1204925D01*
X581406Y1204010D01*
X596595Y1204925D01*
X611530Y1207668D01*
X626059Y1212189D01*
X639927Y1218438D01*
X652932Y1226312D01*
X664870Y1235659D01*
X675640Y1246428D01*
X684987Y1258366D01*
X692861Y1271371D01*
X699160Y1285290D01*
X701344Y1288491D01*
X704596Y1290574D01*
X708406Y1291285D01*
X712216Y1290574D01*
X715467Y1288491D01*
X717651Y1285290D01*
X723950Y1271371D01*
X731824Y1258366D01*
X741172Y1246428D01*
X751941Y1235659D01*
X763879Y1226312D01*
X776884Y1218438D01*
X790752Y1212189D01*
X805281Y1207668D01*
X820216Y1204925D01*
X835406Y1204010D01*
X850595Y1204925D01*
X865530Y1207668D01*
X880059Y1212189D01*
X893927Y1218438D01*
X906932Y1226312D01*
X918870Y1235659D01*
X929640Y1246428D01*
X938987Y1258366D01*
X946861Y1271371D01*
X953160Y1285290D01*
X955344Y1288491D01*
X958596Y1290574D01*
X962406Y1291285D01*
X966216Y1290574D01*
X969467Y1288491D01*
X971651Y1285290D01*
X977950Y1271371D01*
X985824Y1258366D01*
X995171Y1246428D01*
X1005941Y1235659D01*
X1017879Y1226312D01*
X1030884Y1218438D01*
X1044752Y1212189D01*
X1059281Y1207668D01*
X1074216Y1204925D01*
X1089406Y1204010D01*
X1104595Y1204925D01*
X1119530Y1207668D01*
X1134059Y1212189D01*
X1147927Y1218438D01*
X1160932Y1226312D01*
X1172870Y1235659D01*
X1183640Y1246428D01*
X1192987Y1258366D01*
X1200861Y1271371D01*
X1207160Y1285290D01*
X1209344Y1288491D01*
X1212596Y1290574D01*
X1216406Y1291285D01*
X1220216Y1290574D01*
X1223467Y1288491D01*
X1225651Y1285290D01*
X1231950Y1271371D01*
X1239824Y1258366D01*
X1249172Y1246428D01*
X1259941Y1235659D01*
X1271879Y1226312D01*
X1284884Y1218438D01*
X1298752Y1212189D01*
X1313281Y1207668D01*
X1328216Y1204925D01*
X1343406Y1204010D01*
X1358595Y1204925D01*
X1373530Y1207668D01*
X1388059Y1212189D01*
X1401927Y1218438D01*
X1414932Y1226312D01*
X1426870Y1235659D01*
X1437640Y1246428D01*
X1446987Y1258366D01*
X1454861Y1271371D01*
X1461160Y1285290D01*
X1463344Y1288491D01*
X1466596Y1290574D01*
X1470406Y1291285D01*
X1474216Y1290574D01*
X1477467Y1288491D01*
X1479651Y1285290D01*
X1485950Y1271371D01*
X1493824Y1258366D01*
X1503172Y1246428D01*
X1513941Y1235659D01*
X1525879Y1226312D01*
X1538884Y1218438D01*
X1552752Y1212189D01*
X1567281Y1207668D01*
X1582216Y1204925D01*
X1597406Y1204010D01*
X1612595Y1204925D01*
X1627530Y1207668D01*
X1642059Y1212189D01*
X1655927Y1218438D01*
X1668932Y1226312D01*
X1680870Y1235659D01*
X1691639Y1246428D01*
X1700987Y1258366D01*
X1708861Y1271371D01*
X1715160Y1285290D01*
X1717344Y1288491D01*
X1720596Y1290574D01*
X1724406Y1291285D01*
X1728216Y1290574D01*
X1731467Y1288491D01*
X1733651Y1285290D01*
X1739950Y1271371D01*
X1747824Y1258366D01*
X1757172Y1246428D01*
X1767941Y1235659D01*
X1779879Y1226312D01*
X1792884Y1218438D01*
X1806752Y1212189D01*
X1821281Y1207668D01*
X1836216Y1204925D01*
X1851406Y1204010D01*
X1866595Y1204925D01*
X1881530Y1207668D01*
X1896059Y1212189D01*
X1909927Y1218438D01*
X1922932Y1226312D01*
X1934870Y1235659D01*
X1945639Y1246428D01*
X1954987Y1258366D01*
X1962861Y1271371D01*
X1969160Y1285290D01*
X1971344Y1288491D01*
X1974596Y1290574D01*
X1978406Y1291285D01*
X1982216Y1290574D01*
X1985467Y1288491D01*
X1987651Y1285290D01*
X1993950Y1271371D01*
X2001824Y1258366D01*
X2011172Y1246428D01*
X2021941Y1235659D01*
X2033879Y1226312D01*
X2046884Y1218438D01*
X2060752Y1212189D01*
X2075281Y1207668D01*
X2090216Y1204925D01*
X2105406Y1204010D01*
X2120595Y1204925D01*
X2135530Y1207668D01*
X2150059Y1212189D01*
X2163927Y1218438D01*
X2176932Y1226312D01*
X2188870Y1235659D01*
X2199640Y1246428D01*
X2208987Y1258366D01*
X2216861Y1271371D01*
X2223160Y1285290D01*
X2225344Y1288491D01*
X2228596Y1290574D01*
X2232406Y1291285D01*
X2236216Y1290574D01*
X2239467Y1288491D01*
X2241651Y1285290D01*
X2247950Y1271371D01*
X2255824Y1258366D01*
X2265172Y1246428D01*
X2275941Y1235659D01*
X2287879Y1226312D01*
X2300884Y1218438D01*
X2314752Y1212189D01*
X2329281Y1207668D01*
X2344216Y1204925D01*
X2359406Y1204010D01*
X2374595Y1204925D01*
X2389530Y1207668D01*
X2404059Y1212189D01*
X2417927Y1218438D01*
X2430932Y1226312D01*
X2442870Y1235659D01*
X2453640Y1246428D01*
X2462987Y1258366D01*
X2470861Y1271371D01*
X2477109Y1285240D01*
X2481630Y1299768D01*
X2482342Y1303731D01*
X2484018Y1307642D01*
X2487117Y1310589D01*
X2491130Y1311960D01*
X2495397Y1311605D01*
X2499106Y1309522D01*
X2501595Y1306068D01*
X2502509Y1301902D01*
X2502865Y564388D01*
X2502306Y561035D01*
X2500630Y558088D01*
X2498090Y555802D01*
X2495499Y554177D01*
X2491384Y550062D01*
X2488336Y545185D01*
X2486406Y539699D01*
X2485694Y533400D01*
X2485694Y379526D01*
X2486406Y373176D01*
X2488336Y367741D01*
X2491384Y362813D01*
X2495499Y358749D01*
X2500376Y355650D01*
X2505862Y353771D01*
X2512161Y353060D01*
X2571038Y353060D01*
X2577388Y353771D01*
X2582824Y355650D01*
X2586228Y357784D01*
X2589733Y359156D01*
X2593492Y359156D01*
X2596997Y357784D01*
X2600401Y355650D01*
X2605836Y353771D01*
X2612186Y353060D01*
X2628900Y353060D01*
X2628900Y443738D01*
X2607665Y443738D01*
X2603804Y444500D01*
X2600502Y446735D01*
X2598318Y450037D01*
X2597505Y453898D01*
X2597505Y458978D01*
X2598318Y462889D01*
X2600502Y466191D01*
X2603804Y468376D01*
X2607665Y469138D01*
X2628900Y469138D01*
X2628900Y559866D01*
X2612186Y559866D01*
X2605836Y559155D01*
X2600401Y557225D01*
X2596997Y555091D01*
X2593492Y553720D01*
X2589733Y553720D01*
X2584856Y555955D01*
X2582316Y558241D01*
X2580640Y561238D01*
X2580081Y564591D01*
X2580030Y680923D01*
X2580792Y684834D01*
X2582976Y688136D01*
X2586278Y690321D01*
X2590190Y691083D01*
X2594051Y690321D01*
X2597353Y688136D01*
X2700020Y585470D01*
X2702255Y582168D01*
X2703017Y578256D01*
X2703017Y564489D01*
X2702458Y561136D01*
X2700782Y558139D01*
X2697022Y555091D01*
X2693517Y553720D01*
X2689707Y553720D01*
X2686202Y555091D01*
X2682849Y557225D01*
X2677363Y559155D01*
X2671064Y559866D01*
X2654300Y559866D01*
X2654300Y469138D01*
X2675534Y469138D01*
X2679446Y468376D01*
X2682748Y466191D01*
X2684932Y462889D01*
X2685694Y458978D01*
X2685694Y453898D01*
X2684932Y450037D01*
X2682748Y446735D01*
X2679446Y444500D01*
X2675534Y443738D01*
X2654300Y443738D01*
X2654300Y353060D01*
X2671064Y353060D01*
X2677363Y353771D01*
X2682849Y355650D01*
X2686202Y357784D01*
X2689707Y359156D01*
X2693517Y359156D01*
X2697022Y357784D01*
X2700375Y355650D01*
X2705862Y353771D01*
X2712161Y353060D01*
X2771038Y353060D01*
X2777388Y353771D01*
X2782824Y355650D01*
X2787700Y358749D01*
X2791815Y362813D01*
X2794914Y367741D01*
X2796794Y373176D01*
X2797505Y379526D01*
X2797505Y533400D01*
X2796794Y539699D01*
X2794914Y545185D01*
X2791815Y550062D01*
X2787700Y554177D01*
X2785008Y555853D01*
X2782468Y558139D01*
X2780792Y561136D01*
X2780233Y564489D01*
X2780233Y597966D01*
X2779420Y605993D01*
X2777236Y613206D01*
X2773680Y619912D01*
X2768549Y626110D01*
X2645105Y749604D01*
X2642870Y752906D01*
X2642108Y756818D01*
X2642108Y1019911D01*
X2642819Y1023670D01*
X2644952Y1026921D01*
X2648051Y1029157D01*
X2651810Y1030071D01*
X2655620Y1029512D01*
X2658973Y1027531D01*
X2666542Y1020876D01*
X2678074Y1013206D01*
X2690469Y1007059D01*
X2703626Y1002639D01*
X2717190Y999896D01*
X2731008Y999032D01*
X2744825Y999896D01*
X2758389Y1002639D01*
X2771546Y1007059D01*
X2783941Y1013206D01*
X2795473Y1020876D01*
X2805887Y1030020D01*
X2815031Y1040434D01*
X2822702Y1051966D01*
X2828848Y1064361D01*
X2833268Y1077518D01*
X2836011Y1091082D01*
X2836875Y1104900D01*
X2836011Y1118717D01*
X2833268Y1132281D01*
X2828848Y1145438D01*
X2822702Y1157833D01*
X2815031Y1169365D01*
X2805887Y1179779D01*
X2795473Y1188923D01*
X2783941Y1196594D01*
X2771546Y1202740D01*
X2758389Y1207160D01*
X2744825Y1209903D01*
X2731008Y1210767D01*
X2717190Y1209903D01*
X2703626Y1207160D01*
X2690469Y1202740D01*
X2678074Y1196594D01*
X2666542Y1188923D01*
X2658973Y1182268D01*
X2655620Y1180287D01*
X2651810Y1179728D01*
X2648051Y1180642D01*
X2644952Y1182878D01*
X2642819Y1186129D01*
X2642108Y1189888D01*
X2642108Y1313281D01*
X2642870Y1317193D01*
X2645105Y1320495D01*
X2820924Y1496364D01*
X2826054Y1502562D01*
X2829610Y1509268D01*
X2831795Y1516481D01*
X2832608Y1524508D01*
X2832608Y1704339D01*
X2833370Y1708251D01*
X2835605Y1711502D01*
X2838856Y1713738D01*
X2842768Y1714500D01*
X2872232Y1714500D01*
X2876143Y1713738D01*
X2879394Y1711502D01*
X2881630Y1708251D01*
X2882392Y1704339D01*
X2882392Y1569008D01*
X2881630Y1565097D01*
X2879394Y1561795D01*
X2877820Y1560220D01*
X2872181Y1552194D01*
X2868066Y1543253D01*
X2865526Y1533804D01*
X2864662Y1524000D01*
X2865526Y1514195D01*
X2868066Y1504746D01*
X2872181Y1495806D01*
X2877820Y1487779D01*
X2879394Y1486204D01*
X2881630Y1482902D01*
X2882392Y1478991D01*
X2882392Y889508D01*
X2883204Y881481D01*
X2885389Y874268D01*
X2888945Y867562D01*
X2894076Y861364D01*
X3196539Y558850D01*
X3198723Y555599D01*
X3199485Y551738D01*
X3198774Y547878D01*
X3196742Y542950D01*
X3193135Y529183D01*
X3191357Y515112D01*
X3191357Y500888D01*
X3193135Y486816D01*
X3196742Y473049D01*
X3202076Y459892D01*
X3209086Y447497D01*
X3217570Y436118D01*
X3227425Y425907D01*
X3238550Y417068D01*
X3250692Y409701D01*
X3263696Y403910D01*
X3277311Y399897D01*
X3291332Y397611D01*
X3305556Y397154D01*
X3319678Y398526D01*
X3333546Y401675D01*
X3346907Y406603D01*
X3359505Y413156D01*
X3371138Y421284D01*
X3381654Y430834D01*
X3390849Y441655D01*
X3398621Y453593D01*
X3404768Y466394D01*
X3409238Y479856D01*
X3411982Y493826D01*
X3412896Y508000D01*
X3411982Y522173D01*
X3409238Y536143D01*
X3404768Y549605D01*
X3398621Y562406D01*
X3390849Y574344D01*
X3381654Y585165D01*
X3371138Y594715D01*
X3359505Y602843D01*
X3346907Y609396D01*
X3333546Y614324D01*
X3319678Y617474D01*
X3305556Y618845D01*
X3291332Y618388D01*
X3277311Y616102D01*
X3258362Y610565D01*
X3254400Y611327D01*
X3251047Y613562D01*
X2962605Y902004D01*
X2960370Y905306D01*
X2959608Y909218D01*
X2959608Y1478991D01*
X2960370Y1482902D01*
X2962605Y1486204D01*
X2964180Y1487779D01*
X2969818Y1495806D01*
X2973933Y1504746D01*
X2976473Y1514195D01*
X2977337Y1524000D01*
X2976473Y1533804D01*
X2973933Y1543253D01*
X2969818Y1552194D01*
X2964180Y1560220D01*
X2962605Y1561795D01*
X2960370Y1565097D01*
X2959608Y1569008D01*
X2959608Y1704339D01*
X2960370Y1708251D01*
X2962605Y1711502D01*
X2965856Y1713738D01*
X2969768Y1714500D01*
X3126232Y1714500D01*
X3130143Y1713738D01*
X3133394Y1711502D01*
X3135630Y1708251D01*
X3136392Y1704339D01*
X3136392Y1505508D01*
X3135630Y1501597D01*
X3133394Y1498295D01*
X3131820Y1496720D01*
X3126181Y1488694D01*
X3122066Y1479753D01*
X3119526Y1470304D01*
X3118662Y1460500D01*
X3119526Y1450695D01*
X3122066Y1441246D01*
X3126181Y1432306D01*
X3131820Y1424279D01*
X3138779Y1417320D01*
X3146806Y1411681D01*
X3155746Y1407566D01*
X3165195Y1405026D01*
X3175000Y1404162D01*
X3184804Y1405026D01*
X3194253Y1407566D01*
X3203194Y1411681D01*
X3211220Y1417320D01*
X3218180Y1424279D01*
X3223818Y1432306D01*
X3227933Y1441246D01*
X3230473Y1450695D01*
X3231337Y1460500D01*
X3230473Y1470304D01*
X3227933Y1479753D01*
X3223818Y1488694D01*
X3218180Y1496720D01*
X3216605Y1498295D01*
X3214370Y1501597D01*
X3213608Y1505508D01*
X3213608Y1704339D01*
X3214370Y1708251D01*
X3216605Y1711502D01*
X3219856Y1713738D01*
X3223768Y1714500D01*
X3380232Y1714500D01*
X3384143Y1713738D01*
X3387394Y1711502D01*
X3389629Y1708251D01*
X3390392Y1704339D01*
X3390392Y1651507D01*
X3391204Y1643481D01*
X3393389Y1636268D01*
X3396945Y1629562D01*
X3402076Y1623364D01*
X3435400Y1589989D01*
X3437636Y1586687D01*
X3438398Y1582775D01*
X3438398Y1456893D01*
X3437686Y1453083D01*
X3435553Y1449832D01*
X3432403Y1447596D01*
X3418484Y1441348D01*
X3405479Y1433474D01*
X3393541Y1424127D01*
X3382772Y1413357D01*
X3373424Y1401419D01*
X3365550Y1388414D01*
X3359302Y1374546D01*
X3354781Y1360017D01*
X3352037Y1345082D01*
X3351123Y1329893D01*
X3352037Y1314704D01*
X3354781Y1299768D01*
X3359302Y1285240D01*
X3365550Y1271371D01*
X3373424Y1258366D01*
X3382772Y1246428D01*
X3393541Y1235659D01*
X3405479Y1226312D01*
X3418484Y1218438D01*
X3432352Y1212189D01*
X3446881Y1207668D01*
X3461816Y1204925D01*
X3477006Y1204010D01*
X3492195Y1204925D01*
X3507130Y1207668D01*
X3521659Y1212189D01*
X3535527Y1218438D01*
X3548532Y1226312D01*
X3560470Y1235659D01*
X3571240Y1246428D01*
X3580587Y1258366D01*
X3588461Y1271371D01*
X3594760Y1285290D01*
X3596944Y1288491D01*
X3600196Y1290574D01*
X3604006Y1291285D01*
X3607815Y1290574D01*
X3611067Y1288491D01*
X3613251Y1285290D01*
X3619550Y1271371D01*
X3627424Y1258366D01*
X3636772Y1246428D01*
X3647541Y1235659D01*
X3659479Y1226312D01*
X3672484Y1218438D01*
X3686352Y1212189D01*
X3700881Y1207668D01*
X3715816Y1204925D01*
X3731006Y1204010D01*
X3746195Y1204925D01*
X3761130Y1207668D01*
X3775659Y1212189D01*
X3789527Y1218438D01*
X3802532Y1226312D01*
X3814470Y1235659D01*
X3825240Y1246428D01*
X3834587Y1258366D01*
X3842461Y1271371D01*
X3848760Y1285290D01*
X3850944Y1288491D01*
X3854196Y1290574D01*
X3858006Y1291285D01*
X3861815Y1290574D01*
X3865067Y1288491D01*
X3867251Y1285290D01*
X3873550Y1271371D01*
X3881424Y1258366D01*
X3890772Y1246428D01*
X3901541Y1235659D01*
X3913479Y1226312D01*
X3926484Y1218438D01*
X3940352Y1212189D01*
X3954881Y1207668D01*
X3969816Y1204925D01*
X3985006Y1204010D01*
X4000195Y1204925D01*
X4015130Y1207668D01*
X4029659Y1212189D01*
X4043527Y1218438D01*
X4056532Y1226312D01*
X4068470Y1235659D01*
X4079240Y1246428D01*
X4088587Y1258366D01*
X4096461Y1271371D01*
X4102760Y1285290D01*
X4104944Y1288491D01*
X4108196Y1290574D01*
X4112006Y1291285D01*
X4115815Y1290574D01*
X4119067Y1288491D01*
X4121251Y1285290D01*
X4127550Y1271371D01*
X4135424Y1258366D01*
X4144772Y1246428D01*
X4155541Y1235659D01*
X4167479Y1226312D01*
X4180484Y1218438D01*
X4194352Y1212189D01*
X4208881Y1207668D01*
X4223816Y1204925D01*
X4239006Y1204010D01*
X4254195Y1204925D01*
X4269130Y1207668D01*
X4283659Y1212189D01*
X4290009Y1215034D01*
X4293971Y1215948D01*
X4297934Y1215186D01*
X4301337Y1212951D01*
X4587290Y926998D01*
X4589526Y923696D01*
X4590288Y919784D01*
X4590288Y525018D01*
X4589729Y521665D01*
X4588052Y518668D01*
X4585512Y516432D01*
X4582769Y514705D01*
X4578705Y510590D01*
X4575606Y505714D01*
X4573727Y500227D01*
X4573016Y493928D01*
X4573016Y388061D01*
X4573727Y381711D01*
X4575606Y376275D01*
X4578705Y371398D01*
X4582769Y367284D01*
X4587697Y364185D01*
X4593132Y362305D01*
X4599482Y361594D01*
X4658309Y361594D01*
X4664659Y362305D01*
X4670094Y364185D01*
X4675022Y367284D01*
X4679086Y371398D01*
X4682185Y376275D01*
X4684115Y381711D01*
X4684826Y388061D01*
X4684826Y394665D01*
X4685588Y398526D01*
X4687773Y401828D01*
X4691024Y404012D01*
X4694885Y404825D01*
X4776520Y405384D01*
X4780127Y404723D01*
X4783328Y402844D01*
X4785563Y399897D01*
X4786731Y395528D01*
X4788662Y390093D01*
X4791760Y385165D01*
X4795824Y381101D01*
X4800752Y378002D01*
X4806188Y376123D01*
X4812538Y375412D01*
X4892040Y375412D01*
X4898339Y376123D01*
X4903825Y378002D01*
X4908702Y381101D01*
X4912817Y385165D01*
X4915865Y390093D01*
X4917998Y396138D01*
X4920132Y399694D01*
X4923536Y402132D01*
X4927600Y402945D01*
X4931664Y402132D01*
X4935067Y399694D01*
X4937201Y396138D01*
X4939334Y390093D01*
X4942382Y385165D01*
X4946497Y381101D01*
X4951374Y378002D01*
X4956860Y376123D01*
X4963160Y375412D01*
X5042662Y375412D01*
X5049012Y376123D01*
X5054447Y378002D01*
X5059375Y381101D01*
X5063439Y385165D01*
X5066538Y390093D01*
X5068468Y395528D01*
X5069179Y401878D01*
X5069179Y487121D01*
X5068468Y493471D01*
X5066538Y498906D01*
X5063439Y503834D01*
X5059375Y507898D01*
X5054447Y510997D01*
X5049215Y512826D01*
X5045659Y514959D01*
X5043271Y518363D01*
X5042408Y522427D01*
X5042408Y551891D01*
X5043170Y555802D01*
X5045405Y559104D01*
X5046980Y560679D01*
X5052618Y568706D01*
X5056733Y577646D01*
X5059273Y587095D01*
X5060137Y596900D01*
X5059273Y606704D01*
X5056733Y616153D01*
X5052618Y625094D01*
X5046980Y633120D01*
X5042611Y637489D01*
X5040376Y640791D01*
X5039614Y644702D01*
X5039614Y1202893D01*
X5040325Y1206703D01*
X5042458Y1209954D01*
X5045608Y1212189D01*
X5059527Y1218438D01*
X5072532Y1226312D01*
X5084470Y1235659D01*
X5095240Y1246428D01*
X5104587Y1258366D01*
X5112461Y1271371D01*
X5118760Y1285290D01*
X5120944Y1288491D01*
X5124196Y1290574D01*
X5128006Y1291285D01*
X5131816Y1290574D01*
X5135067Y1288491D01*
X5137251Y1285290D01*
X5143550Y1271371D01*
X5151424Y1258366D01*
X5160772Y1246428D01*
X5171541Y1235659D01*
X5183479Y1226312D01*
X5196484Y1218438D01*
X5210352Y1212189D01*
X5224881Y1207668D01*
X5239816Y1204925D01*
X5255006Y1204010D01*
X5270195Y1204925D01*
X5285130Y1207668D01*
X5299659Y1212189D01*
X5313527Y1218438D01*
X5326532Y1226312D01*
X5338470Y1235659D01*
X5349240Y1246428D01*
X5358587Y1258366D01*
X5366461Y1271371D01*
X5372709Y1285240D01*
X5377230Y1299768D01*
X5379974Y1314704D01*
X5380888Y1329893D01*
X5379974Y1345082D01*
X5377230Y1360017D01*
X5376519Y1362252D01*
X5376113Y1365859D01*
X5376976Y1369466D01*
X5379059Y1372463D01*
X5406491Y1399844D01*
X5409742Y1402080D01*
X5413654Y1402842D01*
X5587593Y1402842D01*
X5597499Y1403654D01*
X5606694Y1405991D01*
X5615432Y1409801D01*
X5623458Y1415084D01*
X5628995Y1419961D01*
X5755487Y1546453D01*
X5761888Y1554022D01*
X5766765Y1562201D01*
X5770219Y1571040D01*
X5772200Y1580489D01*
X5772658Y1587804D01*
X5772658Y1704339D01*
X5773420Y1708251D01*
X5775655Y1711502D01*
X5778906Y1713738D01*
X5782818Y1714500D01*
X5805932Y1714500D01*
X5809843Y1713738D01*
X5813094Y1711502D01*
X5815330Y1708251D01*
X5816092Y1704339D01*
X5816092Y36068D01*
X5815330Y32207D01*
X5813094Y28905D01*
X5809843Y26670D01*
G37*

%LPC*%
G36*
X777392Y88036D02*
G01*
X896264Y88036D01*
X902563Y88747D01*
X908050Y90678D01*
X912926Y93726D01*
X917041Y97840D01*
X920089Y102717D01*
X922019Y108204D01*
X922731Y114503D01*
X922731Y293370D01*
X922019Y299720D01*
X920089Y305155D01*
X917041Y310083D01*
X912926Y314147D01*
X908050Y317246D01*
X902563Y319125D01*
X896264Y319836D01*
X777392Y319836D01*
X771042Y319125D01*
X765606Y317246D01*
X760679Y314147D01*
X756615Y310083D01*
X753516Y305155D01*
X751636Y299720D01*
X750925Y293370D01*
X750925Y114503D01*
X751636Y108204D01*
X753516Y102717D01*
X756615Y97840D01*
X760679Y93726D01*
X765606Y90678D01*
X771042Y88747D01*
G37*
G36*
X2812135Y88087D02*
G01*
X2931007Y88087D01*
X2937357Y88798D01*
X2942793Y90678D01*
X2947720Y93776D01*
X2951784Y97840D01*
X2954883Y102768D01*
X2956763Y108204D01*
X2957474Y114554D01*
X2957474Y293420D01*
X2956763Y299720D01*
X2954883Y305206D01*
X2951784Y310083D01*
X2947720Y314198D01*
X2942793Y317246D01*
X2937357Y319176D01*
X2931007Y319887D01*
X2812135Y319887D01*
X2805836Y319176D01*
X2800350Y317246D01*
X2795473Y314198D01*
X2791358Y310083D01*
X2788310Y305206D01*
X2786380Y299720D01*
X2785668Y293420D01*
X2785668Y114554D01*
X2786380Y108204D01*
X2788310Y102768D01*
X2791358Y97840D01*
X2795473Y93776D01*
X2800350Y90678D01*
X2805836Y88798D01*
G37*
G36*
X5473700Y105562D02*
G01*
X5478322Y105664D01*
X5501284Y108051D01*
X5523992Y112369D01*
X5546242Y118618D01*
X5567934Y126644D01*
X5588812Y136499D01*
X5608828Y148031D01*
X5627827Y161239D01*
X5645607Y175971D01*
X5662117Y192125D01*
X5677204Y209600D01*
X5690819Y228295D01*
X5702757Y248107D01*
X5713018Y268782D01*
X5721553Y290271D01*
X5728208Y312369D01*
X5733034Y334975D01*
X5735929Y357936D01*
X5736336Y368300D01*
X5473700Y368300D01*
G37*
G36*
X393700Y105562D02*
G01*
X398322Y105664D01*
X421284Y108051D01*
X443992Y112369D01*
X466242Y118618D01*
X487934Y126644D01*
X508812Y136499D01*
X528828Y148031D01*
X547827Y161239D01*
X565607Y175971D01*
X582117Y192125D01*
X597204Y209600D01*
X610819Y228295D01*
X622757Y248107D01*
X633018Y268782D01*
X641553Y290271D01*
X648208Y312369D01*
X653034Y334975D01*
X655929Y357936D01*
X656336Y368300D01*
X393700Y368300D01*
G37*
G36*
X5448300Y105613D02*
G01*
X5448300Y368300D01*
X5185410Y368300D01*
X5187289Y346405D01*
X5191150Y323646D01*
X5196890Y301244D01*
X5204460Y279450D01*
X5213858Y258317D01*
X5224983Y238099D01*
X5237784Y218846D01*
X5252161Y200710D01*
X5267960Y183896D01*
X5285130Y168402D01*
X5303520Y154432D01*
X5323027Y142087D01*
X5343499Y131368D01*
X5364835Y122428D01*
X5386781Y115265D01*
X5409285Y109982D01*
X5432145Y106629D01*
G37*
G36*
X368300Y105613D02*
G01*
X368300Y368300D01*
X105410Y368300D01*
X107289Y346405D01*
X111150Y323646D01*
X116890Y301244D01*
X124460Y279450D01*
X133858Y258317D01*
X144983Y238099D01*
X157784Y218846D01*
X172161Y200710D01*
X187960Y183896D01*
X205130Y168402D01*
X223520Y154432D01*
X243027Y142087D01*
X263499Y131368D01*
X284835Y122428D01*
X306781Y115265D01*
X329285Y109982D01*
X352145Y106629D01*
G37*
G36*
X4504486Y114554D02*
G01*
X4563313Y114554D01*
X4569663Y115316D01*
X4575098Y117195D01*
X4580026Y120294D01*
X4584090Y124358D01*
X4587189Y129285D01*
X4589119Y134721D01*
X4589830Y141071D01*
X4589830Y246938D01*
X4589119Y253238D01*
X4587189Y258724D01*
X4584090Y263601D01*
X4580026Y267716D01*
X4575098Y270764D01*
X4569663Y272694D01*
X4563313Y273405D01*
X4504486Y273405D01*
X4498136Y272694D01*
X4492701Y270764D01*
X4487773Y267716D01*
X4483709Y263601D01*
X4480610Y258724D01*
X4478680Y253238D01*
X4477969Y246938D01*
X4477969Y141071D01*
X4478680Y134721D01*
X4480610Y129285D01*
X4483709Y124358D01*
X4487773Y120294D01*
X4492701Y117195D01*
X4498136Y115316D01*
G37*
G36*
X4171950Y257810D02*
G01*
X4203700Y257810D01*
X4203700Y310997D01*
X4145483Y310997D01*
X4145483Y284276D01*
X4146194Y277977D01*
X4148124Y272491D01*
X4151172Y267614D01*
X4155287Y263499D01*
X4160164Y260400D01*
X4165650Y258521D01*
G37*
G36*
X4229100Y257810D02*
G01*
X4260850Y257810D01*
X4267149Y258521D01*
X4272635Y260400D01*
X4277512Y263499D01*
X4281627Y267614D01*
X4284675Y272491D01*
X4286605Y277977D01*
X4287316Y284276D01*
X4287316Y310997D01*
X4229100Y310997D01*
G37*
G36*
X3819855Y262788D02*
G01*
X3898747Y262788D01*
X3905046Y263499D01*
X3910533Y265430D01*
X3915410Y268528D01*
X3917137Y270205D01*
X3920388Y272389D01*
X3924300Y273202D01*
X3928211Y272389D01*
X3931462Y270205D01*
X3933190Y268528D01*
X3938066Y265430D01*
X3943553Y263499D01*
X3949852Y262788D01*
X4028744Y262788D01*
X4035044Y263499D01*
X4040530Y265430D01*
X4045407Y268528D01*
X4049522Y272592D01*
X4052570Y277520D01*
X4054500Y282956D01*
X4055211Y289255D01*
X4055211Y335788D01*
X4055973Y339648D01*
X4058158Y342950D01*
X4131411Y416153D01*
X4134764Y418388D01*
X4138726Y419150D01*
X4142689Y418287D01*
X4145991Y415950D01*
X4151172Y407568D01*
X4155287Y403504D01*
X4157167Y402285D01*
X4160113Y399491D01*
X4161739Y395732D01*
X4161739Y391668D01*
X4160113Y387908D01*
X4157167Y385114D01*
X4155287Y383895D01*
X4151172Y379831D01*
X4148124Y374904D01*
X4146194Y369468D01*
X4145483Y363118D01*
X4145483Y336397D01*
X4203700Y336397D01*
X4203700Y387604D01*
X4204462Y391515D01*
X4206697Y394817D01*
X4209948Y397002D01*
X4213860Y397764D01*
X4218940Y397764D01*
X4222851Y397002D01*
X4226102Y394817D01*
X4228338Y391515D01*
X4229100Y387604D01*
X4229100Y336397D01*
X4287316Y336397D01*
X4287316Y363118D01*
X4286605Y369468D01*
X4284675Y374904D01*
X4281627Y379831D01*
X4277512Y383895D01*
X4275632Y385114D01*
X4272686Y387908D01*
X4271060Y391668D01*
X4271060Y395732D01*
X4272686Y399491D01*
X4275632Y402285D01*
X4277512Y403504D01*
X4281627Y407568D01*
X4284675Y412496D01*
X4286605Y417931D01*
X4287316Y424281D01*
X4287316Y503123D01*
X4286605Y509422D01*
X4284675Y514908D01*
X4281627Y519785D01*
X4277512Y523900D01*
X4272635Y526999D01*
X4267149Y528878D01*
X4264050Y529234D01*
X4260494Y530301D01*
X4257598Y532587D01*
X4255668Y535686D01*
X4255008Y539343D01*
X4255008Y551891D01*
X4255770Y555802D01*
X4258005Y559104D01*
X4259580Y560679D01*
X4265218Y568706D01*
X4269333Y577646D01*
X4271873Y587095D01*
X4272737Y596900D01*
X4271873Y606704D01*
X4269333Y616153D01*
X4265218Y625094D01*
X4259580Y633120D01*
X4252620Y640080D01*
X4244594Y645718D01*
X4235653Y649833D01*
X4226204Y652373D01*
X4216400Y653237D01*
X4206595Y652373D01*
X4197146Y649833D01*
X4188206Y645718D01*
X4180179Y640080D01*
X4173220Y633120D01*
X4167581Y625094D01*
X4163466Y616153D01*
X4160926Y606704D01*
X4160062Y596900D01*
X4160926Y587095D01*
X4163466Y577646D01*
X4167581Y568706D01*
X4173220Y560679D01*
X4174794Y559104D01*
X4177029Y555802D01*
X4177792Y551891D01*
X4177792Y539343D01*
X4177131Y535686D01*
X4175201Y532587D01*
X4172305Y530301D01*
X4168749Y529234D01*
X4165650Y528878D01*
X4160164Y526999D01*
X4155287Y523900D01*
X4151172Y519785D01*
X4148124Y514908D01*
X4146092Y509117D01*
X4143959Y505561D01*
X4140555Y503174D01*
X4136491Y502310D01*
X4124807Y502310D01*
X4116781Y501497D01*
X4109567Y499313D01*
X4102912Y495757D01*
X4096664Y490626D01*
X4072534Y466547D01*
X4069232Y464312D01*
X4065371Y463550D01*
X4061460Y464312D01*
X4058158Y466547D01*
X4055973Y469798D01*
X4055211Y473709D01*
X4055211Y498144D01*
X4054500Y504443D01*
X4052570Y509930D01*
X4049522Y514807D01*
X4045407Y518922D01*
X4040530Y521970D01*
X4035044Y523900D01*
X4028744Y524611D01*
X3949852Y524611D01*
X3943553Y523900D01*
X3938066Y521970D01*
X3933190Y518922D01*
X3931462Y517194D01*
X3928211Y515010D01*
X3924300Y514248D01*
X3920388Y515010D01*
X3917137Y517194D01*
X3915410Y518922D01*
X3910533Y521970D01*
X3905046Y523900D01*
X3898747Y524611D01*
X3872026Y524611D01*
X3872026Y471424D01*
X3913225Y471424D01*
X3917137Y470611D01*
X3920388Y468426D01*
X3922623Y465124D01*
X3923385Y461264D01*
X3923385Y456184D01*
X3922623Y452272D01*
X3920388Y448970D01*
X3917137Y446785D01*
X3913225Y446024D01*
X3872026Y446024D01*
X3872026Y404774D01*
X3871214Y400913D01*
X3869029Y397611D01*
X3865727Y395376D01*
X3861866Y394614D01*
X3856786Y394614D01*
X3852875Y395376D01*
X3849573Y397611D01*
X3847388Y400913D01*
X3846626Y404774D01*
X3846626Y446024D01*
X3793388Y446024D01*
X3793388Y419252D01*
X3794099Y412953D01*
X3796029Y407466D01*
X3799078Y402590D01*
X3800805Y400913D01*
X3802989Y397611D01*
X3803751Y393700D01*
X3802989Y389839D01*
X3800805Y386537D01*
X3795928Y381000D01*
X3792626Y379323D01*
X3789019Y378968D01*
X3785463Y379882D01*
X3778453Y383133D01*
X3769004Y385673D01*
X3759200Y386537D01*
X3749395Y385673D01*
X3739946Y383133D01*
X3731006Y379018D01*
X3722979Y373380D01*
X3716020Y366420D01*
X3710381Y358394D01*
X3706266Y349453D01*
X3703726Y340004D01*
X3702862Y330200D01*
X3703726Y320395D01*
X3706266Y310946D01*
X3710381Y302006D01*
X3716020Y293979D01*
X3722979Y287020D01*
X3731006Y281381D01*
X3739946Y277266D01*
X3749395Y274726D01*
X3759200Y273862D01*
X3769004Y274726D01*
X3778453Y277266D01*
X3784041Y279857D01*
X3787546Y280771D01*
X3791204Y280365D01*
X3794455Y278739D01*
X3796944Y276047D01*
X3799078Y272592D01*
X3803192Y268528D01*
X3808069Y265430D01*
X3813556Y263499D01*
G37*
G36*
X1079500Y353060D02*
G01*
X1096264Y353060D01*
X1102563Y353771D01*
X1108049Y355650D01*
X1111402Y357784D01*
X1114907Y359156D01*
X1118717Y359156D01*
X1122222Y357784D01*
X1125575Y355650D01*
X1131062Y353771D01*
X1137361Y353060D01*
X1196238Y353060D01*
X1202588Y353771D01*
X1208024Y355650D01*
X1212900Y358749D01*
X1217015Y362813D01*
X1220114Y367741D01*
X1221994Y373176D01*
X1222705Y379526D01*
X1222705Y533400D01*
X1221994Y539699D01*
X1220114Y545185D01*
X1217015Y550062D01*
X1212900Y554177D01*
X1210208Y555853D01*
X1207668Y558139D01*
X1205992Y561136D01*
X1205433Y564489D01*
X1205433Y716991D01*
X1206195Y720902D01*
X1208430Y724204D01*
X1210005Y725779D01*
X1215644Y733806D01*
X1219758Y742746D01*
X1222298Y752195D01*
X1223162Y762000D01*
X1222298Y771804D01*
X1219758Y781253D01*
X1215644Y790194D01*
X1210005Y798220D01*
X1203045Y805180D01*
X1195019Y810818D01*
X1186078Y814933D01*
X1176629Y817473D01*
X1166825Y818337D01*
X1157020Y817473D01*
X1147572Y814933D01*
X1138631Y810818D01*
X1130604Y805180D01*
X1123645Y798220D01*
X1118006Y790194D01*
X1113891Y781253D01*
X1111351Y771804D01*
X1110488Y762000D01*
X1111351Y752195D01*
X1113891Y742746D01*
X1118006Y733806D01*
X1123645Y725779D01*
X1125220Y724204D01*
X1127455Y720902D01*
X1128217Y716991D01*
X1128217Y564489D01*
X1127658Y561136D01*
X1125982Y558139D01*
X1122222Y555091D01*
X1118717Y553720D01*
X1114907Y553720D01*
X1111402Y555091D01*
X1108049Y557225D01*
X1102563Y559155D01*
X1096264Y559866D01*
X1079500Y559866D01*
X1079500Y469138D01*
X1100734Y469138D01*
X1104646Y468376D01*
X1107948Y466191D01*
X1110132Y462889D01*
X1110894Y458978D01*
X1110894Y453898D01*
X1110132Y450037D01*
X1107948Y446735D01*
X1104646Y444500D01*
X1100734Y443738D01*
X1079500Y443738D01*
G37*
G36*
X937361Y353060D02*
G01*
X996238Y353060D01*
X1002588Y353771D01*
X1008024Y355650D01*
X1011428Y357784D01*
X1014933Y359156D01*
X1018692Y359156D01*
X1022197Y357784D01*
X1025601Y355650D01*
X1031036Y353771D01*
X1037386Y353060D01*
X1054100Y353060D01*
X1054100Y443738D01*
X1032865Y443738D01*
X1029004Y444500D01*
X1025702Y446735D01*
X1023518Y450037D01*
X1022705Y453898D01*
X1022705Y458978D01*
X1023518Y462889D01*
X1025702Y466191D01*
X1029004Y468376D01*
X1032865Y469138D01*
X1054100Y469138D01*
X1054100Y559866D01*
X1037386Y559866D01*
X1031036Y559155D01*
X1025601Y557225D01*
X1022197Y555091D01*
X1018692Y553720D01*
X1014933Y553720D01*
X1010208Y555853D01*
X1007668Y558139D01*
X1005992Y561136D01*
X1005433Y564489D01*
X1005433Y780491D01*
X1006195Y784402D01*
X1008430Y787704D01*
X1010005Y789279D01*
X1015644Y797306D01*
X1019759Y806246D01*
X1022299Y815695D01*
X1023162Y825500D01*
X1022299Y835304D01*
X1019759Y844753D01*
X1015644Y853694D01*
X1010005Y861720D01*
X1003046Y868680D01*
X995019Y874318D01*
X986078Y878433D01*
X976630Y880973D01*
X966825Y881837D01*
X957021Y880973D01*
X947572Y878433D01*
X938631Y874318D01*
X930605Y868680D01*
X923645Y861720D01*
X918006Y853694D01*
X913892Y844753D01*
X911352Y835304D01*
X910488Y825500D01*
X911352Y815695D01*
X913892Y806246D01*
X918006Y797306D01*
X923645Y789279D01*
X925220Y787704D01*
X927455Y784402D01*
X928217Y780491D01*
X928217Y564489D01*
X927658Y561136D01*
X925982Y558139D01*
X923442Y555904D01*
X920699Y554177D01*
X916584Y550062D01*
X913536Y545185D01*
X911606Y539699D01*
X910894Y533400D01*
X910894Y379526D01*
X911606Y373176D01*
X913536Y367741D01*
X916584Y362813D01*
X920699Y358749D01*
X925576Y355650D01*
X931062Y353771D01*
G37*
G36*
X4409490Y361594D02*
G01*
X4426204Y361594D01*
X4426204Y428294D01*
X4382973Y428294D01*
X4382973Y388061D01*
X4383684Y381711D01*
X4385614Y376275D01*
X4388713Y371398D01*
X4392777Y367284D01*
X4397705Y364185D01*
X4403140Y362305D01*
G37*
G36*
X4451604Y361594D02*
G01*
X4468317Y361594D01*
X4474667Y362305D01*
X4480102Y364185D01*
X4485030Y367284D01*
X4489094Y371398D01*
X4492193Y376275D01*
X4494072Y381711D01*
X4494784Y388061D01*
X4494784Y428294D01*
X4451604Y428294D01*
G37*
G36*
X393700Y393700D02*
G01*
X656336Y393700D01*
X655929Y404063D01*
X653034Y427024D01*
X648208Y449630D01*
X641553Y471728D01*
X633018Y493217D01*
X622757Y513892D01*
X610819Y533704D01*
X597204Y552348D01*
X582117Y569874D01*
X565607Y586028D01*
X547827Y600760D01*
X528828Y613968D01*
X508812Y625500D01*
X487934Y635355D01*
X466242Y643382D01*
X443992Y649630D01*
X421284Y653948D01*
X398322Y656336D01*
X393700Y656437D01*
G37*
G36*
X1237335Y88087D02*
G01*
X1356207Y88087D01*
X1362557Y88798D01*
X1367993Y90678D01*
X1372920Y93776D01*
X1376984Y97840D01*
X1380083Y102768D01*
X1381963Y108204D01*
X1382674Y114554D01*
X1382674Y293420D01*
X1381963Y299720D01*
X1380083Y305206D01*
X1376984Y310083D01*
X1372920Y314198D01*
X1367993Y317246D01*
X1362557Y319176D01*
X1356207Y319887D01*
X1237335Y319887D01*
X1231036Y319176D01*
X1225550Y317246D01*
X1220673Y314198D01*
X1216558Y310083D01*
X1213510Y305206D01*
X1211580Y299720D01*
X1210868Y293420D01*
X1210868Y114554D01*
X1211580Y108204D01*
X1213510Y102768D01*
X1216558Y97840D01*
X1220673Y93776D01*
X1225550Y90678D01*
X1231036Y88798D01*
G37*
G36*
X5185410Y393700D02*
G01*
X5448300Y393700D01*
X5448300Y656386D01*
X5432145Y655370D01*
X5409285Y652018D01*
X5386781Y646734D01*
X5364835Y639572D01*
X5343499Y630631D01*
X5323027Y619912D01*
X5303520Y607568D01*
X5285130Y593598D01*
X5267960Y578104D01*
X5252161Y561289D01*
X5237784Y543153D01*
X5224983Y523900D01*
X5213858Y503682D01*
X5204460Y482549D01*
X5196890Y460756D01*
X5191150Y438353D01*
X5187289Y415594D01*
G37*
G36*
X105410Y393700D02*
G01*
X368300Y393700D01*
X368300Y656386D01*
X352145Y655370D01*
X329285Y652018D01*
X306781Y646734D01*
X284835Y639572D01*
X263499Y630631D01*
X243027Y619912D01*
X223520Y607568D01*
X205130Y593598D01*
X187960Y578104D01*
X172161Y561289D01*
X157784Y543153D01*
X144983Y523900D01*
X133858Y503682D01*
X124460Y482549D01*
X116890Y460756D01*
X111150Y438353D01*
X107289Y415594D01*
G37*
G36*
X3559556Y397154D02*
G01*
X3573678Y398526D01*
X3587546Y401675D01*
X3600907Y406603D01*
X3613505Y413156D01*
X3625138Y421284D01*
X3635654Y430834D01*
X3644849Y441655D01*
X3652621Y453593D01*
X3658768Y466394D01*
X3663238Y479856D01*
X3665982Y493826D01*
X3666896Y508000D01*
X3665982Y522173D01*
X3663238Y536143D01*
X3658768Y549605D01*
X3652621Y562406D01*
X3644849Y574344D01*
X3635654Y585165D01*
X3625138Y594715D01*
X3613505Y602843D01*
X3600907Y609396D01*
X3587546Y614324D01*
X3573678Y617474D01*
X3559556Y618845D01*
X3545332Y618388D01*
X3531311Y616102D01*
X3517696Y612038D01*
X3504692Y606298D01*
X3492550Y598932D01*
X3481425Y590092D01*
X3471570Y579882D01*
X3463086Y568502D01*
X3456076Y556107D01*
X3450742Y542950D01*
X3447135Y529183D01*
X3445357Y515112D01*
X3445357Y500888D01*
X3447135Y486816D01*
X3450742Y473049D01*
X3456076Y459892D01*
X3463086Y447497D01*
X3471570Y436118D01*
X3481425Y425907D01*
X3492550Y417068D01*
X3504692Y409701D01*
X3517696Y403910D01*
X3531311Y399897D01*
X3545332Y397611D01*
G37*
G36*
X4382973Y453694D02*
G01*
X4426204Y453694D01*
X4426204Y520395D01*
X4409490Y520395D01*
X4403140Y519684D01*
X4397705Y517753D01*
X4392777Y514705D01*
X4388713Y510590D01*
X4385614Y505714D01*
X4383684Y500227D01*
X4382973Y493928D01*
G37*
G36*
X4451604Y453694D02*
G01*
X4494784Y453694D01*
X4494784Y493928D01*
X4494072Y500227D01*
X4492193Y505714D01*
X4489094Y510590D01*
X4485030Y514705D01*
X4480102Y517753D01*
X4474667Y519684D01*
X4468317Y520395D01*
X4451604Y520395D01*
G37*
G36*
X3793388Y471424D02*
G01*
X3846626Y471424D01*
X3846626Y524611D01*
X3819855Y524611D01*
X3813556Y523900D01*
X3808069Y521970D01*
X3803192Y518922D01*
X3799078Y514807D01*
X3796029Y509930D01*
X3794099Y504443D01*
X3793388Y498144D01*
G37*
G36*
X2352192Y88036D02*
G01*
X2471064Y88036D01*
X2477363Y88747D01*
X2482850Y90678D01*
X2487726Y93726D01*
X2491841Y97840D01*
X2494889Y102717D01*
X2496820Y108204D01*
X2497531Y114503D01*
X2497531Y293370D01*
X2496820Y299720D01*
X2494889Y305155D01*
X2491841Y310083D01*
X2487726Y314147D01*
X2482850Y317246D01*
X2477363Y319125D01*
X2471064Y319836D01*
X2352192Y319836D01*
X2345842Y319125D01*
X2340406Y317246D01*
X2335479Y314147D01*
X2331415Y310083D01*
X2328316Y305155D01*
X2326436Y299720D01*
X2325725Y293370D01*
X2325725Y114503D01*
X2326436Y108204D01*
X2328316Y102717D01*
X2331415Y97840D01*
X2335479Y93726D01*
X2340406Y90678D01*
X2345842Y88747D01*
G37*
G36*
X209804Y999032D02*
G01*
X223621Y999896D01*
X237185Y1002639D01*
X250342Y1007059D01*
X262737Y1013206D01*
X274269Y1020876D01*
X284683Y1030020D01*
X293827Y1040434D01*
X301498Y1051966D01*
X307644Y1064361D01*
X312064Y1077518D01*
X314807Y1091082D01*
X315671Y1104900D01*
X314807Y1118717D01*
X312064Y1132281D01*
X307644Y1145438D01*
X301498Y1157833D01*
X293827Y1169365D01*
X284683Y1179779D01*
X274269Y1188923D01*
X262737Y1196594D01*
X250342Y1202740D01*
X237185Y1207160D01*
X223621Y1209903D01*
X209804Y1210767D01*
X195986Y1209903D01*
X182422Y1207160D01*
X169265Y1202740D01*
X156870Y1196594D01*
X145338Y1188923D01*
X134924Y1179779D01*
X125780Y1169365D01*
X118110Y1157833D01*
X111963Y1145438D01*
X107543Y1132281D01*
X104800Y1118717D01*
X103936Y1104900D01*
X104800Y1091082D01*
X107543Y1077518D01*
X111963Y1064361D01*
X118110Y1051966D01*
X125780Y1040434D01*
X134924Y1030020D01*
X145338Y1020876D01*
X156870Y1013206D01*
X169265Y1007059D01*
X182422Y1002639D01*
X195986Y999896D01*
G37*
G36*
X3105404Y999032D02*
G01*
X3119221Y999896D01*
X3132785Y1002639D01*
X3145942Y1007059D01*
X3158337Y1013206D01*
X3169869Y1020876D01*
X3180283Y1030020D01*
X3189427Y1040434D01*
X3197098Y1051966D01*
X3203244Y1064361D01*
X3207664Y1077518D01*
X3210407Y1091082D01*
X3211271Y1104900D01*
X3210407Y1118717D01*
X3207664Y1132281D01*
X3203244Y1145438D01*
X3197098Y1157833D01*
X3189427Y1169365D01*
X3180283Y1179779D01*
X3169869Y1188923D01*
X3158337Y1196594D01*
X3145942Y1202740D01*
X3132785Y1207160D01*
X3119221Y1209903D01*
X3105404Y1210767D01*
X3091586Y1209903D01*
X3078022Y1207160D01*
X3064865Y1202740D01*
X3052470Y1196594D01*
X3040938Y1188923D01*
X3030524Y1179779D01*
X3021380Y1169365D01*
X3013710Y1157833D01*
X3007563Y1145438D01*
X3003143Y1132281D01*
X3000400Y1118717D01*
X2999536Y1104900D01*
X3000400Y1091082D01*
X3003143Y1077518D01*
X3007563Y1064361D01*
X3013710Y1051966D01*
X3021380Y1040434D01*
X3030524Y1030020D01*
X3040938Y1020876D01*
X3052470Y1013206D01*
X3064865Y1007059D01*
X3078022Y1002639D01*
X3091586Y999896D01*
G37*
G36*
X5626608Y999032D02*
G01*
X5640425Y999896D01*
X5653989Y1002639D01*
X5667095Y1007059D01*
X5679541Y1013206D01*
X5691022Y1020876D01*
X5701436Y1030020D01*
X5710580Y1040434D01*
X5718302Y1051966D01*
X5724398Y1064361D01*
X5728868Y1077518D01*
X5731560Y1091082D01*
X5732475Y1104900D01*
X5731560Y1118717D01*
X5728868Y1132281D01*
X5724398Y1145438D01*
X5718302Y1157833D01*
X5710580Y1169365D01*
X5701436Y1179779D01*
X5691022Y1188923D01*
X5679541Y1196594D01*
X5667095Y1202740D01*
X5653989Y1207160D01*
X5640425Y1209903D01*
X5626608Y1210767D01*
X5612739Y1209903D01*
X5599176Y1207160D01*
X5586069Y1202740D01*
X5573623Y1196594D01*
X5562142Y1188923D01*
X5551728Y1179779D01*
X5542584Y1169365D01*
X5534863Y1157833D01*
X5528767Y1145438D01*
X5524296Y1132281D01*
X5521604Y1118717D01*
X5520690Y1104900D01*
X5521604Y1091082D01*
X5524296Y1077518D01*
X5528767Y1064361D01*
X5534863Y1051966D01*
X5542584Y1040434D01*
X5551728Y1030020D01*
X5562142Y1020876D01*
X5573623Y1013206D01*
X5586069Y1007059D01*
X5599176Y1002639D01*
X5612739Y999896D01*
G37*
G36*
X5473700Y393700D02*
G01*
X5736336Y393700D01*
X5735929Y404063D01*
X5733034Y427024D01*
X5728208Y449630D01*
X5721553Y471728D01*
X5713018Y493217D01*
X5702757Y513892D01*
X5690819Y533704D01*
X5677204Y552348D01*
X5662117Y569874D01*
X5645607Y586028D01*
X5627827Y600760D01*
X5608828Y613968D01*
X5588812Y625500D01*
X5567934Y635355D01*
X5546242Y643382D01*
X5523992Y649630D01*
X5501284Y653948D01*
X5478322Y656336D01*
X5473700Y656437D01*
G37*

%LPD*%
G36*
X3251200Y5715000D02*
G01*
X3251200Y5680151D01*
X3267760Y5680151D01*
X3267760Y5715000D01*
G37*
G36*
X3286150Y5715000D02*
G01*
X3286150Y5696661D01*
X3302762Y5696661D01*
X3302762Y5680151D01*
X3339541Y5680151D01*
X3339541Y5663641D01*
X3321151Y5663641D01*
X3321151Y5680151D01*
X3286150Y5680151D01*
X3286150Y5645302D01*
X3302762Y5645302D01*
X3302762Y5663641D01*
X3321151Y5663641D01*
X3321151Y5645302D01*
X3339541Y5645302D01*
X3339541Y5610453D01*
X3356101Y5610453D01*
X3356101Y5575604D01*
X3339541Y5575604D01*
X3339541Y5610453D01*
X3321151Y5610453D01*
X3321151Y5575604D01*
X3339541Y5575604D01*
X3339541Y5557266D01*
X3286150Y5557266D01*
X3286150Y5592114D01*
X3302762Y5592114D01*
X3302762Y5626963D01*
X3267760Y5626963D01*
X3267760Y5610453D01*
X3286150Y5610453D01*
X3286150Y5592114D01*
X3267760Y5592114D01*
X3267760Y5610453D01*
X3251200Y5610453D01*
X3251200Y5645302D01*
X3267760Y5645302D01*
X3267760Y5663641D01*
X3216249Y5663641D01*
X3216249Y5645302D01*
X3234639Y5645302D01*
X3234639Y5626963D01*
X3216249Y5626963D01*
X3216249Y5610453D01*
X3251200Y5610453D01*
X3251200Y5592114D01*
X3234639Y5592114D01*
X3234639Y5610453D01*
X3216249Y5610453D01*
X3216249Y5592114D01*
X3234639Y5592114D01*
X3234639Y5575604D01*
X3181248Y5575604D01*
X3181248Y5557266D01*
X3197809Y5557266D01*
X3197809Y5540756D01*
X3181248Y5540756D01*
X3181248Y5522417D01*
X3144469Y5522417D01*
X3144469Y5540756D01*
X3127908Y5540756D01*
X3127908Y5557266D01*
X3162858Y5557266D01*
X3162858Y5575604D01*
X3076346Y5575604D01*
X3076346Y5557266D01*
X3109468Y5557266D01*
X3109468Y5540756D01*
X3092907Y5540756D01*
X3092907Y5522417D01*
X3144469Y5522417D01*
X3144469Y5505907D01*
X3181248Y5505907D01*
X3181248Y5522417D01*
X3197809Y5522417D01*
X3197809Y5540756D01*
X3234639Y5540756D01*
X3234639Y5557266D01*
X3251200Y5557266D01*
X3251200Y5575604D01*
X3267760Y5575604D01*
X3267760Y5557266D01*
X3286150Y5557266D01*
X3286150Y5540756D01*
X3302762Y5540756D01*
X3302762Y5522417D01*
X3286150Y5522417D01*
X3286150Y5487568D01*
X3302762Y5487568D01*
X3302762Y5505907D01*
X3321151Y5505907D01*
X3321151Y5522417D01*
X3339541Y5522417D01*
X3339541Y5540756D01*
X3374542Y5540756D01*
X3374542Y5575604D01*
X3391103Y5575604D01*
X3391103Y5557266D01*
X3409492Y5557266D01*
X3409492Y5575604D01*
X3426053Y5575604D01*
X3426053Y5557266D01*
X3409492Y5557266D01*
X3409492Y5522417D01*
X3391103Y5522417D01*
X3391103Y5540756D01*
X3374542Y5540756D01*
X3374542Y5522417D01*
X3356101Y5522417D01*
X3356101Y5505907D01*
X3321151Y5505907D01*
X3321151Y5487568D01*
X3339541Y5487568D01*
X3339541Y5452719D01*
X3356101Y5452719D01*
X3356101Y5469229D01*
X3374542Y5469229D01*
X3374542Y5487568D01*
X3409492Y5487568D01*
X3409492Y5505907D01*
X3426053Y5505907D01*
X3426053Y5469229D01*
X3461054Y5469229D01*
X3461054Y5487568D01*
X3514394Y5487568D01*
X3514394Y5452719D01*
X3461054Y5452719D01*
X3461054Y5434380D01*
X3479444Y5434380D01*
X3479444Y5399532D01*
X3514394Y5399532D01*
X3514394Y5383022D01*
X3549396Y5383022D01*
X3549396Y5364683D01*
X3514394Y5364683D01*
X3514394Y5383022D01*
X3426053Y5383022D01*
X3426053Y5399532D01*
X3444443Y5399532D01*
X3444443Y5452719D01*
X3426053Y5452719D01*
X3426053Y5469229D01*
X3374542Y5469229D01*
X3374542Y5452719D01*
X3356101Y5452719D01*
X3356101Y5434380D01*
X3374542Y5434380D01*
X3374542Y5416042D01*
X3391103Y5416042D01*
X3391103Y5434380D01*
X3426053Y5434380D01*
X3426053Y5416042D01*
X3409492Y5416042D01*
X3409492Y5364683D01*
X3426053Y5364683D01*
X3426053Y5346344D01*
X3549396Y5346344D01*
X3549396Y5329834D01*
X3514394Y5329834D01*
X3514394Y5346344D01*
X3497834Y5346344D01*
X3497834Y5293156D01*
X3444443Y5293156D01*
X3444443Y5346344D01*
X3409492Y5346344D01*
X3409492Y5364683D01*
X3391103Y5364683D01*
X3391103Y5329834D01*
X3409492Y5329834D01*
X3409492Y5311495D01*
X3426053Y5311495D01*
X3426053Y5276646D01*
X3479444Y5276646D01*
X3479444Y5260187D01*
X3461054Y5260187D01*
X3461054Y5276646D01*
X3426053Y5276646D01*
X3426053Y5260187D01*
X3444443Y5260187D01*
X3444443Y5241848D01*
X3426053Y5241848D01*
X3426053Y5225338D01*
X3409492Y5225338D01*
X3409492Y5241848D01*
X3391103Y5241848D01*
X3391103Y5260187D01*
X3374542Y5260187D01*
X3374542Y5276646D01*
X3356101Y5276646D01*
X3356101Y5293156D01*
X3374542Y5293156D01*
X3374542Y5311495D01*
X3391103Y5311495D01*
X3391103Y5329834D01*
X3374542Y5329834D01*
X3374542Y5383022D01*
X3356101Y5383022D01*
X3356101Y5364683D01*
X3321151Y5364683D01*
X3321151Y5383022D01*
X3339541Y5383022D01*
X3339541Y5416042D01*
X3286150Y5416042D01*
X3286150Y5452719D01*
X3302762Y5452719D01*
X3302762Y5469229D01*
X3251200Y5469229D01*
X3251200Y5487568D01*
X3267760Y5487568D01*
X3267760Y5505907D01*
X3234639Y5505907D01*
X3234639Y5522417D01*
X3216249Y5522417D01*
X3216249Y5487568D01*
X3197809Y5487568D01*
X3197809Y5505907D01*
X3162858Y5505907D01*
X3162858Y5487568D01*
X3144469Y5487568D01*
X3144469Y5505907D01*
X3127908Y5505907D01*
X3127908Y5522417D01*
X3092907Y5522417D01*
X3092907Y5487568D01*
X3076346Y5487568D01*
X3076346Y5452719D01*
X3109468Y5452719D01*
X3109468Y5469229D01*
X3092907Y5469229D01*
X3092907Y5487568D01*
X3109468Y5487568D01*
X3109468Y5505907D01*
X3127908Y5505907D01*
X3127908Y5469229D01*
X3162858Y5469229D01*
X3162858Y5487568D01*
X3197809Y5487568D01*
X3197809Y5469229D01*
X3181248Y5469229D01*
X3181248Y5452719D01*
X3197809Y5452719D01*
X3197809Y5469229D01*
X3216249Y5469229D01*
X3216249Y5452719D01*
X3267760Y5452719D01*
X3267760Y5434380D01*
X3251200Y5434380D01*
X3251200Y5452719D01*
X3234639Y5452719D01*
X3234639Y5434380D01*
X3181248Y5434380D01*
X3181248Y5416042D01*
X3197809Y5416042D01*
X3197809Y5399532D01*
X3181248Y5399532D01*
X3181248Y5416042D01*
X3162858Y5416042D01*
X3162858Y5399532D01*
X3181248Y5399532D01*
X3181248Y5383022D01*
X3162858Y5383022D01*
X3162858Y5364683D01*
X3181248Y5364683D01*
X3181248Y5383022D01*
X3234639Y5383022D01*
X3234639Y5416042D01*
X3251200Y5416042D01*
X3251200Y5383022D01*
X3234639Y5383022D01*
X3234639Y5364683D01*
X3181248Y5364683D01*
X3181248Y5346344D01*
X3216249Y5346344D01*
X3216249Y5311495D01*
X3234639Y5311495D01*
X3234639Y5364683D01*
X3267760Y5364683D01*
X3267760Y5416042D01*
X3286150Y5416042D01*
X3286150Y5399532D01*
X3302762Y5399532D01*
X3302762Y5383022D01*
X3286150Y5383022D01*
X3286150Y5346344D01*
X3302762Y5346344D01*
X3302762Y5364683D01*
X3321151Y5364683D01*
X3321151Y5346344D01*
X3356101Y5346344D01*
X3356101Y5329834D01*
X3374542Y5329834D01*
X3374542Y5311495D01*
X3356101Y5311495D01*
X3356101Y5293156D01*
X3339541Y5293156D01*
X3339541Y5311495D01*
X3321151Y5311495D01*
X3321151Y5293156D01*
X3339541Y5293156D01*
X3339541Y5276646D01*
X3286150Y5276646D01*
X3286150Y5311495D01*
X3302762Y5311495D01*
X3302762Y5329834D01*
X3267760Y5329834D01*
X3267760Y5346344D01*
X3251200Y5346344D01*
X3251200Y5329834D01*
X3267760Y5329834D01*
X3267760Y5311495D01*
X3251403Y5311495D01*
X3250285Y5294122D01*
X3216249Y5293055D01*
X3216249Y5276646D01*
X3251200Y5276646D01*
X3251200Y5260187D01*
X3234639Y5260187D01*
X3234639Y5276646D01*
X3216249Y5276646D01*
X3216249Y5207000D01*
X3234639Y5207000D01*
X3234639Y5241848D01*
X3267760Y5241848D01*
X3267760Y5276646D01*
X3286150Y5276646D01*
X3286150Y5260187D01*
X3302762Y5260187D01*
X3302762Y5241848D01*
X3286150Y5241848D01*
X3286150Y5207000D01*
X3302558Y5207000D01*
X3303676Y5224424D01*
X3321151Y5225542D01*
X3321151Y5241848D01*
X3356101Y5241848D01*
X3356101Y5225338D01*
X3321151Y5225338D01*
X3321151Y5207000D01*
X3391103Y5207000D01*
X3391103Y5225338D01*
X3409492Y5225338D01*
X3409492Y5207000D01*
X3479444Y5207000D01*
X3479444Y5225338D01*
X3461054Y5225338D01*
X3461054Y5241848D01*
X3497834Y5241848D01*
X3497834Y5276646D01*
X3514394Y5276646D01*
X3514394Y5311495D01*
X3530955Y5311495D01*
X3530955Y5276646D01*
X3584346Y5276646D01*
X3584346Y5311495D01*
X3549396Y5311495D01*
X3549396Y5329834D01*
X3567785Y5329834D01*
X3567785Y5364683D01*
X3584346Y5364683D01*
X3584346Y5383022D01*
X3567785Y5383022D01*
X3567785Y5399532D01*
X3584346Y5399532D01*
X3584346Y5416042D01*
X3549396Y5416042D01*
X3549396Y5399532D01*
X3530955Y5399532D01*
X3530955Y5416042D01*
X3497834Y5416042D01*
X3497834Y5434380D01*
X3514394Y5434380D01*
X3514394Y5452719D01*
X3549396Y5452719D01*
X3549396Y5434380D01*
X3584346Y5434380D01*
X3584346Y5469229D01*
X3567785Y5469229D01*
X3567785Y5487568D01*
X3549396Y5487568D01*
X3549396Y5469229D01*
X3530955Y5469229D01*
X3530955Y5487568D01*
X3514394Y5487568D01*
X3514394Y5505907D01*
X3530955Y5505907D01*
X3530955Y5522417D01*
X3549396Y5522417D01*
X3549396Y5540756D01*
X3567785Y5540756D01*
X3567785Y5575604D01*
X3549396Y5575604D01*
X3549396Y5540756D01*
X3530955Y5540756D01*
X3530955Y5575604D01*
X3514394Y5575604D01*
X3514394Y5557266D01*
X3497834Y5557266D01*
X3497834Y5575604D01*
X3479444Y5575604D01*
X3479444Y5540756D01*
X3514394Y5540756D01*
X3514394Y5522417D01*
X3497834Y5522417D01*
X3497834Y5540756D01*
X3479444Y5540756D01*
X3479444Y5522417D01*
X3444443Y5522417D01*
X3444443Y5505907D01*
X3426053Y5505907D01*
X3426053Y5540756D01*
X3461054Y5540756D01*
X3461054Y5575604D01*
X3444443Y5575604D01*
X3444443Y5610453D01*
X3426053Y5610453D01*
X3426053Y5592114D01*
X3409492Y5592114D01*
X3409492Y5610453D01*
X3391103Y5610453D01*
X3391103Y5626963D01*
X3409492Y5626963D01*
X3409492Y5645302D01*
X3391103Y5645302D01*
X3391103Y5626963D01*
X3374542Y5626963D01*
X3374542Y5610453D01*
X3391103Y5610453D01*
X3391103Y5592114D01*
X3374542Y5592114D01*
X3374542Y5610453D01*
X3356101Y5610453D01*
X3356101Y5645302D01*
X3374542Y5645302D01*
X3374542Y5663641D01*
X3444443Y5663641D01*
X3444443Y5696661D01*
X3426053Y5696661D01*
X3426053Y5715000D01*
X3409492Y5715000D01*
X3409492Y5696661D01*
X3426053Y5696661D01*
X3426053Y5680151D01*
X3391103Y5680151D01*
X3391103Y5696661D01*
X3374542Y5696661D01*
X3374542Y5663641D01*
X3356101Y5663641D01*
X3356101Y5715000D01*
X3339541Y5715000D01*
X3339541Y5696661D01*
X3321151Y5696661D01*
X3321151Y5715000D01*
G37*
G36*
X3076346Y5713171D02*
G01*
X3076346Y5698490D01*
X3181248Y5698490D01*
X3181248Y5608624D01*
X3092907Y5608624D01*
X3092907Y5698490D01*
X3076346Y5698490D01*
X3076346Y5593943D01*
X3197809Y5593943D01*
X3197809Y5713171D01*
G37*
G36*
X3462883Y5713171D02*
G01*
X3462883Y5698490D01*
X3567785Y5698490D01*
X3567785Y5608624D01*
X3477564Y5608624D01*
X3477564Y5698490D01*
X3462883Y5698490D01*
X3462883Y5593943D01*
X3584346Y5593943D01*
X3584346Y5713171D01*
G37*
G36*
X3216249Y5696661D02*
G01*
X3216249Y5680151D01*
X3234639Y5680151D01*
X3234639Y5696661D01*
G37*
G36*
X3111296Y5680151D02*
G01*
X3111296Y5628792D01*
X3161030Y5628792D01*
X3161030Y5680151D01*
G37*
G36*
X3497834Y5680151D02*
G01*
X3497834Y5628792D01*
X3547516Y5628792D01*
X3547516Y5680151D01*
G37*
G36*
X3426053Y5645302D02*
G01*
X3426053Y5626963D01*
X3444443Y5626963D01*
X3444443Y5645302D01*
G37*
G36*
X3251200Y5557266D02*
G01*
X3251200Y5522417D01*
X3267760Y5522417D01*
X3267760Y5557266D01*
G37*
G36*
X3567785Y5522417D02*
G01*
X3567785Y5505907D01*
X3584346Y5505907D01*
X3584346Y5522417D01*
G37*
G36*
X3144469Y5452719D02*
G01*
X3144469Y5434380D01*
X3162858Y5434380D01*
X3162858Y5452719D01*
G37*
G36*
X3321151Y5452719D02*
G01*
X3321151Y5434380D01*
X3339541Y5434380D01*
X3339541Y5416042D01*
X3356101Y5416042D01*
X3356101Y5399532D01*
X3374542Y5399532D01*
X3374542Y5383022D01*
X3391103Y5383022D01*
X3391103Y5399532D01*
X3374542Y5399532D01*
X3374542Y5416042D01*
X3356101Y5416042D01*
X3356101Y5434380D01*
X3339541Y5434380D01*
X3339541Y5452719D01*
G37*
G36*
X3076346Y5434380D02*
G01*
X3076346Y5346344D01*
X3092907Y5346344D01*
X3092907Y5399532D01*
X3109468Y5399532D01*
X3109468Y5383022D01*
X3127908Y5383022D01*
X3127908Y5364683D01*
X3109468Y5364683D01*
X3109468Y5346344D01*
X3127908Y5346344D01*
X3127908Y5364683D01*
X3144469Y5364683D01*
X3144469Y5416042D01*
X3092907Y5416042D01*
X3092907Y5434380D01*
G37*
G36*
X3461054Y5329834D02*
G01*
X3461054Y5311495D01*
X3479444Y5311495D01*
X3479444Y5329834D01*
G37*
G36*
X3076346Y5328005D02*
G01*
X3076346Y5313375D01*
X3181248Y5313375D01*
X3181248Y5223510D01*
X3092907Y5223510D01*
X3092907Y5313375D01*
X3076346Y5313375D01*
X3076346Y5208828D01*
X3197809Y5208828D01*
X3197809Y5328005D01*
G37*
G36*
X3111296Y5293156D02*
G01*
X3111296Y5243677D01*
X3161030Y5243677D01*
X3161030Y5293156D01*
G37*
G36*
X3374542Y5293156D02*
G01*
X3374542Y5276646D01*
X3391103Y5276646D01*
X3391103Y5260187D01*
X3409492Y5260187D01*
X3409492Y5241848D01*
X3426053Y5241848D01*
X3426053Y5260187D01*
X3409492Y5260187D01*
X3409492Y5293156D01*
G37*
G36*
X3530955Y5260187D02*
G01*
X3530955Y5241848D01*
X3514394Y5241848D01*
X3514394Y5225338D01*
X3497834Y5225338D01*
X3497834Y5207000D01*
X3549396Y5207000D01*
X3549396Y5241848D01*
X3567785Y5241848D01*
X3567785Y5225338D01*
X3584346Y5225338D01*
X3584346Y5241848D01*
X3567785Y5241848D01*
X3567785Y5260187D01*
G37*
D10*
X2603500Y5671312D02*
G01*
X2609850Y5674613D01*
X2619502Y5684012D01*
X2619502Y5617210D01*
D11*
X5715000Y2044700D02*
G01*
X5715000Y1587500D01*
X5588000Y1460500D01*
X5385561Y1460500D01*
X5255006Y1329944D01*
D12*
X2794000Y3619500D02*
G01*
X4572000Y3619500D01*
X2540000Y3683000D02*
G01*
X4318000Y3683000D01*
X5715000Y3822700D02*
G01*
X5715000Y4191000D01*
X5257800Y4495800D01*
X5461000Y3822700D02*
G01*
X5461000Y4191000D01*
X5003800Y4495800D01*
X4191000Y3822700D02*
G01*
X4191000Y4191000D01*
X3987800Y4394200D01*
X3987800Y4495800D01*
X4445000Y3822700D02*
G01*
X4445000Y4191000D01*
X4241800Y4394200D01*
X4241800Y4495800D01*
X4699000Y3822700D02*
G01*
X4699000Y4191000D01*
X4495800Y4394200D01*
X4495800Y4495800D01*
X4953000Y3822700D02*
G01*
X4953000Y4191000D01*
X4749800Y4394200D01*
X4749800Y4495800D01*
X3683000Y3822700D02*
G01*
X3683000Y4191000D01*
X3733800Y4241800D01*
X3733800Y4495800D01*
X3429000Y3822700D02*
G01*
X3429000Y4191000D01*
X3479800Y4241800D01*
X3479800Y4495800D01*
X889000Y3822700D02*
G01*
X889000Y4191000D01*
X584200Y4495800D01*
X1143000Y3822700D02*
G01*
X1143000Y4191000D01*
X838200Y4495800D01*
X1651000Y3822700D02*
G01*
X1651000Y4127500D01*
X1587500Y4191000D01*
X1397000Y4191000D01*
X1092200Y4495800D01*
X1905000Y3822700D02*
G01*
X1905000Y4191000D01*
X1841500Y4254500D01*
X1587500Y4254500D01*
X1346200Y4495800D01*
X2159000Y3822700D02*
G01*
X2159000Y4254500D01*
X2095500Y4318000D01*
X1778000Y4318000D01*
X1600200Y4495800D01*
X2413000Y3822700D02*
G01*
X2413000Y4191000D01*
X2921000Y3822700D02*
G01*
X2921000Y4254500D01*
X3175000Y3822700D02*
G01*
X3175000Y4318000D01*
X889000Y2044700D02*
G01*
X889000Y1637487D01*
X581405Y1329893D01*
X1143000Y2044700D02*
G01*
X1143000Y1637487D01*
X835405Y1329893D01*
X1651000Y2044700D02*
G01*
X1651000Y1651000D01*
X1587500Y1587500D01*
X1347012Y1587500D01*
X1089405Y1329893D01*
X1905000Y2044700D02*
G01*
X1905000Y1587500D01*
X1841500Y1524000D01*
X1537512Y1524000D01*
X1343405Y1329893D01*
X2159000Y2044700D02*
G01*
X2159000Y1651000D01*
X2413000Y2044700D02*
G01*
X2413000Y1587500D01*
X3175000Y2044700D02*
G01*
X3175000Y1460500D01*
X2921000Y2044700D02*
G01*
X2921000Y1524000D01*
X3429000Y2044700D02*
G01*
X3429000Y1651000D01*
X3477006Y1602994D01*
X3477006Y1329944D01*
D11*
X4699000Y2044700D02*
G01*
X4699000Y1651000D01*
X4493006Y1445005D01*
X4493006Y1329944D01*
D12*
X4572000Y3619500D02*
G01*
X5334000Y3619500D01*
X4318000Y3683000D02*
G01*
X5575300Y3683000D01*
X4953000Y2044700D02*
G01*
X4953000Y1651000D01*
X4747006Y1445005D01*
X4747006Y1329944D01*
X3683000Y2044700D02*
G01*
X3683000Y1651000D01*
X3731006Y1602994D01*
X3731006Y1329944D01*
X4191000Y2044700D02*
G01*
X4191000Y1651000D01*
X3985006Y1445005D01*
X3985006Y1329944D01*
X4445000Y2044700D02*
G01*
X4445000Y1651000D01*
X4239006Y1445005D01*
X4239006Y1329944D01*
X4149092Y5270500D02*
G01*
X3958493Y5270500D01*
X4149092Y5651500D02*
G01*
X3958493Y5651500D01*
D13*
X4309107Y5651500D02*
G01*
X4385307Y5727700D01*
D11*
X5461000Y2044700D02*
G01*
X5461000Y1651000D01*
X5397500Y1587500D01*
X5258612Y1587500D01*
X5001006Y1329893D01*
D13*
X4826000Y5727700D02*
G01*
X4826000Y5588000D01*
D11*
X5080000Y4953000D02*
G01*
X5080000Y5588000D01*
X4699000Y2044700D02*
G01*
X4699000Y2413000D01*
D12*
X311404Y3187700D02*
G01*
X311404Y2070607D01*
X406400Y1840890D02*
G01*
X406400Y1955800D01*
X501395Y1840890D02*
G01*
X501395Y1517395D01*
X444500Y1460500D01*
X444500Y825500D01*
X311404Y1840992D02*
G01*
X311404Y1530095D01*
X381000Y1460500D01*
X381000Y762000D01*
X966825Y456458D02*
G01*
X966825Y825500D01*
X1166825Y456458D02*
G01*
X1166825Y762000D01*
X2921000Y1524000D02*
G01*
X2921000Y889000D01*
X3302000Y508000D01*
X4216400Y463704D02*
G01*
X4216400Y596900D01*
X4628895Y442899D02*
G01*
X4628895Y940003D01*
X4239006Y1329893D01*
X5001006Y1329893D02*
G01*
X5001006Y599694D01*
X5003800Y596900D01*
X5007609Y444500D02*
G01*
X5003800Y448310D01*
X5003800Y596900D01*
X4847590Y444500D02*
G01*
X4628895Y442976D01*
D11*
X673100Y3429000D02*
G01*
X673100Y4089400D01*
X381000Y4381500D01*
X381000Y4953000D01*
D12*
X571500Y2679700D02*
G01*
X571500Y2298700D01*
X501395Y2228595D01*
X501395Y2070607D01*
X673100Y1955800D02*
G01*
X673100Y2413000D01*
D14*
X431800Y2413000D02*
G01*
X431800Y3835400D01*
D12*
X4310125Y5118100D02*
G01*
X4309109Y5270500D01*
D14*
X63500Y5118100D02*
G01*
X63500Y3949700D01*
X177800Y3835400D01*
D12*
X2541524Y456437D02*
G01*
X2540000Y3683000D01*
X2741625Y456458D02*
G01*
X2741625Y598474D01*
X2616200Y723900D01*
X2616200Y723900D02*
G01*
X2603500Y736600D01*
X2603500Y1333500D01*
X2794000Y1524000D01*
X2794000Y3619500D01*
D11*
X5461000Y2044700D02*
G01*
X5207000Y2298700D01*
X5207000Y3429000D01*
D12*
X5207000Y2044700D02*
G01*
X5207000Y2184400D01*
X3759200Y330200D02*
G01*
X3859275Y328676D01*
X3989311Y328688D02*
G01*
X4124325Y463702D01*
X4216400Y463702D01*
D15*
G01*
X3989298Y458698D03*
G01*
X3989298Y328701D03*
G01*
X3859301Y328701D03*
G01*
X3859301Y458698D03*
D16*
G01*
X4216400Y323697D03*
G01*
X4216400Y463702D03*
D17*
G01*
X836803Y203962D03*
D18*
G01*
X1296786Y203974D03*
D19*
G01*
X1166825Y456437D03*
G01*
X1066825Y456437D03*
G01*
X966825Y456437D03*
D17*
G01*
X2411602Y203962D03*
D18*
G01*
X2871586Y203974D03*
D19*
G01*
X2741625Y456437D03*
G01*
X2641625Y456437D03*
G01*
X2541625Y456437D03*
D20*
G01*
X4304424Y5651500D03*
G01*
X4153775Y5651500D03*
D15*
G01*
X3958590Y5270500D03*
G01*
X3788409Y5270500D03*
D20*
G01*
X4304424Y5270500D03*
G01*
X4153775Y5270500D03*
D15*
G01*
X3958590Y5651500D03*
G01*
X3788409Y5651500D03*
D20*
G01*
X5002924Y444500D03*
G01*
X4852275Y444500D03*
D21*
G01*
X4628895Y440994D03*
G01*
X4438904Y440994D03*
G01*
X4533900Y194005D03*
D22*
G01*
X501395Y2070709D03*
G01*
X406400Y2070709D03*
G01*
X311404Y2070709D03*
G01*
X311404Y1840890D03*
G01*
X406400Y1840890D03*
G01*
X501395Y1840890D03*
D23*
G01*
X999997Y6641998D03*
G01*
X17725999Y6641998D03*
G01*
X1499996Y-13683995D03*
G01*
X17226000Y-13683995D03*
G36*
X5619750Y4064000D02*
G01*
X5810250Y4064000D01*
X5810250Y3810000D01*
X5619750Y3810000D01*
G37*
G36*
X5365750Y4064000D02*
G01*
X5556250Y4064000D01*
X5556250Y3810000D01*
X5365750Y3810000D01*
G37*
G36*
X5111750Y4064000D02*
G01*
X5302250Y4064000D01*
X5302250Y3810000D01*
X5111750Y3810000D01*
G37*
G36*
X4857750Y4064000D02*
G01*
X5048250Y4064000D01*
X5048250Y3810000D01*
X4857750Y3810000D01*
G37*
G36*
X4603750Y4064000D02*
G01*
X4794250Y4064000D01*
X4794250Y3810000D01*
X4603750Y3810000D01*
G37*
G36*
X4349750Y4064000D02*
G01*
X4540250Y4064000D01*
X4540250Y3810000D01*
X4349750Y3810000D01*
G37*
G36*
X4095750Y4064000D02*
G01*
X4286250Y4064000D01*
X4286250Y3810000D01*
X4095750Y3810000D01*
G37*
G36*
X3841750Y4064000D02*
G01*
X4032250Y4064000D01*
X4032250Y3810000D01*
X3841750Y3810000D01*
G37*
G36*
X3587750Y4064000D02*
G01*
X3778250Y4064000D01*
X3778250Y3810000D01*
X3587750Y3810000D01*
G37*
G36*
X3333750Y4064000D02*
G01*
X3524250Y4064000D01*
X3524250Y3810000D01*
X3333750Y3810000D01*
G37*
G36*
X3079750Y4064000D02*
G01*
X3270250Y4064000D01*
X3270250Y3810000D01*
X3079750Y3810000D01*
G37*
G36*
X2825750Y4064000D02*
G01*
X3016250Y4064000D01*
X3016250Y3810000D01*
X2825750Y3810000D01*
G37*
G36*
X2571750Y4064000D02*
G01*
X2762250Y4064000D01*
X2762250Y3810000D01*
X2571750Y3810000D01*
G37*
G36*
X2317750Y4064000D02*
G01*
X2508250Y4064000D01*
X2508250Y3810000D01*
X2317750Y3810000D01*
G37*
G36*
X2063750Y4064000D02*
G01*
X2254250Y4064000D01*
X2254250Y3810000D01*
X2063750Y3810000D01*
G37*
G36*
X1809750Y4064000D02*
G01*
X2000250Y4064000D01*
X2000250Y3810000D01*
X1809750Y3810000D01*
G37*
G36*
X1555750Y4064000D02*
G01*
X1746250Y4064000D01*
X1746250Y3810000D01*
X1555750Y3810000D01*
G37*
G36*
X1301750Y4064000D02*
G01*
X1492250Y4064000D01*
X1492250Y3810000D01*
X1301750Y3810000D01*
G37*
G36*
X1047750Y4064000D02*
G01*
X1238250Y4064000D01*
X1238250Y3810000D01*
X1047750Y3810000D01*
G37*
G36*
X793750Y4064000D02*
G01*
X984250Y4064000D01*
X984250Y3810000D01*
X793750Y3810000D01*
G37*
G36*
X5619750Y2032000D02*
G01*
X5810250Y2032000D01*
X5810250Y1778000D01*
X5619750Y1778000D01*
G37*
G36*
X5365750Y2032000D02*
G01*
X5556250Y2032000D01*
X5556250Y1778000D01*
X5365750Y1778000D01*
G37*
G36*
X5111750Y2032000D02*
G01*
X5302250Y2032000D01*
X5302250Y1778000D01*
X5111750Y1778000D01*
G37*
G36*
X4857750Y2032000D02*
G01*
X5048250Y2032000D01*
X5048250Y1778000D01*
X4857750Y1778000D01*
G37*
G36*
X4603750Y2032000D02*
G01*
X4794250Y2032000D01*
X4794250Y1778000D01*
X4603750Y1778000D01*
G37*
G36*
X4349750Y2032000D02*
G01*
X4540250Y2032000D01*
X4540250Y1778000D01*
X4349750Y1778000D01*
G37*
G36*
X4095750Y2032000D02*
G01*
X4286250Y2032000D01*
X4286250Y1778000D01*
X4095750Y1778000D01*
G37*
G36*
X3841750Y2032000D02*
G01*
X4032250Y2032000D01*
X4032250Y1778000D01*
X3841750Y1778000D01*
G37*
G36*
X3587750Y2032000D02*
G01*
X3778250Y2032000D01*
X3778250Y1778000D01*
X3587750Y1778000D01*
G37*
G36*
X3333750Y2032000D02*
G01*
X3524250Y2032000D01*
X3524250Y1778000D01*
X3333750Y1778000D01*
G37*
G36*
X3079750Y2032000D02*
G01*
X3270250Y2032000D01*
X3270250Y1778000D01*
X3079750Y1778000D01*
G37*
G36*
X2825750Y2032000D02*
G01*
X3016250Y2032000D01*
X3016250Y1778000D01*
X2825750Y1778000D01*
G37*
G36*
X2571750Y2032000D02*
G01*
X2762250Y2032000D01*
X2762250Y1778000D01*
X2571750Y1778000D01*
G37*
G36*
X2317750Y2032000D02*
G01*
X2508250Y2032000D01*
X2508250Y1778000D01*
X2317750Y1778000D01*
G37*
G36*
X2063750Y2032000D02*
G01*
X2254250Y2032000D01*
X2254250Y1778000D01*
X2063750Y1778000D01*
G37*
G36*
X1809750Y2032000D02*
G01*
X2000250Y2032000D01*
X2000250Y1778000D01*
X1809750Y1778000D01*
G37*
G36*
X1555750Y2032000D02*
G01*
X1746250Y2032000D01*
X1746250Y1778000D01*
X1555750Y1778000D01*
G37*
G36*
X1301750Y2032000D02*
G01*
X1492250Y2032000D01*
X1492250Y1778000D01*
X1301750Y1778000D01*
G37*
G36*
X1047750Y2032000D02*
G01*
X1238250Y2032000D01*
X1238250Y1778000D01*
X1047750Y1778000D01*
G37*
G36*
X793750Y2032000D02*
G01*
X984250Y2032000D01*
X984250Y1778000D01*
X793750Y1778000D01*
G37*
G36*
X647700Y3028213D02*
G01*
X901700Y3028213D01*
X901700Y2837713D01*
X647700Y2837713D01*
G37*
G36*
X647700Y2774213D02*
G01*
X901700Y2774213D01*
X901700Y2583713D01*
X647700Y2583713D01*
G37*
G36*
X647700Y3282213D02*
G01*
X901700Y3282213D01*
X901700Y3091713D01*
X647700Y3091713D01*
G37*
D24*
G01*
X381000Y5461000D03*
G01*
X5461000Y5461000D03*
G01*
X5461000Y381000D03*
G01*
X381000Y381000D03*
D25*
G01*
X2362200Y4495800D03*
G01*
X2108200Y4495800D03*
G01*
X1854200Y4495800D03*
G01*
X1600200Y4495800D03*
G01*
X1346200Y4495800D03*
G01*
X1092200Y4495800D03*
G01*
X838200Y4495800D03*
G01*
X584200Y4495800D03*
D26*
G01*
X889000Y2679700D03*
G01*
X889000Y3187700D03*
G01*
X889000Y2933700D03*
G01*
X889000Y2044700D03*
G01*
X1143000Y2044700D03*
G01*
X1397000Y2044700D03*
G01*
X1651000Y2044700D03*
G01*
X1905000Y2044700D03*
G01*
X2159000Y2044700D03*
G01*
X2413000Y2044700D03*
G01*
X2667000Y2044700D03*
G01*
X2921000Y2044700D03*
G01*
X3175000Y2044700D03*
G01*
X3429000Y2044700D03*
G01*
X3683000Y2044700D03*
G01*
X3937000Y2044700D03*
G01*
X4191000Y2044700D03*
G01*
X4445000Y2044700D03*
G01*
X4699000Y2044700D03*
G01*
X4953000Y2044700D03*
G01*
X5207000Y2044700D03*
G01*
X5461000Y2044700D03*
G01*
X889000Y3822700D03*
G01*
X1143000Y3822700D03*
G01*
X1397000Y3822700D03*
G01*
X1651000Y3822700D03*
G01*
X1905000Y3822700D03*
G01*
X2159000Y3822700D03*
G01*
X2413000Y3822700D03*
G01*
X2667000Y3822700D03*
G01*
X2921000Y3822700D03*
G01*
X3175000Y3822700D03*
G01*
X3429000Y3822700D03*
G01*
X3683000Y3822700D03*
G01*
X3937000Y3822700D03*
G01*
X4191000Y3822700D03*
G01*
X4445000Y3822700D03*
G01*
X4699000Y3822700D03*
G01*
X4953000Y3822700D03*
G01*
X5207000Y3822700D03*
G01*
X5461000Y3822700D03*
G01*
X5715000Y2044700D03*
G01*
X5715000Y3822700D03*
D25*
G01*
X3479800Y4495800D03*
G01*
X3733800Y4495800D03*
G01*
X3987800Y4495800D03*
G01*
X4241800Y4495800D03*
G01*
X4495800Y4495800D03*
G01*
X4749800Y4495800D03*
G01*
X5003800Y4495800D03*
G01*
X5257800Y4495800D03*
G01*
X2359406Y1329893D03*
G01*
X2105406Y1329893D03*
G01*
X1851405Y1329893D03*
G01*
X1597405Y1329893D03*
G01*
X1343405Y1329893D03*
G01*
X1089405Y1329893D03*
G01*
X835405Y1329893D03*
G01*
X581405Y1329893D03*
G01*
X5255006Y1329893D03*
G01*
X5001006Y1329893D03*
G01*
X4747006Y1329893D03*
G01*
X4493006Y1329893D03*
G01*
X4239006Y1329893D03*
G01*
X3985006Y1329893D03*
G01*
X3731006Y1329893D03*
G01*
X3477006Y1329893D03*
D27*
G01*
X4826000Y5588000D03*
G01*
X4826000Y5334000D03*
G01*
X4572000Y5334000D03*
G01*
X4572000Y5588000D03*
D26*
G01*
X3302000Y508000D03*
G01*
X3556000Y508000D03*
G01*
X431800Y3835400D03*
G01*
X177800Y3835400D03*
D28*
G01*
X2413000Y4191000D03*
G01*
X2921000Y4254500D03*
G01*
X3175000Y4318000D03*
G01*
X2159000Y1651000D03*
G01*
X2413000Y1587500D03*
G01*
X3175000Y1460500D03*
G01*
X2921000Y1524000D03*
G01*
X381000Y762000D03*
G01*
X444500Y825500D03*
G01*
X5334000Y3619500D03*
G01*
X5575300Y3683000D03*
G01*
X2540000Y3683000D03*
G01*
X2794000Y3619500D03*
G01*
X876300Y3606800D03*
G01*
X5207000Y3543300D03*
G01*
X4826000Y5727700D03*
G01*
X5080000Y5588000D03*
G01*
X4826000Y5118100D03*
G01*
X5080000Y4953000D03*
G01*
X4385309Y5727700D03*
G01*
X381000Y4953000D03*
G01*
X5207000Y3429000D03*
G01*
X673100Y3429000D03*
G01*
X4309109Y5118100D03*
G01*
X63500Y5118100D03*
G01*
X4699000Y2413000D03*
G01*
X431800Y2413000D03*
G01*
X571500Y2679700D03*
G01*
X311404Y3187700D03*
G01*
X406400Y1955800D03*
G01*
X673100Y1955800D03*
G01*
X966825Y825500D03*
G01*
X1166825Y762000D03*
G01*
X4216400Y596900D03*
G01*
X5003800Y596900D03*
G01*
X3759200Y330200D03*
G01*
X673100Y2413000D03*
G01*
X2667000Y2235200D03*
G01*
X2667000Y3619500D03*
G01*
X609600Y1524000D03*
G01*
X203200Y1524000D03*
G01*
X215900Y4927600D03*
G01*
X215900Y4508500D03*
G01*
X4622800Y1181100D03*
M02*
