M48
METRIC,LZ,000.000
;FILE_FORMAT=3:3
;TYPE=PLATED
;Layer: PTH_Through_Via
;EasyEDA v6.5.34, 2023-08-21 18:11:39
;2627495fbc544a30b07f086ad93dee0d,5a6b42c53f6a479593ecc07194224c93,10
;Gerber Generator version 0.2
;Holesize 1 = 0.305 mm
T01C0.305
%
G05
G90
T01
X016510Y014232
X016510Y-006878
X001143Y014232
X017907Y015756
X017907Y-004338
X-001397Y015756
X-001397Y-006342
X010541Y008390
X010541Y-006342
X001143Y-007104
X011303Y005850
X011303Y-007104
X011938Y003310
X011938Y-007866
X003683Y-007866
X-018415Y000389
X-018415Y021090
X-018415Y-001643
X017879Y-012819
X017879Y-009418
X024638Y019439
X031496Y-001770
X031496Y019439
X016383Y021090
X016383Y024011
X027178Y026170
X027178Y021090
X-018415Y-012819
M30
