G04 Layer: BottomLayer*
G04 EasyEDA v6.5.34, 2023-08-21 18:11:39*
G04 7b247d529b5f40d99c6f45047b1d8e8f,5a6b42c53f6a479593ecc07194224c93,10*
G04 Gerber Generator version 0.2*
G04 Scale: 100 percent, Rotated: No, Reflected: No *
G04 Dimensions in millimeters *
G04 leading zeros omitted , absolute positions ,4 integer and 5 decimal *
%FSLAX45Y45*%
%MOMM*%

%ADD10C,0.1524*%
%ADD11C,0.5000*%
%ADD12C,0.2540*%
%ADD13R,1.6002X1.6002*%
%ADD14C,1.6002*%
%ADD15C,5.0000*%
%ADD16C,1.8000*%
%ADD17C,2.0000*%
%ADD18C,0.6096*%
%ADD19C,0.0164*%

%LPD*%
G36*
X5805932Y25908D02*
G01*
X36068Y26416D01*
X32156Y27178D01*
X28905Y29362D01*
X26670Y32664D01*
X25908Y36576D01*
X25908Y5805932D01*
X26670Y5809843D01*
X28905Y5813094D01*
X32156Y5815330D01*
X36068Y5816092D01*
X2555240Y5816092D01*
X2559151Y5815330D01*
X2562402Y5813094D01*
X2564638Y5809843D01*
X2565400Y5805932D01*
X2566162Y5809843D01*
X2568397Y5813094D01*
X2571648Y5815330D01*
X2575560Y5816092D01*
X5805932Y5816092D01*
X5809843Y5815330D01*
X5813094Y5813094D01*
X5815330Y5809843D01*
X5816092Y5805932D01*
X5816092Y36068D01*
X5815330Y32207D01*
X5813094Y28905D01*
X5809843Y26670D01*
G37*

%LPC*%
G36*
X2794000Y3170682D02*
G01*
X2807817Y3171596D01*
X2821381Y3174288D01*
X2834538Y3178759D01*
X2846933Y3184906D01*
X2858465Y3192576D01*
X2868879Y3201720D01*
X2878023Y3212134D01*
X2885694Y3223666D01*
X2891840Y3236061D01*
X2896260Y3249168D01*
X2899003Y3262782D01*
X2899867Y3276600D01*
X2899003Y3290417D01*
X2896260Y3303981D01*
X2891840Y3317138D01*
X2885694Y3329533D01*
X2878023Y3341065D01*
X2868879Y3351479D01*
X2858465Y3360623D01*
X2849422Y3366668D01*
X2846984Y3368903D01*
X2845460Y3371850D01*
X2844901Y3375101D01*
X2844901Y4457801D01*
X2845663Y4461713D01*
X2847898Y4464964D01*
X3344976Y4962093D01*
X3347872Y4964125D01*
X3355594Y4967681D01*
X3363620Y4973320D01*
X3370579Y4980279D01*
X3376218Y4988306D01*
X3380333Y4997246D01*
X3382873Y5006695D01*
X3383737Y5016500D01*
X3382873Y5026304D01*
X3380333Y5035753D01*
X3376218Y5044694D01*
X3370579Y5052720D01*
X3363620Y5059680D01*
X3355594Y5065318D01*
X3346653Y5069433D01*
X3337204Y5071973D01*
X3327400Y5072837D01*
X3317595Y5071973D01*
X3308146Y5069433D01*
X3299206Y5065318D01*
X3291179Y5059680D01*
X3284220Y5052720D01*
X3278581Y5044694D01*
X3275025Y5036972D01*
X3272993Y5034076D01*
X2758135Y4519269D01*
X2754985Y4515815D01*
X2752293Y4512310D01*
X2749905Y4508550D01*
X2747873Y4504588D01*
X2746146Y4500524D01*
X2744825Y4496257D01*
X2743860Y4491939D01*
X2743301Y4487519D01*
X2743098Y4482896D01*
X2743098Y3375101D01*
X2742539Y3371850D01*
X2741015Y3368903D01*
X2738577Y3366668D01*
X2729534Y3360623D01*
X2719120Y3351479D01*
X2709976Y3341065D01*
X2702306Y3329533D01*
X2696159Y3317138D01*
X2691688Y3303981D01*
X2688996Y3290417D01*
X2688082Y3276600D01*
X2688996Y3262782D01*
X2691688Y3249168D01*
X2696159Y3236061D01*
X2702306Y3223666D01*
X2709976Y3212134D01*
X2719120Y3201720D01*
X2729534Y3192576D01*
X2741066Y3184906D01*
X2753461Y3178759D01*
X2766568Y3174288D01*
X2780182Y3171596D01*
G37*
G36*
X393700Y105562D02*
G01*
X398322Y105664D01*
X421284Y108051D01*
X443992Y112369D01*
X466242Y118618D01*
X487934Y126644D01*
X508812Y136499D01*
X528828Y148031D01*
X547827Y161239D01*
X565607Y175971D01*
X582117Y192125D01*
X597204Y209600D01*
X610819Y228295D01*
X622757Y248107D01*
X633018Y268782D01*
X641553Y290271D01*
X648208Y312369D01*
X653034Y334975D01*
X655929Y357936D01*
X656336Y368300D01*
X393700Y368300D01*
G37*
G36*
X5448300Y105613D02*
G01*
X5448300Y368300D01*
X5185410Y368300D01*
X5187289Y346405D01*
X5191150Y323646D01*
X5196890Y301244D01*
X5204460Y279450D01*
X5213858Y258317D01*
X5224983Y238099D01*
X5237784Y218846D01*
X5252161Y200710D01*
X5267960Y183896D01*
X5285130Y168402D01*
X5303520Y154432D01*
X5323027Y142087D01*
X5343499Y131368D01*
X5364835Y122428D01*
X5386781Y115265D01*
X5409285Y109982D01*
X5432145Y106629D01*
G37*
G36*
X368300Y105613D02*
G01*
X368300Y368300D01*
X105410Y368300D01*
X107289Y346405D01*
X111150Y323646D01*
X116890Y301244D01*
X124460Y279450D01*
X133858Y258317D01*
X144983Y238099D01*
X157784Y218846D01*
X172161Y200710D01*
X187960Y183896D01*
X205130Y168402D01*
X223520Y154432D01*
X243027Y142087D01*
X263499Y131368D01*
X284835Y122428D01*
X306781Y115265D01*
X329285Y109982D01*
X352145Y106629D01*
G37*
G36*
X393700Y393700D02*
G01*
X656336Y393700D01*
X655929Y404063D01*
X653034Y427024D01*
X648208Y449630D01*
X641553Y471728D01*
X633018Y493217D01*
X622757Y513892D01*
X610819Y533704D01*
X597204Y552348D01*
X582117Y569874D01*
X565607Y586028D01*
X547827Y600760D01*
X528828Y613968D01*
X508812Y625500D01*
X487934Y635355D01*
X466242Y643382D01*
X443992Y649630D01*
X421284Y653948D01*
X398322Y656336D01*
X393700Y656437D01*
G37*
G36*
X5473700Y393700D02*
G01*
X5736336Y393700D01*
X5735929Y404063D01*
X5733034Y427024D01*
X5728208Y449630D01*
X5721553Y471728D01*
X5713018Y493217D01*
X5702757Y513892D01*
X5690819Y533704D01*
X5677204Y552348D01*
X5662117Y569874D01*
X5645607Y586028D01*
X5627827Y600760D01*
X5608828Y613968D01*
X5588812Y625500D01*
X5567934Y635355D01*
X5546242Y643382D01*
X5523992Y649630D01*
X5501284Y653948D01*
X5478322Y656336D01*
X5473700Y656437D01*
G37*
G36*
X5185410Y393700D02*
G01*
X5448300Y393700D01*
X5448300Y656386D01*
X5432145Y655370D01*
X5409285Y652018D01*
X5386781Y646734D01*
X5364835Y639572D01*
X5343499Y630631D01*
X5323027Y619912D01*
X5303520Y607568D01*
X5285130Y593598D01*
X5267960Y578104D01*
X5252161Y561289D01*
X5237784Y543153D01*
X5224983Y523900D01*
X5213858Y503682D01*
X5204460Y482549D01*
X5196890Y460756D01*
X5191150Y438353D01*
X5187289Y415594D01*
G37*
G36*
X105410Y393700D02*
G01*
X368300Y393700D01*
X368300Y656386D01*
X352145Y655370D01*
X329285Y652018D01*
X306781Y646734D01*
X284835Y639572D01*
X263499Y630631D01*
X243027Y619912D01*
X223520Y607568D01*
X205130Y593598D01*
X187960Y578104D01*
X172161Y561289D01*
X157784Y543153D01*
X144983Y523900D01*
X133858Y503682D01*
X124460Y482549D01*
X116890Y460756D01*
X111150Y438353D01*
X107289Y415594D01*
G37*
G36*
X2794000Y1975662D02*
G01*
X2803804Y1976526D01*
X2813253Y1979066D01*
X2822194Y1983181D01*
X2830220Y1988820D01*
X2837180Y1995779D01*
X2842818Y2003806D01*
X2846933Y2012746D01*
X2849473Y2022195D01*
X2850337Y2032000D01*
X2849473Y2041804D01*
X2846933Y2051253D01*
X2845866Y2053589D01*
X2844901Y2057907D01*
X2844901Y2416098D01*
X2845460Y2419350D01*
X2846984Y2422296D01*
X2849422Y2424531D01*
X2858465Y2430576D01*
X2868879Y2439720D01*
X2878023Y2450134D01*
X2885694Y2461666D01*
X2891840Y2474061D01*
X2896260Y2487168D01*
X2899003Y2500782D01*
X2899867Y2514600D01*
X2899003Y2528417D01*
X2896260Y2541981D01*
X2891840Y2555138D01*
X2885694Y2567533D01*
X2878023Y2579065D01*
X2868879Y2589479D01*
X2858465Y2598623D01*
X2846933Y2606294D01*
X2834538Y2612440D01*
X2821381Y2616860D01*
X2807817Y2619603D01*
X2794000Y2620467D01*
X2780182Y2619603D01*
X2766568Y2616860D01*
X2753461Y2612440D01*
X2741066Y2606294D01*
X2729534Y2598623D01*
X2719120Y2589479D01*
X2709976Y2579065D01*
X2702306Y2567533D01*
X2696159Y2555138D01*
X2691688Y2541981D01*
X2688996Y2528417D01*
X2688082Y2514600D01*
X2688996Y2500782D01*
X2691688Y2487168D01*
X2696159Y2474061D01*
X2702306Y2461666D01*
X2709976Y2450134D01*
X2719120Y2439720D01*
X2729534Y2430576D01*
X2738577Y2424531D01*
X2741015Y2422296D01*
X2742539Y2419350D01*
X2743098Y2416098D01*
X2743098Y2057907D01*
X2742133Y2053640D01*
X2741066Y2051253D01*
X2738526Y2041804D01*
X2737662Y2032000D01*
X2738526Y2022195D01*
X2741066Y2012746D01*
X2745181Y2003806D01*
X2750820Y1995779D01*
X2757779Y1988820D01*
X2765806Y1983181D01*
X2774746Y1979066D01*
X2784195Y1976526D01*
G37*
G36*
X910793Y1975662D02*
G01*
X920597Y1976526D01*
X930097Y1979066D01*
X938987Y1983181D01*
X947013Y1988820D01*
X953973Y1995779D01*
X959612Y2003806D01*
X963777Y2012746D01*
X966317Y2022195D01*
X967181Y2032000D01*
X966317Y2041804D01*
X963777Y2051253D01*
X962710Y2053539D01*
X961745Y2057857D01*
X961745Y2398877D01*
X962507Y2402687D01*
X964590Y2405938D01*
X982319Y2416708D01*
X994308Y2426106D01*
X1005027Y2436876D01*
X1014425Y2448814D01*
X1022299Y2461818D01*
X1028496Y2475687D01*
X1033018Y2490216D01*
X1035761Y2505151D01*
X1036675Y2520340D01*
X1035761Y2535529D01*
X1033018Y2550464D01*
X1028496Y2564993D01*
X1022299Y2578811D01*
X1014425Y2591866D01*
X1005027Y2603804D01*
X994308Y2614574D01*
X982319Y2623921D01*
X969314Y2631795D01*
X955395Y2638044D01*
X952246Y2640279D01*
X950112Y2643530D01*
X949401Y2647340D01*
X950112Y2651150D01*
X952246Y2654350D01*
X955395Y2656586D01*
X969314Y2662885D01*
X982319Y2670708D01*
X994308Y2680106D01*
X1005027Y2690876D01*
X1014425Y2702814D01*
X1022299Y2715818D01*
X1028496Y2729687D01*
X1033018Y2744216D01*
X1035761Y2759151D01*
X1036675Y2774340D01*
X1035761Y2789529D01*
X1033018Y2804464D01*
X1028496Y2818993D01*
X1022299Y2832811D01*
X1014425Y2845866D01*
X1005027Y2857804D01*
X994308Y2868574D01*
X982319Y2877921D01*
X969314Y2885795D01*
X955395Y2892044D01*
X952246Y2894279D01*
X950112Y2897530D01*
X949401Y2901340D01*
X950112Y2905150D01*
X952246Y2908350D01*
X955395Y2910586D01*
X969314Y2916885D01*
X982319Y2924708D01*
X994308Y2934106D01*
X1005027Y2944876D01*
X1014425Y2956814D01*
X1022299Y2969818D01*
X1028496Y2983687D01*
X1033018Y2998216D01*
X1035761Y3013151D01*
X1036675Y3028340D01*
X1035761Y3043529D01*
X1033018Y3058464D01*
X1028496Y3072993D01*
X1022299Y3086811D01*
X1014425Y3099866D01*
X1005027Y3111804D01*
X994308Y3122574D01*
X982319Y3131921D01*
X969314Y3139795D01*
X955395Y3146044D01*
X952246Y3148279D01*
X950112Y3151530D01*
X949401Y3155340D01*
X950112Y3159150D01*
X952246Y3162350D01*
X955395Y3164586D01*
X969314Y3170885D01*
X982319Y3178708D01*
X994308Y3188106D01*
X1005027Y3198876D01*
X1014425Y3210814D01*
X1022299Y3223818D01*
X1028496Y3237687D01*
X1033018Y3252215D01*
X1035761Y3267151D01*
X1036675Y3282340D01*
X1035761Y3297529D01*
X1033018Y3312464D01*
X1028496Y3326993D01*
X1022299Y3340811D01*
X1014425Y3353866D01*
X1005027Y3365804D01*
X994308Y3376574D01*
X982319Y3385921D01*
X969314Y3393795D01*
X955446Y3400044D01*
X940917Y3404565D01*
X925982Y3407308D01*
X910793Y3408222D01*
X895654Y3407308D01*
X880668Y3404565D01*
X866190Y3400044D01*
X852322Y3393795D01*
X839317Y3385921D01*
X827328Y3376574D01*
X816559Y3365804D01*
X807212Y3353866D01*
X799338Y3340811D01*
X793089Y3326993D01*
X788568Y3312464D01*
X785825Y3297529D01*
X784910Y3282340D01*
X785825Y3267151D01*
X788568Y3252215D01*
X793089Y3237687D01*
X799338Y3223818D01*
X807212Y3210814D01*
X816559Y3198876D01*
X827328Y3188106D01*
X839317Y3178708D01*
X852322Y3170885D01*
X866241Y3164586D01*
X869391Y3162350D01*
X871474Y3159150D01*
X872236Y3155340D01*
X871474Y3151530D01*
X869391Y3148279D01*
X866241Y3146044D01*
X852322Y3139795D01*
X839317Y3131921D01*
X827328Y3122574D01*
X816559Y3111804D01*
X807212Y3099866D01*
X799338Y3086811D01*
X793089Y3072993D01*
X788568Y3058464D01*
X785825Y3043529D01*
X784910Y3028340D01*
X785825Y3013151D01*
X788568Y2998216D01*
X793089Y2983687D01*
X799338Y2969818D01*
X807212Y2956814D01*
X816559Y2944876D01*
X827328Y2934106D01*
X839317Y2924708D01*
X852322Y2916885D01*
X866241Y2910586D01*
X869391Y2908350D01*
X871474Y2905150D01*
X872236Y2901340D01*
X871474Y2897530D01*
X869391Y2894279D01*
X866241Y2892044D01*
X852322Y2885795D01*
X839317Y2877921D01*
X827328Y2868574D01*
X816559Y2857804D01*
X807212Y2845866D01*
X799338Y2832811D01*
X793089Y2818993D01*
X788568Y2804464D01*
X785825Y2789529D01*
X784910Y2774340D01*
X785825Y2759151D01*
X788568Y2744216D01*
X793089Y2729687D01*
X799338Y2715818D01*
X807212Y2702814D01*
X816559Y2690876D01*
X827328Y2680106D01*
X839317Y2670708D01*
X852322Y2662885D01*
X866241Y2656586D01*
X869391Y2654350D01*
X871474Y2651150D01*
X872236Y2647340D01*
X871474Y2643530D01*
X869391Y2640279D01*
X866241Y2638044D01*
X852322Y2631795D01*
X839317Y2623921D01*
X827328Y2614574D01*
X816559Y2603804D01*
X807212Y2591866D01*
X799338Y2578811D01*
X793089Y2564993D01*
X788568Y2550464D01*
X785825Y2535529D01*
X784910Y2520340D01*
X785825Y2505151D01*
X788568Y2490216D01*
X793089Y2475687D01*
X799338Y2461818D01*
X807212Y2448814D01*
X816559Y2436876D01*
X827328Y2426106D01*
X839317Y2416708D01*
X852322Y2408885D01*
X853948Y2408123D01*
X857097Y2405888D01*
X859180Y2402636D01*
X859942Y2398877D01*
X859942Y2057958D01*
X858977Y2053691D01*
X857859Y2051253D01*
X855319Y2041804D01*
X854456Y2032000D01*
X855319Y2022195D01*
X857859Y2012746D01*
X862025Y2003806D01*
X867664Y1995779D01*
X874572Y1988820D01*
X882650Y1983181D01*
X891540Y1979066D01*
X901039Y1976526D01*
G37*
G36*
X5156250Y2043734D02*
G01*
X5170068Y2044598D01*
X5183632Y2047341D01*
X5196738Y2051761D01*
X5209184Y2057907D01*
X5220665Y2065578D01*
X5231079Y2074722D01*
X5240223Y2085136D01*
X5247944Y2096668D01*
X5254040Y2109063D01*
X5258511Y2122220D01*
X5261203Y2135784D01*
X5262118Y2149602D01*
X5261203Y2163419D01*
X5258511Y2176983D01*
X5254040Y2190140D01*
X5247944Y2202535D01*
X5240223Y2214067D01*
X5231079Y2224481D01*
X5220665Y2233625D01*
X5209184Y2241296D01*
X5196738Y2247442D01*
X5183632Y2251862D01*
X5170068Y2254605D01*
X5156250Y2255469D01*
X5142382Y2254605D01*
X5128818Y2251862D01*
X5115712Y2247442D01*
X5103266Y2241296D01*
X5091785Y2233625D01*
X5081371Y2224481D01*
X5072227Y2214067D01*
X5064506Y2202535D01*
X5058410Y2190140D01*
X5053939Y2176983D01*
X5051247Y2163419D01*
X5050332Y2149602D01*
X5051247Y2135784D01*
X5053939Y2122220D01*
X5058410Y2109063D01*
X5064506Y2096668D01*
X5072227Y2085136D01*
X5081371Y2074722D01*
X5091785Y2065578D01*
X5103266Y2057907D01*
X5115712Y2051761D01*
X5128818Y2047341D01*
X5142382Y2044598D01*
G37*
G36*
X685800Y2051913D02*
G01*
X699617Y2052828D01*
X713181Y2055520D01*
X726338Y2059990D01*
X738733Y2066086D01*
X750265Y2073808D01*
X760679Y2082952D01*
X769823Y2093366D01*
X777494Y2104847D01*
X783640Y2117293D01*
X788060Y2130399D01*
X790803Y2143963D01*
X791667Y2157780D01*
X790803Y2171649D01*
X788060Y2185212D01*
X783640Y2198319D01*
X777494Y2210765D01*
X769823Y2222246D01*
X760679Y2232660D01*
X750265Y2241804D01*
X738733Y2249525D01*
X726338Y2255621D01*
X713181Y2260092D01*
X699617Y2262784D01*
X685800Y2263698D01*
X671982Y2262784D01*
X658418Y2260092D01*
X645261Y2255621D01*
X632866Y2249525D01*
X621334Y2241804D01*
X610920Y2232660D01*
X601776Y2222246D01*
X594106Y2210765D01*
X587959Y2198319D01*
X583539Y2185212D01*
X580796Y2171649D01*
X579932Y2157780D01*
X580796Y2143963D01*
X583539Y2130399D01*
X587959Y2117293D01*
X594106Y2104847D01*
X601776Y2093366D01*
X610920Y2082952D01*
X621334Y2073808D01*
X632866Y2066086D01*
X645261Y2059990D01*
X658418Y2055520D01*
X671982Y2052828D01*
G37*
G36*
X4931206Y2386279D02*
G01*
X4946396Y2387193D01*
X4961331Y2389936D01*
X4975860Y2394458D01*
X4989728Y2400706D01*
X5002733Y2408580D01*
X5014722Y2417927D01*
X5025440Y2428697D01*
X5034838Y2440635D01*
X5042662Y2453690D01*
X5048910Y2467508D01*
X5053431Y2482037D01*
X5056174Y2496972D01*
X5057089Y2512161D01*
X5056174Y2527350D01*
X5053431Y2542286D01*
X5048910Y2556814D01*
X5042662Y2570683D01*
X5034838Y2583688D01*
X5025440Y2595626D01*
X5014722Y2606395D01*
X5002733Y2615793D01*
X4989728Y2623616D01*
X4975809Y2629916D01*
X4972659Y2632151D01*
X4970526Y2635351D01*
X4969814Y2639161D01*
X4970526Y2642971D01*
X4972659Y2646222D01*
X4975809Y2648458D01*
X4989728Y2654706D01*
X5002733Y2662580D01*
X5014722Y2671927D01*
X5025440Y2682697D01*
X5034838Y2694635D01*
X5042662Y2707690D01*
X5048910Y2721508D01*
X5053431Y2736037D01*
X5056174Y2750972D01*
X5057089Y2766161D01*
X5056174Y2781350D01*
X5053431Y2796286D01*
X5048910Y2810814D01*
X5042662Y2824683D01*
X5034838Y2837688D01*
X5025440Y2849626D01*
X5014722Y2860395D01*
X5002733Y2869793D01*
X4989728Y2877616D01*
X4975809Y2883916D01*
X4972659Y2886151D01*
X4970526Y2889351D01*
X4969814Y2893161D01*
X4970526Y2896971D01*
X4972659Y2900222D01*
X4975809Y2902458D01*
X4989728Y2908706D01*
X5002733Y2916580D01*
X5014722Y2925927D01*
X5025440Y2936697D01*
X5034838Y2948635D01*
X5042662Y2961690D01*
X5048910Y2975508D01*
X5053431Y2990037D01*
X5056174Y3004972D01*
X5057089Y3020161D01*
X5056174Y3035350D01*
X5053431Y3050286D01*
X5048910Y3064814D01*
X5042662Y3078683D01*
X5034838Y3091688D01*
X5025440Y3103626D01*
X5014722Y3114395D01*
X5002733Y3123793D01*
X4989728Y3131616D01*
X4975809Y3137916D01*
X4972659Y3140151D01*
X4970526Y3143351D01*
X4969814Y3147161D01*
X4970526Y3150971D01*
X4972659Y3154222D01*
X4975809Y3156458D01*
X4989728Y3162706D01*
X5002733Y3170580D01*
X5014722Y3179927D01*
X5025440Y3190697D01*
X5034838Y3202635D01*
X5042662Y3215690D01*
X5048910Y3229508D01*
X5053431Y3244037D01*
X5056174Y3258972D01*
X5057089Y3274161D01*
X5056174Y3289350D01*
X5053431Y3304286D01*
X5048910Y3318814D01*
X5042662Y3332683D01*
X5034838Y3345687D01*
X5025440Y3357626D01*
X5014722Y3368395D01*
X5002733Y3377793D01*
X4989728Y3385616D01*
X4975860Y3391865D01*
X4961331Y3396386D01*
X4946396Y3399129D01*
X4931206Y3400044D01*
X4916017Y3399129D01*
X4901082Y3396386D01*
X4886553Y3391865D01*
X4872736Y3385616D01*
X4859680Y3377793D01*
X4847742Y3368395D01*
X4836972Y3357626D01*
X4827625Y3345687D01*
X4819751Y3332683D01*
X4813503Y3318814D01*
X4808982Y3304286D01*
X4806238Y3289350D01*
X4805324Y3274161D01*
X4806238Y3258972D01*
X4808982Y3244037D01*
X4813503Y3229508D01*
X4819751Y3215690D01*
X4827625Y3202635D01*
X4836972Y3190697D01*
X4847742Y3179927D01*
X4859680Y3170580D01*
X4872736Y3162706D01*
X4886655Y3156458D01*
X4889804Y3154222D01*
X4891887Y3150971D01*
X4892649Y3147161D01*
X4891887Y3143351D01*
X4889804Y3140151D01*
X4886655Y3137916D01*
X4872736Y3131616D01*
X4859680Y3123793D01*
X4847742Y3114395D01*
X4836972Y3103626D01*
X4827625Y3091688D01*
X4819751Y3078683D01*
X4813503Y3064814D01*
X4808982Y3050286D01*
X4806238Y3035350D01*
X4805324Y3020161D01*
X4806238Y3004972D01*
X4808982Y2990037D01*
X4813503Y2975508D01*
X4819751Y2961690D01*
X4827625Y2948635D01*
X4836972Y2936697D01*
X4847742Y2925927D01*
X4859680Y2916580D01*
X4872736Y2908706D01*
X4886655Y2902458D01*
X4889804Y2900222D01*
X4891887Y2896971D01*
X4892649Y2893161D01*
X4891887Y2889351D01*
X4889804Y2886151D01*
X4886655Y2883916D01*
X4872736Y2877616D01*
X4859680Y2869793D01*
X4847742Y2860395D01*
X4836972Y2849626D01*
X4827625Y2837688D01*
X4819751Y2824683D01*
X4813503Y2810814D01*
X4808982Y2796286D01*
X4806238Y2781350D01*
X4805324Y2766161D01*
X4806238Y2750972D01*
X4808982Y2736037D01*
X4813503Y2721508D01*
X4819751Y2707690D01*
X4827625Y2694635D01*
X4836972Y2682697D01*
X4847742Y2671927D01*
X4859680Y2662580D01*
X4872736Y2654706D01*
X4886655Y2648458D01*
X4889804Y2646222D01*
X4891887Y2642971D01*
X4892649Y2639161D01*
X4891887Y2635351D01*
X4889804Y2632151D01*
X4886655Y2629916D01*
X4872736Y2623616D01*
X4859680Y2615793D01*
X4847742Y2606395D01*
X4836972Y2595626D01*
X4827625Y2583688D01*
X4819751Y2570683D01*
X4813503Y2556814D01*
X4808982Y2542286D01*
X4806238Y2527350D01*
X4805324Y2512161D01*
X4806238Y2496972D01*
X4808982Y2482037D01*
X4813503Y2467508D01*
X4819751Y2453690D01*
X4827625Y2440635D01*
X4836972Y2428697D01*
X4847742Y2417927D01*
X4859680Y2408580D01*
X4872736Y2400706D01*
X4886553Y2394458D01*
X4901082Y2389936D01*
X4916017Y2387193D01*
G37*
G36*
X2019300Y2409545D02*
G01*
X2019300Y2501900D01*
X1926945Y2501900D01*
X1926996Y2500782D01*
X1929688Y2487168D01*
X1934159Y2474061D01*
X1940306Y2461666D01*
X1947976Y2450134D01*
X1957120Y2439720D01*
X1967534Y2430576D01*
X1979066Y2422906D01*
X1991461Y2416759D01*
X2004568Y2412288D01*
X2018182Y2409596D01*
G37*
G36*
X2044700Y2409545D02*
G01*
X2045817Y2409596D01*
X2059381Y2412288D01*
X2072538Y2416759D01*
X2084933Y2422906D01*
X2096465Y2430576D01*
X2106879Y2439720D01*
X2116023Y2450134D01*
X2123694Y2461666D01*
X2129840Y2474061D01*
X2134260Y2487168D01*
X2137003Y2500782D01*
X2137054Y2501900D01*
X2044700Y2501900D01*
G37*
G36*
X3048000Y2458262D02*
G01*
X3057804Y2459126D01*
X3067253Y2461666D01*
X3076194Y2465781D01*
X3084220Y2471420D01*
X3091180Y2478379D01*
X3096818Y2486406D01*
X3100933Y2495346D01*
X3103473Y2504795D01*
X3104337Y2514600D01*
X3103473Y2524404D01*
X3100933Y2533853D01*
X3096818Y2542794D01*
X3091180Y2550820D01*
X3089605Y2552395D01*
X3087370Y2555697D01*
X3086608Y2559558D01*
X3086608Y2977591D01*
X3087370Y2981502D01*
X3089605Y2984804D01*
X3091180Y2986379D01*
X3096818Y2994406D01*
X3100933Y3003346D01*
X3103473Y3012795D01*
X3104337Y3022600D01*
X3103473Y3032404D01*
X3100933Y3041853D01*
X3096818Y3050794D01*
X3091180Y3058820D01*
X3084220Y3065780D01*
X3076194Y3071418D01*
X3067253Y3075533D01*
X3057804Y3078073D01*
X3048000Y3078937D01*
X3038195Y3078073D01*
X3028746Y3075533D01*
X3019806Y3071418D01*
X3011779Y3065780D01*
X3004820Y3058820D01*
X2999181Y3050794D01*
X2995066Y3041853D01*
X2992526Y3032404D01*
X2991662Y3022600D01*
X2992526Y3012795D01*
X2995066Y3003346D01*
X2999181Y2994406D01*
X3004820Y2986379D01*
X3006394Y2984804D01*
X3008630Y2981502D01*
X3009392Y2977591D01*
X3009392Y2559608D01*
X3008630Y2555697D01*
X3006394Y2552395D01*
X3004820Y2550820D01*
X2999181Y2542794D01*
X2995066Y2533853D01*
X2992526Y2524404D01*
X2991662Y2514600D01*
X2992526Y2504795D01*
X2995066Y2495346D01*
X2999181Y2486406D01*
X3004820Y2478379D01*
X3011779Y2471420D01*
X3019806Y2465781D01*
X3028746Y2461666D01*
X3038195Y2459126D01*
G37*
G36*
X1926945Y2527300D02*
G01*
X2019300Y2527300D01*
X2019300Y2619654D01*
X2018182Y2619603D01*
X2004568Y2616860D01*
X1991461Y2612440D01*
X1979066Y2606294D01*
X1967534Y2598623D01*
X1957120Y2589479D01*
X1947976Y2579065D01*
X1940306Y2567533D01*
X1934159Y2555138D01*
X1929688Y2541981D01*
X1926996Y2528417D01*
G37*
G36*
X2044700Y2527300D02*
G01*
X2137054Y2527300D01*
X2137003Y2528417D01*
X2134260Y2541981D01*
X2129840Y2555138D01*
X2123694Y2567533D01*
X2116023Y2579065D01*
X2106879Y2589479D01*
X2096465Y2598623D01*
X2084933Y2606294D01*
X2072538Y2612440D01*
X2059381Y2616860D01*
X2045817Y2619603D01*
X2044700Y2619654D01*
G37*
G36*
X2032000Y2662682D02*
G01*
X2045817Y2663596D01*
X2059381Y2666288D01*
X2072538Y2670759D01*
X2084933Y2676906D01*
X2096465Y2684576D01*
X2106879Y2693720D01*
X2116023Y2704134D01*
X2123694Y2715666D01*
X2129840Y2728061D01*
X2134260Y2741168D01*
X2137003Y2754782D01*
X2137867Y2768600D01*
X2137003Y2782417D01*
X2134260Y2795981D01*
X2129840Y2809138D01*
X2123694Y2821533D01*
X2116023Y2833065D01*
X2106879Y2843479D01*
X2096465Y2852623D01*
X2084933Y2860294D01*
X2072538Y2866440D01*
X2059381Y2870860D01*
X2045817Y2873603D01*
X2032000Y2874467D01*
X2018182Y2873603D01*
X2004568Y2870860D01*
X1991461Y2866440D01*
X1979066Y2860294D01*
X1967534Y2852623D01*
X1957120Y2843479D01*
X1947976Y2833065D01*
X1940306Y2821533D01*
X1934159Y2809138D01*
X1929688Y2795981D01*
X1926996Y2782417D01*
X1926082Y2768600D01*
X1926996Y2754782D01*
X1929688Y2741168D01*
X1934159Y2728061D01*
X1940306Y2715666D01*
X1947976Y2704134D01*
X1957120Y2693720D01*
X1967534Y2684576D01*
X1979066Y2676906D01*
X1991461Y2670759D01*
X2004568Y2666288D01*
X2018182Y2663596D01*
G37*
G36*
X2794000Y2662682D02*
G01*
X2807817Y2663596D01*
X2821381Y2666288D01*
X2834538Y2670759D01*
X2846933Y2676906D01*
X2858465Y2684576D01*
X2868879Y2693720D01*
X2878023Y2704134D01*
X2885694Y2715666D01*
X2891840Y2728061D01*
X2896260Y2741168D01*
X2899003Y2754782D01*
X2899867Y2768600D01*
X2899003Y2782417D01*
X2896260Y2795981D01*
X2891840Y2809138D01*
X2885694Y2821533D01*
X2878023Y2833065D01*
X2868879Y2843479D01*
X2858465Y2852623D01*
X2846933Y2860294D01*
X2834538Y2866440D01*
X2821381Y2870860D01*
X2807817Y2873603D01*
X2794000Y2874467D01*
X2780182Y2873603D01*
X2766568Y2870860D01*
X2753461Y2866440D01*
X2741066Y2860294D01*
X2729534Y2852623D01*
X2719120Y2843479D01*
X2709976Y2833065D01*
X2702306Y2821533D01*
X2696159Y2809138D01*
X2691688Y2795981D01*
X2688996Y2782417D01*
X2688082Y2768600D01*
X2688996Y2754782D01*
X2691688Y2741168D01*
X2696159Y2728061D01*
X2702306Y2715666D01*
X2709976Y2704134D01*
X2719120Y2693720D01*
X2729534Y2684576D01*
X2741066Y2676906D01*
X2753461Y2670759D01*
X2766568Y2666288D01*
X2780182Y2663596D01*
G37*
G36*
X1270000Y2712262D02*
G01*
X1279804Y2713126D01*
X1289253Y2715666D01*
X1298194Y2719781D01*
X1306220Y2725420D01*
X1313180Y2732379D01*
X1318818Y2740406D01*
X1322933Y2749346D01*
X1325473Y2758795D01*
X1326337Y2768600D01*
X1325473Y2778404D01*
X1322933Y2787853D01*
X1321866Y2790190D01*
X1320901Y2794508D01*
X1320901Y3256432D01*
X1321866Y3260750D01*
X1322933Y3263087D01*
X1325473Y3272586D01*
X1326337Y3282340D01*
X1325473Y3292144D01*
X1322933Y3301644D01*
X1318818Y3310534D01*
X1313180Y3318560D01*
X1306220Y3325520D01*
X1298194Y3331159D01*
X1289253Y3335274D01*
X1279804Y3337864D01*
X1270000Y3338677D01*
X1260195Y3337864D01*
X1250746Y3335274D01*
X1241806Y3331159D01*
X1233779Y3325520D01*
X1226820Y3318560D01*
X1221181Y3310534D01*
X1217066Y3301644D01*
X1214526Y3292144D01*
X1213662Y3282340D01*
X1214526Y3272586D01*
X1217066Y3263087D01*
X1218133Y3260750D01*
X1219098Y3256432D01*
X1219098Y2794508D01*
X1218133Y2790190D01*
X1217066Y2787853D01*
X1214526Y2778404D01*
X1213662Y2768600D01*
X1214526Y2758795D01*
X1217066Y2749346D01*
X1221181Y2740406D01*
X1226820Y2732379D01*
X1233779Y2725420D01*
X1241806Y2719781D01*
X1250746Y2715666D01*
X1260195Y2713126D01*
G37*
G36*
X2794000Y2916682D02*
G01*
X2807817Y2917596D01*
X2821381Y2920288D01*
X2834538Y2924759D01*
X2846933Y2930906D01*
X2858465Y2938576D01*
X2868879Y2947720D01*
X2878023Y2958134D01*
X2885694Y2969666D01*
X2891840Y2982061D01*
X2896260Y2995168D01*
X2899003Y3008782D01*
X2899867Y3022600D01*
X2899003Y3036417D01*
X2896260Y3049981D01*
X2891840Y3063138D01*
X2885694Y3075533D01*
X2878023Y3087065D01*
X2868879Y3097479D01*
X2858465Y3106623D01*
X2846933Y3114294D01*
X2834538Y3120440D01*
X2821381Y3124860D01*
X2807817Y3127603D01*
X2794000Y3128467D01*
X2780182Y3127603D01*
X2766568Y3124860D01*
X2753461Y3120440D01*
X2741066Y3114294D01*
X2729534Y3106623D01*
X2719120Y3097479D01*
X2709976Y3087065D01*
X2702306Y3075533D01*
X2696159Y3063138D01*
X2691688Y3049981D01*
X2688996Y3036417D01*
X2688082Y3022600D01*
X2688996Y3008782D01*
X2691688Y2995168D01*
X2696159Y2982061D01*
X2702306Y2969666D01*
X2709976Y2958134D01*
X2719120Y2947720D01*
X2729534Y2938576D01*
X2741066Y2930906D01*
X2753461Y2924759D01*
X2766568Y2920288D01*
X2780182Y2917596D01*
G37*
G36*
X2032000Y2916682D02*
G01*
X2045817Y2917596D01*
X2059381Y2920288D01*
X2072538Y2924759D01*
X2084933Y2930906D01*
X2096465Y2938576D01*
X2106879Y2947720D01*
X2116023Y2958134D01*
X2123694Y2969666D01*
X2129840Y2982061D01*
X2134260Y2995168D01*
X2137003Y3008782D01*
X2137867Y3022600D01*
X2137003Y3036417D01*
X2134260Y3049981D01*
X2129840Y3063138D01*
X2123694Y3075533D01*
X2116023Y3087065D01*
X2106879Y3097479D01*
X2096465Y3106623D01*
X2084933Y3114294D01*
X2072538Y3120440D01*
X2059381Y3124860D01*
X2045817Y3127603D01*
X2032000Y3128467D01*
X2018182Y3127603D01*
X2004568Y3124860D01*
X1991461Y3120440D01*
X1979066Y3114294D01*
X1967534Y3106623D01*
X1957120Y3097479D01*
X1947976Y3087065D01*
X1940306Y3075533D01*
X1934159Y3063138D01*
X1929688Y3049981D01*
X1926996Y3036417D01*
X1926082Y3022600D01*
X1926996Y3008782D01*
X1929688Y2995168D01*
X1934159Y2982061D01*
X1940306Y2969666D01*
X1947976Y2958134D01*
X1957120Y2947720D01*
X1967534Y2938576D01*
X1979066Y2930906D01*
X1991461Y2924759D01*
X2004568Y2920288D01*
X2018182Y2917596D01*
G37*
G36*
X1952548Y3170682D02*
G01*
X2111451Y3170682D01*
X2117750Y3171393D01*
X2123236Y3173323D01*
X2128113Y3176371D01*
X2132228Y3180486D01*
X2135276Y3185363D01*
X2137206Y3190849D01*
X2137918Y3197148D01*
X2137918Y3356051D01*
X2137206Y3362350D01*
X2135276Y3367836D01*
X2132228Y3372713D01*
X2128113Y3376828D01*
X2123236Y3379876D01*
X2117750Y3381806D01*
X2111451Y3382518D01*
X2080768Y3382518D01*
X2076856Y3383279D01*
X2073605Y3385464D01*
X2071370Y3388766D01*
X2070607Y3392678D01*
X2070607Y3510991D01*
X2071370Y3514902D01*
X2073605Y3518204D01*
X2075180Y3519779D01*
X2080818Y3527806D01*
X2084933Y3536746D01*
X2087473Y3546195D01*
X2088337Y3556000D01*
X2087473Y3565804D01*
X2084933Y3575253D01*
X2080818Y3584194D01*
X2075180Y3592220D01*
X2068220Y3599179D01*
X2060193Y3604818D01*
X2051253Y3608933D01*
X2041804Y3611473D01*
X2032000Y3612337D01*
X2022195Y3611473D01*
X2012746Y3608933D01*
X2003806Y3604818D01*
X1995779Y3599179D01*
X1988820Y3592220D01*
X1983181Y3584194D01*
X1979066Y3575253D01*
X1976526Y3565804D01*
X1975662Y3556000D01*
X1976526Y3546195D01*
X1979066Y3536746D01*
X1983181Y3527806D01*
X1988820Y3519779D01*
X1990394Y3518204D01*
X1992630Y3514902D01*
X1993392Y3510991D01*
X1993392Y3392678D01*
X1992630Y3388766D01*
X1990394Y3385464D01*
X1987143Y3383279D01*
X1983232Y3382518D01*
X1952548Y3382518D01*
X1946249Y3381806D01*
X1940763Y3379876D01*
X1935886Y3376828D01*
X1931771Y3372713D01*
X1928723Y3367836D01*
X1926793Y3362350D01*
X1926082Y3356051D01*
X1926082Y3197148D01*
X1926793Y3190849D01*
X1928723Y3185363D01*
X1931771Y3180486D01*
X1935886Y3176371D01*
X1940763Y3173323D01*
X1946249Y3171393D01*
G37*
G36*
X5473700Y105562D02*
G01*
X5478322Y105664D01*
X5501284Y108051D01*
X5523992Y112369D01*
X5546242Y118618D01*
X5567934Y126644D01*
X5588812Y136499D01*
X5608828Y148031D01*
X5627827Y161239D01*
X5645607Y175971D01*
X5662117Y192125D01*
X5677204Y209600D01*
X5690819Y228295D01*
X5702757Y248107D01*
X5713018Y268782D01*
X5721553Y290271D01*
X5728208Y312369D01*
X5733034Y334975D01*
X5735929Y357936D01*
X5736336Y368300D01*
X5473700Y368300D01*
G37*
G36*
X3048000Y3217824D02*
G01*
X3057804Y3218688D01*
X3067253Y3221228D01*
X3076194Y3225342D01*
X3084220Y3230981D01*
X3091180Y3237941D01*
X3096818Y3245967D01*
X3100933Y3254908D01*
X3103473Y3264357D01*
X3104337Y3274161D01*
X3103473Y3283965D01*
X3100933Y3293414D01*
X3096818Y3302355D01*
X3091180Y3310382D01*
X3089605Y3311956D01*
X3087370Y3315258D01*
X3086608Y3319170D01*
X3086608Y3510991D01*
X3087370Y3514902D01*
X3089605Y3518204D01*
X3091180Y3519779D01*
X3096818Y3527806D01*
X3100933Y3536746D01*
X3103473Y3546195D01*
X3104337Y3556000D01*
X3103473Y3565804D01*
X3100933Y3575253D01*
X3096818Y3584194D01*
X3091180Y3592220D01*
X3084220Y3599179D01*
X3076194Y3604818D01*
X3067253Y3608933D01*
X3057804Y3611473D01*
X3048000Y3612337D01*
X3038195Y3611473D01*
X3028746Y3608933D01*
X3019806Y3604818D01*
X3011779Y3599179D01*
X3004820Y3592220D01*
X2999181Y3584194D01*
X2995066Y3575253D01*
X2992526Y3565804D01*
X2991662Y3556000D01*
X2992526Y3546195D01*
X2995066Y3536746D01*
X2999181Y3527806D01*
X3004820Y3519779D01*
X3006394Y3518204D01*
X3008630Y3514902D01*
X3009392Y3510991D01*
X3009392Y3319170D01*
X3008630Y3315258D01*
X3006394Y3311956D01*
X3004820Y3310382D01*
X2999181Y3302355D01*
X2995066Y3293414D01*
X2992526Y3283965D01*
X2991662Y3274161D01*
X2992526Y3264357D01*
X2995066Y3254908D01*
X2999181Y3245967D01*
X3004820Y3237941D01*
X3011779Y3230981D01*
X3019806Y3225342D01*
X3028746Y3221228D01*
X3038195Y3218688D01*
G37*
G36*
X5156250Y3530803D02*
G01*
X5170068Y3531717D01*
X5183632Y3534410D01*
X5196738Y3538880D01*
X5209184Y3544976D01*
X5220665Y3552698D01*
X5231079Y3561842D01*
X5240223Y3572256D01*
X5247944Y3583736D01*
X5254040Y3596182D01*
X5258511Y3609289D01*
X5261203Y3622852D01*
X5262118Y3636670D01*
X5261203Y3650538D01*
X5258511Y3664102D01*
X5254040Y3677208D01*
X5247944Y3689654D01*
X5240223Y3701135D01*
X5231079Y3711549D01*
X5220665Y3720693D01*
X5209184Y3728415D01*
X5196738Y3734511D01*
X5183632Y3738981D01*
X5170068Y3741674D01*
X5156250Y3742588D01*
X5142382Y3741674D01*
X5128818Y3738981D01*
X5115712Y3734511D01*
X5103266Y3728415D01*
X5091785Y3720693D01*
X5081371Y3711549D01*
X5072227Y3701135D01*
X5064506Y3689654D01*
X5058410Y3677208D01*
X5053939Y3664102D01*
X5051247Y3650538D01*
X5050332Y3636670D01*
X5051247Y3622852D01*
X5053939Y3609289D01*
X5058410Y3596182D01*
X5064506Y3583736D01*
X5072227Y3572256D01*
X5081371Y3561842D01*
X5091785Y3552698D01*
X5103266Y3544976D01*
X5115712Y3538880D01*
X5128818Y3534410D01*
X5142382Y3531717D01*
G37*
G36*
X685800Y3539032D02*
G01*
X699617Y3539896D01*
X713181Y3542639D01*
X726338Y3547059D01*
X738733Y3553206D01*
X750265Y3560876D01*
X760679Y3570020D01*
X769823Y3580434D01*
X777494Y3591966D01*
X783640Y3604361D01*
X788060Y3617518D01*
X790803Y3631082D01*
X791667Y3644900D01*
X790803Y3658717D01*
X788060Y3672281D01*
X783640Y3685438D01*
X777494Y3697833D01*
X769823Y3709365D01*
X760679Y3719779D01*
X750265Y3728923D01*
X738733Y3736594D01*
X726338Y3742740D01*
X713181Y3747160D01*
X699617Y3749903D01*
X685800Y3750767D01*
X671982Y3749903D01*
X658418Y3747160D01*
X645261Y3742740D01*
X632866Y3736594D01*
X621334Y3728923D01*
X610920Y3719779D01*
X601776Y3709365D01*
X594106Y3697833D01*
X587959Y3685438D01*
X583539Y3672281D01*
X580796Y3658717D01*
X579932Y3644900D01*
X580796Y3631082D01*
X583539Y3617518D01*
X587959Y3604361D01*
X594106Y3591966D01*
X601776Y3580434D01*
X610920Y3570020D01*
X621334Y3560876D01*
X632866Y3553206D01*
X645261Y3547059D01*
X658418Y3542639D01*
X671982Y3539896D01*
G37*
G36*
X5080000Y4960162D02*
G01*
X5089804Y4961026D01*
X5099253Y4963566D01*
X5108194Y4967681D01*
X5116220Y4973320D01*
X5123180Y4980279D01*
X5128818Y4988306D01*
X5132933Y4997246D01*
X5135473Y5006695D01*
X5136337Y5016500D01*
X5135473Y5026304D01*
X5132933Y5035753D01*
X5131866Y5038090D01*
X5130901Y5042408D01*
X5130901Y5562092D01*
X5131866Y5566410D01*
X5132933Y5568746D01*
X5135473Y5578195D01*
X5136337Y5588000D01*
X5135473Y5597804D01*
X5132933Y5607253D01*
X5128818Y5616194D01*
X5123180Y5624220D01*
X5116220Y5631180D01*
X5108194Y5636818D01*
X5099253Y5640933D01*
X5089804Y5643473D01*
X5080000Y5644337D01*
X5070195Y5643473D01*
X5060746Y5640933D01*
X5051806Y5636818D01*
X5043779Y5631180D01*
X5036820Y5624220D01*
X5031181Y5616194D01*
X5027066Y5607253D01*
X5024526Y5597804D01*
X5023662Y5588000D01*
X5024526Y5578195D01*
X5027066Y5568746D01*
X5028133Y5566410D01*
X5029098Y5562092D01*
X5029098Y5042408D01*
X5028133Y5038090D01*
X5027066Y5035753D01*
X5024526Y5026304D01*
X5023662Y5016500D01*
X5024526Y5006695D01*
X5027066Y4997246D01*
X5031181Y4988306D01*
X5036820Y4980279D01*
X5043779Y4973320D01*
X5051806Y4967681D01*
X5060746Y4963566D01*
X5070195Y4961026D01*
G37*
G36*
X5473700Y5185562D02*
G01*
X5478322Y5185664D01*
X5501284Y5188051D01*
X5523992Y5192369D01*
X5546242Y5198618D01*
X5567934Y5206644D01*
X5588812Y5216499D01*
X5608828Y5228031D01*
X5627827Y5241239D01*
X5645607Y5255971D01*
X5662117Y5272125D01*
X5677204Y5289600D01*
X5690819Y5308295D01*
X5702757Y5328107D01*
X5713018Y5348782D01*
X5721553Y5370271D01*
X5728208Y5392369D01*
X5733034Y5414975D01*
X5735929Y5437936D01*
X5736336Y5448300D01*
X5473700Y5448300D01*
G37*
G36*
X393700Y5185562D02*
G01*
X398322Y5185664D01*
X421284Y5188051D01*
X443992Y5192369D01*
X466242Y5198618D01*
X487934Y5206644D01*
X508812Y5216499D01*
X528828Y5228031D01*
X547827Y5241239D01*
X565607Y5255971D01*
X582117Y5272125D01*
X597204Y5289600D01*
X610819Y5308295D01*
X622757Y5328107D01*
X633018Y5348782D01*
X641553Y5370271D01*
X648208Y5392369D01*
X653034Y5414975D01*
X655929Y5437936D01*
X656336Y5448300D01*
X393700Y5448300D01*
G37*
G36*
X5448300Y5185613D02*
G01*
X5448300Y5448300D01*
X5185410Y5448300D01*
X5187289Y5426405D01*
X5191150Y5403646D01*
X5196890Y5381244D01*
X5204460Y5359450D01*
X5213858Y5338318D01*
X5224983Y5318099D01*
X5237784Y5298846D01*
X5252161Y5280710D01*
X5267960Y5263896D01*
X5285130Y5248402D01*
X5303520Y5234432D01*
X5323027Y5222087D01*
X5343499Y5211368D01*
X5364835Y5202428D01*
X5386781Y5195265D01*
X5409285Y5189982D01*
X5432145Y5186629D01*
G37*
G36*
X368300Y5185613D02*
G01*
X368300Y5448300D01*
X105410Y5448300D01*
X107289Y5426405D01*
X111150Y5403646D01*
X116890Y5381244D01*
X124460Y5359450D01*
X133858Y5338318D01*
X144983Y5318099D01*
X157784Y5298846D01*
X172161Y5280710D01*
X187960Y5263896D01*
X205130Y5248402D01*
X223520Y5234432D01*
X243027Y5222087D01*
X263499Y5211368D01*
X284835Y5202428D01*
X306781Y5195265D01*
X329285Y5189982D01*
X352145Y5186629D01*
G37*
G36*
X4818735Y5218328D02*
G01*
X4833264Y5218328D01*
X4847691Y5220157D01*
X4861814Y5223764D01*
X4875326Y5229148D01*
X4888077Y5236159D01*
X4899863Y5244693D01*
X4910480Y5254650D01*
X4919776Y5265877D01*
X4927549Y5278170D01*
X4933746Y5291328D01*
X4938268Y5305196D01*
X4940960Y5319471D01*
X4941874Y5334000D01*
X4940960Y5348528D01*
X4938268Y5362803D01*
X4933746Y5376672D01*
X4927549Y5389829D01*
X4919776Y5402122D01*
X4910480Y5413349D01*
X4899863Y5423306D01*
X4888077Y5431840D01*
X4875326Y5438851D01*
X4861814Y5444236D01*
X4847691Y5447842D01*
X4833264Y5449671D01*
X4818735Y5449671D01*
X4804308Y5447842D01*
X4790186Y5444236D01*
X4776673Y5438851D01*
X4763922Y5431840D01*
X4752136Y5423306D01*
X4741519Y5413349D01*
X4732223Y5402122D01*
X4724450Y5389829D01*
X4718253Y5376672D01*
X4713732Y5362803D01*
X4711039Y5348528D01*
X4710125Y5334000D01*
X4711039Y5319471D01*
X4713732Y5305196D01*
X4718253Y5291328D01*
X4724450Y5278170D01*
X4732223Y5265877D01*
X4741519Y5254650D01*
X4752136Y5244693D01*
X4763922Y5236159D01*
X4776673Y5229148D01*
X4790186Y5223764D01*
X4804308Y5220157D01*
G37*
G36*
X4584700Y5219039D02*
G01*
X4593691Y5220157D01*
X4607814Y5223764D01*
X4621326Y5229148D01*
X4634077Y5236159D01*
X4645863Y5244693D01*
X4656480Y5254650D01*
X4665776Y5265877D01*
X4673549Y5278170D01*
X4679746Y5291328D01*
X4684268Y5305196D01*
X4686960Y5319471D01*
X4687112Y5321300D01*
X4584700Y5321300D01*
G37*
G36*
X4559300Y5219039D02*
G01*
X4559300Y5321300D01*
X4456887Y5321300D01*
X4457039Y5319471D01*
X4459732Y5305196D01*
X4464253Y5291328D01*
X4470450Y5278170D01*
X4478223Y5265877D01*
X4487519Y5254650D01*
X4498136Y5244693D01*
X4509922Y5236159D01*
X4522673Y5229148D01*
X4536186Y5223764D01*
X4550308Y5220157D01*
G37*
G36*
X4584700Y5346700D02*
G01*
X4687112Y5346700D01*
X4686960Y5348528D01*
X4684268Y5362803D01*
X4679746Y5376672D01*
X4673549Y5389829D01*
X4665776Y5402122D01*
X4656480Y5413349D01*
X4645863Y5423306D01*
X4634077Y5431840D01*
X4621326Y5438851D01*
X4607814Y5444236D01*
X4593691Y5447842D01*
X4584700Y5448960D01*
G37*
G36*
X4456887Y5346700D02*
G01*
X4559300Y5346700D01*
X4559300Y5448960D01*
X4550308Y5447842D01*
X4536186Y5444236D01*
X4522673Y5438851D01*
X4509922Y5431840D01*
X4498136Y5423306D01*
X4487519Y5413349D01*
X4478223Y5402122D01*
X4470450Y5389829D01*
X4464253Y5376672D01*
X4459732Y5362803D01*
X4457039Y5348528D01*
G37*
G36*
X4818735Y5472328D02*
G01*
X4833264Y5472328D01*
X4847691Y5474157D01*
X4861814Y5477764D01*
X4875326Y5483148D01*
X4888077Y5490159D01*
X4899863Y5498693D01*
X4910480Y5508650D01*
X4919776Y5519877D01*
X4927549Y5532170D01*
X4933746Y5545328D01*
X4938268Y5559196D01*
X4940960Y5573471D01*
X4941874Y5588000D01*
X4940960Y5602528D01*
X4938268Y5616803D01*
X4933746Y5630672D01*
X4927549Y5643829D01*
X4919776Y5656122D01*
X4910480Y5667349D01*
X4899863Y5677306D01*
X4888077Y5685840D01*
X4882184Y5689092D01*
X4879390Y5691378D01*
X4877562Y5694476D01*
X4876901Y5697982D01*
X4876901Y5701792D01*
X4877866Y5706110D01*
X4878933Y5708446D01*
X4881473Y5717895D01*
X4882337Y5727700D01*
X4881473Y5737504D01*
X4878933Y5746953D01*
X4874818Y5755894D01*
X4869180Y5763920D01*
X4862220Y5770880D01*
X4854194Y5776518D01*
X4845253Y5780633D01*
X4835804Y5783173D01*
X4826000Y5784037D01*
X4816195Y5783173D01*
X4806746Y5780633D01*
X4797806Y5776518D01*
X4789779Y5770880D01*
X4782820Y5763920D01*
X4777181Y5755894D01*
X4773066Y5746953D01*
X4770526Y5737504D01*
X4769662Y5727700D01*
X4770526Y5717895D01*
X4773066Y5708446D01*
X4774133Y5706110D01*
X4775098Y5701792D01*
X4775098Y5697982D01*
X4774438Y5694476D01*
X4772609Y5691378D01*
X4769815Y5689092D01*
X4763922Y5685840D01*
X4752136Y5677306D01*
X4741519Y5667349D01*
X4732223Y5656122D01*
X4724450Y5643829D01*
X4718253Y5630672D01*
X4713732Y5616803D01*
X4711039Y5602528D01*
X4710125Y5588000D01*
X4711039Y5573471D01*
X4713732Y5559196D01*
X4718253Y5545328D01*
X4724450Y5532170D01*
X4732223Y5519877D01*
X4741519Y5508650D01*
X4752136Y5498693D01*
X4763922Y5490159D01*
X4776673Y5483148D01*
X4790186Y5477764D01*
X4804308Y5474157D01*
G37*
G36*
X4584700Y5473039D02*
G01*
X4593691Y5474157D01*
X4607814Y5477764D01*
X4621326Y5483148D01*
X4634077Y5490159D01*
X4645863Y5498693D01*
X4656480Y5508650D01*
X4665776Y5519877D01*
X4673549Y5532170D01*
X4679746Y5545328D01*
X4684268Y5559196D01*
X4686960Y5573471D01*
X4687112Y5575300D01*
X4584700Y5575300D01*
G37*
G36*
X4559300Y5473039D02*
G01*
X4559300Y5575300D01*
X4456887Y5575300D01*
X4457039Y5573471D01*
X4459732Y5559196D01*
X4464253Y5545328D01*
X4470450Y5532170D01*
X4478223Y5519877D01*
X4487519Y5508650D01*
X4498136Y5498693D01*
X4509922Y5490159D01*
X4522673Y5483148D01*
X4536186Y5477764D01*
X4550308Y5474157D01*
G37*
G36*
X393700Y5473700D02*
G01*
X656336Y5473700D01*
X655929Y5484063D01*
X653034Y5507024D01*
X648208Y5529630D01*
X641553Y5551728D01*
X633018Y5573217D01*
X622757Y5593892D01*
X610819Y5613704D01*
X597204Y5632348D01*
X582117Y5649874D01*
X565607Y5666028D01*
X547827Y5680760D01*
X528828Y5693968D01*
X508812Y5705500D01*
X487934Y5715355D01*
X466242Y5723382D01*
X443992Y5729630D01*
X421284Y5733948D01*
X398322Y5736336D01*
X393700Y5736437D01*
G37*
G36*
X5473700Y5473700D02*
G01*
X5736336Y5473700D01*
X5735929Y5484063D01*
X5733034Y5507024D01*
X5728208Y5529630D01*
X5721553Y5551728D01*
X5713018Y5573217D01*
X5702757Y5593892D01*
X5690819Y5613704D01*
X5677204Y5632348D01*
X5662117Y5649874D01*
X5645607Y5666028D01*
X5627827Y5680760D01*
X5608828Y5693968D01*
X5588812Y5705500D01*
X5567934Y5715355D01*
X5546242Y5723382D01*
X5523992Y5729630D01*
X5501284Y5733948D01*
X5478322Y5736336D01*
X5473700Y5736437D01*
G37*
G36*
X5185410Y5473700D02*
G01*
X5448300Y5473700D01*
X5448300Y5736386D01*
X5432145Y5735370D01*
X5409285Y5732018D01*
X5386781Y5726734D01*
X5364835Y5719572D01*
X5343499Y5710631D01*
X5323027Y5699912D01*
X5303520Y5687568D01*
X5285130Y5673598D01*
X5267960Y5658104D01*
X5252161Y5641289D01*
X5237784Y5623153D01*
X5224983Y5603900D01*
X5213858Y5583682D01*
X5204460Y5562549D01*
X5196890Y5540756D01*
X5191150Y5518353D01*
X5187289Y5495594D01*
G37*
G36*
X105410Y5473700D02*
G01*
X368300Y5473700D01*
X368300Y5736386D01*
X352145Y5735370D01*
X329285Y5732018D01*
X306781Y5726734D01*
X284835Y5719572D01*
X263499Y5710631D01*
X243027Y5699912D01*
X223520Y5687568D01*
X205130Y5673598D01*
X187960Y5658104D01*
X172161Y5641289D01*
X157784Y5623153D01*
X144983Y5603900D01*
X133858Y5583682D01*
X124460Y5562549D01*
X116890Y5540756D01*
X111150Y5518353D01*
X107289Y5495594D01*
G37*
G36*
X2691688Y5583682D02*
G01*
X2750261Y5583682D01*
X2756560Y5584393D01*
X2764840Y5587593D01*
X2767634Y5588000D01*
X2970784Y5588000D01*
X2971800Y5588965D01*
X2971800Y5713984D01*
X2970784Y5715000D01*
X2763570Y5715000D01*
X2760218Y5715558D01*
X2756560Y5716828D01*
X2750261Y5717540D01*
X2691688Y5717540D01*
X2685389Y5716828D01*
X2681732Y5715558D01*
X2678379Y5715000D01*
X2575560Y5715000D01*
X2571648Y5715762D01*
X2568397Y5717946D01*
X2566162Y5721248D01*
X2565400Y5725160D01*
X2565400Y5588965D01*
X2566416Y5588000D01*
X2674315Y5588000D01*
X2677109Y5587593D01*
X2679903Y5586323D01*
X2685389Y5584393D01*
G37*
G36*
X4584700Y5600700D02*
G01*
X4687112Y5600700D01*
X4686960Y5602528D01*
X4684268Y5616803D01*
X4679746Y5630672D01*
X4673549Y5643829D01*
X4665776Y5656122D01*
X4656480Y5667349D01*
X4645863Y5677306D01*
X4634077Y5685840D01*
X4621326Y5692851D01*
X4607814Y5698236D01*
X4593691Y5701842D01*
X4584700Y5702960D01*
G37*
G36*
X4456887Y5600700D02*
G01*
X4559300Y5600700D01*
X4559300Y5702960D01*
X4550308Y5701842D01*
X4536186Y5698236D01*
X4522673Y5692851D01*
X4509922Y5685840D01*
X4498136Y5677306D01*
X4487519Y5667349D01*
X4478223Y5656122D01*
X4470450Y5643829D01*
X4464253Y5630672D01*
X4459732Y5616803D01*
X4457039Y5602528D01*
G37*

%LPD*%
D10*
X2739897Y5668010D02*
G01*
X2739897Y5671312D01*
X2736850Y5677662D01*
X2733547Y5680963D01*
X2727197Y5684012D01*
X2714497Y5684012D01*
X2708147Y5680963D01*
X2705100Y5677662D01*
X2701797Y5671312D01*
X2701797Y5664962D01*
X2705100Y5658612D01*
X2711450Y5648960D01*
X2743200Y5617210D01*
X2698750Y5617210D01*
D11*
X4826000Y5588000D02*
G01*
X4826000Y5727700D01*
X5080000Y5588000D02*
G01*
X5080000Y5016500D01*
X3327400Y5016500D02*
G01*
X2794000Y4483100D01*
X2794000Y3276600D01*
X910844Y2032000D02*
G01*
X910844Y2520442D01*
X1270000Y2768600D02*
G01*
X1270000Y3282348D01*
D12*
X3048000Y2514600D02*
G01*
X3048000Y3022600D01*
D11*
X2794000Y2514600D02*
G01*
X2794000Y2032000D01*
D12*
X2032000Y3276600D02*
G01*
X2032000Y3556000D01*
X3048000Y3274164D02*
G01*
X3048000Y3555994D01*
D13*
G01*
X2032000Y3276600D03*
D14*
G01*
X2032000Y3022600D03*
G01*
X2032000Y2768600D03*
G01*
X2032000Y2514600D03*
G01*
X2794000Y2514600D03*
G01*
X2794000Y2768600D03*
G01*
X2794000Y3022600D03*
G01*
X2794000Y3276600D03*
D15*
G01*
X381000Y5461000D03*
G01*
X5461000Y5461000D03*
G01*
X5461000Y381000D03*
G01*
X381000Y381000D03*
D16*
G01*
X4826000Y5588000D03*
G01*
X4826000Y5334000D03*
G01*
X4572000Y5334000D03*
G01*
X4572000Y5588000D03*
D17*
G01*
X910818Y2774340D03*
G01*
X910818Y3028340D03*
G01*
X910818Y3282340D03*
G01*
X910818Y2520340D03*
G01*
X4931206Y3274161D03*
G01*
X4931206Y2512161D03*
G01*
X4931206Y2766161D03*
G01*
X4931206Y3020161D03*
D18*
G01*
X5080000Y5588000D03*
G01*
X4826000Y5727700D03*
G01*
X5080000Y5016500D03*
G01*
X3327400Y5016500D03*
G01*
X4787900Y2895600D03*
G01*
X3048000Y2514600D03*
G01*
X3048000Y3022600D03*
G01*
X2794000Y2032000D03*
G01*
X910818Y2032000D03*
G01*
X1270000Y2768600D03*
G01*
X1270000Y3282340D03*
G01*
X4787900Y3149600D03*
G01*
X4787900Y2641600D03*
G01*
X2032000Y3556000D03*
G01*
X3048000Y3274161D03*
G01*
X3048000Y3556000D03*
M02*
