M48
METRIC,LZ,000.000
;FILE_FORMAT=3:3
;TYPE=PLATED
;Layer: PTH_Through
;EasyEDA v6.5.32, 2023-07-25 14:04:49
;c8ab560ed44a410f903f0410a66912ea,5a6b42c53f6a479593ecc07194224c93,10
;Gerber Generator version 0.2
;Holesize 1 = 0.305 mm
T01C0.305
;Holesize 2 = 1.101 mm
T02C1.101
;Holesize 3 = 1.200 mm
T03C1.200
;Holesize 4 = 1.301 mm
T04C1.301
;Holesize 5 = 3.000 mm
T05C3.000
%
G05
G90
T01
X020447Y026670
X030607Y020320
X021717Y033020
X033020Y033020
X033020Y050800
X050800Y050800
X050800Y055880
X024638Y011684
X024638Y013970
T02
X048260Y055880
X048260Y053340
X045720Y053340
X045720Y055880
T03
X050800Y020320
X048260Y020320
X050800Y022860
X048260Y022860
X050800Y025400
X048260Y025400
X050800Y027940
X048260Y027940
X050800Y030480
X048260Y030480
X050800Y033020
X048260Y033020
X050800Y035560
X048260Y035560
X050800Y038100
X048260Y038100
X020447Y038862
X030607Y038862
X025527Y038862
X029337Y018542
X021717Y018542
T04
X009108Y027997
X009108Y030537
X009108Y033077
X009108Y025457
T05
X003810Y054610
X054610Y054610
X054610Y003810
X003810Y003810
M30
