M48
METRIC,LZ,000.000
;FILE_FORMAT=3:3
;TYPE=PLATED
;Layer: PTH_Through
;EasyEDA v6.5.15, 2022-10-06 20:33:44
;8bfdc35b050240779410f6369308cf52,5a6b42c53f6a479593ecc07194224c93,10
;Gerber Generator version 0.2
;Holesize 1 = 0.305 mm
T01C0.305
;Holesize 2 = 1.000 mm
T02C1.000
;Holesize 3 = 1.101 mm
T03C1.101
;Holesize 4 = 1.301 mm
T04C1.301
;Holesize 5 = 3.000 mm
T05C3.000
%
G05
G90
T01
X024130Y041910
X029210Y042545
X031750Y043180
X021590Y016510
X024130Y015875
X031750Y014605
X029210Y015240
X003810Y007620
X003810Y031877
X004445Y008255
X004445Y026797
X037973Y007620
X035433Y008255
X053340Y036195
X055753Y036830
X043053Y011049
X033020Y010795
X030480Y036830
X033020Y036195
X043561Y011684
X033020Y011684
X004699Y035306
X052324Y034544
X039243Y005842
T02
X040513Y002540
X048133Y002540
X045593Y002540
X043053Y002540
X008890Y026797
X008890Y031877
X008890Y029337
X008890Y020447
X011430Y020447
X013970Y020447
X016510Y020447
X019050Y020447
X021590Y020447
X024130Y020447
X026670Y020447
X029210Y020447
X031750Y020447
X034290Y020447
X036830Y020447
X039370Y020447
X041910Y020447
X044450Y020447
X046990Y020447
X049530Y020447
X052070Y020447
X054610Y020447
X008890Y038227
X011430Y038227
X013970Y038227
X016510Y038227
X019050Y038227
X021590Y038227
X024130Y038227
X026670Y038227
X029210Y038227
X031750Y038227
X034290Y038227
X036830Y038227
X039370Y038227
X041910Y038227
X044450Y038227
X046990Y038227
X049530Y038227
X052070Y038227
X054610Y038227
X057150Y020447
X057150Y038227
X037973Y002540
X035433Y002540
X033020Y053340
X035560Y053340
T03
X045720Y055880
X045720Y053340
X048260Y053340
X048260Y055880
T04
X023622Y044958
X021082Y044958
X018542Y044958
X016002Y044958
X013462Y044958
X010922Y044958
X008382Y044958
X005842Y044958
X034798Y044958
X037338Y044958
X039878Y044958
X042418Y044958
X044958Y044958
X047498Y044958
X050038Y044958
X052578Y044958
X023594Y013299
X021054Y013299
X018514Y013299
X015974Y013299
X013434Y013299
X010894Y013299
X008354Y013299
X005814Y013299
X052550Y013299
X050010Y013299
X047470Y013299
X044930Y013299
X042390Y013299
X039850Y013299
X037310Y013299
X034770Y013299
T05
X003810Y054610
X054610Y054610
X054610Y003810
X003810Y003810
M30
