M48
METRIC,LZ,000.000
;FILE_FORMAT=3:3
;TYPE=PLATED
;Layer: PTH_Through
;EasyEDA v6.5.32, 2023-07-25 14:04:49
;3427a68e04624d36b5ebd798919f52c8,5a6b42c53f6a479593ecc07194224c93,10
;Gerber Generator version 0.2
;Holesize 1 = 0.305 mm
T01C0.305
;Holesize 2 = 1.016 mm
T02C1.016
;Holesize 3 = 1.101 mm
T03C1.101
;Holesize 4 = 1.301 mm
T04C1.301
;Holesize 5 = 3.000 mm
T05C3.000
%
G05
G90
T01
X040005Y053721
X040005Y050066
X050800Y055880
X050800Y015240
X048260Y015240
X048260Y050066
X045720Y012700
X045720Y036872
X034163Y053721
X050800Y051308
X034163Y051308
T02
X030480Y030480
X030480Y027940
X030480Y025400
X030480Y022860
X030480Y020320
X030480Y017780
X030480Y015240
X030480Y012700
X053340Y030480
X053340Y027940
X053340Y025400
X053340Y022860
X053340Y020320
X053340Y017780
X053340Y015240
X053340Y012700
T03
X048260Y055880
X048260Y053340
X045720Y053340
X045720Y055880
T04
X014188Y052606
X014188Y050066
X014188Y047526
X014188Y044986
X014188Y042446
X014188Y039906
X014188Y037366
X014188Y034826
X014188Y005743
X014188Y008283
X014188Y010823
X014188Y013363
X014188Y015903
X014188Y018443
X014188Y020983
X014188Y023523
T05
X054610Y003810
X003810Y003810
X003810Y054610
X054610Y054610
M30
