M48
METRIC,LZ,000.000
;FILE_FORMAT=3:3
;TYPE=PLATED
;Layer: PTH_Through
;EasyEDA v6.5.34, 2023-08-21 18:11:39
;00f0e8dbea56480481fd11457a506d8e,5a6b42c53f6a479593ecc07194224c93,10
;Gerber Generator version 0.2
;Holesize 1 = 0.305 mm
T01C0.305
;Holesize 2 = 1.101 mm
T02C1.101
;Holesize 3 = 1.301 mm
T03C1.301
;Holesize 4 = 3.000 mm
T04C3.000
%
G05
G90
T01
X042672Y050800
X048260Y050785
X041491Y050800
X023114Y034860
X023114Y050800
X035560Y050800
X035560Y033590
X026670Y029972
X031750Y029972
T02
X045720Y055880
X045720Y053340
X048260Y053340
X048260Y055880
T03
X030480Y009144
X027940Y009144
X025400Y009144
X033020Y009144
T04
X003810Y054610
X054610Y054610
X054610Y003810
X003810Y003810
M30
