G04 Layer: TopLayer*
G04 Panelize: V-CUT, Column: 2, Row: 2, Board Size: 58.42mm x 58.42mm, Panelized Board Size: 118.84mm x 118.84mm*
G04 EasyEDA v6.5.34, 2023-09-08 22:56:44*
G04 913679b3e6e84f05a743068e7cf01868,5a6b42c53f6a479593ecc07194224c93,10*
G04 Gerber Generator version 0.2*
G04 Scale: 100 percent, Rotated: No, Reflected: No *
G04 Dimensions in millimeters *
G04 leading zeros omitted , absolute positions ,4 integer and 5 decimal *
%FSLAX45Y45*%
%MOMM*%

%AMMACRO1*21,1,$1,$2,0,0,$3*%
%ADD10C,0.5000*%
%ADD11C,0.2540*%
%ADD12R,0.9000X0.8000*%
%ADD13R,1.3770X1.1325*%
%ADD14MACRO1,1.377X1.1325X0.0000*%
%ADD15R,1.0000X1.1000*%
%ADD16R,0.5850X0.5320*%
%ADD17R,0.8000X0.9000*%
%ADD18R,1.1000X1.0000*%
%ADD19R,0.8999X1.0000*%
%ADD20O,1.499997X0.27000199999999996*%
%ADD21O,0.27000199999999996X1.499997*%
%ADD22C,1.0000*%
%ADD23C,5.0000*%
%ADD24C,2.0000*%
%ADD25C,2.3000*%
%ADD26C,1.4000*%
%ADD27C,1.5000*%
%ADD28C,1.8000*%
%ADD29C,0.6096*%
%ADD30C,0.0106*%

%LPD*%
G36*
X2306218Y2769108D02*
G01*
X2302306Y2769870D01*
X2299004Y2772105D01*
X2144928Y2926181D01*
X2138730Y2931261D01*
X2132025Y2934817D01*
X2124811Y2937002D01*
X2116785Y2937814D01*
X2044039Y2937814D01*
X2038451Y2938322D01*
X2034286Y2939694D01*
X2031085Y2942691D01*
X2029409Y2946704D01*
X2029663Y2951124D01*
X2031695Y2954985D01*
X2035149Y2957626D01*
X2039467Y2958592D01*
X2178456Y2958592D01*
X2182114Y2957931D01*
X2185212Y2956001D01*
X2187498Y2953105D01*
X2188565Y2949549D01*
X2188921Y2946450D01*
X2190800Y2940964D01*
X2193899Y2936087D01*
X2198014Y2931972D01*
X2202891Y2928924D01*
X2208377Y2926994D01*
X2214676Y2926283D01*
X2293518Y2926283D01*
X2299868Y2926994D01*
X2305304Y2928924D01*
X2310231Y2931972D01*
X2314295Y2936087D01*
X2315514Y2937967D01*
X2318308Y2940913D01*
X2322068Y2942539D01*
X2326132Y2942539D01*
X2329891Y2940913D01*
X2332685Y2937967D01*
X2333904Y2936087D01*
X2337968Y2931972D01*
X2342896Y2928924D01*
X2348331Y2926994D01*
X2354681Y2926283D01*
X2381402Y2926283D01*
X2381402Y2984500D01*
X2330196Y2984500D01*
X2326284Y2985262D01*
X2322982Y2987497D01*
X2320798Y2990748D01*
X2320036Y2994660D01*
X2320036Y2999740D01*
X2320798Y3003651D01*
X2322982Y3006902D01*
X2326284Y3009138D01*
X2330196Y3009900D01*
X2381402Y3009900D01*
X2381402Y3072790D01*
X2380081Y3075838D01*
X2379827Y3079140D01*
X2380437Y3086100D01*
X2379573Y3095904D01*
X2377033Y3105353D01*
X2372918Y3114294D01*
X2367280Y3122320D01*
X2360320Y3129280D01*
X2352294Y3134918D01*
X2343353Y3139033D01*
X2333904Y3141573D01*
X2324100Y3142437D01*
X2314295Y3141573D01*
X2304846Y3139033D01*
X2295906Y3134918D01*
X2287879Y3129280D01*
X2280920Y3122320D01*
X2275281Y3114294D01*
X2271725Y3106572D01*
X2269693Y3103676D01*
X2237079Y3071063D01*
X2233777Y3068878D01*
X2229916Y3068116D01*
X2214676Y3068116D01*
X2207717Y3067304D01*
X2203602Y3067710D01*
X2199944Y3069742D01*
X2197455Y3072993D01*
X2196439Y3077057D01*
X2197150Y3081121D01*
X2199386Y3084626D01*
X2337104Y3222294D01*
X2340406Y3224530D01*
X2344318Y3225292D01*
X2507081Y3225292D01*
X2510993Y3224530D01*
X2514295Y3222294D01*
X2533497Y3203092D01*
X2535732Y3199790D01*
X2536494Y3195878D01*
X2536494Y3120593D01*
X2537206Y3114243D01*
X2539136Y3108807D01*
X2542184Y3103880D01*
X2546299Y3099816D01*
X2551176Y3096717D01*
X2556662Y3094786D01*
X2562961Y3094075D01*
X2661818Y3094075D01*
X2668168Y3094786D01*
X2673604Y3096717D01*
X2678531Y3099816D01*
X2682595Y3103880D01*
X2683814Y3105759D01*
X2686608Y3108706D01*
X2690368Y3110331D01*
X2694432Y3110331D01*
X2698191Y3108706D01*
X2700985Y3105759D01*
X2702204Y3103880D01*
X2706268Y3099816D01*
X2711196Y3096717D01*
X2716631Y3094786D01*
X2722981Y3094075D01*
X2821838Y3094075D01*
X2828137Y3094786D01*
X2833624Y3096717D01*
X2838500Y3099816D01*
X2842615Y3103880D01*
X2845663Y3108807D01*
X2847594Y3114243D01*
X2848305Y3120593D01*
X2848305Y3192068D01*
X2849067Y3195980D01*
X2851251Y3199282D01*
X2854147Y3202127D01*
X2857398Y3204311D01*
X2861310Y3205073D01*
X2865221Y3204311D01*
X2868472Y3202127D01*
X2875229Y3195370D01*
X2877413Y3192119D01*
X2878175Y3188208D01*
X2878175Y3116681D01*
X2878886Y3110331D01*
X2880817Y3104896D01*
X2883916Y3099968D01*
X2887980Y3095904D01*
X2889859Y3094685D01*
X2892806Y3091891D01*
X2894431Y3088132D01*
X2894431Y3084068D01*
X2892806Y3080308D01*
X2889859Y3077514D01*
X2887980Y3076295D01*
X2883916Y3072231D01*
X2880817Y3067304D01*
X2878886Y3061868D01*
X2878175Y3055518D01*
X2878175Y2956661D01*
X2878886Y2950362D01*
X2880817Y2944876D01*
X2883916Y2939999D01*
X2887980Y2935884D01*
X2892907Y2932836D01*
X2898343Y2930906D01*
X2904693Y2930194D01*
X3013506Y2930194D01*
X3019856Y2930906D01*
X3025292Y2932836D01*
X3030220Y2935884D01*
X3034284Y2939999D01*
X3037586Y2944164D01*
X3040583Y2945841D01*
X3043936Y2946400D01*
X3091992Y2946400D01*
X3095904Y2945638D01*
X3099206Y2943402D01*
X3100679Y2941929D01*
X3108706Y2936290D01*
X3117646Y2932176D01*
X3127095Y2929636D01*
X3136900Y2928772D01*
X3146704Y2929636D01*
X3156153Y2932176D01*
X3165094Y2936290D01*
X3173120Y2941929D01*
X3180080Y2948889D01*
X3185718Y2956915D01*
X3189833Y2965856D01*
X3192373Y2975305D01*
X3193237Y2985109D01*
X3192373Y2994914D01*
X3189833Y3004362D01*
X3185718Y3013303D01*
X3180080Y3021330D01*
X3173120Y3028289D01*
X3165094Y3033928D01*
X3156153Y3038043D01*
X3146704Y3040583D01*
X3136900Y3041446D01*
X3127095Y3040583D01*
X3117646Y3038043D01*
X3108706Y3033928D01*
X3100679Y3028289D01*
X3099003Y3026613D01*
X3095701Y3024378D01*
X3091789Y3023616D01*
X3050184Y3023616D01*
X3046272Y3024378D01*
X3042970Y3026613D01*
X3040786Y3029864D01*
X3040024Y3033776D01*
X3040024Y3055518D01*
X3039313Y3061868D01*
X3037382Y3067304D01*
X3034284Y3072231D01*
X3030220Y3076295D01*
X3028340Y3077514D01*
X3025394Y3080308D01*
X3023768Y3084068D01*
X3023768Y3088132D01*
X3025394Y3091891D01*
X3028340Y3094685D01*
X3030220Y3095904D01*
X3034284Y3099968D01*
X3037382Y3104896D01*
X3039313Y3110331D01*
X3040024Y3116681D01*
X3040024Y3184398D01*
X3040786Y3188309D01*
X3042970Y3191560D01*
X3053537Y3202127D01*
X3056788Y3204311D01*
X3060700Y3205073D01*
X3064611Y3204311D01*
X3067862Y3202127D01*
X3074212Y3195777D01*
X3076448Y3192475D01*
X3077210Y3188614D01*
X3077210Y3130550D01*
X3077921Y3124250D01*
X3079800Y3118764D01*
X3082899Y3113887D01*
X3087014Y3109772D01*
X3091891Y3106724D01*
X3097377Y3104794D01*
X3103676Y3104083D01*
X3182518Y3104083D01*
X3188868Y3104794D01*
X3194304Y3106724D01*
X3199231Y3109772D01*
X3203295Y3113887D01*
X3204514Y3115767D01*
X3207308Y3118713D01*
X3211068Y3120339D01*
X3215132Y3120339D01*
X3218891Y3118713D01*
X3221685Y3115767D01*
X3222904Y3113887D01*
X3226968Y3109772D01*
X3231896Y3106724D01*
X3237331Y3104794D01*
X3243681Y3104083D01*
X3322523Y3104083D01*
X3328822Y3104794D01*
X3334308Y3106724D01*
X3339185Y3109772D01*
X3343300Y3113887D01*
X3346399Y3118764D01*
X3348278Y3124250D01*
X3348990Y3130550D01*
X3348990Y3188614D01*
X3349751Y3192475D01*
X3351987Y3195777D01*
X3378504Y3222294D01*
X3381806Y3224530D01*
X3385718Y3225292D01*
X3418840Y3225292D01*
X3422751Y3224530D01*
X3426002Y3222294D01*
X3428237Y3219043D01*
X3429000Y3215132D01*
X3429000Y2779268D01*
X3428237Y2775356D01*
X3426002Y2772105D01*
X3422751Y2769870D01*
X3418840Y2769108D01*
X3291332Y2769108D01*
X3287014Y2770073D01*
X3283559Y2772714D01*
X3281527Y2776626D01*
X3281324Y2781046D01*
X3283000Y2785110D01*
X3287318Y2791206D01*
X3291433Y2800146D01*
X3293973Y2809595D01*
X3294837Y2819400D01*
X3293973Y2829204D01*
X3291433Y2838653D01*
X3287318Y2847594D01*
X3281679Y2855620D01*
X3274720Y2862580D01*
X3266694Y2868218D01*
X3257753Y2872333D01*
X3248304Y2874873D01*
X3238500Y2875737D01*
X3228695Y2874873D01*
X3219246Y2872333D01*
X3210306Y2868218D01*
X3207207Y2865983D01*
X3203346Y2864358D01*
X3199180Y2864408D01*
X3195370Y2866136D01*
X3192576Y2869234D01*
X3191256Y2873197D01*
X3190494Y2880156D01*
X3188563Y2885592D01*
X3185515Y2890520D01*
X3181400Y2894584D01*
X3176524Y2897682D01*
X3171037Y2899613D01*
X3164738Y2900324D01*
X3065881Y2900324D01*
X3059531Y2899613D01*
X3054096Y2897682D01*
X3049168Y2894584D01*
X3045104Y2890520D01*
X3043885Y2888640D01*
X3041091Y2885694D01*
X3037332Y2884068D01*
X3033268Y2884068D01*
X3029508Y2885694D01*
X3026714Y2888640D01*
X3025495Y2890520D01*
X3021431Y2894584D01*
X3016504Y2897682D01*
X3011068Y2899613D01*
X3004718Y2900324D01*
X2905861Y2900324D01*
X2899562Y2899613D01*
X2894076Y2897682D01*
X2889199Y2894584D01*
X2885084Y2890520D01*
X2882036Y2885592D01*
X2880106Y2880156D01*
X2879394Y2873806D01*
X2879394Y2802331D01*
X2878632Y2798419D01*
X2876397Y2795117D01*
X2871012Y2789732D01*
X2867710Y2787548D01*
X2863850Y2786735D01*
X2859938Y2787548D01*
X2856636Y2789732D01*
X2851251Y2795117D01*
X2849067Y2798368D01*
X2848305Y2802280D01*
X2848305Y2873806D01*
X2847594Y2880156D01*
X2845663Y2885592D01*
X2842615Y2890520D01*
X2838500Y2894584D01*
X2833624Y2897682D01*
X2828137Y2899613D01*
X2821838Y2900324D01*
X2722981Y2900324D01*
X2716631Y2899613D01*
X2711196Y2897682D01*
X2706268Y2894584D01*
X2702204Y2890520D01*
X2700985Y2888640D01*
X2698191Y2885694D01*
X2694432Y2884068D01*
X2690368Y2884068D01*
X2686608Y2885694D01*
X2683814Y2888640D01*
X2682595Y2890520D01*
X2678531Y2894584D01*
X2673604Y2897682D01*
X2668168Y2899613D01*
X2661818Y2900324D01*
X2562961Y2900324D01*
X2556662Y2899613D01*
X2551176Y2897682D01*
X2546299Y2894584D01*
X2542184Y2890520D01*
X2539136Y2885592D01*
X2537206Y2880156D01*
X2536494Y2873806D01*
X2536494Y2802331D01*
X2535732Y2798419D01*
X2533497Y2795117D01*
X2510485Y2772105D01*
X2507183Y2769870D01*
X2503271Y2769108D01*
G37*

%LPC*%
G36*
X2406802Y2926283D02*
G01*
X2433523Y2926283D01*
X2439822Y2926994D01*
X2445308Y2928924D01*
X2450185Y2931972D01*
X2454300Y2936087D01*
X2457399Y2940964D01*
X2459278Y2946450D01*
X2459990Y2952750D01*
X2459990Y2984500D01*
X2406802Y2984500D01*
G37*
G36*
X2406802Y3009900D02*
G01*
X2459990Y3009900D01*
X2459990Y3041650D01*
X2459278Y3047949D01*
X2457399Y3053435D01*
X2454300Y3058312D01*
X2450185Y3062427D01*
X2445308Y3065475D01*
X2439822Y3067405D01*
X2433523Y3068116D01*
X2406802Y3068116D01*
G37*

%LPD*%
G36*
X5805932Y25908D02*
G01*
X36068Y26416D01*
X32156Y27178D01*
X28905Y29362D01*
X26670Y32664D01*
X25908Y36576D01*
X25908Y5805932D01*
X26670Y5809843D01*
X28905Y5813094D01*
X32156Y5815330D01*
X36068Y5816092D01*
X5805932Y5816092D01*
X5809843Y5815330D01*
X5813094Y5813094D01*
X5815330Y5809843D01*
X5816092Y5805932D01*
X5816092Y3731260D01*
X5815330Y3727348D01*
X5813094Y3724097D01*
X5809843Y3721862D01*
X5805932Y3721100D01*
X5297678Y3721100D01*
X5293766Y3721862D01*
X5290515Y3724097D01*
X5288280Y3727348D01*
X5287518Y3731260D01*
X5287518Y3769715D01*
X5288178Y3773373D01*
X5290159Y3776573D01*
X5293106Y3778808D01*
X5296712Y3779824D01*
X5304739Y3780637D01*
X5310124Y3782517D01*
X5315000Y3785615D01*
X5319115Y3789679D01*
X5322163Y3794607D01*
X5324094Y3800043D01*
X5324805Y3806393D01*
X5324805Y3915206D01*
X5324094Y3921556D01*
X5322163Y3926992D01*
X5319115Y3931920D01*
X5315000Y3935984D01*
X5310124Y3939082D01*
X5304637Y3941013D01*
X5298338Y3941724D01*
X5199481Y3941724D01*
X5193131Y3941013D01*
X5187696Y3939082D01*
X5182768Y3935984D01*
X5178704Y3931920D01*
X5177485Y3930040D01*
X5174691Y3927094D01*
X5170932Y3925468D01*
X5166868Y3925468D01*
X5163108Y3927094D01*
X5160314Y3930040D01*
X5159095Y3931920D01*
X5155031Y3935984D01*
X5150104Y3939082D01*
X5144668Y3941013D01*
X5138318Y3941724D01*
X5039461Y3941724D01*
X5033162Y3941013D01*
X5027676Y3939082D01*
X5022799Y3935984D01*
X5018684Y3931920D01*
X5015636Y3926992D01*
X5013706Y3921556D01*
X5012994Y3915206D01*
X5012994Y3909568D01*
X5012232Y3905656D01*
X5010048Y3902405D01*
X5006746Y3900170D01*
X5002834Y3899408D01*
X4985308Y3899408D01*
X4981397Y3900170D01*
X4978095Y3902405D01*
X4976520Y3903979D01*
X4968494Y3909618D01*
X4959553Y3913733D01*
X4950104Y3916273D01*
X4940300Y3917137D01*
X4930495Y3916273D01*
X4921046Y3913733D01*
X4912106Y3909618D01*
X4904079Y3903979D01*
X4897120Y3897020D01*
X4891481Y3888994D01*
X4887366Y3880053D01*
X4884826Y3870604D01*
X4883962Y3860800D01*
X4884826Y3850995D01*
X4887366Y3841546D01*
X4891481Y3832606D01*
X4897120Y3824579D01*
X4904079Y3817620D01*
X4912106Y3811981D01*
X4921046Y3807866D01*
X4930495Y3805326D01*
X4940300Y3804462D01*
X4950104Y3805326D01*
X4959553Y3807866D01*
X4968494Y3811981D01*
X4976520Y3817620D01*
X4978095Y3819194D01*
X4981397Y3821429D01*
X4985308Y3822192D01*
X5002834Y3822192D01*
X5006746Y3821429D01*
X5010048Y3819194D01*
X5012232Y3815943D01*
X5012994Y3812032D01*
X5012994Y3806393D01*
X5013706Y3800043D01*
X5015636Y3794607D01*
X5018684Y3789679D01*
X5022799Y3785615D01*
X5027676Y3782517D01*
X5033162Y3780586D01*
X5039461Y3779875D01*
X5138318Y3779875D01*
X5144668Y3780586D01*
X5150104Y3782517D01*
X5155031Y3785615D01*
X5159095Y3789679D01*
X5160314Y3791559D01*
X5163108Y3794506D01*
X5166868Y3796131D01*
X5170932Y3796131D01*
X5174691Y3794506D01*
X5177485Y3791559D01*
X5178704Y3789679D01*
X5182768Y3785615D01*
X5187696Y3782517D01*
X5193080Y3780637D01*
X5201107Y3779824D01*
X5204714Y3778808D01*
X5207660Y3776573D01*
X5209641Y3773373D01*
X5210302Y3769715D01*
X5210302Y3731260D01*
X5209540Y3727348D01*
X5207304Y3724097D01*
X5204053Y3721862D01*
X5200142Y3721100D01*
X4769510Y3721100D01*
X4765294Y3722014D01*
X4761839Y3724605D01*
X4759756Y3728415D01*
X4755489Y3742944D01*
X4749241Y3757777D01*
X4741316Y3771747D01*
X4731867Y3784803D01*
X4720996Y3796639D01*
X4708855Y3807155D01*
X4695545Y3816248D01*
X4681321Y3823766D01*
X4676800Y3826408D01*
X4674514Y3829710D01*
X4673701Y3833672D01*
X4673701Y3861968D01*
X4674463Y3865879D01*
X4676698Y3869182D01*
X4679950Y3871366D01*
X4683861Y3872128D01*
X4691075Y3872128D01*
X4697425Y3872839D01*
X4702860Y3874770D01*
X4707788Y3877868D01*
X4711852Y3881932D01*
X4714951Y3886860D01*
X4716830Y3892296D01*
X4717542Y3898646D01*
X4717542Y4010761D01*
X4716830Y4017060D01*
X4714951Y4022496D01*
X4711852Y4027424D01*
X4707788Y4031487D01*
X4702860Y4034586D01*
X4697425Y4036517D01*
X4691075Y4037228D01*
X4554524Y4037228D01*
X4548225Y4036517D01*
X4542739Y4034586D01*
X4537862Y4031487D01*
X4533747Y4027424D01*
X4530648Y4022496D01*
X4528769Y4017060D01*
X4528058Y4010761D01*
X4528058Y3898646D01*
X4528769Y3892296D01*
X4530648Y3886860D01*
X4533747Y3881932D01*
X4537862Y3877868D01*
X4542739Y3874770D01*
X4548225Y3872839D01*
X4554524Y3872128D01*
X4561738Y3872128D01*
X4565599Y3871366D01*
X4568901Y3869182D01*
X4571136Y3865879D01*
X4571898Y3861968D01*
X4571898Y3833520D01*
X4571136Y3829761D01*
X4569053Y3826510D01*
X4565954Y3824274D01*
X4557064Y3820210D01*
X4543298Y3811879D01*
X4530547Y3802075D01*
X4519015Y3790848D01*
X4508804Y3778402D01*
X4500118Y3764889D01*
X4493006Y3750462D01*
X4487621Y3735273D01*
X4486148Y3728974D01*
X4484166Y3724910D01*
X4480661Y3722115D01*
X4476242Y3721100D01*
X3430015Y3721100D01*
X3429000Y3720084D01*
X3429000Y3363468D01*
X3428237Y3359556D01*
X3426002Y3356305D01*
X3422751Y3354070D01*
X3418840Y3353308D01*
X3385718Y3353308D01*
X3381806Y3354070D01*
X3378504Y3356305D01*
X3351987Y3382822D01*
X3349751Y3386124D01*
X3348990Y3389985D01*
X3348990Y3448050D01*
X3348278Y3454349D01*
X3346399Y3459835D01*
X3343300Y3464712D01*
X3339185Y3468827D01*
X3334308Y3471875D01*
X3328822Y3473805D01*
X3322523Y3474516D01*
X3243681Y3474516D01*
X3237331Y3473805D01*
X3231896Y3471875D01*
X3226968Y3468827D01*
X3222904Y3464712D01*
X3221685Y3462832D01*
X3218891Y3459886D01*
X3215132Y3458260D01*
X3211068Y3458260D01*
X3207308Y3459886D01*
X3204514Y3462832D01*
X3203295Y3464712D01*
X3199231Y3468827D01*
X3194304Y3471875D01*
X3188868Y3473805D01*
X3182518Y3474516D01*
X3103676Y3474516D01*
X3097377Y3473805D01*
X3091891Y3471875D01*
X3087014Y3468827D01*
X3082899Y3464712D01*
X3079800Y3459835D01*
X3077921Y3454349D01*
X3077210Y3448050D01*
X3077210Y3389985D01*
X3076448Y3386124D01*
X3074212Y3382822D01*
X3067862Y3376472D01*
X3064611Y3374288D01*
X3060700Y3373526D01*
X3056788Y3374288D01*
X3053537Y3376472D01*
X3042970Y3387039D01*
X3040786Y3390290D01*
X3040024Y3394201D01*
X3040024Y3461918D01*
X3039313Y3468268D01*
X3037382Y3473704D01*
X3034284Y3478631D01*
X3030220Y3482695D01*
X3028340Y3483914D01*
X3025394Y3486708D01*
X3023768Y3490468D01*
X3023768Y3494532D01*
X3025394Y3498291D01*
X3028340Y3501085D01*
X3030220Y3502304D01*
X3034284Y3506368D01*
X3037382Y3511296D01*
X3039313Y3516731D01*
X3040024Y3523081D01*
X3040024Y3532632D01*
X3040786Y3536543D01*
X3042970Y3539794D01*
X3046272Y3542029D01*
X3050184Y3542792D01*
X3091891Y3542792D01*
X3095802Y3542029D01*
X3099104Y3539794D01*
X3100679Y3538220D01*
X3108706Y3532581D01*
X3117646Y3528466D01*
X3127095Y3525926D01*
X3136900Y3525062D01*
X3146704Y3525926D01*
X3156153Y3528466D01*
X3165094Y3532581D01*
X3173120Y3538220D01*
X3180080Y3545179D01*
X3185718Y3553206D01*
X3189833Y3562146D01*
X3192373Y3571595D01*
X3193237Y3581400D01*
X3192373Y3591204D01*
X3189833Y3600653D01*
X3185718Y3609594D01*
X3180080Y3617620D01*
X3178505Y3619195D01*
X3176270Y3622497D01*
X3175508Y3626408D01*
X3175508Y3678428D01*
X3176168Y3682034D01*
X3178098Y3685184D01*
X3180994Y3687470D01*
X3184550Y3688537D01*
X3188868Y3688994D01*
X3194304Y3690924D01*
X3199231Y3693972D01*
X3203295Y3698087D01*
X3204514Y3699967D01*
X3207308Y3702913D01*
X3211068Y3704539D01*
X3215132Y3704539D01*
X3218891Y3702913D01*
X3221685Y3699967D01*
X3222904Y3698087D01*
X3226968Y3693972D01*
X3231896Y3690924D01*
X3237331Y3688994D01*
X3243681Y3688283D01*
X3270402Y3688283D01*
X3270402Y3746500D01*
X3219196Y3746500D01*
X3215284Y3747262D01*
X3211982Y3749497D01*
X3209798Y3752748D01*
X3209036Y3756660D01*
X3209036Y3761740D01*
X3209798Y3765651D01*
X3211982Y3768902D01*
X3215284Y3771137D01*
X3219196Y3771900D01*
X3270402Y3771900D01*
X3270402Y3830116D01*
X3243681Y3830116D01*
X3237331Y3829405D01*
X3231896Y3827475D01*
X3226968Y3824427D01*
X3222904Y3820312D01*
X3221685Y3818432D01*
X3218891Y3815486D01*
X3215132Y3813860D01*
X3211068Y3813860D01*
X3207308Y3815486D01*
X3204514Y3818432D01*
X3203295Y3820312D01*
X3199231Y3824427D01*
X3194304Y3827475D01*
X3188868Y3829405D01*
X3182518Y3830116D01*
X3103676Y3830116D01*
X3097377Y3829405D01*
X3091891Y3827475D01*
X3087014Y3824427D01*
X3082899Y3820312D01*
X3079800Y3815435D01*
X3077921Y3809949D01*
X3077210Y3803650D01*
X3077210Y3714750D01*
X3077921Y3708450D01*
X3079800Y3702964D01*
X3082899Y3698087D01*
X3086912Y3694074D01*
X3093364Y3690162D01*
X3096006Y3687876D01*
X3097682Y3684879D01*
X3098292Y3681476D01*
X3098292Y3630168D01*
X3097530Y3626256D01*
X3095294Y3623005D01*
X3092043Y3620770D01*
X3088132Y3620008D01*
X3049320Y3620008D01*
X3045206Y3620871D01*
X3041802Y3623310D01*
X3039668Y3626916D01*
X3037382Y3633774D01*
X3034284Y3638600D01*
X3030220Y3642715D01*
X3025292Y3645763D01*
X3019856Y3647694D01*
X3013506Y3648405D01*
X2904693Y3648405D01*
X2898343Y3647694D01*
X2892907Y3645763D01*
X2887980Y3642715D01*
X2883916Y3638600D01*
X2880817Y3633724D01*
X2878886Y3628237D01*
X2878175Y3621938D01*
X2878175Y3523081D01*
X2878886Y3516731D01*
X2880817Y3511296D01*
X2883916Y3506368D01*
X2887980Y3502304D01*
X2889859Y3501085D01*
X2892806Y3498291D01*
X2894431Y3494532D01*
X2894431Y3490468D01*
X2892806Y3486708D01*
X2889859Y3483914D01*
X2887980Y3482695D01*
X2883916Y3478631D01*
X2880817Y3473704D01*
X2878886Y3468268D01*
X2878175Y3461918D01*
X2878175Y3390442D01*
X2877413Y3386531D01*
X2875229Y3383229D01*
X2868472Y3376472D01*
X2865170Y3374288D01*
X2861259Y3373526D01*
X2857398Y3374288D01*
X2854096Y3376472D01*
X2851251Y3379317D01*
X2849067Y3382619D01*
X2848305Y3386480D01*
X2848305Y3458006D01*
X2847594Y3464356D01*
X2845663Y3469792D01*
X2842615Y3474720D01*
X2838500Y3478784D01*
X2833624Y3481882D01*
X2828137Y3483813D01*
X2821838Y3484524D01*
X2722981Y3484524D01*
X2716631Y3483813D01*
X2711196Y3481882D01*
X2706268Y3478784D01*
X2702204Y3474720D01*
X2700985Y3472840D01*
X2698191Y3469894D01*
X2694432Y3468268D01*
X2690368Y3468268D01*
X2686608Y3469894D01*
X2683814Y3472840D01*
X2682595Y3474720D01*
X2678531Y3478784D01*
X2673604Y3481882D01*
X2668168Y3483813D01*
X2661818Y3484524D01*
X2562961Y3484524D01*
X2556662Y3483813D01*
X2551176Y3481882D01*
X2546299Y3478784D01*
X2542184Y3474720D01*
X2539136Y3469792D01*
X2537206Y3464356D01*
X2536494Y3458006D01*
X2536494Y3382721D01*
X2535732Y3378809D01*
X2533497Y3375507D01*
X2514295Y3356305D01*
X2510993Y3354070D01*
X2507081Y3353308D01*
X2299208Y3353308D01*
X2291181Y3352495D01*
X2283968Y3350310D01*
X2277262Y3346754D01*
X2271064Y3341624D01*
X2259126Y3329736D01*
X2255875Y3327552D01*
X2251964Y3326790D01*
X2248052Y3327552D01*
X2244801Y3329736D01*
X2242566Y3333038D01*
X2241804Y3336950D01*
X2241804Y3425240D01*
X2242667Y3429304D01*
X2245055Y3432708D01*
X2248611Y3434842D01*
X2254504Y3436924D01*
X2259431Y3439972D01*
X2263495Y3444087D01*
X2264714Y3445967D01*
X2267508Y3448913D01*
X2271268Y3450539D01*
X2275332Y3450539D01*
X2279091Y3448913D01*
X2281885Y3445967D01*
X2283104Y3444087D01*
X2287168Y3439972D01*
X2292096Y3436924D01*
X2297531Y3434994D01*
X2303881Y3434283D01*
X2330602Y3434283D01*
X2330602Y3492500D01*
X2279396Y3492500D01*
X2275484Y3493262D01*
X2272182Y3495497D01*
X2269998Y3498748D01*
X2269236Y3502660D01*
X2269236Y3507740D01*
X2269998Y3511651D01*
X2272182Y3514902D01*
X2275484Y3517137D01*
X2279396Y3517900D01*
X2330602Y3517900D01*
X2330602Y3632200D01*
X2279396Y3632200D01*
X2275484Y3632962D01*
X2272182Y3635197D01*
X2269998Y3638448D01*
X2269236Y3642360D01*
X2269236Y3647440D01*
X2269998Y3651351D01*
X2272182Y3654602D01*
X2275484Y3656837D01*
X2279396Y3657600D01*
X2330602Y3657600D01*
X2330602Y3715816D01*
X2303881Y3715816D01*
X2297531Y3715105D01*
X2292096Y3713175D01*
X2287168Y3710127D01*
X2283104Y3706012D01*
X2281885Y3704132D01*
X2279091Y3701186D01*
X2275332Y3699560D01*
X2271268Y3699560D01*
X2267508Y3701186D01*
X2264714Y3704132D01*
X2263495Y3706012D01*
X2256383Y3712667D01*
X2254758Y3715512D01*
X2254097Y3718763D01*
X2253894Y3725621D01*
X2253335Y3729939D01*
X2252370Y3734257D01*
X2251049Y3738524D01*
X2249322Y3742588D01*
X2247290Y3746550D01*
X2244902Y3750310D01*
X2242210Y3753815D01*
X2239060Y3757269D01*
X2207463Y3788816D01*
X2205278Y3792118D01*
X2204516Y3795979D01*
X2204516Y3830218D01*
X2203805Y3836568D01*
X2201875Y3842004D01*
X2198827Y3846931D01*
X2194712Y3850995D01*
X2192832Y3852214D01*
X2189886Y3855008D01*
X2188260Y3858768D01*
X2188260Y3862832D01*
X2189886Y3866591D01*
X2192832Y3869385D01*
X2194712Y3870604D01*
X2198827Y3874668D01*
X2201875Y3879596D01*
X2203805Y3885031D01*
X2204516Y3891381D01*
X2204516Y3918102D01*
X2146300Y3918102D01*
X2146300Y3866896D01*
X2145538Y3862984D01*
X2143302Y3859682D01*
X2140051Y3857498D01*
X2136140Y3856736D01*
X2131060Y3856736D01*
X2127148Y3857498D01*
X2123897Y3859682D01*
X2121662Y3862984D01*
X2120900Y3866896D01*
X2120900Y3918102D01*
X2056688Y3918102D01*
X2052828Y3918864D01*
X2049525Y3921048D01*
X2047341Y3924350D01*
X2046528Y3928211D01*
X2046528Y3933291D01*
X2047290Y3937203D01*
X2049525Y3940505D01*
X2052777Y3942689D01*
X2056688Y3943502D01*
X2120900Y3943502D01*
X2120900Y3996690D01*
X2089150Y3996690D01*
X2082850Y3995978D01*
X2077364Y3994099D01*
X2072487Y3991000D01*
X2065172Y3983634D01*
X2060956Y3982110D01*
X2056485Y3982567D01*
X2052675Y3984904D01*
X2050186Y3988663D01*
X2049576Y3993083D01*
X2050237Y4000500D01*
X2049373Y4010304D01*
X2046681Y4020362D01*
X2046325Y4023004D01*
X2045004Y4649368D01*
X2045766Y4653280D01*
X2047951Y4656582D01*
X2051253Y4658766D01*
X2055164Y4659528D01*
X2062175Y4659528D01*
X2068525Y4660239D01*
X2073960Y4662170D01*
X2078888Y4665268D01*
X2082952Y4669332D01*
X2086051Y4674260D01*
X2087930Y4679696D01*
X2088642Y4686046D01*
X2088642Y4798161D01*
X2087930Y4804460D01*
X2086051Y4809896D01*
X2082952Y4814824D01*
X2078888Y4818888D01*
X2073960Y4821986D01*
X2068525Y4823917D01*
X2062175Y4824628D01*
X1925624Y4824628D01*
X1919325Y4823917D01*
X1913839Y4821986D01*
X1908962Y4818888D01*
X1904847Y4814824D01*
X1901748Y4809896D01*
X1899869Y4804460D01*
X1899157Y4798161D01*
X1899157Y4686046D01*
X1899869Y4679696D01*
X1901748Y4674260D01*
X1904847Y4669332D01*
X1908962Y4665268D01*
X1913839Y4662170D01*
X1919325Y4660239D01*
X1925624Y4659528D01*
X1933041Y4659528D01*
X1936902Y4658766D01*
X1940204Y4656582D01*
X1942388Y4653280D01*
X1943201Y4649419D01*
X1944522Y4029710D01*
X1943557Y4025392D01*
X1940966Y4019753D01*
X1938375Y4010253D01*
X1937664Y4002328D01*
X1936648Y3998823D01*
X1934514Y3995877D01*
X1931416Y3993896D01*
X1927809Y3993134D01*
X1924202Y3993692D01*
X1917649Y3995978D01*
X1911350Y3996690D01*
X1879600Y3996690D01*
X1879600Y3943502D01*
X1934565Y3943502D01*
X1938426Y3942740D01*
X1941728Y3940505D01*
X1943963Y3937254D01*
X1944725Y3933342D01*
X1944725Y3928262D01*
X1943963Y3924401D01*
X1941779Y3921048D01*
X1938477Y3918864D01*
X1934565Y3918102D01*
X1879600Y3918102D01*
X1879600Y3866896D01*
X1878838Y3862984D01*
X1876602Y3859682D01*
X1873351Y3857498D01*
X1869439Y3856736D01*
X1864360Y3856736D01*
X1860448Y3857498D01*
X1857197Y3859682D01*
X1854962Y3862984D01*
X1854200Y3866896D01*
X1854200Y3918102D01*
X1739900Y3918102D01*
X1739900Y3866896D01*
X1739138Y3862984D01*
X1736902Y3859682D01*
X1733651Y3857498D01*
X1729739Y3856736D01*
X1724660Y3856736D01*
X1720748Y3857498D01*
X1717497Y3859682D01*
X1715262Y3862984D01*
X1714500Y3866896D01*
X1714500Y3918102D01*
X1656283Y3918102D01*
X1656283Y3891381D01*
X1656994Y3885031D01*
X1658924Y3879596D01*
X1661972Y3874668D01*
X1666087Y3870604D01*
X1667967Y3869385D01*
X1670913Y3866591D01*
X1672539Y3862832D01*
X1672539Y3858768D01*
X1670913Y3855008D01*
X1667967Y3852214D01*
X1666087Y3850995D01*
X1661972Y3846931D01*
X1658924Y3842004D01*
X1656994Y3836568D01*
X1656283Y3830218D01*
X1656283Y3751376D01*
X1656486Y3745585D01*
X1655470Y3742740D01*
X1653692Y3740302D01*
X1597456Y3684066D01*
X1592326Y3677818D01*
X1588770Y3671163D01*
X1586585Y3663950D01*
X1586128Y3659124D01*
X1584960Y3655314D01*
X1582420Y3652265D01*
X1578965Y3650386D01*
X1566722Y3649268D01*
X1559356Y3647033D01*
X1554226Y3644290D01*
X1551076Y3643223D01*
X1547774Y3643223D01*
X1544624Y3644290D01*
X1539494Y3647084D01*
X1537106Y3647795D01*
X1537106Y3624224D01*
X1536700Y3621278D01*
X1535785Y3618382D01*
X1534972Y3610203D01*
X1534972Y3488182D01*
X1535785Y3480003D01*
X1536700Y3477107D01*
X1537106Y3474161D01*
X1537106Y3450640D01*
X1539494Y3451351D01*
X1544624Y3454095D01*
X1547723Y3455162D01*
X1551025Y3455162D01*
X1554175Y3454095D01*
X1559356Y3451301D01*
X1566722Y3449065D01*
X1574393Y3448304D01*
X1582064Y3449065D01*
X1589481Y3451301D01*
X1594612Y3454095D01*
X1597761Y3455162D01*
X1601063Y3455162D01*
X1604213Y3454095D01*
X1609344Y3451351D01*
X1616710Y3449116D01*
X1624431Y3448354D01*
X1632102Y3449116D01*
X1639468Y3451351D01*
X1644599Y3454095D01*
X1647748Y3455162D01*
X1651050Y3455162D01*
X1654200Y3454095D01*
X1659331Y3451301D01*
X1661718Y3450590D01*
X1661718Y3474161D01*
X1662125Y3477107D01*
X1663039Y3480003D01*
X1663801Y3488182D01*
X1663801Y3610203D01*
X1662988Y3618941D01*
X1662988Y3636213D01*
X1663801Y3640074D01*
X1665986Y3643376D01*
X1668475Y3645865D01*
X1671726Y3648049D01*
X1675638Y3648811D01*
X1679498Y3648049D01*
X1682800Y3645865D01*
X1685036Y3642563D01*
X1685798Y3638651D01*
X1685747Y3617722D01*
X1684985Y3610203D01*
X1684985Y3488182D01*
X1685798Y3480003D01*
X1687118Y3474262D01*
X1687118Y3450590D01*
X1689455Y3451301D01*
X1694637Y3454095D01*
X1697786Y3455162D01*
X1701088Y3455162D01*
X1704187Y3454095D01*
X1709369Y3451351D01*
X1716735Y3449116D01*
X1724406Y3448354D01*
X1732076Y3449116D01*
X1739493Y3451351D01*
X1744624Y3454095D01*
X1747723Y3455162D01*
X1751025Y3455162D01*
X1754174Y3454095D01*
X1759356Y3451301D01*
X1761693Y3450590D01*
X1761693Y3474161D01*
X1762150Y3477107D01*
X1763014Y3480003D01*
X1763826Y3488182D01*
X1763826Y3610203D01*
X1763014Y3618941D01*
X1763014Y3634587D01*
X1763775Y3638499D01*
X1766011Y3641801D01*
X1769770Y3645560D01*
X1773072Y3647744D01*
X1776933Y3648557D01*
X1780844Y3647744D01*
X1784146Y3645560D01*
X1786331Y3642258D01*
X1787093Y3638397D01*
X1787093Y3624122D01*
X1785823Y3618382D01*
X1785010Y3610203D01*
X1785010Y3488182D01*
X1785823Y3480003D01*
X1787093Y3474262D01*
X1787093Y3450590D01*
X1789480Y3451301D01*
X1794611Y3454095D01*
X1797761Y3455162D01*
X1801063Y3455162D01*
X1804212Y3454095D01*
X1809343Y3451351D01*
X1816709Y3449116D01*
X1824431Y3448354D01*
X1832102Y3449116D01*
X1839468Y3451351D01*
X1846275Y3454958D01*
X1852269Y3459886D01*
X1857146Y3465829D01*
X1860753Y3472637D01*
X1863039Y3480003D01*
X1863801Y3488182D01*
X1863801Y3610203D01*
X1863039Y3618382D01*
X1860753Y3625748D01*
X1857146Y3632555D01*
X1852269Y3638550D01*
X1846275Y3643426D01*
X1839468Y3647084D01*
X1832102Y3649319D01*
X1824431Y3650081D01*
X1816709Y3649319D01*
X1809343Y3647084D01*
X1804162Y3644290D01*
X1801063Y3643223D01*
X1797761Y3643223D01*
X1794611Y3644290D01*
X1789684Y3646932D01*
X1786737Y3649319D01*
X1784857Y3652570D01*
X1784299Y3656279D01*
X1785162Y3659987D01*
X1787296Y3663086D01*
X1846122Y3721912D01*
X1849424Y3724148D01*
X1853285Y3724910D01*
X1911350Y3724910D01*
X1917649Y3725621D01*
X1923135Y3727500D01*
X1928012Y3730599D01*
X1934565Y3737559D01*
X1937562Y3739235D01*
X1940915Y3739794D01*
X1970125Y3739794D01*
X1974392Y3738829D01*
X1976729Y3737762D01*
X1986229Y3735222D01*
X1995982Y3734358D01*
X2005787Y3735222D01*
X2015286Y3737762D01*
X2017623Y3738829D01*
X2021890Y3739794D01*
X2059584Y3739794D01*
X2062937Y3739235D01*
X2065934Y3737559D01*
X2068372Y3734714D01*
X2072487Y3730599D01*
X2077364Y3727500D01*
X2082850Y3725621D01*
X2089150Y3724910D01*
X2123186Y3724910D01*
X2127097Y3724148D01*
X2130399Y3721912D01*
X2138629Y3713683D01*
X2140559Y3710940D01*
X2141524Y3707637D01*
X2141321Y3704234D01*
X2138121Y3695649D01*
X2137714Y3691940D01*
X2136749Y3688638D01*
X2134717Y3685844D01*
X2131923Y3683863D01*
X2128621Y3682949D01*
X2126081Y3682695D01*
X2118868Y3680510D01*
X2112162Y3676954D01*
X2105964Y3671824D01*
X2081275Y3647135D01*
X2076145Y3640937D01*
X2072589Y3634232D01*
X2070404Y3627018D01*
X2069592Y3618992D01*
X2069592Y3442563D01*
X2068728Y3438499D01*
X2066340Y3435096D01*
X2062784Y3432962D01*
X2058619Y3432454D01*
X2054656Y3433622D01*
X2050948Y3435553D01*
X2043582Y3437788D01*
X2035403Y3438601D01*
X1913382Y3438601D01*
X1905203Y3437788D01*
X1897837Y3435553D01*
X1891030Y3431946D01*
X1885035Y3427018D01*
X1880158Y3421075D01*
X1876501Y3414268D01*
X1874266Y3406901D01*
X1873504Y3399231D01*
X1874266Y3391509D01*
X1876501Y3384143D01*
X1879295Y3379012D01*
X1880362Y3375863D01*
X1880362Y3372561D01*
X1879295Y3369411D01*
X1876501Y3364229D01*
X1874266Y3356864D01*
X1873504Y3349193D01*
X1874266Y3341522D01*
X1876501Y3334105D01*
X1879244Y3328974D01*
X1880311Y3325876D01*
X1880311Y3322523D01*
X1879244Y3319424D01*
X1876501Y3314293D01*
X1874266Y3306876D01*
X1873504Y3299206D01*
X1874266Y3291535D01*
X1876501Y3284169D01*
X1879295Y3278987D01*
X1880362Y3275838D01*
X1880362Y3272536D01*
X1879295Y3269386D01*
X1876501Y3264255D01*
X1875789Y3261867D01*
X1899513Y3261867D01*
X1905203Y3260598D01*
X1913382Y3259785D01*
X2035403Y3259785D01*
X2043938Y3260598D01*
X2047798Y3260598D01*
X2051557Y3259886D01*
X2054809Y3257803D01*
X2057501Y3255264D01*
X2059787Y3252012D01*
X2060651Y3248101D01*
X2059939Y3244138D01*
X2057755Y3240786D01*
X2054453Y3238550D01*
X2050491Y3237738D01*
X2043836Y3237788D01*
X2035403Y3238601D01*
X1913382Y3238601D01*
X1905203Y3237788D01*
X1902256Y3236925D01*
X1899310Y3236468D01*
X1875789Y3236468D01*
X1876501Y3234131D01*
X1879244Y3229000D01*
X1880311Y3225850D01*
X1880311Y3222548D01*
X1879244Y3219399D01*
X1876501Y3214268D01*
X1874266Y3206902D01*
X1873504Y3199231D01*
X1874266Y3191510D01*
X1876501Y3184144D01*
X1879295Y3179013D01*
X1880362Y3175863D01*
X1880362Y3172561D01*
X1879295Y3169412D01*
X1876501Y3164230D01*
X1874266Y3156864D01*
X1873504Y3149193D01*
X1874266Y3141522D01*
X1876501Y3134106D01*
X1879244Y3128975D01*
X1880311Y3125876D01*
X1880311Y3122523D01*
X1879244Y3119424D01*
X1876501Y3114294D01*
X1874266Y3106877D01*
X1873504Y3099206D01*
X1874266Y3091535D01*
X1876501Y3084169D01*
X1879295Y3078988D01*
X1880362Y3075838D01*
X1880362Y3072536D01*
X1879295Y3069386D01*
X1876501Y3064256D01*
X1874266Y3056890D01*
X1873504Y3049168D01*
X1874266Y3041497D01*
X1876501Y3034131D01*
X1879244Y3029000D01*
X1880311Y3025851D01*
X1880311Y3022549D01*
X1879244Y3019399D01*
X1876501Y3014268D01*
X1874266Y3006902D01*
X1873504Y2999232D01*
X1874266Y2991510D01*
X1876501Y2984144D01*
X1879295Y2979013D01*
X1880362Y2975864D01*
X1880362Y2972562D01*
X1879295Y2969412D01*
X1876501Y2964230D01*
X1875789Y2961894D01*
X1899513Y2961894D01*
X1905203Y2960624D01*
X1913382Y2959811D01*
X1965960Y2959811D01*
X1974088Y2958846D01*
X1978202Y2957423D01*
X1981301Y2954375D01*
X1982876Y2950311D01*
X1982571Y2945993D01*
X1980539Y2942183D01*
X1977085Y2939542D01*
X1972818Y2938627D01*
X1913382Y2938627D01*
X1905203Y2937814D01*
X1902256Y2936951D01*
X1899310Y2936494D01*
X1875789Y2936494D01*
X1876501Y2934106D01*
X1879244Y2928975D01*
X1880311Y2925876D01*
X1880311Y2922524D01*
X1879244Y2919425D01*
X1876501Y2914294D01*
X1874266Y2906877D01*
X1873504Y2899206D01*
X1874266Y2891536D01*
X1876501Y2884170D01*
X1879295Y2878988D01*
X1880362Y2875838D01*
X1880362Y2872536D01*
X1879295Y2869387D01*
X1876501Y2864256D01*
X1874266Y2856890D01*
X1873504Y2849168D01*
X1874266Y2841498D01*
X1876501Y2834132D01*
X1880158Y2827324D01*
X1885035Y2821381D01*
X1891030Y2816453D01*
X1897837Y2812846D01*
X1905203Y2810611D01*
X1913382Y2809798D01*
X2035403Y2809798D01*
X2044090Y2810611D01*
X2070912Y2810611D01*
X2074773Y2809798D01*
X2078075Y2807614D01*
X2232964Y2652776D01*
X2239162Y2647645D01*
X2245868Y2644089D01*
X2253081Y2641904D01*
X2261108Y2641092D01*
X2503271Y2641092D01*
X2507183Y2640330D01*
X2510485Y2638094D01*
X2533497Y2615082D01*
X2535732Y2611780D01*
X2536494Y2607868D01*
X2536494Y2536393D01*
X2537206Y2530043D01*
X2539136Y2524607D01*
X2542184Y2519680D01*
X2546299Y2515616D01*
X2551176Y2512517D01*
X2556662Y2510586D01*
X2562961Y2509875D01*
X2661818Y2509875D01*
X2668168Y2510586D01*
X2673604Y2512517D01*
X2678531Y2515616D01*
X2682595Y2519680D01*
X2683814Y2521559D01*
X2686608Y2524506D01*
X2690368Y2526131D01*
X2694432Y2526131D01*
X2698191Y2524506D01*
X2700985Y2521559D01*
X2702204Y2519680D01*
X2706268Y2515616D01*
X2711196Y2512517D01*
X2716631Y2510586D01*
X2722981Y2509875D01*
X2821838Y2509875D01*
X2828137Y2510586D01*
X2833624Y2512517D01*
X2838500Y2515616D01*
X2842615Y2519680D01*
X2845663Y2524607D01*
X2847594Y2530043D01*
X2848305Y2536393D01*
X2848305Y2607919D01*
X2849067Y2611780D01*
X2851251Y2615082D01*
X2856687Y2620467D01*
X2859938Y2622702D01*
X2863850Y2623464D01*
X2867761Y2622702D01*
X2871012Y2620467D01*
X2876448Y2615082D01*
X2878632Y2611780D01*
X2879394Y2607919D01*
X2879394Y2536393D01*
X2880106Y2530043D01*
X2882036Y2524607D01*
X2885084Y2519680D01*
X2889199Y2515616D01*
X2894076Y2512517D01*
X2899562Y2510586D01*
X2905861Y2509875D01*
X3004718Y2509875D01*
X3011068Y2510586D01*
X3016504Y2512517D01*
X3021431Y2515616D01*
X3025495Y2519680D01*
X3026714Y2521559D01*
X3029508Y2524506D01*
X3033268Y2526131D01*
X3037332Y2526131D01*
X3041091Y2524506D01*
X3043885Y2521559D01*
X3045104Y2519680D01*
X3049168Y2515616D01*
X3054096Y2512517D01*
X3059480Y2510637D01*
X3067507Y2509824D01*
X3071114Y2508808D01*
X3074060Y2506573D01*
X3076041Y2503373D01*
X3076702Y2499715D01*
X3076702Y2483205D01*
X3075940Y2479294D01*
X3073704Y2475992D01*
X3072130Y2474417D01*
X3066491Y2466390D01*
X3062376Y2457450D01*
X3059836Y2448001D01*
X3058972Y2438196D01*
X3059836Y2428392D01*
X3062376Y2418943D01*
X3066491Y2410002D01*
X3072130Y2401976D01*
X3073704Y2400401D01*
X3075940Y2397099D01*
X3076702Y2393188D01*
X3076702Y2389784D01*
X3076041Y2386126D01*
X3074060Y2382926D01*
X3071114Y2380691D01*
X3067507Y2379675D01*
X3059480Y2378862D01*
X3054096Y2376982D01*
X3049168Y2373884D01*
X3045104Y2369820D01*
X3043885Y2367940D01*
X3041091Y2364994D01*
X3037332Y2363368D01*
X3033268Y2363368D01*
X3029508Y2364994D01*
X3026714Y2367940D01*
X3025495Y2369820D01*
X3021431Y2373884D01*
X3016504Y2376982D01*
X3011068Y2378913D01*
X3004718Y2379624D01*
X2905861Y2379624D01*
X2899562Y2378913D01*
X2894076Y2376982D01*
X2889199Y2373884D01*
X2885084Y2369820D01*
X2882036Y2364892D01*
X2880207Y2359710D01*
X2878328Y2356408D01*
X2875330Y2354072D01*
X2871724Y2352954D01*
X2867964Y2353259D01*
X2864459Y2354173D01*
X2854655Y2355037D01*
X2844850Y2354173D01*
X2836062Y2351836D01*
X2831795Y2351633D01*
X2827832Y2353208D01*
X2824835Y2356256D01*
X2822600Y2359812D01*
X2818485Y2363927D01*
X2813608Y2366975D01*
X2808122Y2368905D01*
X2801823Y2369616D01*
X2722981Y2369616D01*
X2716631Y2368905D01*
X2711196Y2366975D01*
X2706268Y2363927D01*
X2702204Y2359812D01*
X2700985Y2357932D01*
X2698191Y2354986D01*
X2694432Y2353360D01*
X2690368Y2353360D01*
X2686608Y2354986D01*
X2683814Y2357932D01*
X2682595Y2359812D01*
X2678531Y2363927D01*
X2673604Y2366975D01*
X2668168Y2368905D01*
X2661818Y2369616D01*
X2635097Y2369616D01*
X2635097Y2311400D01*
X2686304Y2311400D01*
X2690215Y2310638D01*
X2693517Y2308402D01*
X2695702Y2305151D01*
X2696464Y2301240D01*
X2696464Y2296160D01*
X2695702Y2292248D01*
X2693517Y2288997D01*
X2690215Y2286762D01*
X2686304Y2286000D01*
X2635097Y2286000D01*
X2635097Y2227783D01*
X2661818Y2227783D01*
X2668168Y2228494D01*
X2673604Y2230424D01*
X2678531Y2233472D01*
X2682595Y2237587D01*
X2683814Y2239467D01*
X2686608Y2242413D01*
X2690368Y2244039D01*
X2694432Y2244039D01*
X2698191Y2242413D01*
X2700985Y2239467D01*
X2702204Y2237587D01*
X2706268Y2233472D01*
X2711196Y2230424D01*
X2716631Y2228494D01*
X2722981Y2227783D01*
X2801823Y2227783D01*
X2808122Y2228494D01*
X2813608Y2230424D01*
X2818485Y2233472D01*
X2822600Y2237587D01*
X2824835Y2241143D01*
X2827832Y2244191D01*
X2831795Y2245766D01*
X2836062Y2245563D01*
X2844850Y2243226D01*
X2854655Y2242362D01*
X2864459Y2243226D01*
X2867964Y2244140D01*
X2871724Y2244445D01*
X2875330Y2243328D01*
X2878328Y2240991D01*
X2880207Y2237689D01*
X2882036Y2232507D01*
X2885084Y2227580D01*
X2889199Y2223516D01*
X2894076Y2220417D01*
X2899562Y2218486D01*
X2905861Y2217775D01*
X3004718Y2217775D01*
X3011068Y2218486D01*
X3016504Y2220417D01*
X3021431Y2223516D01*
X3025495Y2227580D01*
X3026714Y2229459D01*
X3029508Y2232406D01*
X3033268Y2234031D01*
X3037332Y2234031D01*
X3041091Y2232406D01*
X3043885Y2229459D01*
X3045104Y2227580D01*
X3049168Y2223516D01*
X3054096Y2220417D01*
X3059531Y2218486D01*
X3065881Y2217775D01*
X3164738Y2217775D01*
X3171037Y2218486D01*
X3176524Y2220417D01*
X3181400Y2223516D01*
X3185515Y2227580D01*
X3188563Y2232507D01*
X3190494Y2237943D01*
X3191205Y2244293D01*
X3191205Y2353106D01*
X3190494Y2359456D01*
X3188563Y2364892D01*
X3185515Y2369820D01*
X3181400Y2373884D01*
X3176524Y2376982D01*
X3171139Y2378862D01*
X3163112Y2379675D01*
X3159506Y2380691D01*
X3156559Y2382926D01*
X3154578Y2386126D01*
X3153918Y2389784D01*
X3153918Y2393188D01*
X3154680Y2397099D01*
X3156915Y2400401D01*
X3158490Y2401976D01*
X3164128Y2410002D01*
X3168243Y2418943D01*
X3170783Y2428392D01*
X3171647Y2438196D01*
X3170783Y2448001D01*
X3168243Y2457450D01*
X3164128Y2466390D01*
X3158490Y2474417D01*
X3156915Y2475992D01*
X3154680Y2479294D01*
X3153918Y2483205D01*
X3153918Y2499715D01*
X3154578Y2503373D01*
X3156559Y2506573D01*
X3159506Y2508808D01*
X3163112Y2509824D01*
X3171139Y2510637D01*
X3176524Y2512517D01*
X3181400Y2515616D01*
X3185515Y2519680D01*
X3188563Y2524607D01*
X3190494Y2530043D01*
X3191256Y2536952D01*
X3192576Y2540863D01*
X3195320Y2543962D01*
X3199079Y2545689D01*
X3203244Y2545791D01*
X3207105Y2544216D01*
X3210255Y2542032D01*
X3219246Y2537866D01*
X3228695Y2535326D01*
X3238500Y2534462D01*
X3248304Y2535326D01*
X3257753Y2537866D01*
X3266694Y2541981D01*
X3274720Y2547620D01*
X3281679Y2554579D01*
X3287318Y2562606D01*
X3291433Y2571546D01*
X3293973Y2580995D01*
X3294837Y2590800D01*
X3293973Y2600604D01*
X3291433Y2610053D01*
X3287318Y2618994D01*
X3283000Y2625090D01*
X3281324Y2629154D01*
X3281527Y2633573D01*
X3283559Y2637485D01*
X3287014Y2640126D01*
X3291332Y2641092D01*
X3418840Y2641092D01*
X3422751Y2640330D01*
X3426002Y2638094D01*
X3428237Y2634843D01*
X3429000Y2630932D01*
X3429000Y2121916D01*
X3430015Y2120900D01*
X4476292Y2120900D01*
X4480712Y2119884D01*
X4484217Y2117090D01*
X4486198Y2113026D01*
X4487621Y2106930D01*
X4493006Y2091740D01*
X4500118Y2077313D01*
X4508804Y2063800D01*
X4519015Y2051354D01*
X4530547Y2040128D01*
X4543298Y2030323D01*
X4557064Y2021992D01*
X4571695Y2015286D01*
X4586986Y2010359D01*
X4602734Y2007158D01*
X4618786Y2005787D01*
X4634839Y2006244D01*
X4650790Y2008530D01*
X4666335Y2012594D01*
X4681321Y2018436D01*
X4695545Y2025954D01*
X4708855Y2035048D01*
X4720996Y2045563D01*
X4731867Y2057400D01*
X4741316Y2070455D01*
X4749241Y2084425D01*
X4755489Y2099259D01*
X4759706Y2113584D01*
X4761788Y2117394D01*
X4765243Y2119985D01*
X4769459Y2120900D01*
X5200142Y2120900D01*
X5204053Y2120138D01*
X5207304Y2117902D01*
X5209540Y2114651D01*
X5210302Y2110740D01*
X5210302Y2072284D01*
X5209641Y2068626D01*
X5207660Y2065426D01*
X5204714Y2063191D01*
X5201107Y2062175D01*
X5193080Y2061362D01*
X5187696Y2059482D01*
X5182768Y2056384D01*
X5178704Y2052320D01*
X5177485Y2050440D01*
X5174691Y2047493D01*
X5170932Y2045868D01*
X5166868Y2045868D01*
X5163108Y2047493D01*
X5160314Y2050440D01*
X5159095Y2052320D01*
X5155031Y2056384D01*
X5150104Y2059482D01*
X5144668Y2061413D01*
X5138318Y2062124D01*
X5039461Y2062124D01*
X5033162Y2061413D01*
X5027676Y2059482D01*
X5022799Y2056384D01*
X5018684Y2052320D01*
X5015636Y2047392D01*
X5013706Y2041956D01*
X5012994Y2035606D01*
X5012994Y2029968D01*
X5012232Y2026056D01*
X5010048Y2022805D01*
X5006746Y2020570D01*
X5002834Y2019807D01*
X4985308Y2019807D01*
X4981397Y2020570D01*
X4978095Y2022805D01*
X4976520Y2024380D01*
X4968494Y2030018D01*
X4959553Y2034133D01*
X4950104Y2036673D01*
X4940300Y2037537D01*
X4930495Y2036673D01*
X4921046Y2034133D01*
X4912106Y2030018D01*
X4904079Y2024380D01*
X4897120Y2017420D01*
X4891481Y2009393D01*
X4887366Y2000453D01*
X4884826Y1991004D01*
X4883962Y1981200D01*
X4884826Y1971395D01*
X4887366Y1961946D01*
X4891481Y1953006D01*
X4897120Y1944979D01*
X4904079Y1938020D01*
X4912106Y1932381D01*
X4921046Y1928266D01*
X4930495Y1925726D01*
X4940300Y1924862D01*
X4950104Y1925726D01*
X4959553Y1928266D01*
X4968494Y1932381D01*
X4976520Y1938020D01*
X4978095Y1939594D01*
X4981397Y1941830D01*
X4985308Y1942592D01*
X5002834Y1942592D01*
X5006746Y1941830D01*
X5010048Y1939594D01*
X5012232Y1936343D01*
X5012994Y1932432D01*
X5012994Y1926793D01*
X5013706Y1920443D01*
X5015636Y1915007D01*
X5018684Y1910080D01*
X5022799Y1906016D01*
X5027676Y1902917D01*
X5033162Y1900986D01*
X5039461Y1900275D01*
X5138318Y1900275D01*
X5144668Y1900986D01*
X5150104Y1902917D01*
X5155031Y1906016D01*
X5159095Y1910080D01*
X5160314Y1911959D01*
X5163108Y1914906D01*
X5166868Y1916531D01*
X5170932Y1916531D01*
X5174691Y1914906D01*
X5177485Y1911959D01*
X5178704Y1910080D01*
X5182768Y1906016D01*
X5187696Y1902917D01*
X5193131Y1900986D01*
X5199481Y1900275D01*
X5298338Y1900275D01*
X5304637Y1900986D01*
X5310124Y1902917D01*
X5315000Y1906016D01*
X5319115Y1910080D01*
X5322163Y1915007D01*
X5324094Y1920443D01*
X5324805Y1926793D01*
X5324805Y2035606D01*
X5324094Y2041956D01*
X5322163Y2047392D01*
X5319115Y2052320D01*
X5315000Y2056384D01*
X5310124Y2059482D01*
X5304739Y2061362D01*
X5296712Y2062175D01*
X5293106Y2063191D01*
X5290159Y2065426D01*
X5288178Y2068626D01*
X5287518Y2072284D01*
X5287518Y2110740D01*
X5288280Y2114651D01*
X5290515Y2117902D01*
X5293766Y2120138D01*
X5297678Y2120900D01*
X5805932Y2120900D01*
X5809843Y2120138D01*
X5813094Y2117902D01*
X5815330Y2114651D01*
X5816092Y2110740D01*
X5816092Y36068D01*
X5815330Y32207D01*
X5813094Y28905D01*
X5809843Y26670D01*
G37*

%LPC*%
G36*
X4584700Y5600700D02*
G01*
X4687112Y5600700D01*
X4686960Y5602528D01*
X4684268Y5616803D01*
X4679746Y5630672D01*
X4673549Y5643829D01*
X4665776Y5656122D01*
X4656480Y5667349D01*
X4645863Y5677306D01*
X4634077Y5685840D01*
X4621326Y5692851D01*
X4607814Y5698236D01*
X4593691Y5701842D01*
X4584700Y5702960D01*
G37*
G36*
X393700Y105562D02*
G01*
X398322Y105664D01*
X421284Y108051D01*
X443992Y112369D01*
X466242Y118618D01*
X487934Y126644D01*
X508812Y136499D01*
X528828Y148031D01*
X547827Y161239D01*
X565607Y175971D01*
X582117Y192125D01*
X597204Y209600D01*
X610819Y228295D01*
X622757Y248107D01*
X633018Y268782D01*
X641553Y290271D01*
X648208Y312369D01*
X653034Y334975D01*
X655929Y357936D01*
X656336Y368300D01*
X393700Y368300D01*
G37*
G36*
X5448300Y105613D02*
G01*
X5448300Y368300D01*
X5185410Y368300D01*
X5187289Y346405D01*
X5191150Y323646D01*
X5196890Y301244D01*
X5204460Y279450D01*
X5213858Y258317D01*
X5224983Y238099D01*
X5237784Y218846D01*
X5252161Y200710D01*
X5267960Y183896D01*
X5285130Y168402D01*
X5303520Y154432D01*
X5323027Y142087D01*
X5343499Y131368D01*
X5364835Y122428D01*
X5386781Y115265D01*
X5409285Y109982D01*
X5432145Y106629D01*
G37*
G36*
X368300Y105613D02*
G01*
X368300Y368300D01*
X105410Y368300D01*
X107289Y346405D01*
X111150Y323646D01*
X116890Y301244D01*
X124460Y279450D01*
X133858Y258317D01*
X144983Y238099D01*
X157784Y218846D01*
X172161Y200710D01*
X187960Y183896D01*
X205130Y168402D01*
X223520Y154432D01*
X243027Y142087D01*
X263499Y131368D01*
X284835Y122428D01*
X306781Y115265D01*
X329285Y109982D01*
X352145Y106629D01*
G37*
G36*
X5473700Y393700D02*
G01*
X5736336Y393700D01*
X5735929Y404063D01*
X5733034Y427024D01*
X5728208Y449630D01*
X5721553Y471728D01*
X5713018Y493217D01*
X5702757Y513892D01*
X5690819Y533704D01*
X5677204Y552348D01*
X5662117Y569874D01*
X5645607Y586028D01*
X5627827Y600760D01*
X5608828Y613968D01*
X5588812Y625500D01*
X5567934Y635355D01*
X5546242Y643382D01*
X5523992Y649630D01*
X5501284Y653948D01*
X5478322Y656336D01*
X5473700Y656437D01*
G37*
G36*
X393700Y393700D02*
G01*
X656336Y393700D01*
X655929Y404063D01*
X653034Y427024D01*
X648208Y449630D01*
X641553Y471728D01*
X633018Y493217D01*
X622757Y513892D01*
X610819Y533704D01*
X597204Y552348D01*
X582117Y569874D01*
X565607Y586028D01*
X547827Y600760D01*
X528828Y613968D01*
X508812Y625500D01*
X487934Y635355D01*
X466242Y643382D01*
X443992Y649630D01*
X421284Y653948D01*
X398322Y656336D01*
X393700Y656437D01*
G37*
G36*
X5185410Y393700D02*
G01*
X5448300Y393700D01*
X5448300Y656386D01*
X5432145Y655370D01*
X5409285Y652018D01*
X5386781Y646734D01*
X5364835Y639572D01*
X5343499Y630631D01*
X5323027Y619912D01*
X5303520Y607568D01*
X5285130Y593598D01*
X5267960Y578104D01*
X5252161Y561289D01*
X5237784Y543153D01*
X5224983Y523900D01*
X5213858Y503682D01*
X5204460Y482549D01*
X5196890Y460756D01*
X5191150Y438353D01*
X5187289Y415594D01*
G37*
G36*
X105410Y393700D02*
G01*
X368300Y393700D01*
X368300Y656386D01*
X352145Y655370D01*
X329285Y652018D01*
X306781Y646734D01*
X284835Y639572D01*
X263499Y630631D01*
X243027Y619912D01*
X223520Y607568D01*
X205130Y593598D01*
X187960Y578104D01*
X172161Y561289D01*
X157784Y543153D01*
X144983Y523900D01*
X133858Y503682D01*
X124460Y482549D01*
X116890Y460756D01*
X111150Y438353D01*
X107289Y415594D01*
G37*
G36*
X3810000Y451662D02*
G01*
X3819804Y452526D01*
X3829253Y455066D01*
X3838194Y459181D01*
X3846220Y464820D01*
X3853179Y471779D01*
X3858818Y479806D01*
X3862933Y488746D01*
X3865473Y498195D01*
X3866337Y508000D01*
X3865473Y517804D01*
X3862933Y527253D01*
X3858818Y536194D01*
X3853179Y544220D01*
X3851605Y545795D01*
X3849370Y549097D01*
X3848608Y553008D01*
X3848608Y762000D01*
X3849319Y765810D01*
X3851452Y769061D01*
X3854602Y771296D01*
X3868521Y777544D01*
X3881526Y785418D01*
X3893464Y794766D01*
X3904234Y805535D01*
X3913581Y817473D01*
X3921455Y830478D01*
X3927703Y844346D01*
X3932224Y858875D01*
X3934968Y873810D01*
X3935882Y889000D01*
X3934968Y904189D01*
X3932224Y919124D01*
X3927703Y933653D01*
X3921455Y947521D01*
X3913581Y960526D01*
X3904234Y972464D01*
X3893464Y983234D01*
X3881526Y992581D01*
X3868521Y1000455D01*
X3854653Y1006703D01*
X3840124Y1011224D01*
X3825189Y1013968D01*
X3810000Y1014882D01*
X3794810Y1013968D01*
X3779875Y1011224D01*
X3765346Y1006703D01*
X3751478Y1000455D01*
X3738473Y992581D01*
X3726535Y983234D01*
X3715765Y972464D01*
X3706418Y960526D01*
X3698544Y947521D01*
X3692245Y933602D01*
X3690061Y930402D01*
X3686810Y928319D01*
X3683000Y927608D01*
X3679190Y928319D01*
X3675938Y930402D01*
X3673754Y933602D01*
X3667455Y947521D01*
X3659581Y960526D01*
X3650234Y972464D01*
X3639464Y983234D01*
X3627526Y992581D01*
X3614521Y1000455D01*
X3600653Y1006703D01*
X3586124Y1011224D01*
X3571189Y1013968D01*
X3568700Y1014120D01*
X3568700Y901700D01*
X3674110Y901700D01*
X3677970Y900937D01*
X3681272Y898702D01*
X3683457Y895451D01*
X3684270Y891540D01*
X3684270Y886460D01*
X3683457Y882548D01*
X3681272Y879297D01*
X3677970Y877062D01*
X3674110Y876300D01*
X3568700Y876300D01*
X3568700Y763879D01*
X3571189Y764032D01*
X3586124Y766775D01*
X3600653Y771296D01*
X3614521Y777544D01*
X3627526Y785418D01*
X3639464Y794766D01*
X3650234Y805535D01*
X3659581Y817473D01*
X3667455Y830478D01*
X3673754Y844397D01*
X3675938Y847598D01*
X3679190Y849680D01*
X3683000Y850392D01*
X3686810Y849680D01*
X3690061Y847598D01*
X3692245Y844397D01*
X3698544Y830478D01*
X3706418Y817473D01*
X3715765Y805535D01*
X3726535Y794766D01*
X3738473Y785418D01*
X3751478Y777544D01*
X3765397Y771296D01*
X3768547Y769061D01*
X3770680Y765810D01*
X3771392Y762000D01*
X3771392Y553008D01*
X3770629Y549097D01*
X3768394Y545795D01*
X3766820Y544220D01*
X3761181Y536194D01*
X3757066Y527253D01*
X3754526Y517804D01*
X3753662Y508000D01*
X3754526Y498195D01*
X3757066Y488746D01*
X3761181Y479806D01*
X3766820Y471779D01*
X3773779Y464820D01*
X3781806Y459181D01*
X3790746Y455066D01*
X3800195Y452526D01*
G37*
G36*
X1270000Y451662D02*
G01*
X1279804Y452526D01*
X1289253Y455066D01*
X1298194Y459181D01*
X1306220Y464820D01*
X1313180Y471779D01*
X1318818Y479806D01*
X1322933Y488746D01*
X1325473Y498195D01*
X1326337Y508000D01*
X1325473Y517804D01*
X1322933Y527253D01*
X1318818Y536194D01*
X1313180Y544220D01*
X1311605Y545795D01*
X1309370Y549097D01*
X1308608Y553008D01*
X1308608Y2588717D01*
X1309471Y2592832D01*
X1311960Y2596235D01*
X1315567Y2598369D01*
X1319784Y2598826D01*
X1324406Y2598369D01*
X1332077Y2599131D01*
X1339443Y2601366D01*
X1344574Y2604109D01*
X1347724Y2605176D01*
X1351026Y2605176D01*
X1354175Y2604109D01*
X1359306Y2601315D01*
X1366723Y2599080D01*
X1374394Y2598318D01*
X1382064Y2599080D01*
X1389430Y2601315D01*
X1394612Y2604109D01*
X1397762Y2605176D01*
X1401064Y2605176D01*
X1404213Y2604109D01*
X1409344Y2601366D01*
X1416710Y2599131D01*
X1424381Y2598369D01*
X1432102Y2599131D01*
X1439468Y2601366D01*
X1444599Y2604109D01*
X1447749Y2605176D01*
X1451051Y2605176D01*
X1454150Y2604109D01*
X1459331Y2601315D01*
X1466697Y2599080D01*
X1474368Y2598318D01*
X1482090Y2599080D01*
X1489456Y2601315D01*
X1494637Y2604109D01*
X1497736Y2605176D01*
X1501038Y2605176D01*
X1504188Y2604109D01*
X1509318Y2601366D01*
X1516735Y2599131D01*
X1524406Y2598369D01*
X1532077Y2599131D01*
X1539443Y2601366D01*
X1544574Y2604109D01*
X1547723Y2605176D01*
X1551025Y2605176D01*
X1554175Y2604109D01*
X1559306Y2601315D01*
X1566722Y2599080D01*
X1574393Y2598318D01*
X1582064Y2599080D01*
X1589430Y2601315D01*
X1594612Y2604109D01*
X1597761Y2605176D01*
X1601063Y2605176D01*
X1604213Y2604109D01*
X1609344Y2601366D01*
X1616710Y2599131D01*
X1624380Y2598369D01*
X1632102Y2599131D01*
X1639468Y2601366D01*
X1644599Y2604109D01*
X1647748Y2605176D01*
X1651050Y2605176D01*
X1654149Y2604109D01*
X1659331Y2601315D01*
X1666697Y2599080D01*
X1674368Y2598318D01*
X1682089Y2599080D01*
X1689455Y2601315D01*
X1694637Y2604109D01*
X1697736Y2605176D01*
X1701038Y2605176D01*
X1704187Y2604109D01*
X1709318Y2601366D01*
X1716735Y2599131D01*
X1724406Y2598369D01*
X1732076Y2599131D01*
X1739442Y2601366D01*
X1744573Y2604109D01*
X1747723Y2605176D01*
X1751025Y2605176D01*
X1754174Y2604109D01*
X1759305Y2601315D01*
X1766722Y2599080D01*
X1774393Y2598318D01*
X1782064Y2599080D01*
X1789430Y2601315D01*
X1794611Y2604109D01*
X1797761Y2605176D01*
X1801063Y2605176D01*
X1804212Y2604109D01*
X1809343Y2601366D01*
X1811680Y2600655D01*
X1811680Y2624277D01*
X1813001Y2630017D01*
X1813814Y2638196D01*
X1813814Y2760218D01*
X1813001Y2768396D01*
X1811680Y2774137D01*
X1811680Y2797810D01*
X1809343Y2797098D01*
X1804162Y2794304D01*
X1801012Y2793238D01*
X1797710Y2793238D01*
X1794611Y2794304D01*
X1789430Y2797048D01*
X1782064Y2799283D01*
X1774393Y2800045D01*
X1766722Y2799283D01*
X1759305Y2797048D01*
X1754174Y2794304D01*
X1751075Y2793238D01*
X1747774Y2793238D01*
X1744624Y2794304D01*
X1739442Y2797098D01*
X1732076Y2799334D01*
X1719986Y2800502D01*
X1716328Y2802636D01*
X1713890Y2806039D01*
X1713026Y2810154D01*
X1713026Y2819450D01*
X1712214Y2827477D01*
X1710029Y2834690D01*
X1706473Y2841345D01*
X1701342Y2847594D01*
X1665935Y2883001D01*
X1663700Y2886303D01*
X1662938Y2890215D01*
X1662938Y3211423D01*
X1662430Y3217926D01*
X1660448Y3225342D01*
X1657146Y3232099D01*
X1652219Y3238500D01*
X1617116Y3276193D01*
X1610969Y3281222D01*
X1604264Y3284778D01*
X1597050Y3286963D01*
X1589024Y3287776D01*
X1235354Y3287776D01*
X1231239Y3288639D01*
X1227836Y3291128D01*
X1225702Y3294735D01*
X1224534Y3306876D01*
X1222298Y3314293D01*
X1219555Y3319424D01*
X1218488Y3322523D01*
X1218488Y3325876D01*
X1219555Y3328974D01*
X1222298Y3334105D01*
X1224534Y3341522D01*
X1225296Y3349193D01*
X1224534Y3356864D01*
X1222298Y3364229D01*
X1219504Y3369411D01*
X1218438Y3372561D01*
X1218438Y3375863D01*
X1219504Y3379012D01*
X1222298Y3384143D01*
X1224534Y3391509D01*
X1225296Y3399231D01*
X1224534Y3406901D01*
X1222298Y3414268D01*
X1218641Y3421075D01*
X1213764Y3427018D01*
X1207770Y3431946D01*
X1200962Y3435553D01*
X1193596Y3437788D01*
X1185418Y3438601D01*
X1069238Y3438601D01*
X1065530Y3439312D01*
X1062380Y3441293D01*
X1060094Y3444290D01*
X1059129Y3447897D01*
X1058773Y3451504D01*
X1056233Y3460953D01*
X1052118Y3469894D01*
X1046480Y3477920D01*
X1039520Y3484879D01*
X1031494Y3490518D01*
X1022553Y3494633D01*
X1013104Y3497173D01*
X1003300Y3498037D01*
X993495Y3497173D01*
X984046Y3494633D01*
X975106Y3490518D01*
X967079Y3484879D01*
X960119Y3477920D01*
X954481Y3469894D01*
X950366Y3460953D01*
X947826Y3451504D01*
X946962Y3441700D01*
X947826Y3431895D01*
X950366Y3422446D01*
X954481Y3413506D01*
X960119Y3405479D01*
X967536Y3398062D01*
X969721Y3394811D01*
X970483Y3390900D01*
X969721Y3386988D01*
X967536Y3383737D01*
X960119Y3376320D01*
X954481Y3368294D01*
X950366Y3359353D01*
X949401Y3355848D01*
X947470Y3352088D01*
X944219Y3349447D01*
X940104Y3348329D01*
X935939Y3348990D01*
X932383Y3351276D01*
X903935Y3379724D01*
X897737Y3384854D01*
X891032Y3388410D01*
X883818Y3390595D01*
X881329Y3390849D01*
X877976Y3391763D01*
X875182Y3393744D01*
X873150Y3396538D01*
X872185Y3399840D01*
X871778Y3403549D01*
X869899Y3409035D01*
X866800Y3413912D01*
X865225Y3415487D01*
X863041Y3418738D01*
X862279Y3422650D01*
X863041Y3426561D01*
X865225Y3429812D01*
X866800Y3431387D01*
X869899Y3436264D01*
X871778Y3441750D01*
X872490Y3448050D01*
X872490Y3536950D01*
X871778Y3543249D01*
X869899Y3548735D01*
X866800Y3553561D01*
X865378Y3557473D01*
X865632Y3561587D01*
X868273Y3571595D01*
X869137Y3581400D01*
X868273Y3591204D01*
X865733Y3600653D01*
X861618Y3609594D01*
X855980Y3617620D01*
X849020Y3624579D01*
X840994Y3630218D01*
X832053Y3634333D01*
X822604Y3636873D01*
X812800Y3637737D01*
X802995Y3636873D01*
X793546Y3634333D01*
X784606Y3630218D01*
X776579Y3624579D01*
X769620Y3617620D01*
X763981Y3609594D01*
X759866Y3600653D01*
X757326Y3591204D01*
X756462Y3581400D01*
X757783Y3566363D01*
X756208Y3562400D01*
X753160Y3559403D01*
X750468Y3557727D01*
X746404Y3553612D01*
X745185Y3551732D01*
X742391Y3548786D01*
X738632Y3547160D01*
X734568Y3547160D01*
X730808Y3548786D01*
X728014Y3551732D01*
X726795Y3553612D01*
X722731Y3557727D01*
X717804Y3560775D01*
X712368Y3562705D01*
X706018Y3563416D01*
X679297Y3563416D01*
X679297Y3505200D01*
X730504Y3505200D01*
X734415Y3504437D01*
X737717Y3502202D01*
X739902Y3498951D01*
X740664Y3495040D01*
X740664Y3489960D01*
X739902Y3486048D01*
X737717Y3482797D01*
X734415Y3480562D01*
X730504Y3479800D01*
X679297Y3479800D01*
X679297Y3365500D01*
X730504Y3365500D01*
X734415Y3364737D01*
X737717Y3362502D01*
X739902Y3359251D01*
X740664Y3355340D01*
X740664Y3350260D01*
X739902Y3346348D01*
X737717Y3343097D01*
X734415Y3340862D01*
X730504Y3340100D01*
X679297Y3340100D01*
X679297Y3281883D01*
X706018Y3281883D01*
X712368Y3282594D01*
X717804Y3284524D01*
X722731Y3287572D01*
X726795Y3291687D01*
X728014Y3293567D01*
X730808Y3296513D01*
X734568Y3298139D01*
X738632Y3298139D01*
X742391Y3296513D01*
X745185Y3293567D01*
X746404Y3291687D01*
X750468Y3287572D01*
X755396Y3284524D01*
X760831Y3282594D01*
X767181Y3281883D01*
X846023Y3281883D01*
X852322Y3282594D01*
X857808Y3284524D01*
X862685Y3287572D01*
X867613Y3292500D01*
X870915Y3294735D01*
X874776Y3295497D01*
X878687Y3294735D01*
X881989Y3292500D01*
X952296Y3222244D01*
X958494Y3217113D01*
X965200Y3213557D01*
X972413Y3211372D01*
X980440Y3210560D01*
X1054963Y3210560D01*
X1063396Y3209798D01*
X1185418Y3209798D01*
X1193850Y3210560D01*
X1568297Y3210560D01*
X1572361Y3209696D01*
X1575765Y3207308D01*
X1582978Y3199536D01*
X1585010Y3196336D01*
X1585722Y3192627D01*
X1585722Y2888894D01*
X1584960Y2884982D01*
X1582724Y2881680D01*
X1548079Y2847035D01*
X1543151Y2841040D01*
X1539544Y2834386D01*
X1537309Y2827172D01*
X1536446Y2819146D01*
X1536395Y2810052D01*
X1535480Y2805938D01*
X1533042Y2802534D01*
X1529384Y2800451D01*
X1516735Y2799334D01*
X1509318Y2797098D01*
X1504188Y2794304D01*
X1501038Y2793238D01*
X1497736Y2793238D01*
X1494586Y2794304D01*
X1489456Y2797048D01*
X1482090Y2799283D01*
X1474368Y2800045D01*
X1466697Y2799283D01*
X1459331Y2797048D01*
X1454200Y2794304D01*
X1451051Y2793238D01*
X1447749Y2793238D01*
X1444599Y2794304D01*
X1439468Y2797098D01*
X1432102Y2799334D01*
X1424381Y2800096D01*
X1416710Y2799334D01*
X1409344Y2797098D01*
X1404162Y2794304D01*
X1401013Y2793238D01*
X1397711Y2793238D01*
X1394612Y2794304D01*
X1389430Y2797048D01*
X1382064Y2799283D01*
X1376375Y2799842D01*
X1372362Y2801112D01*
X1369212Y2803906D01*
X1367434Y2807716D01*
X1367383Y2811932D01*
X1373733Y2825546D01*
X1376273Y2834995D01*
X1377137Y2844800D01*
X1376273Y2854604D01*
X1373835Y2863697D01*
X1373632Y2867761D01*
X1375003Y2871622D01*
X1377848Y2874619D01*
X1382420Y2877820D01*
X1389380Y2884779D01*
X1392580Y2889351D01*
X1395577Y2892196D01*
X1399438Y2893568D01*
X1403502Y2893364D01*
X1412595Y2890926D01*
X1422400Y2890062D01*
X1432204Y2890926D01*
X1441653Y2893466D01*
X1450594Y2897581D01*
X1458620Y2903220D01*
X1465580Y2910179D01*
X1471218Y2918206D01*
X1475333Y2927146D01*
X1477873Y2936595D01*
X1478737Y2946400D01*
X1477873Y2956204D01*
X1475435Y2965297D01*
X1475232Y2969361D01*
X1476603Y2973222D01*
X1479448Y2976219D01*
X1484020Y2979420D01*
X1490980Y2986379D01*
X1496618Y2994406D01*
X1500733Y3003346D01*
X1503273Y3012795D01*
X1504137Y3022600D01*
X1503273Y3032404D01*
X1500733Y3041853D01*
X1496618Y3050794D01*
X1490980Y3058820D01*
X1484020Y3065780D01*
X1475994Y3071418D01*
X1467053Y3075533D01*
X1457604Y3078073D01*
X1448308Y3078886D01*
X1445310Y3079597D01*
X1435963Y3084830D01*
X1428750Y3087014D01*
X1420723Y3087776D01*
X1235354Y3087776D01*
X1231239Y3088690D01*
X1227836Y3091129D01*
X1225702Y3094786D01*
X1224534Y3106877D01*
X1222298Y3114294D01*
X1219555Y3119424D01*
X1218488Y3122523D01*
X1218488Y3125876D01*
X1219555Y3128975D01*
X1222298Y3134106D01*
X1224534Y3141522D01*
X1225296Y3149193D01*
X1224534Y3156864D01*
X1222298Y3164230D01*
X1219504Y3169412D01*
X1218438Y3172561D01*
X1218438Y3175863D01*
X1219504Y3179013D01*
X1222298Y3184144D01*
X1223010Y3186531D01*
X1199286Y3186531D01*
X1193596Y3187801D01*
X1185418Y3188614D01*
X1063396Y3188614D01*
X1054862Y3187801D01*
X914501Y3187801D01*
X906475Y3186988D01*
X899261Y3184804D01*
X892556Y3181248D01*
X886358Y3176117D01*
X841654Y3131464D01*
X838352Y3129280D01*
X834491Y3128467D01*
X827684Y3128467D01*
X824026Y3129178D01*
X820826Y3131108D01*
X818591Y3134106D01*
X817575Y3137662D01*
X816762Y3145739D01*
X814882Y3151124D01*
X811784Y3156000D01*
X807720Y3160115D01*
X802792Y3163163D01*
X797356Y3165094D01*
X791006Y3165805D01*
X682193Y3165805D01*
X675843Y3165094D01*
X670407Y3163163D01*
X665276Y3159963D01*
X661720Y3158591D01*
X657961Y3158591D01*
X654456Y3159963D01*
X651662Y3162503D01*
X650036Y3165906D01*
X649884Y3184398D01*
X607466Y3184398D01*
X607466Y3164789D01*
X606653Y3160877D01*
X604469Y3157575D01*
X601167Y3155391D01*
X597306Y3154629D01*
X592226Y3154629D01*
X588314Y3155391D01*
X585012Y3157575D01*
X582828Y3160877D01*
X582066Y3164789D01*
X582066Y3184398D01*
X569468Y3184398D01*
X565556Y3185160D01*
X562305Y3187395D01*
X560070Y3190697D01*
X559308Y3194558D01*
X559308Y3199638D01*
X560070Y3203549D01*
X562305Y3206800D01*
X565556Y3209036D01*
X569468Y3209798D01*
X582066Y3209798D01*
X582066Y3249625D01*
X569468Y3249625D01*
X565556Y3250387D01*
X562305Y3252571D01*
X560070Y3255873D01*
X559308Y3259785D01*
X559308Y3285388D01*
X559714Y3288182D01*
X560882Y3290773D01*
X563575Y3295091D01*
X565505Y3300577D01*
X566216Y3306876D01*
X566216Y3385718D01*
X565505Y3392068D01*
X563575Y3397504D01*
X560527Y3402431D01*
X556412Y3406495D01*
X554532Y3407714D01*
X551586Y3410508D01*
X549960Y3414268D01*
X549960Y3418332D01*
X551586Y3422091D01*
X554532Y3424885D01*
X556412Y3426104D01*
X560527Y3430168D01*
X563575Y3435096D01*
X565505Y3440531D01*
X566216Y3446881D01*
X566216Y3473602D01*
X508000Y3473602D01*
X508000Y3422396D01*
X507238Y3418484D01*
X505002Y3415182D01*
X501751Y3412998D01*
X497840Y3412236D01*
X492759Y3412236D01*
X488848Y3412998D01*
X485597Y3415182D01*
X483362Y3418484D01*
X482600Y3422396D01*
X482600Y3473602D01*
X424383Y3473602D01*
X424383Y3446881D01*
X425094Y3440531D01*
X427024Y3435096D01*
X430072Y3430168D01*
X434187Y3426104D01*
X436067Y3424885D01*
X439013Y3422091D01*
X440639Y3418332D01*
X440639Y3414268D01*
X439013Y3410508D01*
X436067Y3407714D01*
X434187Y3406495D01*
X430072Y3402431D01*
X427024Y3397504D01*
X425094Y3392068D01*
X424383Y3385718D01*
X424383Y3306876D01*
X425094Y3300577D01*
X427024Y3295091D01*
X430072Y3290214D01*
X434187Y3286099D01*
X439064Y3283000D01*
X444550Y3281121D01*
X450850Y3280410D01*
X471932Y3280410D01*
X475843Y3279648D01*
X479094Y3277412D01*
X481330Y3274110D01*
X482092Y3270250D01*
X482092Y3252571D01*
X481177Y3248355D01*
X478637Y3244900D01*
X474878Y3242818D01*
X470560Y3242513D01*
X466547Y3243935D01*
X461721Y3246983D01*
X456234Y3248914D01*
X449935Y3249625D01*
X392582Y3249625D01*
X386232Y3248914D01*
X380796Y3246983D01*
X375970Y3243935D01*
X370789Y3238652D01*
X367893Y3236569D01*
X364490Y3235604D01*
X357479Y3234893D01*
X350266Y3232708D01*
X343560Y3229152D01*
X337362Y3224022D01*
X315976Y3202635D01*
X310845Y3196437D01*
X307289Y3189732D01*
X305104Y3182518D01*
X304292Y3174492D01*
X304292Y3002686D01*
X303733Y2999333D01*
X302006Y2994456D01*
X301294Y2988106D01*
X301294Y2879293D01*
X302006Y2872943D01*
X303936Y2867507D01*
X306984Y2862580D01*
X311099Y2858516D01*
X315976Y2855417D01*
X321360Y2853537D01*
X329438Y2852724D01*
X332994Y2851708D01*
X335991Y2849473D01*
X337921Y2846273D01*
X338632Y2842615D01*
X338632Y2831439D01*
X338023Y2828086D01*
X336397Y2825089D01*
X333857Y2822854D01*
X331114Y2821127D01*
X326999Y2817012D01*
X323900Y2812135D01*
X322021Y2806649D01*
X321310Y2800350D01*
X321310Y2711450D01*
X322021Y2705150D01*
X323900Y2699664D01*
X326999Y2694787D01*
X331114Y2690672D01*
X335991Y2687624D01*
X341477Y2685694D01*
X347776Y2684983D01*
X426618Y2684983D01*
X432968Y2685694D01*
X438404Y2687624D01*
X443331Y2690672D01*
X447395Y2694787D01*
X448614Y2696667D01*
X451408Y2699613D01*
X455168Y2701239D01*
X459232Y2701239D01*
X462991Y2699613D01*
X465785Y2696667D01*
X467004Y2694787D01*
X471068Y2690672D01*
X475996Y2687624D01*
X481431Y2685694D01*
X487781Y2684983D01*
X514502Y2684983D01*
X514502Y2743200D01*
X463296Y2743200D01*
X459384Y2743962D01*
X456082Y2746197D01*
X453898Y2749448D01*
X453135Y2753360D01*
X453135Y2758440D01*
X453898Y2762351D01*
X456082Y2765602D01*
X459384Y2767838D01*
X463296Y2768600D01*
X514502Y2768600D01*
X514502Y2826816D01*
X487781Y2826816D01*
X481431Y2826105D01*
X475996Y2824175D01*
X471068Y2821127D01*
X467004Y2817012D01*
X465785Y2815132D01*
X462991Y2812186D01*
X459232Y2810560D01*
X455168Y2810560D01*
X451408Y2812186D01*
X448614Y2815132D01*
X447395Y2817012D01*
X443331Y2821127D01*
X438404Y2824175D01*
X433019Y2826054D01*
X424992Y2826867D01*
X421436Y2827883D01*
X418439Y2830118D01*
X416509Y2833319D01*
X415848Y2836976D01*
X415848Y2842615D01*
X416509Y2846273D01*
X418439Y2849473D01*
X421436Y2851708D01*
X424992Y2852724D01*
X433019Y2853537D01*
X438404Y2855417D01*
X443331Y2858516D01*
X447395Y2862580D01*
X448614Y2864459D01*
X451408Y2867406D01*
X455168Y2869031D01*
X459232Y2869031D01*
X462991Y2867406D01*
X465785Y2864459D01*
X467004Y2862580D01*
X471068Y2858516D01*
X475996Y2855417D01*
X481431Y2853486D01*
X487781Y2852775D01*
X586638Y2852775D01*
X592937Y2853486D01*
X598424Y2855417D01*
X603300Y2858516D01*
X607415Y2862580D01*
X610463Y2867507D01*
X612394Y2872943D01*
X613105Y2879293D01*
X613105Y2881122D01*
X613867Y2885033D01*
X616102Y2888284D01*
X619353Y2890520D01*
X623265Y2891282D01*
X645515Y2891282D01*
X649173Y2890621D01*
X652373Y2888640D01*
X654608Y2885694D01*
X655624Y2882087D01*
X656437Y2874060D01*
X658317Y2868676D01*
X661416Y2863799D01*
X665480Y2859684D01*
X670407Y2856636D01*
X675843Y2854706D01*
X682193Y2853994D01*
X791006Y2853994D01*
X797356Y2854706D01*
X802792Y2856636D01*
X807720Y2859684D01*
X811784Y2863799D01*
X814882Y2868676D01*
X816813Y2874162D01*
X817524Y2880461D01*
X817524Y2930398D01*
X818286Y2934309D01*
X820470Y2937560D01*
X940511Y3057601D01*
X943813Y3059836D01*
X947724Y3060598D01*
X1013460Y3060598D01*
X1017574Y3059734D01*
X1020978Y3057245D01*
X1023112Y3053638D01*
X1024331Y3041497D01*
X1026566Y3034131D01*
X1029309Y3029000D01*
X1030376Y3025851D01*
X1030376Y3022549D01*
X1029309Y3019399D01*
X1026566Y3014268D01*
X1024331Y3006902D01*
X1023569Y2999232D01*
X1024331Y2991510D01*
X1026566Y2984144D01*
X1029309Y2979013D01*
X1030376Y2975864D01*
X1030376Y2972562D01*
X1029309Y2969412D01*
X1026566Y2964230D01*
X1024331Y2956864D01*
X1023569Y2949194D01*
X1024331Y2941523D01*
X1026566Y2934106D01*
X1029309Y2928975D01*
X1030376Y2925876D01*
X1030376Y2922524D01*
X1029309Y2919425D01*
X1026566Y2914294D01*
X1024331Y2906877D01*
X1023569Y2899206D01*
X1023975Y2894939D01*
X1023569Y2890977D01*
X1021740Y2887522D01*
X1018641Y2884982D01*
X1011682Y2881274D01*
X1005433Y2876143D01*
X976376Y2847035D01*
X971245Y2840837D01*
X967689Y2834132D01*
X965504Y2826918D01*
X964692Y2818892D01*
X964692Y934008D01*
X963930Y930097D01*
X961694Y926795D01*
X960119Y925220D01*
X954481Y917194D01*
X950366Y908253D01*
X947826Y898804D01*
X946962Y889000D01*
X947826Y879195D01*
X950366Y869746D01*
X954481Y860806D01*
X960119Y852779D01*
X967079Y845819D01*
X975106Y840181D01*
X984046Y836066D01*
X993495Y833526D01*
X1003300Y832662D01*
X1013104Y833526D01*
X1022553Y836066D01*
X1031494Y840181D01*
X1039520Y845819D01*
X1046480Y852779D01*
X1052118Y860806D01*
X1056233Y869746D01*
X1058773Y879195D01*
X1059637Y889000D01*
X1058773Y898804D01*
X1056233Y908253D01*
X1052118Y917194D01*
X1046480Y925220D01*
X1044905Y926795D01*
X1042669Y930097D01*
X1041908Y934008D01*
X1041908Y2799181D01*
X1042669Y2803093D01*
X1044905Y2806395D01*
X1046124Y2807614D01*
X1049782Y2809951D01*
X1054150Y2810560D01*
X1063345Y2809798D01*
X1185418Y2809798D01*
X1193596Y2810611D01*
X1200962Y2812846D01*
X1207770Y2816453D01*
X1213764Y2821381D01*
X1218641Y2827324D01*
X1222298Y2834132D01*
X1224534Y2841498D01*
X1225702Y2853639D01*
X1227836Y2857246D01*
X1231239Y2859735D01*
X1235354Y2860598D01*
X1246174Y2860598D01*
X1250086Y2859836D01*
X1253388Y2857601D01*
X1261668Y2849321D01*
X1263700Y2846425D01*
X1264615Y2843022D01*
X1265326Y2834995D01*
X1267866Y2825546D01*
X1271981Y2816606D01*
X1273048Y2815132D01*
X1274622Y2811678D01*
X1274775Y2807868D01*
X1273505Y2804261D01*
X1271016Y2801366D01*
X1267663Y2799588D01*
X1259332Y2797048D01*
X1252524Y2793441D01*
X1246530Y2788513D01*
X1241653Y2782570D01*
X1238046Y2775762D01*
X1235760Y2768396D01*
X1234998Y2760218D01*
X1234998Y2713075D01*
X1234541Y2710129D01*
X1232204Y2702356D01*
X1231392Y2694330D01*
X1231392Y553008D01*
X1230630Y549097D01*
X1228394Y545795D01*
X1226820Y544220D01*
X1221181Y536194D01*
X1217066Y527253D01*
X1214526Y517804D01*
X1213662Y508000D01*
X1214526Y498195D01*
X1217066Y488746D01*
X1221181Y479806D01*
X1226820Y471779D01*
X1233779Y464820D01*
X1241806Y459181D01*
X1250746Y455066D01*
X1260195Y452526D01*
G37*
G36*
X1660398Y558139D02*
G01*
X1674215Y559003D01*
X1687779Y561746D01*
X1700936Y566166D01*
X1713331Y572312D01*
X1724863Y579983D01*
X1735277Y589127D01*
X1744421Y599541D01*
X1752092Y611073D01*
X1758238Y623468D01*
X1762658Y636625D01*
X1765401Y650189D01*
X1766265Y664006D01*
X1765401Y677824D01*
X1762658Y691388D01*
X1758238Y704545D01*
X1752092Y716940D01*
X1744421Y728472D01*
X1735277Y738886D01*
X1724863Y748030D01*
X1713331Y755700D01*
X1700936Y761847D01*
X1687779Y766267D01*
X1674215Y769010D01*
X1660398Y769874D01*
X1646580Y769010D01*
X1633016Y766267D01*
X1619859Y761847D01*
X1607464Y755700D01*
X1595932Y748030D01*
X1585518Y738886D01*
X1576374Y728472D01*
X1568704Y716940D01*
X1562557Y704545D01*
X1558137Y691388D01*
X1555394Y677824D01*
X1554530Y664006D01*
X1555394Y650189D01*
X1558137Y636625D01*
X1562557Y623468D01*
X1568704Y611073D01*
X1576374Y599541D01*
X1585518Y589127D01*
X1595932Y579983D01*
X1607464Y572312D01*
X1619859Y566166D01*
X1633016Y561746D01*
X1646580Y559003D01*
G37*
G36*
X4176420Y558139D02*
G01*
X4190237Y559003D01*
X4203801Y561746D01*
X4216908Y566166D01*
X4229354Y572312D01*
X4240834Y579983D01*
X4251248Y589127D01*
X4260392Y599541D01*
X4268114Y611073D01*
X4274210Y623468D01*
X4278680Y636625D01*
X4281373Y650189D01*
X4282287Y664006D01*
X4281373Y677824D01*
X4278680Y691388D01*
X4274210Y704545D01*
X4268114Y716940D01*
X4260392Y728472D01*
X4251248Y738886D01*
X4240834Y748030D01*
X4229354Y755700D01*
X4216908Y761847D01*
X4203801Y766267D01*
X4190237Y769010D01*
X4176420Y769874D01*
X4162551Y769010D01*
X4148988Y766267D01*
X4135882Y761847D01*
X4123436Y755700D01*
X4111955Y748030D01*
X4101541Y738886D01*
X4092397Y728472D01*
X4084675Y716940D01*
X4078579Y704545D01*
X4074109Y691388D01*
X4071416Y677824D01*
X4070502Y664006D01*
X4071416Y650189D01*
X4074109Y636625D01*
X4078579Y623468D01*
X4084675Y611073D01*
X4092397Y599541D01*
X4101541Y589127D01*
X4111955Y579983D01*
X4123436Y572312D01*
X4135882Y566166D01*
X4148988Y561746D01*
X4162551Y559003D01*
G37*
G36*
X2032000Y763117D02*
G01*
X2047189Y764032D01*
X2062124Y766775D01*
X2076653Y771296D01*
X2090521Y777544D01*
X2103526Y785418D01*
X2115464Y794766D01*
X2126234Y805535D01*
X2135581Y817473D01*
X2143455Y830478D01*
X2149754Y844397D01*
X2151938Y847598D01*
X2155190Y849680D01*
X2159000Y850392D01*
X2162810Y849680D01*
X2166061Y847598D01*
X2168245Y844397D01*
X2174544Y830478D01*
X2182418Y817473D01*
X2191766Y805535D01*
X2202535Y794766D01*
X2214473Y785418D01*
X2227478Y777544D01*
X2241346Y771296D01*
X2255875Y766775D01*
X2270810Y764032D01*
X2273300Y763879D01*
X2273300Y876300D01*
X2167890Y876300D01*
X2164029Y877062D01*
X2160727Y879297D01*
X2158542Y882548D01*
X2157730Y886460D01*
X2157730Y891540D01*
X2158542Y895451D01*
X2160727Y898702D01*
X2164029Y900937D01*
X2167890Y901700D01*
X2273300Y901700D01*
X2273300Y1014120D01*
X2270810Y1013968D01*
X2255875Y1011224D01*
X2241346Y1006703D01*
X2227478Y1000455D01*
X2214473Y992581D01*
X2202535Y983234D01*
X2191766Y972464D01*
X2182418Y960526D01*
X2174544Y947521D01*
X2168245Y933602D01*
X2166061Y930402D01*
X2162810Y928319D01*
X2159000Y927608D01*
X2155190Y928319D01*
X2151938Y930402D01*
X2149754Y933602D01*
X2143455Y947521D01*
X2135581Y960526D01*
X2126234Y972464D01*
X2115464Y983234D01*
X2103526Y992581D01*
X2090521Y1000455D01*
X2076653Y1006703D01*
X2062124Y1011224D01*
X2047189Y1013968D01*
X2032000Y1014882D01*
X2016810Y1013968D01*
X2001875Y1011224D01*
X1987346Y1006703D01*
X1973478Y1000455D01*
X1960473Y992581D01*
X1948535Y983234D01*
X1937766Y972464D01*
X1928418Y960526D01*
X1920544Y947521D01*
X1914296Y933653D01*
X1909775Y919124D01*
X1907032Y904189D01*
X1906117Y889000D01*
X1907032Y873810D01*
X1909775Y858875D01*
X1914296Y844346D01*
X1920544Y830478D01*
X1928418Y817473D01*
X1937766Y805535D01*
X1948535Y794766D01*
X1960473Y785418D01*
X1973478Y777544D01*
X1987346Y771296D01*
X2001875Y766775D01*
X2016810Y764032D01*
G37*
G36*
X2540000Y763117D02*
G01*
X2555189Y764032D01*
X2570124Y766775D01*
X2584653Y771296D01*
X2598521Y777544D01*
X2611526Y785418D01*
X2623464Y794766D01*
X2634234Y805535D01*
X2643581Y817473D01*
X2651455Y830478D01*
X2657754Y844397D01*
X2659938Y847598D01*
X2663190Y849680D01*
X2667000Y850392D01*
X2670810Y849680D01*
X2674061Y847598D01*
X2676245Y844397D01*
X2682544Y830478D01*
X2690418Y817473D01*
X2699766Y805535D01*
X2710535Y794766D01*
X2722473Y785418D01*
X2735478Y777544D01*
X2749346Y771296D01*
X2763875Y766775D01*
X2778810Y764032D01*
X2794000Y763117D01*
X2809189Y764032D01*
X2824124Y766775D01*
X2838653Y771296D01*
X2852521Y777544D01*
X2865526Y785418D01*
X2877464Y794766D01*
X2888234Y805535D01*
X2897581Y817473D01*
X2905455Y830478D01*
X2911754Y844397D01*
X2913938Y847598D01*
X2917190Y849680D01*
X2921000Y850392D01*
X2924810Y849680D01*
X2928061Y847598D01*
X2930245Y844397D01*
X2936544Y830478D01*
X2944418Y817473D01*
X2953766Y805535D01*
X2964535Y794766D01*
X2976473Y785418D01*
X2989478Y777544D01*
X3003346Y771296D01*
X3017875Y766775D01*
X3032810Y764032D01*
X3048000Y763117D01*
X3063189Y764032D01*
X3078124Y766775D01*
X3092653Y771296D01*
X3106521Y777544D01*
X3119526Y785418D01*
X3131464Y794766D01*
X3142234Y805535D01*
X3151581Y817473D01*
X3159455Y830478D01*
X3165754Y844397D01*
X3167938Y847598D01*
X3171190Y849680D01*
X3175000Y850392D01*
X3178810Y849680D01*
X3182061Y847598D01*
X3184245Y844397D01*
X3190544Y830478D01*
X3198418Y817473D01*
X3207766Y805535D01*
X3218535Y794766D01*
X3230473Y785418D01*
X3243478Y777544D01*
X3257346Y771296D01*
X3271875Y766775D01*
X3286810Y764032D01*
X3302000Y763117D01*
X3317189Y764032D01*
X3332124Y766775D01*
X3346653Y771296D01*
X3360521Y777544D01*
X3373526Y785418D01*
X3385464Y794766D01*
X3396234Y805535D01*
X3405581Y817473D01*
X3413455Y830478D01*
X3419754Y844397D01*
X3421938Y847598D01*
X3425190Y849680D01*
X3429000Y850392D01*
X3432810Y849680D01*
X3436061Y847598D01*
X3438245Y844397D01*
X3444544Y830478D01*
X3452418Y817473D01*
X3461765Y805535D01*
X3472535Y794766D01*
X3484473Y785418D01*
X3497478Y777544D01*
X3511346Y771296D01*
X3525875Y766775D01*
X3540810Y764032D01*
X3543300Y763879D01*
X3543300Y876300D01*
X3437890Y876300D01*
X3434029Y877062D01*
X3430727Y879297D01*
X3428542Y882548D01*
X3427729Y886460D01*
X3427729Y891540D01*
X3428542Y895451D01*
X3430727Y898702D01*
X3434029Y900937D01*
X3437890Y901700D01*
X3543300Y901700D01*
X3543300Y1014120D01*
X3540810Y1013968D01*
X3525875Y1011224D01*
X3511346Y1006703D01*
X3497478Y1000455D01*
X3484473Y992581D01*
X3472535Y983234D01*
X3461765Y972464D01*
X3452418Y960526D01*
X3444544Y947521D01*
X3438245Y933602D01*
X3436061Y930402D01*
X3432810Y928319D01*
X3429000Y927608D01*
X3425190Y928319D01*
X3421938Y930402D01*
X3419754Y933602D01*
X3413455Y947521D01*
X3405581Y960526D01*
X3396234Y972464D01*
X3385464Y983234D01*
X3373526Y992581D01*
X3360521Y1000455D01*
X3346602Y1006703D01*
X3343452Y1008938D01*
X3341319Y1012190D01*
X3340608Y1016000D01*
X3340608Y1123391D01*
X3341370Y1127302D01*
X3343605Y1130604D01*
X3345179Y1132179D01*
X3350818Y1140206D01*
X3354933Y1149146D01*
X3357473Y1158595D01*
X3358337Y1168400D01*
X3357473Y1178204D01*
X3354933Y1187653D01*
X3350818Y1196594D01*
X3345179Y1204620D01*
X3338220Y1211580D01*
X3330194Y1217218D01*
X3321253Y1221333D01*
X3311804Y1223873D01*
X3302000Y1224737D01*
X3292195Y1223873D01*
X3282746Y1221333D01*
X3273806Y1217218D01*
X3265779Y1211580D01*
X3258820Y1204620D01*
X3253181Y1196594D01*
X3249066Y1187653D01*
X3246526Y1178204D01*
X3245662Y1168400D01*
X3246526Y1158595D01*
X3249066Y1149146D01*
X3253181Y1140206D01*
X3258820Y1132179D01*
X3260394Y1130604D01*
X3262629Y1127302D01*
X3263392Y1123391D01*
X3263392Y1016000D01*
X3262680Y1012190D01*
X3260547Y1008938D01*
X3257397Y1006703D01*
X3243478Y1000455D01*
X3230473Y992581D01*
X3218535Y983234D01*
X3207766Y972464D01*
X3198418Y960526D01*
X3190544Y947521D01*
X3184245Y933602D01*
X3182061Y930402D01*
X3178810Y928319D01*
X3175000Y927608D01*
X3171190Y928319D01*
X3167938Y930402D01*
X3165754Y933602D01*
X3159455Y947521D01*
X3151581Y960526D01*
X3142234Y972464D01*
X3131464Y983234D01*
X3119526Y992581D01*
X3106521Y1000455D01*
X3092602Y1006703D01*
X3089452Y1008938D01*
X3087319Y1012190D01*
X3086608Y1016000D01*
X3086608Y1275791D01*
X3087370Y1279702D01*
X3089605Y1283004D01*
X3091180Y1284579D01*
X3096818Y1292606D01*
X3100933Y1301546D01*
X3103473Y1310995D01*
X3104337Y1320800D01*
X3103473Y1330604D01*
X3100933Y1340053D01*
X3096818Y1348994D01*
X3091180Y1357020D01*
X3084220Y1363980D01*
X3076194Y1369618D01*
X3067253Y1373733D01*
X3057804Y1376273D01*
X3048000Y1377137D01*
X3038195Y1376273D01*
X3028746Y1373733D01*
X3019806Y1369618D01*
X3011779Y1363980D01*
X3004820Y1357020D01*
X2999181Y1348994D01*
X2995066Y1340053D01*
X2992526Y1330604D01*
X2991662Y1320800D01*
X2992526Y1310995D01*
X2995066Y1301546D01*
X2999181Y1292606D01*
X3004820Y1284579D01*
X3006394Y1283004D01*
X3008630Y1279702D01*
X3009392Y1275791D01*
X3009392Y1016000D01*
X3008680Y1012190D01*
X3006547Y1008938D01*
X3003397Y1006703D01*
X2989478Y1000455D01*
X2976473Y992581D01*
X2964535Y983234D01*
X2953766Y972464D01*
X2944418Y960526D01*
X2936544Y947521D01*
X2930245Y933602D01*
X2928061Y930402D01*
X2924810Y928319D01*
X2921000Y927608D01*
X2917190Y928319D01*
X2913938Y930402D01*
X2911754Y933602D01*
X2905455Y947521D01*
X2897581Y960526D01*
X2888234Y972464D01*
X2877464Y983234D01*
X2865526Y992581D01*
X2852521Y1000455D01*
X2838602Y1006703D01*
X2835452Y1008938D01*
X2833319Y1012190D01*
X2832608Y1016000D01*
X2832608Y1428191D01*
X2833370Y1432102D01*
X2835605Y1435404D01*
X2837180Y1436979D01*
X2842818Y1445006D01*
X2846933Y1453946D01*
X2849473Y1463395D01*
X2850337Y1473200D01*
X2849473Y1483004D01*
X2846933Y1492453D01*
X2842818Y1501394D01*
X2837180Y1509420D01*
X2830220Y1516380D01*
X2822194Y1522018D01*
X2813253Y1526133D01*
X2803804Y1528673D01*
X2794000Y1529537D01*
X2784195Y1528673D01*
X2774746Y1526133D01*
X2765806Y1522018D01*
X2757779Y1516380D01*
X2750820Y1509420D01*
X2745181Y1501394D01*
X2741066Y1492453D01*
X2738526Y1483004D01*
X2737662Y1473200D01*
X2738526Y1463395D01*
X2741066Y1453946D01*
X2745181Y1445006D01*
X2750820Y1436979D01*
X2752394Y1435404D01*
X2754630Y1432102D01*
X2755392Y1428191D01*
X2755392Y1016000D01*
X2754680Y1012190D01*
X2752547Y1008938D01*
X2749397Y1006703D01*
X2735478Y1000455D01*
X2722473Y992581D01*
X2710535Y983234D01*
X2699766Y972464D01*
X2690418Y960526D01*
X2682544Y947521D01*
X2676245Y933602D01*
X2674061Y930402D01*
X2670810Y928319D01*
X2667000Y927608D01*
X2663190Y928319D01*
X2659938Y930402D01*
X2657754Y933602D01*
X2651455Y947521D01*
X2643581Y960526D01*
X2634234Y972464D01*
X2623464Y983234D01*
X2611526Y992581D01*
X2598521Y1000455D01*
X2584602Y1006703D01*
X2581452Y1008938D01*
X2579319Y1012190D01*
X2578608Y1016000D01*
X2578608Y1580591D01*
X2579370Y1584502D01*
X2581605Y1587804D01*
X2583180Y1589379D01*
X2588818Y1597406D01*
X2592933Y1606346D01*
X2595473Y1615795D01*
X2596337Y1625600D01*
X2595473Y1635404D01*
X2592933Y1644853D01*
X2588818Y1653793D01*
X2583180Y1661820D01*
X2576220Y1668780D01*
X2568194Y1674418D01*
X2559253Y1678533D01*
X2549804Y1681073D01*
X2540000Y1681937D01*
X2530195Y1681073D01*
X2520746Y1678533D01*
X2511806Y1674418D01*
X2503779Y1668780D01*
X2496820Y1661820D01*
X2491181Y1653793D01*
X2487066Y1644853D01*
X2484526Y1635404D01*
X2483662Y1625600D01*
X2484526Y1615795D01*
X2487066Y1606346D01*
X2491181Y1597406D01*
X2496820Y1589379D01*
X2498394Y1587804D01*
X2500630Y1584502D01*
X2501392Y1580591D01*
X2501392Y1016000D01*
X2500680Y1012190D01*
X2498547Y1008938D01*
X2495397Y1006703D01*
X2481478Y1000455D01*
X2468473Y992581D01*
X2456535Y983234D01*
X2445766Y972464D01*
X2436418Y960526D01*
X2428544Y947521D01*
X2422245Y933602D01*
X2420061Y930402D01*
X2416810Y928319D01*
X2413000Y927608D01*
X2409190Y928319D01*
X2405938Y930402D01*
X2403754Y933602D01*
X2397455Y947521D01*
X2389581Y960526D01*
X2380234Y972464D01*
X2369464Y983234D01*
X2357526Y992581D01*
X2344521Y1000455D01*
X2330653Y1006703D01*
X2316124Y1011224D01*
X2301189Y1013968D01*
X2298700Y1014120D01*
X2298700Y901700D01*
X2404110Y901700D01*
X2407970Y900937D01*
X2411272Y898702D01*
X2413457Y895451D01*
X2414270Y891540D01*
X2414270Y886460D01*
X2413457Y882548D01*
X2411272Y879297D01*
X2407970Y877062D01*
X2404110Y876300D01*
X2298700Y876300D01*
X2298700Y763879D01*
X2301189Y764032D01*
X2316124Y766775D01*
X2330653Y771296D01*
X2344521Y777544D01*
X2357526Y785418D01*
X2369464Y794766D01*
X2380234Y805535D01*
X2389581Y817473D01*
X2397455Y830478D01*
X2403754Y844397D01*
X2405938Y847598D01*
X2409190Y849680D01*
X2413000Y850392D01*
X2416810Y849680D01*
X2420061Y847598D01*
X2422245Y844397D01*
X2428544Y830478D01*
X2436418Y817473D01*
X2445766Y805535D01*
X2456535Y794766D01*
X2468473Y785418D01*
X2481478Y777544D01*
X2495346Y771296D01*
X2509875Y766775D01*
X2524810Y764032D01*
G37*
G36*
X4456887Y5600700D02*
G01*
X4559300Y5600700D01*
X4559300Y5702960D01*
X4550308Y5701842D01*
X4536186Y5698236D01*
X4522673Y5692851D01*
X4509922Y5685840D01*
X4498136Y5677306D01*
X4487519Y5667349D01*
X4478223Y5656122D01*
X4470450Y5643829D01*
X4464253Y5630672D01*
X4459732Y5616803D01*
X4457039Y5602528D01*
G37*
G36*
X4073194Y5588000D02*
G01*
X4131411Y5588000D01*
X4131411Y5651195D01*
X4099661Y5651195D01*
X4093362Y5650484D01*
X4087876Y5648604D01*
X4082999Y5645505D01*
X4078884Y5641390D01*
X4075785Y5636514D01*
X4073906Y5631027D01*
X4073194Y5624728D01*
G37*
G36*
X4156811Y5588000D02*
G01*
X4214977Y5588000D01*
X4214977Y5624728D01*
X4214266Y5631027D01*
X4212386Y5636514D01*
X4209288Y5641390D01*
X4205224Y5645505D01*
X4200296Y5648604D01*
X4194860Y5650484D01*
X4188510Y5651195D01*
X4156811Y5651195D01*
G37*
G36*
X4099661Y5499404D02*
G01*
X4131411Y5499404D01*
X4131411Y5562600D01*
X4073194Y5562600D01*
X4073194Y5525871D01*
X4073906Y5519521D01*
X4075785Y5514086D01*
X4078884Y5509158D01*
X4082999Y5505094D01*
X4087876Y5501995D01*
X4093362Y5500116D01*
G37*
G36*
X4156811Y5499404D02*
G01*
X4188510Y5499404D01*
X4194860Y5500116D01*
X4200296Y5501995D01*
X4205224Y5505094D01*
X4209288Y5509158D01*
X4212386Y5514086D01*
X4214266Y5519521D01*
X4214977Y5525871D01*
X4214977Y5562600D01*
X4156811Y5562600D01*
G37*
G36*
X105410Y5473700D02*
G01*
X368300Y5473700D01*
X368300Y5736386D01*
X352145Y5735370D01*
X329285Y5732018D01*
X306781Y5726734D01*
X284835Y5719572D01*
X263499Y5710631D01*
X243027Y5699912D01*
X223520Y5687568D01*
X205130Y5673598D01*
X187960Y5658104D01*
X172161Y5641289D01*
X157784Y5623153D01*
X144983Y5603900D01*
X133858Y5583682D01*
X124460Y5562549D01*
X116890Y5540756D01*
X111150Y5518353D01*
X107289Y5495594D01*
G37*
G36*
X5185410Y5473700D02*
G01*
X5448300Y5473700D01*
X5448300Y5736386D01*
X5432145Y5735370D01*
X5409285Y5732018D01*
X5386781Y5726734D01*
X5364835Y5719572D01*
X5343499Y5710631D01*
X5323027Y5699912D01*
X5303520Y5687568D01*
X5285130Y5673598D01*
X5267960Y5658104D01*
X5252161Y5641289D01*
X5237784Y5623153D01*
X5224983Y5603900D01*
X5213858Y5583682D01*
X5204460Y5562549D01*
X5196890Y5540756D01*
X5191150Y5518353D01*
X5187289Y5495594D01*
G37*
G36*
X5473700Y5473700D02*
G01*
X5736336Y5473700D01*
X5735929Y5484063D01*
X5733034Y5507024D01*
X5728208Y5529630D01*
X5721553Y5551728D01*
X5713018Y5573217D01*
X5702757Y5593892D01*
X5690819Y5613704D01*
X5677204Y5632348D01*
X5662117Y5649874D01*
X5645607Y5666028D01*
X5627827Y5680760D01*
X5608828Y5693968D01*
X5588812Y5705500D01*
X5567934Y5715355D01*
X5546242Y5723382D01*
X5523992Y5729630D01*
X5501284Y5733948D01*
X5478322Y5736336D01*
X5473700Y5736437D01*
G37*
G36*
X393700Y5473700D02*
G01*
X656336Y5473700D01*
X655929Y5484063D01*
X653034Y5507024D01*
X648208Y5529630D01*
X641553Y5551728D01*
X633018Y5573217D01*
X622757Y5593892D01*
X610819Y5613704D01*
X597204Y5632348D01*
X582117Y5649874D01*
X565607Y5666028D01*
X547827Y5680760D01*
X528828Y5693968D01*
X508812Y5705500D01*
X487934Y5715355D01*
X466242Y5723382D01*
X443992Y5729630D01*
X421284Y5733948D01*
X398322Y5736336D01*
X393700Y5736437D01*
G37*
G36*
X4584700Y5473039D02*
G01*
X4593691Y5474157D01*
X4607814Y5477764D01*
X4621326Y5483148D01*
X4634077Y5490159D01*
X4645863Y5498693D01*
X4656480Y5508650D01*
X4665776Y5519877D01*
X4673549Y5532170D01*
X4679746Y5545328D01*
X4684268Y5559196D01*
X4686960Y5573471D01*
X4687112Y5575300D01*
X4584700Y5575300D01*
G37*
G36*
X4559300Y5473039D02*
G01*
X4559300Y5575300D01*
X4456887Y5575300D01*
X4457039Y5573471D01*
X4459732Y5559196D01*
X4464253Y5545328D01*
X4470450Y5532170D01*
X4478223Y5519877D01*
X4487519Y5508650D01*
X4498136Y5498693D01*
X4509922Y5490159D01*
X4522673Y5483148D01*
X4536186Y5477764D01*
X4550308Y5474157D01*
G37*
G36*
X4818735Y5472328D02*
G01*
X4833264Y5472328D01*
X4847691Y5474157D01*
X4861814Y5477764D01*
X4875326Y5483148D01*
X4888077Y5490159D01*
X4899863Y5498693D01*
X4910480Y5508650D01*
X4919776Y5519877D01*
X4927549Y5532170D01*
X4933746Y5545328D01*
X4938268Y5559196D01*
X4940960Y5573471D01*
X4941874Y5588000D01*
X4940960Y5602528D01*
X4938268Y5616803D01*
X4933746Y5630672D01*
X4927549Y5643829D01*
X4919776Y5656122D01*
X4910480Y5667349D01*
X4899863Y5677306D01*
X4888077Y5685840D01*
X4875326Y5692851D01*
X4861814Y5698236D01*
X4847691Y5701842D01*
X4833264Y5703671D01*
X4818735Y5703671D01*
X4804308Y5701842D01*
X4790186Y5698236D01*
X4776673Y5692851D01*
X4763922Y5685840D01*
X4752136Y5677306D01*
X4741519Y5667349D01*
X4732223Y5656122D01*
X4724450Y5643829D01*
X4718253Y5630672D01*
X4713732Y5616803D01*
X4711039Y5602528D01*
X4710125Y5588000D01*
X4711039Y5573471D01*
X4713732Y5559196D01*
X4718253Y5545328D01*
X4724450Y5532170D01*
X4732223Y5519877D01*
X4741519Y5508650D01*
X4752136Y5498693D01*
X4763922Y5490159D01*
X4776673Y5483148D01*
X4790186Y5477764D01*
X4804308Y5474157D01*
G37*
G36*
X4456887Y5346700D02*
G01*
X4559300Y5346700D01*
X4559300Y5448960D01*
X4550308Y5447842D01*
X4536186Y5444236D01*
X4522673Y5438851D01*
X4509922Y5431840D01*
X4498136Y5423306D01*
X4487519Y5413349D01*
X4478223Y5402122D01*
X4470450Y5389829D01*
X4464253Y5376672D01*
X4459732Y5362803D01*
X4457039Y5348528D01*
G37*
G36*
X4584700Y5346700D02*
G01*
X4687112Y5346700D01*
X4686960Y5348528D01*
X4684268Y5362803D01*
X4679746Y5376672D01*
X4673549Y5389829D01*
X4665776Y5402122D01*
X4656480Y5413349D01*
X4645863Y5423306D01*
X4634077Y5431840D01*
X4621326Y5438851D01*
X4607814Y5444236D01*
X4593691Y5447842D01*
X4584700Y5448960D01*
G37*
G36*
X4099661Y5291175D02*
G01*
X4198518Y5291175D01*
X4204868Y5291886D01*
X4210304Y5293817D01*
X4215231Y5296916D01*
X4219295Y5300980D01*
X4220514Y5302859D01*
X4223308Y5305806D01*
X4227068Y5307431D01*
X4231132Y5307431D01*
X4234891Y5305806D01*
X4237685Y5302859D01*
X4238904Y5300980D01*
X4242968Y5296916D01*
X4247896Y5293817D01*
X4253331Y5291886D01*
X4259681Y5291175D01*
X4358538Y5291175D01*
X4364837Y5291886D01*
X4370324Y5293817D01*
X4375200Y5296916D01*
X4379315Y5300980D01*
X4382363Y5305907D01*
X4384294Y5311343D01*
X4385005Y5317693D01*
X4385005Y5426506D01*
X4384294Y5432856D01*
X4382363Y5438292D01*
X4379315Y5443220D01*
X4375200Y5447284D01*
X4370324Y5450382D01*
X4364939Y5452262D01*
X4356862Y5453075D01*
X4353306Y5454091D01*
X4350308Y5456326D01*
X4348378Y5459526D01*
X4347667Y5463184D01*
X4347667Y5489244D01*
X4348378Y5492902D01*
X4350308Y5496052D01*
X4353306Y5498287D01*
X4356862Y5499354D01*
X4364888Y5500116D01*
X4370324Y5501995D01*
X4375200Y5505094D01*
X4379315Y5509158D01*
X4382363Y5514086D01*
X4384294Y5519521D01*
X4385005Y5525871D01*
X4385005Y5624728D01*
X4384294Y5631027D01*
X4382363Y5636514D01*
X4379315Y5641390D01*
X4375200Y5645505D01*
X4370324Y5648604D01*
X4364837Y5650484D01*
X4358538Y5651195D01*
X4269689Y5651195D01*
X4263339Y5650484D01*
X4257903Y5648604D01*
X4252976Y5645505D01*
X4248912Y5641390D01*
X4245813Y5636514D01*
X4243882Y5631027D01*
X4243171Y5624728D01*
X4243171Y5525871D01*
X4243882Y5519521D01*
X4245813Y5514086D01*
X4248912Y5509158D01*
X4252976Y5505094D01*
X4257903Y5501995D01*
X4263694Y5499963D01*
X4267200Y5497830D01*
X4269638Y5494477D01*
X4270451Y5490413D01*
X4270451Y5463184D01*
X4269790Y5459526D01*
X4267860Y5456326D01*
X4264863Y5454091D01*
X4261307Y5453075D01*
X4253280Y5452262D01*
X4247896Y5450382D01*
X4242968Y5447284D01*
X4238904Y5443220D01*
X4237685Y5441340D01*
X4234891Y5438394D01*
X4231132Y5436768D01*
X4227068Y5436768D01*
X4223308Y5438394D01*
X4220514Y5441340D01*
X4219295Y5443220D01*
X4215231Y5447284D01*
X4210304Y5450382D01*
X4204868Y5452313D01*
X4198518Y5453024D01*
X4099661Y5453024D01*
X4093362Y5452313D01*
X4087876Y5450382D01*
X4082999Y5447284D01*
X4078884Y5443220D01*
X4075836Y5438292D01*
X4073906Y5432856D01*
X4073194Y5426506D01*
X4073194Y5420868D01*
X4072432Y5416956D01*
X4070197Y5413705D01*
X4066946Y5411470D01*
X4063034Y5410708D01*
X4032808Y5410708D01*
X4028897Y5411470D01*
X4025595Y5413705D01*
X4024020Y5415280D01*
X4015994Y5420918D01*
X4007053Y5425033D01*
X3997604Y5427573D01*
X3987800Y5428437D01*
X3977995Y5427573D01*
X3968546Y5425033D01*
X3959606Y5420918D01*
X3951579Y5415280D01*
X3944620Y5408320D01*
X3938981Y5400294D01*
X3934866Y5391353D01*
X3932326Y5381904D01*
X3931462Y5372100D01*
X3932326Y5362295D01*
X3934866Y5352846D01*
X3938981Y5343906D01*
X3944620Y5335879D01*
X3951579Y5328920D01*
X3959606Y5323281D01*
X3968546Y5319166D01*
X3977995Y5316626D01*
X3987800Y5315762D01*
X3997604Y5316626D01*
X4007053Y5319166D01*
X4015994Y5323281D01*
X4024020Y5328920D01*
X4025595Y5330494D01*
X4028897Y5332730D01*
X4032808Y5333492D01*
X4063034Y5333492D01*
X4066946Y5332730D01*
X4070197Y5330494D01*
X4072432Y5327243D01*
X4073194Y5323332D01*
X4073194Y5317693D01*
X4073906Y5311343D01*
X4075836Y5305907D01*
X4078884Y5300980D01*
X4082999Y5296916D01*
X4087876Y5293817D01*
X4093362Y5291886D01*
G37*
G36*
X4559300Y5219039D02*
G01*
X4559300Y5321300D01*
X4456887Y5321300D01*
X4457039Y5319471D01*
X4459732Y5305196D01*
X4464253Y5291328D01*
X4470450Y5278170D01*
X4478223Y5265877D01*
X4487519Y5254650D01*
X4498136Y5244693D01*
X4509922Y5236159D01*
X4522673Y5229148D01*
X4536186Y5223764D01*
X4550308Y5220157D01*
G37*
G36*
X4584700Y5219039D02*
G01*
X4593691Y5220157D01*
X4607814Y5223764D01*
X4621326Y5229148D01*
X4634077Y5236159D01*
X4645863Y5244693D01*
X4656480Y5254650D01*
X4665776Y5265877D01*
X4673549Y5278170D01*
X4679746Y5291328D01*
X4684268Y5305196D01*
X4686960Y5319471D01*
X4687112Y5321300D01*
X4584700Y5321300D01*
G37*
G36*
X4818735Y5218328D02*
G01*
X4833264Y5218328D01*
X4847691Y5220157D01*
X4861814Y5223764D01*
X4875326Y5229148D01*
X4888077Y5236159D01*
X4899863Y5244693D01*
X4910480Y5254650D01*
X4919776Y5265877D01*
X4927549Y5278170D01*
X4933746Y5291328D01*
X4938268Y5305196D01*
X4940960Y5319471D01*
X4941874Y5334000D01*
X4940960Y5348528D01*
X4938268Y5362803D01*
X4933746Y5376672D01*
X4927549Y5389829D01*
X4919776Y5402122D01*
X4910480Y5413349D01*
X4899863Y5423306D01*
X4888077Y5431840D01*
X4875326Y5438851D01*
X4861814Y5444236D01*
X4847691Y5447842D01*
X4833264Y5449671D01*
X4818735Y5449671D01*
X4804308Y5447842D01*
X4790186Y5444236D01*
X4776673Y5438851D01*
X4763922Y5431840D01*
X4752136Y5423306D01*
X4741519Y5413349D01*
X4732223Y5402122D01*
X4724450Y5389829D01*
X4718253Y5376672D01*
X4713732Y5362803D01*
X4711039Y5348528D01*
X4710125Y5334000D01*
X4711039Y5319471D01*
X4713732Y5305196D01*
X4718253Y5291328D01*
X4724450Y5278170D01*
X4732223Y5265877D01*
X4741519Y5254650D01*
X4752136Y5244693D01*
X4763922Y5236159D01*
X4776673Y5229148D01*
X4790186Y5223764D01*
X4804308Y5220157D01*
G37*
G36*
X368300Y5185613D02*
G01*
X368300Y5448300D01*
X105410Y5448300D01*
X107289Y5426405D01*
X111150Y5403646D01*
X116890Y5381244D01*
X124460Y5359450D01*
X133858Y5338318D01*
X144983Y5318099D01*
X157784Y5298846D01*
X172161Y5280710D01*
X187960Y5263896D01*
X205130Y5248402D01*
X223520Y5234432D01*
X243027Y5222087D01*
X263499Y5211368D01*
X284835Y5202428D01*
X306781Y5195265D01*
X329285Y5189982D01*
X352145Y5186629D01*
G37*
G36*
X5448300Y5185613D02*
G01*
X5448300Y5448300D01*
X5185410Y5448300D01*
X5187289Y5426405D01*
X5191150Y5403646D01*
X5196890Y5381244D01*
X5204460Y5359450D01*
X5213858Y5338318D01*
X5224983Y5318099D01*
X5237784Y5298846D01*
X5252161Y5280710D01*
X5267960Y5263896D01*
X5285130Y5248402D01*
X5303520Y5234432D01*
X5323027Y5222087D01*
X5343499Y5211368D01*
X5364835Y5202428D01*
X5386781Y5195265D01*
X5409285Y5189982D01*
X5432145Y5186629D01*
G37*
G36*
X393700Y5185562D02*
G01*
X398322Y5185664D01*
X421284Y5188051D01*
X443992Y5192369D01*
X466242Y5198618D01*
X487934Y5206644D01*
X508812Y5216499D01*
X528828Y5228031D01*
X547827Y5241239D01*
X565607Y5255971D01*
X582117Y5272125D01*
X597204Y5289600D01*
X610819Y5308295D01*
X622757Y5328107D01*
X633018Y5348782D01*
X641553Y5370271D01*
X648208Y5392369D01*
X653034Y5414975D01*
X655929Y5437936D01*
X656336Y5448300D01*
X393700Y5448300D01*
G37*
G36*
X5473700Y5185562D02*
G01*
X5478322Y5185664D01*
X5501284Y5188051D01*
X5523992Y5192369D01*
X5546242Y5198618D01*
X5567934Y5206644D01*
X5588812Y5216499D01*
X5608828Y5228031D01*
X5627827Y5241239D01*
X5645607Y5255971D01*
X5662117Y5272125D01*
X5677204Y5289600D01*
X5690819Y5308295D01*
X5702757Y5328107D01*
X5713018Y5348782D01*
X5721553Y5370271D01*
X5728208Y5392369D01*
X5733034Y5414975D01*
X5735929Y5437936D01*
X5736336Y5448300D01*
X5473700Y5448300D01*
G37*
G36*
X1925624Y4852822D02*
G01*
X2062175Y4852822D01*
X2068525Y4853533D01*
X2073960Y4855413D01*
X2078888Y4858512D01*
X2082952Y4862576D01*
X2086051Y4867503D01*
X2087930Y4872939D01*
X2088642Y4879289D01*
X2088642Y4991404D01*
X2087930Y4997704D01*
X2086051Y5003190D01*
X2082952Y5008067D01*
X2079294Y5011724D01*
X2077059Y5015026D01*
X2076297Y5018938D01*
X2077059Y5022799D01*
X2079294Y5026101D01*
X2082596Y5028336D01*
X2086457Y5029098D01*
X3961892Y5029098D01*
X3966210Y5028133D01*
X3968546Y5027066D01*
X3977995Y5024526D01*
X3987800Y5023662D01*
X3997604Y5024526D01*
X4007053Y5027066D01*
X4009288Y5028082D01*
X4013606Y5029047D01*
X4800041Y5027625D01*
X4804359Y5026660D01*
X4806746Y5025542D01*
X4816195Y5023002D01*
X4826000Y5022138D01*
X4835804Y5023002D01*
X4845253Y5025542D01*
X4850841Y5028133D01*
X4855108Y5029098D01*
X5638292Y5029098D01*
X5642610Y5028133D01*
X5644946Y5027066D01*
X5654395Y5024526D01*
X5664200Y5023662D01*
X5674004Y5024526D01*
X5683453Y5027066D01*
X5692394Y5031181D01*
X5700420Y5036820D01*
X5707380Y5043779D01*
X5713018Y5051806D01*
X5717133Y5060746D01*
X5719673Y5070195D01*
X5720537Y5080000D01*
X5719673Y5089804D01*
X5717133Y5099253D01*
X5713018Y5108194D01*
X5707380Y5116220D01*
X5700420Y5123180D01*
X5692394Y5128818D01*
X5683453Y5132933D01*
X5674004Y5135473D01*
X5664200Y5136337D01*
X5654395Y5135473D01*
X5644946Y5132933D01*
X5642610Y5131866D01*
X5638292Y5130901D01*
X4848656Y5130901D01*
X4846015Y5131257D01*
X4835804Y5134000D01*
X4826000Y5134864D01*
X4816195Y5134000D01*
X4806746Y5131460D01*
X4804410Y5130393D01*
X4800142Y5129428D01*
X4013809Y5130850D01*
X4009491Y5131816D01*
X4007053Y5132933D01*
X3997604Y5135473D01*
X3987800Y5136337D01*
X3977995Y5135473D01*
X3968546Y5132933D01*
X3966210Y5131866D01*
X3961892Y5130901D01*
X838708Y5130901D01*
X834390Y5131866D01*
X832053Y5132933D01*
X822604Y5135473D01*
X812800Y5136337D01*
X802995Y5135473D01*
X793546Y5132933D01*
X784606Y5128818D01*
X776579Y5123180D01*
X769620Y5116220D01*
X763981Y5108194D01*
X759866Y5099253D01*
X757326Y5089804D01*
X756462Y5080000D01*
X757326Y5070195D01*
X759866Y5060746D01*
X763981Y5051806D01*
X769620Y5043779D01*
X776579Y5036820D01*
X784606Y5031181D01*
X793546Y5027066D01*
X802995Y5024526D01*
X812800Y5023662D01*
X822604Y5024526D01*
X832053Y5027066D01*
X834390Y5028133D01*
X838708Y5029098D01*
X1901342Y5029098D01*
X1905203Y5028336D01*
X1908505Y5026101D01*
X1910740Y5022799D01*
X1911502Y5018938D01*
X1910740Y5015026D01*
X1908505Y5011724D01*
X1904847Y5008067D01*
X1901748Y5003190D01*
X1899869Y4997704D01*
X1899157Y4991404D01*
X1899157Y4879289D01*
X1899869Y4872939D01*
X1901748Y4867503D01*
X1904847Y4862576D01*
X1908962Y4858512D01*
X1913839Y4855413D01*
X1919325Y4853533D01*
G37*
G36*
X2582976Y2227783D02*
G01*
X2609697Y2227783D01*
X2609697Y2286000D01*
X2556510Y2286000D01*
X2556510Y2254250D01*
X2557221Y2247950D01*
X2559100Y2242464D01*
X2562199Y2237587D01*
X2566314Y2233472D01*
X2571191Y2230424D01*
X2576677Y2228494D01*
G37*
G36*
X4528058Y4160621D02*
G01*
X4610100Y4160621D01*
X4610100Y4230471D01*
X4554524Y4230471D01*
X4548225Y4229760D01*
X4542739Y4227830D01*
X4537862Y4224782D01*
X4533747Y4220667D01*
X4530648Y4215790D01*
X4528769Y4210304D01*
X4528058Y4204004D01*
G37*
G36*
X4635500Y4160621D02*
G01*
X4717542Y4160621D01*
X4717542Y4204004D01*
X4716830Y4210304D01*
X4714951Y4215790D01*
X4711852Y4220667D01*
X4707788Y4224782D01*
X4702860Y4227830D01*
X4697425Y4229760D01*
X4691075Y4230471D01*
X4635500Y4230471D01*
G37*
G36*
X4554524Y4065422D02*
G01*
X4610100Y4065422D01*
X4610100Y4135221D01*
X4528058Y4135221D01*
X4528058Y4091889D01*
X4528769Y4085539D01*
X4530648Y4080103D01*
X4533747Y4075176D01*
X4537862Y4071112D01*
X4542739Y4068013D01*
X4548225Y4066133D01*
G37*
G36*
X2556510Y2311400D02*
G01*
X2609697Y2311400D01*
X2609697Y2369616D01*
X2582976Y2369616D01*
X2576677Y2368905D01*
X2571191Y2366975D01*
X2566314Y2363927D01*
X2562199Y2359812D01*
X2559100Y2354935D01*
X2557221Y2349449D01*
X2556510Y2343150D01*
G37*
G36*
X4635500Y4065422D02*
G01*
X4691075Y4065422D01*
X4697425Y4066133D01*
X4702860Y4068013D01*
X4707788Y4071112D01*
X4711852Y4075176D01*
X4714951Y4080103D01*
X4716830Y4085539D01*
X4717542Y4091889D01*
X4717542Y4135221D01*
X4635500Y4135221D01*
G37*
G36*
X1739900Y3943502D02*
G01*
X1854200Y3943502D01*
X1854200Y3996690D01*
X1822450Y3996690D01*
X1816150Y3995978D01*
X1810664Y3994099D01*
X1805787Y3991000D01*
X1804212Y3989425D01*
X1800961Y3987241D01*
X1797050Y3986479D01*
X1793138Y3987241D01*
X1789887Y3989425D01*
X1788312Y3991000D01*
X1783435Y3994099D01*
X1777949Y3995978D01*
X1771650Y3996690D01*
X1739900Y3996690D01*
G37*
G36*
X1397000Y3943502D02*
G01*
X1511300Y3943502D01*
X1511300Y3996690D01*
X1479550Y3996690D01*
X1473250Y3995978D01*
X1467764Y3994099D01*
X1462887Y3991000D01*
X1461312Y3989425D01*
X1458061Y3987241D01*
X1454150Y3986479D01*
X1450238Y3987241D01*
X1446987Y3989425D01*
X1445412Y3991000D01*
X1440535Y3994099D01*
X1435049Y3995978D01*
X1428750Y3996690D01*
X1397000Y3996690D01*
G37*
G36*
X2146300Y3943502D02*
G01*
X2204516Y3943502D01*
X2204516Y3970223D01*
X2203805Y3976522D01*
X2201875Y3982008D01*
X2198827Y3986885D01*
X2194712Y3991000D01*
X2189835Y3994099D01*
X2184349Y3995978D01*
X2178050Y3996690D01*
X2146300Y3996690D01*
G37*
G36*
X1110183Y3943502D02*
G01*
X1168400Y3943502D01*
X1168400Y3996690D01*
X1136650Y3996690D01*
X1130350Y3995978D01*
X1124864Y3994099D01*
X1119987Y3991000D01*
X1115872Y3986885D01*
X1112824Y3982008D01*
X1110894Y3976522D01*
X1110183Y3970223D01*
G37*
G36*
X1656283Y3943502D02*
G01*
X1714500Y3943502D01*
X1714500Y3996690D01*
X1682750Y3996690D01*
X1676450Y3995978D01*
X1670964Y3994099D01*
X1666087Y3991000D01*
X1661972Y3986885D01*
X1658924Y3982008D01*
X1656994Y3976522D01*
X1656283Y3970223D01*
G37*
G36*
X1193800Y3943502D02*
G01*
X1252016Y3943502D01*
X1252016Y3970223D01*
X1251305Y3976522D01*
X1249375Y3982008D01*
X1246327Y3986885D01*
X1242212Y3991000D01*
X1237335Y3994099D01*
X1231849Y3995978D01*
X1225550Y3996690D01*
X1193800Y3996690D01*
G37*
G36*
X1536700Y3943502D02*
G01*
X1594916Y3943502D01*
X1594916Y3970223D01*
X1594205Y3976522D01*
X1592275Y3982008D01*
X1589227Y3986885D01*
X1585112Y3991000D01*
X1580235Y3994099D01*
X1574749Y3995978D01*
X1568450Y3996690D01*
X1536700Y3996690D01*
G37*
G36*
X1313383Y3943502D02*
G01*
X1371600Y3943502D01*
X1371600Y3996690D01*
X1339850Y3996690D01*
X1333550Y3995978D01*
X1328064Y3994099D01*
X1323187Y3991000D01*
X1319072Y3986885D01*
X1316024Y3982008D01*
X1314094Y3976522D01*
X1313383Y3970223D01*
G37*
G36*
X2785110Y3771900D02*
G01*
X2848305Y3771900D01*
X2848305Y3813606D01*
X2847594Y3819956D01*
X2845663Y3825392D01*
X2842615Y3830320D01*
X2838500Y3834384D01*
X2833624Y3837482D01*
X2828137Y3839413D01*
X2821838Y3840124D01*
X2785110Y3840124D01*
G37*
G36*
X3295802Y3771900D02*
G01*
X3348990Y3771900D01*
X3348990Y3803650D01*
X3348278Y3809949D01*
X3346399Y3815435D01*
X3343300Y3820312D01*
X3339185Y3824427D01*
X3334308Y3827475D01*
X3328822Y3829405D01*
X3322523Y3830116D01*
X3295802Y3830116D01*
G37*
G36*
X3295802Y3688283D02*
G01*
X3322523Y3688283D01*
X3328822Y3688994D01*
X3334308Y3690924D01*
X3339185Y3693972D01*
X3343300Y3698087D01*
X3346399Y3702964D01*
X3348278Y3708450D01*
X3348990Y3714750D01*
X3348990Y3746500D01*
X3295802Y3746500D01*
G37*
G36*
X2562961Y3678275D02*
G01*
X2661818Y3678275D01*
X2668168Y3678986D01*
X2673604Y3680917D01*
X2678531Y3684015D01*
X2682595Y3688079D01*
X2683814Y3689959D01*
X2686608Y3692906D01*
X2690368Y3694531D01*
X2694432Y3694531D01*
X2698191Y3692906D01*
X2700985Y3689959D01*
X2702204Y3688079D01*
X2706268Y3684015D01*
X2711196Y3680917D01*
X2716631Y3678986D01*
X2722981Y3678275D01*
X2759710Y3678275D01*
X2759710Y3746500D01*
X2698445Y3746500D01*
X2694584Y3747262D01*
X2691282Y3749497D01*
X2689098Y3752748D01*
X2688336Y3756660D01*
X2688336Y3761740D01*
X2689098Y3765651D01*
X2691282Y3768902D01*
X2694584Y3771137D01*
X2698445Y3771900D01*
X2759710Y3771900D01*
X2759710Y3840124D01*
X2722981Y3840124D01*
X2716631Y3839413D01*
X2711196Y3837482D01*
X2706268Y3834384D01*
X2702204Y3830320D01*
X2700985Y3828440D01*
X2698191Y3825494D01*
X2694432Y3823868D01*
X2690368Y3823868D01*
X2686608Y3825494D01*
X2683814Y3828440D01*
X2682595Y3830320D01*
X2678531Y3834384D01*
X2673604Y3837482D01*
X2668168Y3839413D01*
X2661818Y3840124D01*
X2562961Y3840124D01*
X2556662Y3839413D01*
X2551176Y3837482D01*
X2546299Y3834384D01*
X2542184Y3830320D01*
X2539136Y3825392D01*
X2536037Y3815842D01*
X2533599Y3812844D01*
X2530246Y3810965D01*
X2526487Y3810457D01*
X2521153Y3812133D01*
X2511704Y3814673D01*
X2501900Y3815537D01*
X2492095Y3814673D01*
X2482646Y3812133D01*
X2473706Y3808018D01*
X2465679Y3802379D01*
X2458720Y3795420D01*
X2453081Y3787394D01*
X2448966Y3778453D01*
X2446426Y3769004D01*
X2445562Y3759200D01*
X2446426Y3749395D01*
X2448966Y3739946D01*
X2453081Y3731006D01*
X2458720Y3722979D01*
X2465679Y3716020D01*
X2473706Y3710381D01*
X2482646Y3706266D01*
X2492095Y3703726D01*
X2501900Y3702862D01*
X2511704Y3703726D01*
X2521153Y3706266D01*
X2526487Y3707942D01*
X2530246Y3707434D01*
X2533599Y3705555D01*
X2536037Y3702558D01*
X2537206Y3698443D01*
X2539136Y3693007D01*
X2542184Y3688079D01*
X2546299Y3684015D01*
X2551176Y3680917D01*
X2556662Y3678986D01*
G37*
G36*
X2785110Y3678275D02*
G01*
X2821838Y3678275D01*
X2828137Y3678986D01*
X2833624Y3680917D01*
X2838500Y3684015D01*
X2842615Y3688079D01*
X2845663Y3693007D01*
X2847594Y3698443D01*
X2848305Y3704793D01*
X2848305Y3746500D01*
X2785110Y3746500D01*
G37*
G36*
X2356002Y3657600D02*
G01*
X2409190Y3657600D01*
X2409190Y3689350D01*
X2408478Y3695649D01*
X2406599Y3701135D01*
X2403500Y3706012D01*
X2399385Y3710127D01*
X2394508Y3713175D01*
X2389022Y3715105D01*
X2382723Y3715816D01*
X2356002Y3715816D01*
G37*
G36*
X2356002Y3517900D02*
G01*
X2409190Y3517900D01*
X2409190Y3549650D01*
X2408478Y3555949D01*
X2406599Y3561435D01*
X2403500Y3566312D01*
X2401925Y3567887D01*
X2399741Y3571138D01*
X2398979Y3575050D01*
X2399741Y3578961D01*
X2401925Y3582212D01*
X2403500Y3583787D01*
X2406599Y3588664D01*
X2408478Y3594150D01*
X2409190Y3600450D01*
X2409190Y3632200D01*
X2356002Y3632200D01*
G37*
G36*
X600710Y3505200D02*
G01*
X653897Y3505200D01*
X653897Y3563416D01*
X627176Y3563416D01*
X620877Y3562705D01*
X615391Y3560775D01*
X610514Y3557727D01*
X606399Y3553612D01*
X603300Y3548735D01*
X601421Y3543249D01*
X600710Y3536950D01*
G37*
G36*
X508000Y3499002D02*
G01*
X566216Y3499002D01*
X566216Y3525723D01*
X565505Y3532022D01*
X563575Y3537508D01*
X560527Y3542385D01*
X556412Y3546500D01*
X551535Y3549599D01*
X546049Y3551478D01*
X539750Y3552190D01*
X508000Y3552190D01*
G37*
G36*
X1837080Y2600655D02*
G01*
X1839468Y2601366D01*
X1846275Y2604973D01*
X1852218Y2609900D01*
X1857146Y2615844D01*
X1860753Y2622651D01*
X1862988Y2630017D01*
X1863801Y2638196D01*
X1863801Y2686507D01*
X1837080Y2686507D01*
G37*
G36*
X424383Y3499002D02*
G01*
X482600Y3499002D01*
X482600Y3552190D01*
X450850Y3552190D01*
X444550Y3551478D01*
X439064Y3549599D01*
X434187Y3546500D01*
X430072Y3542385D01*
X427024Y3537508D01*
X425094Y3532022D01*
X424383Y3525723D01*
G37*
G36*
X539902Y2684983D02*
G01*
X566623Y2684983D01*
X572922Y2685694D01*
X578408Y2687624D01*
X583285Y2690672D01*
X587400Y2694787D01*
X590499Y2699664D01*
X592378Y2705150D01*
X593090Y2711450D01*
X593090Y2743200D01*
X539902Y2743200D01*
G37*
G36*
X1274419Y3448304D02*
G01*
X1282090Y3449065D01*
X1289456Y3451301D01*
X1294638Y3454095D01*
X1297787Y3455162D01*
X1301089Y3455162D01*
X1304188Y3454095D01*
X1309370Y3451351D01*
X1311706Y3450640D01*
X1311706Y3474262D01*
X1313027Y3480003D01*
X1313789Y3488182D01*
X1313789Y3610203D01*
X1313027Y3618382D01*
X1311706Y3624122D01*
X1311706Y3628440D01*
X1312468Y3632352D01*
X1314704Y3635654D01*
X1318006Y3637838D01*
X1321866Y3638600D01*
X1325778Y3637838D01*
X1329080Y3635654D01*
X1332788Y3631895D01*
X1335024Y3628593D01*
X1335786Y3624681D01*
X1335735Y3617772D01*
X1334973Y3610203D01*
X1334973Y3488182D01*
X1335786Y3480003D01*
X1336700Y3477107D01*
X1337106Y3474161D01*
X1337106Y3450640D01*
X1339494Y3451351D01*
X1344625Y3454095D01*
X1347724Y3455162D01*
X1351026Y3455162D01*
X1354175Y3454095D01*
X1359357Y3451301D01*
X1366723Y3449065D01*
X1374394Y3448304D01*
X1382064Y3449065D01*
X1389481Y3451301D01*
X1394612Y3454095D01*
X1397762Y3455162D01*
X1401064Y3455162D01*
X1404213Y3454095D01*
X1409344Y3451351D01*
X1416710Y3449116D01*
X1424432Y3448354D01*
X1432102Y3449116D01*
X1439468Y3451351D01*
X1444599Y3454095D01*
X1447749Y3455162D01*
X1451051Y3455162D01*
X1454200Y3454095D01*
X1459331Y3451301D01*
X1466697Y3449065D01*
X1474419Y3448304D01*
X1482090Y3449065D01*
X1489456Y3451301D01*
X1494637Y3454095D01*
X1497787Y3455162D01*
X1501089Y3455162D01*
X1504188Y3454095D01*
X1509369Y3451351D01*
X1511706Y3450640D01*
X1511706Y3474262D01*
X1513027Y3480003D01*
X1513789Y3488182D01*
X1513789Y3610203D01*
X1513078Y3618128D01*
X1513078Y3651351D01*
X1513840Y3655263D01*
X1516075Y3658565D01*
X1519783Y3662273D01*
X1522425Y3664051D01*
X1524254Y3666744D01*
X1550924Y3693464D01*
X1556054Y3699662D01*
X1559610Y3706368D01*
X1561795Y3713581D01*
X1562049Y3716070D01*
X1562963Y3719423D01*
X1564944Y3722217D01*
X1567738Y3724249D01*
X1571040Y3725214D01*
X1574749Y3725621D01*
X1580235Y3727500D01*
X1585112Y3730599D01*
X1589227Y3734714D01*
X1592275Y3739591D01*
X1594205Y3745077D01*
X1594916Y3751376D01*
X1594916Y3830218D01*
X1594205Y3836568D01*
X1592275Y3842004D01*
X1589227Y3846931D01*
X1585112Y3850995D01*
X1583232Y3852214D01*
X1580286Y3855008D01*
X1578660Y3858768D01*
X1578660Y3862832D01*
X1580286Y3866591D01*
X1583232Y3869385D01*
X1585112Y3870604D01*
X1589227Y3874668D01*
X1592275Y3879596D01*
X1594205Y3885031D01*
X1594916Y3891381D01*
X1594916Y3918102D01*
X1536700Y3918102D01*
X1536700Y3866896D01*
X1535938Y3862984D01*
X1533702Y3859682D01*
X1530451Y3857498D01*
X1526540Y3856736D01*
X1521460Y3856736D01*
X1517548Y3857498D01*
X1514297Y3859682D01*
X1512062Y3862984D01*
X1511300Y3866896D01*
X1511300Y3918102D01*
X1397000Y3918102D01*
X1397000Y3866896D01*
X1396238Y3862984D01*
X1394002Y3859682D01*
X1390751Y3857498D01*
X1386840Y3856736D01*
X1381760Y3856736D01*
X1377848Y3857498D01*
X1374597Y3859682D01*
X1372362Y3862984D01*
X1371600Y3866896D01*
X1371600Y3918102D01*
X1311554Y3918102D01*
X1308557Y3915257D01*
X1304696Y3913886D01*
X1300581Y3914140D01*
X1292504Y3916273D01*
X1282700Y3917137D01*
X1272895Y3916273D01*
X1264818Y3914140D01*
X1260703Y3913886D01*
X1256842Y3915257D01*
X1253845Y3918102D01*
X1193800Y3918102D01*
X1193800Y3866896D01*
X1193038Y3862984D01*
X1190802Y3859682D01*
X1187551Y3857498D01*
X1183640Y3856736D01*
X1178560Y3856736D01*
X1174648Y3857498D01*
X1171397Y3859682D01*
X1169162Y3862984D01*
X1168400Y3866896D01*
X1168400Y3918102D01*
X1110183Y3918102D01*
X1110183Y3891381D01*
X1110894Y3885031D01*
X1112824Y3879596D01*
X1115872Y3874668D01*
X1119987Y3870604D01*
X1121867Y3869385D01*
X1124813Y3866591D01*
X1126439Y3862832D01*
X1126439Y3858768D01*
X1124813Y3855008D01*
X1121867Y3852214D01*
X1119987Y3850995D01*
X1115872Y3846931D01*
X1112824Y3842004D01*
X1110894Y3836568D01*
X1110183Y3830218D01*
X1110183Y3751376D01*
X1110894Y3745077D01*
X1112824Y3739591D01*
X1115872Y3734714D01*
X1119987Y3730599D01*
X1124864Y3727500D01*
X1130350Y3725621D01*
X1136650Y3724910D01*
X1225448Y3724910D01*
X1233271Y3725875D01*
X1236370Y3725773D01*
X1239266Y3724808D01*
X1241704Y3722979D01*
X1301597Y3663137D01*
X1303832Y3659682D01*
X1304544Y3655669D01*
X1303629Y3651656D01*
X1301140Y3648354D01*
X1297635Y3646322D01*
X1293520Y3645814D01*
X1282090Y3649268D01*
X1274419Y3650030D01*
X1266698Y3649268D01*
X1259332Y3647033D01*
X1252524Y3643426D01*
X1246581Y3638499D01*
X1241653Y3632555D01*
X1238046Y3625748D01*
X1235811Y3618382D01*
X1234998Y3610203D01*
X1234998Y3488182D01*
X1235811Y3480003D01*
X1238046Y3472637D01*
X1241653Y3465829D01*
X1246581Y3459835D01*
X1252524Y3454958D01*
X1259332Y3451301D01*
X1266698Y3449065D01*
G37*
G36*
X2356002Y3434283D02*
G01*
X2382723Y3434283D01*
X2389022Y3434994D01*
X2394508Y3436924D01*
X2399385Y3439972D01*
X2403500Y3444087D01*
X2406599Y3448964D01*
X2408478Y3454450D01*
X2409190Y3460750D01*
X2409190Y3492500D01*
X2356002Y3492500D01*
G37*
G36*
X1837080Y2711907D02*
G01*
X1863801Y2711907D01*
X1863801Y2760218D01*
X1862988Y2768396D01*
X1860753Y2775762D01*
X1857146Y2782570D01*
X1852218Y2788564D01*
X1846275Y2793441D01*
X1839468Y2797098D01*
X1837080Y2797810D01*
G37*
G36*
X539902Y2768600D02*
G01*
X593090Y2768600D01*
X593090Y2800350D01*
X592378Y2806649D01*
X590499Y2812135D01*
X587400Y2817012D01*
X583285Y2821127D01*
X578408Y2824175D01*
X572922Y2826105D01*
X566623Y2826816D01*
X539902Y2826816D01*
G37*
G36*
X5473700Y105562D02*
G01*
X5478322Y105664D01*
X5501284Y108051D01*
X5523992Y112369D01*
X5546242Y118618D01*
X5567934Y126644D01*
X5588812Y136499D01*
X5608828Y148031D01*
X5627827Y161239D01*
X5645607Y175971D01*
X5662117Y192125D01*
X5677204Y209600D01*
X5690819Y228295D01*
X5702757Y248107D01*
X5713018Y268782D01*
X5721553Y290271D01*
X5728208Y312369D01*
X5733034Y334975D01*
X5735929Y357936D01*
X5736336Y368300D01*
X5473700Y368300D01*
G37*
G36*
X627176Y3281883D02*
G01*
X653897Y3281883D01*
X653897Y3340100D01*
X600710Y3340100D01*
X600710Y3308350D01*
X601421Y3302050D01*
X603300Y3296564D01*
X606399Y3291687D01*
X610514Y3287572D01*
X615391Y3284524D01*
X620877Y3282594D01*
G37*
G36*
X607466Y3209798D02*
G01*
X649884Y3209798D01*
X649884Y3223107D01*
X649173Y3229457D01*
X647293Y3234893D01*
X644194Y3239820D01*
X640130Y3243884D01*
X635203Y3246983D01*
X629767Y3248914D01*
X623417Y3249625D01*
X607466Y3249625D01*
G37*
G36*
X600710Y3365500D02*
G01*
X653897Y3365500D01*
X653897Y3479800D01*
X600710Y3479800D01*
X600710Y3448050D01*
X601421Y3441750D01*
X603300Y3436264D01*
X606399Y3431387D01*
X607974Y3429812D01*
X610158Y3426561D01*
X610920Y3422650D01*
X610158Y3418738D01*
X607974Y3415487D01*
X606399Y3413912D01*
X603300Y3409035D01*
X601421Y3403549D01*
X600710Y3397250D01*
G37*

%LPD*%
G36*
X623265Y2968498D02*
G01*
X619353Y2969260D01*
X616102Y2971495D01*
X613867Y2974746D01*
X613105Y2978658D01*
X613105Y2988106D01*
X612394Y2994456D01*
X610463Y2999892D01*
X607415Y3004820D01*
X603300Y3008884D01*
X598424Y3011982D01*
X592937Y3013913D01*
X586638Y3014624D01*
X487781Y3014624D01*
X481431Y3013913D01*
X475996Y3011982D01*
X471068Y3008884D01*
X467004Y3004820D01*
X465785Y3002940D01*
X462991Y2999994D01*
X459232Y2998368D01*
X455168Y2998368D01*
X451408Y2999994D01*
X448614Y3002940D01*
X447395Y3004820D01*
X443331Y3008884D01*
X438404Y3011982D01*
X432968Y3013913D01*
X426618Y3014624D01*
X391668Y3014624D01*
X387756Y3015386D01*
X384505Y3017570D01*
X382270Y3020872D01*
X381508Y3024784D01*
X381508Y3039465D01*
X382270Y3043377D01*
X384505Y3046679D01*
X387807Y3048863D01*
X391668Y3049625D01*
X408533Y3049625D01*
X408533Y3089402D01*
X391668Y3089402D01*
X387756Y3090164D01*
X384505Y3092399D01*
X382270Y3095650D01*
X381508Y3099562D01*
X381508Y3104642D01*
X382270Y3108502D01*
X384505Y3111804D01*
X387756Y3114040D01*
X391668Y3114802D01*
X408533Y3114802D01*
X408533Y3134410D01*
X409346Y3138322D01*
X411530Y3141624D01*
X414832Y3143808D01*
X418693Y3144570D01*
X423773Y3144570D01*
X427685Y3143808D01*
X430987Y3141624D01*
X433171Y3138322D01*
X433933Y3134410D01*
X433933Y3114802D01*
X472592Y3114802D01*
X476250Y3114141D01*
X479450Y3112160D01*
X481685Y3109214D01*
X483311Y3102508D01*
X483717Y3098749D01*
X482752Y3095142D01*
X480517Y3092094D01*
X477316Y3090113D01*
X473608Y3089402D01*
X433933Y3089402D01*
X433933Y3049574D01*
X449935Y3049574D01*
X456234Y3050286D01*
X461721Y3052216D01*
X466598Y3055315D01*
X470712Y3059379D01*
X473760Y3064306D01*
X475691Y3069691D01*
X476453Y3077667D01*
X477520Y3081324D01*
X479856Y3084322D01*
X483158Y3086252D01*
X486918Y3086811D01*
X490626Y3085998D01*
X493776Y3083864D01*
X502462Y3075127D01*
X508660Y3070047D01*
X515366Y3066491D01*
X522579Y3064256D01*
X530606Y3063494D01*
X537108Y3063494D01*
X541020Y3062681D01*
X544372Y3060446D01*
X549452Y3055264D01*
X554278Y3052216D01*
X559765Y3050286D01*
X566064Y3049574D01*
X623417Y3049574D01*
X629767Y3050286D01*
X635203Y3052216D01*
X640130Y3055315D01*
X644144Y3056788D01*
X648462Y3056432D01*
X652221Y3054350D01*
X654761Y3050895D01*
X655675Y3046679D01*
X655675Y3040481D01*
X656386Y3034131D01*
X658317Y3028696D01*
X661416Y3023768D01*
X665480Y3019704D01*
X667359Y3018485D01*
X670306Y3015691D01*
X671931Y3011932D01*
X671931Y3007868D01*
X670306Y3004108D01*
X667359Y3001314D01*
X665480Y3000095D01*
X661416Y2996031D01*
X658317Y2991104D01*
X656437Y2985719D01*
X655624Y2977692D01*
X654608Y2974086D01*
X652373Y2971139D01*
X649173Y2969158D01*
X645515Y2968498D01*
G37*

%LPD*%
D10*
X4038803Y3366101D02*
G01*
X4622802Y3366101D01*
X4622802Y3695600D02*
G01*
X4622802Y2146602D01*
X4622792Y3954683D02*
G01*
X4622792Y3695611D01*
X1995931Y3790695D02*
G01*
X2133600Y3790695D01*
X2203195Y3644900D02*
G01*
X2203195Y3721100D01*
X2133600Y3790695D01*
X1993892Y4935326D02*
G01*
X1993892Y5080000D01*
X2203297Y3505200D02*
G01*
X2203297Y3644900D01*
D11*
X1974341Y3349244D02*
G01*
X2053843Y3349244D01*
X2108200Y3403600D01*
X2108200Y3619500D01*
X2133600Y3644900D01*
X2203195Y3644900D01*
X1974341Y3199129D02*
G01*
X2081529Y3199129D01*
X2203195Y3320795D01*
X2203195Y3505200D01*
X3115309Y2438145D02*
G01*
X3115309Y2298700D01*
X3115309Y2590800D02*
G01*
X3115309Y2438204D01*
X3115309Y2590800D02*
G01*
X3238500Y2590800D01*
X3238500Y2819400D02*
G01*
X3115284Y2819400D01*
D10*
X2254097Y2997200D02*
G01*
X2254097Y3016097D01*
X2324100Y3086100D01*
D11*
X1974341Y2999234D02*
G01*
X1976376Y2997200D01*
X2254097Y2997200D01*
D10*
X1384300Y3790797D02*
G01*
X1352702Y3790797D01*
X1282700Y3860800D01*
X1995931Y3790695D02*
G01*
X1994187Y4607374D01*
D11*
X1424431Y3549142D02*
G01*
X1424431Y3668268D01*
X1384300Y3708400D01*
X1384300Y3790695D01*
X1724403Y3549190D02*
G01*
X1724403Y3654803D01*
X1860397Y3790797D01*
X1866900Y3790797D01*
X1624403Y3549190D02*
G01*
X1624403Y3656403D01*
X1727200Y3759200D01*
X1727200Y3790797D01*
D10*
X1727200Y3790797D02*
G01*
X1866900Y3790797D01*
X1866900Y3790695D02*
G01*
X1996003Y3790695D01*
X1994187Y4607374D02*
G01*
X1993900Y4742179D01*
D11*
X1674393Y2699207D02*
G01*
X1674393Y2819941D01*
X1624329Y2870004D01*
X1574292Y2699257D02*
G01*
X1575054Y2819400D01*
X1624329Y2868676D01*
X1124457Y3249168D02*
G01*
X1589531Y3249168D01*
X1624329Y3211829D01*
X1624329Y2699257D01*
X2540000Y1625600D02*
G01*
X2540000Y889000D01*
D10*
X812800Y5080000D02*
G01*
X1282700Y5080000D01*
X1993900Y5080000D01*
D11*
X1474470Y3549142D02*
G01*
X1474470Y3671570D01*
X1524000Y3721100D01*
X1524000Y3790695D01*
X1124407Y2849194D02*
G01*
X1033094Y2849194D01*
X1003300Y2819400D01*
X1003300Y889000D01*
D10*
X1993900Y5080000D02*
G01*
X3987800Y5080000D01*
D11*
X806604Y3492500D02*
G01*
X812800Y3498695D01*
X812800Y3581400D01*
D10*
X4826000Y5078498D02*
G01*
X4827501Y5080000D01*
X5664200Y5080000D01*
D11*
X5664200Y2501900D02*
G01*
X5384800Y2502154D01*
X5664200Y3594100D02*
G01*
X5384800Y3594100D01*
D10*
X4826000Y5078476D02*
G01*
X3987800Y5080000D01*
D11*
X5088915Y1981200D02*
G01*
X4940300Y1981200D01*
X5088915Y3860800D02*
G01*
X4940300Y3860800D01*
X5248909Y3860800D02*
G01*
X5248909Y3374389D01*
X5283200Y3340100D01*
X5384800Y3340100D01*
X5248909Y1981200D02*
G01*
X5248909Y2213610D01*
X5283200Y2247900D01*
X5384800Y2248154D01*
X3302000Y1168400D02*
G01*
X3302000Y889000D01*
X3048000Y1320800D02*
G01*
X3048000Y889000D01*
X2794000Y1473200D02*
G01*
X2794000Y889000D01*
X1124407Y3049193D02*
G01*
X1421206Y3049193D01*
X1447800Y3022600D01*
X1124409Y2899209D02*
G01*
X1266390Y2899209D01*
X1320800Y2844800D01*
X1124407Y2949194D02*
G01*
X1318005Y2949194D01*
X1346200Y2921000D01*
X1124409Y2999209D02*
G01*
X1369590Y2999209D01*
X1422400Y2946400D01*
X3810000Y508000D02*
G01*
X3810000Y889000D01*
X1274396Y2699209D02*
G01*
X1270000Y2694812D01*
X1270000Y508000D01*
X537210Y2933700D02*
G01*
X541020Y2929889D01*
X736600Y2929889D01*
X387197Y2755900D02*
G01*
X377215Y2765882D01*
X377215Y2933700D01*
X495300Y3346297D02*
G01*
X520700Y3346297D01*
X520700Y3111500D01*
X530100Y3102099D01*
X594740Y3102099D01*
X377217Y2933700D02*
G01*
X342900Y2933700D01*
X342900Y3175000D01*
X364997Y3197097D01*
X421259Y3197097D01*
X736600Y3089882D02*
G01*
X724380Y3102102D01*
X594740Y3102102D01*
X1124457Y3249168D02*
G01*
X979931Y3249168D01*
X876300Y3352800D01*
X806704Y3352800D01*
X1124407Y3099206D02*
G01*
X927506Y3099206D01*
X758189Y2929889D01*
X736600Y2929889D01*
X1124407Y3149193D02*
G01*
X913993Y3149193D01*
X854684Y3089884D01*
X736600Y3089884D01*
X806602Y3352800D02*
G01*
X806602Y3492497D01*
X806604Y3492500D01*
X1124407Y3299205D02*
G01*
X1044194Y3299205D01*
X1003300Y3340100D01*
X1124409Y3399203D02*
G01*
X1045796Y3399203D01*
X1003300Y3441700D01*
X1374396Y3549190D02*
G01*
X1374396Y3644900D01*
X1228498Y3790797D01*
X1181100Y3790797D01*
X2612390Y3403600D02*
G01*
X2612390Y3399789D01*
X2527300Y3314700D01*
X2298700Y3314700D01*
X2083308Y3099307D01*
X1974341Y3099307D01*
X2612390Y3175000D02*
G01*
X2612390Y3178810D01*
X2527300Y3263900D01*
X2324100Y3263900D01*
X2109470Y3049270D01*
X1974341Y3049270D01*
X2501900Y3759200D02*
G01*
X2612392Y3759200D01*
X1974392Y3299205D02*
G01*
X2082800Y3299205D01*
X2959100Y3166110D02*
G01*
X2962909Y3166110D01*
X3048000Y3251200D01*
X3073400Y3251200D01*
X3143097Y3181502D01*
X3143097Y3175000D01*
X2959100Y3412515D02*
G01*
X2962884Y3412515D01*
X3048000Y3327400D01*
X3073400Y3327400D01*
X3143097Y3397097D01*
X3143097Y3403600D01*
X3136900Y2985007D02*
G01*
X2959100Y2985007D01*
X2959100Y3006089D01*
X3136900Y3581400D02*
G01*
X3136900Y3759200D01*
X3143097Y3759200D01*
X3136900Y3581400D02*
G01*
X2959100Y3581400D01*
X2959100Y3572510D01*
X2762402Y2298700D02*
G01*
X2854665Y2298700D01*
X2854665Y2298700D02*
G01*
X2955290Y2298700D01*
X3283102Y3403600D02*
G01*
X3283102Y3397097D01*
X3365500Y3314700D01*
X3911600Y3314700D01*
X4000500Y3225800D01*
X4076700Y3225800D01*
X4165600Y3136900D01*
X4165600Y2858305D01*
X4292803Y2731101D01*
X3283102Y3175000D02*
G01*
X3283102Y3181502D01*
X3365500Y3263900D01*
X3887005Y3263900D01*
X4038803Y3112101D01*
X2772382Y3403600D02*
G01*
X2848582Y3327400D01*
X2873982Y3327400D01*
X2959100Y3412517D01*
X2772409Y3175000D02*
G01*
X2848609Y3251200D01*
X2874009Y3251200D01*
X2959100Y3166110D01*
X2955317Y2590800D02*
G01*
X3044217Y2679700D01*
X3963205Y2679700D01*
X4038803Y2604101D01*
X2955290Y2819400D02*
G01*
X3044190Y2730500D01*
X4102100Y2730500D01*
X4292854Y2539745D01*
X4292854Y2477007D01*
X2612392Y2819400D02*
G01*
X2523492Y2730500D01*
X2286000Y2730500D01*
X2117290Y2899209D01*
X1974390Y2899209D01*
X2612392Y2590800D02*
G01*
X2523492Y2679700D01*
X2260600Y2679700D01*
X2091108Y2849196D01*
X1974390Y2849196D01*
X2772382Y2819400D02*
G01*
X2863824Y2727939D01*
X2955292Y2819400D01*
X2955317Y2590800D02*
G01*
X2866417Y2679700D01*
X2861282Y2679700D01*
X2772382Y2590800D01*
X4149092Y5372100D02*
G01*
X3987787Y5372100D01*
X4314093Y5575300D02*
G01*
X4309082Y5570288D01*
X4309082Y5372100D01*
D12*
G01*
X2133600Y3930802D03*
G01*
X2133600Y3790797D03*
D13*
G01*
X4622800Y4147921D03*
D14*
G01*
X4622796Y3954673D03*
D13*
G01*
X1993900Y4935321D03*
D14*
G01*
X1993896Y4742073D03*
D15*
G01*
X5248909Y3860800D03*
G01*
X5088915Y3860800D03*
G01*
X5248909Y1981200D03*
G01*
X5088915Y1981200D03*
D16*
G01*
X421259Y3197097D03*
G01*
X421259Y3102102D03*
G01*
X594740Y3102102D03*
G01*
X594740Y3197097D03*
D12*
G01*
X1866900Y3930802D03*
G01*
X1866900Y3790797D03*
G01*
X1727200Y3930802D03*
G01*
X1727200Y3790797D03*
G01*
X1524000Y3930802D03*
G01*
X1524000Y3790797D03*
G01*
X1384300Y3930802D03*
G01*
X1384300Y3790797D03*
G01*
X1181100Y3930802D03*
G01*
X1181100Y3790797D03*
D17*
G01*
X666597Y3492500D03*
G01*
X806602Y3492500D03*
G01*
X666597Y3352800D03*
G01*
X806602Y3352800D03*
D18*
G01*
X736600Y2929889D03*
G01*
X736600Y3089884D03*
D17*
G01*
X527202Y2755900D03*
G01*
X387197Y2755900D03*
D15*
G01*
X537210Y2933700D03*
G01*
X377215Y2933700D03*
D12*
G01*
X495300Y3486302D03*
G01*
X495300Y3346297D03*
D17*
G01*
X2343302Y3505200D03*
G01*
X2203297Y3505200D03*
D15*
G01*
X2612390Y3759200D03*
G01*
X2772384Y3759200D03*
D17*
G01*
X2343302Y3644900D03*
G01*
X2203297Y3644900D03*
D15*
G01*
X2612390Y3175000D03*
G01*
X2772384Y3175000D03*
G01*
X2612390Y3403600D03*
G01*
X2772384Y3403600D03*
D17*
G01*
X2394102Y2997200D03*
G01*
X2254097Y2997200D03*
D15*
G01*
X4149090Y5372100D03*
G01*
X4309084Y5372100D03*
D19*
G01*
X4144086Y5575300D03*
G01*
X4314088Y5575300D03*
D15*
G01*
X2612390Y2819400D03*
G01*
X2772384Y2819400D03*
G01*
X2612390Y2590800D03*
G01*
X2772384Y2590800D03*
G01*
X2955290Y2819400D03*
G01*
X3115284Y2819400D03*
G01*
X3115309Y2590800D03*
G01*
X2955315Y2590800D03*
G01*
X2955290Y2298700D03*
G01*
X3115284Y2298700D03*
D17*
G01*
X2762402Y2298700D03*
G01*
X2622397Y2298700D03*
G01*
X3283102Y3175000D03*
G01*
X3143097Y3175000D03*
G01*
X3283102Y3403600D03*
G01*
X3143097Y3403600D03*
D18*
G01*
X2959100Y3572510D03*
G01*
X2959100Y3412515D03*
G01*
X2959100Y3166110D03*
G01*
X2959100Y3006115D03*
D17*
G01*
X3143097Y3759200D03*
G01*
X3283102Y3759200D03*
D20*
G01*
X1974392Y2849194D03*
G01*
X1974392Y2899206D03*
G01*
X1974392Y2949194D03*
G01*
X1974392Y2999206D03*
G01*
X1974392Y3049193D03*
G01*
X1974392Y3099206D03*
G01*
X1974392Y3149193D03*
G01*
X1974392Y3199206D03*
G01*
X1974392Y3249193D03*
G01*
X1974392Y3299205D03*
G01*
X1974392Y3349193D03*
G01*
X1974392Y3399205D03*
D21*
G01*
X1824405Y3549192D03*
G01*
X1774393Y3549192D03*
G01*
X1724405Y3549192D03*
G01*
X1674393Y3549192D03*
G01*
X1624406Y3549192D03*
G01*
X1574393Y3549192D03*
G01*
X1524406Y3549192D03*
G01*
X1474393Y3549192D03*
G01*
X1424406Y3549192D03*
G01*
X1374394Y3549192D03*
G01*
X1324406Y3549192D03*
G01*
X1274394Y3549192D03*
D20*
G01*
X1124407Y3399205D03*
G01*
X1124407Y3349193D03*
G01*
X1124407Y3299205D03*
G01*
X1124407Y3249193D03*
G01*
X1124407Y3199206D03*
G01*
X1124407Y3149193D03*
G01*
X1124407Y3099206D03*
G01*
X1124407Y3049193D03*
G01*
X1124407Y2999206D03*
G01*
X1124407Y2949194D03*
G01*
X1124407Y2899206D03*
G01*
X1124407Y2849194D03*
D21*
G01*
X1274394Y2699207D03*
G01*
X1324406Y2699207D03*
G01*
X1374394Y2699207D03*
G01*
X1424406Y2699207D03*
G01*
X1474393Y2699207D03*
G01*
X1524406Y2699207D03*
G01*
X1574393Y2699207D03*
G01*
X1624406Y2699207D03*
G01*
X1674393Y2699207D03*
G01*
X1724405Y2699207D03*
G01*
X1774393Y2699207D03*
G01*
X1824405Y2699207D03*
D22*
G01*
X999997Y6041999D03*
G01*
X10884001Y6041999D03*
G01*
X1499996Y-6241999D03*
G01*
X10384002Y-6241999D03*
D23*
G01*
X381000Y5461000D03*
G01*
X5461000Y5461000D03*
G01*
X5461000Y381000D03*
G01*
X381000Y381000D03*
D24*
G01*
X2032000Y889000D03*
G01*
X2286000Y889000D03*
G01*
X2540000Y889000D03*
G01*
X2794000Y889000D03*
G01*
X3048000Y889000D03*
G01*
X3302000Y889000D03*
G01*
X3556000Y889000D03*
G01*
X3810000Y889000D03*
D25*
G01*
X4622800Y2146604D03*
G01*
X4622800Y3695598D03*
D26*
G01*
X4292803Y2985109D03*
G01*
X4292803Y3239109D03*
G01*
X4292803Y2731109D03*
G01*
X4292803Y2477109D03*
G01*
X4038803Y2858109D03*
G01*
X4038803Y3112109D03*
G01*
X4038803Y3366109D03*
G01*
X4038803Y2604109D03*
D27*
G01*
X5384800Y2502103D03*
G01*
X5384800Y3340100D03*
G01*
X5384800Y2248103D03*
G01*
X5384800Y3594100D03*
D28*
G01*
X4826000Y5588000D03*
G01*
X4826000Y5334000D03*
G01*
X4572000Y5334000D03*
G01*
X4572000Y5588000D03*
D29*
G01*
X3987800Y5080000D03*
G01*
X3987800Y5372100D03*
G01*
X4826000Y5078501D03*
G01*
X2247900Y2882900D03*
G01*
X2854655Y2298700D03*
G01*
X3136900Y2985109D03*
G01*
X3136900Y3581400D03*
G01*
X3238500Y2590800D03*
G01*
X3238500Y2819400D03*
G01*
X2092807Y3299205D03*
G01*
X2501900Y3759200D03*
G01*
X2324100Y3086100D03*
G01*
X2463800Y3505200D03*
G01*
X1003300Y3340100D03*
G01*
X1003300Y3441700D03*
G01*
X1003300Y889000D03*
G01*
X1270000Y508000D03*
G01*
X3810000Y508000D03*
G01*
X1447800Y3022600D03*
G01*
X1422400Y2946400D03*
G01*
X1346200Y2921000D03*
G01*
X1320800Y2844800D03*
G01*
X2540000Y1625600D03*
G01*
X2794000Y1473200D03*
G01*
X3048000Y1320800D03*
G01*
X3302000Y1168400D03*
G01*
X4940300Y3860800D03*
G01*
X4940300Y1981200D03*
G01*
X5664200Y5080000D03*
G01*
X5664200Y3594100D03*
G01*
X5664200Y2501900D03*
G01*
X812800Y3581400D03*
G01*
X1282700Y3860800D03*
G01*
X1917700Y3517900D03*
G01*
X812800Y5080000D03*
G01*
X457200Y3035300D03*
G01*
X685800Y3225800D03*
G01*
X381000Y3276600D03*
G01*
X1003300Y3022600D03*
G01*
X1996008Y3790695D03*
G01*
X2463800Y3124200D03*
G01*
X1993900Y4000500D03*
G01*
X3115309Y2438196D03*
M02*
