G04 Layer: TopSilkscreenLayer*
G04 EasyEDA v6.5.29, 2023-07-09 11:22:14*
G04 5cd97f88b86b4258a1a04743607231bc,5a6b42c53f6a479593ecc07194224c93,10*
G04 Gerber Generator version 0.2*
G04 Scale: 100 percent, Rotated: No, Reflected: No *
G04 Dimensions in millimeters *
G04 leading zeros omitted , absolute positions ,4 integer and 5 decimal *
%FSLAX45Y45*%
%MOMM*%

%ADD10C,0.2000*%
%ADD11C,0.1524*%
%ADD12C,0.2540*%
%ADD13C,0.1500*%

%LPD*%
D10*
X718565Y9942829D02*
G01*
X627887Y9942829D01*
X618744Y9860787D01*
X627887Y9869931D01*
X655065Y9879076D01*
X682244Y9879076D01*
X709676Y9869931D01*
X727710Y9851897D01*
X736854Y9824465D01*
X736854Y9806431D01*
X727710Y9779000D01*
X709676Y9760965D01*
X682244Y9751821D01*
X655065Y9751821D01*
X627887Y9760965D01*
X618744Y9770110D01*
X609600Y9788144D01*
X796797Y9942829D02*
G01*
X869695Y9751821D01*
X942339Y9942829D02*
G01*
X869695Y9751821D01*
X830834Y9081770D02*
G01*
X921512Y9081770D01*
X930655Y9163812D01*
X921512Y9154668D01*
X894334Y9145524D01*
X867155Y9145524D01*
X839723Y9154668D01*
X821689Y9172702D01*
X812545Y9200134D01*
X812545Y9218168D01*
X821689Y9245600D01*
X839723Y9263634D01*
X867155Y9272778D01*
X894334Y9272778D01*
X921512Y9263634D01*
X930655Y9254489D01*
X939800Y9236455D01*
X752602Y9081770D02*
G01*
X679704Y9272778D01*
X607060Y9081770D02*
G01*
X679704Y9272778D01*
D11*
X1518665Y9930637D02*
G01*
X1518665Y9857994D01*
X1514094Y9844278D01*
X1509521Y9839705D01*
X1500378Y9835134D01*
X1491487Y9835134D01*
X1482344Y9839705D01*
X1477771Y9844278D01*
X1473200Y9857994D01*
X1473200Y9867137D01*
X1548637Y9912604D02*
G01*
X1557781Y9917176D01*
X1571497Y9930637D01*
X1571497Y9835134D01*
X108965Y9917937D02*
G01*
X108965Y9845294D01*
X104394Y9831578D01*
X99821Y9827005D01*
X90678Y9822434D01*
X81787Y9822434D01*
X72644Y9827005D01*
X68071Y9831578D01*
X63500Y9845294D01*
X63500Y9854437D01*
X143510Y9895331D02*
G01*
X143510Y9899904D01*
X148081Y9908794D01*
X152654Y9913365D01*
X161797Y9917937D01*
X179831Y9917937D01*
X188976Y9913365D01*
X193547Y9908794D01*
X198120Y9899904D01*
X198120Y9890760D01*
X193547Y9881615D01*
X184404Y9867900D01*
X138937Y9822434D01*
X202692Y9822434D01*
X419100Y9460737D02*
G01*
X419100Y9365234D01*
X419100Y9460737D02*
G01*
X459994Y9460737D01*
X473710Y9456165D01*
X478281Y9451594D01*
X482854Y9442704D01*
X482854Y9433560D01*
X478281Y9424415D01*
X473710Y9419844D01*
X459994Y9415271D01*
X419100Y9415271D01*
X450850Y9415271D02*
G01*
X482854Y9365234D01*
X512826Y9442704D02*
G01*
X521715Y9447276D01*
X535431Y9460737D01*
X535431Y9365234D01*
X419100Y9663937D02*
G01*
X419100Y9568434D01*
X419100Y9663937D02*
G01*
X450850Y9663937D01*
X464565Y9659365D01*
X473710Y9650476D01*
X478281Y9641331D01*
X482854Y9627615D01*
X482854Y9605010D01*
X478281Y9591294D01*
X473710Y9582150D01*
X464565Y9573005D01*
X450850Y9568434D01*
X419100Y9568434D01*
X512826Y9645904D02*
G01*
X521715Y9650476D01*
X535431Y9663937D01*
X535431Y9568434D01*
D12*
X619638Y9330187D02*
G01*
X619638Y9490191D01*
X929695Y9330697D02*
G01*
X929695Y9490702D01*
X744634Y9490191D02*
G01*
X619638Y9490191D01*
X744634Y9330187D02*
G01*
X619638Y9330187D01*
X804692Y9490702D02*
G01*
X929695Y9490702D01*
X804692Y9330697D02*
G01*
X929695Y9330697D01*
D13*
X791700Y9614123D02*
G01*
X757699Y9614123D01*
X599694Y9578896D02*
G01*
X599694Y9568893D01*
X629688Y9538891D01*
X814694Y9688898D02*
G01*
X929695Y9688898D01*
X814694Y9538891D02*
G01*
X929695Y9538891D01*
X734695Y9688898D02*
G01*
X629688Y9688898D01*
X734695Y9538891D02*
G01*
X629688Y9538891D01*
X929695Y9688885D02*
G01*
X929695Y9540895D01*
X599694Y9648888D02*
G01*
X599694Y9578896D01*
X599694Y9648888D02*
G01*
X599694Y9658903D01*
X629688Y9688898D01*
X791700Y9648896D02*
G01*
X791700Y9580897D01*
D12*
X1143000Y9779000D02*
G01*
X1651000Y9779000D01*
X1651000Y9271000D01*
X1143000Y9271000D01*
X1143000Y9779000D01*
X0Y9779000D02*
G01*
X254000Y9779000D01*
X254000Y9271000D01*
X0Y9271000D01*
X0Y9779000D01*
M02*
