G04 Layer: BottomLayer*
G04 EasyEDA v6.5.34, 2023-09-11 23:55:01*
G04 0142af5b8bed46c8af125076436406b4,5a6b42c53f6a479593ecc07194224c93,10*
G04 Gerber Generator version 0.2*
G04 Scale: 100 percent, Rotated: No, Reflected: No *
G04 Dimensions in millimeters *
G04 leading zeros omitted , absolute positions ,4 integer and 5 decimal *
%FSLAX45Y45*%
%MOMM*%

%ADD10C,0.2540*%
%ADD11C,5.0000*%
%ADD12C,1.8000*%
%ADD13C,2.0000*%
%ADD14C,0.6096*%
%ADD15C,0.0155*%

%LPD*%
G36*
X5805932Y25908D02*
G01*
X36068Y26416D01*
X32156Y27178D01*
X28905Y29362D01*
X26670Y32664D01*
X25908Y36576D01*
X25908Y5805932D01*
X26670Y5809792D01*
X28905Y5813094D01*
X32156Y5815330D01*
X36068Y5816092D01*
X5805932Y5816092D01*
X5809792Y5815330D01*
X5813094Y5813094D01*
X5815330Y5809792D01*
X5816092Y5805932D01*
X5816092Y36068D01*
X5815330Y32156D01*
X5813094Y28905D01*
X5809792Y26670D01*
G37*

%LPC*%
G36*
X4584700Y5600700D02*
G01*
X4687112Y5600700D01*
X4686960Y5602528D01*
X4684268Y5616803D01*
X4679746Y5630672D01*
X4673549Y5643829D01*
X4665776Y5656122D01*
X4656480Y5667349D01*
X4645863Y5677306D01*
X4634077Y5685840D01*
X4621326Y5692851D01*
X4607814Y5698236D01*
X4593691Y5701842D01*
X4584700Y5702960D01*
G37*
G36*
X5473700Y105562D02*
G01*
X5478322Y105664D01*
X5501284Y108051D01*
X5523992Y112369D01*
X5546242Y118618D01*
X5567883Y126644D01*
X5588812Y136499D01*
X5608828Y148031D01*
X5627776Y161239D01*
X5645607Y175971D01*
X5662117Y192125D01*
X5677204Y209600D01*
X5690819Y228295D01*
X5702757Y248107D01*
X5713018Y268782D01*
X5721553Y290271D01*
X5728208Y312369D01*
X5733034Y334975D01*
X5735929Y357886D01*
X5736336Y368300D01*
X5473700Y368300D01*
G37*
G36*
X5448300Y105613D02*
G01*
X5448300Y368300D01*
X5185410Y368300D01*
X5187289Y346405D01*
X5191099Y323646D01*
X5196890Y301244D01*
X5204460Y279450D01*
X5213858Y258317D01*
X5224983Y238099D01*
X5237784Y218846D01*
X5252161Y200710D01*
X5267960Y183896D01*
X5285130Y168402D01*
X5303520Y154432D01*
X5323027Y142036D01*
X5343499Y131368D01*
X5364835Y122377D01*
X5386781Y115265D01*
X5409285Y109982D01*
X5432145Y106629D01*
G37*
G36*
X368300Y105613D02*
G01*
X368300Y368300D01*
X105410Y368300D01*
X107289Y346405D01*
X111099Y323646D01*
X116890Y301244D01*
X124460Y279450D01*
X133858Y258317D01*
X144983Y238099D01*
X157784Y218846D01*
X172161Y200710D01*
X187960Y183896D01*
X205130Y168402D01*
X223520Y154432D01*
X243027Y142036D01*
X263499Y131368D01*
X284835Y122377D01*
X306781Y115265D01*
X329285Y109982D01*
X352145Y106629D01*
G37*
G36*
X5473700Y393700D02*
G01*
X5736336Y393700D01*
X5735929Y404063D01*
X5733034Y427024D01*
X5728208Y449630D01*
X5721553Y471728D01*
X5713018Y493217D01*
X5702757Y513892D01*
X5690819Y533654D01*
X5677204Y552348D01*
X5662117Y569874D01*
X5645607Y586028D01*
X5627776Y600760D01*
X5608828Y613968D01*
X5588812Y625500D01*
X5567883Y635355D01*
X5546242Y643382D01*
X5523992Y649630D01*
X5501284Y653948D01*
X5478322Y656336D01*
X5473700Y656437D01*
G37*
G36*
X393700Y393700D02*
G01*
X656336Y393700D01*
X655929Y404063D01*
X653034Y427024D01*
X648208Y449630D01*
X641553Y471728D01*
X633018Y493217D01*
X622757Y513892D01*
X610819Y533654D01*
X597204Y552348D01*
X582117Y569874D01*
X565607Y586028D01*
X547776Y600760D01*
X528828Y613968D01*
X508812Y625500D01*
X487883Y635355D01*
X466242Y643382D01*
X443992Y649630D01*
X421284Y653948D01*
X398322Y656336D01*
X393700Y656437D01*
G37*
G36*
X105410Y393700D02*
G01*
X368300Y393700D01*
X368300Y656386D01*
X352145Y655370D01*
X329285Y652018D01*
X306781Y646734D01*
X284835Y639572D01*
X263499Y630631D01*
X243027Y619912D01*
X223520Y607568D01*
X205130Y593598D01*
X187960Y578104D01*
X172161Y561289D01*
X157784Y543153D01*
X144983Y523900D01*
X133858Y503682D01*
X124460Y482549D01*
X116890Y460756D01*
X111099Y438353D01*
X107289Y415594D01*
G37*
G36*
X5185410Y393700D02*
G01*
X5448300Y393700D01*
X5448300Y656386D01*
X5432145Y655370D01*
X5409285Y652018D01*
X5386781Y646734D01*
X5364835Y639572D01*
X5343499Y630631D01*
X5323027Y619912D01*
X5303520Y607568D01*
X5285130Y593598D01*
X5267960Y578104D01*
X5252161Y561289D01*
X5237784Y543153D01*
X5224983Y523900D01*
X5213858Y503682D01*
X5204460Y482549D01*
X5196890Y460756D01*
X5191099Y438353D01*
X5187289Y415594D01*
G37*
G36*
X2197709Y999032D02*
G01*
X2211527Y999896D01*
X2225090Y1002639D01*
X2238197Y1007059D01*
X2250643Y1013206D01*
X2262124Y1020876D01*
X2272538Y1030020D01*
X2281682Y1040434D01*
X2289403Y1051966D01*
X2295499Y1064361D01*
X2299970Y1077518D01*
X2302662Y1091082D01*
X2303576Y1104900D01*
X2302662Y1118717D01*
X2299970Y1132281D01*
X2295499Y1145438D01*
X2289403Y1157833D01*
X2281682Y1169365D01*
X2272538Y1179779D01*
X2262124Y1188923D01*
X2250643Y1196594D01*
X2238197Y1202740D01*
X2225090Y1207160D01*
X2211527Y1209903D01*
X2197709Y1210767D01*
X2183841Y1209903D01*
X2170277Y1207160D01*
X2157171Y1202740D01*
X2144725Y1196594D01*
X2133244Y1188923D01*
X2122830Y1179779D01*
X2113686Y1169365D01*
X2105964Y1157833D01*
X2099868Y1145438D01*
X2095398Y1132281D01*
X2092706Y1118717D01*
X2091791Y1104900D01*
X2092706Y1091082D01*
X2095398Y1077518D01*
X2099868Y1064361D01*
X2105964Y1051966D01*
X2113686Y1040434D01*
X2122830Y1030020D01*
X2133244Y1020876D01*
X2144725Y1013206D01*
X2157171Y1007059D01*
X2170277Y1002639D01*
X2183841Y999896D01*
G37*
G36*
X2610104Y999032D02*
G01*
X2623921Y999896D01*
X2637485Y1002639D01*
X2650642Y1007059D01*
X2663037Y1013206D01*
X2674569Y1020876D01*
X2684983Y1030020D01*
X2694127Y1040434D01*
X2701798Y1051966D01*
X2707944Y1064361D01*
X2712364Y1077518D01*
X2715107Y1091082D01*
X2715971Y1104900D01*
X2715107Y1118717D01*
X2712364Y1132281D01*
X2707944Y1145438D01*
X2701798Y1157833D01*
X2694127Y1169365D01*
X2684983Y1179779D01*
X2674569Y1188923D01*
X2663037Y1196594D01*
X2650642Y1202740D01*
X2637485Y1207160D01*
X2623921Y1209903D01*
X2610104Y1210767D01*
X2596286Y1209903D01*
X2582722Y1207160D01*
X2569565Y1202740D01*
X2557170Y1196594D01*
X2545638Y1188923D01*
X2535224Y1179779D01*
X2526080Y1169365D01*
X2518410Y1157833D01*
X2512263Y1145438D01*
X2507843Y1132281D01*
X2505100Y1118717D01*
X2504236Y1104900D01*
X2505100Y1091082D01*
X2507843Y1077518D01*
X2512263Y1064361D01*
X2518410Y1051966D01*
X2526080Y1040434D01*
X2535224Y1030020D01*
X2545638Y1020876D01*
X2557170Y1013206D01*
X2569565Y1007059D01*
X2582722Y1002639D01*
X2596286Y999896D01*
G37*
G36*
X710488Y999032D02*
G01*
X724306Y999896D01*
X737870Y1002639D01*
X751027Y1007059D01*
X763422Y1013206D01*
X774954Y1020876D01*
X785368Y1030020D01*
X794512Y1040434D01*
X802182Y1051966D01*
X808329Y1064361D01*
X812749Y1077518D01*
X815492Y1091082D01*
X816356Y1104900D01*
X815492Y1118717D01*
X812749Y1132281D01*
X808329Y1145438D01*
X802182Y1157833D01*
X794512Y1169365D01*
X785368Y1179779D01*
X774954Y1188923D01*
X763422Y1196594D01*
X751027Y1202740D01*
X737870Y1207160D01*
X724306Y1209903D01*
X710488Y1210767D01*
X696671Y1209903D01*
X683107Y1207160D01*
X669950Y1202740D01*
X657555Y1196594D01*
X646023Y1188923D01*
X635609Y1179779D01*
X626465Y1169365D01*
X618794Y1157833D01*
X612648Y1145438D01*
X608228Y1132281D01*
X605485Y1118717D01*
X604621Y1104900D01*
X605485Y1091082D01*
X608228Y1077518D01*
X612648Y1064361D01*
X618794Y1051966D01*
X626465Y1040434D01*
X635609Y1030020D01*
X646023Y1020876D01*
X657555Y1013206D01*
X669950Y1007059D01*
X683107Y1002639D01*
X696671Y999896D01*
G37*
G36*
X5131308Y999032D02*
G01*
X5145125Y999896D01*
X5158689Y1002639D01*
X5171795Y1007059D01*
X5184241Y1013206D01*
X5195722Y1020876D01*
X5206136Y1030020D01*
X5215280Y1040434D01*
X5223002Y1051966D01*
X5229098Y1064361D01*
X5233568Y1077518D01*
X5236260Y1091082D01*
X5237175Y1104900D01*
X5236260Y1118717D01*
X5233568Y1132281D01*
X5229098Y1145438D01*
X5223002Y1157833D01*
X5215280Y1169365D01*
X5206136Y1179779D01*
X5195722Y1188923D01*
X5184241Y1196594D01*
X5171795Y1202740D01*
X5158689Y1207160D01*
X5145125Y1209903D01*
X5131308Y1210767D01*
X5117439Y1209903D01*
X5103876Y1207160D01*
X5090769Y1202740D01*
X5078323Y1196594D01*
X5066842Y1188923D01*
X5056428Y1179779D01*
X5047284Y1169365D01*
X5039563Y1157833D01*
X5033467Y1145438D01*
X5028996Y1132281D01*
X5026304Y1118717D01*
X5025390Y1104900D01*
X5026304Y1091082D01*
X5028996Y1077518D01*
X5033467Y1064361D01*
X5039563Y1051966D01*
X5047284Y1040434D01*
X5056428Y1030020D01*
X5066842Y1020876D01*
X5078323Y1013206D01*
X5090769Y1007059D01*
X5103876Y1002639D01*
X5117439Y999896D01*
G37*
G36*
X1073099Y1204010D02*
G01*
X1088237Y1204925D01*
X1103223Y1207668D01*
X1117701Y1212189D01*
X1131570Y1218438D01*
X1144574Y1226312D01*
X1156563Y1235659D01*
X1167333Y1246428D01*
X1176680Y1258417D01*
X1184554Y1271422D01*
X1190802Y1285341D01*
X1193038Y1288491D01*
X1196289Y1290574D01*
X1200099Y1291336D01*
X1203858Y1290574D01*
X1207109Y1288491D01*
X1209344Y1285341D01*
X1215593Y1271422D01*
X1223467Y1258417D01*
X1232865Y1246428D01*
X1243584Y1235659D01*
X1255572Y1226312D01*
X1268577Y1218438D01*
X1282446Y1212189D01*
X1296974Y1207668D01*
X1311910Y1204925D01*
X1327099Y1204010D01*
X1342237Y1204925D01*
X1357223Y1207668D01*
X1371701Y1212189D01*
X1385570Y1218438D01*
X1398574Y1226312D01*
X1410563Y1235659D01*
X1421333Y1246428D01*
X1430680Y1258417D01*
X1438554Y1271422D01*
X1444802Y1285341D01*
X1447038Y1288491D01*
X1450289Y1290574D01*
X1454099Y1291336D01*
X1457858Y1290574D01*
X1461109Y1288491D01*
X1463344Y1285341D01*
X1469593Y1271422D01*
X1477467Y1258417D01*
X1486865Y1246428D01*
X1497584Y1235659D01*
X1509572Y1226312D01*
X1522577Y1218438D01*
X1536446Y1212189D01*
X1550974Y1207668D01*
X1565910Y1204925D01*
X1581099Y1204010D01*
X1596237Y1204925D01*
X1611223Y1207668D01*
X1625701Y1212189D01*
X1639570Y1218438D01*
X1652574Y1226312D01*
X1664563Y1235659D01*
X1675333Y1246428D01*
X1684680Y1258417D01*
X1692554Y1271422D01*
X1698802Y1285341D01*
X1701038Y1288491D01*
X1704289Y1290574D01*
X1708099Y1291336D01*
X1711858Y1290574D01*
X1715109Y1288491D01*
X1717344Y1285341D01*
X1723593Y1271422D01*
X1731467Y1258417D01*
X1740865Y1246428D01*
X1751584Y1235659D01*
X1763572Y1226312D01*
X1776577Y1218438D01*
X1790446Y1212189D01*
X1804974Y1207668D01*
X1819910Y1204925D01*
X1835099Y1204010D01*
X1850237Y1204925D01*
X1865223Y1207668D01*
X1879701Y1212189D01*
X1893570Y1218438D01*
X1906574Y1226312D01*
X1918563Y1235659D01*
X1929333Y1246428D01*
X1938680Y1258417D01*
X1946554Y1271422D01*
X1952802Y1285290D01*
X1957324Y1299768D01*
X1960067Y1314754D01*
X1960981Y1329893D01*
X1960067Y1345082D01*
X1957324Y1360017D01*
X1952802Y1374546D01*
X1946554Y1388414D01*
X1938680Y1401419D01*
X1929333Y1413408D01*
X1918563Y1424127D01*
X1906574Y1433525D01*
X1893570Y1441399D01*
X1879701Y1447596D01*
X1865223Y1452118D01*
X1850237Y1454861D01*
X1835099Y1455775D01*
X1819910Y1454861D01*
X1804974Y1452118D01*
X1790446Y1447596D01*
X1776577Y1441399D01*
X1763572Y1433525D01*
X1751584Y1424127D01*
X1740865Y1413408D01*
X1731467Y1401419D01*
X1723593Y1388414D01*
X1717344Y1374495D01*
X1715109Y1371346D01*
X1711858Y1369212D01*
X1708099Y1368501D01*
X1704289Y1369212D01*
X1701038Y1371346D01*
X1698802Y1374495D01*
X1692554Y1388414D01*
X1684680Y1401419D01*
X1675333Y1413408D01*
X1664563Y1424127D01*
X1652574Y1433525D01*
X1639570Y1441399D01*
X1625701Y1447596D01*
X1611223Y1452118D01*
X1596237Y1454861D01*
X1581099Y1455775D01*
X1565910Y1454861D01*
X1550974Y1452118D01*
X1536446Y1447596D01*
X1522577Y1441399D01*
X1509572Y1433525D01*
X1497584Y1424127D01*
X1486865Y1413408D01*
X1477467Y1401419D01*
X1469593Y1388414D01*
X1463344Y1374495D01*
X1461109Y1371346D01*
X1457858Y1369212D01*
X1454099Y1368501D01*
X1450289Y1369212D01*
X1447038Y1371346D01*
X1444802Y1374495D01*
X1438554Y1388414D01*
X1430680Y1401419D01*
X1421333Y1413408D01*
X1410563Y1424127D01*
X1398574Y1433525D01*
X1385570Y1441399D01*
X1371701Y1447596D01*
X1357223Y1452118D01*
X1342237Y1454861D01*
X1327099Y1455775D01*
X1311910Y1454861D01*
X1296974Y1452118D01*
X1282446Y1447596D01*
X1268577Y1441399D01*
X1255572Y1433525D01*
X1243584Y1424127D01*
X1232865Y1413408D01*
X1223467Y1401419D01*
X1215593Y1388414D01*
X1209344Y1374495D01*
X1207109Y1371346D01*
X1203858Y1369212D01*
X1200099Y1368501D01*
X1196289Y1369212D01*
X1193038Y1371346D01*
X1190802Y1374495D01*
X1184554Y1388414D01*
X1176680Y1401419D01*
X1167333Y1413408D01*
X1156563Y1424127D01*
X1144574Y1433525D01*
X1131570Y1441399D01*
X1117701Y1447596D01*
X1103223Y1452118D01*
X1088237Y1454861D01*
X1073099Y1455775D01*
X1057910Y1454861D01*
X1042974Y1452118D01*
X1028446Y1447596D01*
X1014577Y1441399D01*
X1001572Y1433525D01*
X989584Y1424127D01*
X978865Y1413408D01*
X969467Y1401419D01*
X961593Y1388414D01*
X955395Y1374546D01*
X950874Y1360017D01*
X948131Y1345082D01*
X947216Y1329893D01*
X948131Y1314754D01*
X950874Y1299768D01*
X955395Y1285290D01*
X961593Y1271422D01*
X969467Y1258417D01*
X978865Y1246428D01*
X989584Y1235659D01*
X1001572Y1226312D01*
X1014577Y1218438D01*
X1028446Y1212189D01*
X1042974Y1207668D01*
X1057910Y1204925D01*
G37*
G36*
X4456887Y5600700D02*
G01*
X4559300Y5600700D01*
X4559300Y5702960D01*
X4550308Y5701842D01*
X4536186Y5698236D01*
X4522673Y5692851D01*
X4509922Y5685840D01*
X4498136Y5677306D01*
X4487519Y5667349D01*
X4478223Y5656122D01*
X4470450Y5643829D01*
X4464253Y5630672D01*
X4459732Y5616803D01*
X4457039Y5602528D01*
G37*
G36*
X5185410Y5473700D02*
G01*
X5448300Y5473700D01*
X5448300Y5736386D01*
X5432145Y5735370D01*
X5409285Y5732018D01*
X5386781Y5726734D01*
X5364835Y5719572D01*
X5343499Y5710631D01*
X5323027Y5699912D01*
X5303520Y5687568D01*
X5285130Y5673598D01*
X5267960Y5658104D01*
X5252161Y5641289D01*
X5237784Y5623153D01*
X5224983Y5603900D01*
X5213858Y5583682D01*
X5204460Y5562549D01*
X5196890Y5540756D01*
X5191099Y5518353D01*
X5187289Y5495594D01*
G37*
G36*
X105410Y5473700D02*
G01*
X368300Y5473700D01*
X368300Y5736386D01*
X352145Y5735370D01*
X329285Y5732018D01*
X306781Y5726734D01*
X284835Y5719572D01*
X263499Y5710631D01*
X243027Y5699912D01*
X223520Y5687568D01*
X205130Y5673598D01*
X187960Y5658104D01*
X172161Y5641289D01*
X157784Y5623153D01*
X144983Y5603900D01*
X133858Y5583682D01*
X124460Y5562549D01*
X116890Y5540756D01*
X111099Y5518353D01*
X107289Y5495594D01*
G37*
G36*
X2981706Y1204010D02*
G01*
X2996895Y1204925D01*
X3011830Y1207668D01*
X3026359Y1212189D01*
X3040227Y1218438D01*
X3053232Y1226312D01*
X3065170Y1235659D01*
X3075940Y1246428D01*
X3085287Y1258366D01*
X3093161Y1271371D01*
X3099460Y1285290D01*
X3101644Y1288491D01*
X3104896Y1290574D01*
X3108706Y1291285D01*
X3112516Y1290574D01*
X3115767Y1288491D01*
X3117951Y1285290D01*
X3124250Y1271371D01*
X3132124Y1258366D01*
X3141472Y1246428D01*
X3152241Y1235659D01*
X3164179Y1226312D01*
X3177184Y1218438D01*
X3191052Y1212189D01*
X3205581Y1207668D01*
X3220516Y1204925D01*
X3235706Y1204010D01*
X3250895Y1204925D01*
X3265830Y1207668D01*
X3280359Y1212189D01*
X3294227Y1218438D01*
X3307232Y1226312D01*
X3319170Y1235659D01*
X3329940Y1246428D01*
X3339287Y1258366D01*
X3347161Y1271371D01*
X3353460Y1285290D01*
X3355644Y1288491D01*
X3358896Y1290574D01*
X3362706Y1291285D01*
X3366515Y1290574D01*
X3369767Y1288491D01*
X3371951Y1285290D01*
X3378250Y1271371D01*
X3386124Y1258366D01*
X3395472Y1246428D01*
X3406241Y1235659D01*
X3418179Y1226312D01*
X3431184Y1218438D01*
X3445052Y1212189D01*
X3459581Y1207668D01*
X3474516Y1204925D01*
X3489706Y1204010D01*
X3504895Y1204925D01*
X3519830Y1207668D01*
X3534359Y1212189D01*
X3548227Y1218438D01*
X3561232Y1226312D01*
X3573170Y1235659D01*
X3583940Y1246428D01*
X3593287Y1258366D01*
X3601161Y1271371D01*
X3607460Y1285290D01*
X3609644Y1288491D01*
X3612896Y1290574D01*
X3616706Y1291285D01*
X3620515Y1290574D01*
X3623767Y1288491D01*
X3625951Y1285290D01*
X3632250Y1271371D01*
X3640124Y1258366D01*
X3649472Y1246428D01*
X3660241Y1235659D01*
X3672179Y1226312D01*
X3685184Y1218438D01*
X3699052Y1212189D01*
X3713581Y1207668D01*
X3728516Y1204925D01*
X3743706Y1204010D01*
X3758895Y1204925D01*
X3773830Y1207668D01*
X3788359Y1212189D01*
X3802227Y1218438D01*
X3815232Y1226312D01*
X3827170Y1235659D01*
X3837940Y1246428D01*
X3847287Y1258366D01*
X3855161Y1271371D01*
X3861460Y1285290D01*
X3863644Y1288491D01*
X3866896Y1290574D01*
X3870706Y1291285D01*
X3874515Y1290574D01*
X3877767Y1288491D01*
X3879951Y1285290D01*
X3886250Y1271371D01*
X3894124Y1258366D01*
X3903472Y1246428D01*
X3914241Y1235659D01*
X3926179Y1226312D01*
X3939184Y1218438D01*
X3953052Y1212189D01*
X3967581Y1207668D01*
X3982516Y1204925D01*
X3997706Y1204010D01*
X4012895Y1204925D01*
X4027830Y1207668D01*
X4042359Y1212189D01*
X4056227Y1218438D01*
X4069232Y1226312D01*
X4081170Y1235659D01*
X4091940Y1246428D01*
X4101287Y1258366D01*
X4109161Y1271371D01*
X4115460Y1285290D01*
X4117644Y1288491D01*
X4120896Y1290574D01*
X4124706Y1291285D01*
X4128515Y1290574D01*
X4131767Y1288491D01*
X4133951Y1285290D01*
X4140250Y1271371D01*
X4148124Y1258366D01*
X4157472Y1246428D01*
X4168241Y1235659D01*
X4180179Y1226312D01*
X4193184Y1218438D01*
X4207052Y1212189D01*
X4221581Y1207668D01*
X4236516Y1204925D01*
X4251706Y1204010D01*
X4266895Y1204925D01*
X4281830Y1207668D01*
X4296359Y1212189D01*
X4310227Y1218438D01*
X4323232Y1226312D01*
X4335170Y1235659D01*
X4345940Y1246428D01*
X4355287Y1258366D01*
X4363161Y1271371D01*
X4369460Y1285290D01*
X4371644Y1288491D01*
X4374896Y1290574D01*
X4378706Y1291285D01*
X4382516Y1290574D01*
X4385767Y1288491D01*
X4387951Y1285290D01*
X4394250Y1271371D01*
X4402124Y1258366D01*
X4411472Y1246428D01*
X4422241Y1235659D01*
X4434179Y1226312D01*
X4447184Y1218438D01*
X4461052Y1212189D01*
X4475581Y1207668D01*
X4490516Y1204925D01*
X4505706Y1204010D01*
X4520895Y1204925D01*
X4535830Y1207668D01*
X4550359Y1212189D01*
X4564227Y1218438D01*
X4577232Y1226312D01*
X4589170Y1235659D01*
X4599940Y1246428D01*
X4609287Y1258366D01*
X4617161Y1271371D01*
X4623460Y1285290D01*
X4625644Y1288491D01*
X4628896Y1290574D01*
X4632706Y1291285D01*
X4636516Y1290574D01*
X4639767Y1288491D01*
X4641951Y1285290D01*
X4648250Y1271371D01*
X4656124Y1258366D01*
X4665472Y1246428D01*
X4676241Y1235659D01*
X4688179Y1226312D01*
X4701184Y1218438D01*
X4715052Y1212189D01*
X4729581Y1207668D01*
X4744516Y1204925D01*
X4759706Y1204010D01*
X4774895Y1204925D01*
X4789830Y1207668D01*
X4804359Y1212189D01*
X4818227Y1218438D01*
X4831232Y1226312D01*
X4843170Y1235659D01*
X4853940Y1246428D01*
X4863287Y1258366D01*
X4871161Y1271371D01*
X4877409Y1285240D01*
X4881930Y1299768D01*
X4884674Y1314704D01*
X4885588Y1329893D01*
X4884674Y1345082D01*
X4881930Y1360017D01*
X4877409Y1374546D01*
X4871161Y1388414D01*
X4863287Y1401419D01*
X4853940Y1413357D01*
X4843170Y1424127D01*
X4831232Y1433474D01*
X4818227Y1441348D01*
X4804359Y1447596D01*
X4789830Y1452118D01*
X4774895Y1454861D01*
X4759706Y1455775D01*
X4744516Y1454861D01*
X4729581Y1452118D01*
X4715052Y1447596D01*
X4701184Y1441348D01*
X4688179Y1433474D01*
X4676241Y1424127D01*
X4665472Y1413357D01*
X4656124Y1401419D01*
X4648250Y1388414D01*
X4641951Y1374495D01*
X4639767Y1371295D01*
X4636516Y1369212D01*
X4632706Y1368501D01*
X4628896Y1369212D01*
X4625644Y1371295D01*
X4623460Y1374495D01*
X4617161Y1388414D01*
X4609287Y1401419D01*
X4599940Y1413357D01*
X4589170Y1424127D01*
X4577232Y1433474D01*
X4564227Y1441348D01*
X4550359Y1447596D01*
X4535830Y1452118D01*
X4520895Y1454861D01*
X4505706Y1455775D01*
X4490516Y1454861D01*
X4475581Y1452118D01*
X4461052Y1447596D01*
X4447184Y1441348D01*
X4434179Y1433474D01*
X4422241Y1424127D01*
X4411472Y1413357D01*
X4402124Y1401419D01*
X4394250Y1388414D01*
X4387951Y1374495D01*
X4385767Y1371295D01*
X4382516Y1369212D01*
X4378706Y1368501D01*
X4374896Y1369212D01*
X4371644Y1371295D01*
X4369460Y1374495D01*
X4363161Y1388414D01*
X4355287Y1401419D01*
X4345940Y1413357D01*
X4335170Y1424127D01*
X4323232Y1433474D01*
X4310227Y1441348D01*
X4296359Y1447596D01*
X4281830Y1452118D01*
X4266895Y1454861D01*
X4251706Y1455775D01*
X4236516Y1454861D01*
X4221581Y1452118D01*
X4207052Y1447596D01*
X4193184Y1441348D01*
X4180179Y1433474D01*
X4168241Y1424127D01*
X4157472Y1413357D01*
X4148124Y1401419D01*
X4140250Y1388414D01*
X4133951Y1374495D01*
X4131767Y1371295D01*
X4128515Y1369212D01*
X4124706Y1368501D01*
X4120896Y1369212D01*
X4117644Y1371295D01*
X4115460Y1374495D01*
X4109161Y1388414D01*
X4101287Y1401419D01*
X4091940Y1413357D01*
X4081170Y1424127D01*
X4069232Y1433474D01*
X4056227Y1441348D01*
X4042359Y1447596D01*
X4027830Y1452118D01*
X4012895Y1454861D01*
X3997706Y1455775D01*
X3982516Y1454861D01*
X3967581Y1452118D01*
X3953052Y1447596D01*
X3939184Y1441348D01*
X3926179Y1433474D01*
X3914241Y1424127D01*
X3903472Y1413357D01*
X3894124Y1401419D01*
X3886250Y1388414D01*
X3879951Y1374495D01*
X3877767Y1371295D01*
X3874515Y1369212D01*
X3870706Y1368501D01*
X3866896Y1369212D01*
X3863644Y1371295D01*
X3861460Y1374495D01*
X3855161Y1388414D01*
X3847287Y1401419D01*
X3837940Y1413357D01*
X3827170Y1424127D01*
X3815232Y1433474D01*
X3802227Y1441348D01*
X3788359Y1447596D01*
X3773830Y1452118D01*
X3758895Y1454861D01*
X3743706Y1455775D01*
X3728516Y1454861D01*
X3713581Y1452118D01*
X3699052Y1447596D01*
X3685184Y1441348D01*
X3672179Y1433474D01*
X3660241Y1424127D01*
X3649472Y1413357D01*
X3640124Y1401419D01*
X3632250Y1388414D01*
X3625951Y1374495D01*
X3623767Y1371295D01*
X3620515Y1369212D01*
X3616706Y1368501D01*
X3612896Y1369212D01*
X3609644Y1371295D01*
X3607460Y1374495D01*
X3601161Y1388414D01*
X3593287Y1401419D01*
X3583940Y1413357D01*
X3573170Y1424127D01*
X3561232Y1433474D01*
X3548227Y1441348D01*
X3534359Y1447596D01*
X3519830Y1452118D01*
X3504895Y1454861D01*
X3489706Y1455775D01*
X3474516Y1454861D01*
X3459581Y1452118D01*
X3445052Y1447596D01*
X3431184Y1441348D01*
X3418179Y1433474D01*
X3406241Y1424127D01*
X3395472Y1413357D01*
X3386124Y1401419D01*
X3378250Y1388414D01*
X3371951Y1374495D01*
X3369767Y1371295D01*
X3366515Y1369212D01*
X3362706Y1368501D01*
X3358896Y1369212D01*
X3355644Y1371295D01*
X3353460Y1374495D01*
X3347161Y1388414D01*
X3339287Y1401419D01*
X3329940Y1413357D01*
X3319170Y1424127D01*
X3307232Y1433474D01*
X3294227Y1441348D01*
X3280359Y1447596D01*
X3265830Y1452118D01*
X3250895Y1454861D01*
X3235706Y1455775D01*
X3220516Y1454861D01*
X3205581Y1452118D01*
X3191052Y1447596D01*
X3177184Y1441348D01*
X3164179Y1433474D01*
X3152241Y1424127D01*
X3141472Y1413357D01*
X3132124Y1401419D01*
X3124250Y1388414D01*
X3117951Y1374495D01*
X3115767Y1371295D01*
X3112516Y1369212D01*
X3108706Y1368501D01*
X3104896Y1369212D01*
X3101644Y1371295D01*
X3099460Y1374495D01*
X3093161Y1388414D01*
X3085287Y1401419D01*
X3075940Y1413357D01*
X3065170Y1424127D01*
X3053232Y1433474D01*
X3040227Y1441348D01*
X3029102Y1446377D01*
X3025952Y1448612D01*
X3023819Y1451813D01*
X3023108Y1455623D01*
X3023108Y3142691D01*
X3023870Y3146602D01*
X3026105Y3149904D01*
X3027680Y3151479D01*
X3033318Y3159506D01*
X3037433Y3168446D01*
X3039973Y3177895D01*
X3040837Y3187700D01*
X3039973Y3197504D01*
X3037433Y3206953D01*
X3033318Y3215894D01*
X3027680Y3223920D01*
X3020720Y3230880D01*
X3012694Y3236518D01*
X3003753Y3240633D01*
X2994304Y3243173D01*
X2984500Y3244037D01*
X2974695Y3243173D01*
X2965246Y3240633D01*
X2956306Y3236518D01*
X2948279Y3230880D01*
X2941320Y3223920D01*
X2935681Y3215894D01*
X2931566Y3206953D01*
X2929026Y3197504D01*
X2928162Y3187700D01*
X2929026Y3177895D01*
X2931566Y3168446D01*
X2935681Y3159506D01*
X2941320Y3151479D01*
X2942894Y3149904D01*
X2945130Y3146602D01*
X2945892Y3142691D01*
X2945892Y1457807D01*
X2944977Y1453642D01*
X2942488Y1450238D01*
X2938780Y1448104D01*
X2937052Y1447596D01*
X2923184Y1441348D01*
X2910179Y1433474D01*
X2898241Y1424127D01*
X2887472Y1413357D01*
X2878124Y1401419D01*
X2870250Y1388414D01*
X2864002Y1374546D01*
X2859481Y1360017D01*
X2856738Y1345082D01*
X2855823Y1329893D01*
X2856738Y1314704D01*
X2859481Y1299768D01*
X2864002Y1285240D01*
X2870250Y1271371D01*
X2878124Y1258366D01*
X2887472Y1246428D01*
X2898241Y1235659D01*
X2910179Y1226312D01*
X2923184Y1218438D01*
X2937052Y1212189D01*
X2951581Y1207668D01*
X2966516Y1204925D01*
G37*
G36*
X393700Y5473700D02*
G01*
X656336Y5473700D01*
X655929Y5484063D01*
X653034Y5507024D01*
X648208Y5529630D01*
X641553Y5551728D01*
X633018Y5573217D01*
X622757Y5593892D01*
X610819Y5613654D01*
X597204Y5632348D01*
X582117Y5649874D01*
X565607Y5666028D01*
X547776Y5680760D01*
X528828Y5693968D01*
X508812Y5705500D01*
X487883Y5715355D01*
X466242Y5723382D01*
X443992Y5729630D01*
X421284Y5733948D01*
X398322Y5736336D01*
X393700Y5736437D01*
G37*
G36*
X5473700Y5473700D02*
G01*
X5736336Y5473700D01*
X5735929Y5484063D01*
X5733034Y5507024D01*
X5728208Y5529630D01*
X5721553Y5551728D01*
X5713018Y5573217D01*
X5702757Y5593892D01*
X5690819Y5613654D01*
X5677204Y5632348D01*
X5662117Y5649874D01*
X5645607Y5666028D01*
X5627776Y5680760D01*
X5608828Y5693968D01*
X5588812Y5705500D01*
X5567883Y5715355D01*
X5546242Y5723382D01*
X5523992Y5729630D01*
X5501284Y5733948D01*
X5478322Y5736336D01*
X5473700Y5736437D01*
G37*
G36*
X4559300Y5473039D02*
G01*
X4559300Y5575300D01*
X4456887Y5575300D01*
X4457039Y5573471D01*
X4459732Y5559196D01*
X4464253Y5545328D01*
X4470450Y5532170D01*
X4478223Y5519877D01*
X4487519Y5508650D01*
X4498136Y5498693D01*
X4509922Y5490159D01*
X4522673Y5483148D01*
X4536186Y5477764D01*
X4550308Y5474157D01*
G37*
G36*
X4584700Y5473039D02*
G01*
X4593691Y5474157D01*
X4607814Y5477764D01*
X4621326Y5483148D01*
X4634077Y5490159D01*
X4645863Y5498693D01*
X4656480Y5508650D01*
X4665776Y5519877D01*
X4673549Y5532170D01*
X4679746Y5545328D01*
X4684268Y5559196D01*
X4686960Y5573471D01*
X4687112Y5575300D01*
X4584700Y5575300D01*
G37*
G36*
X4818735Y5472328D02*
G01*
X4833264Y5472328D01*
X4847691Y5474157D01*
X4861814Y5477764D01*
X4875326Y5483148D01*
X4888077Y5490159D01*
X4899863Y5498693D01*
X4910480Y5508650D01*
X4919776Y5519877D01*
X4927549Y5532170D01*
X4933746Y5545328D01*
X4938268Y5559196D01*
X4940960Y5573471D01*
X4941874Y5588000D01*
X4940960Y5602528D01*
X4938268Y5616803D01*
X4933746Y5630672D01*
X4927549Y5643829D01*
X4919776Y5656122D01*
X4910480Y5667349D01*
X4899863Y5677306D01*
X4888077Y5685840D01*
X4875326Y5692851D01*
X4861814Y5698236D01*
X4847691Y5701842D01*
X4833264Y5703671D01*
X4818735Y5703671D01*
X4804308Y5701842D01*
X4790186Y5698236D01*
X4776673Y5692851D01*
X4763922Y5685840D01*
X4752136Y5677306D01*
X4741519Y5667349D01*
X4732223Y5656122D01*
X4724450Y5643829D01*
X4718253Y5630672D01*
X4713732Y5616803D01*
X4711039Y5602528D01*
X4710125Y5588000D01*
X4711039Y5573471D01*
X4713732Y5559196D01*
X4718253Y5545328D01*
X4724450Y5532170D01*
X4732223Y5519877D01*
X4741519Y5508650D01*
X4752136Y5498693D01*
X4763922Y5490159D01*
X4776673Y5483148D01*
X4790186Y5477764D01*
X4804308Y5474157D01*
G37*
G36*
X4456887Y5346700D02*
G01*
X4559300Y5346700D01*
X4559300Y5448960D01*
X4550308Y5447842D01*
X4536186Y5444236D01*
X4522673Y5438851D01*
X4509922Y5431840D01*
X4498136Y5423306D01*
X4487519Y5413349D01*
X4478223Y5402122D01*
X4470450Y5389829D01*
X4464253Y5376672D01*
X4459732Y5362803D01*
X4457039Y5348528D01*
G37*
G36*
X4584700Y5346700D02*
G01*
X4687112Y5346700D01*
X4686960Y5348528D01*
X4684268Y5362803D01*
X4679746Y5376672D01*
X4673549Y5389829D01*
X4665776Y5402122D01*
X4656480Y5413349D01*
X4645863Y5423306D01*
X4634077Y5431840D01*
X4621326Y5438851D01*
X4607814Y5444236D01*
X4593691Y5447842D01*
X4584700Y5448960D01*
G37*
G36*
X4584700Y5219039D02*
G01*
X4593691Y5220157D01*
X4607814Y5223764D01*
X4621326Y5229148D01*
X4634077Y5236159D01*
X4645863Y5244693D01*
X4656480Y5254650D01*
X4665776Y5265877D01*
X4673549Y5278170D01*
X4679746Y5291328D01*
X4684268Y5305196D01*
X4686960Y5319471D01*
X4687112Y5321300D01*
X4584700Y5321300D01*
G37*
G36*
X4559300Y5219039D02*
G01*
X4559300Y5321300D01*
X4456887Y5321300D01*
X4457039Y5319471D01*
X4459732Y5305196D01*
X4464253Y5291328D01*
X4470450Y5278170D01*
X4478223Y5265877D01*
X4487519Y5254650D01*
X4498136Y5244693D01*
X4509922Y5236159D01*
X4522673Y5229148D01*
X4536186Y5223764D01*
X4550308Y5220157D01*
G37*
G36*
X5448300Y5185613D02*
G01*
X5448300Y5448300D01*
X5185410Y5448300D01*
X5187289Y5426405D01*
X5191099Y5403646D01*
X5196890Y5381244D01*
X5204460Y5359450D01*
X5213858Y5338318D01*
X5224983Y5318099D01*
X5237784Y5298846D01*
X5252161Y5280710D01*
X5267960Y5263896D01*
X5285130Y5248402D01*
X5303520Y5234432D01*
X5323027Y5222036D01*
X5343499Y5211368D01*
X5364835Y5202377D01*
X5386781Y5195265D01*
X5409285Y5189982D01*
X5432145Y5186629D01*
G37*
G36*
X368300Y5185613D02*
G01*
X368300Y5448300D01*
X105410Y5448300D01*
X107289Y5426405D01*
X111099Y5403646D01*
X116890Y5381244D01*
X124460Y5359450D01*
X133858Y5338318D01*
X144983Y5318099D01*
X157784Y5298846D01*
X172161Y5280710D01*
X187960Y5263896D01*
X205130Y5248402D01*
X223520Y5234432D01*
X243027Y5222036D01*
X263499Y5211368D01*
X284835Y5202377D01*
X306781Y5195265D01*
X329285Y5189982D01*
X352145Y5186629D01*
G37*
G36*
X5473700Y5185562D02*
G01*
X5478322Y5185664D01*
X5501284Y5188051D01*
X5523992Y5192369D01*
X5546242Y5198618D01*
X5567883Y5206644D01*
X5588812Y5216499D01*
X5608828Y5228031D01*
X5627776Y5241239D01*
X5645607Y5255971D01*
X5662117Y5272125D01*
X5677204Y5289600D01*
X5690819Y5308295D01*
X5702757Y5328107D01*
X5713018Y5348782D01*
X5721553Y5370271D01*
X5728208Y5392369D01*
X5733034Y5414975D01*
X5735929Y5437886D01*
X5736336Y5448300D01*
X5473700Y5448300D01*
G37*
G36*
X393700Y5185562D02*
G01*
X398322Y5185664D01*
X421284Y5188051D01*
X443992Y5192369D01*
X466242Y5198618D01*
X487883Y5206644D01*
X508812Y5216499D01*
X528828Y5228031D01*
X547776Y5241239D01*
X565607Y5255971D01*
X582117Y5272125D01*
X597204Y5289600D01*
X610819Y5308295D01*
X622757Y5328107D01*
X633018Y5348782D01*
X641553Y5370271D01*
X648208Y5392369D01*
X653034Y5414975D01*
X655929Y5437886D01*
X656336Y5448300D01*
X393700Y5448300D01*
G37*
G36*
X3975100Y5023662D02*
G01*
X3984904Y5024475D01*
X3994353Y5027015D01*
X4003294Y5031181D01*
X4011320Y5036820D01*
X4018279Y5043779D01*
X4023918Y5051806D01*
X4028033Y5060696D01*
X4030573Y5070195D01*
X4031437Y5080000D01*
X4030573Y5089753D01*
X4028033Y5099253D01*
X4023918Y5108143D01*
X4018279Y5116220D01*
X4016705Y5117795D01*
X4014470Y5121097D01*
X4013708Y5124958D01*
X4013708Y5327091D01*
X4014470Y5331002D01*
X4016705Y5334304D01*
X4018279Y5335879D01*
X4023918Y5343906D01*
X4028033Y5352846D01*
X4030573Y5362295D01*
X4031437Y5372100D01*
X4030573Y5381904D01*
X4028033Y5391353D01*
X4023918Y5400294D01*
X4018279Y5408320D01*
X4011320Y5415280D01*
X4003294Y5420918D01*
X3994353Y5425033D01*
X3984904Y5427573D01*
X3975100Y5428437D01*
X3965295Y5427573D01*
X3955846Y5425033D01*
X3946906Y5420918D01*
X3938879Y5415280D01*
X3931920Y5408320D01*
X3926281Y5400294D01*
X3922166Y5391353D01*
X3919626Y5381904D01*
X3918762Y5372100D01*
X3919626Y5362295D01*
X3922166Y5352846D01*
X3926281Y5343906D01*
X3931920Y5335879D01*
X3933494Y5334304D01*
X3935729Y5331002D01*
X3936492Y5327091D01*
X3936492Y5124958D01*
X3935729Y5121097D01*
X3933494Y5117795D01*
X3931920Y5116220D01*
X3926281Y5108143D01*
X3922166Y5099253D01*
X3919626Y5089753D01*
X3918762Y5080000D01*
X3919626Y5070195D01*
X3922166Y5060696D01*
X3926281Y5051806D01*
X3931920Y5043779D01*
X3938879Y5036820D01*
X3946906Y5031181D01*
X3955846Y5027015D01*
X3965295Y5024475D01*
G37*
G36*
X393700Y105562D02*
G01*
X398322Y105664D01*
X421284Y108051D01*
X443992Y112369D01*
X466242Y118618D01*
X487883Y126644D01*
X508812Y136499D01*
X528828Y148031D01*
X547776Y161239D01*
X565607Y175971D01*
X582117Y192125D01*
X597204Y209600D01*
X610819Y228295D01*
X622757Y248107D01*
X633018Y268782D01*
X641553Y290271D01*
X648208Y312369D01*
X653034Y334975D01*
X655929Y357886D01*
X656336Y368300D01*
X393700Y368300D01*
G37*
G36*
X4826000Y5022138D02*
G01*
X4835804Y5023002D01*
X4845253Y5025542D01*
X4854194Y5029708D01*
X4862220Y5035346D01*
X4869180Y5042255D01*
X4874818Y5050332D01*
X4878933Y5059222D01*
X4881473Y5068722D01*
X4882337Y5078476D01*
X4881473Y5088280D01*
X4878933Y5097780D01*
X4874818Y5106670D01*
X4869180Y5114696D01*
X4867605Y5116322D01*
X4865370Y5119573D01*
X4864608Y5123484D01*
X4864608Y5217972D01*
X4865420Y5221935D01*
X4867656Y5225237D01*
X4871008Y5227421D01*
X4875326Y5229148D01*
X4888077Y5236159D01*
X4899863Y5244693D01*
X4910480Y5254650D01*
X4919776Y5265877D01*
X4927549Y5278170D01*
X4933746Y5291328D01*
X4938268Y5305196D01*
X4940960Y5319471D01*
X4941874Y5334000D01*
X4940960Y5348528D01*
X4938268Y5362803D01*
X4933746Y5376672D01*
X4927549Y5389829D01*
X4919776Y5402122D01*
X4910480Y5413349D01*
X4899863Y5423306D01*
X4888077Y5431840D01*
X4875326Y5438851D01*
X4861814Y5444236D01*
X4847691Y5447842D01*
X4833264Y5449671D01*
X4818735Y5449671D01*
X4804308Y5447842D01*
X4790186Y5444236D01*
X4776673Y5438851D01*
X4763922Y5431840D01*
X4752136Y5423306D01*
X4741519Y5413349D01*
X4732223Y5402122D01*
X4724450Y5389829D01*
X4718253Y5376672D01*
X4713732Y5362803D01*
X4711039Y5348528D01*
X4710125Y5334000D01*
X4711039Y5319471D01*
X4713732Y5305196D01*
X4718253Y5291328D01*
X4724450Y5278170D01*
X4732223Y5265877D01*
X4741519Y5254650D01*
X4752136Y5244693D01*
X4763922Y5236159D01*
X4776673Y5229148D01*
X4780991Y5227421D01*
X4784344Y5225237D01*
X4786579Y5221935D01*
X4787392Y5217972D01*
X4787392Y5123484D01*
X4786630Y5119573D01*
X4784394Y5116322D01*
X4782820Y5114696D01*
X4777181Y5106670D01*
X4773066Y5097780D01*
X4770526Y5088280D01*
X4769662Y5078476D01*
X4770526Y5068722D01*
X4773066Y5059222D01*
X4777181Y5050332D01*
X4782820Y5042255D01*
X4789779Y5035346D01*
X4797806Y5029708D01*
X4806746Y5025542D01*
X4816195Y5023002D01*
G37*
G36*
X5080000Y4890160D02*
G01*
X5089804Y4891024D01*
X5099253Y4893564D01*
X5108194Y4897678D01*
X5116220Y4903317D01*
X5123180Y4910277D01*
X5128818Y4918303D01*
X5132933Y4927244D01*
X5135473Y4936693D01*
X5136337Y4946497D01*
X5135473Y4956302D01*
X5132933Y4965750D01*
X5128818Y4974691D01*
X5123180Y4982718D01*
X5121605Y4984292D01*
X5119370Y4987594D01*
X5118608Y4991506D01*
X5118608Y5542991D01*
X5119370Y5546902D01*
X5121605Y5550204D01*
X5123180Y5551779D01*
X5128818Y5559806D01*
X5132933Y5568746D01*
X5135473Y5578195D01*
X5136337Y5588000D01*
X5135473Y5597804D01*
X5132933Y5607253D01*
X5128818Y5616194D01*
X5123180Y5624220D01*
X5116220Y5631180D01*
X5108194Y5636818D01*
X5099253Y5640933D01*
X5089804Y5643473D01*
X5080000Y5644337D01*
X5070195Y5643473D01*
X5060746Y5640933D01*
X5051806Y5636818D01*
X5043779Y5631180D01*
X5036820Y5624220D01*
X5031181Y5616194D01*
X5027066Y5607253D01*
X5024526Y5597804D01*
X5023662Y5588000D01*
X5024526Y5578195D01*
X5027066Y5568746D01*
X5031181Y5559806D01*
X5036820Y5551779D01*
X5038394Y5550204D01*
X5040630Y5546902D01*
X5041392Y5542991D01*
X5041392Y4991506D01*
X5040630Y4987594D01*
X5038394Y4984292D01*
X5036820Y4982718D01*
X5031181Y4974691D01*
X5027066Y4965750D01*
X5024526Y4956302D01*
X5023662Y4946497D01*
X5024526Y4936693D01*
X5027066Y4927244D01*
X5031181Y4918303D01*
X5036820Y4910277D01*
X5043779Y4903317D01*
X5051806Y4897678D01*
X5060746Y4893564D01*
X5070195Y4891024D01*
G37*
G36*
X5181600Y2135428D02*
G01*
X5195417Y2136343D01*
X5208981Y2139035D01*
X5222138Y2143506D01*
X5234533Y2149602D01*
X5246065Y2157323D01*
X5256479Y2166467D01*
X5265623Y2176881D01*
X5273294Y2188362D01*
X5279440Y2200808D01*
X5283860Y2213914D01*
X5286603Y2227478D01*
X5287467Y2241346D01*
X5286603Y2255164D01*
X5283860Y2268728D01*
X5279440Y2281834D01*
X5273294Y2294280D01*
X5265623Y2305761D01*
X5256479Y2316175D01*
X5246065Y2325319D01*
X5238496Y2330399D01*
X5235498Y2333447D01*
X5234076Y2337511D01*
X5234432Y2341778D01*
X5236514Y2345537D01*
X5239918Y2348077D01*
X5244134Y2348992D01*
X5562041Y2348992D01*
X5568340Y2349703D01*
X5573826Y2351633D01*
X5578703Y2354681D01*
X5582818Y2358796D01*
X5585866Y2363673D01*
X5587796Y2369159D01*
X5588508Y2375458D01*
X5588508Y4622241D01*
X5587796Y4628540D01*
X5585866Y4634026D01*
X5582818Y4638903D01*
X5578703Y4643018D01*
X5573826Y4646066D01*
X5568340Y4647996D01*
X5562041Y4648708D01*
X5233314Y4648708D01*
X5228894Y4649724D01*
X5225389Y4652518D01*
X5223408Y4656582D01*
X5223408Y4661052D01*
X5225338Y4665116D01*
X5228793Y4667961D01*
X5234533Y4670806D01*
X5246065Y4678476D01*
X5256479Y4687620D01*
X5265623Y4698034D01*
X5273294Y4709566D01*
X5279440Y4721961D01*
X5283860Y4735118D01*
X5286603Y4748682D01*
X5287467Y4762500D01*
X5286603Y4776317D01*
X5283860Y4789932D01*
X5279440Y4803038D01*
X5273294Y4815433D01*
X5265623Y4826965D01*
X5256479Y4837379D01*
X5246065Y4846523D01*
X5234533Y4854194D01*
X5222138Y4860340D01*
X5208981Y4864760D01*
X5195417Y4867503D01*
X5181600Y4868367D01*
X5167782Y4867503D01*
X5154218Y4864760D01*
X5141061Y4860340D01*
X5128666Y4854194D01*
X5117134Y4846523D01*
X5106720Y4837379D01*
X5097576Y4826965D01*
X5089906Y4815433D01*
X5083759Y4803038D01*
X5079339Y4789932D01*
X5076596Y4776317D01*
X5075732Y4762500D01*
X5076596Y4748682D01*
X5079339Y4735118D01*
X5083759Y4721961D01*
X5089906Y4709566D01*
X5097576Y4698034D01*
X5106720Y4687620D01*
X5117134Y4678476D01*
X5128666Y4670806D01*
X5134406Y4667961D01*
X5137861Y4665116D01*
X5139791Y4661052D01*
X5139791Y4656582D01*
X5137810Y4652518D01*
X5134305Y4649724D01*
X5129885Y4648708D01*
X4216958Y4648708D01*
X4210659Y4647996D01*
X4205173Y4646066D01*
X4200296Y4643018D01*
X4196181Y4638903D01*
X4193133Y4634026D01*
X4191203Y4628540D01*
X4190492Y4622241D01*
X4190492Y4597044D01*
X4189526Y4592777D01*
X4188866Y4591253D01*
X4186326Y4581804D01*
X4185462Y4572000D01*
X4186326Y4562195D01*
X4188866Y4552746D01*
X4189526Y4551222D01*
X4190492Y4546955D01*
X4190492Y4495444D01*
X4189526Y4491177D01*
X4188866Y4489653D01*
X4186326Y4480204D01*
X4185462Y4470400D01*
X4186326Y4460595D01*
X4188866Y4451146D01*
X4189526Y4449622D01*
X4190492Y4445355D01*
X4190492Y4393844D01*
X4189526Y4389577D01*
X4188866Y4388053D01*
X4186326Y4378604D01*
X4185462Y4368800D01*
X4186326Y4358995D01*
X4188866Y4349546D01*
X4189526Y4348022D01*
X4190492Y4343755D01*
X4190492Y4292244D01*
X4189526Y4287977D01*
X4188866Y4286453D01*
X4186326Y4277004D01*
X4185462Y4267200D01*
X4186326Y4257395D01*
X4188866Y4247946D01*
X4189526Y4246422D01*
X4190492Y4242155D01*
X4190492Y4190644D01*
X4189526Y4186377D01*
X4188866Y4184853D01*
X4186326Y4175404D01*
X4185462Y4165600D01*
X4186326Y4155795D01*
X4188866Y4146346D01*
X4189526Y4144822D01*
X4190492Y4140555D01*
X4190492Y4089044D01*
X4189526Y4084777D01*
X4188866Y4083253D01*
X4186326Y4073804D01*
X4185462Y4064000D01*
X4186326Y4054195D01*
X4188866Y4044746D01*
X4189526Y4043222D01*
X4190492Y4038955D01*
X4190492Y3987444D01*
X4189526Y3983177D01*
X4188866Y3981653D01*
X4186326Y3972204D01*
X4185462Y3962400D01*
X4186326Y3952595D01*
X4188866Y3943146D01*
X4189526Y3941622D01*
X4190492Y3937355D01*
X4190492Y3885844D01*
X4189526Y3881577D01*
X4188866Y3880053D01*
X4186326Y3870604D01*
X4185462Y3860800D01*
X4186326Y3850995D01*
X4186936Y3848709D01*
X4187240Y3845001D01*
X4186174Y3841445D01*
X4183887Y3838498D01*
X4180738Y3836568D01*
X4177131Y3835908D01*
X3896868Y3835908D01*
X3892956Y3836670D01*
X3889705Y3838905D01*
X3887470Y3842156D01*
X3886708Y3846068D01*
X3886708Y4222191D01*
X3887470Y4226102D01*
X3889705Y4229404D01*
X3891279Y4230979D01*
X3896918Y4239006D01*
X3901033Y4247946D01*
X3903573Y4257395D01*
X3904437Y4267200D01*
X3903573Y4277004D01*
X3901033Y4286453D01*
X3896918Y4295394D01*
X3891279Y4303420D01*
X3884320Y4310380D01*
X3876294Y4316018D01*
X3867353Y4320133D01*
X3857904Y4322673D01*
X3848100Y4323537D01*
X3838295Y4322673D01*
X3828846Y4320133D01*
X3819906Y4316018D01*
X3811879Y4310380D01*
X3804920Y4303420D01*
X3799281Y4295394D01*
X3795166Y4286453D01*
X3792626Y4277004D01*
X3791762Y4267200D01*
X3792626Y4257395D01*
X3795166Y4247946D01*
X3799281Y4239006D01*
X3804920Y4230979D01*
X3806494Y4229404D01*
X3808729Y4226102D01*
X3809492Y4222191D01*
X3809492Y3846068D01*
X3808729Y3842156D01*
X3806494Y3838905D01*
X3803243Y3836670D01*
X3799332Y3835908D01*
X3302558Y3835908D01*
X3296259Y3835196D01*
X3290773Y3833266D01*
X3285896Y3830218D01*
X3281781Y3826103D01*
X3278733Y3821226D01*
X3276803Y3815740D01*
X3276092Y3809441D01*
X3276092Y3239058D01*
X3276803Y3232759D01*
X3278733Y3227273D01*
X3281781Y3222396D01*
X3285896Y3218281D01*
X3290773Y3215233D01*
X3296259Y3213303D01*
X3302558Y3212592D01*
X3646932Y3212592D01*
X3650843Y3211830D01*
X3654094Y3209594D01*
X3656329Y3206343D01*
X3657092Y3202432D01*
X3657092Y2858058D01*
X3657803Y2851759D01*
X3659733Y2846273D01*
X3662781Y2841396D01*
X3666896Y2837281D01*
X3671773Y2834233D01*
X3677259Y2832303D01*
X3683558Y2831592D01*
X4049064Y2831592D01*
X4052925Y2830830D01*
X4056227Y2828594D01*
X4113580Y2771292D01*
X4115612Y2768396D01*
X4116781Y2765806D01*
X4122420Y2757779D01*
X4129379Y2750820D01*
X4137406Y2745181D01*
X4139996Y2744012D01*
X4142892Y2741980D01*
X4177080Y2707792D01*
X4179112Y2704896D01*
X4180281Y2702306D01*
X4185920Y2694279D01*
X4192879Y2687320D01*
X4200906Y2681681D01*
X4203496Y2680512D01*
X4206392Y2678480D01*
X4240580Y2644292D01*
X4242612Y2641396D01*
X4243781Y2638806D01*
X4249420Y2630779D01*
X4256379Y2623820D01*
X4264406Y2618181D01*
X4266996Y2617012D01*
X4269892Y2614980D01*
X4304080Y2580792D01*
X4306112Y2577896D01*
X4307281Y2575306D01*
X4312920Y2567279D01*
X4319879Y2560320D01*
X4327906Y2554681D01*
X4330496Y2553512D01*
X4333392Y2551480D01*
X4367580Y2517292D01*
X4369612Y2514396D01*
X4370781Y2511806D01*
X4376420Y2503779D01*
X4383379Y2496820D01*
X4391406Y2491181D01*
X4393996Y2490012D01*
X4396892Y2487980D01*
X4431080Y2453792D01*
X4433112Y2450896D01*
X4434281Y2448306D01*
X4439920Y2440279D01*
X4446879Y2433320D01*
X4454906Y2427681D01*
X4457496Y2426512D01*
X4460392Y2424480D01*
X4494580Y2390292D01*
X4496612Y2387396D01*
X4497781Y2384806D01*
X4503420Y2376779D01*
X4510379Y2369820D01*
X4518406Y2364181D01*
X4520996Y2363012D01*
X4523892Y2360980D01*
X4530445Y2354681D01*
X4535373Y2351582D01*
X4540859Y2349652D01*
X4546904Y2348992D01*
X5119065Y2348992D01*
X5123281Y2348077D01*
X5126685Y2345537D01*
X5128768Y2341778D01*
X5129123Y2337511D01*
X5127701Y2333447D01*
X5124704Y2330399D01*
X5117134Y2325319D01*
X5106720Y2316175D01*
X5097576Y2305761D01*
X5089906Y2294280D01*
X5083759Y2281834D01*
X5079339Y2268728D01*
X5076596Y2255164D01*
X5075732Y2241346D01*
X5076596Y2227478D01*
X5079339Y2213914D01*
X5083759Y2200808D01*
X5089906Y2188362D01*
X5097576Y2176881D01*
X5106720Y2166467D01*
X5117134Y2157323D01*
X5128666Y2149602D01*
X5141061Y2143506D01*
X5154218Y2139035D01*
X5167782Y2136343D01*
G37*
G36*
X660400Y4656632D02*
G01*
X674217Y4657547D01*
X687832Y4660239D01*
X700938Y4664659D01*
X713333Y4670806D01*
X724865Y4678476D01*
X735279Y4687620D01*
X744423Y4698034D01*
X752094Y4709566D01*
X758240Y4721961D01*
X762660Y4735118D01*
X765403Y4748682D01*
X766267Y4762500D01*
X765403Y4776317D01*
X762660Y4789932D01*
X758240Y4803038D01*
X752094Y4815433D01*
X744423Y4826965D01*
X735279Y4837379D01*
X724865Y4846523D01*
X713333Y4854194D01*
X700938Y4860340D01*
X687832Y4864760D01*
X674217Y4867503D01*
X660400Y4868367D01*
X646582Y4867503D01*
X633018Y4864760D01*
X619861Y4860340D01*
X607466Y4854194D01*
X595934Y4846523D01*
X585520Y4837379D01*
X576376Y4826965D01*
X568706Y4815433D01*
X562559Y4803038D01*
X558139Y4789932D01*
X555447Y4776317D01*
X554532Y4762500D01*
X555447Y4748682D01*
X558139Y4735118D01*
X562559Y4721961D01*
X568706Y4709566D01*
X576376Y4698034D01*
X585520Y4687620D01*
X595934Y4678476D01*
X607466Y4670806D01*
X619861Y4664659D01*
X633018Y4660239D01*
X646582Y4657547D01*
G37*
G36*
X885393Y3512007D02*
G01*
X900582Y3512921D01*
X915517Y3515664D01*
X930046Y3520186D01*
X943914Y3526434D01*
X956919Y3534308D01*
X968908Y3543655D01*
X979627Y3554425D01*
X989025Y3566414D01*
X996899Y3579418D01*
X1003096Y3593287D01*
X1007668Y3607765D01*
X1010361Y3622751D01*
X1011326Y3637889D01*
X1010361Y3653078D01*
X1007668Y3668014D01*
X1003096Y3682542D01*
X996899Y3696411D01*
X989025Y3709415D01*
X979627Y3721404D01*
X968908Y3732123D01*
X956919Y3741521D01*
X943914Y3749395D01*
X929995Y3755644D01*
X926846Y3757879D01*
X924763Y3761130D01*
X924001Y3764889D01*
X924763Y3768699D01*
X926846Y3771950D01*
X929995Y3774186D01*
X943914Y3780434D01*
X956919Y3788308D01*
X968908Y3797655D01*
X979627Y3808425D01*
X989025Y3820414D01*
X996899Y3833418D01*
X1003096Y3847287D01*
X1007668Y3861765D01*
X1010361Y3876751D01*
X1011326Y3891889D01*
X1010361Y3907078D01*
X1007668Y3922014D01*
X1003096Y3936542D01*
X996899Y3950411D01*
X989025Y3963415D01*
X979627Y3975404D01*
X968908Y3986123D01*
X956919Y3995521D01*
X943914Y4003395D01*
X929995Y4009644D01*
X926846Y4011879D01*
X924763Y4015130D01*
X924001Y4018889D01*
X924763Y4022699D01*
X926846Y4025950D01*
X929995Y4028186D01*
X943914Y4034434D01*
X956919Y4042308D01*
X968908Y4051655D01*
X979627Y4062425D01*
X989025Y4074414D01*
X996899Y4087418D01*
X1003096Y4101287D01*
X1007668Y4115765D01*
X1010361Y4130751D01*
X1011326Y4145889D01*
X1010361Y4161078D01*
X1007668Y4176014D01*
X1003096Y4190542D01*
X996899Y4204411D01*
X989025Y4217416D01*
X979627Y4229404D01*
X968908Y4240123D01*
X956919Y4249521D01*
X943914Y4257395D01*
X929995Y4263644D01*
X926846Y4265879D01*
X924763Y4269130D01*
X924001Y4272889D01*
X924763Y4276699D01*
X926846Y4279950D01*
X929995Y4282186D01*
X943914Y4288434D01*
X956919Y4296308D01*
X968908Y4305655D01*
X979627Y4316425D01*
X989025Y4328414D01*
X996899Y4341418D01*
X1003096Y4355287D01*
X1007668Y4369765D01*
X1010361Y4384751D01*
X1011326Y4399889D01*
X1010361Y4415078D01*
X1007668Y4430014D01*
X1003096Y4444542D01*
X996899Y4458411D01*
X989025Y4471416D01*
X979627Y4483404D01*
X968908Y4494123D01*
X956919Y4503521D01*
X943914Y4511395D01*
X930046Y4517593D01*
X915517Y4522165D01*
X900582Y4524857D01*
X885393Y4525822D01*
X870254Y4524857D01*
X855268Y4522165D01*
X840790Y4517593D01*
X826922Y4511395D01*
X813917Y4503521D01*
X801928Y4494123D01*
X791159Y4483404D01*
X781812Y4471416D01*
X773938Y4458411D01*
X767689Y4444542D01*
X763168Y4430014D01*
X760425Y4415078D01*
X759510Y4399889D01*
X760425Y4384751D01*
X763168Y4369765D01*
X767689Y4355287D01*
X773938Y4341418D01*
X781812Y4328414D01*
X791159Y4316425D01*
X801928Y4305655D01*
X813917Y4296308D01*
X826922Y4288434D01*
X840841Y4282186D01*
X843991Y4279950D01*
X846074Y4276699D01*
X846836Y4272889D01*
X846074Y4269130D01*
X843991Y4265879D01*
X840841Y4263644D01*
X826922Y4257395D01*
X813917Y4249521D01*
X801928Y4240123D01*
X791159Y4229404D01*
X781812Y4217416D01*
X773938Y4204411D01*
X767689Y4190542D01*
X763168Y4176014D01*
X760425Y4161078D01*
X759510Y4145889D01*
X760425Y4130751D01*
X763168Y4115765D01*
X767689Y4101287D01*
X773938Y4087418D01*
X781812Y4074414D01*
X791159Y4062425D01*
X801928Y4051655D01*
X813917Y4042308D01*
X826922Y4034434D01*
X840841Y4028186D01*
X843991Y4025950D01*
X846074Y4022699D01*
X846836Y4018889D01*
X846074Y4015130D01*
X843991Y4011879D01*
X840841Y4009644D01*
X826922Y4003395D01*
X813917Y3995521D01*
X801928Y3986123D01*
X791159Y3975404D01*
X781812Y3963415D01*
X773938Y3950411D01*
X767689Y3936542D01*
X763168Y3922014D01*
X760425Y3907078D01*
X759510Y3891889D01*
X760425Y3876751D01*
X763168Y3861765D01*
X767689Y3847287D01*
X773938Y3833418D01*
X781812Y3820414D01*
X791159Y3808425D01*
X801928Y3797655D01*
X813917Y3788308D01*
X826922Y3780434D01*
X840841Y3774186D01*
X843991Y3771950D01*
X846074Y3768699D01*
X846836Y3764889D01*
X846074Y3761130D01*
X843991Y3757879D01*
X840841Y3755644D01*
X826922Y3749395D01*
X813917Y3741521D01*
X801928Y3732123D01*
X791159Y3721404D01*
X781812Y3709415D01*
X773938Y3696411D01*
X767689Y3682542D01*
X763168Y3668014D01*
X760425Y3653078D01*
X759510Y3637889D01*
X760425Y3622751D01*
X763168Y3607765D01*
X767689Y3593287D01*
X773938Y3579418D01*
X781812Y3566414D01*
X791159Y3554425D01*
X801928Y3543655D01*
X813917Y3534308D01*
X826922Y3526434D01*
X840790Y3520186D01*
X855268Y3515664D01*
X870254Y3512921D01*
G37*
G36*
X3810000Y2509062D02*
G01*
X3819804Y2509926D01*
X3829253Y2512466D01*
X3838194Y2516581D01*
X3846220Y2522220D01*
X3853179Y2529179D01*
X3858818Y2537206D01*
X3862933Y2546146D01*
X3865473Y2555595D01*
X3866337Y2565400D01*
X3865473Y2575204D01*
X3862933Y2584653D01*
X3858818Y2593594D01*
X3853179Y2601620D01*
X3846220Y2608580D01*
X3838194Y2614218D01*
X3829253Y2618333D01*
X3819804Y2620873D01*
X3810000Y2621737D01*
X3800195Y2620873D01*
X3790746Y2618333D01*
X3781806Y2614218D01*
X3773779Y2608580D01*
X3772204Y2607005D01*
X3768902Y2604770D01*
X3764991Y2604008D01*
X3347618Y2604008D01*
X3343706Y2604770D01*
X3340404Y2607005D01*
X3196031Y2751378D01*
X3193999Y2754274D01*
X3193084Y2757678D01*
X3192373Y2765704D01*
X3189833Y2775153D01*
X3185718Y2784094D01*
X3180080Y2792120D01*
X3178505Y2793695D01*
X3176270Y2796997D01*
X3175508Y2800908D01*
X3175508Y5034991D01*
X3176270Y5038902D01*
X3178505Y5042204D01*
X3180080Y5043779D01*
X3185718Y5051806D01*
X3189833Y5060696D01*
X3192373Y5070195D01*
X3193237Y5080000D01*
X3192373Y5089753D01*
X3189833Y5099253D01*
X3185718Y5108143D01*
X3180080Y5116220D01*
X3173120Y5123129D01*
X3165094Y5128768D01*
X3156153Y5132933D01*
X3146704Y5135473D01*
X3136900Y5136337D01*
X3127095Y5135473D01*
X3117646Y5132933D01*
X3108706Y5128768D01*
X3100679Y5123129D01*
X3093720Y5116220D01*
X3088081Y5108143D01*
X3083966Y5099253D01*
X3081426Y5089753D01*
X3080562Y5080000D01*
X3081426Y5070195D01*
X3083966Y5060696D01*
X3088081Y5051806D01*
X3093720Y5043779D01*
X3095294Y5042204D01*
X3097530Y5038902D01*
X3098292Y5034991D01*
X3098292Y2800908D01*
X3097530Y2796997D01*
X3095294Y2793695D01*
X3093720Y2792120D01*
X3088081Y2784094D01*
X3083966Y2775153D01*
X3081426Y2765704D01*
X3080562Y2755900D01*
X3081426Y2746095D01*
X3083966Y2736646D01*
X3088081Y2727706D01*
X3093720Y2719679D01*
X3100679Y2712720D01*
X3108706Y2707081D01*
X3117646Y2702966D01*
X3127095Y2700426D01*
X3135122Y2699715D01*
X3138525Y2698800D01*
X3141421Y2696768D01*
X3299764Y2538476D01*
X3305962Y2533345D01*
X3312668Y2529789D01*
X3319881Y2527604D01*
X3327908Y2526792D01*
X3764991Y2526792D01*
X3768902Y2526030D01*
X3772204Y2523794D01*
X3773779Y2522220D01*
X3781806Y2516581D01*
X3790746Y2512466D01*
X3800195Y2509926D01*
G37*
G36*
X660400Y3169412D02*
G01*
X674217Y3170326D01*
X687832Y3173018D01*
X700938Y3177489D01*
X713333Y3183585D01*
X724865Y3191306D01*
X735279Y3200450D01*
X744423Y3210864D01*
X752094Y3222345D01*
X758240Y3234791D01*
X762660Y3247898D01*
X765403Y3261461D01*
X766267Y3275329D01*
X765403Y3289147D01*
X762660Y3302711D01*
X758240Y3315817D01*
X752094Y3328263D01*
X744423Y3339744D01*
X735279Y3350158D01*
X724865Y3359302D01*
X713333Y3367024D01*
X700938Y3373120D01*
X687832Y3377590D01*
X674217Y3380282D01*
X660400Y3381197D01*
X646582Y3380282D01*
X633018Y3377590D01*
X619861Y3373120D01*
X607466Y3367024D01*
X595934Y3359302D01*
X585520Y3350158D01*
X576376Y3339744D01*
X568706Y3328263D01*
X562559Y3315817D01*
X558139Y3302711D01*
X555447Y3289147D01*
X554532Y3275329D01*
X555447Y3261461D01*
X558139Y3247898D01*
X562559Y3234791D01*
X568706Y3222345D01*
X576376Y3210864D01*
X585520Y3200450D01*
X595934Y3191306D01*
X607466Y3183585D01*
X619861Y3177489D01*
X633018Y3173018D01*
X646582Y3170326D01*
G37*

%LPD*%
G36*
X4550816Y2374900D02*
G01*
X4546904Y2375662D01*
X4543602Y2377897D01*
X4064711Y2856788D01*
X4062984Y2857500D01*
X3693160Y2857500D01*
X3689248Y2858262D01*
X3685997Y2860497D01*
X3683762Y2863799D01*
X3683000Y2867660D01*
X3683000Y3237484D01*
X3681984Y3238500D01*
X3312160Y3238500D01*
X3308248Y3239262D01*
X3304997Y3241497D01*
X3302762Y3244748D01*
X3302000Y3248660D01*
X3302000Y3799840D01*
X3302762Y3803751D01*
X3304997Y3807002D01*
X3308248Y3809237D01*
X3312160Y3810000D01*
X3799332Y3810000D01*
X3803243Y3809237D01*
X3806494Y3807002D01*
X3808729Y3803751D01*
X3809492Y3799840D01*
X3809492Y3524808D01*
X3808729Y3520897D01*
X3806494Y3517595D01*
X3804920Y3516020D01*
X3799281Y3507994D01*
X3795166Y3499053D01*
X3792626Y3489604D01*
X3791762Y3479800D01*
X3792626Y3469995D01*
X3795166Y3460546D01*
X3799281Y3451606D01*
X3804920Y3443579D01*
X3811879Y3436620D01*
X3819906Y3430981D01*
X3828846Y3426866D01*
X3838295Y3424326D01*
X3848100Y3423462D01*
X3857904Y3424326D01*
X3867353Y3426866D01*
X3876294Y3430981D01*
X3884320Y3436620D01*
X3891279Y3443579D01*
X3896918Y3451606D01*
X3901033Y3460546D01*
X3903573Y3469995D01*
X3904437Y3479800D01*
X3903573Y3489604D01*
X3901033Y3499053D01*
X3896918Y3507994D01*
X3891279Y3516020D01*
X3889705Y3517595D01*
X3887470Y3520897D01*
X3886708Y3524808D01*
X3886708Y3799840D01*
X3887470Y3803751D01*
X3889705Y3807002D01*
X3892956Y3809237D01*
X3896868Y3810000D01*
X4215384Y3810000D01*
X4216400Y3811015D01*
X4216400Y4612640D01*
X4217162Y4616500D01*
X4219397Y4619802D01*
X4222648Y4622038D01*
X4226560Y4622800D01*
X5552440Y4622800D01*
X5556300Y4622038D01*
X5559602Y4619802D01*
X5561838Y4616500D01*
X5562600Y4612640D01*
X5562600Y2385060D01*
X5561838Y2381199D01*
X5559602Y2377897D01*
X5556300Y2375662D01*
X5552440Y2374900D01*
G37*

%LPC*%
G36*
X4956606Y2487015D02*
G01*
X4971745Y2487930D01*
X4986731Y2490673D01*
X5001209Y2495194D01*
X5015077Y2501442D01*
X5028082Y2509316D01*
X5040071Y2518664D01*
X5050840Y2529433D01*
X5060188Y2541422D01*
X5068062Y2554427D01*
X5074310Y2568295D01*
X5078831Y2582773D01*
X5081574Y2597759D01*
X5082489Y2612898D01*
X5081574Y2628087D01*
X5078831Y2643022D01*
X5074310Y2657551D01*
X5068062Y2671419D01*
X5060188Y2684424D01*
X5050840Y2696413D01*
X5040071Y2707132D01*
X5028082Y2716530D01*
X5015077Y2724404D01*
X5001158Y2730652D01*
X4998008Y2732887D01*
X4995926Y2736138D01*
X4995164Y2739898D01*
X4995926Y2743708D01*
X4998008Y2746959D01*
X5001158Y2749194D01*
X5015077Y2755442D01*
X5028082Y2763316D01*
X5040071Y2772664D01*
X5050840Y2783433D01*
X5060188Y2795422D01*
X5068062Y2808427D01*
X5074310Y2822295D01*
X5078831Y2836773D01*
X5081574Y2851759D01*
X5082489Y2866898D01*
X5081574Y2882087D01*
X5078831Y2897022D01*
X5074310Y2911551D01*
X5068062Y2925419D01*
X5060188Y2938424D01*
X5050840Y2950413D01*
X5040071Y2961132D01*
X5028082Y2970530D01*
X5015077Y2978404D01*
X5001158Y2984652D01*
X4998008Y2986887D01*
X4995926Y2990138D01*
X4995164Y2993898D01*
X4995926Y2997708D01*
X4998008Y3000959D01*
X5001158Y3003194D01*
X5015077Y3009442D01*
X5028082Y3017316D01*
X5040071Y3026664D01*
X5050840Y3037433D01*
X5060188Y3049422D01*
X5068062Y3062427D01*
X5074310Y3076295D01*
X5078831Y3090773D01*
X5081574Y3105759D01*
X5082489Y3120898D01*
X5081574Y3136087D01*
X5078831Y3151022D01*
X5074310Y3165551D01*
X5068062Y3179419D01*
X5060188Y3192424D01*
X5050840Y3204413D01*
X5040071Y3215132D01*
X5028082Y3224530D01*
X5015077Y3232404D01*
X5001158Y3238652D01*
X4998008Y3240887D01*
X4995926Y3244138D01*
X4995164Y3247898D01*
X4995926Y3251708D01*
X4998008Y3254959D01*
X5001158Y3257194D01*
X5015077Y3263442D01*
X5028082Y3271316D01*
X5040071Y3280664D01*
X5050840Y3291433D01*
X5060188Y3303422D01*
X5068062Y3316427D01*
X5074310Y3330295D01*
X5078831Y3344773D01*
X5081574Y3359759D01*
X5082489Y3374898D01*
X5081574Y3390087D01*
X5078831Y3405022D01*
X5074310Y3419551D01*
X5068062Y3433419D01*
X5060188Y3446424D01*
X5050840Y3458413D01*
X5040071Y3469132D01*
X5028082Y3478529D01*
X5015077Y3486404D01*
X5001158Y3492652D01*
X4998008Y3494887D01*
X4995926Y3498138D01*
X4995164Y3501898D01*
X4995926Y3505708D01*
X4998008Y3508959D01*
X5001158Y3511194D01*
X5015077Y3517442D01*
X5028082Y3525316D01*
X5040071Y3534664D01*
X5050840Y3545433D01*
X5060188Y3557422D01*
X5068062Y3570427D01*
X5074310Y3584295D01*
X5078831Y3598773D01*
X5081574Y3613759D01*
X5082489Y3628898D01*
X5081574Y3644087D01*
X5078831Y3659022D01*
X5074310Y3673551D01*
X5068062Y3687419D01*
X5060188Y3700424D01*
X5050840Y3712413D01*
X5040071Y3723132D01*
X5028082Y3732529D01*
X5015077Y3740404D01*
X5001158Y3746652D01*
X4998008Y3748887D01*
X4995926Y3752138D01*
X4995164Y3755898D01*
X4995926Y3759708D01*
X4998008Y3762959D01*
X5001158Y3765194D01*
X5015077Y3771442D01*
X5028082Y3779316D01*
X5040071Y3788664D01*
X5050840Y3799433D01*
X5060188Y3811422D01*
X5068062Y3824427D01*
X5074310Y3838295D01*
X5078831Y3852773D01*
X5081574Y3867759D01*
X5082489Y3882898D01*
X5081574Y3898087D01*
X5078831Y3913022D01*
X5074310Y3927551D01*
X5068062Y3941419D01*
X5060188Y3954424D01*
X5050840Y3966413D01*
X5040071Y3977132D01*
X5028082Y3986529D01*
X5015077Y3994404D01*
X5001158Y4000652D01*
X4998008Y4002887D01*
X4995926Y4006138D01*
X4995164Y4009898D01*
X4995926Y4013708D01*
X4998008Y4016959D01*
X5001158Y4019194D01*
X5015077Y4025442D01*
X5028082Y4033316D01*
X5040071Y4042664D01*
X5050840Y4053433D01*
X5060188Y4065422D01*
X5068062Y4078427D01*
X5074310Y4092295D01*
X5078831Y4106773D01*
X5081574Y4121759D01*
X5082489Y4136898D01*
X5081574Y4152087D01*
X5078831Y4167022D01*
X5074310Y4181551D01*
X5068062Y4195419D01*
X5060188Y4208424D01*
X5050840Y4220413D01*
X5040071Y4231132D01*
X5028082Y4240530D01*
X5015077Y4248404D01*
X5001158Y4254652D01*
X4998008Y4256887D01*
X4995926Y4260138D01*
X4995164Y4263898D01*
X4995926Y4267708D01*
X4998008Y4270959D01*
X5001158Y4273194D01*
X5015077Y4279442D01*
X5028082Y4287316D01*
X5040071Y4296664D01*
X5050840Y4307433D01*
X5060188Y4319422D01*
X5068062Y4332427D01*
X5074310Y4346295D01*
X5078831Y4360773D01*
X5081574Y4375759D01*
X5082489Y4390898D01*
X5081574Y4406087D01*
X5078831Y4421022D01*
X5074310Y4435551D01*
X5068062Y4449419D01*
X5060188Y4462424D01*
X5050840Y4474413D01*
X5040071Y4485132D01*
X5028082Y4494530D01*
X5015077Y4502404D01*
X5001209Y4508601D01*
X4986731Y4513173D01*
X4971745Y4515866D01*
X4956606Y4516831D01*
X4941417Y4515866D01*
X4926482Y4513173D01*
X4911953Y4508601D01*
X4898085Y4502404D01*
X4885080Y4494530D01*
X4873091Y4485132D01*
X4862372Y4474413D01*
X4852974Y4462424D01*
X4845100Y4449419D01*
X4838903Y4435551D01*
X4834382Y4421022D01*
X4831638Y4406087D01*
X4830724Y4390898D01*
X4831638Y4375759D01*
X4834382Y4360773D01*
X4838903Y4346295D01*
X4845100Y4332427D01*
X4852974Y4319422D01*
X4862372Y4307433D01*
X4873091Y4296664D01*
X4885080Y4287316D01*
X4898085Y4279442D01*
X4912004Y4273194D01*
X4915154Y4270959D01*
X4917287Y4267708D01*
X4917998Y4263898D01*
X4917287Y4260138D01*
X4915154Y4256887D01*
X4912004Y4254652D01*
X4898085Y4248404D01*
X4885080Y4240530D01*
X4873091Y4231132D01*
X4862372Y4220413D01*
X4852974Y4208424D01*
X4845100Y4195419D01*
X4838903Y4181551D01*
X4834382Y4167022D01*
X4831638Y4152087D01*
X4830724Y4136898D01*
X4831638Y4121759D01*
X4834382Y4106773D01*
X4838903Y4092295D01*
X4845100Y4078427D01*
X4852974Y4065422D01*
X4862372Y4053433D01*
X4873091Y4042664D01*
X4885080Y4033316D01*
X4898085Y4025442D01*
X4912004Y4019194D01*
X4915154Y4016959D01*
X4917287Y4013708D01*
X4917998Y4009898D01*
X4917287Y4006138D01*
X4915154Y4002887D01*
X4912004Y4000652D01*
X4898085Y3994404D01*
X4885080Y3986529D01*
X4873091Y3977132D01*
X4862372Y3966413D01*
X4852974Y3954424D01*
X4845100Y3941419D01*
X4838903Y3927551D01*
X4834382Y3913022D01*
X4831638Y3898087D01*
X4830724Y3882898D01*
X4831638Y3867759D01*
X4834382Y3852773D01*
X4838903Y3838295D01*
X4845100Y3824427D01*
X4852974Y3811422D01*
X4862372Y3799433D01*
X4873091Y3788664D01*
X4885080Y3779316D01*
X4898085Y3771442D01*
X4912004Y3765194D01*
X4915154Y3762959D01*
X4917287Y3759708D01*
X4917998Y3755898D01*
X4917287Y3752138D01*
X4915154Y3748887D01*
X4912004Y3746652D01*
X4898085Y3740404D01*
X4885080Y3732529D01*
X4873091Y3723132D01*
X4862372Y3712413D01*
X4852974Y3700424D01*
X4845100Y3687419D01*
X4838903Y3673551D01*
X4834382Y3659022D01*
X4831638Y3644087D01*
X4830724Y3628898D01*
X4831638Y3613759D01*
X4834382Y3598773D01*
X4838903Y3584295D01*
X4845100Y3570427D01*
X4852974Y3557422D01*
X4862372Y3545433D01*
X4873091Y3534664D01*
X4885080Y3525316D01*
X4898085Y3517442D01*
X4912004Y3511194D01*
X4915154Y3508959D01*
X4917287Y3505708D01*
X4917998Y3501898D01*
X4917287Y3498138D01*
X4915154Y3494887D01*
X4912004Y3492652D01*
X4898085Y3486404D01*
X4885080Y3478529D01*
X4873091Y3469132D01*
X4862372Y3458413D01*
X4852974Y3446424D01*
X4845100Y3433419D01*
X4838903Y3419551D01*
X4834382Y3405022D01*
X4831638Y3390087D01*
X4830724Y3374898D01*
X4831638Y3359759D01*
X4834382Y3344773D01*
X4838903Y3330295D01*
X4845100Y3316427D01*
X4852974Y3303422D01*
X4862372Y3291433D01*
X4873091Y3280664D01*
X4885080Y3271316D01*
X4898085Y3263442D01*
X4912004Y3257194D01*
X4915154Y3254959D01*
X4917287Y3251708D01*
X4917998Y3247898D01*
X4917287Y3244138D01*
X4915154Y3240887D01*
X4912004Y3238652D01*
X4898085Y3232404D01*
X4885080Y3224530D01*
X4873091Y3215132D01*
X4862372Y3204413D01*
X4852974Y3192424D01*
X4845100Y3179419D01*
X4838903Y3165551D01*
X4834382Y3151022D01*
X4831638Y3136087D01*
X4830724Y3120898D01*
X4831638Y3105759D01*
X4834382Y3090773D01*
X4838903Y3076295D01*
X4845100Y3062427D01*
X4852974Y3049422D01*
X4862372Y3037433D01*
X4873091Y3026664D01*
X4885080Y3017316D01*
X4898085Y3009442D01*
X4912004Y3003194D01*
X4915154Y3000959D01*
X4917287Y2997708D01*
X4917998Y2993898D01*
X4917287Y2990138D01*
X4915154Y2986887D01*
X4912004Y2984652D01*
X4898085Y2978404D01*
X4885080Y2970530D01*
X4873091Y2961132D01*
X4862372Y2950413D01*
X4852974Y2938424D01*
X4845100Y2925419D01*
X4838903Y2911551D01*
X4834382Y2897022D01*
X4831638Y2882087D01*
X4830724Y2866898D01*
X4831638Y2851759D01*
X4834382Y2836773D01*
X4838903Y2822295D01*
X4845100Y2808427D01*
X4852974Y2795422D01*
X4862372Y2783433D01*
X4873091Y2772664D01*
X4885080Y2763316D01*
X4898085Y2755442D01*
X4912004Y2749194D01*
X4915154Y2746959D01*
X4917287Y2743708D01*
X4917998Y2739898D01*
X4917287Y2736138D01*
X4915154Y2732887D01*
X4912004Y2730652D01*
X4898085Y2724404D01*
X4885080Y2716530D01*
X4873091Y2707132D01*
X4862372Y2696413D01*
X4852974Y2684424D01*
X4845100Y2671419D01*
X4838903Y2657551D01*
X4834382Y2643022D01*
X4831638Y2628087D01*
X4830724Y2612898D01*
X4831638Y2597759D01*
X4834382Y2582773D01*
X4838903Y2568295D01*
X4845100Y2554427D01*
X4852974Y2541422D01*
X4862372Y2529433D01*
X4873091Y2518664D01*
X4885080Y2509316D01*
X4898085Y2501442D01*
X4911953Y2495194D01*
X4926482Y2490673D01*
X4941417Y2487930D01*
G37*

%LPD*%
D10*
X2981700Y1329883D02*
G01*
X2984492Y1332674D01*
X2984492Y3187692D01*
X5079992Y4946487D02*
G01*
X5079992Y5587992D01*
X3975092Y5372092D02*
G01*
X3975092Y5079979D01*
X4825992Y5078491D02*
G01*
X4825992Y5333992D01*
X3136892Y2755892D02*
G01*
X3136892Y2755892D01*
X3136892Y5079979D01*
X3809992Y2565392D02*
G01*
X3327392Y2565392D01*
X3136892Y2755892D01*
X3848092Y4267192D02*
G01*
X3848092Y3479792D01*
D11*
G01*
X380992Y5460992D03*
G01*
X380992Y380992D03*
G01*
X5460992Y380992D03*
G01*
X5460992Y5460992D03*
D12*
G01*
X4571992Y5587992D03*
G01*
X4571992Y5333992D03*
G01*
X4825992Y5333992D03*
G01*
X4825992Y5587992D03*
D13*
G01*
X1073091Y1329910D03*
G01*
X1327091Y1329910D03*
G01*
X1581091Y1329910D03*
G01*
X1835091Y1329910D03*
G01*
X2981698Y1329885D03*
G01*
X3235698Y1329885D03*
G01*
X3489698Y1329885D03*
G01*
X3743698Y1329885D03*
G01*
X3997698Y1329885D03*
G01*
X4251698Y1329885D03*
G01*
X4505698Y1329885D03*
G01*
X4759698Y1329885D03*
G01*
X4956573Y2612915D03*
G01*
X4956573Y2866915D03*
G01*
X4956573Y3120915D03*
G01*
X4956573Y3374915D03*
G01*
X4956573Y3628915D03*
G01*
X4956573Y3882915D03*
G01*
X4956573Y4136915D03*
G01*
X4956573Y4390915D03*
G01*
X885410Y3637881D03*
G01*
X885410Y3891881D03*
G01*
X885410Y4145881D03*
G01*
X885410Y4399881D03*
D14*
G01*
X1710885Y1460517D03*
G01*
X1456885Y1460517D03*
G01*
X1202885Y1460517D03*
G01*
X4635492Y1460492D03*
G01*
X4381492Y1460492D03*
G01*
X4127492Y1460492D03*
G01*
X3619492Y1460492D03*
G01*
X3365492Y1460492D03*
G01*
X3111492Y1460492D03*
G01*
X3873492Y1460492D03*
G01*
X3809992Y2565392D03*
G01*
X3860792Y2628892D03*
G01*
X3848092Y3479792D03*
G01*
X3924292Y3390892D03*
G01*
X2984492Y3187692D03*
G01*
X4832367Y2743522D03*
G01*
X4832367Y2997522D03*
G01*
X4832367Y3251522D03*
G01*
X4832367Y3505522D03*
G01*
X4832367Y3759522D03*
G01*
X4832367Y4013522D03*
G01*
X4832367Y4267522D03*
G01*
X4165592Y2793992D03*
G01*
X4152892Y3327392D03*
G01*
X3594092Y3327392D03*
G01*
X4229092Y2730492D03*
G01*
X4292592Y2666992D03*
G01*
X4356092Y2603492D03*
G01*
X4419592Y2539992D03*
G01*
X4483092Y2476492D03*
G01*
X4546592Y2412992D03*
G01*
X3848092Y4267192D03*
G01*
X5079992Y4946489D03*
G01*
X5079992Y5587992D03*
G01*
X3975092Y5372092D03*
G01*
X3975092Y5079966D03*
G01*
X4825992Y5078493D03*
G01*
X3136892Y5079966D03*
G01*
X1016017Y4270087D03*
G01*
X1016017Y4016087D03*
G01*
X1016017Y3762087D03*
G01*
X4635492Y2412992D03*
G01*
X4724392Y2412992D03*
G01*
X4813292Y2412992D03*
G01*
X4902192Y2412992D03*
G01*
X4991092Y2412992D03*
G01*
X5079966Y2412992D03*
G01*
X4229092Y3378192D03*
G01*
X4241792Y3467092D03*
G01*
X4241792Y3555992D03*
G01*
X4241792Y3657592D03*
G01*
X4241792Y3759192D03*
G01*
X4241792Y3860792D03*
G01*
X4241792Y3962392D03*
G01*
X4241792Y4063992D03*
G01*
X4241792Y4165592D03*
G01*
X4241792Y4267192D03*
G01*
X4241792Y4368792D03*
G01*
X4241792Y4470392D03*
G01*
X4241792Y4571992D03*
G01*
X4330692Y4571992D03*
G01*
X4419592Y4571992D03*
G01*
X4508492Y4571992D03*
G01*
X4597392Y4571992D03*
G01*
X4686292Y4571992D03*
G01*
X4775166Y4571992D03*
G01*
X4864066Y4571992D03*
G01*
X4952966Y4571992D03*
G01*
X5041866Y4571992D03*
G01*
X5168866Y2412992D03*
G01*
X5257766Y2412992D03*
G01*
X5346666Y2412992D03*
G01*
X5435566Y2412992D03*
G01*
X5524466Y2412992D03*
G01*
X5524466Y2501892D03*
G01*
X5524466Y2590792D03*
G01*
X5524466Y2679692D03*
G01*
X5524466Y2768592D03*
G01*
X5524466Y2857492D03*
G01*
X5524466Y2946392D03*
G01*
X5524466Y3035292D03*
G01*
X5524466Y3124192D03*
G01*
X5524466Y3213092D03*
G01*
X5524466Y3301992D03*
G01*
X5524466Y3390892D03*
G01*
X5524466Y3479792D03*
G01*
X5524466Y3568692D03*
G01*
X5524466Y3657592D03*
G01*
X5524466Y3746492D03*
G01*
X5524466Y3835392D03*
G01*
X5524466Y3924292D03*
G01*
X5524466Y4013192D03*
G01*
X5524466Y4102092D03*
G01*
X5524466Y4190992D03*
G01*
X5524466Y4279892D03*
G01*
X5524466Y4368792D03*
G01*
X5524466Y4457692D03*
G01*
X5130766Y4571992D03*
G01*
X5219666Y4571992D03*
G01*
X5308566Y4571992D03*
G01*
X5397466Y4571992D03*
G01*
X5486392Y4546592D03*
G01*
X3136892Y2755892D03*
G01*
X3340092Y3581392D03*
G01*
X3505192Y3695692D03*
G01*
X3505192Y3581392D03*
G01*
X3911592Y3708392D03*
M02*
