M48
METRIC,LZ,000.000
;FILE_FORMAT=3:3
;TYPE=PLATED
;Layer: PTH_Through
;EasyEDA v6.5.38, 2023-12-21 15:28:39
;fd97eb0cb9c34c2b97cff67de17a6c99,5a6b42c53f6a479593ecc07194224c93,10
;Gerber Generator version 0.2
;Holesize 1 = 0.305 mm
T01C0.305
;Holesize 2 = 0.310 mm
T02C0.310
;Holesize 3 = 0.701 mm
T03C0.701
;Holesize 4 = 1.000 mm
T04C1.000
;Holesize 5 = 1.101 mm
T05C1.101
;Holesize 6 = 1.301 mm
T06C1.301
;Holesize 7 = 3.000 mm
T07C3.000
%
G05
G90
T01
X048260Y048260
X050800Y046482
X048260Y057277
X050800Y055880
X048260Y051816
X036830Y029464
X020320Y026924
T02
X027178Y044450
X012700Y044450
X012700Y025457
X042164Y044450
X031750Y044450
X031750Y046482
X015240Y046482
X015240Y033077
X036830Y033020
X042164Y033020
X020320Y033020
X027178Y033020
X026162Y036322
X041148Y036322
X041148Y038100
X026162Y038100
T03
X052907Y033530G85X052007Y033530
X052907Y024890G85X052007Y024890
X056707Y024890G85X055807Y024890
X056707Y033530G85X055807Y033530
T04
X015240Y048260
X012700Y048260
T05
X048260Y055880
X048260Y053340
X045720Y053340
X045720Y055880
T06
X009108Y027997
X009108Y030537
X009108Y033077
X009108Y025457
T07
X003810Y054610
X054610Y054610
X054610Y003810
X003810Y003810
X054610Y054610
X003810Y054610
M30
