G04 Layer: BottomSilkscreenLayer*
G04 Panelize: Stamp Hole, Column: 2, Row: 2, Board Size: 58.42mm x 58.42mm, Panelized Board Size: 122.84mm x 122.84mm*
G04 EasyEDA v6.5.38, 2023-12-21 15:28:39*
G04 fd97eb0cb9c34c2b97cff67de17a6c99,5a6b42c53f6a479593ecc07194224c93,10*
G04 Gerber Generator version 0.2*
G04 Scale: 100 percent, Rotated: No, Reflected: No *
G04 Dimensions in millimeters *
G04 leading zeros omitted , absolute positions ,4 integer and 5 decimal *
%FSLAX45Y45*%
%MOMM*%

%ADD10C,0.1520*%
%ADD11C,0.1524*%
%ADD12C,0.2540*%

%LPD*%
D10*
X1865744Y5703338D02*
G01*
X1865744Y5620212D01*
X1870941Y5604624D01*
X1876135Y5599429D01*
X1886526Y5594235D01*
X1896917Y5594235D01*
X1907308Y5599429D01*
X1912505Y5604624D01*
X1917700Y5620212D01*
X1917700Y5630603D01*
X1831454Y5703338D02*
G01*
X1831454Y5594235D01*
X1831454Y5594235D02*
G01*
X1769110Y5594235D01*
X1656887Y5677362D02*
G01*
X1662084Y5687753D01*
X1672475Y5698144D01*
X1682864Y5703338D01*
X1703646Y5703338D01*
X1714037Y5698144D01*
X1724428Y5687753D01*
X1729625Y5677362D01*
X1734820Y5661774D01*
X1734820Y5635797D01*
X1729625Y5620212D01*
X1724428Y5609821D01*
X1714037Y5599429D01*
X1703646Y5594235D01*
X1682864Y5594235D01*
X1672475Y5599429D01*
X1662084Y5609821D01*
X1656887Y5620212D01*
X1570644Y5703338D02*
G01*
X1570644Y5620212D01*
X1575838Y5604624D01*
X1581035Y5599429D01*
X1591424Y5594235D01*
X1601815Y5594235D01*
X1612206Y5599429D01*
X1617403Y5604624D01*
X1622597Y5620212D01*
X1622597Y5630603D01*
X1536354Y5703338D02*
G01*
X1536354Y5594235D01*
X1536354Y5594235D02*
G01*
X1474007Y5594235D01*
X1361785Y5677362D02*
G01*
X1366982Y5687753D01*
X1377373Y5698144D01*
X1387764Y5703338D01*
X1408544Y5703338D01*
X1418935Y5698144D01*
X1429326Y5687753D01*
X1434523Y5677362D01*
X1439717Y5661774D01*
X1439717Y5635797D01*
X1434523Y5620212D01*
X1429326Y5609821D01*
X1418935Y5599429D01*
X1408544Y5594235D01*
X1387764Y5594235D01*
X1377373Y5599429D01*
X1366982Y5609821D01*
X1361785Y5620212D01*
X1275542Y5703338D02*
G01*
X1275542Y5620212D01*
X1280736Y5604624D01*
X1285933Y5599429D01*
X1296324Y5594235D01*
X1306715Y5594235D01*
X1317104Y5599429D01*
X1322301Y5604624D01*
X1327495Y5620212D01*
X1327495Y5630603D01*
X1241252Y5703338D02*
G01*
X1241252Y5594235D01*
X1241252Y5594235D02*
G01*
X1178905Y5594235D01*
X1066685Y5677362D02*
G01*
X1071879Y5687753D01*
X1082271Y5698144D01*
X1092662Y5703338D01*
X1113444Y5703338D01*
X1123835Y5698144D01*
X1134224Y5687753D01*
X1139421Y5677362D01*
X1144615Y5661774D01*
X1144615Y5635797D01*
X1139421Y5620212D01*
X1134224Y5609821D01*
X1123835Y5599429D01*
X1113444Y5594235D01*
X1092662Y5594235D01*
X1082271Y5599429D01*
X1071879Y5609821D01*
X1066685Y5620212D01*
X980439Y5703338D02*
G01*
X980439Y5620212D01*
X985634Y5604624D01*
X990831Y5599429D01*
X1001222Y5594235D01*
X1011613Y5594235D01*
X1022004Y5599429D01*
X1027198Y5604624D01*
X1032395Y5620212D01*
X1032395Y5630603D01*
X946150Y5703338D02*
G01*
X946150Y5594235D01*
X946150Y5594235D02*
G01*
X883805Y5594235D01*
X771583Y5677362D02*
G01*
X776777Y5687753D01*
X787168Y5698144D01*
X797560Y5703338D01*
X818342Y5703338D01*
X828733Y5698144D01*
X839124Y5687753D01*
X844318Y5677362D01*
X849515Y5661774D01*
X849515Y5635797D01*
X844318Y5620212D01*
X839124Y5609821D01*
X828733Y5599429D01*
X818342Y5594235D01*
X797560Y5594235D01*
X787168Y5599429D01*
X776777Y5609821D01*
X771583Y5620212D01*
D11*
X2754167Y5486862D02*
G01*
X2759364Y5497253D01*
X2769755Y5507644D01*
X2780144Y5512838D01*
X2800926Y5512838D01*
X2811317Y5507644D01*
X2821708Y5497253D01*
X2826905Y5486862D01*
X2832100Y5471274D01*
X2832100Y5445297D01*
X2826905Y5429712D01*
X2821708Y5419321D01*
X2811317Y5408929D01*
X2800926Y5403735D01*
X2780144Y5403735D01*
X2769755Y5408929D01*
X2759364Y5419321D01*
X2754167Y5429712D01*
X2688704Y5512838D02*
G01*
X2699095Y5507644D01*
X2709486Y5497253D01*
X2714683Y5486862D01*
X2719877Y5471274D01*
X2719877Y5445297D01*
X2714683Y5429712D01*
X2709486Y5419321D01*
X2699095Y5408929D01*
X2688704Y5403735D01*
X2667924Y5403735D01*
X2657533Y5408929D01*
X2647142Y5419321D01*
X2641945Y5429712D01*
X2636751Y5445297D01*
X2636751Y5471274D01*
X2641945Y5486862D01*
X2647142Y5497253D01*
X2657533Y5507644D01*
X2667924Y5512838D01*
X2688704Y5512838D01*
X2602461Y5512838D02*
G01*
X2602461Y5403735D01*
X2602461Y5512838D02*
G01*
X2555702Y5512838D01*
X2540114Y5507644D01*
X2534920Y5502447D01*
X2529725Y5492056D01*
X2529725Y5476471D01*
X2534920Y5466079D01*
X2540114Y5460885D01*
X2555702Y5455688D01*
X2602461Y5455688D01*
X2495435Y5512838D02*
G01*
X2453871Y5460885D01*
X2453871Y5403735D01*
X2412306Y5512838D02*
G01*
X2453871Y5460885D01*
X2378016Y5512838D02*
G01*
X2378016Y5403735D01*
X2378016Y5512838D02*
G01*
X2331257Y5512838D01*
X2315672Y5507644D01*
X2310475Y5502447D01*
X2305281Y5492056D01*
X2305281Y5481665D01*
X2310475Y5471274D01*
X2315672Y5466079D01*
X2331257Y5460885D01*
X2378016Y5460885D01*
X2341648Y5460885D02*
G01*
X2305281Y5403735D01*
X2270991Y5512838D02*
G01*
X2270991Y5403735D01*
X2158768Y5486862D02*
G01*
X2163965Y5497253D01*
X2174354Y5507644D01*
X2184745Y5512838D01*
X2205527Y5512838D01*
X2215918Y5507644D01*
X2226309Y5497253D01*
X2231504Y5486862D01*
X2236701Y5471274D01*
X2236701Y5445297D01*
X2231504Y5429712D01*
X2226309Y5419321D01*
X2215918Y5408929D01*
X2205527Y5403735D01*
X2184745Y5403735D01*
X2174354Y5408929D01*
X2163965Y5419321D01*
X2158768Y5429712D01*
X2158768Y5445297D01*
X2184745Y5445297D02*
G01*
X2158768Y5445297D01*
X2124478Y5512838D02*
G01*
X2124478Y5403735D01*
X2051743Y5512838D02*
G01*
X2051743Y5403735D01*
X2124478Y5460885D02*
G01*
X2051743Y5460885D01*
X1981085Y5512838D02*
G01*
X1981085Y5403735D01*
X2017453Y5512838D02*
G01*
X1944715Y5512838D01*
X1825221Y5486862D02*
G01*
X1825221Y5492056D01*
X1820024Y5502447D01*
X1814829Y5507644D01*
X1804438Y5512838D01*
X1783656Y5512838D01*
X1773265Y5507644D01*
X1768071Y5502447D01*
X1762874Y5492056D01*
X1762874Y5481665D01*
X1768071Y5471274D01*
X1778462Y5455688D01*
X1830415Y5403735D01*
X1757679Y5403735D01*
X1692216Y5512838D02*
G01*
X1707804Y5507644D01*
X1718195Y5492056D01*
X1723389Y5466079D01*
X1723389Y5450494D01*
X1718195Y5424515D01*
X1707804Y5408929D01*
X1692216Y5403735D01*
X1681825Y5403735D01*
X1666239Y5408929D01*
X1655848Y5424515D01*
X1650654Y5450494D01*
X1650654Y5466079D01*
X1655848Y5492056D01*
X1666239Y5507644D01*
X1681825Y5512838D01*
X1692216Y5512838D01*
X1611167Y5486862D02*
G01*
X1611167Y5492056D01*
X1605973Y5502447D01*
X1600776Y5507644D01*
X1590385Y5512838D01*
X1569605Y5512838D01*
X1559214Y5507644D01*
X1554017Y5502447D01*
X1548823Y5492056D01*
X1548823Y5481665D01*
X1554017Y5471274D01*
X1564408Y5455688D01*
X1616364Y5403735D01*
X1543626Y5403735D01*
X1498945Y5512838D02*
G01*
X1441795Y5512838D01*
X1472968Y5471274D01*
X1457383Y5471274D01*
X1446992Y5466079D01*
X1441795Y5460885D01*
X1436601Y5445297D01*
X1436601Y5434906D01*
X1441795Y5419321D01*
X1452186Y5408929D01*
X1467774Y5403735D01*
X1483360Y5403735D01*
X1498945Y5408929D01*
X1504142Y5414124D01*
X1509336Y5424515D01*
X1322301Y5512838D02*
G01*
X1280736Y5403735D01*
X1239174Y5512838D02*
G01*
X1280736Y5403735D01*
X1204884Y5512838D02*
G01*
X1204884Y5403735D01*
X1204884Y5512838D02*
G01*
X1137343Y5512838D01*
X1204884Y5460885D02*
G01*
X1163320Y5460885D01*
X1204884Y5403735D02*
G01*
X1137343Y5403735D01*
X1030315Y5512838D02*
G01*
X1082271Y5403735D01*
X1103053Y5512838D02*
G01*
X1030315Y5512838D01*
X996025Y5512838D02*
G01*
X996025Y5403735D01*
X996025Y5512838D02*
G01*
X928484Y5512838D01*
X996025Y5460885D02*
G01*
X954463Y5460885D01*
X894194Y5512838D02*
G01*
X894194Y5403735D01*
X859904Y5512838D02*
G01*
X859904Y5403735D01*
X859904Y5512838D02*
G01*
X818342Y5403735D01*
X776777Y5512838D02*
G01*
X818342Y5403735D01*
X776777Y5512838D02*
G01*
X776777Y5403735D01*
X2179271Y4628728D02*
G01*
X2122121Y4628728D01*
X2153295Y4587163D01*
X2137707Y4587163D01*
X2127318Y4581969D01*
X2122121Y4576775D01*
X2116927Y4561187D01*
X2116927Y4550796D01*
X2122121Y4535210D01*
X2132512Y4524819D01*
X2148098Y4519625D01*
X2163686Y4519625D01*
X2179271Y4524819D01*
X2184468Y4530013D01*
X2189662Y4540404D01*
X2082637Y4628728D02*
G01*
X2041072Y4519625D01*
X1999508Y4628728D02*
G01*
X2041072Y4519625D01*
X1954827Y4628728D02*
G01*
X1897677Y4628728D01*
X1928850Y4587163D01*
X1913265Y4587163D01*
X1902874Y4581969D01*
X1897677Y4576775D01*
X1892482Y4561187D01*
X1892482Y4550796D01*
X1897677Y4535210D01*
X1908068Y4524819D01*
X1923656Y4519625D01*
X1939241Y4519625D01*
X1954827Y4524819D01*
X1960024Y4530013D01*
X1965218Y4540404D01*
X1747009Y4628728D02*
G01*
X1757400Y4623534D01*
X1767791Y4613142D01*
X1772988Y4602751D01*
X1778182Y4587163D01*
X1778182Y4561187D01*
X1772988Y4545601D01*
X1767791Y4535210D01*
X1757400Y4524819D01*
X1747009Y4519625D01*
X1726227Y4519625D01*
X1715838Y4524819D01*
X1705447Y4535210D01*
X1700250Y4545601D01*
X1695056Y4561187D01*
X1695056Y4587163D01*
X1700250Y4602751D01*
X1705447Y4613142D01*
X1715838Y4623534D01*
X1726227Y4628728D01*
X1747009Y4628728D01*
X1660766Y4628728D02*
G01*
X1660766Y4550796D01*
X1655569Y4535210D01*
X1645178Y4524819D01*
X1629592Y4519625D01*
X1619201Y4519625D01*
X1603616Y4524819D01*
X1593225Y4535210D01*
X1588028Y4550796D01*
X1588028Y4628728D01*
X1517370Y4628728D02*
G01*
X1517370Y4519625D01*
X1553738Y4628728D02*
G01*
X1481002Y4628728D01*
X1446712Y4628728D02*
G01*
X1446712Y4519625D01*
X1446712Y4628728D02*
G01*
X1399954Y4628728D01*
X1384368Y4623534D01*
X1379171Y4618337D01*
X1373977Y4607946D01*
X1373977Y4592360D01*
X1379171Y4581969D01*
X1384368Y4576775D01*
X1399954Y4571578D01*
X1446712Y4571578D01*
X1339687Y4628728D02*
G01*
X1339687Y4550796D01*
X1334490Y4535210D01*
X1324099Y4524819D01*
X1308514Y4519625D01*
X1298122Y4519625D01*
X1282537Y4524819D01*
X1272146Y4535210D01*
X1266949Y4550796D01*
X1266949Y4628728D01*
X1196291Y4628728D02*
G01*
X1196291Y4519625D01*
X1232659Y4628728D02*
G01*
X1159924Y4628728D01*
X1045624Y4628728D02*
G01*
X1045624Y4519625D01*
X1045624Y4628728D02*
G01*
X978082Y4628728D01*
X1045624Y4576775D02*
G01*
X1004059Y4576775D01*
X1045624Y4519625D02*
G01*
X978082Y4519625D01*
X943792Y4628728D02*
G01*
X943792Y4519625D01*
X943792Y4628728D02*
G01*
X871057Y4519625D01*
X871057Y4628728D02*
G01*
X871057Y4519625D01*
X795202Y4628728D02*
G01*
X836767Y4519625D01*
X795202Y4628728D02*
G01*
X753638Y4519625D01*
X821179Y4555992D02*
G01*
X769226Y4555992D01*
X719348Y4628728D02*
G01*
X719348Y4519625D01*
X719348Y4628728D02*
G01*
X672589Y4628728D01*
X657004Y4623534D01*
X651807Y4618337D01*
X646612Y4607946D01*
X646612Y4597554D01*
X651807Y4587163D01*
X657004Y4581969D01*
X672589Y4576775D01*
X719348Y4576775D02*
G01*
X672589Y4576775D01*
X657004Y4571578D01*
X651807Y4566384D01*
X646612Y4555992D01*
X646612Y4540404D01*
X651807Y4530013D01*
X657004Y4524819D01*
X672589Y4519625D01*
X719348Y4519625D01*
X612322Y4628728D02*
G01*
X612322Y4519625D01*
X612322Y4519625D02*
G01*
X549978Y4519625D01*
X515688Y4628728D02*
G01*
X515688Y4519625D01*
X515688Y4628728D02*
G01*
X448147Y4628728D01*
X515688Y4576775D02*
G01*
X474124Y4576775D01*
X515688Y4519625D02*
G01*
X448147Y4519625D01*
X2057394Y4458731D02*
G01*
X2057394Y4349628D01*
X2057394Y4458731D02*
G01*
X2010636Y4458731D01*
X1995050Y4453536D01*
X1989853Y4448340D01*
X1984659Y4437948D01*
X1984659Y4427557D01*
X1989853Y4417166D01*
X1995050Y4411972D01*
X2010636Y4406778D01*
X2057394Y4406778D01*
X2021027Y4406778D02*
G01*
X1984659Y4349628D01*
X1950369Y4458731D02*
G01*
X1950369Y4349628D01*
X1950369Y4458731D02*
G01*
X1882828Y4458731D01*
X1950369Y4406778D02*
G01*
X1908804Y4406778D01*
X1950369Y4349628D02*
G01*
X1882828Y4349628D01*
X1848538Y4458731D02*
G01*
X1848538Y4349628D01*
X1848538Y4458731D02*
G01*
X1806973Y4349628D01*
X1765409Y4458731D02*
G01*
X1806973Y4349628D01*
X1765409Y4458731D02*
G01*
X1765409Y4349628D01*
X1699948Y4458731D02*
G01*
X1710339Y4453536D01*
X1720730Y4443145D01*
X1725924Y4432754D01*
X1731119Y4417166D01*
X1731119Y4391190D01*
X1725924Y4375604D01*
X1720730Y4365213D01*
X1710339Y4354822D01*
X1699948Y4349628D01*
X1679166Y4349628D01*
X1668774Y4354822D01*
X1658383Y4365213D01*
X1653189Y4375604D01*
X1647992Y4391190D01*
X1647992Y4417166D01*
X1653189Y4432754D01*
X1658383Y4443145D01*
X1668774Y4453536D01*
X1679166Y4458731D01*
X1699948Y4458731D01*
X1613702Y4458731D02*
G01*
X1572140Y4349628D01*
X1530576Y4458731D02*
G01*
X1572140Y4349628D01*
X1496286Y4458731D02*
G01*
X1496286Y4349628D01*
X1496286Y4458731D02*
G01*
X1428744Y4458731D01*
X1496286Y4406778D02*
G01*
X1454721Y4406778D01*
X1496286Y4349628D02*
G01*
X1428744Y4349628D01*
X1314444Y4458731D02*
G01*
X1314444Y4349628D01*
X1280154Y4458731D02*
G01*
X1280154Y4349628D01*
X1280154Y4458731D02*
G01*
X1212613Y4458731D01*
X1280154Y4406778D02*
G01*
X1238590Y4406778D01*
X1067140Y4458731D02*
G01*
X1077531Y4453536D01*
X1087922Y4443145D01*
X1093119Y4432754D01*
X1098313Y4417166D01*
X1098313Y4391190D01*
X1093119Y4375604D01*
X1087922Y4365213D01*
X1077531Y4354822D01*
X1067140Y4349628D01*
X1046360Y4349628D01*
X1035969Y4354822D01*
X1025578Y4365213D01*
X1020381Y4375604D01*
X1015187Y4391190D01*
X1015187Y4417166D01*
X1020381Y4432754D01*
X1025578Y4443145D01*
X1035969Y4453536D01*
X1046360Y4458731D01*
X1067140Y4458731D01*
X944529Y4458731D02*
G01*
X944529Y4349628D01*
X980897Y4458731D02*
G01*
X908159Y4458731D01*
X873869Y4458731D02*
G01*
X873869Y4349628D01*
X801133Y4458731D02*
G01*
X801133Y4349628D01*
X873869Y4406778D02*
G01*
X801133Y4406778D01*
X766843Y4458731D02*
G01*
X766843Y4349628D01*
X766843Y4458731D02*
G01*
X699302Y4458731D01*
X766843Y4406778D02*
G01*
X725279Y4406778D01*
X766843Y4349628D02*
G01*
X699302Y4349628D01*
X665012Y4458731D02*
G01*
X665012Y4349628D01*
X665012Y4458731D02*
G01*
X618253Y4458731D01*
X602668Y4453536D01*
X597471Y4448340D01*
X592277Y4437948D01*
X592277Y4427557D01*
X597471Y4417166D01*
X602668Y4411972D01*
X618253Y4406778D01*
X665012Y4406778D01*
X628644Y4406778D02*
G01*
X592277Y4349628D01*
X2108194Y4280931D02*
G01*
X2108194Y4171828D01*
X2108194Y4280931D02*
G01*
X2061436Y4280931D01*
X2045850Y4275736D01*
X2040653Y4270540D01*
X2035459Y4260148D01*
X2035459Y4244563D01*
X2040653Y4234172D01*
X2045850Y4228978D01*
X2061436Y4223781D01*
X2108194Y4223781D01*
X1969996Y4280931D02*
G01*
X1980387Y4275736D01*
X1990778Y4265345D01*
X1995972Y4254954D01*
X2001169Y4239366D01*
X2001169Y4213390D01*
X1995972Y4197804D01*
X1990778Y4187413D01*
X1980387Y4177022D01*
X1969996Y4171828D01*
X1949213Y4171828D01*
X1938822Y4177022D01*
X1928431Y4187413D01*
X1923237Y4197804D01*
X1918040Y4213390D01*
X1918040Y4239366D01*
X1923237Y4254954D01*
X1928431Y4265345D01*
X1938822Y4275736D01*
X1949213Y4280931D01*
X1969996Y4280931D01*
X1883750Y4280931D02*
G01*
X1857773Y4171828D01*
X1831797Y4280931D02*
G01*
X1857773Y4171828D01*
X1831797Y4280931D02*
G01*
X1805820Y4171828D01*
X1779841Y4280931D02*
G01*
X1805820Y4171828D01*
X1745551Y4280931D02*
G01*
X1745551Y4171828D01*
X1745551Y4280931D02*
G01*
X1678010Y4280931D01*
X1745551Y4228978D02*
G01*
X1703989Y4228978D01*
X1745551Y4171828D02*
G01*
X1678010Y4171828D01*
X1643720Y4280931D02*
G01*
X1643720Y4171828D01*
X1643720Y4280931D02*
G01*
X1596961Y4280931D01*
X1581376Y4275736D01*
X1576179Y4270540D01*
X1570984Y4260148D01*
X1570984Y4249757D01*
X1576179Y4239366D01*
X1581376Y4234172D01*
X1596961Y4228978D01*
X1643720Y4228978D01*
X1607352Y4228978D02*
G01*
X1570984Y4171828D01*
X1536694Y4218586D02*
G01*
X1443177Y4218586D01*
X1336149Y4265345D02*
G01*
X1346540Y4275736D01*
X1362128Y4280931D01*
X1382910Y4280931D01*
X1398496Y4275736D01*
X1408887Y4265345D01*
X1408887Y4254954D01*
X1403690Y4244563D01*
X1398496Y4239366D01*
X1388104Y4234172D01*
X1356931Y4223781D01*
X1346540Y4218586D01*
X1341346Y4213390D01*
X1336149Y4202998D01*
X1336149Y4187413D01*
X1346540Y4177022D01*
X1362128Y4171828D01*
X1382910Y4171828D01*
X1398496Y4177022D01*
X1408887Y4187413D01*
X1301859Y4280931D02*
G01*
X1301859Y4202998D01*
X1296664Y4187413D01*
X1286273Y4177022D01*
X1270688Y4171828D01*
X1260297Y4171828D01*
X1244709Y4177022D01*
X1234320Y4187413D01*
X1229123Y4202998D01*
X1229123Y4280931D01*
X1194833Y4280931D02*
G01*
X1194833Y4171828D01*
X1194833Y4280931D02*
G01*
X1148074Y4280931D01*
X1132489Y4275736D01*
X1127292Y4270540D01*
X1122098Y4260148D01*
X1122098Y4244563D01*
X1127292Y4234172D01*
X1132489Y4228978D01*
X1148074Y4223781D01*
X1194833Y4223781D01*
X1087808Y4280931D02*
G01*
X1087808Y4171828D01*
X1087808Y4280931D02*
G01*
X1041049Y4280931D01*
X1025461Y4275736D01*
X1020267Y4270540D01*
X1015070Y4260148D01*
X1015070Y4244563D01*
X1020267Y4234172D01*
X1025461Y4228978D01*
X1041049Y4223781D01*
X1087808Y4223781D01*
X980780Y4280931D02*
G01*
X980780Y4171828D01*
X980780Y4171828D02*
G01*
X918436Y4171828D01*
X884146Y4280931D02*
G01*
X842581Y4228978D01*
X842581Y4171828D01*
X801019Y4280931D02*
G01*
X842581Y4228978D01*
X766729Y4280931D02*
G01*
X766729Y4171828D01*
X732439Y4280931D02*
G01*
X732439Y4171828D01*
X732439Y4280931D02*
G01*
X659701Y4171828D01*
X659701Y4280931D02*
G01*
X659701Y4171828D01*
X547479Y4254954D02*
G01*
X552676Y4265345D01*
X563067Y4275736D01*
X573458Y4280931D01*
X594240Y4280931D01*
X604629Y4275736D01*
X615020Y4265345D01*
X620217Y4254954D01*
X625411Y4239366D01*
X625411Y4213390D01*
X620217Y4197804D01*
X615020Y4187413D01*
X604629Y4177022D01*
X594240Y4171828D01*
X573458Y4171828D01*
X563067Y4177022D01*
X552676Y4187413D01*
X547479Y4197804D01*
X547479Y4213390D01*
X573458Y4213390D02*
G01*
X547479Y4213390D01*
X2158989Y4103123D02*
G01*
X2158989Y3994020D01*
X2158989Y4103123D02*
G01*
X2117425Y3994020D01*
X2075863Y4103123D02*
G01*
X2117425Y3994020D01*
X2075863Y4103123D02*
G01*
X2075863Y3994020D01*
X2010399Y4103123D02*
G01*
X2020790Y4097929D01*
X2031182Y4087538D01*
X2036376Y4077147D01*
X2041573Y4061559D01*
X2041573Y4035582D01*
X2036376Y4019997D01*
X2031182Y4009605D01*
X2020790Y3999214D01*
X2010399Y3994020D01*
X1989617Y3994020D01*
X1979226Y3999214D01*
X1968835Y4009605D01*
X1963640Y4019997D01*
X1958444Y4035582D01*
X1958444Y4061559D01*
X1963640Y4077147D01*
X1968835Y4087538D01*
X1979226Y4097929D01*
X1989617Y4103123D01*
X2010399Y4103123D01*
X1924154Y4103123D02*
G01*
X1924154Y3994020D01*
X1924154Y4103123D02*
G01*
X1887786Y4103123D01*
X1872200Y4097929D01*
X1861809Y4087538D01*
X1856615Y4077147D01*
X1851418Y4061559D01*
X1851418Y4035582D01*
X1856615Y4019997D01*
X1861809Y4009605D01*
X1872200Y3999214D01*
X1887786Y3994020D01*
X1924154Y3994020D01*
X1817128Y4103123D02*
G01*
X1817128Y4025191D01*
X1811934Y4009605D01*
X1801543Y3999214D01*
X1785955Y3994020D01*
X1775564Y3994020D01*
X1759978Y3999214D01*
X1749587Y4009605D01*
X1744393Y4025191D01*
X1744393Y4103123D01*
X1710103Y4103123D02*
G01*
X1710103Y3994020D01*
X1710103Y3994020D02*
G01*
X1647756Y3994020D01*
X1613466Y4103123D02*
G01*
X1613466Y3994020D01*
X1613466Y4103123D02*
G01*
X1545925Y4103123D01*
X1613466Y4051170D02*
G01*
X1571904Y4051170D01*
X1613466Y3994020D02*
G01*
X1545925Y3994020D01*
X1475267Y4123905D02*
G01*
X1485658Y4113514D01*
X1496049Y4097929D01*
X1506440Y4077147D01*
X1511635Y4051170D01*
X1511635Y4030388D01*
X1506440Y4004409D01*
X1496049Y3983629D01*
X1485658Y3968041D01*
X1475267Y3957650D01*
X1368242Y4087538D02*
G01*
X1378633Y4097929D01*
X1394218Y4103123D01*
X1415000Y4103123D01*
X1430586Y4097929D01*
X1440977Y4087538D01*
X1440977Y4077147D01*
X1435783Y4066755D01*
X1430586Y4061559D01*
X1420195Y4056364D01*
X1389024Y4045973D01*
X1378633Y4040779D01*
X1373436Y4035582D01*
X1368242Y4025191D01*
X1368242Y4009605D01*
X1378633Y3999214D01*
X1394218Y3994020D01*
X1415000Y3994020D01*
X1430586Y3999214D01*
X1440977Y4009605D01*
X1333952Y4123905D02*
G01*
X1323560Y4113514D01*
X1313169Y4097929D01*
X1302778Y4077147D01*
X1297584Y4051170D01*
X1297584Y4030388D01*
X1302778Y4004409D01*
X1313169Y3983629D01*
X1323560Y3968041D01*
X1333952Y3957650D01*
X1183284Y4103123D02*
G01*
X1183284Y3994020D01*
X1183284Y4103123D02*
G01*
X1136525Y4103123D01*
X1120937Y4097929D01*
X1115743Y4092732D01*
X1110546Y4082341D01*
X1110546Y4066755D01*
X1115743Y4056364D01*
X1120937Y4051170D01*
X1136525Y4045973D01*
X1183284Y4045973D01*
X1076256Y4103123D02*
G01*
X1076256Y3994020D01*
X1076256Y4103123D02*
G01*
X1029497Y4103123D01*
X1013912Y4097929D01*
X1008715Y4092732D01*
X1003520Y4082341D01*
X1003520Y4071950D01*
X1008715Y4061559D01*
X1013912Y4056364D01*
X1029497Y4051170D01*
X1076256Y4051170D01*
X1039888Y4051170D02*
G01*
X1003520Y3994020D01*
X969230Y4103123D02*
G01*
X969230Y3994020D01*
X969230Y4103123D02*
G01*
X901689Y4103123D01*
X969230Y4051170D02*
G01*
X927666Y4051170D01*
X969230Y3994020D02*
G01*
X901689Y3994020D01*
X794664Y4087538D02*
G01*
X805055Y4097929D01*
X820640Y4103123D01*
X841423Y4103123D01*
X857008Y4097929D01*
X867399Y4087538D01*
X867399Y4077147D01*
X862205Y4066755D01*
X857008Y4061559D01*
X846617Y4056364D01*
X815444Y4045973D01*
X805055Y4040779D01*
X799858Y4035582D01*
X794664Y4025191D01*
X794664Y4009605D01*
X805055Y3999214D01*
X820640Y3994020D01*
X841423Y3994020D01*
X857008Y3999214D01*
X867399Y4009605D01*
X760374Y4103123D02*
G01*
X760374Y3994020D01*
X760374Y4103123D02*
G01*
X692833Y4103123D01*
X760374Y4051170D02*
G01*
X718809Y4051170D01*
X760374Y3994020D02*
G01*
X692833Y3994020D01*
X658543Y4103123D02*
G01*
X658543Y3994020D01*
X658543Y4103123D02*
G01*
X585805Y3994020D01*
X585805Y4103123D02*
G01*
X585805Y3994020D01*
X515147Y4103123D02*
G01*
X515147Y3994020D01*
X551515Y4103123D02*
G01*
X478779Y4103123D01*
D12*
X1650997Y4952989D02*
G01*
X1650997Y4698989D01*
X1142997Y4698989D01*
X1142997Y4952989D01*
X1650997Y4952989D01*
X1650997Y4698989D01*
G75*
G01
X2684399Y1219200D02*
G03X2684399Y1219200I-499999J0D01*
X4445000Y5715000D02*
G01*
X4953000Y5715000D01*
X4953000Y5207000D01*
X4445000Y5207000D01*
X4445000Y5715000D01*
M02*
