M48
METRIC,LZ,000.000
;FILE_FORMAT=3:3
;TYPE=PLATED
;Layer: PTH_Through
;EasyEDA v6.5.34, 2023-08-21 18:11:39
;6b8a08da89de4659a48f0417751e7769,5a6b42c53f6a479593ecc07194224c93,10
;Gerber Generator version 0.2
;Holesize 1 = 0.305 mm
T01C0.305
;Holesize 2 = 1.101 mm
T02C1.101
;Holesize 3 = 1.301 mm
T03C1.301
;Holesize 4 = 3.000 mm
T04C3.000
%
G05
G90
T01
X040005Y050800
X040005Y053721
X050800Y055880
X050800Y050800
X003683Y027170
X003683Y050800
X041656Y032639
X041656Y030202
X034036Y032639
X034036Y027662
T02
X045720Y055880
X045720Y053340
X048260Y053340
X048260Y055880
T03
X049312Y032742
X049312Y025122
X049312Y027662
X049312Y030202
T04
X003810Y054610
X003810Y003810
X054610Y003810
X054610Y054610
M30
