G04 Layer: BottomSilkscreenLayer*
G04 EasyEDA v6.5.32, 2023-07-25 14:04:49*
G04 6491edecb3f74ba59fc972a52df51078,5a6b42c53f6a479593ecc07194224c93,10*
G04 Gerber Generator version 0.2*
G04 Scale: 100 percent, Rotated: No, Reflected: No *
G04 Dimensions in millimeters *
G04 leading zeros omitted , absolute positions ,4 integer and 5 decimal *
%FSLAX45Y45*%
%MOMM*%

%ADD10C,0.1524*%
%ADD11C,0.1520*%
%ADD12C,0.2540*%

%LPD*%
D10*
X3846367Y3696162D02*
G01*
X3851564Y3706553D01*
X3861955Y3716944D01*
X3872344Y3722138D01*
X3893126Y3722138D01*
X3903517Y3716944D01*
X3913908Y3706553D01*
X3919105Y3696162D01*
X3924300Y3680574D01*
X3924300Y3654597D01*
X3919105Y3639012D01*
X3913908Y3628621D01*
X3903517Y3618229D01*
X3893126Y3613035D01*
X3872344Y3613035D01*
X3861955Y3618229D01*
X3851564Y3628621D01*
X3846367Y3639012D01*
X3780904Y3722138D02*
G01*
X3791295Y3716944D01*
X3801686Y3706553D01*
X3806883Y3696162D01*
X3812077Y3680574D01*
X3812077Y3654597D01*
X3806883Y3639012D01*
X3801686Y3628621D01*
X3791295Y3618229D01*
X3780904Y3613035D01*
X3760124Y3613035D01*
X3749733Y3618229D01*
X3739342Y3628621D01*
X3734145Y3639012D01*
X3728951Y3654597D01*
X3728951Y3680574D01*
X3734145Y3696162D01*
X3739342Y3706553D01*
X3749733Y3716944D01*
X3760124Y3722138D01*
X3780904Y3722138D01*
X3694661Y3722138D02*
G01*
X3694661Y3613035D01*
X3694661Y3722138D02*
G01*
X3647902Y3722138D01*
X3632314Y3716944D01*
X3627120Y3711747D01*
X3621925Y3701356D01*
X3621925Y3685771D01*
X3627120Y3675379D01*
X3632314Y3670185D01*
X3647902Y3664988D01*
X3694661Y3664988D01*
X3587635Y3722138D02*
G01*
X3546071Y3670185D01*
X3546071Y3613035D01*
X3504506Y3722138D02*
G01*
X3546071Y3670185D01*
X3470216Y3722138D02*
G01*
X3470216Y3613035D01*
X3470216Y3722138D02*
G01*
X3423457Y3722138D01*
X3407872Y3716944D01*
X3402675Y3711747D01*
X3397481Y3701356D01*
X3397481Y3690965D01*
X3402675Y3680574D01*
X3407872Y3675379D01*
X3423457Y3670185D01*
X3470216Y3670185D01*
X3433848Y3670185D02*
G01*
X3397481Y3613035D01*
X3363191Y3722138D02*
G01*
X3363191Y3613035D01*
X3250968Y3696162D02*
G01*
X3256165Y3706553D01*
X3266554Y3716944D01*
X3276945Y3722138D01*
X3297727Y3722138D01*
X3308118Y3716944D01*
X3318509Y3706553D01*
X3323704Y3696162D01*
X3328901Y3680574D01*
X3328901Y3654597D01*
X3323704Y3639012D01*
X3318509Y3628621D01*
X3308118Y3618229D01*
X3297727Y3613035D01*
X3276945Y3613035D01*
X3266554Y3618229D01*
X3256165Y3628621D01*
X3250968Y3639012D01*
X3250968Y3654597D01*
X3276945Y3654597D02*
G01*
X3250968Y3654597D01*
X3216678Y3722138D02*
G01*
X3216678Y3613035D01*
X3143943Y3722138D02*
G01*
X3143943Y3613035D01*
X3216678Y3670185D02*
G01*
X3143943Y3670185D01*
X3073285Y3722138D02*
G01*
X3073285Y3613035D01*
X3109653Y3722138D02*
G01*
X3036915Y3722138D01*
X2917421Y3696162D02*
G01*
X2917421Y3701356D01*
X2912224Y3711747D01*
X2907029Y3716944D01*
X2896638Y3722138D01*
X2875856Y3722138D01*
X2865465Y3716944D01*
X2860271Y3711747D01*
X2855074Y3701356D01*
X2855074Y3690965D01*
X2860271Y3680574D01*
X2870662Y3664988D01*
X2922615Y3613035D01*
X2849879Y3613035D01*
X2784416Y3722138D02*
G01*
X2800004Y3716944D01*
X2810395Y3701356D01*
X2815590Y3675379D01*
X2815590Y3659794D01*
X2810395Y3633815D01*
X2800004Y3618229D01*
X2784416Y3613035D01*
X2774025Y3613035D01*
X2758440Y3618229D01*
X2748048Y3633815D01*
X2742854Y3659794D01*
X2742854Y3675379D01*
X2748048Y3701356D01*
X2758440Y3716944D01*
X2774025Y3722138D01*
X2784416Y3722138D01*
X2703367Y3696162D02*
G01*
X2703367Y3701356D01*
X2698173Y3711747D01*
X2692976Y3716944D01*
X2682585Y3722138D01*
X2661805Y3722138D01*
X2651414Y3716944D01*
X2646217Y3711747D01*
X2641023Y3701356D01*
X2641023Y3690965D01*
X2646217Y3680574D01*
X2656608Y3664988D01*
X2708564Y3613035D01*
X2635826Y3613035D01*
X2591145Y3722138D02*
G01*
X2533995Y3722138D01*
X2565168Y3680574D01*
X2549583Y3680574D01*
X2539192Y3675379D01*
X2533995Y3670185D01*
X2528801Y3654597D01*
X2528801Y3644206D01*
X2533995Y3628621D01*
X2544386Y3618229D01*
X2559974Y3613035D01*
X2575559Y3613035D01*
X2591145Y3618229D01*
X2596342Y3623424D01*
X2601536Y3633815D01*
X2414501Y3722138D02*
G01*
X2372936Y3613035D01*
X2331374Y3722138D02*
G01*
X2372936Y3613035D01*
X2297084Y3722138D02*
G01*
X2297084Y3613035D01*
X2297084Y3722138D02*
G01*
X2229543Y3722138D01*
X2297084Y3670185D02*
G01*
X2255520Y3670185D01*
X2297084Y3613035D02*
G01*
X2229543Y3613035D01*
X2122515Y3722138D02*
G01*
X2174471Y3613035D01*
X2195253Y3722138D02*
G01*
X2122515Y3722138D01*
X2088225Y3722138D02*
G01*
X2088225Y3613035D01*
X2088225Y3722138D02*
G01*
X2020684Y3722138D01*
X2088225Y3670185D02*
G01*
X2046663Y3670185D01*
X1986394Y3722138D02*
G01*
X1986394Y3613035D01*
X1952104Y3722138D02*
G01*
X1952104Y3613035D01*
X1952104Y3722138D02*
G01*
X1910542Y3613035D01*
X1868977Y3722138D02*
G01*
X1910542Y3613035D01*
X1868977Y3722138D02*
G01*
X1868977Y3613035D01*
D11*
X2970644Y2236238D02*
G01*
X2970644Y2153112D01*
X2975841Y2137524D01*
X2981035Y2132329D01*
X2991426Y2127135D01*
X3001817Y2127135D01*
X3012208Y2132329D01*
X3017405Y2137524D01*
X3022600Y2153112D01*
X3022600Y2163503D01*
X2936354Y2236238D02*
G01*
X2936354Y2127135D01*
X2936354Y2127135D02*
G01*
X2874009Y2127135D01*
X2761787Y2210262D02*
G01*
X2766984Y2220653D01*
X2777375Y2231044D01*
X2787764Y2236238D01*
X2808546Y2236238D01*
X2818937Y2231044D01*
X2829328Y2220653D01*
X2834525Y2210262D01*
X2839720Y2194674D01*
X2839720Y2168697D01*
X2834525Y2153112D01*
X2829328Y2142721D01*
X2818937Y2132329D01*
X2808546Y2127135D01*
X2787764Y2127135D01*
X2777375Y2132329D01*
X2766984Y2142721D01*
X2761787Y2153112D01*
X2675544Y2236238D02*
G01*
X2675544Y2153112D01*
X2680738Y2137524D01*
X2685935Y2132329D01*
X2696324Y2127135D01*
X2706715Y2127135D01*
X2717106Y2132329D01*
X2722303Y2137524D01*
X2727497Y2153112D01*
X2727497Y2163503D01*
X2641254Y2236238D02*
G01*
X2641254Y2127135D01*
X2641254Y2127135D02*
G01*
X2578907Y2127135D01*
X2466685Y2210262D02*
G01*
X2471882Y2220653D01*
X2482273Y2231044D01*
X2492664Y2236238D01*
X2513444Y2236238D01*
X2523835Y2231044D01*
X2534226Y2220653D01*
X2539423Y2210262D01*
X2544617Y2194674D01*
X2544617Y2168697D01*
X2539423Y2153112D01*
X2534226Y2142721D01*
X2523835Y2132329D01*
X2513444Y2127135D01*
X2492664Y2127135D01*
X2482273Y2132329D01*
X2471882Y2142721D01*
X2466685Y2153112D01*
X2380442Y2236238D02*
G01*
X2380442Y2153112D01*
X2385636Y2137524D01*
X2390833Y2132329D01*
X2401224Y2127135D01*
X2411615Y2127135D01*
X2422004Y2132329D01*
X2427201Y2137524D01*
X2432395Y2153112D01*
X2432395Y2163503D01*
X2346152Y2236238D02*
G01*
X2346152Y2127135D01*
X2346152Y2127135D02*
G01*
X2283805Y2127135D01*
X2171585Y2210262D02*
G01*
X2176779Y2220653D01*
X2187171Y2231044D01*
X2197562Y2236238D01*
X2218344Y2236238D01*
X2228735Y2231044D01*
X2239124Y2220653D01*
X2244321Y2210262D01*
X2249515Y2194674D01*
X2249515Y2168697D01*
X2244321Y2153112D01*
X2239124Y2142721D01*
X2228735Y2132329D01*
X2218344Y2127135D01*
X2197562Y2127135D01*
X2187171Y2132329D01*
X2176779Y2142721D01*
X2171585Y2153112D01*
X2085340Y2236238D02*
G01*
X2085340Y2153112D01*
X2090534Y2137524D01*
X2095731Y2132329D01*
X2106122Y2127135D01*
X2116513Y2127135D01*
X2126904Y2132329D01*
X2132098Y2137524D01*
X2137295Y2153112D01*
X2137295Y2163503D01*
X2051050Y2236238D02*
G01*
X2051050Y2127135D01*
X2051050Y2127135D02*
G01*
X1988705Y2127135D01*
X1876483Y2210262D02*
G01*
X1881677Y2220653D01*
X1892068Y2231044D01*
X1902460Y2236238D01*
X1923242Y2236238D01*
X1933633Y2231044D01*
X1944024Y2220653D01*
X1949218Y2210262D01*
X1954415Y2194674D01*
X1954415Y2168697D01*
X1949218Y2153112D01*
X1944024Y2142721D01*
X1933633Y2132329D01*
X1923242Y2127135D01*
X1902460Y2127135D01*
X1892068Y2132329D01*
X1881677Y2142721D01*
X1876483Y2153112D01*
D12*
X4895875Y4789068D02*
G01*
X4895875Y4535068D01*
X4387875Y4535068D01*
X4387875Y4789068D01*
X4895875Y4789068D01*
X4895875Y4535068D01*
X4445000Y5715000D02*
G01*
X4953000Y5715000D01*
X4953000Y5207000D01*
X4445000Y5207000D01*
X4445000Y5715000D01*
M02*
