G04 Layer: TopSilkscreenLayer*
G04 EasyEDA v6.5.29, 2023-07-09 12:41:00*
G04 4e8154f8966d48969a3891fccebbae35,5a6b42c53f6a479593ecc07194224c93,10*
G04 Gerber Generator version 0.2*
G04 Scale: 100 percent, Rotated: No, Reflected: No *
G04 Dimensions in millimeters *
G04 leading zeros omitted , absolute positions ,4 integer and 5 decimal *
%FSLAX45Y45*%
%MOMM*%

%ADD10C,0.1524*%
%ADD11C,0.2540*%
%ADD12C,0.2030*%

%LPD*%
D10*
X3949687Y1434353D02*
G01*
X3949687Y1338849D01*
X3949687Y1434353D02*
G01*
X3981437Y1434353D01*
X3995153Y1429781D01*
X4004297Y1420637D01*
X4008869Y1411747D01*
X4013441Y1398031D01*
X4013441Y1375425D01*
X4008869Y1361709D01*
X4004297Y1352565D01*
X3995153Y1343421D01*
X3981437Y1338849D01*
X3949687Y1338849D01*
X4106913Y1420637D02*
G01*
X4097769Y1429781D01*
X4084307Y1434353D01*
X4066019Y1434353D01*
X4052303Y1429781D01*
X4043413Y1420637D01*
X4043413Y1411747D01*
X4047985Y1402603D01*
X4052303Y1398031D01*
X4061447Y1393459D01*
X4088879Y1384315D01*
X4097769Y1379743D01*
X4102341Y1375425D01*
X4106913Y1366281D01*
X4106913Y1352565D01*
X4097769Y1343421D01*
X4084307Y1338849D01*
X4066019Y1338849D01*
X4052303Y1343421D01*
X4043413Y1352565D01*
X4136885Y1416319D02*
G01*
X4146029Y1420637D01*
X4159745Y1434353D01*
X4159745Y1338849D01*
X2068575Y79755D02*
G01*
X2027681Y152400D01*
X1986534Y79755D01*
X4236458Y1256535D02*
G01*
X4236458Y1183891D01*
X4231886Y1170175D01*
X4227314Y1165603D01*
X4218170Y1161031D01*
X4209280Y1161031D01*
X4200136Y1165603D01*
X4195564Y1170175D01*
X4190992Y1183891D01*
X4190992Y1193035D01*
X4271002Y1233929D02*
G01*
X4271002Y1238501D01*
X4275574Y1247391D01*
X4280146Y1251963D01*
X4289290Y1256535D01*
X4307324Y1256535D01*
X4316468Y1251963D01*
X4321040Y1247391D01*
X4325612Y1238501D01*
X4325612Y1229357D01*
X4321040Y1220213D01*
X4311896Y1206497D01*
X4266430Y1161031D01*
X4330184Y1161031D01*
X957950Y4807971D02*
G01*
X957950Y4712467D01*
X957950Y4712467D02*
G01*
X1012560Y4712467D01*
X1042532Y4807971D02*
G01*
X1042532Y4712467D01*
X1042532Y4807971D02*
G01*
X1101460Y4807971D01*
X1042532Y4762505D02*
G01*
X1078854Y4762505D01*
X1042532Y4712467D02*
G01*
X1101460Y4712467D01*
X1131686Y4807971D02*
G01*
X1131686Y4712467D01*
X1131686Y4807971D02*
G01*
X1163436Y4807971D01*
X1177152Y4803399D01*
X1186042Y4794509D01*
X1190614Y4785365D01*
X1195186Y4771649D01*
X1195186Y4749043D01*
X1190614Y4735327D01*
X1186042Y4726183D01*
X1177152Y4717039D01*
X1163436Y4712467D01*
X1131686Y4712467D01*
X1358762Y4807971D02*
G01*
X1313296Y4712467D01*
X1295262Y4807971D02*
G01*
X1358762Y4807971D01*
X2322575Y79755D02*
G01*
X2281681Y152400D01*
X2240534Y79755D01*
X2576575Y79755D02*
G01*
X2535681Y152400D01*
X2494534Y79755D01*
X2830575Y79755D02*
G01*
X2789681Y152400D01*
X2748534Y79755D01*
X3084575Y79755D02*
G01*
X3043681Y152400D01*
X3002534Y79755D01*
X3338575Y79755D02*
G01*
X3297681Y152400D01*
X3256534Y79755D01*
X3592575Y79755D02*
G01*
X3551681Y152400D01*
X3510534Y79755D01*
X3846575Y79755D02*
G01*
X3805681Y152400D01*
X3764534Y79755D01*
X1465846Y4807968D02*
G01*
X1465846Y4712464D01*
X1465846Y4712464D02*
G01*
X1520456Y4712464D01*
X1550428Y4807968D02*
G01*
X1550428Y4712464D01*
X1550428Y4807968D02*
G01*
X1609610Y4807968D01*
X1550428Y4762502D02*
G01*
X1586750Y4762502D01*
X1550428Y4712464D02*
G01*
X1609610Y4712464D01*
X1639582Y4807968D02*
G01*
X1639582Y4712464D01*
X1639582Y4807968D02*
G01*
X1671332Y4807968D01*
X1685048Y4803396D01*
X1694192Y4794506D01*
X1698764Y4785362D01*
X1703336Y4771646D01*
X1703336Y4749040D01*
X1698764Y4735324D01*
X1694192Y4726180D01*
X1685048Y4717036D01*
X1671332Y4712464D01*
X1639582Y4712464D01*
X1857768Y4794506D02*
G01*
X1853196Y4803396D01*
X1839480Y4807968D01*
X1830590Y4807968D01*
X1816874Y4803396D01*
X1807730Y4789934D01*
X1803158Y4767074D01*
X1803158Y4744468D01*
X1807730Y4726180D01*
X1816874Y4717036D01*
X1830590Y4712464D01*
X1835162Y4712464D01*
X1848624Y4717036D01*
X1857768Y4726180D01*
X1862340Y4739896D01*
X1862340Y4744468D01*
X1857768Y4757930D01*
X1848624Y4767074D01*
X1835162Y4771646D01*
X1830590Y4771646D01*
X1816874Y4767074D01*
X1807730Y4757930D01*
X1803158Y4744468D01*
X1961271Y4807968D02*
G01*
X1961271Y4712464D01*
X1961271Y4712464D02*
G01*
X2015881Y4712464D01*
X2045853Y4807968D02*
G01*
X2045853Y4712464D01*
X2045853Y4807968D02*
G01*
X2104781Y4807968D01*
X2045853Y4762502D02*
G01*
X2082175Y4762502D01*
X2045853Y4712464D02*
G01*
X2104781Y4712464D01*
X2135007Y4807968D02*
G01*
X2135007Y4712464D01*
X2135007Y4807968D02*
G01*
X2166757Y4807968D01*
X2180219Y4803396D01*
X2189363Y4794506D01*
X2193935Y4785362D01*
X2198507Y4771646D01*
X2198507Y4749040D01*
X2193935Y4735324D01*
X2189363Y4726180D01*
X2180219Y4717036D01*
X2166757Y4712464D01*
X2135007Y4712464D01*
X2352939Y4807968D02*
G01*
X2307727Y4807968D01*
X2303155Y4767074D01*
X2307727Y4771646D01*
X2321189Y4776218D01*
X2334905Y4776218D01*
X2348621Y4771646D01*
X2357511Y4762502D01*
X2362083Y4749040D01*
X2362083Y4739896D01*
X2357511Y4726180D01*
X2348621Y4717036D01*
X2334905Y4712464D01*
X2321189Y4712464D01*
X2307727Y4717036D01*
X2303155Y4721608D01*
X2298583Y4730752D01*
X2469144Y4807968D02*
G01*
X2469144Y4712464D01*
X2469144Y4712464D02*
G01*
X2523754Y4712464D01*
X2553726Y4807968D02*
G01*
X2553726Y4712464D01*
X2553726Y4807968D02*
G01*
X2612908Y4807968D01*
X2553726Y4762502D02*
G01*
X2590048Y4762502D01*
X2553726Y4712464D02*
G01*
X2612908Y4712464D01*
X2642880Y4807968D02*
G01*
X2642880Y4712464D01*
X2642880Y4807968D02*
G01*
X2674630Y4807968D01*
X2688346Y4803396D01*
X2697490Y4794506D01*
X2702062Y4785362D01*
X2706634Y4771646D01*
X2706634Y4749040D01*
X2702062Y4735324D01*
X2697490Y4726180D01*
X2688346Y4717036D01*
X2674630Y4712464D01*
X2642880Y4712464D01*
X2851922Y4807968D02*
G01*
X2806456Y4744468D01*
X2874782Y4744468D01*
X2851922Y4807968D02*
G01*
X2851922Y4712464D01*
X2964571Y4807968D02*
G01*
X2964571Y4712464D01*
X2964571Y4712464D02*
G01*
X3019181Y4712464D01*
X3049153Y4807968D02*
G01*
X3049153Y4712464D01*
X3049153Y4807968D02*
G01*
X3108081Y4807968D01*
X3049153Y4762502D02*
G01*
X3085475Y4762502D01*
X3049153Y4712464D02*
G01*
X3108081Y4712464D01*
X3138307Y4807968D02*
G01*
X3138307Y4712464D01*
X3138307Y4807968D02*
G01*
X3170057Y4807968D01*
X3183519Y4803396D01*
X3192663Y4794506D01*
X3197235Y4785362D01*
X3201807Y4771646D01*
X3201807Y4749040D01*
X3197235Y4735324D01*
X3192663Y4726180D01*
X3183519Y4717036D01*
X3170057Y4712464D01*
X3138307Y4712464D01*
X3311027Y4807968D02*
G01*
X3360811Y4807968D01*
X3333633Y4771646D01*
X3347349Y4771646D01*
X3356239Y4767074D01*
X3360811Y4762502D01*
X3365383Y4749040D01*
X3365383Y4739896D01*
X3360811Y4726180D01*
X3351921Y4717036D01*
X3338205Y4712464D01*
X3324489Y4712464D01*
X3311027Y4717036D01*
X3306455Y4721608D01*
X3301883Y4730752D01*
X3459741Y4807968D02*
G01*
X3459741Y4712464D01*
X3459741Y4712464D02*
G01*
X3514351Y4712464D01*
X3544323Y4807968D02*
G01*
X3544323Y4712464D01*
X3544323Y4807968D02*
G01*
X3603505Y4807968D01*
X3544323Y4762502D02*
G01*
X3580645Y4762502D01*
X3544323Y4712464D02*
G01*
X3603505Y4712464D01*
X3633477Y4807968D02*
G01*
X3633477Y4712464D01*
X3633477Y4807968D02*
G01*
X3665227Y4807968D01*
X3678943Y4803396D01*
X3688087Y4794506D01*
X3692659Y4785362D01*
X3697231Y4771646D01*
X3697231Y4749040D01*
X3692659Y4735324D01*
X3688087Y4726180D01*
X3678943Y4717036D01*
X3665227Y4712464D01*
X3633477Y4712464D01*
X3801625Y4785362D02*
G01*
X3801625Y4789934D01*
X3806197Y4798824D01*
X3810769Y4803396D01*
X3819913Y4807968D01*
X3837947Y4807968D01*
X3847091Y4803396D01*
X3851663Y4798824D01*
X3856235Y4789934D01*
X3856235Y4780790D01*
X3851663Y4771646D01*
X3842519Y4757930D01*
X3797053Y4712464D01*
X3860807Y4712464D01*
X3980543Y4807965D02*
G01*
X3980543Y4712462D01*
X3980543Y4712462D02*
G01*
X4035153Y4712462D01*
X4065125Y4807965D02*
G01*
X4065125Y4712462D01*
X4065125Y4807965D02*
G01*
X4124053Y4807965D01*
X4065125Y4762500D02*
G01*
X4101447Y4762500D01*
X4065125Y4712462D02*
G01*
X4124053Y4712462D01*
X4154279Y4807965D02*
G01*
X4154279Y4712462D01*
X4154279Y4807965D02*
G01*
X4186029Y4807965D01*
X4199745Y4803394D01*
X4208635Y4794504D01*
X4213207Y4785360D01*
X4217779Y4771644D01*
X4217779Y4749037D01*
X4213207Y4735321D01*
X4208635Y4726178D01*
X4199745Y4717034D01*
X4186029Y4712462D01*
X4154279Y4712462D01*
X4317855Y4789931D02*
G01*
X4326999Y4794504D01*
X4340461Y4807965D01*
X4340461Y4712462D01*
X4475739Y4807968D02*
G01*
X4475739Y4712464D01*
X4475739Y4712464D02*
G01*
X4530349Y4712464D01*
X4560321Y4807968D02*
G01*
X4560321Y4712464D01*
X4560321Y4807968D02*
G01*
X4619503Y4807968D01*
X4560321Y4762502D02*
G01*
X4596643Y4762502D01*
X4560321Y4712464D02*
G01*
X4619503Y4712464D01*
X4649475Y4807968D02*
G01*
X4649475Y4712464D01*
X4649475Y4807968D02*
G01*
X4681225Y4807968D01*
X4694941Y4803396D01*
X4704085Y4794506D01*
X4708657Y4785362D01*
X4713229Y4771646D01*
X4713229Y4749040D01*
X4708657Y4735324D01*
X4704085Y4726180D01*
X4694941Y4717036D01*
X4681225Y4712464D01*
X4649475Y4712464D01*
X4840483Y4807968D02*
G01*
X4826767Y4803396D01*
X4817623Y4789934D01*
X4813051Y4767074D01*
X4813051Y4753612D01*
X4817623Y4730752D01*
X4826767Y4717036D01*
X4840483Y4712464D01*
X4849373Y4712464D01*
X4863089Y4717036D01*
X4872233Y4730752D01*
X4876805Y4753612D01*
X4876805Y4767074D01*
X4872233Y4789934D01*
X4863089Y4803396D01*
X4849373Y4807968D01*
X4840483Y4807968D01*
X5045709Y5726937D02*
G01*
X5000243Y5726937D01*
X4995672Y5686044D01*
X5000243Y5690615D01*
X5013706Y5695187D01*
X5027422Y5695187D01*
X5041138Y5690615D01*
X5050281Y5681471D01*
X5054854Y5668010D01*
X5054854Y5658865D01*
X5050281Y5645150D01*
X5041138Y5636005D01*
X5027422Y5631434D01*
X5013706Y5631434D01*
X5000243Y5636005D01*
X4995672Y5640578D01*
X4991100Y5649721D01*
X5084825Y5726937D02*
G01*
X5121147Y5631434D01*
X5157470Y5726937D02*
G01*
X5121147Y5631434D01*
X5036565Y5511037D02*
G01*
X5036565Y5438394D01*
X5031993Y5424678D01*
X5027422Y5420105D01*
X5018277Y5415534D01*
X5009388Y5415534D01*
X5000243Y5420105D01*
X4995672Y5424678D01*
X4991100Y5438394D01*
X4991100Y5447537D01*
X5066538Y5493004D02*
G01*
X5075681Y5497576D01*
X5089397Y5511037D01*
X5089397Y5415534D01*
X774700Y5322315D02*
G01*
X774700Y5213350D01*
X774700Y5322315D02*
G01*
X821436Y5322315D01*
X836929Y5317236D01*
X842263Y5311902D01*
X847344Y5301487D01*
X847344Y5285994D01*
X842263Y5275579D01*
X836929Y5270500D01*
X821436Y5265165D01*
X774700Y5265165D01*
X923289Y5322315D02*
G01*
X881634Y5213350D01*
X923289Y5322315D02*
G01*
X964945Y5213350D01*
X897381Y5249671D02*
G01*
X949197Y5249671D01*
X999236Y5322315D02*
G01*
X999236Y5213350D01*
X999236Y5322315D02*
G01*
X1045971Y5322315D01*
X1061465Y5317236D01*
X1066800Y5311902D01*
X1071879Y5301487D01*
X1071879Y5291073D01*
X1066800Y5280660D01*
X1061465Y5275579D01*
X1045971Y5270500D01*
X999236Y5270500D01*
X1035557Y5270500D02*
G01*
X1071879Y5213350D01*
X1142492Y5322315D02*
G01*
X1142492Y5213350D01*
X1106170Y5322315D02*
G01*
X1178813Y5322315D01*
X1293113Y5322315D02*
G01*
X1293113Y5213350D01*
X1293113Y5322315D02*
G01*
X1366012Y5213350D01*
X1366012Y5322315D02*
G01*
X1366012Y5213350D01*
X1400302Y5322315D02*
G01*
X1400302Y5244337D01*
X1405381Y5228844D01*
X1415795Y5218429D01*
X1431289Y5213350D01*
X1441704Y5213350D01*
X1457452Y5218429D01*
X1467865Y5228844D01*
X1472945Y5244337D01*
X1472945Y5322315D01*
X1507236Y5322315D02*
G01*
X1507236Y5213350D01*
X1507236Y5322315D02*
G01*
X1548892Y5213350D01*
X1590294Y5322315D02*
G01*
X1548892Y5213350D01*
X1590294Y5322315D02*
G01*
X1590294Y5213350D01*
X1704594Y5301487D02*
G01*
X1715007Y5306821D01*
X1730755Y5322315D01*
X1730755Y5213350D01*
X1765045Y5301487D02*
G01*
X1775460Y5306821D01*
X1790954Y5322315D01*
X1790954Y5213350D01*
X1830323Y5296407D02*
G01*
X1830323Y5301487D01*
X1835657Y5311902D01*
X1840737Y5317236D01*
X1851152Y5322315D01*
X1871979Y5322315D01*
X1882394Y5317236D01*
X1887473Y5311902D01*
X1892807Y5301487D01*
X1892807Y5291073D01*
X1887473Y5280660D01*
X1877060Y5265165D01*
X1825244Y5213350D01*
X1897887Y5213350D01*
X1932177Y5301487D02*
G01*
X1942591Y5306821D01*
X1958340Y5322315D01*
X1958340Y5213350D01*
X1992629Y5260086D02*
G01*
X2086102Y5260086D01*
X2151379Y5322315D02*
G01*
X2135886Y5317236D01*
X2125472Y5301487D01*
X2120391Y5275579D01*
X2120391Y5260086D01*
X2125472Y5233923D01*
X2135886Y5218429D01*
X2151379Y5213350D01*
X2161793Y5213350D01*
X2177541Y5218429D01*
X2187956Y5233923D01*
X2193036Y5260086D01*
X2193036Y5275579D01*
X2187956Y5301487D01*
X2177541Y5317236D01*
X2161793Y5322315D01*
X2151379Y5322315D01*
X2227325Y5301487D02*
G01*
X2237740Y5306821D01*
X2253234Y5322315D01*
X2253234Y5213350D01*
X2318765Y5322315D02*
G01*
X2303272Y5317236D01*
X2292858Y5301487D01*
X2287524Y5275579D01*
X2287524Y5260086D01*
X2292858Y5233923D01*
X2303272Y5218429D01*
X2318765Y5213350D01*
X2329179Y5213350D01*
X2344674Y5218429D01*
X2355088Y5233923D01*
X2360422Y5260086D01*
X2360422Y5275579D01*
X2355088Y5301487D01*
X2344674Y5317236D01*
X2329179Y5322315D01*
X2318765Y5322315D01*
X2394711Y5301487D02*
G01*
X2405125Y5306821D01*
X2420620Y5322315D01*
X2420620Y5213350D01*
X2534920Y5322315D02*
G01*
X2576575Y5213350D01*
X2617977Y5322315D02*
G01*
X2576575Y5213350D01*
X2652268Y5301487D02*
G01*
X2662681Y5306821D01*
X2678429Y5322315D01*
X2678429Y5213350D01*
X774700Y5512815D02*
G01*
X774700Y5403850D01*
X847344Y5512815D02*
G01*
X847344Y5403850D01*
X774700Y5461000D02*
G01*
X847344Y5461000D01*
X944118Y5512815D02*
G01*
X892047Y5512815D01*
X886968Y5466079D01*
X892047Y5471160D01*
X907795Y5476494D01*
X923289Y5476494D01*
X938784Y5471160D01*
X949197Y5461000D01*
X954531Y5445252D01*
X954531Y5434837D01*
X949197Y5419344D01*
X938784Y5408929D01*
X923289Y5403850D01*
X907795Y5403850D01*
X892047Y5408929D01*
X886968Y5414010D01*
X881634Y5424423D01*
X1019810Y5512815D02*
G01*
X1004315Y5507736D01*
X993902Y5491987D01*
X988821Y5466079D01*
X988821Y5450586D01*
X993902Y5424423D01*
X1004315Y5408929D01*
X1019810Y5403850D01*
X1030223Y5403850D01*
X1045971Y5408929D01*
X1056386Y5424423D01*
X1061465Y5450586D01*
X1061465Y5466079D01*
X1056386Y5491987D01*
X1045971Y5507736D01*
X1030223Y5512815D01*
X1019810Y5512815D01*
X1126997Y5512815D02*
G01*
X1111250Y5507736D01*
X1101089Y5491987D01*
X1095755Y5466079D01*
X1095755Y5450586D01*
X1101089Y5424423D01*
X1111250Y5408929D01*
X1126997Y5403850D01*
X1137412Y5403850D01*
X1152905Y5408929D01*
X1163320Y5424423D01*
X1168400Y5450586D01*
X1168400Y5466079D01*
X1163320Y5491987D01*
X1152905Y5507736D01*
X1137412Y5512815D01*
X1126997Y5512815D01*
X1282700Y5512815D02*
G01*
X1282700Y5403850D01*
X1282700Y5403850D02*
G01*
X1345184Y5403850D01*
X1421129Y5512815D02*
G01*
X1379473Y5403850D01*
X1421129Y5512815D02*
G01*
X1462531Y5403850D01*
X1394968Y5440171D02*
G01*
X1447037Y5440171D01*
X1496821Y5512815D02*
G01*
X1496821Y5403850D01*
X1496821Y5512815D02*
G01*
X1543557Y5512815D01*
X1559305Y5507736D01*
X1564386Y5502402D01*
X1569720Y5491987D01*
X1569720Y5481573D01*
X1564386Y5471160D01*
X1559305Y5466079D01*
X1543557Y5461000D01*
X1496821Y5461000D02*
G01*
X1543557Y5461000D01*
X1559305Y5455665D01*
X1564386Y5450586D01*
X1569720Y5440171D01*
X1569720Y5424423D01*
X1564386Y5414010D01*
X1559305Y5408929D01*
X1543557Y5403850D01*
X1496821Y5403850D01*
X1684020Y5512815D02*
G01*
X1684020Y5403850D01*
X1718310Y5512815D02*
G01*
X1718310Y5403850D01*
X1718310Y5512815D02*
G01*
X1790954Y5403850D01*
X1790954Y5512815D02*
G01*
X1790954Y5403850D01*
X1825244Y5512815D02*
G01*
X1825244Y5403850D01*
X1825244Y5512815D02*
G01*
X1861565Y5512815D01*
X1877060Y5507736D01*
X1887473Y5497321D01*
X1892807Y5486907D01*
X1897887Y5471160D01*
X1897887Y5445252D01*
X1892807Y5429757D01*
X1887473Y5419344D01*
X1877060Y5408929D01*
X1861565Y5403850D01*
X1825244Y5403850D01*
X1932177Y5512815D02*
G01*
X1932177Y5403850D01*
X2044445Y5486907D02*
G01*
X2039365Y5497321D01*
X2028952Y5507736D01*
X2018538Y5512815D01*
X1997709Y5512815D01*
X1987295Y5507736D01*
X1976881Y5497321D01*
X1971802Y5486907D01*
X1966468Y5471160D01*
X1966468Y5445252D01*
X1971802Y5429757D01*
X1976881Y5419344D01*
X1987295Y5408929D01*
X1997709Y5403850D01*
X2018538Y5403850D01*
X2028952Y5408929D01*
X2039365Y5419344D01*
X2044445Y5429757D01*
X2120391Y5512815D02*
G01*
X2078736Y5403850D01*
X2120391Y5512815D02*
G01*
X2161793Y5403850D01*
X2094229Y5440171D02*
G01*
X2146300Y5440171D01*
X2232659Y5512815D02*
G01*
X2232659Y5403850D01*
X2196084Y5512815D02*
G01*
X2268981Y5512815D01*
X2334259Y5512815D02*
G01*
X2324100Y5507736D01*
X2313686Y5497321D01*
X2308352Y5486907D01*
X2303272Y5471160D01*
X2303272Y5445252D01*
X2308352Y5429757D01*
X2313686Y5419344D01*
X2324100Y5408929D01*
X2334259Y5403850D01*
X2355088Y5403850D01*
X2365502Y5408929D01*
X2375915Y5419344D01*
X2381250Y5429757D01*
X2386329Y5445252D01*
X2386329Y5471160D01*
X2381250Y5486907D01*
X2375915Y5497321D01*
X2365502Y5507736D01*
X2355088Y5512815D01*
X2334259Y5512815D01*
X2420620Y5512815D02*
G01*
X2420620Y5403850D01*
X2420620Y5512815D02*
G01*
X2467356Y5512815D01*
X2482850Y5507736D01*
X2488184Y5502402D01*
X2493263Y5491987D01*
X2493263Y5481573D01*
X2488184Y5471160D01*
X2482850Y5466079D01*
X2467356Y5461000D01*
X2420620Y5461000D01*
X2456941Y5461000D02*
G01*
X2493263Y5403850D01*
X2600452Y5497321D02*
G01*
X2590038Y5507736D01*
X2574290Y5512815D01*
X2553715Y5512815D01*
X2537968Y5507736D01*
X2527554Y5497321D01*
X2527554Y5486907D01*
X2532888Y5476494D01*
X2537968Y5471160D01*
X2548381Y5466079D01*
X2579624Y5455665D01*
X2590038Y5450586D01*
X2595118Y5445252D01*
X2600452Y5434837D01*
X2600452Y5419344D01*
X2590038Y5408929D01*
X2574290Y5403850D01*
X2553715Y5403850D01*
X2537968Y5408929D01*
X2527554Y5419344D01*
X774700Y5703315D02*
G01*
X774700Y5594350D01*
X774700Y5703315D02*
G01*
X821436Y5703315D01*
X836929Y5698236D01*
X842263Y5692902D01*
X847344Y5682487D01*
X847344Y5666994D01*
X842263Y5656579D01*
X836929Y5651500D01*
X821436Y5646165D01*
X774700Y5646165D01*
X881634Y5703315D02*
G01*
X881634Y5594350D01*
X881634Y5703315D02*
G01*
X928370Y5703315D01*
X944118Y5698236D01*
X949197Y5692902D01*
X954531Y5682487D01*
X954531Y5672073D01*
X949197Y5661660D01*
X944118Y5656579D01*
X928370Y5651500D01*
X881634Y5651500D01*
X918210Y5651500D02*
G01*
X954531Y5594350D01*
X1019810Y5703315D02*
G01*
X1009650Y5698236D01*
X999236Y5687821D01*
X993902Y5677407D01*
X988821Y5661660D01*
X988821Y5635752D01*
X993902Y5620257D01*
X999236Y5609844D01*
X1009650Y5599429D01*
X1019810Y5594350D01*
X1040637Y5594350D01*
X1051052Y5599429D01*
X1061465Y5609844D01*
X1066800Y5620257D01*
X1071879Y5635752D01*
X1071879Y5661660D01*
X1066800Y5677407D01*
X1061465Y5687821D01*
X1051052Y5698236D01*
X1040637Y5703315D01*
X1019810Y5703315D01*
X1142492Y5703315D02*
G01*
X1142492Y5594350D01*
X1106170Y5703315D02*
G01*
X1178813Y5703315D01*
X1244345Y5703315D02*
G01*
X1233931Y5698236D01*
X1223518Y5687821D01*
X1218437Y5677407D01*
X1213104Y5661660D01*
X1213104Y5635752D01*
X1218437Y5620257D01*
X1223518Y5609844D01*
X1233931Y5599429D01*
X1244345Y5594350D01*
X1265173Y5594350D01*
X1275587Y5599429D01*
X1286002Y5609844D01*
X1291081Y5620257D01*
X1296415Y5635752D01*
X1296415Y5661660D01*
X1291081Y5677407D01*
X1286002Y5687821D01*
X1275587Y5698236D01*
X1265173Y5703315D01*
X1244345Y5703315D01*
X1330705Y5703315D02*
G01*
X1330705Y5594350D01*
X1330705Y5703315D02*
G01*
X1403350Y5594350D01*
X1403350Y5703315D02*
G01*
X1403350Y5594350D01*
X1437639Y5703315D02*
G01*
X1437639Y5594350D01*
X1437639Y5703315D02*
G01*
X1505204Y5703315D01*
X1437639Y5651500D02*
G01*
X1479295Y5651500D01*
X1437639Y5594350D02*
G01*
X1505204Y5594350D01*
X1539494Y5703315D02*
G01*
X1539494Y5594350D01*
X1539494Y5703315D02*
G01*
X1581150Y5594350D01*
X1622552Y5703315D02*
G01*
X1581150Y5594350D01*
X1622552Y5703315D02*
G01*
X1622552Y5594350D01*
X1698497Y5703315D02*
G01*
X1656842Y5594350D01*
X1698497Y5703315D02*
G01*
X1739900Y5594350D01*
X1672589Y5630671D02*
G01*
X1724405Y5630671D01*
X1927097Y5687821D02*
G01*
X1916684Y5698236D01*
X1901189Y5703315D01*
X1880362Y5703315D01*
X1864613Y5698236D01*
X1854200Y5687821D01*
X1854200Y5677407D01*
X1859534Y5666994D01*
X1864613Y5661660D01*
X1875028Y5656579D01*
X1906270Y5646165D01*
X1916684Y5641086D01*
X1921763Y5635752D01*
X1927097Y5625337D01*
X1927097Y5609844D01*
X1916684Y5599429D01*
X1901189Y5594350D01*
X1880362Y5594350D01*
X1864613Y5599429D01*
X1854200Y5609844D01*
X1997709Y5703315D02*
G01*
X1997709Y5594350D01*
X1961388Y5703315D02*
G01*
X2034031Y5703315D01*
X2109977Y5703315D02*
G01*
X2068322Y5594350D01*
X2109977Y5703315D02*
G01*
X2151379Y5594350D01*
X2084070Y5630671D02*
G01*
X2135886Y5630671D01*
X2185670Y5703315D02*
G01*
X2185670Y5594350D01*
X2185670Y5703315D02*
G01*
X2227325Y5594350D01*
X2268981Y5703315D02*
G01*
X2227325Y5594350D01*
X2268981Y5703315D02*
G01*
X2268981Y5594350D01*
X2303272Y5703315D02*
G01*
X2303272Y5594350D01*
X2303272Y5703315D02*
G01*
X2350008Y5703315D01*
X2365502Y5698236D01*
X2370836Y5692902D01*
X2375915Y5682487D01*
X2375915Y5666994D01*
X2370836Y5656579D01*
X2365502Y5651500D01*
X2350008Y5646165D01*
X2303272Y5646165D01*
X4076700Y5536437D02*
G01*
X4076700Y5440934D01*
X4076700Y5536437D02*
G01*
X4117593Y5536437D01*
X4131309Y5531865D01*
X4135881Y5527294D01*
X4140454Y5518404D01*
X4140454Y5509260D01*
X4135881Y5500115D01*
X4131309Y5495544D01*
X4117593Y5490971D01*
X4076700Y5490971D01*
X4108450Y5490971D02*
G01*
X4140454Y5440934D01*
X4170425Y5518404D02*
G01*
X4179315Y5522976D01*
X4193031Y5536437D01*
X4193031Y5440934D01*
X3683000Y5536437D02*
G01*
X3683000Y5440934D01*
X3683000Y5536437D02*
G01*
X3714750Y5536437D01*
X3728465Y5531865D01*
X3737609Y5522976D01*
X3742181Y5513831D01*
X3746754Y5500115D01*
X3746754Y5477510D01*
X3742181Y5463794D01*
X3737609Y5454650D01*
X3728465Y5445505D01*
X3714750Y5440934D01*
X3683000Y5440934D01*
X3776725Y5518404D02*
G01*
X3785615Y5522976D01*
X3799331Y5536437D01*
X3799331Y5440934D01*
D11*
X2032000Y1600200D02*
G01*
X2032000Y1828800D01*
X1181100Y2679700D01*
X1181112Y3568705D01*
X2286000Y1587500D02*
G01*
X2286000Y2171700D01*
X1676400Y2781300D01*
X1676412Y3568705D01*
X2540000Y1587500D02*
G01*
X2540000Y2514600D01*
X2171700Y2882900D01*
X2171712Y3568705D01*
X2667000Y3568700D02*
G01*
X2667000Y2984500D01*
X2794000Y2857500D01*
X2794000Y1524000D01*
X3175000Y3556254D02*
G01*
X3174751Y2984245D01*
X3048000Y2857500D01*
X3048000Y1524000D01*
X3302000Y1587500D02*
G01*
X3302000Y2514600D01*
X3695700Y2908300D01*
X3695700Y3556005D01*
X3556000Y1587500D02*
G01*
X3556000Y2171700D01*
X4191000Y2806700D01*
X4191000Y3568705D01*
X3810000Y1587500D02*
G01*
X3810000Y1816100D01*
X4686300Y2692400D01*
X4686300Y3556000D01*
D10*
X4271721Y5585439D02*
G01*
X4367608Y5585439D01*
X4367608Y5717560D01*
X4271721Y5717560D01*
X4186478Y5585439D02*
G01*
X4090591Y5585439D01*
X4090591Y5717560D01*
X4186478Y5717560D01*
D11*
X4050029Y5565139D02*
G01*
X4050029Y5737860D01*
X4050029Y5737860D02*
G01*
X3902709Y5737860D01*
X4050029Y5565139D02*
G01*
X3902709Y5565139D01*
X3844290Y5737860D02*
G01*
X3727450Y5737860D01*
X3841750Y5565139D02*
G01*
X3727450Y5565139D01*
X3727450Y5565139D02*
G01*
X3691890Y5600700D01*
X3691890Y5702300D01*
X3727450Y5737860D01*
D12*
X3881120Y5610860D02*
G01*
X3881120Y5689600D01*
X3881120Y5650704D02*
G01*
X3863583Y5650704D01*
D11*
G75*
G01
X4888001Y3632200D02*
G03X4888001Y3632200I-12700J0D01*
G75*
G01
X4388002Y3632200D02*
G03X4388002Y3632200I-12700J0D01*
G75*
G01
X3888003Y3632200D02*
G03X3888003Y3632200I-12700J0D01*
G75*
G01
X3388004Y3632200D02*
G03X3388004Y3632200I-12700J0D01*
G75*
G01
X2888005Y3632200D02*
G03X2888005Y3632200I-12700J0D01*
G75*
G01
X2388006Y3632200D02*
G03X2388006Y3632200I-12700J0D01*
G75*
G01
X1888007Y3632200D02*
G03X1888007Y3632200I-12700J0D01*
G75*
G01
X1388008Y3632200D02*
G03X1388008Y3632200I-12700J0D01*
X1495805Y1085418D02*
G01*
X4345813Y1085418D01*
X4345813Y235407D01*
X1495805Y235407D01*
X1495805Y1085418D01*
X4431106Y4570704D02*
G01*
X4931105Y4570704D01*
X4931105Y3570706D01*
X4431106Y3570706D01*
X4431106Y4570704D01*
X3931107Y4570704D02*
G01*
X4431106Y4570704D01*
X4431106Y3570706D01*
X3931107Y3570706D01*
X3931107Y4570704D01*
X3431108Y4570704D02*
G01*
X3931107Y4570704D01*
X3931107Y3570706D01*
X3431108Y3570706D01*
X3431108Y4570704D01*
X2931109Y4570704D02*
G01*
X3431108Y4570704D01*
X3431108Y3570706D01*
X2931109Y3570706D01*
X2931109Y4570704D01*
X2431110Y4570704D02*
G01*
X2931109Y4570704D01*
X2931109Y3570706D01*
X2431110Y3570706D01*
X2431110Y4570704D01*
X1931111Y4570704D02*
G01*
X2431110Y4570704D01*
X2431110Y3570706D01*
X1931111Y3570706D01*
X1931111Y4570704D01*
X1431112Y4570704D02*
G01*
X1931111Y4570704D01*
X1931111Y3570706D01*
X1431112Y3570706D01*
X1431112Y4570704D01*
X931113Y4570704D02*
G01*
X1431112Y4570704D01*
X1431112Y3570706D01*
X931113Y3570706D01*
X931113Y4570704D01*
X4445000Y5715000D02*
G01*
X4953000Y5715000D01*
X4953000Y5207000D01*
X4445000Y5207000D01*
X4445000Y5715000D01*
M02*
