M48
METRIC,LZ,000.000
;FILE_FORMAT=3:3
;TYPE=PLATED
;Layer: PTH_Through
;EasyEDA v6.5.34, 2023-08-21 18:11:39
;ba809c9b4c8644faba3ff844f2f4f7cd,5a6b42c53f6a479593ecc07194224c93,10
;Gerber Generator version 0.2
;Holesize 1 = 0.305 mm
T01C0.305
;Holesize 2 = 0.306 mm
T02C0.306
;Holesize 3 = 1.101 mm
T03C1.101
;Holesize 4 = 1.301 mm
T04C1.301
;Holesize 5 = 3.000 mm
T05C3.000
%
G05
G90
T01
X040005Y050800
X040005Y053721
X050800Y055880
X050800Y050800
X049312Y050800
X012065Y030249
X048260Y049403
X019685Y028964
X019685Y049403
X015748Y025129
X015748Y028956
X024003Y028956
X032004Y028956
T02
X012065Y050808
T03
X045720Y055880
X045720Y053340
X048260Y053340
X048260Y055880
T04
X049312Y032742
X049312Y025122
X049312Y027662
X049312Y030202
T05
X003810Y054610
X003810Y003810
X054610Y003810
X054610Y054610
M30
