M48
METRIC,LZ,000.000
;FILE_FORMAT=3:3
;TYPE=PLATED
;Layer: PTH_Through
;EasyEDA v6.5.29, 2023-07-09 12:27:17
;4395022f8ddd444ca6db71cecef0689e,5a6b42c53f6a479593ecc07194224c93,10
;Gerber Generator version 0.2
;Holesize 1 = 0.305 mm
T01C0.305
;Holesize 2 = 1.000 mm
T02C1.000
;Holesize 3 = 1.101 mm
T03C1.101
;Holesize 4 = 1.301 mm
T04C1.301
;Holesize 5 = 3.000 mm
T05C3.000
%
G05
G90
T01
X024130Y041910
X029210Y042545
X031750Y043180
X021590Y016510
X024130Y015875
X031750Y014605
X029210Y015240
X003810Y007620
X004445Y008255
X053340Y036195
X055753Y036830
X025400Y036830
X027940Y036195
X008763Y036068
X052070Y035433
X048260Y057277
X050800Y055880
X048260Y051181
X050800Y049530
X043853Y057277
X003810Y049530
X052070Y034290
X006731Y034290
X043091Y051181
X000635Y051181
X046990Y024130
X004318Y024130
X005715Y026797
X003114Y031877
X004064Y019558
X006731Y019558
X009668Y008255
X011668Y007620
X042164Y005969
X050038Y005969
X037592Y003302
X006731Y024130
X026670Y022352
X026670Y036195
X006096Y015240
X002032Y015240
X002159Y049276
X002159Y045085
X046228Y011811
T02
X008890Y026797
X008890Y031877
X008890Y029337
X008890Y020447
X011430Y020447
X013970Y020447
X016510Y020447
X019050Y020447
X021590Y020447
X024130Y020447
X026670Y020447
X029210Y020447
X031750Y020447
X034290Y020447
X036830Y020447
X039370Y020447
X041910Y020447
X044450Y020447
X046990Y020447
X049530Y020447
X052070Y020447
X054610Y020447
X008890Y038227
X011430Y038227
X013970Y038227
X016510Y038227
X019050Y038227
X021590Y038227
X024130Y038227
X026670Y038227
X029210Y038227
X031750Y038227
X034290Y038227
X036830Y038227
X039370Y038227
X041910Y038227
X044450Y038227
X046990Y038227
X049530Y038227
X052070Y038227
X054610Y038227
X057150Y020447
X057150Y038227
X033020Y005080
X035560Y005080
X004318Y038354
X001778Y038354
T03
X048260Y055880
X048260Y053340
X045720Y053340
X045720Y055880
T04
X023622Y044958
X021082Y044958
X018542Y044958
X016002Y044958
X013462Y044958
X010922Y044958
X008382Y044958
X005842Y044958
X034798Y044958
X037338Y044958
X039878Y044958
X042418Y044958
X044958Y044958
X047498Y044958
X050038Y044958
X052578Y044958
X023594Y013299
X021054Y013299
X018514Y013299
X015974Y013299
X013434Y013299
X010894Y013299
X008354Y013299
X005814Y013299
X052550Y013299
X050010Y013299
X047470Y013299
X044930Y013299
X042390Y013299
X039850Y013299
X037310Y013299
X034770Y013299
T05
X003810Y054610
X054610Y054610
X054610Y003810
X003810Y003810
M30
