G04 Layer: TopLayer*
G04 Panelize: , Column: 2, Row: 2, Board Size: 58.42mm x 58.42mm, Panelized Board Size: 118.84mm x 118.84mm*
G04 EasyEDA v6.5.34, 2023-08-01 23:33:27*
G04 e813da22b39b4b048ad4b72b4fcfa076,5a6b42c53f6a479593ecc07194224c93,10*
G04 Gerber Generator version 0.2*
G04 Scale: 100 percent, Rotated: No, Reflected: No *
G04 Dimensions in millimeters *
G04 leading zeros omitted , absolute positions ,4 integer and 5 decimal *
%FSLAX45Y45*%
%MOMM*%

%AMMACRO1*21,1,$1,$2,0,0,$3*%
%ADD10C,0.2540*%
%ADD11R,1.1000X1.0000*%
%ADD12R,0.8999X1.0000*%
%ADD13R,1.8000X2.5400*%
%ADD14R,1.0000X0.7000*%
%ADD15R,1.0000X1.1000*%
%ADD16R,1.1500X0.9500*%
%ADD17MACRO1,0.532X1.0375X90.0000*%
%ADD18MACRO1,3.4992X1.4067X-90.0000*%
%ADD19C,2.2000*%
%ADD20C,5.0000*%
%ADD21C,1.8000*%
%ADD22C,0.0188*%

%LPD*%
G36*
X5805932Y25908D02*
G01*
X36068Y26416D01*
X32156Y27178D01*
X28905Y29362D01*
X26670Y32664D01*
X25908Y36576D01*
X25908Y5805932D01*
X26670Y5809843D01*
X28905Y5813094D01*
X32156Y5815330D01*
X36068Y5816092D01*
X5805932Y5816092D01*
X5809843Y5815330D01*
X5813094Y5813094D01*
X5815330Y5809843D01*
X5816092Y5805932D01*
X5816092Y36068D01*
X5815330Y32207D01*
X5813094Y28905D01*
X5809843Y26670D01*
G37*

%LPC*%
G36*
X4584700Y5600700D02*
G01*
X4687112Y5600700D01*
X4686960Y5602528D01*
X4684268Y5616803D01*
X4679746Y5630672D01*
X4673549Y5643829D01*
X4665776Y5656122D01*
X4656480Y5667349D01*
X4645863Y5677306D01*
X4634077Y5685840D01*
X4621326Y5692851D01*
X4607814Y5698236D01*
X4593691Y5701842D01*
X4584700Y5702960D01*
G37*
G36*
X393700Y105562D02*
G01*
X398322Y105664D01*
X421284Y108051D01*
X443992Y112369D01*
X466242Y118618D01*
X487934Y126644D01*
X508812Y136499D01*
X528828Y148031D01*
X547827Y161239D01*
X565607Y175971D01*
X582117Y192125D01*
X597204Y209600D01*
X610819Y228295D01*
X622757Y248107D01*
X633018Y268782D01*
X641553Y290271D01*
X648208Y312369D01*
X653034Y334975D01*
X655929Y357936D01*
X656336Y368300D01*
X393700Y368300D01*
G37*
G36*
X5448300Y105613D02*
G01*
X5448300Y368300D01*
X5185410Y368300D01*
X5187289Y346405D01*
X5191150Y323646D01*
X5196890Y301244D01*
X5204460Y279450D01*
X5213858Y258317D01*
X5224983Y238099D01*
X5237784Y218846D01*
X5252161Y200710D01*
X5267960Y183896D01*
X5285130Y168402D01*
X5303520Y154432D01*
X5323027Y142087D01*
X5343499Y131368D01*
X5364835Y122428D01*
X5386781Y115265D01*
X5409285Y109982D01*
X5432145Y106629D01*
G37*
G36*
X368300Y105613D02*
G01*
X368300Y368300D01*
X105410Y368300D01*
X107289Y346405D01*
X111150Y323646D01*
X116890Y301244D01*
X124460Y279450D01*
X133858Y258317D01*
X144983Y238099D01*
X157784Y218846D01*
X172161Y200710D01*
X187960Y183896D01*
X205130Y168402D01*
X223520Y154432D01*
X243027Y142087D01*
X263499Y131368D01*
X284835Y122428D01*
X306781Y115265D01*
X329285Y109982D01*
X352145Y106629D01*
G37*
G36*
X5473700Y393700D02*
G01*
X5736336Y393700D01*
X5735929Y404063D01*
X5733034Y427024D01*
X5728208Y449630D01*
X5721553Y471728D01*
X5713018Y493217D01*
X5702757Y513892D01*
X5690819Y533704D01*
X5677204Y552348D01*
X5662117Y569874D01*
X5645607Y586028D01*
X5627827Y600760D01*
X5608828Y613968D01*
X5588812Y625500D01*
X5567934Y635355D01*
X5546242Y643382D01*
X5523992Y649630D01*
X5501284Y653948D01*
X5478322Y656336D01*
X5473700Y656437D01*
G37*
G36*
X393700Y393700D02*
G01*
X656336Y393700D01*
X655929Y404063D01*
X653034Y427024D01*
X648208Y449630D01*
X641553Y471728D01*
X633018Y493217D01*
X622757Y513892D01*
X610819Y533704D01*
X597204Y552348D01*
X582117Y569874D01*
X565607Y586028D01*
X547827Y600760D01*
X528828Y613968D01*
X508812Y625500D01*
X487934Y635355D01*
X466242Y643382D01*
X443992Y649630D01*
X421284Y653948D01*
X398322Y656336D01*
X393700Y656437D01*
G37*
G36*
X5185410Y393700D02*
G01*
X5448300Y393700D01*
X5448300Y656386D01*
X5432145Y655370D01*
X5409285Y652018D01*
X5386781Y646734D01*
X5364835Y639572D01*
X5343499Y630631D01*
X5323027Y619912D01*
X5303520Y607568D01*
X5285130Y593598D01*
X5267960Y578104D01*
X5252161Y561289D01*
X5237784Y543153D01*
X5224983Y523900D01*
X5213858Y503682D01*
X5204460Y482549D01*
X5196890Y460756D01*
X5191150Y438353D01*
X5187289Y415594D01*
G37*
G36*
X105410Y393700D02*
G01*
X368300Y393700D01*
X368300Y656386D01*
X352145Y655370D01*
X329285Y652018D01*
X306781Y646734D01*
X284835Y639572D01*
X263499Y630631D01*
X243027Y619912D01*
X223520Y607568D01*
X205130Y593598D01*
X187960Y578104D01*
X172161Y561289D01*
X157784Y543153D01*
X144983Y523900D01*
X133858Y503682D01*
X124460Y482549D01*
X116890Y460756D01*
X111150Y438353D01*
X107289Y415594D01*
G37*
G36*
X698500Y2531821D02*
G01*
X701598Y2532024D01*
X717143Y2534767D01*
X732282Y2539288D01*
X746760Y2545537D01*
X760476Y2553462D01*
X773125Y2562910D01*
X784656Y2573731D01*
X794816Y2585872D01*
X803503Y2599029D01*
X810564Y2613152D01*
X816000Y2628036D01*
X819607Y2643378D01*
X820877Y2654300D01*
X698500Y2654300D01*
G37*
G36*
X673100Y2531821D02*
G01*
X673100Y2654300D01*
X550722Y2654300D01*
X551992Y2643378D01*
X555599Y2628036D01*
X561035Y2613152D01*
X568096Y2599029D01*
X576783Y2585872D01*
X586943Y2573731D01*
X598424Y2562910D01*
X611124Y2553462D01*
X624789Y2545537D01*
X639318Y2539288D01*
X654456Y2534767D01*
X670001Y2532024D01*
G37*
G36*
X5143500Y2531872D02*
G01*
X5143500Y2654300D01*
X5021122Y2654300D01*
X5022392Y2643428D01*
X5025999Y2628036D01*
X5031435Y2613202D01*
X5038496Y2599080D01*
X5047183Y2585872D01*
X5057343Y2573731D01*
X5068874Y2562910D01*
X5081524Y2553462D01*
X5095240Y2545588D01*
X5109718Y2539288D01*
X5124856Y2534767D01*
X5140452Y2532024D01*
G37*
G36*
X5168900Y2531872D02*
G01*
X5171998Y2532024D01*
X5187543Y2534767D01*
X5202682Y2539288D01*
X5217210Y2545588D01*
X5230876Y2553462D01*
X5243576Y2562910D01*
X5255056Y2573731D01*
X5265216Y2585872D01*
X5273903Y2599080D01*
X5280964Y2613202D01*
X5286400Y2628036D01*
X5290007Y2643428D01*
X5291277Y2654300D01*
X5168900Y2654300D01*
G37*
G36*
X2366010Y2559913D02*
G01*
X2402738Y2559913D01*
X2409037Y2560624D01*
X2414524Y2562555D01*
X2419400Y2565603D01*
X2423515Y2569718D01*
X2426563Y2574594D01*
X2428494Y2580081D01*
X2429205Y2586380D01*
X2429205Y2628138D01*
X2366010Y2628138D01*
G37*
G36*
X2143861Y2559913D02*
G01*
X2242718Y2559913D01*
X2249068Y2560624D01*
X2254504Y2562555D01*
X2259431Y2565603D01*
X2263495Y2569718D01*
X2264714Y2571597D01*
X2267508Y2574544D01*
X2271268Y2576169D01*
X2275332Y2576169D01*
X2279091Y2574544D01*
X2281885Y2571597D01*
X2283104Y2569718D01*
X2287168Y2565603D01*
X2292096Y2562555D01*
X2297531Y2560624D01*
X2303881Y2559913D01*
X2340610Y2559913D01*
X2340610Y2628138D01*
X2279396Y2628138D01*
X2275484Y2628900D01*
X2272182Y2631084D01*
X2269998Y2634386D01*
X2269236Y2638298D01*
X2269236Y2643378D01*
X2269998Y2647238D01*
X2272182Y2650540D01*
X2275484Y2652776D01*
X2279396Y2653538D01*
X2340610Y2653538D01*
X2340610Y2721711D01*
X2303881Y2721711D01*
X2297531Y2721000D01*
X2292096Y2719120D01*
X2287168Y2716022D01*
X2283104Y2711958D01*
X2281885Y2710027D01*
X2279091Y2707081D01*
X2275332Y2705506D01*
X2271268Y2705506D01*
X2267508Y2707081D01*
X2264714Y2710027D01*
X2263495Y2711958D01*
X2259431Y2716022D01*
X2254504Y2719120D01*
X2249068Y2721000D01*
X2242718Y2721711D01*
X2143861Y2721711D01*
X2137562Y2721000D01*
X2132076Y2719120D01*
X2127199Y2716022D01*
X2123084Y2711958D01*
X2120036Y2707030D01*
X2118106Y2701594D01*
X2117394Y2695244D01*
X2117394Y2684475D01*
X2116632Y2680563D01*
X2114448Y2677312D01*
X2111146Y2675077D01*
X2107234Y2674315D01*
X2103374Y2675077D01*
X2100072Y2677312D01*
X2095804Y2681528D01*
X2090928Y2684627D01*
X2085441Y2686507D01*
X2079142Y2687218D01*
X1979168Y2687218D01*
X1975307Y2688031D01*
X1972005Y2690215D01*
X1969770Y2693517D01*
X1969007Y2697378D01*
X1969007Y2762046D01*
X1969770Y2765958D01*
X1972005Y2769260D01*
X1975307Y2771444D01*
X1979168Y2772206D01*
X2079142Y2772206D01*
X2085441Y2772918D01*
X2090928Y2774848D01*
X2095804Y2777947D01*
X2100021Y2782163D01*
X2103323Y2784348D01*
X2107234Y2785110D01*
X2111095Y2784348D01*
X2114397Y2782163D01*
X2116632Y2778861D01*
X2117394Y2774950D01*
X2117394Y2769209D01*
X2118106Y2762859D01*
X2119985Y2757424D01*
X2123084Y2752496D01*
X2127199Y2748432D01*
X2132076Y2745333D01*
X2137562Y2743403D01*
X2143861Y2742692D01*
X2232710Y2742692D01*
X2239060Y2743403D01*
X2244496Y2745333D01*
X2249424Y2748432D01*
X2253488Y2752496D01*
X2256586Y2757424D01*
X2258466Y2762859D01*
X2259177Y2769209D01*
X2259177Y2868066D01*
X2258466Y2874365D01*
X2256586Y2879852D01*
X2253488Y2884728D01*
X2249424Y2888843D01*
X2244496Y2891891D01*
X2239060Y2893822D01*
X2232710Y2894533D01*
X2143861Y2894533D01*
X2137562Y2893822D01*
X2132076Y2891891D01*
X2127199Y2888843D01*
X2123084Y2884728D01*
X2119985Y2879852D01*
X2118106Y2874365D01*
X2116785Y2869133D01*
X2114448Y2866186D01*
X2111197Y2864307D01*
X2107438Y2863748D01*
X2103780Y2864561D01*
X2100630Y2866694D01*
X2095804Y2871520D01*
X2090928Y2874619D01*
X2085441Y2876550D01*
X2079142Y2877261D01*
X1976526Y2877261D01*
X1970176Y2876550D01*
X1964740Y2874619D01*
X1959813Y2871520D01*
X1955749Y2867456D01*
X1952548Y2863545D01*
X1949297Y2861919D01*
X1945690Y2861513D01*
X1942185Y2862376D01*
X1939188Y2864459D01*
X1932635Y2870962D01*
X1926437Y2876092D01*
X1919782Y2879648D01*
X1912518Y2881833D01*
X1904492Y2882646D01*
X1767027Y2882646D01*
X1763217Y2883357D01*
X1760016Y2885440D01*
X1757781Y2888589D01*
X1756867Y2892348D01*
X1757425Y2896158D01*
X1759102Y2900934D01*
X1759813Y2907233D01*
X1759813Y2960522D01*
X1760575Y2964434D01*
X1762810Y2967736D01*
X1766062Y2969920D01*
X1769973Y2970682D01*
X1968855Y2970580D01*
X1972767Y2969818D01*
X1976069Y2967634D01*
X1978253Y2964332D01*
X1979015Y2960420D01*
X1979015Y2949041D01*
X1979726Y2942691D01*
X1981657Y2937256D01*
X1984705Y2932379D01*
X1988820Y2928264D01*
X1993696Y2925165D01*
X1999183Y2923286D01*
X2005482Y2922574D01*
X2145030Y2922574D01*
X2151329Y2923286D01*
X2156815Y2925165D01*
X2161692Y2928264D01*
X2165807Y2932379D01*
X2168906Y2937256D01*
X2170785Y2942691D01*
X2171496Y2949041D01*
X2171496Y3297834D01*
X2170785Y3304133D01*
X2168906Y3309620D01*
X2165807Y3314496D01*
X2161692Y3318611D01*
X2156815Y3321659D01*
X2151329Y3323590D01*
X2145030Y3324301D01*
X2005482Y3324301D01*
X1999183Y3323590D01*
X1993696Y3321659D01*
X1988820Y3318611D01*
X1984705Y3314496D01*
X1981657Y3309620D01*
X1979726Y3304133D01*
X1979015Y3297834D01*
X1979015Y3286607D01*
X1978253Y3282696D01*
X1976069Y3279394D01*
X1972767Y3277209D01*
X1968855Y3276447D01*
X1769973Y3276549D01*
X1766062Y3277311D01*
X1762760Y3279546D01*
X1760575Y3282848D01*
X1759813Y3286709D01*
X1759813Y3339592D01*
X1759102Y3345942D01*
X1757172Y3351377D01*
X1754124Y3356305D01*
X1750009Y3360369D01*
X1745132Y3363468D01*
X1739646Y3365347D01*
X1733346Y3366058D01*
X1619453Y3366058D01*
X1613154Y3365347D01*
X1607667Y3363468D01*
X1602790Y3360369D01*
X1598676Y3356305D01*
X1595628Y3351377D01*
X1593697Y3345942D01*
X1592986Y3339592D01*
X1592986Y3286810D01*
X1592224Y3282950D01*
X1589989Y3279648D01*
X1586738Y3277463D01*
X1582826Y3276650D01*
X925068Y3277057D01*
X921156Y3277870D01*
X917854Y3280054D01*
X915669Y3283356D01*
X914908Y3287217D01*
X914908Y3352241D01*
X914196Y3358540D01*
X912266Y3364026D01*
X909218Y3368903D01*
X905103Y3373018D01*
X900226Y3376066D01*
X894740Y3377996D01*
X888441Y3378708D01*
X495858Y3378708D01*
X489559Y3377996D01*
X484073Y3376066D01*
X479196Y3373018D01*
X475081Y3368903D01*
X472033Y3364026D01*
X470103Y3358540D01*
X469392Y3352241D01*
X469392Y2997758D01*
X470103Y2991459D01*
X472033Y2985973D01*
X475081Y2981096D01*
X479196Y2976981D01*
X484073Y2973933D01*
X489559Y2972003D01*
X495858Y2971292D01*
X1582826Y2970784D01*
X1586738Y2970022D01*
X1590040Y2967786D01*
X1592224Y2964484D01*
X1592986Y2960624D01*
X1592986Y2907233D01*
X1593697Y2900934D01*
X1594307Y2899156D01*
X1594866Y2895346D01*
X1594002Y2891586D01*
X1591767Y2888437D01*
X1588516Y2886354D01*
X1584756Y2885643D01*
X1574800Y2885643D01*
X1574800Y2822448D01*
X1643024Y2822448D01*
X1643024Y2836418D01*
X1643786Y2840278D01*
X1645970Y2843580D01*
X1649272Y2845765D01*
X1653184Y2846578D01*
X1657045Y2845765D01*
X1660347Y2843580D01*
X1686864Y2817063D01*
X1693062Y2811983D01*
X1699768Y2808427D01*
X1706981Y2806192D01*
X1715007Y2805430D01*
X1881632Y2805430D01*
X1885543Y2804668D01*
X1888845Y2802432D01*
X1891030Y2799130D01*
X1891792Y2795270D01*
X1891792Y2784703D01*
X1890877Y2780538D01*
X1888337Y2777083D01*
X1884578Y2775000D01*
X1880260Y2774645D01*
X1876247Y2776118D01*
X1870659Y2779623D01*
X1865223Y2781503D01*
X1858873Y2782214D01*
X1756257Y2782214D01*
X1749958Y2781503D01*
X1744472Y2779623D01*
X1739646Y2776575D01*
X1734566Y2771394D01*
X1731670Y2769362D01*
X1728266Y2768396D01*
X1719681Y2767533D01*
X1712468Y2765348D01*
X1705762Y2761792D01*
X1699564Y2756662D01*
X1654556Y2711704D01*
X1651609Y2709621D01*
X1648104Y2708757D01*
X1644497Y2709164D01*
X1641246Y2710789D01*
X1638807Y2713482D01*
X1637283Y2715869D01*
X1633220Y2719933D01*
X1631340Y2721152D01*
X1628394Y2723946D01*
X1626768Y2727706D01*
X1626768Y2731770D01*
X1628394Y2735529D01*
X1631340Y2738323D01*
X1633220Y2739542D01*
X1637283Y2743606D01*
X1640382Y2748534D01*
X1642313Y2753969D01*
X1643024Y2760319D01*
X1643024Y2797048D01*
X1574800Y2797048D01*
X1574800Y2735783D01*
X1574038Y2731922D01*
X1571802Y2728620D01*
X1568551Y2726436D01*
X1564640Y2725623D01*
X1559560Y2725623D01*
X1555648Y2726436D01*
X1552397Y2728620D01*
X1550162Y2731922D01*
X1549400Y2735783D01*
X1549400Y2797048D01*
X1481175Y2797048D01*
X1481175Y2760319D01*
X1481886Y2753969D01*
X1483817Y2748534D01*
X1486916Y2743606D01*
X1490980Y2739542D01*
X1492859Y2738323D01*
X1495806Y2735529D01*
X1497431Y2731770D01*
X1497431Y2727706D01*
X1495806Y2723946D01*
X1492859Y2721152D01*
X1490980Y2719933D01*
X1486916Y2715869D01*
X1483817Y2710942D01*
X1481886Y2705506D01*
X1481175Y2699156D01*
X1481175Y2600299D01*
X1481886Y2594000D01*
X1483817Y2588514D01*
X1486916Y2583637D01*
X1490980Y2579522D01*
X1495907Y2576474D01*
X1501343Y2574544D01*
X1507693Y2573832D01*
X1616506Y2573832D01*
X1622856Y2574544D01*
X1628292Y2576474D01*
X1633220Y2579522D01*
X1637283Y2583637D01*
X1640382Y2588514D01*
X1642313Y2594000D01*
X1643024Y2601569D01*
X1643684Y2605227D01*
X1645615Y2608376D01*
X1648612Y2610612D01*
X1652168Y2611678D01*
X1654708Y2611932D01*
X1661972Y2614117D01*
X1668627Y2617673D01*
X1674875Y2622804D01*
X1731060Y2678988D01*
X1733804Y2680919D01*
X1737106Y2681884D01*
X1740458Y2681681D01*
X1744472Y2679852D01*
X1749958Y2677922D01*
X1756257Y2677210D01*
X1858873Y2677210D01*
X1865223Y2677922D01*
X1870659Y2679852D01*
X1876247Y2683357D01*
X1880260Y2684830D01*
X1884578Y2684475D01*
X1888337Y2682392D01*
X1890877Y2678938D01*
X1891792Y2674721D01*
X1891792Y2654046D01*
X1892604Y2646019D01*
X1894789Y2638755D01*
X1898345Y2632100D01*
X1903475Y2625852D01*
X1921560Y2607767D01*
X1927758Y2602687D01*
X1934413Y2599131D01*
X1941677Y2596896D01*
X1948434Y2596235D01*
X1951837Y2595270D01*
X1954733Y2593238D01*
X1959914Y2587853D01*
X1964740Y2584856D01*
X1970176Y2582926D01*
X1976526Y2582214D01*
X2079142Y2582214D01*
X2085441Y2582926D01*
X2090928Y2584856D01*
X2095804Y2587904D01*
X2100122Y2592273D01*
X2103272Y2594356D01*
X2106930Y2595219D01*
X2110689Y2594660D01*
X2113940Y2592781D01*
X2116328Y2589834D01*
X2117445Y2586228D01*
X2118106Y2580081D01*
X2120036Y2574594D01*
X2123084Y2569718D01*
X2127199Y2565603D01*
X2132076Y2562555D01*
X2137562Y2560624D01*
G37*
G36*
X4456887Y5600700D02*
G01*
X4559300Y5600700D01*
X4559300Y5702960D01*
X4550308Y5701842D01*
X4536186Y5698236D01*
X4522673Y5692851D01*
X4509922Y5685840D01*
X4498136Y5677306D01*
X4487519Y5667349D01*
X4478223Y5656122D01*
X4470450Y5643829D01*
X4464253Y5630672D01*
X4459732Y5616803D01*
X4457039Y5602528D01*
G37*
G36*
X3401161Y2565704D02*
G01*
X3490010Y2565704D01*
X3496360Y2566416D01*
X3501796Y2568295D01*
X3506724Y2571394D01*
X3510787Y2575509D01*
X3513886Y2580386D01*
X3515817Y2585872D01*
X3516528Y2592171D01*
X3516528Y2691028D01*
X3515817Y2697327D01*
X3513886Y2702814D01*
X3510787Y2707690D01*
X3506724Y2711805D01*
X3501796Y2714904D01*
X3496360Y2716784D01*
X3493211Y2717139D01*
X3489706Y2718206D01*
X3486759Y2720492D01*
X3484879Y2723642D01*
X3484168Y2727248D01*
X3484168Y2733751D01*
X3484879Y2737358D01*
X3486759Y2740507D01*
X3489706Y2742793D01*
X3493211Y2743860D01*
X3496310Y2744216D01*
X3501796Y2746095D01*
X3506673Y2749194D01*
X3510787Y2753258D01*
X3513886Y2758186D01*
X3515766Y2763621D01*
X3516477Y2769971D01*
X3516477Y2868828D01*
X3515766Y2875127D01*
X3513886Y2880614D01*
X3510787Y2885490D01*
X3506673Y2889605D01*
X3501796Y2892653D01*
X3496310Y2894584D01*
X3490010Y2895295D01*
X3401161Y2895295D01*
X3394811Y2894584D01*
X3389376Y2892653D01*
X3384499Y2889605D01*
X3380384Y2885490D01*
X3377285Y2880614D01*
X3375406Y2875127D01*
X3374694Y2868828D01*
X3374694Y2858465D01*
X3373882Y2854604D01*
X3371697Y2851302D01*
X3368395Y2849118D01*
X3364534Y2848305D01*
X3329584Y2848305D01*
X3325926Y2849016D01*
X3322726Y2850946D01*
X3320491Y2853944D01*
X3319475Y2857500D01*
X3318662Y2865526D01*
X3316782Y2870911D01*
X3313684Y2875838D01*
X3309620Y2879902D01*
X3304692Y2883001D01*
X3299256Y2884932D01*
X3292906Y2885643D01*
X3184093Y2885643D01*
X3177743Y2884932D01*
X3172307Y2883001D01*
X3167380Y2879902D01*
X3163316Y2875838D01*
X3160217Y2870911D01*
X3158286Y2865475D01*
X3157575Y2859125D01*
X3157575Y2760268D01*
X3158286Y2753969D01*
X3160217Y2748483D01*
X3163316Y2743606D01*
X3167380Y2739491D01*
X3169259Y2738323D01*
X3172206Y2735529D01*
X3173831Y2731770D01*
X3173831Y2727706D01*
X3172206Y2723946D01*
X3169259Y2721102D01*
X3167380Y2719933D01*
X3163316Y2715818D01*
X3160217Y2710942D01*
X3158286Y2705506D01*
X3157575Y2699156D01*
X3157575Y2662428D01*
X3225800Y2662428D01*
X3225800Y2723642D01*
X3226562Y2727553D01*
X3228797Y2730855D01*
X3232048Y2733040D01*
X3235960Y2733802D01*
X3241040Y2733802D01*
X3244951Y2733040D01*
X3248202Y2730855D01*
X3250438Y2727553D01*
X3251200Y2723642D01*
X3251200Y2662428D01*
X3319424Y2662428D01*
X3319424Y2699156D01*
X3318713Y2705506D01*
X3316782Y2710942D01*
X3313684Y2715818D01*
X3309620Y2719933D01*
X3307740Y2721102D01*
X3304794Y2723946D01*
X3303168Y2727706D01*
X3303168Y2731770D01*
X3304794Y2735529D01*
X3307740Y2738323D01*
X3309620Y2739491D01*
X3313684Y2743606D01*
X3316782Y2748483D01*
X3318662Y2753918D01*
X3319475Y2761945D01*
X3320491Y2765501D01*
X3322726Y2768498D01*
X3325926Y2770428D01*
X3329584Y2771089D01*
X3365550Y2771089D01*
X3369614Y2770276D01*
X3373018Y2767838D01*
X3375151Y2764332D01*
X3377285Y2758186D01*
X3380384Y2753258D01*
X3384499Y2749194D01*
X3389376Y2746095D01*
X3394811Y2744216D01*
X3397961Y2743860D01*
X3401466Y2742793D01*
X3404412Y2740507D01*
X3406292Y2737358D01*
X3406952Y2733751D01*
X3406952Y2727248D01*
X3406292Y2723642D01*
X3404412Y2720492D01*
X3401466Y2718206D01*
X3397961Y2717139D01*
X3394862Y2716784D01*
X3389376Y2714904D01*
X3384499Y2711805D01*
X3380384Y2707690D01*
X3377336Y2702814D01*
X3375406Y2697327D01*
X3374694Y2691028D01*
X3374694Y2592171D01*
X3375406Y2585872D01*
X3377336Y2580386D01*
X3380384Y2575509D01*
X3384499Y2571394D01*
X3389376Y2568295D01*
X3394862Y2566416D01*
G37*
G36*
X3571189Y2565704D02*
G01*
X3660038Y2565704D01*
X3666337Y2566416D01*
X3671824Y2568295D01*
X3676700Y2571394D01*
X3680815Y2575509D01*
X3683863Y2580386D01*
X3686149Y2586939D01*
X3687419Y2589377D01*
X3689908Y2591917D01*
X3693718Y2593898D01*
X3697986Y2594152D01*
X3701999Y2592578D01*
X3704996Y2589530D01*
X3708704Y2583637D01*
X3712768Y2579522D01*
X3717696Y2576474D01*
X3723132Y2574544D01*
X3729482Y2573832D01*
X3828338Y2573832D01*
X3834637Y2574544D01*
X3839514Y2576271D01*
X3842867Y2576830D01*
X3954932Y2576830D01*
X3958285Y2576271D01*
X3963162Y2574544D01*
X3969461Y2573832D01*
X4068318Y2573832D01*
X4074668Y2574544D01*
X4079494Y2576271D01*
X4082846Y2576830D01*
X4939741Y2577592D01*
X4946040Y2578303D01*
X4951526Y2580233D01*
X4956403Y2583281D01*
X4960518Y2587396D01*
X4963566Y2592273D01*
X4965496Y2597759D01*
X4966208Y2604058D01*
X4966208Y2961132D01*
X4966970Y2964992D01*
X4969154Y2968294D01*
X4972456Y2970530D01*
X4976368Y2971292D01*
X5333441Y2971292D01*
X5339740Y2972003D01*
X5345226Y2973933D01*
X5350103Y2976981D01*
X5354218Y2981096D01*
X5357266Y2985973D01*
X5359196Y2991459D01*
X5359908Y2997758D01*
X5359908Y3352241D01*
X5359196Y3358540D01*
X5357266Y3364026D01*
X5354218Y3368903D01*
X5350103Y3373018D01*
X5345226Y3376066D01*
X5339740Y3377996D01*
X5333441Y3378708D01*
X4826558Y3378708D01*
X4820259Y3377996D01*
X4814773Y3376066D01*
X4809896Y3373018D01*
X4805781Y3368903D01*
X4802682Y3364026D01*
X4800803Y3358540D01*
X4800092Y3352241D01*
X4800092Y2791917D01*
X4799330Y2788056D01*
X4797094Y2784754D01*
X4793792Y2782570D01*
X4789932Y2781757D01*
X4226864Y2781401D01*
X4222750Y2782265D01*
X4219295Y2784754D01*
X4217212Y2788462D01*
X4216908Y2793796D01*
X4216908Y2976778D01*
X4217314Y2979572D01*
X4218482Y2982214D01*
X4220413Y2987700D01*
X4221124Y2993999D01*
X4221124Y3092856D01*
X4220413Y3099206D01*
X4218482Y3104642D01*
X4215384Y3109518D01*
X4208526Y3116783D01*
X4206494Y3119780D01*
X4205579Y3123285D01*
X4205986Y3126892D01*
X4207662Y3130143D01*
X4211320Y3133191D01*
X4215384Y3137306D01*
X4218482Y3142183D01*
X4220413Y3147669D01*
X4221124Y3153968D01*
X4221124Y3190697D01*
X4152900Y3190697D01*
X4152900Y3134106D01*
X4152137Y3130194D01*
X4149902Y3126892D01*
X4146651Y3124708D01*
X4142740Y3123946D01*
X4137660Y3123946D01*
X4133748Y3124708D01*
X4130497Y3126892D01*
X4128262Y3130194D01*
X4127500Y3134106D01*
X4127500Y3190697D01*
X4050284Y3190697D01*
X4046372Y3191510D01*
X4043070Y3193694D01*
X4040886Y3196996D01*
X4040124Y3200857D01*
X4040124Y3205937D01*
X4040886Y3209848D01*
X4043070Y3213150D01*
X4046372Y3215335D01*
X4050284Y3216097D01*
X4127500Y3216097D01*
X4127500Y3279343D01*
X4085793Y3279343D01*
X4079443Y3278632D01*
X4074007Y3276701D01*
X4069079Y3273602D01*
X4065015Y3269538D01*
X4061917Y3264611D01*
X4059986Y3259175D01*
X4059631Y3255822D01*
X4058310Y3251809D01*
X4055465Y3248710D01*
X4051655Y3246983D01*
X4047439Y3246983D01*
X4043578Y3248710D01*
X4040733Y3251809D01*
X4037482Y3261664D01*
X4034383Y3266541D01*
X4030319Y3270656D01*
X4025392Y3273704D01*
X4019956Y3275634D01*
X4013606Y3276346D01*
X3834790Y3276346D01*
X3828440Y3275634D01*
X3825443Y3274567D01*
X3822090Y3274009D01*
X3818737Y3274567D01*
X3815740Y3275634D01*
X3809441Y3276346D01*
X2552344Y3276346D01*
X2548432Y3277108D01*
X2545130Y3279292D01*
X2542946Y3282594D01*
X2542184Y3286506D01*
X2542184Y3297834D01*
X2541473Y3304133D01*
X2539542Y3309620D01*
X2536494Y3314496D01*
X2532380Y3318611D01*
X2527503Y3321659D01*
X2522016Y3323590D01*
X2515717Y3324301D01*
X2376170Y3324301D01*
X2369870Y3323590D01*
X2364384Y3321659D01*
X2359507Y3318611D01*
X2355392Y3314496D01*
X2352294Y3309620D01*
X2350414Y3304133D01*
X2349703Y3297834D01*
X2349703Y2949041D01*
X2350414Y2942691D01*
X2352294Y2937256D01*
X2355392Y2932379D01*
X2359507Y2928264D01*
X2364384Y2925165D01*
X2369870Y2923286D01*
X2376170Y2922574D01*
X2397150Y2922574D01*
X2401062Y2921762D01*
X2404364Y2919577D01*
X2406548Y2916275D01*
X2407310Y2912414D01*
X2407310Y2904693D01*
X2406548Y2900781D01*
X2404364Y2897530D01*
X2401062Y2895295D01*
X2397150Y2894533D01*
X2313889Y2894533D01*
X2307539Y2893822D01*
X2302103Y2891891D01*
X2297176Y2888843D01*
X2293112Y2884728D01*
X2290013Y2879852D01*
X2288082Y2874365D01*
X2287371Y2868066D01*
X2287371Y2769209D01*
X2288082Y2762859D01*
X2290013Y2757424D01*
X2293112Y2752496D01*
X2297176Y2748432D01*
X2302103Y2745333D01*
X2307539Y2743403D01*
X2313889Y2742692D01*
X2402738Y2742692D01*
X2409037Y2743403D01*
X2414524Y2745333D01*
X2419400Y2748432D01*
X2423515Y2752496D01*
X2426563Y2757424D01*
X2428494Y2762859D01*
X2429205Y2769209D01*
X2429205Y2772054D01*
X2430119Y2776220D01*
X2432659Y2779674D01*
X2436418Y2781757D01*
X2440482Y2783027D01*
X2447137Y2786583D01*
X2453335Y2791663D01*
X2472893Y2811221D01*
X2477973Y2817418D01*
X2481580Y2824124D01*
X2483764Y2831338D01*
X2484526Y2839364D01*
X2484526Y2912414D01*
X2485339Y2916275D01*
X2487523Y2919577D01*
X2490825Y2921762D01*
X2494686Y2922574D01*
X2515717Y2922574D01*
X2522016Y2923286D01*
X2527503Y2925165D01*
X2532380Y2928264D01*
X2536494Y2932379D01*
X2539542Y2937256D01*
X2541473Y2942691D01*
X2542184Y2949041D01*
X2542184Y2960370D01*
X2542946Y2964230D01*
X2545130Y2967532D01*
X2548432Y2969768D01*
X2552344Y2970530D01*
X3697732Y2970530D01*
X3701643Y2969768D01*
X3704894Y2967532D01*
X3707129Y2964230D01*
X3707892Y2960370D01*
X3707892Y2877464D01*
X3707587Y2874975D01*
X3704996Y2869590D01*
X3702253Y2866339D01*
X3698392Y2864561D01*
X3694125Y2864459D01*
X3690213Y2866136D01*
X3687318Y2869285D01*
X3685997Y2873298D01*
X3685794Y2875127D01*
X3683863Y2880614D01*
X3680764Y2885490D01*
X3676700Y2889605D01*
X3671773Y2892653D01*
X3666337Y2894584D01*
X3659987Y2895295D01*
X3571138Y2895295D01*
X3564839Y2894584D01*
X3559352Y2892653D01*
X3554476Y2889605D01*
X3550361Y2885490D01*
X3547313Y2880614D01*
X3545382Y2875127D01*
X3544671Y2868828D01*
X3544671Y2769971D01*
X3545382Y2763621D01*
X3547313Y2758186D01*
X3550361Y2753258D01*
X3554476Y2749194D01*
X3559352Y2746095D01*
X3564839Y2744216D01*
X3567937Y2743860D01*
X3571494Y2742793D01*
X3574389Y2740507D01*
X3576320Y2737358D01*
X3576980Y2733751D01*
X3576980Y2727248D01*
X3576320Y2723642D01*
X3574389Y2720492D01*
X3571494Y2718206D01*
X3567937Y2717139D01*
X3564839Y2716784D01*
X3559403Y2714904D01*
X3554476Y2711805D01*
X3550412Y2707690D01*
X3547313Y2702814D01*
X3545433Y2697327D01*
X3544722Y2691028D01*
X3544722Y2592171D01*
X3545433Y2585872D01*
X3547313Y2580386D01*
X3550412Y2575509D01*
X3554476Y2571394D01*
X3559403Y2568295D01*
X3564839Y2566416D01*
G37*
G36*
X3251200Y2573832D02*
G01*
X3292906Y2573832D01*
X3299256Y2574544D01*
X3304692Y2576423D01*
X3309620Y2579522D01*
X3313684Y2583637D01*
X3316782Y2588514D01*
X3318713Y2594000D01*
X3319424Y2600299D01*
X3319424Y2637028D01*
X3251200Y2637028D01*
G37*
G36*
X3184093Y2573832D02*
G01*
X3225800Y2573832D01*
X3225800Y2637028D01*
X3157575Y2637028D01*
X3157575Y2600299D01*
X3158286Y2594000D01*
X3160217Y2588514D01*
X3163316Y2583637D01*
X3167380Y2579522D01*
X3172307Y2576423D01*
X3177743Y2574544D01*
G37*
G36*
X105410Y5473700D02*
G01*
X368300Y5473700D01*
X368300Y5736386D01*
X352145Y5735370D01*
X329285Y5732018D01*
X306781Y5726734D01*
X284835Y5719572D01*
X263499Y5710631D01*
X243027Y5699912D01*
X223520Y5687568D01*
X205130Y5673598D01*
X187960Y5658104D01*
X172161Y5641289D01*
X157784Y5623153D01*
X144983Y5603900D01*
X133858Y5583682D01*
X124460Y5562549D01*
X116890Y5540756D01*
X111150Y5518353D01*
X107289Y5495594D01*
G37*
G36*
X5185410Y5473700D02*
G01*
X5448300Y5473700D01*
X5448300Y5736386D01*
X5432145Y5735370D01*
X5409285Y5732018D01*
X5386781Y5726734D01*
X5364835Y5719572D01*
X5343499Y5710631D01*
X5323027Y5699912D01*
X5303520Y5687568D01*
X5285130Y5673598D01*
X5267960Y5658104D01*
X5252161Y5641289D01*
X5237784Y5623153D01*
X5224983Y5603900D01*
X5213858Y5583682D01*
X5204460Y5562549D01*
X5196890Y5540756D01*
X5191150Y5518353D01*
X5187289Y5495594D01*
G37*
G36*
X5473700Y5473700D02*
G01*
X5736336Y5473700D01*
X5735929Y5484063D01*
X5733034Y5507024D01*
X5728208Y5529630D01*
X5721553Y5551728D01*
X5713018Y5573217D01*
X5702757Y5593892D01*
X5690819Y5613704D01*
X5677204Y5632348D01*
X5662117Y5649874D01*
X5645607Y5666028D01*
X5627827Y5680760D01*
X5608828Y5693968D01*
X5588812Y5705500D01*
X5567934Y5715355D01*
X5546242Y5723382D01*
X5523992Y5729630D01*
X5501284Y5733948D01*
X5478322Y5736336D01*
X5473700Y5736437D01*
G37*
G36*
X393700Y5473700D02*
G01*
X656336Y5473700D01*
X655929Y5484063D01*
X653034Y5507024D01*
X648208Y5529630D01*
X641553Y5551728D01*
X633018Y5573217D01*
X622757Y5593892D01*
X610819Y5613704D01*
X597204Y5632348D01*
X582117Y5649874D01*
X565607Y5666028D01*
X547827Y5680760D01*
X528828Y5693968D01*
X508812Y5705500D01*
X487934Y5715355D01*
X466242Y5723382D01*
X443992Y5729630D01*
X421284Y5733948D01*
X398322Y5736336D01*
X393700Y5736437D01*
G37*
G36*
X4559300Y5473039D02*
G01*
X4559300Y5575300D01*
X4456887Y5575300D01*
X4457039Y5573471D01*
X4459732Y5559196D01*
X4464253Y5545328D01*
X4470450Y5532170D01*
X4478223Y5519877D01*
X4487519Y5508650D01*
X4498136Y5498693D01*
X4509922Y5490159D01*
X4522673Y5483148D01*
X4536186Y5477764D01*
X4550308Y5474157D01*
G37*
G36*
X4584700Y5473039D02*
G01*
X4593691Y5474157D01*
X4607814Y5477764D01*
X4621326Y5483148D01*
X4634077Y5490159D01*
X4645863Y5498693D01*
X4656480Y5508650D01*
X4665776Y5519877D01*
X4673549Y5532170D01*
X4679746Y5545328D01*
X4684268Y5559196D01*
X4686960Y5573471D01*
X4687112Y5575300D01*
X4584700Y5575300D01*
G37*
G36*
X4584700Y5346700D02*
G01*
X4687112Y5346700D01*
X4686960Y5348528D01*
X4684268Y5362803D01*
X4679746Y5376672D01*
X4673549Y5389829D01*
X4665776Y5402122D01*
X4656480Y5413349D01*
X4645863Y5423306D01*
X4634077Y5431840D01*
X4621326Y5438851D01*
X4607814Y5444236D01*
X4593691Y5447842D01*
X4584700Y5448960D01*
G37*
G36*
X4456887Y5346700D02*
G01*
X4559300Y5346700D01*
X4559300Y5448960D01*
X4550308Y5447842D01*
X4536186Y5444236D01*
X4522673Y5438851D01*
X4509922Y5431840D01*
X4498136Y5423306D01*
X4487519Y5413349D01*
X4478223Y5402122D01*
X4470450Y5389829D01*
X4464253Y5376672D01*
X4459732Y5362803D01*
X4457039Y5348528D01*
G37*
G36*
X4584700Y5219039D02*
G01*
X4593691Y5220157D01*
X4607814Y5223764D01*
X4621326Y5229148D01*
X4634077Y5236159D01*
X4645863Y5244693D01*
X4656480Y5254650D01*
X4665776Y5265877D01*
X4673549Y5278170D01*
X4679746Y5291328D01*
X4684268Y5305196D01*
X4686960Y5319471D01*
X4687112Y5321300D01*
X4584700Y5321300D01*
G37*
G36*
X4559300Y5219039D02*
G01*
X4559300Y5321300D01*
X4456887Y5321300D01*
X4457039Y5319471D01*
X4459732Y5305196D01*
X4464253Y5291328D01*
X4470450Y5278170D01*
X4478223Y5265877D01*
X4487519Y5254650D01*
X4498136Y5244693D01*
X4509922Y5236159D01*
X4522673Y5229148D01*
X4536186Y5223764D01*
X4550308Y5220157D01*
G37*
G36*
X368300Y5185613D02*
G01*
X368300Y5448300D01*
X105410Y5448300D01*
X107289Y5426405D01*
X111150Y5403646D01*
X116890Y5381244D01*
X124460Y5359450D01*
X133858Y5338318D01*
X144983Y5318099D01*
X157784Y5298846D01*
X172161Y5280710D01*
X187960Y5263896D01*
X205130Y5248402D01*
X223520Y5234432D01*
X243027Y5222087D01*
X263499Y5211368D01*
X284835Y5202428D01*
X306781Y5195265D01*
X329285Y5189982D01*
X352145Y5186629D01*
G37*
G36*
X2366010Y2653538D02*
G01*
X2429205Y2653538D01*
X2429205Y2695244D01*
X2428494Y2701594D01*
X2426563Y2707030D01*
X2423515Y2711958D01*
X2419400Y2716022D01*
X2414524Y2719120D01*
X2409037Y2721000D01*
X2402738Y2721711D01*
X2366010Y2721711D01*
G37*
G36*
X5448300Y5185613D02*
G01*
X5448300Y5448300D01*
X5185410Y5448300D01*
X5187289Y5426405D01*
X5191150Y5403646D01*
X5196890Y5381244D01*
X5204460Y5359450D01*
X5213858Y5338318D01*
X5224983Y5318099D01*
X5237784Y5298846D01*
X5252161Y5280710D01*
X5267960Y5263896D01*
X5285130Y5248402D01*
X5303520Y5234432D01*
X5323027Y5222087D01*
X5343499Y5211368D01*
X5364835Y5202428D01*
X5386781Y5195265D01*
X5409285Y5189982D01*
X5432145Y5186629D01*
G37*
G36*
X393700Y5185562D02*
G01*
X398322Y5185664D01*
X421284Y5188051D01*
X443992Y5192369D01*
X466242Y5198618D01*
X487934Y5206644D01*
X508812Y5216499D01*
X528828Y5228031D01*
X547827Y5241239D01*
X565607Y5255971D01*
X582117Y5272125D01*
X597204Y5289600D01*
X610819Y5308295D01*
X622757Y5328107D01*
X633018Y5348782D01*
X641553Y5370271D01*
X648208Y5392369D01*
X653034Y5414975D01*
X655929Y5437936D01*
X656336Y5448300D01*
X393700Y5448300D01*
G37*
G36*
X5473700Y5185562D02*
G01*
X5478322Y5185664D01*
X5501284Y5188051D01*
X5523992Y5192369D01*
X5546242Y5198618D01*
X5567934Y5206644D01*
X5588812Y5216499D01*
X5608828Y5228031D01*
X5627827Y5241239D01*
X5645607Y5255971D01*
X5662117Y5272125D01*
X5677204Y5289600D01*
X5690819Y5308295D01*
X5702757Y5328107D01*
X5713018Y5348782D01*
X5721553Y5370271D01*
X5728208Y5392369D01*
X5733034Y5414975D01*
X5735929Y5437936D01*
X5736336Y5448300D01*
X5473700Y5448300D01*
G37*
G36*
X4152900Y3216097D02*
G01*
X4221124Y3216097D01*
X4221124Y3252825D01*
X4220413Y3259175D01*
X4218482Y3264611D01*
X4215384Y3269538D01*
X4211320Y3273602D01*
X4206392Y3276701D01*
X4200956Y3278632D01*
X4194606Y3279343D01*
X4152900Y3279343D01*
G37*
G36*
X550722Y2679700D02*
G01*
X673100Y2679700D01*
X673100Y2802128D01*
X670001Y2801975D01*
X654456Y2799232D01*
X639318Y2794711D01*
X624789Y2788412D01*
X611124Y2780538D01*
X598424Y2771089D01*
X586943Y2760268D01*
X576783Y2748127D01*
X568096Y2734919D01*
X561035Y2720797D01*
X555599Y2705963D01*
X551992Y2690571D01*
G37*
G36*
X5168900Y2679700D02*
G01*
X5291277Y2679700D01*
X5290007Y2690622D01*
X5286400Y2705963D01*
X5280964Y2720848D01*
X5273903Y2734970D01*
X5265216Y2748127D01*
X5255056Y2760268D01*
X5243576Y2771089D01*
X5230876Y2780538D01*
X5217210Y2788462D01*
X5202682Y2794711D01*
X5187543Y2799232D01*
X5171998Y2801975D01*
X5168900Y2802128D01*
G37*
G36*
X5021122Y2679700D02*
G01*
X5143500Y2679700D01*
X5143500Y2802128D01*
X5140452Y2801975D01*
X5124856Y2799232D01*
X5109718Y2794711D01*
X5095240Y2788462D01*
X5081524Y2780538D01*
X5068874Y2771089D01*
X5057343Y2760268D01*
X5047183Y2748127D01*
X5038496Y2734970D01*
X5031435Y2720848D01*
X5025999Y2705963D01*
X5022392Y2690622D01*
G37*
G36*
X698500Y2679700D02*
G01*
X820877Y2679700D01*
X819607Y2690571D01*
X816000Y2705963D01*
X810564Y2720797D01*
X803503Y2734919D01*
X794816Y2748127D01*
X784656Y2760268D01*
X773125Y2771089D01*
X760476Y2780538D01*
X746760Y2788412D01*
X732282Y2794711D01*
X717143Y2799232D01*
X701598Y2801975D01*
X698500Y2802128D01*
G37*
G36*
X1481175Y2822448D02*
G01*
X1549400Y2822448D01*
X1549400Y2885643D01*
X1507693Y2885643D01*
X1501343Y2884932D01*
X1495907Y2883001D01*
X1490980Y2879953D01*
X1486916Y2875838D01*
X1483817Y2870962D01*
X1481886Y2865475D01*
X1481175Y2859176D01*
G37*
G36*
X5473700Y105562D02*
G01*
X5478322Y105664D01*
X5501284Y108051D01*
X5523992Y112369D01*
X5546242Y118618D01*
X5567934Y126644D01*
X5588812Y136499D01*
X5608828Y148031D01*
X5627827Y161239D01*
X5645607Y175971D01*
X5662117Y192125D01*
X5677204Y209600D01*
X5690819Y228295D01*
X5702757Y248107D01*
X5713018Y268782D01*
X5721553Y290271D01*
X5728208Y312369D01*
X5733034Y334975D01*
X5735929Y357936D01*
X5736336Y368300D01*
X5473700Y368300D01*
G37*

%LPD*%
G36*
X2060448Y2996438D02*
G01*
X2056536Y2997250D01*
X2053234Y2999435D01*
X2051050Y3002737D01*
X2050288Y3006598D01*
X2050288Y3098444D01*
X1979015Y3098444D01*
X1979015Y3006648D01*
X1978253Y3002788D01*
X1976069Y2999486D01*
X1972767Y2997301D01*
X1968855Y2996488D01*
X1769414Y2996590D01*
X1765757Y2997250D01*
X1762607Y2999181D01*
X1760372Y3002076D01*
X1759102Y3007410D01*
X1757172Y3012897D01*
X1754124Y3017774D01*
X1750009Y3021888D01*
X1745132Y3024936D01*
X1739646Y3026867D01*
X1733346Y3027578D01*
X1619453Y3027578D01*
X1613154Y3026867D01*
X1607667Y3024936D01*
X1602790Y3021888D01*
X1598676Y3017774D01*
X1595628Y3012897D01*
X1593697Y3007410D01*
X1592427Y3002178D01*
X1590192Y2999282D01*
X1587042Y2997352D01*
X1583385Y2996692D01*
X505459Y2997200D01*
X501548Y2997962D01*
X498297Y3000146D01*
X496062Y3003448D01*
X495300Y3007360D01*
X495300Y3342640D01*
X496062Y3346500D01*
X498297Y3349802D01*
X501548Y3352037D01*
X505459Y3352800D01*
X878840Y3352800D01*
X882700Y3352037D01*
X886002Y3349802D01*
X888237Y3346500D01*
X889000Y3342640D01*
X889000Y3252215D01*
X890016Y3251200D01*
X1583334Y3250742D01*
X1586992Y3250082D01*
X1590141Y3248202D01*
X1592376Y3245256D01*
X1593443Y3241751D01*
X1593697Y3239414D01*
X1595628Y3233978D01*
X1598676Y3229051D01*
X1602790Y3224987D01*
X1607667Y3221888D01*
X1613154Y3219958D01*
X1619453Y3219246D01*
X1651406Y3219246D01*
X1651406Y3240582D01*
X1652168Y3244443D01*
X1654403Y3247745D01*
X1657705Y3249930D01*
X1661566Y3250742D01*
X1691233Y3250692D01*
X1695145Y3249930D01*
X1698396Y3247745D01*
X1700631Y3244443D01*
X1701393Y3240532D01*
X1701393Y3219246D01*
X1733346Y3219246D01*
X1739646Y3219958D01*
X1745132Y3221888D01*
X1750009Y3224987D01*
X1754124Y3229051D01*
X1757172Y3233978D01*
X1759102Y3239414D01*
X1759356Y3241649D01*
X1760423Y3245154D01*
X1762658Y3248050D01*
X1765807Y3249980D01*
X1769465Y3250641D01*
X1968855Y3250539D01*
X1972767Y3249777D01*
X1976069Y3247542D01*
X1978253Y3244240D01*
X1979015Y3240379D01*
X1979015Y3148431D01*
X2050288Y3148431D01*
X2050288Y3240328D01*
X2051050Y3244189D01*
X2053234Y3247491D01*
X2056536Y3249676D01*
X2060448Y3250488D01*
X2090115Y3250438D01*
X2093975Y3249676D01*
X2097278Y3247491D01*
X2099462Y3244189D01*
X2100275Y3240278D01*
X2100275Y3148431D01*
X2123440Y3148431D01*
X2127351Y3147669D01*
X2130602Y3145434D01*
X2132838Y3142132D01*
X2133600Y3138271D01*
X2133600Y3108604D01*
X2132838Y3104692D01*
X2130602Y3101390D01*
X2127351Y3099206D01*
X2123440Y3098444D01*
X2100275Y3098444D01*
X2100275Y3006598D01*
X2099462Y3002737D01*
X2097278Y2999435D01*
X2093975Y2997200D01*
X2090115Y2996438D01*
G37*

%LPC*%
G36*
X552297Y3199993D02*
G01*
X660806Y3199993D01*
X660806Y3308350D01*
X654456Y3307232D01*
X639318Y3302711D01*
X624789Y3296412D01*
X611124Y3288537D01*
X598424Y3279089D01*
X586943Y3268268D01*
X576783Y3256127D01*
X568096Y3242919D01*
X561035Y3228797D01*
X555599Y3213963D01*
G37*
G36*
X710793Y3199993D02*
G01*
X819302Y3199993D01*
X816000Y3213963D01*
X810564Y3228797D01*
X803503Y3242919D01*
X794816Y3256127D01*
X784656Y3268268D01*
X773125Y3279089D01*
X760476Y3288537D01*
X746760Y3296412D01*
X732282Y3302711D01*
X717143Y3307232D01*
X710793Y3308350D01*
G37*
G36*
X660806Y3041650D02*
G01*
X660806Y3150006D01*
X552297Y3150006D01*
X555599Y3136036D01*
X561035Y3121152D01*
X568096Y3107029D01*
X576783Y3093872D01*
X586943Y3081731D01*
X598424Y3070910D01*
X611124Y3061462D01*
X624789Y3053537D01*
X639318Y3047288D01*
X654456Y3042767D01*
G37*
G36*
X710793Y3041650D02*
G01*
X717143Y3042767D01*
X732282Y3047288D01*
X746760Y3053537D01*
X760476Y3061462D01*
X773125Y3070910D01*
X784656Y3081731D01*
X794816Y3093872D01*
X803503Y3107029D01*
X810564Y3121152D01*
X816000Y3136036D01*
X819302Y3150006D01*
X710793Y3150006D01*
G37*

%LPD*%
G36*
X3764076Y2793238D02*
G01*
X3760114Y2794050D01*
X3756761Y2796336D01*
X3754577Y2799740D01*
X3743960Y2799740D01*
X3740048Y2800502D01*
X3736797Y2802686D01*
X3734562Y2805988D01*
X3733800Y2809900D01*
X3733800Y2839567D01*
X3734562Y2843428D01*
X3736797Y2846730D01*
X3740048Y2848914D01*
X3743960Y2849727D01*
X3753916Y2849727D01*
X3753916Y2885643D01*
X3743960Y2885643D01*
X3740048Y2886405D01*
X3736797Y2888589D01*
X3734562Y2891891D01*
X3733800Y2895803D01*
X3733800Y2995422D01*
X3732784Y2996438D01*
X3593287Y2996438D01*
X3589375Y2997200D01*
X3586073Y2999384D01*
X3583889Y3002686D01*
X3583127Y3006598D01*
X3583127Y3098444D01*
X3492195Y3098444D01*
X3492195Y3006598D01*
X3491433Y3002686D01*
X3489198Y2999384D01*
X3485946Y2997200D01*
X3482035Y2996438D01*
X3452368Y2996438D01*
X3448507Y2997200D01*
X3445205Y2999384D01*
X3442970Y3002686D01*
X3442208Y3006598D01*
X3442208Y3098444D01*
X3351276Y3098444D01*
X3351276Y3006598D01*
X3350514Y3002686D01*
X3348329Y2999384D01*
X3345027Y2997200D01*
X3341115Y2996438D01*
X2552344Y2996438D01*
X2548432Y2997200D01*
X2545130Y2999384D01*
X2542946Y3002686D01*
X2542184Y3006598D01*
X2542184Y3098444D01*
X2470912Y3098444D01*
X2470912Y3006598D01*
X2470150Y3002686D01*
X2467965Y2999384D01*
X2464663Y2997200D01*
X2460752Y2996438D01*
X2431084Y2996438D01*
X2427224Y2997200D01*
X2423922Y2999384D01*
X2421737Y3002686D01*
X2420924Y3006598D01*
X2420924Y3098444D01*
X2397760Y3098444D01*
X2393848Y3099206D01*
X2390597Y3101390D01*
X2388362Y3104692D01*
X2387600Y3108604D01*
X2387600Y3138271D01*
X2388362Y3142132D01*
X2390597Y3145434D01*
X2393848Y3147669D01*
X2397760Y3148431D01*
X2420924Y3148431D01*
X2420924Y3240278D01*
X2421737Y3244138D01*
X2423922Y3247440D01*
X2427224Y3249676D01*
X2431084Y3250438D01*
X2460752Y3250438D01*
X2464663Y3249676D01*
X2467965Y3247440D01*
X2470150Y3244138D01*
X2470912Y3240278D01*
X2470912Y3148431D01*
X2542184Y3148431D01*
X2542184Y3240278D01*
X2542946Y3244138D01*
X2545130Y3247440D01*
X2548432Y3249676D01*
X2552344Y3250438D01*
X3341115Y3250438D01*
X3345027Y3249676D01*
X3348329Y3247440D01*
X3350514Y3244138D01*
X3351276Y3240278D01*
X3351276Y3148431D01*
X3442208Y3148431D01*
X3442208Y3240278D01*
X3442970Y3244138D01*
X3445205Y3247440D01*
X3448507Y3249676D01*
X3452368Y3250438D01*
X3482035Y3250438D01*
X3485946Y3249676D01*
X3489198Y3247440D01*
X3491433Y3244138D01*
X3492195Y3240278D01*
X3492195Y3148431D01*
X3583127Y3148431D01*
X3583127Y3240278D01*
X3583889Y3244138D01*
X3586073Y3247440D01*
X3589375Y3249676D01*
X3593287Y3250438D01*
X3798112Y3250438D01*
X3802024Y3249676D01*
X3805326Y3247440D01*
X3807510Y3244138D01*
X3808272Y3240278D01*
X3808272Y2996996D01*
X3808984Y2990697D01*
X3810000Y2986074D01*
X3810000Y2895803D01*
X3809237Y2891942D01*
X3807104Y2888691D01*
X3803904Y2886456D01*
X3803904Y2848864D01*
X3807104Y2846628D01*
X3809237Y2843377D01*
X3810000Y2839567D01*
X3810000Y2809900D01*
X3809187Y2805887D01*
X3806850Y2802534D01*
X3803446Y2800350D01*
X3800906Y2796184D01*
X3797604Y2794000D01*
X3793744Y2793238D01*
G37*

%LPD*%
G36*
X3870960Y2793238D02*
G01*
X3867048Y2794000D01*
X3863797Y2796184D01*
X3861562Y2799486D01*
X3860800Y2803398D01*
X3860800Y2960370D01*
X3861562Y2964230D01*
X3863797Y2967532D01*
X3867048Y2969768D01*
X3870960Y2970530D01*
X3911498Y2970530D01*
X3911498Y3110738D01*
X3870960Y3110738D01*
X3867048Y3111500D01*
X3863797Y3113684D01*
X3861562Y3116986D01*
X3860800Y3120898D01*
X3860800Y3125978D01*
X3861562Y3129838D01*
X3863797Y3133140D01*
X3867048Y3135376D01*
X3870960Y3136138D01*
X3911498Y3136138D01*
X3911498Y3227578D01*
X3912260Y3231438D01*
X3914495Y3234740D01*
X3917746Y3236976D01*
X3921658Y3237738D01*
X3926738Y3237738D01*
X3930599Y3236976D01*
X3933901Y3234740D01*
X3936136Y3231438D01*
X3936898Y3227578D01*
X3936898Y3136138D01*
X4003040Y3136138D01*
X4006951Y3135376D01*
X4010202Y3133140D01*
X4012437Y3129838D01*
X4013200Y3125978D01*
X4013200Y3120898D01*
X4012437Y3116986D01*
X4010202Y3113684D01*
X4006951Y3111500D01*
X4003040Y3110738D01*
X3936898Y3110738D01*
X3936898Y2970530D01*
X4013606Y2970530D01*
X4019956Y2971241D01*
X4025392Y2973120D01*
X4030319Y2976219D01*
X4034383Y2980334D01*
X4037482Y2985211D01*
X4040733Y2995015D01*
X4043578Y2998165D01*
X4047439Y2999841D01*
X4051655Y2999841D01*
X4055465Y2998165D01*
X4058310Y2995015D01*
X4059631Y2991053D01*
X4059986Y2987700D01*
X4061917Y2982214D01*
X4065015Y2977337D01*
X4069079Y2973222D01*
X4074007Y2970123D01*
X4079443Y2968244D01*
X4085793Y2967532D01*
X4127500Y2967532D01*
X4127500Y3030728D01*
X4049115Y3030728D01*
X4045254Y3031490D01*
X4041952Y3033725D01*
X4039768Y3037027D01*
X4038955Y3040888D01*
X4038955Y3045968D01*
X4039768Y3049879D01*
X4041952Y3053130D01*
X4045254Y3055366D01*
X4049115Y3056128D01*
X4127500Y3056128D01*
X4127500Y3087878D01*
X4128262Y3091738D01*
X4130497Y3095040D01*
X4133748Y3097276D01*
X4137660Y3098038D01*
X4142740Y3098038D01*
X4146651Y3097276D01*
X4149902Y3095040D01*
X4152137Y3091738D01*
X4152900Y3087878D01*
X4152900Y3056128D01*
X4180840Y3056128D01*
X4184751Y3055366D01*
X4188002Y3053130D01*
X4190237Y3049879D01*
X4191000Y3045968D01*
X4191000Y3040888D01*
X4190237Y3037027D01*
X4188002Y3033725D01*
X4184751Y3031490D01*
X4180840Y3030728D01*
X4152900Y3030728D01*
X4152900Y2967532D01*
X4180840Y2967532D01*
X4184751Y2966770D01*
X4188002Y2964535D01*
X4190237Y2961233D01*
X4191000Y2957372D01*
X4191000Y2803398D01*
X4190237Y2799486D01*
X4188002Y2796184D01*
X4184751Y2794000D01*
X4180840Y2793238D01*
X4104995Y2793238D01*
X4101084Y2794000D01*
X4097782Y2796184D01*
X4095597Y2799486D01*
X4094784Y2803398D01*
X4094784Y2812034D01*
X4031589Y2812034D01*
X4031589Y2803398D01*
X4030827Y2799486D01*
X4028643Y2796184D01*
X4025341Y2794000D01*
X4021429Y2793238D01*
X4016349Y2793238D01*
X4012488Y2794000D01*
X4009186Y2796184D01*
X4006951Y2799486D01*
X4006189Y2803398D01*
X4006189Y2812034D01*
X3942994Y2812034D01*
X3942994Y2803398D01*
X3942232Y2799486D01*
X3939997Y2796184D01*
X3936746Y2794000D01*
X3932834Y2793238D01*
G37*

%LPC*%
G36*
X4031589Y2837434D02*
G01*
X4094784Y2837434D01*
X4094784Y2859125D01*
X4094073Y2865475D01*
X4092194Y2870911D01*
X4089095Y2875838D01*
X4085031Y2879902D01*
X4080103Y2883001D01*
X4074668Y2884932D01*
X4068318Y2885643D01*
X4031589Y2885643D01*
G37*
G36*
X3942994Y2837434D02*
G01*
X4006189Y2837434D01*
X4006189Y2885643D01*
X3969461Y2885643D01*
X3963162Y2884932D01*
X3957675Y2883001D01*
X3952798Y2879902D01*
X3948684Y2875838D01*
X3945636Y2870911D01*
X3943705Y2865475D01*
X3942994Y2859125D01*
G37*

%LPD*%
G36*
X3776370Y2602738D02*
G01*
X3772458Y2603500D01*
X3769156Y2605684D01*
X3766972Y2608986D01*
X3766210Y2612898D01*
X3766210Y2622042D01*
X3743960Y2622042D01*
X3740048Y2622804D01*
X3736797Y2625039D01*
X3734562Y2628341D01*
X3733800Y2632202D01*
X3733800Y2637282D01*
X3734562Y2641193D01*
X3736797Y2644495D01*
X3740048Y2646680D01*
X3743960Y2647442D01*
X3766210Y2647442D01*
X3766210Y2717038D01*
X3743960Y2717038D01*
X3740048Y2717800D01*
X3736797Y2719984D01*
X3734562Y2723286D01*
X3733800Y2727198D01*
X3733800Y2732278D01*
X3734562Y2736138D01*
X3736797Y2739440D01*
X3740048Y2741676D01*
X3743960Y2742438D01*
X3766210Y2742438D01*
X3766210Y2744978D01*
X3766972Y2748889D01*
X3769156Y2752191D01*
X3772458Y2754376D01*
X3776370Y2755138D01*
X3781450Y2755138D01*
X3785311Y2754376D01*
X3788613Y2752191D01*
X3790797Y2748889D01*
X3791610Y2744978D01*
X3791610Y2742438D01*
X3854805Y2742438D01*
X3854805Y2745079D01*
X3855567Y2748940D01*
X3857751Y2752242D01*
X3861054Y2754426D01*
X3864965Y2755239D01*
X3932834Y2755290D01*
X3936695Y2754477D01*
X3939997Y2752293D01*
X3942232Y2748991D01*
X3942994Y2745130D01*
X3942994Y2742438D01*
X4006189Y2742438D01*
X4006189Y2745181D01*
X4006951Y2749042D01*
X4009186Y2752344D01*
X4012488Y2754528D01*
X4016349Y2755341D01*
X4021429Y2755341D01*
X4025341Y2754579D01*
X4028643Y2752344D01*
X4030827Y2749042D01*
X4031589Y2745181D01*
X4031589Y2742438D01*
X4094784Y2742438D01*
X4094784Y2745232D01*
X4095597Y2749092D01*
X4097782Y2752394D01*
X4101084Y2754630D01*
X4104944Y2755392D01*
X4824984Y2755900D01*
X4826000Y2756916D01*
X4826000Y3342640D01*
X4826762Y3346500D01*
X4828946Y3349802D01*
X4832248Y3352037D01*
X4836160Y3352800D01*
X5323840Y3352800D01*
X5327700Y3352037D01*
X5331002Y3349802D01*
X5333238Y3346500D01*
X5334000Y3342640D01*
X5334000Y3007360D01*
X5333238Y3003448D01*
X5331002Y3000146D01*
X5327700Y2997962D01*
X5323840Y2997200D01*
X4941316Y2997200D01*
X4940300Y2996184D01*
X4940300Y2613660D01*
X4939538Y2609748D01*
X4937302Y2606446D01*
X4934000Y2604262D01*
X4930140Y2603500D01*
X4104995Y2602738D01*
X4101084Y2603500D01*
X4097782Y2605684D01*
X4095597Y2608986D01*
X4094784Y2612898D01*
X4094784Y2622042D01*
X4031589Y2622042D01*
X4031589Y2612898D01*
X4030827Y2608986D01*
X4028643Y2605684D01*
X4025341Y2603500D01*
X4021429Y2602738D01*
X4016349Y2602738D01*
X4012488Y2603500D01*
X4009186Y2605684D01*
X4006951Y2608986D01*
X4006189Y2612898D01*
X4006189Y2622042D01*
X3942994Y2622042D01*
X3942994Y2612898D01*
X3942232Y2608986D01*
X3939997Y2605684D01*
X3936746Y2603500D01*
X3932834Y2602738D01*
X3864965Y2602738D01*
X3861054Y2603500D01*
X3857751Y2605684D01*
X3855567Y2608986D01*
X3854805Y2612898D01*
X3854805Y2622042D01*
X3791610Y2622042D01*
X3791610Y2612898D01*
X3790797Y2608986D01*
X3788613Y2605684D01*
X3785311Y2603500D01*
X3781450Y2602738D01*
G37*

%LPC*%
G36*
X5021122Y3187700D02*
G01*
X5143500Y3187700D01*
X5143500Y3310128D01*
X5140452Y3309975D01*
X5124856Y3307232D01*
X5109718Y3302711D01*
X5095240Y3296462D01*
X5081524Y3288537D01*
X5068874Y3279089D01*
X5057343Y3268268D01*
X5047183Y3256127D01*
X5038496Y3242970D01*
X5031435Y3228848D01*
X5025999Y3213963D01*
X5022392Y3198622D01*
G37*
G36*
X3791610Y2647442D02*
G01*
X3854805Y2647442D01*
X3854805Y2669184D01*
X3854094Y2675483D01*
X3852926Y2678887D01*
X3852316Y2682240D01*
X3852926Y2685592D01*
X3854094Y2688996D01*
X3854805Y2695295D01*
X3854805Y2717038D01*
X3791610Y2717038D01*
G37*
G36*
X4031589Y2647442D02*
G01*
X4094784Y2647442D01*
X4094784Y2669184D01*
X4094073Y2675483D01*
X4092905Y2678887D01*
X4092346Y2682240D01*
X4092905Y2685592D01*
X4094073Y2688996D01*
X4094784Y2695295D01*
X4094784Y2717038D01*
X4031589Y2717038D01*
G37*
G36*
X5143500Y3039872D02*
G01*
X5143500Y3162300D01*
X5021122Y3162300D01*
X5022392Y3151428D01*
X5025999Y3136036D01*
X5031435Y3121202D01*
X5038496Y3107080D01*
X5047183Y3093872D01*
X5057343Y3081731D01*
X5068874Y3070910D01*
X5081524Y3061462D01*
X5095240Y3053588D01*
X5109718Y3047288D01*
X5124856Y3042767D01*
X5140452Y3040024D01*
G37*
G36*
X3942994Y2647442D02*
G01*
X4006189Y2647442D01*
X4006189Y2717038D01*
X3942994Y2717038D01*
X3942994Y2695295D01*
X3943705Y2688996D01*
X3944874Y2685592D01*
X3945483Y2682240D01*
X3944874Y2678887D01*
X3943705Y2675483D01*
X3942994Y2669184D01*
G37*
G36*
X5168900Y3187700D02*
G01*
X5291277Y3187700D01*
X5290007Y3198622D01*
X5286400Y3213963D01*
X5280964Y3228848D01*
X5273903Y3242970D01*
X5265216Y3256127D01*
X5255056Y3268268D01*
X5243576Y3279089D01*
X5230876Y3288537D01*
X5217210Y3296462D01*
X5202682Y3302711D01*
X5187543Y3307232D01*
X5171998Y3309975D01*
X5168900Y3310128D01*
G37*
G36*
X5168900Y3039872D02*
G01*
X5171998Y3040024D01*
X5187543Y3042767D01*
X5202682Y3047288D01*
X5217210Y3053588D01*
X5230876Y3061462D01*
X5243576Y3070910D01*
X5255056Y3081731D01*
X5265216Y3093872D01*
X5273903Y3107080D01*
X5280964Y3121202D01*
X5286400Y3136036D01*
X5290007Y3151428D01*
X5291277Y3162300D01*
X5168900Y3162300D01*
G37*

%LPD*%
D10*
X3924206Y3123427D02*
G01*
X4004200Y3043428D01*
X4140205Y3043428D01*
X3615588Y2819374D02*
G01*
X3615588Y2641625D01*
X3615593Y2641625D01*
X3445586Y2819374D02*
G01*
X3445581Y2819369D01*
X3445581Y2641625D01*
X2445933Y3123435D02*
G01*
X2445933Y2838856D01*
X2425705Y2818627D01*
X2358298Y2818610D01*
X2188298Y2818610D02*
G01*
X2182185Y2824723D01*
X2027836Y2824723D01*
X2193310Y2640822D02*
G01*
X2187219Y2634734D01*
X2027836Y2634734D01*
X1807596Y2729735D02*
G01*
X1727205Y2729735D01*
X1647210Y2649728D01*
X1562105Y2649728D01*
X2027836Y2634739D02*
G01*
X1949193Y2634739D01*
X1930405Y2653527D01*
X1930405Y2818627D01*
X1905005Y2844027D01*
X1714505Y2844027D01*
X1676417Y2882122D01*
X1676417Y2954192D01*
X3778897Y2634744D02*
G01*
X3772027Y2641615D01*
X3615598Y2641615D01*
X3445586Y2819374D02*
G01*
X3435931Y2809720D01*
X3238494Y2809720D01*
D11*
G01*
X3238500Y2649728D03*
G01*
X3238500Y2809722D03*
D12*
G01*
X3445586Y2819374D03*
G01*
X3615588Y2819374D03*
D11*
G01*
X4140200Y3043428D03*
G01*
X4140200Y3203422D03*
D13*
G01*
X3924198Y3123437D03*
G01*
X3467201Y3123437D03*
D14*
G01*
X4018915Y2634742D03*
G01*
X4018915Y2729737D03*
G01*
X4018915Y2824708D03*
G01*
X3778884Y2824708D03*
G01*
X3778884Y2729737D03*
G01*
X3778884Y2634742D03*
D12*
G01*
X2188286Y2818612D03*
G01*
X2358288Y2818612D03*
D15*
G01*
X2353309Y2640837D03*
G01*
X2193315Y2640837D03*
D11*
G01*
X1562100Y2809722D03*
G01*
X1562100Y2649728D03*
D16*
G01*
X1676400Y2954172D03*
G01*
X1676400Y3292652D03*
D17*
G01*
X2027825Y2634728D03*
G01*
X2027825Y2824727D03*
G01*
X1807574Y2729727D03*
D18*
G01*
X2075266Y3123427D03*
G01*
X2445933Y3123427D03*
D12*
G01*
X3615588Y2641600D03*
G01*
X3445611Y2641600D03*
D19*
G01*
X5156200Y2667000D03*
G01*
X5156200Y3175000D03*
G01*
X685800Y3175000D03*
G01*
X685800Y2667000D03*
D20*
G01*
X381000Y5461000D03*
G01*
X5461000Y5461000D03*
G01*
X5461000Y381000D03*
G01*
X381000Y381000D03*
D21*
G01*
X4572000Y5334000D03*
G01*
X4572000Y5588000D03*
M02*
