G04 Layer: TopSilkscreenLayer*
G04 EasyEDA v6.5.34, 2023-08-21 18:11:39*
G04 6d2c9ce6f5f94ecfb8a2c94fd3e2ab2e,5a6b42c53f6a479593ecc07194224c93,10*
G04 Gerber Generator version 0.2*
G04 Scale: 100 percent, Rotated: No, Reflected: No *
G04 Dimensions in millimeters *
G04 leading zeros omitted , absolute positions ,4 integer and 5 decimal *
%FSLAX45Y45*%
%MOMM*%

%ADD10C,0.1524*%

%LPD*%
D10*
X762000Y5423915D02*
G01*
X762000Y5314950D01*
X762000Y5423915D02*
G01*
X808736Y5423915D01*
X824229Y5418836D01*
X829563Y5413502D01*
X834644Y5403087D01*
X834644Y5387594D01*
X829563Y5377179D01*
X824229Y5372100D01*
X808736Y5366765D01*
X762000Y5366765D01*
X910589Y5423915D02*
G01*
X868934Y5314950D01*
X910589Y5423915D02*
G01*
X952245Y5314950D01*
X884681Y5351271D02*
G01*
X936497Y5351271D01*
X986536Y5423915D02*
G01*
X986536Y5314950D01*
X986536Y5423915D02*
G01*
X1033271Y5423915D01*
X1048765Y5418836D01*
X1054100Y5413502D01*
X1059179Y5403087D01*
X1059179Y5392673D01*
X1054100Y5382260D01*
X1048765Y5377179D01*
X1033271Y5372100D01*
X986536Y5372100D01*
X1022857Y5372100D02*
G01*
X1059179Y5314950D01*
X1129792Y5423915D02*
G01*
X1129792Y5314950D01*
X1093470Y5423915D02*
G01*
X1166113Y5423915D01*
X1280413Y5423915D02*
G01*
X1280413Y5314950D01*
X1280413Y5423915D02*
G01*
X1353312Y5314950D01*
X1353312Y5423915D02*
G01*
X1353312Y5314950D01*
X1387602Y5423915D02*
G01*
X1387602Y5345937D01*
X1392681Y5330444D01*
X1403095Y5320029D01*
X1418589Y5314950D01*
X1429004Y5314950D01*
X1444752Y5320029D01*
X1455165Y5330444D01*
X1460245Y5345937D01*
X1460245Y5423915D01*
X1494536Y5423915D02*
G01*
X1494536Y5314950D01*
X1494536Y5423915D02*
G01*
X1536192Y5314950D01*
X1577594Y5423915D02*
G01*
X1536192Y5314950D01*
X1577594Y5423915D02*
G01*
X1577594Y5314950D01*
X1611884Y5423915D02*
G01*
X1611884Y5314950D01*
X1611884Y5423915D02*
G01*
X1658620Y5423915D01*
X1674368Y5418836D01*
X1679447Y5413502D01*
X1684781Y5403087D01*
X1684781Y5392673D01*
X1679447Y5382260D01*
X1674368Y5377179D01*
X1658620Y5372100D01*
X1611884Y5372100D02*
G01*
X1658620Y5372100D01*
X1674368Y5366765D01*
X1679447Y5361686D01*
X1684781Y5351271D01*
X1684781Y5335523D01*
X1679447Y5325110D01*
X1674368Y5320029D01*
X1658620Y5314950D01*
X1611884Y5314950D01*
X1719071Y5423915D02*
G01*
X1719071Y5314950D01*
X1719071Y5423915D02*
G01*
X1786636Y5423915D01*
X1719071Y5372100D02*
G01*
X1760473Y5372100D01*
X1719071Y5314950D02*
G01*
X1786636Y5314950D01*
X1820926Y5423915D02*
G01*
X1820926Y5314950D01*
X1820926Y5423915D02*
G01*
X1867662Y5423915D01*
X1883155Y5418836D01*
X1888489Y5413502D01*
X1893570Y5403087D01*
X1893570Y5392673D01*
X1888489Y5382260D01*
X1883155Y5377179D01*
X1867662Y5372100D01*
X1820926Y5372100D01*
X1857247Y5372100D02*
G01*
X1893570Y5314950D01*
X2007870Y5403087D02*
G01*
X2018284Y5408421D01*
X2033777Y5423915D01*
X2033777Y5314950D01*
X2099309Y5423915D02*
G01*
X2083815Y5418836D01*
X2073402Y5403087D01*
X2068068Y5377179D01*
X2068068Y5361686D01*
X2073402Y5335523D01*
X2083815Y5320029D01*
X2099309Y5314950D01*
X2109724Y5314950D01*
X2125218Y5320029D01*
X2135631Y5335523D01*
X2140965Y5361686D01*
X2140965Y5377179D01*
X2135631Y5403087D01*
X2125218Y5418836D01*
X2109724Y5423915D01*
X2099309Y5423915D01*
X2242820Y5387594D02*
G01*
X2237486Y5372100D01*
X2227072Y5361686D01*
X2211577Y5356352D01*
X2206243Y5356352D01*
X2190750Y5361686D01*
X2180336Y5372100D01*
X2175256Y5387594D01*
X2175256Y5392673D01*
X2180336Y5408421D01*
X2190750Y5418836D01*
X2206243Y5423915D01*
X2211577Y5423915D01*
X2227072Y5418836D01*
X2237486Y5408421D01*
X2242820Y5387594D01*
X2242820Y5361686D01*
X2237486Y5335523D01*
X2227072Y5320029D01*
X2211577Y5314950D01*
X2201163Y5314950D01*
X2185670Y5320029D01*
X2180336Y5330444D01*
X2349754Y5423915D02*
G01*
X2297684Y5314950D01*
X2277109Y5423915D02*
G01*
X2349754Y5423915D01*
X2384043Y5361686D02*
G01*
X2477515Y5361686D01*
X2543047Y5423915D02*
G01*
X2527300Y5418836D01*
X2517140Y5403087D01*
X2511806Y5377179D01*
X2511806Y5361686D01*
X2517140Y5335523D01*
X2527300Y5320029D01*
X2543047Y5314950D01*
X2553461Y5314950D01*
X2568956Y5320029D01*
X2579370Y5335523D01*
X2584450Y5361686D01*
X2584450Y5377179D01*
X2579370Y5403087D01*
X2568956Y5418836D01*
X2553461Y5423915D01*
X2543047Y5423915D01*
X2629154Y5423915D02*
G01*
X2686304Y5423915D01*
X2655315Y5382260D01*
X2670809Y5382260D01*
X2681224Y5377179D01*
X2686304Y5372100D01*
X2691638Y5356352D01*
X2691638Y5345937D01*
X2686304Y5330444D01*
X2675890Y5320029D01*
X2660395Y5314950D01*
X2644902Y5314950D01*
X2629154Y5320029D01*
X2624074Y5325110D01*
X2618740Y5335523D01*
X2757170Y5423915D02*
G01*
X2741422Y5418836D01*
X2731008Y5403087D01*
X2725927Y5377179D01*
X2725927Y5361686D01*
X2731008Y5335523D01*
X2741422Y5320029D01*
X2757170Y5314950D01*
X2767329Y5314950D01*
X2783077Y5320029D01*
X2793491Y5335523D01*
X2798572Y5361686D01*
X2798572Y5377179D01*
X2793491Y5403087D01*
X2783077Y5418836D01*
X2767329Y5423915D01*
X2757170Y5423915D01*
X2832861Y5403087D02*
G01*
X2843275Y5408421D01*
X2858770Y5423915D01*
X2858770Y5314950D01*
X762000Y5601715D02*
G01*
X762000Y5492750D01*
X762000Y5601715D02*
G01*
X808736Y5601715D01*
X824229Y5596636D01*
X829563Y5591302D01*
X834644Y5580887D01*
X834644Y5565394D01*
X829563Y5554979D01*
X824229Y5549900D01*
X808736Y5544565D01*
X762000Y5544565D01*
X868934Y5601715D02*
G01*
X868934Y5492750D01*
X868934Y5601715D02*
G01*
X915670Y5601715D01*
X931418Y5596636D01*
X936497Y5591302D01*
X941831Y5580887D01*
X941831Y5570473D01*
X936497Y5560060D01*
X931418Y5554979D01*
X915670Y5549900D01*
X868934Y5549900D01*
X905510Y5549900D02*
G01*
X941831Y5492750D01*
X1007110Y5601715D02*
G01*
X996950Y5596636D01*
X986536Y5586221D01*
X981202Y5575807D01*
X976121Y5560060D01*
X976121Y5534152D01*
X981202Y5518657D01*
X986536Y5508244D01*
X996950Y5497829D01*
X1007110Y5492750D01*
X1027937Y5492750D01*
X1038352Y5497829D01*
X1048765Y5508244D01*
X1054100Y5518657D01*
X1059179Y5534152D01*
X1059179Y5560060D01*
X1054100Y5575807D01*
X1048765Y5586221D01*
X1038352Y5596636D01*
X1027937Y5601715D01*
X1007110Y5601715D01*
X1129792Y5601715D02*
G01*
X1129792Y5492750D01*
X1093470Y5601715D02*
G01*
X1166113Y5601715D01*
X1231645Y5601715D02*
G01*
X1221231Y5596636D01*
X1210818Y5586221D01*
X1205737Y5575807D01*
X1200404Y5560060D01*
X1200404Y5534152D01*
X1205737Y5518657D01*
X1210818Y5508244D01*
X1221231Y5497829D01*
X1231645Y5492750D01*
X1252473Y5492750D01*
X1262887Y5497829D01*
X1273302Y5508244D01*
X1278381Y5518657D01*
X1283715Y5534152D01*
X1283715Y5560060D01*
X1278381Y5575807D01*
X1273302Y5586221D01*
X1262887Y5596636D01*
X1252473Y5601715D01*
X1231645Y5601715D01*
X1318005Y5601715D02*
G01*
X1318005Y5492750D01*
X1318005Y5601715D02*
G01*
X1390650Y5492750D01*
X1390650Y5601715D02*
G01*
X1390650Y5492750D01*
X1424939Y5601715D02*
G01*
X1424939Y5492750D01*
X1424939Y5601715D02*
G01*
X1492504Y5601715D01*
X1424939Y5549900D02*
G01*
X1466595Y5549900D01*
X1424939Y5492750D02*
G01*
X1492504Y5492750D01*
X1526794Y5601715D02*
G01*
X1526794Y5492750D01*
X1526794Y5601715D02*
G01*
X1568450Y5492750D01*
X1609852Y5601715D02*
G01*
X1568450Y5492750D01*
X1609852Y5601715D02*
G01*
X1609852Y5492750D01*
X1685797Y5601715D02*
G01*
X1644142Y5492750D01*
X1685797Y5601715D02*
G01*
X1727200Y5492750D01*
X1659889Y5529071D02*
G01*
X1711705Y5529071D01*
X1841500Y5601715D02*
G01*
X1841500Y5492750D01*
X1841500Y5601715D02*
G01*
X1909063Y5601715D01*
X1841500Y5549900D02*
G01*
X1883155Y5549900D01*
X1841500Y5492750D02*
G01*
X1909063Y5492750D01*
X1943354Y5601715D02*
G01*
X1943354Y5492750D01*
X1943354Y5601715D02*
G01*
X2016252Y5492750D01*
X2016252Y5601715D02*
G01*
X2016252Y5492750D01*
X2128520Y5575807D02*
G01*
X2123186Y5586221D01*
X2112772Y5596636D01*
X2102358Y5601715D01*
X2081529Y5601715D01*
X2071370Y5596636D01*
X2060956Y5586221D01*
X2055622Y5575807D01*
X2050541Y5560060D01*
X2050541Y5534152D01*
X2055622Y5518657D01*
X2060956Y5508244D01*
X2071370Y5497829D01*
X2081529Y5492750D01*
X2102358Y5492750D01*
X2112772Y5497829D01*
X2123186Y5508244D01*
X2128520Y5518657D01*
X2193797Y5601715D02*
G01*
X2183384Y5596636D01*
X2172970Y5586221D01*
X2167890Y5575807D01*
X2162809Y5560060D01*
X2162809Y5534152D01*
X2167890Y5518657D01*
X2172970Y5508244D01*
X2183384Y5497829D01*
X2193797Y5492750D01*
X2214625Y5492750D01*
X2225040Y5497829D01*
X2235454Y5508244D01*
X2240534Y5518657D01*
X2245868Y5534152D01*
X2245868Y5560060D01*
X2240534Y5575807D01*
X2235454Y5586221D01*
X2225040Y5596636D01*
X2214625Y5601715D01*
X2193797Y5601715D01*
X2280158Y5601715D02*
G01*
X2280158Y5492750D01*
X2280158Y5601715D02*
G01*
X2316479Y5601715D01*
X2331974Y5596636D01*
X2342388Y5586221D01*
X2347722Y5575807D01*
X2352802Y5560060D01*
X2352802Y5534152D01*
X2347722Y5518657D01*
X2342388Y5508244D01*
X2331974Y5497829D01*
X2316479Y5492750D01*
X2280158Y5492750D01*
X2387091Y5601715D02*
G01*
X2387091Y5492750D01*
X2387091Y5601715D02*
G01*
X2454656Y5601715D01*
X2387091Y5549900D02*
G01*
X2428747Y5549900D01*
X2387091Y5492750D02*
G01*
X2454656Y5492750D01*
X2488945Y5601715D02*
G01*
X2488945Y5492750D01*
X2488945Y5601715D02*
G01*
X2535681Y5601715D01*
X2551429Y5596636D01*
X2556509Y5591302D01*
X2561590Y5580887D01*
X2561590Y5570473D01*
X2556509Y5560060D01*
X2551429Y5554979D01*
X2535681Y5549900D01*
X2488945Y5549900D01*
X2525268Y5549900D02*
G01*
X2561590Y5492750D01*
X2675890Y5601715D02*
G01*
X2675890Y5492750D01*
X2675890Y5601715D02*
G01*
X2743454Y5601715D01*
X2675890Y5549900D02*
G01*
X2717545Y5549900D01*
X2777743Y5601715D02*
G01*
X2777743Y5492750D01*
X2777743Y5601715D02*
G01*
X2824479Y5601715D01*
X2840227Y5596636D01*
X2845308Y5591302D01*
X2850641Y5580887D01*
X2850641Y5570473D01*
X2845308Y5560060D01*
X2840227Y5554979D01*
X2824479Y5549900D01*
X2777743Y5549900D01*
X2814320Y5549900D02*
G01*
X2850641Y5492750D01*
X2915920Y5601715D02*
G01*
X2905759Y5596636D01*
X2895345Y5586221D01*
X2890011Y5575807D01*
X2884931Y5560060D01*
X2884931Y5534152D01*
X2890011Y5518657D01*
X2895345Y5508244D01*
X2905759Y5497829D01*
X2915920Y5492750D01*
X2936747Y5492750D01*
X2947161Y5497829D01*
X2957575Y5508244D01*
X2962909Y5518657D01*
X2967990Y5534152D01*
X2967990Y5560060D01*
X2962909Y5575807D01*
X2957575Y5586221D01*
X2947161Y5596636D01*
X2936747Y5601715D01*
X2915920Y5601715D01*
X3002279Y5601715D02*
G01*
X3002279Y5492750D01*
X3002279Y5601715D02*
G01*
X3074924Y5492750D01*
X3074924Y5601715D02*
G01*
X3074924Y5492750D01*
X3145790Y5601715D02*
G01*
X3145790Y5492750D01*
X3109213Y5601715D02*
G01*
X3182111Y5601715D01*
X3296411Y5601715D02*
G01*
X3296411Y5492750D01*
X3296411Y5601715D02*
G01*
X3343147Y5601715D01*
X3358641Y5596636D01*
X3363975Y5591302D01*
X3369056Y5580887D01*
X3369056Y5565394D01*
X3363975Y5554979D01*
X3358641Y5549900D01*
X3343147Y5544565D01*
X3296411Y5544565D01*
X3445002Y5601715D02*
G01*
X3403345Y5492750D01*
X3445002Y5601715D02*
G01*
X3486404Y5492750D01*
X3418840Y5529071D02*
G01*
X3470909Y5529071D01*
X3520693Y5601715D02*
G01*
X3520693Y5492750D01*
X3520693Y5601715D02*
G01*
X3593591Y5492750D01*
X3593591Y5601715D02*
G01*
X3593591Y5492750D01*
X3627881Y5601715D02*
G01*
X3627881Y5492750D01*
X3627881Y5601715D02*
G01*
X3695445Y5601715D01*
X3627881Y5549900D02*
G01*
X3669284Y5549900D01*
X3627881Y5492750D02*
G01*
X3695445Y5492750D01*
X3729736Y5601715D02*
G01*
X3729736Y5492750D01*
X3729736Y5492750D02*
G01*
X3791965Y5492750D01*
X3906265Y5601715D02*
G01*
X3947922Y5492750D01*
X3989324Y5601715D02*
G01*
X3947922Y5492750D01*
X4054856Y5601715D02*
G01*
X4039361Y5596636D01*
X4028947Y5580887D01*
X4023613Y5554979D01*
X4023613Y5539486D01*
X4028947Y5513323D01*
X4039361Y5497829D01*
X4054856Y5492750D01*
X4065270Y5492750D01*
X4080763Y5497829D01*
X4091177Y5513323D01*
X4096511Y5539486D01*
X4096511Y5554979D01*
X4091177Y5580887D01*
X4080763Y5596636D01*
X4065270Y5601715D01*
X4054856Y5601715D01*
X4135881Y5518657D02*
G01*
X4130802Y5513323D01*
X4135881Y5508244D01*
X4141215Y5513323D01*
X4135881Y5518657D01*
X4175506Y5580887D02*
G01*
X4185920Y5586221D01*
X4201413Y5601715D01*
X4201413Y5492750D01*
X4820645Y4571220D02*
G01*
X4820645Y4498576D01*
X4816073Y4484860D01*
X4811501Y4480288D01*
X4802357Y4475716D01*
X4793467Y4475716D01*
X4784323Y4480288D01*
X4779751Y4484860D01*
X4775179Y4498576D01*
X4775179Y4507720D01*
X4855189Y4548614D02*
G01*
X4855189Y4553186D01*
X4859761Y4562076D01*
X4864333Y4566648D01*
X4873477Y4571220D01*
X4891511Y4571220D01*
X4900655Y4566648D01*
X4905227Y4562076D01*
X4909799Y4553186D01*
X4909799Y4544042D01*
X4905227Y4534898D01*
X4896083Y4521182D01*
X4850617Y4475716D01*
X4914371Y4475716D01*
X4051292Y3867650D02*
G01*
X4051292Y3753096D01*
X4051292Y3867650D02*
G01*
X4122158Y3867650D01*
X4051292Y3813040D02*
G01*
X4094980Y3813040D01*
X4051292Y3753096D02*
G01*
X4122158Y3753096D01*
X4158226Y3867650D02*
G01*
X4158226Y3753096D01*
X4158226Y3867650D02*
G01*
X4234680Y3753096D01*
X4234680Y3867650D02*
G01*
X4234680Y3753096D01*
X4352282Y3840218D02*
G01*
X4346948Y3851140D01*
X4336026Y3862062D01*
X4325104Y3867650D01*
X4303260Y3867650D01*
X4292338Y3862062D01*
X4281416Y3851140D01*
X4276082Y3840218D01*
X4270494Y3823962D01*
X4270494Y3796784D01*
X4276082Y3780274D01*
X4281416Y3769352D01*
X4292338Y3758430D01*
X4303260Y3753096D01*
X4325104Y3753096D01*
X4336026Y3758430D01*
X4346948Y3769352D01*
X4352282Y3780274D01*
X4516112Y3867650D02*
G01*
X4472424Y3753096D01*
X4516112Y3867650D02*
G01*
X4559546Y3753096D01*
X4488680Y3791196D02*
G01*
X4543290Y3791196D01*
X4063992Y3613650D02*
G01*
X4063992Y3499096D01*
X4063992Y3613650D02*
G01*
X4134858Y3613650D01*
X4063992Y3559040D02*
G01*
X4107680Y3559040D01*
X4063992Y3499096D02*
G01*
X4134858Y3499096D01*
X4170926Y3613650D02*
G01*
X4170926Y3499096D01*
X4170926Y3613650D02*
G01*
X4247380Y3499096D01*
X4247380Y3613650D02*
G01*
X4247380Y3499096D01*
X4364982Y3586218D02*
G01*
X4359648Y3597140D01*
X4348726Y3608062D01*
X4337804Y3613650D01*
X4315960Y3613650D01*
X4305038Y3608062D01*
X4294116Y3597140D01*
X4288782Y3586218D01*
X4283194Y3569962D01*
X4283194Y3542784D01*
X4288782Y3526274D01*
X4294116Y3515352D01*
X4305038Y3504430D01*
X4315960Y3499096D01*
X4337804Y3499096D01*
X4348726Y3504430D01*
X4359648Y3515352D01*
X4364982Y3526274D01*
X4485124Y3613650D02*
G01*
X4485124Y3499096D01*
X4485124Y3613650D02*
G01*
X4534146Y3613650D01*
X4550656Y3608062D01*
X4555990Y3602728D01*
X4561324Y3591806D01*
X4561324Y3580884D01*
X4555990Y3569962D01*
X4550656Y3564374D01*
X4534146Y3559040D01*
X4485124Y3559040D02*
G01*
X4534146Y3559040D01*
X4550656Y3553706D01*
X4555990Y3548118D01*
X4561324Y3537196D01*
X4561324Y3520940D01*
X4555990Y3510018D01*
X4550656Y3504430D01*
X4534146Y3499096D01*
X4485124Y3499096D01*
X4063992Y3359650D02*
G01*
X4063992Y3245096D01*
X4063992Y3359650D02*
G01*
X4134858Y3359650D01*
X4063992Y3305040D02*
G01*
X4107680Y3305040D01*
X4063992Y3245096D02*
G01*
X4134858Y3245096D01*
X4170926Y3359650D02*
G01*
X4170926Y3245096D01*
X4170926Y3359650D02*
G01*
X4247380Y3245096D01*
X4247380Y3359650D02*
G01*
X4247380Y3245096D01*
X4364982Y3332218D02*
G01*
X4359648Y3343140D01*
X4348726Y3354062D01*
X4337804Y3359650D01*
X4315960Y3359650D01*
X4305038Y3354062D01*
X4294116Y3343140D01*
X4288782Y3332218D01*
X4283194Y3315962D01*
X4283194Y3288784D01*
X4288782Y3272274D01*
X4294116Y3261352D01*
X4305038Y3250430D01*
X4315960Y3245096D01*
X4337804Y3245096D01*
X4348726Y3250430D01*
X4359648Y3261352D01*
X4364982Y3272274D01*
X4566912Y3332218D02*
G01*
X4561324Y3343140D01*
X4550656Y3354062D01*
X4539734Y3359650D01*
X4517890Y3359650D01*
X4506968Y3354062D01*
X4496046Y3343140D01*
X4490458Y3332218D01*
X4485124Y3315962D01*
X4485124Y3288784D01*
X4490458Y3272274D01*
X4496046Y3261352D01*
X4506968Y3250430D01*
X4517890Y3245096D01*
X4539734Y3245096D01*
X4550656Y3250430D01*
X4561324Y3261352D01*
X4566912Y3272274D01*
X4336280Y3078220D02*
G01*
X4330946Y3089142D01*
X4320024Y3100064D01*
X4309102Y3105652D01*
X4287258Y3105652D01*
X4276336Y3100064D01*
X4265414Y3089142D01*
X4259826Y3078220D01*
X4254492Y3061964D01*
X4254492Y3034786D01*
X4259826Y3018276D01*
X4265414Y3007354D01*
X4276336Y2996432D01*
X4287258Y2991098D01*
X4309102Y2991098D01*
X4320024Y2996432D01*
X4330946Y3007354D01*
X4336280Y3018276D01*
X4336280Y3034786D01*
X4309102Y3034786D02*
G01*
X4336280Y3034786D01*
X4372348Y3105652D02*
G01*
X4372348Y2991098D01*
X4372348Y3105652D02*
G01*
X4448548Y2991098D01*
X4448548Y3105652D02*
G01*
X4448548Y2991098D01*
X4484616Y3105652D02*
G01*
X4484616Y2991098D01*
X4484616Y3105652D02*
G01*
X4522970Y3105652D01*
X4539226Y3100064D01*
X4550148Y3089142D01*
X4555482Y3078220D01*
X4561070Y3061964D01*
X4561070Y3034786D01*
X4555482Y3018276D01*
X4550148Y3007354D01*
X4539226Y2996432D01*
X4522970Y2991098D01*
X4484616Y2991098D01*
X4265414Y2851652D02*
G01*
X4325358Y2851652D01*
X4292592Y2807964D01*
X4309102Y2807964D01*
X4320024Y2802376D01*
X4325358Y2797042D01*
X4330946Y2780786D01*
X4330946Y2769864D01*
X4325358Y2753354D01*
X4314436Y2742432D01*
X4298180Y2737098D01*
X4281670Y2737098D01*
X4265414Y2742432D01*
X4259826Y2748020D01*
X4254492Y2758942D01*
X4366760Y2851652D02*
G01*
X4410448Y2737098D01*
X4454136Y2851652D02*
G01*
X4410448Y2737098D01*
X4501126Y2851652D02*
G01*
X4561070Y2851652D01*
X4528304Y2807964D01*
X4544560Y2807964D01*
X4555482Y2802376D01*
X4561070Y2797042D01*
X4566404Y2780786D01*
X4566404Y2769864D01*
X4561070Y2753354D01*
X4550148Y2742432D01*
X4533638Y2737098D01*
X4517382Y2737098D01*
X4501126Y2742432D01*
X4495538Y2748020D01*
X4490204Y2758942D01*
X3771892Y2597652D02*
G01*
X3771892Y2483098D01*
X3771892Y2597652D02*
G01*
X3820914Y2597652D01*
X3837424Y2592064D01*
X3842758Y2586730D01*
X3848346Y2575808D01*
X3848346Y2564886D01*
X3842758Y2553964D01*
X3837424Y2548376D01*
X3820914Y2543042D01*
X3771892Y2543042D02*
G01*
X3820914Y2543042D01*
X3837424Y2537708D01*
X3842758Y2532120D01*
X3848346Y2521198D01*
X3848346Y2504942D01*
X3842758Y2494020D01*
X3837424Y2488432D01*
X3820914Y2483098D01*
X3771892Y2483098D01*
X3884160Y2597652D02*
G01*
X3884160Y2515864D01*
X3889748Y2499354D01*
X3900670Y2488432D01*
X3916926Y2483098D01*
X3927848Y2483098D01*
X3944358Y2488432D01*
X3955280Y2499354D01*
X3960614Y2515864D01*
X3960614Y2597652D01*
X4034782Y2597652D02*
G01*
X4034782Y2483098D01*
X3996682Y2597652D02*
G01*
X4072882Y2597652D01*
X4147050Y2597652D02*
G01*
X4147050Y2483098D01*
X4108950Y2597652D02*
G01*
X4185404Y2597652D01*
X4253984Y2597652D02*
G01*
X4243062Y2592064D01*
X4232140Y2581142D01*
X4226806Y2570220D01*
X4221472Y2553964D01*
X4221472Y2526786D01*
X4226806Y2510276D01*
X4232140Y2499354D01*
X4243062Y2488432D01*
X4253984Y2483098D01*
X4275828Y2483098D01*
X4286750Y2488432D01*
X4297672Y2499354D01*
X4303260Y2510276D01*
X4308594Y2526786D01*
X4308594Y2553964D01*
X4303260Y2570220D01*
X4297672Y2581142D01*
X4286750Y2592064D01*
X4275828Y2597652D01*
X4253984Y2597652D01*
X4344662Y2597652D02*
G01*
X4344662Y2483098D01*
X4344662Y2597652D02*
G01*
X4420862Y2483098D01*
X4420862Y2597652D02*
G01*
X4420862Y2483098D01*
X4541004Y2575808D02*
G01*
X4551926Y2581142D01*
X4568182Y2597652D01*
X4568182Y2483098D01*
X3733792Y2343652D02*
G01*
X3733792Y2229098D01*
X3733792Y2343652D02*
G01*
X3782814Y2343652D01*
X3799324Y2338064D01*
X3804658Y2332730D01*
X3810246Y2321808D01*
X3810246Y2310886D01*
X3804658Y2299964D01*
X3799324Y2294376D01*
X3782814Y2289042D01*
X3733792Y2289042D02*
G01*
X3782814Y2289042D01*
X3799324Y2283708D01*
X3804658Y2278120D01*
X3810246Y2267198D01*
X3810246Y2250942D01*
X3804658Y2240020D01*
X3799324Y2234432D01*
X3782814Y2229098D01*
X3733792Y2229098D01*
X3846060Y2343652D02*
G01*
X3846060Y2261864D01*
X3851648Y2245354D01*
X3862570Y2234432D01*
X3878826Y2229098D01*
X3889748Y2229098D01*
X3906258Y2234432D01*
X3917180Y2245354D01*
X3922514Y2261864D01*
X3922514Y2343652D01*
X3996682Y2343652D02*
G01*
X3996682Y2229098D01*
X3958582Y2343652D02*
G01*
X4034782Y2343652D01*
X4108950Y2343652D02*
G01*
X4108950Y2229098D01*
X4070850Y2343652D02*
G01*
X4147304Y2343652D01*
X4215884Y2343652D02*
G01*
X4204962Y2338064D01*
X4194040Y2327142D01*
X4188706Y2316220D01*
X4183372Y2299964D01*
X4183372Y2272786D01*
X4188706Y2256276D01*
X4194040Y2245354D01*
X4204962Y2234432D01*
X4215884Y2229098D01*
X4237728Y2229098D01*
X4248650Y2234432D01*
X4259572Y2245354D01*
X4265160Y2256276D01*
X4270494Y2272786D01*
X4270494Y2299964D01*
X4265160Y2316220D01*
X4259572Y2327142D01*
X4248650Y2338064D01*
X4237728Y2343652D01*
X4215884Y2343652D01*
X4306562Y2343652D02*
G01*
X4306562Y2229098D01*
X4306562Y2343652D02*
G01*
X4382762Y2229098D01*
X4382762Y2343652D02*
G01*
X4382762Y2229098D01*
X4508238Y2316220D02*
G01*
X4508238Y2321808D01*
X4513826Y2332730D01*
X4519160Y2338064D01*
X4530082Y2343652D01*
X4551926Y2343652D01*
X4562848Y2338064D01*
X4568436Y2332730D01*
X4573770Y2321808D01*
X4573770Y2310886D01*
X4568436Y2299964D01*
X4557514Y2283708D01*
X4502904Y2229098D01*
X4579358Y2229098D01*
X4178292Y2089652D02*
G01*
X4178292Y1975098D01*
X4178292Y1975098D02*
G01*
X4243824Y1975098D01*
X4279638Y2089652D02*
G01*
X4279638Y1975098D01*
X4279638Y2089652D02*
G01*
X4350758Y2089652D01*
X4279638Y2035042D02*
G01*
X4323326Y2035042D01*
X4279638Y1975098D02*
G01*
X4350758Y1975098D01*
X4386572Y2089652D02*
G01*
X4386572Y1975098D01*
X4386572Y2089652D02*
G01*
X4424926Y2089652D01*
X4441182Y2084064D01*
X4452104Y2073142D01*
X4457438Y2062220D01*
X4463026Y2045964D01*
X4463026Y2018786D01*
X4457438Y2002276D01*
X4452104Y1991354D01*
X4441182Y1980432D01*
X4424926Y1975098D01*
X4386572Y1975098D01*
X4575294Y2073142D02*
G01*
X4564372Y2084064D01*
X4548116Y2089652D01*
X4526272Y2089652D01*
X4510016Y2084064D01*
X4499094Y2073142D01*
X4499094Y2062220D01*
X4504428Y2051298D01*
X4510016Y2045964D01*
X4520938Y2040376D01*
X4553450Y2029708D01*
X4564372Y2024120D01*
X4569960Y2018786D01*
X4575294Y2007864D01*
X4575294Y1991354D01*
X4564372Y1980432D01*
X4548116Y1975098D01*
X4526272Y1975098D01*
X4510016Y1980432D01*
X4499094Y1991354D01*
M02*
