G04 Layer: TopSolderMaskLayer*
G04 EasyEDA v6.5.34, 2023-08-21 18:11:39*
G04 3696ccb3ce3c4ba2a1e01cf7d584be42,5a6b42c53f6a479593ecc07194224c93,10*
G04 Gerber Generator version 0.2*
G04 Scale: 100 percent, Rotated: No, Reflected: No *
G04 Dimensions in millimeters *
G04 leading zeros omitted , absolute positions ,4 integer and 5 decimal *
%FSLAX45Y45*%
%MOMM*%

%ADD10C,5.2032*%

%LPD*%
G36*
X4216400Y5669534D02*
G01*
X4207154Y5669127D01*
X4198010Y5667908D01*
X4189018Y5665876D01*
X4184599Y5664606D01*
X4175963Y5661406D01*
X4167632Y5657443D01*
X4159656Y5652770D01*
X4152137Y5647385D01*
X4145127Y5641390D01*
X4138676Y5634837D01*
X4132834Y5627674D01*
X4127652Y5620054D01*
X4123131Y5611977D01*
X4119372Y5603544D01*
X4116374Y5594858D01*
X4114139Y5585866D01*
X4112717Y5576773D01*
X4112107Y5567578D01*
X4112310Y5558332D01*
X4113326Y5549188D01*
X4115155Y5540146D01*
X4117797Y5531307D01*
X4119372Y5526938D01*
X4123131Y5518556D01*
X4127652Y5510479D01*
X4132834Y5502859D01*
X4138676Y5495696D01*
X4145127Y5489143D01*
X4152137Y5483098D01*
X4159656Y5477764D01*
X4167632Y5473090D01*
X4175963Y5469128D01*
X4184599Y5465927D01*
X4193489Y5463540D01*
X4202582Y5461914D01*
X4211777Y5461101D01*
X4221022Y5461101D01*
X4230166Y5461914D01*
X4239260Y5463540D01*
X4248150Y5465927D01*
X4256836Y5469128D01*
X4265168Y5473090D01*
X4273092Y5477764D01*
X4280611Y5483098D01*
X4287621Y5489143D01*
X4294073Y5495696D01*
X4299915Y5502859D01*
X4305096Y5510479D01*
X4309618Y5518556D01*
X4313377Y5526938D01*
X4316374Y5535676D01*
X4318609Y5544616D01*
X4320032Y5553760D01*
X4320641Y5562955D01*
X4320438Y5572201D01*
X4319422Y5581345D01*
X4317593Y5590387D01*
X4314952Y5599226D01*
X4311599Y5607812D01*
X4307433Y5616092D01*
X4302607Y5623915D01*
X4297070Y5631332D01*
X4290923Y5638190D01*
X4284218Y5644489D01*
X4276953Y5650179D01*
X4269181Y5655208D01*
X4261053Y5659526D01*
X4252518Y5663082D01*
X4248150Y5664606D01*
X4239260Y5666994D01*
X4230166Y5668619D01*
X4221022Y5669432D01*
G37*
D10*
G01*
X380992Y5460992D03*
G01*
X380992Y380992D03*
G01*
X5460992Y380992D03*
G01*
X5460992Y5460992D03*
G36*
X1904992Y4127492D02*
G01*
X3962392Y4127492D01*
X3962392Y2832092D01*
X1904992Y2832092D01*
G37*
G36*
X2565392Y5714992D02*
G01*
X2971792Y5714992D01*
X2971792Y5587992D01*
X2565392Y5587992D01*
G37*
M02*
