M48
METRIC,LZ,000.000
;FILE_FORMAT=3:3
;TYPE=PLATED
;Layer: PTH_Through_Via
;EasyEDA v6.5.34, 2023-09-20 23:46:50
;f0f59a666a6c4c9db337fc43e0a80986,5a6b42c53f6a479593ecc07194224c93,10
;Gerber Generator version 0.2
;Holesize 1 = 0.305 mm
T01C0.305
%
G05
G90
T01
X040005Y053721
X019304Y040005
X019304Y038100
X020254Y040955
X020254Y039050
X020254Y035240
X020254Y037145
X019304Y034290
X019304Y036195
X020254Y031430
X020254Y033335
X019304Y030480
X019304Y032385
X020254Y029525
X019304Y028575
X021209Y028575
X022159Y029525
X021209Y032385
X021209Y030480
X022159Y033335
X022159Y031430
X021209Y036195
X021209Y034290
X022159Y037145
X022159Y035240
X022159Y039050
X022159Y040955
X021209Y038100
X021209Y040005
X023114Y028575
X024064Y029525
X023114Y032385
X023114Y030480
X024064Y033335
X024064Y031430
X023114Y036195
X023114Y034290
X024064Y037145
X024064Y035240
X024064Y039050
X024064Y040955
X023114Y038100
X023114Y040005
X025019Y028575
X025969Y029525
X025019Y032385
X025019Y030480
X025969Y033335
X025969Y031430
X025019Y036195
X025019Y034290
X025969Y037145
X025969Y035240
X025969Y039050
X025969Y040955
X025019Y038100
X025019Y040005
X026924Y028575
X027874Y029525
X026924Y032385
X026924Y030480
X027874Y033335
X027874Y031430
X026924Y036195
X026924Y034290
X027874Y037145
X027874Y035240
X027874Y039050
X027874Y040955
X026924Y038100
X026924Y040005
X028829Y028575
X029779Y029525
X028829Y032385
X028829Y030480
X029779Y033335
X029779Y031430
X028829Y036195
X028829Y034290
X029779Y037145
X029779Y035240
X029779Y039050
X029779Y040955
X028829Y038100
X028829Y040005
X038354Y040005
X038354Y038100
X039304Y040955
X039304Y039050
X039304Y035240
X039304Y037145
X038354Y034290
X038354Y036195
X039304Y031430
X039304Y033335
X038354Y030480
X038354Y032385
X039304Y029525
X038354Y028575
X036449Y040005
X036449Y038100
X037399Y040955
X037399Y039050
X037399Y035240
X037399Y037145
X036449Y034290
X036449Y036195
X037399Y031430
X037399Y033335
X036449Y030480
X036449Y032385
X037399Y029525
X036449Y028575
X034544Y040005
X034544Y038100
X035494Y040955
X035494Y039050
X035494Y035240
X035494Y037145
X034544Y034290
X034544Y036195
X035494Y031430
X035494Y033335
X034544Y030480
X034544Y032385
X035494Y029525
X034544Y028575
X032639Y040005
X032639Y038100
X033589Y040955
X033589Y039050
X033589Y035240
X033589Y037145
X032639Y034290
X032639Y036195
X033589Y031430
X033589Y033335
X032639Y030480
X032639Y032385
X033589Y029525
X032639Y028575
X030734Y028575
X031684Y029525
X030734Y032385
X030734Y030480
X031684Y033335
X031684Y031430
X030734Y036195
X030734Y034290
X031684Y037145
X031684Y035240
X031684Y039050
X031684Y040955
X030734Y038100
X030734Y040005
X037465Y041910
X037465Y027559
X035560Y041910
X035560Y027559
X033655Y041910
X033655Y027559
X031750Y041910
X031750Y027559
X029845Y041910
X029845Y027559
X027940Y041910
X027940Y027559
X020320Y041910
X020320Y027559
X022225Y041910
X022225Y027559
X024130Y041910
X024130Y027559
X026035Y041910
X026035Y027559
X039304Y027559
X039304Y009144
M30
