G04 Layer: TopSilkscreenLayer*
G04 EasyEDA v6.5.29, 2023-07-09 11:22:14*
G04 34a5644dc25c44e99f5b06bf355c49f1,5a6b42c53f6a479593ecc07194224c93,10*
G04 Gerber Generator version 0.2*
G04 Scale: 100 percent, Rotated: No, Reflected: No *
G04 Dimensions in millimeters *
G04 leading zeros omitted , absolute positions ,4 integer and 5 decimal *
%FSLAX45Y45*%
%MOMM*%

%ADD10C,0.2032*%
%ADD11C,0.1524*%
%ADD12C,0.2540*%

%LPD*%
D10*
X1277698Y17059536D02*
G01*
X1354155Y16944982D01*
X1354155Y17059536D02*
G01*
X1277698Y16944982D01*
X1389966Y17037695D02*
G01*
X1400888Y17043029D01*
X1417398Y17059536D01*
X1417398Y16944982D01*
X1072895Y17794731D02*
G01*
X1072895Y17707355D01*
X1067562Y17691100D01*
X1061973Y17685512D01*
X1051052Y17680178D01*
X1040129Y17680178D01*
X1029207Y17685512D01*
X1023873Y17691100D01*
X1018286Y17707355D01*
X1018286Y17718278D01*
X1114297Y17767300D02*
G01*
X1114297Y17772887D01*
X1119886Y17783810D01*
X1125220Y17789144D01*
X1136142Y17794731D01*
X1157986Y17794731D01*
X1168907Y17789144D01*
X1174242Y17783810D01*
X1179829Y17772887D01*
X1179829Y17761966D01*
X1174242Y17751044D01*
X1163573Y17734534D01*
X1108963Y17680178D01*
X1185163Y17680178D01*
X5568695Y17807431D02*
G01*
X5568695Y17720055D01*
X5563361Y17703800D01*
X5557774Y17698212D01*
X5546852Y17692878D01*
X5535929Y17692878D01*
X5525008Y17698212D01*
X5519674Y17703800D01*
X5514086Y17720055D01*
X5514086Y17730978D01*
X5615686Y17807431D02*
G01*
X5675629Y17807431D01*
X5642863Y17763744D01*
X5659374Y17763744D01*
X5670041Y17758155D01*
X5675629Y17752821D01*
X5680963Y17736312D01*
X5680963Y17725644D01*
X5675629Y17709134D01*
X5664708Y17698212D01*
X5648452Y17692878D01*
X5631941Y17692878D01*
X5615686Y17698212D01*
X5610097Y17703800D01*
X5604763Y17714721D01*
D11*
X5045709Y18426912D02*
G01*
X5000243Y18426912D01*
X4995672Y18386018D01*
X5000243Y18390590D01*
X5013706Y18395162D01*
X5027422Y18395162D01*
X5041138Y18390590D01*
X5050281Y18381446D01*
X5054854Y18367984D01*
X5054854Y18358840D01*
X5050281Y18345124D01*
X5041138Y18335980D01*
X5027422Y18331408D01*
X5013706Y18331408D01*
X5000243Y18335980D01*
X4995672Y18340552D01*
X4991100Y18349696D01*
X5084825Y18426912D02*
G01*
X5121147Y18331408D01*
X5157470Y18426912D02*
G01*
X5121147Y18331408D01*
X774700Y18403290D02*
G01*
X774700Y18294324D01*
X774700Y18403290D02*
G01*
X821436Y18403290D01*
X836929Y18398210D01*
X842263Y18392876D01*
X847344Y18382462D01*
X847344Y18366968D01*
X842263Y18356554D01*
X836929Y18351474D01*
X821436Y18346140D01*
X774700Y18346140D01*
X881634Y18403290D02*
G01*
X881634Y18294324D01*
X881634Y18403290D02*
G01*
X928370Y18403290D01*
X944118Y18398210D01*
X949197Y18392876D01*
X954531Y18382462D01*
X954531Y18372048D01*
X949197Y18361634D01*
X944118Y18356554D01*
X928370Y18351474D01*
X881634Y18351474D01*
X918210Y18351474D02*
G01*
X954531Y18294324D01*
X1019810Y18403290D02*
G01*
X1009650Y18398210D01*
X999236Y18387796D01*
X993902Y18377382D01*
X988821Y18361634D01*
X988821Y18335726D01*
X993902Y18320232D01*
X999236Y18309818D01*
X1009650Y18299404D01*
X1019810Y18294324D01*
X1040637Y18294324D01*
X1051052Y18299404D01*
X1061465Y18309818D01*
X1066800Y18320232D01*
X1071879Y18335726D01*
X1071879Y18361634D01*
X1066800Y18377382D01*
X1061465Y18387796D01*
X1051052Y18398210D01*
X1040637Y18403290D01*
X1019810Y18403290D01*
X1142492Y18403290D02*
G01*
X1142492Y18294324D01*
X1106170Y18403290D02*
G01*
X1178813Y18403290D01*
X1244345Y18403290D02*
G01*
X1233931Y18398210D01*
X1223518Y18387796D01*
X1218437Y18377382D01*
X1213104Y18361634D01*
X1213104Y18335726D01*
X1218437Y18320232D01*
X1223518Y18309818D01*
X1233931Y18299404D01*
X1244345Y18294324D01*
X1265173Y18294324D01*
X1275587Y18299404D01*
X1286002Y18309818D01*
X1291081Y18320232D01*
X1296415Y18335726D01*
X1296415Y18361634D01*
X1291081Y18377382D01*
X1286002Y18387796D01*
X1275587Y18398210D01*
X1265173Y18403290D01*
X1244345Y18403290D01*
X1330705Y18403290D02*
G01*
X1330705Y18294324D01*
X1330705Y18403290D02*
G01*
X1403350Y18294324D01*
X1403350Y18403290D02*
G01*
X1403350Y18294324D01*
X1437639Y18403290D02*
G01*
X1437639Y18294324D01*
X1437639Y18403290D02*
G01*
X1505204Y18403290D01*
X1437639Y18351474D02*
G01*
X1479295Y18351474D01*
X1437639Y18294324D02*
G01*
X1505204Y18294324D01*
X1539494Y18403290D02*
G01*
X1539494Y18294324D01*
X1539494Y18403290D02*
G01*
X1581150Y18294324D01*
X1622552Y18403290D02*
G01*
X1581150Y18294324D01*
X1622552Y18403290D02*
G01*
X1622552Y18294324D01*
X1698497Y18403290D02*
G01*
X1656842Y18294324D01*
X1698497Y18403290D02*
G01*
X1739900Y18294324D01*
X1672589Y18330646D02*
G01*
X1724405Y18330646D01*
X1927097Y18387796D02*
G01*
X1916684Y18398210D01*
X1901189Y18403290D01*
X1880362Y18403290D01*
X1864613Y18398210D01*
X1854200Y18387796D01*
X1854200Y18377382D01*
X1859534Y18366968D01*
X1864613Y18361634D01*
X1875028Y18356554D01*
X1906270Y18346140D01*
X1916684Y18341060D01*
X1921763Y18335726D01*
X1927097Y18325312D01*
X1927097Y18309818D01*
X1916684Y18299404D01*
X1901189Y18294324D01*
X1880362Y18294324D01*
X1864613Y18299404D01*
X1854200Y18309818D01*
X1997709Y18403290D02*
G01*
X1997709Y18294324D01*
X1961388Y18403290D02*
G01*
X2034031Y18403290D01*
X2109977Y18403290D02*
G01*
X2068322Y18294324D01*
X2109977Y18403290D02*
G01*
X2151379Y18294324D01*
X2084070Y18330646D02*
G01*
X2135886Y18330646D01*
X2185670Y18403290D02*
G01*
X2185670Y18294324D01*
X2185670Y18403290D02*
G01*
X2227325Y18294324D01*
X2268981Y18403290D02*
G01*
X2227325Y18294324D01*
X2268981Y18403290D02*
G01*
X2268981Y18294324D01*
X2303272Y18403290D02*
G01*
X2303272Y18294324D01*
X2303272Y18403290D02*
G01*
X2350008Y18403290D01*
X2365502Y18398210D01*
X2370836Y18392876D01*
X2375915Y18382462D01*
X2375915Y18366968D01*
X2370836Y18356554D01*
X2365502Y18351474D01*
X2350008Y18346140D01*
X2303272Y18346140D01*
X5036565Y18211012D02*
G01*
X5036565Y18138368D01*
X5031993Y18124652D01*
X5027422Y18120080D01*
X5018277Y18115508D01*
X5009388Y18115508D01*
X5000243Y18120080D01*
X4995672Y18124652D01*
X4991100Y18138368D01*
X4991100Y18147512D01*
X5066538Y18192978D02*
G01*
X5075681Y18197550D01*
X5089397Y18211012D01*
X5089397Y18115508D01*
X5000243Y17995112D02*
G01*
X5050281Y17995112D01*
X5022850Y17958790D01*
X5036565Y17958790D01*
X5045709Y17954218D01*
X5050281Y17949646D01*
X5054854Y17936184D01*
X5054854Y17927040D01*
X5050281Y17913324D01*
X5041138Y17904180D01*
X5027422Y17899608D01*
X5013706Y17899608D01*
X5000243Y17904180D01*
X4995672Y17908752D01*
X4991100Y17917896D01*
X5084825Y17995112D02*
G01*
X5121147Y17899608D01*
X5157470Y17995112D02*
G01*
X5121147Y17899608D01*
X5196586Y17995112D02*
G01*
X5246624Y17995112D01*
X5219191Y17958790D01*
X5232908Y17958790D01*
X5242052Y17954218D01*
X5246624Y17949646D01*
X5251195Y17936184D01*
X5251195Y17927040D01*
X5246624Y17913324D01*
X5237479Y17904180D01*
X5223763Y17899608D01*
X5210302Y17899608D01*
X5196586Y17904180D01*
X5192013Y17908752D01*
X5187441Y17917896D01*
X774700Y18212816D02*
G01*
X816355Y18103595D01*
X857757Y18212816D02*
G01*
X816355Y18103595D01*
X892047Y18212816D02*
G01*
X892047Y18103595D01*
X892047Y18212816D02*
G01*
X959612Y18212816D01*
X892047Y18160745D02*
G01*
X933704Y18160745D01*
X892047Y18103595D02*
G01*
X959612Y18103595D01*
X993902Y18212816D02*
G01*
X993902Y18103595D01*
X993902Y18212816D02*
G01*
X1040637Y18212816D01*
X1056386Y18207736D01*
X1061465Y18202402D01*
X1066800Y18191987D01*
X1066800Y18181574D01*
X1061465Y18171160D01*
X1056386Y18166079D01*
X1040637Y18160745D01*
X993902Y18160745D01*
X1030223Y18160745D02*
G01*
X1066800Y18103595D01*
X1137412Y18212816D02*
G01*
X1137412Y18103595D01*
X1101089Y18212816D02*
G01*
X1173734Y18212816D01*
X1208023Y18212816D02*
G01*
X1208023Y18103595D01*
X1320292Y18186908D02*
G01*
X1314957Y18197321D01*
X1304544Y18207736D01*
X1294129Y18212816D01*
X1273555Y18212816D01*
X1263142Y18207736D01*
X1252728Y18197321D01*
X1247394Y18186908D01*
X1242313Y18171160D01*
X1242313Y18145252D01*
X1247394Y18129758D01*
X1252728Y18119344D01*
X1263142Y18108929D01*
X1273555Y18103595D01*
X1294129Y18103595D01*
X1304544Y18108929D01*
X1314957Y18119344D01*
X1320292Y18129758D01*
X1395984Y18212816D02*
G01*
X1354581Y18103595D01*
X1395984Y18212816D02*
G01*
X1437639Y18103595D01*
X1370076Y18140171D02*
G01*
X1422145Y18140171D01*
X1471929Y18212816D02*
G01*
X1471929Y18103595D01*
X1471929Y18103595D02*
G01*
X1534160Y18103595D01*
X1648460Y18212816D02*
G01*
X1648460Y18103595D01*
X1648460Y18212816D02*
G01*
X1695450Y18212816D01*
X1710944Y18207736D01*
X1716023Y18202402D01*
X1721357Y18191987D01*
X1721357Y18181574D01*
X1716023Y18171160D01*
X1710944Y18166079D01*
X1695450Y18160745D01*
X1648460Y18160745D02*
G01*
X1695450Y18160745D01*
X1710944Y18155666D01*
X1716023Y18150586D01*
X1721357Y18140171D01*
X1721357Y18124424D01*
X1716023Y18114010D01*
X1710944Y18108929D01*
X1695450Y18103595D01*
X1648460Y18103595D01*
X1755647Y18212816D02*
G01*
X1755647Y18103595D01*
X1755647Y18212816D02*
G01*
X1802384Y18212816D01*
X1817878Y18207736D01*
X1823212Y18202402D01*
X1828292Y18191987D01*
X1828292Y18181574D01*
X1823212Y18171160D01*
X1817878Y18166079D01*
X1802384Y18160745D01*
X1755647Y18160745D01*
X1791970Y18160745D02*
G01*
X1828292Y18103595D01*
X1862581Y18212816D02*
G01*
X1862581Y18103595D01*
X1862581Y18212816D02*
G01*
X1930145Y18212816D01*
X1862581Y18160745D02*
G01*
X1904237Y18160745D01*
X1862581Y18103595D02*
G01*
X1930145Y18103595D01*
X2006091Y18212816D02*
G01*
X1964436Y18103595D01*
X2006091Y18212816D02*
G01*
X2047493Y18103595D01*
X1979929Y18140171D02*
G01*
X2032000Y18140171D01*
X2081784Y18212816D02*
G01*
X2081784Y18103595D01*
X2081784Y18212816D02*
G01*
X2118359Y18212816D01*
X2133854Y18207736D01*
X2144268Y18197321D01*
X2149347Y18186908D01*
X2154681Y18171160D01*
X2154681Y18145252D01*
X2149347Y18129758D01*
X2144268Y18119344D01*
X2133854Y18108929D01*
X2118359Y18103595D01*
X2081784Y18103595D01*
X2188972Y18212816D02*
G01*
X2188972Y18103595D01*
X2188972Y18212816D02*
G01*
X2235708Y18212816D01*
X2251202Y18207736D01*
X2256536Y18202402D01*
X2261615Y18191987D01*
X2261615Y18181574D01*
X2256536Y18171160D01*
X2251202Y18166079D01*
X2235708Y18160745D01*
X2188972Y18160745D02*
G01*
X2235708Y18160745D01*
X2251202Y18155666D01*
X2256536Y18150586D01*
X2261615Y18140171D01*
X2261615Y18124424D01*
X2256536Y18114010D01*
X2251202Y18108929D01*
X2235708Y18103595D01*
X2188972Y18103595D01*
X2327147Y18212816D02*
G01*
X2316734Y18207736D01*
X2306320Y18197321D01*
X2301240Y18186908D01*
X2295906Y18171160D01*
X2295906Y18145252D01*
X2301240Y18129758D01*
X2306320Y18119344D01*
X2316734Y18108929D01*
X2327147Y18103595D01*
X2347975Y18103595D01*
X2358390Y18108929D01*
X2368550Y18119344D01*
X2373884Y18129758D01*
X2378963Y18145252D01*
X2378963Y18171160D01*
X2373884Y18186908D01*
X2368550Y18197321D01*
X2358390Y18207736D01*
X2347975Y18212816D01*
X2327147Y18212816D01*
X2454909Y18212816D02*
G01*
X2413254Y18103595D01*
X2454909Y18212816D02*
G01*
X2496565Y18103595D01*
X2429002Y18140171D02*
G01*
X2480818Y18140171D01*
X2530856Y18212816D02*
G01*
X2530856Y18103595D01*
X2530856Y18212816D02*
G01*
X2577591Y18212816D01*
X2593086Y18207736D01*
X2598420Y18202402D01*
X2603500Y18191987D01*
X2603500Y18181574D01*
X2598420Y18171160D01*
X2593086Y18166079D01*
X2577591Y18160745D01*
X2530856Y18160745D01*
X2567177Y18160745D02*
G01*
X2603500Y18103595D01*
X2637790Y18212816D02*
G01*
X2637790Y18103595D01*
X2637790Y18212816D02*
G01*
X2674111Y18212816D01*
X2689859Y18207736D01*
X2700020Y18197321D01*
X2705354Y18186908D01*
X2710434Y18171160D01*
X2710434Y18145252D01*
X2705354Y18129758D01*
X2700020Y18119344D01*
X2689859Y18108929D01*
X2674111Y18103595D01*
X2637790Y18103595D01*
X774700Y18022316D02*
G01*
X774700Y17913095D01*
X774700Y18022316D02*
G01*
X821436Y18022316D01*
X836929Y18017236D01*
X842263Y18011902D01*
X847344Y18001487D01*
X847344Y17985994D01*
X842263Y17975579D01*
X836929Y17970245D01*
X821436Y17965166D01*
X774700Y17965166D01*
X923289Y18022316D02*
G01*
X881634Y17913095D01*
X923289Y18022316D02*
G01*
X964945Y17913095D01*
X897381Y17949671D02*
G01*
X949197Y17949671D01*
X999236Y18022316D02*
G01*
X999236Y17913095D01*
X999236Y18022316D02*
G01*
X1045971Y18022316D01*
X1061465Y18017236D01*
X1066800Y18011902D01*
X1071879Y18001487D01*
X1071879Y17991074D01*
X1066800Y17980660D01*
X1061465Y17975579D01*
X1045971Y17970245D01*
X999236Y17970245D01*
X1035557Y17970245D02*
G01*
X1071879Y17913095D01*
X1142492Y18022316D02*
G01*
X1142492Y17913095D01*
X1106170Y18022316D02*
G01*
X1178813Y18022316D01*
X1293113Y18022316D02*
G01*
X1293113Y17913095D01*
X1293113Y18022316D02*
G01*
X1366012Y17913095D01*
X1366012Y18022316D02*
G01*
X1366012Y17913095D01*
X1400302Y18022316D02*
G01*
X1400302Y17944337D01*
X1405381Y17928844D01*
X1415795Y17918429D01*
X1431289Y17913095D01*
X1441704Y17913095D01*
X1457452Y17918429D01*
X1467865Y17928844D01*
X1472945Y17944337D01*
X1472945Y18022316D01*
X1507236Y18022316D02*
G01*
X1507236Y17913095D01*
X1507236Y18022316D02*
G01*
X1548892Y17913095D01*
X1590294Y18022316D02*
G01*
X1548892Y17913095D01*
X1590294Y18022316D02*
G01*
X1590294Y17913095D01*
X1704594Y18001487D02*
G01*
X1715007Y18006821D01*
X1730755Y18022316D01*
X1730755Y17913095D01*
X1796034Y18022316D02*
G01*
X1780539Y18017236D01*
X1770126Y18001487D01*
X1765045Y17975579D01*
X1765045Y17960086D01*
X1770126Y17933924D01*
X1780539Y17918429D01*
X1796034Y17913095D01*
X1806447Y17913095D01*
X1822195Y17918429D01*
X1832610Y17933924D01*
X1837689Y17960086D01*
X1837689Y17975579D01*
X1832610Y18001487D01*
X1822195Y18017236D01*
X1806447Y18022316D01*
X1796034Y18022316D01*
X1871979Y18001487D02*
G01*
X1882394Y18006821D01*
X1897887Y18022316D01*
X1897887Y17913095D01*
X1937511Y17996408D02*
G01*
X1937511Y18001487D01*
X1942591Y18011902D01*
X1947925Y18017236D01*
X1958340Y18022316D01*
X1978913Y18022316D01*
X1989327Y18017236D01*
X1994661Y18011902D01*
X1999741Y18001487D01*
X1999741Y17991074D01*
X1994661Y17980660D01*
X1984247Y17965166D01*
X1932177Y17913095D01*
X2005075Y17913095D01*
X2039365Y17960086D02*
G01*
X2132838Y17960086D01*
X2198370Y18022316D02*
G01*
X2182622Y18017236D01*
X2172208Y18001487D01*
X2167127Y17975579D01*
X2167127Y17960086D01*
X2172208Y17933924D01*
X2182622Y17918429D01*
X2198370Y17913095D01*
X2208529Y17913095D01*
X2224277Y17918429D01*
X2234691Y17933924D01*
X2239772Y17960086D01*
X2239772Y17975579D01*
X2234691Y18001487D01*
X2224277Y18017236D01*
X2208529Y18022316D01*
X2198370Y18022316D01*
X2274061Y18001487D02*
G01*
X2284475Y18006821D01*
X2299970Y18022316D01*
X2299970Y17913095D01*
X2365502Y18022316D02*
G01*
X2350008Y18017236D01*
X2339593Y18001487D01*
X2334259Y17975579D01*
X2334259Y17960086D01*
X2339593Y17933924D01*
X2350008Y17918429D01*
X2365502Y17913095D01*
X2375915Y17913095D01*
X2391409Y17918429D01*
X2401824Y17933924D01*
X2407158Y17960086D01*
X2407158Y17975579D01*
X2401824Y18001487D01*
X2391409Y18017236D01*
X2375915Y18022316D01*
X2365502Y18022316D01*
X2441447Y18001487D02*
G01*
X2451861Y18006821D01*
X2467356Y18022316D01*
X2467356Y17913095D01*
X2581656Y18022316D02*
G01*
X2623311Y17913095D01*
X2664713Y18022316D02*
G01*
X2623311Y17913095D01*
X2704338Y17996408D02*
G01*
X2704338Y18001487D01*
X2709418Y18011902D01*
X2714752Y18017236D01*
X2725165Y18022316D01*
X2745740Y18022316D01*
X2756154Y18017236D01*
X2761488Y18011902D01*
X2766568Y18001487D01*
X2766568Y17991074D01*
X2761488Y17980660D01*
X2751074Y17965166D01*
X2699004Y17913095D01*
X2771902Y17913095D01*
G36*
X0Y18541949D02*
G01*
X0Y18287949D01*
X254000Y18541949D01*
G37*
D12*
X178206Y17179645D02*
G01*
X1128217Y17179645D01*
X1128217Y729665D01*
X178206Y729665D01*
X178206Y17179645D01*
X1143406Y17179645D02*
G01*
X4693411Y17179645D01*
X4693411Y729665D01*
X1143406Y729665D01*
X1143406Y17179645D01*
X4712106Y17179645D02*
G01*
X5662117Y17179645D01*
X5662117Y729665D01*
X4712106Y729665D01*
X4712106Y17179645D01*
X457200Y17830774D02*
G01*
X965200Y17830774D01*
X965200Y17322774D01*
X457200Y17322774D01*
X457200Y17830774D01*
X4953000Y17830774D02*
G01*
X5461000Y17830774D01*
X5461000Y17322774D01*
X4953000Y17322774D01*
X4953000Y17830774D01*
X4445000Y18414974D02*
G01*
X4953000Y18414974D01*
X4953000Y17906974D01*
X4445000Y17906974D01*
X4445000Y18414974D01*
M02*
