G04 Layer: BottomSolderMaskLayer*
G04 EasyEDA v6.5.34, 2023-08-21 18:11:39*
G04 9371a8be428f4a87b74db2829c10452a,5a6b42c53f6a479593ecc07194224c93,10*
G04 Gerber Generator version 0.2*
G04 Scale: 100 percent, Rotated: No, Reflected: No *
G04 Dimensions in millimeters *
G04 leading zeros omitted , absolute positions ,4 integer and 5 decimal *
%FSLAX45Y45*%
%MOMM*%

%ADD10C,5.2032*%

%LPD*%
G36*
X4216400Y5669534D02*
G01*
X4207154Y5669127D01*
X4198010Y5667908D01*
X4189018Y5665876D01*
X4184599Y5664606D01*
X4175963Y5661406D01*
X4167632Y5657443D01*
X4159656Y5652770D01*
X4152137Y5647385D01*
X4145127Y5641390D01*
X4138676Y5634837D01*
X4132834Y5627674D01*
X4127652Y5620054D01*
X4123131Y5611977D01*
X4119372Y5603544D01*
X4116374Y5594858D01*
X4114139Y5585866D01*
X4112717Y5576773D01*
X4112107Y5567578D01*
X4112310Y5558332D01*
X4113326Y5549188D01*
X4115155Y5540146D01*
X4117797Y5531307D01*
X4119372Y5526938D01*
X4123131Y5518556D01*
X4127652Y5510479D01*
X4132834Y5502859D01*
X4138676Y5495696D01*
X4145127Y5489143D01*
X4152137Y5483098D01*
X4159656Y5477764D01*
X4167632Y5473090D01*
X4175963Y5469128D01*
X4184599Y5465927D01*
X4193489Y5463540D01*
X4202582Y5461914D01*
X4211777Y5461101D01*
X4221022Y5461101D01*
X4230166Y5461914D01*
X4239260Y5463540D01*
X4248150Y5465927D01*
X4256836Y5469128D01*
X4265168Y5473090D01*
X4273092Y5477764D01*
X4280611Y5483098D01*
X4287621Y5489143D01*
X4294073Y5495696D01*
X4299915Y5502859D01*
X4305096Y5510479D01*
X4309618Y5518556D01*
X4313377Y5526938D01*
X4316374Y5535676D01*
X4318609Y5544616D01*
X4320032Y5553760D01*
X4320641Y5562955D01*
X4320438Y5572201D01*
X4319422Y5581345D01*
X4317593Y5590387D01*
X4314952Y5599226D01*
X4311599Y5607812D01*
X4307433Y5616092D01*
X4302607Y5623915D01*
X4297070Y5631332D01*
X4290923Y5638190D01*
X4284218Y5644489D01*
X4276953Y5650179D01*
X4269181Y5655208D01*
X4261053Y5659526D01*
X4252518Y5663082D01*
X4248150Y5664606D01*
X4239260Y5666994D01*
X4230166Y5668619D01*
X4221022Y5669432D01*
G37*
G36*
X1016000Y3152292D02*
G01*
X1006754Y3151886D01*
X997610Y3150616D01*
X993089Y3149752D01*
X984199Y3147314D01*
X975563Y3144113D01*
X967232Y3140151D01*
X959256Y3135477D01*
X951737Y3130143D01*
X944727Y3124149D01*
X938276Y3117545D01*
X932434Y3110382D01*
X927252Y3102762D01*
X922782Y3094736D01*
X918971Y3086303D01*
X915974Y3077565D01*
X913790Y3068624D01*
X912368Y3059480D01*
X911758Y3050286D01*
X911961Y3041091D01*
X912977Y3031896D01*
X914755Y3022854D01*
X917397Y3014014D01*
X918971Y3009696D01*
X922782Y3001264D01*
X927252Y2993186D01*
X932434Y2985566D01*
X938276Y2978454D01*
X944727Y2971850D01*
X951737Y2965856D01*
X959256Y2960471D01*
X967232Y2955798D01*
X975563Y2951886D01*
X979830Y2950159D01*
X988618Y2947365D01*
X997610Y2945333D01*
X1006754Y2944114D01*
X1016000Y2943707D01*
X1025194Y2944114D01*
X1034338Y2945333D01*
X1043330Y2947365D01*
X1052118Y2950159D01*
X1060653Y2953766D01*
X1064768Y2955798D01*
X1072743Y2960471D01*
X1080211Y2965856D01*
X1083818Y2968752D01*
X1090523Y2975051D01*
X1096670Y2981960D01*
X1102207Y2989326D01*
X1107084Y2997200D01*
X1111199Y3005429D01*
X1114602Y3014014D01*
X1117193Y3022854D01*
X1119022Y3031896D01*
X1120038Y3041091D01*
X1120241Y3050286D01*
X1119632Y3059480D01*
X1118209Y3068624D01*
X1115974Y3077565D01*
X1114602Y3081985D01*
X1111199Y3090519D01*
X1107084Y3098800D01*
X1102207Y3106623D01*
X1096670Y3114040D01*
X1090523Y3120898D01*
X1083818Y3127197D01*
X1076553Y3132886D01*
X1068781Y3137916D01*
X1060653Y3142234D01*
X1052118Y3145790D01*
X1043330Y3148634D01*
X1038860Y3149752D01*
X1029766Y3151327D01*
X1020622Y3152190D01*
G37*
G36*
X2286000Y3152292D02*
G01*
X2276754Y3151886D01*
X2267610Y3150616D01*
X2263089Y3149752D01*
X2254199Y3147314D01*
X2245563Y3144113D01*
X2237232Y3140151D01*
X2229256Y3135477D01*
X2221738Y3130143D01*
X2214727Y3124149D01*
X2208276Y3117545D01*
X2202434Y3110382D01*
X2197252Y3102762D01*
X2192782Y3094736D01*
X2188972Y3086303D01*
X2185974Y3077565D01*
X2183790Y3068624D01*
X2182317Y3059480D01*
X2181707Y3050286D01*
X2181910Y3041091D01*
X2182317Y3036468D01*
X2183790Y3027375D01*
X2184755Y3022854D01*
X2187397Y3014014D01*
X2188972Y3009696D01*
X2192782Y3001264D01*
X2197252Y2993186D01*
X2202434Y2985566D01*
X2208276Y2978454D01*
X2214727Y2971850D01*
X2221738Y2965856D01*
X2229256Y2960471D01*
X2237232Y2955798D01*
X2245563Y2951886D01*
X2249830Y2950159D01*
X2258618Y2947365D01*
X2267610Y2945333D01*
X2276754Y2944114D01*
X2286000Y2943707D01*
X2295194Y2944114D01*
X2304338Y2945333D01*
X2313330Y2947365D01*
X2322118Y2950159D01*
X2330653Y2953766D01*
X2334768Y2955798D01*
X2342743Y2960471D01*
X2350211Y2965856D01*
X2353818Y2968752D01*
X2360523Y2975051D01*
X2366670Y2981960D01*
X2372207Y2989326D01*
X2377033Y2997200D01*
X2381199Y3005429D01*
X2384602Y3014014D01*
X2387193Y3022854D01*
X2389022Y3031896D01*
X2390038Y3041091D01*
X2390241Y3050286D01*
X2389632Y3059480D01*
X2388209Y3068624D01*
X2385974Y3077565D01*
X2384602Y3081985D01*
X2381199Y3090519D01*
X2377033Y3098800D01*
X2372207Y3106623D01*
X2366670Y3114040D01*
X2360523Y3120898D01*
X2353818Y3127197D01*
X2346553Y3132886D01*
X2338781Y3137916D01*
X2330653Y3142234D01*
X2322118Y3145790D01*
X2313330Y3148634D01*
X2308860Y3149752D01*
X2299766Y3151327D01*
X2290622Y3152190D01*
G37*
G36*
X1016000Y2390292D02*
G01*
X1006754Y2389886D01*
X997610Y2388616D01*
X993089Y2387752D01*
X984199Y2385314D01*
X975563Y2382113D01*
X967232Y2378151D01*
X959256Y2373477D01*
X951737Y2368143D01*
X944727Y2362149D01*
X938276Y2355545D01*
X932434Y2348382D01*
X927252Y2340762D01*
X922731Y2332736D01*
X918971Y2324303D01*
X915974Y2315565D01*
X913739Y2306624D01*
X912317Y2297480D01*
X911707Y2288286D01*
X911910Y2279091D01*
X912926Y2269896D01*
X914755Y2260854D01*
X917397Y2252014D01*
X918971Y2247696D01*
X922731Y2239264D01*
X927252Y2231186D01*
X932434Y2223566D01*
X938276Y2216454D01*
X944727Y2209850D01*
X951737Y2203856D01*
X959256Y2198471D01*
X967232Y2193798D01*
X975563Y2189886D01*
X979830Y2188159D01*
X988618Y2185365D01*
X997610Y2183333D01*
X1006754Y2182114D01*
X1016000Y2181707D01*
X1025194Y2182114D01*
X1034338Y2183333D01*
X1043330Y2185365D01*
X1052118Y2188159D01*
X1060653Y2191766D01*
X1064768Y2193798D01*
X1072692Y2198471D01*
X1076553Y2201062D01*
X1083818Y2206752D01*
X1090523Y2213051D01*
X1096670Y2219960D01*
X1102207Y2227326D01*
X1107033Y2235200D01*
X1111199Y2243429D01*
X1114552Y2252014D01*
X1117193Y2260854D01*
X1119022Y2269896D01*
X1120038Y2279091D01*
X1120241Y2288286D01*
X1119632Y2297480D01*
X1118209Y2306624D01*
X1115974Y2315565D01*
X1112977Y2324303D01*
X1109218Y2332736D01*
X1104696Y2340762D01*
X1099515Y2348382D01*
X1093673Y2355545D01*
X1087221Y2362149D01*
X1080211Y2368143D01*
X1072692Y2373477D01*
X1064768Y2378151D01*
X1056436Y2382113D01*
X1047750Y2385314D01*
X1038860Y2387752D01*
X1029766Y2389327D01*
X1020622Y2390190D01*
G37*
G36*
X2286000Y2390292D02*
G01*
X2276754Y2389886D01*
X2267610Y2388616D01*
X2263089Y2387752D01*
X2254199Y2385314D01*
X2245563Y2382113D01*
X2237181Y2378151D01*
X2229256Y2373477D01*
X2221738Y2368143D01*
X2214727Y2362149D01*
X2208276Y2355545D01*
X2202434Y2348382D01*
X2197252Y2340762D01*
X2192731Y2332736D01*
X2188972Y2324303D01*
X2185974Y2315565D01*
X2183739Y2306624D01*
X2182317Y2297480D01*
X2181707Y2288286D01*
X2181910Y2279091D01*
X2182926Y2269896D01*
X2184755Y2260854D01*
X2187397Y2252014D01*
X2188972Y2247696D01*
X2192731Y2239264D01*
X2197252Y2231186D01*
X2202434Y2223566D01*
X2208276Y2216454D01*
X2214727Y2209850D01*
X2221738Y2203856D01*
X2229256Y2198471D01*
X2237181Y2193798D01*
X2245563Y2189886D01*
X2249830Y2188159D01*
X2258618Y2185365D01*
X2267610Y2183333D01*
X2276754Y2182114D01*
X2286000Y2181707D01*
X2295194Y2182114D01*
X2304338Y2183333D01*
X2313330Y2185365D01*
X2322118Y2188159D01*
X2330653Y2191766D01*
X2334768Y2193798D01*
X2342692Y2198471D01*
X2346553Y2201062D01*
X2353818Y2206752D01*
X2360523Y2213051D01*
X2366670Y2219960D01*
X2372207Y2227326D01*
X2377033Y2235200D01*
X2381199Y2243429D01*
X2384552Y2252014D01*
X2387193Y2260854D01*
X2389022Y2269896D01*
X2390038Y2279091D01*
X2390241Y2288286D01*
X2389632Y2297480D01*
X2388209Y2306624D01*
X2385974Y2315565D01*
X2382977Y2324303D01*
X2379218Y2332736D01*
X2374696Y2340762D01*
X2369515Y2348382D01*
X2363673Y2355545D01*
X2357221Y2362149D01*
X2350211Y2368143D01*
X2342692Y2373477D01*
X2334768Y2378151D01*
X2326436Y2382113D01*
X2317750Y2385314D01*
X2308860Y2387752D01*
X2299766Y2389327D01*
X2295194Y2389886D01*
G37*
D10*
G01*
X380992Y5460992D03*
G01*
X380992Y380992D03*
G01*
X5460992Y380992D03*
G01*
X5460992Y5460992D03*
G36*
X876292Y4152892D02*
G01*
X1155692Y4152892D01*
X1155692Y3714742D01*
X876292Y3714742D01*
G37*
G36*
X1803392Y4152892D02*
G01*
X2425692Y4152892D01*
X2425692Y3717917D01*
X1803392Y3717917D01*
G37*
G36*
X4508492Y4178292D02*
G01*
X4965692Y4178292D01*
X4965692Y3733792D01*
X4508492Y3733792D01*
G37*
G36*
X4508492Y2901942D02*
G01*
X4965692Y2901942D01*
X4965692Y2457442D01*
X4508492Y2457442D01*
G37*
M02*
