G04 Layer: BottomSolderMaskLayer*
G04 EasyEDA v6.5.22, 2022-11-10 20:02:19*
G04 b67eade121014974844d0d31f71d52c0,5a6b42c53f6a479593ecc07194224c93,10*
G04 Gerber Generator version 0.2*
G04 Scale: 100 percent, Rotated: No, Reflected: No *
G04 Dimensions in millimeters *
G04 leading zeros omitted , absolute positions ,4 integer and 5 decimal *
%FSLAX45Y45*%
%MOMM*%

%AMMACRO1*1,1,$1,$2,$3*1,1,$1,$4,$5*1,1,$1,0-$2,0-$3*1,1,$1,0-$4,0-$5*20,1,$1,$2,$3,$4,$5,0*20,1,$1,$4,$5,0-$2,0-$3,0*20,1,$1,0-$2,0-$3,0-$4,0-$5,0*20,1,$1,0-$4,0-$5,$2,$3,0*4,1,4,$2,$3,$4,$5,0-$2,0-$3,0-$4,0-$5,$2,$3,0*%
%ADD10C,1.9016*%
%ADD11MACRO1,0.1016X-0.9X-0.85X0.9X-0.85*%
%ADD12C,5.2032*%
%ADD13C,2.1016*%
%ADD14C,1.8016*%

%LPD*%
D10*
G01*
X4051300Y254000D03*
D11*
G01*
X4813300Y254001D03*
D10*
G01*
X4559300Y254000D03*
G01*
X4305300Y254000D03*
D12*
G01*
X381000Y5461000D03*
G01*
X5461000Y5461000D03*
G01*
X5461000Y381000D03*
G01*
X381000Y381000D03*
D13*
G01*
X2362200Y4495800D03*
G01*
X2108200Y4495800D03*
G01*
X1854200Y4495800D03*
G01*
X1600200Y4495800D03*
G01*
X1346200Y4495800D03*
G01*
X1092200Y4495800D03*
G01*
X838200Y4495800D03*
G01*
X584200Y4495800D03*
D10*
G01*
X4572000Y5588000D03*
G01*
X4572000Y5334000D03*
G01*
X4826000Y5334000D03*
G01*
X4826000Y5588000D03*
D14*
G01*
X889000Y2679700D03*
G01*
X889000Y3187700D03*
G01*
X889000Y2933700D03*
G01*
X889000Y2044700D03*
G01*
X1143000Y2044700D03*
G01*
X1397000Y2044700D03*
G01*
X1651000Y2044700D03*
G01*
X1905000Y2044700D03*
G01*
X2159000Y2044700D03*
G01*
X2413000Y2044700D03*
G01*
X2667000Y2044700D03*
G01*
X2921000Y2044700D03*
G01*
X3175000Y2044700D03*
G01*
X3429000Y2044700D03*
G01*
X3683000Y2044700D03*
G01*
X3937000Y2044700D03*
G01*
X4191000Y2044700D03*
G01*
X4445000Y2044700D03*
G01*
X4699000Y2044700D03*
G01*
X4953000Y2044700D03*
G01*
X5207000Y2044700D03*
G01*
X5461000Y2044700D03*
G01*
X889000Y3822700D03*
G01*
X1143000Y3822700D03*
G01*
X1397000Y3822700D03*
G01*
X1651000Y3822700D03*
G01*
X1905000Y3822700D03*
G01*
X2159000Y3822700D03*
G01*
X2413000Y3822700D03*
G01*
X2667000Y3822700D03*
G01*
X2921000Y3822700D03*
G01*
X3175000Y3822700D03*
G01*
X3429000Y3822700D03*
G01*
X3683000Y3822700D03*
G01*
X3937000Y3822700D03*
G01*
X4191000Y3822700D03*
G01*
X4445000Y3822700D03*
G01*
X4699000Y3822700D03*
G01*
X4953000Y3822700D03*
G01*
X5207000Y3822700D03*
G01*
X5461000Y3822700D03*
G01*
X5715000Y2044700D03*
G01*
X5715000Y3822700D03*
D13*
G01*
X3479800Y4495800D03*
G01*
X3733800Y4495800D03*
G01*
X3987800Y4495800D03*
G01*
X4241800Y4495800D03*
G01*
X4495800Y4495800D03*
G01*
X4749800Y4495800D03*
G01*
X5003800Y4495800D03*
G01*
X5257800Y4495800D03*
G01*
X2359406Y1329893D03*
G01*
X2105406Y1329893D03*
G01*
X1851405Y1329893D03*
G01*
X1597405Y1329893D03*
G01*
X1343405Y1329893D03*
G01*
X1089405Y1329893D03*
G01*
X835405Y1329893D03*
G01*
X581405Y1329893D03*
G01*
X5255006Y1329893D03*
G01*
X5001006Y1329893D03*
G01*
X4747006Y1329893D03*
G01*
X4493006Y1329893D03*
G01*
X4239006Y1329893D03*
G01*
X3985006Y1329893D03*
G01*
X3731006Y1329893D03*
G01*
X3477006Y1329893D03*
D14*
G01*
X3797300Y254000D03*
G01*
X3543300Y254000D03*
G01*
X3302000Y5334000D03*
G01*
X3556000Y5334000D03*
M02*
