G04 Layer: TopPasteMaskLayer*
G04 EasyEDA v6.5.34, 2023-08-24 09:47:34*
G04 6bd15eb49b25482d8031a451c7c5e20c,5a6b42c53f6a479593ecc07194224c93,10*
G04 Gerber Generator version 0.2*
G04 Scale: 100 percent, Rotated: No, Reflected: No *
G04 Dimensions in millimeters *
G04 leading zeros omitted , absolute positions ,4 integer and 5 decimal *
%FSLAX45Y45*%
%MOMM*%

%ADD10R,0.9500X1.2000*%
%ADD11R,0.9000X0.8000*%
%ADD12R,1.0000X0.6000*%
%ADD13R,0.8000X0.8000*%
%ADD14R,0.5320X1.0375*%
%ADD15R,0.0120X1.0375*%

%LPD*%
G36*
X13031622Y-6927291D02*
G01*
X13026593Y-6932320D01*
X13026593Y-6955078D01*
X13063575Y-6955078D01*
X13063575Y-6988098D01*
X13026593Y-6988098D01*
X13026593Y-7012279D01*
X13031622Y-7017308D01*
X13111581Y-7017308D01*
X13116610Y-7012279D01*
X13116610Y-6932320D01*
X13111581Y-6927291D01*
G37*
G36*
X12872618Y-6927291D02*
G01*
X12867589Y-6932320D01*
X12867589Y-7012279D01*
X12872618Y-7017308D01*
X12951612Y-7017308D01*
X12956590Y-7012279D01*
X12956590Y-6988098D01*
X12918592Y-6988098D01*
X12918592Y-6955078D01*
X12956590Y-6955078D01*
X12956590Y-6932320D01*
X12951612Y-6927291D01*
G37*
G36*
X13031622Y-4387291D02*
G01*
X13026593Y-4392320D01*
X13026593Y-4415078D01*
X13063575Y-4415078D01*
X13063575Y-4448098D01*
X13026593Y-4448098D01*
X13026593Y-4472279D01*
X13031622Y-4477308D01*
X13111581Y-4477308D01*
X13116610Y-4472279D01*
X13116610Y-4392320D01*
X13111581Y-4387291D01*
G37*
G36*
X12872618Y-4387291D02*
G01*
X12867589Y-4392320D01*
X12867589Y-4472279D01*
X12872618Y-4477308D01*
X12951612Y-4477308D01*
X12956590Y-4472279D01*
X12956590Y-4448098D01*
X12918592Y-4448098D01*
X12918592Y-4415078D01*
X12956590Y-4415078D01*
X12956590Y-4392320D01*
X12951612Y-4387291D01*
G37*
G36*
X13031622Y1226108D02*
G01*
X13026593Y1221079D01*
X13026593Y1198321D01*
X13063575Y1198321D01*
X13063575Y1165301D01*
X13026593Y1165301D01*
X13026593Y1141120D01*
X13031622Y1136091D01*
X13111581Y1136091D01*
X13116610Y1141120D01*
X13116610Y1221079D01*
X13111581Y1226108D01*
G37*
G36*
X12872618Y1226108D02*
G01*
X12867589Y1221079D01*
X12867589Y1141120D01*
X12872618Y1136091D01*
X12951612Y1136091D01*
X12956590Y1141120D01*
X12956590Y1165301D01*
X12918592Y1165301D01*
X12918592Y1198321D01*
X12956590Y1198321D01*
X12956590Y1221079D01*
X12951612Y1226108D01*
G37*
G36*
X13031622Y654608D02*
G01*
X13026593Y649579D01*
X13026593Y626821D01*
X13063575Y626821D01*
X13063575Y593801D01*
X13026593Y593801D01*
X13026593Y569620D01*
X13031622Y564591D01*
X13111581Y564591D01*
X13116610Y569620D01*
X13116610Y649579D01*
X13111581Y654608D01*
G37*
G36*
X12872618Y654608D02*
G01*
X12867589Y649579D01*
X12867589Y569620D01*
X12872618Y564591D01*
X12951612Y564591D01*
X12956590Y569620D01*
X12956590Y593801D01*
X12918592Y593801D01*
X12918592Y626821D01*
X12956590Y626821D01*
X12956590Y649579D01*
X12951612Y654608D01*
G37*
G36*
X8650986Y-374091D02*
G01*
X8645956Y-379120D01*
X8645956Y-401878D01*
X8682939Y-401878D01*
X8682939Y-434898D01*
X8645956Y-434898D01*
X8645956Y-459079D01*
X8650986Y-464108D01*
X8730945Y-464108D01*
X8735974Y-459079D01*
X8735974Y-379120D01*
X8730945Y-374091D01*
G37*
G36*
X8491982Y-374091D02*
G01*
X8486952Y-379120D01*
X8486952Y-459079D01*
X8491982Y-464108D01*
X8570976Y-464108D01*
X8575954Y-459079D01*
X8575954Y-434898D01*
X8537956Y-434898D01*
X8537956Y-401878D01*
X8575954Y-401878D01*
X8575954Y-379120D01*
X8570976Y-374091D01*
G37*
G36*
X3812286Y-374091D02*
G01*
X3807256Y-379120D01*
X3807256Y-401878D01*
X3844239Y-401878D01*
X3844239Y-434898D01*
X3807256Y-434898D01*
X3807256Y-459079D01*
X3812286Y-464108D01*
X3892245Y-464108D01*
X3897274Y-459079D01*
X3897274Y-379120D01*
X3892245Y-374091D01*
G37*
G36*
X3653282Y-374091D02*
G01*
X3648252Y-379120D01*
X3648252Y-459079D01*
X3653282Y-464108D01*
X3732276Y-464108D01*
X3737254Y-459079D01*
X3737254Y-434898D01*
X3699256Y-434898D01*
X3699256Y-401878D01*
X3737254Y-401878D01*
X3737254Y-379120D01*
X3732276Y-374091D01*
G37*
G36*
X3126486Y-1644091D02*
G01*
X3121456Y-1649120D01*
X3121456Y-1671878D01*
X3158439Y-1671878D01*
X3158439Y-1704898D01*
X3121456Y-1704898D01*
X3121456Y-1729079D01*
X3126486Y-1734108D01*
X3206445Y-1734108D01*
X3211474Y-1729079D01*
X3211474Y-1649120D01*
X3206445Y-1644091D01*
G37*
G36*
X2967482Y-1644091D02*
G01*
X2962452Y-1649120D01*
X2962452Y-1729079D01*
X2967482Y-1734108D01*
X3046476Y-1734108D01*
X3051454Y-1729079D01*
X3051454Y-1704898D01*
X3013456Y-1704898D01*
X3013456Y-1671878D01*
X3051454Y-1671878D01*
X3051454Y-1649120D01*
X3046476Y-1644091D01*
G37*
G36*
X5539486Y-5708091D02*
G01*
X5534456Y-5713120D01*
X5534456Y-5735878D01*
X5571490Y-5735878D01*
X5571490Y-5768898D01*
X5534456Y-5768898D01*
X5534456Y-5793079D01*
X5539486Y-5798108D01*
X5619496Y-5798108D01*
X5624474Y-5793079D01*
X5624474Y-5713120D01*
X5619496Y-5708091D01*
G37*
G36*
X5380482Y-5708091D02*
G01*
X5375452Y-5713120D01*
X5375452Y-5793079D01*
X5380482Y-5798108D01*
X5459476Y-5798108D01*
X5464454Y-5793079D01*
X5464454Y-5768898D01*
X5426456Y-5768898D01*
X5426456Y-5735878D01*
X5464454Y-5735878D01*
X5464454Y-5713120D01*
X5459476Y-5708091D01*
G37*
G36*
X6225286Y-5708091D02*
G01*
X6220256Y-5713120D01*
X6220256Y-5735878D01*
X6257290Y-5735878D01*
X6257290Y-5768898D01*
X6220256Y-5768898D01*
X6220256Y-5793079D01*
X6225286Y-5798108D01*
X6305296Y-5798108D01*
X6310274Y-5793079D01*
X6310274Y-5713120D01*
X6305296Y-5708091D01*
G37*
G36*
X6066282Y-5708091D02*
G01*
X6061252Y-5713120D01*
X6061252Y-5793079D01*
X6066282Y-5798108D01*
X6145276Y-5798108D01*
X6150254Y-5793079D01*
X6150254Y-5768898D01*
X6112256Y-5768898D01*
X6112256Y-5735878D01*
X6150254Y-5735878D01*
X6150254Y-5713120D01*
X6145276Y-5708091D01*
G37*
G36*
X8612886Y-1644091D02*
G01*
X8607856Y-1649120D01*
X8607856Y-1671878D01*
X8644839Y-1671878D01*
X8644839Y-1704898D01*
X8607856Y-1704898D01*
X8607856Y-1729079D01*
X8612886Y-1734108D01*
X8692845Y-1734108D01*
X8697874Y-1729079D01*
X8697874Y-1649120D01*
X8692845Y-1644091D01*
G37*
G36*
X8453882Y-1644091D02*
G01*
X8448852Y-1649120D01*
X8448852Y-1729079D01*
X8453882Y-1734108D01*
X8532876Y-1734108D01*
X8537854Y-1729079D01*
X8537854Y-1704898D01*
X8499856Y-1704898D01*
X8499856Y-1671878D01*
X8537854Y-1671878D01*
X8537854Y-1649120D01*
X8532876Y-1644091D01*
G37*
G36*
X3126486Y-374091D02*
G01*
X3121456Y-379120D01*
X3121456Y-401878D01*
X3158439Y-401878D01*
X3158439Y-434898D01*
X3121456Y-434898D01*
X3121456Y-459079D01*
X3126486Y-464108D01*
X3206445Y-464108D01*
X3211474Y-459079D01*
X3211474Y-379120D01*
X3206445Y-374091D01*
G37*
G36*
X2967482Y-374091D02*
G01*
X2962452Y-379120D01*
X2962452Y-459079D01*
X2967482Y-464108D01*
X3046476Y-464108D01*
X3051454Y-459079D01*
X3051454Y-434898D01*
X3013456Y-434898D01*
X3013456Y-401878D01*
X3051454Y-401878D01*
X3051454Y-379120D01*
X3046476Y-374091D01*
G37*
G36*
X7977886Y-1644091D02*
G01*
X7972856Y-1649120D01*
X7972856Y-1671878D01*
X8009839Y-1671878D01*
X8009839Y-1704898D01*
X7972856Y-1704898D01*
X7972856Y-1729079D01*
X7977886Y-1734108D01*
X8057845Y-1734108D01*
X8062874Y-1729079D01*
X8062874Y-1649120D01*
X8057845Y-1644091D01*
G37*
G36*
X7818881Y-1644091D02*
G01*
X7813852Y-1649120D01*
X7813852Y-1729079D01*
X7818881Y-1734108D01*
X7897875Y-1734108D01*
X7902854Y-1729079D01*
X7902854Y-1704898D01*
X7864856Y-1704898D01*
X7864856Y-1671878D01*
X7902854Y-1671878D01*
X7902854Y-1649120D01*
X7897875Y-1644091D01*
G37*
G36*
X3469386Y-1644091D02*
G01*
X3464356Y-1649120D01*
X3464356Y-1671878D01*
X3501339Y-1671878D01*
X3501339Y-1704898D01*
X3464356Y-1704898D01*
X3464356Y-1729079D01*
X3469386Y-1734108D01*
X3549345Y-1734108D01*
X3554374Y-1729079D01*
X3554374Y-1649120D01*
X3549345Y-1644091D01*
G37*
G36*
X3310382Y-1644091D02*
G01*
X3305352Y-1649120D01*
X3305352Y-1729079D01*
X3310382Y-1734108D01*
X3389376Y-1734108D01*
X3394354Y-1729079D01*
X3394354Y-1704898D01*
X3356356Y-1704898D01*
X3356356Y-1671878D01*
X3394354Y-1671878D01*
X3394354Y-1649120D01*
X3389376Y-1644091D01*
G37*
G36*
X8295386Y-1644091D02*
G01*
X8290356Y-1649120D01*
X8290356Y-1671878D01*
X8327339Y-1671878D01*
X8327339Y-1704898D01*
X8290356Y-1704898D01*
X8290356Y-1729079D01*
X8295386Y-1734108D01*
X8375345Y-1734108D01*
X8380374Y-1729079D01*
X8380374Y-1649120D01*
X8375345Y-1644091D01*
G37*
G36*
X8136381Y-1644091D02*
G01*
X8131352Y-1649120D01*
X8131352Y-1729079D01*
X8136381Y-1734108D01*
X8215375Y-1734108D01*
X8220354Y-1729079D01*
X8220354Y-1704898D01*
X8182356Y-1704898D01*
X8182356Y-1671878D01*
X8220354Y-1671878D01*
X8220354Y-1649120D01*
X8215375Y-1644091D01*
G37*
G36*
X7965186Y-374091D02*
G01*
X7960156Y-379120D01*
X7960156Y-401878D01*
X7997139Y-401878D01*
X7997139Y-434898D01*
X7960156Y-434898D01*
X7960156Y-459079D01*
X7965186Y-464108D01*
X8045145Y-464108D01*
X8050174Y-459079D01*
X8050174Y-379120D01*
X8045145Y-374091D01*
G37*
G36*
X7806181Y-374091D02*
G01*
X7801152Y-379120D01*
X7801152Y-459079D01*
X7806181Y-464108D01*
X7885175Y-464108D01*
X7890154Y-459079D01*
X7890154Y-434898D01*
X7852156Y-434898D01*
X7852156Y-401878D01*
X7890154Y-401878D01*
X7890154Y-379120D01*
X7885175Y-374091D01*
G37*
G36*
X-653288Y-9797491D02*
G01*
X-658317Y-9802520D01*
X-658317Y-9825278D01*
X-621284Y-9825278D01*
X-621284Y-9858298D01*
X-658317Y-9858298D01*
X-658317Y-9882479D01*
X-653288Y-9887508D01*
X-573278Y-9887508D01*
X-568299Y-9882479D01*
X-568299Y-9802520D01*
X-573278Y-9797491D01*
G37*
G36*
X-812292Y-9797491D02*
G01*
X-817321Y-9802520D01*
X-817321Y-9882479D01*
X-812292Y-9887508D01*
X-733298Y-9887508D01*
X-728319Y-9882479D01*
X-728319Y-9858298D01*
X-766318Y-9858298D01*
X-766318Y-9825278D01*
X-728319Y-9825278D01*
X-728319Y-9802520D01*
X-733298Y-9797491D01*
G37*
G36*
X5882386Y-6927291D02*
G01*
X5877356Y-6932320D01*
X5877356Y-6955078D01*
X5914339Y-6955078D01*
X5914339Y-6988098D01*
X5877356Y-6988098D01*
X5877356Y-7012279D01*
X5882386Y-7017308D01*
X5962345Y-7017308D01*
X5967374Y-7012279D01*
X5967374Y-6932320D01*
X5962345Y-6927291D01*
G37*
G36*
X5723382Y-6927291D02*
G01*
X5718352Y-6932320D01*
X5718352Y-7012279D01*
X5723382Y-7017308D01*
X5802376Y-7017308D01*
X5807354Y-7012279D01*
X5807354Y-6988098D01*
X5769356Y-6988098D01*
X5769356Y-6955078D01*
X5807354Y-6955078D01*
X5807354Y-6932320D01*
X5802376Y-6927291D01*
G37*
G36*
X-1030478Y-10448086D02*
G01*
X-1037234Y-10448493D01*
X-1043889Y-10449763D01*
X-1050340Y-10451795D01*
X-1056487Y-10454640D01*
X-1062278Y-10458196D01*
X-1067562Y-10462463D01*
X-1072235Y-10467289D01*
X-1076350Y-10472724D01*
X-1079703Y-10478566D01*
X-1082344Y-10484815D01*
X-1084224Y-10491317D01*
X-1085240Y-10498023D01*
X-1085443Y-10504779D01*
X-1084834Y-10511536D01*
X-1083411Y-10518140D01*
X-1081125Y-10524540D01*
X-1078128Y-10530586D01*
X-1074369Y-10536224D01*
X-1069949Y-10541406D01*
X-1064971Y-10545927D01*
X-1062278Y-10548010D01*
X-1056487Y-10551566D01*
X-1050340Y-10554360D01*
X-1047140Y-10555528D01*
X-1040587Y-10557154D01*
X-1033881Y-10558018D01*
X-940460Y-10558119D01*
X-933703Y-10557662D01*
X-927049Y-10556443D01*
X-923798Y-10555528D01*
X-917498Y-10553039D01*
X-914450Y-10551566D01*
X-908710Y-10548010D01*
X-903427Y-10543743D01*
X-898702Y-10538866D01*
X-894638Y-10533481D01*
X-891235Y-10527639D01*
X-888593Y-10521391D01*
X-886764Y-10514888D01*
X-885698Y-10508183D01*
X-885494Y-10501426D01*
X-885698Y-10498023D01*
X-886764Y-10491317D01*
X-888593Y-10484815D01*
X-891235Y-10478566D01*
X-894638Y-10472724D01*
X-898702Y-10467289D01*
X-903427Y-10462463D01*
X-908710Y-10458196D01*
X-914450Y-10454640D01*
X-920597Y-10451795D01*
X-927049Y-10449763D01*
X-933703Y-10448493D01*
X-940460Y-10448086D01*
G37*
G36*
X-1030478Y-9584080D02*
G01*
X-1037234Y-9584486D01*
X-1043889Y-9585756D01*
X-1050340Y-9587788D01*
X-1056487Y-9590633D01*
X-1062278Y-9594189D01*
X-1067562Y-9598456D01*
X-1072235Y-9603282D01*
X-1076350Y-9608718D01*
X-1079703Y-9614560D01*
X-1082344Y-9620808D01*
X-1084224Y-9627311D01*
X-1085240Y-9634016D01*
X-1085443Y-9640773D01*
X-1084834Y-9647529D01*
X-1083411Y-9654133D01*
X-1081125Y-9660534D01*
X-1078128Y-9666579D01*
X-1074369Y-9672218D01*
X-1069949Y-9677400D01*
X-1064971Y-9681921D01*
X-1062278Y-9684004D01*
X-1056487Y-9687560D01*
X-1050340Y-9690354D01*
X-1047140Y-9691522D01*
X-1040587Y-9693148D01*
X-1033881Y-9694011D01*
X-940460Y-9694113D01*
X-933703Y-9693656D01*
X-927049Y-9692436D01*
X-923798Y-9691522D01*
X-917498Y-9689033D01*
X-914450Y-9687560D01*
X-908710Y-9684004D01*
X-903427Y-9679736D01*
X-898702Y-9674860D01*
X-894638Y-9669475D01*
X-891235Y-9663633D01*
X-888593Y-9657384D01*
X-886764Y-9650882D01*
X-885698Y-9644176D01*
X-885494Y-9637420D01*
X-885698Y-9634016D01*
X-886764Y-9627311D01*
X-888593Y-9620808D01*
X-891235Y-9614560D01*
X-894638Y-9608718D01*
X-898702Y-9603282D01*
X-903427Y-9598456D01*
X-908710Y-9594189D01*
X-914450Y-9590633D01*
X-920597Y-9587788D01*
X-927049Y-9585756D01*
X-933703Y-9584486D01*
X-940460Y-9584080D01*
G37*
G36*
X-1410512Y-9584080D02*
G01*
X-1417269Y-9584486D01*
X-1423924Y-9585756D01*
X-1430375Y-9587788D01*
X-1436522Y-9590633D01*
X-1442262Y-9594189D01*
X-1447546Y-9598456D01*
X-1452270Y-9603282D01*
X-1456334Y-9608718D01*
X-1459738Y-9614560D01*
X-1462379Y-9620808D01*
X-1464208Y-9627311D01*
X-1465275Y-9634016D01*
X-1465478Y-9640773D01*
X-1464868Y-9647529D01*
X-1463395Y-9654133D01*
X-1461160Y-9660534D01*
X-1458112Y-9666579D01*
X-1454404Y-9672218D01*
X-1449984Y-9677400D01*
X-1444955Y-9681921D01*
X-1442262Y-9684004D01*
X-1436522Y-9687560D01*
X-1430375Y-9690354D01*
X-1427175Y-9691522D01*
X-1420622Y-9693148D01*
X-1413865Y-9694011D01*
X-1317091Y-9694011D01*
X-1310386Y-9693148D01*
X-1303832Y-9691522D01*
X-1297482Y-9689033D01*
X-1291539Y-9685832D01*
X-1288694Y-9684004D01*
X-1283462Y-9679736D01*
X-1278737Y-9674860D01*
X-1274622Y-9669475D01*
X-1271270Y-9663633D01*
X-1268628Y-9657384D01*
X-1266748Y-9650882D01*
X-1265732Y-9644176D01*
X-1265529Y-9637420D01*
X-1266139Y-9630664D01*
X-1266748Y-9627311D01*
X-1268628Y-9620808D01*
X-1271270Y-9614560D01*
X-1274622Y-9608718D01*
X-1278737Y-9603282D01*
X-1283462Y-9598456D01*
X-1288694Y-9594189D01*
X-1294485Y-9590633D01*
X-1300632Y-9587788D01*
X-1307084Y-9585756D01*
X-1313738Y-9584486D01*
X-1320495Y-9584080D01*
G37*
G36*
X-1410512Y-10448086D02*
G01*
X-1417269Y-10448493D01*
X-1423924Y-10449763D01*
X-1430375Y-10451795D01*
X-1436522Y-10454640D01*
X-1442262Y-10458196D01*
X-1447546Y-10462463D01*
X-1452270Y-10467289D01*
X-1456334Y-10472724D01*
X-1459738Y-10478566D01*
X-1462379Y-10484815D01*
X-1464208Y-10491317D01*
X-1465275Y-10498023D01*
X-1465478Y-10504779D01*
X-1464868Y-10511536D01*
X-1463395Y-10518140D01*
X-1461160Y-10524540D01*
X-1458112Y-10530586D01*
X-1454404Y-10536224D01*
X-1449984Y-10541406D01*
X-1444955Y-10545927D01*
X-1442262Y-10548010D01*
X-1436522Y-10551566D01*
X-1430375Y-10554360D01*
X-1427175Y-10555528D01*
X-1420622Y-10557154D01*
X-1413865Y-10558018D01*
X-1317091Y-10558018D01*
X-1310386Y-10557154D01*
X-1303832Y-10555528D01*
X-1297482Y-10553039D01*
X-1291539Y-10549839D01*
X-1288694Y-10548010D01*
X-1283462Y-10543743D01*
X-1278737Y-10538866D01*
X-1274622Y-10533481D01*
X-1271270Y-10527639D01*
X-1268628Y-10521391D01*
X-1266748Y-10514888D01*
X-1265732Y-10508183D01*
X-1265529Y-10501426D01*
X-1266139Y-10494670D01*
X-1266748Y-10491317D01*
X-1268628Y-10484815D01*
X-1271270Y-10478566D01*
X-1274622Y-10472724D01*
X-1278737Y-10467289D01*
X-1283462Y-10462463D01*
X-1288694Y-10458196D01*
X-1294485Y-10454640D01*
X-1300632Y-10451795D01*
X-1307084Y-10449763D01*
X-1313738Y-10448493D01*
X-1320495Y-10448086D01*
G37*
G36*
X-1055725Y-9981082D02*
G01*
X-1055725Y-10061092D01*
X-915720Y-10061092D01*
X-915720Y-9981082D01*
G37*
G36*
X-1055725Y-10081056D02*
G01*
X-1055725Y-10161066D01*
X-915720Y-10161066D01*
X-915720Y-10081056D01*
G37*
G36*
X-1055573Y-10183114D02*
G01*
X-1055573Y-10263073D01*
X-915568Y-10263073D01*
X-915568Y-10183114D01*
G37*
G36*
X-1055319Y-9879126D02*
G01*
X-1055319Y-9959086D01*
X-915314Y-9959086D01*
X-915314Y-9879126D01*
G37*
G36*
X-1055471Y-10306100D02*
G01*
X-1055471Y-10386110D01*
X-915466Y-10386110D01*
X-915466Y-10306100D01*
G37*
G36*
X-1055471Y-9756089D02*
G01*
X-1055471Y-9836099D01*
X-915466Y-9836099D01*
X-915466Y-9756089D01*
G37*
G36*
X290982Y-10239044D02*
G01*
X280974Y-10249052D01*
X280974Y-10344505D01*
X290982Y-10354513D01*
X318820Y-10354513D01*
X328777Y-10364520D01*
X328777Y-10463479D01*
X318820Y-10473486D01*
X290982Y-10473486D01*
X280974Y-10483494D01*
X280974Y-10578947D01*
X290982Y-10588955D01*
X411632Y-10588955D01*
X421640Y-10578947D01*
X421640Y-10249052D01*
X411632Y-10239044D01*
G37*
G36*
X-79705Y-10239044D02*
G01*
X-89712Y-10249052D01*
X-89712Y-10578947D01*
X-79705Y-10588955D01*
X40995Y-10588955D01*
X50952Y-10578947D01*
X50952Y-10483494D01*
X40995Y-10473486D01*
X13157Y-10473486D01*
X3149Y-10463479D01*
X3149Y-10364520D01*
X13157Y-10354513D01*
X40995Y-10354513D01*
X50952Y-10344505D01*
X50952Y-10249052D01*
X40995Y-10239044D01*
G37*
G36*
X-156718Y-9708591D02*
G01*
X-161747Y-9713569D01*
X-161747Y-9793579D01*
X-156718Y-9798608D01*
X-76708Y-9798608D01*
X-71729Y-9793579D01*
X-71729Y-9770770D01*
X-108712Y-9770770D01*
X-108712Y-9737801D01*
X-71729Y-9737801D01*
X-71729Y-9713569D01*
X-76708Y-9708591D01*
G37*
G36*
X3251Y-9708591D02*
G01*
X-1727Y-9713569D01*
X-1727Y-9737801D01*
X36271Y-9737801D01*
X36271Y-9770770D01*
X-1727Y-9770770D01*
X-1727Y-9793579D01*
X3251Y-9798608D01*
X82245Y-9798608D01*
X87274Y-9793579D01*
X87274Y-9713569D01*
X82245Y-9708591D01*
G37*
G36*
X529082Y-9708591D02*
G01*
X524052Y-9713569D01*
X524052Y-9793579D01*
X529082Y-9798608D01*
X609092Y-9798608D01*
X614070Y-9793579D01*
X614070Y-9770770D01*
X577088Y-9770770D01*
X577088Y-9737801D01*
X614070Y-9737801D01*
X614070Y-9713569D01*
X609092Y-9708591D01*
G37*
G36*
X689051Y-9708591D02*
G01*
X684072Y-9713569D01*
X684072Y-9737801D01*
X722071Y-9737801D01*
X722071Y-9770770D01*
X684072Y-9770770D01*
X684072Y-9793579D01*
X689051Y-9798608D01*
X768045Y-9798608D01*
X773074Y-9793579D01*
X773074Y-9713569D01*
X768045Y-9708591D01*
G37*
G36*
X-812292Y-9949891D02*
G01*
X-817321Y-9954869D01*
X-817321Y-10034879D01*
X-812292Y-10039908D01*
X-732282Y-10039908D01*
X-727303Y-10034879D01*
X-727303Y-10012121D01*
X-764286Y-10012121D01*
X-764286Y-9979101D01*
X-727303Y-9979101D01*
X-727303Y-9954869D01*
X-732282Y-9949891D01*
G37*
G36*
X-652322Y-9949891D02*
G01*
X-657301Y-9954869D01*
X-657301Y-9979101D01*
X-619302Y-9979101D01*
X-619302Y-10012121D01*
X-657301Y-10012121D01*
X-657301Y-10034879D01*
X-652322Y-10039908D01*
X-573328Y-10039908D01*
X-568299Y-10034879D01*
X-568299Y-9954869D01*
X-573328Y-9949891D01*
G37*
G36*
X-812292Y-10102291D02*
G01*
X-817321Y-10107269D01*
X-817321Y-10187279D01*
X-812292Y-10192308D01*
X-732282Y-10192308D01*
X-727303Y-10187279D01*
X-727303Y-10164521D01*
X-764286Y-10164521D01*
X-764286Y-10131501D01*
X-727303Y-10131501D01*
X-727303Y-10107269D01*
X-732282Y-10102291D01*
G37*
G36*
X-652322Y-10102291D02*
G01*
X-657301Y-10107269D01*
X-657301Y-10131501D01*
X-619302Y-10131501D01*
X-619302Y-10164521D01*
X-657301Y-10164521D01*
X-657301Y-10187279D01*
X-652322Y-10192308D01*
X-573328Y-10192308D01*
X-568299Y-10187279D01*
X-568299Y-10107269D01*
X-573328Y-10102291D01*
G37*
G36*
X1131570Y-6430111D02*
G01*
X1090523Y-6430619D01*
X1085545Y-6435598D01*
X1085545Y-6550609D01*
X1090523Y-6555587D01*
X1218539Y-6555587D01*
X1223568Y-6550609D01*
X1223568Y-6435598D01*
X1218539Y-6430619D01*
X1176528Y-6431127D01*
X1176528Y-6475120D01*
X1131570Y-6475120D01*
G37*
G36*
X1090523Y-6215583D02*
G01*
X1085545Y-6220612D01*
X1085545Y-6335623D01*
X1090523Y-6340602D01*
X1131570Y-6340094D01*
X1131570Y-6296101D01*
X1176528Y-6296101D01*
X1176528Y-6340602D01*
X1218539Y-6340602D01*
X1223568Y-6335623D01*
X1223568Y-6220612D01*
X1218539Y-6215583D01*
G37*
G36*
X-245668Y-5149291D02*
G01*
X-250647Y-5154320D01*
X-250647Y-5234279D01*
X-245668Y-5239308D01*
X-165658Y-5239308D01*
X-160629Y-5234279D01*
X-160629Y-5211521D01*
X-197662Y-5211521D01*
X-197662Y-5178501D01*
X-160629Y-5178501D01*
X-160629Y-5154320D01*
X-165658Y-5149291D01*
G37*
G36*
X-85648Y-5149291D02*
G01*
X-90627Y-5154320D01*
X-90627Y-5178501D01*
X-52628Y-5178501D01*
X-52628Y-5211521D01*
X-90627Y-5211521D01*
X-90627Y-5234279D01*
X-85648Y-5239308D01*
X-6654Y-5239308D01*
X-1676Y-5234279D01*
X-1676Y-5154320D01*
X-6654Y-5149291D01*
G37*
G36*
X-245668Y-5657291D02*
G01*
X-250647Y-5662320D01*
X-250647Y-5742279D01*
X-245668Y-5747308D01*
X-165658Y-5747308D01*
X-160629Y-5742279D01*
X-160629Y-5719521D01*
X-197662Y-5719521D01*
X-197662Y-5686501D01*
X-160629Y-5686501D01*
X-160629Y-5662320D01*
X-165658Y-5657291D01*
G37*
G36*
X-85648Y-5657291D02*
G01*
X-90627Y-5662320D01*
X-90627Y-5686501D01*
X-52628Y-5686501D01*
X-52628Y-5719521D01*
X-90627Y-5719521D01*
X-90627Y-5742279D01*
X-85648Y-5747308D01*
X-6654Y-5747308D01*
X-1676Y-5742279D01*
X-1676Y-5662320D01*
X-6654Y-5657291D01*
G37*
G36*
X-245668Y-6165291D02*
G01*
X-250647Y-6170320D01*
X-250647Y-6250279D01*
X-245668Y-6255308D01*
X-165658Y-6255308D01*
X-160629Y-6250279D01*
X-160629Y-6227521D01*
X-197662Y-6227521D01*
X-197662Y-6194501D01*
X-160629Y-6194501D01*
X-160629Y-6170320D01*
X-165658Y-6165291D01*
G37*
G36*
X-85648Y-6165291D02*
G01*
X-90627Y-6170320D01*
X-90627Y-6194501D01*
X-52628Y-6194501D01*
X-52628Y-6227521D01*
X-90627Y-6227521D01*
X-90627Y-6250279D01*
X-85648Y-6255308D01*
X-6654Y-6255308D01*
X-1676Y-6250279D01*
X-1676Y-6170320D01*
X-6654Y-6165291D01*
G37*
G36*
X-245668Y-7181291D02*
G01*
X-250647Y-7186320D01*
X-250647Y-7266279D01*
X-245668Y-7271308D01*
X-165658Y-7271308D01*
X-160629Y-7266279D01*
X-160629Y-7243521D01*
X-197662Y-7243521D01*
X-197662Y-7210501D01*
X-160629Y-7210501D01*
X-160629Y-7186320D01*
X-165658Y-7181291D01*
G37*
G36*
X-85648Y-7181291D02*
G01*
X-90627Y-7186320D01*
X-90627Y-7210501D01*
X-52628Y-7210501D01*
X-52628Y-7243521D01*
X-90627Y-7243521D01*
X-90627Y-7266279D01*
X-85648Y-7271308D01*
X-6654Y-7271308D01*
X-1676Y-7266279D01*
X-1676Y-7186320D01*
X-6654Y-7181291D01*
G37*
G36*
X-245668Y-6673291D02*
G01*
X-250647Y-6678320D01*
X-250647Y-6758279D01*
X-245668Y-6763308D01*
X-165658Y-6763308D01*
X-160629Y-6758279D01*
X-160629Y-6735521D01*
X-197662Y-6735521D01*
X-197662Y-6702501D01*
X-160629Y-6702501D01*
X-160629Y-6678320D01*
X-165658Y-6673291D01*
G37*
G36*
X-85648Y-6673291D02*
G01*
X-90627Y-6678320D01*
X-90627Y-6702501D01*
X-52628Y-6702501D01*
X-52628Y-6735521D01*
X-90627Y-6735521D01*
X-90627Y-6758279D01*
X-85648Y-6763308D01*
X-6654Y-6763308D01*
X-1676Y-6758279D01*
X-1676Y-6678320D01*
X-6654Y-6673291D01*
G37*
G36*
X11297818Y-4387291D02*
G01*
X11292789Y-4392320D01*
X11292789Y-4472279D01*
X11297818Y-4477308D01*
X11377777Y-4477308D01*
X11382806Y-4472279D01*
X11382806Y-4449521D01*
X11345773Y-4449521D01*
X11345773Y-4416501D01*
X11382806Y-4416501D01*
X11382806Y-4392320D01*
X11377777Y-4387291D01*
G37*
G36*
X11457787Y-4387291D02*
G01*
X11452809Y-4392320D01*
X11452809Y-4416501D01*
X11490807Y-4416501D01*
X11490807Y-4449521D01*
X11452809Y-4449521D01*
X11452809Y-4472279D01*
X11457787Y-4477308D01*
X11536781Y-4477308D01*
X11541810Y-4472279D01*
X11541810Y-4392320D01*
X11536781Y-4387291D01*
G37*
G36*
X13031622Y-3701491D02*
G01*
X13026593Y-3706520D01*
X13026593Y-3729278D01*
X13063575Y-3729278D01*
X13063575Y-3762298D01*
X13026593Y-3762298D01*
X13026593Y-3786479D01*
X13031622Y-3791508D01*
X13111581Y-3791508D01*
X13116610Y-3786479D01*
X13116610Y-3706520D01*
X13111581Y-3701491D01*
G37*
G36*
X12872618Y-3701491D02*
G01*
X12867589Y-3706520D01*
X12867589Y-3786479D01*
X12872618Y-3791508D01*
X12951612Y-3791508D01*
X12956590Y-3786479D01*
X12956590Y-3762298D01*
X12918592Y-3762298D01*
X12918592Y-3729278D01*
X12956590Y-3729278D01*
X12956590Y-3706520D01*
X12951612Y-3701491D01*
G37*
G36*
X11297818Y-3701491D02*
G01*
X11292789Y-3706520D01*
X11292789Y-3786479D01*
X11297818Y-3791508D01*
X11377777Y-3791508D01*
X11382806Y-3786479D01*
X11382806Y-3763721D01*
X11345773Y-3763721D01*
X11345773Y-3730701D01*
X11382806Y-3730701D01*
X11382806Y-3706520D01*
X11377777Y-3701491D01*
G37*
G36*
X11457787Y-3701491D02*
G01*
X11452809Y-3706520D01*
X11452809Y-3730701D01*
X11490807Y-3730701D01*
X11490807Y-3763721D01*
X11452809Y-3763721D01*
X11452809Y-3786479D01*
X11457787Y-3791508D01*
X11536781Y-3791508D01*
X11541810Y-3786479D01*
X11541810Y-3706520D01*
X11536781Y-3701491D01*
G37*
G36*
X13031622Y-3117291D02*
G01*
X13026593Y-3122320D01*
X13026593Y-3145078D01*
X13063575Y-3145078D01*
X13063575Y-3178098D01*
X13026593Y-3178098D01*
X13026593Y-3202279D01*
X13031622Y-3207308D01*
X13111581Y-3207308D01*
X13116610Y-3202279D01*
X13116610Y-3122320D01*
X13111581Y-3117291D01*
G37*
G36*
X12872618Y-3117291D02*
G01*
X12867589Y-3122320D01*
X12867589Y-3202279D01*
X12872618Y-3207308D01*
X12951612Y-3207308D01*
X12956590Y-3202279D01*
X12956590Y-3178098D01*
X12918592Y-3178098D01*
X12918592Y-3145078D01*
X12956590Y-3145078D01*
X12956590Y-3122320D01*
X12951612Y-3117291D01*
G37*
G36*
X11297818Y-3117291D02*
G01*
X11292789Y-3122320D01*
X11292789Y-3202279D01*
X11297818Y-3207308D01*
X11377777Y-3207308D01*
X11382806Y-3202279D01*
X11382806Y-3179521D01*
X11345773Y-3179521D01*
X11345773Y-3146501D01*
X11382806Y-3146501D01*
X11382806Y-3122320D01*
X11377777Y-3117291D01*
G37*
G36*
X11457787Y-3117291D02*
G01*
X11452809Y-3122320D01*
X11452809Y-3146501D01*
X11490807Y-3146501D01*
X11490807Y-3179521D01*
X11452809Y-3179521D01*
X11452809Y-3202279D01*
X11457787Y-3207308D01*
X11536781Y-3207308D01*
X11541810Y-3202279D01*
X11541810Y-3122320D01*
X11536781Y-3117291D01*
G37*
G36*
X13031622Y-2545791D02*
G01*
X13026593Y-2550820D01*
X13026593Y-2573578D01*
X13063575Y-2573578D01*
X13063575Y-2606598D01*
X13026593Y-2606598D01*
X13026593Y-2630779D01*
X13031622Y-2635808D01*
X13111581Y-2635808D01*
X13116610Y-2630779D01*
X13116610Y-2550820D01*
X13111581Y-2545791D01*
G37*
G36*
X12872618Y-2545791D02*
G01*
X12867589Y-2550820D01*
X12867589Y-2630779D01*
X12872618Y-2635808D01*
X12951612Y-2635808D01*
X12956590Y-2630779D01*
X12956590Y-2606598D01*
X12918592Y-2606598D01*
X12918592Y-2573578D01*
X12956590Y-2573578D01*
X12956590Y-2550820D01*
X12951612Y-2545791D01*
G37*
G36*
X11297818Y-2533091D02*
G01*
X11292789Y-2538120D01*
X11292789Y-2618079D01*
X11297818Y-2623108D01*
X11377777Y-2623108D01*
X11382806Y-2618079D01*
X11382806Y-2595321D01*
X11345773Y-2595321D01*
X11345773Y-2562301D01*
X11382806Y-2562301D01*
X11382806Y-2538120D01*
X11377777Y-2533091D01*
G37*
G36*
X11457787Y-2533091D02*
G01*
X11452809Y-2538120D01*
X11452809Y-2562301D01*
X11490807Y-2562301D01*
X11490807Y-2595321D01*
X11452809Y-2595321D01*
X11452809Y-2618079D01*
X11457787Y-2623108D01*
X11536781Y-2623108D01*
X11541810Y-2618079D01*
X11541810Y-2538120D01*
X11536781Y-2533091D01*
G37*
G36*
X13031622Y-1885391D02*
G01*
X13026593Y-1890420D01*
X13026593Y-1913178D01*
X13063575Y-1913178D01*
X13063575Y-1946198D01*
X13026593Y-1946198D01*
X13026593Y-1970379D01*
X13031622Y-1975408D01*
X13111581Y-1975408D01*
X13116610Y-1970379D01*
X13116610Y-1890420D01*
X13111581Y-1885391D01*
G37*
G36*
X12872618Y-1885391D02*
G01*
X12867589Y-1890420D01*
X12867589Y-1970379D01*
X12872618Y-1975408D01*
X12951612Y-1975408D01*
X12956590Y-1970379D01*
X12956590Y-1946198D01*
X12918592Y-1946198D01*
X12918592Y-1913178D01*
X12956590Y-1913178D01*
X12956590Y-1890420D01*
X12951612Y-1885391D01*
G37*
G36*
X11297818Y-2342591D02*
G01*
X11292789Y-2347620D01*
X11292789Y-2427579D01*
X11297818Y-2432608D01*
X11377777Y-2432608D01*
X11382806Y-2427579D01*
X11382806Y-2404821D01*
X11345773Y-2404821D01*
X11345773Y-2371801D01*
X11382806Y-2371801D01*
X11382806Y-2347620D01*
X11377777Y-2342591D01*
G37*
G36*
X11457787Y-2342591D02*
G01*
X11452809Y-2347620D01*
X11452809Y-2371801D01*
X11490807Y-2371801D01*
X11490807Y-2404821D01*
X11452809Y-2404821D01*
X11452809Y-2427579D01*
X11457787Y-2432608D01*
X11536781Y-2432608D01*
X11541810Y-2427579D01*
X11541810Y-2347620D01*
X11536781Y-2342591D01*
G37*
G36*
X13031622Y-1301191D02*
G01*
X13026593Y-1306220D01*
X13026593Y-1328978D01*
X13063575Y-1328978D01*
X13063575Y-1361998D01*
X13026593Y-1361998D01*
X13026593Y-1386179D01*
X13031622Y-1391208D01*
X13111581Y-1391208D01*
X13116610Y-1386179D01*
X13116610Y-1306220D01*
X13111581Y-1301191D01*
G37*
G36*
X12872618Y-1301191D02*
G01*
X12867589Y-1306220D01*
X12867589Y-1386179D01*
X12872618Y-1391208D01*
X12951612Y-1391208D01*
X12956590Y-1386179D01*
X12956590Y-1361998D01*
X12918592Y-1361998D01*
X12918592Y-1328978D01*
X12956590Y-1328978D01*
X12956590Y-1306220D01*
X12951612Y-1301191D01*
G37*
G36*
X11285118Y-843991D02*
G01*
X11280089Y-849020D01*
X11280089Y-928979D01*
X11285118Y-934008D01*
X11365077Y-934008D01*
X11370106Y-928979D01*
X11370106Y-906221D01*
X11333073Y-906221D01*
X11333073Y-873201D01*
X11370106Y-873201D01*
X11370106Y-849020D01*
X11365077Y-843991D01*
G37*
G36*
X11445087Y-843991D02*
G01*
X11440109Y-849020D01*
X11440109Y-873201D01*
X11478107Y-873201D01*
X11478107Y-906221D01*
X11440109Y-906221D01*
X11440109Y-928979D01*
X11445087Y-934008D01*
X11524081Y-934008D01*
X11529110Y-928979D01*
X11529110Y-849020D01*
X11524081Y-843991D01*
G37*
G36*
X13031622Y-323291D02*
G01*
X13026593Y-328320D01*
X13026593Y-351078D01*
X13063575Y-351078D01*
X13063575Y-384098D01*
X13026593Y-384098D01*
X13026593Y-408279D01*
X13031622Y-413308D01*
X13111581Y-413308D01*
X13116610Y-408279D01*
X13116610Y-328320D01*
X13111581Y-323291D01*
G37*
G36*
X12872618Y-323291D02*
G01*
X12867589Y-328320D01*
X12867589Y-408279D01*
X12872618Y-413308D01*
X12951612Y-413308D01*
X12956590Y-408279D01*
X12956590Y-384098D01*
X12918592Y-384098D01*
X12918592Y-351078D01*
X12956590Y-351078D01*
X12956590Y-328320D01*
X12951612Y-323291D01*
G37*
G36*
X11285118Y-488391D02*
G01*
X11280089Y-493420D01*
X11280089Y-573379D01*
X11285118Y-578408D01*
X11365077Y-578408D01*
X11370106Y-573379D01*
X11370106Y-550621D01*
X11333073Y-550621D01*
X11333073Y-517601D01*
X11370106Y-517601D01*
X11370106Y-493420D01*
X11365077Y-488391D01*
G37*
G36*
X11445087Y-488391D02*
G01*
X11440109Y-493420D01*
X11440109Y-517601D01*
X11478107Y-517601D01*
X11478107Y-550621D01*
X11440109Y-550621D01*
X11440109Y-573379D01*
X11445087Y-578408D01*
X11524081Y-578408D01*
X11529110Y-573379D01*
X11529110Y-493420D01*
X11524081Y-488391D01*
G37*
G36*
X11297818Y654608D02*
G01*
X11292789Y649579D01*
X11292789Y569620D01*
X11297818Y564591D01*
X11377777Y564591D01*
X11382806Y569620D01*
X11382806Y592378D01*
X11345773Y592378D01*
X11345773Y625398D01*
X11382806Y625398D01*
X11382806Y649579D01*
X11377777Y654608D01*
G37*
G36*
X11457787Y654608D02*
G01*
X11452809Y649579D01*
X11452809Y625398D01*
X11490807Y625398D01*
X11490807Y592378D01*
X11452809Y592378D01*
X11452809Y569620D01*
X11457787Y564591D01*
X11536781Y564591D01*
X11541810Y569620D01*
X11541810Y649579D01*
X11536781Y654608D01*
G37*
G36*
X11297818Y1226108D02*
G01*
X11292789Y1221079D01*
X11292789Y1141120D01*
X11297818Y1136091D01*
X11377777Y1136091D01*
X11382806Y1141120D01*
X11382806Y1163878D01*
X11345773Y1163878D01*
X11345773Y1196898D01*
X11382806Y1196898D01*
X11382806Y1221079D01*
X11377777Y1226108D01*
G37*
G36*
X11457787Y1226108D02*
G01*
X11452809Y1221079D01*
X11452809Y1196898D01*
X11490807Y1196898D01*
X11490807Y1163878D01*
X11452809Y1163878D01*
X11452809Y1141120D01*
X11457787Y1136091D01*
X11536781Y1136091D01*
X11541810Y1141120D01*
X11541810Y1221079D01*
X11536781Y1226108D01*
G37*
G36*
X-1402181Y438708D02*
G01*
X-1407210Y433679D01*
X-1407210Y353720D01*
X-1402181Y348691D01*
X-1322222Y348691D01*
X-1317193Y353720D01*
X-1317193Y376478D01*
X-1354226Y376478D01*
X-1354226Y409498D01*
X-1317193Y409498D01*
X-1317193Y433679D01*
X-1322222Y438708D01*
G37*
G36*
X-1242212Y438708D02*
G01*
X-1247190Y433679D01*
X-1247190Y409498D01*
X-1209192Y409498D01*
X-1209192Y376478D01*
X-1247190Y376478D01*
X-1247190Y353720D01*
X-1242212Y348691D01*
X-1163218Y348691D01*
X-1158189Y353720D01*
X-1158189Y433679D01*
X-1163218Y438708D01*
G37*
G36*
X-35814Y45008D02*
G01*
X-40843Y39979D01*
X-40843Y17221D01*
X-3860Y17221D01*
X-3860Y-15798D01*
X-40843Y-15798D01*
X-40843Y-39979D01*
X-35814Y-45008D01*
X44145Y-45008D01*
X49174Y-39979D01*
X49174Y39979D01*
X44145Y45008D01*
G37*
G36*
X-194818Y45008D02*
G01*
X-199847Y39979D01*
X-199847Y-39979D01*
X-194818Y-45008D01*
X-115824Y-45008D01*
X-110845Y-39979D01*
X-110845Y-15798D01*
X-148844Y-15798D01*
X-148844Y17221D01*
X-110845Y17221D01*
X-110845Y39979D01*
X-115824Y45008D01*
G37*
G36*
X-1402181Y-2863291D02*
G01*
X-1407210Y-2868320D01*
X-1407210Y-2948279D01*
X-1402181Y-2953308D01*
X-1322222Y-2953308D01*
X-1317193Y-2948279D01*
X-1317193Y-2925521D01*
X-1354226Y-2925521D01*
X-1354226Y-2892501D01*
X-1317193Y-2892501D01*
X-1317193Y-2868320D01*
X-1322222Y-2863291D01*
G37*
G36*
X-1242212Y-2863291D02*
G01*
X-1247190Y-2868320D01*
X-1247190Y-2892501D01*
X-1209192Y-2892501D01*
X-1209192Y-2925521D01*
X-1247190Y-2925521D01*
X-1247190Y-2948279D01*
X-1242212Y-2953308D01*
X-1163218Y-2953308D01*
X-1158189Y-2948279D01*
X-1158189Y-2868320D01*
X-1163218Y-2863291D01*
G37*
G36*
X-36677Y-3256991D02*
G01*
X-41706Y-3262020D01*
X-41706Y-3284778D01*
X-4724Y-3284778D01*
X-4724Y-3317798D01*
X-41706Y-3317798D01*
X-41706Y-3341979D01*
X-36677Y-3347008D01*
X43281Y-3347008D01*
X48310Y-3341979D01*
X48310Y-3262020D01*
X43281Y-3256991D01*
G37*
G36*
X-195681Y-3256991D02*
G01*
X-200710Y-3262020D01*
X-200710Y-3341979D01*
X-195681Y-3347008D01*
X-116687Y-3347008D01*
X-111709Y-3341979D01*
X-111709Y-3317798D01*
X-149707Y-3317798D01*
X-149707Y-3284778D01*
X-111709Y-3284778D01*
X-111709Y-3262020D01*
X-116687Y-3256991D01*
G37*
G36*
X11297818Y-6927291D02*
G01*
X11292789Y-6932320D01*
X11292789Y-7012279D01*
X11297818Y-7017308D01*
X11377777Y-7017308D01*
X11382806Y-7012279D01*
X11382806Y-6989521D01*
X11345773Y-6989521D01*
X11345773Y-6956501D01*
X11382806Y-6956501D01*
X11382806Y-6932320D01*
X11377777Y-6927291D01*
G37*
G36*
X11457787Y-6927291D02*
G01*
X11452809Y-6932320D01*
X11452809Y-6956501D01*
X11490807Y-6956501D01*
X11490807Y-6989521D01*
X11452809Y-6989521D01*
X11452809Y-7012279D01*
X11457787Y-7017308D01*
X11536781Y-7017308D01*
X11541810Y-7012279D01*
X11541810Y-6932320D01*
X11536781Y-6927291D01*
G37*
G36*
X11297818Y-5822391D02*
G01*
X11292789Y-5827420D01*
X11292789Y-5907379D01*
X11297818Y-5912408D01*
X11377777Y-5912408D01*
X11382806Y-5907379D01*
X11382806Y-5884621D01*
X11345773Y-5884621D01*
X11345773Y-5851601D01*
X11382806Y-5851601D01*
X11382806Y-5827420D01*
X11377777Y-5822391D01*
G37*
G36*
X11457787Y-5822391D02*
G01*
X11452809Y-5827420D01*
X11452809Y-5851601D01*
X11490807Y-5851601D01*
X11490807Y-5884621D01*
X11452809Y-5884621D01*
X11452809Y-5907379D01*
X11457787Y-5912408D01*
X11536781Y-5912408D01*
X11541810Y-5907379D01*
X11541810Y-5827420D01*
X11536781Y-5822391D01*
G37*
G36*
X13031622Y-5657291D02*
G01*
X13026593Y-5662320D01*
X13026593Y-5685078D01*
X13063575Y-5685078D01*
X13063575Y-5718098D01*
X13026593Y-5718098D01*
X13026593Y-5742279D01*
X13031622Y-5747308D01*
X13111581Y-5747308D01*
X13116610Y-5742279D01*
X13116610Y-5662320D01*
X13111581Y-5657291D01*
G37*
G36*
X12872618Y-5657291D02*
G01*
X12867589Y-5662320D01*
X12867589Y-5742279D01*
X12872618Y-5747308D01*
X12951612Y-5747308D01*
X12956590Y-5742279D01*
X12956590Y-5718098D01*
X12918592Y-5718098D01*
X12918592Y-5685078D01*
X12956590Y-5685078D01*
X12956590Y-5662320D01*
X12951612Y-5657291D01*
G37*
G36*
X7822184Y-8327593D02*
G01*
X7817154Y-8332622D01*
X7817154Y-8412581D01*
X7822184Y-8417610D01*
X7902143Y-8417610D01*
X7907172Y-8412581D01*
X7907172Y-8332622D01*
X7902143Y-8327593D01*
X7879384Y-8327593D01*
X7879384Y-8364626D01*
X7846364Y-8364626D01*
X7846364Y-8327593D01*
G37*
G36*
X7822184Y-8168589D02*
G01*
X7817154Y-8173618D01*
X7817154Y-8252612D01*
X7822184Y-8257590D01*
X7846364Y-8257590D01*
X7846364Y-8219592D01*
X7879384Y-8219592D01*
X7879384Y-8257590D01*
X7902143Y-8257590D01*
X7907172Y-8252612D01*
X7907172Y-8173618D01*
X7902143Y-8168589D01*
G37*
G36*
X7568184Y-8327593D02*
G01*
X7563154Y-8332622D01*
X7563154Y-8412581D01*
X7568184Y-8417610D01*
X7648143Y-8417610D01*
X7653172Y-8412581D01*
X7653172Y-8332622D01*
X7648143Y-8327593D01*
X7625384Y-8327593D01*
X7625384Y-8364626D01*
X7592364Y-8364626D01*
X7592364Y-8327593D01*
G37*
G36*
X7568184Y-8168589D02*
G01*
X7563154Y-8173618D01*
X7563154Y-8252612D01*
X7568184Y-8257590D01*
X7592364Y-8257590D01*
X7592364Y-8219592D01*
X7625384Y-8219592D01*
X7625384Y-8257590D01*
X7648143Y-8257590D01*
X7653172Y-8252612D01*
X7653172Y-8173618D01*
X7648143Y-8168589D01*
G37*
G36*
X7314184Y-8327593D02*
G01*
X7309154Y-8332622D01*
X7309154Y-8412581D01*
X7314184Y-8417610D01*
X7394143Y-8417610D01*
X7399172Y-8412581D01*
X7399172Y-8332622D01*
X7394143Y-8327593D01*
X7371384Y-8327593D01*
X7371384Y-8364626D01*
X7338364Y-8364626D01*
X7338364Y-8327593D01*
G37*
G36*
X7314184Y-8168589D02*
G01*
X7309154Y-8173618D01*
X7309154Y-8252612D01*
X7314184Y-8257590D01*
X7338364Y-8257590D01*
X7338364Y-8219592D01*
X7371384Y-8219592D01*
X7371384Y-8257590D01*
X7394143Y-8257590D01*
X7399172Y-8252612D01*
X7399172Y-8173618D01*
X7394143Y-8168589D01*
G37*
G36*
X7060184Y-8327593D02*
G01*
X7055154Y-8332622D01*
X7055154Y-8412581D01*
X7060184Y-8417610D01*
X7140143Y-8417610D01*
X7145172Y-8412581D01*
X7145172Y-8332622D01*
X7140143Y-8327593D01*
X7117384Y-8327593D01*
X7117384Y-8364626D01*
X7084364Y-8364626D01*
X7084364Y-8327593D01*
G37*
G36*
X7060184Y-8168589D02*
G01*
X7055154Y-8173618D01*
X7055154Y-8252612D01*
X7060184Y-8257590D01*
X7084364Y-8257590D01*
X7084364Y-8219592D01*
X7117384Y-8219592D01*
X7117384Y-8257590D01*
X7140143Y-8257590D01*
X7145172Y-8252612D01*
X7145172Y-8173618D01*
X7140143Y-8168589D01*
G37*
G36*
X6806184Y-8327593D02*
G01*
X6801154Y-8332622D01*
X6801154Y-8412581D01*
X6806184Y-8417610D01*
X6886143Y-8417610D01*
X6891172Y-8412581D01*
X6891172Y-8332622D01*
X6886143Y-8327593D01*
X6863384Y-8327593D01*
X6863384Y-8364626D01*
X6830364Y-8364626D01*
X6830364Y-8327593D01*
G37*
G36*
X6806184Y-8168589D02*
G01*
X6801154Y-8173618D01*
X6801154Y-8252612D01*
X6806184Y-8257590D01*
X6830364Y-8257590D01*
X6830364Y-8219592D01*
X6863384Y-8219592D01*
X6863384Y-8257590D01*
X6886143Y-8257590D01*
X6891172Y-8252612D01*
X6891172Y-8173618D01*
X6886143Y-8168589D01*
G37*
G36*
X6552184Y-8327593D02*
G01*
X6547154Y-8332622D01*
X6547154Y-8412581D01*
X6552184Y-8417610D01*
X6632143Y-8417610D01*
X6637172Y-8412581D01*
X6637172Y-8332622D01*
X6632143Y-8327593D01*
X6609384Y-8327593D01*
X6609384Y-8364626D01*
X6576364Y-8364626D01*
X6576364Y-8327593D01*
G37*
G36*
X6552184Y-8168589D02*
G01*
X6547154Y-8173618D01*
X6547154Y-8252612D01*
X6552184Y-8257590D01*
X6576364Y-8257590D01*
X6576364Y-8219592D01*
X6609384Y-8219592D01*
X6609384Y-8257590D01*
X6632143Y-8257590D01*
X6637172Y-8252612D01*
X6637172Y-8173618D01*
X6632143Y-8168589D01*
G37*
G36*
X6298184Y-8327593D02*
G01*
X6293154Y-8332622D01*
X6293154Y-8412581D01*
X6298184Y-8417610D01*
X6378143Y-8417610D01*
X6383172Y-8412581D01*
X6383172Y-8332622D01*
X6378143Y-8327593D01*
X6355384Y-8327593D01*
X6355384Y-8364626D01*
X6322364Y-8364626D01*
X6322364Y-8327593D01*
G37*
G36*
X6298184Y-8168589D02*
G01*
X6293154Y-8173618D01*
X6293154Y-8252612D01*
X6298184Y-8257590D01*
X6322364Y-8257590D01*
X6322364Y-8219592D01*
X6355384Y-8219592D01*
X6355384Y-8257590D01*
X6378143Y-8257590D01*
X6383172Y-8252612D01*
X6383172Y-8173618D01*
X6378143Y-8168589D01*
G37*
G36*
X6044184Y-8327593D02*
G01*
X6039154Y-8332622D01*
X6039154Y-8412581D01*
X6044184Y-8417610D01*
X6124143Y-8417610D01*
X6129172Y-8412581D01*
X6129172Y-8332622D01*
X6124143Y-8327593D01*
X6101384Y-8327593D01*
X6101384Y-8364626D01*
X6068364Y-8364626D01*
X6068364Y-8327593D01*
G37*
G36*
X6044184Y-8168589D02*
G01*
X6039154Y-8173618D01*
X6039154Y-8252612D01*
X6044184Y-8257590D01*
X6068364Y-8257590D01*
X6068364Y-8219592D01*
X6101384Y-8219592D01*
X6101384Y-8257590D01*
X6124143Y-8257590D01*
X6129172Y-8252612D01*
X6129172Y-8173618D01*
X6124143Y-8168589D01*
G37*
G36*
X5548884Y-8327593D02*
G01*
X5543854Y-8332622D01*
X5543854Y-8412581D01*
X5548884Y-8417610D01*
X5628843Y-8417610D01*
X5633872Y-8412581D01*
X5633872Y-8332622D01*
X5628843Y-8327593D01*
X5606084Y-8327593D01*
X5606084Y-8364626D01*
X5573064Y-8364626D01*
X5573064Y-8327593D01*
G37*
G36*
X5548884Y-8168589D02*
G01*
X5543854Y-8173618D01*
X5543854Y-8252612D01*
X5548884Y-8257590D01*
X5573064Y-8257590D01*
X5573064Y-8219592D01*
X5606084Y-8219592D01*
X5606084Y-8257590D01*
X5628843Y-8257590D01*
X5633872Y-8252612D01*
X5633872Y-8173618D01*
X5628843Y-8168589D01*
G37*
G36*
X5294884Y-8327593D02*
G01*
X5289854Y-8332622D01*
X5289854Y-8412581D01*
X5294884Y-8417610D01*
X5374843Y-8417610D01*
X5379872Y-8412581D01*
X5379872Y-8332622D01*
X5374843Y-8327593D01*
X5352084Y-8327593D01*
X5352084Y-8364626D01*
X5319064Y-8364626D01*
X5319064Y-8327593D01*
G37*
G36*
X5294884Y-8168589D02*
G01*
X5289854Y-8173618D01*
X5289854Y-8252612D01*
X5294884Y-8257590D01*
X5319064Y-8257590D01*
X5319064Y-8219592D01*
X5352084Y-8219592D01*
X5352084Y-8257590D01*
X5374843Y-8257590D01*
X5379872Y-8252612D01*
X5379872Y-8173618D01*
X5374843Y-8168589D01*
G37*
G36*
X5040884Y-8327593D02*
G01*
X5035854Y-8332622D01*
X5035854Y-8412581D01*
X5040884Y-8417610D01*
X5120843Y-8417610D01*
X5125872Y-8412581D01*
X5125872Y-8332622D01*
X5120843Y-8327593D01*
X5098084Y-8327593D01*
X5098084Y-8364626D01*
X5065064Y-8364626D01*
X5065064Y-8327593D01*
G37*
G36*
X5040884Y-8168589D02*
G01*
X5035854Y-8173618D01*
X5035854Y-8252612D01*
X5040884Y-8257590D01*
X5065064Y-8257590D01*
X5065064Y-8219592D01*
X5098084Y-8219592D01*
X5098084Y-8257590D01*
X5120843Y-8257590D01*
X5125872Y-8252612D01*
X5125872Y-8173618D01*
X5120843Y-8168589D01*
G37*
G36*
X4786884Y-8327593D02*
G01*
X4781854Y-8332622D01*
X4781854Y-8412581D01*
X4786884Y-8417610D01*
X4866843Y-8417610D01*
X4871872Y-8412581D01*
X4871872Y-8332622D01*
X4866843Y-8327593D01*
X4844084Y-8327593D01*
X4844084Y-8364626D01*
X4811064Y-8364626D01*
X4811064Y-8327593D01*
G37*
G36*
X4786884Y-8168589D02*
G01*
X4781854Y-8173618D01*
X4781854Y-8252612D01*
X4786884Y-8257590D01*
X4811064Y-8257590D01*
X4811064Y-8219592D01*
X4844084Y-8219592D01*
X4844084Y-8257590D01*
X4866843Y-8257590D01*
X4871872Y-8252612D01*
X4871872Y-8173618D01*
X4866843Y-8168589D01*
G37*
G36*
X4532884Y-8327593D02*
G01*
X4527854Y-8332622D01*
X4527854Y-8412581D01*
X4532884Y-8417610D01*
X4612843Y-8417610D01*
X4617872Y-8412581D01*
X4617872Y-8332622D01*
X4612843Y-8327593D01*
X4590084Y-8327593D01*
X4590084Y-8364626D01*
X4557064Y-8364626D01*
X4557064Y-8327593D01*
G37*
G36*
X4532884Y-8168589D02*
G01*
X4527854Y-8173618D01*
X4527854Y-8252612D01*
X4532884Y-8257590D01*
X4557064Y-8257590D01*
X4557064Y-8219592D01*
X4590084Y-8219592D01*
X4590084Y-8257590D01*
X4612843Y-8257590D01*
X4617872Y-8252612D01*
X4617872Y-8173618D01*
X4612843Y-8168589D01*
G37*
G36*
X4278884Y-8327593D02*
G01*
X4273854Y-8332622D01*
X4273854Y-8412581D01*
X4278884Y-8417610D01*
X4358843Y-8417610D01*
X4363872Y-8412581D01*
X4363872Y-8332622D01*
X4358843Y-8327593D01*
X4336084Y-8327593D01*
X4336084Y-8364626D01*
X4303064Y-8364626D01*
X4303064Y-8327593D01*
G37*
G36*
X4278884Y-8168589D02*
G01*
X4273854Y-8173618D01*
X4273854Y-8252612D01*
X4278884Y-8257590D01*
X4303064Y-8257590D01*
X4303064Y-8219592D01*
X4336084Y-8219592D01*
X4336084Y-8257590D01*
X4358843Y-8257590D01*
X4363872Y-8252612D01*
X4363872Y-8173618D01*
X4358843Y-8168589D01*
G37*
G36*
X4024884Y-8327593D02*
G01*
X4019854Y-8332622D01*
X4019854Y-8412581D01*
X4024884Y-8417610D01*
X4104843Y-8417610D01*
X4109872Y-8412581D01*
X4109872Y-8332622D01*
X4104843Y-8327593D01*
X4082084Y-8327593D01*
X4082084Y-8364626D01*
X4049064Y-8364626D01*
X4049064Y-8327593D01*
G37*
G36*
X4024884Y-8168589D02*
G01*
X4019854Y-8173618D01*
X4019854Y-8252612D01*
X4024884Y-8257590D01*
X4049064Y-8257590D01*
X4049064Y-8219592D01*
X4082084Y-8219592D01*
X4082084Y-8257590D01*
X4104843Y-8257590D01*
X4109872Y-8252612D01*
X4109872Y-8173618D01*
X4104843Y-8168589D01*
G37*
G36*
X3770884Y-8327593D02*
G01*
X3765854Y-8332622D01*
X3765854Y-8412581D01*
X3770884Y-8417610D01*
X3850843Y-8417610D01*
X3855872Y-8412581D01*
X3855872Y-8332622D01*
X3850843Y-8327593D01*
X3828084Y-8327593D01*
X3828084Y-8364626D01*
X3795064Y-8364626D01*
X3795064Y-8327593D01*
G37*
G36*
X3770884Y-8168589D02*
G01*
X3765854Y-8173618D01*
X3765854Y-8252612D01*
X3770884Y-8257590D01*
X3795064Y-8257590D01*
X3795064Y-8219592D01*
X3828084Y-8219592D01*
X3828084Y-8257590D01*
X3850843Y-8257590D01*
X3855872Y-8252612D01*
X3855872Y-8173618D01*
X3850843Y-8168589D01*
G37*
G36*
X10247020Y1977948D02*
G01*
X10242042Y1972919D01*
X10242042Y1892960D01*
X10247020Y1887931D01*
X10269829Y1887931D01*
X10269829Y1924964D01*
X10302849Y1924964D01*
X10302849Y1887931D01*
X10327030Y1887931D01*
X10332008Y1892960D01*
X10332008Y1972919D01*
X10327030Y1977948D01*
G37*
G36*
X10247020Y1817928D02*
G01*
X10242042Y1812950D01*
X10242042Y1733956D01*
X10247020Y1728927D01*
X10327030Y1728927D01*
X10332008Y1733956D01*
X10332008Y1812950D01*
X10327030Y1817928D01*
X10302849Y1817928D01*
X10302849Y1779930D01*
X10269829Y1779930D01*
X10269829Y1817928D01*
G37*
G36*
X9993020Y1977948D02*
G01*
X9988042Y1972919D01*
X9988042Y1892960D01*
X9993020Y1887931D01*
X10015829Y1887931D01*
X10015829Y1924964D01*
X10048849Y1924964D01*
X10048849Y1887931D01*
X10073030Y1887931D01*
X10078008Y1892960D01*
X10078008Y1972919D01*
X10073030Y1977948D01*
G37*
G36*
X9993020Y1817928D02*
G01*
X9988042Y1812950D01*
X9988042Y1733956D01*
X9993020Y1728927D01*
X10073030Y1728927D01*
X10078008Y1733956D01*
X10078008Y1812950D01*
X10073030Y1817928D01*
X10048849Y1817928D01*
X10048849Y1779930D01*
X10015829Y1779930D01*
X10015829Y1817928D01*
G37*
G36*
X9739020Y1977948D02*
G01*
X9734042Y1972919D01*
X9734042Y1892960D01*
X9739020Y1887931D01*
X9761829Y1887931D01*
X9761829Y1924964D01*
X9794849Y1924964D01*
X9794849Y1887931D01*
X9819030Y1887931D01*
X9824008Y1892960D01*
X9824008Y1972919D01*
X9819030Y1977948D01*
G37*
G36*
X9739020Y1817928D02*
G01*
X9734042Y1812950D01*
X9734042Y1733956D01*
X9739020Y1728927D01*
X9819030Y1728927D01*
X9824008Y1733956D01*
X9824008Y1812950D01*
X9819030Y1817928D01*
X9794849Y1817928D01*
X9794849Y1779930D01*
X9761829Y1779930D01*
X9761829Y1817928D01*
G37*
G36*
X9485020Y1977948D02*
G01*
X9480042Y1972919D01*
X9480042Y1892960D01*
X9485020Y1887931D01*
X9507829Y1887931D01*
X9507829Y1924964D01*
X9540849Y1924964D01*
X9540849Y1887931D01*
X9565030Y1887931D01*
X9570008Y1892960D01*
X9570008Y1972919D01*
X9565030Y1977948D01*
G37*
G36*
X9485020Y1817928D02*
G01*
X9480042Y1812950D01*
X9480042Y1733956D01*
X9485020Y1728927D01*
X9565030Y1728927D01*
X9570008Y1733956D01*
X9570008Y1812950D01*
X9565030Y1817928D01*
X9540849Y1817928D01*
X9540849Y1779930D01*
X9507829Y1779930D01*
X9507829Y1817928D01*
G37*
G36*
X9231020Y1977948D02*
G01*
X9226042Y1972919D01*
X9226042Y1892960D01*
X9231020Y1887931D01*
X9253829Y1887931D01*
X9253829Y1924964D01*
X9286849Y1924964D01*
X9286849Y1887931D01*
X9311030Y1887931D01*
X9316008Y1892960D01*
X9316008Y1972919D01*
X9311030Y1977948D01*
G37*
G36*
X9231020Y1817928D02*
G01*
X9226042Y1812950D01*
X9226042Y1733956D01*
X9231020Y1728927D01*
X9311030Y1728927D01*
X9316008Y1733956D01*
X9316008Y1812950D01*
X9311030Y1817928D01*
X9286849Y1817928D01*
X9286849Y1779930D01*
X9253829Y1779930D01*
X9253829Y1817928D01*
G37*
G36*
X8977020Y1977948D02*
G01*
X8972042Y1972919D01*
X8972042Y1892960D01*
X8977020Y1887931D01*
X8999829Y1887931D01*
X8999829Y1924964D01*
X9032849Y1924964D01*
X9032849Y1887931D01*
X9057030Y1887931D01*
X9062008Y1892960D01*
X9062008Y1972919D01*
X9057030Y1977948D01*
G37*
G36*
X8977020Y1817928D02*
G01*
X8972042Y1812950D01*
X8972042Y1733956D01*
X8977020Y1728927D01*
X9057030Y1728927D01*
X9062008Y1733956D01*
X9062008Y1812950D01*
X9057030Y1817928D01*
X9032849Y1817928D01*
X9032849Y1779930D01*
X8999829Y1779930D01*
X8999829Y1817928D01*
G37*
G36*
X8723020Y1977948D02*
G01*
X8718042Y1972919D01*
X8718042Y1892960D01*
X8723020Y1887931D01*
X8745829Y1887931D01*
X8745829Y1924964D01*
X8778849Y1924964D01*
X8778849Y1887931D01*
X8803030Y1887931D01*
X8808008Y1892960D01*
X8808008Y1972919D01*
X8803030Y1977948D01*
G37*
G36*
X8723020Y1817928D02*
G01*
X8718042Y1812950D01*
X8718042Y1733956D01*
X8723020Y1728927D01*
X8803030Y1728927D01*
X8808008Y1733956D01*
X8808008Y1812950D01*
X8803030Y1817928D01*
X8778849Y1817928D01*
X8778849Y1779930D01*
X8745829Y1779930D01*
X8745829Y1817928D01*
G37*
G36*
X8469020Y1977948D02*
G01*
X8464042Y1972919D01*
X8464042Y1892960D01*
X8469020Y1887931D01*
X8491829Y1887931D01*
X8491829Y1924964D01*
X8524849Y1924964D01*
X8524849Y1887931D01*
X8549030Y1887931D01*
X8554008Y1892960D01*
X8554008Y1972919D01*
X8549030Y1977948D01*
G37*
G36*
X8469020Y1817928D02*
G01*
X8464042Y1812950D01*
X8464042Y1733956D01*
X8469020Y1728927D01*
X8549030Y1728927D01*
X8554008Y1733956D01*
X8554008Y1812950D01*
X8549030Y1817928D01*
X8524849Y1817928D01*
X8524849Y1779930D01*
X8491829Y1779930D01*
X8491829Y1817928D01*
G37*
G36*
X7961884Y1978710D02*
G01*
X7956854Y1973681D01*
X7956854Y1893722D01*
X7961884Y1888693D01*
X7984642Y1888693D01*
X7984642Y1925675D01*
X8017662Y1925675D01*
X8017662Y1888693D01*
X8041843Y1888693D01*
X8046872Y1893722D01*
X8046872Y1973681D01*
X8041843Y1978710D01*
G37*
G36*
X7961884Y1818690D02*
G01*
X7956854Y1813712D01*
X7956854Y1734718D01*
X7961884Y1729689D01*
X8041843Y1729689D01*
X8046872Y1734718D01*
X8046872Y1813712D01*
X8041843Y1818690D01*
X8017662Y1818690D01*
X8017662Y1780692D01*
X7984642Y1780692D01*
X7984642Y1818690D01*
G37*
G36*
X7707884Y1978710D02*
G01*
X7702854Y1973681D01*
X7702854Y1893722D01*
X7707884Y1888693D01*
X7730642Y1888693D01*
X7730642Y1925675D01*
X7763662Y1925675D01*
X7763662Y1888693D01*
X7787843Y1888693D01*
X7792872Y1893722D01*
X7792872Y1973681D01*
X7787843Y1978710D01*
G37*
G36*
X7707884Y1818690D02*
G01*
X7702854Y1813712D01*
X7702854Y1734718D01*
X7707884Y1729689D01*
X7787843Y1729689D01*
X7792872Y1734718D01*
X7792872Y1813712D01*
X7787843Y1818690D01*
X7763662Y1818690D01*
X7763662Y1780692D01*
X7730642Y1780692D01*
X7730642Y1818690D01*
G37*
G36*
X7453884Y1978710D02*
G01*
X7448854Y1973681D01*
X7448854Y1893722D01*
X7453884Y1888693D01*
X7476642Y1888693D01*
X7476642Y1925675D01*
X7509662Y1925675D01*
X7509662Y1888693D01*
X7533843Y1888693D01*
X7538872Y1893722D01*
X7538872Y1973681D01*
X7533843Y1978710D01*
G37*
G36*
X7453884Y1818690D02*
G01*
X7448854Y1813712D01*
X7448854Y1734718D01*
X7453884Y1729689D01*
X7533843Y1729689D01*
X7538872Y1734718D01*
X7538872Y1813712D01*
X7533843Y1818690D01*
X7509662Y1818690D01*
X7509662Y1780692D01*
X7476642Y1780692D01*
X7476642Y1818690D01*
G37*
G36*
X7199884Y1978710D02*
G01*
X7194854Y1973681D01*
X7194854Y1893722D01*
X7199884Y1888693D01*
X7222642Y1888693D01*
X7222642Y1925675D01*
X7255662Y1925675D01*
X7255662Y1888693D01*
X7279843Y1888693D01*
X7284872Y1893722D01*
X7284872Y1973681D01*
X7279843Y1978710D01*
G37*
G36*
X7199884Y1818690D02*
G01*
X7194854Y1813712D01*
X7194854Y1734718D01*
X7199884Y1729689D01*
X7279843Y1729689D01*
X7284872Y1734718D01*
X7284872Y1813712D01*
X7279843Y1818690D01*
X7255662Y1818690D01*
X7255662Y1780692D01*
X7222642Y1780692D01*
X7222642Y1818690D01*
G37*
G36*
X6945884Y1978710D02*
G01*
X6940854Y1973681D01*
X6940854Y1893722D01*
X6945884Y1888693D01*
X6968642Y1888693D01*
X6968642Y1925675D01*
X7001662Y1925675D01*
X7001662Y1888693D01*
X7025843Y1888693D01*
X7030872Y1893722D01*
X7030872Y1973681D01*
X7025843Y1978710D01*
G37*
G36*
X6945884Y1818690D02*
G01*
X6940854Y1813712D01*
X6940854Y1734718D01*
X6945884Y1729689D01*
X7025843Y1729689D01*
X7030872Y1734718D01*
X7030872Y1813712D01*
X7025843Y1818690D01*
X7001662Y1818690D01*
X7001662Y1780692D01*
X6968642Y1780692D01*
X6968642Y1818690D01*
G37*
G36*
X6691884Y1978710D02*
G01*
X6686854Y1973681D01*
X6686854Y1893722D01*
X6691884Y1888693D01*
X6714642Y1888693D01*
X6714642Y1925675D01*
X6747662Y1925675D01*
X6747662Y1888693D01*
X6771843Y1888693D01*
X6776872Y1893722D01*
X6776872Y1973681D01*
X6771843Y1978710D01*
G37*
G36*
X6691884Y1818690D02*
G01*
X6686854Y1813712D01*
X6686854Y1734718D01*
X6691884Y1729689D01*
X6771843Y1729689D01*
X6776872Y1734718D01*
X6776872Y1813712D01*
X6771843Y1818690D01*
X6747662Y1818690D01*
X6747662Y1780692D01*
X6714642Y1780692D01*
X6714642Y1818690D01*
G37*
G36*
X6437884Y1978710D02*
G01*
X6432854Y1973681D01*
X6432854Y1893722D01*
X6437884Y1888693D01*
X6460642Y1888693D01*
X6460642Y1925675D01*
X6493662Y1925675D01*
X6493662Y1888693D01*
X6517843Y1888693D01*
X6522872Y1893722D01*
X6522872Y1973681D01*
X6517843Y1978710D01*
G37*
G36*
X6437884Y1818690D02*
G01*
X6432854Y1813712D01*
X6432854Y1734718D01*
X6437884Y1729689D01*
X6517843Y1729689D01*
X6522872Y1734718D01*
X6522872Y1813712D01*
X6517843Y1818690D01*
X6493662Y1818690D01*
X6493662Y1780692D01*
X6460642Y1780692D01*
X6460642Y1818690D01*
G37*
G36*
X6183884Y1978710D02*
G01*
X6178854Y1973681D01*
X6178854Y1893722D01*
X6183884Y1888693D01*
X6206642Y1888693D01*
X6206642Y1925675D01*
X6239662Y1925675D01*
X6239662Y1888693D01*
X6263843Y1888693D01*
X6268872Y1893722D01*
X6268872Y1973681D01*
X6263843Y1978710D01*
G37*
G36*
X6183884Y1818690D02*
G01*
X6178854Y1813712D01*
X6178854Y1734718D01*
X6183884Y1729689D01*
X6263843Y1729689D01*
X6268872Y1734718D01*
X6268872Y1813712D01*
X6263843Y1818690D01*
X6239662Y1818690D01*
X6239662Y1780692D01*
X6206642Y1780692D01*
X6206642Y1818690D01*
G37*
G36*
X10247020Y2479344D02*
G01*
X10242042Y2474315D01*
X10242042Y2394356D01*
X10247020Y2389327D01*
X10327030Y2389327D01*
X10332008Y2394356D01*
X10332008Y2474315D01*
X10327030Y2479344D01*
X10304221Y2479344D01*
X10304221Y2442362D01*
X10271252Y2442362D01*
X10271252Y2479344D01*
G37*
G36*
X10247020Y2638348D02*
G01*
X10242042Y2633319D01*
X10242042Y2554325D01*
X10247020Y2549347D01*
X10271252Y2549347D01*
X10271252Y2587345D01*
X10304221Y2587345D01*
X10304221Y2549347D01*
X10327030Y2549347D01*
X10332008Y2554325D01*
X10332008Y2633319D01*
X10327030Y2638348D01*
G37*
G36*
X9993020Y2479344D02*
G01*
X9988042Y2474315D01*
X9988042Y2394356D01*
X9993020Y2389327D01*
X10073030Y2389327D01*
X10078008Y2394356D01*
X10078008Y2474315D01*
X10073030Y2479344D01*
X10050221Y2479344D01*
X10050221Y2442362D01*
X10017252Y2442362D01*
X10017252Y2479344D01*
G37*
G36*
X9993020Y2638348D02*
G01*
X9988042Y2633319D01*
X9988042Y2554325D01*
X9993020Y2549347D01*
X10017252Y2549347D01*
X10017252Y2587345D01*
X10050221Y2587345D01*
X10050221Y2549347D01*
X10073030Y2549347D01*
X10078008Y2554325D01*
X10078008Y2633319D01*
X10073030Y2638348D01*
G37*
G36*
X9739020Y2479344D02*
G01*
X9734042Y2474315D01*
X9734042Y2394356D01*
X9739020Y2389327D01*
X9819030Y2389327D01*
X9824008Y2394356D01*
X9824008Y2474315D01*
X9819030Y2479344D01*
X9796221Y2479344D01*
X9796221Y2442362D01*
X9763252Y2442362D01*
X9763252Y2479344D01*
G37*
G36*
X9739020Y2638348D02*
G01*
X9734042Y2633319D01*
X9734042Y2554325D01*
X9739020Y2549347D01*
X9763252Y2549347D01*
X9763252Y2587345D01*
X9796221Y2587345D01*
X9796221Y2549347D01*
X9819030Y2549347D01*
X9824008Y2554325D01*
X9824008Y2633319D01*
X9819030Y2638348D01*
G37*
G36*
X9485020Y2479344D02*
G01*
X9480042Y2474315D01*
X9480042Y2394356D01*
X9485020Y2389327D01*
X9565030Y2389327D01*
X9570008Y2394356D01*
X9570008Y2474315D01*
X9565030Y2479344D01*
X9542221Y2479344D01*
X9542221Y2442362D01*
X9509252Y2442362D01*
X9509252Y2479344D01*
G37*
G36*
X9485020Y2638348D02*
G01*
X9480042Y2633319D01*
X9480042Y2554325D01*
X9485020Y2549347D01*
X9509252Y2549347D01*
X9509252Y2587345D01*
X9542221Y2587345D01*
X9542221Y2549347D01*
X9565030Y2549347D01*
X9570008Y2554325D01*
X9570008Y2633319D01*
X9565030Y2638348D01*
G37*
G36*
X9231020Y2479344D02*
G01*
X9226042Y2474315D01*
X9226042Y2394356D01*
X9231020Y2389327D01*
X9311030Y2389327D01*
X9316008Y2394356D01*
X9316008Y2474315D01*
X9311030Y2479344D01*
X9288221Y2479344D01*
X9288221Y2442362D01*
X9255252Y2442362D01*
X9255252Y2479344D01*
G37*
G36*
X9231020Y2638348D02*
G01*
X9226042Y2633319D01*
X9226042Y2554325D01*
X9231020Y2549347D01*
X9255252Y2549347D01*
X9255252Y2587345D01*
X9288221Y2587345D01*
X9288221Y2549347D01*
X9311030Y2549347D01*
X9316008Y2554325D01*
X9316008Y2633319D01*
X9311030Y2638348D01*
G37*
G36*
X8977020Y2479344D02*
G01*
X8972042Y2474315D01*
X8972042Y2394356D01*
X8977020Y2389327D01*
X9057030Y2389327D01*
X9062008Y2394356D01*
X9062008Y2474315D01*
X9057030Y2479344D01*
X9034221Y2479344D01*
X9034221Y2442362D01*
X9001252Y2442362D01*
X9001252Y2479344D01*
G37*
G36*
X8977020Y2638348D02*
G01*
X8972042Y2633319D01*
X8972042Y2554325D01*
X8977020Y2549347D01*
X9001252Y2549347D01*
X9001252Y2587345D01*
X9034221Y2587345D01*
X9034221Y2549347D01*
X9057030Y2549347D01*
X9062008Y2554325D01*
X9062008Y2633319D01*
X9057030Y2638348D01*
G37*
G36*
X8723020Y2479344D02*
G01*
X8718042Y2474315D01*
X8718042Y2394356D01*
X8723020Y2389327D01*
X8803030Y2389327D01*
X8808008Y2394356D01*
X8808008Y2474315D01*
X8803030Y2479344D01*
X8780221Y2479344D01*
X8780221Y2442362D01*
X8747252Y2442362D01*
X8747252Y2479344D01*
G37*
G36*
X8723020Y2638348D02*
G01*
X8718042Y2633319D01*
X8718042Y2554325D01*
X8723020Y2549347D01*
X8747252Y2549347D01*
X8747252Y2587345D01*
X8780221Y2587345D01*
X8780221Y2549347D01*
X8803030Y2549347D01*
X8808008Y2554325D01*
X8808008Y2633319D01*
X8803030Y2638348D01*
G37*
G36*
X8469020Y2479344D02*
G01*
X8464042Y2474315D01*
X8464042Y2394356D01*
X8469020Y2389327D01*
X8549030Y2389327D01*
X8554008Y2394356D01*
X8554008Y2474315D01*
X8549030Y2479344D01*
X8526221Y2479344D01*
X8526221Y2442362D01*
X8493252Y2442362D01*
X8493252Y2479344D01*
G37*
G36*
X8469020Y2638348D02*
G01*
X8464042Y2633319D01*
X8464042Y2554325D01*
X8469020Y2549347D01*
X8493252Y2549347D01*
X8493252Y2587345D01*
X8526221Y2587345D01*
X8526221Y2549347D01*
X8549030Y2549347D01*
X8554008Y2554325D01*
X8554008Y2633319D01*
X8549030Y2638348D01*
G37*
G36*
X7961884Y2480106D02*
G01*
X7956854Y2475077D01*
X7956854Y2395118D01*
X7961884Y2390089D01*
X8041843Y2390089D01*
X8046872Y2395118D01*
X8046872Y2475077D01*
X8041843Y2480106D01*
X8019084Y2480106D01*
X8019084Y2443073D01*
X7986064Y2443073D01*
X7986064Y2480106D01*
G37*
G36*
X7961884Y2639110D02*
G01*
X7956854Y2634081D01*
X7956854Y2555087D01*
X7961884Y2550109D01*
X7986064Y2550109D01*
X7986064Y2588107D01*
X8019084Y2588107D01*
X8019084Y2550109D01*
X8041843Y2550109D01*
X8046872Y2555087D01*
X8046872Y2634081D01*
X8041843Y2639110D01*
G37*
G36*
X7707884Y2480106D02*
G01*
X7702854Y2475077D01*
X7702854Y2395118D01*
X7707884Y2390089D01*
X7787843Y2390089D01*
X7792872Y2395118D01*
X7792872Y2475077D01*
X7787843Y2480106D01*
X7765084Y2480106D01*
X7765084Y2443073D01*
X7732064Y2443073D01*
X7732064Y2480106D01*
G37*
G36*
X7707884Y2639110D02*
G01*
X7702854Y2634081D01*
X7702854Y2555087D01*
X7707884Y2550109D01*
X7732064Y2550109D01*
X7732064Y2588107D01*
X7765084Y2588107D01*
X7765084Y2550109D01*
X7787843Y2550109D01*
X7792872Y2555087D01*
X7792872Y2634081D01*
X7787843Y2639110D01*
G37*
G36*
X7453884Y2480106D02*
G01*
X7448854Y2475077D01*
X7448854Y2395118D01*
X7453884Y2390089D01*
X7533843Y2390089D01*
X7538872Y2395118D01*
X7538872Y2475077D01*
X7533843Y2480106D01*
X7511084Y2480106D01*
X7511084Y2443073D01*
X7478064Y2443073D01*
X7478064Y2480106D01*
G37*
G36*
X7453884Y2639110D02*
G01*
X7448854Y2634081D01*
X7448854Y2555087D01*
X7453884Y2550109D01*
X7478064Y2550109D01*
X7478064Y2588107D01*
X7511084Y2588107D01*
X7511084Y2550109D01*
X7533843Y2550109D01*
X7538872Y2555087D01*
X7538872Y2634081D01*
X7533843Y2639110D01*
G37*
G36*
X7199884Y2480106D02*
G01*
X7194854Y2475077D01*
X7194854Y2395118D01*
X7199884Y2390089D01*
X7279843Y2390089D01*
X7284872Y2395118D01*
X7284872Y2475077D01*
X7279843Y2480106D01*
X7257084Y2480106D01*
X7257084Y2443073D01*
X7224064Y2443073D01*
X7224064Y2480106D01*
G37*
G36*
X7199884Y2639110D02*
G01*
X7194854Y2634081D01*
X7194854Y2555087D01*
X7199884Y2550109D01*
X7224064Y2550109D01*
X7224064Y2588107D01*
X7257084Y2588107D01*
X7257084Y2550109D01*
X7279843Y2550109D01*
X7284872Y2555087D01*
X7284872Y2634081D01*
X7279843Y2639110D01*
G37*
G36*
X6945884Y2480106D02*
G01*
X6940854Y2475077D01*
X6940854Y2395118D01*
X6945884Y2390089D01*
X7025843Y2390089D01*
X7030872Y2395118D01*
X7030872Y2475077D01*
X7025843Y2480106D01*
X7003084Y2480106D01*
X7003084Y2443073D01*
X6970064Y2443073D01*
X6970064Y2480106D01*
G37*
G36*
X6945884Y2639110D02*
G01*
X6940854Y2634081D01*
X6940854Y2555087D01*
X6945884Y2550109D01*
X6970064Y2550109D01*
X6970064Y2588107D01*
X7003084Y2588107D01*
X7003084Y2550109D01*
X7025843Y2550109D01*
X7030872Y2555087D01*
X7030872Y2634081D01*
X7025843Y2639110D01*
G37*
G36*
X6691884Y2480106D02*
G01*
X6686854Y2475077D01*
X6686854Y2395118D01*
X6691884Y2390089D01*
X6771843Y2390089D01*
X6776872Y2395118D01*
X6776872Y2475077D01*
X6771843Y2480106D01*
X6749084Y2480106D01*
X6749084Y2443073D01*
X6716064Y2443073D01*
X6716064Y2480106D01*
G37*
G36*
X6691884Y2639110D02*
G01*
X6686854Y2634081D01*
X6686854Y2555087D01*
X6691884Y2550109D01*
X6716064Y2550109D01*
X6716064Y2588107D01*
X6749084Y2588107D01*
X6749084Y2550109D01*
X6771843Y2550109D01*
X6776872Y2555087D01*
X6776872Y2634081D01*
X6771843Y2639110D01*
G37*
G36*
X6437884Y2480106D02*
G01*
X6432854Y2475077D01*
X6432854Y2395118D01*
X6437884Y2390089D01*
X6517843Y2390089D01*
X6522872Y2395118D01*
X6522872Y2475077D01*
X6517843Y2480106D01*
X6495084Y2480106D01*
X6495084Y2443073D01*
X6462064Y2443073D01*
X6462064Y2480106D01*
G37*
G36*
X6437884Y2639110D02*
G01*
X6432854Y2634081D01*
X6432854Y2555087D01*
X6437884Y2550109D01*
X6462064Y2550109D01*
X6462064Y2588107D01*
X6495084Y2588107D01*
X6495084Y2550109D01*
X6517843Y2550109D01*
X6522872Y2555087D01*
X6522872Y2634081D01*
X6517843Y2639110D01*
G37*
G36*
X6183884Y2480106D02*
G01*
X6178854Y2475077D01*
X6178854Y2395118D01*
X6183884Y2390089D01*
X6263843Y2390089D01*
X6268872Y2395118D01*
X6268872Y2475077D01*
X6263843Y2480106D01*
X6241084Y2480106D01*
X6241084Y2443073D01*
X6208064Y2443073D01*
X6208064Y2480106D01*
G37*
G36*
X6183884Y2639110D02*
G01*
X6178854Y2634081D01*
X6178854Y2555087D01*
X6183884Y2550109D01*
X6208064Y2550109D01*
X6208064Y2588107D01*
X6241084Y2588107D01*
X6241084Y2550109D01*
X6263843Y2550109D01*
X6268872Y2555087D01*
X6268872Y2634081D01*
X6263843Y2639110D01*
G37*
G36*
X1357884Y2480106D02*
G01*
X1352854Y2475077D01*
X1352854Y2395118D01*
X1357884Y2390089D01*
X1437843Y2390089D01*
X1442872Y2395118D01*
X1442872Y2475077D01*
X1437843Y2480106D01*
X1415084Y2480106D01*
X1415084Y2443073D01*
X1382064Y2443073D01*
X1382064Y2480106D01*
G37*
G36*
X1357884Y2639110D02*
G01*
X1352854Y2634081D01*
X1352854Y2555087D01*
X1357884Y2550109D01*
X1382064Y2550109D01*
X1382064Y2588107D01*
X1415084Y2588107D01*
X1415084Y2550109D01*
X1437843Y2550109D01*
X1442872Y2555087D01*
X1442872Y2634081D01*
X1437843Y2639110D01*
G37*
G36*
X1611884Y2480106D02*
G01*
X1606854Y2475077D01*
X1606854Y2395118D01*
X1611884Y2390089D01*
X1691843Y2390089D01*
X1696872Y2395118D01*
X1696872Y2475077D01*
X1691843Y2480106D01*
X1669084Y2480106D01*
X1669084Y2443073D01*
X1636064Y2443073D01*
X1636064Y2480106D01*
G37*
G36*
X1611884Y2639110D02*
G01*
X1606854Y2634081D01*
X1606854Y2555087D01*
X1611884Y2550109D01*
X1636064Y2550109D01*
X1636064Y2588107D01*
X1669084Y2588107D01*
X1669084Y2550109D01*
X1691843Y2550109D01*
X1696872Y2555087D01*
X1696872Y2634081D01*
X1691843Y2639110D01*
G37*
G36*
X1865884Y2480106D02*
G01*
X1860854Y2475077D01*
X1860854Y2395118D01*
X1865884Y2390089D01*
X1945843Y2390089D01*
X1950872Y2395118D01*
X1950872Y2475077D01*
X1945843Y2480106D01*
X1923084Y2480106D01*
X1923084Y2443073D01*
X1890064Y2443073D01*
X1890064Y2480106D01*
G37*
G36*
X1865884Y2639110D02*
G01*
X1860854Y2634081D01*
X1860854Y2555087D01*
X1865884Y2550109D01*
X1890064Y2550109D01*
X1890064Y2588107D01*
X1923084Y2588107D01*
X1923084Y2550109D01*
X1945843Y2550109D01*
X1950872Y2555087D01*
X1950872Y2634081D01*
X1945843Y2639110D01*
G37*
G36*
X2119884Y2480106D02*
G01*
X2114854Y2475077D01*
X2114854Y2395118D01*
X2119884Y2390089D01*
X2199843Y2390089D01*
X2204872Y2395118D01*
X2204872Y2475077D01*
X2199843Y2480106D01*
X2177084Y2480106D01*
X2177084Y2443073D01*
X2144064Y2443073D01*
X2144064Y2480106D01*
G37*
G36*
X2119884Y2639110D02*
G01*
X2114854Y2634081D01*
X2114854Y2555087D01*
X2119884Y2550109D01*
X2144064Y2550109D01*
X2144064Y2588107D01*
X2177084Y2588107D01*
X2177084Y2550109D01*
X2199843Y2550109D01*
X2204872Y2555087D01*
X2204872Y2634081D01*
X2199843Y2639110D01*
G37*
G36*
X2373884Y2480106D02*
G01*
X2368854Y2475077D01*
X2368854Y2395118D01*
X2373884Y2390089D01*
X2453843Y2390089D01*
X2458872Y2395118D01*
X2458872Y2475077D01*
X2453843Y2480106D01*
X2431084Y2480106D01*
X2431084Y2443073D01*
X2398064Y2443073D01*
X2398064Y2480106D01*
G37*
G36*
X2373884Y2639110D02*
G01*
X2368854Y2634081D01*
X2368854Y2555087D01*
X2373884Y2550109D01*
X2398064Y2550109D01*
X2398064Y2588107D01*
X2431084Y2588107D01*
X2431084Y2550109D01*
X2453843Y2550109D01*
X2458872Y2555087D01*
X2458872Y2634081D01*
X2453843Y2639110D01*
G37*
G36*
X2627884Y2480106D02*
G01*
X2622854Y2475077D01*
X2622854Y2395118D01*
X2627884Y2390089D01*
X2707843Y2390089D01*
X2712872Y2395118D01*
X2712872Y2475077D01*
X2707843Y2480106D01*
X2685084Y2480106D01*
X2685084Y2443073D01*
X2652064Y2443073D01*
X2652064Y2480106D01*
G37*
G36*
X2627884Y2639110D02*
G01*
X2622854Y2634081D01*
X2622854Y2555087D01*
X2627884Y2550109D01*
X2652064Y2550109D01*
X2652064Y2588107D01*
X2685084Y2588107D01*
X2685084Y2550109D01*
X2707843Y2550109D01*
X2712872Y2555087D01*
X2712872Y2634081D01*
X2707843Y2639110D01*
G37*
G36*
X2881884Y2480106D02*
G01*
X2876854Y2475077D01*
X2876854Y2395118D01*
X2881884Y2390089D01*
X2961843Y2390089D01*
X2966872Y2395118D01*
X2966872Y2475077D01*
X2961843Y2480106D01*
X2939084Y2480106D01*
X2939084Y2443073D01*
X2906064Y2443073D01*
X2906064Y2480106D01*
G37*
G36*
X2881884Y2639110D02*
G01*
X2876854Y2634081D01*
X2876854Y2555087D01*
X2881884Y2550109D01*
X2906064Y2550109D01*
X2906064Y2588107D01*
X2939084Y2588107D01*
X2939084Y2550109D01*
X2961843Y2550109D01*
X2966872Y2555087D01*
X2966872Y2634081D01*
X2961843Y2639110D01*
G37*
G36*
X3135884Y2480106D02*
G01*
X3130854Y2475077D01*
X3130854Y2395118D01*
X3135884Y2390089D01*
X3215843Y2390089D01*
X3220872Y2395118D01*
X3220872Y2475077D01*
X3215843Y2480106D01*
X3193084Y2480106D01*
X3193084Y2443073D01*
X3160064Y2443073D01*
X3160064Y2480106D01*
G37*
G36*
X3135884Y2639110D02*
G01*
X3130854Y2634081D01*
X3130854Y2555087D01*
X3135884Y2550109D01*
X3160064Y2550109D01*
X3160064Y2588107D01*
X3193084Y2588107D01*
X3193084Y2550109D01*
X3215843Y2550109D01*
X3220872Y2555087D01*
X3220872Y2634081D01*
X3215843Y2639110D01*
G37*
G36*
X3643884Y2480106D02*
G01*
X3638854Y2475077D01*
X3638854Y2395118D01*
X3643884Y2390089D01*
X3723843Y2390089D01*
X3728872Y2395118D01*
X3728872Y2475077D01*
X3723843Y2480106D01*
X3701084Y2480106D01*
X3701084Y2443073D01*
X3668064Y2443073D01*
X3668064Y2480106D01*
G37*
G36*
X3643884Y2639110D02*
G01*
X3638854Y2634081D01*
X3638854Y2555087D01*
X3643884Y2550109D01*
X3668064Y2550109D01*
X3668064Y2588107D01*
X3701084Y2588107D01*
X3701084Y2550109D01*
X3723843Y2550109D01*
X3728872Y2555087D01*
X3728872Y2634081D01*
X3723843Y2639110D01*
G37*
G36*
X3897884Y2480106D02*
G01*
X3892854Y2475077D01*
X3892854Y2395118D01*
X3897884Y2390089D01*
X3977843Y2390089D01*
X3982872Y2395118D01*
X3982872Y2475077D01*
X3977843Y2480106D01*
X3955084Y2480106D01*
X3955084Y2443073D01*
X3922064Y2443073D01*
X3922064Y2480106D01*
G37*
G36*
X3897884Y2639110D02*
G01*
X3892854Y2634081D01*
X3892854Y2555087D01*
X3897884Y2550109D01*
X3922064Y2550109D01*
X3922064Y2588107D01*
X3955084Y2588107D01*
X3955084Y2550109D01*
X3977843Y2550109D01*
X3982872Y2555087D01*
X3982872Y2634081D01*
X3977843Y2639110D01*
G37*
G36*
X4151884Y2480106D02*
G01*
X4146854Y2475077D01*
X4146854Y2395118D01*
X4151884Y2390089D01*
X4231843Y2390089D01*
X4236872Y2395118D01*
X4236872Y2475077D01*
X4231843Y2480106D01*
X4209084Y2480106D01*
X4209084Y2443073D01*
X4176064Y2443073D01*
X4176064Y2480106D01*
G37*
G36*
X4151884Y2639110D02*
G01*
X4146854Y2634081D01*
X4146854Y2555087D01*
X4151884Y2550109D01*
X4176064Y2550109D01*
X4176064Y2588107D01*
X4209084Y2588107D01*
X4209084Y2550109D01*
X4231843Y2550109D01*
X4236872Y2555087D01*
X4236872Y2634081D01*
X4231843Y2639110D01*
G37*
G36*
X4405884Y2480106D02*
G01*
X4400854Y2475077D01*
X4400854Y2395118D01*
X4405884Y2390089D01*
X4485843Y2390089D01*
X4490872Y2395118D01*
X4490872Y2475077D01*
X4485843Y2480106D01*
X4463084Y2480106D01*
X4463084Y2443073D01*
X4430064Y2443073D01*
X4430064Y2480106D01*
G37*
G36*
X4405884Y2639110D02*
G01*
X4400854Y2634081D01*
X4400854Y2555087D01*
X4405884Y2550109D01*
X4430064Y2550109D01*
X4430064Y2588107D01*
X4463084Y2588107D01*
X4463084Y2550109D01*
X4485843Y2550109D01*
X4490872Y2555087D01*
X4490872Y2634081D01*
X4485843Y2639110D01*
G37*
G36*
X4659884Y2480106D02*
G01*
X4654854Y2475077D01*
X4654854Y2395118D01*
X4659884Y2390089D01*
X4739843Y2390089D01*
X4744872Y2395118D01*
X4744872Y2475077D01*
X4739843Y2480106D01*
X4717084Y2480106D01*
X4717084Y2443073D01*
X4684064Y2443073D01*
X4684064Y2480106D01*
G37*
G36*
X4659884Y2639110D02*
G01*
X4654854Y2634081D01*
X4654854Y2555087D01*
X4659884Y2550109D01*
X4684064Y2550109D01*
X4684064Y2588107D01*
X4717084Y2588107D01*
X4717084Y2550109D01*
X4739843Y2550109D01*
X4744872Y2555087D01*
X4744872Y2634081D01*
X4739843Y2639110D01*
G37*
G36*
X4913884Y2480106D02*
G01*
X4908854Y2475077D01*
X4908854Y2395118D01*
X4913884Y2390089D01*
X4993843Y2390089D01*
X4998872Y2395118D01*
X4998872Y2475077D01*
X4993843Y2480106D01*
X4971084Y2480106D01*
X4971084Y2443073D01*
X4938064Y2443073D01*
X4938064Y2480106D01*
G37*
G36*
X4913884Y2639110D02*
G01*
X4908854Y2634081D01*
X4908854Y2555087D01*
X4913884Y2550109D01*
X4938064Y2550109D01*
X4938064Y2588107D01*
X4971084Y2588107D01*
X4971084Y2550109D01*
X4993843Y2550109D01*
X4998872Y2555087D01*
X4998872Y2634081D01*
X4993843Y2639110D01*
G37*
G36*
X5167884Y2480106D02*
G01*
X5162854Y2475077D01*
X5162854Y2395118D01*
X5167884Y2390089D01*
X5247843Y2390089D01*
X5252872Y2395118D01*
X5252872Y2475077D01*
X5247843Y2480106D01*
X5225084Y2480106D01*
X5225084Y2443073D01*
X5192064Y2443073D01*
X5192064Y2480106D01*
G37*
G36*
X5167884Y2639110D02*
G01*
X5162854Y2634081D01*
X5162854Y2555087D01*
X5167884Y2550109D01*
X5192064Y2550109D01*
X5192064Y2588107D01*
X5225084Y2588107D01*
X5225084Y2550109D01*
X5247843Y2550109D01*
X5252872Y2555087D01*
X5252872Y2634081D01*
X5247843Y2639110D01*
G37*
G36*
X5421884Y2480106D02*
G01*
X5416854Y2475077D01*
X5416854Y2395118D01*
X5421884Y2390089D01*
X5501843Y2390089D01*
X5506872Y2395118D01*
X5506872Y2475077D01*
X5501843Y2480106D01*
X5479084Y2480106D01*
X5479084Y2443073D01*
X5446064Y2443073D01*
X5446064Y2480106D01*
G37*
G36*
X5421884Y2639110D02*
G01*
X5416854Y2634081D01*
X5416854Y2555087D01*
X5421884Y2550109D01*
X5446064Y2550109D01*
X5446064Y2588107D01*
X5479084Y2588107D01*
X5479084Y2550109D01*
X5501843Y2550109D01*
X5506872Y2555087D01*
X5506872Y2634081D01*
X5501843Y2639110D01*
G37*
G36*
X1357884Y1978710D02*
G01*
X1352854Y1973681D01*
X1352854Y1893722D01*
X1357884Y1888693D01*
X1380642Y1888693D01*
X1380642Y1925675D01*
X1413662Y1925675D01*
X1413662Y1888693D01*
X1437843Y1888693D01*
X1442872Y1893722D01*
X1442872Y1973681D01*
X1437843Y1978710D01*
G37*
G36*
X1357884Y1818690D02*
G01*
X1352854Y1813712D01*
X1352854Y1734718D01*
X1357884Y1729689D01*
X1437843Y1729689D01*
X1442872Y1734718D01*
X1442872Y1813712D01*
X1437843Y1818690D01*
X1413662Y1818690D01*
X1413662Y1780692D01*
X1380642Y1780692D01*
X1380642Y1818690D01*
G37*
G36*
X1611884Y1978710D02*
G01*
X1606854Y1973681D01*
X1606854Y1893722D01*
X1611884Y1888693D01*
X1634642Y1888693D01*
X1634642Y1925675D01*
X1667662Y1925675D01*
X1667662Y1888693D01*
X1691843Y1888693D01*
X1696872Y1893722D01*
X1696872Y1973681D01*
X1691843Y1978710D01*
G37*
G36*
X1611884Y1818690D02*
G01*
X1606854Y1813712D01*
X1606854Y1734718D01*
X1611884Y1729689D01*
X1691843Y1729689D01*
X1696872Y1734718D01*
X1696872Y1813712D01*
X1691843Y1818690D01*
X1667662Y1818690D01*
X1667662Y1780692D01*
X1634642Y1780692D01*
X1634642Y1818690D01*
G37*
G36*
X1865884Y1978710D02*
G01*
X1860854Y1973681D01*
X1860854Y1893722D01*
X1865884Y1888693D01*
X1888642Y1888693D01*
X1888642Y1925675D01*
X1921662Y1925675D01*
X1921662Y1888693D01*
X1945843Y1888693D01*
X1950872Y1893722D01*
X1950872Y1973681D01*
X1945843Y1978710D01*
G37*
G36*
X1865884Y1818690D02*
G01*
X1860854Y1813712D01*
X1860854Y1734718D01*
X1865884Y1729689D01*
X1945843Y1729689D01*
X1950872Y1734718D01*
X1950872Y1813712D01*
X1945843Y1818690D01*
X1921662Y1818690D01*
X1921662Y1780692D01*
X1888642Y1780692D01*
X1888642Y1818690D01*
G37*
G36*
X2119884Y1978710D02*
G01*
X2114854Y1973681D01*
X2114854Y1893722D01*
X2119884Y1888693D01*
X2142642Y1888693D01*
X2142642Y1925675D01*
X2175662Y1925675D01*
X2175662Y1888693D01*
X2199843Y1888693D01*
X2204872Y1893722D01*
X2204872Y1973681D01*
X2199843Y1978710D01*
G37*
G36*
X2119884Y1818690D02*
G01*
X2114854Y1813712D01*
X2114854Y1734718D01*
X2119884Y1729689D01*
X2199843Y1729689D01*
X2204872Y1734718D01*
X2204872Y1813712D01*
X2199843Y1818690D01*
X2175662Y1818690D01*
X2175662Y1780692D01*
X2142642Y1780692D01*
X2142642Y1818690D01*
G37*
G36*
X2373884Y1978710D02*
G01*
X2368854Y1973681D01*
X2368854Y1893722D01*
X2373884Y1888693D01*
X2396642Y1888693D01*
X2396642Y1925675D01*
X2429662Y1925675D01*
X2429662Y1888693D01*
X2453843Y1888693D01*
X2458872Y1893722D01*
X2458872Y1973681D01*
X2453843Y1978710D01*
G37*
G36*
X2373884Y1818690D02*
G01*
X2368854Y1813712D01*
X2368854Y1734718D01*
X2373884Y1729689D01*
X2453843Y1729689D01*
X2458872Y1734718D01*
X2458872Y1813712D01*
X2453843Y1818690D01*
X2429662Y1818690D01*
X2429662Y1780692D01*
X2396642Y1780692D01*
X2396642Y1818690D01*
G37*
G36*
X2627884Y1978710D02*
G01*
X2622854Y1973681D01*
X2622854Y1893722D01*
X2627884Y1888693D01*
X2650642Y1888693D01*
X2650642Y1925675D01*
X2683662Y1925675D01*
X2683662Y1888693D01*
X2707843Y1888693D01*
X2712872Y1893722D01*
X2712872Y1973681D01*
X2707843Y1978710D01*
G37*
G36*
X2627884Y1818690D02*
G01*
X2622854Y1813712D01*
X2622854Y1734718D01*
X2627884Y1729689D01*
X2707843Y1729689D01*
X2712872Y1734718D01*
X2712872Y1813712D01*
X2707843Y1818690D01*
X2683662Y1818690D01*
X2683662Y1780692D01*
X2650642Y1780692D01*
X2650642Y1818690D01*
G37*
G36*
X2881884Y1978710D02*
G01*
X2876854Y1973681D01*
X2876854Y1893722D01*
X2881884Y1888693D01*
X2904642Y1888693D01*
X2904642Y1925675D01*
X2937662Y1925675D01*
X2937662Y1888693D01*
X2961843Y1888693D01*
X2966872Y1893722D01*
X2966872Y1973681D01*
X2961843Y1978710D01*
G37*
G36*
X2881884Y1818690D02*
G01*
X2876854Y1813712D01*
X2876854Y1734718D01*
X2881884Y1729689D01*
X2961843Y1729689D01*
X2966872Y1734718D01*
X2966872Y1813712D01*
X2961843Y1818690D01*
X2937662Y1818690D01*
X2937662Y1780692D01*
X2904642Y1780692D01*
X2904642Y1818690D01*
G37*
G36*
X3135884Y1978710D02*
G01*
X3130854Y1973681D01*
X3130854Y1893722D01*
X3135884Y1888693D01*
X3158642Y1888693D01*
X3158642Y1925675D01*
X3191662Y1925675D01*
X3191662Y1888693D01*
X3215843Y1888693D01*
X3220872Y1893722D01*
X3220872Y1973681D01*
X3215843Y1978710D01*
G37*
G36*
X3135884Y1818690D02*
G01*
X3130854Y1813712D01*
X3130854Y1734718D01*
X3135884Y1729689D01*
X3215843Y1729689D01*
X3220872Y1734718D01*
X3220872Y1813712D01*
X3215843Y1818690D01*
X3191662Y1818690D01*
X3191662Y1780692D01*
X3158642Y1780692D01*
X3158642Y1818690D01*
G37*
G36*
X3643884Y1978710D02*
G01*
X3638854Y1973681D01*
X3638854Y1893722D01*
X3643884Y1888693D01*
X3666642Y1888693D01*
X3666642Y1925675D01*
X3699662Y1925675D01*
X3699662Y1888693D01*
X3723843Y1888693D01*
X3728872Y1893722D01*
X3728872Y1973681D01*
X3723843Y1978710D01*
G37*
G36*
X3643884Y1818690D02*
G01*
X3638854Y1813712D01*
X3638854Y1734718D01*
X3643884Y1729689D01*
X3723843Y1729689D01*
X3728872Y1734718D01*
X3728872Y1813712D01*
X3723843Y1818690D01*
X3699662Y1818690D01*
X3699662Y1780692D01*
X3666642Y1780692D01*
X3666642Y1818690D01*
G37*
G36*
X3897884Y1978710D02*
G01*
X3892854Y1973681D01*
X3892854Y1893722D01*
X3897884Y1888693D01*
X3920642Y1888693D01*
X3920642Y1925675D01*
X3953662Y1925675D01*
X3953662Y1888693D01*
X3977843Y1888693D01*
X3982872Y1893722D01*
X3982872Y1973681D01*
X3977843Y1978710D01*
G37*
G36*
X3897884Y1818690D02*
G01*
X3892854Y1813712D01*
X3892854Y1734718D01*
X3897884Y1729689D01*
X3977843Y1729689D01*
X3982872Y1734718D01*
X3982872Y1813712D01*
X3977843Y1818690D01*
X3953662Y1818690D01*
X3953662Y1780692D01*
X3920642Y1780692D01*
X3920642Y1818690D01*
G37*
G36*
X4151884Y1978710D02*
G01*
X4146854Y1973681D01*
X4146854Y1893722D01*
X4151884Y1888693D01*
X4174642Y1888693D01*
X4174642Y1925675D01*
X4207662Y1925675D01*
X4207662Y1888693D01*
X4231843Y1888693D01*
X4236872Y1893722D01*
X4236872Y1973681D01*
X4231843Y1978710D01*
G37*
G36*
X4151884Y1818690D02*
G01*
X4146854Y1813712D01*
X4146854Y1734718D01*
X4151884Y1729689D01*
X4231843Y1729689D01*
X4236872Y1734718D01*
X4236872Y1813712D01*
X4231843Y1818690D01*
X4207662Y1818690D01*
X4207662Y1780692D01*
X4174642Y1780692D01*
X4174642Y1818690D01*
G37*
G36*
X4405884Y1978710D02*
G01*
X4400854Y1973681D01*
X4400854Y1893722D01*
X4405884Y1888693D01*
X4428642Y1888693D01*
X4428642Y1925675D01*
X4461662Y1925675D01*
X4461662Y1888693D01*
X4485843Y1888693D01*
X4490872Y1893722D01*
X4490872Y1973681D01*
X4485843Y1978710D01*
G37*
G36*
X4405884Y1818690D02*
G01*
X4400854Y1813712D01*
X4400854Y1734718D01*
X4405884Y1729689D01*
X4485843Y1729689D01*
X4490872Y1734718D01*
X4490872Y1813712D01*
X4485843Y1818690D01*
X4461662Y1818690D01*
X4461662Y1780692D01*
X4428642Y1780692D01*
X4428642Y1818690D01*
G37*
G36*
X4659884Y1978710D02*
G01*
X4654854Y1973681D01*
X4654854Y1893722D01*
X4659884Y1888693D01*
X4682642Y1888693D01*
X4682642Y1925675D01*
X4715662Y1925675D01*
X4715662Y1888693D01*
X4739843Y1888693D01*
X4744872Y1893722D01*
X4744872Y1973681D01*
X4739843Y1978710D01*
G37*
G36*
X4659884Y1818690D02*
G01*
X4654854Y1813712D01*
X4654854Y1734718D01*
X4659884Y1729689D01*
X4739843Y1729689D01*
X4744872Y1734718D01*
X4744872Y1813712D01*
X4739843Y1818690D01*
X4715662Y1818690D01*
X4715662Y1780692D01*
X4682642Y1780692D01*
X4682642Y1818690D01*
G37*
G36*
X4913884Y1978710D02*
G01*
X4908854Y1973681D01*
X4908854Y1893722D01*
X4913884Y1888693D01*
X4936642Y1888693D01*
X4936642Y1925675D01*
X4969662Y1925675D01*
X4969662Y1888693D01*
X4993843Y1888693D01*
X4998872Y1893722D01*
X4998872Y1973681D01*
X4993843Y1978710D01*
G37*
G36*
X4913884Y1818690D02*
G01*
X4908854Y1813712D01*
X4908854Y1734718D01*
X4913884Y1729689D01*
X4993843Y1729689D01*
X4998872Y1734718D01*
X4998872Y1813712D01*
X4993843Y1818690D01*
X4969662Y1818690D01*
X4969662Y1780692D01*
X4936642Y1780692D01*
X4936642Y1818690D01*
G37*
G36*
X5167884Y1978710D02*
G01*
X5162854Y1973681D01*
X5162854Y1893722D01*
X5167884Y1888693D01*
X5190642Y1888693D01*
X5190642Y1925675D01*
X5223662Y1925675D01*
X5223662Y1888693D01*
X5247843Y1888693D01*
X5252872Y1893722D01*
X5252872Y1973681D01*
X5247843Y1978710D01*
G37*
G36*
X5167884Y1818690D02*
G01*
X5162854Y1813712D01*
X5162854Y1734718D01*
X5167884Y1729689D01*
X5247843Y1729689D01*
X5252872Y1734718D01*
X5252872Y1813712D01*
X5247843Y1818690D01*
X5223662Y1818690D01*
X5223662Y1780692D01*
X5190642Y1780692D01*
X5190642Y1818690D01*
G37*
G36*
X5421884Y1978710D02*
G01*
X5416854Y1973681D01*
X5416854Y1893722D01*
X5421884Y1888693D01*
X5444642Y1888693D01*
X5444642Y1925675D01*
X5477662Y1925675D01*
X5477662Y1888693D01*
X5501843Y1888693D01*
X5506872Y1893722D01*
X5506872Y1973681D01*
X5501843Y1978710D01*
G37*
G36*
X5421884Y1818690D02*
G01*
X5416854Y1813712D01*
X5416854Y1734718D01*
X5421884Y1729689D01*
X5501843Y1729689D01*
X5506872Y1734718D01*
X5506872Y1813712D01*
X5501843Y1818690D01*
X5477662Y1818690D01*
X5477662Y1780692D01*
X5444642Y1780692D01*
X5444642Y1818690D01*
G37*
D10*
G01*
X571512Y-10279204D03*
G01*
X571512Y-9939200D03*
D11*
G01*
X1155712Y-5949800D03*
G01*
X1155712Y-6089804D03*
D12*
G01*
X11274590Y-1237998D03*
G01*
X11274590Y-1048006D03*
G01*
X11534609Y-1048006D03*
G01*
X11534609Y-1143002D03*
G01*
X11534609Y-1237998D03*
G01*
X11274590Y-1568198D03*
G01*
X11274590Y-1378206D03*
G01*
X11534609Y-1378206D03*
G01*
X11534609Y-1473202D03*
G01*
X11534609Y-1568198D03*
G01*
X-326326Y6093D03*
G01*
X-326326Y-183898D03*
G01*
X-586346Y-183898D03*
G01*
X-586346Y-88902D03*
G01*
X-586346Y6093D03*
G01*
X11274590Y-5708398D03*
G01*
X11274590Y-5518406D03*
G01*
X11534609Y-5518406D03*
G01*
X11534609Y-5613402D03*
G01*
X11534609Y-5708398D03*
G01*
X11275453Y-1898398D03*
G01*
X11275453Y-1708406D03*
G01*
X11535473Y-1708406D03*
G01*
X11535473Y-1803402D03*
G01*
X11535473Y-1898398D03*
G01*
X11274590Y-361698D03*
G01*
X11274590Y-171706D03*
G01*
X11534609Y-171706D03*
G01*
X11534609Y-266702D03*
G01*
X11534609Y-361698D03*
G01*
X11275453Y-2228598D03*
G01*
X11275453Y-2038606D03*
G01*
X11535473Y-2038606D03*
G01*
X11535473Y-2133602D03*
G01*
X11535473Y-2228598D03*
D13*
G01*
X-582307Y-9639302D03*
G01*
X-752487Y-9639302D03*
D14*
G01*
X413372Y-9694268D03*
G01*
X223380Y-9694268D03*
G01*
X318376Y-9914511D03*
D13*
G01*
X86042Y-10084132D03*
G01*
X245935Y-10083446D03*
G01*
X-383959Y-5194302D03*
G01*
X-554139Y-5194302D03*
G01*
X-383959Y-5702302D03*
G01*
X-554139Y-5702302D03*
G01*
X-383959Y-6210302D03*
G01*
X-554139Y-6210302D03*
G01*
X-383959Y-7226302D03*
G01*
X-554139Y-7226302D03*
G01*
X-383959Y-6718302D03*
G01*
X-554139Y-6718302D03*
G01*
X10499102Y-4432302D03*
G01*
X10328922Y-4432302D03*
G01*
X10499102Y-3746502D03*
G01*
X10328922Y-3746502D03*
G01*
X10499102Y-3162302D03*
G01*
X10328922Y-3162302D03*
G01*
X10511802Y-2578102D03*
G01*
X10341622Y-2578102D03*
G01*
X10499102Y-1930402D03*
G01*
X10328922Y-1930402D03*
G01*
X10499102Y-1346202D03*
G01*
X10328922Y-1346202D03*
G01*
X10499102Y-368302D03*
G01*
X10328922Y-368302D03*
G01*
X10499102Y609597D03*
G01*
X10328922Y609597D03*
G01*
X10499102Y1181097D03*
G01*
X10328922Y1181097D03*
G01*
X1185786Y393697D03*
G01*
X1355966Y393697D03*
G01*
X1184922Y-2921002D03*
G01*
X1355102Y-2921002D03*
G01*
X10499102Y-6972302D03*
G01*
X10328922Y-6972302D03*
G01*
X10499102Y-5702302D03*
G01*
X10328922Y-5702302D03*
G01*
X6084176Y-8538212D03*
G01*
X6084176Y-8708392D03*
G01*
X6338176Y-8538212D03*
G01*
X6338176Y-8708392D03*
G01*
X6846176Y-8538212D03*
G01*
X6846176Y-8708392D03*
G01*
X6592176Y-8538212D03*
G01*
X6592176Y-8708392D03*
G01*
X7608176Y-8538212D03*
G01*
X7608176Y-8708392D03*
G01*
X7862176Y-8538212D03*
G01*
X7862176Y-8708392D03*
G01*
X7354176Y-8538212D03*
G01*
X7354176Y-8708392D03*
G01*
X7100176Y-8538212D03*
G01*
X7100176Y-8708392D03*
G01*
X4826876Y-8538212D03*
G01*
X4826876Y-8708392D03*
G01*
X5080876Y-8538212D03*
G01*
X5080876Y-8708392D03*
G01*
X5588876Y-8538212D03*
G01*
X5588876Y-8708392D03*
G01*
X5334876Y-8538212D03*
G01*
X5334876Y-8708392D03*
G01*
X4318876Y-8538212D03*
G01*
X4318876Y-8708392D03*
G01*
X4572876Y-8538212D03*
G01*
X4572876Y-8708392D03*
G01*
X4064876Y-8538212D03*
G01*
X4064876Y-8708392D03*
G01*
X3810876Y-8538212D03*
G01*
X3810876Y-8708392D03*
G01*
X8509038Y2268725D03*
G01*
X8509038Y2098545D03*
G01*
X8763038Y2268725D03*
G01*
X8763038Y2098545D03*
G01*
X9271038Y2268725D03*
G01*
X9271038Y2098545D03*
G01*
X9017038Y2268725D03*
G01*
X9017038Y2098545D03*
G01*
X10033038Y2268725D03*
G01*
X10033038Y2098545D03*
G01*
X10287038Y2268725D03*
G01*
X10287038Y2098545D03*
G01*
X9779038Y2268725D03*
G01*
X9779038Y2098545D03*
G01*
X9525038Y2268725D03*
G01*
X9525038Y2098545D03*
G01*
X7239876Y2269487D03*
G01*
X7239876Y2099307D03*
G01*
X7493876Y2269487D03*
G01*
X7493876Y2099307D03*
G01*
X8001876Y2269487D03*
G01*
X8001876Y2099307D03*
G01*
X7747876Y2269487D03*
G01*
X7747876Y2099307D03*
G01*
X6731876Y2269487D03*
G01*
X6731876Y2099307D03*
G01*
X6985876Y2269487D03*
G01*
X6985876Y2099307D03*
G01*
X6477876Y2269487D03*
G01*
X6477876Y2099307D03*
G01*
X6223876Y2269487D03*
G01*
X6223876Y2099307D03*
G01*
X3121266Y-241302D03*
G01*
X2951086Y-241302D03*
G01*
X3883266Y-241302D03*
G01*
X3713086Y-241302D03*
G01*
X7959940Y-241302D03*
G01*
X7789760Y-241302D03*
G01*
X8721940Y-241302D03*
G01*
X8551760Y-241302D03*
G01*
X3133940Y-1511302D03*
G01*
X2963760Y-1511302D03*
G01*
X3514940Y-1511302D03*
G01*
X3344760Y-1511302D03*
G01*
X7959940Y-1511302D03*
G01*
X7789760Y-1511302D03*
G01*
X8340940Y-1511302D03*
G01*
X8170760Y-1511302D03*
G01*
X8721940Y-1511302D03*
G01*
X8551760Y-1511302D03*
G01*
X5534266Y-5575302D03*
G01*
X5364086Y-5575302D03*
G01*
X6296266Y-5575302D03*
G01*
X6126086Y-5575302D03*
G01*
X5927940Y-6845302D03*
G01*
X5757760Y-6845302D03*
G01*
X1397876Y2269487D03*
G01*
X1397876Y2099307D03*
G01*
X1651876Y2269487D03*
G01*
X1651876Y2099307D03*
G01*
X2159876Y2269487D03*
G01*
X2159876Y2099307D03*
G01*
X1905876Y2269487D03*
G01*
X1905876Y2099307D03*
G01*
X2921876Y2269487D03*
G01*
X2921876Y2099307D03*
G01*
X3175876Y2269487D03*
G01*
X3175876Y2099307D03*
G01*
X2667876Y2269487D03*
G01*
X2667876Y2099307D03*
G01*
X2413876Y2269487D03*
G01*
X2413876Y2099307D03*
G01*
X4699876Y2269487D03*
G01*
X4699876Y2099307D03*
G01*
X4953876Y2269487D03*
G01*
X4953876Y2099307D03*
G01*
X5461876Y2269487D03*
G01*
X5461876Y2099307D03*
G01*
X5207876Y2269487D03*
G01*
X5207876Y2099307D03*
G01*
X4191876Y2269487D03*
G01*
X4191876Y2099307D03*
G01*
X4445876Y2269487D03*
G01*
X4445876Y2099307D03*
G01*
X3937876Y2269487D03*
G01*
X3937876Y2099307D03*
G01*
X3683876Y2269487D03*
G01*
X3683876Y2099307D03*
M02*
