G04 Layer: BottomSilkscreenLayer*
G04 EasyEDA v6.5.32, 2023-07-25 14:04:49*
G04 83b8108bbb2141419d28d1856ce8099d,5a6b42c53f6a479593ecc07194224c93,10*
G04 Gerber Generator version 0.2*
G04 Scale: 100 percent, Rotated: No, Reflected: No *
G04 Dimensions in millimeters *
G04 leading zeros omitted , absolute positions ,4 integer and 5 decimal *
%FSLAX45Y45*%
%MOMM*%

%ADD10C,0.1524*%
%ADD11C,0.1520*%

%LPD*%
D10*
X3401822Y20688808D02*
G01*
X3407156Y20699221D01*
X3417570Y20709636D01*
X3427729Y20714716D01*
X3448558Y20714716D01*
X3458972Y20709636D01*
X3469386Y20699221D01*
X3474720Y20688808D01*
X3479800Y20673060D01*
X3479800Y20647152D01*
X3474720Y20631658D01*
X3469386Y20621244D01*
X3458972Y20610829D01*
X3448558Y20605750D01*
X3427729Y20605750D01*
X3417570Y20610829D01*
X3407156Y20621244D01*
X3401822Y20631658D01*
X3336290Y20714716D02*
G01*
X3346704Y20709636D01*
X3357118Y20699221D01*
X3362452Y20688808D01*
X3367531Y20673060D01*
X3367531Y20647152D01*
X3362452Y20631658D01*
X3357118Y20621244D01*
X3346704Y20610829D01*
X3336290Y20605750D01*
X3315715Y20605750D01*
X3305302Y20610829D01*
X3294888Y20621244D01*
X3289554Y20631658D01*
X3284474Y20647152D01*
X3284474Y20673060D01*
X3289554Y20688808D01*
X3294888Y20699221D01*
X3305302Y20709636D01*
X3315715Y20714716D01*
X3336290Y20714716D01*
X3250184Y20714716D02*
G01*
X3250184Y20605750D01*
X3250184Y20714716D02*
G01*
X3203447Y20714716D01*
X3187700Y20709636D01*
X3182620Y20704302D01*
X3177540Y20693887D01*
X3177540Y20678394D01*
X3182620Y20667979D01*
X3187700Y20662900D01*
X3203447Y20657566D01*
X3250184Y20657566D01*
X3143250Y20714716D02*
G01*
X3101593Y20662900D01*
X3101593Y20605750D01*
X3059938Y20714716D02*
G01*
X3101593Y20662900D01*
X3025647Y20714716D02*
G01*
X3025647Y20605750D01*
X3025647Y20714716D02*
G01*
X2978911Y20714716D01*
X2963418Y20709636D01*
X2958084Y20704302D01*
X2953004Y20693887D01*
X2953004Y20683474D01*
X2958084Y20673060D01*
X2963418Y20667979D01*
X2978911Y20662900D01*
X3025647Y20662900D01*
X2989325Y20662900D02*
G01*
X2953004Y20605750D01*
X2918713Y20714716D02*
G01*
X2918713Y20605750D01*
X2806445Y20688808D02*
G01*
X2811779Y20699221D01*
X2821940Y20709636D01*
X2832354Y20714716D01*
X2853181Y20714716D01*
X2863595Y20709636D01*
X2874009Y20699221D01*
X2879090Y20688808D01*
X2884424Y20673060D01*
X2884424Y20647152D01*
X2879090Y20631658D01*
X2874009Y20621244D01*
X2863595Y20610829D01*
X2853181Y20605750D01*
X2832354Y20605750D01*
X2821940Y20610829D01*
X2811779Y20621244D01*
X2806445Y20631658D01*
X2806445Y20647152D01*
X2832354Y20647152D02*
G01*
X2806445Y20647152D01*
X2772156Y20714716D02*
G01*
X2772156Y20605750D01*
X2699511Y20714716D02*
G01*
X2699511Y20605750D01*
X2772156Y20662900D02*
G01*
X2699511Y20662900D01*
X2628900Y20714716D02*
G01*
X2628900Y20605750D01*
X2665222Y20714716D02*
G01*
X2592324Y20714716D01*
X2472943Y20688808D02*
G01*
X2472943Y20693887D01*
X2467609Y20704302D01*
X2462529Y20709636D01*
X2452115Y20714716D01*
X2431288Y20714716D01*
X2420874Y20709636D01*
X2415793Y20704302D01*
X2410459Y20693887D01*
X2410459Y20683474D01*
X2415793Y20673060D01*
X2426208Y20657566D01*
X2478024Y20605750D01*
X2405379Y20605750D01*
X2339847Y20714716D02*
G01*
X2355595Y20709636D01*
X2366009Y20693887D01*
X2371090Y20667979D01*
X2371090Y20652486D01*
X2366009Y20626324D01*
X2355595Y20610829D01*
X2339847Y20605750D01*
X2329434Y20605750D01*
X2313940Y20610829D01*
X2303525Y20626324D01*
X2298445Y20652486D01*
X2298445Y20667979D01*
X2303525Y20693887D01*
X2313940Y20709636D01*
X2329434Y20714716D01*
X2339847Y20714716D01*
X2258822Y20688808D02*
G01*
X2258822Y20693887D01*
X2253741Y20704302D01*
X2248408Y20709636D01*
X2237993Y20714716D01*
X2217420Y20714716D01*
X2207006Y20709636D01*
X2201672Y20704302D01*
X2196591Y20693887D01*
X2196591Y20683474D01*
X2201672Y20673060D01*
X2212086Y20657566D01*
X2264156Y20605750D01*
X2191258Y20605750D01*
X2151888Y20688808D02*
G01*
X2151888Y20693887D01*
X2146554Y20704302D01*
X2141474Y20709636D01*
X2131059Y20714716D01*
X2110231Y20714716D01*
X2099818Y20709636D01*
X2094738Y20704302D01*
X2089404Y20693887D01*
X2089404Y20683474D01*
X2094738Y20673060D01*
X2105152Y20657566D01*
X2156968Y20605750D01*
X2084324Y20605750D01*
X1970024Y20714716D02*
G01*
X1928368Y20605750D01*
X1886965Y20714716D02*
G01*
X1928368Y20605750D01*
X1852675Y20714716D02*
G01*
X1852675Y20605750D01*
X1852675Y20714716D02*
G01*
X1785111Y20714716D01*
X1852675Y20662900D02*
G01*
X1811020Y20662900D01*
X1852675Y20605750D02*
G01*
X1785111Y20605750D01*
X1677924Y20714716D02*
G01*
X1729993Y20605750D01*
X1750822Y20714716D02*
G01*
X1677924Y20714716D01*
X1643634Y20714716D02*
G01*
X1643634Y20605750D01*
X1643634Y20714716D02*
G01*
X1576070Y20714716D01*
X1643634Y20662900D02*
G01*
X1602231Y20662900D01*
X1541779Y20714716D02*
G01*
X1541779Y20605750D01*
X1507490Y20714716D02*
G01*
X1507490Y20605750D01*
X1507490Y20714716D02*
G01*
X1466088Y20605750D01*
X1424431Y20714716D02*
G01*
X1466088Y20605750D01*
X1424431Y20714716D02*
G01*
X1424431Y20605750D01*
D11*
X2513444Y20536938D02*
G01*
X2513444Y20453812D01*
X2518641Y20438224D01*
X2523835Y20433029D01*
X2534226Y20427835D01*
X2544617Y20427835D01*
X2555008Y20433029D01*
X2560205Y20438224D01*
X2565400Y20453812D01*
X2565400Y20464203D01*
X2479154Y20536938D02*
G01*
X2479154Y20427835D01*
X2479154Y20427835D02*
G01*
X2416809Y20427835D01*
X2304587Y20510962D02*
G01*
X2309784Y20521353D01*
X2320175Y20531744D01*
X2330564Y20536938D01*
X2351346Y20536938D01*
X2361737Y20531744D01*
X2372128Y20521353D01*
X2377325Y20510962D01*
X2382520Y20495374D01*
X2382520Y20469397D01*
X2377325Y20453812D01*
X2372128Y20443421D01*
X2361737Y20433029D01*
X2351346Y20427835D01*
X2330564Y20427835D01*
X2320175Y20433029D01*
X2309784Y20443421D01*
X2304587Y20453812D01*
X2218344Y20536938D02*
G01*
X2218344Y20453812D01*
X2223538Y20438224D01*
X2228735Y20433029D01*
X2239124Y20427835D01*
X2249515Y20427835D01*
X2259906Y20433029D01*
X2265103Y20438224D01*
X2270297Y20453812D01*
X2270297Y20464203D01*
X2184054Y20536938D02*
G01*
X2184054Y20427835D01*
X2184054Y20427835D02*
G01*
X2121707Y20427835D01*
X2009485Y20510962D02*
G01*
X2014682Y20521353D01*
X2025073Y20531744D01*
X2035464Y20536938D01*
X2056244Y20536938D01*
X2066635Y20531744D01*
X2077026Y20521353D01*
X2082223Y20510962D01*
X2087417Y20495374D01*
X2087417Y20469397D01*
X2082223Y20453812D01*
X2077026Y20443421D01*
X2066635Y20433029D01*
X2056244Y20427835D01*
X2035464Y20427835D01*
X2025073Y20433029D01*
X2014682Y20443421D01*
X2009485Y20453812D01*
X1923242Y20536938D02*
G01*
X1923242Y20453812D01*
X1928436Y20438224D01*
X1933633Y20433029D01*
X1944024Y20427835D01*
X1954415Y20427835D01*
X1964804Y20433029D01*
X1970001Y20438224D01*
X1975195Y20453812D01*
X1975195Y20464203D01*
X1888952Y20536938D02*
G01*
X1888952Y20427835D01*
X1888952Y20427835D02*
G01*
X1826605Y20427835D01*
X1714385Y20510962D02*
G01*
X1719579Y20521353D01*
X1729971Y20531744D01*
X1740362Y20536938D01*
X1761144Y20536938D01*
X1771535Y20531744D01*
X1781924Y20521353D01*
X1787121Y20510962D01*
X1792315Y20495374D01*
X1792315Y20469397D01*
X1787121Y20453812D01*
X1781924Y20443421D01*
X1771535Y20433029D01*
X1761144Y20427835D01*
X1740362Y20427835D01*
X1729971Y20433029D01*
X1719579Y20443421D01*
X1714385Y20453812D01*
X1628140Y20536938D02*
G01*
X1628140Y20453812D01*
X1633334Y20438224D01*
X1638531Y20433029D01*
X1648922Y20427835D01*
X1659313Y20427835D01*
X1669704Y20433029D01*
X1674898Y20438224D01*
X1680095Y20453812D01*
X1680095Y20464203D01*
X1593850Y20536938D02*
G01*
X1593850Y20427835D01*
X1593850Y20427835D02*
G01*
X1531505Y20427835D01*
X1419283Y20510962D02*
G01*
X1424477Y20521353D01*
X1434868Y20531744D01*
X1445259Y20536938D01*
X1466042Y20536938D01*
X1476433Y20531744D01*
X1486824Y20521353D01*
X1492018Y20510962D01*
X1497215Y20495374D01*
X1497215Y20469397D01*
X1492018Y20453812D01*
X1486824Y20443421D01*
X1476433Y20433029D01*
X1466042Y20427835D01*
X1445259Y20427835D01*
X1434868Y20433029D01*
X1424477Y20443421D01*
X1419283Y20453812D01*
M02*
