G04 Layer: BottomLayer*
G04 EasyEDA v6.5.34, 2023-08-21 18:11:39*
G04 3c53056fde0748dba5be5e51cb54a096,5a6b42c53f6a479593ecc07194224c93,10*
G04 Gerber Generator version 0.2*
G04 Scale: 100 percent, Rotated: No, Reflected: No *
G04 Dimensions in millimeters *
G04 leading zeros omitted , absolute positions ,4 integer and 5 decimal *
%FSLAX45Y45*%
%MOMM*%

%AMMACRO1*21,1,$1,$2,0,0,$3*%
%ADD10C,0.1524*%
%ADD11C,0.5000*%
%ADD12C,0.2540*%
%ADD13C,1.8000*%
%ADD14MACRO1,1.8X1.7X-90.0000*%
%ADD15MACRO1,1.8X1.7X0.0000*%
%ADD16R,1.8000X1.8000*%
%ADD17C,5.0000*%
%ADD18C,0.6096*%
%ADD19C,0.0104*%

%LPD*%
G36*
X36068Y3556000D02*
G01*
X32156Y3556762D01*
X28905Y3558946D01*
X26670Y3562248D01*
X25908Y3566160D01*
X25908Y5805932D01*
X26670Y5809843D01*
X28905Y5813094D01*
X32156Y5815330D01*
X36068Y5816092D01*
X2555240Y5816092D01*
X2559151Y5815330D01*
X2562402Y5813094D01*
X2564638Y5809843D01*
X2565400Y5805932D01*
X2566162Y5809843D01*
X2568397Y5813094D01*
X2571648Y5815330D01*
X2575560Y5816092D01*
X5805932Y5816092D01*
X5809843Y5815330D01*
X5813094Y5813094D01*
X5815330Y5809843D01*
X5816092Y5805932D01*
X5816092Y4582160D01*
X5815330Y4578248D01*
X5813094Y4574946D01*
X5809843Y4572762D01*
X5805932Y4572000D01*
X2795016Y4572000D01*
X2794000Y4570984D01*
X2794000Y3566160D01*
X2793238Y3562248D01*
X2791002Y3558946D01*
X2787700Y3556762D01*
X2783840Y3556000D01*
G37*

%LPC*%
G36*
X4584700Y5219039D02*
G01*
X4593691Y5220157D01*
X4607814Y5223764D01*
X4621326Y5229148D01*
X4634077Y5236159D01*
X4645863Y5244693D01*
X4656480Y5254650D01*
X4665776Y5265877D01*
X4673549Y5278170D01*
X4679746Y5291328D01*
X4684268Y5305196D01*
X4686960Y5319471D01*
X4687112Y5321300D01*
X4584700Y5321300D01*
G37*
G36*
X1821484Y4710328D02*
G01*
X1836013Y4710328D01*
X1850440Y4712157D01*
X1864563Y4715764D01*
X1878075Y4721148D01*
X1890826Y4728159D01*
X1902612Y4736693D01*
X1913229Y4746650D01*
X1922475Y4757877D01*
X1930298Y4770170D01*
X1936496Y4783328D01*
X1940966Y4797196D01*
X1943709Y4811471D01*
X1944624Y4826000D01*
X1943709Y4840528D01*
X1940966Y4854803D01*
X1936496Y4868672D01*
X1930298Y4881829D01*
X1922475Y4894122D01*
X1913229Y4905349D01*
X1902612Y4915306D01*
X1890826Y4923840D01*
X1878075Y4930851D01*
X1864563Y4936185D01*
X1850440Y4939842D01*
X1836013Y4941671D01*
X1821484Y4941671D01*
X1807006Y4939842D01*
X1792935Y4936185D01*
X1779422Y4930851D01*
X1766671Y4923840D01*
X1754886Y4915306D01*
X1744268Y4905349D01*
X1734972Y4894122D01*
X1727200Y4881829D01*
X1721002Y4868672D01*
X1716481Y4854803D01*
X1713788Y4840528D01*
X1712874Y4826000D01*
X1713788Y4811471D01*
X1716481Y4797196D01*
X1721002Y4783328D01*
X1727200Y4770170D01*
X1734972Y4757877D01*
X1744268Y4746650D01*
X1754886Y4736693D01*
X1766671Y4728159D01*
X1779422Y4721148D01*
X1792935Y4715764D01*
X1807006Y4712157D01*
G37*
G36*
X2075484Y4710328D02*
G01*
X2090013Y4710328D01*
X2104440Y4712157D01*
X2118563Y4715764D01*
X2132076Y4721148D01*
X2144826Y4728159D01*
X2156612Y4736693D01*
X2167229Y4746650D01*
X2176475Y4757877D01*
X2184298Y4770170D01*
X2190496Y4783328D01*
X2194966Y4797196D01*
X2197709Y4811471D01*
X2198624Y4826000D01*
X2197709Y4840528D01*
X2194966Y4854803D01*
X2190496Y4868672D01*
X2184298Y4881829D01*
X2176475Y4894122D01*
X2167229Y4905349D01*
X2156612Y4915306D01*
X2144826Y4923840D01*
X2132076Y4930851D01*
X2118563Y4936185D01*
X2104440Y4939842D01*
X2090013Y4941671D01*
X2075484Y4941671D01*
X2061006Y4939842D01*
X2046935Y4936185D01*
X2033422Y4930851D01*
X2020671Y4923840D01*
X2008886Y4915306D01*
X1998268Y4905349D01*
X1988972Y4894122D01*
X1981200Y4881829D01*
X1975002Y4868672D01*
X1970481Y4854803D01*
X1967788Y4840528D01*
X1966874Y4826000D01*
X1967788Y4811471D01*
X1970481Y4797196D01*
X1975002Y4783328D01*
X1981200Y4770170D01*
X1988972Y4757877D01*
X1998268Y4746650D01*
X2008886Y4736693D01*
X2020671Y4728159D01*
X2033422Y4721148D01*
X2046935Y4715764D01*
X2061006Y4712157D01*
G37*
G36*
X1333449Y4715103D02*
G01*
X1410157Y4715103D01*
X1416507Y4715814D01*
X1421942Y4717694D01*
X1426870Y4720793D01*
X1430934Y4724857D01*
X1434033Y4729784D01*
X1435963Y4735220D01*
X1436674Y4741570D01*
X1436674Y4813300D01*
X1333449Y4813300D01*
G37*
G36*
X1231290Y4715103D02*
G01*
X1308049Y4715103D01*
X1308049Y4813300D01*
X1204823Y4813300D01*
X1204823Y4741570D01*
X1205534Y4735220D01*
X1207465Y4729784D01*
X1210564Y4724857D01*
X1214628Y4720793D01*
X1219555Y4717694D01*
X1224991Y4715814D01*
G37*
G36*
X4826000Y4769612D02*
G01*
X4835753Y4770475D01*
X4845253Y4773015D01*
X4854143Y4777181D01*
X4862220Y4782820D01*
X4869129Y4789728D01*
X4874768Y4797806D01*
X4878933Y4806696D01*
X4881473Y4816195D01*
X4882337Y4825949D01*
X4881473Y4835753D01*
X4878933Y4845253D01*
X4874768Y4854143D01*
X4869129Y4862220D01*
X4867554Y4863795D01*
X4865370Y4867097D01*
X4864608Y4870958D01*
X4864608Y5136591D01*
X4865370Y5140502D01*
X4867554Y5143804D01*
X4869180Y5145379D01*
X4874818Y5153406D01*
X4878933Y5162346D01*
X4881473Y5171795D01*
X4882337Y5181600D01*
X4881473Y5191404D01*
X4878933Y5200853D01*
X4877866Y5203190D01*
X4876901Y5207508D01*
X4876901Y5224018D01*
X4877562Y5227523D01*
X4879390Y5230622D01*
X4882184Y5232908D01*
X4888077Y5236159D01*
X4899863Y5244693D01*
X4910480Y5254650D01*
X4919776Y5265877D01*
X4927549Y5278170D01*
X4933746Y5291328D01*
X4938268Y5305196D01*
X4940960Y5319471D01*
X4941874Y5334000D01*
X4940960Y5348528D01*
X4938268Y5362803D01*
X4933746Y5376672D01*
X4927549Y5389829D01*
X4919776Y5402122D01*
X4910480Y5413349D01*
X4899863Y5423306D01*
X4888077Y5431840D01*
X4875326Y5438851D01*
X4861814Y5444236D01*
X4847691Y5447842D01*
X4833264Y5449671D01*
X4818735Y5449671D01*
X4804308Y5447842D01*
X4790186Y5444236D01*
X4776673Y5438851D01*
X4763922Y5431840D01*
X4752136Y5423306D01*
X4741519Y5413349D01*
X4732223Y5402122D01*
X4724450Y5389829D01*
X4718253Y5376672D01*
X4713732Y5362803D01*
X4711039Y5348528D01*
X4710125Y5334000D01*
X4711039Y5319471D01*
X4713732Y5305196D01*
X4718253Y5291328D01*
X4724450Y5278170D01*
X4732223Y5265877D01*
X4741519Y5254650D01*
X4752136Y5244693D01*
X4763922Y5236159D01*
X4769815Y5232908D01*
X4772609Y5230622D01*
X4774438Y5227523D01*
X4775098Y5224018D01*
X4775098Y5207508D01*
X4774133Y5203190D01*
X4773066Y5200853D01*
X4770526Y5191404D01*
X4769662Y5181600D01*
X4770526Y5171795D01*
X4773066Y5162346D01*
X4777181Y5153406D01*
X4782820Y5145379D01*
X4784394Y5143804D01*
X4786630Y5140502D01*
X4787392Y5136642D01*
X4787392Y4870958D01*
X4786630Y4867097D01*
X4784394Y4863795D01*
X4782820Y4862220D01*
X4777181Y4854143D01*
X4773015Y4845253D01*
X4770475Y4835753D01*
X4769662Y4825949D01*
X4770475Y4816195D01*
X4773015Y4806696D01*
X4777181Y4797806D01*
X4782820Y4789728D01*
X4789779Y4782820D01*
X4797806Y4777181D01*
X4806696Y4773015D01*
X4816195Y4770475D01*
G37*
G36*
X1333449Y4838700D02*
G01*
X1436674Y4838700D01*
X1436674Y4910429D01*
X1435963Y4916728D01*
X1434033Y4922215D01*
X1430934Y4927092D01*
X1426870Y4931206D01*
X1421942Y4934254D01*
X1416507Y4936185D01*
X1410157Y4936896D01*
X1333449Y4936896D01*
G37*
G36*
X1204823Y4838700D02*
G01*
X1308049Y4838700D01*
X1308049Y4936896D01*
X1231290Y4936896D01*
X1224991Y4936185D01*
X1219555Y4934254D01*
X1214628Y4931206D01*
X1210564Y4927092D01*
X1207465Y4922215D01*
X1205534Y4916728D01*
X1204823Y4910429D01*
G37*
G36*
X5473700Y5185562D02*
G01*
X5478322Y5185664D01*
X5501284Y5188051D01*
X5523992Y5192369D01*
X5546242Y5198618D01*
X5567934Y5206644D01*
X5588812Y5216499D01*
X5608828Y5228031D01*
X5627827Y5241239D01*
X5645607Y5255971D01*
X5662117Y5272125D01*
X5677204Y5289600D01*
X5690819Y5308295D01*
X5702757Y5328107D01*
X5713018Y5348782D01*
X5721553Y5370271D01*
X5728208Y5392369D01*
X5733034Y5414975D01*
X5735929Y5437936D01*
X5736336Y5448300D01*
X5473700Y5448300D01*
G37*
G36*
X393700Y5185562D02*
G01*
X398322Y5185664D01*
X421284Y5188051D01*
X443992Y5192369D01*
X466242Y5198618D01*
X487934Y5206644D01*
X508812Y5216499D01*
X528828Y5228031D01*
X547827Y5241239D01*
X565607Y5255971D01*
X582117Y5272125D01*
X597204Y5289600D01*
X610819Y5308295D01*
X622757Y5328107D01*
X633018Y5348782D01*
X641553Y5370271D01*
X648208Y5392369D01*
X653034Y5414975D01*
X655929Y5437936D01*
X656336Y5448300D01*
X393700Y5448300D01*
G37*
G36*
X5448300Y5185613D02*
G01*
X5448300Y5448300D01*
X5185410Y5448300D01*
X5187289Y5426405D01*
X5191150Y5403646D01*
X5196890Y5381244D01*
X5204460Y5359450D01*
X5213858Y5338318D01*
X5224983Y5318099D01*
X5237784Y5298846D01*
X5252161Y5280710D01*
X5267960Y5263896D01*
X5285130Y5248402D01*
X5303520Y5234432D01*
X5323027Y5222087D01*
X5343499Y5211368D01*
X5364835Y5202428D01*
X5386781Y5195265D01*
X5409285Y5189982D01*
X5432145Y5186629D01*
G37*
G36*
X368300Y5185613D02*
G01*
X368300Y5448300D01*
X105410Y5448300D01*
X107289Y5426405D01*
X111150Y5403646D01*
X116890Y5381244D01*
X124460Y5359450D01*
X133858Y5338318D01*
X144983Y5318099D01*
X157784Y5298846D01*
X172161Y5280710D01*
X187960Y5263896D01*
X205130Y5248402D01*
X223520Y5234432D01*
X243027Y5222087D01*
X263499Y5211368D01*
X284835Y5202428D01*
X306781Y5195265D01*
X329285Y5189982D01*
X352145Y5186629D01*
G37*
G36*
X4559300Y5219039D02*
G01*
X4559300Y5321300D01*
X4456887Y5321300D01*
X4457039Y5319471D01*
X4459732Y5305196D01*
X4464253Y5291328D01*
X4470450Y5278170D01*
X4478223Y5265877D01*
X4487519Y5254650D01*
X4498136Y5244693D01*
X4509922Y5236159D01*
X4522673Y5229148D01*
X4536186Y5223764D01*
X4550308Y5220157D01*
G37*
G36*
X1567484Y4710328D02*
G01*
X1582013Y4710328D01*
X1596440Y4712157D01*
X1610563Y4715764D01*
X1624076Y4721148D01*
X1636826Y4728159D01*
X1648612Y4736693D01*
X1659229Y4746650D01*
X1668475Y4757877D01*
X1676298Y4770170D01*
X1682496Y4783328D01*
X1686966Y4797196D01*
X1689709Y4811471D01*
X1690624Y4826000D01*
X1689709Y4840528D01*
X1686966Y4854803D01*
X1682496Y4868672D01*
X1676298Y4881829D01*
X1668475Y4894122D01*
X1659229Y4905349D01*
X1648612Y4915306D01*
X1636826Y4923840D01*
X1624076Y4930851D01*
X1610563Y4936185D01*
X1596440Y4939842D01*
X1582013Y4941671D01*
X1567484Y4941671D01*
X1553006Y4939842D01*
X1538935Y4936185D01*
X1525422Y4930851D01*
X1512671Y4923840D01*
X1500886Y4915306D01*
X1490268Y4905349D01*
X1480972Y4894122D01*
X1473200Y4881829D01*
X1467002Y4868672D01*
X1462481Y4854803D01*
X1459788Y4840528D01*
X1458874Y4826000D01*
X1459788Y4811471D01*
X1462481Y4797196D01*
X1467002Y4783328D01*
X1473200Y4770170D01*
X1480972Y4757877D01*
X1490268Y4746650D01*
X1500886Y4736693D01*
X1512671Y4728159D01*
X1525422Y4721148D01*
X1538935Y4715764D01*
X1553006Y4712157D01*
G37*
G36*
X4584700Y5346700D02*
G01*
X4687112Y5346700D01*
X4686960Y5348528D01*
X4684268Y5362803D01*
X4679746Y5376672D01*
X4673549Y5389829D01*
X4665776Y5402122D01*
X4656480Y5413349D01*
X4645863Y5423306D01*
X4634077Y5431840D01*
X4621326Y5438851D01*
X4607814Y5444236D01*
X4593691Y5447842D01*
X4584700Y5448960D01*
G37*
G36*
X4456887Y5346700D02*
G01*
X4559300Y5346700D01*
X4559300Y5448960D01*
X4550308Y5447842D01*
X4536186Y5444236D01*
X4522673Y5438851D01*
X4509922Y5431840D01*
X4498136Y5423306D01*
X4487519Y5413349D01*
X4478223Y5402122D01*
X4470450Y5389829D01*
X4464253Y5376672D01*
X4459732Y5362803D01*
X4457039Y5348528D01*
G37*
G36*
X4818735Y5472328D02*
G01*
X4833264Y5472328D01*
X4847691Y5474157D01*
X4861814Y5477764D01*
X4875326Y5483148D01*
X4888077Y5490159D01*
X4899863Y5498693D01*
X4910480Y5508650D01*
X4919776Y5519877D01*
X4927549Y5532170D01*
X4933746Y5545328D01*
X4938268Y5559196D01*
X4940960Y5573471D01*
X4941874Y5588000D01*
X4940960Y5602528D01*
X4938268Y5616803D01*
X4933746Y5630672D01*
X4927549Y5643829D01*
X4919776Y5656122D01*
X4910480Y5667349D01*
X4899863Y5677306D01*
X4888077Y5685840D01*
X4875326Y5692851D01*
X4861814Y5698236D01*
X4847691Y5701842D01*
X4833264Y5703671D01*
X4818735Y5703671D01*
X4804308Y5701842D01*
X4790186Y5698236D01*
X4776673Y5692851D01*
X4763922Y5685840D01*
X4752136Y5677306D01*
X4741519Y5667349D01*
X4732223Y5656122D01*
X4724450Y5643829D01*
X4718253Y5630672D01*
X4713732Y5616803D01*
X4711039Y5602528D01*
X4710125Y5588000D01*
X4711039Y5573471D01*
X4713732Y5559196D01*
X4718253Y5545328D01*
X4724450Y5532170D01*
X4732223Y5519877D01*
X4741519Y5508650D01*
X4752136Y5498693D01*
X4763922Y5490159D01*
X4776673Y5483148D01*
X4790186Y5477764D01*
X4804308Y5474157D01*
G37*
G36*
X4584700Y5473039D02*
G01*
X4593691Y5474157D01*
X4607814Y5477764D01*
X4621326Y5483148D01*
X4634077Y5490159D01*
X4645863Y5498693D01*
X4656480Y5508650D01*
X4665776Y5519877D01*
X4673549Y5532170D01*
X4679746Y5545328D01*
X4684268Y5559196D01*
X4686960Y5573471D01*
X4687112Y5575300D01*
X4584700Y5575300D01*
G37*
G36*
X4559300Y5473039D02*
G01*
X4559300Y5575300D01*
X4456887Y5575300D01*
X4457039Y5573471D01*
X4459732Y5559196D01*
X4464253Y5545328D01*
X4470450Y5532170D01*
X4478223Y5519877D01*
X4487519Y5508650D01*
X4498136Y5498693D01*
X4509922Y5490159D01*
X4522673Y5483148D01*
X4536186Y5477764D01*
X4550308Y5474157D01*
G37*
G36*
X393700Y5473700D02*
G01*
X656336Y5473700D01*
X655929Y5484063D01*
X653034Y5507024D01*
X648208Y5529630D01*
X641553Y5551728D01*
X633018Y5573217D01*
X622757Y5593892D01*
X610819Y5613704D01*
X597204Y5632348D01*
X582117Y5649874D01*
X565607Y5666028D01*
X547827Y5680760D01*
X528828Y5693968D01*
X508812Y5705500D01*
X487934Y5715355D01*
X466242Y5723382D01*
X443992Y5729630D01*
X421284Y5733948D01*
X398322Y5736336D01*
X393700Y5736437D01*
G37*
G36*
X5473700Y5473700D02*
G01*
X5736336Y5473700D01*
X5735929Y5484063D01*
X5733034Y5507024D01*
X5728208Y5529630D01*
X5721553Y5551728D01*
X5713018Y5573217D01*
X5702757Y5593892D01*
X5690819Y5613704D01*
X5677204Y5632348D01*
X5662117Y5649874D01*
X5645607Y5666028D01*
X5627827Y5680760D01*
X5608828Y5693968D01*
X5588812Y5705500D01*
X5567934Y5715355D01*
X5546242Y5723382D01*
X5523992Y5729630D01*
X5501284Y5733948D01*
X5478322Y5736336D01*
X5473700Y5736437D01*
G37*
G36*
X5185410Y5473700D02*
G01*
X5448300Y5473700D01*
X5448300Y5736386D01*
X5432145Y5735370D01*
X5409285Y5732018D01*
X5386781Y5726734D01*
X5364835Y5719572D01*
X5343499Y5710631D01*
X5323027Y5699912D01*
X5303520Y5687568D01*
X5285130Y5673598D01*
X5267960Y5658104D01*
X5252161Y5641289D01*
X5237784Y5623153D01*
X5224983Y5603900D01*
X5213858Y5583682D01*
X5204460Y5562549D01*
X5196890Y5540756D01*
X5191150Y5518353D01*
X5187289Y5495594D01*
G37*
G36*
X105410Y5473700D02*
G01*
X368300Y5473700D01*
X368300Y5736386D01*
X352145Y5735370D01*
X329285Y5732018D01*
X306781Y5726734D01*
X284835Y5719572D01*
X263499Y5710631D01*
X243027Y5699912D01*
X223520Y5687568D01*
X205130Y5673598D01*
X187960Y5658104D01*
X172161Y5641289D01*
X157784Y5623153D01*
X144983Y5603900D01*
X133858Y5583682D01*
X124460Y5562549D01*
X116890Y5540756D01*
X111150Y5518353D01*
X107289Y5495594D01*
G37*
G36*
X2691688Y5583682D02*
G01*
X2750261Y5583682D01*
X2756560Y5584393D01*
X2764840Y5587593D01*
X2767634Y5588000D01*
X2970784Y5588000D01*
X2971800Y5589016D01*
X2971800Y5713984D01*
X2970784Y5715000D01*
X2763520Y5715000D01*
X2760167Y5715558D01*
X2756560Y5716828D01*
X2750261Y5717540D01*
X2691688Y5717540D01*
X2685389Y5716828D01*
X2681782Y5715558D01*
X2678430Y5715000D01*
X2575560Y5715000D01*
X2571648Y5715762D01*
X2568397Y5717997D01*
X2566162Y5721248D01*
X2565400Y5725160D01*
X2565400Y5589016D01*
X2566416Y5588000D01*
X2674315Y5588000D01*
X2677109Y5587593D01*
X2679903Y5586323D01*
X2685389Y5584393D01*
G37*
G36*
X4584700Y5600700D02*
G01*
X4687112Y5600700D01*
X4686960Y5602528D01*
X4684268Y5616803D01*
X4679746Y5630672D01*
X4673549Y5643829D01*
X4665776Y5656122D01*
X4656480Y5667349D01*
X4645863Y5677306D01*
X4634077Y5685840D01*
X4621326Y5692851D01*
X4607814Y5698236D01*
X4593691Y5701842D01*
X4584700Y5702960D01*
G37*
G36*
X4456887Y5600700D02*
G01*
X4559300Y5600700D01*
X4559300Y5702960D01*
X4550308Y5701842D01*
X4536186Y5698236D01*
X4522673Y5692851D01*
X4509922Y5685840D01*
X4498136Y5677306D01*
X4487519Y5667349D01*
X4478223Y5656122D01*
X4470450Y5643829D01*
X4464253Y5630672D01*
X4459732Y5616803D01*
X4457039Y5602528D01*
G37*

%LPD*%
D10*
X2739897Y5668010D02*
G01*
X2739897Y5671312D01*
X2736850Y5677662D01*
X2733547Y5680963D01*
X2727197Y5684012D01*
X2714497Y5684012D01*
X2708147Y5680963D01*
X2705100Y5677662D01*
X2701797Y5671312D01*
X2701797Y5664962D01*
X2705100Y5658612D01*
X2711450Y5648960D01*
X2743200Y5617210D01*
X2698750Y5617210D01*
D11*
X4826000Y5334000D02*
G01*
X4826000Y5181600D01*
X2082800Y2260600D02*
G01*
X2692400Y2260600D01*
X2693926Y2030473D02*
G01*
X1320800Y2030473D01*
X381005Y3048000D02*
G01*
X2692400Y3047994D01*
X1320800Y1397000D02*
G01*
X381000Y1397000D01*
X381000Y1651000D02*
G01*
X1016000Y1651000D01*
D12*
X4825987Y4825974D02*
G01*
X4825987Y5181587D01*
D11*
X2082800Y2260600D02*
G01*
X1016000Y2260600D01*
D13*
G01*
X381000Y2159000D03*
D14*
G01*
X381001Y1396997D03*
D13*
G01*
X381000Y1651000D03*
G01*
X381000Y1905000D03*
G01*
X2082749Y635000D03*
D15*
G01*
X1320797Y634996D03*
D13*
G01*
X1574800Y635000D03*
G01*
X1828800Y635000D03*
G01*
X2082749Y4825974D03*
D15*
G01*
X1320797Y4825975D03*
D13*
G01*
X1574800Y4825974D03*
G01*
X1828800Y4825974D03*
D16*
G01*
X5080000Y2032000D03*
D13*
G01*
X4826000Y2032000D03*
G01*
X5080000Y2286000D03*
G01*
X4826000Y2286000D03*
G01*
X5080000Y2540000D03*
G01*
X4826000Y2540000D03*
G01*
X5080000Y2794000D03*
G01*
X4826000Y2794000D03*
G01*
X5080000Y3048000D03*
G01*
X4826000Y3048000D03*
G01*
X5080000Y3302000D03*
G01*
X4826000Y3302000D03*
G01*
X5080000Y3556000D03*
G01*
X4826000Y3556000D03*
G01*
X5080000Y3810000D03*
G01*
X4826000Y3810000D03*
D17*
G01*
X381000Y5461000D03*
G01*
X5461000Y5461000D03*
G01*
X5461000Y381000D03*
G01*
X381000Y381000D03*
D13*
G01*
X4826000Y5588000D03*
G01*
X4826000Y5334000D03*
G01*
X4572000Y5334000D03*
G01*
X4572000Y5588000D03*
D18*
G01*
X4826000Y5181600D03*
G01*
X2692400Y2260600D03*
G01*
X2082800Y2260600D03*
G01*
X2693924Y2030476D03*
G01*
X1320800Y2030476D03*
G01*
X2692400Y3048000D03*
G01*
X381000Y3048000D03*
G01*
X1320800Y1397000D03*
G01*
X1016000Y2260600D03*
G01*
X1016000Y1651000D03*
G01*
X1731010Y2260600D03*
G01*
X4826000Y4825974D03*
G01*
X1936572Y2032000D03*
M02*
