G04 Layer: BottomLayer*
G04 EasyEDA v6.5.32, 2023-07-25 15:13:50*
G04 a282f81a537d4805a8fc574f192bbdcb,5a6b42c53f6a479593ecc07194224c93,10*
G04 Gerber Generator version 0.2*
G04 Scale: 100 percent, Rotated: No, Reflected: No *
G04 Dimensions in millimeters *
G04 leading zeros omitted , absolute positions ,4 integer and 5 decimal *
%FSLAX45Y45*%
%MOMM*%

%AMMACRO1*21,1,$1,$2,0,0,$3*%
%ADD10C,0.2540*%
%ADD11C,0.6350*%
%ADD12C,1.8000*%
%ADD13R,1.8000X1.8000*%
%ADD14MACRO1,1.8X1.7X-90.0000*%
%ADD15C,5.0000*%
%ADD16C,1.9000*%
%ADD17C,1.7000*%
%ADD18C,0.6096*%
%ADD19C,0.0146*%

%LPD*%
G36*
X2441143Y2539695D02*
G01*
X2437384Y2540101D01*
X2434082Y2541879D01*
X2428748Y2546146D01*
X2416098Y2554020D01*
X2402586Y2560218D01*
X2388412Y2564739D01*
X2373782Y2567482D01*
X2358948Y2568397D01*
X2344064Y2567482D01*
X2329434Y2564739D01*
X2315260Y2560218D01*
X2301748Y2554020D01*
X2289302Y2546299D01*
X2285288Y2544876D01*
X2281021Y2545232D01*
X2277262Y2547315D01*
X2274722Y2550769D01*
X2273808Y2554935D01*
X2273808Y4368292D01*
X2272995Y4376318D01*
X2270810Y4383532D01*
X2267254Y4390237D01*
X2262124Y4396435D01*
X2221331Y4437278D01*
X2219147Y4440580D01*
X2218385Y4444492D01*
X2219147Y4448403D01*
X2222195Y4455617D01*
X2225446Y4466894D01*
X2227478Y4470755D01*
X2230932Y4473346D01*
X2235200Y4474311D01*
X2239467Y4473346D01*
X2242921Y4470755D01*
X2244953Y4466894D01*
X2248204Y4455617D01*
X2253996Y4441901D01*
X2261412Y4429048D01*
X2270404Y4417161D01*
X2280767Y4406442D01*
X2292350Y4397146D01*
X2304999Y4389272D01*
X2318512Y4383074D01*
X2332736Y4378553D01*
X2347366Y4375810D01*
X2362200Y4374896D01*
X2377033Y4375810D01*
X2391664Y4378553D01*
X2405888Y4383074D01*
X2409342Y4384649D01*
X2413304Y4385614D01*
X2417368Y4384852D01*
X2420772Y4382617D01*
X2447594Y4355795D01*
X2449830Y4352493D01*
X2450592Y4348581D01*
X2450592Y2549804D01*
X2449880Y2546096D01*
X2447848Y2542895D01*
X2444800Y2540660D01*
G37*

%LPD*%
G36*
X310997Y2263851D02*
G01*
X306933Y2265781D01*
X304088Y2269286D01*
X301040Y2275433D01*
X293319Y2286965D01*
X284175Y2297379D01*
X273761Y2306523D01*
X262280Y2314194D01*
X249834Y2320340D01*
X236728Y2324760D01*
X223164Y2327503D01*
X209346Y2328367D01*
X195478Y2327503D01*
X181914Y2324760D01*
X168808Y2320340D01*
X156362Y2314194D01*
X144881Y2306523D01*
X138023Y2300478D01*
X134670Y2298547D01*
X130860Y2297988D01*
X127101Y2298903D01*
X124002Y2301138D01*
X121869Y2304338D01*
X121158Y2308148D01*
X121158Y4638040D01*
X121869Y4641799D01*
X124002Y4645050D01*
X127101Y4647285D01*
X130860Y4648200D01*
X134670Y4647590D01*
X138023Y4645660D01*
X148132Y4636770D01*
X159664Y4629099D01*
X172059Y4622952D01*
X185216Y4618532D01*
X198780Y4615789D01*
X212598Y4614926D01*
X226415Y4615789D01*
X239979Y4618532D01*
X253136Y4622952D01*
X265531Y4629099D01*
X277063Y4636770D01*
X287477Y4645914D01*
X296621Y4656328D01*
X304749Y4668520D01*
X307797Y4671517D01*
X311861Y4672990D01*
X316128Y4672634D01*
X319887Y4670552D01*
X322427Y4667097D01*
X323342Y4662881D01*
X323342Y2273757D01*
X322326Y2269337D01*
X319532Y2265832D01*
X315468Y2263851D01*
G37*

%LPD*%
G36*
X2333345Y1439976D02*
G01*
X2328672Y1441246D01*
X2314803Y1445717D01*
X2300528Y1448460D01*
X2286000Y1449374D01*
X2271471Y1448460D01*
X2264613Y1447139D01*
X2260346Y1447241D01*
X2256485Y1449120D01*
X2253742Y1452372D01*
X2252573Y1456486D01*
X2253183Y1460703D01*
X2255520Y1464310D01*
X2262124Y1470964D01*
X2267254Y1477162D01*
X2270810Y1483868D01*
X2272995Y1491081D01*
X2273808Y1499108D01*
X2273808Y1702917D01*
X2274671Y1706981D01*
X2277059Y1710385D01*
X2280615Y1712518D01*
X2284730Y1713077D01*
X2288692Y1711909D01*
X2291892Y1709267D01*
X2293772Y1705559D01*
X2296566Y1695246D01*
X2300681Y1686306D01*
X2306320Y1678279D01*
X2313279Y1671320D01*
X2321306Y1665681D01*
X2330246Y1661566D01*
X2339695Y1659026D01*
X2349500Y1658162D01*
X2359304Y1659026D01*
X2368753Y1661566D01*
X2377694Y1665681D01*
X2385720Y1671320D01*
X2392680Y1678279D01*
X2398318Y1686306D01*
X2402433Y1695246D01*
X2404973Y1704695D01*
X2405837Y1714500D01*
X2404973Y1724304D01*
X2402433Y1733753D01*
X2398318Y1742693D01*
X2392680Y1750720D01*
X2391105Y1752295D01*
X2388870Y1755597D01*
X2388108Y1759508D01*
X2388108Y2322474D01*
X2388920Y2326487D01*
X2391206Y2329789D01*
X2394610Y2331974D01*
X2409444Y2337663D01*
X2422550Y2344724D01*
X2434539Y2353208D01*
X2438603Y2354935D01*
X2443022Y2354732D01*
X2446934Y2352700D01*
X2449626Y2349195D01*
X2450592Y2344928D01*
X2450592Y1556918D01*
X2449830Y1553006D01*
X2447594Y1549704D01*
X2340864Y1442923D01*
X2337409Y1440688D01*
G37*

%LPD*%
G36*
X1602892Y1421942D02*
G01*
X1599082Y1422400D01*
X1595780Y1424228D01*
X1592122Y1427226D01*
X1579829Y1435049D01*
X1568450Y1440383D01*
X1565351Y1442669D01*
X1563319Y1445869D01*
X1562608Y1449578D01*
X1562608Y1903831D01*
X1563268Y1907438D01*
X1565198Y1910588D01*
X1568145Y1912874D01*
X1571701Y1913940D01*
X1575409Y1913636D01*
X1577695Y1913026D01*
X1587500Y1912162D01*
X1597304Y1913026D01*
X1599590Y1913636D01*
X1603298Y1913940D01*
X1606854Y1912874D01*
X1609801Y1910588D01*
X1611731Y1907438D01*
X1612392Y1903831D01*
X1612392Y1432052D01*
X1611680Y1428343D01*
X1609648Y1425092D01*
X1606550Y1422857D01*
G37*

%LPD*%
G36*
X1699107Y1421942D02*
G01*
X1695450Y1422857D01*
X1692351Y1425092D01*
X1690319Y1428343D01*
X1689607Y1432052D01*
X1689607Y2113991D01*
X1690370Y2117902D01*
X1692605Y2121204D01*
X1694180Y2122779D01*
X1699818Y2130806D01*
X1703933Y2139746D01*
X1706473Y2149195D01*
X1707337Y2159000D01*
X1706473Y2168804D01*
X1703933Y2178253D01*
X1699818Y2187194D01*
X1694180Y2195220D01*
X1687220Y2202180D01*
X1679193Y2207818D01*
X1670253Y2211933D01*
X1660804Y2214473D01*
X1651000Y2215337D01*
X1641195Y2214473D01*
X1638909Y2213864D01*
X1635201Y2213559D01*
X1631645Y2214626D01*
X1628698Y2216912D01*
X1626768Y2220061D01*
X1626107Y2223668D01*
X1626107Y2322474D01*
X1626920Y2326487D01*
X1629206Y2329789D01*
X1632610Y2331974D01*
X1647443Y2337663D01*
X1660550Y2344724D01*
X1672539Y2353208D01*
X1676603Y2354935D01*
X1681022Y2354732D01*
X1684934Y2352700D01*
X1687626Y2349195D01*
X1688592Y2344928D01*
X1688592Y2311908D01*
X1689404Y2303881D01*
X1691589Y2296668D01*
X1695145Y2289962D01*
X1700275Y2283764D01*
X1736394Y2247595D01*
X1738630Y2244293D01*
X1739392Y2240381D01*
X1739392Y1449578D01*
X1738680Y1445869D01*
X1736648Y1442618D01*
X1733550Y1440383D01*
X1722170Y1435049D01*
X1709877Y1427226D01*
X1706219Y1424228D01*
X1702917Y1422400D01*
G37*

%LPD*%
G36*
X683107Y1421942D02*
G01*
X679450Y1422857D01*
X676351Y1425092D01*
X674319Y1428343D01*
X673608Y1432052D01*
X673608Y2177491D01*
X674370Y2181402D01*
X676605Y2184704D01*
X678180Y2186279D01*
X683818Y2194306D01*
X687933Y2203246D01*
X690473Y2212695D01*
X691337Y2222500D01*
X690473Y2232304D01*
X687933Y2241753D01*
X683818Y2250694D01*
X678180Y2258720D01*
X671220Y2265680D01*
X663194Y2271318D01*
X654253Y2275433D01*
X644804Y2277973D01*
X635000Y2278837D01*
X625195Y2277973D01*
X622909Y2277364D01*
X619201Y2277059D01*
X615645Y2278126D01*
X612698Y2280412D01*
X610768Y2283561D01*
X610108Y2287168D01*
X610108Y2322474D01*
X610920Y2326487D01*
X613206Y2329789D01*
X616610Y2331974D01*
X631444Y2337663D01*
X644550Y2344724D01*
X656691Y2353310D01*
X667715Y2363317D01*
X677418Y2374646D01*
X685596Y2387041D01*
X692251Y2400350D01*
X697179Y2414422D01*
X697992Y2418080D01*
X699566Y2421636D01*
X702360Y2424379D01*
X705967Y2425852D01*
X709879Y2425852D01*
X713486Y2424379D01*
X716280Y2421636D01*
X717854Y2418080D01*
X718667Y2414422D01*
X723595Y2400350D01*
X730250Y2387041D01*
X738428Y2374646D01*
X748131Y2363317D01*
X759155Y2353310D01*
X771296Y2344724D01*
X781558Y2339187D01*
X784402Y2336952D01*
X786231Y2333802D01*
X786892Y2330246D01*
X786892Y1823008D01*
X786130Y1819097D01*
X783894Y1815795D01*
X782320Y1814220D01*
X776681Y1806193D01*
X772566Y1797253D01*
X770026Y1787804D01*
X769162Y1778000D01*
X770026Y1768195D01*
X772566Y1758746D01*
X776681Y1749806D01*
X782320Y1741779D01*
X789279Y1734820D01*
X797306Y1729181D01*
X806246Y1725066D01*
X815695Y1722526D01*
X825500Y1721662D01*
X835304Y1722526D01*
X837590Y1723136D01*
X841298Y1723440D01*
X844854Y1722374D01*
X847801Y1720088D01*
X849731Y1716938D01*
X850392Y1713331D01*
X850392Y1432052D01*
X849680Y1428343D01*
X847648Y1425092D01*
X844550Y1422857D01*
X840892Y1421942D01*
X837082Y1422400D01*
X833780Y1424228D01*
X830122Y1427226D01*
X817829Y1435049D01*
X804672Y1441246D01*
X790803Y1445717D01*
X776528Y1448460D01*
X762000Y1449374D01*
X747471Y1448460D01*
X733196Y1445717D01*
X719328Y1441246D01*
X706170Y1435049D01*
X693877Y1427226D01*
X690219Y1424228D01*
X686917Y1422400D01*
G37*

%LPD*%
G36*
X1858111Y1421231D02*
G01*
X1854149Y1421638D01*
X1850643Y1423517D01*
X1846122Y1427226D01*
X1833829Y1435049D01*
X1822450Y1440383D01*
X1819351Y1442669D01*
X1817319Y1445869D01*
X1816607Y1449578D01*
X1816607Y1844649D01*
X1817420Y1848612D01*
X1819706Y1851964D01*
X1823110Y1854149D01*
X1827123Y1854809D01*
X1831086Y1853844D01*
X1834946Y1852066D01*
X1844395Y1849526D01*
X1854200Y1848662D01*
X1864004Y1849526D01*
X1873453Y1852066D01*
X1882393Y1856181D01*
X1890420Y1861820D01*
X1897380Y1868779D01*
X1903018Y1876806D01*
X1907133Y1885746D01*
X1909673Y1895195D01*
X1910537Y1905000D01*
X1909673Y1914804D01*
X1907133Y1924253D01*
X1903018Y1933193D01*
X1897380Y1941220D01*
X1895805Y1942795D01*
X1893570Y1946097D01*
X1892807Y1950008D01*
X1892807Y2327351D01*
X1893620Y2331313D01*
X1895906Y2334666D01*
X1899310Y2336850D01*
X1901443Y2337663D01*
X1914550Y2344724D01*
X1926539Y2353208D01*
X1930603Y2354935D01*
X1935022Y2354732D01*
X1938934Y2352700D01*
X1941626Y2349195D01*
X1942592Y2344928D01*
X1942592Y1518818D01*
X1941830Y1514906D01*
X1939594Y1511604D01*
X1878075Y1450035D01*
X1872945Y1443837D01*
X1869389Y1437182D01*
X1866849Y1428496D01*
X1865020Y1424940D01*
X1861972Y1422400D01*
G37*

%LPD*%
G36*
X5805932Y25908D02*
G01*
X36068Y26416D01*
X32156Y27178D01*
X28905Y29413D01*
X26670Y32664D01*
X25908Y36576D01*
X25908Y1017473D01*
X26619Y1021283D01*
X28702Y1024534D01*
X31851Y1026718D01*
X35610Y1027633D01*
X39420Y1027074D01*
X49377Y1023619D01*
X58724Y1022096D01*
X68275Y1022096D01*
X77622Y1023619D01*
X86664Y1026718D01*
X94996Y1031240D01*
X102514Y1037082D01*
X108966Y1044092D01*
X114198Y1052068D01*
X118008Y1060805D01*
X120345Y1070000D01*
X121158Y1079906D01*
X121158Y2136851D01*
X121869Y2140661D01*
X124002Y2143861D01*
X127101Y2146096D01*
X130860Y2147011D01*
X134670Y2146452D01*
X138023Y2144522D01*
X144881Y2138476D01*
X156362Y2130806D01*
X168808Y2124659D01*
X181914Y2120239D01*
X195478Y2117496D01*
X209346Y2116632D01*
X223164Y2117496D01*
X236728Y2120239D01*
X249834Y2124659D01*
X262280Y2130806D01*
X273761Y2138476D01*
X284175Y2147620D01*
X293319Y2158034D01*
X301040Y2169566D01*
X304088Y2175713D01*
X306933Y2179218D01*
X310997Y2181148D01*
X315468Y2181148D01*
X319532Y2179167D01*
X322326Y2175662D01*
X323342Y2171242D01*
X323342Y1460906D01*
X324154Y1451000D01*
X326491Y1441805D01*
X330301Y1433068D01*
X335584Y1425041D01*
X340461Y1419504D01*
X392226Y1367739D01*
X394258Y1364843D01*
X395173Y1361490D01*
X394868Y1358036D01*
X394157Y1355191D01*
X392328Y1340764D01*
X392328Y1326235D01*
X394157Y1311757D01*
X397814Y1297686D01*
X403148Y1284173D01*
X410159Y1271371D01*
X418693Y1259636D01*
X428650Y1249019D01*
X439877Y1239723D01*
X452170Y1231950D01*
X465328Y1225753D01*
X479196Y1221232D01*
X493471Y1218539D01*
X508000Y1217625D01*
X522528Y1218539D01*
X536803Y1221232D01*
X550672Y1225753D01*
X563829Y1231950D01*
X576122Y1239723D01*
X579780Y1242720D01*
X583082Y1244600D01*
X586892Y1245057D01*
X590550Y1244092D01*
X593648Y1241856D01*
X595680Y1238656D01*
X596392Y1234897D01*
X596442Y1206550D01*
X595985Y1202385D01*
X593852Y1198727D01*
X590448Y1196289D01*
X586333Y1195374D01*
X418592Y1195374D01*
X412242Y1194663D01*
X406806Y1192784D01*
X401878Y1189685D01*
X397814Y1185621D01*
X394716Y1180693D01*
X392785Y1175258D01*
X392074Y1168908D01*
X392074Y990041D01*
X392785Y983742D01*
X394716Y978255D01*
X397814Y973378D01*
X401878Y969264D01*
X406806Y966216D01*
X412242Y964285D01*
X418592Y963574D01*
X597458Y963574D01*
X603758Y964285D01*
X609193Y966216D01*
X614121Y969264D01*
X618185Y973378D01*
X621284Y978255D01*
X623214Y983742D01*
X623925Y990041D01*
X623925Y1138478D01*
X624687Y1142339D01*
X626872Y1145641D01*
X630174Y1147826D01*
X634085Y1148638D01*
X637946Y1147826D01*
X641248Y1145641D01*
X652678Y1134211D01*
X654862Y1130960D01*
X655675Y1127150D01*
X654964Y1123289D01*
X651814Y1115314D01*
X648157Y1101191D01*
X646328Y1086764D01*
X646328Y1072235D01*
X648157Y1057757D01*
X651814Y1043686D01*
X657148Y1030173D01*
X664159Y1017371D01*
X672693Y1005636D01*
X682650Y995019D01*
X693877Y985723D01*
X706170Y977950D01*
X719328Y971753D01*
X733196Y967232D01*
X747471Y964539D01*
X762000Y963625D01*
X776528Y964539D01*
X790803Y967232D01*
X804672Y971753D01*
X817829Y977950D01*
X830122Y985723D01*
X841349Y995019D01*
X851306Y1005636D01*
X859840Y1017371D01*
X866851Y1030173D01*
X872236Y1043686D01*
X875842Y1057757D01*
X877671Y1072235D01*
X877671Y1086764D01*
X875842Y1101191D01*
X872236Y1115314D01*
X866851Y1128826D01*
X859840Y1141577D01*
X851306Y1153363D01*
X841349Y1163980D01*
X830122Y1173226D01*
X817829Y1181049D01*
X804672Y1187246D01*
X790803Y1191717D01*
X776528Y1194460D01*
X762000Y1195374D01*
X747471Y1194460D01*
X733196Y1191717D01*
X719328Y1187246D01*
X714654Y1185976D01*
X710590Y1186688D01*
X707186Y1188923D01*
X676605Y1219504D01*
X674370Y1222806D01*
X673608Y1226718D01*
X673608Y1234948D01*
X674319Y1238656D01*
X676351Y1241856D01*
X679450Y1244092D01*
X683107Y1245057D01*
X686917Y1244600D01*
X690219Y1242771D01*
X693877Y1239723D01*
X706170Y1231950D01*
X719328Y1225753D01*
X733196Y1221232D01*
X747471Y1218539D01*
X762000Y1217625D01*
X776528Y1218539D01*
X790803Y1221232D01*
X804672Y1225753D01*
X817829Y1231950D01*
X830122Y1239723D01*
X833780Y1242720D01*
X837082Y1244600D01*
X840892Y1245057D01*
X844550Y1244092D01*
X847648Y1241856D01*
X849680Y1238656D01*
X850392Y1234897D01*
X850392Y1207008D01*
X851204Y1198981D01*
X853389Y1191768D01*
X856945Y1185062D01*
X862076Y1178864D01*
X906678Y1134211D01*
X908862Y1130960D01*
X909675Y1127150D01*
X908964Y1123289D01*
X905814Y1115314D01*
X902157Y1101191D01*
X900328Y1086764D01*
X900328Y1072235D01*
X902157Y1057757D01*
X905814Y1043686D01*
X911148Y1030173D01*
X918159Y1017371D01*
X926693Y1005636D01*
X936650Y995019D01*
X947877Y985723D01*
X960170Y977950D01*
X973328Y971753D01*
X987196Y967232D01*
X1001471Y964539D01*
X1016000Y963625D01*
X1030528Y964539D01*
X1044803Y967232D01*
X1058672Y971753D01*
X1071829Y977950D01*
X1084122Y985723D01*
X1095349Y995019D01*
X1105306Y1005636D01*
X1113840Y1017371D01*
X1120851Y1030173D01*
X1126236Y1043686D01*
X1129842Y1057757D01*
X1131671Y1072235D01*
X1131671Y1086764D01*
X1129842Y1101191D01*
X1126236Y1115314D01*
X1120851Y1128826D01*
X1113840Y1141577D01*
X1105306Y1153363D01*
X1095349Y1163980D01*
X1084122Y1173226D01*
X1071829Y1181049D01*
X1058672Y1187246D01*
X1044803Y1191717D01*
X1030528Y1194460D01*
X1016000Y1195374D01*
X1001471Y1194460D01*
X987196Y1191717D01*
X973328Y1187246D01*
X968654Y1185976D01*
X964590Y1186688D01*
X961186Y1188923D01*
X930605Y1219504D01*
X928369Y1222806D01*
X927608Y1226718D01*
X927608Y1234948D01*
X928319Y1238656D01*
X930351Y1241856D01*
X933450Y1244092D01*
X937107Y1245057D01*
X940917Y1244600D01*
X944219Y1242771D01*
X947877Y1239723D01*
X960170Y1231950D01*
X973328Y1225753D01*
X987196Y1221232D01*
X1001471Y1218539D01*
X1003300Y1218387D01*
X1003300Y1320800D01*
X937768Y1320800D01*
X933856Y1321562D01*
X930605Y1323746D01*
X928369Y1327048D01*
X927608Y1330960D01*
X927608Y1336040D01*
X928369Y1339900D01*
X930605Y1343202D01*
X933856Y1345438D01*
X937768Y1346200D01*
X1003300Y1346200D01*
X1003300Y1448562D01*
X1001471Y1448460D01*
X987196Y1445717D01*
X973328Y1441246D01*
X960170Y1435049D01*
X947877Y1427226D01*
X944219Y1424228D01*
X940917Y1422400D01*
X937107Y1421942D01*
X933450Y1422857D01*
X930351Y1425092D01*
X928319Y1428343D01*
X927608Y1432052D01*
X927608Y2113991D01*
X928369Y2117902D01*
X930605Y2121204D01*
X932180Y2122779D01*
X937818Y2130806D01*
X941933Y2139746D01*
X944473Y2149195D01*
X945337Y2159000D01*
X944473Y2168804D01*
X941933Y2178253D01*
X937818Y2187194D01*
X932180Y2195220D01*
X925220Y2202180D01*
X917194Y2207818D01*
X908253Y2211933D01*
X898804Y2214473D01*
X889000Y2215337D01*
X879195Y2214473D01*
X876909Y2213864D01*
X873201Y2213559D01*
X869645Y2214626D01*
X866698Y2216912D01*
X864768Y2220061D01*
X864108Y2223668D01*
X864108Y2322474D01*
X864920Y2326487D01*
X867206Y2329789D01*
X870610Y2331974D01*
X885444Y2337663D01*
X898550Y2344724D01*
X910691Y2353310D01*
X921715Y2363317D01*
X931418Y2374646D01*
X939596Y2387041D01*
X946251Y2400350D01*
X951179Y2414422D01*
X951992Y2418080D01*
X953566Y2421636D01*
X956360Y2424379D01*
X959967Y2425852D01*
X963879Y2425852D01*
X967486Y2424379D01*
X970280Y2421636D01*
X971854Y2418080D01*
X972667Y2414422D01*
X977595Y2400350D01*
X984250Y2387041D01*
X992428Y2374646D01*
X1002131Y2363317D01*
X1013155Y2353310D01*
X1025296Y2344724D01*
X1038402Y2337663D01*
X1047089Y2334310D01*
X1050493Y2332126D01*
X1052779Y2328773D01*
X1053592Y2324811D01*
X1053592Y2267508D01*
X1052830Y2263597D01*
X1050594Y2260295D01*
X1049020Y2258720D01*
X1043381Y2250694D01*
X1039266Y2241753D01*
X1036726Y2232304D01*
X1035862Y2222500D01*
X1036726Y2212695D01*
X1039266Y2203246D01*
X1043381Y2194306D01*
X1049020Y2186279D01*
X1055979Y2179320D01*
X1064006Y2173681D01*
X1072946Y2169566D01*
X1082395Y2167026D01*
X1092200Y2166162D01*
X1102004Y2167026D01*
X1111453Y2169566D01*
X1120394Y2173681D01*
X1128420Y2179320D01*
X1135380Y2186279D01*
X1141018Y2194306D01*
X1145133Y2203246D01*
X1147673Y2212695D01*
X1148537Y2222500D01*
X1147673Y2232304D01*
X1145133Y2241753D01*
X1141018Y2250694D01*
X1135380Y2258720D01*
X1133805Y2260295D01*
X1131570Y2263597D01*
X1130808Y2267508D01*
X1130808Y2327351D01*
X1131620Y2331313D01*
X1133906Y2334666D01*
X1137310Y2336850D01*
X1139444Y2337663D01*
X1152550Y2344724D01*
X1164691Y2353310D01*
X1175715Y2363317D01*
X1185418Y2374646D01*
X1193596Y2387041D01*
X1200251Y2400350D01*
X1205179Y2414422D01*
X1205992Y2418080D01*
X1207566Y2421636D01*
X1210360Y2424379D01*
X1213967Y2425852D01*
X1217879Y2425852D01*
X1221486Y2424379D01*
X1224280Y2421636D01*
X1225854Y2418080D01*
X1226667Y2414422D01*
X1231595Y2400350D01*
X1238250Y2387041D01*
X1246428Y2374646D01*
X1256131Y2363317D01*
X1267155Y2353310D01*
X1279296Y2344724D01*
X1292402Y2337663D01*
X1301089Y2334310D01*
X1304493Y2332126D01*
X1306779Y2328773D01*
X1307592Y2324811D01*
X1307592Y2204008D01*
X1306830Y2200097D01*
X1304594Y2196795D01*
X1303020Y2195220D01*
X1297381Y2187194D01*
X1293266Y2178253D01*
X1290726Y2168804D01*
X1289862Y2159000D01*
X1290726Y2149195D01*
X1293266Y2139746D01*
X1297381Y2130806D01*
X1303020Y2122779D01*
X1309979Y2115820D01*
X1318006Y2110181D01*
X1326946Y2106066D01*
X1336395Y2103526D01*
X1346200Y2102662D01*
X1356004Y2103526D01*
X1365453Y2106066D01*
X1374394Y2110181D01*
X1382420Y2115820D01*
X1389380Y2122779D01*
X1395018Y2130806D01*
X1399133Y2139746D01*
X1399895Y2142490D01*
X1401927Y2146350D01*
X1405382Y2149043D01*
X1409700Y2150008D01*
X1414018Y2149043D01*
X1417472Y2146350D01*
X1419504Y2142490D01*
X1420266Y2139746D01*
X1424381Y2130806D01*
X1430020Y2122779D01*
X1436979Y2115820D01*
X1445006Y2110181D01*
X1453946Y2106066D01*
X1460144Y2104390D01*
X1463852Y2102510D01*
X1466494Y2099360D01*
X1467662Y2095449D01*
X1468526Y2085695D01*
X1471066Y2076246D01*
X1475181Y2067306D01*
X1480820Y2059279D01*
X1482394Y2057704D01*
X1484630Y2054402D01*
X1485392Y2050491D01*
X1485392Y1449578D01*
X1484680Y1445869D01*
X1482648Y1442618D01*
X1479550Y1440383D01*
X1468170Y1435049D01*
X1455877Y1427226D01*
X1444650Y1417980D01*
X1434693Y1407363D01*
X1426159Y1395577D01*
X1419148Y1382826D01*
X1413814Y1369314D01*
X1410157Y1355191D01*
X1408328Y1340764D01*
X1408328Y1326235D01*
X1410157Y1311757D01*
X1413814Y1297686D01*
X1419148Y1284173D01*
X1426159Y1271371D01*
X1434693Y1259636D01*
X1444650Y1249019D01*
X1455877Y1239723D01*
X1468170Y1231950D01*
X1481328Y1225753D01*
X1495196Y1221232D01*
X1509471Y1218539D01*
X1524000Y1217625D01*
X1538528Y1218539D01*
X1552803Y1221232D01*
X1566672Y1225753D01*
X1579829Y1231950D01*
X1592122Y1239723D01*
X1595780Y1242720D01*
X1599082Y1244600D01*
X1602892Y1245057D01*
X1606550Y1244092D01*
X1609648Y1241856D01*
X1611680Y1238656D01*
X1612392Y1234897D01*
X1612392Y1207008D01*
X1613204Y1198981D01*
X1615389Y1191768D01*
X1618945Y1185062D01*
X1624076Y1178864D01*
X1668678Y1134211D01*
X1670862Y1130960D01*
X1671675Y1127150D01*
X1670964Y1123289D01*
X1667814Y1115314D01*
X1664157Y1101191D01*
X1662328Y1086764D01*
X1662328Y1072235D01*
X1664157Y1057757D01*
X1667814Y1043686D01*
X1673148Y1030173D01*
X1680159Y1017371D01*
X1688693Y1005636D01*
X1698650Y995019D01*
X1709877Y985723D01*
X1722170Y977950D01*
X1735328Y971753D01*
X1749196Y967232D01*
X1763471Y964539D01*
X1778000Y963625D01*
X1792528Y964539D01*
X1806803Y967232D01*
X1820672Y971753D01*
X1833829Y977950D01*
X1846122Y985723D01*
X1857349Y995019D01*
X1867306Y1005636D01*
X1875840Y1017371D01*
X1882851Y1030173D01*
X1888236Y1043686D01*
X1891842Y1057757D01*
X1893671Y1072235D01*
X1893671Y1086764D01*
X1891842Y1101191D01*
X1888236Y1115314D01*
X1882851Y1128826D01*
X1875840Y1141577D01*
X1867306Y1153363D01*
X1857349Y1163980D01*
X1846122Y1173226D01*
X1833829Y1181049D01*
X1820672Y1187246D01*
X1806803Y1191717D01*
X1792528Y1194460D01*
X1778000Y1195374D01*
X1763471Y1194460D01*
X1749196Y1191717D01*
X1735328Y1187246D01*
X1730654Y1185976D01*
X1726590Y1186688D01*
X1723186Y1188923D01*
X1692605Y1219504D01*
X1690370Y1222806D01*
X1689607Y1226718D01*
X1689607Y1234948D01*
X1690319Y1238656D01*
X1692351Y1241856D01*
X1695450Y1244092D01*
X1699107Y1245057D01*
X1702917Y1244600D01*
X1706219Y1242771D01*
X1709877Y1239723D01*
X1722170Y1231950D01*
X1735328Y1225753D01*
X1749196Y1221232D01*
X1763471Y1218539D01*
X1778000Y1217625D01*
X1792528Y1218539D01*
X1806803Y1221232D01*
X1820672Y1225753D01*
X1833829Y1231950D01*
X1846122Y1239723D01*
X1849780Y1242720D01*
X1853082Y1244600D01*
X1856892Y1245057D01*
X1860550Y1244092D01*
X1863648Y1241856D01*
X1865680Y1238656D01*
X1866392Y1234897D01*
X1866392Y1207008D01*
X1867204Y1198981D01*
X1869389Y1191768D01*
X1872945Y1185062D01*
X1878075Y1178864D01*
X1922678Y1134211D01*
X1924862Y1130960D01*
X1925675Y1127150D01*
X1924964Y1123289D01*
X1921814Y1115314D01*
X1918157Y1101191D01*
X1916328Y1086764D01*
X1916328Y1072235D01*
X1918157Y1057757D01*
X1921814Y1043686D01*
X1927148Y1030173D01*
X1934159Y1017371D01*
X1942693Y1005636D01*
X1952650Y995019D01*
X1963877Y985723D01*
X1976170Y977950D01*
X1989328Y971753D01*
X2003196Y967232D01*
X2017471Y964539D01*
X2032000Y963625D01*
X2046528Y964539D01*
X2060803Y967232D01*
X2074672Y971753D01*
X2087829Y977950D01*
X2100122Y985723D01*
X2111349Y995019D01*
X2121306Y1005636D01*
X2129840Y1017371D01*
X2136851Y1030173D01*
X2142236Y1043686D01*
X2145842Y1057757D01*
X2147671Y1072235D01*
X2147671Y1086764D01*
X2145842Y1101191D01*
X2142236Y1115314D01*
X2136851Y1128826D01*
X2129840Y1141577D01*
X2121306Y1153363D01*
X2111349Y1163980D01*
X2100122Y1173226D01*
X2087829Y1181049D01*
X2074672Y1187246D01*
X2060803Y1191717D01*
X2046528Y1194460D01*
X2032000Y1195374D01*
X2017471Y1194460D01*
X2003196Y1191717D01*
X1989328Y1187246D01*
X1984654Y1185976D01*
X1980590Y1186688D01*
X1977186Y1188923D01*
X1946605Y1219504D01*
X1944370Y1222806D01*
X1943607Y1226718D01*
X1943607Y1234948D01*
X1944319Y1238656D01*
X1946351Y1241856D01*
X1949450Y1244092D01*
X1953107Y1245057D01*
X1956917Y1244600D01*
X1960219Y1242771D01*
X1963877Y1239723D01*
X1976170Y1231950D01*
X1989328Y1225753D01*
X2003196Y1221232D01*
X2017471Y1218539D01*
X2019300Y1218387D01*
X2019300Y1320800D01*
X1953768Y1320800D01*
X1949856Y1321562D01*
X1946605Y1323746D01*
X1944370Y1327048D01*
X1943607Y1330960D01*
X1943607Y1336040D01*
X1944370Y1339900D01*
X1946605Y1343202D01*
X1949856Y1345438D01*
X1953768Y1346200D01*
X2019300Y1346200D01*
X2019300Y1448562D01*
X2017471Y1448460D01*
X2010613Y1447139D01*
X2006346Y1447241D01*
X2002485Y1449120D01*
X1999742Y1452372D01*
X1998573Y1456486D01*
X1999183Y1460703D01*
X2001520Y1464310D01*
X2008124Y1470964D01*
X2013254Y1477162D01*
X2016810Y1483868D01*
X2018995Y1491081D01*
X2019807Y1499108D01*
X2019807Y2340254D01*
X2020773Y2344572D01*
X2023465Y2348077D01*
X2027377Y2350109D01*
X2031796Y2350262D01*
X2035860Y2348585D01*
X2041296Y2344724D01*
X2054402Y2337663D01*
X2063089Y2334310D01*
X2066493Y2332126D01*
X2068779Y2328773D01*
X2069592Y2324811D01*
X2069592Y2013508D01*
X2068830Y2009597D01*
X2066594Y2006295D01*
X2065020Y2004720D01*
X2059381Y1996693D01*
X2055266Y1987753D01*
X2052726Y1978304D01*
X2051862Y1968500D01*
X2052726Y1958695D01*
X2055266Y1949246D01*
X2059381Y1940306D01*
X2065020Y1932279D01*
X2071979Y1925320D01*
X2080006Y1919681D01*
X2088946Y1915566D01*
X2098395Y1913026D01*
X2108200Y1912162D01*
X2118004Y1913026D01*
X2127453Y1915566D01*
X2136394Y1919681D01*
X2144420Y1925320D01*
X2151380Y1932279D01*
X2157018Y1940306D01*
X2161133Y1949246D01*
X2163673Y1958695D01*
X2164537Y1968500D01*
X2163673Y1978304D01*
X2161133Y1987753D01*
X2157018Y1996693D01*
X2151380Y2004720D01*
X2149805Y2006295D01*
X2147570Y2009597D01*
X2146808Y2013508D01*
X2146808Y2327351D01*
X2147620Y2331313D01*
X2149906Y2334666D01*
X2153310Y2336850D01*
X2155444Y2337663D01*
X2168550Y2344724D01*
X2180539Y2353208D01*
X2184603Y2354935D01*
X2189022Y2354732D01*
X2192934Y2352700D01*
X2195626Y2349195D01*
X2196592Y2344928D01*
X2196592Y1518818D01*
X2195830Y1514906D01*
X2193594Y1511604D01*
X2132076Y1450035D01*
X2126945Y1443837D01*
X2123389Y1437182D01*
X2120849Y1428496D01*
X2119020Y1424940D01*
X2115972Y1422400D01*
X2112111Y1421231D01*
X2108149Y1421638D01*
X2104644Y1423517D01*
X2100122Y1427226D01*
X2087829Y1435049D01*
X2074672Y1441246D01*
X2060803Y1445717D01*
X2046528Y1448460D01*
X2044700Y1448562D01*
X2044700Y1346200D01*
X2110232Y1346200D01*
X2114143Y1345438D01*
X2117394Y1343202D01*
X2119630Y1339900D01*
X2120392Y1336040D01*
X2120392Y1330960D01*
X2119630Y1327048D01*
X2117394Y1323746D01*
X2114143Y1321562D01*
X2110232Y1320800D01*
X2044700Y1320800D01*
X2044700Y1218387D01*
X2046528Y1218539D01*
X2060803Y1221232D01*
X2074672Y1225753D01*
X2087829Y1231950D01*
X2100122Y1239723D01*
X2103780Y1242720D01*
X2107082Y1244600D01*
X2110892Y1245057D01*
X2114550Y1244092D01*
X2117648Y1241856D01*
X2119680Y1238656D01*
X2120392Y1234897D01*
X2120392Y1207008D01*
X2121204Y1198981D01*
X2123389Y1191768D01*
X2126945Y1185062D01*
X2132076Y1178864D01*
X2176678Y1134211D01*
X2178862Y1130960D01*
X2179675Y1127150D01*
X2178964Y1123289D01*
X2175814Y1115314D01*
X2172157Y1101191D01*
X2170328Y1086764D01*
X2170328Y1072235D01*
X2172157Y1057757D01*
X2175814Y1043686D01*
X2181148Y1030173D01*
X2188159Y1017371D01*
X2196693Y1005636D01*
X2206650Y995019D01*
X2217877Y985723D01*
X2230170Y977950D01*
X2243328Y971753D01*
X2257196Y967232D01*
X2271471Y964539D01*
X2286000Y963625D01*
X2300528Y964539D01*
X2314803Y967232D01*
X2328672Y971753D01*
X2341829Y977950D01*
X2354122Y985723D01*
X2365349Y995019D01*
X2375306Y1005636D01*
X2383840Y1017371D01*
X2390851Y1030173D01*
X2396236Y1043686D01*
X2399842Y1057757D01*
X2401671Y1072235D01*
X2401671Y1086764D01*
X2399842Y1101191D01*
X2396236Y1115314D01*
X2390851Y1128826D01*
X2383840Y1141577D01*
X2375306Y1153363D01*
X2365349Y1163980D01*
X2354122Y1173226D01*
X2341829Y1181049D01*
X2328672Y1187246D01*
X2314803Y1191717D01*
X2300528Y1194460D01*
X2286000Y1195374D01*
X2271471Y1194460D01*
X2257196Y1191717D01*
X2243328Y1187246D01*
X2238654Y1185976D01*
X2234590Y1186688D01*
X2231186Y1188923D01*
X2200605Y1219504D01*
X2198370Y1222806D01*
X2197608Y1226718D01*
X2197608Y1234948D01*
X2198319Y1238656D01*
X2200351Y1241856D01*
X2203450Y1244092D01*
X2207107Y1245057D01*
X2210917Y1244600D01*
X2214219Y1242771D01*
X2217877Y1239723D01*
X2230170Y1231950D01*
X2243328Y1225753D01*
X2257196Y1221232D01*
X2271471Y1218539D01*
X2286000Y1217625D01*
X2300528Y1218539D01*
X2314803Y1221232D01*
X2328672Y1225753D01*
X2341829Y1231950D01*
X2354122Y1239723D01*
X2365349Y1249019D01*
X2375306Y1259636D01*
X2383840Y1271371D01*
X2390851Y1284173D01*
X2396236Y1297686D01*
X2399842Y1311757D01*
X2401671Y1326235D01*
X2401671Y1340764D01*
X2399842Y1355191D01*
X2396236Y1369314D01*
X2393035Y1377289D01*
X2392324Y1381150D01*
X2393137Y1384960D01*
X2395321Y1388211D01*
X2496769Y1489659D01*
X2500020Y1491843D01*
X2503932Y1492605D01*
X2507843Y1491843D01*
X2511094Y1489659D01*
X2513330Y1486357D01*
X2514092Y1482445D01*
X2514092Y1454048D01*
X2513228Y1449933D01*
X2510739Y1446530D01*
X2507081Y1444396D01*
X2497328Y1441246D01*
X2484170Y1435049D01*
X2471877Y1427226D01*
X2460650Y1417980D01*
X2450693Y1407363D01*
X2442159Y1395577D01*
X2435148Y1382826D01*
X2429814Y1369314D01*
X2426157Y1355191D01*
X2424328Y1340764D01*
X2424328Y1326235D01*
X2426157Y1311757D01*
X2429814Y1297686D01*
X2435148Y1284173D01*
X2442159Y1271371D01*
X2450693Y1259636D01*
X2460650Y1249019D01*
X2471877Y1239723D01*
X2484170Y1231950D01*
X2497328Y1225753D01*
X2511196Y1221232D01*
X2525471Y1218539D01*
X2540000Y1217625D01*
X2554528Y1218539D01*
X2568803Y1221232D01*
X2582672Y1225753D01*
X2595829Y1231950D01*
X2608122Y1239723D01*
X2611780Y1242720D01*
X2615082Y1244600D01*
X2618892Y1245057D01*
X2622550Y1244092D01*
X2625648Y1241856D01*
X2627680Y1238656D01*
X2628392Y1234897D01*
X2628392Y1207008D01*
X2629204Y1198981D01*
X2631389Y1191768D01*
X2634945Y1185062D01*
X2640076Y1178864D01*
X2684678Y1134211D01*
X2686862Y1130960D01*
X2687675Y1127150D01*
X2686964Y1123289D01*
X2683814Y1115314D01*
X2680157Y1101191D01*
X2678328Y1086764D01*
X2678328Y1072235D01*
X2680157Y1057757D01*
X2683814Y1043686D01*
X2689148Y1030173D01*
X2696159Y1017371D01*
X2704693Y1005636D01*
X2714650Y995019D01*
X2725877Y985723D01*
X2738170Y977950D01*
X2751328Y971753D01*
X2765196Y967232D01*
X2779471Y964539D01*
X2794000Y963625D01*
X2808528Y964539D01*
X2822803Y967232D01*
X2836672Y971753D01*
X2849829Y977950D01*
X2862122Y985723D01*
X2873349Y995019D01*
X2883306Y1005636D01*
X2891840Y1017371D01*
X2898851Y1030173D01*
X2904236Y1043686D01*
X2907842Y1057757D01*
X2909671Y1072235D01*
X2909671Y1086764D01*
X2907842Y1101191D01*
X2904236Y1115314D01*
X2898851Y1128826D01*
X2891840Y1141577D01*
X2883306Y1153363D01*
X2873349Y1163980D01*
X2862122Y1173226D01*
X2849829Y1181049D01*
X2836672Y1187246D01*
X2822803Y1191717D01*
X2808528Y1194460D01*
X2794000Y1195374D01*
X2779471Y1194460D01*
X2765196Y1191717D01*
X2751328Y1187246D01*
X2746654Y1185976D01*
X2742590Y1186688D01*
X2739186Y1188923D01*
X2708605Y1219504D01*
X2706370Y1222806D01*
X2705608Y1226718D01*
X2705608Y1234948D01*
X2706319Y1238656D01*
X2708351Y1241856D01*
X2711450Y1244092D01*
X2715107Y1245057D01*
X2718917Y1244600D01*
X2722219Y1242771D01*
X2725877Y1239723D01*
X2738170Y1231950D01*
X2751328Y1225753D01*
X2765196Y1221232D01*
X2779471Y1218539D01*
X2781300Y1218387D01*
X2781300Y1320800D01*
X2715768Y1320800D01*
X2711856Y1321562D01*
X2708605Y1323746D01*
X2706370Y1327048D01*
X2705608Y1330960D01*
X2705608Y1336040D01*
X2706370Y1339900D01*
X2708605Y1343202D01*
X2711856Y1345438D01*
X2715768Y1346200D01*
X2781300Y1346200D01*
X2781300Y1448562D01*
X2779471Y1448460D01*
X2765196Y1445717D01*
X2751328Y1441246D01*
X2738170Y1435049D01*
X2725877Y1427226D01*
X2722219Y1424228D01*
X2718917Y1422400D01*
X2715107Y1421942D01*
X2711450Y1422857D01*
X2708351Y1425092D01*
X2706319Y1428343D01*
X2705608Y1432052D01*
X2705608Y1478991D01*
X2706370Y1482902D01*
X2708605Y1486204D01*
X2710180Y1487779D01*
X2715818Y1495806D01*
X2719933Y1504746D01*
X2722473Y1514195D01*
X2723337Y1524000D01*
X2722473Y1533804D01*
X2719933Y1543253D01*
X2715818Y1552194D01*
X2710180Y1560220D01*
X2703220Y1567180D01*
X2695194Y1572818D01*
X2686253Y1576933D01*
X2676804Y1579473D01*
X2667000Y1580337D01*
X2657195Y1579473D01*
X2647746Y1576933D01*
X2638806Y1572818D01*
X2630779Y1567180D01*
X2623820Y1560220D01*
X2618181Y1552194D01*
X2614066Y1543253D01*
X2611272Y1532940D01*
X2609392Y1529232D01*
X2606192Y1526590D01*
X2602230Y1525422D01*
X2598115Y1525981D01*
X2594559Y1528114D01*
X2592171Y1531518D01*
X2591308Y1535582D01*
X2591308Y3904691D01*
X2592070Y3908602D01*
X2594305Y3911904D01*
X2595880Y3913479D01*
X2601518Y3921506D01*
X2605633Y3930446D01*
X2608173Y3939895D01*
X2609037Y3949700D01*
X2608173Y3959504D01*
X2605633Y3968953D01*
X2601518Y3977894D01*
X2595880Y3985920D01*
X2588920Y3992879D01*
X2580894Y3998518D01*
X2571953Y4002633D01*
X2562504Y4005173D01*
X2552700Y4006037D01*
X2542895Y4005173D01*
X2540609Y4004564D01*
X2536901Y4004259D01*
X2533345Y4005326D01*
X2530398Y4007612D01*
X2528468Y4010761D01*
X2527808Y4014368D01*
X2527808Y4368292D01*
X2526995Y4376318D01*
X2524810Y4383532D01*
X2521254Y4390237D01*
X2516124Y4396435D01*
X2475331Y4437278D01*
X2473147Y4440580D01*
X2472385Y4444492D01*
X2473147Y4448403D01*
X2476195Y4455617D01*
X2480310Y4469942D01*
X2482596Y4484624D01*
X2483053Y4499508D01*
X2481681Y4514342D01*
X2478481Y4528870D01*
X2473502Y4542942D01*
X2466898Y4556252D01*
X2458669Y4568647D01*
X2448966Y4579975D01*
X2437993Y4589983D01*
X2425852Y4598568D01*
X2412746Y4605629D01*
X2398826Y4611014D01*
X2384399Y4614621D01*
X2369616Y4616450D01*
X2354783Y4616450D01*
X2340000Y4614621D01*
X2325573Y4611014D01*
X2311654Y4605629D01*
X2298547Y4598568D01*
X2286406Y4589983D01*
X2275433Y4579975D01*
X2265730Y4568647D01*
X2257501Y4556252D01*
X2250897Y4542942D01*
X2245918Y4528870D01*
X2245106Y4525213D01*
X2243582Y4521657D01*
X2240788Y4518914D01*
X2237130Y4517440D01*
X2233269Y4517440D01*
X2229612Y4518914D01*
X2226818Y4521657D01*
X2225294Y4525213D01*
X2224481Y4528870D01*
X2219502Y4542942D01*
X2212898Y4556252D01*
X2204669Y4568647D01*
X2194966Y4579975D01*
X2183993Y4589983D01*
X2171852Y4598568D01*
X2158746Y4605629D01*
X2144826Y4611014D01*
X2130399Y4614621D01*
X2115616Y4616450D01*
X2100783Y4616450D01*
X2086000Y4614621D01*
X2071573Y4611014D01*
X2057654Y4605629D01*
X2044547Y4598568D01*
X2032406Y4589983D01*
X2021433Y4579975D01*
X2011730Y4568647D01*
X2003501Y4556252D01*
X1996897Y4542942D01*
X1991918Y4528870D01*
X1991106Y4525213D01*
X1989582Y4521657D01*
X1986788Y4518914D01*
X1983130Y4517440D01*
X1979269Y4517440D01*
X1975612Y4518914D01*
X1972818Y4521657D01*
X1971293Y4525213D01*
X1970481Y4528870D01*
X1965502Y4542942D01*
X1958898Y4556252D01*
X1950669Y4568647D01*
X1940966Y4579975D01*
X1929993Y4589983D01*
X1917852Y4598568D01*
X1904746Y4605629D01*
X1890826Y4611014D01*
X1876399Y4614621D01*
X1861616Y4616450D01*
X1846783Y4616450D01*
X1832000Y4614621D01*
X1817573Y4611014D01*
X1803654Y4605629D01*
X1790547Y4598568D01*
X1778406Y4589983D01*
X1767433Y4579975D01*
X1757730Y4568647D01*
X1749501Y4556252D01*
X1742897Y4542942D01*
X1737918Y4528870D01*
X1737106Y4525213D01*
X1735582Y4521657D01*
X1732788Y4518914D01*
X1729130Y4517440D01*
X1725269Y4517440D01*
X1721612Y4518914D01*
X1718818Y4521657D01*
X1717293Y4525213D01*
X1716481Y4528870D01*
X1711502Y4542942D01*
X1704898Y4556252D01*
X1696669Y4568647D01*
X1686966Y4579975D01*
X1675993Y4589983D01*
X1663852Y4598568D01*
X1650746Y4605629D01*
X1636826Y4611014D01*
X1622399Y4614621D01*
X1607616Y4616450D01*
X1592783Y4616450D01*
X1578000Y4614621D01*
X1563573Y4611014D01*
X1549654Y4605629D01*
X1536547Y4598568D01*
X1524406Y4589983D01*
X1513433Y4579975D01*
X1503730Y4568647D01*
X1495501Y4556252D01*
X1488897Y4542942D01*
X1483918Y4528870D01*
X1483106Y4525213D01*
X1481582Y4521657D01*
X1478788Y4518914D01*
X1475130Y4517440D01*
X1471269Y4517440D01*
X1467612Y4518914D01*
X1464818Y4521657D01*
X1463294Y4525213D01*
X1462481Y4528870D01*
X1457502Y4542942D01*
X1450898Y4556252D01*
X1442669Y4568647D01*
X1432966Y4579975D01*
X1421993Y4589983D01*
X1409852Y4598568D01*
X1396746Y4605629D01*
X1382826Y4611014D01*
X1368399Y4614621D01*
X1353616Y4616450D01*
X1338783Y4616450D01*
X1324000Y4614621D01*
X1309573Y4611014D01*
X1295654Y4605629D01*
X1282547Y4598568D01*
X1270406Y4589983D01*
X1259433Y4579975D01*
X1249730Y4568647D01*
X1241501Y4556252D01*
X1234897Y4542942D01*
X1229918Y4528870D01*
X1229106Y4525213D01*
X1227582Y4521657D01*
X1224788Y4518914D01*
X1221130Y4517440D01*
X1217269Y4517440D01*
X1213612Y4518914D01*
X1210818Y4521657D01*
X1209294Y4525213D01*
X1208481Y4528870D01*
X1203502Y4542942D01*
X1196898Y4556252D01*
X1188669Y4568647D01*
X1178966Y4579975D01*
X1167993Y4589983D01*
X1155852Y4598568D01*
X1142746Y4605629D01*
X1128826Y4611014D01*
X1114399Y4614621D01*
X1099616Y4616450D01*
X1084783Y4616450D01*
X1070000Y4614621D01*
X1055573Y4611014D01*
X1041653Y4605629D01*
X1028547Y4598568D01*
X1016406Y4589983D01*
X1005433Y4579975D01*
X995730Y4568647D01*
X987501Y4556252D01*
X980897Y4542942D01*
X975918Y4528870D01*
X975106Y4525213D01*
X973582Y4521657D01*
X970787Y4518914D01*
X967130Y4517440D01*
X963269Y4517440D01*
X959612Y4518914D01*
X956818Y4521657D01*
X955294Y4525213D01*
X954481Y4528870D01*
X949502Y4542942D01*
X942898Y4556252D01*
X934669Y4568647D01*
X924966Y4579975D01*
X913993Y4589983D01*
X901852Y4598568D01*
X888746Y4605629D01*
X874826Y4611014D01*
X860399Y4614621D01*
X845616Y4616450D01*
X830783Y4616450D01*
X816000Y4614621D01*
X801573Y4611014D01*
X787654Y4605629D01*
X774547Y4598568D01*
X762406Y4589983D01*
X751433Y4579975D01*
X741730Y4568647D01*
X733501Y4556252D01*
X726897Y4542942D01*
X721918Y4528870D01*
X721106Y4525213D01*
X719582Y4521657D01*
X716788Y4518914D01*
X713130Y4517440D01*
X709269Y4517440D01*
X705612Y4518914D01*
X702818Y4521657D01*
X701294Y4525213D01*
X700481Y4528870D01*
X695502Y4542942D01*
X688898Y4556252D01*
X680669Y4568647D01*
X670966Y4579975D01*
X659993Y4589983D01*
X647852Y4598568D01*
X634746Y4605629D01*
X620826Y4611014D01*
X606399Y4614621D01*
X591616Y4616450D01*
X576783Y4616450D01*
X562000Y4614621D01*
X547573Y4611014D01*
X533654Y4605629D01*
X520547Y4598568D01*
X508406Y4589983D01*
X497433Y4579975D01*
X487730Y4568647D01*
X479501Y4556252D01*
X472897Y4542942D01*
X467918Y4528870D01*
X464718Y4514342D01*
X463346Y4499508D01*
X463804Y4484624D01*
X466090Y4469942D01*
X470204Y4455617D01*
X475996Y4441901D01*
X483412Y4429048D01*
X492404Y4417161D01*
X502767Y4406442D01*
X514350Y4397146D01*
X526999Y4389272D01*
X539699Y4383481D01*
X542798Y4381246D01*
X544880Y4377994D01*
X545592Y4374235D01*
X545592Y4121708D01*
X544830Y4117797D01*
X542594Y4114495D01*
X541020Y4112920D01*
X535381Y4104894D01*
X531266Y4095953D01*
X528726Y4086504D01*
X527862Y4076700D01*
X528726Y4066895D01*
X531266Y4057446D01*
X535381Y4048506D01*
X541020Y4040479D01*
X547979Y4033520D01*
X556006Y4027881D01*
X564946Y4023766D01*
X574395Y4021226D01*
X584200Y4020362D01*
X594004Y4021226D01*
X603453Y4023766D01*
X612394Y4027881D01*
X620420Y4033520D01*
X627380Y4040479D01*
X633018Y4048506D01*
X637133Y4057446D01*
X639673Y4066895D01*
X640537Y4076700D01*
X639673Y4086504D01*
X637133Y4095953D01*
X633018Y4104894D01*
X627380Y4112920D01*
X625805Y4114495D01*
X623570Y4117797D01*
X622808Y4121708D01*
X622808Y4374235D01*
X623519Y4377994D01*
X625602Y4381246D01*
X628700Y4383481D01*
X641400Y4389272D01*
X654050Y4397146D01*
X665632Y4406442D01*
X675995Y4417161D01*
X684987Y4429048D01*
X692404Y4441901D01*
X698195Y4455617D01*
X701446Y4466894D01*
X703478Y4470755D01*
X706932Y4473346D01*
X711200Y4474311D01*
X715467Y4473346D01*
X718921Y4470755D01*
X720953Y4466894D01*
X724204Y4455617D01*
X729996Y4441901D01*
X737412Y4429048D01*
X746404Y4417161D01*
X756767Y4406442D01*
X768350Y4397146D01*
X780999Y4389272D01*
X793699Y4383481D01*
X796798Y4381246D01*
X798880Y4377994D01*
X799592Y4374235D01*
X799592Y3994708D01*
X798830Y3990797D01*
X796594Y3987495D01*
X795020Y3985920D01*
X789381Y3977894D01*
X785266Y3968953D01*
X782726Y3959504D01*
X781862Y3949700D01*
X782726Y3939895D01*
X785266Y3930446D01*
X789381Y3921506D01*
X795020Y3913479D01*
X801979Y3906520D01*
X810006Y3900881D01*
X818946Y3896766D01*
X828395Y3894226D01*
X838200Y3893362D01*
X848004Y3894226D01*
X857453Y3896766D01*
X866394Y3900881D01*
X874420Y3906520D01*
X881380Y3913479D01*
X887018Y3921506D01*
X891133Y3930446D01*
X893673Y3939895D01*
X894537Y3949700D01*
X893673Y3959504D01*
X891133Y3968953D01*
X887018Y3977894D01*
X881380Y3985920D01*
X879805Y3987495D01*
X877569Y3990797D01*
X876808Y3994708D01*
X876808Y4374235D01*
X877519Y4377994D01*
X879602Y4381246D01*
X882700Y4383481D01*
X895400Y4389272D01*
X908050Y4397146D01*
X919632Y4406442D01*
X929995Y4417161D01*
X938987Y4429048D01*
X946403Y4441901D01*
X952195Y4455617D01*
X955446Y4466894D01*
X957478Y4470755D01*
X960932Y4473346D01*
X965200Y4474311D01*
X969467Y4473346D01*
X972921Y4470755D01*
X974953Y4466894D01*
X978204Y4455617D01*
X983996Y4441901D01*
X991412Y4429048D01*
X1000404Y4417161D01*
X1010767Y4406442D01*
X1022350Y4397146D01*
X1034999Y4389272D01*
X1047699Y4383481D01*
X1050798Y4381246D01*
X1052880Y4377994D01*
X1053592Y4374235D01*
X1053592Y4058208D01*
X1052830Y4054297D01*
X1050594Y4050995D01*
X1049020Y4049420D01*
X1043381Y4041394D01*
X1039266Y4032453D01*
X1036726Y4023004D01*
X1035862Y4013200D01*
X1036726Y4003395D01*
X1039266Y3993946D01*
X1043381Y3985006D01*
X1049020Y3976979D01*
X1055979Y3970020D01*
X1064006Y3964381D01*
X1072946Y3960266D01*
X1082395Y3957726D01*
X1092200Y3956862D01*
X1102004Y3957726D01*
X1111453Y3960266D01*
X1120394Y3964381D01*
X1128420Y3970020D01*
X1135380Y3976979D01*
X1141018Y3985006D01*
X1145133Y3993946D01*
X1147673Y4003395D01*
X1148537Y4013200D01*
X1147673Y4023004D01*
X1145133Y4032453D01*
X1141018Y4041394D01*
X1135380Y4049420D01*
X1133805Y4050995D01*
X1131570Y4054297D01*
X1130808Y4058208D01*
X1130808Y4374235D01*
X1131519Y4377994D01*
X1133602Y4381246D01*
X1136700Y4383481D01*
X1149400Y4389272D01*
X1162050Y4397146D01*
X1173632Y4406442D01*
X1183995Y4417161D01*
X1192987Y4429048D01*
X1200404Y4441901D01*
X1206195Y4455617D01*
X1209446Y4466894D01*
X1211478Y4470755D01*
X1214932Y4473346D01*
X1219200Y4474311D01*
X1223467Y4473346D01*
X1226921Y4470755D01*
X1228953Y4466894D01*
X1232204Y4455617D01*
X1237996Y4441901D01*
X1245412Y4429048D01*
X1254404Y4417161D01*
X1264767Y4406442D01*
X1276350Y4397146D01*
X1288999Y4389272D01*
X1301699Y4383481D01*
X1304798Y4381246D01*
X1306880Y4377994D01*
X1307592Y4374235D01*
X1307592Y4185208D01*
X1306830Y4181297D01*
X1304594Y4177995D01*
X1303020Y4176420D01*
X1297381Y4168394D01*
X1293266Y4159453D01*
X1290726Y4150004D01*
X1289862Y4140200D01*
X1290726Y4130395D01*
X1293266Y4120946D01*
X1297381Y4112006D01*
X1303020Y4103979D01*
X1309979Y4097020D01*
X1318006Y4091381D01*
X1326946Y4087266D01*
X1336395Y4084726D01*
X1346200Y4083862D01*
X1356004Y4084726D01*
X1365453Y4087266D01*
X1374394Y4091381D01*
X1382420Y4097020D01*
X1389380Y4103979D01*
X1395018Y4112006D01*
X1399133Y4120946D01*
X1401673Y4130395D01*
X1402537Y4140200D01*
X1401673Y4150004D01*
X1399133Y4159453D01*
X1395018Y4168394D01*
X1389380Y4176420D01*
X1387805Y4177995D01*
X1385570Y4181297D01*
X1384808Y4185208D01*
X1384808Y4374235D01*
X1385519Y4377994D01*
X1387602Y4381246D01*
X1390700Y4383481D01*
X1403400Y4389272D01*
X1416050Y4397146D01*
X1427632Y4406442D01*
X1437995Y4417161D01*
X1446987Y4429048D01*
X1454404Y4441901D01*
X1460195Y4455617D01*
X1463446Y4466894D01*
X1465478Y4470755D01*
X1468932Y4473346D01*
X1473200Y4474311D01*
X1477467Y4473346D01*
X1480921Y4470755D01*
X1482953Y4466894D01*
X1486204Y4455617D01*
X1491996Y4441901D01*
X1499412Y4429048D01*
X1508404Y4417161D01*
X1518767Y4406442D01*
X1530350Y4397146D01*
X1542999Y4389272D01*
X1555699Y4383481D01*
X1558798Y4381246D01*
X1560880Y4377994D01*
X1561592Y4374235D01*
X1561592Y4248708D01*
X1560830Y4244797D01*
X1558594Y4241495D01*
X1557020Y4239920D01*
X1551381Y4231894D01*
X1547266Y4222953D01*
X1544726Y4213504D01*
X1543862Y4203700D01*
X1544726Y4193895D01*
X1547266Y4184446D01*
X1551381Y4175506D01*
X1557020Y4167479D01*
X1563979Y4160520D01*
X1572006Y4154881D01*
X1580946Y4150766D01*
X1590395Y4148226D01*
X1600200Y4147362D01*
X1610004Y4148226D01*
X1619453Y4150766D01*
X1628394Y4154881D01*
X1636420Y4160520D01*
X1643380Y4167479D01*
X1649018Y4175506D01*
X1653133Y4184446D01*
X1655673Y4193895D01*
X1656537Y4203700D01*
X1655673Y4213504D01*
X1653133Y4222953D01*
X1649018Y4231894D01*
X1643380Y4239920D01*
X1641805Y4241495D01*
X1639570Y4244797D01*
X1638807Y4248708D01*
X1638807Y4374235D01*
X1639519Y4377994D01*
X1641602Y4381246D01*
X1644700Y4383481D01*
X1657400Y4389272D01*
X1670050Y4397146D01*
X1681632Y4406442D01*
X1691995Y4417161D01*
X1700987Y4429048D01*
X1708404Y4441901D01*
X1714195Y4455617D01*
X1717446Y4466894D01*
X1719478Y4470755D01*
X1722932Y4473346D01*
X1727200Y4474311D01*
X1731467Y4473346D01*
X1734921Y4470755D01*
X1736953Y4466894D01*
X1740204Y4455617D01*
X1745996Y4441901D01*
X1753412Y4429048D01*
X1762404Y4417161D01*
X1772767Y4406442D01*
X1784350Y4397146D01*
X1796999Y4389272D01*
X1809699Y4383481D01*
X1812798Y4381246D01*
X1814880Y4377994D01*
X1815592Y4374235D01*
X1815592Y4312208D01*
X1814830Y4308297D01*
X1812594Y4304995D01*
X1811020Y4303420D01*
X1805381Y4295394D01*
X1801266Y4286453D01*
X1798726Y4277004D01*
X1797862Y4267200D01*
X1798726Y4257395D01*
X1801266Y4247946D01*
X1805381Y4239006D01*
X1811020Y4230979D01*
X1817979Y4224020D01*
X1826006Y4218381D01*
X1834946Y4214266D01*
X1844395Y4211726D01*
X1854200Y4210862D01*
X1864004Y4211726D01*
X1873453Y4214266D01*
X1882393Y4218381D01*
X1890420Y4224020D01*
X1897380Y4230979D01*
X1903018Y4239006D01*
X1907133Y4247946D01*
X1909673Y4257395D01*
X1910537Y4267200D01*
X1909673Y4277004D01*
X1907133Y4286453D01*
X1903018Y4295394D01*
X1897380Y4303420D01*
X1895805Y4304995D01*
X1893570Y4308297D01*
X1892807Y4312208D01*
X1892807Y4374235D01*
X1893519Y4377994D01*
X1895602Y4381246D01*
X1898700Y4383481D01*
X1911400Y4389272D01*
X1924050Y4397146D01*
X1935632Y4406442D01*
X1945995Y4417161D01*
X1954987Y4429048D01*
X1962404Y4441901D01*
X1968195Y4455617D01*
X1971446Y4466894D01*
X1973478Y4470755D01*
X1976932Y4473346D01*
X1981200Y4474311D01*
X1985467Y4473346D01*
X1988921Y4470755D01*
X1990953Y4466894D01*
X1994204Y4455617D01*
X1999996Y4441901D01*
X2007412Y4429048D01*
X2016404Y4417161D01*
X2026767Y4406442D01*
X2038350Y4397146D01*
X2050999Y4389272D01*
X2064512Y4383074D01*
X2078736Y4378553D01*
X2093366Y4375810D01*
X2108200Y4374896D01*
X2123033Y4375810D01*
X2137664Y4378553D01*
X2151888Y4383074D01*
X2155342Y4384649D01*
X2159304Y4385614D01*
X2163368Y4384852D01*
X2166772Y4382617D01*
X2193594Y4355795D01*
X2195830Y4352493D01*
X2196592Y4348581D01*
X2196592Y2549804D01*
X2195880Y2546096D01*
X2193848Y2542895D01*
X2190800Y2540660D01*
X2187143Y2539695D01*
X2183384Y2540101D01*
X2180082Y2541879D01*
X2174748Y2546146D01*
X2162098Y2554020D01*
X2148586Y2560218D01*
X2134412Y2564739D01*
X2119782Y2567482D01*
X2104948Y2568397D01*
X2090064Y2567482D01*
X2075434Y2564739D01*
X2061260Y2560218D01*
X2047748Y2554020D01*
X2035302Y2546299D01*
X2031288Y2544876D01*
X2027021Y2545232D01*
X2023262Y2547315D01*
X2020722Y2550769D01*
X2019807Y2554935D01*
X2019807Y3841191D01*
X2020570Y3845102D01*
X2022805Y3848404D01*
X2024380Y3849979D01*
X2030018Y3858006D01*
X2034133Y3866946D01*
X2036673Y3876395D01*
X2037537Y3886200D01*
X2036673Y3896004D01*
X2034133Y3905453D01*
X2030018Y3914394D01*
X2024380Y3922420D01*
X2017420Y3929379D01*
X2009393Y3935018D01*
X2000453Y3939133D01*
X1991004Y3941673D01*
X1981200Y3942537D01*
X1971395Y3941673D01*
X1961946Y3939133D01*
X1953006Y3935018D01*
X1944979Y3929379D01*
X1938020Y3922420D01*
X1932381Y3914394D01*
X1928266Y3905453D01*
X1925726Y3896004D01*
X1924862Y3886200D01*
X1925726Y3876395D01*
X1928266Y3866946D01*
X1932381Y3858006D01*
X1938020Y3849979D01*
X1939594Y3848404D01*
X1941830Y3845102D01*
X1942592Y3841191D01*
X1942592Y2549804D01*
X1941880Y2546096D01*
X1939848Y2542895D01*
X1936800Y2540660D01*
X1933143Y2539695D01*
X1929384Y2540101D01*
X1926082Y2541879D01*
X1920748Y2546146D01*
X1908098Y2554020D01*
X1894586Y2560218D01*
X1880412Y2564739D01*
X1865782Y2567482D01*
X1850948Y2568397D01*
X1836064Y2567482D01*
X1821434Y2564739D01*
X1807260Y2560218D01*
X1793748Y2554020D01*
X1781302Y2546299D01*
X1777288Y2544876D01*
X1773021Y2545232D01*
X1769262Y2547315D01*
X1766722Y2550769D01*
X1765807Y2554935D01*
X1765807Y3968191D01*
X1766570Y3972102D01*
X1768805Y3975404D01*
X1770380Y3976979D01*
X1776018Y3985006D01*
X1780133Y3993946D01*
X1782673Y4003395D01*
X1783537Y4013200D01*
X1782673Y4023004D01*
X1780133Y4032453D01*
X1776018Y4041394D01*
X1770380Y4049420D01*
X1763420Y4056379D01*
X1755393Y4062018D01*
X1746453Y4066133D01*
X1737004Y4068673D01*
X1727200Y4069537D01*
X1717395Y4068673D01*
X1707946Y4066133D01*
X1699006Y4062018D01*
X1690979Y4056379D01*
X1684020Y4049420D01*
X1678381Y4041394D01*
X1674266Y4032453D01*
X1671726Y4023004D01*
X1670862Y4013200D01*
X1671726Y4003395D01*
X1674266Y3993946D01*
X1678381Y3985006D01*
X1684020Y3976979D01*
X1685594Y3975404D01*
X1687830Y3972102D01*
X1688592Y3968191D01*
X1688592Y2549804D01*
X1687880Y2546096D01*
X1685848Y2542895D01*
X1682800Y2540660D01*
X1679143Y2539695D01*
X1675384Y2540101D01*
X1672082Y2541879D01*
X1666748Y2546146D01*
X1654098Y2554020D01*
X1640586Y2560218D01*
X1626412Y2564739D01*
X1611782Y2567482D01*
X1596948Y2568397D01*
X1582064Y2567482D01*
X1567434Y2564739D01*
X1553260Y2560218D01*
X1539748Y2554020D01*
X1527302Y2546299D01*
X1523288Y2544876D01*
X1519021Y2545232D01*
X1515262Y2547315D01*
X1512722Y2550769D01*
X1511808Y2554935D01*
X1511808Y3904691D01*
X1512570Y3908602D01*
X1514805Y3911904D01*
X1516380Y3913479D01*
X1522018Y3921506D01*
X1526133Y3930446D01*
X1528673Y3939895D01*
X1529537Y3949700D01*
X1528673Y3959504D01*
X1526133Y3968953D01*
X1522018Y3977894D01*
X1516380Y3985920D01*
X1509420Y3992879D01*
X1501394Y3998518D01*
X1492453Y4002633D01*
X1483004Y4005173D01*
X1473200Y4006037D01*
X1463395Y4005173D01*
X1453946Y4002633D01*
X1445006Y3998518D01*
X1436979Y3992879D01*
X1430020Y3985920D01*
X1424381Y3977894D01*
X1420266Y3968953D01*
X1417726Y3959504D01*
X1416862Y3949700D01*
X1417726Y3939895D01*
X1420266Y3930446D01*
X1424381Y3921506D01*
X1430020Y3913479D01*
X1431594Y3911904D01*
X1433830Y3908602D01*
X1434592Y3904691D01*
X1434592Y2549804D01*
X1433880Y2546096D01*
X1431848Y2542895D01*
X1428800Y2540660D01*
X1425143Y2539695D01*
X1421384Y2540101D01*
X1418082Y2541879D01*
X1412748Y2546146D01*
X1400098Y2554020D01*
X1386586Y2560218D01*
X1372412Y2564739D01*
X1357782Y2567482D01*
X1342948Y2568397D01*
X1328064Y2567482D01*
X1313434Y2564739D01*
X1299260Y2560218D01*
X1285748Y2554020D01*
X1273098Y2546146D01*
X1261465Y2536850D01*
X1251102Y2526131D01*
X1242161Y2514244D01*
X1234694Y2501392D01*
X1228902Y2487676D01*
X1225702Y2476398D01*
X1223619Y2472537D01*
X1220165Y2469946D01*
X1215948Y2468981D01*
X1211681Y2469946D01*
X1208227Y2472537D01*
X1206144Y2476398D01*
X1202944Y2487676D01*
X1197152Y2501392D01*
X1189685Y2514244D01*
X1180744Y2526131D01*
X1170381Y2536850D01*
X1158748Y2546146D01*
X1146098Y2554020D01*
X1132586Y2560218D01*
X1118412Y2564739D01*
X1103782Y2567482D01*
X1088948Y2568397D01*
X1074064Y2567482D01*
X1059434Y2564739D01*
X1045260Y2560218D01*
X1031748Y2554020D01*
X1019098Y2546146D01*
X1007465Y2536850D01*
X997102Y2526131D01*
X988161Y2514244D01*
X980694Y2501392D01*
X974902Y2487676D01*
X971702Y2476398D01*
X969619Y2472537D01*
X966165Y2469946D01*
X961948Y2468981D01*
X957681Y2469946D01*
X954227Y2472537D01*
X952144Y2476398D01*
X948944Y2487676D01*
X943152Y2501392D01*
X935685Y2514244D01*
X926744Y2526131D01*
X916381Y2536850D01*
X904748Y2546146D01*
X892098Y2554020D01*
X878586Y2560218D01*
X864412Y2564739D01*
X849782Y2567482D01*
X834948Y2568397D01*
X820064Y2567482D01*
X805434Y2564739D01*
X791260Y2560218D01*
X777748Y2554020D01*
X765098Y2546146D01*
X753465Y2536850D01*
X743102Y2526131D01*
X734161Y2514244D01*
X726694Y2501392D01*
X720902Y2487676D01*
X717702Y2476398D01*
X715619Y2472537D01*
X712165Y2469946D01*
X707948Y2468981D01*
X703681Y2469946D01*
X700227Y2472537D01*
X698144Y2476398D01*
X694944Y2487676D01*
X689152Y2501392D01*
X681685Y2514244D01*
X672744Y2526131D01*
X662381Y2536850D01*
X650748Y2546146D01*
X638098Y2554020D01*
X624586Y2560218D01*
X610412Y2564739D01*
X595782Y2567482D01*
X580948Y2568397D01*
X566064Y2567482D01*
X551434Y2564739D01*
X537260Y2560218D01*
X523748Y2554020D01*
X511098Y2546146D01*
X499465Y2536850D01*
X489102Y2526131D01*
X480161Y2514244D01*
X472693Y2501392D01*
X466902Y2487676D01*
X462838Y2473350D01*
X460552Y2458669D01*
X460095Y2443784D01*
X461467Y2428951D01*
X464667Y2414422D01*
X469595Y2400350D01*
X476250Y2387041D01*
X484428Y2374646D01*
X494131Y2363317D01*
X505155Y2353310D01*
X517296Y2344724D01*
X527558Y2339187D01*
X530402Y2336952D01*
X532231Y2333802D01*
X532892Y2330246D01*
X532892Y1886508D01*
X532130Y1882597D01*
X529894Y1879295D01*
X528320Y1877720D01*
X522681Y1869693D01*
X518566Y1860753D01*
X516026Y1851304D01*
X515162Y1841500D01*
X516026Y1831695D01*
X518566Y1822246D01*
X522681Y1813306D01*
X528320Y1805279D01*
X535279Y1798320D01*
X543306Y1792681D01*
X552246Y1788566D01*
X561695Y1786026D01*
X571500Y1785162D01*
X581304Y1786026D01*
X583590Y1786636D01*
X587298Y1786940D01*
X590854Y1785874D01*
X593801Y1783588D01*
X595731Y1780438D01*
X596392Y1776831D01*
X596392Y1432052D01*
X595680Y1428343D01*
X593648Y1425092D01*
X590550Y1422857D01*
X586892Y1421942D01*
X583082Y1422400D01*
X579780Y1424228D01*
X576122Y1427226D01*
X563829Y1435049D01*
X550672Y1441246D01*
X536803Y1445717D01*
X522528Y1448460D01*
X508000Y1449374D01*
X493471Y1448460D01*
X482904Y1446428D01*
X479602Y1446377D01*
X476453Y1447342D01*
X473811Y1449222D01*
X441655Y1481429D01*
X439420Y1484680D01*
X438658Y1488592D01*
X438658Y4937607D01*
X439420Y4941519D01*
X441655Y4944770D01*
X738987Y5242153D01*
X745388Y5249722D01*
X750265Y5257901D01*
X753719Y5266740D01*
X755700Y5276088D01*
X756056Y5285587D01*
X754888Y5295036D01*
X752195Y5304129D01*
X747979Y5312714D01*
X742492Y5320436D01*
X735736Y5327192D01*
X728014Y5332679D01*
X719429Y5336895D01*
X710336Y5339588D01*
X700887Y5340756D01*
X691388Y5340400D01*
X682040Y5338419D01*
X673201Y5334965D01*
X665022Y5330088D01*
X657453Y5323687D01*
X618947Y5285232D01*
X615340Y5282895D01*
X611124Y5282234D01*
X606958Y5283454D01*
X603707Y5286248D01*
X601878Y5290108D01*
X601827Y5294426D01*
X603554Y5298338D01*
X610819Y5308295D01*
X622757Y5328107D01*
X633018Y5348782D01*
X641553Y5370271D01*
X648208Y5392369D01*
X653034Y5414975D01*
X655929Y5437936D01*
X656336Y5448300D01*
X393700Y5448300D01*
X393700Y5185562D01*
X398322Y5185664D01*
X421284Y5188051D01*
X443992Y5192369D01*
X466242Y5198618D01*
X487934Y5206644D01*
X508812Y5216499D01*
X528828Y5228031D01*
X543509Y5238242D01*
X547420Y5239867D01*
X551688Y5239766D01*
X555548Y5237886D01*
X558292Y5234635D01*
X559409Y5230520D01*
X558800Y5226304D01*
X556463Y5222697D01*
X340512Y5006746D01*
X334111Y4999177D01*
X329234Y4990998D01*
X325780Y4982159D01*
X323799Y4972710D01*
X323342Y4965395D01*
X323342Y4778705D01*
X322427Y4774488D01*
X319887Y4771034D01*
X316128Y4768951D01*
X311861Y4768596D01*
X307797Y4770069D01*
X304749Y4773066D01*
X296621Y4785258D01*
X287477Y4795672D01*
X277063Y4804816D01*
X265531Y4812487D01*
X253136Y4818634D01*
X239979Y4823053D01*
X226415Y4825796D01*
X212598Y4826660D01*
X198780Y4825796D01*
X185216Y4823053D01*
X172059Y4818634D01*
X159664Y4812487D01*
X148132Y4804816D01*
X138023Y4795926D01*
X134670Y4793996D01*
X130860Y4793386D01*
X127101Y4794300D01*
X124002Y4796536D01*
X121869Y4799787D01*
X121158Y4803546D01*
X121158Y5143093D01*
X120345Y5152999D01*
X118008Y5162194D01*
X114198Y5170932D01*
X108966Y5178907D01*
X102514Y5185918D01*
X94996Y5191760D01*
X86664Y5196281D01*
X77622Y5199380D01*
X68275Y5200904D01*
X58724Y5200904D01*
X49377Y5199380D01*
X39420Y5195925D01*
X35610Y5195366D01*
X31851Y5196281D01*
X28702Y5198465D01*
X26619Y5201716D01*
X25908Y5205526D01*
X25908Y5805932D01*
X26670Y5809843D01*
X28905Y5813094D01*
X32156Y5815330D01*
X36068Y5816092D01*
X5805932Y5816092D01*
X5809843Y5815330D01*
X5813094Y5813094D01*
X5815330Y5809843D01*
X5816092Y5805932D01*
X5816092Y36068D01*
X5815330Y32207D01*
X5813094Y28905D01*
X5809843Y26670D01*
G37*

%LPC*%
G36*
X4456887Y5600700D02*
G01*
X4559300Y5600700D01*
X4559300Y5702960D01*
X4550308Y5701842D01*
X4536186Y5698236D01*
X4522673Y5692851D01*
X4509922Y5685840D01*
X4498136Y5677306D01*
X4487519Y5667349D01*
X4478223Y5656122D01*
X4470450Y5643829D01*
X4464253Y5630672D01*
X4459732Y5616803D01*
X4457039Y5602528D01*
G37*
G36*
X393700Y105562D02*
G01*
X398322Y105664D01*
X421284Y108051D01*
X443992Y112369D01*
X466242Y118618D01*
X487934Y126644D01*
X508812Y136499D01*
X528828Y148031D01*
X547827Y161239D01*
X565607Y175971D01*
X582117Y192125D01*
X597204Y209600D01*
X610819Y228295D01*
X622757Y248107D01*
X633018Y268782D01*
X641553Y290271D01*
X648208Y312369D01*
X653034Y334975D01*
X655929Y357936D01*
X656336Y368300D01*
X393700Y368300D01*
G37*
G36*
X5448300Y105613D02*
G01*
X5448300Y368300D01*
X5185410Y368300D01*
X5187289Y346405D01*
X5191150Y323646D01*
X5196890Y301244D01*
X5204460Y279450D01*
X5213858Y258317D01*
X5224983Y238099D01*
X5237784Y218846D01*
X5252161Y200710D01*
X5267960Y183896D01*
X5285130Y168402D01*
X5303520Y154432D01*
X5323027Y142087D01*
X5343499Y131368D01*
X5364835Y122428D01*
X5386781Y115265D01*
X5409285Y109982D01*
X5432145Y106629D01*
G37*
G36*
X368300Y105613D02*
G01*
X368300Y368300D01*
X105410Y368300D01*
X107289Y346405D01*
X111150Y323646D01*
X116890Y301244D01*
X124460Y279450D01*
X133858Y258317D01*
X144983Y238099D01*
X157784Y218846D01*
X172161Y200710D01*
X187960Y183896D01*
X205130Y168402D01*
X223520Y154432D01*
X243027Y142087D01*
X263499Y131368D01*
X284835Y122428D01*
X306781Y115265D01*
X329285Y109982D01*
X352145Y106629D01*
G37*
G36*
X393700Y393700D02*
G01*
X656336Y393700D01*
X655929Y404063D01*
X653034Y427024D01*
X648208Y449630D01*
X641553Y471728D01*
X633018Y493217D01*
X622757Y513892D01*
X610819Y533704D01*
X597204Y552348D01*
X582117Y569874D01*
X565607Y586028D01*
X547827Y600760D01*
X528828Y613968D01*
X508812Y625500D01*
X487934Y635355D01*
X466242Y643382D01*
X443992Y649630D01*
X421284Y653948D01*
X398322Y656336D01*
X393700Y656437D01*
G37*
G36*
X5473700Y393700D02*
G01*
X5736336Y393700D01*
X5735929Y404063D01*
X5733034Y427024D01*
X5728208Y449630D01*
X5721553Y471728D01*
X5713018Y493217D01*
X5702757Y513892D01*
X5690819Y533704D01*
X5677204Y552348D01*
X5662117Y569874D01*
X5645607Y586028D01*
X5627827Y600760D01*
X5608828Y613968D01*
X5588812Y625500D01*
X5567934Y635355D01*
X5546242Y643382D01*
X5523992Y649630D01*
X5501284Y653948D01*
X5478322Y656336D01*
X5473700Y656437D01*
G37*
G36*
X5185410Y393700D02*
G01*
X5448300Y393700D01*
X5448300Y656386D01*
X5432145Y655370D01*
X5409285Y652018D01*
X5386781Y646734D01*
X5364835Y639572D01*
X5343499Y630631D01*
X5323027Y619912D01*
X5303520Y607568D01*
X5285130Y593598D01*
X5267960Y578104D01*
X5252161Y561289D01*
X5237784Y543153D01*
X5224983Y523900D01*
X5213858Y503682D01*
X5204460Y482549D01*
X5196890Y460756D01*
X5191150Y438353D01*
X5187289Y415594D01*
G37*
G36*
X105410Y393700D02*
G01*
X368300Y393700D01*
X368300Y656386D01*
X352145Y655370D01*
X329285Y652018D01*
X306781Y646734D01*
X284835Y639572D01*
X263499Y630631D01*
X243027Y619912D01*
X223520Y607568D01*
X205130Y593598D01*
X187960Y578104D01*
X172161Y561289D01*
X157784Y543153D01*
X144983Y523900D01*
X133858Y503682D01*
X124460Y482549D01*
X116890Y460756D01*
X111150Y438353D01*
X107289Y415594D01*
G37*
G36*
X4584700Y5600700D02*
G01*
X4687112Y5600700D01*
X4686960Y5602528D01*
X4684268Y5616803D01*
X4679746Y5630672D01*
X4673549Y5643829D01*
X4665776Y5656122D01*
X4656480Y5667349D01*
X4645863Y5677306D01*
X4634077Y5685840D01*
X4621326Y5692851D01*
X4607814Y5698236D01*
X4593691Y5701842D01*
X4584700Y5702960D01*
G37*
G36*
X2540000Y963625D02*
G01*
X2554528Y964539D01*
X2568803Y967232D01*
X2582672Y971753D01*
X2595829Y977950D01*
X2608122Y985723D01*
X2619349Y995019D01*
X2629306Y1005636D01*
X2637840Y1017371D01*
X2644851Y1030173D01*
X2650236Y1043686D01*
X2653842Y1057757D01*
X2655671Y1072235D01*
X2655671Y1086764D01*
X2653842Y1101191D01*
X2650236Y1115314D01*
X2644851Y1128826D01*
X2637840Y1141577D01*
X2629306Y1153363D01*
X2619349Y1163980D01*
X2608122Y1173226D01*
X2595829Y1181049D01*
X2582672Y1187246D01*
X2568803Y1191717D01*
X2554528Y1194460D01*
X2540000Y1195374D01*
X2525471Y1194460D01*
X2511196Y1191717D01*
X2497328Y1187246D01*
X2484170Y1181049D01*
X2471877Y1173226D01*
X2460650Y1163980D01*
X2450693Y1153363D01*
X2442159Y1141577D01*
X2435148Y1128826D01*
X2429814Y1115314D01*
X2426157Y1101191D01*
X2424328Y1086764D01*
X2424328Y1072235D01*
X2426157Y1057757D01*
X2429814Y1043686D01*
X2435148Y1030173D01*
X2442159Y1017371D01*
X2450693Y1005636D01*
X2460650Y995019D01*
X2471877Y985723D01*
X2484170Y977950D01*
X2497328Y971753D01*
X2511196Y967232D01*
X2525471Y964539D01*
G37*
G36*
X1270000Y963625D02*
G01*
X1284528Y964539D01*
X1298803Y967232D01*
X1312672Y971753D01*
X1325829Y977950D01*
X1338122Y985723D01*
X1349349Y995019D01*
X1359306Y1005636D01*
X1367840Y1017371D01*
X1374851Y1030173D01*
X1380236Y1043686D01*
X1383842Y1057757D01*
X1385671Y1072235D01*
X1385671Y1086764D01*
X1383842Y1101191D01*
X1380236Y1115314D01*
X1374851Y1128826D01*
X1367840Y1141577D01*
X1359306Y1153363D01*
X1349349Y1163980D01*
X1338122Y1173226D01*
X1325829Y1181049D01*
X1312672Y1187246D01*
X1298803Y1191717D01*
X1284528Y1194460D01*
X1270000Y1195374D01*
X1255471Y1194460D01*
X1241196Y1191717D01*
X1227328Y1187246D01*
X1222654Y1185976D01*
X1218590Y1186688D01*
X1215186Y1188923D01*
X1184605Y1219504D01*
X1182370Y1222806D01*
X1181608Y1226718D01*
X1181608Y1234948D01*
X1182319Y1238656D01*
X1184351Y1241856D01*
X1187450Y1244092D01*
X1191107Y1245057D01*
X1194917Y1244600D01*
X1198219Y1242771D01*
X1201877Y1239723D01*
X1214170Y1231950D01*
X1227328Y1225753D01*
X1241196Y1221232D01*
X1255471Y1218539D01*
X1270000Y1217625D01*
X1284528Y1218539D01*
X1298803Y1221232D01*
X1312672Y1225753D01*
X1325829Y1231950D01*
X1338122Y1239723D01*
X1349349Y1249019D01*
X1359306Y1259636D01*
X1367840Y1271371D01*
X1374851Y1284173D01*
X1380236Y1297686D01*
X1383842Y1311757D01*
X1385671Y1326235D01*
X1385671Y1340764D01*
X1383842Y1355191D01*
X1380236Y1369314D01*
X1374851Y1382826D01*
X1367840Y1395577D01*
X1359306Y1407363D01*
X1349349Y1417980D01*
X1338122Y1427226D01*
X1325829Y1435049D01*
X1314450Y1440383D01*
X1311351Y1442669D01*
X1309319Y1445869D01*
X1308608Y1449578D01*
X1308608Y1986991D01*
X1309370Y1990902D01*
X1311605Y1994204D01*
X1313180Y1995779D01*
X1318818Y2003806D01*
X1322933Y2012746D01*
X1325473Y2022195D01*
X1326337Y2032000D01*
X1325473Y2041804D01*
X1322933Y2051253D01*
X1318818Y2060193D01*
X1313180Y2068220D01*
X1306220Y2075180D01*
X1298194Y2080818D01*
X1289253Y2084933D01*
X1279804Y2087473D01*
X1270000Y2088337D01*
X1260195Y2087473D01*
X1250746Y2084933D01*
X1241806Y2080818D01*
X1233779Y2075180D01*
X1226820Y2068220D01*
X1221181Y2060193D01*
X1217066Y2051253D01*
X1214526Y2041804D01*
X1213662Y2032000D01*
X1214526Y2022195D01*
X1217066Y2012746D01*
X1221181Y2003806D01*
X1226820Y1995779D01*
X1228394Y1994204D01*
X1230630Y1990902D01*
X1231392Y1986991D01*
X1231392Y1449578D01*
X1230680Y1445869D01*
X1228648Y1442618D01*
X1225550Y1440383D01*
X1214170Y1435049D01*
X1201877Y1427226D01*
X1198219Y1424228D01*
X1194917Y1422400D01*
X1191107Y1421942D01*
X1187450Y1422857D01*
X1184351Y1425092D01*
X1182319Y1428343D01*
X1181608Y1432052D01*
X1181608Y1923491D01*
X1182370Y1927402D01*
X1184605Y1930704D01*
X1186180Y1932279D01*
X1191818Y1940306D01*
X1195933Y1949246D01*
X1198473Y1958695D01*
X1199337Y1968500D01*
X1198473Y1978304D01*
X1195933Y1987753D01*
X1191818Y1996693D01*
X1186180Y2004720D01*
X1179220Y2011680D01*
X1171194Y2017318D01*
X1162253Y2021433D01*
X1152804Y2023973D01*
X1143000Y2024837D01*
X1133195Y2023973D01*
X1123746Y2021433D01*
X1114806Y2017318D01*
X1106779Y2011680D01*
X1099820Y2004720D01*
X1094181Y1996693D01*
X1090066Y1987753D01*
X1087526Y1978304D01*
X1086662Y1968500D01*
X1087526Y1958695D01*
X1090066Y1949246D01*
X1094181Y1940306D01*
X1099820Y1932279D01*
X1101394Y1930704D01*
X1103630Y1927402D01*
X1104392Y1923491D01*
X1104392Y1432052D01*
X1103680Y1428343D01*
X1101648Y1425092D01*
X1098550Y1422857D01*
X1094892Y1421942D01*
X1091082Y1422400D01*
X1087780Y1424228D01*
X1084122Y1427226D01*
X1071829Y1435049D01*
X1058672Y1441246D01*
X1044803Y1445717D01*
X1030528Y1448460D01*
X1028700Y1448562D01*
X1028700Y1346200D01*
X1094232Y1346200D01*
X1098143Y1345438D01*
X1101394Y1343202D01*
X1103630Y1339900D01*
X1104392Y1336040D01*
X1104392Y1330960D01*
X1103630Y1327048D01*
X1101394Y1323746D01*
X1098143Y1321562D01*
X1094232Y1320800D01*
X1028700Y1320800D01*
X1028700Y1218387D01*
X1030528Y1218539D01*
X1044803Y1221232D01*
X1058672Y1225753D01*
X1071829Y1231950D01*
X1084122Y1239723D01*
X1087780Y1242720D01*
X1091082Y1244600D01*
X1094892Y1245057D01*
X1098550Y1244092D01*
X1101648Y1241856D01*
X1103680Y1238656D01*
X1104392Y1234897D01*
X1104392Y1207008D01*
X1105204Y1198981D01*
X1107389Y1191768D01*
X1110945Y1185062D01*
X1116076Y1178864D01*
X1160678Y1134211D01*
X1162862Y1130960D01*
X1163675Y1127150D01*
X1162964Y1123289D01*
X1159814Y1115314D01*
X1156157Y1101191D01*
X1154328Y1086764D01*
X1154328Y1072235D01*
X1156157Y1057757D01*
X1159814Y1043686D01*
X1165148Y1030173D01*
X1172159Y1017371D01*
X1180693Y1005636D01*
X1190650Y995019D01*
X1201877Y985723D01*
X1214170Y977950D01*
X1227328Y971753D01*
X1241196Y967232D01*
X1255471Y964539D01*
G37*
G36*
X3048000Y963625D02*
G01*
X3062528Y964539D01*
X3076803Y967232D01*
X3090672Y971753D01*
X3103829Y977950D01*
X3116122Y985723D01*
X3127349Y995019D01*
X3137306Y1005636D01*
X3145840Y1017371D01*
X3152851Y1030173D01*
X3158236Y1043686D01*
X3161842Y1057757D01*
X3163671Y1072235D01*
X3163671Y1086764D01*
X3161842Y1101191D01*
X3158236Y1115314D01*
X3152851Y1128826D01*
X3145840Y1141577D01*
X3137306Y1153363D01*
X3127349Y1163980D01*
X3116122Y1173226D01*
X3103829Y1181049D01*
X3090672Y1187246D01*
X3076803Y1191717D01*
X3062528Y1194460D01*
X3048000Y1195374D01*
X3033471Y1194460D01*
X3019196Y1191717D01*
X3005328Y1187246D01*
X3000654Y1185976D01*
X2996590Y1186688D01*
X2993186Y1188923D01*
X2962605Y1219504D01*
X2960370Y1222806D01*
X2959608Y1226718D01*
X2959608Y1234948D01*
X2960319Y1238656D01*
X2962351Y1241856D01*
X2965450Y1244092D01*
X2969107Y1245057D01*
X2972917Y1244600D01*
X2976219Y1242771D01*
X2979877Y1239723D01*
X2992170Y1231950D01*
X3005328Y1225753D01*
X3019196Y1221232D01*
X3033471Y1218539D01*
X3048000Y1217625D01*
X3062528Y1218539D01*
X3076803Y1221232D01*
X3090672Y1225753D01*
X3103829Y1231950D01*
X3116122Y1239723D01*
X3119780Y1242720D01*
X3123082Y1244600D01*
X3126892Y1245057D01*
X3130550Y1244092D01*
X3133648Y1241856D01*
X3135680Y1238656D01*
X3136392Y1234897D01*
X3136392Y1207008D01*
X3137204Y1198981D01*
X3139389Y1191768D01*
X3142945Y1185062D01*
X3148076Y1178864D01*
X3192678Y1134211D01*
X3194862Y1130960D01*
X3195675Y1127150D01*
X3194964Y1123289D01*
X3191814Y1115314D01*
X3188157Y1101191D01*
X3186328Y1086764D01*
X3186328Y1072235D01*
X3188157Y1057757D01*
X3191814Y1043686D01*
X3197148Y1030173D01*
X3204159Y1017371D01*
X3212693Y1005636D01*
X3222650Y995019D01*
X3233877Y985723D01*
X3246170Y977950D01*
X3259328Y971753D01*
X3273196Y967232D01*
X3287471Y964539D01*
X3302000Y963625D01*
X3316528Y964539D01*
X3330803Y967232D01*
X3344672Y971753D01*
X3357829Y977950D01*
X3370122Y985723D01*
X3381349Y995019D01*
X3391306Y1005636D01*
X3399840Y1017371D01*
X3406851Y1030173D01*
X3412236Y1043686D01*
X3415842Y1057757D01*
X3417671Y1072235D01*
X3417671Y1086764D01*
X3415842Y1101191D01*
X3412236Y1115314D01*
X3406851Y1128826D01*
X3399840Y1141577D01*
X3391306Y1153363D01*
X3381349Y1163980D01*
X3370122Y1173226D01*
X3357829Y1181049D01*
X3344672Y1187246D01*
X3330803Y1191717D01*
X3316528Y1194460D01*
X3302000Y1195374D01*
X3287471Y1194460D01*
X3273196Y1191717D01*
X3259328Y1187246D01*
X3254654Y1185976D01*
X3250590Y1186688D01*
X3247186Y1188923D01*
X3216605Y1219504D01*
X3214370Y1222806D01*
X3213608Y1226718D01*
X3213608Y1234948D01*
X3214319Y1238656D01*
X3216351Y1241856D01*
X3219450Y1244092D01*
X3223107Y1245057D01*
X3226917Y1244600D01*
X3230219Y1242771D01*
X3233877Y1239723D01*
X3246170Y1231950D01*
X3259328Y1225753D01*
X3273196Y1221232D01*
X3287471Y1218539D01*
X3302000Y1217625D01*
X3316528Y1218539D01*
X3330803Y1221232D01*
X3344672Y1225753D01*
X3357829Y1231950D01*
X3370122Y1239723D01*
X3381349Y1249019D01*
X3391306Y1259636D01*
X3399840Y1271371D01*
X3406851Y1284173D01*
X3412236Y1297686D01*
X3415842Y1311757D01*
X3417671Y1326235D01*
X3417671Y1340764D01*
X3415842Y1355191D01*
X3412236Y1369314D01*
X3406851Y1382826D01*
X3399840Y1395577D01*
X3391306Y1407363D01*
X3381349Y1417980D01*
X3370122Y1427226D01*
X3357829Y1435049D01*
X3346450Y1440383D01*
X3343351Y1442669D01*
X3341319Y1445869D01*
X3340608Y1449578D01*
X3340608Y2113991D01*
X3341370Y2117902D01*
X3343605Y2121204D01*
X3345179Y2122779D01*
X3350818Y2130806D01*
X3354933Y2139746D01*
X3357473Y2149195D01*
X3358337Y2159000D01*
X3357473Y2168804D01*
X3354933Y2178253D01*
X3350818Y2187194D01*
X3345179Y2195220D01*
X3338220Y2202180D01*
X3330194Y2207818D01*
X3321253Y2211933D01*
X3311804Y2214473D01*
X3302000Y2215337D01*
X3292195Y2214473D01*
X3282746Y2211933D01*
X3273806Y2207818D01*
X3265779Y2202180D01*
X3258820Y2195220D01*
X3253181Y2187194D01*
X3249066Y2178253D01*
X3246526Y2168804D01*
X3245662Y2159000D01*
X3246526Y2149195D01*
X3249066Y2139746D01*
X3253181Y2130806D01*
X3258820Y2122779D01*
X3260394Y2121204D01*
X3262629Y2117902D01*
X3263392Y2113991D01*
X3263392Y1449578D01*
X3262680Y1445869D01*
X3260648Y1442618D01*
X3257550Y1440383D01*
X3246170Y1435049D01*
X3233877Y1427226D01*
X3230219Y1424228D01*
X3226917Y1422400D01*
X3223107Y1421942D01*
X3219450Y1422857D01*
X3216351Y1425092D01*
X3214319Y1428343D01*
X3213608Y1432052D01*
X3213608Y1605991D01*
X3214370Y1609902D01*
X3216605Y1613204D01*
X3218180Y1614779D01*
X3223818Y1622806D01*
X3227933Y1631746D01*
X3230473Y1641195D01*
X3231337Y1651000D01*
X3230473Y1660804D01*
X3227933Y1670253D01*
X3223818Y1679193D01*
X3218180Y1687220D01*
X3211220Y1694180D01*
X3203194Y1699818D01*
X3194253Y1703933D01*
X3184804Y1706473D01*
X3175000Y1707337D01*
X3165195Y1706473D01*
X3155746Y1703933D01*
X3146806Y1699818D01*
X3138779Y1694180D01*
X3131820Y1687220D01*
X3126181Y1679193D01*
X3122066Y1670253D01*
X3119526Y1660804D01*
X3118662Y1651000D01*
X3119526Y1641195D01*
X3122066Y1631746D01*
X3126181Y1622806D01*
X3131820Y1614779D01*
X3133394Y1613204D01*
X3135630Y1609902D01*
X3136392Y1605991D01*
X3136392Y1432052D01*
X3135680Y1428343D01*
X3133648Y1425092D01*
X3130550Y1422857D01*
X3126892Y1421942D01*
X3123082Y1422400D01*
X3119780Y1424228D01*
X3116122Y1427226D01*
X3103829Y1435049D01*
X3092450Y1440383D01*
X3089351Y1442669D01*
X3087319Y1445869D01*
X3086608Y1449578D01*
X3086608Y1586992D01*
X3085795Y1595018D01*
X3083610Y1602232D01*
X3080054Y1608937D01*
X3074924Y1615135D01*
X3026105Y1664004D01*
X3023870Y1667306D01*
X3023108Y1671218D01*
X3023108Y2131314D01*
X3023819Y2135073D01*
X3025952Y2138324D01*
X3029051Y2140559D01*
X3032810Y2141423D01*
X3036620Y2140864D01*
X3051962Y2130806D01*
X3064408Y2124659D01*
X3077514Y2120239D01*
X3091078Y2117496D01*
X3104946Y2116632D01*
X3118764Y2117496D01*
X3132328Y2120239D01*
X3145434Y2124659D01*
X3157880Y2130806D01*
X3169361Y2138476D01*
X3179775Y2147620D01*
X3188919Y2158034D01*
X3196640Y2169566D01*
X3202736Y2181961D01*
X3207207Y2195118D01*
X3209899Y2208682D01*
X3210814Y2222500D01*
X3209899Y2236317D01*
X3207207Y2249881D01*
X3202736Y2263038D01*
X3196640Y2275433D01*
X3188919Y2286965D01*
X3179775Y2297379D01*
X3169361Y2306523D01*
X3157880Y2314194D01*
X3145434Y2320340D01*
X3132328Y2324760D01*
X3118764Y2327503D01*
X3104946Y2328367D01*
X3091078Y2327503D01*
X3077514Y2324760D01*
X3064408Y2320340D01*
X3051962Y2314194D01*
X3039973Y2306066D01*
X3036620Y2304135D01*
X3032810Y2303576D01*
X3029051Y2304440D01*
X3025952Y2306675D01*
X3023819Y2309926D01*
X3023108Y2313686D01*
X3023108Y3968191D01*
X3023870Y3972102D01*
X3026105Y3975404D01*
X3027680Y3976979D01*
X3033318Y3985006D01*
X3037433Y3993946D01*
X3039973Y4003395D01*
X3040837Y4013200D01*
X3039973Y4023004D01*
X3037433Y4032453D01*
X3033318Y4041394D01*
X3027680Y4049420D01*
X3020720Y4056379D01*
X3012694Y4062018D01*
X3003753Y4066133D01*
X2994304Y4068673D01*
X2984500Y4069537D01*
X2974695Y4068673D01*
X2965246Y4066133D01*
X2956306Y4062018D01*
X2948279Y4056379D01*
X2941320Y4049420D01*
X2935681Y4041394D01*
X2931566Y4032453D01*
X2929026Y4023004D01*
X2928162Y4013200D01*
X2929026Y4003395D01*
X2931566Y3993946D01*
X2935681Y3985006D01*
X2941320Y3976979D01*
X2942894Y3975404D01*
X2945130Y3972102D01*
X2945892Y3968191D01*
X2945892Y1652168D01*
X2945231Y1648561D01*
X2943301Y1645412D01*
X2940354Y1643125D01*
X2936798Y1642059D01*
X2933090Y1642364D01*
X2930804Y1642973D01*
X2921000Y1643837D01*
X2911195Y1642973D01*
X2901746Y1640433D01*
X2892806Y1636318D01*
X2884779Y1630680D01*
X2877820Y1623720D01*
X2872181Y1615694D01*
X2868066Y1606753D01*
X2865526Y1597304D01*
X2864662Y1587500D01*
X2865526Y1577695D01*
X2868066Y1568246D01*
X2872181Y1559306D01*
X2877820Y1551279D01*
X2879394Y1549704D01*
X2881630Y1546402D01*
X2882392Y1542491D01*
X2882392Y1432052D01*
X2881680Y1428343D01*
X2879648Y1425092D01*
X2876550Y1422857D01*
X2872892Y1421942D01*
X2869082Y1422400D01*
X2865780Y1424228D01*
X2862122Y1427226D01*
X2849829Y1435049D01*
X2836672Y1441246D01*
X2822803Y1445717D01*
X2808528Y1448460D01*
X2806700Y1448562D01*
X2806700Y1346200D01*
X2872232Y1346200D01*
X2876143Y1345438D01*
X2879394Y1343202D01*
X2881630Y1339900D01*
X2882392Y1336040D01*
X2882392Y1330960D01*
X2881630Y1327048D01*
X2879394Y1323746D01*
X2876143Y1321562D01*
X2872232Y1320800D01*
X2806700Y1320800D01*
X2806700Y1218387D01*
X2808528Y1218539D01*
X2822803Y1221232D01*
X2836672Y1225753D01*
X2849829Y1231950D01*
X2862122Y1239723D01*
X2865780Y1242720D01*
X2869082Y1244600D01*
X2872892Y1245057D01*
X2876550Y1244092D01*
X2879648Y1241856D01*
X2881680Y1238656D01*
X2882392Y1234897D01*
X2882392Y1207008D01*
X2883204Y1198981D01*
X2885389Y1191768D01*
X2888945Y1185062D01*
X2894076Y1178864D01*
X2938678Y1134211D01*
X2940862Y1130960D01*
X2941675Y1127150D01*
X2940964Y1123289D01*
X2937814Y1115314D01*
X2934157Y1101191D01*
X2932328Y1086764D01*
X2932328Y1072235D01*
X2934157Y1057757D01*
X2937814Y1043686D01*
X2943148Y1030173D01*
X2950159Y1017371D01*
X2958693Y1005636D01*
X2968650Y995019D01*
X2979877Y985723D01*
X2992170Y977950D01*
X3005328Y971753D01*
X3019196Y967232D01*
X3033471Y964539D01*
G37*
G36*
X3305556Y5477154D02*
G01*
X3319678Y5478526D01*
X3333546Y5481675D01*
X3346907Y5486603D01*
X3359505Y5493156D01*
X3371138Y5501284D01*
X3381654Y5510834D01*
X3390849Y5521655D01*
X3398621Y5533593D01*
X3404768Y5546394D01*
X3409238Y5559856D01*
X3411982Y5573826D01*
X3412896Y5588000D01*
X3411982Y5602173D01*
X3409238Y5616143D01*
X3404768Y5629605D01*
X3398621Y5642406D01*
X3390849Y5654344D01*
X3381654Y5665165D01*
X3371138Y5674715D01*
X3359505Y5682843D01*
X3346907Y5689396D01*
X3333546Y5694324D01*
X3319678Y5697474D01*
X3305556Y5698845D01*
X3291332Y5698388D01*
X3277311Y5696102D01*
X3263696Y5692038D01*
X3250692Y5686298D01*
X3238550Y5678932D01*
X3227425Y5670092D01*
X3217570Y5659882D01*
X3209086Y5648502D01*
X3202076Y5636107D01*
X3196742Y5622950D01*
X3193135Y5609183D01*
X3191357Y5595112D01*
X3191357Y5580888D01*
X3193135Y5566816D01*
X3196742Y5553049D01*
X3202076Y5539892D01*
X3209086Y5527497D01*
X3217570Y5516118D01*
X3227425Y5505907D01*
X3238550Y5497068D01*
X3250692Y5489702D01*
X3263696Y5483910D01*
X3277311Y5479897D01*
X3291332Y5477611D01*
G37*
G36*
X3810000Y963625D02*
G01*
X3824528Y964539D01*
X3838803Y967232D01*
X3852672Y971753D01*
X3865829Y977950D01*
X3878122Y985723D01*
X3889349Y995019D01*
X3899306Y1005636D01*
X3907840Y1017371D01*
X3914851Y1030173D01*
X3920236Y1043686D01*
X3923842Y1057757D01*
X3925671Y1072235D01*
X3925671Y1086764D01*
X3923842Y1101191D01*
X3920236Y1115314D01*
X3914851Y1128826D01*
X3907840Y1141577D01*
X3899306Y1153363D01*
X3889349Y1163980D01*
X3878122Y1173226D01*
X3865829Y1181049D01*
X3852672Y1187246D01*
X3838803Y1191717D01*
X3824528Y1194460D01*
X3810000Y1195374D01*
X3795471Y1194460D01*
X3781196Y1191717D01*
X3767328Y1187246D01*
X3762654Y1185976D01*
X3758590Y1186688D01*
X3755186Y1188923D01*
X3724605Y1219504D01*
X3722370Y1222806D01*
X3721608Y1226718D01*
X3721608Y1234948D01*
X3722319Y1238656D01*
X3724351Y1241856D01*
X3727450Y1244092D01*
X3731107Y1245057D01*
X3734917Y1244600D01*
X3738219Y1242771D01*
X3741877Y1239723D01*
X3754170Y1231950D01*
X3767328Y1225753D01*
X3781196Y1221232D01*
X3795471Y1218539D01*
X3810000Y1217625D01*
X3824528Y1218539D01*
X3838803Y1221232D01*
X3852672Y1225753D01*
X3865829Y1231950D01*
X3878122Y1239723D01*
X3881780Y1242720D01*
X3885082Y1244600D01*
X3888892Y1245057D01*
X3892550Y1244092D01*
X3895648Y1241856D01*
X3897680Y1238656D01*
X3898392Y1234897D01*
X3898392Y1207008D01*
X3899204Y1198981D01*
X3901389Y1191768D01*
X3904945Y1185062D01*
X3910076Y1178864D01*
X3954678Y1134211D01*
X3956862Y1130960D01*
X3957675Y1127150D01*
X3956964Y1123289D01*
X3953814Y1115314D01*
X3950157Y1101191D01*
X3948328Y1086764D01*
X3948328Y1072235D01*
X3950157Y1057757D01*
X3953814Y1043686D01*
X3959148Y1030173D01*
X3966159Y1017371D01*
X3974693Y1005636D01*
X3984650Y995019D01*
X3995877Y985723D01*
X4008170Y977950D01*
X4021328Y971753D01*
X4035196Y967232D01*
X4049471Y964539D01*
X4064000Y963625D01*
X4078528Y964539D01*
X4092803Y967232D01*
X4106672Y971753D01*
X4119829Y977950D01*
X4132122Y985723D01*
X4143349Y995019D01*
X4153306Y1005636D01*
X4161840Y1017371D01*
X4168851Y1030173D01*
X4174236Y1043686D01*
X4177842Y1057757D01*
X4179671Y1072235D01*
X4179671Y1086764D01*
X4177842Y1101191D01*
X4174236Y1115314D01*
X4168851Y1128826D01*
X4161840Y1141577D01*
X4153306Y1153363D01*
X4143349Y1163980D01*
X4132122Y1173226D01*
X4119829Y1181049D01*
X4106672Y1187246D01*
X4092803Y1191717D01*
X4078528Y1194460D01*
X4064000Y1195374D01*
X4049471Y1194460D01*
X4035196Y1191717D01*
X4021328Y1187246D01*
X4016654Y1185976D01*
X4012590Y1186688D01*
X4009186Y1188923D01*
X3978605Y1219504D01*
X3976370Y1222806D01*
X3975608Y1226718D01*
X3975608Y1234948D01*
X3976319Y1238656D01*
X3978351Y1241856D01*
X3981450Y1244092D01*
X3985107Y1245057D01*
X3988917Y1244600D01*
X3992219Y1242771D01*
X3995877Y1239723D01*
X4008170Y1231950D01*
X4021328Y1225753D01*
X4035196Y1221232D01*
X4049471Y1218539D01*
X4051300Y1218387D01*
X4051300Y1320800D01*
X3985768Y1320800D01*
X3981856Y1321562D01*
X3978605Y1323746D01*
X3976370Y1327048D01*
X3975608Y1330960D01*
X3975608Y1336040D01*
X3976370Y1339900D01*
X3978605Y1343202D01*
X3981856Y1345438D01*
X3985768Y1346200D01*
X4051300Y1346200D01*
X4051300Y1448562D01*
X4049471Y1448460D01*
X4035196Y1445717D01*
X4021328Y1441246D01*
X4008170Y1435049D01*
X3995877Y1427226D01*
X3992219Y1424228D01*
X3988917Y1422400D01*
X3985107Y1421942D01*
X3981450Y1422857D01*
X3978351Y1425092D01*
X3976319Y1428343D01*
X3975608Y1432052D01*
X3975608Y1471168D01*
X3976573Y1475486D01*
X3979214Y1478940D01*
X3983126Y1480972D01*
X3987546Y1481175D01*
X3991610Y1479499D01*
X3997706Y1475181D01*
X4006646Y1471066D01*
X4016095Y1468526D01*
X4025900Y1467662D01*
X4035704Y1468526D01*
X4045153Y1471066D01*
X4054094Y1475181D01*
X4062120Y1480820D01*
X4069079Y1487779D01*
X4074718Y1495806D01*
X4078833Y1504746D01*
X4081373Y1514195D01*
X4082237Y1524000D01*
X4081373Y1533804D01*
X4078833Y1543253D01*
X4074718Y1552194D01*
X4069079Y1560220D01*
X4067505Y1561795D01*
X4065270Y1565097D01*
X4064508Y1569008D01*
X4064508Y1852168D01*
X4065473Y1856486D01*
X4068114Y1859940D01*
X4072026Y1861972D01*
X4076446Y1862175D01*
X4080510Y1860499D01*
X4086606Y1856181D01*
X4095546Y1852066D01*
X4104995Y1849526D01*
X4114800Y1848662D01*
X4124604Y1849526D01*
X4134053Y1852066D01*
X4137914Y1853844D01*
X4141876Y1854809D01*
X4145889Y1854149D01*
X4149293Y1851964D01*
X4151579Y1848612D01*
X4152392Y1844649D01*
X4152392Y1432052D01*
X4151680Y1428343D01*
X4149648Y1425092D01*
X4146550Y1422857D01*
X4142892Y1421942D01*
X4139082Y1422400D01*
X4135780Y1424228D01*
X4132122Y1427226D01*
X4119829Y1435049D01*
X4106672Y1441246D01*
X4092803Y1445717D01*
X4078528Y1448460D01*
X4076700Y1448562D01*
X4076700Y1346200D01*
X4142232Y1346200D01*
X4146143Y1345438D01*
X4149394Y1343202D01*
X4151629Y1339900D01*
X4152392Y1336040D01*
X4152392Y1330960D01*
X4151629Y1327048D01*
X4149394Y1323746D01*
X4146143Y1321562D01*
X4142232Y1320800D01*
X4076700Y1320800D01*
X4076700Y1218387D01*
X4078528Y1218539D01*
X4092803Y1221232D01*
X4106672Y1225753D01*
X4119829Y1231950D01*
X4132122Y1239723D01*
X4135780Y1242720D01*
X4139082Y1244600D01*
X4142892Y1245057D01*
X4146550Y1244092D01*
X4149648Y1241856D01*
X4151680Y1238656D01*
X4152392Y1234897D01*
X4152392Y1207008D01*
X4153204Y1198981D01*
X4155389Y1191768D01*
X4158945Y1185062D01*
X4164076Y1178864D01*
X4208678Y1134211D01*
X4210862Y1130960D01*
X4211675Y1127150D01*
X4210964Y1123289D01*
X4207814Y1115314D01*
X4204157Y1101191D01*
X4202328Y1086764D01*
X4202328Y1072235D01*
X4204157Y1057757D01*
X4207814Y1043686D01*
X4213148Y1030173D01*
X4220159Y1017371D01*
X4228693Y1005636D01*
X4238650Y995019D01*
X4249877Y985723D01*
X4262170Y977950D01*
X4275328Y971753D01*
X4289196Y967232D01*
X4303471Y964539D01*
X4318000Y963625D01*
X4332528Y964539D01*
X4346803Y967232D01*
X4360672Y971753D01*
X4373829Y977950D01*
X4386122Y985723D01*
X4397349Y995019D01*
X4407306Y1005636D01*
X4415840Y1017371D01*
X4422851Y1030173D01*
X4428236Y1043686D01*
X4431842Y1057757D01*
X4433671Y1072235D01*
X4433671Y1086764D01*
X4431842Y1101191D01*
X4428236Y1115314D01*
X4422851Y1128826D01*
X4415840Y1141577D01*
X4407306Y1153363D01*
X4397349Y1163980D01*
X4386122Y1173226D01*
X4373829Y1181049D01*
X4360672Y1187246D01*
X4346803Y1191717D01*
X4332528Y1194460D01*
X4318000Y1195374D01*
X4303471Y1194460D01*
X4289196Y1191717D01*
X4275328Y1187246D01*
X4270654Y1185976D01*
X4266590Y1186688D01*
X4263186Y1188923D01*
X4232605Y1219504D01*
X4230370Y1222806D01*
X4229608Y1226718D01*
X4229608Y1234948D01*
X4230319Y1238656D01*
X4232351Y1241856D01*
X4235450Y1244092D01*
X4239107Y1245057D01*
X4242917Y1244600D01*
X4246219Y1242771D01*
X4249877Y1239723D01*
X4262170Y1231950D01*
X4275328Y1225753D01*
X4289196Y1221232D01*
X4303471Y1218539D01*
X4318000Y1217625D01*
X4332528Y1218539D01*
X4346803Y1221232D01*
X4360672Y1225753D01*
X4373829Y1231950D01*
X4386122Y1239723D01*
X4389780Y1242720D01*
X4393082Y1244600D01*
X4396892Y1245057D01*
X4400550Y1244092D01*
X4403648Y1241856D01*
X4405680Y1238656D01*
X4406392Y1234897D01*
X4406392Y1207008D01*
X4407204Y1198981D01*
X4409389Y1191768D01*
X4412945Y1185062D01*
X4418076Y1178864D01*
X4462678Y1134211D01*
X4464862Y1130960D01*
X4465675Y1127150D01*
X4464964Y1123289D01*
X4461814Y1115314D01*
X4458157Y1101191D01*
X4456328Y1086764D01*
X4456328Y1072235D01*
X4458157Y1057757D01*
X4461814Y1043686D01*
X4467148Y1030173D01*
X4474159Y1017371D01*
X4482693Y1005636D01*
X4492650Y995019D01*
X4503877Y985723D01*
X4516170Y977950D01*
X4529328Y971753D01*
X4543196Y967232D01*
X4557471Y964539D01*
X4572000Y963625D01*
X4586528Y964539D01*
X4600803Y967232D01*
X4614672Y971753D01*
X4627829Y977950D01*
X4640122Y985723D01*
X4651349Y995019D01*
X4661306Y1005636D01*
X4669840Y1017371D01*
X4676851Y1030173D01*
X4682236Y1043686D01*
X4685842Y1057757D01*
X4687671Y1072235D01*
X4687671Y1086764D01*
X4685842Y1101191D01*
X4682236Y1115314D01*
X4676851Y1128826D01*
X4669840Y1141577D01*
X4661306Y1153363D01*
X4651349Y1163980D01*
X4640122Y1173226D01*
X4627829Y1181049D01*
X4614672Y1187246D01*
X4600803Y1191717D01*
X4586528Y1194460D01*
X4572000Y1195374D01*
X4557471Y1194460D01*
X4543196Y1191717D01*
X4529328Y1187246D01*
X4524654Y1185976D01*
X4520590Y1186688D01*
X4517186Y1188923D01*
X4486605Y1219504D01*
X4484370Y1222806D01*
X4483608Y1226718D01*
X4483608Y1234948D01*
X4484319Y1238656D01*
X4486351Y1241856D01*
X4489450Y1244092D01*
X4493107Y1245057D01*
X4496917Y1244600D01*
X4500219Y1242771D01*
X4503877Y1239723D01*
X4516170Y1231950D01*
X4529328Y1225753D01*
X4543196Y1221232D01*
X4557471Y1218539D01*
X4559300Y1218387D01*
X4559300Y1320800D01*
X4493768Y1320800D01*
X4489856Y1321562D01*
X4486605Y1323746D01*
X4484370Y1327048D01*
X4483608Y1330960D01*
X4483608Y1336040D01*
X4484370Y1339900D01*
X4486605Y1343202D01*
X4489856Y1345438D01*
X4493768Y1346200D01*
X4559300Y1346200D01*
X4559300Y1448562D01*
X4557471Y1448460D01*
X4543196Y1445717D01*
X4529328Y1441246D01*
X4516170Y1435049D01*
X4503877Y1427226D01*
X4500219Y1424228D01*
X4496917Y1422400D01*
X4493107Y1421942D01*
X4489450Y1422857D01*
X4486351Y1425092D01*
X4484319Y1428343D01*
X4483608Y1432052D01*
X4483608Y1713331D01*
X4484268Y1716938D01*
X4486198Y1720088D01*
X4489145Y1722374D01*
X4492701Y1723440D01*
X4496409Y1723136D01*
X4498695Y1722526D01*
X4508500Y1721662D01*
X4518304Y1722526D01*
X4527753Y1725066D01*
X4536694Y1729181D01*
X4544720Y1734820D01*
X4551680Y1741779D01*
X4557318Y1749806D01*
X4561433Y1758746D01*
X4563973Y1768195D01*
X4564837Y1778000D01*
X4563973Y1787804D01*
X4561433Y1797253D01*
X4557318Y1806193D01*
X4551680Y1814220D01*
X4550105Y1815795D01*
X4547870Y1819097D01*
X4547108Y1823008D01*
X4547108Y2210917D01*
X4547971Y2214981D01*
X4550359Y2218385D01*
X4553915Y2220518D01*
X4558030Y2221077D01*
X4561992Y2219909D01*
X4565192Y2217267D01*
X4567072Y2213559D01*
X4569866Y2203246D01*
X4573981Y2194306D01*
X4579620Y2186279D01*
X4586579Y2179320D01*
X4594606Y2173681D01*
X4603546Y2169566D01*
X4612995Y2167026D01*
X4622800Y2166162D01*
X4632604Y2167026D01*
X4642053Y2169566D01*
X4650994Y2173681D01*
X4659020Y2179320D01*
X4665980Y2186279D01*
X4668926Y2188972D01*
X4672685Y2190343D01*
X4676698Y2190140D01*
X4680254Y2188413D01*
X4682947Y2185416D01*
X4684217Y2181656D01*
X4683963Y2177643D01*
X4681626Y2168804D01*
X4680762Y2159000D01*
X4681626Y2149195D01*
X4684166Y2139746D01*
X4688281Y2130806D01*
X4693920Y2122779D01*
X4700879Y2115820D01*
X4708906Y2110181D01*
X4717846Y2106066D01*
X4727295Y2103526D01*
X4737100Y2102662D01*
X4746904Y2103526D01*
X4756353Y2106066D01*
X4765294Y2110181D01*
X4773320Y2115820D01*
X4780280Y2122779D01*
X4785918Y2130806D01*
X4790033Y2139746D01*
X4792573Y2149195D01*
X4793437Y2159000D01*
X4792573Y2168804D01*
X4790033Y2178253D01*
X4785918Y2187194D01*
X4780280Y2195220D01*
X4778705Y2196795D01*
X4776470Y2200097D01*
X4775708Y2204008D01*
X4775708Y2322474D01*
X4776520Y2326487D01*
X4778806Y2329789D01*
X4782210Y2331974D01*
X4797044Y2337663D01*
X4810150Y2344724D01*
X4822139Y2353208D01*
X4826203Y2354935D01*
X4830622Y2354732D01*
X4834534Y2352700D01*
X4837226Y2349195D01*
X4838192Y2344928D01*
X4838192Y2331008D01*
X4837430Y2327097D01*
X4835194Y2323795D01*
X4833620Y2322220D01*
X4827981Y2314194D01*
X4823866Y2305253D01*
X4821326Y2295804D01*
X4820462Y2286000D01*
X4821326Y2276195D01*
X4823866Y2266746D01*
X4827981Y2257806D01*
X4833620Y2249779D01*
X4840579Y2242820D01*
X4848606Y2237181D01*
X4857546Y2233066D01*
X4866995Y2230526D01*
X4876800Y2229662D01*
X4886604Y2230526D01*
X4896053Y2233066D01*
X4904994Y2237181D01*
X4913020Y2242820D01*
X4919980Y2249779D01*
X4925618Y2257806D01*
X4929733Y2266746D01*
X4932273Y2276195D01*
X4933137Y2286000D01*
X4932273Y2295804D01*
X4929733Y2305253D01*
X4925618Y2314194D01*
X4919980Y2322220D01*
X4918405Y2323795D01*
X4916170Y2327097D01*
X4915408Y2331008D01*
X4915408Y2340254D01*
X4916373Y2344572D01*
X4919065Y2348077D01*
X4922977Y2350109D01*
X4927396Y2350262D01*
X4931460Y2348585D01*
X4936896Y2344724D01*
X4950002Y2337663D01*
X4955438Y2335580D01*
X4958842Y2333396D01*
X4961128Y2330043D01*
X4961940Y2326081D01*
X4961940Y2077008D01*
X4961128Y2073097D01*
X4958943Y2069795D01*
X4957368Y2068220D01*
X4951730Y2060193D01*
X4947564Y2051253D01*
X4945024Y2041804D01*
X4944110Y2031136D01*
X4942941Y2027224D01*
X4940300Y2024075D01*
X4936591Y2022246D01*
X4933746Y2021433D01*
X4924806Y2017318D01*
X4916779Y2011680D01*
X4909820Y2004720D01*
X4904181Y1996693D01*
X4900066Y1987753D01*
X4897526Y1978304D01*
X4896662Y1968500D01*
X4897526Y1958695D01*
X4900066Y1949246D01*
X4904181Y1940306D01*
X4909820Y1932279D01*
X4911394Y1930704D01*
X4913630Y1927402D01*
X4914392Y1923491D01*
X4914392Y1432052D01*
X4913680Y1428343D01*
X4911648Y1425092D01*
X4908550Y1422857D01*
X4904892Y1421942D01*
X4901082Y1422400D01*
X4897780Y1424228D01*
X4894122Y1427226D01*
X4881829Y1435049D01*
X4870450Y1440383D01*
X4867351Y1442669D01*
X4865319Y1445869D01*
X4864608Y1449578D01*
X4864608Y1859991D01*
X4865370Y1863902D01*
X4867605Y1867204D01*
X4869180Y1868779D01*
X4874818Y1876806D01*
X4878933Y1885746D01*
X4881473Y1895195D01*
X4882337Y1905000D01*
X4881473Y1914804D01*
X4878933Y1924253D01*
X4874818Y1933193D01*
X4869180Y1941220D01*
X4862220Y1948180D01*
X4854194Y1953818D01*
X4845253Y1957933D01*
X4835804Y1960473D01*
X4826000Y1961337D01*
X4816195Y1960473D01*
X4806746Y1957933D01*
X4797806Y1953818D01*
X4789779Y1948180D01*
X4782820Y1941220D01*
X4777181Y1933193D01*
X4773066Y1924253D01*
X4770526Y1914804D01*
X4769662Y1905000D01*
X4770526Y1895195D01*
X4773066Y1885746D01*
X4777181Y1876806D01*
X4782820Y1868779D01*
X4784394Y1867204D01*
X4786630Y1863902D01*
X4787392Y1859991D01*
X4787392Y1449578D01*
X4786680Y1445869D01*
X4784648Y1442618D01*
X4781550Y1440383D01*
X4770170Y1435049D01*
X4757877Y1427226D01*
X4754219Y1424228D01*
X4750917Y1422400D01*
X4747107Y1421942D01*
X4743450Y1422857D01*
X4740351Y1425092D01*
X4738319Y1428343D01*
X4737608Y1432052D01*
X4737608Y1796491D01*
X4738370Y1800402D01*
X4740605Y1803704D01*
X4742180Y1805279D01*
X4747818Y1813306D01*
X4751933Y1822246D01*
X4754473Y1831695D01*
X4755337Y1841500D01*
X4754473Y1851304D01*
X4751933Y1860753D01*
X4747818Y1869693D01*
X4742180Y1877720D01*
X4735220Y1884680D01*
X4727194Y1890318D01*
X4718253Y1894433D01*
X4708804Y1896973D01*
X4699000Y1897837D01*
X4689195Y1896973D01*
X4679746Y1894433D01*
X4670806Y1890318D01*
X4662779Y1884680D01*
X4655820Y1877720D01*
X4650181Y1869693D01*
X4646066Y1860753D01*
X4643526Y1851304D01*
X4642662Y1841500D01*
X4643526Y1831695D01*
X4646066Y1822246D01*
X4650181Y1813306D01*
X4655820Y1805279D01*
X4657394Y1803704D01*
X4659630Y1800402D01*
X4660392Y1796491D01*
X4660392Y1432052D01*
X4659680Y1428343D01*
X4657648Y1425092D01*
X4654550Y1422857D01*
X4650892Y1421942D01*
X4647082Y1422400D01*
X4643780Y1424228D01*
X4640122Y1427226D01*
X4627829Y1435049D01*
X4614672Y1441246D01*
X4600803Y1445717D01*
X4586528Y1448460D01*
X4584700Y1448562D01*
X4584700Y1346200D01*
X4650232Y1346200D01*
X4654143Y1345438D01*
X4657394Y1343202D01*
X4659630Y1339900D01*
X4660392Y1336040D01*
X4660392Y1330960D01*
X4659630Y1327048D01*
X4657394Y1323746D01*
X4654143Y1321562D01*
X4650232Y1320800D01*
X4584700Y1320800D01*
X4584700Y1218387D01*
X4586528Y1218539D01*
X4600803Y1221232D01*
X4614672Y1225753D01*
X4627829Y1231950D01*
X4640122Y1239723D01*
X4643780Y1242720D01*
X4647082Y1244600D01*
X4650892Y1245057D01*
X4654550Y1244092D01*
X4657648Y1241856D01*
X4659680Y1238656D01*
X4660392Y1234897D01*
X4660392Y1207008D01*
X4661204Y1198981D01*
X4663389Y1191768D01*
X4666945Y1185062D01*
X4672076Y1178864D01*
X4716678Y1134211D01*
X4718862Y1130960D01*
X4719675Y1127150D01*
X4718964Y1123289D01*
X4715814Y1115314D01*
X4712157Y1101191D01*
X4710328Y1086764D01*
X4710328Y1072235D01*
X4712157Y1057757D01*
X4715814Y1043686D01*
X4721148Y1030173D01*
X4728159Y1017371D01*
X4736693Y1005636D01*
X4746650Y995019D01*
X4757877Y985723D01*
X4770170Y977950D01*
X4783328Y971753D01*
X4797196Y967232D01*
X4811471Y964539D01*
X4826000Y963625D01*
X4840528Y964539D01*
X4854803Y967232D01*
X4868672Y971753D01*
X4881829Y977950D01*
X4894122Y985723D01*
X4905349Y995019D01*
X4915306Y1005636D01*
X4923840Y1017371D01*
X4930851Y1030173D01*
X4936236Y1043686D01*
X4939842Y1057757D01*
X4941671Y1072235D01*
X4941671Y1086764D01*
X4939842Y1101191D01*
X4936236Y1115314D01*
X4930851Y1128826D01*
X4923840Y1141577D01*
X4915306Y1153363D01*
X4905349Y1163980D01*
X4894122Y1173226D01*
X4881829Y1181049D01*
X4868672Y1187246D01*
X4854803Y1191717D01*
X4840528Y1194460D01*
X4826000Y1195374D01*
X4811471Y1194460D01*
X4797196Y1191717D01*
X4783328Y1187246D01*
X4778654Y1185976D01*
X4774590Y1186688D01*
X4771186Y1188923D01*
X4740605Y1219504D01*
X4738370Y1222806D01*
X4737608Y1226718D01*
X4737608Y1234948D01*
X4738319Y1238656D01*
X4740351Y1241856D01*
X4743450Y1244092D01*
X4747107Y1245057D01*
X4750917Y1244600D01*
X4754219Y1242771D01*
X4757877Y1239723D01*
X4770170Y1231950D01*
X4783328Y1225753D01*
X4797196Y1221232D01*
X4811471Y1218539D01*
X4826000Y1217625D01*
X4840528Y1218539D01*
X4854803Y1221232D01*
X4868672Y1225753D01*
X4881829Y1231950D01*
X4894122Y1239723D01*
X4897780Y1242720D01*
X4901082Y1244600D01*
X4904892Y1245057D01*
X4908550Y1244092D01*
X4911648Y1241856D01*
X4913680Y1238656D01*
X4914392Y1234897D01*
X4914392Y1207008D01*
X4915204Y1198981D01*
X4917389Y1191768D01*
X4920945Y1185062D01*
X4926076Y1178864D01*
X4970678Y1134211D01*
X4972862Y1130960D01*
X4973675Y1127150D01*
X4972964Y1123289D01*
X4969814Y1115314D01*
X4966157Y1101191D01*
X4964328Y1086764D01*
X4964328Y1072235D01*
X4966157Y1057757D01*
X4969814Y1043686D01*
X4975148Y1030173D01*
X4982159Y1017371D01*
X4990693Y1005636D01*
X5000650Y995019D01*
X5011877Y985723D01*
X5024170Y977950D01*
X5037328Y971753D01*
X5051196Y967232D01*
X5065471Y964539D01*
X5080000Y963625D01*
X5094528Y964539D01*
X5108803Y967232D01*
X5122672Y971753D01*
X5135829Y977950D01*
X5148122Y985723D01*
X5159349Y995019D01*
X5169306Y1005636D01*
X5177840Y1017371D01*
X5184851Y1030173D01*
X5190236Y1043686D01*
X5193842Y1057757D01*
X5195671Y1072235D01*
X5195671Y1086764D01*
X5193842Y1101191D01*
X5190236Y1115314D01*
X5184851Y1128826D01*
X5177840Y1141577D01*
X5169306Y1153363D01*
X5159349Y1163980D01*
X5148122Y1173226D01*
X5135829Y1181049D01*
X5122672Y1187246D01*
X5108803Y1191717D01*
X5094528Y1194460D01*
X5080000Y1195374D01*
X5065471Y1194460D01*
X5051196Y1191717D01*
X5037328Y1187246D01*
X5032654Y1185976D01*
X5028590Y1186688D01*
X5025186Y1188923D01*
X4994605Y1219504D01*
X4992370Y1222806D01*
X4991608Y1226718D01*
X4991608Y1234948D01*
X4992319Y1238656D01*
X4994351Y1241856D01*
X4997450Y1244092D01*
X5001107Y1245057D01*
X5004917Y1244600D01*
X5008219Y1242771D01*
X5011877Y1239723D01*
X5024170Y1231950D01*
X5037328Y1225753D01*
X5051196Y1221232D01*
X5065471Y1218539D01*
X5080000Y1217625D01*
X5094528Y1218539D01*
X5108803Y1221232D01*
X5122672Y1225753D01*
X5135829Y1231950D01*
X5148122Y1239723D01*
X5159349Y1249019D01*
X5169306Y1259636D01*
X5177840Y1271371D01*
X5184851Y1284173D01*
X5190236Y1297686D01*
X5193842Y1311757D01*
X5195671Y1326235D01*
X5195671Y1340764D01*
X5193842Y1355191D01*
X5190236Y1369314D01*
X5184851Y1382826D01*
X5177840Y1395577D01*
X5169306Y1407363D01*
X5159349Y1417980D01*
X5148122Y1427226D01*
X5135829Y1435049D01*
X5124450Y1440383D01*
X5121351Y1442669D01*
X5119319Y1445869D01*
X5118608Y1449578D01*
X5118608Y2177491D01*
X5119370Y2181402D01*
X5121605Y2184704D01*
X5123180Y2186279D01*
X5128818Y2194306D01*
X5132933Y2203246D01*
X5135473Y2212695D01*
X5136337Y2222500D01*
X5135473Y2232304D01*
X5132933Y2241753D01*
X5128818Y2250694D01*
X5123180Y2258720D01*
X5116220Y2265680D01*
X5108194Y2271318D01*
X5099253Y2275433D01*
X5089804Y2277973D01*
X5080000Y2278837D01*
X5070195Y2277973D01*
X5060746Y2275433D01*
X5053584Y2272131D01*
X5049621Y2271166D01*
X5045659Y2271826D01*
X5042255Y2274011D01*
X5039918Y2277364D01*
X5039156Y2281326D01*
X5039156Y2326081D01*
X5039918Y2330043D01*
X5042204Y2333396D01*
X5045608Y2335580D01*
X5051044Y2337663D01*
X5064150Y2344724D01*
X5076291Y2353310D01*
X5087315Y2363317D01*
X5097018Y2374646D01*
X5105196Y2387041D01*
X5111851Y2400350D01*
X5116779Y2414422D01*
X5117592Y2418080D01*
X5119166Y2421636D01*
X5121960Y2424379D01*
X5125567Y2425852D01*
X5129479Y2425852D01*
X5133086Y2424379D01*
X5135880Y2421636D01*
X5137454Y2418080D01*
X5138267Y2414422D01*
X5143195Y2400350D01*
X5149850Y2387041D01*
X5158028Y2374646D01*
X5167731Y2363317D01*
X5178755Y2353310D01*
X5190896Y2344724D01*
X5204002Y2337663D01*
X5209438Y2335580D01*
X5212842Y2333396D01*
X5215128Y2330043D01*
X5215940Y2326081D01*
X5215940Y2140508D01*
X5215128Y2136597D01*
X5212943Y2133295D01*
X5211368Y2131720D01*
X5205730Y2123694D01*
X5201564Y2114753D01*
X5199024Y2105304D01*
X5198160Y2095500D01*
X5199024Y2085695D01*
X5201564Y2076246D01*
X5205730Y2067306D01*
X5211368Y2059279D01*
X5218328Y2052320D01*
X5226354Y2046681D01*
X5235244Y2042566D01*
X5244744Y2040026D01*
X5254548Y2039162D01*
X5264302Y2040026D01*
X5273802Y2042566D01*
X5280914Y2045868D01*
X5284876Y2046833D01*
X5288889Y2046173D01*
X5292293Y2043988D01*
X5294579Y2040636D01*
X5295392Y2036673D01*
X5295392Y1449578D01*
X5294680Y1445869D01*
X5292648Y1442618D01*
X5289550Y1440383D01*
X5278170Y1435049D01*
X5265877Y1427226D01*
X5254650Y1417980D01*
X5244693Y1407363D01*
X5236159Y1395577D01*
X5229148Y1382826D01*
X5223814Y1369314D01*
X5220157Y1355191D01*
X5218328Y1340764D01*
X5218328Y1326235D01*
X5220157Y1311757D01*
X5223814Y1297686D01*
X5229148Y1284173D01*
X5236159Y1271371D01*
X5244693Y1259636D01*
X5254650Y1249019D01*
X5265877Y1239723D01*
X5278170Y1231950D01*
X5291328Y1225753D01*
X5305196Y1221232D01*
X5319471Y1218539D01*
X5334000Y1217625D01*
X5348528Y1218539D01*
X5362803Y1221232D01*
X5376672Y1225753D01*
X5389829Y1231950D01*
X5402122Y1239723D01*
X5413349Y1249019D01*
X5423306Y1259636D01*
X5431840Y1271371D01*
X5438851Y1284173D01*
X5444236Y1297686D01*
X5447842Y1311757D01*
X5449671Y1326235D01*
X5449671Y1340764D01*
X5447842Y1355191D01*
X5444236Y1369314D01*
X5438851Y1382826D01*
X5431840Y1395577D01*
X5423306Y1407363D01*
X5413349Y1417980D01*
X5402122Y1427226D01*
X5389829Y1435049D01*
X5378450Y1440383D01*
X5375351Y1442669D01*
X5373319Y1445869D01*
X5372608Y1449578D01*
X5372608Y2240991D01*
X5373370Y2244902D01*
X5375605Y2248204D01*
X5377180Y2249779D01*
X5382818Y2257806D01*
X5386933Y2266746D01*
X5389473Y2276195D01*
X5390337Y2286000D01*
X5389473Y2295804D01*
X5386933Y2305253D01*
X5382818Y2314194D01*
X5377180Y2322220D01*
X5370220Y2329180D01*
X5362194Y2334818D01*
X5353253Y2338933D01*
X5338978Y2342642D01*
X5335930Y2345080D01*
X5334000Y2348433D01*
X5333492Y2352294D01*
X5334457Y2356104D01*
X5336794Y2359202D01*
X5341315Y2363317D01*
X5351018Y2374646D01*
X5359196Y2387041D01*
X5365851Y2400350D01*
X5370779Y2414422D01*
X5373979Y2428951D01*
X5375351Y2443784D01*
X5374894Y2458669D01*
X5372608Y2473350D01*
X5368544Y2487676D01*
X5365445Y2494991D01*
X5364632Y2498902D01*
X5365394Y2502814D01*
X5367629Y2506116D01*
X5614974Y2753664D01*
X5620054Y2759862D01*
X5623610Y2766568D01*
X5625795Y2773781D01*
X5626608Y2781808D01*
X5626608Y3809492D01*
X5625795Y3817518D01*
X5623610Y3824732D01*
X5620054Y3831437D01*
X5614924Y3837635D01*
X5570321Y3882288D01*
X5568137Y3885539D01*
X5567324Y3889349D01*
X5568035Y3893210D01*
X5571236Y3901186D01*
X5574842Y3915308D01*
X5576671Y3929735D01*
X5576671Y3944264D01*
X5574842Y3958691D01*
X5571236Y3972814D01*
X5565851Y3986326D01*
X5558840Y3999077D01*
X5550306Y4010863D01*
X5540349Y4021480D01*
X5529122Y4030776D01*
X5516829Y4038549D01*
X5503672Y4044746D01*
X5489803Y4049268D01*
X5475528Y4051960D01*
X5461000Y4052874D01*
X5446471Y4051960D01*
X5432196Y4049268D01*
X5418328Y4044746D01*
X5405170Y4038549D01*
X5392877Y4030776D01*
X5381650Y4021480D01*
X5371693Y4010863D01*
X5363159Y3999077D01*
X5356148Y3986326D01*
X5350764Y3972814D01*
X5347157Y3958691D01*
X5345328Y3944264D01*
X5345328Y3929735D01*
X5347157Y3915308D01*
X5350764Y3901186D01*
X5356148Y3887673D01*
X5363159Y3874922D01*
X5371693Y3863136D01*
X5381650Y3852519D01*
X5392877Y3843223D01*
X5405170Y3835450D01*
X5418328Y3829253D01*
X5432196Y3824732D01*
X5446471Y3822039D01*
X5461000Y3821125D01*
X5475528Y3822039D01*
X5489803Y3824732D01*
X5503672Y3829253D01*
X5508345Y3830523D01*
X5512409Y3829812D01*
X5515864Y3827576D01*
X5546394Y3796995D01*
X5548630Y3793693D01*
X5549392Y3789781D01*
X5549392Y3781551D01*
X5548680Y3777843D01*
X5546648Y3774643D01*
X5543550Y3772357D01*
X5539892Y3771442D01*
X5536082Y3771900D01*
X5532780Y3773728D01*
X5529122Y3776776D01*
X5516829Y3784549D01*
X5503672Y3790746D01*
X5489803Y3795268D01*
X5475528Y3797960D01*
X5461000Y3798874D01*
X5446471Y3797960D01*
X5432196Y3795268D01*
X5418328Y3790746D01*
X5405170Y3784549D01*
X5392877Y3776776D01*
X5381650Y3767480D01*
X5371693Y3756863D01*
X5363159Y3745077D01*
X5356148Y3732326D01*
X5350764Y3718814D01*
X5347157Y3704691D01*
X5345328Y3690264D01*
X5345328Y3675735D01*
X5347157Y3661308D01*
X5350764Y3647186D01*
X5353964Y3639210D01*
X5354675Y3635349D01*
X5353862Y3631539D01*
X5351678Y3628288D01*
X5307076Y3583635D01*
X5301945Y3577437D01*
X5298389Y3570732D01*
X5296204Y3563518D01*
X5295392Y3555492D01*
X5295392Y2801467D01*
X5294630Y2797606D01*
X5292394Y2794304D01*
X5059019Y2560726D01*
X5055565Y2558440D01*
X5051552Y2557729D01*
X5047589Y2558643D01*
X5044186Y2560218D01*
X5030012Y2564739D01*
X5015382Y2567482D01*
X5000548Y2568397D01*
X4985664Y2567482D01*
X4971034Y2564739D01*
X4956860Y2560218D01*
X4943348Y2554020D01*
X4930902Y2546299D01*
X4926888Y2544876D01*
X4922621Y2545232D01*
X4918862Y2547315D01*
X4916322Y2550769D01*
X4915408Y2554935D01*
X4915408Y4222191D01*
X4916170Y4226102D01*
X4918405Y4229404D01*
X4919980Y4230979D01*
X4925618Y4239006D01*
X4929733Y4247946D01*
X4932273Y4257395D01*
X4933137Y4267200D01*
X4932273Y4277004D01*
X4929733Y4286453D01*
X4925618Y4295394D01*
X4919980Y4303420D01*
X4913020Y4310380D01*
X4904994Y4316018D01*
X4896053Y4320133D01*
X4886604Y4322673D01*
X4876800Y4323537D01*
X4866995Y4322673D01*
X4857546Y4320133D01*
X4848606Y4316018D01*
X4840579Y4310380D01*
X4833620Y4303420D01*
X4827981Y4295394D01*
X4823866Y4286453D01*
X4821326Y4277004D01*
X4820462Y4267200D01*
X4821326Y4257395D01*
X4823866Y4247946D01*
X4827981Y4239006D01*
X4833620Y4230979D01*
X4835194Y4229404D01*
X4837430Y4226102D01*
X4838192Y4222191D01*
X4838192Y2549804D01*
X4837480Y2546096D01*
X4835448Y2542895D01*
X4832400Y2540660D01*
X4828743Y2539695D01*
X4824984Y2540101D01*
X4821682Y2541879D01*
X4816348Y2546146D01*
X4803698Y2554020D01*
X4790186Y2560218D01*
X4776012Y2564739D01*
X4761382Y2567482D01*
X4746548Y2568397D01*
X4731664Y2567482D01*
X4717034Y2564739D01*
X4702860Y2560218D01*
X4689348Y2554020D01*
X4676902Y2546299D01*
X4672888Y2544876D01*
X4668621Y2545232D01*
X4664862Y2547315D01*
X4662322Y2550769D01*
X4661408Y2554935D01*
X4661408Y4158691D01*
X4662170Y4162602D01*
X4664405Y4165904D01*
X4665980Y4167479D01*
X4671618Y4175506D01*
X4675733Y4184446D01*
X4678273Y4193895D01*
X4679137Y4203700D01*
X4678273Y4213504D01*
X4675733Y4222953D01*
X4671618Y4231894D01*
X4665980Y4239920D01*
X4659020Y4246880D01*
X4650994Y4252518D01*
X4642053Y4256633D01*
X4632604Y4259173D01*
X4622800Y4260037D01*
X4612995Y4259173D01*
X4603546Y4256633D01*
X4594606Y4252518D01*
X4586579Y4246880D01*
X4579620Y4239920D01*
X4573981Y4231894D01*
X4569866Y4222953D01*
X4567326Y4213504D01*
X4566462Y4203700D01*
X4567326Y4193895D01*
X4569866Y4184446D01*
X4573981Y4175506D01*
X4579620Y4167479D01*
X4581194Y4165904D01*
X4583430Y4162602D01*
X4584192Y4158691D01*
X4584192Y2549804D01*
X4583480Y2546096D01*
X4581448Y2542895D01*
X4578400Y2540660D01*
X4574743Y2539695D01*
X4570984Y2540101D01*
X4567682Y2541879D01*
X4562348Y2546146D01*
X4549698Y2554020D01*
X4536186Y2560218D01*
X4522012Y2564739D01*
X4507382Y2567482D01*
X4492548Y2568397D01*
X4477664Y2567482D01*
X4463034Y2564739D01*
X4448860Y2560218D01*
X4435348Y2554020D01*
X4422902Y2546299D01*
X4418888Y2544876D01*
X4414621Y2545232D01*
X4410862Y2547315D01*
X4408322Y2550769D01*
X4407408Y2554935D01*
X4407408Y4095191D01*
X4408170Y4099102D01*
X4410405Y4102404D01*
X4411980Y4103979D01*
X4417618Y4112006D01*
X4421733Y4120946D01*
X4424273Y4130395D01*
X4425137Y4140200D01*
X4424273Y4150004D01*
X4421733Y4159453D01*
X4417618Y4168394D01*
X4411980Y4176420D01*
X4405020Y4183379D01*
X4396994Y4189018D01*
X4388053Y4193133D01*
X4378604Y4195673D01*
X4368800Y4196537D01*
X4358995Y4195673D01*
X4349546Y4193133D01*
X4340606Y4189018D01*
X4332579Y4183379D01*
X4325620Y4176420D01*
X4319981Y4168394D01*
X4315866Y4159453D01*
X4313326Y4150004D01*
X4312462Y4140200D01*
X4313326Y4130395D01*
X4315866Y4120946D01*
X4319981Y4112006D01*
X4325620Y4103979D01*
X4327194Y4102404D01*
X4329430Y4099102D01*
X4330192Y4095191D01*
X4330192Y2549804D01*
X4329480Y2546096D01*
X4327448Y2542895D01*
X4324400Y2540660D01*
X4320743Y2539695D01*
X4316984Y2540101D01*
X4313682Y2541879D01*
X4308348Y2546146D01*
X4295698Y2554020D01*
X4282186Y2560218D01*
X4268012Y2564739D01*
X4253382Y2567482D01*
X4238548Y2568397D01*
X4223664Y2567482D01*
X4209034Y2564739D01*
X4194860Y2560218D01*
X4181348Y2554020D01*
X4168901Y2546299D01*
X4164888Y2544876D01*
X4160621Y2545232D01*
X4156862Y2547315D01*
X4154322Y2550769D01*
X4153408Y2554935D01*
X4153408Y3874617D01*
X4154271Y3878681D01*
X4156659Y3882085D01*
X4160215Y3884218D01*
X4164329Y3884777D01*
X4168292Y3883609D01*
X4171492Y3880967D01*
X4173372Y3877259D01*
X4176166Y3866946D01*
X4180281Y3858006D01*
X4185920Y3849979D01*
X4192879Y3843020D01*
X4200906Y3837381D01*
X4209846Y3833266D01*
X4219295Y3830726D01*
X4229100Y3829862D01*
X4238904Y3830726D01*
X4248353Y3833266D01*
X4257294Y3837381D01*
X4265320Y3843020D01*
X4272280Y3849979D01*
X4277918Y3858006D01*
X4282033Y3866946D01*
X4284573Y3876395D01*
X4285437Y3886200D01*
X4284573Y3896004D01*
X4282033Y3905453D01*
X4277918Y3914394D01*
X4272280Y3922420D01*
X4270705Y3923995D01*
X4268470Y3927297D01*
X4267708Y3931208D01*
X4267708Y4372864D01*
X4268571Y4377029D01*
X4271111Y4380433D01*
X4274769Y4382566D01*
X4276394Y4383074D01*
X4289907Y4389272D01*
X4302556Y4397095D01*
X4314190Y4406442D01*
X4324502Y4417110D01*
X4333494Y4428998D01*
X4340961Y4441901D01*
X4346752Y4455617D01*
X4350816Y4469942D01*
X4353102Y4484624D01*
X4353560Y4499508D01*
X4352188Y4514342D01*
X4348988Y4528870D01*
X4344060Y4542891D01*
X4337405Y4556252D01*
X4329176Y4568647D01*
X4319524Y4579924D01*
X4308500Y4589983D01*
X4296359Y4598568D01*
X4283252Y4605629D01*
X4269384Y4610963D01*
X4254957Y4614621D01*
X4240174Y4616450D01*
X4225290Y4616450D01*
X4210507Y4614621D01*
X4196080Y4610963D01*
X4182211Y4605629D01*
X4169105Y4598568D01*
X4156913Y4589983D01*
X4145940Y4579924D01*
X4136237Y4568647D01*
X4128008Y4556252D01*
X4121404Y4542891D01*
X4116425Y4528870D01*
X4115663Y4525213D01*
X4114088Y4521606D01*
X4111294Y4518863D01*
X4107687Y4517390D01*
X4103776Y4517390D01*
X4100169Y4518863D01*
X4097375Y4521606D01*
X4095800Y4525213D01*
X4094987Y4528870D01*
X4090060Y4542891D01*
X4083405Y4556252D01*
X4075176Y4568647D01*
X4065524Y4579924D01*
X4054500Y4589983D01*
X4042359Y4598568D01*
X4029252Y4605629D01*
X4015384Y4610963D01*
X4000957Y4614621D01*
X3986174Y4616450D01*
X3971290Y4616450D01*
X3956507Y4614621D01*
X3942079Y4610963D01*
X3928211Y4605629D01*
X3915105Y4598568D01*
X3902913Y4589983D01*
X3891940Y4579924D01*
X3882237Y4568647D01*
X3874008Y4556252D01*
X3867404Y4542891D01*
X3862425Y4528870D01*
X3861663Y4525213D01*
X3860088Y4521606D01*
X3857294Y4518863D01*
X3853687Y4517390D01*
X3849776Y4517390D01*
X3846169Y4518863D01*
X3843375Y4521606D01*
X3841800Y4525213D01*
X3840987Y4528870D01*
X3836060Y4542891D01*
X3829405Y4556252D01*
X3821176Y4568647D01*
X3811524Y4579924D01*
X3800500Y4589983D01*
X3788359Y4598568D01*
X3775252Y4605629D01*
X3761384Y4610963D01*
X3746957Y4614621D01*
X3732174Y4616450D01*
X3717290Y4616450D01*
X3702507Y4614621D01*
X3688079Y4610963D01*
X3674211Y4605629D01*
X3661105Y4598568D01*
X3648913Y4589983D01*
X3637940Y4579924D01*
X3628237Y4568647D01*
X3620008Y4556252D01*
X3613404Y4542891D01*
X3608425Y4528870D01*
X3607663Y4525213D01*
X3606088Y4521606D01*
X3603294Y4518863D01*
X3599687Y4517390D01*
X3595776Y4517390D01*
X3592169Y4518863D01*
X3589375Y4521606D01*
X3587800Y4525213D01*
X3586987Y4528870D01*
X3582060Y4542891D01*
X3575405Y4556252D01*
X3567176Y4568647D01*
X3557524Y4579924D01*
X3546500Y4589983D01*
X3534359Y4598568D01*
X3521252Y4605629D01*
X3507384Y4610963D01*
X3492957Y4614621D01*
X3478174Y4616450D01*
X3463290Y4616450D01*
X3448507Y4614621D01*
X3434079Y4610963D01*
X3420211Y4605629D01*
X3407105Y4598568D01*
X3394913Y4589983D01*
X3383940Y4579924D01*
X3374237Y4568647D01*
X3366008Y4556252D01*
X3359404Y4542891D01*
X3354425Y4528870D01*
X3351276Y4514342D01*
X3349904Y4499508D01*
X3350361Y4484624D01*
X3352647Y4469942D01*
X3356711Y4455617D01*
X3362502Y4441901D01*
X3369970Y4428998D01*
X3378911Y4417110D01*
X3389274Y4406442D01*
X3400856Y4397095D01*
X3413556Y4389272D01*
X3422599Y4385106D01*
X3425698Y4382871D01*
X3427780Y4379671D01*
X3428492Y4375912D01*
X3428492Y3994708D01*
X3427729Y3990797D01*
X3425494Y3987495D01*
X3423920Y3985920D01*
X3418281Y3977894D01*
X3414166Y3968953D01*
X3411626Y3959504D01*
X3410762Y3949700D01*
X3411626Y3939895D01*
X3414166Y3930446D01*
X3418281Y3921506D01*
X3423920Y3913479D01*
X3430879Y3906520D01*
X3438906Y3900881D01*
X3447846Y3896766D01*
X3457295Y3894226D01*
X3467100Y3893362D01*
X3476904Y3894226D01*
X3486353Y3896766D01*
X3495294Y3900881D01*
X3503320Y3906520D01*
X3510279Y3913479D01*
X3515918Y3921506D01*
X3520033Y3930446D01*
X3522573Y3939895D01*
X3523437Y3949700D01*
X3522573Y3959504D01*
X3520033Y3968953D01*
X3515918Y3977894D01*
X3510279Y3985920D01*
X3508705Y3987495D01*
X3506470Y3990797D01*
X3505708Y3994708D01*
X3505708Y4372864D01*
X3506571Y4377029D01*
X3509111Y4380433D01*
X3512769Y4382566D01*
X3514394Y4383074D01*
X3527907Y4389272D01*
X3540556Y4397095D01*
X3552190Y4406442D01*
X3562502Y4417110D01*
X3571494Y4428998D01*
X3578961Y4441901D01*
X3584752Y4455617D01*
X3587953Y4466894D01*
X3589985Y4470704D01*
X3593490Y4473346D01*
X3597706Y4474260D01*
X3601974Y4473346D01*
X3605428Y4470704D01*
X3607511Y4466894D01*
X3610711Y4455617D01*
X3616502Y4441901D01*
X3623970Y4428998D01*
X3632911Y4417110D01*
X3643274Y4406442D01*
X3654856Y4397095D01*
X3667556Y4389272D01*
X3676599Y4385106D01*
X3679698Y4382871D01*
X3681780Y4379671D01*
X3682492Y4375912D01*
X3682492Y4058208D01*
X3681729Y4054297D01*
X3679494Y4050995D01*
X3677920Y4049420D01*
X3672281Y4041394D01*
X3668166Y4032453D01*
X3665626Y4023004D01*
X3664762Y4013200D01*
X3665626Y4003395D01*
X3668166Y3993946D01*
X3672281Y3985006D01*
X3677920Y3976979D01*
X3684879Y3970020D01*
X3692906Y3964381D01*
X3701846Y3960266D01*
X3711295Y3957726D01*
X3721100Y3956862D01*
X3730904Y3957726D01*
X3740353Y3960266D01*
X3749294Y3964381D01*
X3757320Y3970020D01*
X3764279Y3976979D01*
X3769918Y3985006D01*
X3774033Y3993946D01*
X3776573Y4003395D01*
X3777437Y4013200D01*
X3776573Y4023004D01*
X3774033Y4032453D01*
X3769918Y4041394D01*
X3764279Y4049420D01*
X3762705Y4050995D01*
X3760470Y4054297D01*
X3759708Y4058208D01*
X3759708Y4372864D01*
X3760571Y4377029D01*
X3763111Y4380433D01*
X3766769Y4382566D01*
X3768394Y4383074D01*
X3781907Y4389272D01*
X3794556Y4397095D01*
X3806190Y4406442D01*
X3816502Y4417110D01*
X3825494Y4428998D01*
X3832961Y4441901D01*
X3838752Y4455617D01*
X3841953Y4466894D01*
X3843985Y4470704D01*
X3847490Y4473346D01*
X3851706Y4474260D01*
X3855974Y4473346D01*
X3859428Y4470704D01*
X3861511Y4466894D01*
X3864711Y4455617D01*
X3870502Y4441901D01*
X3877970Y4428998D01*
X3886911Y4417110D01*
X3897274Y4406442D01*
X3908856Y4397095D01*
X3921556Y4389272D01*
X3930599Y4385106D01*
X3933698Y4382871D01*
X3935780Y4379671D01*
X3936492Y4375912D01*
X3936492Y4185208D01*
X3935729Y4181297D01*
X3933494Y4177995D01*
X3931920Y4176420D01*
X3926281Y4168343D01*
X3923487Y4165650D01*
X3919880Y4164177D01*
X3916019Y4164177D01*
X3912412Y4165650D01*
X3909618Y4168343D01*
X3903979Y4176420D01*
X3897020Y4183379D01*
X3888994Y4189018D01*
X3880053Y4193133D01*
X3870604Y4195673D01*
X3860800Y4196537D01*
X3850995Y4195673D01*
X3841546Y4193133D01*
X3832606Y4189018D01*
X3824579Y4183379D01*
X3817620Y4176420D01*
X3811981Y4168394D01*
X3807866Y4159453D01*
X3805326Y4150004D01*
X3804462Y4140200D01*
X3805326Y4130395D01*
X3807866Y4120946D01*
X3811981Y4112006D01*
X3817620Y4103979D01*
X3819194Y4102404D01*
X3821429Y4099102D01*
X3822192Y4095191D01*
X3822192Y2549804D01*
X3821480Y2546096D01*
X3819448Y2542895D01*
X3816400Y2540660D01*
X3812743Y2539695D01*
X3808984Y2540101D01*
X3805682Y2541879D01*
X3800348Y2546146D01*
X3787698Y2554020D01*
X3774186Y2560218D01*
X3760012Y2564739D01*
X3745382Y2567482D01*
X3730548Y2568397D01*
X3715664Y2567482D01*
X3701034Y2564739D01*
X3686860Y2560218D01*
X3673348Y2554020D01*
X3660698Y2546146D01*
X3649065Y2536850D01*
X3638702Y2526131D01*
X3629761Y2514244D01*
X3622294Y2501392D01*
X3616502Y2487676D01*
X3613302Y2476398D01*
X3611219Y2472537D01*
X3607765Y2469946D01*
X3603548Y2468981D01*
X3599281Y2469946D01*
X3595827Y2472537D01*
X3593744Y2476398D01*
X3590544Y2487676D01*
X3584752Y2501392D01*
X3577285Y2514244D01*
X3568344Y2526131D01*
X3557981Y2536850D01*
X3546348Y2546146D01*
X3533698Y2554020D01*
X3520186Y2560218D01*
X3506012Y2564739D01*
X3491382Y2567482D01*
X3476548Y2568397D01*
X3461664Y2567482D01*
X3447034Y2564739D01*
X3432860Y2560218D01*
X3419348Y2554020D01*
X3406698Y2546146D01*
X3395065Y2536850D01*
X3384702Y2526131D01*
X3375761Y2514244D01*
X3368294Y2501392D01*
X3362502Y2487676D01*
X3358438Y2473350D01*
X3356152Y2458669D01*
X3355695Y2443784D01*
X3357067Y2428951D01*
X3360267Y2414422D01*
X3365195Y2400350D01*
X3371850Y2387041D01*
X3380028Y2374646D01*
X3389731Y2363317D01*
X3400755Y2353310D01*
X3412896Y2344724D01*
X3426002Y2337663D01*
X3434689Y2334310D01*
X3438093Y2332126D01*
X3440379Y2328773D01*
X3441192Y2324811D01*
X3441192Y2204008D01*
X3440429Y2200097D01*
X3438194Y2196795D01*
X3436620Y2195220D01*
X3430981Y2187194D01*
X3426866Y2178253D01*
X3424326Y2168804D01*
X3423462Y2159000D01*
X3424326Y2149195D01*
X3426866Y2139746D01*
X3430981Y2130806D01*
X3436620Y2122779D01*
X3443579Y2115820D01*
X3451606Y2110181D01*
X3460546Y2106066D01*
X3469995Y2103526D01*
X3479800Y2102662D01*
X3489604Y2103526D01*
X3499053Y2106066D01*
X3507994Y2110181D01*
X3516020Y2115820D01*
X3522979Y2122779D01*
X3528618Y2130806D01*
X3532733Y2139746D01*
X3535273Y2149195D01*
X3536137Y2159000D01*
X3535273Y2168804D01*
X3532733Y2178253D01*
X3528618Y2187194D01*
X3522979Y2195220D01*
X3521405Y2196795D01*
X3519170Y2200097D01*
X3518408Y2204008D01*
X3518408Y2327351D01*
X3519220Y2331313D01*
X3521506Y2334666D01*
X3524910Y2336850D01*
X3527044Y2337663D01*
X3540150Y2344724D01*
X3552291Y2353310D01*
X3563315Y2363317D01*
X3573018Y2374646D01*
X3581196Y2387041D01*
X3587851Y2400350D01*
X3592779Y2414422D01*
X3593592Y2418080D01*
X3595166Y2421636D01*
X3597960Y2424379D01*
X3601567Y2425852D01*
X3605479Y2425852D01*
X3609086Y2424379D01*
X3611879Y2421636D01*
X3613454Y2418080D01*
X3614267Y2414422D01*
X3619195Y2400350D01*
X3625850Y2387041D01*
X3634028Y2374646D01*
X3643731Y2363317D01*
X3654755Y2353310D01*
X3666896Y2344724D01*
X3680002Y2337663D01*
X3693871Y2332278D01*
X3700221Y2330704D01*
X3704183Y2328672D01*
X3706926Y2325166D01*
X3707892Y2320848D01*
X3707892Y1906168D01*
X3707231Y1902561D01*
X3705301Y1899412D01*
X3702354Y1897125D01*
X3698798Y1896059D01*
X3695090Y1896364D01*
X3692804Y1896973D01*
X3683000Y1897837D01*
X3673195Y1896973D01*
X3663746Y1894433D01*
X3654806Y1890318D01*
X3646779Y1884680D01*
X3639820Y1877720D01*
X3634181Y1869693D01*
X3630066Y1860753D01*
X3627526Y1851304D01*
X3626662Y1841500D01*
X3627526Y1831695D01*
X3630066Y1822246D01*
X3634181Y1813306D01*
X3639820Y1805279D01*
X3641394Y1803704D01*
X3643629Y1800402D01*
X3644392Y1796491D01*
X3644392Y1432052D01*
X3643680Y1428343D01*
X3641648Y1425092D01*
X3638550Y1422857D01*
X3634892Y1421942D01*
X3631082Y1422400D01*
X3627780Y1424228D01*
X3624122Y1427226D01*
X3611829Y1435049D01*
X3600450Y1440383D01*
X3597351Y1442669D01*
X3595319Y1445869D01*
X3594608Y1449578D01*
X3594608Y1669491D01*
X3595370Y1673402D01*
X3597605Y1676704D01*
X3599179Y1678279D01*
X3604818Y1686306D01*
X3608933Y1695246D01*
X3611473Y1704695D01*
X3612337Y1714500D01*
X3611473Y1724304D01*
X3608933Y1733753D01*
X3604818Y1742693D01*
X3599179Y1750720D01*
X3592220Y1757680D01*
X3584194Y1763318D01*
X3575253Y1767433D01*
X3565804Y1769973D01*
X3556000Y1770837D01*
X3546195Y1769973D01*
X3536746Y1767433D01*
X3527806Y1763318D01*
X3519779Y1757680D01*
X3512820Y1750720D01*
X3507181Y1742693D01*
X3503066Y1733753D01*
X3500526Y1724304D01*
X3499662Y1714500D01*
X3500526Y1704695D01*
X3503066Y1695246D01*
X3507181Y1686306D01*
X3512820Y1678279D01*
X3514394Y1676704D01*
X3516629Y1673402D01*
X3517392Y1669491D01*
X3517392Y1449578D01*
X3516680Y1445869D01*
X3514648Y1442618D01*
X3511550Y1440383D01*
X3500170Y1435049D01*
X3487877Y1427226D01*
X3476650Y1417980D01*
X3466693Y1407363D01*
X3458159Y1395577D01*
X3451148Y1382826D01*
X3445814Y1369314D01*
X3442157Y1355191D01*
X3440328Y1340764D01*
X3440328Y1326235D01*
X3442157Y1311757D01*
X3445814Y1297686D01*
X3451148Y1284173D01*
X3458159Y1271371D01*
X3466693Y1259636D01*
X3476650Y1249019D01*
X3487877Y1239723D01*
X3500170Y1231950D01*
X3513328Y1225753D01*
X3527196Y1221232D01*
X3541471Y1218539D01*
X3556000Y1217625D01*
X3570528Y1218539D01*
X3584803Y1221232D01*
X3598672Y1225753D01*
X3611829Y1231950D01*
X3624122Y1239723D01*
X3627780Y1242720D01*
X3631082Y1244600D01*
X3634892Y1245057D01*
X3638550Y1244092D01*
X3641648Y1241856D01*
X3643680Y1238656D01*
X3644392Y1234897D01*
X3644392Y1207008D01*
X3645204Y1198981D01*
X3647389Y1191768D01*
X3650945Y1185062D01*
X3656076Y1178864D01*
X3700678Y1134211D01*
X3702862Y1130960D01*
X3703675Y1127150D01*
X3702964Y1123289D01*
X3699814Y1115314D01*
X3696157Y1101191D01*
X3694328Y1086764D01*
X3694328Y1072235D01*
X3696157Y1057757D01*
X3699814Y1043686D01*
X3705148Y1030173D01*
X3712159Y1017371D01*
X3720693Y1005636D01*
X3730650Y995019D01*
X3741877Y985723D01*
X3754170Y977950D01*
X3767328Y971753D01*
X3781196Y967232D01*
X3795471Y964539D01*
G37*
G36*
X3559556Y5477154D02*
G01*
X3573678Y5478526D01*
X3587546Y5481675D01*
X3600907Y5486603D01*
X3613505Y5493156D01*
X3625138Y5501284D01*
X3635654Y5510834D01*
X3644849Y5521655D01*
X3652621Y5533593D01*
X3658768Y5546394D01*
X3663238Y5559856D01*
X3665982Y5573826D01*
X3666896Y5588000D01*
X3665982Y5602173D01*
X3663238Y5616143D01*
X3658768Y5629605D01*
X3652621Y5642406D01*
X3644849Y5654344D01*
X3635654Y5665165D01*
X3625138Y5674715D01*
X3613505Y5682843D01*
X3600907Y5689396D01*
X3587546Y5694324D01*
X3573678Y5697474D01*
X3559556Y5698845D01*
X3545332Y5698388D01*
X3531311Y5696102D01*
X3517696Y5692038D01*
X3504692Y5686298D01*
X3492550Y5678932D01*
X3481425Y5670092D01*
X3471570Y5659882D01*
X3463086Y5648502D01*
X3456076Y5636107D01*
X3450742Y5622950D01*
X3447135Y5609183D01*
X3445357Y5595112D01*
X3445357Y5580888D01*
X3447135Y5566816D01*
X3450742Y5553049D01*
X3456076Y5539892D01*
X3463086Y5527497D01*
X3471570Y5516118D01*
X3481425Y5505907D01*
X3492550Y5497068D01*
X3504692Y5489702D01*
X3517696Y5483910D01*
X3531311Y5479897D01*
X3545332Y5477611D01*
G37*
G36*
X105410Y5473700D02*
G01*
X368300Y5473700D01*
X368300Y5736386D01*
X352145Y5735370D01*
X329285Y5732018D01*
X306781Y5726734D01*
X284835Y5719572D01*
X263499Y5710631D01*
X243027Y5699912D01*
X223520Y5687568D01*
X205130Y5673598D01*
X187960Y5658104D01*
X172161Y5641289D01*
X157784Y5623153D01*
X144983Y5603900D01*
X133858Y5583682D01*
X124460Y5562549D01*
X116890Y5540756D01*
X111150Y5518353D01*
X107289Y5495594D01*
G37*
G36*
X5185410Y5473700D02*
G01*
X5448300Y5473700D01*
X5448300Y5736386D01*
X5432145Y5735370D01*
X5409285Y5732018D01*
X5386781Y5726734D01*
X5364835Y5719572D01*
X5343499Y5710631D01*
X5323027Y5699912D01*
X5303520Y5687568D01*
X5285130Y5673598D01*
X5267960Y5658104D01*
X5252161Y5641289D01*
X5237784Y5623153D01*
X5224983Y5603900D01*
X5213858Y5583682D01*
X5204460Y5562549D01*
X5196890Y5540756D01*
X5191150Y5518353D01*
X5187289Y5495594D01*
G37*
G36*
X5473700Y5473700D02*
G01*
X5736336Y5473700D01*
X5735929Y5484063D01*
X5733034Y5507024D01*
X5728208Y5529630D01*
X5721553Y5551728D01*
X5713018Y5573217D01*
X5702757Y5593892D01*
X5690819Y5613704D01*
X5677204Y5632348D01*
X5662117Y5649874D01*
X5645607Y5666028D01*
X5627827Y5680760D01*
X5608828Y5693968D01*
X5588812Y5705500D01*
X5567934Y5715355D01*
X5546242Y5723382D01*
X5523992Y5729630D01*
X5501284Y5733948D01*
X5478322Y5736336D01*
X5473700Y5736437D01*
G37*
G36*
X393700Y5473700D02*
G01*
X656336Y5473700D01*
X655929Y5484063D01*
X653034Y5507024D01*
X648208Y5529630D01*
X641553Y5551728D01*
X633018Y5573217D01*
X622757Y5593892D01*
X610819Y5613704D01*
X597204Y5632348D01*
X582117Y5649874D01*
X565607Y5666028D01*
X547827Y5680760D01*
X528828Y5693968D01*
X508812Y5705500D01*
X487934Y5715355D01*
X466242Y5723382D01*
X443992Y5729630D01*
X421284Y5733948D01*
X398322Y5736336D01*
X393700Y5736437D01*
G37*
G36*
X4559300Y5473039D02*
G01*
X4559300Y5575300D01*
X4456887Y5575300D01*
X4457039Y5573471D01*
X4459732Y5559196D01*
X4464253Y5545328D01*
X4470450Y5532170D01*
X4478223Y5519877D01*
X4487519Y5508650D01*
X4498136Y5498693D01*
X4509922Y5490159D01*
X4522673Y5483148D01*
X4536186Y5477764D01*
X4550308Y5474157D01*
G37*
G36*
X4584700Y5473039D02*
G01*
X4593691Y5474157D01*
X4607814Y5477764D01*
X4621326Y5483148D01*
X4634077Y5490159D01*
X4645863Y5498693D01*
X4656480Y5508650D01*
X4665776Y5519877D01*
X4673549Y5532170D01*
X4679746Y5545328D01*
X4684268Y5559196D01*
X4686960Y5573471D01*
X4687112Y5575300D01*
X4584700Y5575300D01*
G37*
G36*
X4818735Y5472328D02*
G01*
X4833264Y5472328D01*
X4847691Y5474157D01*
X4861814Y5477764D01*
X4875326Y5483148D01*
X4888077Y5490159D01*
X4899863Y5498693D01*
X4910480Y5508650D01*
X4919776Y5519877D01*
X4927549Y5532170D01*
X4933746Y5545328D01*
X4938268Y5559196D01*
X4940960Y5573471D01*
X4941874Y5588000D01*
X4940960Y5602528D01*
X4938268Y5616803D01*
X4933746Y5630672D01*
X4927549Y5643829D01*
X4919776Y5656122D01*
X4910480Y5667349D01*
X4899863Y5677306D01*
X4888077Y5685840D01*
X4875326Y5692851D01*
X4861814Y5698236D01*
X4847691Y5701842D01*
X4833264Y5703671D01*
X4818735Y5703671D01*
X4804308Y5701842D01*
X4790186Y5698236D01*
X4776673Y5692851D01*
X4763922Y5685840D01*
X4752136Y5677306D01*
X4741519Y5667349D01*
X4732223Y5656122D01*
X4724450Y5643829D01*
X4718253Y5630672D01*
X4713732Y5616803D01*
X4711039Y5602528D01*
X4710125Y5588000D01*
X4711039Y5573471D01*
X4713732Y5559196D01*
X4718253Y5545328D01*
X4724450Y5532170D01*
X4732223Y5519877D01*
X4741519Y5508650D01*
X4752136Y5498693D01*
X4763922Y5490159D01*
X4776673Y5483148D01*
X4790186Y5477764D01*
X4804308Y5474157D01*
G37*
G36*
X4456887Y5346700D02*
G01*
X4559300Y5346700D01*
X4559300Y5448960D01*
X4550308Y5447842D01*
X4536186Y5444236D01*
X4522673Y5438851D01*
X4509922Y5431840D01*
X4498136Y5423306D01*
X4487519Y5413349D01*
X4478223Y5402122D01*
X4470450Y5389829D01*
X4464253Y5376672D01*
X4459732Y5362803D01*
X4457039Y5348528D01*
G37*
G36*
X4584700Y5346700D02*
G01*
X4687112Y5346700D01*
X4686960Y5348528D01*
X4684268Y5362803D01*
X4679746Y5376672D01*
X4673549Y5389829D01*
X4665776Y5402122D01*
X4656480Y5413349D01*
X4645863Y5423306D01*
X4634077Y5431840D01*
X4621326Y5438851D01*
X4607814Y5444236D01*
X4593691Y5447842D01*
X4584700Y5448960D01*
G37*
G36*
X3305556Y5223154D02*
G01*
X3319678Y5224526D01*
X3333546Y5227675D01*
X3346907Y5232603D01*
X3359505Y5239156D01*
X3371138Y5247284D01*
X3381654Y5256834D01*
X3390849Y5267655D01*
X3398621Y5279593D01*
X3404768Y5292394D01*
X3409238Y5305856D01*
X3411982Y5319826D01*
X3412896Y5334000D01*
X3411982Y5348173D01*
X3409238Y5362143D01*
X3404768Y5375605D01*
X3398621Y5388406D01*
X3390849Y5400344D01*
X3381654Y5411165D01*
X3371138Y5420715D01*
X3359505Y5428843D01*
X3346907Y5435396D01*
X3333546Y5440324D01*
X3319678Y5443474D01*
X3305556Y5444845D01*
X3291332Y5444388D01*
X3277311Y5442102D01*
X3263696Y5438038D01*
X3250692Y5432298D01*
X3238550Y5424932D01*
X3227425Y5416092D01*
X3217570Y5405882D01*
X3209086Y5394502D01*
X3202076Y5382107D01*
X3196742Y5368950D01*
X3193135Y5355183D01*
X3191357Y5341112D01*
X3191357Y5326888D01*
X3193135Y5312816D01*
X3196742Y5299049D01*
X3202076Y5285892D01*
X3209086Y5273497D01*
X3217570Y5262118D01*
X3227425Y5251907D01*
X3238550Y5243068D01*
X3250692Y5235702D01*
X3263696Y5229910D01*
X3277311Y5225897D01*
X3291332Y5223611D01*
G37*
G36*
X1511300Y964387D02*
G01*
X1511300Y1066800D01*
X1409039Y1066800D01*
X1410157Y1057757D01*
X1413814Y1043686D01*
X1419148Y1030173D01*
X1426159Y1017371D01*
X1434693Y1005636D01*
X1444650Y995019D01*
X1455877Y985723D01*
X1468170Y977950D01*
X1481328Y971753D01*
X1495196Y967232D01*
X1509471Y964539D01*
G37*
G36*
X3543300Y964387D02*
G01*
X3543300Y1066800D01*
X3441039Y1066800D01*
X3442157Y1057757D01*
X3445814Y1043686D01*
X3451148Y1030173D01*
X3458159Y1017371D01*
X3466693Y1005636D01*
X3476650Y995019D01*
X3487877Y985723D01*
X3500170Y977950D01*
X3513328Y971753D01*
X3527196Y967232D01*
X3541471Y964539D01*
G37*
G36*
X3568700Y964387D02*
G01*
X3570528Y964539D01*
X3584803Y967232D01*
X3598672Y971753D01*
X3611829Y977950D01*
X3624122Y985723D01*
X3635349Y995019D01*
X3645306Y1005636D01*
X3653840Y1017371D01*
X3660851Y1030173D01*
X3666236Y1043686D01*
X3669842Y1057757D01*
X3670960Y1066800D01*
X3568700Y1066800D01*
G37*
G36*
X5346700Y964387D02*
G01*
X5348528Y964539D01*
X5362803Y967232D01*
X5376672Y971753D01*
X5389829Y977950D01*
X5402122Y985723D01*
X5413349Y995019D01*
X5423306Y1005636D01*
X5431840Y1017371D01*
X5438851Y1030173D01*
X5444236Y1043686D01*
X5447842Y1057757D01*
X5448960Y1066800D01*
X5346700Y1066800D01*
G37*
G36*
X5321300Y964387D02*
G01*
X5321300Y1066800D01*
X5219039Y1066800D01*
X5220157Y1057757D01*
X5223814Y1043686D01*
X5229148Y1030173D01*
X5236159Y1017371D01*
X5244693Y1005636D01*
X5254650Y995019D01*
X5265877Y985723D01*
X5278170Y977950D01*
X5291328Y971753D01*
X5305196Y967232D01*
X5319471Y964539D01*
G37*
G36*
X1536700Y964387D02*
G01*
X1538528Y964539D01*
X1552803Y967232D01*
X1566672Y971753D01*
X1579829Y977950D01*
X1592122Y985723D01*
X1603349Y995019D01*
X1613306Y1005636D01*
X1621840Y1017371D01*
X1628851Y1030173D01*
X1634236Y1043686D01*
X1637842Y1057757D01*
X1638960Y1066800D01*
X1536700Y1066800D01*
G37*
G36*
X3559556Y5223154D02*
G01*
X3573678Y5224526D01*
X3587546Y5227675D01*
X3600907Y5232603D01*
X3613505Y5239156D01*
X3625138Y5247284D01*
X3635654Y5256834D01*
X3644849Y5267655D01*
X3652621Y5279593D01*
X3658768Y5292394D01*
X3663238Y5305856D01*
X3665982Y5319826D01*
X3666896Y5334000D01*
X3665982Y5348173D01*
X3663238Y5362143D01*
X3658768Y5375605D01*
X3652621Y5388406D01*
X3644849Y5400344D01*
X3635654Y5411165D01*
X3625138Y5420715D01*
X3613505Y5428843D01*
X3600907Y5435396D01*
X3587546Y5440324D01*
X3573678Y5443474D01*
X3559556Y5444845D01*
X3545332Y5444388D01*
X3531311Y5442102D01*
X3517696Y5438038D01*
X3504692Y5432298D01*
X3492550Y5424932D01*
X3481425Y5416092D01*
X3471570Y5405882D01*
X3463086Y5394502D01*
X3456076Y5382107D01*
X3450742Y5368950D01*
X3447135Y5355183D01*
X3445357Y5341112D01*
X3445357Y5326888D01*
X3447135Y5312816D01*
X3450742Y5299049D01*
X3456076Y5285892D01*
X3463086Y5273497D01*
X3471570Y5262118D01*
X3481425Y5251907D01*
X3492550Y5243068D01*
X3504692Y5235702D01*
X3517696Y5229910D01*
X3531311Y5225897D01*
X3545332Y5223611D01*
G37*
G36*
X5219039Y1092200D02*
G01*
X5321300Y1092200D01*
X5321300Y1194562D01*
X5319471Y1194460D01*
X5305196Y1191717D01*
X5291328Y1187246D01*
X5278170Y1181049D01*
X5265877Y1173226D01*
X5254650Y1163980D01*
X5244693Y1153363D01*
X5236159Y1141577D01*
X5229148Y1128826D01*
X5223814Y1115314D01*
X5220157Y1101191D01*
G37*
G36*
X3441039Y1092200D02*
G01*
X3543300Y1092200D01*
X3543300Y1194562D01*
X3541471Y1194460D01*
X3527196Y1191717D01*
X3513328Y1187246D01*
X3500170Y1181049D01*
X3487877Y1173226D01*
X3476650Y1163980D01*
X3466693Y1153363D01*
X3458159Y1141577D01*
X3451148Y1128826D01*
X3445814Y1115314D01*
X3442157Y1101191D01*
G37*
G36*
X3568700Y1092200D02*
G01*
X3670960Y1092200D01*
X3669842Y1101191D01*
X3666236Y1115314D01*
X3660851Y1128826D01*
X3653840Y1141577D01*
X3645306Y1153363D01*
X3635349Y1163980D01*
X3624122Y1173226D01*
X3611829Y1181049D01*
X3598672Y1187246D01*
X3584803Y1191717D01*
X3570528Y1194460D01*
X3568700Y1194562D01*
G37*
G36*
X5346700Y1092200D02*
G01*
X5448960Y1092200D01*
X5447842Y1101191D01*
X5444236Y1115314D01*
X5438851Y1128826D01*
X5431840Y1141577D01*
X5423306Y1153363D01*
X5413349Y1163980D01*
X5402122Y1173226D01*
X5389829Y1181049D01*
X5376672Y1187246D01*
X5362803Y1191717D01*
X5348528Y1194460D01*
X5346700Y1194562D01*
G37*
G36*
X1536700Y1092200D02*
G01*
X1638960Y1092200D01*
X1637842Y1101191D01*
X1634236Y1115314D01*
X1628851Y1128826D01*
X1621840Y1141577D01*
X1613306Y1153363D01*
X1603349Y1163980D01*
X1592122Y1173226D01*
X1579829Y1181049D01*
X1566672Y1187246D01*
X1552803Y1191717D01*
X1538528Y1194460D01*
X1536700Y1194562D01*
G37*
G36*
X1409039Y1092200D02*
G01*
X1511300Y1092200D01*
X1511300Y1194562D01*
X1509471Y1194460D01*
X1495196Y1191717D01*
X1481328Y1187246D01*
X1468170Y1181049D01*
X1455877Y1173226D01*
X1444650Y1163980D01*
X1434693Y1153363D01*
X1426159Y1141577D01*
X1419148Y1128826D01*
X1413814Y1115314D01*
X1410157Y1101191D01*
G37*
G36*
X4559300Y5219039D02*
G01*
X4559300Y5321300D01*
X4456887Y5321300D01*
X4457039Y5319471D01*
X4459732Y5305196D01*
X4464253Y5291328D01*
X4470450Y5278170D01*
X4478223Y5265877D01*
X4487519Y5254650D01*
X4498136Y5244693D01*
X4509922Y5236159D01*
X4522673Y5229148D01*
X4536186Y5223764D01*
X4550308Y5220157D01*
G37*
G36*
X4584700Y5219039D02*
G01*
X4593691Y5220157D01*
X4607814Y5223764D01*
X4621326Y5229148D01*
X4634077Y5236159D01*
X4645863Y5244693D01*
X4656480Y5254650D01*
X4665776Y5265877D01*
X4673549Y5278170D01*
X4679746Y5291328D01*
X4684268Y5305196D01*
X4686960Y5319471D01*
X4687112Y5321300D01*
X4584700Y5321300D01*
G37*
G36*
X4818735Y5218328D02*
G01*
X4833264Y5218328D01*
X4847691Y5220157D01*
X4861814Y5223764D01*
X4875326Y5229148D01*
X4888077Y5236159D01*
X4899863Y5244693D01*
X4910480Y5254650D01*
X4919776Y5265877D01*
X4927549Y5278170D01*
X4933746Y5291328D01*
X4938268Y5305196D01*
X4940960Y5319471D01*
X4941874Y5334000D01*
X4940960Y5348528D01*
X4938268Y5362803D01*
X4933746Y5376672D01*
X4927549Y5389829D01*
X4919776Y5402122D01*
X4910480Y5413349D01*
X4899863Y5423306D01*
X4888077Y5431840D01*
X4875326Y5438851D01*
X4861814Y5444236D01*
X4847691Y5447842D01*
X4833264Y5449671D01*
X4818735Y5449671D01*
X4804308Y5447842D01*
X4790186Y5444236D01*
X4776673Y5438851D01*
X4763922Y5431840D01*
X4752136Y5423306D01*
X4741519Y5413349D01*
X4732223Y5402122D01*
X4724450Y5389829D01*
X4718253Y5376672D01*
X4713732Y5362803D01*
X4711039Y5348528D01*
X4710125Y5334000D01*
X4711039Y5319471D01*
X4713732Y5305196D01*
X4718253Y5291328D01*
X4724450Y5278170D01*
X4732223Y5265877D01*
X4741519Y5254650D01*
X4752136Y5244693D01*
X4763922Y5236159D01*
X4776673Y5229148D01*
X4790186Y5223764D01*
X4804308Y5220157D01*
G37*
G36*
X368300Y5185613D02*
G01*
X368300Y5448300D01*
X105410Y5448300D01*
X107289Y5426405D01*
X111150Y5403646D01*
X116890Y5381244D01*
X124460Y5359450D01*
X133858Y5338318D01*
X144983Y5318099D01*
X157784Y5298846D01*
X172161Y5280710D01*
X187960Y5263896D01*
X205130Y5248402D01*
X223520Y5234432D01*
X243027Y5222087D01*
X263499Y5211368D01*
X284835Y5202428D01*
X306781Y5195265D01*
X329285Y5189982D01*
X352145Y5186629D01*
G37*
G36*
X5448300Y5185613D02*
G01*
X5448300Y5448300D01*
X5185410Y5448300D01*
X5187289Y5426405D01*
X5191150Y5403646D01*
X5196890Y5381244D01*
X5204460Y5359450D01*
X5213858Y5338318D01*
X5224983Y5318099D01*
X5237784Y5298846D01*
X5252161Y5280710D01*
X5267960Y5263896D01*
X5285130Y5248402D01*
X5303520Y5234432D01*
X5323027Y5222087D01*
X5343499Y5211368D01*
X5364835Y5202428D01*
X5386781Y5195265D01*
X5409285Y5189982D01*
X5432145Y5186629D01*
G37*
G36*
X5473700Y5185562D02*
G01*
X5478322Y5185664D01*
X5501284Y5188051D01*
X5523992Y5192369D01*
X5546242Y5198618D01*
X5567934Y5206644D01*
X5588812Y5216499D01*
X5608828Y5228031D01*
X5627827Y5241239D01*
X5645607Y5255971D01*
X5662117Y5272125D01*
X5677204Y5289600D01*
X5690819Y5308295D01*
X5702757Y5328107D01*
X5713018Y5348782D01*
X5721553Y5370271D01*
X5728208Y5392369D01*
X5733034Y5414975D01*
X5735929Y5437936D01*
X5736336Y5448300D01*
X5473700Y5448300D01*
G37*
G36*
X4591812Y4617466D02*
G01*
X4605629Y4617923D01*
X4619244Y4620209D01*
X4632452Y4624324D01*
X4644999Y4630115D01*
X4656632Y4637582D01*
X4667148Y4646472D01*
X4676444Y4656734D01*
X4684268Y4668113D01*
X4690465Y4680407D01*
X4694986Y4693462D01*
X4697730Y4707026D01*
X4698695Y4720793D01*
X4697730Y4734560D01*
X4694986Y4748123D01*
X4690465Y4761128D01*
X4684268Y4773472D01*
X4676444Y4784852D01*
X4667148Y4795113D01*
X4656632Y4804003D01*
X4644999Y4811471D01*
X4632452Y4817262D01*
X4619244Y4821377D01*
X4605629Y4823663D01*
X4591812Y4824120D01*
X4578096Y4822748D01*
X4564684Y4819548D01*
X4551781Y4814570D01*
X4539640Y4807915D01*
X4528566Y4799736D01*
X4518609Y4790135D01*
X4510074Y4779314D01*
X4503013Y4767427D01*
X4497628Y4754727D01*
X4493971Y4741367D01*
X4492142Y4727702D01*
X4492142Y4713884D01*
X4493971Y4700219D01*
X4497628Y4686858D01*
X4503013Y4674158D01*
X4510074Y4662271D01*
X4518609Y4651451D01*
X4528566Y4641850D01*
X4539640Y4633671D01*
X4551781Y4627016D01*
X4564684Y4622038D01*
X4578096Y4618837D01*
G37*
G36*
X3108198Y4614926D02*
G01*
X3122015Y4615789D01*
X3135579Y4618532D01*
X3148736Y4622952D01*
X3161131Y4629099D01*
X3172663Y4636770D01*
X3183077Y4645914D01*
X3192221Y4656328D01*
X3199892Y4667859D01*
X3206038Y4680254D01*
X3210458Y4693412D01*
X3213201Y4706975D01*
X3214065Y4720793D01*
X3213201Y4734610D01*
X3210458Y4748174D01*
X3206038Y4761331D01*
X3199892Y4773726D01*
X3192221Y4785258D01*
X3183077Y4795672D01*
X3172663Y4804816D01*
X3161131Y4812487D01*
X3148736Y4818634D01*
X3135579Y4823053D01*
X3122015Y4825796D01*
X3108198Y4826660D01*
X3094380Y4825796D01*
X3080816Y4823053D01*
X3067659Y4818634D01*
X3055264Y4812487D01*
X3043732Y4804816D01*
X3033318Y4795672D01*
X3024174Y4785258D01*
X3016504Y4773726D01*
X3010357Y4761331D01*
X3005937Y4748174D01*
X3003194Y4734610D01*
X3002330Y4720793D01*
X3003194Y4706975D01*
X3005937Y4693412D01*
X3010357Y4680254D01*
X3016504Y4667859D01*
X3024174Y4656328D01*
X3033318Y4645914D01*
X3043732Y4636770D01*
X3055264Y4629099D01*
X3067659Y4622952D01*
X3080816Y4618532D01*
X3094380Y4615789D01*
G37*
G36*
X2733802Y4614926D02*
G01*
X2747619Y4615789D01*
X2761183Y4618532D01*
X2774340Y4622952D01*
X2786735Y4629099D01*
X2798267Y4636770D01*
X2808681Y4645914D01*
X2817825Y4656328D01*
X2825496Y4667859D01*
X2831642Y4680254D01*
X2836062Y4693412D01*
X2838805Y4706975D01*
X2839669Y4720793D01*
X2838805Y4734610D01*
X2836062Y4748174D01*
X2831642Y4761331D01*
X2825496Y4773726D01*
X2817825Y4785258D01*
X2808681Y4795672D01*
X2798267Y4804816D01*
X2786735Y4812487D01*
X2774340Y4818634D01*
X2761183Y4823053D01*
X2747619Y4825796D01*
X2733802Y4826660D01*
X2719984Y4825796D01*
X2706420Y4823053D01*
X2693263Y4818634D01*
X2680868Y4812487D01*
X2669336Y4804816D01*
X2658922Y4795672D01*
X2649778Y4785258D01*
X2642108Y4773726D01*
X2635961Y4761331D01*
X2631541Y4748174D01*
X2628798Y4734610D01*
X2627934Y4720793D01*
X2628798Y4706975D01*
X2631541Y4693412D01*
X2635961Y4680254D01*
X2642108Y4667859D01*
X2649778Y4656328D01*
X2658922Y4645914D01*
X2669336Y4636770D01*
X2680868Y4629099D01*
X2693263Y4622952D01*
X2706420Y4618532D01*
X2719984Y4615789D01*
G37*
G36*
X5143500Y3893362D02*
G01*
X5153304Y3894226D01*
X5162753Y3896766D01*
X5171694Y3900881D01*
X5179720Y3906520D01*
X5186680Y3913479D01*
X5192318Y3921506D01*
X5196433Y3930446D01*
X5198973Y3939895D01*
X5199837Y3949700D01*
X5198973Y3959504D01*
X5196433Y3968953D01*
X5192318Y3977894D01*
X5186680Y3985920D01*
X5185105Y3987495D01*
X5182870Y3990797D01*
X5182108Y3994708D01*
X5182108Y4399991D01*
X5182870Y4403902D01*
X5185105Y4407204D01*
X5186680Y4408779D01*
X5192318Y4416806D01*
X5196433Y4425746D01*
X5198973Y4435195D01*
X5199837Y4445000D01*
X5198973Y4454804D01*
X5196433Y4464253D01*
X5192318Y4473194D01*
X5186680Y4481220D01*
X5179720Y4488180D01*
X5171694Y4493818D01*
X5162753Y4497933D01*
X5153304Y4500473D01*
X5143500Y4501337D01*
X5133695Y4500473D01*
X5131409Y4499864D01*
X5127701Y4499559D01*
X5124145Y4500626D01*
X5121198Y4502912D01*
X5119268Y4506061D01*
X5118608Y4509668D01*
X5118608Y4650232D01*
X5119370Y4654143D01*
X5121605Y4657394D01*
X5124856Y4659630D01*
X5128768Y4660392D01*
X5350205Y4660392D01*
X5353812Y4659731D01*
X5356961Y4657801D01*
X5359247Y4654905D01*
X5366207Y4641494D01*
X5374284Y4629861D01*
X5383834Y4619345D01*
X5394655Y4610150D01*
X5406593Y4602378D01*
X5419394Y4596231D01*
X5432856Y4591761D01*
X5446826Y4589018D01*
X5461000Y4588103D01*
X5475173Y4589018D01*
X5489143Y4591761D01*
X5502605Y4596231D01*
X5515406Y4602378D01*
X5527344Y4610150D01*
X5532628Y4614672D01*
X5535980Y4616551D01*
X5539790Y4617059D01*
X5543499Y4616145D01*
X5546598Y4613910D01*
X5548680Y4610709D01*
X5549392Y4606950D01*
X5549392Y4537354D01*
X5548426Y4533036D01*
X5545683Y4529531D01*
X5541670Y4527499D01*
X5537250Y4527397D01*
X5533136Y4529226D01*
X5521502Y4537913D01*
X5509107Y4544923D01*
X5495950Y4550257D01*
X5482183Y4553864D01*
X5468112Y4555642D01*
X5453888Y4555642D01*
X5439816Y4553864D01*
X5426049Y4550257D01*
X5412892Y4544923D01*
X5400497Y4537913D01*
X5389118Y4529429D01*
X5378907Y4519574D01*
X5370068Y4508449D01*
X5362702Y4496308D01*
X5356961Y4483303D01*
X5352897Y4469688D01*
X5350611Y4455668D01*
X5350154Y4441444D01*
X5351526Y4427321D01*
X5354675Y4413453D01*
X5359603Y4400092D01*
X5366156Y4387494D01*
X5374284Y4375861D01*
X5383834Y4365345D01*
X5394655Y4356150D01*
X5406593Y4348378D01*
X5419394Y4342231D01*
X5432856Y4337761D01*
X5446826Y4335018D01*
X5461000Y4334103D01*
X5475173Y4335018D01*
X5489143Y4337761D01*
X5502605Y4342231D01*
X5515406Y4348378D01*
X5527344Y4356150D01*
X5532628Y4360672D01*
X5535980Y4362551D01*
X5539790Y4363059D01*
X5543499Y4362145D01*
X5546598Y4359910D01*
X5548680Y4356709D01*
X5549392Y4352950D01*
X5549392Y4338218D01*
X5548630Y4334306D01*
X5546394Y4331004D01*
X5515864Y4300423D01*
X5512409Y4298188D01*
X5508345Y4297476D01*
X5503672Y4298746D01*
X5489803Y4303268D01*
X5475528Y4305960D01*
X5461000Y4306874D01*
X5446471Y4305960D01*
X5432196Y4303268D01*
X5418328Y4298746D01*
X5405170Y4292549D01*
X5392877Y4284776D01*
X5381650Y4275480D01*
X5371693Y4264863D01*
X5363159Y4253077D01*
X5356148Y4240326D01*
X5350764Y4226814D01*
X5347157Y4212691D01*
X5345328Y4198264D01*
X5345328Y4183735D01*
X5347157Y4169308D01*
X5350764Y4155186D01*
X5356148Y4141673D01*
X5363159Y4128922D01*
X5371693Y4117136D01*
X5381650Y4106519D01*
X5392877Y4097223D01*
X5405170Y4089450D01*
X5418328Y4083253D01*
X5432196Y4078732D01*
X5446471Y4076039D01*
X5461000Y4075125D01*
X5475528Y4076039D01*
X5489803Y4078732D01*
X5503672Y4083253D01*
X5516829Y4089450D01*
X5529122Y4097223D01*
X5540349Y4106519D01*
X5550306Y4117136D01*
X5558840Y4128922D01*
X5565851Y4141673D01*
X5571236Y4155186D01*
X5574842Y4169308D01*
X5576671Y4183735D01*
X5576671Y4198264D01*
X5574842Y4212691D01*
X5571236Y4226814D01*
X5568035Y4234789D01*
X5567324Y4238650D01*
X5568137Y4242460D01*
X5570321Y4245711D01*
X5614924Y4290364D01*
X5620054Y4296562D01*
X5623610Y4303268D01*
X5625795Y4310481D01*
X5626608Y4318508D01*
X5626608Y4984191D01*
X5627370Y4988102D01*
X5629605Y4991404D01*
X5631180Y4992979D01*
X5636818Y5001006D01*
X5640933Y5009946D01*
X5643473Y5019395D01*
X5644337Y5029200D01*
X5643473Y5039004D01*
X5640933Y5048453D01*
X5636818Y5057394D01*
X5631180Y5065420D01*
X5624220Y5072380D01*
X5616194Y5078018D01*
X5607253Y5082133D01*
X5597804Y5084673D01*
X5588000Y5085537D01*
X5578195Y5084673D01*
X5568746Y5082133D01*
X5559806Y5078018D01*
X5551779Y5072380D01*
X5544820Y5065420D01*
X5539181Y5057394D01*
X5535066Y5048453D01*
X5532526Y5039004D01*
X5531662Y5029200D01*
X5532526Y5019395D01*
X5535066Y5009946D01*
X5539181Y5001006D01*
X5544820Y4992979D01*
X5546394Y4991404D01*
X5548630Y4988102D01*
X5549392Y4984191D01*
X5549392Y4791354D01*
X5548426Y4787036D01*
X5545683Y4783531D01*
X5541670Y4781499D01*
X5537250Y4781397D01*
X5533136Y4783226D01*
X5521502Y4791913D01*
X5509107Y4798923D01*
X5495950Y4804257D01*
X5482183Y4807864D01*
X5468112Y4809642D01*
X5453888Y4809642D01*
X5439816Y4807864D01*
X5426049Y4804257D01*
X5412892Y4798923D01*
X5400497Y4791913D01*
X5389118Y4783429D01*
X5378907Y4773574D01*
X5370068Y4762449D01*
X5362702Y4750308D01*
X5359755Y4743653D01*
X5357520Y4740452D01*
X5354269Y4738370D01*
X5350459Y4737608D01*
X5080508Y4737608D01*
X5072481Y4736795D01*
X5065268Y4734610D01*
X5058562Y4731054D01*
X5052720Y4726279D01*
X5047945Y4720437D01*
X5044389Y4713732D01*
X5042204Y4706518D01*
X5041392Y4698492D01*
X5041392Y4058208D01*
X5040630Y4054297D01*
X5038394Y4050995D01*
X5036820Y4049420D01*
X5031181Y4041394D01*
X5027066Y4032453D01*
X5024526Y4023004D01*
X5023662Y4013200D01*
X5024526Y4003395D01*
X5027066Y3993946D01*
X5031181Y3985006D01*
X5036820Y3976979D01*
X5043779Y3970020D01*
X5051806Y3964381D01*
X5060746Y3960266D01*
X5070195Y3957726D01*
X5078069Y3957015D01*
X5081473Y3956100D01*
X5084368Y3954068D01*
X5086400Y3951173D01*
X5087315Y3947769D01*
X5088026Y3939895D01*
X5090566Y3930446D01*
X5094681Y3921506D01*
X5100320Y3913479D01*
X5107279Y3906520D01*
X5115306Y3900881D01*
X5124246Y3896766D01*
X5133695Y3894226D01*
G37*
G36*
X5626100Y2116632D02*
G01*
X5639917Y2117496D01*
X5653481Y2120239D01*
X5666638Y2124659D01*
X5679033Y2130806D01*
X5690565Y2138476D01*
X5700979Y2147620D01*
X5710123Y2158034D01*
X5717794Y2169566D01*
X5723940Y2181961D01*
X5728360Y2195118D01*
X5731103Y2208682D01*
X5731967Y2222500D01*
X5731103Y2236317D01*
X5728360Y2249881D01*
X5723940Y2263038D01*
X5717794Y2275433D01*
X5710123Y2286965D01*
X5700979Y2297379D01*
X5690565Y2306523D01*
X5679033Y2314194D01*
X5666638Y2320340D01*
X5653481Y2324760D01*
X5639917Y2327503D01*
X5626100Y2328367D01*
X5612282Y2327503D01*
X5598718Y2324760D01*
X5585561Y2320340D01*
X5573166Y2314194D01*
X5561634Y2306523D01*
X5551220Y2297379D01*
X5542076Y2286965D01*
X5534406Y2275433D01*
X5528259Y2263038D01*
X5523839Y2249881D01*
X5521096Y2236317D01*
X5520232Y2222500D01*
X5521096Y2208682D01*
X5523839Y2195118D01*
X5528259Y2181961D01*
X5534406Y2169566D01*
X5542076Y2158034D01*
X5551220Y2147620D01*
X5561634Y2138476D01*
X5573166Y2130806D01*
X5585561Y2124659D01*
X5598718Y2120239D01*
X5612282Y2117496D01*
G37*
G36*
X2730550Y2116632D02*
G01*
X2744368Y2117496D01*
X2757932Y2120239D01*
X2771038Y2124659D01*
X2783484Y2130806D01*
X2794965Y2138476D01*
X2805379Y2147620D01*
X2814523Y2158034D01*
X2822244Y2169566D01*
X2828340Y2181961D01*
X2832811Y2195118D01*
X2835503Y2208682D01*
X2836418Y2222500D01*
X2835503Y2236317D01*
X2832811Y2249881D01*
X2828340Y2263038D01*
X2822244Y2275433D01*
X2814523Y2286965D01*
X2805379Y2297379D01*
X2794965Y2306523D01*
X2783484Y2314194D01*
X2771038Y2320340D01*
X2757932Y2324760D01*
X2744368Y2327503D01*
X2730550Y2328367D01*
X2716682Y2327503D01*
X2703118Y2324760D01*
X2690012Y2320340D01*
X2677566Y2314194D01*
X2666085Y2306523D01*
X2655671Y2297379D01*
X2646527Y2286965D01*
X2638806Y2275433D01*
X2632710Y2263038D01*
X2628239Y2249881D01*
X2625547Y2236317D01*
X2624632Y2222500D01*
X2625547Y2208682D01*
X2628239Y2195118D01*
X2632710Y2181961D01*
X2638806Y2169566D01*
X2646527Y2158034D01*
X2655671Y2147620D01*
X2666085Y2138476D01*
X2677566Y2130806D01*
X2690012Y2124659D01*
X2703118Y2120239D01*
X2716682Y2117496D01*
G37*
G36*
X5473700Y105562D02*
G01*
X5478322Y105664D01*
X5501284Y108051D01*
X5523992Y112369D01*
X5546242Y118618D01*
X5567934Y126644D01*
X5588812Y136499D01*
X5608828Y148031D01*
X5627827Y161239D01*
X5645607Y175971D01*
X5662117Y192125D01*
X5677204Y209600D01*
X5690819Y228295D01*
X5702757Y248107D01*
X5713018Y268782D01*
X5721553Y290271D01*
X5728208Y312369D01*
X5733034Y334975D01*
X5735929Y357936D01*
X5736336Y368300D01*
X5473700Y368300D01*
G37*

%LPD*%
G36*
X4066743Y2539695D02*
G01*
X4062984Y2540101D01*
X4059682Y2541879D01*
X4054348Y2546146D01*
X4041698Y2554020D01*
X4028186Y2560218D01*
X4014012Y2564739D01*
X3999382Y2567482D01*
X3984548Y2568397D01*
X3969664Y2567482D01*
X3955034Y2564739D01*
X3940860Y2560218D01*
X3927348Y2554020D01*
X3914901Y2546299D01*
X3910888Y2544876D01*
X3906621Y2545232D01*
X3902862Y2547315D01*
X3900322Y2550769D01*
X3899408Y2554935D01*
X3899408Y4095191D01*
X3900170Y4099102D01*
X3902405Y4102404D01*
X3903979Y4103979D01*
X3909618Y4112056D01*
X3912412Y4114749D01*
X3916019Y4116222D01*
X3919880Y4116222D01*
X3923487Y4114749D01*
X3926281Y4112056D01*
X3931920Y4103979D01*
X3938879Y4097020D01*
X3946906Y4091381D01*
X3955846Y4087266D01*
X3965295Y4084726D01*
X3975100Y4083862D01*
X3984904Y4084726D01*
X3994353Y4087266D01*
X4003294Y4091381D01*
X4011320Y4097020D01*
X4018279Y4103979D01*
X4023918Y4112006D01*
X4028033Y4120946D01*
X4030573Y4130395D01*
X4031437Y4140200D01*
X4030573Y4150004D01*
X4028033Y4159453D01*
X4023918Y4168394D01*
X4018279Y4176420D01*
X4016705Y4177995D01*
X4014470Y4181297D01*
X4013708Y4185208D01*
X4013708Y4372864D01*
X4014571Y4377029D01*
X4017111Y4380433D01*
X4020769Y4382566D01*
X4022394Y4383074D01*
X4035907Y4389272D01*
X4048556Y4397095D01*
X4060190Y4406442D01*
X4070502Y4417110D01*
X4079494Y4428998D01*
X4086961Y4441901D01*
X4092752Y4455617D01*
X4095953Y4466894D01*
X4097985Y4470704D01*
X4101490Y4473346D01*
X4105706Y4474260D01*
X4109974Y4473346D01*
X4113428Y4470704D01*
X4115511Y4466894D01*
X4118711Y4455617D01*
X4124502Y4441901D01*
X4131970Y4428998D01*
X4140911Y4417110D01*
X4151274Y4406442D01*
X4162856Y4397095D01*
X4175556Y4389272D01*
X4184599Y4385106D01*
X4187698Y4382871D01*
X4189780Y4379671D01*
X4190492Y4375912D01*
X4190492Y4088282D01*
X4189628Y4084218D01*
X4187240Y4080814D01*
X4183684Y4078681D01*
X4179570Y4078122D01*
X4175607Y4079290D01*
X4172407Y4081932D01*
X4170527Y4085640D01*
X4167733Y4095953D01*
X4163618Y4104894D01*
X4157979Y4112920D01*
X4151020Y4119879D01*
X4142994Y4125518D01*
X4134053Y4129633D01*
X4124604Y4132173D01*
X4114800Y4133037D01*
X4104995Y4132173D01*
X4095546Y4129633D01*
X4086606Y4125518D01*
X4078579Y4119879D01*
X4071620Y4112920D01*
X4065981Y4104894D01*
X4061866Y4095953D01*
X4059326Y4086504D01*
X4058462Y4076700D01*
X4059326Y4066895D01*
X4061866Y4057446D01*
X4065981Y4048506D01*
X4071620Y4040479D01*
X4073194Y4038904D01*
X4075429Y4035602D01*
X4076192Y4031691D01*
X4076192Y2549804D01*
X4075480Y2546096D01*
X4073448Y2542895D01*
X4070400Y2540660D01*
G37*

%LPD*%
G36*
X5127548Y2468981D02*
G01*
X5123281Y2469946D01*
X5119827Y2472537D01*
X5117744Y2476398D01*
X5114544Y2487676D01*
X5111445Y2494991D01*
X5110632Y2498902D01*
X5111394Y2502814D01*
X5113629Y2506116D01*
X5360974Y2753664D01*
X5366054Y2759862D01*
X5369610Y2766568D01*
X5371795Y2773781D01*
X5372608Y2781808D01*
X5372608Y3302914D01*
X5373370Y3306826D01*
X5375605Y3310128D01*
X5378856Y3312312D01*
X5382768Y3313074D01*
X5448300Y3313074D01*
X5448300Y3416300D01*
X5382768Y3416300D01*
X5378856Y3417062D01*
X5375605Y3419297D01*
X5373370Y3422548D01*
X5372608Y3426460D01*
X5372608Y3431540D01*
X5373370Y3435451D01*
X5375605Y3438702D01*
X5378856Y3440937D01*
X5382768Y3441700D01*
X5448300Y3441700D01*
X5448300Y3544925D01*
X5402021Y3544925D01*
X5398160Y3545687D01*
X5394858Y3547872D01*
X5392674Y3551174D01*
X5391861Y3555085D01*
X5392674Y3558946D01*
X5394858Y3562248D01*
X5406136Y3573576D01*
X5409590Y3575812D01*
X5413654Y3576523D01*
X5418328Y3575253D01*
X5432196Y3570732D01*
X5446471Y3568039D01*
X5461000Y3567125D01*
X5475528Y3568039D01*
X5489803Y3570732D01*
X5503672Y3575253D01*
X5516829Y3581450D01*
X5529122Y3589223D01*
X5532780Y3592271D01*
X5536082Y3594100D01*
X5539892Y3594557D01*
X5543550Y3593642D01*
X5546648Y3591356D01*
X5548680Y3588156D01*
X5549392Y3584448D01*
X5549392Y3555085D01*
X5548630Y3551174D01*
X5546394Y3547872D01*
X5543143Y3545687D01*
X5539232Y3544925D01*
X5473700Y3544925D01*
X5473700Y3441700D01*
X5539232Y3441700D01*
X5543143Y3440937D01*
X5546394Y3438702D01*
X5548630Y3435451D01*
X5549392Y3431540D01*
X5549392Y3426460D01*
X5548630Y3422548D01*
X5546394Y3419297D01*
X5543143Y3417062D01*
X5539232Y3416300D01*
X5473700Y3416300D01*
X5473700Y3313074D01*
X5539232Y3313074D01*
X5543143Y3312312D01*
X5546394Y3310128D01*
X5548630Y3306826D01*
X5549392Y3302914D01*
X5549392Y2801467D01*
X5548630Y2797606D01*
X5546394Y2794304D01*
X5313019Y2560726D01*
X5309565Y2558440D01*
X5305552Y2557729D01*
X5301589Y2558643D01*
X5298186Y2560218D01*
X5284012Y2564739D01*
X5269382Y2567482D01*
X5254548Y2568397D01*
X5239664Y2567482D01*
X5225034Y2564739D01*
X5210860Y2560218D01*
X5197348Y2554020D01*
X5184698Y2546146D01*
X5173065Y2536850D01*
X5162702Y2526131D01*
X5153761Y2514244D01*
X5146294Y2501392D01*
X5140502Y2487676D01*
X5137302Y2476398D01*
X5135219Y2472537D01*
X5131765Y2469946D01*
G37*

%LPD*%
G36*
X4396892Y1421942D02*
G01*
X4393082Y1422400D01*
X4389780Y1424228D01*
X4386122Y1427226D01*
X4373829Y1435049D01*
X4362450Y1440383D01*
X4359351Y1442669D01*
X4357319Y1445869D01*
X4356608Y1449578D01*
X4356608Y1732991D01*
X4357370Y1736902D01*
X4359605Y1740204D01*
X4361180Y1741779D01*
X4366818Y1749806D01*
X4370933Y1758746D01*
X4373473Y1768195D01*
X4374337Y1778000D01*
X4373473Y1787804D01*
X4370933Y1797253D01*
X4366818Y1806193D01*
X4361180Y1814220D01*
X4354220Y1821180D01*
X4346194Y1826818D01*
X4337253Y1830933D01*
X4327804Y1833473D01*
X4318000Y1834337D01*
X4308195Y1833473D01*
X4305909Y1832864D01*
X4302201Y1832559D01*
X4298645Y1833625D01*
X4295698Y1835912D01*
X4293768Y1839061D01*
X4293108Y1842668D01*
X4293108Y1956917D01*
X4293971Y1960981D01*
X4296359Y1964385D01*
X4299915Y1966518D01*
X4304030Y1967077D01*
X4307992Y1965909D01*
X4311192Y1963267D01*
X4313072Y1959559D01*
X4315866Y1949246D01*
X4319981Y1940306D01*
X4325620Y1932279D01*
X4332579Y1925320D01*
X4340606Y1919681D01*
X4349546Y1915566D01*
X4358995Y1913026D01*
X4368800Y1912162D01*
X4378604Y1913026D01*
X4388053Y1915566D01*
X4391914Y1917344D01*
X4395876Y1918309D01*
X4399889Y1917649D01*
X4403293Y1915464D01*
X4405579Y1912112D01*
X4406392Y1908149D01*
X4406392Y1432052D01*
X4405680Y1428343D01*
X4403648Y1425092D01*
X4400550Y1422857D01*
G37*

%LPD*%
D10*
X5143500Y3949700D02*
G01*
X5143500Y4445000D01*
X5080000Y4013200D02*
G01*
X5080000Y4699000D01*
X5461000Y4699000D01*
X1092200Y2222500D02*
G01*
X1092200Y2444216D01*
X1088923Y2447493D01*
X762000Y1079500D02*
G01*
X635000Y1206500D01*
X635000Y2222500D01*
X1346200Y2159000D02*
G01*
X1346200Y2444216D01*
X1342925Y2447490D01*
X1016000Y1079500D02*
G01*
X889000Y1206500D01*
X889000Y2159000D01*
X1587500Y1968500D02*
G01*
X1587500Y2438064D01*
X1596925Y2447490D01*
X1270000Y1079500D02*
G01*
X1143000Y1206500D01*
X1143000Y1968500D01*
X1473200Y2159000D02*
G01*
X1473200Y3949700D01*
X1778000Y1079500D02*
G01*
X1651000Y1206500D01*
X1651000Y2159000D01*
X838200Y3949700D02*
G01*
X838200Y4495800D01*
X1092200Y4013200D02*
G01*
X1092200Y4495800D01*
X1778000Y1333500D02*
G01*
X1778000Y2260600D01*
X1727200Y2311400D01*
X1727200Y4013200D01*
X4229100Y3886200D02*
G01*
X4229100Y4492142D01*
X4232732Y4495774D01*
X2032000Y1079500D02*
G01*
X1905000Y1206500D01*
X1905000Y1422400D01*
X1981200Y1498600D01*
X1981200Y3886200D01*
X2286000Y1079500D02*
G01*
X2159000Y1206500D01*
X2159000Y1422400D01*
X2235200Y1498600D01*
X2235200Y4368800D01*
X2108200Y4495800D01*
X2286000Y1333500D02*
G01*
X2489200Y1536700D01*
X2489200Y4368800D01*
X2362200Y4495800D01*
X3467100Y3949700D02*
G01*
X3467100Y4492142D01*
X3470732Y4495774D01*
X2540000Y1333500D02*
G01*
X2552700Y1346200D01*
X2552700Y3949700D01*
X4025900Y1524000D02*
G01*
X4025900Y2406116D01*
X3984525Y2447490D01*
X2794000Y1079500D02*
G01*
X2667000Y1206500D01*
X2667000Y1524000D01*
X3746500Y1587500D02*
G01*
X3746500Y2431516D01*
X3730523Y2447493D01*
X3048000Y1079500D02*
G01*
X2921000Y1206500D01*
X2921000Y1587500D01*
X3721100Y4013200D02*
G01*
X3721100Y4492142D01*
X3724732Y4495774D01*
X3048000Y1333500D02*
G01*
X3048000Y1587500D01*
X2984500Y1651000D01*
X2984500Y4013200D01*
X4254500Y1651000D02*
G01*
X4254500Y2431516D01*
X4238523Y2447493D01*
X3302000Y1079500D02*
G01*
X3175000Y1206500D01*
X3175000Y1651000D01*
X3479800Y2159000D02*
G01*
X3479800Y2444216D01*
X3476523Y2447493D01*
X3302000Y1333500D02*
G01*
X3302000Y2159000D01*
X2349500Y1714500D02*
G01*
X2349500Y2438069D01*
X2358923Y2447493D01*
X3556000Y1333500D02*
G01*
X3556000Y1714500D01*
X571500Y1841500D02*
G01*
X571500Y2438064D01*
X580925Y2447490D01*
X3810000Y1079500D02*
G01*
X3683000Y1206500D01*
X3683000Y1841500D01*
X825500Y1778000D02*
G01*
X825500Y2438069D01*
X834923Y2447493D01*
X3810000Y1333500D02*
G01*
X3810000Y1778000D01*
X1854200Y1905000D02*
G01*
X1854200Y2444216D01*
X1850923Y2447493D01*
X4064000Y1079500D02*
G01*
X3937000Y1206500D01*
X3937000Y1905000D01*
X2108200Y1968500D02*
G01*
X2108200Y2444216D01*
X2104923Y2447493D01*
X4318000Y1079500D02*
G01*
X4191000Y1206500D01*
X4191000Y1968500D01*
X4508500Y1778000D02*
G01*
X4508500Y2431516D01*
X4492523Y2447493D01*
X4318000Y1333500D02*
G01*
X4318000Y1778000D01*
X3860800Y1841500D02*
G01*
X3860800Y4140200D01*
X4826000Y1079500D02*
G01*
X4699000Y1206500D01*
X4699000Y1841500D01*
X1346200Y4140200D02*
G01*
X1346200Y4495800D01*
X4114800Y1905000D02*
G01*
X4114800Y4076700D01*
X4826000Y1333500D02*
G01*
X4826000Y1905000D01*
X584200Y4076700D02*
G01*
X584200Y4495800D01*
X4737100Y2159000D02*
G01*
X4737100Y2438069D01*
X4746523Y2447493D01*
X4572000Y1079500D02*
G01*
X4445000Y1206500D01*
X4445000Y2159000D01*
X1270000Y2032000D02*
G01*
X1270000Y1333500D01*
X5000523Y2447493D02*
G01*
X5000523Y2032000D01*
X1524000Y2095500D02*
G01*
X1524000Y1333500D01*
X5254523Y2447493D02*
G01*
X5254523Y2095500D01*
X4368800Y1968500D02*
G01*
X4368800Y4140200D01*
X5080000Y1079500D02*
G01*
X4953000Y1206500D01*
X4953000Y1968500D01*
X4622800Y2222500D02*
G01*
X4622800Y4203700D01*
X5080000Y1333500D02*
G01*
X5080000Y2222500D01*
X4876800Y2286000D02*
G01*
X4876800Y4267200D01*
X5334000Y1333500D02*
G01*
X5334000Y2286000D01*
X3975100Y4140200D02*
G01*
X3975100Y4492142D01*
X3978734Y4495774D01*
X1600200Y4203700D02*
G01*
X1600200Y4495800D01*
X1854200Y4267200D02*
G01*
X1854200Y4495800D01*
X5461000Y4191000D02*
G01*
X5588000Y4318000D01*
X5588000Y5029200D01*
X5000497Y2447544D02*
G01*
X5334000Y2781300D01*
X5334000Y3556000D01*
X5461000Y3683000D01*
X5254497Y2447544D02*
G01*
X5588000Y2781300D01*
X5588000Y3810000D01*
X5461000Y3937000D01*
D11*
X698500Y5283200D02*
G01*
X381000Y4965700D01*
X381000Y1460500D01*
X508000Y1333500D01*
X63500Y1079500D02*
G01*
X63500Y5143500D01*
D12*
G01*
X5334000Y1333500D03*
G01*
X5334000Y1079500D03*
G01*
X5080000Y1333500D03*
G01*
X5080000Y1079500D03*
G01*
X4826000Y1333500D03*
G01*
X4826000Y1079500D03*
G01*
X4572000Y1333500D03*
G01*
X4572000Y1079500D03*
G01*
X4318000Y1333500D03*
G01*
X4318000Y1079500D03*
G01*
X4064000Y1333500D03*
G01*
X4064000Y1079500D03*
G01*
X3810000Y1333500D03*
G01*
X3810000Y1079500D03*
G01*
X3556000Y1333500D03*
G01*
X3556000Y1079500D03*
G01*
X3302000Y1333500D03*
G01*
X3302000Y1079500D03*
G01*
X3048000Y1333500D03*
G01*
X3048000Y1079500D03*
G01*
X2794000Y1333500D03*
G01*
X2794000Y1079500D03*
G01*
X2540000Y1333500D03*
G01*
X2540000Y1079500D03*
G01*
X2286000Y1333500D03*
G01*
X2286000Y1079500D03*
G01*
X2032000Y1333500D03*
G01*
X2032000Y1079500D03*
G01*
X1778000Y1333500D03*
G01*
X1778000Y1079500D03*
G01*
X1524000Y1333500D03*
G01*
X1524000Y1079500D03*
G01*
X1270000Y1333500D03*
G01*
X1270000Y1079500D03*
G01*
X1016000Y1333500D03*
G01*
X1016000Y1079500D03*
G01*
X762000Y1333500D03*
G01*
X762000Y1079500D03*
G01*
X508000Y1333500D03*
D13*
G01*
X508000Y1079500D03*
D12*
G01*
X5461000Y4191000D03*
D14*
G01*
X5461001Y3429000D03*
D12*
G01*
X5461000Y3683000D03*
G01*
X5461000Y3937000D03*
D15*
G01*
X381000Y5461000D03*
G01*
X5461000Y5461000D03*
G01*
X5461000Y381000D03*
G01*
X381000Y381000D03*
D16*
G01*
X2362200Y4495800D03*
G01*
X2108200Y4495800D03*
G01*
X1854200Y4495800D03*
G01*
X1600200Y4495800D03*
G01*
X1346200Y4495800D03*
G01*
X1092200Y4495800D03*
G01*
X838200Y4495800D03*
G01*
X584200Y4495800D03*
D12*
G01*
X4572000Y5588000D03*
G01*
X4572000Y5334000D03*
G01*
X4826000Y5334000D03*
G01*
X4826000Y5588000D03*
D16*
G01*
X2358923Y2447493D03*
G01*
X2104923Y2447493D03*
G01*
X1850923Y2447493D03*
G01*
X1596923Y2447493D03*
G01*
X1342923Y2447493D03*
G01*
X1088923Y2447493D03*
G01*
X834923Y2447493D03*
G01*
X580923Y2447493D03*
G01*
X5254523Y2447493D03*
G01*
X5000523Y2447493D03*
G01*
X4746523Y2447493D03*
G01*
X4492523Y2447493D03*
G01*
X4238523Y2447493D03*
G01*
X3984523Y2447493D03*
G01*
X3730523Y2447493D03*
G01*
X3476523Y2447493D03*
D17*
G01*
X5461000Y4445000D03*
G01*
X5461000Y4699000D03*
G01*
X3302000Y5334000D03*
G01*
X3556000Y5334000D03*
G01*
X3556000Y5588000D03*
G01*
X3302000Y5588000D03*
D16*
G01*
X3724732Y4495774D03*
G01*
X3978732Y4495774D03*
G01*
X4232732Y4495774D03*
G01*
X3470732Y4495774D03*
D18*
G01*
X63500Y1079500D03*
G01*
X63500Y5143500D03*
G01*
X698500Y5283200D03*
G01*
X5588000Y5029200D03*
G01*
X4876800Y4267200D03*
G01*
X1854200Y4267200D03*
G01*
X4622800Y4203700D03*
G01*
X1600200Y4203700D03*
G01*
X4368800Y4140200D03*
G01*
X3975100Y4140200D03*
G01*
X5334000Y2286000D03*
G01*
X4876800Y2286000D03*
G01*
X5080000Y2222500D03*
G01*
X4622800Y2222500D03*
G01*
X4953000Y1968500D03*
G01*
X4368800Y1968500D03*
G01*
X5254523Y2095500D03*
G01*
X1524000Y2095500D03*
G01*
X5000523Y2032000D03*
G01*
X1270000Y2032000D03*
G01*
X4445000Y2159000D03*
G01*
X4737100Y2159000D03*
G01*
X4114800Y4076700D03*
G01*
X584200Y4076700D03*
G01*
X4826000Y1905000D03*
G01*
X4114800Y1905000D03*
G01*
X3860800Y4140200D03*
G01*
X1346200Y4140200D03*
G01*
X4699000Y1841500D03*
G01*
X3860800Y1841500D03*
G01*
X4318000Y1778000D03*
G01*
X4508500Y1778000D03*
G01*
X4191000Y1968500D03*
G01*
X2108200Y1968500D03*
G01*
X3937000Y1905000D03*
G01*
X1854200Y1905000D03*
G01*
X3810000Y1778000D03*
G01*
X825500Y1778000D03*
G01*
X3683000Y1841500D03*
G01*
X571500Y1841500D03*
G01*
X3556000Y1714500D03*
G01*
X2349500Y1714500D03*
G01*
X3302000Y2159000D03*
G01*
X3479800Y2159000D03*
G01*
X3175000Y1651000D03*
G01*
X4254500Y1651000D03*
G01*
X2984500Y4013200D03*
G01*
X3721100Y4013200D03*
G01*
X2921000Y1587500D03*
G01*
X3746500Y1587500D03*
G01*
X2667000Y1524000D03*
G01*
X4025900Y1524000D03*
G01*
X2552700Y3949700D03*
G01*
X3467100Y3949700D03*
G01*
X1981200Y3886200D03*
G01*
X4229100Y3886200D03*
G01*
X1727200Y4013200D03*
G01*
X1092200Y4013200D03*
G01*
X1473200Y3949700D03*
G01*
X838200Y3949700D03*
G01*
X1651000Y2159000D03*
G01*
X1473200Y2159000D03*
G01*
X1143000Y1968500D03*
G01*
X1587500Y1968500D03*
G01*
X889000Y2159000D03*
G01*
X1346200Y2159000D03*
G01*
X635000Y2222500D03*
G01*
X1092200Y2222500D03*
G01*
X5080000Y4013200D03*
G01*
X5143500Y3949700D03*
G01*
X5143500Y4445000D03*
G01*
X4013200Y5575300D03*
G01*
X215900Y4533900D03*
G01*
X2362200Y2641600D03*
G01*
X3987800Y2641600D03*
G01*
X762000Y1524000D03*
G01*
X1866900Y1524000D03*
G01*
X2349500Y1524000D03*
G01*
X1714500Y1524000D03*
G01*
X1587500Y1524000D03*
G01*
X4381500Y1524000D03*
M02*
