G04 Layer: TopLayer*
G04 EasyEDA v6.5.32, 2023-07-25 15:13:50*
G04 a282f81a537d4805a8fc574f192bbdcb,5a6b42c53f6a479593ecc07194224c93,10*
G04 Gerber Generator version 0.2*
G04 Scale: 100 percent, Rotated: No, Reflected: No *
G04 Dimensions in millimeters *
G04 leading zeros omitted , absolute positions ,4 integer and 5 decimal *
%FSLAX45Y45*%
%MOMM*%

%AMMACRO1*21,1,$1,$2,0,0,$3*%
%ADD10C,0.6350*%
%ADD11C,0.2540*%
%ADD12C,0.6250*%
%ADD13R,0.8999X1.0000*%
%ADD14R,1.0000X1.1000*%
%ADD15C,1.8000*%
%ADD16R,1.8000X1.8000*%
%ADD17MACRO1,1.8X1.7X-90.0000*%
%ADD18C,5.0000*%
%ADD19C,1.9000*%
%ADD20C,1.7000*%
%ADD21C,0.6096*%
%ADD22C,0.0130*%

%LPD*%
G36*
X36220Y5195112D02*
G01*
X32308Y5195824D01*
X28956Y5198008D01*
X26720Y5201361D01*
X25908Y5205272D01*
X25908Y5805932D01*
X26670Y5809843D01*
X28905Y5813094D01*
X32156Y5815330D01*
X36068Y5816092D01*
X3678682Y5816092D01*
X3682644Y5815279D01*
X3685997Y5812942D01*
X3688181Y5809538D01*
X3688842Y5805525D01*
X3687826Y5801563D01*
X3685387Y5798312D01*
X3680104Y5793638D01*
X3585972Y5699556D01*
X3583228Y5697575D01*
X3579926Y5696610D01*
X3576574Y5696813D01*
X3573678Y5697474D01*
X3559556Y5698845D01*
X3545332Y5698388D01*
X3531311Y5696102D01*
X3517696Y5692038D01*
X3504692Y5686298D01*
X3492550Y5678932D01*
X3481425Y5670092D01*
X3471570Y5659882D01*
X3463086Y5648502D01*
X3456076Y5636107D01*
X3450742Y5622950D01*
X3447135Y5609183D01*
X3445357Y5595112D01*
X3445357Y5580888D01*
X3447135Y5566816D01*
X3450742Y5553049D01*
X3456076Y5539892D01*
X3463086Y5527497D01*
X3471773Y5515864D01*
X3473602Y5511749D01*
X3473500Y5507329D01*
X3471468Y5503316D01*
X3467963Y5500573D01*
X3463645Y5499608D01*
X3429508Y5499608D01*
X3421481Y5498795D01*
X3414268Y5496610D01*
X3407562Y5493054D01*
X3401364Y5487924D01*
X3352901Y5439460D01*
X3349701Y5437327D01*
X3345942Y5436514D01*
X3342182Y5437124D01*
X3333546Y5440324D01*
X3319678Y5443474D01*
X3305556Y5444845D01*
X3291332Y5444388D01*
X3277311Y5442102D01*
X3263696Y5438038D01*
X3259531Y5436209D01*
X3255619Y5435346D01*
X3251708Y5436057D01*
X3248355Y5438241D01*
X3246069Y5441543D01*
X3245256Y5445455D01*
X3246018Y5449366D01*
X3248253Y5452668D01*
X3272028Y5476494D01*
X3274618Y5478373D01*
X3277615Y5479338D01*
X3280816Y5479338D01*
X3291332Y5477611D01*
X3305556Y5477154D01*
X3319678Y5478526D01*
X3333546Y5481675D01*
X3346907Y5486603D01*
X3359505Y5493156D01*
X3371138Y5501284D01*
X3381654Y5510834D01*
X3390849Y5521655D01*
X3398621Y5533593D01*
X3404768Y5546394D01*
X3409238Y5559856D01*
X3411982Y5573826D01*
X3412896Y5588000D01*
X3411982Y5602173D01*
X3409238Y5616143D01*
X3404768Y5629605D01*
X3398621Y5642406D01*
X3390849Y5654344D01*
X3381654Y5665165D01*
X3371138Y5674715D01*
X3359505Y5682843D01*
X3346907Y5689396D01*
X3333546Y5694324D01*
X3319678Y5697474D01*
X3305556Y5698845D01*
X3291332Y5698388D01*
X3277311Y5696102D01*
X3263696Y5692038D01*
X3250692Y5686298D01*
X3238550Y5678932D01*
X3227425Y5670092D01*
X3217570Y5659882D01*
X3209086Y5648502D01*
X3202076Y5636107D01*
X3196742Y5622950D01*
X3193135Y5609183D01*
X3191357Y5595112D01*
X3191357Y5580888D01*
X3193237Y5566359D01*
X3193135Y5563260D01*
X3192170Y5560364D01*
X3190341Y5557875D01*
X2976270Y5343855D01*
X2973019Y5341620D01*
X2969107Y5340858D01*
X698906Y5340858D01*
X689000Y5340045D01*
X679805Y5337708D01*
X671068Y5333898D01*
X663092Y5328666D01*
X656082Y5322214D01*
X650240Y5314696D01*
X645718Y5306364D01*
X642620Y5297322D01*
X641096Y5287975D01*
X641096Y5278424D01*
X642620Y5269077D01*
X645718Y5260035D01*
X650240Y5251704D01*
X656082Y5244185D01*
X663092Y5237734D01*
X671068Y5232501D01*
X679805Y5228691D01*
X689000Y5226354D01*
X698906Y5225542D01*
X2996793Y5225542D01*
X3006699Y5226354D01*
X3015894Y5228691D01*
X3024632Y5232501D01*
X3032658Y5237784D01*
X3038195Y5242661D01*
X3183331Y5387797D01*
X3186633Y5389981D01*
X3190494Y5390794D01*
X3194405Y5390032D01*
X3197656Y5387848D01*
X3199892Y5384546D01*
X3200704Y5380685D01*
X3199942Y5376824D01*
X3196742Y5368950D01*
X3193135Y5355183D01*
X3191357Y5341112D01*
X3191357Y5326888D01*
X3193237Y5312359D01*
X3193135Y5309260D01*
X3192170Y5306364D01*
X3190341Y5303875D01*
X3090570Y5204155D01*
X3087319Y5201920D01*
X3083407Y5201158D01*
X520141Y5201158D01*
X515874Y5202123D01*
X512368Y5204764D01*
X510336Y5208676D01*
X510184Y5213096D01*
X511860Y5217160D01*
X515061Y5220106D01*
X528828Y5228031D01*
X547827Y5241239D01*
X565607Y5255971D01*
X582117Y5272125D01*
X597204Y5289600D01*
X610819Y5308295D01*
X622757Y5328107D01*
X633018Y5348782D01*
X641553Y5370271D01*
X648208Y5392369D01*
X653034Y5414975D01*
X655929Y5437936D01*
X656336Y5448300D01*
X393700Y5448300D01*
X393700Y5211318D01*
X392938Y5207406D01*
X390702Y5204155D01*
X387400Y5201920D01*
X383540Y5201158D01*
X378460Y5201158D01*
X374548Y5201920D01*
X371246Y5204155D01*
X369062Y5207406D01*
X368300Y5211318D01*
X368300Y5448300D01*
X105410Y5448300D01*
X107289Y5426405D01*
X111150Y5403646D01*
X116890Y5381244D01*
X124460Y5359450D01*
X133858Y5338318D01*
X144983Y5318099D01*
X157784Y5298846D01*
X172161Y5280710D01*
X187960Y5263896D01*
X205130Y5248402D01*
X223520Y5234432D01*
X243027Y5222087D01*
X246379Y5220309D01*
X249783Y5217414D01*
X251612Y5213350D01*
X251561Y5208879D01*
X249529Y5204917D01*
X246024Y5202123D01*
X241655Y5201158D01*
X63906Y5201158D01*
X54000Y5200345D01*
X44805Y5198008D01*
X40132Y5195976D01*
G37*

%LPC*%
G36*
X393700Y5473700D02*
G01*
X656336Y5473700D01*
X655929Y5484063D01*
X653034Y5507024D01*
X648208Y5529630D01*
X641553Y5551728D01*
X633018Y5573217D01*
X622757Y5593892D01*
X610819Y5613704D01*
X597204Y5632348D01*
X582117Y5649874D01*
X565607Y5666028D01*
X547827Y5680760D01*
X528828Y5693968D01*
X508812Y5705500D01*
X487934Y5715355D01*
X466242Y5723382D01*
X443992Y5729630D01*
X421284Y5733948D01*
X398322Y5736336D01*
X393700Y5736437D01*
G37*
G36*
X105410Y5473700D02*
G01*
X368300Y5473700D01*
X368300Y5736386D01*
X352145Y5735370D01*
X329285Y5732018D01*
X306781Y5726734D01*
X284835Y5719572D01*
X263499Y5710631D01*
X243027Y5699912D01*
X223520Y5687568D01*
X205130Y5673598D01*
X187960Y5658104D01*
X172161Y5641289D01*
X157784Y5623153D01*
X144983Y5603900D01*
X133858Y5583682D01*
X124460Y5562549D01*
X116890Y5540756D01*
X111150Y5518353D01*
X107289Y5495594D01*
G37*

%LPD*%
G36*
X5805932Y25908D02*
G01*
X36068Y26416D01*
X32156Y27178D01*
X28905Y29413D01*
X26670Y32664D01*
X25908Y36576D01*
X25908Y1017727D01*
X26720Y1021638D01*
X28956Y1024991D01*
X32308Y1027176D01*
X36220Y1027887D01*
X40132Y1027023D01*
X44805Y1024991D01*
X54000Y1022654D01*
X63906Y1021842D01*
X381914Y1021842D01*
X385826Y1021080D01*
X389128Y1018844D01*
X391312Y1015593D01*
X392074Y1011682D01*
X392074Y990041D01*
X392785Y983742D01*
X394716Y978255D01*
X397814Y973378D01*
X401878Y969264D01*
X406806Y966216D01*
X412242Y964285D01*
X418592Y963574D01*
X538886Y963574D01*
X542747Y962812D01*
X546049Y960628D01*
X721309Y785368D01*
X728827Y779018D01*
X736904Y774192D01*
X745693Y770737D01*
X755040Y768807D01*
X762304Y768350D01*
X2285593Y768350D01*
X2295398Y769162D01*
X2304542Y771448D01*
X2313178Y775258D01*
X2321153Y780491D01*
X2326640Y785317D01*
X2505202Y963879D01*
X2507843Y965758D01*
X2510993Y966724D01*
X2514295Y966673D01*
X2525471Y964539D01*
X2540000Y963625D01*
X2554528Y964539D01*
X2568803Y967232D01*
X2582672Y971753D01*
X2595829Y977950D01*
X2608122Y985723D01*
X2619349Y995019D01*
X2629306Y1005636D01*
X2637840Y1017371D01*
X2644851Y1030173D01*
X2650236Y1043686D01*
X2653842Y1057757D01*
X2655671Y1072235D01*
X2655671Y1086764D01*
X2653842Y1101191D01*
X2650236Y1115314D01*
X2644851Y1128826D01*
X2637840Y1141577D01*
X2629306Y1153363D01*
X2619349Y1163980D01*
X2608122Y1173226D01*
X2595829Y1181049D01*
X2582672Y1187246D01*
X2568803Y1191717D01*
X2554528Y1194460D01*
X2540000Y1195374D01*
X2525471Y1194460D01*
X2511196Y1191717D01*
X2497328Y1187246D01*
X2484170Y1181049D01*
X2471877Y1173226D01*
X2460650Y1163980D01*
X2450693Y1153363D01*
X2442159Y1141577D01*
X2435148Y1128826D01*
X2429814Y1115314D01*
X2426157Y1101191D01*
X2424328Y1086764D01*
X2424328Y1072235D01*
X2426157Y1057757D01*
X2427020Y1054404D01*
X2427325Y1050950D01*
X2426360Y1047546D01*
X2424379Y1044702D01*
X2413101Y1033424D01*
X2409393Y1031087D01*
X2405075Y1030528D01*
X2400909Y1031798D01*
X2397658Y1034745D01*
X2395931Y1038758D01*
X2396083Y1043178D01*
X2399842Y1057757D01*
X2401671Y1072235D01*
X2401671Y1086764D01*
X2399842Y1101191D01*
X2396236Y1115314D01*
X2390851Y1128826D01*
X2383840Y1141577D01*
X2375306Y1153363D01*
X2365349Y1163980D01*
X2354122Y1173226D01*
X2341829Y1181049D01*
X2328672Y1187246D01*
X2314803Y1191717D01*
X2300528Y1194460D01*
X2286000Y1195374D01*
X2271471Y1194460D01*
X2257196Y1191717D01*
X2243328Y1187246D01*
X2230170Y1181049D01*
X2217877Y1173226D01*
X2206650Y1163980D01*
X2196693Y1153363D01*
X2188159Y1141577D01*
X2181148Y1128826D01*
X2175814Y1115314D01*
X2172157Y1101191D01*
X2170328Y1086764D01*
X2170328Y1072235D01*
X2172157Y1057757D01*
X2175814Y1043686D01*
X2181148Y1030173D01*
X2188159Y1017371D01*
X2196693Y1005636D01*
X2206650Y995019D01*
X2217877Y985723D01*
X2230170Y977950D01*
X2243328Y971753D01*
X2257196Y967232D01*
X2271471Y964539D01*
X2286000Y963625D01*
X2300528Y964539D01*
X2314803Y967232D01*
X2322118Y969619D01*
X2326589Y970026D01*
X2330805Y968451D01*
X2333904Y965250D01*
X2335326Y961034D01*
X2334818Y956564D01*
X2332431Y952753D01*
X2265324Y885647D01*
X2262022Y883412D01*
X2258110Y882650D01*
X789889Y882650D01*
X785977Y883412D01*
X782675Y885647D01*
X715568Y952753D01*
X713181Y956564D01*
X712622Y961034D01*
X714095Y965250D01*
X717194Y968451D01*
X721410Y970026D01*
X725881Y969619D01*
X733196Y967232D01*
X747471Y964539D01*
X762000Y963625D01*
X776528Y964539D01*
X790803Y967232D01*
X804672Y971753D01*
X817829Y977950D01*
X830122Y985723D01*
X841349Y995019D01*
X851306Y1005636D01*
X859840Y1017371D01*
X866851Y1030173D01*
X872236Y1043686D01*
X875842Y1057757D01*
X877671Y1072235D01*
X877671Y1086764D01*
X875842Y1101191D01*
X872236Y1115314D01*
X866851Y1128826D01*
X859840Y1141577D01*
X851306Y1153363D01*
X841349Y1163980D01*
X830122Y1173226D01*
X817829Y1181049D01*
X804672Y1187246D01*
X790803Y1191717D01*
X776528Y1194460D01*
X762000Y1195374D01*
X747471Y1194460D01*
X733196Y1191717D01*
X719328Y1187246D01*
X706170Y1181049D01*
X693877Y1173226D01*
X682650Y1163980D01*
X672693Y1153363D01*
X664159Y1141577D01*
X657148Y1128826D01*
X651814Y1115314D01*
X648157Y1101191D01*
X646328Y1086764D01*
X646328Y1072235D01*
X648157Y1057757D01*
X651916Y1043127D01*
X652068Y1038758D01*
X650392Y1034745D01*
X647141Y1031798D01*
X642924Y1030478D01*
X638606Y1031087D01*
X634898Y1033424D01*
X626872Y1041450D01*
X624687Y1044752D01*
X623925Y1048613D01*
X623925Y1168908D01*
X623214Y1175258D01*
X621284Y1180693D01*
X618185Y1185621D01*
X614121Y1189685D01*
X609193Y1192784D01*
X603758Y1194663D01*
X597458Y1195374D01*
X418592Y1195374D01*
X412242Y1194663D01*
X406806Y1192784D01*
X401878Y1189685D01*
X397814Y1185621D01*
X394716Y1180693D01*
X392785Y1175258D01*
X392074Y1168908D01*
X392074Y1147318D01*
X391312Y1143406D01*
X389128Y1140155D01*
X385826Y1137920D01*
X381914Y1137158D01*
X63906Y1137158D01*
X54000Y1136345D01*
X44805Y1134008D01*
X40132Y1131976D01*
X36220Y1131112D01*
X32308Y1131824D01*
X28956Y1134008D01*
X26720Y1137361D01*
X25908Y1141272D01*
X25908Y5081727D01*
X26720Y5085638D01*
X28956Y5088991D01*
X32308Y5091176D01*
X36220Y5091887D01*
X40132Y5091023D01*
X44805Y5088991D01*
X54000Y5086654D01*
X63906Y5085842D01*
X3111093Y5085842D01*
X3120999Y5086654D01*
X3130194Y5088991D01*
X3138932Y5092801D01*
X3146958Y5098084D01*
X3152495Y5102961D01*
X3272028Y5222494D01*
X3274618Y5224373D01*
X3277615Y5225338D01*
X3280816Y5225338D01*
X3291332Y5223611D01*
X3305556Y5223154D01*
X3319678Y5224526D01*
X3333546Y5227675D01*
X3342182Y5230876D01*
X3345942Y5231485D01*
X3349701Y5230672D01*
X3352901Y5228539D01*
X3579164Y5002276D01*
X3585362Y4997145D01*
X3592068Y4993589D01*
X3599281Y4991404D01*
X3607308Y4990592D01*
X5542991Y4990592D01*
X5546902Y4989830D01*
X5550204Y4987594D01*
X5551779Y4986020D01*
X5559806Y4980381D01*
X5568746Y4976266D01*
X5578195Y4973726D01*
X5588000Y4972862D01*
X5597804Y4973726D01*
X5607253Y4976266D01*
X5616194Y4980381D01*
X5624220Y4986020D01*
X5631180Y4992979D01*
X5636818Y5001006D01*
X5640933Y5009946D01*
X5643473Y5019395D01*
X5644337Y5029200D01*
X5643473Y5039004D01*
X5640933Y5048453D01*
X5636818Y5057394D01*
X5631180Y5065420D01*
X5624220Y5072380D01*
X5616194Y5078018D01*
X5607253Y5082133D01*
X5597804Y5084673D01*
X5588000Y5085537D01*
X5578195Y5084673D01*
X5568746Y5082133D01*
X5559806Y5078018D01*
X5551779Y5072380D01*
X5550204Y5070805D01*
X5546902Y5068570D01*
X5542991Y5067808D01*
X3627018Y5067808D01*
X3623106Y5068570D01*
X3619804Y5070805D01*
X3407562Y5282996D01*
X3405479Y5286095D01*
X3404615Y5289702D01*
X3405124Y5293410D01*
X3409238Y5305856D01*
X3411982Y5319826D01*
X3412896Y5334000D01*
X3411982Y5348173D01*
X3409238Y5362143D01*
X3405124Y5374589D01*
X3404615Y5378297D01*
X3405479Y5381904D01*
X3407562Y5385003D01*
X3442004Y5419394D01*
X3445306Y5421630D01*
X3449218Y5422392D01*
X3463645Y5422392D01*
X3467963Y5421426D01*
X3471468Y5418683D01*
X3473500Y5414670D01*
X3473602Y5410250D01*
X3471773Y5406136D01*
X3463086Y5394502D01*
X3456076Y5382107D01*
X3450742Y5368950D01*
X3447135Y5355183D01*
X3445357Y5341112D01*
X3445357Y5326888D01*
X3447135Y5312816D01*
X3450742Y5299049D01*
X3456076Y5285892D01*
X3463086Y5273497D01*
X3471570Y5262118D01*
X3481425Y5251907D01*
X3492550Y5243068D01*
X3504692Y5235702D01*
X3517696Y5229910D01*
X3531311Y5225897D01*
X3545332Y5223611D01*
X3559556Y5223154D01*
X3573678Y5224526D01*
X3576574Y5225186D01*
X3579926Y5225389D01*
X3583228Y5224424D01*
X3585972Y5222443D01*
X3692753Y5115712D01*
X3700322Y5109311D01*
X3708501Y5104434D01*
X3717340Y5100980D01*
X3726789Y5098999D01*
X3734104Y5098542D01*
X4774793Y5098542D01*
X4784699Y5099354D01*
X4793894Y5101691D01*
X4802632Y5105501D01*
X4810658Y5110784D01*
X4816195Y5115661D01*
X4866487Y5165953D01*
X4872888Y5173522D01*
X4877765Y5181701D01*
X4881219Y5190540D01*
X4883200Y5199989D01*
X4883658Y5207304D01*
X4883658Y5227726D01*
X4884166Y5230876D01*
X4885588Y5233720D01*
X4887823Y5235956D01*
X4899863Y5244693D01*
X4910480Y5254650D01*
X4919776Y5265877D01*
X4927549Y5278170D01*
X4933746Y5291328D01*
X4938268Y5305196D01*
X4940960Y5319471D01*
X4941874Y5334000D01*
X4940960Y5348528D01*
X4938268Y5362803D01*
X4933746Y5376672D01*
X4927549Y5389829D01*
X4919776Y5402122D01*
X4910480Y5413349D01*
X4899863Y5423306D01*
X4888077Y5431840D01*
X4875326Y5438851D01*
X4861814Y5444236D01*
X4847691Y5447842D01*
X4833264Y5449671D01*
X4818735Y5449671D01*
X4804308Y5447842D01*
X4790186Y5444236D01*
X4776673Y5438851D01*
X4763922Y5431840D01*
X4752136Y5423306D01*
X4741519Y5413349D01*
X4732223Y5402122D01*
X4724450Y5389829D01*
X4718253Y5376672D01*
X4713732Y5362803D01*
X4711039Y5348528D01*
X4710125Y5334000D01*
X4711039Y5319471D01*
X4713732Y5305196D01*
X4718253Y5291328D01*
X4724450Y5278170D01*
X4732223Y5265877D01*
X4741519Y5254650D01*
X4752136Y5244693D01*
X4759909Y5239054D01*
X4762804Y5235803D01*
X4764074Y5231638D01*
X4763465Y5227320D01*
X4761128Y5223662D01*
X4754270Y5216855D01*
X4751019Y5214620D01*
X4747107Y5213858D01*
X4633112Y5213858D01*
X4628794Y5214823D01*
X4625289Y5217566D01*
X4623257Y5221478D01*
X4623155Y5225897D01*
X4624882Y5230012D01*
X4628235Y5232908D01*
X4634077Y5236159D01*
X4645863Y5244693D01*
X4656480Y5254650D01*
X4665776Y5265877D01*
X4673549Y5278170D01*
X4679746Y5291328D01*
X4684268Y5305196D01*
X4686960Y5319471D01*
X4687112Y5321300D01*
X4584700Y5321300D01*
X4584700Y5224018D01*
X4583938Y5220106D01*
X4581702Y5216855D01*
X4578451Y5214620D01*
X4574540Y5213858D01*
X4569460Y5213858D01*
X4565548Y5214620D01*
X4562297Y5216855D01*
X4560062Y5220106D01*
X4559300Y5224018D01*
X4559300Y5321300D01*
X4456887Y5321300D01*
X4457039Y5319471D01*
X4459732Y5305196D01*
X4464253Y5291328D01*
X4470450Y5278170D01*
X4478223Y5265877D01*
X4487519Y5254650D01*
X4498136Y5244693D01*
X4509922Y5236159D01*
X4515764Y5232908D01*
X4519117Y5230012D01*
X4520844Y5225897D01*
X4520742Y5221478D01*
X4518710Y5217566D01*
X4515205Y5214823D01*
X4510887Y5213858D01*
X3761892Y5213858D01*
X3757980Y5214620D01*
X3754729Y5216855D01*
X3667455Y5304078D01*
X3665575Y5306720D01*
X3664610Y5309920D01*
X3664661Y5313172D01*
X3665982Y5319826D01*
X3666896Y5334000D01*
X3665982Y5348173D01*
X3663238Y5362143D01*
X3658768Y5375605D01*
X3652621Y5388406D01*
X3644849Y5400344D01*
X3640328Y5405628D01*
X3638448Y5408980D01*
X3637940Y5412790D01*
X3638854Y5416499D01*
X3641090Y5419598D01*
X3644290Y5421680D01*
X3648049Y5422392D01*
X3891381Y5422392D01*
X3895293Y5421630D01*
X3898595Y5419394D01*
X3972864Y5345176D01*
X3979062Y5340045D01*
X3985768Y5336489D01*
X3992981Y5334304D01*
X4001008Y5333492D01*
X4063034Y5333492D01*
X4066946Y5332730D01*
X4070197Y5330494D01*
X4072432Y5327243D01*
X4073194Y5323332D01*
X4073194Y5317693D01*
X4073906Y5311343D01*
X4075836Y5305907D01*
X4078884Y5300980D01*
X4082999Y5296916D01*
X4087876Y5293817D01*
X4093362Y5291886D01*
X4099661Y5291175D01*
X4198518Y5291175D01*
X4204868Y5291886D01*
X4210304Y5293817D01*
X4215231Y5296916D01*
X4219295Y5300980D01*
X4220514Y5302859D01*
X4223308Y5305806D01*
X4227068Y5307431D01*
X4231132Y5307431D01*
X4234891Y5305806D01*
X4237685Y5302859D01*
X4238904Y5300980D01*
X4242968Y5296916D01*
X4247896Y5293817D01*
X4253331Y5291886D01*
X4259681Y5291175D01*
X4358538Y5291175D01*
X4364837Y5291886D01*
X4370324Y5293817D01*
X4375200Y5296916D01*
X4379315Y5300980D01*
X4382363Y5305907D01*
X4384294Y5311343D01*
X4385005Y5317693D01*
X4385005Y5426506D01*
X4384294Y5432856D01*
X4382363Y5438292D01*
X4379315Y5443220D01*
X4375200Y5447284D01*
X4370324Y5450382D01*
X4364939Y5452262D01*
X4356862Y5453075D01*
X4353306Y5454091D01*
X4350308Y5456326D01*
X4348378Y5459526D01*
X4347667Y5463184D01*
X4347667Y5489244D01*
X4348378Y5492902D01*
X4350308Y5496052D01*
X4353306Y5498287D01*
X4356862Y5499354D01*
X4364888Y5500116D01*
X4370324Y5501995D01*
X4375200Y5505094D01*
X4379315Y5509158D01*
X4382363Y5514086D01*
X4384294Y5519521D01*
X4385005Y5525871D01*
X4385005Y5624728D01*
X4384294Y5631027D01*
X4382363Y5636514D01*
X4379315Y5641390D01*
X4375200Y5645505D01*
X4370324Y5648604D01*
X4364837Y5650484D01*
X4358538Y5651195D01*
X4269689Y5651195D01*
X4263339Y5650484D01*
X4257903Y5648604D01*
X4252976Y5645505D01*
X4248912Y5641390D01*
X4245813Y5636514D01*
X4243882Y5631027D01*
X4243171Y5624728D01*
X4243171Y5525871D01*
X4243882Y5519521D01*
X4245813Y5514086D01*
X4248912Y5509158D01*
X4252976Y5505094D01*
X4257903Y5501995D01*
X4263694Y5499963D01*
X4267200Y5497830D01*
X4269638Y5494477D01*
X4270451Y5490413D01*
X4270451Y5463184D01*
X4269790Y5459526D01*
X4267860Y5456326D01*
X4264863Y5454091D01*
X4261307Y5453075D01*
X4253280Y5452262D01*
X4247896Y5450382D01*
X4242968Y5447284D01*
X4238904Y5443220D01*
X4237685Y5441340D01*
X4234891Y5438394D01*
X4231132Y5436768D01*
X4227068Y5436768D01*
X4223308Y5438394D01*
X4220514Y5441340D01*
X4219295Y5443220D01*
X4215231Y5447284D01*
X4210304Y5450382D01*
X4204868Y5452313D01*
X4198518Y5453024D01*
X4099661Y5453024D01*
X4093362Y5452313D01*
X4087876Y5450382D01*
X4082999Y5447284D01*
X4078884Y5443220D01*
X4075836Y5438292D01*
X4073906Y5432856D01*
X4073194Y5426506D01*
X4073194Y5420868D01*
X4072432Y5416956D01*
X4070197Y5413705D01*
X4066946Y5411470D01*
X4063034Y5410708D01*
X4020718Y5410708D01*
X4016806Y5411470D01*
X4013504Y5413705D01*
X3939235Y5487924D01*
X3933037Y5493054D01*
X3926332Y5496610D01*
X3919118Y5498795D01*
X3911092Y5499608D01*
X3648049Y5499608D01*
X3644290Y5500319D01*
X3641090Y5502402D01*
X3638854Y5505500D01*
X3637940Y5509209D01*
X3638448Y5513019D01*
X3640328Y5516372D01*
X3644849Y5521655D01*
X3652621Y5533593D01*
X3658768Y5546394D01*
X3663238Y5559856D01*
X3665982Y5573826D01*
X3666896Y5588000D01*
X3665982Y5602173D01*
X3664661Y5608828D01*
X3664610Y5612079D01*
X3665575Y5615279D01*
X3667455Y5617921D01*
X3742029Y5692444D01*
X3745280Y5694680D01*
X3749192Y5695442D01*
X4491837Y5695442D01*
X4495800Y5694629D01*
X4499102Y5692394D01*
X4501286Y5688990D01*
X4501997Y5685078D01*
X4501134Y5681116D01*
X4498797Y5677865D01*
X4487519Y5667298D01*
X4478223Y5656122D01*
X4470450Y5643829D01*
X4464253Y5630672D01*
X4459732Y5616803D01*
X4457039Y5602528D01*
X4456887Y5600700D01*
X4559300Y5600700D01*
X4559300Y5685282D01*
X4560062Y5689193D01*
X4562297Y5692444D01*
X4565548Y5694680D01*
X4569460Y5695442D01*
X4574540Y5695442D01*
X4578451Y5694680D01*
X4581702Y5692444D01*
X4583938Y5689193D01*
X4584700Y5685282D01*
X4584700Y5600700D01*
X4687112Y5600700D01*
X4686960Y5602528D01*
X4684268Y5616803D01*
X4682236Y5623052D01*
X4681829Y5627522D01*
X4683353Y5631738D01*
X4686554Y5634888D01*
X4690821Y5636310D01*
X4695291Y5635802D01*
X4699050Y5633415D01*
X4710226Y5622188D01*
X4712157Y5619546D01*
X4713122Y5616397D01*
X4713071Y5613095D01*
X4711039Y5602528D01*
X4710125Y5588000D01*
X4711039Y5573471D01*
X4713732Y5559196D01*
X4718253Y5545328D01*
X4724450Y5532170D01*
X4732223Y5519877D01*
X4741519Y5508650D01*
X4752136Y5498693D01*
X4763922Y5490159D01*
X4776673Y5483148D01*
X4790186Y5477764D01*
X4804308Y5474157D01*
X4818735Y5472328D01*
X4833264Y5472328D01*
X4847691Y5474157D01*
X4861814Y5477764D01*
X4875326Y5483148D01*
X4888077Y5490159D01*
X4899863Y5498693D01*
X4910480Y5508650D01*
X4919776Y5519877D01*
X4927549Y5532170D01*
X4933746Y5545328D01*
X4938268Y5559196D01*
X4940960Y5573471D01*
X4941874Y5588000D01*
X4940960Y5602528D01*
X4938268Y5616803D01*
X4933746Y5630672D01*
X4927549Y5643829D01*
X4919776Y5656122D01*
X4910480Y5667349D01*
X4899863Y5677306D01*
X4888077Y5685840D01*
X4875326Y5692851D01*
X4861814Y5698236D01*
X4847691Y5701842D01*
X4833264Y5703671D01*
X4818735Y5703671D01*
X4804308Y5701842D01*
X4801463Y5701131D01*
X4798009Y5700826D01*
X4794605Y5701741D01*
X4791760Y5703773D01*
X4701946Y5793587D01*
X4696510Y5798159D01*
X4694021Y5801410D01*
X4692954Y5805373D01*
X4693564Y5809437D01*
X4695698Y5812891D01*
X4699101Y5815279D01*
X4703114Y5816092D01*
X5805932Y5816092D01*
X5809843Y5815330D01*
X5813094Y5813094D01*
X5815330Y5809843D01*
X5816092Y5805932D01*
X5816092Y36068D01*
X5815330Y32207D01*
X5813094Y28905D01*
X5809843Y26670D01*
G37*

%LPC*%
G36*
X573481Y2326843D02*
G01*
X588365Y2326843D01*
X603148Y2328672D01*
X617575Y2332278D01*
X631444Y2337663D01*
X644550Y2344724D01*
X656691Y2353310D01*
X667715Y2363317D01*
X677418Y2374646D01*
X685596Y2387041D01*
X692251Y2400350D01*
X697179Y2414422D01*
X697992Y2418080D01*
X699566Y2421636D01*
X702360Y2424379D01*
X705967Y2425852D01*
X709879Y2425852D01*
X713486Y2424379D01*
X716280Y2421636D01*
X717854Y2418080D01*
X718667Y2414422D01*
X723595Y2400350D01*
X730250Y2387041D01*
X738428Y2374646D01*
X748131Y2363317D01*
X759155Y2353310D01*
X771296Y2344724D01*
X784402Y2337663D01*
X798271Y2332278D01*
X812698Y2328672D01*
X827481Y2326843D01*
X842365Y2326843D01*
X857148Y2328672D01*
X871575Y2332278D01*
X885444Y2337663D01*
X898550Y2344724D01*
X910691Y2353310D01*
X921715Y2363317D01*
X931418Y2374646D01*
X939596Y2387041D01*
X946251Y2400350D01*
X951179Y2414422D01*
X951992Y2418080D01*
X953566Y2421636D01*
X956360Y2424379D01*
X959967Y2425852D01*
X963879Y2425852D01*
X967486Y2424379D01*
X970280Y2421636D01*
X971854Y2418080D01*
X972667Y2414422D01*
X977595Y2400350D01*
X984250Y2387041D01*
X992428Y2374646D01*
X1002131Y2363317D01*
X1013155Y2353310D01*
X1025296Y2344724D01*
X1038402Y2337663D01*
X1052271Y2332278D01*
X1066698Y2328672D01*
X1081481Y2326843D01*
X1096365Y2326843D01*
X1111148Y2328672D01*
X1125575Y2332278D01*
X1139444Y2337663D01*
X1152550Y2344724D01*
X1164691Y2353310D01*
X1175715Y2363317D01*
X1185418Y2374646D01*
X1193596Y2387041D01*
X1200251Y2400350D01*
X1205179Y2414422D01*
X1205992Y2418080D01*
X1207566Y2421636D01*
X1210360Y2424379D01*
X1213967Y2425852D01*
X1217879Y2425852D01*
X1221486Y2424379D01*
X1224280Y2421636D01*
X1225854Y2418080D01*
X1226667Y2414422D01*
X1231595Y2400350D01*
X1238250Y2387041D01*
X1246428Y2374646D01*
X1256131Y2363317D01*
X1267155Y2353310D01*
X1279296Y2344724D01*
X1292402Y2337663D01*
X1306271Y2332278D01*
X1320698Y2328672D01*
X1335481Y2326843D01*
X1350365Y2326843D01*
X1365148Y2328672D01*
X1379575Y2332278D01*
X1393444Y2337663D01*
X1406550Y2344724D01*
X1418691Y2353310D01*
X1429715Y2363317D01*
X1439418Y2374646D01*
X1447596Y2387041D01*
X1454251Y2400350D01*
X1459179Y2414422D01*
X1459992Y2418080D01*
X1461566Y2421636D01*
X1464360Y2424379D01*
X1467967Y2425852D01*
X1471879Y2425852D01*
X1475486Y2424379D01*
X1478280Y2421636D01*
X1479854Y2418080D01*
X1480667Y2414422D01*
X1485595Y2400350D01*
X1492250Y2387041D01*
X1500428Y2374646D01*
X1510131Y2363317D01*
X1521155Y2353310D01*
X1533296Y2344724D01*
X1546402Y2337663D01*
X1560271Y2332278D01*
X1574698Y2328672D01*
X1589481Y2326843D01*
X1604365Y2326843D01*
X1619148Y2328672D01*
X1633575Y2332278D01*
X1647443Y2337663D01*
X1660550Y2344724D01*
X1672691Y2353310D01*
X1683715Y2363317D01*
X1693418Y2374646D01*
X1701596Y2387041D01*
X1708251Y2400350D01*
X1713179Y2414422D01*
X1713992Y2418080D01*
X1715566Y2421636D01*
X1718360Y2424379D01*
X1721967Y2425852D01*
X1725879Y2425852D01*
X1729486Y2424379D01*
X1732280Y2421636D01*
X1733854Y2418080D01*
X1734667Y2414422D01*
X1739595Y2400350D01*
X1746250Y2387041D01*
X1754428Y2374646D01*
X1764131Y2363317D01*
X1775155Y2353310D01*
X1787296Y2344724D01*
X1800402Y2337663D01*
X1814271Y2332278D01*
X1828698Y2328672D01*
X1843481Y2326843D01*
X1858365Y2326843D01*
X1873148Y2328672D01*
X1887575Y2332278D01*
X1901443Y2337663D01*
X1914550Y2344724D01*
X1926691Y2353310D01*
X1937715Y2363317D01*
X1947418Y2374646D01*
X1955596Y2387041D01*
X1962251Y2400350D01*
X1967179Y2414422D01*
X1967992Y2418080D01*
X1969566Y2421636D01*
X1972360Y2424379D01*
X1975967Y2425852D01*
X1979879Y2425852D01*
X1983486Y2424379D01*
X1986280Y2421636D01*
X1987854Y2418080D01*
X1988667Y2414422D01*
X1993595Y2400350D01*
X2000250Y2387041D01*
X2008428Y2374646D01*
X2018131Y2363317D01*
X2029155Y2353310D01*
X2041296Y2344724D01*
X2054402Y2337663D01*
X2068271Y2332278D01*
X2082698Y2328672D01*
X2097481Y2326843D01*
X2112365Y2326843D01*
X2127148Y2328672D01*
X2141575Y2332278D01*
X2155444Y2337663D01*
X2168550Y2344724D01*
X2180691Y2353310D01*
X2191715Y2363317D01*
X2201418Y2374646D01*
X2209596Y2387041D01*
X2216251Y2400350D01*
X2221179Y2414422D01*
X2221992Y2418080D01*
X2223566Y2421636D01*
X2226360Y2424379D01*
X2229967Y2425852D01*
X2233879Y2425852D01*
X2237486Y2424379D01*
X2240280Y2421636D01*
X2241854Y2418080D01*
X2242667Y2414422D01*
X2247595Y2400350D01*
X2254250Y2387041D01*
X2262428Y2374646D01*
X2272131Y2363317D01*
X2283155Y2353310D01*
X2295296Y2344724D01*
X2308402Y2337663D01*
X2322271Y2332278D01*
X2336698Y2328672D01*
X2351481Y2326843D01*
X2366365Y2326843D01*
X2381148Y2328672D01*
X2395575Y2332278D01*
X2409444Y2337663D01*
X2422550Y2344724D01*
X2434691Y2353310D01*
X2445715Y2363317D01*
X2455418Y2374646D01*
X2463596Y2387041D01*
X2470251Y2400350D01*
X2475179Y2414422D01*
X2478379Y2428951D01*
X2479751Y2443784D01*
X2479294Y2458669D01*
X2477008Y2473350D01*
X2472944Y2487676D01*
X2467152Y2501392D01*
X2459685Y2514244D01*
X2450744Y2526131D01*
X2440381Y2536850D01*
X2428748Y2546146D01*
X2416098Y2554020D01*
X2402586Y2560218D01*
X2388412Y2564739D01*
X2373782Y2567482D01*
X2358948Y2568397D01*
X2344064Y2567482D01*
X2329434Y2564739D01*
X2315260Y2560218D01*
X2301748Y2554020D01*
X2289098Y2546146D01*
X2277465Y2536850D01*
X2267102Y2526131D01*
X2258161Y2514244D01*
X2250694Y2501392D01*
X2244902Y2487676D01*
X2241702Y2476398D01*
X2239619Y2472537D01*
X2236165Y2469946D01*
X2231948Y2468981D01*
X2227681Y2469946D01*
X2224227Y2472537D01*
X2222144Y2476398D01*
X2218944Y2487676D01*
X2213152Y2501392D01*
X2205685Y2514244D01*
X2196744Y2526131D01*
X2186381Y2536850D01*
X2174748Y2546146D01*
X2162098Y2554020D01*
X2148586Y2560218D01*
X2134412Y2564739D01*
X2119782Y2567482D01*
X2104948Y2568397D01*
X2090064Y2567482D01*
X2075434Y2564739D01*
X2061260Y2560218D01*
X2047748Y2554020D01*
X2035098Y2546146D01*
X2023465Y2536850D01*
X2013102Y2526131D01*
X2004161Y2514244D01*
X1996693Y2501392D01*
X1990902Y2487676D01*
X1987702Y2476398D01*
X1985619Y2472537D01*
X1982165Y2469946D01*
X1977948Y2468981D01*
X1973681Y2469946D01*
X1970227Y2472537D01*
X1968144Y2476398D01*
X1964943Y2487676D01*
X1959152Y2501392D01*
X1951685Y2514244D01*
X1942744Y2526131D01*
X1932381Y2536850D01*
X1920748Y2546146D01*
X1908098Y2554020D01*
X1894586Y2560218D01*
X1880412Y2564739D01*
X1865782Y2567482D01*
X1850948Y2568397D01*
X1836064Y2567482D01*
X1821434Y2564739D01*
X1807260Y2560218D01*
X1793748Y2554020D01*
X1781098Y2546146D01*
X1769465Y2536850D01*
X1759102Y2526131D01*
X1750161Y2514244D01*
X1742693Y2501392D01*
X1736902Y2487676D01*
X1733702Y2476398D01*
X1731619Y2472537D01*
X1728165Y2469946D01*
X1723948Y2468981D01*
X1719681Y2469946D01*
X1716227Y2472537D01*
X1714144Y2476398D01*
X1710943Y2487676D01*
X1705152Y2501392D01*
X1697685Y2514244D01*
X1688744Y2526131D01*
X1678381Y2536850D01*
X1666748Y2546146D01*
X1654098Y2554020D01*
X1640586Y2560218D01*
X1626412Y2564739D01*
X1611782Y2567482D01*
X1596948Y2568397D01*
X1582064Y2567482D01*
X1567434Y2564739D01*
X1553260Y2560218D01*
X1539748Y2554020D01*
X1527098Y2546146D01*
X1515465Y2536850D01*
X1505102Y2526131D01*
X1496161Y2514244D01*
X1488694Y2501392D01*
X1482902Y2487676D01*
X1479702Y2476398D01*
X1477619Y2472537D01*
X1474165Y2469946D01*
X1469948Y2468981D01*
X1465681Y2469946D01*
X1462227Y2472537D01*
X1460144Y2476398D01*
X1456944Y2487676D01*
X1451152Y2501392D01*
X1443685Y2514244D01*
X1434744Y2526131D01*
X1424381Y2536850D01*
X1412748Y2546146D01*
X1400098Y2554020D01*
X1386586Y2560218D01*
X1372412Y2564739D01*
X1357782Y2567482D01*
X1342948Y2568397D01*
X1328064Y2567482D01*
X1313434Y2564739D01*
X1299260Y2560218D01*
X1285748Y2554020D01*
X1273098Y2546146D01*
X1261465Y2536850D01*
X1251102Y2526131D01*
X1242161Y2514244D01*
X1234694Y2501392D01*
X1228902Y2487676D01*
X1225702Y2476398D01*
X1223619Y2472537D01*
X1220165Y2469946D01*
X1215948Y2468981D01*
X1211681Y2469946D01*
X1208227Y2472537D01*
X1206144Y2476398D01*
X1202944Y2487676D01*
X1197152Y2501392D01*
X1189685Y2514244D01*
X1180744Y2526131D01*
X1170381Y2536850D01*
X1158748Y2546146D01*
X1146098Y2554020D01*
X1132586Y2560218D01*
X1118412Y2564739D01*
X1103782Y2567482D01*
X1088948Y2568397D01*
X1074064Y2567482D01*
X1059434Y2564739D01*
X1045260Y2560218D01*
X1031748Y2554020D01*
X1019098Y2546146D01*
X1007465Y2536850D01*
X997102Y2526131D01*
X988161Y2514244D01*
X980694Y2501392D01*
X974902Y2487676D01*
X971702Y2476398D01*
X969619Y2472537D01*
X966165Y2469946D01*
X961948Y2468981D01*
X957681Y2469946D01*
X954227Y2472537D01*
X952144Y2476398D01*
X948944Y2487676D01*
X943152Y2501392D01*
X935685Y2514244D01*
X926744Y2526131D01*
X916381Y2536850D01*
X904748Y2546146D01*
X892098Y2554020D01*
X878586Y2560218D01*
X864412Y2564739D01*
X849782Y2567482D01*
X834948Y2568397D01*
X820064Y2567482D01*
X805434Y2564739D01*
X791260Y2560218D01*
X777748Y2554020D01*
X765098Y2546146D01*
X753465Y2536850D01*
X743102Y2526131D01*
X734161Y2514244D01*
X726694Y2501392D01*
X720902Y2487676D01*
X717702Y2476398D01*
X715619Y2472537D01*
X712165Y2469946D01*
X707948Y2468981D01*
X703681Y2469946D01*
X700227Y2472537D01*
X698144Y2476398D01*
X694944Y2487676D01*
X689152Y2501392D01*
X681685Y2514244D01*
X672744Y2526131D01*
X662381Y2536850D01*
X650748Y2546146D01*
X638098Y2554020D01*
X624586Y2560218D01*
X610412Y2564739D01*
X595782Y2567482D01*
X580948Y2568397D01*
X566064Y2567482D01*
X551434Y2564739D01*
X537260Y2560218D01*
X523748Y2554020D01*
X511098Y2546146D01*
X499465Y2536850D01*
X489102Y2526131D01*
X480161Y2514244D01*
X472693Y2501392D01*
X466902Y2487676D01*
X462838Y2473350D01*
X460552Y2458669D01*
X460095Y2443784D01*
X461467Y2428951D01*
X464667Y2414422D01*
X469595Y2400350D01*
X476250Y2387041D01*
X484428Y2374646D01*
X494131Y2363317D01*
X505155Y2353310D01*
X517296Y2344724D01*
X530402Y2337663D01*
X544271Y2332278D01*
X558698Y2328672D01*
G37*
G36*
X393700Y105562D02*
G01*
X398322Y105664D01*
X421284Y108051D01*
X443992Y112369D01*
X466242Y118618D01*
X487934Y126644D01*
X508812Y136499D01*
X528828Y148031D01*
X547827Y161239D01*
X565607Y175971D01*
X582117Y192125D01*
X597204Y209600D01*
X610819Y228295D01*
X622757Y248107D01*
X633018Y268782D01*
X641553Y290271D01*
X648208Y312369D01*
X653034Y334975D01*
X655929Y357936D01*
X656336Y368300D01*
X393700Y368300D01*
G37*
G36*
X5448300Y105613D02*
G01*
X5448300Y368300D01*
X5185410Y368300D01*
X5187289Y346405D01*
X5191150Y323646D01*
X5196890Y301244D01*
X5204460Y279450D01*
X5213858Y258317D01*
X5224983Y238099D01*
X5237784Y218846D01*
X5252161Y200710D01*
X5267960Y183896D01*
X5285130Y168402D01*
X5303520Y154432D01*
X5323027Y142087D01*
X5343499Y131368D01*
X5364835Y122428D01*
X5386781Y115265D01*
X5409285Y109982D01*
X5432145Y106629D01*
G37*
G36*
X368300Y105613D02*
G01*
X368300Y368300D01*
X105410Y368300D01*
X107289Y346405D01*
X111150Y323646D01*
X116890Y301244D01*
X124460Y279450D01*
X133858Y258317D01*
X144983Y238099D01*
X157784Y218846D01*
X172161Y200710D01*
X187960Y183896D01*
X205130Y168402D01*
X223520Y154432D01*
X243027Y142087D01*
X263499Y131368D01*
X284835Y122428D01*
X306781Y115265D01*
X329285Y109982D01*
X352145Y106629D01*
G37*
G36*
X5473700Y393700D02*
G01*
X5736336Y393700D01*
X5735929Y404063D01*
X5733034Y427024D01*
X5728208Y449630D01*
X5721553Y471728D01*
X5713018Y493217D01*
X5702757Y513892D01*
X5690819Y533704D01*
X5677204Y552348D01*
X5662117Y569874D01*
X5645607Y586028D01*
X5627827Y600760D01*
X5608828Y613968D01*
X5588812Y625500D01*
X5567934Y635355D01*
X5546242Y643382D01*
X5523992Y649630D01*
X5501284Y653948D01*
X5478322Y656336D01*
X5473700Y656437D01*
G37*
G36*
X393700Y393700D02*
G01*
X656336Y393700D01*
X655929Y404063D01*
X653034Y427024D01*
X648208Y449630D01*
X641553Y471728D01*
X633018Y493217D01*
X622757Y513892D01*
X610819Y533704D01*
X597204Y552348D01*
X582117Y569874D01*
X565607Y586028D01*
X547827Y600760D01*
X528828Y613968D01*
X508812Y625500D01*
X487934Y635355D01*
X466242Y643382D01*
X443992Y649630D01*
X421284Y653948D01*
X398322Y656336D01*
X393700Y656437D01*
G37*
G36*
X5185410Y393700D02*
G01*
X5448300Y393700D01*
X5448300Y656386D01*
X5432145Y655370D01*
X5409285Y652018D01*
X5386781Y646734D01*
X5364835Y639572D01*
X5343499Y630631D01*
X5323027Y619912D01*
X5303520Y607568D01*
X5285130Y593598D01*
X5267960Y578104D01*
X5252161Y561289D01*
X5237784Y543153D01*
X5224983Y523900D01*
X5213858Y503682D01*
X5204460Y482549D01*
X5196890Y460756D01*
X5191150Y438353D01*
X5187289Y415594D01*
G37*
G36*
X105410Y393700D02*
G01*
X368300Y393700D01*
X368300Y656386D01*
X352145Y655370D01*
X329285Y652018D01*
X306781Y646734D01*
X284835Y639572D01*
X263499Y630631D01*
X243027Y619912D01*
X223520Y607568D01*
X205130Y593598D01*
X187960Y578104D01*
X172161Y561289D01*
X157784Y543153D01*
X144983Y523900D01*
X133858Y503682D01*
X124460Y482549D01*
X116890Y460756D01*
X111150Y438353D01*
X107289Y415594D01*
G37*
G36*
X4156811Y5588000D02*
G01*
X4214977Y5588000D01*
X4214977Y5624728D01*
X4214266Y5631027D01*
X4212386Y5636514D01*
X4209288Y5641390D01*
X4205224Y5645505D01*
X4200296Y5648604D01*
X4194860Y5650484D01*
X4188510Y5651195D01*
X4156811Y5651195D01*
G37*
G36*
X4073194Y5588000D02*
G01*
X4131411Y5588000D01*
X4131411Y5651195D01*
X4099661Y5651195D01*
X4093362Y5650484D01*
X4087876Y5648604D01*
X4082999Y5645505D01*
X4078884Y5641390D01*
X4075785Y5636514D01*
X4073906Y5631027D01*
X4073194Y5624728D01*
G37*
G36*
X1778000Y963625D02*
G01*
X1792528Y964539D01*
X1806803Y967232D01*
X1820672Y971753D01*
X1833829Y977950D01*
X1846122Y985723D01*
X1857349Y995019D01*
X1867306Y1005636D01*
X1875840Y1017371D01*
X1882851Y1030173D01*
X1888236Y1043686D01*
X1891842Y1057757D01*
X1893671Y1072235D01*
X1893671Y1086764D01*
X1891842Y1101191D01*
X1888236Y1115314D01*
X1882851Y1128826D01*
X1875840Y1141577D01*
X1867306Y1153363D01*
X1857349Y1163980D01*
X1846122Y1173226D01*
X1833829Y1181049D01*
X1820672Y1187246D01*
X1806803Y1191717D01*
X1792528Y1194460D01*
X1778000Y1195374D01*
X1763471Y1194460D01*
X1749196Y1191717D01*
X1735328Y1187246D01*
X1722170Y1181049D01*
X1709877Y1173226D01*
X1698650Y1163980D01*
X1688693Y1153363D01*
X1680159Y1141577D01*
X1673148Y1128826D01*
X1667814Y1115314D01*
X1664157Y1101191D01*
X1662328Y1086764D01*
X1662328Y1072235D01*
X1664157Y1057757D01*
X1667814Y1043686D01*
X1673148Y1030173D01*
X1680159Y1017371D01*
X1688693Y1005636D01*
X1698650Y995019D01*
X1709877Y985723D01*
X1722170Y977950D01*
X1735328Y971753D01*
X1749196Y967232D01*
X1763471Y964539D01*
G37*
G36*
X1270000Y963625D02*
G01*
X1284528Y964539D01*
X1298803Y967232D01*
X1312672Y971753D01*
X1325829Y977950D01*
X1338122Y985723D01*
X1349349Y995019D01*
X1359306Y1005636D01*
X1367840Y1017371D01*
X1374851Y1030173D01*
X1380236Y1043686D01*
X1383842Y1057757D01*
X1385671Y1072235D01*
X1385671Y1086764D01*
X1383842Y1101191D01*
X1380236Y1115314D01*
X1374851Y1128826D01*
X1367840Y1141577D01*
X1359306Y1153363D01*
X1349349Y1163980D01*
X1338122Y1173226D01*
X1325829Y1181049D01*
X1312672Y1187246D01*
X1298803Y1191717D01*
X1284528Y1194460D01*
X1270000Y1195374D01*
X1255471Y1194460D01*
X1241196Y1191717D01*
X1227328Y1187246D01*
X1214170Y1181049D01*
X1201877Y1173226D01*
X1190650Y1163980D01*
X1180693Y1153363D01*
X1172159Y1141577D01*
X1165148Y1128826D01*
X1159814Y1115314D01*
X1156157Y1101191D01*
X1154328Y1086764D01*
X1154328Y1072235D01*
X1156157Y1057757D01*
X1159814Y1043686D01*
X1165148Y1030173D01*
X1172159Y1017371D01*
X1180693Y1005636D01*
X1190650Y995019D01*
X1201877Y985723D01*
X1214170Y977950D01*
X1227328Y971753D01*
X1241196Y967232D01*
X1255471Y964539D01*
G37*
G36*
X1016000Y963625D02*
G01*
X1030528Y964539D01*
X1044803Y967232D01*
X1058672Y971753D01*
X1071829Y977950D01*
X1084122Y985723D01*
X1095349Y995019D01*
X1105306Y1005636D01*
X1113840Y1017371D01*
X1120851Y1030173D01*
X1126236Y1043686D01*
X1129842Y1057757D01*
X1131671Y1072235D01*
X1131671Y1086764D01*
X1129842Y1101191D01*
X1126236Y1115314D01*
X1120851Y1128826D01*
X1113840Y1141577D01*
X1105306Y1153363D01*
X1095349Y1163980D01*
X1084122Y1173226D01*
X1071829Y1181049D01*
X1058672Y1187246D01*
X1044803Y1191717D01*
X1030528Y1194460D01*
X1016000Y1195374D01*
X1001471Y1194460D01*
X987196Y1191717D01*
X973328Y1187246D01*
X960170Y1181049D01*
X947877Y1173226D01*
X936650Y1163980D01*
X926693Y1153363D01*
X918159Y1141577D01*
X911148Y1128826D01*
X905814Y1115314D01*
X902157Y1101191D01*
X900328Y1086764D01*
X900328Y1072235D01*
X902157Y1057757D01*
X905814Y1043686D01*
X911148Y1030173D01*
X918159Y1017371D01*
X926693Y1005636D01*
X936650Y995019D01*
X947877Y985723D01*
X960170Y977950D01*
X973328Y971753D01*
X987196Y967232D01*
X1001471Y964539D01*
G37*
G36*
X2032000Y963625D02*
G01*
X2046528Y964539D01*
X2060803Y967232D01*
X2074672Y971753D01*
X2087829Y977950D01*
X2100122Y985723D01*
X2111349Y995019D01*
X2121306Y1005636D01*
X2129840Y1017371D01*
X2136851Y1030173D01*
X2142236Y1043686D01*
X2145842Y1057757D01*
X2147671Y1072235D01*
X2147671Y1086764D01*
X2145842Y1101191D01*
X2142236Y1115314D01*
X2136851Y1128826D01*
X2129840Y1141577D01*
X2121306Y1153363D01*
X2111349Y1163980D01*
X2100122Y1173226D01*
X2087829Y1181049D01*
X2074672Y1187246D01*
X2060803Y1191717D01*
X2046528Y1194460D01*
X2032000Y1195374D01*
X2017471Y1194460D01*
X2003196Y1191717D01*
X1989328Y1187246D01*
X1976170Y1181049D01*
X1963877Y1173226D01*
X1952650Y1163980D01*
X1942693Y1153363D01*
X1934159Y1141577D01*
X1927148Y1128826D01*
X1921814Y1115314D01*
X1918157Y1101191D01*
X1916328Y1086764D01*
X1916328Y1072235D01*
X1918157Y1057757D01*
X1921814Y1043686D01*
X1927148Y1030173D01*
X1934159Y1017371D01*
X1942693Y1005636D01*
X1952650Y995019D01*
X1963877Y985723D01*
X1976170Y977950D01*
X1989328Y971753D01*
X2003196Y967232D01*
X2017471Y964539D01*
G37*
G36*
X4572000Y963625D02*
G01*
X4586528Y964539D01*
X4600803Y967232D01*
X4614672Y971753D01*
X4627829Y977950D01*
X4640122Y985723D01*
X4651349Y995019D01*
X4661306Y1005636D01*
X4669840Y1017371D01*
X4676851Y1030173D01*
X4682236Y1043686D01*
X4685842Y1057757D01*
X4687671Y1072235D01*
X4687671Y1086764D01*
X4685842Y1101191D01*
X4682236Y1115314D01*
X4676851Y1128826D01*
X4669840Y1141577D01*
X4661306Y1153363D01*
X4651349Y1163980D01*
X4640122Y1173226D01*
X4627829Y1181049D01*
X4614672Y1187246D01*
X4600803Y1191717D01*
X4586528Y1194460D01*
X4572000Y1195374D01*
X4557471Y1194460D01*
X4543196Y1191717D01*
X4529328Y1187246D01*
X4516170Y1181049D01*
X4503877Y1173226D01*
X4492650Y1163980D01*
X4482693Y1153363D01*
X4474159Y1141577D01*
X4467148Y1128826D01*
X4461814Y1115314D01*
X4458157Y1101191D01*
X4456328Y1086764D01*
X4456328Y1072235D01*
X4458157Y1057757D01*
X4461814Y1043686D01*
X4467148Y1030173D01*
X4474159Y1017371D01*
X4482693Y1005636D01*
X4492650Y995019D01*
X4503877Y985723D01*
X4516170Y977950D01*
X4529328Y971753D01*
X4543196Y967232D01*
X4557471Y964539D01*
G37*
G36*
X3302000Y963625D02*
G01*
X3316528Y964539D01*
X3330803Y967232D01*
X3344672Y971753D01*
X3357829Y977950D01*
X3370122Y985723D01*
X3381349Y995019D01*
X3391306Y1005636D01*
X3399840Y1017371D01*
X3406851Y1030173D01*
X3412236Y1043686D01*
X3415842Y1057757D01*
X3417671Y1072235D01*
X3417671Y1086764D01*
X3415842Y1101191D01*
X3412236Y1115314D01*
X3406851Y1128826D01*
X3399840Y1141577D01*
X3391306Y1153363D01*
X3381349Y1163980D01*
X3370122Y1173226D01*
X3357829Y1181049D01*
X3344672Y1187246D01*
X3330803Y1191717D01*
X3316528Y1194460D01*
X3302000Y1195374D01*
X3287471Y1194460D01*
X3273196Y1191717D01*
X3259328Y1187246D01*
X3246170Y1181049D01*
X3233877Y1173226D01*
X3222650Y1163980D01*
X3212693Y1153363D01*
X3204159Y1141577D01*
X3197148Y1128826D01*
X3191814Y1115314D01*
X3188157Y1101191D01*
X3186328Y1086764D01*
X3186328Y1072235D01*
X3188157Y1057757D01*
X3191814Y1043686D01*
X3197148Y1030173D01*
X3204159Y1017371D01*
X3212693Y1005636D01*
X3222650Y995019D01*
X3233877Y985723D01*
X3246170Y977950D01*
X3259328Y971753D01*
X3273196Y967232D01*
X3287471Y964539D01*
G37*
G36*
X3810000Y963625D02*
G01*
X3824528Y964539D01*
X3838803Y967232D01*
X3852672Y971753D01*
X3865829Y977950D01*
X3878122Y985723D01*
X3889349Y995019D01*
X3899306Y1005636D01*
X3907840Y1017371D01*
X3914851Y1030173D01*
X3920236Y1043686D01*
X3923842Y1057757D01*
X3925671Y1072235D01*
X3925671Y1086764D01*
X3923842Y1101191D01*
X3920236Y1115314D01*
X3914851Y1128826D01*
X3907840Y1141577D01*
X3899306Y1153363D01*
X3889349Y1163980D01*
X3878122Y1173226D01*
X3865829Y1181049D01*
X3852672Y1187246D01*
X3838803Y1191717D01*
X3824528Y1194460D01*
X3810000Y1195374D01*
X3795471Y1194460D01*
X3781196Y1191717D01*
X3767328Y1187246D01*
X3754170Y1181049D01*
X3741877Y1173226D01*
X3730650Y1163980D01*
X3720693Y1153363D01*
X3712159Y1141577D01*
X3705148Y1128826D01*
X3699814Y1115314D01*
X3696157Y1101191D01*
X3694328Y1086764D01*
X3694328Y1072235D01*
X3696157Y1057757D01*
X3699814Y1043686D01*
X3705148Y1030173D01*
X3712159Y1017371D01*
X3720693Y1005636D01*
X3730650Y995019D01*
X3741877Y985723D01*
X3754170Y977950D01*
X3767328Y971753D01*
X3781196Y967232D01*
X3795471Y964539D01*
G37*
G36*
X4318000Y963625D02*
G01*
X4332528Y964539D01*
X4346803Y967232D01*
X4360672Y971753D01*
X4373829Y977950D01*
X4386122Y985723D01*
X4397349Y995019D01*
X4407306Y1005636D01*
X4415840Y1017371D01*
X4422851Y1030173D01*
X4428236Y1043686D01*
X4431842Y1057757D01*
X4433671Y1072235D01*
X4433671Y1086764D01*
X4431842Y1101191D01*
X4428236Y1115314D01*
X4422851Y1128826D01*
X4415840Y1141577D01*
X4407306Y1153363D01*
X4397349Y1163980D01*
X4386122Y1173226D01*
X4373829Y1181049D01*
X4360672Y1187246D01*
X4346803Y1191717D01*
X4332528Y1194460D01*
X4318000Y1195374D01*
X4303471Y1194460D01*
X4289196Y1191717D01*
X4275328Y1187246D01*
X4262170Y1181049D01*
X4249877Y1173226D01*
X4238650Y1163980D01*
X4228693Y1153363D01*
X4220159Y1141577D01*
X4213148Y1128826D01*
X4207814Y1115314D01*
X4204157Y1101191D01*
X4202328Y1086764D01*
X4202328Y1072235D01*
X4204157Y1057757D01*
X4207814Y1043686D01*
X4213148Y1030173D01*
X4220159Y1017371D01*
X4228693Y1005636D01*
X4238650Y995019D01*
X4249877Y985723D01*
X4262170Y977950D01*
X4275328Y971753D01*
X4289196Y967232D01*
X4303471Y964539D01*
G37*
G36*
X4064000Y963625D02*
G01*
X4078528Y964539D01*
X4092803Y967232D01*
X4106672Y971753D01*
X4119829Y977950D01*
X4132122Y985723D01*
X4143349Y995019D01*
X4153306Y1005636D01*
X4161840Y1017371D01*
X4168851Y1030173D01*
X4174236Y1043686D01*
X4177842Y1057757D01*
X4179671Y1072235D01*
X4179671Y1086764D01*
X4177842Y1101191D01*
X4174236Y1115314D01*
X4168851Y1128826D01*
X4161840Y1141577D01*
X4153306Y1153363D01*
X4143349Y1163980D01*
X4132122Y1173226D01*
X4119829Y1181049D01*
X4106672Y1187246D01*
X4092803Y1191717D01*
X4078528Y1194460D01*
X4064000Y1195374D01*
X4049471Y1194460D01*
X4035196Y1191717D01*
X4021328Y1187246D01*
X4008170Y1181049D01*
X3995877Y1173226D01*
X3984650Y1163980D01*
X3974693Y1153363D01*
X3966159Y1141577D01*
X3959148Y1128826D01*
X3953814Y1115314D01*
X3950157Y1101191D01*
X3948328Y1086764D01*
X3948328Y1072235D01*
X3950157Y1057757D01*
X3953814Y1043686D01*
X3959148Y1030173D01*
X3966159Y1017371D01*
X3974693Y1005636D01*
X3984650Y995019D01*
X3995877Y985723D01*
X4008170Y977950D01*
X4021328Y971753D01*
X4035196Y967232D01*
X4049471Y964539D01*
G37*
G36*
X5080000Y963625D02*
G01*
X5094528Y964539D01*
X5108803Y967232D01*
X5122672Y971753D01*
X5135829Y977950D01*
X5148122Y985723D01*
X5159349Y995019D01*
X5169306Y1005636D01*
X5177840Y1017371D01*
X5184851Y1030173D01*
X5190236Y1043686D01*
X5193842Y1057757D01*
X5195671Y1072235D01*
X5195671Y1086764D01*
X5193842Y1101191D01*
X5190236Y1115314D01*
X5184851Y1128826D01*
X5177840Y1141577D01*
X5169306Y1153363D01*
X5159349Y1163980D01*
X5148122Y1173226D01*
X5135829Y1181049D01*
X5122672Y1187246D01*
X5108803Y1191717D01*
X5094528Y1194460D01*
X5080000Y1195374D01*
X5065471Y1194460D01*
X5051196Y1191717D01*
X5037328Y1187246D01*
X5024170Y1181049D01*
X5011877Y1173226D01*
X5000650Y1163980D01*
X4990693Y1153363D01*
X4982159Y1141577D01*
X4975148Y1128826D01*
X4969814Y1115314D01*
X4966157Y1101191D01*
X4964328Y1086764D01*
X4964328Y1072235D01*
X4966157Y1057757D01*
X4969814Y1043686D01*
X4975148Y1030173D01*
X4982159Y1017371D01*
X4990693Y1005636D01*
X5000650Y995019D01*
X5011877Y985723D01*
X5024170Y977950D01*
X5037328Y971753D01*
X5051196Y967232D01*
X5065471Y964539D01*
G37*
G36*
X4826000Y963625D02*
G01*
X4840528Y964539D01*
X4854803Y967232D01*
X4868672Y971753D01*
X4881829Y977950D01*
X4894122Y985723D01*
X4905349Y995019D01*
X4915306Y1005636D01*
X4923840Y1017371D01*
X4930851Y1030173D01*
X4936236Y1043686D01*
X4939842Y1057757D01*
X4941671Y1072235D01*
X4941671Y1086764D01*
X4939842Y1101191D01*
X4936236Y1115314D01*
X4930851Y1128826D01*
X4923840Y1141577D01*
X4915306Y1153363D01*
X4905349Y1163980D01*
X4894122Y1173226D01*
X4881829Y1181049D01*
X4868672Y1187246D01*
X4854803Y1191717D01*
X4840528Y1194460D01*
X4826000Y1195374D01*
X4811471Y1194460D01*
X4797196Y1191717D01*
X4783328Y1187246D01*
X4770170Y1181049D01*
X4757877Y1173226D01*
X4746650Y1163980D01*
X4736693Y1153363D01*
X4728159Y1141577D01*
X4721148Y1128826D01*
X4715814Y1115314D01*
X4712157Y1101191D01*
X4710328Y1086764D01*
X4710328Y1072235D01*
X4712157Y1057757D01*
X4715814Y1043686D01*
X4721148Y1030173D01*
X4728159Y1017371D01*
X4736693Y1005636D01*
X4746650Y995019D01*
X4757877Y985723D01*
X4770170Y977950D01*
X4783328Y971753D01*
X4797196Y967232D01*
X4811471Y964539D01*
G37*
G36*
X3048000Y963625D02*
G01*
X3062528Y964539D01*
X3076803Y967232D01*
X3090672Y971753D01*
X3103829Y977950D01*
X3116122Y985723D01*
X3127349Y995019D01*
X3137306Y1005636D01*
X3145840Y1017371D01*
X3152851Y1030173D01*
X3158236Y1043686D01*
X3161842Y1057757D01*
X3163671Y1072235D01*
X3163671Y1086764D01*
X3161842Y1101191D01*
X3158236Y1115314D01*
X3152851Y1128826D01*
X3145840Y1141577D01*
X3137306Y1153363D01*
X3127349Y1163980D01*
X3116122Y1173226D01*
X3103829Y1181049D01*
X3090672Y1187246D01*
X3076803Y1191717D01*
X3062528Y1194460D01*
X3048000Y1195374D01*
X3033471Y1194460D01*
X3019196Y1191717D01*
X3005328Y1187246D01*
X2992170Y1181049D01*
X2979877Y1173226D01*
X2968650Y1163980D01*
X2958693Y1153363D01*
X2950159Y1141577D01*
X2943148Y1128826D01*
X2937814Y1115314D01*
X2934157Y1101191D01*
X2932328Y1086764D01*
X2932328Y1072235D01*
X2934157Y1057757D01*
X2937814Y1043686D01*
X2943148Y1030173D01*
X2950159Y1017371D01*
X2958693Y1005636D01*
X2968650Y995019D01*
X2979877Y985723D01*
X2992170Y977950D01*
X3005328Y971753D01*
X3019196Y967232D01*
X3033471Y964539D01*
G37*
G36*
X2794000Y963625D02*
G01*
X2808528Y964539D01*
X2822803Y967232D01*
X2836672Y971753D01*
X2849829Y977950D01*
X2862122Y985723D01*
X2873349Y995019D01*
X2883306Y1005636D01*
X2891840Y1017371D01*
X2898851Y1030173D01*
X2904236Y1043686D01*
X2907842Y1057757D01*
X2909671Y1072235D01*
X2909671Y1086764D01*
X2907842Y1101191D01*
X2904236Y1115314D01*
X2898851Y1128826D01*
X2891840Y1141577D01*
X2883306Y1153363D01*
X2873349Y1163980D01*
X2862122Y1173226D01*
X2849829Y1181049D01*
X2836672Y1187246D01*
X2822803Y1191717D01*
X2808528Y1194460D01*
X2794000Y1195374D01*
X2779471Y1194460D01*
X2765196Y1191717D01*
X2751328Y1187246D01*
X2738170Y1181049D01*
X2725877Y1173226D01*
X2714650Y1163980D01*
X2704693Y1153363D01*
X2696159Y1141577D01*
X2689148Y1128826D01*
X2683814Y1115314D01*
X2680157Y1101191D01*
X2678328Y1086764D01*
X2678328Y1072235D01*
X2680157Y1057757D01*
X2683814Y1043686D01*
X2689148Y1030173D01*
X2696159Y1017371D01*
X2704693Y1005636D01*
X2714650Y995019D01*
X2725877Y985723D01*
X2738170Y977950D01*
X2751328Y971753D01*
X2765196Y967232D01*
X2779471Y964539D01*
G37*
G36*
X4156811Y5499404D02*
G01*
X4188510Y5499404D01*
X4194860Y5500116D01*
X4200296Y5501995D01*
X4205224Y5505094D01*
X4209288Y5509158D01*
X4212386Y5514086D01*
X4214266Y5519521D01*
X4214977Y5525871D01*
X4214977Y5562600D01*
X4156811Y5562600D01*
G37*
G36*
X4099661Y5499404D02*
G01*
X4131411Y5499404D01*
X4131411Y5562600D01*
X4073194Y5562600D01*
X4073194Y5525871D01*
X4073906Y5519521D01*
X4075785Y5514086D01*
X4078884Y5509158D01*
X4082999Y5505094D01*
X4087876Y5501995D01*
X4093362Y5500116D01*
G37*
G36*
X5185410Y5473700D02*
G01*
X5448300Y5473700D01*
X5448300Y5736386D01*
X5432145Y5735370D01*
X5409285Y5732018D01*
X5386781Y5726734D01*
X5364835Y5719572D01*
X5343499Y5710631D01*
X5323027Y5699912D01*
X5303520Y5687568D01*
X5285130Y5673598D01*
X5267960Y5658104D01*
X5252161Y5641289D01*
X5237784Y5623153D01*
X5224983Y5603900D01*
X5213858Y5583682D01*
X5204460Y5562549D01*
X5196890Y5540756D01*
X5191150Y5518353D01*
X5187289Y5495594D01*
G37*
G36*
X1511300Y964387D02*
G01*
X1511300Y1066800D01*
X1409039Y1066800D01*
X1410157Y1057757D01*
X1413814Y1043686D01*
X1419148Y1030173D01*
X1426159Y1017371D01*
X1434693Y1005636D01*
X1444650Y995019D01*
X1455877Y985723D01*
X1468170Y977950D01*
X1481328Y971753D01*
X1495196Y967232D01*
X1509471Y964539D01*
G37*
G36*
X5321300Y964387D02*
G01*
X5321300Y1066800D01*
X5219039Y1066800D01*
X5220157Y1057757D01*
X5223814Y1043686D01*
X5229148Y1030173D01*
X5236159Y1017371D01*
X5244693Y1005636D01*
X5254650Y995019D01*
X5265877Y985723D01*
X5278170Y977950D01*
X5291328Y971753D01*
X5305196Y967232D01*
X5319471Y964539D01*
G37*
G36*
X3568700Y964387D02*
G01*
X3570528Y964539D01*
X3584803Y967232D01*
X3598672Y971753D01*
X3611829Y977950D01*
X3624122Y985723D01*
X3635349Y995019D01*
X3645306Y1005636D01*
X3653840Y1017371D01*
X3660851Y1030173D01*
X3666236Y1043686D01*
X3669842Y1057757D01*
X3670960Y1066800D01*
X3568700Y1066800D01*
G37*
G36*
X3543300Y964387D02*
G01*
X3543300Y1066800D01*
X3441039Y1066800D01*
X3442157Y1057757D01*
X3445814Y1043686D01*
X3451148Y1030173D01*
X3458159Y1017371D01*
X3466693Y1005636D01*
X3476650Y995019D01*
X3487877Y985723D01*
X3500170Y977950D01*
X3513328Y971753D01*
X3527196Y967232D01*
X3541471Y964539D01*
G37*
G36*
X5346700Y964387D02*
G01*
X5348528Y964539D01*
X5362803Y967232D01*
X5376672Y971753D01*
X5389829Y977950D01*
X5402122Y985723D01*
X5413349Y995019D01*
X5423306Y1005636D01*
X5431840Y1017371D01*
X5438851Y1030173D01*
X5444236Y1043686D01*
X5447842Y1057757D01*
X5448960Y1066800D01*
X5346700Y1066800D01*
G37*
G36*
X1536700Y964387D02*
G01*
X1538528Y964539D01*
X1552803Y967232D01*
X1566672Y971753D01*
X1579829Y977950D01*
X1592122Y985723D01*
X1603349Y995019D01*
X1613306Y1005636D01*
X1621840Y1017371D01*
X1628851Y1030173D01*
X1634236Y1043686D01*
X1637842Y1057757D01*
X1638960Y1066800D01*
X1536700Y1066800D01*
G37*
G36*
X5473700Y5473700D02*
G01*
X5736336Y5473700D01*
X5735929Y5484063D01*
X5733034Y5507024D01*
X5728208Y5529630D01*
X5721553Y5551728D01*
X5713018Y5573217D01*
X5702757Y5593892D01*
X5690819Y5613704D01*
X5677204Y5632348D01*
X5662117Y5649874D01*
X5645607Y5666028D01*
X5627827Y5680760D01*
X5608828Y5693968D01*
X5588812Y5705500D01*
X5567934Y5715355D01*
X5546242Y5723382D01*
X5523992Y5729630D01*
X5501284Y5733948D01*
X5478322Y5736336D01*
X5473700Y5736437D01*
G37*
G36*
X4559300Y5473039D02*
G01*
X4559300Y5575300D01*
X4456887Y5575300D01*
X4457039Y5573471D01*
X4459732Y5559196D01*
X4464253Y5545328D01*
X4470450Y5532170D01*
X4478223Y5519877D01*
X4487519Y5508650D01*
X4498136Y5498693D01*
X4509922Y5490159D01*
X4522673Y5483148D01*
X4536186Y5477764D01*
X4550308Y5474157D01*
G37*
G36*
X1536700Y1092200D02*
G01*
X1638960Y1092200D01*
X1637842Y1101191D01*
X1634236Y1115314D01*
X1628851Y1128826D01*
X1621840Y1141577D01*
X1613306Y1153363D01*
X1603349Y1163980D01*
X1592122Y1173226D01*
X1579829Y1181049D01*
X1566672Y1187246D01*
X1552803Y1191717D01*
X1538528Y1194460D01*
X1536700Y1194562D01*
G37*
G36*
X5219039Y1092200D02*
G01*
X5321300Y1092200D01*
X5321300Y1194562D01*
X5319471Y1194460D01*
X5305196Y1191717D01*
X5291328Y1187246D01*
X5278170Y1181049D01*
X5265877Y1173226D01*
X5254650Y1163980D01*
X5244693Y1153363D01*
X5236159Y1141577D01*
X5229148Y1128826D01*
X5223814Y1115314D01*
X5220157Y1101191D01*
G37*
G36*
X3441039Y1092200D02*
G01*
X3543300Y1092200D01*
X3543300Y1194562D01*
X3541471Y1194460D01*
X3527196Y1191717D01*
X3513328Y1187246D01*
X3500170Y1181049D01*
X3487877Y1173226D01*
X3476650Y1163980D01*
X3466693Y1153363D01*
X3458159Y1141577D01*
X3451148Y1128826D01*
X3445814Y1115314D01*
X3442157Y1101191D01*
G37*
G36*
X3568700Y1092200D02*
G01*
X3670960Y1092200D01*
X3669842Y1101191D01*
X3666236Y1115314D01*
X3660851Y1128826D01*
X3653840Y1141577D01*
X3645306Y1153363D01*
X3635349Y1163980D01*
X3624122Y1173226D01*
X3611829Y1181049D01*
X3598672Y1187246D01*
X3584803Y1191717D01*
X3570528Y1194460D01*
X3568700Y1194562D01*
G37*
G36*
X5346700Y1092200D02*
G01*
X5448960Y1092200D01*
X5447842Y1101191D01*
X5444236Y1115314D01*
X5438851Y1128826D01*
X5431840Y1141577D01*
X5423306Y1153363D01*
X5413349Y1163980D01*
X5402122Y1173226D01*
X5389829Y1181049D01*
X5376672Y1187246D01*
X5362803Y1191717D01*
X5348528Y1194460D01*
X5346700Y1194562D01*
G37*
G36*
X1409039Y1092200D02*
G01*
X1511300Y1092200D01*
X1511300Y1194562D01*
X1509471Y1194460D01*
X1495196Y1191717D01*
X1481328Y1187246D01*
X1468170Y1181049D01*
X1455877Y1173226D01*
X1444650Y1163980D01*
X1434693Y1153363D01*
X1426159Y1141577D01*
X1419148Y1128826D01*
X1413814Y1115314D01*
X1410157Y1101191D01*
G37*
G36*
X4584700Y5473039D02*
G01*
X4593691Y5474157D01*
X4607814Y5477764D01*
X4621326Y5483148D01*
X4634077Y5490159D01*
X4645863Y5498693D01*
X4656480Y5508650D01*
X4665776Y5519877D01*
X4673549Y5532170D01*
X4679746Y5545328D01*
X4684268Y5559196D01*
X4686960Y5573471D01*
X4687112Y5575300D01*
X4584700Y5575300D01*
G37*
G36*
X1778000Y1217625D02*
G01*
X1792528Y1218539D01*
X1806803Y1221232D01*
X1820672Y1225753D01*
X1833829Y1231950D01*
X1846122Y1239723D01*
X1857349Y1249019D01*
X1867306Y1259636D01*
X1875840Y1271371D01*
X1882851Y1284173D01*
X1888236Y1297686D01*
X1891842Y1311757D01*
X1893671Y1326235D01*
X1893671Y1340764D01*
X1891842Y1355191D01*
X1888236Y1369314D01*
X1882851Y1382826D01*
X1875840Y1395577D01*
X1867306Y1407363D01*
X1857349Y1417980D01*
X1846122Y1427226D01*
X1833829Y1435049D01*
X1820672Y1441246D01*
X1806803Y1445717D01*
X1792528Y1448460D01*
X1778000Y1449374D01*
X1763471Y1448460D01*
X1749196Y1445717D01*
X1735328Y1441246D01*
X1722170Y1435049D01*
X1709877Y1427226D01*
X1698650Y1417980D01*
X1688693Y1407363D01*
X1680159Y1395577D01*
X1673148Y1382826D01*
X1667814Y1369314D01*
X1664157Y1355191D01*
X1662328Y1340764D01*
X1662328Y1326235D01*
X1664157Y1311757D01*
X1667814Y1297686D01*
X1673148Y1284173D01*
X1680159Y1271371D01*
X1688693Y1259636D01*
X1698650Y1249019D01*
X1709877Y1239723D01*
X1722170Y1231950D01*
X1735328Y1225753D01*
X1749196Y1221232D01*
X1763471Y1218539D01*
G37*
G36*
X1270000Y1217625D02*
G01*
X1284528Y1218539D01*
X1298803Y1221232D01*
X1312672Y1225753D01*
X1325829Y1231950D01*
X1338122Y1239723D01*
X1349349Y1249019D01*
X1359306Y1259636D01*
X1367840Y1271371D01*
X1374851Y1284173D01*
X1380236Y1297686D01*
X1383842Y1311757D01*
X1385671Y1326235D01*
X1385671Y1340764D01*
X1383842Y1355191D01*
X1380236Y1369314D01*
X1374851Y1382826D01*
X1367840Y1395577D01*
X1359306Y1407363D01*
X1349349Y1417980D01*
X1338122Y1427226D01*
X1325829Y1435049D01*
X1312672Y1441246D01*
X1298803Y1445717D01*
X1284528Y1448460D01*
X1270000Y1449374D01*
X1255471Y1448460D01*
X1241196Y1445717D01*
X1227328Y1441246D01*
X1214170Y1435049D01*
X1201877Y1427226D01*
X1190650Y1417980D01*
X1180693Y1407363D01*
X1172159Y1395577D01*
X1165148Y1382826D01*
X1159814Y1369314D01*
X1156157Y1355191D01*
X1154328Y1340764D01*
X1154328Y1326235D01*
X1156157Y1311757D01*
X1159814Y1297686D01*
X1165148Y1284173D01*
X1172159Y1271371D01*
X1180693Y1259636D01*
X1190650Y1249019D01*
X1201877Y1239723D01*
X1214170Y1231950D01*
X1227328Y1225753D01*
X1241196Y1221232D01*
X1255471Y1218539D01*
G37*
G36*
X1524000Y1217625D02*
G01*
X1538528Y1218539D01*
X1552803Y1221232D01*
X1566672Y1225753D01*
X1579829Y1231950D01*
X1592122Y1239723D01*
X1603349Y1249019D01*
X1613306Y1259636D01*
X1621840Y1271371D01*
X1628851Y1284173D01*
X1634236Y1297686D01*
X1637842Y1311757D01*
X1639671Y1326235D01*
X1639671Y1340764D01*
X1637842Y1355191D01*
X1634236Y1369314D01*
X1628851Y1382826D01*
X1621840Y1395577D01*
X1613306Y1407363D01*
X1603349Y1417980D01*
X1592122Y1427226D01*
X1579829Y1435049D01*
X1566672Y1441246D01*
X1552803Y1445717D01*
X1538528Y1448460D01*
X1524000Y1449374D01*
X1509471Y1448460D01*
X1495196Y1445717D01*
X1481328Y1441246D01*
X1468170Y1435049D01*
X1455877Y1427226D01*
X1444650Y1417980D01*
X1434693Y1407363D01*
X1426159Y1395577D01*
X1419148Y1382826D01*
X1413814Y1369314D01*
X1410157Y1355191D01*
X1408328Y1340764D01*
X1408328Y1326235D01*
X1410157Y1311757D01*
X1413814Y1297686D01*
X1419148Y1284173D01*
X1426159Y1271371D01*
X1434693Y1259636D01*
X1444650Y1249019D01*
X1455877Y1239723D01*
X1468170Y1231950D01*
X1481328Y1225753D01*
X1495196Y1221232D01*
X1509471Y1218539D01*
G37*
G36*
X4826000Y1217625D02*
G01*
X4840528Y1218539D01*
X4854803Y1221232D01*
X4868672Y1225753D01*
X4881829Y1231950D01*
X4894122Y1239723D01*
X4905349Y1249019D01*
X4915306Y1259636D01*
X4923840Y1271371D01*
X4930851Y1284173D01*
X4936236Y1297686D01*
X4939842Y1311757D01*
X4941671Y1326235D01*
X4941671Y1340764D01*
X4939842Y1355191D01*
X4936236Y1369314D01*
X4930851Y1382826D01*
X4923840Y1395577D01*
X4915306Y1407363D01*
X4905349Y1417980D01*
X4894122Y1427226D01*
X4881829Y1435049D01*
X4868672Y1441246D01*
X4854803Y1445717D01*
X4840528Y1448460D01*
X4826000Y1449374D01*
X4811471Y1448460D01*
X4797196Y1445717D01*
X4783328Y1441246D01*
X4770170Y1435049D01*
X4757877Y1427226D01*
X4746650Y1417980D01*
X4736693Y1407363D01*
X4728159Y1395577D01*
X4721148Y1382826D01*
X4715814Y1369314D01*
X4712157Y1355191D01*
X4710328Y1340764D01*
X4710328Y1326235D01*
X4712157Y1311757D01*
X4715814Y1297686D01*
X4721148Y1284173D01*
X4728159Y1271371D01*
X4736693Y1259636D01*
X4746650Y1249019D01*
X4757877Y1239723D01*
X4770170Y1231950D01*
X4783328Y1225753D01*
X4797196Y1221232D01*
X4811471Y1218539D01*
G37*
G36*
X2540000Y1217625D02*
G01*
X2554528Y1218539D01*
X2568803Y1221232D01*
X2582672Y1225753D01*
X2595829Y1231950D01*
X2608122Y1239723D01*
X2619349Y1249019D01*
X2629306Y1259636D01*
X2637840Y1271371D01*
X2644851Y1284173D01*
X2650236Y1297686D01*
X2653842Y1311757D01*
X2655671Y1326235D01*
X2655671Y1340764D01*
X2653842Y1355191D01*
X2650236Y1369314D01*
X2644851Y1382826D01*
X2637840Y1395577D01*
X2629306Y1407363D01*
X2619349Y1417980D01*
X2608122Y1427226D01*
X2595829Y1435049D01*
X2582672Y1441246D01*
X2568803Y1445717D01*
X2554528Y1448460D01*
X2540000Y1449374D01*
X2525471Y1448460D01*
X2511196Y1445717D01*
X2497328Y1441246D01*
X2484170Y1435049D01*
X2471877Y1427226D01*
X2460650Y1417980D01*
X2450693Y1407363D01*
X2442159Y1395577D01*
X2435148Y1382826D01*
X2429814Y1369314D01*
X2426157Y1355191D01*
X2424328Y1340764D01*
X2424328Y1326235D01*
X2426157Y1311757D01*
X2429814Y1297686D01*
X2435148Y1284173D01*
X2442159Y1271371D01*
X2450693Y1259636D01*
X2460650Y1249019D01*
X2471877Y1239723D01*
X2484170Y1231950D01*
X2497328Y1225753D01*
X2511196Y1221232D01*
X2525471Y1218539D01*
G37*
G36*
X3556000Y1217625D02*
G01*
X3570528Y1218539D01*
X3584803Y1221232D01*
X3598672Y1225753D01*
X3611829Y1231950D01*
X3624122Y1239723D01*
X3635349Y1249019D01*
X3645306Y1259636D01*
X3653840Y1271371D01*
X3660851Y1284173D01*
X3666236Y1297686D01*
X3669842Y1311757D01*
X3671671Y1326235D01*
X3671671Y1340764D01*
X3669842Y1355191D01*
X3666236Y1369314D01*
X3660851Y1382826D01*
X3653840Y1395577D01*
X3645306Y1407363D01*
X3635349Y1417980D01*
X3624122Y1427226D01*
X3611829Y1435049D01*
X3598672Y1441246D01*
X3584803Y1445717D01*
X3570528Y1448460D01*
X3556000Y1449374D01*
X3541471Y1448460D01*
X3527196Y1445717D01*
X3513328Y1441246D01*
X3500170Y1435049D01*
X3487877Y1427226D01*
X3476650Y1417980D01*
X3466693Y1407363D01*
X3458159Y1395577D01*
X3451148Y1382826D01*
X3445814Y1369314D01*
X3442157Y1355191D01*
X3440328Y1340764D01*
X3440328Y1326235D01*
X3442157Y1311757D01*
X3445814Y1297686D01*
X3451148Y1284173D01*
X3458159Y1271371D01*
X3466693Y1259636D01*
X3476650Y1249019D01*
X3487877Y1239723D01*
X3500170Y1231950D01*
X3513328Y1225753D01*
X3527196Y1221232D01*
X3541471Y1218539D01*
G37*
G36*
X4318000Y1217625D02*
G01*
X4332528Y1218539D01*
X4346803Y1221232D01*
X4360672Y1225753D01*
X4373829Y1231950D01*
X4386122Y1239723D01*
X4397349Y1249019D01*
X4407306Y1259636D01*
X4415840Y1271371D01*
X4422851Y1284173D01*
X4428236Y1297686D01*
X4431842Y1311757D01*
X4433671Y1326235D01*
X4433671Y1340764D01*
X4431842Y1355191D01*
X4428236Y1369314D01*
X4422851Y1382826D01*
X4415840Y1395577D01*
X4407306Y1407363D01*
X4397349Y1417980D01*
X4386122Y1427226D01*
X4373829Y1435049D01*
X4360672Y1441246D01*
X4346803Y1445717D01*
X4332528Y1448460D01*
X4318000Y1449374D01*
X4303471Y1448460D01*
X4289196Y1445717D01*
X4275328Y1441246D01*
X4262170Y1435049D01*
X4249877Y1427226D01*
X4238650Y1417980D01*
X4228693Y1407363D01*
X4220159Y1395577D01*
X4213148Y1382826D01*
X4207814Y1369314D01*
X4204157Y1355191D01*
X4202328Y1340764D01*
X4202328Y1326235D01*
X4204157Y1311757D01*
X4207814Y1297686D01*
X4213148Y1284173D01*
X4220159Y1271371D01*
X4228693Y1259636D01*
X4238650Y1249019D01*
X4249877Y1239723D01*
X4262170Y1231950D01*
X4275328Y1225753D01*
X4289196Y1221232D01*
X4303471Y1218539D01*
G37*
G36*
X5080000Y1217625D02*
G01*
X5094528Y1218539D01*
X5108803Y1221232D01*
X5122672Y1225753D01*
X5135829Y1231950D01*
X5148122Y1239723D01*
X5159349Y1249019D01*
X5169306Y1259636D01*
X5177840Y1271371D01*
X5184851Y1284173D01*
X5190236Y1297686D01*
X5193842Y1311757D01*
X5195671Y1326235D01*
X5195671Y1340764D01*
X5193842Y1355191D01*
X5190236Y1369314D01*
X5184851Y1382826D01*
X5177840Y1395577D01*
X5169306Y1407363D01*
X5159349Y1417980D01*
X5148122Y1427226D01*
X5135829Y1435049D01*
X5122672Y1441246D01*
X5108803Y1445717D01*
X5094528Y1448460D01*
X5080000Y1449374D01*
X5065471Y1448460D01*
X5051196Y1445717D01*
X5037328Y1441246D01*
X5024170Y1435049D01*
X5011877Y1427226D01*
X5000650Y1417980D01*
X4990693Y1407363D01*
X4982159Y1395577D01*
X4975148Y1382826D01*
X4969814Y1369314D01*
X4966157Y1355191D01*
X4964328Y1340764D01*
X4964328Y1326235D01*
X4966157Y1311757D01*
X4969814Y1297686D01*
X4975148Y1284173D01*
X4982159Y1271371D01*
X4990693Y1259636D01*
X5000650Y1249019D01*
X5011877Y1239723D01*
X5024170Y1231950D01*
X5037328Y1225753D01*
X5051196Y1221232D01*
X5065471Y1218539D01*
G37*
G36*
X3048000Y1217625D02*
G01*
X3062528Y1218539D01*
X3076803Y1221232D01*
X3090672Y1225753D01*
X3103829Y1231950D01*
X3116122Y1239723D01*
X3127349Y1249019D01*
X3137306Y1259636D01*
X3145840Y1271371D01*
X3152851Y1284173D01*
X3158236Y1297686D01*
X3161842Y1311757D01*
X3163671Y1326235D01*
X3163671Y1340764D01*
X3161842Y1355191D01*
X3158236Y1369314D01*
X3152851Y1382826D01*
X3145840Y1395577D01*
X3137306Y1407363D01*
X3127349Y1417980D01*
X3116122Y1427226D01*
X3103829Y1435049D01*
X3090672Y1441246D01*
X3076803Y1445717D01*
X3062528Y1448460D01*
X3048000Y1449374D01*
X3033471Y1448460D01*
X3019196Y1445717D01*
X3005328Y1441246D01*
X2992170Y1435049D01*
X2979877Y1427226D01*
X2968650Y1417980D01*
X2958693Y1407363D01*
X2950159Y1395577D01*
X2943148Y1382826D01*
X2937814Y1369314D01*
X2934157Y1355191D01*
X2932328Y1340764D01*
X2932328Y1326235D01*
X2934157Y1311757D01*
X2937814Y1297686D01*
X2943148Y1284173D01*
X2950159Y1271371D01*
X2958693Y1259636D01*
X2968650Y1249019D01*
X2979877Y1239723D01*
X2992170Y1231950D01*
X3005328Y1225753D01*
X3019196Y1221232D01*
X3033471Y1218539D01*
G37*
G36*
X5334000Y1217625D02*
G01*
X5348528Y1218539D01*
X5362803Y1221232D01*
X5376672Y1225753D01*
X5389829Y1231950D01*
X5402122Y1239723D01*
X5413349Y1249019D01*
X5423306Y1259636D01*
X5431840Y1271371D01*
X5438851Y1284173D01*
X5444236Y1297686D01*
X5447842Y1311757D01*
X5449671Y1326235D01*
X5449671Y1340764D01*
X5447842Y1355191D01*
X5444236Y1369314D01*
X5438851Y1382826D01*
X5431840Y1395577D01*
X5423306Y1407363D01*
X5413349Y1417980D01*
X5402122Y1427226D01*
X5389829Y1435049D01*
X5376672Y1441246D01*
X5362803Y1445717D01*
X5348528Y1448460D01*
X5334000Y1449374D01*
X5319471Y1448460D01*
X5305196Y1445717D01*
X5291328Y1441246D01*
X5278170Y1435049D01*
X5265877Y1427226D01*
X5254650Y1417980D01*
X5244693Y1407363D01*
X5236159Y1395577D01*
X5229148Y1382826D01*
X5223814Y1369314D01*
X5220157Y1355191D01*
X5218328Y1340764D01*
X5218328Y1326235D01*
X5220157Y1311757D01*
X5223814Y1297686D01*
X5229148Y1284173D01*
X5236159Y1271371D01*
X5244693Y1259636D01*
X5254650Y1249019D01*
X5265877Y1239723D01*
X5278170Y1231950D01*
X5291328Y1225753D01*
X5305196Y1221232D01*
X5319471Y1218539D01*
G37*
G36*
X2286000Y1217625D02*
G01*
X2300528Y1218539D01*
X2314803Y1221232D01*
X2328672Y1225753D01*
X2341829Y1231950D01*
X2354122Y1239723D01*
X2365349Y1249019D01*
X2375306Y1259636D01*
X2383840Y1271371D01*
X2390851Y1284173D01*
X2396236Y1297686D01*
X2399842Y1311757D01*
X2401671Y1326235D01*
X2401671Y1340764D01*
X2399842Y1355191D01*
X2396236Y1369314D01*
X2390851Y1382826D01*
X2383840Y1395577D01*
X2375306Y1407363D01*
X2365349Y1417980D01*
X2354122Y1427226D01*
X2341829Y1435049D01*
X2328672Y1441246D01*
X2314803Y1445717D01*
X2300528Y1448460D01*
X2286000Y1449374D01*
X2271471Y1448460D01*
X2257196Y1445717D01*
X2243328Y1441246D01*
X2230170Y1435049D01*
X2217877Y1427226D01*
X2206650Y1417980D01*
X2196693Y1407363D01*
X2188159Y1395577D01*
X2181148Y1382826D01*
X2175814Y1369314D01*
X2172157Y1355191D01*
X2170328Y1340764D01*
X2170328Y1326235D01*
X2172157Y1311757D01*
X2175814Y1297686D01*
X2181148Y1284173D01*
X2188159Y1271371D01*
X2196693Y1259636D01*
X2206650Y1249019D01*
X2217877Y1239723D01*
X2230170Y1231950D01*
X2243328Y1225753D01*
X2257196Y1221232D01*
X2271471Y1218539D01*
G37*
G36*
X3810000Y1217625D02*
G01*
X3824528Y1218539D01*
X3838803Y1221232D01*
X3852672Y1225753D01*
X3865829Y1231950D01*
X3878122Y1239723D01*
X3889349Y1249019D01*
X3899306Y1259636D01*
X3907840Y1271371D01*
X3914851Y1284173D01*
X3920236Y1297686D01*
X3923842Y1311757D01*
X3925671Y1326235D01*
X3925671Y1340764D01*
X3923842Y1355191D01*
X3920236Y1369314D01*
X3914851Y1382826D01*
X3907840Y1395577D01*
X3899306Y1407363D01*
X3889349Y1417980D01*
X3878122Y1427226D01*
X3865829Y1435049D01*
X3852672Y1441246D01*
X3838803Y1445717D01*
X3824528Y1448460D01*
X3810000Y1449374D01*
X3795471Y1448460D01*
X3781196Y1445717D01*
X3767328Y1441246D01*
X3754170Y1435049D01*
X3741877Y1427226D01*
X3730650Y1417980D01*
X3720693Y1407363D01*
X3712159Y1395577D01*
X3705148Y1382826D01*
X3699814Y1369314D01*
X3696157Y1355191D01*
X3694328Y1340764D01*
X3694328Y1326235D01*
X3696157Y1311757D01*
X3699814Y1297686D01*
X3705148Y1284173D01*
X3712159Y1271371D01*
X3720693Y1259636D01*
X3730650Y1249019D01*
X3741877Y1239723D01*
X3754170Y1231950D01*
X3767328Y1225753D01*
X3781196Y1221232D01*
X3795471Y1218539D01*
G37*
G36*
X3302000Y1217625D02*
G01*
X3316528Y1218539D01*
X3330803Y1221232D01*
X3344672Y1225753D01*
X3357829Y1231950D01*
X3370122Y1239723D01*
X3381349Y1249019D01*
X3391306Y1259636D01*
X3399840Y1271371D01*
X3406851Y1284173D01*
X3412236Y1297686D01*
X3415842Y1311757D01*
X3417671Y1326235D01*
X3417671Y1340764D01*
X3415842Y1355191D01*
X3412236Y1369314D01*
X3406851Y1382826D01*
X3399840Y1395577D01*
X3391306Y1407363D01*
X3381349Y1417980D01*
X3370122Y1427226D01*
X3357829Y1435049D01*
X3344672Y1441246D01*
X3330803Y1445717D01*
X3316528Y1448460D01*
X3302000Y1449374D01*
X3287471Y1448460D01*
X3273196Y1445717D01*
X3259328Y1441246D01*
X3246170Y1435049D01*
X3233877Y1427226D01*
X3222650Y1417980D01*
X3212693Y1407363D01*
X3204159Y1395577D01*
X3197148Y1382826D01*
X3191814Y1369314D01*
X3188157Y1355191D01*
X3186328Y1340764D01*
X3186328Y1326235D01*
X3188157Y1311757D01*
X3191814Y1297686D01*
X3197148Y1284173D01*
X3204159Y1271371D01*
X3212693Y1259636D01*
X3222650Y1249019D01*
X3233877Y1239723D01*
X3246170Y1231950D01*
X3259328Y1225753D01*
X3273196Y1221232D01*
X3287471Y1218539D01*
G37*
G36*
X508000Y1217625D02*
G01*
X522528Y1218539D01*
X536803Y1221232D01*
X550672Y1225753D01*
X563829Y1231950D01*
X576122Y1239723D01*
X587349Y1249019D01*
X597306Y1259636D01*
X606044Y1271676D01*
X608279Y1273911D01*
X611124Y1275334D01*
X614273Y1275842D01*
X655726Y1275842D01*
X658876Y1275334D01*
X661720Y1273911D01*
X663956Y1271676D01*
X672693Y1259636D01*
X682650Y1249019D01*
X693877Y1239723D01*
X706170Y1231950D01*
X719328Y1225753D01*
X733196Y1221232D01*
X747471Y1218539D01*
X762000Y1217625D01*
X776528Y1218539D01*
X790803Y1221232D01*
X804672Y1225753D01*
X817829Y1231950D01*
X830122Y1239723D01*
X841349Y1249019D01*
X851306Y1259636D01*
X859840Y1271371D01*
X866851Y1284173D01*
X872236Y1297686D01*
X875842Y1311757D01*
X877671Y1326235D01*
X877671Y1340764D01*
X875842Y1355191D01*
X872236Y1369314D01*
X866851Y1382826D01*
X859840Y1395577D01*
X851306Y1407363D01*
X841349Y1417980D01*
X830122Y1427226D01*
X817829Y1435049D01*
X804672Y1441246D01*
X790803Y1445717D01*
X776528Y1448460D01*
X762000Y1449374D01*
X747471Y1448460D01*
X733196Y1445717D01*
X719328Y1441246D01*
X706170Y1435049D01*
X693877Y1427226D01*
X682650Y1417980D01*
X672693Y1407363D01*
X664006Y1395323D01*
X661720Y1393088D01*
X658926Y1391666D01*
X655777Y1391158D01*
X614222Y1391158D01*
X611124Y1391666D01*
X608279Y1393088D01*
X606044Y1395323D01*
X597306Y1407363D01*
X587349Y1417980D01*
X576122Y1427226D01*
X563829Y1435049D01*
X550672Y1441246D01*
X536803Y1445717D01*
X522528Y1448460D01*
X508000Y1449374D01*
X493471Y1448460D01*
X479196Y1445717D01*
X465328Y1441246D01*
X452170Y1435049D01*
X439877Y1427226D01*
X428650Y1417980D01*
X418693Y1407363D01*
X410159Y1395577D01*
X403148Y1382826D01*
X397814Y1369314D01*
X394157Y1355191D01*
X392328Y1340764D01*
X392328Y1326235D01*
X394157Y1311757D01*
X397814Y1297686D01*
X403148Y1284173D01*
X410159Y1271371D01*
X418693Y1259636D01*
X428650Y1249019D01*
X439877Y1239723D01*
X452170Y1231950D01*
X465328Y1225753D01*
X479196Y1221232D01*
X493471Y1218539D01*
G37*
G36*
X4456887Y5346700D02*
G01*
X4559300Y5346700D01*
X4559300Y5448960D01*
X4550308Y5447842D01*
X4536186Y5444236D01*
X4522673Y5438851D01*
X4509922Y5431840D01*
X4498136Y5423306D01*
X4487519Y5413349D01*
X4478223Y5402122D01*
X4470450Y5389829D01*
X4464253Y5376672D01*
X4459732Y5362803D01*
X4457039Y5348528D01*
G37*
G36*
X2019300Y1218387D02*
G01*
X2019300Y1320800D01*
X1917039Y1320800D01*
X1918157Y1311757D01*
X1921814Y1297686D01*
X1927148Y1284173D01*
X1934159Y1271371D01*
X1942693Y1259636D01*
X1952650Y1249019D01*
X1963877Y1239723D01*
X1976170Y1231950D01*
X1989328Y1225753D01*
X2003196Y1221232D01*
X2017471Y1218539D01*
G37*
G36*
X1003300Y1218387D02*
G01*
X1003300Y1320800D01*
X901039Y1320800D01*
X902157Y1311757D01*
X905814Y1297686D01*
X911148Y1284173D01*
X918159Y1271371D01*
X926693Y1259636D01*
X936650Y1249019D01*
X947877Y1239723D01*
X960170Y1231950D01*
X973328Y1225753D01*
X987196Y1221232D01*
X1001471Y1218539D01*
G37*
G36*
X2781300Y1218387D02*
G01*
X2781300Y1320800D01*
X2679039Y1320800D01*
X2680157Y1311757D01*
X2683814Y1297686D01*
X2689148Y1284173D01*
X2696159Y1271371D01*
X2704693Y1259636D01*
X2714650Y1249019D01*
X2725877Y1239723D01*
X2738170Y1231950D01*
X2751328Y1225753D01*
X2765196Y1221232D01*
X2779471Y1218539D01*
G37*
G36*
X4051300Y1218387D02*
G01*
X4051300Y1320800D01*
X3949039Y1320800D01*
X3950157Y1311757D01*
X3953814Y1297686D01*
X3959148Y1284173D01*
X3966159Y1271371D01*
X3974693Y1259636D01*
X3984650Y1249019D01*
X3995877Y1239723D01*
X4008170Y1231950D01*
X4021328Y1225753D01*
X4035196Y1221232D01*
X4049471Y1218539D01*
G37*
G36*
X2806700Y1218387D02*
G01*
X2808528Y1218539D01*
X2822803Y1221232D01*
X2836672Y1225753D01*
X2849829Y1231950D01*
X2862122Y1239723D01*
X2873349Y1249019D01*
X2883306Y1259636D01*
X2891840Y1271371D01*
X2898851Y1284173D01*
X2904236Y1297686D01*
X2907842Y1311757D01*
X2908960Y1320800D01*
X2806700Y1320800D01*
G37*
G36*
X2044700Y1218387D02*
G01*
X2046528Y1218539D01*
X2060803Y1221232D01*
X2074672Y1225753D01*
X2087829Y1231950D01*
X2100122Y1239723D01*
X2111349Y1249019D01*
X2121306Y1259636D01*
X2129840Y1271371D01*
X2136851Y1284173D01*
X2142236Y1297686D01*
X2145842Y1311757D01*
X2146960Y1320800D01*
X2044700Y1320800D01*
G37*
G36*
X4559300Y1218387D02*
G01*
X4559300Y1320800D01*
X4457039Y1320800D01*
X4458157Y1311757D01*
X4461814Y1297686D01*
X4467148Y1284173D01*
X4474159Y1271371D01*
X4482693Y1259636D01*
X4492650Y1249019D01*
X4503877Y1239723D01*
X4516170Y1231950D01*
X4529328Y1225753D01*
X4543196Y1221232D01*
X4557471Y1218539D01*
G37*
G36*
X4076700Y1218387D02*
G01*
X4078528Y1218539D01*
X4092803Y1221232D01*
X4106672Y1225753D01*
X4119829Y1231950D01*
X4132122Y1239723D01*
X4143349Y1249019D01*
X4153306Y1259636D01*
X4161840Y1271371D01*
X4168851Y1284173D01*
X4174236Y1297686D01*
X4177842Y1311757D01*
X4178960Y1320800D01*
X4076700Y1320800D01*
G37*
G36*
X4584700Y1218387D02*
G01*
X4586528Y1218539D01*
X4600803Y1221232D01*
X4614672Y1225753D01*
X4627829Y1231950D01*
X4640122Y1239723D01*
X4651349Y1249019D01*
X4661306Y1259636D01*
X4669840Y1271371D01*
X4676851Y1284173D01*
X4682236Y1297686D01*
X4685842Y1311757D01*
X4686960Y1320800D01*
X4584700Y1320800D01*
G37*
G36*
X1028700Y1218387D02*
G01*
X1030528Y1218539D01*
X1044803Y1221232D01*
X1058672Y1225753D01*
X1071829Y1231950D01*
X1084122Y1239723D01*
X1095349Y1249019D01*
X1105306Y1259636D01*
X1113840Y1271371D01*
X1120851Y1284173D01*
X1126236Y1297686D01*
X1129842Y1311757D01*
X1130960Y1320800D01*
X1028700Y1320800D01*
G37*
G36*
X2679039Y1346200D02*
G01*
X2781300Y1346200D01*
X2781300Y1448562D01*
X2779471Y1448460D01*
X2765196Y1445717D01*
X2751328Y1441246D01*
X2738170Y1435049D01*
X2725877Y1427226D01*
X2714650Y1417980D01*
X2704693Y1407363D01*
X2696159Y1395577D01*
X2689148Y1382826D01*
X2683814Y1369314D01*
X2680157Y1355191D01*
G37*
G36*
X3949039Y1346200D02*
G01*
X4051300Y1346200D01*
X4051300Y1448562D01*
X4049471Y1448460D01*
X4035196Y1445717D01*
X4021328Y1441246D01*
X4008170Y1435049D01*
X3995877Y1427226D01*
X3984650Y1417980D01*
X3974693Y1407363D01*
X3966159Y1395577D01*
X3959148Y1382826D01*
X3953814Y1369314D01*
X3950157Y1355191D01*
G37*
G36*
X2044700Y1346200D02*
G01*
X2146960Y1346200D01*
X2145842Y1355191D01*
X2142236Y1369314D01*
X2136851Y1382826D01*
X2129840Y1395577D01*
X2121306Y1407363D01*
X2111349Y1417980D01*
X2100122Y1427226D01*
X2087829Y1435049D01*
X2074672Y1441246D01*
X2060803Y1445717D01*
X2046528Y1448460D01*
X2044700Y1448562D01*
G37*
G36*
X2806700Y1346200D02*
G01*
X2908960Y1346200D01*
X2907842Y1355191D01*
X2904236Y1369314D01*
X2898851Y1382826D01*
X2891840Y1395577D01*
X2883306Y1407363D01*
X2873349Y1417980D01*
X2862122Y1427226D01*
X2849829Y1435049D01*
X2836672Y1441246D01*
X2822803Y1445717D01*
X2808528Y1448460D01*
X2806700Y1448562D01*
G37*
G36*
X4076700Y1346200D02*
G01*
X4178960Y1346200D01*
X4177842Y1355191D01*
X4174236Y1369314D01*
X4168851Y1382826D01*
X4161840Y1395577D01*
X4153306Y1407363D01*
X4143349Y1417980D01*
X4132122Y1427226D01*
X4119829Y1435049D01*
X4106672Y1441246D01*
X4092803Y1445717D01*
X4078528Y1448460D01*
X4076700Y1448562D01*
G37*
G36*
X4457039Y1346200D02*
G01*
X4559300Y1346200D01*
X4559300Y1448562D01*
X4557471Y1448460D01*
X4543196Y1445717D01*
X4529328Y1441246D01*
X4516170Y1435049D01*
X4503877Y1427226D01*
X4492650Y1417980D01*
X4482693Y1407363D01*
X4474159Y1395577D01*
X4467148Y1382826D01*
X4461814Y1369314D01*
X4458157Y1355191D01*
G37*
G36*
X1917039Y1346200D02*
G01*
X2019300Y1346200D01*
X2019300Y1448562D01*
X2017471Y1448460D01*
X2003196Y1445717D01*
X1989328Y1441246D01*
X1976170Y1435049D01*
X1963877Y1427226D01*
X1952650Y1417980D01*
X1942693Y1407363D01*
X1934159Y1395577D01*
X1927148Y1382826D01*
X1921814Y1369314D01*
X1918157Y1355191D01*
G37*
G36*
X4584700Y1346200D02*
G01*
X4686960Y1346200D01*
X4685842Y1355191D01*
X4682236Y1369314D01*
X4676851Y1382826D01*
X4669840Y1395577D01*
X4661306Y1407363D01*
X4651349Y1417980D01*
X4640122Y1427226D01*
X4627829Y1435049D01*
X4614672Y1441246D01*
X4600803Y1445717D01*
X4586528Y1448460D01*
X4584700Y1448562D01*
G37*
G36*
X901039Y1346200D02*
G01*
X1003300Y1346200D01*
X1003300Y1448562D01*
X1001471Y1448460D01*
X987196Y1445717D01*
X973328Y1441246D01*
X960170Y1435049D01*
X947877Y1427226D01*
X936650Y1417980D01*
X926693Y1407363D01*
X918159Y1395577D01*
X911148Y1382826D01*
X905814Y1369314D01*
X902157Y1355191D01*
G37*
G36*
X1028700Y1346200D02*
G01*
X1130960Y1346200D01*
X1129842Y1355191D01*
X1126236Y1369314D01*
X1120851Y1382826D01*
X1113840Y1395577D01*
X1105306Y1407363D01*
X1095349Y1417980D01*
X1084122Y1427226D01*
X1071829Y1435049D01*
X1058672Y1441246D01*
X1044803Y1445717D01*
X1030528Y1448460D01*
X1028700Y1448562D01*
G37*
G36*
X4584700Y5346700D02*
G01*
X4687112Y5346700D01*
X4686960Y5348528D01*
X4684268Y5362803D01*
X4679746Y5376672D01*
X4673549Y5389829D01*
X4665776Y5402122D01*
X4656480Y5413349D01*
X4645863Y5423306D01*
X4634077Y5431840D01*
X4621326Y5438851D01*
X4607814Y5444236D01*
X4593691Y5447842D01*
X4584700Y5448960D01*
G37*
G36*
X2667000Y1467662D02*
G01*
X2676804Y1468526D01*
X2686253Y1471066D01*
X2695194Y1475181D01*
X2703220Y1480820D01*
X2704795Y1482394D01*
X2708097Y1484630D01*
X2712008Y1485392D01*
X3980891Y1485392D01*
X3984802Y1484630D01*
X3988104Y1482394D01*
X3989679Y1480820D01*
X3997706Y1475181D01*
X4006646Y1471066D01*
X4016095Y1468526D01*
X4025900Y1467662D01*
X4035704Y1468526D01*
X4045153Y1471066D01*
X4054094Y1475181D01*
X4062120Y1480820D01*
X4069079Y1487779D01*
X4074718Y1495806D01*
X4078833Y1504746D01*
X4081373Y1514195D01*
X4082237Y1524000D01*
X4081373Y1533804D01*
X4078833Y1543253D01*
X4074718Y1552194D01*
X4069079Y1560220D01*
X4062120Y1567180D01*
X4054094Y1572818D01*
X4045153Y1576933D01*
X4035704Y1579473D01*
X4025900Y1580337D01*
X4016095Y1579473D01*
X4006646Y1576933D01*
X3997706Y1572818D01*
X3989679Y1567180D01*
X3988104Y1565605D01*
X3984802Y1563370D01*
X3980891Y1562608D01*
X3811168Y1562608D01*
X3807561Y1563268D01*
X3804412Y1565198D01*
X3802126Y1568145D01*
X3801059Y1571701D01*
X3801364Y1575409D01*
X3801973Y1577695D01*
X3802837Y1587500D01*
X3801973Y1597304D01*
X3801364Y1599590D01*
X3801059Y1603298D01*
X3802126Y1606854D01*
X3804412Y1609801D01*
X3807561Y1611731D01*
X3811168Y1612392D01*
X4209491Y1612392D01*
X4213402Y1611630D01*
X4216704Y1609394D01*
X4218279Y1607820D01*
X4226306Y1602181D01*
X4235246Y1598066D01*
X4244695Y1595526D01*
X4254500Y1594662D01*
X4264304Y1595526D01*
X4273753Y1598066D01*
X4282694Y1602181D01*
X4290720Y1607820D01*
X4297680Y1614779D01*
X4303318Y1622806D01*
X4307433Y1631746D01*
X4309973Y1641195D01*
X4310837Y1651000D01*
X4309973Y1660804D01*
X4307433Y1670253D01*
X4303318Y1679193D01*
X4297680Y1687220D01*
X4290720Y1694180D01*
X4282694Y1699818D01*
X4273753Y1703933D01*
X4264304Y1706473D01*
X4254500Y1707337D01*
X4244695Y1706473D01*
X4235246Y1703933D01*
X4226306Y1699818D01*
X4218279Y1694180D01*
X4216704Y1692605D01*
X4213402Y1690370D01*
X4209491Y1689607D01*
X3620668Y1689607D01*
X3617061Y1690268D01*
X3613912Y1692198D01*
X3611626Y1695145D01*
X3610559Y1698701D01*
X3610864Y1702409D01*
X3611473Y1704695D01*
X3612337Y1714500D01*
X3611473Y1724304D01*
X3610864Y1726590D01*
X3610559Y1730298D01*
X3611626Y1733854D01*
X3613912Y1736801D01*
X3617061Y1738731D01*
X3620668Y1739392D01*
X3764991Y1739392D01*
X3768902Y1738630D01*
X3772204Y1736394D01*
X3773779Y1734820D01*
X3781806Y1729181D01*
X3790746Y1725066D01*
X3800195Y1722526D01*
X3810000Y1721662D01*
X3819804Y1722526D01*
X3829253Y1725066D01*
X3838194Y1729181D01*
X3846220Y1734820D01*
X3853179Y1741779D01*
X3858818Y1749806D01*
X3862933Y1758746D01*
X3865473Y1768195D01*
X3866337Y1777949D01*
X3867505Y1781860D01*
X3870147Y1785010D01*
X3873855Y1786889D01*
X3880053Y1788566D01*
X3888994Y1792681D01*
X3897020Y1798320D01*
X3898595Y1799894D01*
X3901897Y1802130D01*
X3905808Y1802892D01*
X4253331Y1802892D01*
X4256938Y1802231D01*
X4260088Y1800301D01*
X4262374Y1797354D01*
X4263440Y1793798D01*
X4263136Y1790090D01*
X4262526Y1787804D01*
X4261662Y1778000D01*
X4262526Y1768195D01*
X4265066Y1758746D01*
X4269181Y1749806D01*
X4274820Y1741779D01*
X4281779Y1734820D01*
X4289806Y1729181D01*
X4298746Y1725066D01*
X4308195Y1722526D01*
X4318000Y1721662D01*
X4327804Y1722526D01*
X4337253Y1725066D01*
X4346194Y1729181D01*
X4354220Y1734820D01*
X4355795Y1736394D01*
X4359097Y1738630D01*
X4363008Y1739392D01*
X4463491Y1739392D01*
X4467402Y1738630D01*
X4470704Y1736394D01*
X4472279Y1734820D01*
X4480306Y1729181D01*
X4489246Y1725066D01*
X4498695Y1722526D01*
X4508500Y1721662D01*
X4518304Y1722526D01*
X4527753Y1725066D01*
X4536694Y1729181D01*
X4544720Y1734820D01*
X4551680Y1741779D01*
X4557318Y1749806D01*
X4561433Y1758746D01*
X4563973Y1768195D01*
X4564837Y1778000D01*
X4563973Y1787804D01*
X4563364Y1790090D01*
X4563059Y1793798D01*
X4564126Y1797354D01*
X4566412Y1800301D01*
X4569561Y1802231D01*
X4573168Y1802892D01*
X4653991Y1802892D01*
X4657902Y1802130D01*
X4661204Y1799894D01*
X4662779Y1798320D01*
X4670806Y1792681D01*
X4679746Y1788566D01*
X4689195Y1786026D01*
X4699000Y1785162D01*
X4708804Y1786026D01*
X4718253Y1788566D01*
X4727194Y1792681D01*
X4735220Y1798320D01*
X4742180Y1805279D01*
X4747818Y1813306D01*
X4751933Y1822246D01*
X4754473Y1831695D01*
X4755337Y1841500D01*
X4754473Y1851304D01*
X4753864Y1853590D01*
X4753559Y1857298D01*
X4754626Y1860854D01*
X4756912Y1863801D01*
X4760061Y1865731D01*
X4763668Y1866392D01*
X4780991Y1866392D01*
X4784902Y1865630D01*
X4788204Y1863394D01*
X4789779Y1861820D01*
X4797806Y1856181D01*
X4806746Y1852066D01*
X4816195Y1849526D01*
X4826000Y1848662D01*
X4835804Y1849526D01*
X4845253Y1852066D01*
X4854194Y1856181D01*
X4862220Y1861820D01*
X4869180Y1868779D01*
X4874818Y1876806D01*
X4878933Y1885746D01*
X4881473Y1895195D01*
X4882337Y1905000D01*
X4881473Y1914804D01*
X4880864Y1917090D01*
X4880559Y1920798D01*
X4881626Y1924354D01*
X4883912Y1927301D01*
X4887061Y1929231D01*
X4890668Y1929892D01*
X4907991Y1929892D01*
X4911902Y1929130D01*
X4915204Y1926894D01*
X4916779Y1925320D01*
X4924806Y1919681D01*
X4933746Y1915566D01*
X4943195Y1913026D01*
X4953000Y1912162D01*
X4962804Y1913026D01*
X4972253Y1915566D01*
X4981194Y1919681D01*
X4989220Y1925320D01*
X4996180Y1932279D01*
X5001818Y1940306D01*
X5005933Y1949246D01*
X5008473Y1958695D01*
X5009438Y1969363D01*
X5010607Y1973275D01*
X5013248Y1976424D01*
X5016906Y1978253D01*
X5019802Y1979066D01*
X5028692Y1983181D01*
X5036769Y1988820D01*
X5043678Y1995779D01*
X5049316Y2003806D01*
X5053482Y2012746D01*
X5056022Y2022195D01*
X5056886Y2032000D01*
X5056022Y2041804D01*
X5055412Y2044090D01*
X5055108Y2047798D01*
X5056174Y2051354D01*
X5058410Y2054301D01*
X5061559Y2056231D01*
X5065217Y2056892D01*
X5209540Y2056892D01*
X5213451Y2056130D01*
X5216702Y2053894D01*
X5218328Y2052320D01*
X5226354Y2046681D01*
X5235244Y2042566D01*
X5244744Y2040026D01*
X5254548Y2039162D01*
X5264302Y2040026D01*
X5273802Y2042566D01*
X5282692Y2046681D01*
X5290769Y2052320D01*
X5297678Y2059279D01*
X5303316Y2067306D01*
X5307482Y2076246D01*
X5310022Y2085695D01*
X5310886Y2095500D01*
X5310022Y2105304D01*
X5307482Y2114753D01*
X5303316Y2123694D01*
X5297678Y2131720D01*
X5290769Y2138680D01*
X5282692Y2144318D01*
X5273802Y2148433D01*
X5264302Y2150973D01*
X5254548Y2151837D01*
X5244744Y2150973D01*
X5235244Y2148433D01*
X5226354Y2144318D01*
X5218328Y2138680D01*
X5216702Y2137105D01*
X5213451Y2134870D01*
X5209540Y2134108D01*
X4801768Y2134108D01*
X4798161Y2134768D01*
X4795012Y2136698D01*
X4792726Y2139645D01*
X4791659Y2143201D01*
X4791964Y2146909D01*
X4792573Y2149195D01*
X4793437Y2159000D01*
X4792573Y2168804D01*
X4791964Y2171090D01*
X4791659Y2174798D01*
X4792726Y2178354D01*
X4795012Y2181301D01*
X4798161Y2183231D01*
X4801768Y2183892D01*
X5034991Y2183892D01*
X5038902Y2183130D01*
X5042204Y2180894D01*
X5043779Y2179320D01*
X5051806Y2173681D01*
X5060746Y2169566D01*
X5070195Y2167026D01*
X5080000Y2166162D01*
X5089804Y2167026D01*
X5099253Y2169566D01*
X5108194Y2173681D01*
X5116220Y2179320D01*
X5123180Y2186279D01*
X5128818Y2194306D01*
X5132933Y2203246D01*
X5135473Y2212695D01*
X5136337Y2222500D01*
X5135473Y2232304D01*
X5134864Y2234590D01*
X5134559Y2238298D01*
X5135626Y2241854D01*
X5137912Y2244801D01*
X5141061Y2246731D01*
X5144668Y2247392D01*
X5288991Y2247392D01*
X5292902Y2246630D01*
X5296204Y2244394D01*
X5297779Y2242820D01*
X5305806Y2237181D01*
X5314746Y2233066D01*
X5324195Y2230526D01*
X5334000Y2229662D01*
X5343804Y2230526D01*
X5353253Y2233066D01*
X5362194Y2237181D01*
X5370220Y2242820D01*
X5377180Y2249779D01*
X5382818Y2257806D01*
X5386933Y2266746D01*
X5389473Y2276195D01*
X5390337Y2286000D01*
X5389473Y2295804D01*
X5386933Y2305253D01*
X5382818Y2314194D01*
X5377180Y2322220D01*
X5370220Y2329180D01*
X5362194Y2334818D01*
X5353253Y2338933D01*
X5338978Y2342642D01*
X5335930Y2345080D01*
X5334000Y2348433D01*
X5333492Y2352294D01*
X5334457Y2356104D01*
X5336794Y2359202D01*
X5341315Y2363317D01*
X5351018Y2374646D01*
X5359196Y2387041D01*
X5365851Y2400350D01*
X5370779Y2414422D01*
X5373979Y2428951D01*
X5375351Y2443784D01*
X5374894Y2458669D01*
X5372608Y2473350D01*
X5368544Y2487676D01*
X5362752Y2501392D01*
X5355285Y2514244D01*
X5346344Y2526131D01*
X5335981Y2536850D01*
X5324348Y2546146D01*
X5311698Y2554020D01*
X5298186Y2560218D01*
X5284012Y2564739D01*
X5269382Y2567482D01*
X5254548Y2568397D01*
X5239664Y2567482D01*
X5225034Y2564739D01*
X5210860Y2560218D01*
X5197348Y2554020D01*
X5184698Y2546146D01*
X5173065Y2536850D01*
X5162702Y2526131D01*
X5153761Y2514244D01*
X5146294Y2501392D01*
X5140502Y2487676D01*
X5137302Y2476398D01*
X5135219Y2472537D01*
X5131765Y2469946D01*
X5127548Y2468981D01*
X5123281Y2469946D01*
X5119827Y2472537D01*
X5117744Y2476398D01*
X5114544Y2487676D01*
X5108752Y2501392D01*
X5101285Y2514244D01*
X5092344Y2526131D01*
X5081981Y2536850D01*
X5070348Y2546146D01*
X5057698Y2554020D01*
X5044186Y2560218D01*
X5030012Y2564739D01*
X5015382Y2567482D01*
X5000548Y2568397D01*
X4985664Y2567482D01*
X4971034Y2564739D01*
X4956860Y2560218D01*
X4943348Y2554020D01*
X4930698Y2546146D01*
X4919065Y2536850D01*
X4908702Y2526131D01*
X4899761Y2514244D01*
X4892294Y2501392D01*
X4886502Y2487676D01*
X4883302Y2476398D01*
X4881219Y2472537D01*
X4877765Y2469946D01*
X4873548Y2468981D01*
X4869281Y2469946D01*
X4865827Y2472537D01*
X4863744Y2476398D01*
X4860544Y2487676D01*
X4854752Y2501392D01*
X4847285Y2514244D01*
X4838344Y2526131D01*
X4827981Y2536850D01*
X4816348Y2546146D01*
X4803698Y2554020D01*
X4790186Y2560218D01*
X4776012Y2564739D01*
X4761382Y2567482D01*
X4746548Y2568397D01*
X4731664Y2567482D01*
X4717034Y2564739D01*
X4702860Y2560218D01*
X4689348Y2554020D01*
X4676698Y2546146D01*
X4665065Y2536850D01*
X4654702Y2526131D01*
X4645761Y2514244D01*
X4638294Y2501392D01*
X4632502Y2487676D01*
X4629302Y2476398D01*
X4627219Y2472537D01*
X4623765Y2469946D01*
X4619548Y2468981D01*
X4615281Y2469946D01*
X4611827Y2472537D01*
X4609744Y2476398D01*
X4606544Y2487676D01*
X4600752Y2501392D01*
X4593285Y2514244D01*
X4584344Y2526131D01*
X4573981Y2536850D01*
X4562348Y2546146D01*
X4549698Y2554020D01*
X4536186Y2560218D01*
X4522012Y2564739D01*
X4507382Y2567482D01*
X4492548Y2568397D01*
X4477664Y2567482D01*
X4463034Y2564739D01*
X4448860Y2560218D01*
X4435348Y2554020D01*
X4422698Y2546146D01*
X4411065Y2536850D01*
X4400702Y2526131D01*
X4391761Y2514244D01*
X4384294Y2501392D01*
X4378502Y2487676D01*
X4375302Y2476398D01*
X4373219Y2472537D01*
X4369765Y2469946D01*
X4365548Y2468981D01*
X4361281Y2469946D01*
X4357827Y2472537D01*
X4355744Y2476398D01*
X4352544Y2487676D01*
X4346752Y2501392D01*
X4339285Y2514244D01*
X4330344Y2526131D01*
X4319981Y2536850D01*
X4308348Y2546146D01*
X4295698Y2554020D01*
X4282186Y2560218D01*
X4268012Y2564739D01*
X4253382Y2567482D01*
X4238548Y2568397D01*
X4223664Y2567482D01*
X4209034Y2564739D01*
X4194860Y2560218D01*
X4181348Y2554020D01*
X4168698Y2546146D01*
X4157065Y2536850D01*
X4146702Y2526131D01*
X4137761Y2514244D01*
X4130294Y2501392D01*
X4124502Y2487676D01*
X4121302Y2476398D01*
X4119219Y2472537D01*
X4115765Y2469946D01*
X4111548Y2468981D01*
X4107281Y2469946D01*
X4103827Y2472537D01*
X4101744Y2476398D01*
X4098544Y2487676D01*
X4092752Y2501392D01*
X4085285Y2514244D01*
X4076344Y2526131D01*
X4065981Y2536850D01*
X4054348Y2546146D01*
X4041698Y2554020D01*
X4028186Y2560218D01*
X4014012Y2564739D01*
X3999382Y2567482D01*
X3984548Y2568397D01*
X3969664Y2567482D01*
X3955034Y2564739D01*
X3940860Y2560218D01*
X3927348Y2554020D01*
X3914698Y2546146D01*
X3903065Y2536850D01*
X3892702Y2526131D01*
X3883761Y2514244D01*
X3876294Y2501392D01*
X3870502Y2487676D01*
X3867302Y2476398D01*
X3865219Y2472537D01*
X3861765Y2469946D01*
X3857548Y2468981D01*
X3853281Y2469946D01*
X3849827Y2472537D01*
X3847744Y2476398D01*
X3844544Y2487676D01*
X3838752Y2501392D01*
X3831285Y2514244D01*
X3822344Y2526131D01*
X3811981Y2536850D01*
X3800348Y2546146D01*
X3787698Y2554020D01*
X3774186Y2560218D01*
X3760012Y2564739D01*
X3745382Y2567482D01*
X3730548Y2568397D01*
X3715664Y2567482D01*
X3701034Y2564739D01*
X3686860Y2560218D01*
X3673348Y2554020D01*
X3660698Y2546146D01*
X3649065Y2536850D01*
X3638702Y2526131D01*
X3629761Y2514244D01*
X3622294Y2501392D01*
X3616502Y2487676D01*
X3613302Y2476398D01*
X3611219Y2472537D01*
X3607765Y2469946D01*
X3603548Y2468981D01*
X3599281Y2469946D01*
X3595827Y2472537D01*
X3593744Y2476398D01*
X3590544Y2487676D01*
X3584752Y2501392D01*
X3577285Y2514244D01*
X3568344Y2526131D01*
X3557981Y2536850D01*
X3546348Y2546146D01*
X3533698Y2554020D01*
X3520186Y2560218D01*
X3506012Y2564739D01*
X3491382Y2567482D01*
X3476548Y2568397D01*
X3461664Y2567482D01*
X3447034Y2564739D01*
X3432860Y2560218D01*
X3419348Y2554020D01*
X3406698Y2546146D01*
X3395065Y2536850D01*
X3384702Y2526131D01*
X3375761Y2514244D01*
X3368294Y2501392D01*
X3362502Y2487676D01*
X3358438Y2473350D01*
X3356152Y2458669D01*
X3355695Y2443784D01*
X3357067Y2428951D01*
X3360267Y2414422D01*
X3365195Y2400350D01*
X3371850Y2387041D01*
X3380028Y2374646D01*
X3389731Y2363317D01*
X3400755Y2353310D01*
X3412896Y2344724D01*
X3426002Y2337663D01*
X3439871Y2332278D01*
X3454298Y2328672D01*
X3469081Y2326843D01*
X3483965Y2326843D01*
X3498748Y2328672D01*
X3513175Y2332278D01*
X3527044Y2337663D01*
X3540150Y2344724D01*
X3552291Y2353310D01*
X3563315Y2363317D01*
X3573018Y2374646D01*
X3581196Y2387041D01*
X3587851Y2400350D01*
X3592779Y2414422D01*
X3593592Y2418080D01*
X3595166Y2421636D01*
X3597960Y2424379D01*
X3601567Y2425852D01*
X3605479Y2425852D01*
X3609086Y2424379D01*
X3611879Y2421636D01*
X3613454Y2418080D01*
X3614267Y2414422D01*
X3619195Y2400350D01*
X3625850Y2387041D01*
X3634028Y2374646D01*
X3643731Y2363317D01*
X3654755Y2353310D01*
X3666896Y2344724D01*
X3680002Y2337663D01*
X3693871Y2332278D01*
X3708298Y2328672D01*
X3723081Y2326843D01*
X3737965Y2326843D01*
X3752748Y2328672D01*
X3767175Y2332278D01*
X3781044Y2337663D01*
X3794150Y2344724D01*
X3806291Y2353310D01*
X3817315Y2363317D01*
X3827018Y2374646D01*
X3835196Y2387041D01*
X3841851Y2400350D01*
X3846779Y2414422D01*
X3847592Y2418080D01*
X3849166Y2421636D01*
X3851960Y2424379D01*
X3855567Y2425852D01*
X3859479Y2425852D01*
X3863086Y2424379D01*
X3865879Y2421636D01*
X3867454Y2418080D01*
X3868267Y2414422D01*
X3873195Y2400350D01*
X3879850Y2387041D01*
X3888028Y2374646D01*
X3897731Y2363317D01*
X3908755Y2353310D01*
X3920896Y2344724D01*
X3934002Y2337663D01*
X3947871Y2332278D01*
X3962298Y2328672D01*
X3977081Y2326843D01*
X3991965Y2326843D01*
X4006748Y2328672D01*
X4021175Y2332278D01*
X4035044Y2337663D01*
X4048150Y2344724D01*
X4060291Y2353310D01*
X4071315Y2363317D01*
X4081018Y2374646D01*
X4089196Y2387041D01*
X4095851Y2400350D01*
X4100779Y2414422D01*
X4101592Y2418080D01*
X4103166Y2421636D01*
X4105960Y2424379D01*
X4109567Y2425852D01*
X4113479Y2425852D01*
X4117086Y2424379D01*
X4119879Y2421636D01*
X4121454Y2418080D01*
X4122267Y2414422D01*
X4127195Y2400350D01*
X4133850Y2387041D01*
X4142028Y2374646D01*
X4151731Y2363317D01*
X4162755Y2353310D01*
X4174896Y2344724D01*
X4188002Y2337663D01*
X4201871Y2332278D01*
X4216298Y2328672D01*
X4231081Y2326843D01*
X4245965Y2326843D01*
X4260748Y2328672D01*
X4275175Y2332278D01*
X4289044Y2337663D01*
X4302150Y2344724D01*
X4314291Y2353310D01*
X4325315Y2363317D01*
X4335018Y2374646D01*
X4343196Y2387041D01*
X4349851Y2400350D01*
X4354779Y2414422D01*
X4355592Y2418080D01*
X4357166Y2421636D01*
X4359960Y2424379D01*
X4363567Y2425852D01*
X4367479Y2425852D01*
X4371086Y2424379D01*
X4373880Y2421636D01*
X4375454Y2418080D01*
X4376267Y2414422D01*
X4381195Y2400350D01*
X4387850Y2387041D01*
X4396028Y2374646D01*
X4405731Y2363317D01*
X4416755Y2353310D01*
X4428896Y2344724D01*
X4442002Y2337663D01*
X4455871Y2332278D01*
X4470298Y2328672D01*
X4485081Y2326843D01*
X4499965Y2326843D01*
X4514748Y2328672D01*
X4529175Y2332278D01*
X4543044Y2337663D01*
X4556150Y2344724D01*
X4568291Y2353310D01*
X4579315Y2363317D01*
X4589018Y2374646D01*
X4597196Y2387041D01*
X4603851Y2400350D01*
X4608779Y2414422D01*
X4609592Y2418080D01*
X4611166Y2421636D01*
X4613960Y2424379D01*
X4617567Y2425852D01*
X4621479Y2425852D01*
X4625086Y2424379D01*
X4627880Y2421636D01*
X4629454Y2418080D01*
X4630267Y2414422D01*
X4635195Y2400350D01*
X4641850Y2387041D01*
X4650028Y2374646D01*
X4659731Y2363317D01*
X4670755Y2353310D01*
X4682896Y2344724D01*
X4696002Y2337663D01*
X4709871Y2332278D01*
X4724298Y2328672D01*
X4739081Y2326843D01*
X4753965Y2326843D01*
X4768748Y2328672D01*
X4783175Y2332278D01*
X4797044Y2337663D01*
X4810150Y2344724D01*
X4822291Y2353310D01*
X4833315Y2363317D01*
X4843018Y2374646D01*
X4851196Y2387041D01*
X4857851Y2400350D01*
X4862779Y2414422D01*
X4863592Y2418080D01*
X4865166Y2421636D01*
X4867960Y2424379D01*
X4871567Y2425852D01*
X4875479Y2425852D01*
X4879086Y2424379D01*
X4881880Y2421636D01*
X4883454Y2418080D01*
X4884267Y2414422D01*
X4889195Y2400350D01*
X4895850Y2387041D01*
X4904028Y2374646D01*
X4913731Y2363317D01*
X4924755Y2353310D01*
X4936896Y2344724D01*
X4938725Y2343708D01*
X4942078Y2340813D01*
X4943906Y2336749D01*
X4943754Y2332278D01*
X4941773Y2328316D01*
X4938268Y2325573D01*
X4933950Y2324608D01*
X4921808Y2324608D01*
X4917897Y2325370D01*
X4914595Y2327605D01*
X4913020Y2329180D01*
X4904994Y2334818D01*
X4896053Y2338933D01*
X4886604Y2341473D01*
X4876800Y2342337D01*
X4866995Y2341473D01*
X4857546Y2338933D01*
X4848606Y2334818D01*
X4840579Y2329180D01*
X4833620Y2322220D01*
X4827981Y2314194D01*
X4823866Y2305253D01*
X4821326Y2295804D01*
X4820462Y2286000D01*
X4821326Y2276195D01*
X4821936Y2273909D01*
X4822240Y2270201D01*
X4821174Y2266645D01*
X4818888Y2263698D01*
X4815738Y2261768D01*
X4812131Y2261108D01*
X4667808Y2261108D01*
X4663897Y2261870D01*
X4660595Y2264105D01*
X4659020Y2265680D01*
X4650994Y2271318D01*
X4642053Y2275433D01*
X4632604Y2277973D01*
X4622800Y2278837D01*
X4612995Y2277973D01*
X4603546Y2275433D01*
X4594606Y2271318D01*
X4586579Y2265680D01*
X4579620Y2258720D01*
X4573981Y2250694D01*
X4569866Y2241753D01*
X4567326Y2232304D01*
X4566462Y2222500D01*
X4567326Y2212695D01*
X4567936Y2210409D01*
X4568240Y2206701D01*
X4567174Y2203145D01*
X4564888Y2200198D01*
X4561738Y2198268D01*
X4558131Y2197608D01*
X4490008Y2197608D01*
X4486097Y2198370D01*
X4482795Y2200605D01*
X4481220Y2202180D01*
X4473194Y2207818D01*
X4464253Y2211933D01*
X4454804Y2214473D01*
X4445000Y2215337D01*
X4435195Y2214473D01*
X4425746Y2211933D01*
X4416806Y2207818D01*
X4408779Y2202180D01*
X4401820Y2195220D01*
X4396181Y2187194D01*
X4392066Y2178253D01*
X4389526Y2168804D01*
X4388662Y2159000D01*
X4389526Y2149195D01*
X4390136Y2146909D01*
X4390440Y2143201D01*
X4389374Y2139645D01*
X4387088Y2136698D01*
X4383938Y2134768D01*
X4380331Y2134108D01*
X3544468Y2134108D01*
X3540861Y2134768D01*
X3537712Y2136698D01*
X3535426Y2139645D01*
X3534359Y2143201D01*
X3534664Y2146909D01*
X3535273Y2149195D01*
X3536137Y2159000D01*
X3535273Y2168804D01*
X3532733Y2178253D01*
X3528618Y2187194D01*
X3522979Y2195220D01*
X3516020Y2202180D01*
X3507994Y2207818D01*
X3499053Y2211933D01*
X3489604Y2214473D01*
X3479800Y2215337D01*
X3469995Y2214473D01*
X3460546Y2211933D01*
X3451606Y2207818D01*
X3443579Y2202180D01*
X3442004Y2200605D01*
X3438702Y2198370D01*
X3434791Y2197608D01*
X3347008Y2197608D01*
X3343097Y2198370D01*
X3339795Y2200605D01*
X3338220Y2202180D01*
X3330194Y2207818D01*
X3321253Y2211933D01*
X3311804Y2214473D01*
X3302000Y2215337D01*
X3292195Y2214473D01*
X3282746Y2211933D01*
X3273806Y2207818D01*
X3265779Y2202180D01*
X3258820Y2195220D01*
X3253181Y2187194D01*
X3249066Y2178253D01*
X3246526Y2168804D01*
X3245662Y2159000D01*
X3246526Y2149195D01*
X3247136Y2146909D01*
X3247440Y2143201D01*
X3246374Y2139645D01*
X3244088Y2136698D01*
X3240938Y2134768D01*
X3237331Y2134108D01*
X3190341Y2134108D01*
X3186582Y2134819D01*
X3183331Y2136952D01*
X3181096Y2140051D01*
X3180232Y2143810D01*
X3180791Y2147620D01*
X3182721Y2150973D01*
X3188919Y2158034D01*
X3196640Y2169566D01*
X3202736Y2181961D01*
X3207207Y2195118D01*
X3209899Y2208682D01*
X3210814Y2222500D01*
X3209899Y2236317D01*
X3207207Y2249881D01*
X3202736Y2263038D01*
X3196640Y2275433D01*
X3188919Y2286965D01*
X3179775Y2297379D01*
X3169361Y2306523D01*
X3157880Y2314194D01*
X3145434Y2320340D01*
X3132328Y2324760D01*
X3118764Y2327503D01*
X3104946Y2328367D01*
X3091078Y2327503D01*
X3077514Y2324760D01*
X3064408Y2320340D01*
X3051962Y2314194D01*
X3040481Y2306523D01*
X3030067Y2297379D01*
X3020923Y2286965D01*
X3013202Y2275433D01*
X3007106Y2263038D01*
X3002635Y2249881D01*
X2999943Y2236317D01*
X2999028Y2222500D01*
X2999943Y2208682D01*
X3002635Y2195118D01*
X3007106Y2181961D01*
X3013202Y2169566D01*
X3020923Y2158034D01*
X3027121Y2150973D01*
X3029051Y2147620D01*
X3029610Y2143810D01*
X3028746Y2140051D01*
X3026511Y2136952D01*
X3023260Y2134819D01*
X3019501Y2134108D01*
X2815945Y2134108D01*
X2812186Y2134819D01*
X2808935Y2136952D01*
X2806700Y2140051D01*
X2805836Y2143810D01*
X2806395Y2147620D01*
X2808325Y2150973D01*
X2814523Y2158034D01*
X2822244Y2169566D01*
X2828340Y2181961D01*
X2832811Y2195118D01*
X2835503Y2208682D01*
X2836418Y2222500D01*
X2835503Y2236317D01*
X2832811Y2249881D01*
X2828340Y2263038D01*
X2822244Y2275433D01*
X2814523Y2286965D01*
X2805379Y2297379D01*
X2794965Y2306523D01*
X2783484Y2314194D01*
X2771038Y2320340D01*
X2757932Y2324760D01*
X2744368Y2327503D01*
X2730550Y2328367D01*
X2716682Y2327503D01*
X2703118Y2324760D01*
X2690012Y2320340D01*
X2677566Y2314194D01*
X2666085Y2306523D01*
X2655671Y2297379D01*
X2646527Y2286965D01*
X2638806Y2275433D01*
X2632710Y2263038D01*
X2628239Y2249881D01*
X2625547Y2236317D01*
X2624632Y2222500D01*
X2625547Y2208682D01*
X2628239Y2195118D01*
X2632710Y2181961D01*
X2638806Y2169566D01*
X2646527Y2158034D01*
X2652725Y2150973D01*
X2654655Y2147620D01*
X2655214Y2143810D01*
X2654350Y2140051D01*
X2652115Y2136952D01*
X2648864Y2134819D01*
X2645105Y2134108D01*
X1715668Y2134108D01*
X1712061Y2134768D01*
X1708912Y2136698D01*
X1706625Y2139645D01*
X1705559Y2143201D01*
X1705864Y2146909D01*
X1706473Y2149195D01*
X1707337Y2159000D01*
X1706473Y2168804D01*
X1703933Y2178253D01*
X1699818Y2187194D01*
X1694180Y2195220D01*
X1687220Y2202180D01*
X1679193Y2207818D01*
X1670253Y2211933D01*
X1660804Y2214473D01*
X1651000Y2215337D01*
X1641195Y2214473D01*
X1631746Y2211933D01*
X1622806Y2207818D01*
X1614779Y2202180D01*
X1613204Y2200605D01*
X1609902Y2198370D01*
X1605991Y2197608D01*
X1518208Y2197608D01*
X1514297Y2198370D01*
X1510995Y2200605D01*
X1509420Y2202180D01*
X1501394Y2207818D01*
X1492453Y2211933D01*
X1483004Y2214473D01*
X1473200Y2215337D01*
X1463395Y2214473D01*
X1453946Y2211933D01*
X1445006Y2207818D01*
X1436979Y2202180D01*
X1430020Y2195220D01*
X1424381Y2187194D01*
X1420266Y2178253D01*
X1419504Y2175510D01*
X1417472Y2171649D01*
X1414018Y2168956D01*
X1409700Y2167991D01*
X1405382Y2168956D01*
X1401927Y2171649D01*
X1399895Y2175510D01*
X1399133Y2178253D01*
X1395018Y2187194D01*
X1389380Y2195220D01*
X1382420Y2202180D01*
X1374394Y2207818D01*
X1365453Y2211933D01*
X1356004Y2214473D01*
X1346200Y2215337D01*
X1336395Y2214473D01*
X1326946Y2211933D01*
X1318006Y2207818D01*
X1309979Y2202180D01*
X1308404Y2200605D01*
X1305102Y2198370D01*
X1301191Y2197608D01*
X1156868Y2197608D01*
X1153261Y2198268D01*
X1150112Y2200198D01*
X1147826Y2203145D01*
X1146759Y2206701D01*
X1147064Y2210409D01*
X1147673Y2212695D01*
X1148537Y2222500D01*
X1147673Y2232304D01*
X1145133Y2241753D01*
X1141018Y2250694D01*
X1135380Y2258720D01*
X1128420Y2265680D01*
X1120394Y2271318D01*
X1111453Y2275433D01*
X1102004Y2277973D01*
X1092200Y2278837D01*
X1082395Y2277973D01*
X1072946Y2275433D01*
X1064006Y2271318D01*
X1055979Y2265680D01*
X1054404Y2264105D01*
X1051102Y2261870D01*
X1047191Y2261108D01*
X680008Y2261108D01*
X676097Y2261870D01*
X672795Y2264105D01*
X671220Y2265680D01*
X663194Y2271318D01*
X654253Y2275433D01*
X644804Y2277973D01*
X635000Y2278837D01*
X625195Y2277973D01*
X615746Y2275433D01*
X606806Y2271318D01*
X598779Y2265680D01*
X591820Y2258720D01*
X586181Y2250694D01*
X582066Y2241753D01*
X579526Y2232304D01*
X578662Y2222500D01*
X579526Y2212695D01*
X582066Y2203246D01*
X586181Y2194306D01*
X591820Y2186279D01*
X598779Y2179320D01*
X606806Y2173681D01*
X615746Y2169566D01*
X625195Y2167026D01*
X635000Y2166162D01*
X644804Y2167026D01*
X654253Y2169566D01*
X663194Y2173681D01*
X671220Y2179320D01*
X672795Y2180894D01*
X676097Y2183130D01*
X680008Y2183892D01*
X824331Y2183892D01*
X827938Y2183231D01*
X831087Y2181301D01*
X833374Y2178354D01*
X834440Y2174798D01*
X834136Y2171090D01*
X833526Y2168804D01*
X832662Y2159000D01*
X833526Y2149195D01*
X836066Y2139746D01*
X840181Y2130806D01*
X845819Y2122779D01*
X852779Y2115820D01*
X860806Y2110181D01*
X869746Y2106066D01*
X879195Y2103526D01*
X889000Y2102662D01*
X898804Y2103526D01*
X908253Y2106066D01*
X917194Y2110181D01*
X925220Y2115820D01*
X926795Y2117394D01*
X930097Y2119630D01*
X934008Y2120392D01*
X1301191Y2120392D01*
X1305102Y2119630D01*
X1308404Y2117394D01*
X1309979Y2115820D01*
X1318006Y2110181D01*
X1326946Y2106066D01*
X1336395Y2103526D01*
X1346200Y2102662D01*
X1356004Y2103526D01*
X1365453Y2106066D01*
X1374394Y2110181D01*
X1382420Y2115820D01*
X1389380Y2122779D01*
X1395018Y2130806D01*
X1399133Y2139746D01*
X1399895Y2142490D01*
X1401927Y2146350D01*
X1405382Y2149043D01*
X1409700Y2150008D01*
X1414018Y2149043D01*
X1417472Y2146350D01*
X1419504Y2142490D01*
X1420266Y2139746D01*
X1424381Y2130806D01*
X1430020Y2122779D01*
X1436979Y2115820D01*
X1445006Y2110181D01*
X1453946Y2106066D01*
X1460144Y2104390D01*
X1463852Y2102510D01*
X1466494Y2099360D01*
X1467662Y2095449D01*
X1468526Y2085695D01*
X1469136Y2083409D01*
X1469440Y2079701D01*
X1468374Y2076145D01*
X1466088Y2073198D01*
X1462938Y2071268D01*
X1459331Y2070607D01*
X1315008Y2070607D01*
X1311097Y2071370D01*
X1307795Y2073605D01*
X1306220Y2075180D01*
X1298194Y2080818D01*
X1289253Y2084933D01*
X1279804Y2087473D01*
X1270000Y2088337D01*
X1260195Y2087473D01*
X1250746Y2084933D01*
X1241806Y2080818D01*
X1233779Y2075180D01*
X1226820Y2068220D01*
X1221181Y2060193D01*
X1217066Y2051253D01*
X1214526Y2041804D01*
X1213662Y2032000D01*
X1214526Y2022195D01*
X1215136Y2019909D01*
X1215440Y2016201D01*
X1214374Y2012645D01*
X1212088Y2009698D01*
X1208938Y2007768D01*
X1205331Y2007107D01*
X1188008Y2007107D01*
X1184097Y2007870D01*
X1180795Y2010105D01*
X1179220Y2011680D01*
X1171194Y2017318D01*
X1162253Y2021433D01*
X1152804Y2023973D01*
X1143000Y2024837D01*
X1133195Y2023973D01*
X1123746Y2021433D01*
X1114806Y2017318D01*
X1106779Y2011680D01*
X1099820Y2004720D01*
X1094181Y1996693D01*
X1090066Y1987753D01*
X1087526Y1978304D01*
X1086662Y1968500D01*
X1087526Y1958695D01*
X1090066Y1949246D01*
X1094181Y1940306D01*
X1099820Y1932279D01*
X1106779Y1925320D01*
X1114806Y1919681D01*
X1123746Y1915566D01*
X1133195Y1913026D01*
X1143000Y1912162D01*
X1152804Y1913026D01*
X1162253Y1915566D01*
X1171194Y1919681D01*
X1179220Y1925320D01*
X1180795Y1926894D01*
X1184097Y1929130D01*
X1188008Y1929892D01*
X1542491Y1929892D01*
X1546402Y1929130D01*
X1549704Y1926894D01*
X1551279Y1925320D01*
X1559306Y1919681D01*
X1568246Y1915566D01*
X1577695Y1913026D01*
X1587500Y1912162D01*
X1597304Y1913026D01*
X1606753Y1915566D01*
X1615694Y1919681D01*
X1623720Y1925320D01*
X1630680Y1932279D01*
X1636318Y1940306D01*
X1640433Y1949246D01*
X1642973Y1958695D01*
X1643837Y1968500D01*
X1642973Y1978304D01*
X1642364Y1980590D01*
X1642059Y1984298D01*
X1643125Y1987854D01*
X1645412Y1990801D01*
X1648561Y1992731D01*
X1652168Y1993392D01*
X2043531Y1993392D01*
X2047138Y1992731D01*
X2050288Y1990801D01*
X2052574Y1987854D01*
X2053640Y1984298D01*
X2053336Y1980590D01*
X2052726Y1978304D01*
X2051862Y1968500D01*
X2052726Y1958695D01*
X2053336Y1956409D01*
X2053640Y1952701D01*
X2052574Y1949145D01*
X2050288Y1946198D01*
X2047138Y1944268D01*
X2043531Y1943607D01*
X1899208Y1943607D01*
X1895297Y1944370D01*
X1891995Y1946605D01*
X1890420Y1948180D01*
X1882393Y1953818D01*
X1873453Y1957933D01*
X1864004Y1960473D01*
X1854200Y1961337D01*
X1844395Y1960473D01*
X1834946Y1957933D01*
X1826006Y1953818D01*
X1817979Y1948180D01*
X1811020Y1941220D01*
X1805381Y1933193D01*
X1801266Y1924253D01*
X1798726Y1914804D01*
X1797862Y1905000D01*
X1798726Y1895195D01*
X1799336Y1892909D01*
X1799640Y1889201D01*
X1798574Y1885645D01*
X1796288Y1882698D01*
X1793138Y1880768D01*
X1789531Y1880107D01*
X616508Y1880107D01*
X612597Y1880870D01*
X609295Y1883105D01*
X607720Y1884680D01*
X599694Y1890318D01*
X590753Y1894433D01*
X581304Y1896973D01*
X571500Y1897837D01*
X561695Y1896973D01*
X552246Y1894433D01*
X543306Y1890318D01*
X535279Y1884680D01*
X528320Y1877720D01*
X522681Y1869693D01*
X518566Y1860753D01*
X516026Y1851304D01*
X515162Y1841500D01*
X516026Y1831695D01*
X518566Y1822246D01*
X522681Y1813306D01*
X528320Y1805279D01*
X535279Y1798320D01*
X543306Y1792681D01*
X552246Y1788566D01*
X561695Y1786026D01*
X571500Y1785162D01*
X581304Y1786026D01*
X590753Y1788566D01*
X599694Y1792681D01*
X607720Y1798320D01*
X609295Y1799894D01*
X612597Y1802130D01*
X616508Y1802892D01*
X760831Y1802892D01*
X764438Y1802231D01*
X767588Y1800301D01*
X769874Y1797354D01*
X770940Y1793798D01*
X770636Y1790090D01*
X770026Y1787804D01*
X769162Y1778000D01*
X770026Y1768195D01*
X772566Y1758746D01*
X776681Y1749806D01*
X782320Y1741779D01*
X789279Y1734820D01*
X797306Y1729181D01*
X806246Y1725066D01*
X815695Y1722526D01*
X825500Y1721662D01*
X835304Y1722526D01*
X844753Y1725066D01*
X853694Y1729181D01*
X861720Y1734820D01*
X863295Y1736394D01*
X866597Y1738630D01*
X870508Y1739392D01*
X2284831Y1739392D01*
X2288438Y1738731D01*
X2291588Y1736801D01*
X2293874Y1733854D01*
X2294940Y1730298D01*
X2294636Y1726590D01*
X2294026Y1724304D01*
X2293162Y1714500D01*
X2294026Y1704695D01*
X2296566Y1695246D01*
X2300681Y1686306D01*
X2306320Y1678279D01*
X2313279Y1671320D01*
X2321306Y1665681D01*
X2330246Y1661566D01*
X2339695Y1659026D01*
X2349500Y1658162D01*
X2359304Y1659026D01*
X2368753Y1661566D01*
X2377694Y1665681D01*
X2385720Y1671320D01*
X2387295Y1672894D01*
X2390597Y1675130D01*
X2394508Y1675892D01*
X3110331Y1675892D01*
X3113938Y1675231D01*
X3117088Y1673301D01*
X3119374Y1670354D01*
X3120440Y1666798D01*
X3120136Y1663090D01*
X3119526Y1660804D01*
X3118662Y1651000D01*
X3119526Y1641195D01*
X3120136Y1638909D01*
X3120440Y1635201D01*
X3119374Y1631645D01*
X3117088Y1628698D01*
X3113938Y1626768D01*
X3110331Y1626107D01*
X2966008Y1626107D01*
X2962097Y1626870D01*
X2958795Y1629105D01*
X2957220Y1630680D01*
X2949194Y1636318D01*
X2940253Y1640433D01*
X2930804Y1642973D01*
X2921000Y1643837D01*
X2911195Y1642973D01*
X2901746Y1640433D01*
X2892806Y1636318D01*
X2884779Y1630680D01*
X2877820Y1623720D01*
X2872181Y1615694D01*
X2868066Y1606753D01*
X2865526Y1597304D01*
X2864662Y1587500D01*
X2865526Y1577695D01*
X2866136Y1575409D01*
X2866440Y1571701D01*
X2865374Y1568145D01*
X2863088Y1565198D01*
X2859938Y1563268D01*
X2856331Y1562608D01*
X2712008Y1562608D01*
X2708097Y1563370D01*
X2704795Y1565605D01*
X2703220Y1567180D01*
X2695194Y1572818D01*
X2686253Y1576933D01*
X2676804Y1579473D01*
X2667000Y1580337D01*
X2657195Y1579473D01*
X2647746Y1576933D01*
X2638806Y1572818D01*
X2630779Y1567180D01*
X2623820Y1560220D01*
X2618181Y1552194D01*
X2614066Y1543253D01*
X2611526Y1533804D01*
X2610662Y1524000D01*
X2611526Y1514195D01*
X2614066Y1504746D01*
X2618181Y1495806D01*
X2623820Y1487779D01*
X2630779Y1480820D01*
X2638806Y1475181D01*
X2647746Y1471066D01*
X2657195Y1468526D01*
G37*
G36*
X5448300Y5185613D02*
G01*
X5448300Y5448300D01*
X5185410Y5448300D01*
X5187289Y5426405D01*
X5191150Y5403646D01*
X5196890Y5381244D01*
X5204460Y5359450D01*
X5213858Y5338318D01*
X5224983Y5318099D01*
X5237784Y5298846D01*
X5252161Y5280710D01*
X5267960Y5263896D01*
X5285130Y5248402D01*
X5303520Y5234432D01*
X5323027Y5222087D01*
X5343499Y5211368D01*
X5364835Y5202428D01*
X5386781Y5195265D01*
X5409285Y5189982D01*
X5432145Y5186629D01*
G37*
G36*
X5473700Y5185562D02*
G01*
X5478322Y5185664D01*
X5501284Y5188051D01*
X5523992Y5192369D01*
X5546242Y5198618D01*
X5567934Y5206644D01*
X5588812Y5216499D01*
X5608828Y5228031D01*
X5627827Y5241239D01*
X5645607Y5255971D01*
X5662117Y5272125D01*
X5677204Y5289600D01*
X5690819Y5308295D01*
X5702757Y5328107D01*
X5713018Y5348782D01*
X5721553Y5370271D01*
X5728208Y5392369D01*
X5733034Y5414975D01*
X5735929Y5437936D01*
X5736336Y5448300D01*
X5473700Y5448300D01*
G37*
G36*
X4591812Y4617466D02*
G01*
X4605629Y4617923D01*
X4619244Y4620209D01*
X4632452Y4624324D01*
X4644999Y4630115D01*
X4656632Y4637582D01*
X4667148Y4646472D01*
X4676444Y4656734D01*
X4684268Y4668113D01*
X4690465Y4680407D01*
X4694986Y4693462D01*
X4697730Y4707026D01*
X4698695Y4720793D01*
X4697730Y4734560D01*
X4694986Y4748123D01*
X4690465Y4761128D01*
X4684268Y4773472D01*
X4676444Y4784852D01*
X4667148Y4795113D01*
X4656632Y4804003D01*
X4644999Y4811471D01*
X4632452Y4817262D01*
X4619244Y4821377D01*
X4605629Y4823663D01*
X4591812Y4824120D01*
X4578096Y4822748D01*
X4564684Y4819548D01*
X4551781Y4814570D01*
X4539640Y4807915D01*
X4528566Y4799736D01*
X4518609Y4790135D01*
X4510074Y4779314D01*
X4503013Y4767427D01*
X4497628Y4754727D01*
X4493971Y4741367D01*
X4492142Y4727702D01*
X4492142Y4713884D01*
X4493971Y4700219D01*
X4497628Y4686858D01*
X4503013Y4674158D01*
X4510074Y4662271D01*
X4518609Y4651451D01*
X4528566Y4641850D01*
X4539640Y4633671D01*
X4551781Y4627016D01*
X4564684Y4622038D01*
X4578096Y4618837D01*
G37*
G36*
X3108198Y4614926D02*
G01*
X3122015Y4615789D01*
X3135579Y4618532D01*
X3148736Y4622952D01*
X3161131Y4629099D01*
X3172663Y4636770D01*
X3183077Y4645914D01*
X3192221Y4656328D01*
X3199892Y4667859D01*
X3206038Y4680254D01*
X3210458Y4693412D01*
X3213201Y4706975D01*
X3214065Y4720793D01*
X3213201Y4734610D01*
X3210458Y4748174D01*
X3206038Y4761331D01*
X3199892Y4773726D01*
X3192221Y4785258D01*
X3183077Y4795672D01*
X3172663Y4804816D01*
X3161131Y4812487D01*
X3148736Y4818634D01*
X3135579Y4823053D01*
X3122015Y4825796D01*
X3108198Y4826660D01*
X3094380Y4825796D01*
X3080816Y4823053D01*
X3067659Y4818634D01*
X3055264Y4812487D01*
X3043732Y4804816D01*
X3033318Y4795672D01*
X3024174Y4785258D01*
X3016504Y4773726D01*
X3010357Y4761331D01*
X3005937Y4748174D01*
X3003194Y4734610D01*
X3002330Y4720793D01*
X3003194Y4706975D01*
X3005937Y4693412D01*
X3010357Y4680254D01*
X3016504Y4667859D01*
X3024174Y4656328D01*
X3033318Y4645914D01*
X3043732Y4636770D01*
X3055264Y4629099D01*
X3067659Y4622952D01*
X3080816Y4618532D01*
X3094380Y4615789D01*
G37*
G36*
X2733802Y4614926D02*
G01*
X2747619Y4615789D01*
X2761183Y4618532D01*
X2774340Y4622952D01*
X2786735Y4629099D01*
X2798267Y4636770D01*
X2808681Y4645914D01*
X2817825Y4656328D01*
X2825496Y4667859D01*
X2831642Y4680254D01*
X2836062Y4693412D01*
X2838805Y4706975D01*
X2839669Y4720793D01*
X2838805Y4734610D01*
X2836062Y4748174D01*
X2831642Y4761331D01*
X2825496Y4773726D01*
X2817825Y4785258D01*
X2808681Y4795672D01*
X2798267Y4804816D01*
X2786735Y4812487D01*
X2774340Y4818634D01*
X2761183Y4823053D01*
X2747619Y4825796D01*
X2733802Y4826660D01*
X2719984Y4825796D01*
X2706420Y4823053D01*
X2693263Y4818634D01*
X2680868Y4812487D01*
X2669336Y4804816D01*
X2658922Y4795672D01*
X2649778Y4785258D01*
X2642108Y4773726D01*
X2635961Y4761331D01*
X2631541Y4748174D01*
X2628798Y4734610D01*
X2627934Y4720793D01*
X2628798Y4706975D01*
X2631541Y4693412D01*
X2635961Y4680254D01*
X2642108Y4667859D01*
X2649778Y4656328D01*
X2658922Y4645914D01*
X2669336Y4636770D01*
X2680868Y4629099D01*
X2693263Y4622952D01*
X2706420Y4618532D01*
X2719984Y4615789D01*
G37*
G36*
X212598Y4614926D02*
G01*
X226415Y4615789D01*
X239979Y4618532D01*
X253136Y4622952D01*
X265531Y4629099D01*
X277063Y4636770D01*
X287477Y4645914D01*
X296621Y4656328D01*
X304292Y4667859D01*
X310438Y4680254D01*
X314858Y4693412D01*
X317601Y4706975D01*
X318465Y4720793D01*
X317601Y4734610D01*
X314858Y4748174D01*
X310438Y4761331D01*
X304292Y4773726D01*
X296621Y4785258D01*
X287477Y4795672D01*
X277063Y4804816D01*
X265531Y4812487D01*
X253136Y4818634D01*
X239979Y4823053D01*
X226415Y4825796D01*
X212598Y4826660D01*
X198780Y4825796D01*
X185216Y4823053D01*
X172059Y4818634D01*
X159664Y4812487D01*
X148132Y4804816D01*
X137718Y4795672D01*
X128574Y4785258D01*
X120904Y4773726D01*
X114757Y4761331D01*
X110337Y4748174D01*
X107594Y4734610D01*
X106730Y4720793D01*
X107594Y4706975D01*
X110337Y4693412D01*
X114757Y4680254D01*
X120904Y4667859D01*
X128574Y4656328D01*
X137718Y4645914D01*
X148132Y4636770D01*
X159664Y4629099D01*
X172059Y4622952D01*
X185216Y4618532D01*
X198780Y4615789D01*
G37*
G36*
X5461000Y4588103D02*
G01*
X5475173Y4589018D01*
X5489143Y4591761D01*
X5502605Y4596231D01*
X5515406Y4602378D01*
X5527344Y4610150D01*
X5538165Y4619345D01*
X5547715Y4629861D01*
X5555843Y4641494D01*
X5562396Y4654092D01*
X5567324Y4667453D01*
X5570474Y4681321D01*
X5571845Y4695444D01*
X5571388Y4709668D01*
X5569102Y4723688D01*
X5565089Y4737303D01*
X5559298Y4750308D01*
X5551932Y4762449D01*
X5543092Y4773574D01*
X5532882Y4783429D01*
X5521502Y4791913D01*
X5509107Y4798923D01*
X5495950Y4804257D01*
X5482183Y4807864D01*
X5468112Y4809642D01*
X5453888Y4809642D01*
X5439816Y4807864D01*
X5426049Y4804257D01*
X5412892Y4798923D01*
X5400497Y4791913D01*
X5389118Y4783429D01*
X5378907Y4773574D01*
X5370068Y4762449D01*
X5362702Y4750308D01*
X5356961Y4737303D01*
X5352897Y4723688D01*
X5350611Y4709668D01*
X5350154Y4695444D01*
X5351526Y4681321D01*
X5354675Y4667453D01*
X5359603Y4654092D01*
X5366156Y4641494D01*
X5374284Y4629861D01*
X5383834Y4619345D01*
X5394655Y4610150D01*
X5406593Y4602378D01*
X5419394Y4596231D01*
X5432856Y4591761D01*
X5446826Y4589018D01*
G37*
G36*
X584200Y4374896D02*
G01*
X599033Y4375810D01*
X613664Y4378553D01*
X627888Y4383074D01*
X641400Y4389272D01*
X654050Y4397146D01*
X665632Y4406442D01*
X675995Y4417161D01*
X684987Y4429048D01*
X692404Y4441901D01*
X698195Y4455617D01*
X701446Y4466894D01*
X703478Y4470755D01*
X706932Y4473346D01*
X711200Y4474311D01*
X715467Y4473346D01*
X718921Y4470755D01*
X720953Y4466894D01*
X724204Y4455617D01*
X729996Y4441901D01*
X737412Y4429048D01*
X746404Y4417161D01*
X756767Y4406442D01*
X768350Y4397146D01*
X780999Y4389272D01*
X794512Y4383074D01*
X808736Y4378553D01*
X823366Y4375810D01*
X838200Y4374896D01*
X853033Y4375810D01*
X867664Y4378553D01*
X881887Y4383074D01*
X895400Y4389272D01*
X908050Y4397146D01*
X919632Y4406442D01*
X929995Y4417161D01*
X938987Y4429048D01*
X946403Y4441901D01*
X952195Y4455617D01*
X955446Y4466894D01*
X957478Y4470755D01*
X960932Y4473346D01*
X965200Y4474311D01*
X969467Y4473346D01*
X972921Y4470755D01*
X974953Y4466894D01*
X978204Y4455617D01*
X983996Y4441901D01*
X991412Y4429048D01*
X1000404Y4417161D01*
X1010767Y4406442D01*
X1022350Y4397146D01*
X1034999Y4389272D01*
X1048512Y4383074D01*
X1062736Y4378553D01*
X1077366Y4375810D01*
X1092200Y4374896D01*
X1107033Y4375810D01*
X1121664Y4378553D01*
X1135888Y4383074D01*
X1149400Y4389272D01*
X1162050Y4397146D01*
X1173632Y4406442D01*
X1183995Y4417161D01*
X1192987Y4429048D01*
X1200404Y4441901D01*
X1206195Y4455617D01*
X1209446Y4466894D01*
X1211478Y4470755D01*
X1214932Y4473346D01*
X1219200Y4474311D01*
X1223467Y4473346D01*
X1226921Y4470755D01*
X1228953Y4466894D01*
X1232204Y4455617D01*
X1237996Y4441901D01*
X1245412Y4429048D01*
X1254404Y4417161D01*
X1264767Y4406442D01*
X1276350Y4397146D01*
X1288999Y4389272D01*
X1302512Y4383074D01*
X1316736Y4378553D01*
X1331366Y4375810D01*
X1346200Y4374896D01*
X1361033Y4375810D01*
X1375664Y4378553D01*
X1389888Y4383074D01*
X1403400Y4389272D01*
X1416050Y4397146D01*
X1427632Y4406442D01*
X1437995Y4417161D01*
X1446987Y4429048D01*
X1454404Y4441901D01*
X1460195Y4455617D01*
X1463446Y4466894D01*
X1465478Y4470755D01*
X1468932Y4473346D01*
X1473200Y4474311D01*
X1477467Y4473346D01*
X1480921Y4470755D01*
X1482953Y4466894D01*
X1486204Y4455617D01*
X1491996Y4441901D01*
X1499412Y4429048D01*
X1508404Y4417161D01*
X1518767Y4406442D01*
X1530350Y4397146D01*
X1542999Y4389272D01*
X1556512Y4383074D01*
X1570736Y4378553D01*
X1585366Y4375810D01*
X1600200Y4374896D01*
X1615033Y4375810D01*
X1629664Y4378553D01*
X1643888Y4383074D01*
X1657400Y4389272D01*
X1670050Y4397146D01*
X1681632Y4406442D01*
X1691995Y4417161D01*
X1700987Y4429048D01*
X1708404Y4441901D01*
X1714195Y4455617D01*
X1717446Y4466894D01*
X1719478Y4470755D01*
X1722932Y4473346D01*
X1727200Y4474311D01*
X1731467Y4473346D01*
X1734921Y4470755D01*
X1736953Y4466894D01*
X1740204Y4455617D01*
X1745996Y4441901D01*
X1753412Y4429048D01*
X1762404Y4417161D01*
X1772767Y4406442D01*
X1784350Y4397146D01*
X1796999Y4389272D01*
X1810512Y4383074D01*
X1824736Y4378553D01*
X1839366Y4375810D01*
X1854200Y4374896D01*
X1869033Y4375810D01*
X1883664Y4378553D01*
X1897888Y4383074D01*
X1911400Y4389272D01*
X1924050Y4397146D01*
X1935632Y4406442D01*
X1945995Y4417161D01*
X1954987Y4429048D01*
X1962404Y4441901D01*
X1968195Y4455617D01*
X1971446Y4466894D01*
X1973478Y4470755D01*
X1976932Y4473346D01*
X1981200Y4474311D01*
X1985467Y4473346D01*
X1988921Y4470755D01*
X1990953Y4466894D01*
X1994204Y4455617D01*
X1999996Y4441901D01*
X2007412Y4429048D01*
X2016404Y4417161D01*
X2026767Y4406442D01*
X2038350Y4397146D01*
X2050999Y4389272D01*
X2064512Y4383074D01*
X2078736Y4378553D01*
X2093366Y4375810D01*
X2108200Y4374896D01*
X2123033Y4375810D01*
X2137664Y4378553D01*
X2151888Y4383074D01*
X2165400Y4389272D01*
X2178050Y4397146D01*
X2189632Y4406442D01*
X2199995Y4417161D01*
X2208987Y4429048D01*
X2216404Y4441901D01*
X2222195Y4455617D01*
X2225446Y4466894D01*
X2227478Y4470755D01*
X2230932Y4473346D01*
X2235200Y4474311D01*
X2239467Y4473346D01*
X2242921Y4470755D01*
X2244953Y4466894D01*
X2248204Y4455617D01*
X2253996Y4441901D01*
X2261412Y4429048D01*
X2270404Y4417161D01*
X2280767Y4406442D01*
X2292350Y4397146D01*
X2304999Y4389272D01*
X2318512Y4383074D01*
X2332736Y4378553D01*
X2347366Y4375810D01*
X2362200Y4374896D01*
X2377033Y4375810D01*
X2391664Y4378553D01*
X2405888Y4383074D01*
X2419400Y4389272D01*
X2432050Y4397146D01*
X2443632Y4406442D01*
X2453995Y4417161D01*
X2462987Y4429048D01*
X2470404Y4441901D01*
X2476195Y4455617D01*
X2480310Y4469942D01*
X2482596Y4484624D01*
X2483053Y4499508D01*
X2481681Y4514342D01*
X2478481Y4528870D01*
X2473502Y4542942D01*
X2466898Y4556252D01*
X2458669Y4568647D01*
X2448966Y4579975D01*
X2437993Y4589983D01*
X2425852Y4598568D01*
X2412746Y4605629D01*
X2398826Y4611014D01*
X2384399Y4614621D01*
X2369616Y4616450D01*
X2354783Y4616450D01*
X2340000Y4614621D01*
X2325573Y4611014D01*
X2311654Y4605629D01*
X2298547Y4598568D01*
X2286406Y4589983D01*
X2275433Y4579975D01*
X2265730Y4568647D01*
X2257501Y4556252D01*
X2250897Y4542942D01*
X2245918Y4528870D01*
X2245106Y4525213D01*
X2243582Y4521657D01*
X2240788Y4518914D01*
X2237130Y4517440D01*
X2233269Y4517440D01*
X2229612Y4518914D01*
X2226818Y4521657D01*
X2225294Y4525213D01*
X2224481Y4528870D01*
X2219502Y4542942D01*
X2212898Y4556252D01*
X2204669Y4568647D01*
X2194966Y4579975D01*
X2183993Y4589983D01*
X2171852Y4598568D01*
X2158746Y4605629D01*
X2144826Y4611014D01*
X2130399Y4614621D01*
X2115616Y4616450D01*
X2100783Y4616450D01*
X2086000Y4614621D01*
X2071573Y4611014D01*
X2057654Y4605629D01*
X2044547Y4598568D01*
X2032406Y4589983D01*
X2021433Y4579975D01*
X2011730Y4568647D01*
X2003501Y4556252D01*
X1996897Y4542942D01*
X1991918Y4528870D01*
X1991106Y4525213D01*
X1989582Y4521657D01*
X1986788Y4518914D01*
X1983130Y4517440D01*
X1979269Y4517440D01*
X1975612Y4518914D01*
X1972818Y4521657D01*
X1971293Y4525213D01*
X1970481Y4528870D01*
X1965502Y4542942D01*
X1958898Y4556252D01*
X1950669Y4568647D01*
X1940966Y4579975D01*
X1929993Y4589983D01*
X1917852Y4598568D01*
X1904746Y4605629D01*
X1890826Y4611014D01*
X1876399Y4614621D01*
X1861616Y4616450D01*
X1846783Y4616450D01*
X1832000Y4614621D01*
X1817573Y4611014D01*
X1803654Y4605629D01*
X1790547Y4598568D01*
X1778406Y4589983D01*
X1767433Y4579975D01*
X1757730Y4568647D01*
X1749501Y4556252D01*
X1742897Y4542942D01*
X1737918Y4528870D01*
X1737106Y4525213D01*
X1735582Y4521657D01*
X1732788Y4518914D01*
X1729130Y4517440D01*
X1725269Y4517440D01*
X1721612Y4518914D01*
X1718818Y4521657D01*
X1717293Y4525213D01*
X1716481Y4528870D01*
X1711502Y4542942D01*
X1704898Y4556252D01*
X1696669Y4568647D01*
X1686966Y4579975D01*
X1675993Y4589983D01*
X1663852Y4598568D01*
X1650746Y4605629D01*
X1636826Y4611014D01*
X1622399Y4614621D01*
X1607616Y4616450D01*
X1592783Y4616450D01*
X1578000Y4614621D01*
X1563573Y4611014D01*
X1549654Y4605629D01*
X1536547Y4598568D01*
X1524406Y4589983D01*
X1513433Y4579975D01*
X1503730Y4568647D01*
X1495501Y4556252D01*
X1488897Y4542942D01*
X1483918Y4528870D01*
X1483106Y4525213D01*
X1481582Y4521657D01*
X1478788Y4518914D01*
X1475130Y4517440D01*
X1471269Y4517440D01*
X1467612Y4518914D01*
X1464818Y4521657D01*
X1463294Y4525213D01*
X1462481Y4528870D01*
X1457502Y4542942D01*
X1450898Y4556252D01*
X1442669Y4568647D01*
X1432966Y4579975D01*
X1421993Y4589983D01*
X1409852Y4598568D01*
X1396746Y4605629D01*
X1382826Y4611014D01*
X1368399Y4614621D01*
X1353616Y4616450D01*
X1338783Y4616450D01*
X1324000Y4614621D01*
X1309573Y4611014D01*
X1295654Y4605629D01*
X1282547Y4598568D01*
X1270406Y4589983D01*
X1259433Y4579975D01*
X1249730Y4568647D01*
X1241501Y4556252D01*
X1234897Y4542942D01*
X1229918Y4528870D01*
X1229106Y4525213D01*
X1227582Y4521657D01*
X1224788Y4518914D01*
X1221130Y4517440D01*
X1217269Y4517440D01*
X1213612Y4518914D01*
X1210818Y4521657D01*
X1209294Y4525213D01*
X1208481Y4528870D01*
X1203502Y4542942D01*
X1196898Y4556252D01*
X1188669Y4568647D01*
X1178966Y4579975D01*
X1167993Y4589983D01*
X1155852Y4598568D01*
X1142746Y4605629D01*
X1128826Y4611014D01*
X1114399Y4614621D01*
X1099616Y4616450D01*
X1084783Y4616450D01*
X1070000Y4614621D01*
X1055573Y4611014D01*
X1041653Y4605629D01*
X1028547Y4598568D01*
X1016406Y4589983D01*
X1005433Y4579975D01*
X995730Y4568647D01*
X987501Y4556252D01*
X980897Y4542942D01*
X975918Y4528870D01*
X975106Y4525213D01*
X973582Y4521657D01*
X970787Y4518914D01*
X967130Y4517440D01*
X963269Y4517440D01*
X959612Y4518914D01*
X956818Y4521657D01*
X955294Y4525213D01*
X954481Y4528870D01*
X949502Y4542942D01*
X942898Y4556252D01*
X934669Y4568647D01*
X924966Y4579975D01*
X913993Y4589983D01*
X901852Y4598568D01*
X888746Y4605629D01*
X874826Y4611014D01*
X860399Y4614621D01*
X845616Y4616450D01*
X830783Y4616450D01*
X816000Y4614621D01*
X801573Y4611014D01*
X787654Y4605629D01*
X774547Y4598568D01*
X762406Y4589983D01*
X751433Y4579975D01*
X741730Y4568647D01*
X733501Y4556252D01*
X726897Y4542942D01*
X721918Y4528870D01*
X721106Y4525213D01*
X719582Y4521657D01*
X716788Y4518914D01*
X713130Y4517440D01*
X709269Y4517440D01*
X705612Y4518914D01*
X702818Y4521657D01*
X701294Y4525213D01*
X700481Y4528870D01*
X695502Y4542942D01*
X688898Y4556252D01*
X680669Y4568647D01*
X670966Y4579975D01*
X659993Y4589983D01*
X647852Y4598568D01*
X634746Y4605629D01*
X620826Y4611014D01*
X606399Y4614621D01*
X591616Y4616450D01*
X576783Y4616450D01*
X562000Y4614621D01*
X547573Y4611014D01*
X533654Y4605629D01*
X520547Y4598568D01*
X508406Y4589983D01*
X497433Y4579975D01*
X487730Y4568647D01*
X479501Y4556252D01*
X472897Y4542942D01*
X467918Y4528870D01*
X464718Y4514342D01*
X463346Y4499508D01*
X463804Y4484624D01*
X466090Y4469942D01*
X470204Y4455617D01*
X475996Y4441901D01*
X483412Y4429048D01*
X492404Y4417161D01*
X502767Y4406442D01*
X514350Y4397146D01*
X526999Y4389272D01*
X540512Y4383074D01*
X554736Y4378553D01*
X569366Y4375810D01*
G37*
G36*
X3470706Y4374896D02*
G01*
X3485591Y4375810D01*
X3500221Y4378553D01*
X3514394Y4383074D01*
X3527907Y4389272D01*
X3540556Y4397095D01*
X3552190Y4406442D01*
X3562502Y4417110D01*
X3571494Y4428998D01*
X3578961Y4441901D01*
X3584752Y4455617D01*
X3587953Y4466894D01*
X3589985Y4470704D01*
X3593490Y4473346D01*
X3597706Y4474260D01*
X3601974Y4473346D01*
X3605428Y4470704D01*
X3607511Y4466894D01*
X3610711Y4455617D01*
X3616502Y4441901D01*
X3623970Y4428998D01*
X3632911Y4417110D01*
X3643274Y4406442D01*
X3654856Y4397095D01*
X3667556Y4389272D01*
X3681069Y4383074D01*
X3695242Y4378553D01*
X3709873Y4375810D01*
X3724706Y4374896D01*
X3739591Y4375810D01*
X3754221Y4378553D01*
X3768394Y4383074D01*
X3781907Y4389272D01*
X3794556Y4397095D01*
X3806190Y4406442D01*
X3816502Y4417110D01*
X3825494Y4428998D01*
X3832961Y4441901D01*
X3838752Y4455617D01*
X3841953Y4466894D01*
X3843985Y4470704D01*
X3847490Y4473346D01*
X3851706Y4474260D01*
X3855974Y4473346D01*
X3859428Y4470704D01*
X3861511Y4466894D01*
X3864711Y4455617D01*
X3870502Y4441901D01*
X3877970Y4428998D01*
X3886911Y4417110D01*
X3897274Y4406442D01*
X3908856Y4397095D01*
X3921556Y4389272D01*
X3935069Y4383074D01*
X3949242Y4378553D01*
X3963873Y4375810D01*
X3978706Y4374896D01*
X3993591Y4375810D01*
X4008221Y4378553D01*
X4022394Y4383074D01*
X4035907Y4389272D01*
X4048556Y4397095D01*
X4060190Y4406442D01*
X4070502Y4417110D01*
X4079494Y4428998D01*
X4086961Y4441901D01*
X4092752Y4455617D01*
X4095953Y4466894D01*
X4097985Y4470704D01*
X4101490Y4473346D01*
X4105706Y4474260D01*
X4109974Y4473346D01*
X4113428Y4470704D01*
X4115511Y4466894D01*
X4118711Y4455617D01*
X4124502Y4441901D01*
X4131970Y4428998D01*
X4140911Y4417110D01*
X4151274Y4406442D01*
X4162856Y4397095D01*
X4175556Y4389272D01*
X4189069Y4383074D01*
X4203242Y4378553D01*
X4217873Y4375810D01*
X4232706Y4374896D01*
X4247591Y4375810D01*
X4262221Y4378553D01*
X4276394Y4383074D01*
X4289907Y4389272D01*
X4302556Y4397095D01*
X4314190Y4406442D01*
X4324502Y4417110D01*
X4333494Y4428998D01*
X4340961Y4441901D01*
X4346752Y4455617D01*
X4350816Y4469942D01*
X4353102Y4484624D01*
X4353560Y4499508D01*
X4352188Y4514342D01*
X4348988Y4528870D01*
X4344060Y4542891D01*
X4337405Y4556252D01*
X4329176Y4568647D01*
X4319524Y4579924D01*
X4308500Y4589983D01*
X4296359Y4598568D01*
X4283252Y4605629D01*
X4269384Y4610963D01*
X4254957Y4614621D01*
X4240174Y4616450D01*
X4225290Y4616450D01*
X4210507Y4614621D01*
X4196080Y4610963D01*
X4182211Y4605629D01*
X4169105Y4598568D01*
X4156913Y4589983D01*
X4145940Y4579924D01*
X4136237Y4568647D01*
X4128008Y4556252D01*
X4121404Y4542891D01*
X4116425Y4528870D01*
X4115663Y4525213D01*
X4114088Y4521606D01*
X4111294Y4518863D01*
X4107687Y4517390D01*
X4103776Y4517390D01*
X4100169Y4518863D01*
X4097375Y4521606D01*
X4095800Y4525213D01*
X4094987Y4528870D01*
X4090060Y4542891D01*
X4083405Y4556252D01*
X4075176Y4568647D01*
X4065524Y4579924D01*
X4054500Y4589983D01*
X4042359Y4598568D01*
X4029252Y4605629D01*
X4015384Y4610963D01*
X4000957Y4614621D01*
X3986174Y4616450D01*
X3971290Y4616450D01*
X3956507Y4614621D01*
X3942079Y4610963D01*
X3928211Y4605629D01*
X3915105Y4598568D01*
X3902913Y4589983D01*
X3891940Y4579924D01*
X3882237Y4568647D01*
X3874008Y4556252D01*
X3867404Y4542891D01*
X3862425Y4528870D01*
X3861663Y4525213D01*
X3860088Y4521606D01*
X3857294Y4518863D01*
X3853687Y4517390D01*
X3849776Y4517390D01*
X3846169Y4518863D01*
X3843375Y4521606D01*
X3841800Y4525213D01*
X3840987Y4528870D01*
X3836060Y4542891D01*
X3829405Y4556252D01*
X3821176Y4568647D01*
X3811524Y4579924D01*
X3800500Y4589983D01*
X3788359Y4598568D01*
X3775252Y4605629D01*
X3761384Y4610963D01*
X3746957Y4614621D01*
X3732174Y4616450D01*
X3717290Y4616450D01*
X3702507Y4614621D01*
X3688079Y4610963D01*
X3674211Y4605629D01*
X3661105Y4598568D01*
X3648913Y4589983D01*
X3637940Y4579924D01*
X3628237Y4568647D01*
X3620008Y4556252D01*
X3613404Y4542891D01*
X3608425Y4528870D01*
X3607663Y4525213D01*
X3606088Y4521606D01*
X3603294Y4518863D01*
X3599687Y4517390D01*
X3595776Y4517390D01*
X3592169Y4518863D01*
X3589375Y4521606D01*
X3587800Y4525213D01*
X3586987Y4528870D01*
X3582060Y4542891D01*
X3575405Y4556252D01*
X3567176Y4568647D01*
X3557524Y4579924D01*
X3546500Y4589983D01*
X3534359Y4598568D01*
X3521252Y4605629D01*
X3507384Y4610963D01*
X3492957Y4614621D01*
X3478174Y4616450D01*
X3463290Y4616450D01*
X3448507Y4614621D01*
X3434079Y4610963D01*
X3420211Y4605629D01*
X3407105Y4598568D01*
X3394913Y4589983D01*
X3383940Y4579924D01*
X3374237Y4568647D01*
X3366008Y4556252D01*
X3359404Y4542891D01*
X3354425Y4528870D01*
X3351276Y4514342D01*
X3349904Y4499508D01*
X3350361Y4484624D01*
X3352647Y4469942D01*
X3356711Y4455617D01*
X3362502Y4441901D01*
X3369970Y4428998D01*
X3378911Y4417110D01*
X3389274Y4406442D01*
X3400856Y4397095D01*
X3413556Y4389272D01*
X3427069Y4383074D01*
X3441242Y4378553D01*
X3455873Y4375810D01*
G37*
G36*
X5461000Y4334103D02*
G01*
X5475173Y4335018D01*
X5489143Y4337761D01*
X5502605Y4342231D01*
X5515406Y4348378D01*
X5527344Y4356150D01*
X5538165Y4365345D01*
X5547715Y4375861D01*
X5555843Y4387494D01*
X5562396Y4400092D01*
X5567324Y4413453D01*
X5570474Y4427321D01*
X5571845Y4441444D01*
X5571388Y4455668D01*
X5569102Y4469688D01*
X5565089Y4483303D01*
X5559298Y4496308D01*
X5551932Y4508449D01*
X5543092Y4519574D01*
X5532882Y4529429D01*
X5521502Y4537913D01*
X5509107Y4544923D01*
X5495950Y4550257D01*
X5482183Y4553864D01*
X5468112Y4555642D01*
X5453888Y4555642D01*
X5439816Y4553864D01*
X5426049Y4550257D01*
X5412892Y4544923D01*
X5400497Y4537913D01*
X5389118Y4529429D01*
X5378907Y4519574D01*
X5370068Y4508449D01*
X5362702Y4496308D01*
X5359755Y4489653D01*
X5357520Y4486452D01*
X5354269Y4484370D01*
X5350459Y4483608D01*
X5188508Y4483608D01*
X5184597Y4484370D01*
X5181295Y4486605D01*
X5179720Y4488180D01*
X5171694Y4493818D01*
X5162753Y4497933D01*
X5153304Y4500473D01*
X5143500Y4501337D01*
X5133695Y4500473D01*
X5124246Y4497933D01*
X5115306Y4493818D01*
X5107279Y4488180D01*
X5100320Y4481220D01*
X5094681Y4473194D01*
X5090566Y4464253D01*
X5088026Y4454804D01*
X5087162Y4445000D01*
X5088026Y4435195D01*
X5090566Y4425746D01*
X5094681Y4416806D01*
X5100320Y4408779D01*
X5107279Y4401820D01*
X5115306Y4396181D01*
X5124246Y4392066D01*
X5133695Y4389526D01*
X5143500Y4388662D01*
X5153304Y4389526D01*
X5162753Y4392066D01*
X5171694Y4396181D01*
X5179720Y4401820D01*
X5181295Y4403394D01*
X5184597Y4405630D01*
X5188508Y4406392D01*
X5350205Y4406392D01*
X5353812Y4405731D01*
X5356961Y4403801D01*
X5359247Y4400905D01*
X5366207Y4387494D01*
X5374284Y4375861D01*
X5383834Y4365345D01*
X5394655Y4356150D01*
X5406593Y4348378D01*
X5419394Y4342231D01*
X5432856Y4337761D01*
X5446826Y4335018D01*
G37*
G36*
X5461000Y4075125D02*
G01*
X5475528Y4076039D01*
X5489803Y4078732D01*
X5503672Y4083253D01*
X5516829Y4089450D01*
X5529122Y4097223D01*
X5540349Y4106519D01*
X5550306Y4117136D01*
X5558840Y4128922D01*
X5565851Y4141673D01*
X5571236Y4155186D01*
X5574842Y4169308D01*
X5576671Y4183735D01*
X5576671Y4198264D01*
X5574842Y4212691D01*
X5571236Y4226814D01*
X5565851Y4240326D01*
X5558840Y4253077D01*
X5550306Y4264863D01*
X5540349Y4275480D01*
X5529122Y4284776D01*
X5516829Y4292549D01*
X5503672Y4298746D01*
X5489803Y4303268D01*
X5475528Y4305960D01*
X5461000Y4306874D01*
X5446471Y4305960D01*
X5432196Y4303268D01*
X5418328Y4298746D01*
X5405170Y4292549D01*
X5392877Y4284776D01*
X5381650Y4275480D01*
X5371693Y4264863D01*
X5363159Y4253077D01*
X5356148Y4240326D01*
X5350764Y4226814D01*
X5347157Y4212691D01*
X5345328Y4198264D01*
X5345328Y4183735D01*
X5347157Y4169308D01*
X5350764Y4155186D01*
X5356148Y4141673D01*
X5363159Y4128922D01*
X5371693Y4117136D01*
X5381650Y4106519D01*
X5392877Y4097223D01*
X5405170Y4089450D01*
X5418328Y4083253D01*
X5432196Y4078732D01*
X5446471Y4076039D01*
G37*
G36*
X1981200Y3829862D02*
G01*
X1991004Y3830726D01*
X2000453Y3833266D01*
X2009393Y3837381D01*
X2017420Y3843020D01*
X2018995Y3844594D01*
X2022297Y3846829D01*
X2026208Y3847592D01*
X4184091Y3847592D01*
X4188002Y3846829D01*
X4191304Y3844594D01*
X4192879Y3843020D01*
X4200906Y3837381D01*
X4209846Y3833266D01*
X4219295Y3830726D01*
X4229100Y3829862D01*
X4238904Y3830726D01*
X4248353Y3833266D01*
X4257294Y3837381D01*
X4265320Y3843020D01*
X4272280Y3849979D01*
X4277918Y3858006D01*
X4282033Y3866946D01*
X4284573Y3876395D01*
X4285437Y3886200D01*
X4284573Y3896004D01*
X4283964Y3898290D01*
X4283659Y3901998D01*
X4284726Y3905554D01*
X4287012Y3908501D01*
X4290161Y3910431D01*
X4293768Y3911092D01*
X5098491Y3911092D01*
X5102402Y3910329D01*
X5105704Y3908094D01*
X5107279Y3906520D01*
X5115306Y3900881D01*
X5124246Y3896766D01*
X5133695Y3894226D01*
X5143500Y3893362D01*
X5153304Y3894226D01*
X5162753Y3896766D01*
X5171694Y3900881D01*
X5179720Y3906520D01*
X5186680Y3913479D01*
X5192318Y3921506D01*
X5196433Y3930446D01*
X5198973Y3939895D01*
X5199837Y3949700D01*
X5198973Y3959504D01*
X5196433Y3968953D01*
X5192318Y3977894D01*
X5186680Y3985920D01*
X5179720Y3992879D01*
X5171694Y3998518D01*
X5162753Y4002633D01*
X5153304Y4005173D01*
X5145430Y4005884D01*
X5142026Y4006799D01*
X5139131Y4008831D01*
X5137099Y4011726D01*
X5136184Y4015130D01*
X5135473Y4023004D01*
X5132933Y4032453D01*
X5128818Y4041394D01*
X5123180Y4049420D01*
X5116220Y4056379D01*
X5108194Y4062018D01*
X5099253Y4066133D01*
X5089804Y4068673D01*
X5080000Y4069537D01*
X5070195Y4068673D01*
X5060746Y4066133D01*
X5051806Y4062018D01*
X5043779Y4056379D01*
X5042204Y4054805D01*
X5038902Y4052570D01*
X5034991Y4051808D01*
X4179468Y4051808D01*
X4175861Y4052468D01*
X4172712Y4054398D01*
X4170426Y4057345D01*
X4169359Y4060901D01*
X4169664Y4064609D01*
X4170273Y4066895D01*
X4171137Y4076700D01*
X4170273Y4086504D01*
X4169664Y4088790D01*
X4169359Y4092498D01*
X4170426Y4096054D01*
X4172712Y4099001D01*
X4175861Y4100931D01*
X4179468Y4101592D01*
X4323791Y4101592D01*
X4327702Y4100829D01*
X4331004Y4098594D01*
X4332579Y4097020D01*
X4340606Y4091381D01*
X4349546Y4087266D01*
X4358995Y4084726D01*
X4368800Y4083862D01*
X4378604Y4084726D01*
X4388053Y4087266D01*
X4396994Y4091381D01*
X4405020Y4097020D01*
X4411980Y4103979D01*
X4417618Y4112006D01*
X4421733Y4120946D01*
X4424273Y4130395D01*
X4425137Y4140200D01*
X4424273Y4150004D01*
X4423664Y4152290D01*
X4423359Y4155998D01*
X4424426Y4159554D01*
X4426712Y4162501D01*
X4429861Y4164431D01*
X4433468Y4165092D01*
X4577791Y4165092D01*
X4581702Y4164329D01*
X4585004Y4162094D01*
X4586579Y4160520D01*
X4594606Y4154881D01*
X4603546Y4150766D01*
X4612995Y4148226D01*
X4622800Y4147362D01*
X4632604Y4148226D01*
X4642053Y4150766D01*
X4650994Y4154881D01*
X4659020Y4160520D01*
X4665980Y4167479D01*
X4671618Y4175506D01*
X4675733Y4184446D01*
X4678273Y4193895D01*
X4679137Y4203700D01*
X4678273Y4213504D01*
X4677664Y4215790D01*
X4677359Y4219498D01*
X4678426Y4223054D01*
X4680712Y4226001D01*
X4683861Y4227931D01*
X4687468Y4228592D01*
X4831791Y4228592D01*
X4835702Y4227830D01*
X4839004Y4225594D01*
X4840579Y4224020D01*
X4848606Y4218381D01*
X4857546Y4214266D01*
X4866995Y4211726D01*
X4876800Y4210862D01*
X4886604Y4211726D01*
X4896053Y4214266D01*
X4904994Y4218381D01*
X4913020Y4224020D01*
X4919980Y4230979D01*
X4925618Y4239006D01*
X4929733Y4247946D01*
X4932273Y4257395D01*
X4933137Y4267200D01*
X4932273Y4277004D01*
X4929733Y4286453D01*
X4925618Y4295394D01*
X4919980Y4303420D01*
X4913020Y4310380D01*
X4904994Y4316018D01*
X4896053Y4320133D01*
X4886604Y4322673D01*
X4876800Y4323537D01*
X4866995Y4322673D01*
X4857546Y4320133D01*
X4848606Y4316018D01*
X4840579Y4310380D01*
X4839004Y4308805D01*
X4835702Y4306570D01*
X4831791Y4305808D01*
X1899208Y4305808D01*
X1895297Y4306570D01*
X1891995Y4308805D01*
X1890420Y4310380D01*
X1882393Y4316018D01*
X1873453Y4320133D01*
X1864004Y4322673D01*
X1854200Y4323537D01*
X1844395Y4322673D01*
X1834946Y4320133D01*
X1826006Y4316018D01*
X1817979Y4310380D01*
X1811020Y4303420D01*
X1805381Y4295394D01*
X1801266Y4286453D01*
X1798726Y4277004D01*
X1797862Y4267200D01*
X1798726Y4257395D01*
X1799336Y4255109D01*
X1799640Y4251401D01*
X1798574Y4247845D01*
X1796288Y4244898D01*
X1793138Y4242968D01*
X1789531Y4242308D01*
X1645208Y4242308D01*
X1641297Y4243070D01*
X1637995Y4245305D01*
X1636420Y4246880D01*
X1628394Y4252518D01*
X1619453Y4256633D01*
X1610004Y4259173D01*
X1600200Y4260037D01*
X1590395Y4259173D01*
X1580946Y4256633D01*
X1572006Y4252518D01*
X1563979Y4246880D01*
X1557020Y4239920D01*
X1551381Y4231894D01*
X1547266Y4222953D01*
X1544726Y4213504D01*
X1543862Y4203700D01*
X1544726Y4193895D01*
X1545336Y4191609D01*
X1545640Y4187901D01*
X1544574Y4184345D01*
X1542288Y4181398D01*
X1539138Y4179468D01*
X1535531Y4178808D01*
X1391208Y4178808D01*
X1387297Y4179570D01*
X1383995Y4181805D01*
X1382420Y4183379D01*
X1374394Y4189018D01*
X1365453Y4193133D01*
X1356004Y4195673D01*
X1346200Y4196537D01*
X1336395Y4195673D01*
X1326946Y4193133D01*
X1318006Y4189018D01*
X1309979Y4183379D01*
X1303020Y4176420D01*
X1297381Y4168394D01*
X1293266Y4159453D01*
X1290726Y4150004D01*
X1289862Y4140200D01*
X1290726Y4130395D01*
X1291336Y4128109D01*
X1291640Y4124401D01*
X1290574Y4120845D01*
X1288288Y4117898D01*
X1285138Y4115968D01*
X1281531Y4115308D01*
X629208Y4115308D01*
X625297Y4116070D01*
X621995Y4118305D01*
X620420Y4119879D01*
X612394Y4125518D01*
X603453Y4129633D01*
X594004Y4132173D01*
X584200Y4133037D01*
X574395Y4132173D01*
X564946Y4129633D01*
X556006Y4125518D01*
X547979Y4119879D01*
X541020Y4112920D01*
X535381Y4104894D01*
X531266Y4095953D01*
X528726Y4086504D01*
X527862Y4076700D01*
X528726Y4066895D01*
X531266Y4057446D01*
X535381Y4048506D01*
X541020Y4040479D01*
X547979Y4033520D01*
X556006Y4027881D01*
X564946Y4023766D01*
X574395Y4021226D01*
X584200Y4020362D01*
X594004Y4021226D01*
X603453Y4023766D01*
X612394Y4027881D01*
X620420Y4033520D01*
X621995Y4035094D01*
X625297Y4037329D01*
X629208Y4038092D01*
X1027531Y4038092D01*
X1031138Y4037431D01*
X1034287Y4035501D01*
X1036574Y4032554D01*
X1037640Y4028998D01*
X1037336Y4025290D01*
X1036726Y4023004D01*
X1035862Y4013200D01*
X1036726Y4003395D01*
X1037336Y4001109D01*
X1037640Y3997401D01*
X1036574Y3993845D01*
X1034287Y3990898D01*
X1031138Y3988968D01*
X1027531Y3988308D01*
X883208Y3988308D01*
X879297Y3989070D01*
X875995Y3991305D01*
X874420Y3992879D01*
X866394Y3998518D01*
X857453Y4002633D01*
X848004Y4005173D01*
X838200Y4006037D01*
X828395Y4005173D01*
X818946Y4002633D01*
X810006Y3998518D01*
X801979Y3992879D01*
X795020Y3985920D01*
X789381Y3977894D01*
X785266Y3968953D01*
X782726Y3959504D01*
X781862Y3949700D01*
X782726Y3939895D01*
X785266Y3930446D01*
X789381Y3921506D01*
X795020Y3913479D01*
X801979Y3906520D01*
X810006Y3900881D01*
X818946Y3896766D01*
X828395Y3894226D01*
X838200Y3893362D01*
X848004Y3894226D01*
X857453Y3896766D01*
X866394Y3900881D01*
X874420Y3906520D01*
X875995Y3908094D01*
X879297Y3910329D01*
X883208Y3911092D01*
X1428191Y3911092D01*
X1432102Y3910329D01*
X1435404Y3908094D01*
X1436979Y3906520D01*
X1445006Y3900881D01*
X1453946Y3896766D01*
X1463395Y3894226D01*
X1473200Y3893362D01*
X1483004Y3894226D01*
X1492453Y3896766D01*
X1501394Y3900881D01*
X1509420Y3906520D01*
X1516380Y3913479D01*
X1522018Y3921506D01*
X1526133Y3930446D01*
X1528673Y3939895D01*
X1529537Y3949700D01*
X1528673Y3959504D01*
X1528064Y3961790D01*
X1527759Y3965498D01*
X1528826Y3969054D01*
X1531112Y3972001D01*
X1534261Y3973931D01*
X1537868Y3974592D01*
X1682191Y3974592D01*
X1686102Y3973829D01*
X1689404Y3971594D01*
X1690979Y3970020D01*
X1699006Y3964381D01*
X1707946Y3960266D01*
X1717395Y3957726D01*
X1727200Y3956862D01*
X1737004Y3957726D01*
X1746453Y3960266D01*
X1755393Y3964381D01*
X1763420Y3970020D01*
X1770380Y3976979D01*
X1776018Y3985006D01*
X1780133Y3993946D01*
X1782673Y4003395D01*
X1783537Y4013200D01*
X1782673Y4023004D01*
X1782064Y4025290D01*
X1781759Y4028998D01*
X1782825Y4032554D01*
X1785112Y4035501D01*
X1788261Y4037431D01*
X1791868Y4038092D01*
X2919831Y4038092D01*
X2923438Y4037431D01*
X2926588Y4035501D01*
X2928874Y4032554D01*
X2929940Y4028998D01*
X2929636Y4025290D01*
X2929026Y4023004D01*
X2928162Y4013200D01*
X2929026Y4003395D01*
X2929636Y4001109D01*
X2929940Y3997401D01*
X2928874Y3993845D01*
X2926588Y3990898D01*
X2923438Y3988968D01*
X2919831Y3988308D01*
X2597708Y3988308D01*
X2593797Y3989070D01*
X2590495Y3991305D01*
X2588920Y3992879D01*
X2580894Y3998518D01*
X2571953Y4002633D01*
X2562504Y4005173D01*
X2552700Y4006037D01*
X2542895Y4005173D01*
X2533446Y4002633D01*
X2524506Y3998518D01*
X2516479Y3992879D01*
X2509520Y3985920D01*
X2503881Y3977894D01*
X2499766Y3968953D01*
X2497226Y3959504D01*
X2496362Y3949700D01*
X2497226Y3939895D01*
X2497836Y3937609D01*
X2498140Y3933901D01*
X2497074Y3930345D01*
X2494788Y3927398D01*
X2491638Y3925468D01*
X2488031Y3924808D01*
X2026208Y3924808D01*
X2022297Y3925570D01*
X2018995Y3927805D01*
X2017420Y3929379D01*
X2009393Y3935018D01*
X2000453Y3939133D01*
X1991004Y3941673D01*
X1981200Y3942537D01*
X1971395Y3941673D01*
X1961946Y3939133D01*
X1953006Y3935018D01*
X1944979Y3929379D01*
X1938020Y3922420D01*
X1932381Y3914394D01*
X1928266Y3905453D01*
X1925726Y3896004D01*
X1924862Y3886200D01*
X1925726Y3876395D01*
X1928266Y3866946D01*
X1932381Y3858006D01*
X1938020Y3849979D01*
X1944979Y3843020D01*
X1953006Y3837381D01*
X1961946Y3833266D01*
X1971395Y3830726D01*
G37*
G36*
X5461000Y3821125D02*
G01*
X5475528Y3822039D01*
X5489803Y3824732D01*
X5503672Y3829253D01*
X5516829Y3835450D01*
X5529122Y3843223D01*
X5540349Y3852519D01*
X5550306Y3863136D01*
X5558840Y3874922D01*
X5565851Y3887673D01*
X5571236Y3901186D01*
X5574842Y3915308D01*
X5576671Y3929735D01*
X5576671Y3944264D01*
X5574842Y3958691D01*
X5571236Y3972814D01*
X5565851Y3986326D01*
X5558840Y3999077D01*
X5550306Y4010863D01*
X5540349Y4021480D01*
X5529122Y4030776D01*
X5516829Y4038549D01*
X5503672Y4044746D01*
X5489803Y4049268D01*
X5475528Y4051960D01*
X5461000Y4052874D01*
X5446471Y4051960D01*
X5432196Y4049268D01*
X5418328Y4044746D01*
X5405170Y4038549D01*
X5392877Y4030776D01*
X5381650Y4021480D01*
X5371693Y4010863D01*
X5363159Y3999077D01*
X5356148Y3986326D01*
X5350764Y3972814D01*
X5347157Y3958691D01*
X5345328Y3944264D01*
X5345328Y3929735D01*
X5347157Y3915308D01*
X5350764Y3901186D01*
X5356148Y3887673D01*
X5363159Y3874922D01*
X5371693Y3863136D01*
X5381650Y3852519D01*
X5392877Y3843223D01*
X5405170Y3835450D01*
X5418328Y3829253D01*
X5432196Y3824732D01*
X5446471Y3822039D01*
G37*
G36*
X5461000Y3567125D02*
G01*
X5475528Y3568039D01*
X5489803Y3570732D01*
X5503672Y3575253D01*
X5516829Y3581450D01*
X5529122Y3589223D01*
X5540349Y3598519D01*
X5550306Y3609136D01*
X5558840Y3620922D01*
X5565851Y3633673D01*
X5571236Y3647186D01*
X5574842Y3661308D01*
X5576671Y3675735D01*
X5576671Y3690264D01*
X5574842Y3704691D01*
X5571236Y3718814D01*
X5565851Y3732326D01*
X5558840Y3745077D01*
X5550306Y3756863D01*
X5540349Y3767480D01*
X5529122Y3776776D01*
X5516829Y3784549D01*
X5503672Y3790746D01*
X5489803Y3795268D01*
X5475528Y3797960D01*
X5461000Y3798874D01*
X5446471Y3797960D01*
X5432196Y3795268D01*
X5418328Y3790746D01*
X5405170Y3784549D01*
X5392877Y3776776D01*
X5381650Y3767480D01*
X5371693Y3756863D01*
X5363159Y3745077D01*
X5356148Y3732326D01*
X5350764Y3718814D01*
X5347157Y3704691D01*
X5345328Y3690264D01*
X5345328Y3675735D01*
X5347157Y3661308D01*
X5350764Y3647186D01*
X5356148Y3633673D01*
X5363159Y3620922D01*
X5371693Y3609136D01*
X5381650Y3598519D01*
X5392877Y3589223D01*
X5405170Y3581450D01*
X5418328Y3575253D01*
X5432196Y3570732D01*
X5446471Y3568039D01*
G37*
G36*
X5473700Y3441700D02*
G01*
X5571896Y3441700D01*
X5571896Y3518408D01*
X5571185Y3524758D01*
X5569305Y3530193D01*
X5566206Y3535121D01*
X5562092Y3539185D01*
X5557215Y3542284D01*
X5551728Y3544214D01*
X5545429Y3544925D01*
X5473700Y3544925D01*
G37*
G36*
X5350103Y3441700D02*
G01*
X5448300Y3441700D01*
X5448300Y3544925D01*
X5376570Y3544925D01*
X5370271Y3544214D01*
X5364784Y3542284D01*
X5359908Y3539185D01*
X5355793Y3535121D01*
X5352694Y3530193D01*
X5350814Y3524758D01*
X5350103Y3518408D01*
G37*
G36*
X5376570Y3313074D02*
G01*
X5448300Y3313074D01*
X5448300Y3416300D01*
X5350103Y3416300D01*
X5350103Y3339592D01*
X5350814Y3333242D01*
X5352694Y3327806D01*
X5355793Y3322878D01*
X5359908Y3318814D01*
X5364784Y3315715D01*
X5370271Y3313785D01*
G37*
G36*
X5473700Y3313074D02*
G01*
X5545429Y3313074D01*
X5551728Y3313785D01*
X5557215Y3315715D01*
X5562092Y3318814D01*
X5566206Y3322878D01*
X5569305Y3327806D01*
X5571185Y3333242D01*
X5571896Y3339592D01*
X5571896Y3416300D01*
X5473700Y3416300D01*
G37*
G36*
X5473700Y105562D02*
G01*
X5478322Y105664D01*
X5501284Y108051D01*
X5523992Y112369D01*
X5546242Y118618D01*
X5567934Y126644D01*
X5588812Y136499D01*
X5608828Y148031D01*
X5627827Y161239D01*
X5645607Y175971D01*
X5662117Y192125D01*
X5677204Y209600D01*
X5690819Y228295D01*
X5702757Y248107D01*
X5713018Y268782D01*
X5721553Y290271D01*
X5728208Y312369D01*
X5733034Y334975D01*
X5735929Y357936D01*
X5736336Y368300D01*
X5473700Y368300D01*
G37*
G36*
X5626100Y2116632D02*
G01*
X5639917Y2117496D01*
X5653481Y2120239D01*
X5666638Y2124659D01*
X5679033Y2130806D01*
X5690565Y2138476D01*
X5700979Y2147620D01*
X5710123Y2158034D01*
X5717794Y2169566D01*
X5723940Y2181961D01*
X5728360Y2195118D01*
X5731103Y2208682D01*
X5731967Y2222500D01*
X5731103Y2236317D01*
X5728360Y2249881D01*
X5723940Y2263038D01*
X5717794Y2275433D01*
X5710123Y2286965D01*
X5700979Y2297379D01*
X5690565Y2306523D01*
X5679033Y2314194D01*
X5666638Y2320340D01*
X5653481Y2324760D01*
X5639917Y2327503D01*
X5626100Y2328367D01*
X5612282Y2327503D01*
X5598718Y2324760D01*
X5585561Y2320340D01*
X5573166Y2314194D01*
X5561634Y2306523D01*
X5551220Y2297379D01*
X5542076Y2286965D01*
X5534406Y2275433D01*
X5528259Y2263038D01*
X5523839Y2249881D01*
X5521096Y2236317D01*
X5520232Y2222500D01*
X5521096Y2208682D01*
X5523839Y2195118D01*
X5528259Y2181961D01*
X5534406Y2169566D01*
X5542076Y2158034D01*
X5551220Y2147620D01*
X5561634Y2138476D01*
X5573166Y2130806D01*
X5585561Y2124659D01*
X5598718Y2120239D01*
X5612282Y2117496D01*
G37*
G36*
X209346Y2116632D02*
G01*
X223164Y2117496D01*
X236728Y2120239D01*
X249834Y2124659D01*
X262280Y2130806D01*
X273761Y2138476D01*
X284175Y2147620D01*
X293319Y2158034D01*
X301040Y2169566D01*
X307136Y2181961D01*
X311607Y2195118D01*
X314299Y2208682D01*
X315214Y2222500D01*
X314299Y2236317D01*
X311607Y2249881D01*
X307136Y2263038D01*
X301040Y2275433D01*
X293319Y2286965D01*
X284175Y2297379D01*
X273761Y2306523D01*
X262280Y2314194D01*
X249834Y2320340D01*
X236728Y2324760D01*
X223164Y2327503D01*
X209346Y2328367D01*
X195478Y2327503D01*
X181914Y2324760D01*
X168808Y2320340D01*
X156362Y2314194D01*
X144881Y2306523D01*
X134467Y2297379D01*
X125323Y2286965D01*
X117602Y2275433D01*
X111506Y2263038D01*
X107035Y2249881D01*
X104343Y2236317D01*
X103428Y2222500D01*
X104343Y2208682D01*
X107035Y2195118D01*
X111506Y2181961D01*
X117602Y2169566D01*
X125323Y2158034D01*
X134467Y2147620D01*
X144881Y2138476D01*
X156362Y2130806D01*
X168808Y2124659D01*
X181914Y2120239D01*
X195478Y2117496D01*
G37*

%LPD*%
D10*
X4826000Y5334000D02*
G01*
X4826000Y5207000D01*
X4775200Y5156200D01*
X3733800Y5156200D01*
X3556000Y5334000D01*
X3556000Y5588000D02*
G01*
X3721100Y5753100D01*
X4660900Y5753100D01*
X4826000Y5588000D01*
D11*
X5143500Y4445000D02*
G01*
X5461000Y4445000D01*
X3467100Y3949700D02*
G01*
X5143500Y3949700D01*
X3721100Y4013200D02*
G01*
X5080000Y4013200D01*
X635000Y2222500D02*
G01*
X1092200Y2222500D01*
X889000Y2159000D02*
G01*
X1346200Y2159000D01*
X1143000Y1968500D02*
G01*
X1587500Y1968500D01*
X1651000Y2159000D02*
G01*
X1473200Y2159000D01*
X1473200Y3949700D02*
G01*
X838200Y3949700D01*
X1727200Y4013200D02*
G01*
X1092200Y4013200D01*
X1981200Y3886200D02*
G01*
X4229100Y3886200D01*
X2552700Y3949700D02*
G01*
X3467100Y3949700D01*
X2667000Y1524000D02*
G01*
X4025900Y1524000D01*
X2921000Y1587500D02*
G01*
X3746500Y1587500D01*
X2984500Y4013200D02*
G01*
X3721100Y4013200D01*
X3175000Y1651000D02*
G01*
X4254500Y1651000D01*
X3302000Y2159000D02*
G01*
X3479800Y2159000D01*
X3556000Y1714500D02*
G01*
X2349500Y1714500D01*
X3683000Y1841500D02*
G01*
X571500Y1841500D01*
X3810000Y1778000D02*
G01*
X825500Y1778000D01*
X3937000Y1905000D02*
G01*
X1854200Y1905000D01*
X4191000Y1968500D02*
G01*
X2108200Y1968500D01*
X4318000Y1778000D02*
G01*
X4508500Y1778000D01*
X4699000Y1841500D02*
G01*
X3860800Y1841500D01*
X3860800Y4140200D02*
G01*
X1346200Y4140200D01*
X4826000Y1905000D02*
G01*
X4114800Y1905000D01*
X4114800Y4076700D02*
G01*
X584200Y4076700D01*
X4445000Y2159000D02*
G01*
X4737100Y2159000D01*
X5000525Y2032000D02*
G01*
X1270000Y2032000D01*
X5254525Y2095500D02*
G01*
X1524000Y2095500D01*
X4953000Y1968500D02*
G01*
X4368800Y1968500D01*
X5080000Y2222500D02*
G01*
X4622800Y2222500D01*
X5334000Y2286000D02*
G01*
X4876800Y2286000D01*
X4368800Y4140200D02*
G01*
X3975100Y4140200D01*
X4622800Y4203700D02*
G01*
X1600200Y4203700D01*
X4876800Y4267200D02*
G01*
X1854200Y4267200D01*
X3606800Y5029200D02*
G01*
X3302000Y5334000D01*
X5588000Y5029200D02*
G01*
X3606800Y5029200D01*
D12*
X508000Y1079500D02*
G01*
X762000Y825500D01*
X2286000Y825500D01*
X2540000Y1079500D01*
D10*
X508000Y1333500D02*
G01*
X762000Y1333500D01*
X3302000Y5588000D02*
G01*
X2997200Y5283200D01*
X698500Y5283200D01*
X63500Y5143500D02*
G01*
X3111500Y5143500D01*
X3302000Y5334000D01*
X508000Y1079500D02*
G01*
X63500Y1079500D01*
D11*
X3302000Y5334000D02*
G01*
X3429000Y5461000D01*
X3911600Y5461000D01*
X4000500Y5372100D01*
X4314093Y5575300D02*
G01*
X4309082Y5570288D01*
X4309082Y5372100D01*
X4149092Y5372100D02*
G01*
X4000500Y5372100D01*
D13*
G01*
X4144086Y5575300D03*
G01*
X4314088Y5575300D03*
D14*
G01*
X4149090Y5372100D03*
G01*
X4309084Y5372100D03*
D15*
G01*
X5334000Y1333500D03*
G01*
X5334000Y1079500D03*
G01*
X5080000Y1333500D03*
G01*
X5080000Y1079500D03*
G01*
X4826000Y1333500D03*
G01*
X4826000Y1079500D03*
G01*
X4572000Y1333500D03*
G01*
X4572000Y1079500D03*
G01*
X4318000Y1333500D03*
G01*
X4318000Y1079500D03*
G01*
X4064000Y1333500D03*
G01*
X4064000Y1079500D03*
G01*
X3810000Y1333500D03*
G01*
X3810000Y1079500D03*
G01*
X3556000Y1333500D03*
G01*
X3556000Y1079500D03*
G01*
X3302000Y1333500D03*
G01*
X3302000Y1079500D03*
G01*
X3048000Y1333500D03*
G01*
X3048000Y1079500D03*
G01*
X2794000Y1333500D03*
G01*
X2794000Y1079500D03*
G01*
X2540000Y1333500D03*
G01*
X2540000Y1079500D03*
G01*
X2286000Y1333500D03*
G01*
X2286000Y1079500D03*
G01*
X2032000Y1333500D03*
G01*
X2032000Y1079500D03*
G01*
X1778000Y1333500D03*
G01*
X1778000Y1079500D03*
G01*
X1524000Y1333500D03*
G01*
X1524000Y1079500D03*
G01*
X1270000Y1333500D03*
G01*
X1270000Y1079500D03*
G01*
X1016000Y1333500D03*
G01*
X1016000Y1079500D03*
G01*
X762000Y1333500D03*
G01*
X762000Y1079500D03*
G01*
X508000Y1333500D03*
D16*
G01*
X508000Y1079500D03*
D15*
G01*
X5461000Y4191000D03*
D17*
G01*
X5461001Y3429000D03*
D15*
G01*
X5461000Y3683000D03*
G01*
X5461000Y3937000D03*
D18*
G01*
X381000Y5461000D03*
G01*
X5461000Y5461000D03*
G01*
X5461000Y381000D03*
G01*
X381000Y381000D03*
D19*
G01*
X2362200Y4495800D03*
G01*
X2108200Y4495800D03*
G01*
X1854200Y4495800D03*
G01*
X1600200Y4495800D03*
G01*
X1346200Y4495800D03*
G01*
X1092200Y4495800D03*
G01*
X838200Y4495800D03*
G01*
X584200Y4495800D03*
D15*
G01*
X4572000Y5588000D03*
G01*
X4572000Y5334000D03*
G01*
X4826000Y5334000D03*
G01*
X4826000Y5588000D03*
D19*
G01*
X2358923Y2447493D03*
G01*
X2104923Y2447493D03*
G01*
X1850923Y2447493D03*
G01*
X1596923Y2447493D03*
G01*
X1342923Y2447493D03*
G01*
X1088923Y2447493D03*
G01*
X834923Y2447493D03*
G01*
X580923Y2447493D03*
G01*
X5254523Y2447493D03*
G01*
X5000523Y2447493D03*
G01*
X4746523Y2447493D03*
G01*
X4492523Y2447493D03*
G01*
X4238523Y2447493D03*
G01*
X3984523Y2447493D03*
G01*
X3730523Y2447493D03*
G01*
X3476523Y2447493D03*
D20*
G01*
X5461000Y4445000D03*
G01*
X5461000Y4699000D03*
G01*
X3302000Y5334000D03*
G01*
X3556000Y5334000D03*
G01*
X3556000Y5588000D03*
G01*
X3302000Y5588000D03*
D19*
G01*
X3724732Y4495774D03*
G01*
X3978732Y4495774D03*
G01*
X4232732Y4495774D03*
G01*
X3470732Y4495774D03*
D21*
G01*
X63500Y1079500D03*
G01*
X63500Y5143500D03*
G01*
X698500Y5283200D03*
G01*
X5588000Y5029200D03*
G01*
X4876800Y4267200D03*
G01*
X1854200Y4267200D03*
G01*
X4622800Y4203700D03*
G01*
X1600200Y4203700D03*
G01*
X4368800Y4140200D03*
G01*
X3975100Y4140200D03*
G01*
X5334000Y2286000D03*
G01*
X4876800Y2286000D03*
G01*
X5080000Y2222500D03*
G01*
X4622800Y2222500D03*
G01*
X4953000Y1968500D03*
G01*
X4368800Y1968500D03*
G01*
X5254523Y2095500D03*
G01*
X1524000Y2095500D03*
G01*
X5000523Y2032000D03*
G01*
X1270000Y2032000D03*
G01*
X4445000Y2159000D03*
G01*
X4737100Y2159000D03*
G01*
X4114800Y4076700D03*
G01*
X584200Y4076700D03*
G01*
X4826000Y1905000D03*
G01*
X4114800Y1905000D03*
G01*
X3860800Y4140200D03*
G01*
X1346200Y4140200D03*
G01*
X4699000Y1841500D03*
G01*
X3860800Y1841500D03*
G01*
X4318000Y1778000D03*
G01*
X4508500Y1778000D03*
G01*
X4191000Y1968500D03*
G01*
X2108200Y1968500D03*
G01*
X3937000Y1905000D03*
G01*
X1854200Y1905000D03*
G01*
X3810000Y1778000D03*
G01*
X825500Y1778000D03*
G01*
X3683000Y1841500D03*
G01*
X571500Y1841500D03*
G01*
X3556000Y1714500D03*
G01*
X2349500Y1714500D03*
G01*
X3302000Y2159000D03*
G01*
X3479800Y2159000D03*
G01*
X3175000Y1651000D03*
G01*
X4254500Y1651000D03*
G01*
X2984500Y4013200D03*
G01*
X3721100Y4013200D03*
G01*
X2921000Y1587500D03*
G01*
X3746500Y1587500D03*
G01*
X2667000Y1524000D03*
G01*
X4025900Y1524000D03*
G01*
X2552700Y3949700D03*
G01*
X3467100Y3949700D03*
G01*
X1981200Y3886200D03*
G01*
X4229100Y3886200D03*
G01*
X1727200Y4013200D03*
G01*
X1092200Y4013200D03*
G01*
X1473200Y3949700D03*
G01*
X838200Y3949700D03*
G01*
X1651000Y2159000D03*
G01*
X1473200Y2159000D03*
G01*
X1143000Y1968500D03*
G01*
X1587500Y1968500D03*
G01*
X889000Y2159000D03*
G01*
X1346200Y2159000D03*
G01*
X635000Y2222500D03*
G01*
X1092200Y2222500D03*
G01*
X5080000Y4013200D03*
G01*
X5143500Y3949700D03*
G01*
X5143500Y4445000D03*
G01*
X4013200Y5575300D03*
G01*
X215900Y4533900D03*
G01*
X2362200Y2641600D03*
G01*
X3987800Y2641600D03*
G01*
X762000Y1524000D03*
G01*
X1866900Y1524000D03*
G01*
X2349500Y1524000D03*
G01*
X1714500Y1524000D03*
G01*
X1587500Y1524000D03*
G01*
X4381500Y1524000D03*
M02*
