G04 Layer: BottomLayer*
G04 EasyEDA v6.5.32, 2023-07-25 14:04:49*
G04 8e188c12afc0457c9e824fecad8258c0,5a6b42c53f6a479593ecc07194224c93,10*
G04 Gerber Generator version 0.2*
G04 Scale: 100 percent, Rotated: No, Reflected: No *
G04 Dimensions in millimeters *
G04 leading zeros omitted , absolute positions ,4 integer and 5 decimal *
%FSLAX45Y45*%
%MOMM*%

%ADD10C,0.2540*%
%ADD11C,1.6500*%
%ADD12C,5.0000*%
%ADD13C,2.0000*%
%ADD14C,1.8000*%
%ADD15C,0.6096*%

%LPD*%
D10*
X3378179Y2029200D02*
G01*
X3378179Y1638297D01*
X2844792Y4031881D02*
G01*
X2672189Y4204479D01*
X2844792Y3187692D02*
G01*
X2844792Y4031881D01*
X2692379Y3045200D02*
G01*
X2692379Y3492492D01*
X2347173Y2791200D02*
G01*
X2347173Y2215304D01*
X2501894Y3314692D02*
G01*
X2501894Y3914805D01*
X2347188Y4069511D01*
X2844794Y2539994D02*
G01*
X2844794Y1917705D01*
X2997200Y1765300D01*
D11*
G01*
X2997200Y3619500D03*
G01*
X2347188Y3619500D03*
G01*
X2997200Y4069511D03*
G01*
X2347188Y4069511D03*
G01*
X2672206Y4204487D03*
G01*
X3032201Y3844493D03*
G01*
X2692400Y3492500D03*
G01*
X2311400Y3848100D03*
G01*
X2997200Y1765300D03*
G01*
X2347188Y1765300D03*
G01*
X2997200Y2215311D03*
G01*
X2347188Y2215311D03*
G01*
X2672206Y2350287D03*
G01*
X3032201Y1990293D03*
G01*
X2692400Y1638300D03*
G01*
X2311400Y1993900D03*
D12*
G01*
X381000Y5461000D03*
G01*
X5461000Y5461000D03*
G01*
X5461000Y381000D03*
G01*
X381000Y381000D03*
D13*
G01*
X4956581Y2029205D03*
G01*
X4956581Y2283205D03*
G01*
X4956581Y2537205D03*
G01*
X4956581Y2791205D03*
G01*
X4956581Y3045205D03*
G01*
X4956581Y3299205D03*
G01*
X4956581Y3553205D03*
G01*
X4956581Y3807205D03*
D14*
G01*
X4572000Y5334000D03*
G01*
X4572000Y5588000D03*
D15*
G01*
X2347188Y2791205D03*
G01*
X2692400Y3045205D03*
G01*
X2501900Y3314700D03*
G01*
X2844800Y3187700D03*
G01*
X2844800Y2540000D03*
G01*
X3378200Y2029205D03*
G01*
X3378200Y1638300D03*
M02*
