G04 Layer: TopSilkscreenLayer*
G04 EasyEDA v6.5.32, 2023-07-25 14:04:49*
G04 a0b758befd8440d7b96d881f184d22a9,5a6b42c53f6a479593ecc07194224c93,10*
G04 Gerber Generator version 0.2*
G04 Scale: 100 percent, Rotated: No, Reflected: No *
G04 Dimensions in millimeters *
G04 leading zeros omitted , absolute positions ,4 integer and 5 decimal *
%FSLAX45Y45*%
%MOMM*%

%ADD10C,0.1524*%

%LPD*%
D10*
X1397000Y20714716D02*
G01*
X1397000Y20605750D01*
X1397000Y20714716D02*
G01*
X1443736Y20714716D01*
X1459229Y20709636D01*
X1464563Y20704302D01*
X1469643Y20693887D01*
X1469643Y20678394D01*
X1464563Y20667979D01*
X1459229Y20662900D01*
X1443736Y20657566D01*
X1397000Y20657566D01*
X1503934Y20714716D02*
G01*
X1503934Y20605750D01*
X1503934Y20714716D02*
G01*
X1550670Y20714716D01*
X1566418Y20709636D01*
X1571497Y20704302D01*
X1576831Y20693887D01*
X1576831Y20683474D01*
X1571497Y20673060D01*
X1566418Y20667979D01*
X1550670Y20662900D01*
X1503934Y20662900D01*
X1540509Y20662900D02*
G01*
X1576831Y20605750D01*
X1642109Y20714716D02*
G01*
X1631950Y20709636D01*
X1621536Y20699221D01*
X1616202Y20688808D01*
X1611122Y20673060D01*
X1611122Y20647152D01*
X1616202Y20631658D01*
X1621536Y20621244D01*
X1631950Y20610829D01*
X1642109Y20605750D01*
X1662938Y20605750D01*
X1673352Y20610829D01*
X1683765Y20621244D01*
X1689100Y20631658D01*
X1694179Y20647152D01*
X1694179Y20673060D01*
X1689100Y20688808D01*
X1683765Y20699221D01*
X1673352Y20709636D01*
X1662938Y20714716D01*
X1642109Y20714716D01*
X1764791Y20714716D02*
G01*
X1764791Y20605750D01*
X1728470Y20714716D02*
G01*
X1801113Y20714716D01*
X1866645Y20714716D02*
G01*
X1856231Y20709636D01*
X1845818Y20699221D01*
X1840738Y20688808D01*
X1835404Y20673060D01*
X1835404Y20647152D01*
X1840738Y20631658D01*
X1845818Y20621244D01*
X1856231Y20610829D01*
X1866645Y20605750D01*
X1887474Y20605750D01*
X1897888Y20610829D01*
X1908302Y20621244D01*
X1913381Y20631658D01*
X1918715Y20647152D01*
X1918715Y20673060D01*
X1913381Y20688808D01*
X1908302Y20699221D01*
X1897888Y20709636D01*
X1887474Y20714716D01*
X1866645Y20714716D01*
X1953006Y20714716D02*
G01*
X1953006Y20605750D01*
X1953006Y20714716D02*
G01*
X2025650Y20605750D01*
X2025650Y20714716D02*
G01*
X2025650Y20605750D01*
X2059940Y20714716D02*
G01*
X2059940Y20605750D01*
X2059940Y20714716D02*
G01*
X2127504Y20714716D01*
X2059940Y20662900D02*
G01*
X2101595Y20662900D01*
X2059940Y20605750D02*
G01*
X2127504Y20605750D01*
X2161793Y20714716D02*
G01*
X2161793Y20605750D01*
X2161793Y20714716D02*
G01*
X2203450Y20605750D01*
X2244852Y20714716D02*
G01*
X2203450Y20605750D01*
X2244852Y20714716D02*
G01*
X2244852Y20605750D01*
X2320797Y20714716D02*
G01*
X2279141Y20605750D01*
X2320797Y20714716D02*
G01*
X2362200Y20605750D01*
X2294890Y20642071D02*
G01*
X2346706Y20642071D01*
X2513075Y20714716D02*
G01*
X2513075Y20605750D01*
X2476500Y20714716D02*
G01*
X2549397Y20714716D01*
X2583688Y20714716D02*
G01*
X2583688Y20605750D01*
X2583688Y20714716D02*
G01*
X2630424Y20714716D01*
X2645918Y20709636D01*
X2651252Y20704302D01*
X2656331Y20693887D01*
X2656331Y20683474D01*
X2651252Y20673060D01*
X2645918Y20667979D01*
X2630424Y20662900D01*
X2583688Y20662900D01*
X2620009Y20662900D02*
G01*
X2656331Y20605750D01*
X2732277Y20714716D02*
G01*
X2690622Y20605750D01*
X2732277Y20714716D02*
G01*
X2773679Y20605750D01*
X2706370Y20642071D02*
G01*
X2758186Y20642071D01*
X2807970Y20714716D02*
G01*
X2807970Y20605750D01*
X2842259Y20714716D02*
G01*
X2842259Y20605750D01*
X2842259Y20714716D02*
G01*
X2915158Y20605750D01*
X2915158Y20714716D02*
G01*
X2915158Y20605750D01*
X3102102Y20699221D02*
G01*
X3091688Y20709636D01*
X3076193Y20714716D01*
X3055365Y20714716D01*
X3039872Y20709636D01*
X3029458Y20699221D01*
X3029458Y20688808D01*
X3034538Y20678394D01*
X3039872Y20673060D01*
X3050286Y20667979D01*
X3081274Y20657566D01*
X3091688Y20652486D01*
X3097022Y20647152D01*
X3102102Y20636737D01*
X3102102Y20621244D01*
X3091688Y20610829D01*
X3076193Y20605750D01*
X3055365Y20605750D01*
X3039872Y20610829D01*
X3029458Y20621244D01*
X3136391Y20714716D02*
G01*
X3136391Y20605750D01*
X3170681Y20714716D02*
G01*
X3170681Y20605750D01*
X3170681Y20714716D02*
G01*
X3212338Y20605750D01*
X3253740Y20714716D02*
G01*
X3212338Y20605750D01*
X3253740Y20714716D02*
G01*
X3253740Y20605750D01*
X3288029Y20714716D02*
G01*
X3288029Y20636737D01*
X3293363Y20621244D01*
X3303777Y20610829D01*
X3319272Y20605750D01*
X3329686Y20605750D01*
X3345179Y20610829D01*
X3355593Y20621244D01*
X3360927Y20636737D01*
X3360927Y20714716D01*
X3395218Y20714716D02*
G01*
X3395218Y20605750D01*
X3395218Y20605750D02*
G01*
X3457447Y20605750D01*
X3533393Y20714716D02*
G01*
X3491738Y20605750D01*
X3533393Y20714716D02*
G01*
X3575050Y20605750D01*
X3507486Y20642071D02*
G01*
X3559302Y20642071D01*
X3645661Y20714716D02*
G01*
X3645661Y20605750D01*
X3609340Y20714716D02*
G01*
X3681984Y20714716D01*
X3716274Y20714716D02*
G01*
X3716274Y20605750D01*
X3781806Y20714716D02*
G01*
X3771391Y20709636D01*
X3760977Y20699221D01*
X3755643Y20688808D01*
X3750563Y20673060D01*
X3750563Y20647152D01*
X3755643Y20631658D01*
X3760977Y20621244D01*
X3771391Y20610829D01*
X3781806Y20605750D01*
X3802379Y20605750D01*
X3812793Y20610829D01*
X3823208Y20621244D01*
X3828541Y20631658D01*
X3833622Y20647152D01*
X3833622Y20673060D01*
X3828541Y20688808D01*
X3823208Y20699221D01*
X3812793Y20709636D01*
X3802379Y20714716D01*
X3781806Y20714716D01*
X3867911Y20714716D02*
G01*
X3867911Y20605750D01*
X3867911Y20714716D02*
G01*
X3940809Y20605750D01*
X3940809Y20714716D02*
G01*
X3940809Y20605750D01*
X4127754Y20699221D02*
G01*
X4117340Y20709636D01*
X4101845Y20714716D01*
X4081018Y20714716D01*
X4065270Y20709636D01*
X4055109Y20699221D01*
X4055109Y20688808D01*
X4060190Y20678394D01*
X4065270Y20673060D01*
X4075684Y20667979D01*
X4106925Y20657566D01*
X4117340Y20652486D01*
X4122420Y20647152D01*
X4127754Y20636737D01*
X4127754Y20621244D01*
X4117340Y20610829D01*
X4101845Y20605750D01*
X4081018Y20605750D01*
X4065270Y20610829D01*
X4055109Y20621244D01*
X4162043Y20714716D02*
G01*
X4162043Y20605750D01*
X4162043Y20714716D02*
G01*
X4208779Y20714716D01*
X4224274Y20709636D01*
X4229608Y20704302D01*
X4234688Y20693887D01*
X4234688Y20678394D01*
X4229608Y20667979D01*
X4224274Y20662900D01*
X4208779Y20657566D01*
X4162043Y20657566D01*
X4310634Y20714716D02*
G01*
X4268977Y20605750D01*
X4310634Y20714716D02*
G01*
X4352290Y20605750D01*
X4284725Y20642071D02*
G01*
X4336541Y20642071D01*
X4464304Y20688808D02*
G01*
X4459224Y20699221D01*
X4448809Y20709636D01*
X4438395Y20714716D01*
X4417568Y20714716D01*
X4407154Y20709636D01*
X4396740Y20699221D01*
X4391659Y20688808D01*
X4386579Y20673060D01*
X4386579Y20647152D01*
X4391659Y20631658D01*
X4396740Y20621244D01*
X4407154Y20610829D01*
X4417568Y20605750D01*
X4438395Y20605750D01*
X4448809Y20610829D01*
X4459224Y20621244D01*
X4464304Y20631658D01*
X4498593Y20714716D02*
G01*
X4498593Y20605750D01*
X4498593Y20714716D02*
G01*
X4566158Y20714716D01*
X4498593Y20662900D02*
G01*
X4540250Y20662900D01*
X4498593Y20605750D02*
G01*
X4566158Y20605750D01*
X4600447Y20714716D02*
G01*
X4600447Y20605750D01*
X4600447Y20714716D02*
G01*
X4647184Y20714716D01*
X4662931Y20709636D01*
X4668011Y20704302D01*
X4673345Y20693887D01*
X4673345Y20683474D01*
X4668011Y20673060D01*
X4662931Y20667979D01*
X4647184Y20662900D01*
X4600447Y20662900D01*
X4636770Y20662900D02*
G01*
X4673345Y20605750D01*
X4787645Y20714716D02*
G01*
X4829047Y20605750D01*
X4870704Y20714716D02*
G01*
X4829047Y20605750D01*
X4936236Y20714716D02*
G01*
X4920488Y20709636D01*
X4910074Y20693887D01*
X4904993Y20667979D01*
X4904993Y20652486D01*
X4910074Y20626324D01*
X4920488Y20610829D01*
X4936236Y20605750D01*
X4946650Y20605750D01*
X4962143Y20610829D01*
X4972558Y20626324D01*
X4977638Y20652486D01*
X4977638Y20667979D01*
X4972558Y20693887D01*
X4962143Y20709636D01*
X4946650Y20714716D01*
X4936236Y20714716D01*
X5017261Y20631658D02*
G01*
X5011927Y20626324D01*
X5017261Y20621244D01*
X5022341Y20626324D01*
X5017261Y20631658D01*
X5056631Y20693887D02*
G01*
X5067045Y20699221D01*
X5082540Y20714716D01*
X5082540Y20605750D01*
X1397000Y20536916D02*
G01*
X1397000Y20427950D01*
X1397000Y20536916D02*
G01*
X1443736Y20536916D01*
X1459229Y20531836D01*
X1464563Y20526502D01*
X1469643Y20516087D01*
X1469643Y20500594D01*
X1464563Y20490179D01*
X1459229Y20485100D01*
X1443736Y20479766D01*
X1397000Y20479766D01*
X1545590Y20536916D02*
G01*
X1503934Y20427950D01*
X1545590Y20536916D02*
G01*
X1587245Y20427950D01*
X1519681Y20464271D02*
G01*
X1571497Y20464271D01*
X1621536Y20536916D02*
G01*
X1621536Y20427950D01*
X1621536Y20536916D02*
G01*
X1668272Y20536916D01*
X1683765Y20531836D01*
X1689100Y20526502D01*
X1694179Y20516087D01*
X1694179Y20505674D01*
X1689100Y20495260D01*
X1683765Y20490179D01*
X1668272Y20485100D01*
X1621536Y20485100D01*
X1657858Y20485100D02*
G01*
X1694179Y20427950D01*
X1764791Y20536916D02*
G01*
X1764791Y20427950D01*
X1728470Y20536916D02*
G01*
X1801113Y20536916D01*
X1915413Y20536916D02*
G01*
X1915413Y20427950D01*
X1915413Y20536916D02*
G01*
X1988311Y20427950D01*
X1988311Y20536916D02*
G01*
X1988311Y20427950D01*
X2022602Y20536916D02*
G01*
X2022602Y20458937D01*
X2027681Y20443444D01*
X2038095Y20433029D01*
X2053590Y20427950D01*
X2064004Y20427950D01*
X2079752Y20433029D01*
X2090165Y20443444D01*
X2095245Y20458937D01*
X2095245Y20536916D01*
X2129536Y20536916D02*
G01*
X2129536Y20427950D01*
X2129536Y20536916D02*
G01*
X2171191Y20427950D01*
X2212593Y20536916D02*
G01*
X2171191Y20427950D01*
X2212593Y20536916D02*
G01*
X2212593Y20427950D01*
X2246884Y20536916D02*
G01*
X2246884Y20427950D01*
X2246884Y20536916D02*
G01*
X2293620Y20536916D01*
X2309368Y20531836D01*
X2314447Y20526502D01*
X2319781Y20516087D01*
X2319781Y20505674D01*
X2314447Y20495260D01*
X2309368Y20490179D01*
X2293620Y20485100D01*
X2246884Y20485100D02*
G01*
X2293620Y20485100D01*
X2309368Y20479766D01*
X2314447Y20474686D01*
X2319781Y20464271D01*
X2319781Y20448524D01*
X2314447Y20438110D01*
X2309368Y20433029D01*
X2293620Y20427950D01*
X2246884Y20427950D01*
X2354072Y20536916D02*
G01*
X2354072Y20427950D01*
X2354072Y20536916D02*
G01*
X2421636Y20536916D01*
X2354072Y20485100D02*
G01*
X2395474Y20485100D01*
X2354072Y20427950D02*
G01*
X2421636Y20427950D01*
X2455925Y20536916D02*
G01*
X2455925Y20427950D01*
X2455925Y20536916D02*
G01*
X2502661Y20536916D01*
X2518156Y20531836D01*
X2523490Y20526502D01*
X2528570Y20516087D01*
X2528570Y20505674D01*
X2523490Y20495260D01*
X2518156Y20490179D01*
X2502661Y20485100D01*
X2455925Y20485100D01*
X2492247Y20485100D02*
G01*
X2528570Y20427950D01*
X2642870Y20516087D02*
G01*
X2653284Y20521421D01*
X2668777Y20536916D01*
X2668777Y20427950D01*
X2734309Y20536916D02*
G01*
X2718815Y20531836D01*
X2708402Y20516087D01*
X2703068Y20490179D01*
X2703068Y20474686D01*
X2708402Y20448524D01*
X2718815Y20433029D01*
X2734309Y20427950D01*
X2744724Y20427950D01*
X2760218Y20433029D01*
X2770631Y20448524D01*
X2775965Y20474686D01*
X2775965Y20490179D01*
X2770631Y20516087D01*
X2760218Y20531836D01*
X2744724Y20536916D01*
X2734309Y20536916D01*
X2862072Y20536916D02*
G01*
X2810256Y20464271D01*
X2887979Y20464271D01*
X2862072Y20536916D02*
G01*
X2862072Y20427950D01*
X2922270Y20516087D02*
G01*
X2932684Y20521421D01*
X2948431Y20536916D01*
X2948431Y20427950D01*
X2982722Y20474686D02*
G01*
X3076193Y20474686D01*
X3141725Y20536916D02*
G01*
X3125977Y20531836D01*
X3115563Y20516087D01*
X3110484Y20490179D01*
X3110484Y20474686D01*
X3115563Y20448524D01*
X3125977Y20433029D01*
X3141725Y20427950D01*
X3152140Y20427950D01*
X3167634Y20433029D01*
X3178047Y20448524D01*
X3183127Y20474686D01*
X3183127Y20490179D01*
X3178047Y20516087D01*
X3167634Y20531836D01*
X3152140Y20536916D01*
X3141725Y20536916D01*
X3217418Y20516087D02*
G01*
X3227831Y20521421D01*
X3243579Y20536916D01*
X3243579Y20427950D01*
X3308858Y20536916D02*
G01*
X3293363Y20531836D01*
X3282950Y20516087D01*
X3277870Y20490179D01*
X3277870Y20474686D01*
X3282950Y20448524D01*
X3293363Y20433029D01*
X3308858Y20427950D01*
X3319272Y20427950D01*
X3335020Y20433029D01*
X3345179Y20448524D01*
X3350513Y20474686D01*
X3350513Y20490179D01*
X3345179Y20516087D01*
X3335020Y20531836D01*
X3319272Y20536916D01*
X3308858Y20536916D01*
X3389884Y20511008D02*
G01*
X3389884Y20516087D01*
X3395218Y20526502D01*
X3400297Y20531836D01*
X3410711Y20536916D01*
X3431540Y20536916D01*
X3441954Y20531836D01*
X3447034Y20526502D01*
X3452368Y20516087D01*
X3452368Y20505674D01*
X3447034Y20495260D01*
X3436620Y20479766D01*
X3384804Y20427950D01*
X3457447Y20427950D01*
M02*
