G04 Layer: TopSolderMaskLayer*
G04 Panelize: V-CUT, Column: 2, Row: 2, Board Size: 58.42mm x 58.42mm, Panelized Board Size: 118.84mm x 118.84mm*
G04 EasyEDA v6.5.34, 2023-08-04 19:32:33*
G04 a0606e6caba547089c08a3f75083e84a,5a6b42c53f6a479593ecc07194224c93,10*
G04 Gerber Generator version 0.2*
G04 Scale: 100 percent, Rotated: No, Reflected: No *
G04 Dimensions in millimeters *
G04 leading zeros omitted , absolute positions ,4 integer and 5 decimal *
%FSLAX45Y45*%
%MOMM*%

%AMMACRO1*1,1,$1,$2,$3*1,1,$1,$4,$5*1,1,$1,0-$2,0-$3*1,1,$1,0-$4,0-$5*20,1,$1,$2,$3,$4,$5,0*20,1,$1,$4,$5,0-$2,0-$3,0*20,1,$1,0-$2,0-$3,0-$4,0-$5,0*20,1,$1,0-$4,0-$5,$2,$3,0*4,1,4,$2,$3,$4,$5,0-$2,0-$3,0-$4,0-$5,$2,$3,0*%
%AMMACRO2*1,1,$1,$2,$3*1,1,$1,$4,$5*20,1,$1,$2,$3,$4,$5,0*%
%ADD10O,3.8015926X1.6015970000000002*%
%ADD11O,1.6015970000000002X3.9015924*%
%ADD12MACRO1,0.1016X0.3X0.425X0.3X-0.425*%
%ADD13MACRO1,0.2032X-0.5X0.55X0.5X0.55*%
%ADD14MACRO1,0.1016X-0.3X-0.425X-0.3X0.425*%
%ADD15MACRO1,0.2032X-0.55X-0.4999X-0.55X0.4999*%
%ADD16MACRO1,0.1016X0.45X0.4X0.45X-0.4*%
%ADD17MACRO1,0.2032X0.4999X-0.55X-0.4999X-0.55*%
%ADD18MACRO1,0.2032X0.5X-0.55X-0.5X-0.55*%
%ADD19MACRO1,0.1016X0.4X-0.45X-0.4X-0.45*%
%ADD20MACRO1,0.2032X0.55X0.5X0.55X-0.5*%
%ADD21O,0.7015988X1.9015963999999999*%
%ADD22MACRO1,0.1016X-1.145X-1.145X-1.145X1.145*%
%ADD23MACRO1,0.1016X1.75X-3X-1.75X-3*%
%ADD24MACRO1,0.1016X-1.35X1.65X1.35X1.65*%
%ADD25MACRO1,0.1016X-0.7425X-0.864X-0.7425X0.864*%
%ADD26MACRO1,0.1016X0.7425X-0.864X0.7425X0.864*%
%ADD27MACRO2,0.4656X-0.2556X0.2556X0.2556X-0.2556*%
%ADD28MACRO2,0.4656X-0.2556X-0.2556X0.2556X0.2556*%
%ADD29MACRO1,0.1016X0X-1.5274X-1.5274X0*%
%ADD30MACRO1,0.1016X1.728X-0.6413X-1.728X-0.6413*%
%ADD31MACRO1,0.1016X1.728X0.6413X-1.728X0.6413*%
%ADD32MACRO1,0.1016X-0.6413X-1.728X-0.6413X1.728*%
%ADD33MACRO1,0.1016X0.6413X-1.728X0.6413X1.728*%
%ADD34C,2.4032*%
%ADD35MACRO1,0.1016X-1.1038X-1.296X-1.1038X1.296*%
%ADD36MACRO1,0.1016X1.1038X-1.296X1.1038X1.296*%
%ADD37MACRO1,0.1016X-1.296X1.1038X1.296X1.1038*%
%ADD38MACRO1,0.1016X-1.296X-1.1038X1.296X-1.1038*%
%ADD39MACRO1,0.1016X-1.7496X0.7033X1.7496X0.7033*%
%ADD40MACRO1,0.1016X-1.7496X-0.7033X1.7496X-0.7033*%
%ADD41MACRO1,0.1016X0.7033X1.7496X0.7033X-1.7496*%
%ADD42MACRO1,0.1016X-0.7033X1.7496X-0.7033X-1.7496*%
%ADD43MACRO1,0.1016X-0.266X-0.5188X0.266X-0.5188*%
%ADD44MACRO1,0.1016X0.575X0.475X0.575X-0.475*%
%ADD45MACRO1,0.1016X-0.575X-0.475X-0.575X0.475*%
%ADD46MACRO1,0.2032X-0.45X-0.5X-0.45X0.5*%
%ADD47MACRO1,0.2032X-1.9X-1.15X-1.9X1.15*%
%ADD48MACRO1,0.2032X-0.6X-1X-0.6X1*%
%ADD49C,5.2032*%
%ADD50C,1.9016*%
%ADD51C,2.1016*%
%ADD52C,1.8016*%
%ADD53C,3.0000*%

%LPD*%
D10*
G01*
X4780000Y4779137D03*
D11*
G01*
X5075174Y4314062D03*
G01*
X4475225Y4314062D03*
D12*
G01*
X2303094Y4263482D03*
G01*
X2218095Y4118499D03*
G01*
X2303094Y4118499D03*
G01*
X2218095Y4263482D03*
D13*
G01*
X2416802Y4470389D03*
G01*
X2256802Y4470389D03*
D14*
G01*
X2218095Y2848504D03*
G01*
X2303094Y2993487D03*
G01*
X2218095Y2993487D03*
G01*
X2303094Y2848504D03*
D13*
G01*
X2416802Y2666994D03*
G01*
X2256802Y2666994D03*
D15*
G01*
X3911592Y3712189D03*
G01*
X3911592Y3552195D03*
G01*
X4089392Y3712189D03*
G01*
X4089392Y3552195D03*
D16*
G01*
X4038591Y3079595D03*
G01*
X4038591Y3219594D03*
D17*
G01*
X3501384Y2666994D03*
D18*
G01*
X3661384Y2666994D03*
D19*
G01*
X3282792Y3505193D03*
G01*
X3422792Y3505193D03*
D16*
G01*
X3301991Y2647795D03*
G01*
X3301991Y2787794D03*
G01*
X3860791Y2647795D03*
G01*
X3860791Y2787794D03*
D18*
G01*
X2993386Y2768594D03*
G01*
X3153387Y2768594D03*
G01*
X2993387Y2565394D03*
G01*
X3153387Y2565394D03*
D17*
G01*
X4009387Y2768594D03*
D18*
G01*
X4169387Y2768594D03*
G01*
X4009384Y2565394D03*
G01*
X4169384Y2565394D03*
D20*
G01*
X3251192Y3653783D03*
G01*
X3251192Y3813784D03*
G01*
X3454392Y3653784D03*
G01*
X3454392Y3813784D03*
D21*
G01*
X4470603Y713155D03*
G01*
X4597603Y713155D03*
G01*
X4724603Y713155D03*
G01*
X4851603Y713155D03*
G01*
X4470603Y1267637D03*
G01*
X4597603Y1267637D03*
G01*
X4724603Y1267637D03*
G01*
X4851603Y1267637D03*
D22*
G01*
X4661093Y990396D03*
D23*
G01*
X4000695Y1244396D03*
G01*
X2959295Y1244396D03*
D24*
G01*
X5042423Y1879396D03*
G01*
X4305162Y1879396D03*
D25*
G01*
X3893042Y2285994D03*
D26*
G01*
X3574542Y2285994D03*
D25*
G01*
X3893042Y2031994D03*
D26*
G01*
X3574542Y2031994D03*
D27*
G01*
X3651630Y2890647D03*
G01*
X3697604Y2936621D03*
G01*
X3743579Y2982594D03*
G01*
X3789527Y3028543D03*
D28*
G01*
X3789527Y3169031D03*
G01*
X3743553Y3215030D03*
G01*
X3697579Y3260978D03*
G01*
X3651630Y3306927D03*
D27*
G01*
X3511143Y3306927D03*
G01*
X3465169Y3260978D03*
G01*
X3419220Y3215030D03*
G01*
X3373246Y3169031D03*
D28*
G01*
X3373246Y3028543D03*
G01*
X3419195Y2982594D03*
G01*
X3465169Y2936621D03*
G01*
X3511143Y2890647D03*
D29*
G01*
X3581392Y3098794D03*
D30*
G01*
X4444992Y2973621D03*
D31*
G01*
X4444992Y2360368D03*
D30*
G01*
X2717794Y2973621D03*
D31*
G01*
X2717794Y2360368D03*
D32*
G01*
X3659418Y4089392D03*
D33*
G01*
X3046166Y4089392D03*
D34*
G01*
X5156200Y2667000D03*
G01*
X5156200Y3175000D03*
D19*
G01*
X4603793Y1472998D03*
G01*
X4743792Y1472998D03*
D16*
G01*
X4229291Y666396D03*
G01*
X4229291Y806396D03*
D19*
G01*
X2495598Y1041195D03*
G01*
X2635597Y1041195D03*
D35*
G01*
X2611922Y1409498D03*
D36*
G01*
X1909673Y1409498D03*
D35*
G01*
X2611922Y1904798D03*
D36*
G01*
X1909673Y1904798D03*
D13*
G01*
X4855403Y279200D03*
G01*
X4695403Y279200D03*
G01*
X4855403Y482400D03*
G01*
X4695403Y482400D03*
D37*
G01*
X4038593Y4043067D03*
D38*
G01*
X4038593Y4745316D03*
D39*
G01*
X4444992Y3218258D03*
D40*
G01*
X4444992Y3588926D03*
D41*
G01*
X1948261Y3809992D03*
D42*
G01*
X2318928Y3809992D03*
D43*
G01*
X1886195Y4309466D03*
G01*
X2076194Y4309466D03*
G01*
X1981194Y4529717D03*
D44*
G01*
X1727197Y4284035D03*
G01*
X1727197Y3945554D03*
D18*
G01*
X1545589Y4470389D03*
G01*
X1705589Y4470389D03*
D13*
G01*
X2416802Y4673589D03*
G01*
X2256802Y4673589D03*
D18*
G01*
X1545587Y2641592D03*
G01*
X1705587Y2641592D03*
D13*
G01*
X2416802Y2463794D03*
G01*
X2256802Y2463794D03*
D45*
G01*
X1727194Y2827949D03*
G01*
X1727194Y3166430D03*
D43*
G01*
X1886195Y2582266D03*
G01*
X2076194Y2582266D03*
G01*
X1981194Y2802517D03*
D41*
G01*
X1948261Y3301992D03*
D42*
G01*
X2318928Y3301992D03*
D18*
G01*
X4149092Y5372100D03*
G01*
X4309092Y5372100D03*
D46*
G01*
X4144091Y5575292D03*
G01*
X4314090Y5575292D03*
D47*
G01*
X3352792Y5270488D03*
D48*
G01*
X3352792Y4635489D03*
G01*
X3582789Y4635489D03*
G01*
X3122795Y4635489D03*
D49*
G01*
X381000Y5461000D03*
G01*
X5461000Y5461000D03*
G01*
X5461000Y381000D03*
G01*
X381000Y381000D03*
D50*
G01*
X4826000Y5588000D03*
G01*
X4826000Y5334000D03*
G01*
X4572000Y5334000D03*
G01*
X4572000Y5588000D03*
D51*
G01*
X885418Y2034794D03*
G01*
X885418Y2288794D03*
G01*
X885418Y2542794D03*
G01*
X885418Y2796794D03*
G01*
X885418Y3050794D03*
G01*
X885418Y3304794D03*
G01*
X885418Y3558794D03*
G01*
X885418Y3812794D03*
D52*
G01*
X800100Y4711674D03*
G01*
X546100Y4711674D03*
G01*
X800100Y4965674D03*
G01*
X546100Y4965674D03*
G01*
X406400Y1143000D03*
G01*
X660400Y1143000D03*
G01*
X914400Y1143000D03*
D53*
G01*
X999997Y6041999D03*
G01*
X10884001Y6041999D03*
G01*
X1499996Y-6241999D03*
G01*
X10384002Y-6241999D03*
M02*
