G04 Layer: BottomSilkscreenLayer*
G04 EasyEDA v6.5.29, 2023-07-09 11:22:14*
G04 16bb6769e9674cb0b1f37b37bddf88b5,5a6b42c53f6a479593ecc07194224c93,10*
G04 Gerber Generator version 0.2*
G04 Scale: 100 percent, Rotated: No, Reflected: No *
G04 Dimensions in millimeters *
G04 leading zeros omitted , absolute positions ,4 integer and 5 decimal *
%FSLAX45Y45*%
%MOMM*%

%ADD10C,0.1524*%
%ADD11C,0.1520*%
%ADD12C,0.2032*%
%ADD13C,0.2030*%
%ADD14C,0.2540*%
%ADD15C,0.0114*%

%LPD*%
D10*
X2766822Y4051762D02*
G01*
X2772156Y4062176D01*
X2782570Y4072590D01*
X2792729Y4077670D01*
X2813558Y4077670D01*
X2823972Y4072590D01*
X2834386Y4062176D01*
X2839720Y4051762D01*
X2844800Y4036014D01*
X2844800Y4010106D01*
X2839720Y3994612D01*
X2834386Y3984198D01*
X2823972Y3973784D01*
X2813558Y3968704D01*
X2792729Y3968704D01*
X2782570Y3973784D01*
X2772156Y3984198D01*
X2766822Y3994612D01*
X2701290Y4077670D02*
G01*
X2711704Y4072590D01*
X2722118Y4062176D01*
X2727452Y4051762D01*
X2732531Y4036014D01*
X2732531Y4010106D01*
X2727452Y3994612D01*
X2722118Y3984198D01*
X2711704Y3973784D01*
X2701290Y3968704D01*
X2680715Y3968704D01*
X2670302Y3973784D01*
X2659888Y3984198D01*
X2654554Y3994612D01*
X2649474Y4010106D01*
X2649474Y4036014D01*
X2654554Y4051762D01*
X2659888Y4062176D01*
X2670302Y4072590D01*
X2680715Y4077670D01*
X2701290Y4077670D01*
X2615184Y4077670D02*
G01*
X2615184Y3968704D01*
X2615184Y4077670D02*
G01*
X2568447Y4077670D01*
X2552700Y4072590D01*
X2547620Y4067256D01*
X2542540Y4056842D01*
X2542540Y4041348D01*
X2547620Y4030934D01*
X2552700Y4025854D01*
X2568447Y4020520D01*
X2615184Y4020520D01*
X2508250Y4077670D02*
G01*
X2466593Y4025854D01*
X2466593Y3968704D01*
X2424938Y4077670D02*
G01*
X2466593Y4025854D01*
X2390647Y4077670D02*
G01*
X2390647Y3968704D01*
X2390647Y4077670D02*
G01*
X2343911Y4077670D01*
X2328418Y4072590D01*
X2323084Y4067256D01*
X2318004Y4056842D01*
X2318004Y4046428D01*
X2323084Y4036014D01*
X2328418Y4030934D01*
X2343911Y4025854D01*
X2390647Y4025854D01*
X2354325Y4025854D02*
G01*
X2318004Y3968704D01*
X2283713Y4077670D02*
G01*
X2283713Y3968704D01*
X2171445Y4051762D02*
G01*
X2176779Y4062176D01*
X2186940Y4072590D01*
X2197354Y4077670D01*
X2218181Y4077670D01*
X2228595Y4072590D01*
X2239009Y4062176D01*
X2244090Y4051762D01*
X2249424Y4036014D01*
X2249424Y4010106D01*
X2244090Y3994612D01*
X2239009Y3984198D01*
X2228595Y3973784D01*
X2218181Y3968704D01*
X2197354Y3968704D01*
X2186940Y3973784D01*
X2176779Y3984198D01*
X2171445Y3994612D01*
X2171445Y4010106D01*
X2197354Y4010106D02*
G01*
X2171445Y4010106D01*
X2137156Y4077670D02*
G01*
X2137156Y3968704D01*
X2064511Y4077670D02*
G01*
X2064511Y3968704D01*
X2137156Y4025854D02*
G01*
X2064511Y4025854D01*
X1993900Y4077670D02*
G01*
X1993900Y3968704D01*
X2030222Y4077670D02*
G01*
X1957324Y4077670D01*
X1837944Y4051762D02*
G01*
X1837944Y4056842D01*
X1832610Y4067256D01*
X1827529Y4072590D01*
X1817115Y4077670D01*
X1796287Y4077670D01*
X1785873Y4072590D01*
X1780794Y4067256D01*
X1775460Y4056842D01*
X1775460Y4046428D01*
X1780794Y4036014D01*
X1791207Y4020520D01*
X1843023Y3968704D01*
X1770379Y3968704D01*
X1704847Y4077670D02*
G01*
X1720595Y4072590D01*
X1731010Y4056842D01*
X1736089Y4030934D01*
X1736089Y4015440D01*
X1731010Y3989278D01*
X1720595Y3973784D01*
X1704847Y3968704D01*
X1694434Y3968704D01*
X1678939Y3973784D01*
X1668526Y3989278D01*
X1663445Y4015440D01*
X1663445Y4030934D01*
X1668526Y4056842D01*
X1678939Y4072590D01*
X1694434Y4077670D01*
X1704847Y4077670D01*
X1623821Y4051762D02*
G01*
X1623821Y4056842D01*
X1618742Y4067256D01*
X1613407Y4072590D01*
X1602994Y4077670D01*
X1582420Y4077670D01*
X1572005Y4072590D01*
X1566671Y4067256D01*
X1561592Y4056842D01*
X1561592Y4046428D01*
X1566671Y4036014D01*
X1577086Y4020520D01*
X1629155Y3968704D01*
X1556257Y3968704D01*
X1516887Y4051762D02*
G01*
X1516887Y4056842D01*
X1511554Y4067256D01*
X1506473Y4072590D01*
X1496060Y4077670D01*
X1475231Y4077670D01*
X1464818Y4072590D01*
X1459737Y4067256D01*
X1454404Y4056842D01*
X1454404Y4046428D01*
X1459737Y4036014D01*
X1470152Y4020520D01*
X1521968Y3968704D01*
X1449323Y3968704D01*
X1335023Y4077670D02*
G01*
X1293368Y3968704D01*
X1251965Y4077670D02*
G01*
X1293368Y3968704D01*
X1217676Y4077670D02*
G01*
X1217676Y3968704D01*
X1217676Y4077670D02*
G01*
X1150112Y4077670D01*
X1217676Y4025854D02*
G01*
X1176020Y4025854D01*
X1217676Y3968704D02*
G01*
X1150112Y3968704D01*
X1042923Y4077670D02*
G01*
X1094994Y3968704D01*
X1115821Y4077670D02*
G01*
X1042923Y4077670D01*
X1008634Y4077670D02*
G01*
X1008634Y3968704D01*
X1008634Y4077670D02*
G01*
X941070Y4077670D01*
X1008634Y4025854D02*
G01*
X967231Y4025854D01*
X906779Y4077670D02*
G01*
X906779Y3968704D01*
X872489Y4077670D02*
G01*
X872489Y3968704D01*
X872489Y4077670D02*
G01*
X831087Y3968704D01*
X789431Y4077670D02*
G01*
X831087Y3968704D01*
X789431Y4077670D02*
G01*
X789431Y3968704D01*
D11*
X1878444Y3899893D02*
G01*
X1878444Y3816766D01*
X1883641Y3801178D01*
X1888835Y3795984D01*
X1899226Y3790789D01*
X1909617Y3790789D01*
X1920008Y3795984D01*
X1925205Y3801178D01*
X1930400Y3816766D01*
X1930400Y3827157D01*
X1844154Y3899893D02*
G01*
X1844154Y3790789D01*
X1844154Y3790789D02*
G01*
X1781810Y3790789D01*
X1669587Y3873916D02*
G01*
X1674784Y3884307D01*
X1685175Y3894698D01*
X1695564Y3899893D01*
X1716346Y3899893D01*
X1726737Y3894698D01*
X1737128Y3884307D01*
X1742325Y3873916D01*
X1747520Y3858328D01*
X1747520Y3832352D01*
X1742325Y3816766D01*
X1737128Y3806375D01*
X1726737Y3795984D01*
X1716346Y3790789D01*
X1695564Y3790789D01*
X1685175Y3795984D01*
X1674784Y3806375D01*
X1669587Y3816766D01*
X1583344Y3899893D02*
G01*
X1583344Y3816766D01*
X1588538Y3801178D01*
X1593735Y3795984D01*
X1604124Y3790789D01*
X1614515Y3790789D01*
X1624906Y3795984D01*
X1630103Y3801178D01*
X1635297Y3816766D01*
X1635297Y3827157D01*
X1549054Y3899893D02*
G01*
X1549054Y3790789D01*
X1549054Y3790789D02*
G01*
X1486707Y3790789D01*
X1374485Y3873916D02*
G01*
X1379682Y3884307D01*
X1390073Y3894698D01*
X1400464Y3899893D01*
X1421244Y3899893D01*
X1431635Y3894698D01*
X1442026Y3884307D01*
X1447223Y3873916D01*
X1452417Y3858328D01*
X1452417Y3832352D01*
X1447223Y3816766D01*
X1442026Y3806375D01*
X1431635Y3795984D01*
X1421244Y3790789D01*
X1400464Y3790789D01*
X1390073Y3795984D01*
X1379682Y3806375D01*
X1374485Y3816766D01*
X1288242Y3899893D02*
G01*
X1288242Y3816766D01*
X1293436Y3801178D01*
X1298633Y3795984D01*
X1309024Y3790789D01*
X1319415Y3790789D01*
X1329804Y3795984D01*
X1335001Y3801178D01*
X1340195Y3816766D01*
X1340195Y3827157D01*
X1253952Y3899893D02*
G01*
X1253952Y3790789D01*
X1253952Y3790789D02*
G01*
X1191605Y3790789D01*
X1079385Y3873916D02*
G01*
X1084579Y3884307D01*
X1094971Y3894698D01*
X1105362Y3899893D01*
X1126144Y3899893D01*
X1136535Y3894698D01*
X1146924Y3884307D01*
X1152121Y3873916D01*
X1157315Y3858328D01*
X1157315Y3832352D01*
X1152121Y3816766D01*
X1146924Y3806375D01*
X1136535Y3795984D01*
X1126144Y3790789D01*
X1105362Y3790789D01*
X1094971Y3795984D01*
X1084579Y3806375D01*
X1079385Y3816766D01*
X993139Y3899893D02*
G01*
X993139Y3816766D01*
X998334Y3801178D01*
X1003531Y3795984D01*
X1013922Y3790789D01*
X1024313Y3790789D01*
X1034704Y3795984D01*
X1039898Y3801178D01*
X1045095Y3816766D01*
X1045095Y3827157D01*
X958850Y3899893D02*
G01*
X958850Y3790789D01*
X958850Y3790789D02*
G01*
X896505Y3790789D01*
X784283Y3873916D02*
G01*
X789477Y3884307D01*
X799868Y3894698D01*
X810260Y3899893D01*
X831042Y3899893D01*
X841433Y3894698D01*
X851824Y3884307D01*
X857018Y3873916D01*
X862215Y3858328D01*
X862215Y3832352D01*
X857018Y3816766D01*
X851824Y3806375D01*
X841433Y3795984D01*
X831042Y3790789D01*
X810260Y3790789D01*
X799868Y3795984D01*
X789477Y3806375D01*
X784283Y3816766D01*
D12*
X508000Y1015979D02*
G01*
X762000Y1015979D01*
X762000Y1523979D01*
X508000Y1523979D01*
X508000Y1333479D01*
D13*
X508000Y1015979D02*
G01*
X508000Y1333479D01*
D14*
X1651000Y1523979D02*
G01*
X1651000Y1015979D01*
X2159000Y1015979D01*
X2159000Y1523979D01*
X1651000Y1523979D01*
X1905000Y1523979D02*
G01*
X1905000Y1269979D01*
X2159000Y1269979D01*
X3301994Y1523977D02*
G01*
X3301994Y1015977D01*
X3809994Y1015977D01*
X3809994Y1523977D01*
X3301994Y1523977D01*
X3555994Y1523977D02*
G01*
X3555994Y1269977D01*
X3809994Y1269977D01*
D12*
X2158994Y1015977D02*
G01*
X2412994Y1015977D01*
X2412994Y1523977D01*
X2158994Y1523977D01*
X2158994Y1333477D01*
D13*
X2158994Y1015977D02*
G01*
X2158994Y1333477D01*
D14*
X4952992Y1523977D02*
G01*
X4952992Y1015977D01*
X5460992Y1015977D01*
X5460992Y1523977D01*
X4952992Y1523977D01*
X5206992Y1523977D02*
G01*
X5206992Y1269977D01*
X5460992Y1269977D01*
D12*
X3809992Y1015977D02*
G01*
X4063992Y1015977D01*
X4063992Y1523977D01*
X3809992Y1523977D01*
X3809992Y1333477D01*
D13*
X3809992Y1015977D02*
G01*
X3809992Y1333477D01*
D14*
X6603989Y1523977D02*
G01*
X6603989Y1015977D01*
X7111989Y1015977D01*
X7111989Y1523977D01*
X6603989Y1523977D01*
X6857989Y1523977D02*
G01*
X6857989Y1269977D01*
X7111989Y1269977D01*
D12*
X5460989Y1015977D02*
G01*
X5714989Y1015977D01*
X5714989Y1523977D01*
X5460989Y1523977D01*
X5460989Y1333477D01*
D13*
X5460989Y1015977D02*
G01*
X5460989Y1333477D01*
D14*
X8254984Y1523977D02*
G01*
X8254984Y1015977D01*
X8762984Y1015977D01*
X8762984Y1523977D01*
X8254984Y1523977D01*
X8508984Y1523977D02*
G01*
X8508984Y1269977D01*
X8762984Y1269977D01*
D12*
X7111984Y1015977D02*
G01*
X7365984Y1015977D01*
X7365984Y1523977D01*
X7111984Y1523977D01*
X7111984Y1333477D01*
D13*
X7111984Y1015977D02*
G01*
X7111984Y1333477D01*
D14*
X9905982Y1523977D02*
G01*
X9905982Y1015977D01*
X10413982Y1015977D01*
X10413982Y1523977D01*
X9905982Y1523977D01*
X10159982Y1523977D02*
G01*
X10159982Y1269977D01*
X10413982Y1269977D01*
D12*
X8762982Y1015977D02*
G01*
X9016982Y1015977D01*
X9016982Y1523977D01*
X8762982Y1523977D01*
X8762982Y1333477D01*
D13*
X8762982Y1015977D02*
G01*
X8762982Y1333477D01*
D12*
X11175974Y2793974D02*
G01*
X11429974Y2793974D01*
X11429974Y3301974D01*
X11175974Y3301974D01*
X11175974Y3111474D01*
D13*
X11175974Y2793974D02*
G01*
X11175974Y3111474D01*
D14*
X13131774Y3301974D02*
G01*
X13131774Y2793974D01*
X13639774Y2793974D01*
X13639774Y3301974D01*
X13131774Y3301974D01*
X13385774Y3301974D02*
G01*
X13385774Y3047974D01*
X13639774Y3047974D01*
D12*
X8508979Y2793974D02*
G01*
X8762979Y2793974D01*
X8762979Y3301974D01*
X8508979Y3301974D01*
X8508979Y3111474D01*
D13*
X8508979Y2793974D02*
G01*
X8508979Y3111474D01*
D14*
X10464779Y3301974D02*
G01*
X10464779Y2793974D01*
X10972779Y2793974D01*
X10972779Y3301974D01*
X10464779Y3301974D01*
X10718779Y3301974D02*
G01*
X10718779Y3047974D01*
X10972779Y3047974D01*
X7797784Y3301974D02*
G01*
X7797784Y2793974D01*
X8305784Y2793974D01*
X8305784Y3301974D01*
X7797784Y3301974D01*
X8051784Y3301974D02*
G01*
X8051784Y3047974D01*
X8305784Y3047974D01*
D12*
X5841984Y2793974D02*
G01*
X6095984Y2793974D01*
X6095984Y3301974D01*
X5841984Y3301974D01*
X5841984Y3111474D01*
D13*
X5841984Y2793974D02*
G01*
X5841984Y3111474D01*
D14*
X2466995Y3301972D02*
G01*
X2466995Y2793972D01*
X2974995Y2793972D01*
X2974995Y3301972D01*
X2466995Y3301972D01*
X2720995Y3301972D02*
G01*
X2720995Y3047972D01*
X2974995Y3047972D01*
D12*
X511195Y2793972D02*
G01*
X765195Y2793972D01*
X765195Y3301972D01*
X511195Y3301972D01*
X511195Y3111472D01*
D13*
X511195Y2793972D02*
G01*
X511195Y3111472D01*
D12*
X3174989Y2793974D02*
G01*
X3428989Y2793974D01*
X3428989Y3301974D01*
X3174989Y3301974D01*
X3174989Y3111474D01*
D13*
X3174989Y2793974D02*
G01*
X3174989Y3111474D01*
D14*
X5130789Y3301974D02*
G01*
X5130789Y2793974D01*
X5638789Y2793974D01*
X5638789Y3301974D01*
X5130789Y3301974D01*
X5384789Y3301974D02*
G01*
X5384789Y3047974D01*
X5638789Y3047974D01*
X508000Y1523974D02*
G01*
X762000Y1523974D01*
X762000Y1015974D01*
X508000Y1015974D01*
X508000Y1523974D01*
X1651000Y1523974D02*
G01*
X2159000Y1523974D01*
X2159000Y1015974D01*
X1651000Y1015974D01*
X1651000Y1523974D01*
X3302000Y1523974D02*
G01*
X3810000Y1523974D01*
X3810000Y1015974D01*
X3302000Y1015974D01*
X3302000Y1523974D01*
X2159000Y1523974D02*
G01*
X2413000Y1523974D01*
X2413000Y1015974D01*
X2159000Y1015974D01*
X2159000Y1523974D01*
X4953000Y1523974D02*
G01*
X5461000Y1523974D01*
X5461000Y1015974D01*
X4953000Y1015974D01*
X4953000Y1523974D01*
X3810000Y1523974D02*
G01*
X4064000Y1523974D01*
X4064000Y1015974D01*
X3810000Y1015974D01*
X3810000Y1523974D01*
X6604000Y1523974D02*
G01*
X7112000Y1523974D01*
X7112000Y1015974D01*
X6604000Y1015974D01*
X6604000Y1523974D01*
X5461000Y1523974D02*
G01*
X5715000Y1523974D01*
X5715000Y1015974D01*
X5461000Y1015974D01*
X5461000Y1523974D01*
X8254974Y1523974D02*
G01*
X8762974Y1523974D01*
X8762974Y1015974D01*
X8254974Y1015974D01*
X8254974Y1523974D01*
X7111974Y1523974D02*
G01*
X7365974Y1523974D01*
X7365974Y1015974D01*
X7111974Y1015974D01*
X7111974Y1523974D01*
X9905974Y1523974D02*
G01*
X10413974Y1523974D01*
X10413974Y1015974D01*
X9905974Y1015974D01*
X9905974Y1523974D01*
X8762974Y1523974D02*
G01*
X9016974Y1523974D01*
X9016974Y1015974D01*
X8762974Y1015974D01*
X8762974Y1523974D01*
M02*
