G04 Layer: BottomSolderMaskLayer*
G04 EasyEDA v6.5.22, 2023-04-02 16:23:41*
G04 0d5d065aeb9341cc8506dd620d600087,5a6b42c53f6a479593ecc07194224c93,10*
G04 Gerber Generator version 0.2*
G04 Scale: 100 percent, Rotated: No, Reflected: No *
G04 Dimensions in millimeters *
G04 leading zeros omitted , absolute positions ,4 integer and 5 decimal *
%FSLAX45Y45*%
%MOMM*%

%ADD10C,5.2032*%
%ADD11C,1.6256*%
%ADD12C,2.6016*%
%ADD13C,1.9016*%

%LPD*%
D10*
G01*
X7957997Y9149105D03*
G01*
X13037997Y9149105D03*
G01*
X14902103Y9149105D03*
G01*
X19982103Y9149105D03*
G01*
X7957997Y2799105D03*
G01*
X13037997Y2799105D03*
G01*
X13037997Y7879105D03*
G01*
X14902103Y2799105D03*
G01*
X19982103Y2799105D03*
G01*
X14902103Y7879105D03*
D11*
G01*
X12402997Y8006105D03*
G01*
X12402997Y7752105D03*
G01*
X12148997Y7752105D03*
G01*
X12148997Y8006105D03*
G01*
X19347103Y8006105D03*
G01*
X19347103Y7752105D03*
G01*
X19093103Y7752105D03*
G01*
X19093103Y8006105D03*
G01*
X7830997Y6990105D03*
G01*
X8084997Y6990105D03*
G01*
X8084997Y7244105D03*
G01*
X7830997Y7244105D03*
G01*
X7830997Y13340105D03*
G01*
X8084997Y13340105D03*
G01*
X8084997Y13594105D03*
G01*
X7830997Y13594105D03*
G01*
X14775103Y6990105D03*
G01*
X15029103Y6990105D03*
G01*
X15029103Y7244105D03*
G01*
X14775103Y7244105D03*
G01*
X14775103Y13340105D03*
G01*
X15029103Y13340105D03*
G01*
X15029103Y13594105D03*
G01*
X14775103Y13594105D03*
G01*
X8846997Y2672105D03*
G01*
X8846997Y2926105D03*
G01*
X8592997Y2926105D03*
G01*
X8592997Y2672105D03*
G01*
X8846997Y9022105D03*
G01*
X8846997Y9276105D03*
G01*
X8592997Y9276105D03*
G01*
X8592997Y9022105D03*
G01*
X15791103Y2672105D03*
G01*
X15791103Y2926105D03*
G01*
X15537103Y2926105D03*
G01*
X15537103Y2672105D03*
G01*
X15791103Y9022105D03*
G01*
X15791103Y9276105D03*
G01*
X15537103Y9276105D03*
G01*
X15537103Y9022105D03*
D10*
G01*
X19982103Y7879105D03*
G01*
X7957997Y7879105D03*
D11*
G01*
X13164997Y3688105D03*
G01*
X12910997Y3688105D03*
G01*
X12910997Y3434105D03*
G01*
X13164997Y3434105D03*
G01*
X20109103Y3688105D03*
G01*
X19855103Y3688105D03*
G01*
X19855103Y3434105D03*
G01*
X20109103Y3434105D03*
G01*
X20109103Y10038105D03*
G01*
X19855103Y10038105D03*
G01*
X19855103Y9784105D03*
G01*
X20109103Y9784105D03*
G01*
X13164997Y10038105D03*
G01*
X12910997Y10038105D03*
G01*
X12910997Y9784105D03*
G01*
X13164997Y9784105D03*
D12*
G01*
X19773900Y14859000D03*
D13*
G01*
X18826352Y14859000D03*
D12*
G01*
X17878806Y14859000D03*
D10*
G01*
X7957997Y14229105D03*
G01*
X13037997Y14229105D03*
G01*
X14902103Y14229105D03*
G01*
X19982103Y14229105D03*
D11*
G01*
X19093103Y14356105D03*
G01*
X19093103Y14102105D03*
G01*
X19347103Y14102105D03*
G01*
X19347052Y14356105D03*
G01*
X12148997Y14356105D03*
G01*
X12148997Y14102105D03*
G01*
X12402997Y14102105D03*
G01*
X12402997Y14356105D03*
M02*
