M48
METRIC,LZ,000.000
;FILE_FORMAT=3:3
;TYPE=NON_PLATED
;Layer: NPTH_Through
;EasyEDA v6.5.29, 2023-07-09 12:41:00
;4e8154f8966d48969a3891fccebbae35,5a6b42c53f6a479593ecc07194224c93,10
;Gerber Generator version 0.2
;Holesize 1 = 0.551 mm
T01C0.551
;Holesize 2 = 1.600 mm
T02C1.600
;Holesize 3 = 2.000 mm
T03C2.000
%
G05
G90
T01
X026235Y-003908
X027085Y-003908
X027935Y-003908
X028785Y-003908
X029635Y-003908
X030485Y-003908
X031335Y-003908
X032185Y-003908
X026235Y-000089
X027085Y-000089
X027935Y-000089
X028785Y-000089
X029635Y-000089
X030485Y-000089
X031335Y-000089
X032185Y-000089
X088655Y-003908
X089505Y-003908
X090355Y-003908
X091205Y-003908
X092055Y-003908
X092905Y-003908
X093755Y-003908
X094605Y-003908
X088655Y-000089
X089505Y-000089
X090355Y-000089
X091205Y-000089
X092055Y-000089
X092905Y-000089
X093755Y-000089
X094605Y-000089
X062328Y032185
X062328Y031335
X062328Y030485
X062328Y029635
X062328Y028785
X062328Y027935
X062328Y027085
X062328Y026235
X058512Y032185
X058512Y031335
X058512Y030485
X058512Y029635
X058512Y028785
X058512Y027935
X058512Y027085
X058512Y026235
X062328Y-030235
X062328Y-031085
X062328Y-031935
X062328Y-032785
X062328Y-033635
X062328Y-034485
X062328Y-035335
X062328Y-036185
X058512Y-030235
X058512Y-031085
X058512Y-031935
X058512Y-032785
X058512Y-033635
X058512Y-034485
X058512Y-035335
X058512Y-036185
X026235Y058512
X027085Y058512
X027935Y058512
X028785Y058512
X029635Y058512
X030485Y058512
X031335Y058512
X032185Y058512
X026235Y-062509
X027085Y-062509
X027935Y-062509
X028785Y-062509
X029635Y-062509
X030485Y-062509
X031335Y-062509
X032185Y-062509
X088655Y058512
X089505Y058512
X090355Y058512
X091205Y058512
X092055Y058512
X092905Y058512
X093755Y058512
X094605Y058512
X088655Y-062509
X089505Y-062509
X090355Y-062509
X091205Y-062509
X092055Y-062509
X092905Y-062509
X093755Y-062509
X094605Y-062509
T02
X041788Y006604
X016576Y006604
T03
X005000Y064420
X115840Y064420
X010000Y-068420
X110840Y-068420
M30
