M48
METRIC,LZ,000.000
;FILE_FORMAT=3:3
;TYPE=PLATED
;Layer: PTH_Through
;EasyEDA v6.5.29, 2023-07-09 12:41:00
;4e8154f8966d48969a3891fccebbae35,5a6b42c53f6a479593ecc07194224c93,10
;Gerber Generator version 0.2
;Holesize 1 = 0.305 mm
T01C0.305
;Holesize 2 = 0.701 mm
T02C0.701
;Holesize 3 = 0.915 mm
T03C0.915
;Holesize 4 = 1.101 mm
T04C1.101
;Holesize 5 = 1.301 mm
T05C1.301
;Holesize 6 = 3.000 mm
T06C3.000
%
G05
G90
T01
X045212Y023241
X045212Y010795
X042545Y010795
X042672Y023241
X018669Y010795
X018672Y023241
X021588Y023241
X021590Y010795
X024130Y030988
X024130Y010795
X033020Y020320
X025400Y020320
X049022Y044450
X049022Y039497
X048260Y057277
X050800Y055880
T02
X046811Y036957
X046811Y039457
X046811Y041957
X046811Y044457
X041811Y036957
X041811Y044457
X041811Y041957
X041811Y039457
X036811Y039457
X036811Y041957
X036811Y044457
X036811Y036957
X031811Y039457
X031811Y041957
X031811Y044457
X031811Y036957
X026811Y039457
X026811Y041957
X026811Y044457
X026811Y036957
X021811Y039457
X021811Y041957
X021811Y044457
X021811Y036957
X016811Y039457
X016811Y041957
X016811Y044457
X016811Y036957
X011811Y039457
X011811Y041957
X011811Y044457
X011811Y036957
T03
X035560Y012700
X035560Y015240
X022860Y012700
X022860Y015240
X020320Y012827
X020320Y015240
X027940Y015240
X027940Y012700
X025400Y015240
X025400Y012700
X038100Y012700
X038100Y015240
X033020Y015240
X033020Y012700
X030480Y015240
X030480Y012700
T04
X045720Y055880
X045720Y053340
X048260Y053340
X048260Y055880
T05
X038072Y004354
X035532Y004354
X032992Y004354
X030452Y004354
X027912Y004354
X025372Y004354
X022832Y004354
X020292Y004354
T06
X003810Y054610
X054610Y054610
X054610Y003810
X003810Y003810
M30
