G04 Layer: TopLayer*
G04 EasyEDA v6.5.29, 2023-07-09 12:41:00*
G04 4e8154f8966d48969a3891fccebbae35,5a6b42c53f6a479593ecc07194224c93,10*
G04 Gerber Generator version 0.2*
G04 Scale: 100 percent, Rotated: No, Reflected: No *
G04 Dimensions in millimeters *
G04 leading zeros omitted , absolute positions ,4 integer and 5 decimal *
%FSLAX45Y45*%
%MOMM*%

%AMMACRO1*21,1,$1,$2,0,0,$3*%
%ADD10C,0.1524*%
%ADD11C,0.2540*%
%ADD12C,0.5000*%
%ADD13MACRO1,0.864X0.8065X90.0000*%
%ADD14R,0.8000X0.8000*%
%ADD15C,1.0000*%
%ADD16C,5.0000*%
%ADD17C,1.5240*%
%ADD18C,2.0000*%
%ADD19C,1.3000*%
%ADD20C,1.8000*%
%ADD21C,0.6096*%
%ADD22C,0.0115*%

%LPD*%
G36*
X5805932Y25908D02*
G01*
X36068Y26416D01*
X32156Y27178D01*
X28905Y29362D01*
X26670Y32664D01*
X25908Y36576D01*
X25908Y5805932D01*
X26670Y5809843D01*
X28905Y5813094D01*
X32156Y5815330D01*
X36068Y5816092D01*
X2555240Y5816092D01*
X2559100Y5815330D01*
X2562402Y5813094D01*
X2564638Y5809843D01*
X2565400Y5805932D01*
X2566162Y5809843D01*
X2568346Y5813094D01*
X2571648Y5815330D01*
X2575560Y5816092D01*
X3050540Y5816092D01*
X3054400Y5815330D01*
X3057702Y5813094D01*
X3059938Y5809843D01*
X3060700Y5805932D01*
X3061462Y5809843D01*
X3063646Y5813094D01*
X3066948Y5815330D01*
X3070860Y5816092D01*
X5805932Y5816092D01*
X5809843Y5815330D01*
X5813094Y5813094D01*
X5815330Y5809843D01*
X5816092Y5805932D01*
X5816092Y36068D01*
X5815330Y32207D01*
X5813094Y28905D01*
X5809843Y26670D01*
G37*

%LPC*%
G36*
X3801110Y5664200D02*
G01*
X3854297Y5664200D01*
X3854297Y5690920D01*
X3853586Y5697270D01*
X3851706Y5702706D01*
X3848608Y5707634D01*
X3844544Y5711698D01*
X3839616Y5714796D01*
X3834180Y5716676D01*
X3827830Y5717387D01*
X3801110Y5717387D01*
G37*
G36*
X5448300Y105613D02*
G01*
X5448300Y368300D01*
X5185410Y368300D01*
X5187289Y346405D01*
X5191150Y323646D01*
X5196890Y301244D01*
X5204460Y279450D01*
X5213858Y258317D01*
X5224983Y238099D01*
X5237784Y218846D01*
X5252161Y200710D01*
X5267960Y183896D01*
X5285130Y168402D01*
X5303520Y154432D01*
X5323027Y142087D01*
X5343499Y131368D01*
X5364835Y122428D01*
X5386781Y115265D01*
X5409285Y109982D01*
X5432145Y106629D01*
G37*
G36*
X368300Y105613D02*
G01*
X368300Y368300D01*
X105410Y368300D01*
X107289Y346405D01*
X111150Y323646D01*
X116890Y301244D01*
X124460Y279450D01*
X133858Y258317D01*
X144983Y238099D01*
X157784Y218846D01*
X172161Y200710D01*
X187960Y183896D01*
X205130Y168402D01*
X223520Y154432D01*
X243027Y142087D01*
X263499Y131368D01*
X284835Y122428D01*
X306781Y115265D01*
X329285Y109982D01*
X352145Y106629D01*
G37*
G36*
X2029206Y309524D02*
G01*
X2044395Y310438D01*
X2059330Y313182D01*
X2073859Y317703D01*
X2087727Y323951D01*
X2100732Y331825D01*
X2112670Y341172D01*
X2123440Y351942D01*
X2132787Y363880D01*
X2140661Y376885D01*
X2146960Y390804D01*
X2149144Y394004D01*
X2152396Y396087D01*
X2156206Y396798D01*
X2160016Y396087D01*
X2163267Y394004D01*
X2165451Y390804D01*
X2171750Y376885D01*
X2179624Y363880D01*
X2188972Y351942D01*
X2199741Y341172D01*
X2211679Y331825D01*
X2224684Y323951D01*
X2238552Y317703D01*
X2253081Y313182D01*
X2268016Y310438D01*
X2283206Y309524D01*
X2298395Y310438D01*
X2313330Y313182D01*
X2327859Y317703D01*
X2341727Y323951D01*
X2354732Y331825D01*
X2366670Y341172D01*
X2377440Y351942D01*
X2386787Y363880D01*
X2394661Y376885D01*
X2400960Y390804D01*
X2403144Y394004D01*
X2406396Y396087D01*
X2410206Y396798D01*
X2414016Y396087D01*
X2417267Y394004D01*
X2419451Y390804D01*
X2425750Y376885D01*
X2433624Y363880D01*
X2442972Y351942D01*
X2453741Y341172D01*
X2465679Y331825D01*
X2478684Y323951D01*
X2492552Y317703D01*
X2507081Y313182D01*
X2522016Y310438D01*
X2537206Y309524D01*
X2552395Y310438D01*
X2567330Y313182D01*
X2581859Y317703D01*
X2595727Y323951D01*
X2608732Y331825D01*
X2620670Y341172D01*
X2631440Y351942D01*
X2640787Y363880D01*
X2648661Y376885D01*
X2654960Y390804D01*
X2657144Y394004D01*
X2660396Y396087D01*
X2664206Y396798D01*
X2668016Y396087D01*
X2671267Y394004D01*
X2673451Y390804D01*
X2679750Y376885D01*
X2687624Y363880D01*
X2696972Y351942D01*
X2707741Y341172D01*
X2719679Y331825D01*
X2732684Y323951D01*
X2746552Y317703D01*
X2761081Y313182D01*
X2776016Y310438D01*
X2791206Y309524D01*
X2806395Y310438D01*
X2821330Y313182D01*
X2835859Y317703D01*
X2849727Y323951D01*
X2862732Y331825D01*
X2874670Y341172D01*
X2885440Y351942D01*
X2894787Y363880D01*
X2902661Y376885D01*
X2908960Y390804D01*
X2911144Y394004D01*
X2914396Y396087D01*
X2918206Y396798D01*
X2922016Y396087D01*
X2925267Y394004D01*
X2927451Y390804D01*
X2933750Y376885D01*
X2941624Y363880D01*
X2950972Y351942D01*
X2961741Y341172D01*
X2973679Y331825D01*
X2986684Y323951D01*
X3000552Y317703D01*
X3015081Y313182D01*
X3030016Y310438D01*
X3045206Y309524D01*
X3060395Y310438D01*
X3075330Y313182D01*
X3089859Y317703D01*
X3103727Y323951D01*
X3116732Y331825D01*
X3128670Y341172D01*
X3139440Y351942D01*
X3148787Y363880D01*
X3156661Y376885D01*
X3162960Y390804D01*
X3165144Y394004D01*
X3168396Y396087D01*
X3172206Y396798D01*
X3176016Y396087D01*
X3179267Y394004D01*
X3181451Y390804D01*
X3187750Y376885D01*
X3195624Y363880D01*
X3204972Y351942D01*
X3215741Y341172D01*
X3227679Y331825D01*
X3240684Y323951D01*
X3254552Y317703D01*
X3269081Y313182D01*
X3284016Y310438D01*
X3299206Y309524D01*
X3314395Y310438D01*
X3329330Y313182D01*
X3343859Y317703D01*
X3357727Y323951D01*
X3370732Y331825D01*
X3382670Y341172D01*
X3393440Y351942D01*
X3402787Y363880D01*
X3410661Y376885D01*
X3416960Y390804D01*
X3419144Y394004D01*
X3422396Y396087D01*
X3426206Y396798D01*
X3430015Y396087D01*
X3433267Y394004D01*
X3435451Y390804D01*
X3441750Y376885D01*
X3449624Y363880D01*
X3458972Y351942D01*
X3469741Y341172D01*
X3481679Y331825D01*
X3494684Y323951D01*
X3508552Y317703D01*
X3523081Y313182D01*
X3538016Y310438D01*
X3553206Y309524D01*
X3568395Y310438D01*
X3583330Y313182D01*
X3597859Y317703D01*
X3611727Y323951D01*
X3624732Y331825D01*
X3636670Y341172D01*
X3647440Y351942D01*
X3656787Y363880D01*
X3664661Y376885D01*
X3670960Y390804D01*
X3673144Y394004D01*
X3676396Y396087D01*
X3680206Y396798D01*
X3684015Y396087D01*
X3687267Y394004D01*
X3689451Y390804D01*
X3695750Y376885D01*
X3703624Y363880D01*
X3712972Y351942D01*
X3723741Y341172D01*
X3735679Y331825D01*
X3748684Y323951D01*
X3762552Y317703D01*
X3777081Y313182D01*
X3792016Y310438D01*
X3807206Y309524D01*
X3822395Y310438D01*
X3837330Y313182D01*
X3851859Y317703D01*
X3865727Y323951D01*
X3878732Y331825D01*
X3890670Y341172D01*
X3901440Y351942D01*
X3910787Y363880D01*
X3918661Y376885D01*
X3924909Y390753D01*
X3929430Y405282D01*
X3932174Y420217D01*
X3933088Y435406D01*
X3932174Y450596D01*
X3929430Y465531D01*
X3924909Y480059D01*
X3918661Y493928D01*
X3910787Y506933D01*
X3901440Y518871D01*
X3890670Y529640D01*
X3878732Y538988D01*
X3865727Y546862D01*
X3851808Y553110D01*
X3848658Y555345D01*
X3846576Y558596D01*
X3845814Y562406D01*
X3845814Y1167790D01*
X3846576Y1171702D01*
X3848760Y1174953D01*
X3852011Y1177188D01*
X3856024Y1178864D01*
X3867759Y1185824D01*
X3878478Y1194308D01*
X3887978Y1204061D01*
X3896055Y1215085D01*
X3902608Y1227023D01*
X3907485Y1239774D01*
X3910685Y1253032D01*
X3912057Y1266596D01*
X3911600Y1280210D01*
X3909314Y1293672D01*
X3905250Y1306677D01*
X3899509Y1319072D01*
X3892194Y1330553D01*
X3883406Y1340967D01*
X3873296Y1350111D01*
X3862019Y1357833D01*
X3849878Y1363980D01*
X3836974Y1368450D01*
X3823614Y1371193D01*
X3810000Y1372057D01*
X3796385Y1371193D01*
X3783025Y1368450D01*
X3770172Y1363980D01*
X3757980Y1357833D01*
X3746754Y1350111D01*
X3736644Y1340967D01*
X3727805Y1330553D01*
X3720490Y1319072D01*
X3714750Y1306677D01*
X3710686Y1293672D01*
X3708450Y1280210D01*
X3707993Y1266596D01*
X3709365Y1253032D01*
X3712514Y1239774D01*
X3717391Y1227023D01*
X3723944Y1215085D01*
X3732072Y1204061D01*
X3741521Y1194308D01*
X3752240Y1185824D01*
X3763619Y1179068D01*
X3766261Y1176832D01*
X3767988Y1173784D01*
X3768598Y1170330D01*
X3768598Y562406D01*
X3767886Y558596D01*
X3765753Y555345D01*
X3762603Y553110D01*
X3748684Y546862D01*
X3735679Y538988D01*
X3723741Y529640D01*
X3712972Y518871D01*
X3703624Y506933D01*
X3695750Y493928D01*
X3689451Y480009D01*
X3687267Y476808D01*
X3684015Y474726D01*
X3680206Y474014D01*
X3676396Y474726D01*
X3673144Y476808D01*
X3670960Y480009D01*
X3664661Y493928D01*
X3656787Y506933D01*
X3647440Y518871D01*
X3636670Y529640D01*
X3624732Y538988D01*
X3611727Y546862D01*
X3597808Y553110D01*
X3594658Y555345D01*
X3592576Y558596D01*
X3591814Y562406D01*
X3591814Y1167790D01*
X3592576Y1171702D01*
X3594760Y1174953D01*
X3598011Y1177188D01*
X3602024Y1178864D01*
X3613759Y1185824D01*
X3624478Y1194308D01*
X3633978Y1204061D01*
X3642055Y1215085D01*
X3648608Y1227023D01*
X3653485Y1239774D01*
X3656685Y1253032D01*
X3658057Y1266596D01*
X3657600Y1280210D01*
X3655314Y1293672D01*
X3651250Y1306677D01*
X3645509Y1319072D01*
X3638194Y1330553D01*
X3629406Y1340967D01*
X3619296Y1350111D01*
X3608019Y1357833D01*
X3595878Y1363980D01*
X3582974Y1368450D01*
X3569614Y1371193D01*
X3556000Y1372057D01*
X3542385Y1371193D01*
X3529025Y1368450D01*
X3516172Y1363980D01*
X3503980Y1357833D01*
X3492754Y1350111D01*
X3482644Y1340967D01*
X3473805Y1330553D01*
X3466490Y1319072D01*
X3460750Y1306677D01*
X3456686Y1293672D01*
X3454450Y1280210D01*
X3453993Y1266596D01*
X3455365Y1253032D01*
X3458514Y1239774D01*
X3463391Y1227023D01*
X3469944Y1215085D01*
X3478072Y1204061D01*
X3487521Y1194308D01*
X3498240Y1185824D01*
X3509619Y1179068D01*
X3512261Y1176832D01*
X3513988Y1173784D01*
X3514598Y1170330D01*
X3514598Y562406D01*
X3513886Y558596D01*
X3511753Y555345D01*
X3508603Y553110D01*
X3494684Y546862D01*
X3481679Y538988D01*
X3469741Y529640D01*
X3458972Y518871D01*
X3449624Y506933D01*
X3441750Y493928D01*
X3435451Y480009D01*
X3433267Y476808D01*
X3430015Y474726D01*
X3426206Y474014D01*
X3422396Y474726D01*
X3419144Y476808D01*
X3416960Y480009D01*
X3410661Y493928D01*
X3402787Y506933D01*
X3393440Y518871D01*
X3382670Y529640D01*
X3370732Y538988D01*
X3357727Y546862D01*
X3343808Y553110D01*
X3340658Y555345D01*
X3338576Y558596D01*
X3337814Y562406D01*
X3337814Y1167790D01*
X3338576Y1171702D01*
X3340760Y1174953D01*
X3344011Y1177188D01*
X3348024Y1178864D01*
X3359759Y1185824D01*
X3370478Y1194308D01*
X3379978Y1204061D01*
X3388055Y1215085D01*
X3394608Y1227023D01*
X3399485Y1239774D01*
X3402685Y1253032D01*
X3404057Y1266596D01*
X3403600Y1280210D01*
X3401314Y1293672D01*
X3397250Y1306677D01*
X3391509Y1319072D01*
X3384194Y1330553D01*
X3375406Y1340967D01*
X3365296Y1350111D01*
X3354019Y1357833D01*
X3341878Y1363980D01*
X3328974Y1368450D01*
X3315614Y1371193D01*
X3302000Y1372057D01*
X3288385Y1371193D01*
X3275025Y1368450D01*
X3262172Y1363980D01*
X3249980Y1357833D01*
X3238754Y1350111D01*
X3228644Y1340967D01*
X3219805Y1330553D01*
X3212490Y1319072D01*
X3206750Y1306677D01*
X3202686Y1293672D01*
X3200450Y1280210D01*
X3199993Y1266596D01*
X3201365Y1253032D01*
X3204514Y1239774D01*
X3209391Y1227023D01*
X3215944Y1215085D01*
X3224072Y1204061D01*
X3233521Y1194308D01*
X3244240Y1185824D01*
X3255619Y1179068D01*
X3258261Y1176832D01*
X3259988Y1173784D01*
X3260598Y1170330D01*
X3260598Y562406D01*
X3259886Y558596D01*
X3257753Y555345D01*
X3254603Y553110D01*
X3240684Y546862D01*
X3227679Y538988D01*
X3215741Y529640D01*
X3204972Y518871D01*
X3195624Y506933D01*
X3187750Y493928D01*
X3181451Y480009D01*
X3179267Y476808D01*
X3176016Y474726D01*
X3172206Y474014D01*
X3168396Y474726D01*
X3165144Y476808D01*
X3162960Y480009D01*
X3156661Y493928D01*
X3148787Y506933D01*
X3139440Y518871D01*
X3128670Y529640D01*
X3116732Y538988D01*
X3103727Y546862D01*
X3089808Y553110D01*
X3086658Y555345D01*
X3084576Y558596D01*
X3083814Y562406D01*
X3083814Y1167790D01*
X3084576Y1171702D01*
X3086760Y1174953D01*
X3090011Y1177188D01*
X3094024Y1178864D01*
X3105759Y1185824D01*
X3116478Y1194308D01*
X3125978Y1204061D01*
X3134055Y1215085D01*
X3140608Y1227023D01*
X3145485Y1239774D01*
X3148685Y1253032D01*
X3150057Y1266596D01*
X3149600Y1280210D01*
X3147314Y1293672D01*
X3143250Y1306677D01*
X3137509Y1319072D01*
X3130194Y1330553D01*
X3121406Y1340967D01*
X3111296Y1350111D01*
X3100019Y1357833D01*
X3087878Y1363980D01*
X3074974Y1368450D01*
X3061614Y1371193D01*
X3048000Y1372057D01*
X3034385Y1371193D01*
X3021025Y1368450D01*
X3008172Y1363980D01*
X2995980Y1357833D01*
X2984754Y1350111D01*
X2974644Y1340967D01*
X2965805Y1330553D01*
X2958490Y1319072D01*
X2952750Y1306677D01*
X2948686Y1293672D01*
X2946450Y1280210D01*
X2945993Y1266596D01*
X2947365Y1253032D01*
X2950514Y1239774D01*
X2955391Y1227023D01*
X2961944Y1215085D01*
X2970072Y1204061D01*
X2979521Y1194308D01*
X2990240Y1185824D01*
X3001619Y1179068D01*
X3004261Y1176832D01*
X3005988Y1173784D01*
X3006598Y1170330D01*
X3006598Y562406D01*
X3005886Y558596D01*
X3003753Y555345D01*
X3000603Y553110D01*
X2986684Y546862D01*
X2973679Y538988D01*
X2961741Y529640D01*
X2950972Y518871D01*
X2941624Y506933D01*
X2933750Y493928D01*
X2927451Y480009D01*
X2925267Y476808D01*
X2922016Y474726D01*
X2918206Y474014D01*
X2914396Y474726D01*
X2911144Y476808D01*
X2908960Y480009D01*
X2902661Y493928D01*
X2894787Y506933D01*
X2885440Y518871D01*
X2874670Y529640D01*
X2862732Y538988D01*
X2849727Y546862D01*
X2835808Y553110D01*
X2832658Y555345D01*
X2830576Y558596D01*
X2829814Y562406D01*
X2829814Y1167790D01*
X2830576Y1171702D01*
X2832760Y1174953D01*
X2836011Y1177188D01*
X2840024Y1178864D01*
X2851759Y1185824D01*
X2862478Y1194308D01*
X2871978Y1204061D01*
X2880055Y1215085D01*
X2886608Y1227023D01*
X2891485Y1239774D01*
X2894685Y1253032D01*
X2896057Y1266596D01*
X2895600Y1280210D01*
X2893314Y1293672D01*
X2889250Y1306677D01*
X2883509Y1319072D01*
X2876194Y1330553D01*
X2867406Y1340967D01*
X2857296Y1350111D01*
X2846019Y1357833D01*
X2833878Y1363980D01*
X2820974Y1368450D01*
X2807614Y1371193D01*
X2794000Y1372057D01*
X2780385Y1371193D01*
X2767025Y1368450D01*
X2754172Y1363980D01*
X2741980Y1357833D01*
X2730754Y1350111D01*
X2720644Y1340967D01*
X2711805Y1330553D01*
X2704490Y1319072D01*
X2698750Y1306677D01*
X2694686Y1293672D01*
X2692450Y1280210D01*
X2691993Y1266596D01*
X2693365Y1253032D01*
X2696514Y1239774D01*
X2701391Y1227023D01*
X2707944Y1215085D01*
X2716072Y1204061D01*
X2725521Y1194308D01*
X2736240Y1185824D01*
X2747619Y1179068D01*
X2750261Y1176832D01*
X2751988Y1173784D01*
X2752598Y1170330D01*
X2752598Y562406D01*
X2751886Y558596D01*
X2749753Y555345D01*
X2746603Y553110D01*
X2732684Y546862D01*
X2719679Y538988D01*
X2707741Y529640D01*
X2696972Y518871D01*
X2687624Y506933D01*
X2679750Y493928D01*
X2673451Y480009D01*
X2671267Y476808D01*
X2668016Y474726D01*
X2664206Y474014D01*
X2660396Y474726D01*
X2657144Y476808D01*
X2654960Y480009D01*
X2648661Y493928D01*
X2640787Y506933D01*
X2631440Y518871D01*
X2620670Y529640D01*
X2608732Y538988D01*
X2595727Y546862D01*
X2581808Y553110D01*
X2578658Y555345D01*
X2576576Y558596D01*
X2575814Y562406D01*
X2575814Y1167790D01*
X2576576Y1171702D01*
X2578760Y1174953D01*
X2582011Y1177188D01*
X2586024Y1178864D01*
X2597759Y1185824D01*
X2608478Y1194308D01*
X2617978Y1204061D01*
X2626055Y1215085D01*
X2632608Y1227023D01*
X2637485Y1239774D01*
X2640685Y1253032D01*
X2642057Y1266596D01*
X2641600Y1280210D01*
X2639314Y1293672D01*
X2635250Y1306677D01*
X2629509Y1319072D01*
X2622194Y1330553D01*
X2613406Y1340967D01*
X2603296Y1350111D01*
X2592019Y1357833D01*
X2579878Y1363980D01*
X2566974Y1368450D01*
X2553614Y1371193D01*
X2540000Y1372057D01*
X2526385Y1371193D01*
X2513025Y1368450D01*
X2500172Y1363980D01*
X2487980Y1357833D01*
X2476754Y1350111D01*
X2468575Y1342745D01*
X2465273Y1340713D01*
X2461412Y1340104D01*
X2457653Y1340967D01*
X2454452Y1343202D01*
X2452370Y1346454D01*
X2451608Y1350264D01*
X2451608Y1443786D01*
X2452370Y1447698D01*
X2454605Y1451000D01*
X2457958Y1453184D01*
X2461869Y1453946D01*
X2465781Y1453083D01*
X2469083Y1450848D01*
X2471521Y1448308D01*
X2482240Y1439824D01*
X2493975Y1432864D01*
X2506522Y1427581D01*
X2519680Y1423974D01*
X2533192Y1422146D01*
X2546807Y1422146D01*
X2560320Y1423974D01*
X2573477Y1427581D01*
X2586024Y1432864D01*
X2597759Y1439824D01*
X2608478Y1448308D01*
X2617978Y1458061D01*
X2626055Y1469085D01*
X2632608Y1481023D01*
X2637485Y1493774D01*
X2640685Y1507032D01*
X2642057Y1520596D01*
X2641600Y1534210D01*
X2639314Y1547672D01*
X2635250Y1560677D01*
X2629509Y1573072D01*
X2622194Y1584553D01*
X2613406Y1594967D01*
X2603296Y1604111D01*
X2592019Y1611833D01*
X2579878Y1617980D01*
X2566974Y1622450D01*
X2553614Y1625193D01*
X2540000Y1626057D01*
X2526385Y1625193D01*
X2513025Y1622450D01*
X2500172Y1617980D01*
X2487980Y1611833D01*
X2476754Y1604111D01*
X2468575Y1596745D01*
X2465273Y1594713D01*
X2461412Y1594104D01*
X2457653Y1594967D01*
X2454452Y1597202D01*
X2452370Y1600454D01*
X2451608Y1604264D01*
X2451608Y3053791D01*
X2452370Y3057702D01*
X2454605Y3061004D01*
X2456180Y3062579D01*
X2461818Y3070606D01*
X2465933Y3079546D01*
X2468473Y3088995D01*
X2469337Y3098800D01*
X2468473Y3108604D01*
X2465933Y3118053D01*
X2461818Y3126994D01*
X2456180Y3135020D01*
X2449220Y3141980D01*
X2441194Y3147618D01*
X2432253Y3151733D01*
X2422804Y3154273D01*
X2413000Y3155137D01*
X2403195Y3154273D01*
X2393746Y3151733D01*
X2384806Y3147618D01*
X2376779Y3141980D01*
X2369820Y3135020D01*
X2364181Y3126994D01*
X2360066Y3118053D01*
X2357526Y3108604D01*
X2356662Y3098800D01*
X2357526Y3088995D01*
X2360066Y3079546D01*
X2364181Y3070606D01*
X2369820Y3062579D01*
X2371394Y3061004D01*
X2373630Y3057702D01*
X2374392Y3053791D01*
X2374392Y1604264D01*
X2373630Y1600454D01*
X2371547Y1597202D01*
X2368346Y1595018D01*
X2364587Y1594104D01*
X2360726Y1594764D01*
X2357424Y1596745D01*
X2349296Y1604111D01*
X2338019Y1611833D01*
X2325878Y1617980D01*
X2312974Y1622450D01*
X2299614Y1625193D01*
X2286000Y1626057D01*
X2272385Y1625193D01*
X2259025Y1622450D01*
X2246172Y1617980D01*
X2233980Y1611833D01*
X2222754Y1604111D01*
X2214575Y1596745D01*
X2211273Y1594713D01*
X2207412Y1594104D01*
X2203653Y1594967D01*
X2200452Y1597202D01*
X2198370Y1600454D01*
X2197608Y1604264D01*
X2197608Y2279243D01*
X2198370Y2283155D01*
X2200605Y2286457D01*
X2202027Y2287879D01*
X2207666Y2295906D01*
X2211781Y2304846D01*
X2214321Y2314295D01*
X2215184Y2324100D01*
X2214321Y2333904D01*
X2211781Y2343353D01*
X2207666Y2352294D01*
X2202027Y2360320D01*
X2195068Y2367280D01*
X2187041Y2372918D01*
X2178100Y2377033D01*
X2168652Y2379573D01*
X2158847Y2380437D01*
X2149043Y2379573D01*
X2139594Y2377033D01*
X2130653Y2372918D01*
X2122627Y2367280D01*
X2115667Y2360320D01*
X2110028Y2352294D01*
X2105914Y2343353D01*
X2103374Y2333904D01*
X2102510Y2324100D01*
X2103374Y2314295D01*
X2105914Y2304846D01*
X2110028Y2295906D01*
X2115667Y2287879D01*
X2117394Y2286152D01*
X2119630Y2282850D01*
X2120392Y2278938D01*
X2120392Y1604264D01*
X2119630Y1600454D01*
X2117547Y1597202D01*
X2114346Y1595018D01*
X2110587Y1594104D01*
X2106726Y1594764D01*
X2103424Y1596745D01*
X2095296Y1604111D01*
X2084019Y1611833D01*
X2071878Y1617980D01*
X2058974Y1622450D01*
X2045614Y1625193D01*
X2032000Y1626057D01*
X2018385Y1625193D01*
X2005025Y1622450D01*
X1992172Y1617980D01*
X1979980Y1611833D01*
X1968754Y1604111D01*
X1958644Y1594967D01*
X1949805Y1584553D01*
X1942490Y1573072D01*
X1936750Y1560677D01*
X1932686Y1547672D01*
X1930450Y1534210D01*
X1929993Y1520596D01*
X1931365Y1507032D01*
X1934514Y1493774D01*
X1939391Y1481023D01*
X1945944Y1469085D01*
X1954072Y1458061D01*
X1963521Y1448308D01*
X1974240Y1439824D01*
X1985975Y1432864D01*
X1998522Y1427581D01*
X2011680Y1423974D01*
X2025192Y1422146D01*
X2038807Y1422146D01*
X2052320Y1423974D01*
X2065477Y1427581D01*
X2078024Y1432864D01*
X2089759Y1439824D01*
X2100478Y1448308D01*
X2102916Y1450797D01*
X2106218Y1453083D01*
X2110130Y1453896D01*
X2114042Y1453184D01*
X2117394Y1450949D01*
X2119630Y1447647D01*
X2120392Y1443736D01*
X2120392Y1362964D01*
X2119630Y1359154D01*
X2117547Y1355902D01*
X2114346Y1353718D01*
X2110587Y1352804D01*
X2106726Y1353464D01*
X2103424Y1355445D01*
X2095296Y1362811D01*
X2084019Y1370533D01*
X2071878Y1376680D01*
X2058974Y1381150D01*
X2045614Y1383893D01*
X2032000Y1384757D01*
X2018385Y1383893D01*
X2005025Y1381150D01*
X1992172Y1376680D01*
X1979980Y1370533D01*
X1968754Y1362811D01*
X1958644Y1353667D01*
X1949805Y1343253D01*
X1942490Y1331772D01*
X1936750Y1319377D01*
X1932686Y1306372D01*
X1930450Y1292910D01*
X1929993Y1279296D01*
X1931365Y1265732D01*
X1934514Y1252474D01*
X1939391Y1239723D01*
X1945944Y1227785D01*
X1954072Y1216761D01*
X1963521Y1207008D01*
X1974240Y1198524D01*
X1985619Y1191768D01*
X1988261Y1189532D01*
X1989988Y1186484D01*
X1990598Y1183030D01*
X1990598Y562406D01*
X1989886Y558596D01*
X1987753Y555345D01*
X1984603Y553110D01*
X1970684Y546862D01*
X1957679Y538988D01*
X1945741Y529640D01*
X1934972Y518871D01*
X1925624Y506933D01*
X1917750Y493928D01*
X1911502Y480059D01*
X1906981Y465531D01*
X1904238Y450596D01*
X1903323Y435406D01*
X1904238Y420217D01*
X1906981Y405282D01*
X1911502Y390753D01*
X1917750Y376885D01*
X1925624Y363880D01*
X1934972Y351942D01*
X1945741Y341172D01*
X1957679Y331825D01*
X1970684Y323951D01*
X1984552Y317703D01*
X1999081Y313182D01*
X2014016Y310438D01*
G37*
G36*
X393700Y393700D02*
G01*
X656336Y393700D01*
X655929Y404063D01*
X653034Y427024D01*
X648208Y449630D01*
X641553Y471728D01*
X633018Y493217D01*
X622757Y513892D01*
X610819Y533704D01*
X597204Y552348D01*
X582117Y569874D01*
X565607Y586028D01*
X547827Y600760D01*
X528828Y613968D01*
X508812Y625500D01*
X487934Y635355D01*
X466242Y643382D01*
X443992Y649630D01*
X421284Y653948D01*
X398322Y656336D01*
X393700Y656437D01*
G37*
G36*
X5473700Y393700D02*
G01*
X5736336Y393700D01*
X5735929Y404063D01*
X5733034Y427024D01*
X5728208Y449630D01*
X5721553Y471728D01*
X5713018Y493217D01*
X5702757Y513892D01*
X5690819Y533704D01*
X5677204Y552348D01*
X5662117Y569874D01*
X5645607Y586028D01*
X5627827Y600760D01*
X5608828Y613968D01*
X5588812Y625500D01*
X5567934Y635355D01*
X5546242Y643382D01*
X5523992Y649630D01*
X5501284Y653948D01*
X5478322Y656336D01*
X5473700Y656437D01*
G37*
G36*
X5185410Y393700D02*
G01*
X5448300Y393700D01*
X5448300Y656386D01*
X5432145Y655370D01*
X5409285Y652018D01*
X5386781Y646734D01*
X5364835Y639572D01*
X5343499Y630631D01*
X5323027Y619912D01*
X5303520Y607568D01*
X5285130Y593598D01*
X5267960Y578104D01*
X5252161Y561289D01*
X5237784Y543153D01*
X5224983Y523900D01*
X5213858Y503682D01*
X5204460Y482549D01*
X5196890Y460756D01*
X5191150Y438353D01*
X5187289Y415594D01*
G37*
G36*
X105410Y393700D02*
G01*
X368300Y393700D01*
X368300Y656386D01*
X352145Y655370D01*
X329285Y652018D01*
X306781Y646734D01*
X284835Y639572D01*
X263499Y630631D01*
X243027Y619912D01*
X223520Y607568D01*
X205130Y593598D01*
X187960Y578104D01*
X172161Y561289D01*
X157784Y543153D01*
X144983Y523900D01*
X133858Y503682D01*
X124460Y482549D01*
X116890Y460756D01*
X111150Y438353D01*
X107289Y415594D01*
G37*
G36*
X1657604Y554532D02*
G01*
X1671421Y555396D01*
X1684985Y558139D01*
X1698142Y562559D01*
X1710537Y568706D01*
X1722069Y576376D01*
X1732483Y585520D01*
X1741627Y595934D01*
X1749298Y607466D01*
X1755444Y619861D01*
X1759864Y633018D01*
X1762607Y646582D01*
X1763471Y660400D01*
X1762607Y674217D01*
X1759864Y687781D01*
X1755444Y700938D01*
X1749298Y713333D01*
X1741627Y724865D01*
X1732483Y735279D01*
X1722069Y744423D01*
X1710537Y752094D01*
X1698142Y758240D01*
X1684985Y762660D01*
X1671421Y765403D01*
X1657604Y766267D01*
X1643786Y765403D01*
X1630222Y762660D01*
X1617065Y758240D01*
X1604670Y752094D01*
X1593138Y744423D01*
X1582724Y735279D01*
X1573580Y724865D01*
X1565910Y713333D01*
X1559763Y700938D01*
X1555343Y687781D01*
X1552600Y674217D01*
X1551736Y660400D01*
X1552600Y646582D01*
X1555343Y633018D01*
X1559763Y619861D01*
X1565910Y607466D01*
X1573580Y595934D01*
X1582724Y585520D01*
X1593138Y576376D01*
X1604670Y568706D01*
X1617065Y562559D01*
X1630222Y558139D01*
X1643786Y555396D01*
G37*
G36*
X4178808Y554532D02*
G01*
X4192625Y555396D01*
X4206189Y558139D01*
X4219346Y562559D01*
X4231741Y568706D01*
X4243273Y576376D01*
X4253687Y585520D01*
X4262831Y595934D01*
X4270502Y607466D01*
X4276648Y619861D01*
X4281068Y633018D01*
X4283811Y646582D01*
X4284675Y660400D01*
X4283811Y674217D01*
X4281068Y687781D01*
X4276648Y700938D01*
X4270502Y713333D01*
X4262831Y724865D01*
X4253687Y735279D01*
X4243273Y744423D01*
X4231741Y752094D01*
X4219346Y758240D01*
X4206189Y762660D01*
X4192625Y765403D01*
X4178808Y766267D01*
X4164990Y765403D01*
X4151426Y762660D01*
X4138269Y758240D01*
X4125874Y752094D01*
X4114342Y744423D01*
X4103928Y735279D01*
X4094784Y724865D01*
X4087114Y713333D01*
X4080967Y700938D01*
X4076547Y687781D01*
X4073804Y674217D01*
X4072940Y660400D01*
X4073804Y646582D01*
X4076547Y633018D01*
X4080967Y619861D01*
X4087114Y607466D01*
X4094784Y595934D01*
X4103928Y585520D01*
X4114342Y576376D01*
X4125874Y568706D01*
X4138269Y562559D01*
X4151426Y558139D01*
X4164990Y555396D01*
G37*
G36*
X4521200Y1023162D02*
G01*
X4531004Y1024026D01*
X4540453Y1026566D01*
X4549394Y1030681D01*
X4557420Y1036319D01*
X4564380Y1043279D01*
X4570018Y1051306D01*
X4574133Y1060246D01*
X4576673Y1069695D01*
X4577537Y1079500D01*
X4576673Y1089304D01*
X4574133Y1098753D01*
X4570018Y1107694D01*
X4564380Y1115720D01*
X4562805Y1117295D01*
X4560570Y1120597D01*
X4559808Y1124508D01*
X4559808Y2279091D01*
X4560570Y2283002D01*
X4562805Y2286304D01*
X4564380Y2287879D01*
X4570018Y2295906D01*
X4574133Y2304846D01*
X4576673Y2314295D01*
X4577537Y2324100D01*
X4576673Y2333904D01*
X4574133Y2343353D01*
X4570018Y2352294D01*
X4564380Y2360320D01*
X4557420Y2367280D01*
X4549394Y2372918D01*
X4540453Y2377033D01*
X4531004Y2379573D01*
X4521200Y2380437D01*
X4511395Y2379573D01*
X4501946Y2377033D01*
X4493006Y2372918D01*
X4484979Y2367280D01*
X4478020Y2360320D01*
X4472381Y2352294D01*
X4468266Y2343353D01*
X4465726Y2333904D01*
X4464862Y2324100D01*
X4465726Y2314295D01*
X4468266Y2304846D01*
X4472381Y2295906D01*
X4478020Y2287879D01*
X4479594Y2286304D01*
X4481830Y2283002D01*
X4482592Y2279091D01*
X4482592Y1124508D01*
X4481830Y1120597D01*
X4479594Y1117295D01*
X4478020Y1115720D01*
X4472381Y1107694D01*
X4468266Y1098753D01*
X4465726Y1089304D01*
X4464862Y1079500D01*
X4465726Y1069695D01*
X4468266Y1060246D01*
X4472381Y1051306D01*
X4478020Y1043279D01*
X4484979Y1036319D01*
X4493006Y1030681D01*
X4501946Y1026566D01*
X4511395Y1024026D01*
G37*
G36*
X1866900Y1023162D02*
G01*
X1876704Y1024026D01*
X1886153Y1026566D01*
X1895093Y1030681D01*
X1903120Y1036319D01*
X1910080Y1043279D01*
X1915718Y1051306D01*
X1919833Y1060246D01*
X1922373Y1069695D01*
X1923237Y1079500D01*
X1922373Y1089304D01*
X1919833Y1098753D01*
X1915718Y1107694D01*
X1910080Y1115720D01*
X1908505Y1117295D01*
X1906270Y1120597D01*
X1905507Y1124508D01*
X1905507Y2278786D01*
X1906270Y2282698D01*
X1908505Y2286000D01*
X1910384Y2287879D01*
X1916023Y2295906D01*
X1920138Y2304846D01*
X1922678Y2314295D01*
X1923542Y2324100D01*
X1922678Y2333904D01*
X1920138Y2343353D01*
X1916023Y2352294D01*
X1910384Y2360320D01*
X1903425Y2367280D01*
X1895398Y2372918D01*
X1886457Y2377033D01*
X1877009Y2379573D01*
X1867204Y2380437D01*
X1857400Y2379573D01*
X1847951Y2377033D01*
X1839010Y2372918D01*
X1830984Y2367280D01*
X1824024Y2360320D01*
X1818386Y2352294D01*
X1814271Y2343353D01*
X1811731Y2333904D01*
X1810867Y2324100D01*
X1811731Y2314295D01*
X1814271Y2304846D01*
X1818386Y2295906D01*
X1824024Y2287879D01*
X1825294Y2286609D01*
X1827530Y2283307D01*
X1828292Y2279396D01*
X1828292Y1124508D01*
X1827530Y1120597D01*
X1825294Y1117295D01*
X1823720Y1115720D01*
X1818081Y1107694D01*
X1813966Y1098753D01*
X1811426Y1089304D01*
X1810562Y1079500D01*
X1811426Y1069695D01*
X1813966Y1060246D01*
X1818081Y1051306D01*
X1823720Y1043279D01*
X1830679Y1036319D01*
X1838706Y1030681D01*
X1847646Y1026566D01*
X1857095Y1024026D01*
G37*
G36*
X4254500Y1023162D02*
G01*
X4264304Y1024026D01*
X4273753Y1026566D01*
X4282694Y1030681D01*
X4290720Y1036319D01*
X4297680Y1043279D01*
X4303318Y1051306D01*
X4307433Y1060246D01*
X4309973Y1069695D01*
X4310837Y1079500D01*
X4309973Y1089304D01*
X4307433Y1098753D01*
X4303318Y1107694D01*
X4297680Y1115720D01*
X4296105Y1117295D01*
X4293870Y1120597D01*
X4293108Y1124508D01*
X4293108Y2268423D01*
X4293616Y2271623D01*
X4295140Y2274468D01*
X4297426Y2276754D01*
X4303420Y2280920D01*
X4310380Y2287879D01*
X4316018Y2295906D01*
X4320133Y2304846D01*
X4322673Y2314295D01*
X4323537Y2324100D01*
X4322673Y2333904D01*
X4320133Y2343353D01*
X4316018Y2352294D01*
X4310380Y2360320D01*
X4303420Y2367280D01*
X4295394Y2372918D01*
X4286453Y2377033D01*
X4277004Y2379573D01*
X4267200Y2380437D01*
X4257395Y2379573D01*
X4247946Y2377033D01*
X4239006Y2372918D01*
X4230979Y2367280D01*
X4224020Y2360320D01*
X4218381Y2352294D01*
X4214266Y2343353D01*
X4211726Y2333904D01*
X4210862Y2324100D01*
X4211726Y2314295D01*
X4214266Y2304846D01*
X4214926Y2303322D01*
X4215892Y2299055D01*
X4215892Y1124508D01*
X4215130Y1120597D01*
X4212894Y1117295D01*
X4211320Y1115720D01*
X4205681Y1107694D01*
X4201566Y1098753D01*
X4199026Y1089304D01*
X4198162Y1079500D01*
X4199026Y1069695D01*
X4201566Y1060246D01*
X4205681Y1051306D01*
X4211320Y1043279D01*
X4218279Y1036319D01*
X4226306Y1030681D01*
X4235246Y1026566D01*
X4244695Y1024026D01*
G37*
G36*
X3041192Y1422146D02*
G01*
X3054807Y1422146D01*
X3068320Y1423974D01*
X3081477Y1427581D01*
X3094024Y1432864D01*
X3105759Y1439824D01*
X3116478Y1448308D01*
X3125978Y1458061D01*
X3134055Y1469085D01*
X3140608Y1481023D01*
X3145485Y1493774D01*
X3148685Y1507032D01*
X3150057Y1520596D01*
X3149600Y1534210D01*
X3147314Y1547672D01*
X3143250Y1560677D01*
X3137509Y1573072D01*
X3130194Y1584553D01*
X3121406Y1594967D01*
X3111296Y1604111D01*
X3100019Y1611833D01*
X3087878Y1617980D01*
X3074974Y1622450D01*
X3061614Y1625193D01*
X3048000Y1626057D01*
X3034385Y1625193D01*
X3021025Y1622450D01*
X3008172Y1617980D01*
X2995980Y1611833D01*
X2984754Y1604111D01*
X2974644Y1594967D01*
X2965805Y1584553D01*
X2958490Y1573072D01*
X2952750Y1560677D01*
X2948686Y1547672D01*
X2946450Y1534210D01*
X2945993Y1520596D01*
X2947365Y1507032D01*
X2950514Y1493774D01*
X2955391Y1481023D01*
X2961944Y1469085D01*
X2970072Y1458061D01*
X2979521Y1448308D01*
X2990240Y1439824D01*
X3001975Y1432864D01*
X3014522Y1427581D01*
X3027680Y1423974D01*
G37*
G36*
X3549192Y1422146D02*
G01*
X3562807Y1422146D01*
X3576320Y1423974D01*
X3589477Y1427581D01*
X3602024Y1432864D01*
X3613759Y1439824D01*
X3624478Y1448308D01*
X3633978Y1458061D01*
X3642055Y1469085D01*
X3648608Y1481023D01*
X3653485Y1493774D01*
X3656685Y1507032D01*
X3658057Y1520596D01*
X3657600Y1534210D01*
X3655314Y1547672D01*
X3651250Y1560677D01*
X3645509Y1573072D01*
X3638194Y1584553D01*
X3629406Y1594967D01*
X3619296Y1604111D01*
X3608019Y1611833D01*
X3595878Y1617980D01*
X3582974Y1622450D01*
X3569614Y1625193D01*
X3556000Y1626057D01*
X3542385Y1625193D01*
X3529025Y1622450D01*
X3516172Y1617980D01*
X3503980Y1611833D01*
X3492754Y1604111D01*
X3482644Y1594967D01*
X3473805Y1584553D01*
X3466490Y1573072D01*
X3460750Y1560677D01*
X3456686Y1547672D01*
X3454450Y1534210D01*
X3453993Y1520596D01*
X3455365Y1507032D01*
X3458514Y1493774D01*
X3463391Y1481023D01*
X3469944Y1469085D01*
X3478072Y1458061D01*
X3487521Y1448308D01*
X3498240Y1439824D01*
X3509975Y1432864D01*
X3522522Y1427581D01*
X3535679Y1423974D01*
G37*
G36*
X3803192Y1422146D02*
G01*
X3816807Y1422146D01*
X3830320Y1423974D01*
X3843477Y1427581D01*
X3856024Y1432864D01*
X3867759Y1439824D01*
X3878478Y1448308D01*
X3887978Y1458061D01*
X3896055Y1469085D01*
X3902608Y1481023D01*
X3907485Y1493774D01*
X3910685Y1507032D01*
X3912057Y1520596D01*
X3911600Y1534210D01*
X3909314Y1547672D01*
X3905250Y1560677D01*
X3899509Y1573072D01*
X3892194Y1584553D01*
X3883406Y1594967D01*
X3873296Y1604111D01*
X3862019Y1611833D01*
X3849878Y1617980D01*
X3836974Y1622450D01*
X3823614Y1625193D01*
X3810000Y1626057D01*
X3796385Y1625193D01*
X3783025Y1622450D01*
X3770172Y1617980D01*
X3757980Y1611833D01*
X3746754Y1604111D01*
X3736644Y1594967D01*
X3727805Y1584553D01*
X3720490Y1573072D01*
X3714750Y1560677D01*
X3710686Y1547672D01*
X3708450Y1534210D01*
X3707993Y1520596D01*
X3709365Y1507032D01*
X3712514Y1493774D01*
X3717391Y1481023D01*
X3723944Y1469085D01*
X3732072Y1458061D01*
X3741521Y1448308D01*
X3752240Y1439824D01*
X3763975Y1432864D01*
X3776522Y1427581D01*
X3789679Y1423974D01*
G37*
G36*
X3295192Y1422146D02*
G01*
X3308807Y1422146D01*
X3322320Y1423974D01*
X3335477Y1427581D01*
X3348024Y1432864D01*
X3359759Y1439824D01*
X3370478Y1448308D01*
X3379978Y1458061D01*
X3388055Y1469085D01*
X3394608Y1481023D01*
X3399485Y1493774D01*
X3402685Y1507032D01*
X3404057Y1520596D01*
X3403600Y1534210D01*
X3401314Y1547672D01*
X3397250Y1560677D01*
X3391509Y1573072D01*
X3384194Y1584553D01*
X3375406Y1594967D01*
X3365296Y1604111D01*
X3354019Y1611833D01*
X3341878Y1617980D01*
X3328974Y1622450D01*
X3315614Y1625193D01*
X3302000Y1626057D01*
X3288385Y1625193D01*
X3275025Y1622450D01*
X3262172Y1617980D01*
X3249980Y1611833D01*
X3238754Y1604111D01*
X3228644Y1594967D01*
X3219805Y1584553D01*
X3212490Y1573072D01*
X3206750Y1560677D01*
X3202686Y1547672D01*
X3200450Y1534210D01*
X3199993Y1520596D01*
X3201365Y1507032D01*
X3204514Y1493774D01*
X3209391Y1481023D01*
X3215944Y1469085D01*
X3224072Y1458061D01*
X3233521Y1448308D01*
X3244240Y1439824D01*
X3255975Y1432864D01*
X3268522Y1427581D01*
X3281679Y1423974D01*
G37*
G36*
X2787192Y1422146D02*
G01*
X2800807Y1422146D01*
X2814320Y1423974D01*
X2827477Y1427581D01*
X2840024Y1432864D01*
X2851759Y1439824D01*
X2862478Y1448308D01*
X2871978Y1458061D01*
X2880055Y1469085D01*
X2886608Y1481023D01*
X2891485Y1493774D01*
X2894685Y1507032D01*
X2896057Y1520596D01*
X2895600Y1534210D01*
X2893314Y1547672D01*
X2889250Y1560677D01*
X2883509Y1573072D01*
X2876194Y1584553D01*
X2867406Y1594967D01*
X2857296Y1604111D01*
X2846019Y1611833D01*
X2833878Y1617980D01*
X2820974Y1622450D01*
X2807614Y1625193D01*
X2794000Y1626057D01*
X2780385Y1625193D01*
X2767025Y1622450D01*
X2754172Y1617980D01*
X2741980Y1611833D01*
X2730754Y1604111D01*
X2720644Y1594967D01*
X2711805Y1584553D01*
X2704490Y1573072D01*
X2698750Y1560677D01*
X2694686Y1547672D01*
X2692450Y1534210D01*
X2691993Y1520596D01*
X2693365Y1507032D01*
X2696514Y1493774D01*
X2701391Y1481023D01*
X2707944Y1469085D01*
X2716072Y1458061D01*
X2725521Y1448308D01*
X2736240Y1439824D01*
X2747975Y1432864D01*
X2760522Y1427581D01*
X2773680Y1423974D01*
G37*
G36*
X2174798Y3605022D02*
G01*
X2187448Y3605022D01*
X2200046Y3606749D01*
X2212187Y3610254D01*
X2223820Y3615436D01*
X2234539Y3622141D01*
X2244242Y3630269D01*
X2252726Y3639718D01*
X2259838Y3650234D01*
X2265375Y3661613D01*
X2269286Y3673652D01*
X2271522Y3686149D01*
X2271979Y3698849D01*
X2270607Y3711448D01*
X2267559Y3723741D01*
X2262835Y3735527D01*
X2256485Y3746500D01*
X2248662Y3756456D01*
X2239568Y3765296D01*
X2229307Y3772712D01*
X2218080Y3778707D01*
X2206193Y3783025D01*
X2193798Y3785666D01*
X2181148Y3786530D01*
X2168499Y3785666D01*
X2156053Y3783025D01*
X2144166Y3778707D01*
X2132990Y3772712D01*
X2122728Y3765296D01*
X2113584Y3756456D01*
X2105761Y3746500D01*
X2099462Y3735527D01*
X2094687Y3723741D01*
X2091639Y3711448D01*
X2090318Y3698849D01*
X2090724Y3686149D01*
X2092960Y3673652D01*
X2096871Y3661613D01*
X2102408Y3650234D01*
X2109520Y3639718D01*
X2118004Y3630269D01*
X2127707Y3622141D01*
X2138476Y3615436D01*
X2150059Y3610254D01*
X2162251Y3606749D01*
G37*
G36*
X2674772Y3605022D02*
G01*
X2687472Y3605022D01*
X2700020Y3606749D01*
X2712212Y3610254D01*
X2723794Y3615436D01*
X2734564Y3622141D01*
X2744266Y3630269D01*
X2752750Y3639718D01*
X2759811Y3650234D01*
X2765399Y3661613D01*
X2769311Y3673652D01*
X2771495Y3686149D01*
X2771952Y3698849D01*
X2770632Y3711448D01*
X2767584Y3723741D01*
X2762808Y3735527D01*
X2756458Y3746500D01*
X2748686Y3756456D01*
X2739542Y3765296D01*
X2729280Y3772712D01*
X2718104Y3778707D01*
X2706166Y3783025D01*
X2693771Y3785666D01*
X2681122Y3786530D01*
X2668473Y3785666D01*
X2656078Y3783025D01*
X2644140Y3778707D01*
X2632964Y3772712D01*
X2622702Y3765296D01*
X2613609Y3756456D01*
X2605786Y3746500D01*
X2599436Y3735527D01*
X2594711Y3723741D01*
X2591612Y3711448D01*
X2590292Y3698849D01*
X2590749Y3686149D01*
X2592933Y3673652D01*
X2596845Y3661613D01*
X2602433Y3650234D01*
X2609494Y3639718D01*
X2617978Y3630269D01*
X2627731Y3622141D01*
X2638450Y3615436D01*
X2650032Y3610254D01*
X2662224Y3606749D01*
G37*
G36*
X3174796Y3605022D02*
G01*
X3187446Y3605022D01*
X3200044Y3606749D01*
X3212185Y3610254D01*
X3223818Y3615436D01*
X3234537Y3622141D01*
X3244240Y3630269D01*
X3252724Y3639718D01*
X3259836Y3650234D01*
X3265373Y3661613D01*
X3269284Y3673652D01*
X3271520Y3686149D01*
X3271977Y3698849D01*
X3270605Y3711448D01*
X3267557Y3723741D01*
X3262833Y3735527D01*
X3256483Y3746500D01*
X3248660Y3756456D01*
X3239566Y3765296D01*
X3229305Y3772712D01*
X3218078Y3778707D01*
X3206191Y3783025D01*
X3193796Y3785666D01*
X3181146Y3786530D01*
X3168497Y3785666D01*
X3156051Y3783025D01*
X3144164Y3778707D01*
X3132988Y3772712D01*
X3122726Y3765296D01*
X3113582Y3756456D01*
X3105759Y3746500D01*
X3099460Y3735527D01*
X3094685Y3723741D01*
X3091637Y3711448D01*
X3090316Y3698849D01*
X3090722Y3686149D01*
X3092958Y3673652D01*
X3096869Y3661613D01*
X3102406Y3650234D01*
X3109518Y3639718D01*
X3118002Y3630269D01*
X3127705Y3622141D01*
X3138474Y3615436D01*
X3150057Y3610254D01*
X3162249Y3606749D01*
G37*
G36*
X1674774Y3605022D02*
G01*
X1687474Y3605022D01*
X1700022Y3606749D01*
X1712214Y3610254D01*
X1723796Y3615436D01*
X1734566Y3622141D01*
X1744268Y3630269D01*
X1752752Y3639718D01*
X1759813Y3650234D01*
X1765401Y3661613D01*
X1769313Y3673652D01*
X1771497Y3686149D01*
X1771954Y3698849D01*
X1770634Y3711448D01*
X1767586Y3723741D01*
X1762810Y3735527D01*
X1756460Y3746500D01*
X1748688Y3756456D01*
X1739544Y3765296D01*
X1729282Y3772712D01*
X1718106Y3778707D01*
X1706168Y3783025D01*
X1693773Y3785666D01*
X1681124Y3786530D01*
X1668475Y3785666D01*
X1656080Y3783025D01*
X1644142Y3778707D01*
X1632966Y3772712D01*
X1622704Y3765296D01*
X1613611Y3756456D01*
X1605788Y3746500D01*
X1599438Y3735527D01*
X1594713Y3723741D01*
X1591614Y3711448D01*
X1590294Y3698849D01*
X1590751Y3686149D01*
X1592935Y3673652D01*
X1596847Y3661613D01*
X1602435Y3650234D01*
X1609496Y3639718D01*
X1617980Y3630269D01*
X1627733Y3622141D01*
X1638452Y3615436D01*
X1650034Y3610254D01*
X1662226Y3606749D01*
G37*
G36*
X3674770Y3605022D02*
G01*
X3687470Y3605022D01*
X3700018Y3606749D01*
X3712210Y3610254D01*
X3723792Y3615436D01*
X3734562Y3622141D01*
X3744264Y3630269D01*
X3752748Y3639718D01*
X3759809Y3650234D01*
X3765397Y3661613D01*
X3769309Y3673652D01*
X3771493Y3686149D01*
X3771950Y3698849D01*
X3770629Y3711448D01*
X3767582Y3723741D01*
X3762806Y3735527D01*
X3756456Y3746500D01*
X3748684Y3756456D01*
X3739540Y3765296D01*
X3729278Y3772712D01*
X3718102Y3778707D01*
X3706164Y3783025D01*
X3693769Y3785666D01*
X3681120Y3786530D01*
X3668471Y3785666D01*
X3656076Y3783025D01*
X3644137Y3778707D01*
X3632962Y3772712D01*
X3622700Y3765296D01*
X3613607Y3756456D01*
X3605784Y3746500D01*
X3599434Y3735527D01*
X3594709Y3723741D01*
X3591610Y3711448D01*
X3590290Y3698849D01*
X3590747Y3686149D01*
X3592931Y3673652D01*
X3596843Y3661613D01*
X3602431Y3650234D01*
X3609492Y3639718D01*
X3617976Y3630269D01*
X3627729Y3622141D01*
X3638448Y3615436D01*
X3650030Y3610254D01*
X3662222Y3606749D01*
G37*
G36*
X4674768Y3605022D02*
G01*
X4687468Y3605022D01*
X4700016Y3606749D01*
X4712208Y3610254D01*
X4723790Y3615436D01*
X4734560Y3622141D01*
X4744262Y3630269D01*
X4752746Y3639718D01*
X4759807Y3650234D01*
X4765395Y3661613D01*
X4769307Y3673652D01*
X4771491Y3686149D01*
X4771948Y3698849D01*
X4770628Y3711448D01*
X4767580Y3723741D01*
X4762804Y3735527D01*
X4756454Y3746500D01*
X4748682Y3756456D01*
X4739538Y3765296D01*
X4729276Y3772712D01*
X4718100Y3778707D01*
X4706162Y3783025D01*
X4693767Y3785666D01*
X4681118Y3786530D01*
X4668469Y3785666D01*
X4656074Y3783025D01*
X4644136Y3778707D01*
X4632960Y3772712D01*
X4622698Y3765296D01*
X4613605Y3756456D01*
X4605782Y3746500D01*
X4599432Y3735527D01*
X4594707Y3723741D01*
X4591608Y3711448D01*
X4590288Y3698849D01*
X4590745Y3686149D01*
X4592929Y3673652D01*
X4596841Y3661613D01*
X4602429Y3650234D01*
X4609490Y3639718D01*
X4617974Y3630269D01*
X4627727Y3622141D01*
X4638446Y3615436D01*
X4650028Y3610254D01*
X4662220Y3606749D01*
G37*
G36*
X4174794Y3605022D02*
G01*
X4187444Y3605022D01*
X4200042Y3606749D01*
X4212183Y3610254D01*
X4223816Y3615436D01*
X4234535Y3622141D01*
X4244238Y3630269D01*
X4252722Y3639718D01*
X4259834Y3650234D01*
X4265371Y3661613D01*
X4269282Y3673652D01*
X4271518Y3686149D01*
X4271975Y3698849D01*
X4270603Y3711448D01*
X4267555Y3723741D01*
X4262831Y3735527D01*
X4256481Y3746500D01*
X4248658Y3756456D01*
X4239564Y3765296D01*
X4229303Y3772712D01*
X4218076Y3778707D01*
X4206189Y3783025D01*
X4193794Y3785666D01*
X4181144Y3786530D01*
X4168495Y3785666D01*
X4156049Y3783025D01*
X4144162Y3778707D01*
X4132986Y3772712D01*
X4122724Y3765296D01*
X4113580Y3756456D01*
X4105757Y3746500D01*
X4099458Y3735527D01*
X4094683Y3723741D01*
X4091635Y3711448D01*
X4090314Y3698849D01*
X4090720Y3686149D01*
X4092956Y3673652D01*
X4096867Y3661613D01*
X4102404Y3650234D01*
X4109516Y3639718D01*
X4118000Y3630269D01*
X4127703Y3622141D01*
X4138472Y3615436D01*
X4150055Y3610254D01*
X4162247Y3606749D01*
G37*
G36*
X1174800Y3605022D02*
G01*
X1187450Y3605022D01*
X1200048Y3606749D01*
X1212189Y3610254D01*
X1223822Y3615436D01*
X1234541Y3622141D01*
X1244244Y3630269D01*
X1252728Y3639718D01*
X1259840Y3650234D01*
X1265377Y3661613D01*
X1269288Y3673652D01*
X1271524Y3686149D01*
X1271981Y3698849D01*
X1270609Y3711448D01*
X1267561Y3723741D01*
X1262837Y3735527D01*
X1256487Y3746500D01*
X1248664Y3756456D01*
X1239570Y3765296D01*
X1229309Y3772712D01*
X1218082Y3778707D01*
X1206195Y3783025D01*
X1193800Y3785666D01*
X1181150Y3786530D01*
X1168501Y3785666D01*
X1156055Y3783025D01*
X1144168Y3778707D01*
X1132992Y3772712D01*
X1122730Y3765296D01*
X1113586Y3756456D01*
X1105763Y3746500D01*
X1099464Y3735527D01*
X1094689Y3723741D01*
X1091641Y3711448D01*
X1090320Y3698849D01*
X1090726Y3686149D01*
X1092962Y3673652D01*
X1096873Y3661613D01*
X1102410Y3650234D01*
X1109522Y3639718D01*
X1118006Y3630269D01*
X1127709Y3622141D01*
X1138478Y3615436D01*
X1150061Y3610254D01*
X1162253Y3606749D01*
G37*
G36*
X1174800Y3855008D02*
G01*
X1187450Y3855008D01*
X1199997Y3856786D01*
X1212189Y3860241D01*
X1223772Y3865422D01*
X1234541Y3872128D01*
X1244244Y3880307D01*
X1252728Y3889705D01*
X1262634Y3904437D01*
X1265834Y3906418D01*
X1269542Y3907078D01*
X1592681Y3907078D01*
X1596390Y3906418D01*
X1599590Y3904437D01*
X1609496Y3889705D01*
X1617980Y3880307D01*
X1627682Y3872128D01*
X1638452Y3865422D01*
X1650034Y3860241D01*
X1662226Y3856786D01*
X1674774Y3855008D01*
X1687474Y3855008D01*
X1700022Y3856786D01*
X1712214Y3860241D01*
X1723796Y3865422D01*
X1734515Y3872128D01*
X1744268Y3880307D01*
X1752752Y3889705D01*
X1762658Y3904437D01*
X1765858Y3906418D01*
X1769516Y3907078D01*
X2092706Y3907078D01*
X2096414Y3906418D01*
X2099614Y3904437D01*
X2109520Y3889705D01*
X2118004Y3880307D01*
X2127707Y3872128D01*
X2138476Y3865422D01*
X2150059Y3860241D01*
X2162200Y3856786D01*
X2174798Y3855008D01*
X2187448Y3855008D01*
X2199995Y3856786D01*
X2212187Y3860241D01*
X2223770Y3865422D01*
X2234539Y3872128D01*
X2244242Y3880307D01*
X2252726Y3889705D01*
X2262632Y3904437D01*
X2265832Y3906418D01*
X2269540Y3907078D01*
X2592679Y3907078D01*
X2596388Y3906418D01*
X2599588Y3904437D01*
X2609494Y3889705D01*
X2617978Y3880307D01*
X2627680Y3872128D01*
X2638450Y3865422D01*
X2650032Y3860241D01*
X2662224Y3856786D01*
X2674772Y3855008D01*
X2687472Y3855008D01*
X2700020Y3856786D01*
X2712212Y3860241D01*
X2723794Y3865422D01*
X2734513Y3872128D01*
X2744266Y3880307D01*
X2752750Y3889705D01*
X2762656Y3904437D01*
X2765856Y3906418D01*
X2769514Y3907078D01*
X3092704Y3907078D01*
X3096412Y3906418D01*
X3099612Y3904437D01*
X3109518Y3889705D01*
X3118002Y3880307D01*
X3127705Y3872128D01*
X3138424Y3865422D01*
X3150057Y3860241D01*
X3162198Y3856786D01*
X3174796Y3855008D01*
X3187446Y3855008D01*
X3199993Y3856786D01*
X3212185Y3860241D01*
X3223768Y3865422D01*
X3234537Y3872128D01*
X3244240Y3880307D01*
X3252724Y3889705D01*
X3262629Y3904437D01*
X3265830Y3906418D01*
X3269538Y3907078D01*
X3592677Y3907078D01*
X3596386Y3906418D01*
X3599586Y3904437D01*
X3609492Y3889705D01*
X3617976Y3880307D01*
X3627678Y3872128D01*
X3638448Y3865422D01*
X3650030Y3860241D01*
X3662222Y3856786D01*
X3674770Y3855008D01*
X3687470Y3855008D01*
X3700018Y3856786D01*
X3712210Y3860241D01*
X3723792Y3865422D01*
X3734511Y3872128D01*
X3744264Y3880307D01*
X3752748Y3889705D01*
X3762654Y3904437D01*
X3765854Y3906418D01*
X3769512Y3907078D01*
X4092701Y3907078D01*
X4096410Y3906418D01*
X4099610Y3904437D01*
X4109516Y3889705D01*
X4118000Y3880307D01*
X4127703Y3872128D01*
X4138422Y3865422D01*
X4150055Y3860241D01*
X4162196Y3856786D01*
X4174794Y3855008D01*
X4187444Y3855008D01*
X4199991Y3856786D01*
X4212183Y3860241D01*
X4223766Y3865422D01*
X4234535Y3872128D01*
X4244238Y3880307D01*
X4252722Y3889705D01*
X4262628Y3904437D01*
X4265828Y3906418D01*
X4269536Y3907078D01*
X4592675Y3907078D01*
X4596384Y3906418D01*
X4599584Y3904437D01*
X4609490Y3889705D01*
X4617974Y3880307D01*
X4627676Y3872128D01*
X4638446Y3865422D01*
X4650028Y3860241D01*
X4662220Y3856786D01*
X4674768Y3855008D01*
X4687468Y3855008D01*
X4700016Y3856786D01*
X4712208Y3860241D01*
X4723790Y3865422D01*
X4734509Y3872128D01*
X4744262Y3880307D01*
X4752746Y3889705D01*
X4759807Y3900220D01*
X4762347Y3905402D01*
X4764582Y3908399D01*
X4767783Y3910380D01*
X4771491Y3911092D01*
X4857191Y3911092D01*
X4861102Y3910329D01*
X4864404Y3908094D01*
X4865979Y3906520D01*
X4874006Y3900881D01*
X4882946Y3896766D01*
X4892395Y3894226D01*
X4902200Y3893362D01*
X4912004Y3894226D01*
X4921453Y3896766D01*
X4930394Y3900881D01*
X4938420Y3906520D01*
X4945380Y3913479D01*
X4951018Y3921506D01*
X4955133Y3930446D01*
X4957673Y3939895D01*
X4958537Y3949700D01*
X4957673Y3959504D01*
X4955133Y3968953D01*
X4951018Y3977894D01*
X4945380Y3985920D01*
X4938420Y3992879D01*
X4930394Y3998518D01*
X4921453Y4002633D01*
X4912004Y4005173D01*
X4902200Y4006037D01*
X4892395Y4005173D01*
X4882946Y4002633D01*
X4874006Y3998518D01*
X4865979Y3992879D01*
X4864404Y3991305D01*
X4861102Y3989070D01*
X4857191Y3988308D01*
X4767021Y3988308D01*
X4763566Y3988917D01*
X4760518Y3990695D01*
X4758232Y3993387D01*
X4756454Y3996486D01*
X4748631Y4006494D01*
X4739538Y4015282D01*
X4729276Y4022750D01*
X4718100Y4028694D01*
X4706162Y4033012D01*
X4693767Y4035653D01*
X4681118Y4036517D01*
X4668469Y4035653D01*
X4656074Y4033012D01*
X4644136Y4028694D01*
X4632960Y4022750D01*
X4622698Y4015282D01*
X4613554Y4006494D01*
X4605782Y3996486D01*
X4601667Y3989374D01*
X4599432Y3986682D01*
X4596333Y3984955D01*
X4592878Y3984294D01*
X4269333Y3984294D01*
X4265879Y3984955D01*
X4262831Y3986682D01*
X4260545Y3989374D01*
X4256481Y3996486D01*
X4248658Y4006494D01*
X4239514Y4015282D01*
X4229252Y4022750D01*
X4218076Y4028694D01*
X4206189Y4033012D01*
X4193743Y4035653D01*
X4181094Y4036517D01*
X4168444Y4035653D01*
X4156049Y4033012D01*
X4144162Y4028694D01*
X4132935Y4022750D01*
X4122674Y4015282D01*
X4113580Y4006494D01*
X4105757Y3996486D01*
X4101693Y3989374D01*
X4099407Y3986682D01*
X4096359Y3984955D01*
X4092905Y3984294D01*
X3769360Y3984294D01*
X3765854Y3984955D01*
X3762806Y3986682D01*
X3760571Y3989374D01*
X3756456Y3996486D01*
X3748633Y4006494D01*
X3739540Y4015282D01*
X3729278Y4022750D01*
X3718102Y4028694D01*
X3706164Y4033012D01*
X3693769Y4035653D01*
X3681120Y4036517D01*
X3668471Y4035653D01*
X3656076Y4033012D01*
X3644137Y4028694D01*
X3632962Y4022750D01*
X3622700Y4015282D01*
X3613556Y4006494D01*
X3605784Y3996486D01*
X3601669Y3989374D01*
X3599434Y3986682D01*
X3596335Y3984955D01*
X3592880Y3984294D01*
X3269335Y3984294D01*
X3265881Y3984955D01*
X3262833Y3986682D01*
X3260547Y3989374D01*
X3256483Y3996486D01*
X3248660Y4006494D01*
X3239516Y4015282D01*
X3229254Y4022750D01*
X3218078Y4028694D01*
X3206191Y4033012D01*
X3193745Y4035653D01*
X3181096Y4036517D01*
X3168446Y4035653D01*
X3156051Y4033012D01*
X3144164Y4028694D01*
X3132937Y4022750D01*
X3122676Y4015282D01*
X3113582Y4006494D01*
X3105759Y3996486D01*
X3101695Y3989374D01*
X3099409Y3986682D01*
X3096361Y3984955D01*
X3092907Y3984294D01*
X2769362Y3984294D01*
X2765856Y3984955D01*
X2762808Y3986682D01*
X2760573Y3989374D01*
X2756458Y3996486D01*
X2748635Y4006494D01*
X2739542Y4015282D01*
X2729280Y4022750D01*
X2718104Y4028694D01*
X2706166Y4033012D01*
X2693771Y4035653D01*
X2681122Y4036517D01*
X2668473Y4035653D01*
X2656078Y4033012D01*
X2644140Y4028694D01*
X2632964Y4022750D01*
X2622702Y4015282D01*
X2613558Y4006494D01*
X2605786Y3996486D01*
X2601671Y3989374D01*
X2599436Y3986682D01*
X2596337Y3984955D01*
X2592882Y3984294D01*
X2269337Y3984294D01*
X2265883Y3984955D01*
X2262835Y3986682D01*
X2260549Y3989374D01*
X2256485Y3996486D01*
X2248662Y4006494D01*
X2239518Y4015282D01*
X2229256Y4022750D01*
X2218080Y4028694D01*
X2206193Y4033012D01*
X2193747Y4035653D01*
X2181098Y4036517D01*
X2168448Y4035653D01*
X2156053Y4033012D01*
X2144166Y4028694D01*
X2132939Y4022750D01*
X2122678Y4015282D01*
X2113584Y4006494D01*
X2105761Y3996486D01*
X2101697Y3989374D01*
X2099411Y3986682D01*
X2096363Y3984955D01*
X2092909Y3984294D01*
X1769364Y3984294D01*
X1765858Y3984955D01*
X1762810Y3986682D01*
X1760575Y3989374D01*
X1756460Y3996486D01*
X1748637Y4006494D01*
X1739544Y4015282D01*
X1729282Y4022750D01*
X1718106Y4028694D01*
X1706168Y4033012D01*
X1693773Y4035653D01*
X1681124Y4036517D01*
X1668475Y4035653D01*
X1656080Y4033012D01*
X1644142Y4028694D01*
X1632966Y4022750D01*
X1622704Y4015282D01*
X1613560Y4006494D01*
X1605788Y3996486D01*
X1601673Y3989374D01*
X1599438Y3986682D01*
X1596339Y3984955D01*
X1592884Y3984294D01*
X1269339Y3984294D01*
X1265885Y3984955D01*
X1262837Y3986682D01*
X1260551Y3989374D01*
X1256487Y3996486D01*
X1248664Y4006494D01*
X1239520Y4015282D01*
X1229258Y4022750D01*
X1218082Y4028694D01*
X1206195Y4033012D01*
X1193749Y4035653D01*
X1181100Y4036517D01*
X1168450Y4035653D01*
X1156055Y4033012D01*
X1144168Y4028694D01*
X1132941Y4022750D01*
X1122680Y4015282D01*
X1113586Y4006494D01*
X1105763Y3996486D01*
X1099413Y3985514D01*
X1094689Y3973728D01*
X1091641Y3961434D01*
X1090269Y3948836D01*
X1090726Y3936136D01*
X1092962Y3923690D01*
X1096873Y3911600D01*
X1102410Y3900220D01*
X1109522Y3889705D01*
X1118006Y3880307D01*
X1127709Y3872128D01*
X1138478Y3865422D01*
X1150061Y3860241D01*
X1162202Y3856786D01*
G37*
G36*
X5473700Y105562D02*
G01*
X5478322Y105664D01*
X5501284Y108051D01*
X5523992Y112369D01*
X5546242Y118618D01*
X5567934Y126644D01*
X5588812Y136499D01*
X5608828Y148031D01*
X5627827Y161239D01*
X5645607Y175971D01*
X5662117Y192125D01*
X5677204Y209600D01*
X5690819Y228295D01*
X5702757Y248107D01*
X5713018Y268782D01*
X5721553Y290271D01*
X5728208Y312369D01*
X5733034Y334975D01*
X5735929Y357936D01*
X5736336Y368300D01*
X5473700Y368300D01*
G37*
G36*
X3674770Y4104995D02*
G01*
X3687470Y4104995D01*
X3700018Y4106773D01*
X3712210Y4110278D01*
X3723792Y4115409D01*
X3734511Y4122115D01*
X3744264Y4130294D01*
X3752748Y4139692D01*
X3759809Y4150207D01*
X3765397Y4161637D01*
X3769309Y4173677D01*
X3771493Y4186174D01*
X3771950Y4198823D01*
X3770629Y4211421D01*
X3767531Y4223766D01*
X3762806Y4235500D01*
X3756456Y4246473D01*
X3748633Y4256481D01*
X3739540Y4265269D01*
X3729278Y4272737D01*
X3718102Y4278680D01*
X3706164Y4282998D01*
X3693769Y4285640D01*
X3681120Y4286554D01*
X3668471Y4285640D01*
X3656076Y4282998D01*
X3644137Y4278680D01*
X3632962Y4272737D01*
X3622700Y4265269D01*
X3613556Y4256481D01*
X3605784Y4246473D01*
X3599434Y4235500D01*
X3594658Y4223766D01*
X3591610Y4211421D01*
X3590290Y4198823D01*
X3590747Y4186174D01*
X3592931Y4173677D01*
X3596843Y4161637D01*
X3602431Y4150207D01*
X3609492Y4139692D01*
X3617976Y4130294D01*
X3627678Y4122115D01*
X3638448Y4115409D01*
X3650030Y4110278D01*
X3662222Y4106773D01*
G37*
G36*
X393700Y105562D02*
G01*
X398322Y105664D01*
X421284Y108051D01*
X443992Y112369D01*
X466242Y118618D01*
X487934Y126644D01*
X508812Y136499D01*
X528828Y148031D01*
X547827Y161239D01*
X565607Y175971D01*
X582117Y192125D01*
X597204Y209600D01*
X610819Y228295D01*
X622757Y248107D01*
X633018Y268782D01*
X641553Y290271D01*
X648208Y312369D01*
X653034Y334975D01*
X655929Y357936D01*
X656336Y368300D01*
X393700Y368300D01*
G37*
G36*
X2674772Y4104995D02*
G01*
X2687472Y4104995D01*
X2700020Y4106773D01*
X2712212Y4110278D01*
X2723794Y4115409D01*
X2734513Y4122115D01*
X2744266Y4130294D01*
X2752750Y4139692D01*
X2759811Y4150207D01*
X2765399Y4161637D01*
X2769311Y4173677D01*
X2771495Y4186174D01*
X2771952Y4198823D01*
X2770632Y4211421D01*
X2767533Y4223766D01*
X2762808Y4235500D01*
X2756458Y4246473D01*
X2748635Y4256481D01*
X2739542Y4265269D01*
X2729280Y4272737D01*
X2718104Y4278680D01*
X2706166Y4282998D01*
X2693771Y4285640D01*
X2681122Y4286554D01*
X2668473Y4285640D01*
X2656078Y4282998D01*
X2644140Y4278680D01*
X2632964Y4272737D01*
X2622702Y4265269D01*
X2613558Y4256481D01*
X2605786Y4246473D01*
X2599436Y4235500D01*
X2594660Y4223766D01*
X2591612Y4211421D01*
X2590292Y4198823D01*
X2590749Y4186174D01*
X2592933Y4173677D01*
X2596845Y4161637D01*
X2602433Y4150207D01*
X2609494Y4139692D01*
X2617978Y4130294D01*
X2627680Y4122115D01*
X2638450Y4115409D01*
X2650032Y4110278D01*
X2662224Y4106773D01*
G37*
G36*
X3174796Y4104995D02*
G01*
X3187446Y4104995D01*
X3199993Y4106773D01*
X3212185Y4110278D01*
X3223768Y4115409D01*
X3234537Y4122115D01*
X3244240Y4130294D01*
X3252724Y4139692D01*
X3259836Y4150207D01*
X3265373Y4161637D01*
X3269284Y4173677D01*
X3271520Y4186174D01*
X3271926Y4198823D01*
X3270605Y4211421D01*
X3267557Y4223766D01*
X3262782Y4235500D01*
X3256483Y4246473D01*
X3248660Y4256481D01*
X3239516Y4265269D01*
X3229254Y4272737D01*
X3218078Y4278680D01*
X3206191Y4282998D01*
X3193745Y4285640D01*
X3181096Y4286554D01*
X3168446Y4285640D01*
X3156051Y4282998D01*
X3144164Y4278680D01*
X3132937Y4272737D01*
X3122676Y4265269D01*
X3113582Y4256481D01*
X3105759Y4246473D01*
X3099409Y4235500D01*
X3094685Y4223766D01*
X3091637Y4211421D01*
X3090265Y4198823D01*
X3090722Y4186174D01*
X3092958Y4173677D01*
X3096869Y4161637D01*
X3102406Y4150207D01*
X3109518Y4139692D01*
X3118002Y4130294D01*
X3127705Y4122115D01*
X3138424Y4115409D01*
X3150057Y4110278D01*
X3162198Y4106773D01*
G37*
G36*
X4674768Y4104995D02*
G01*
X4687468Y4104995D01*
X4700016Y4106773D01*
X4712208Y4110278D01*
X4723790Y4115409D01*
X4734509Y4122115D01*
X4744262Y4130294D01*
X4752746Y4139692D01*
X4759807Y4150207D01*
X4765395Y4161637D01*
X4769307Y4173677D01*
X4771491Y4186174D01*
X4771948Y4198823D01*
X4770628Y4211421D01*
X4767529Y4223766D01*
X4762804Y4235500D01*
X4756454Y4246473D01*
X4748631Y4256481D01*
X4739538Y4265269D01*
X4729276Y4272737D01*
X4718100Y4278680D01*
X4706162Y4282998D01*
X4693767Y4285640D01*
X4681118Y4286554D01*
X4668469Y4285640D01*
X4656074Y4282998D01*
X4644136Y4278680D01*
X4632960Y4272737D01*
X4622698Y4265269D01*
X4613554Y4256481D01*
X4605782Y4246473D01*
X4599432Y4235500D01*
X4594656Y4223766D01*
X4591608Y4211421D01*
X4590288Y4198823D01*
X4590745Y4186174D01*
X4592929Y4173677D01*
X4596841Y4161637D01*
X4602429Y4150207D01*
X4609490Y4139692D01*
X4617974Y4130294D01*
X4627676Y4122115D01*
X4638446Y4115409D01*
X4650028Y4110278D01*
X4662220Y4106773D01*
G37*
G36*
X4174794Y4104995D02*
G01*
X4187444Y4104995D01*
X4199991Y4106773D01*
X4212183Y4110278D01*
X4223766Y4115409D01*
X4234535Y4122115D01*
X4244238Y4130294D01*
X4252722Y4139692D01*
X4259834Y4150207D01*
X4265371Y4161637D01*
X4269282Y4173677D01*
X4271518Y4186174D01*
X4271924Y4198823D01*
X4270603Y4211421D01*
X4267555Y4223766D01*
X4262780Y4235500D01*
X4256481Y4246473D01*
X4248658Y4256481D01*
X4239514Y4265269D01*
X4229252Y4272737D01*
X4218076Y4278680D01*
X4206189Y4282998D01*
X4193743Y4285640D01*
X4181094Y4286554D01*
X4168444Y4285640D01*
X4156049Y4282998D01*
X4144162Y4278680D01*
X4132935Y4272737D01*
X4122674Y4265269D01*
X4113580Y4256481D01*
X4105757Y4246473D01*
X4099407Y4235500D01*
X4094683Y4223766D01*
X4091635Y4211421D01*
X4090263Y4198823D01*
X4090720Y4186174D01*
X4092956Y4173677D01*
X4096867Y4161637D01*
X4102404Y4150207D01*
X4109516Y4139692D01*
X4118000Y4130294D01*
X4127703Y4122115D01*
X4138422Y4115409D01*
X4150055Y4110278D01*
X4162196Y4106773D01*
G37*
G36*
X1674774Y4104995D02*
G01*
X1687474Y4104995D01*
X1700022Y4106773D01*
X1712214Y4110278D01*
X1723796Y4115409D01*
X1734515Y4122115D01*
X1744268Y4130294D01*
X1752752Y4139692D01*
X1759813Y4150207D01*
X1765401Y4161637D01*
X1769313Y4173677D01*
X1771497Y4186174D01*
X1771954Y4198823D01*
X1770634Y4211421D01*
X1767535Y4223766D01*
X1762810Y4235500D01*
X1756460Y4246473D01*
X1748637Y4256481D01*
X1739544Y4265269D01*
X1729282Y4272737D01*
X1718106Y4278680D01*
X1706168Y4282998D01*
X1693773Y4285640D01*
X1681124Y4286554D01*
X1668475Y4285640D01*
X1656080Y4282998D01*
X1644142Y4278680D01*
X1632966Y4272737D01*
X1622704Y4265269D01*
X1613560Y4256481D01*
X1605788Y4246473D01*
X1599438Y4235500D01*
X1594662Y4223766D01*
X1591614Y4211421D01*
X1590294Y4198823D01*
X1590751Y4186174D01*
X1592935Y4173677D01*
X1596847Y4161637D01*
X1602435Y4150207D01*
X1609496Y4139692D01*
X1617980Y4130294D01*
X1627682Y4122115D01*
X1638452Y4115409D01*
X1650034Y4110278D01*
X1662226Y4106773D01*
G37*
G36*
X1174800Y4104995D02*
G01*
X1187450Y4104995D01*
X1199997Y4106773D01*
X1212189Y4110278D01*
X1223772Y4115409D01*
X1234541Y4122115D01*
X1244244Y4130294D01*
X1252728Y4139692D01*
X1259840Y4150207D01*
X1265377Y4161637D01*
X1269288Y4173677D01*
X1271524Y4186174D01*
X1271930Y4198823D01*
X1270609Y4211421D01*
X1267561Y4223766D01*
X1262786Y4235500D01*
X1256487Y4246473D01*
X1248664Y4256481D01*
X1239520Y4265269D01*
X1229258Y4272737D01*
X1218082Y4278680D01*
X1206195Y4282998D01*
X1193749Y4285640D01*
X1181100Y4286554D01*
X1168450Y4285640D01*
X1156055Y4282998D01*
X1144168Y4278680D01*
X1132941Y4272737D01*
X1122680Y4265269D01*
X1113586Y4256481D01*
X1105763Y4246473D01*
X1099413Y4235500D01*
X1094689Y4223766D01*
X1091641Y4211421D01*
X1090269Y4198823D01*
X1090726Y4186174D01*
X1092962Y4173677D01*
X1096873Y4161637D01*
X1102410Y4150207D01*
X1109522Y4139692D01*
X1118006Y4130294D01*
X1127709Y4122115D01*
X1138478Y4115409D01*
X1150061Y4110278D01*
X1162202Y4106773D01*
G37*
G36*
X1174800Y4354982D02*
G01*
X1187450Y4354982D01*
X1199997Y4356760D01*
X1212189Y4360265D01*
X1223772Y4365396D01*
X1234541Y4372152D01*
X1244244Y4380280D01*
X1252728Y4389729D01*
X1262634Y4404410D01*
X1265834Y4406392D01*
X1269542Y4407103D01*
X1592681Y4407103D01*
X1596390Y4406392D01*
X1599590Y4404410D01*
X1609496Y4389729D01*
X1617980Y4380280D01*
X1627682Y4372152D01*
X1638452Y4365396D01*
X1650034Y4360265D01*
X1662226Y4356760D01*
X1674774Y4354982D01*
X1687474Y4354982D01*
X1700022Y4356760D01*
X1712214Y4360265D01*
X1723796Y4365396D01*
X1734515Y4372152D01*
X1744268Y4380280D01*
X1752752Y4389729D01*
X1762658Y4404410D01*
X1765858Y4406392D01*
X1769516Y4407103D01*
X2092706Y4407103D01*
X2096414Y4406392D01*
X2099564Y4404410D01*
X2109520Y4389729D01*
X2118004Y4380280D01*
X2127707Y4372152D01*
X2138476Y4365396D01*
X2150059Y4360265D01*
X2162200Y4356760D01*
X2174798Y4354982D01*
X2187448Y4354982D01*
X2199995Y4356760D01*
X2212187Y4360265D01*
X2223770Y4365396D01*
X2234539Y4372152D01*
X2244242Y4380280D01*
X2252726Y4389729D01*
X2262632Y4404410D01*
X2265832Y4406392D01*
X2269540Y4407103D01*
X2592679Y4407103D01*
X2596388Y4406392D01*
X2599588Y4404410D01*
X2609494Y4389729D01*
X2617978Y4380280D01*
X2627680Y4372152D01*
X2638450Y4365396D01*
X2650032Y4360265D01*
X2662224Y4356760D01*
X2674772Y4354982D01*
X2687472Y4354982D01*
X2700020Y4356760D01*
X2712212Y4360265D01*
X2723794Y4365396D01*
X2734513Y4372152D01*
X2744266Y4380280D01*
X2752750Y4389729D01*
X2762656Y4404410D01*
X2765856Y4406392D01*
X2769514Y4407103D01*
X3092704Y4407103D01*
X3096412Y4406392D01*
X3099562Y4404410D01*
X3109518Y4389729D01*
X3118002Y4380280D01*
X3127705Y4372152D01*
X3138424Y4365396D01*
X3150057Y4360265D01*
X3162198Y4356760D01*
X3174796Y4354982D01*
X3187446Y4354982D01*
X3199993Y4356760D01*
X3212185Y4360265D01*
X3223768Y4365396D01*
X3234537Y4372152D01*
X3244240Y4380280D01*
X3252724Y4389729D01*
X3262629Y4404410D01*
X3265830Y4406392D01*
X3269538Y4407103D01*
X3592677Y4407103D01*
X3596386Y4406392D01*
X3599586Y4404410D01*
X3609492Y4389729D01*
X3617976Y4380280D01*
X3627678Y4372152D01*
X3638448Y4365396D01*
X3650030Y4360265D01*
X3662222Y4356760D01*
X3674770Y4354982D01*
X3687470Y4354982D01*
X3700018Y4356760D01*
X3712210Y4360265D01*
X3723792Y4365396D01*
X3734511Y4372152D01*
X3744264Y4380280D01*
X3752748Y4389729D01*
X3762654Y4404410D01*
X3765854Y4406392D01*
X3769512Y4407103D01*
X4092701Y4407103D01*
X4096410Y4406392D01*
X4099560Y4404410D01*
X4109516Y4389729D01*
X4118000Y4380280D01*
X4127703Y4372152D01*
X4138422Y4365396D01*
X4150055Y4360265D01*
X4162196Y4356760D01*
X4174794Y4354982D01*
X4187444Y4354982D01*
X4199991Y4356760D01*
X4212183Y4360265D01*
X4223766Y4365396D01*
X4234535Y4372152D01*
X4244238Y4380280D01*
X4252722Y4389729D01*
X4262628Y4404410D01*
X4265828Y4406392D01*
X4269536Y4407103D01*
X4592675Y4407103D01*
X4596384Y4406392D01*
X4599584Y4404410D01*
X4609490Y4389729D01*
X4617974Y4380280D01*
X4627676Y4372152D01*
X4638446Y4365396D01*
X4650028Y4360265D01*
X4662220Y4356760D01*
X4674768Y4354982D01*
X4687468Y4354982D01*
X4700016Y4356760D01*
X4712208Y4360265D01*
X4723790Y4365396D01*
X4734509Y4372152D01*
X4744262Y4380280D01*
X4752746Y4389729D01*
X4760061Y4400702D01*
X4762296Y4403699D01*
X4765497Y4405680D01*
X4769205Y4406392D01*
X4857191Y4406392D01*
X4861102Y4405630D01*
X4864404Y4403394D01*
X4865979Y4401820D01*
X4874006Y4396181D01*
X4882946Y4392066D01*
X4892395Y4389526D01*
X4902200Y4388662D01*
X4912004Y4389526D01*
X4921453Y4392066D01*
X4930394Y4396181D01*
X4938420Y4401820D01*
X4945380Y4408779D01*
X4951018Y4416806D01*
X4955133Y4425746D01*
X4957673Y4435195D01*
X4958537Y4445000D01*
X4957673Y4454804D01*
X4955133Y4464253D01*
X4951018Y4473194D01*
X4945380Y4481220D01*
X4938420Y4488180D01*
X4930394Y4493818D01*
X4921453Y4497933D01*
X4912004Y4500473D01*
X4902200Y4501337D01*
X4892395Y4500473D01*
X4882946Y4497933D01*
X4874006Y4493818D01*
X4865979Y4488180D01*
X4864404Y4486605D01*
X4861102Y4484370D01*
X4857191Y4483608D01*
X4769764Y4483608D01*
X4766259Y4484217D01*
X4763211Y4485995D01*
X4760976Y4488688D01*
X4756454Y4496460D01*
X4748631Y4506468D01*
X4739538Y4515256D01*
X4729276Y4522724D01*
X4718100Y4528667D01*
X4706162Y4533036D01*
X4693767Y4535678D01*
X4681118Y4536541D01*
X4668469Y4535678D01*
X4656074Y4533036D01*
X4644136Y4528667D01*
X4632960Y4522724D01*
X4622698Y4515256D01*
X4613554Y4506468D01*
X4605782Y4496460D01*
X4601667Y4489399D01*
X4599432Y4486706D01*
X4596333Y4484928D01*
X4592878Y4484319D01*
X4269333Y4484319D01*
X4265879Y4484928D01*
X4262831Y4486706D01*
X4260545Y4489399D01*
X4256481Y4496460D01*
X4248658Y4506468D01*
X4239514Y4515256D01*
X4229252Y4522724D01*
X4218076Y4528667D01*
X4206189Y4533036D01*
X4193743Y4535678D01*
X4181094Y4536541D01*
X4168444Y4535678D01*
X4156049Y4533036D01*
X4144162Y4528667D01*
X4132935Y4522724D01*
X4122674Y4515256D01*
X4113580Y4506468D01*
X4105757Y4496460D01*
X4101693Y4489399D01*
X4099407Y4486706D01*
X4096359Y4484928D01*
X4092905Y4484319D01*
X3769360Y4484319D01*
X3765854Y4484928D01*
X3762806Y4486706D01*
X3760571Y4489399D01*
X3756456Y4496460D01*
X3748633Y4506468D01*
X3739540Y4515256D01*
X3729278Y4522724D01*
X3718102Y4528667D01*
X3706164Y4533036D01*
X3693769Y4535678D01*
X3681120Y4536541D01*
X3668471Y4535678D01*
X3656076Y4533036D01*
X3644137Y4528667D01*
X3632962Y4522724D01*
X3622700Y4515256D01*
X3613556Y4506468D01*
X3605784Y4496460D01*
X3601669Y4489399D01*
X3599434Y4486706D01*
X3596335Y4484928D01*
X3592880Y4484319D01*
X3269335Y4484319D01*
X3265881Y4484928D01*
X3262833Y4486706D01*
X3260547Y4489399D01*
X3256483Y4496460D01*
X3248660Y4506468D01*
X3239516Y4515256D01*
X3229254Y4522724D01*
X3218078Y4528667D01*
X3206191Y4533036D01*
X3193745Y4535678D01*
X3181096Y4536541D01*
X3168446Y4535678D01*
X3156051Y4533036D01*
X3144164Y4528667D01*
X3132937Y4522724D01*
X3122676Y4515256D01*
X3113582Y4506468D01*
X3105759Y4496460D01*
X3101695Y4489399D01*
X3099409Y4486706D01*
X3096361Y4484928D01*
X3092907Y4484319D01*
X2769362Y4484319D01*
X2765856Y4484928D01*
X2762808Y4486706D01*
X2760573Y4489399D01*
X2756458Y4496460D01*
X2748635Y4506468D01*
X2739542Y4515256D01*
X2729280Y4522724D01*
X2718104Y4528667D01*
X2706166Y4533036D01*
X2693771Y4535678D01*
X2681122Y4536541D01*
X2668473Y4535678D01*
X2656078Y4533036D01*
X2644140Y4528667D01*
X2632964Y4522724D01*
X2622702Y4515256D01*
X2613558Y4506468D01*
X2605786Y4496460D01*
X2601671Y4489399D01*
X2599436Y4486706D01*
X2596337Y4484928D01*
X2592882Y4484319D01*
X2269337Y4484319D01*
X2265883Y4484928D01*
X2262835Y4486706D01*
X2260549Y4489399D01*
X2256485Y4496460D01*
X2248662Y4506468D01*
X2239518Y4515256D01*
X2229256Y4522724D01*
X2218080Y4528667D01*
X2206193Y4533036D01*
X2193747Y4535678D01*
X2181098Y4536541D01*
X2168448Y4535678D01*
X2156053Y4533036D01*
X2144166Y4528667D01*
X2132939Y4522724D01*
X2122678Y4515256D01*
X2113584Y4506468D01*
X2105761Y4496460D01*
X2101697Y4489399D01*
X2099411Y4486706D01*
X2096363Y4484928D01*
X2092909Y4484319D01*
X1769364Y4484319D01*
X1765858Y4484928D01*
X1762810Y4486706D01*
X1760575Y4489399D01*
X1756460Y4496460D01*
X1748637Y4506468D01*
X1739544Y4515256D01*
X1729282Y4522724D01*
X1718106Y4528667D01*
X1706168Y4533036D01*
X1693773Y4535678D01*
X1681124Y4536541D01*
X1668475Y4535678D01*
X1656080Y4533036D01*
X1644142Y4528667D01*
X1632966Y4522724D01*
X1622704Y4515256D01*
X1613560Y4506468D01*
X1605788Y4496460D01*
X1601673Y4489399D01*
X1599438Y4486706D01*
X1596339Y4484928D01*
X1592884Y4484319D01*
X1269339Y4484319D01*
X1265885Y4484928D01*
X1262837Y4486706D01*
X1260551Y4489399D01*
X1256487Y4496460D01*
X1248664Y4506468D01*
X1239520Y4515256D01*
X1229258Y4522724D01*
X1218082Y4528667D01*
X1206195Y4533036D01*
X1193749Y4535678D01*
X1181100Y4536541D01*
X1168450Y4535678D01*
X1156055Y4533036D01*
X1144168Y4528667D01*
X1132941Y4522724D01*
X1122680Y4515256D01*
X1113586Y4506468D01*
X1105763Y4496460D01*
X1099413Y4485487D01*
X1094689Y4473752D01*
X1091641Y4461459D01*
X1090269Y4448810D01*
X1090726Y4436160D01*
X1092962Y4423664D01*
X1096873Y4411624D01*
X1102410Y4400194D01*
X1109522Y4389729D01*
X1118006Y4380280D01*
X1127709Y4372152D01*
X1138478Y4365396D01*
X1150061Y4360265D01*
X1162202Y4356760D01*
G37*
G36*
X3076905Y5181092D02*
G01*
X3583787Y5181092D01*
X3590086Y5181803D01*
X3595573Y5183682D01*
X3600450Y5186781D01*
X3604564Y5190896D01*
X3607612Y5195773D01*
X3609543Y5201208D01*
X3610254Y5207558D01*
X3610254Y5714441D01*
X3609543Y5720740D01*
X3607358Y5726938D01*
X3606800Y5730341D01*
X3606800Y5739384D01*
X3605784Y5740400D01*
X3587648Y5740450D01*
X3583787Y5740908D01*
X3076803Y5740908D01*
X3071774Y5740450D01*
X3067608Y5740908D01*
X3064002Y5743041D01*
X3061563Y5746445D01*
X3060700Y5750560D01*
X3060700Y5739841D01*
X3059938Y5735980D01*
X3057702Y5732678D01*
X3056128Y5731103D01*
X3053080Y5726226D01*
X3051149Y5720740D01*
X3050438Y5714441D01*
X3050438Y5207558D01*
X3051149Y5201208D01*
X3053080Y5195773D01*
X3056128Y5190896D01*
X3060242Y5186781D01*
X3065119Y5183682D01*
X3070606Y5181803D01*
G37*
G36*
X5473700Y5185562D02*
G01*
X5478322Y5185664D01*
X5501284Y5188051D01*
X5523992Y5192369D01*
X5546242Y5198618D01*
X5567934Y5206644D01*
X5588812Y5216499D01*
X5608828Y5228031D01*
X5627827Y5241239D01*
X5645607Y5255971D01*
X5662117Y5272125D01*
X5677204Y5289600D01*
X5690819Y5308295D01*
X5702757Y5328107D01*
X5713018Y5348782D01*
X5721553Y5370271D01*
X5728208Y5392369D01*
X5733034Y5414975D01*
X5735929Y5437936D01*
X5736336Y5448300D01*
X5473700Y5448300D01*
G37*
G36*
X393700Y5185562D02*
G01*
X398322Y5185664D01*
X421284Y5188051D01*
X443992Y5192369D01*
X466242Y5198618D01*
X487934Y5206644D01*
X508812Y5216499D01*
X528828Y5228031D01*
X547827Y5241239D01*
X565607Y5255971D01*
X582117Y5272125D01*
X597204Y5289600D01*
X610819Y5308295D01*
X622757Y5328107D01*
X633018Y5348782D01*
X641553Y5370271D01*
X648208Y5392369D01*
X653034Y5414975D01*
X655929Y5437936D01*
X656336Y5448300D01*
X393700Y5448300D01*
G37*
G36*
X5448300Y5185613D02*
G01*
X5448300Y5448300D01*
X5185410Y5448300D01*
X5187289Y5426405D01*
X5191150Y5403646D01*
X5196890Y5381244D01*
X5204460Y5359450D01*
X5213858Y5338318D01*
X5224983Y5318099D01*
X5237784Y5298846D01*
X5252161Y5280710D01*
X5267960Y5263896D01*
X5285130Y5248402D01*
X5303520Y5234432D01*
X5323027Y5222087D01*
X5343499Y5211368D01*
X5364835Y5202428D01*
X5386781Y5195265D01*
X5409285Y5189982D01*
X5432145Y5186629D01*
G37*
G36*
X368300Y5185613D02*
G01*
X368300Y5448300D01*
X105410Y5448300D01*
X107289Y5426405D01*
X111150Y5403646D01*
X116890Y5381244D01*
X124460Y5359450D01*
X133858Y5338318D01*
X144983Y5318099D01*
X157784Y5298846D01*
X172161Y5280710D01*
X187960Y5263896D01*
X205130Y5248402D01*
X223520Y5234432D01*
X243027Y5222087D01*
X263499Y5211368D01*
X284835Y5202428D01*
X306781Y5195265D01*
X329285Y5189982D01*
X352145Y5186629D01*
G37*
G36*
X4818735Y5218328D02*
G01*
X4833264Y5218328D01*
X4847691Y5220157D01*
X4861814Y5223764D01*
X4875326Y5229148D01*
X4888077Y5236159D01*
X4899863Y5244693D01*
X4910480Y5254650D01*
X4919776Y5265877D01*
X4927549Y5278170D01*
X4933746Y5291328D01*
X4938268Y5305196D01*
X4940960Y5319471D01*
X4941874Y5334000D01*
X4940960Y5348528D01*
X4938268Y5362803D01*
X4933746Y5376672D01*
X4927549Y5389829D01*
X4919776Y5402122D01*
X4910480Y5413349D01*
X4899863Y5423306D01*
X4888077Y5431840D01*
X4875326Y5438851D01*
X4861814Y5444236D01*
X4847691Y5447842D01*
X4833264Y5449671D01*
X4818735Y5449671D01*
X4804308Y5447842D01*
X4790186Y5444236D01*
X4776673Y5438851D01*
X4763922Y5431840D01*
X4752136Y5423306D01*
X4741519Y5413349D01*
X4732223Y5402122D01*
X4724450Y5389829D01*
X4718253Y5376672D01*
X4713732Y5362803D01*
X4711039Y5348528D01*
X4710125Y5334000D01*
X4711039Y5319471D01*
X4713732Y5305196D01*
X4718253Y5291328D01*
X4724450Y5278170D01*
X4732223Y5265877D01*
X4741519Y5254650D01*
X4752136Y5244693D01*
X4763922Y5236159D01*
X4776673Y5229148D01*
X4790186Y5223764D01*
X4804308Y5220157D01*
G37*
G36*
X4559300Y5219039D02*
G01*
X4559300Y5321300D01*
X4456887Y5321300D01*
X4457039Y5319471D01*
X4459732Y5305196D01*
X4464253Y5291328D01*
X4470450Y5278170D01*
X4478223Y5265877D01*
X4487519Y5254650D01*
X4498136Y5244693D01*
X4509922Y5236159D01*
X4522673Y5229148D01*
X4536186Y5223764D01*
X4550308Y5220157D01*
G37*
G36*
X4584700Y5219039D02*
G01*
X4593691Y5220157D01*
X4607814Y5223764D01*
X4621326Y5229148D01*
X4634077Y5236159D01*
X4645863Y5244693D01*
X4656480Y5254650D01*
X4665776Y5265877D01*
X4673549Y5278170D01*
X4679746Y5291328D01*
X4684268Y5305196D01*
X4686960Y5319471D01*
X4687112Y5321300D01*
X4584700Y5321300D01*
G37*
G36*
X4456887Y5346700D02*
G01*
X4559300Y5346700D01*
X4559300Y5448960D01*
X4550308Y5447842D01*
X4536186Y5444236D01*
X4522673Y5438851D01*
X4509922Y5431840D01*
X4498136Y5423306D01*
X4487519Y5413349D01*
X4478223Y5402122D01*
X4470450Y5389829D01*
X4464253Y5376672D01*
X4459732Y5362803D01*
X4457039Y5348528D01*
G37*
G36*
X4584700Y5346700D02*
G01*
X4687112Y5346700D01*
X4686960Y5348528D01*
X4684268Y5362803D01*
X4679746Y5376672D01*
X4673549Y5389829D01*
X4665776Y5402122D01*
X4656480Y5413349D01*
X4645863Y5423306D01*
X4634077Y5431840D01*
X4621326Y5438851D01*
X4607814Y5444236D01*
X4593691Y5447842D01*
X4584700Y5448960D01*
G37*
G36*
X4818735Y5472328D02*
G01*
X4833264Y5472328D01*
X4847691Y5474157D01*
X4861814Y5477764D01*
X4875326Y5483148D01*
X4888077Y5490159D01*
X4899863Y5498693D01*
X4910480Y5508650D01*
X4919776Y5519877D01*
X4927701Y5532374D01*
X4929936Y5534914D01*
X4932934Y5536539D01*
X4936286Y5537098D01*
X5054092Y5537098D01*
X5058410Y5536133D01*
X5060746Y5535066D01*
X5070195Y5532526D01*
X5080000Y5531662D01*
X5089804Y5532526D01*
X5099253Y5535066D01*
X5108194Y5539181D01*
X5116220Y5544820D01*
X5123180Y5551779D01*
X5128818Y5559806D01*
X5132933Y5568746D01*
X5135473Y5578195D01*
X5136337Y5588000D01*
X5135473Y5597804D01*
X5132933Y5607253D01*
X5128818Y5616194D01*
X5123180Y5624220D01*
X5116220Y5631180D01*
X5108194Y5636818D01*
X5099253Y5640933D01*
X5089804Y5643473D01*
X5080000Y5644337D01*
X5070195Y5643473D01*
X5060746Y5640933D01*
X5058410Y5639866D01*
X5054092Y5638901D01*
X4936286Y5638901D01*
X4932934Y5639460D01*
X4929936Y5641086D01*
X4927701Y5643626D01*
X4919776Y5656122D01*
X4910480Y5667349D01*
X4899863Y5677306D01*
X4888077Y5685840D01*
X4880762Y5689854D01*
X4877816Y5692292D01*
X4875987Y5695645D01*
X4875530Y5699404D01*
X4876444Y5703062D01*
X4878933Y5708446D01*
X4881473Y5717895D01*
X4882337Y5727700D01*
X4881473Y5737504D01*
X4878933Y5746953D01*
X4874818Y5755894D01*
X4869180Y5763920D01*
X4862220Y5770880D01*
X4854194Y5776518D01*
X4845253Y5780633D01*
X4835804Y5783173D01*
X4826000Y5784037D01*
X4816195Y5783173D01*
X4806746Y5780633D01*
X4804410Y5779566D01*
X4800092Y5778601D01*
X4385513Y5778601D01*
X4380890Y5778398D01*
X4376470Y5777839D01*
X4372152Y5776874D01*
X4367885Y5775553D01*
X4363821Y5773826D01*
X4359859Y5771794D01*
X4356100Y5769406D01*
X4352594Y5766714D01*
X4349140Y5763564D01*
X4309211Y5723585D01*
X4305909Y5721400D01*
X4301998Y5720588D01*
X4264660Y5720588D01*
X4258360Y5719876D01*
X4252874Y5717997D01*
X4247997Y5714898D01*
X4243882Y5710834D01*
X4240834Y5705906D01*
X4238701Y5699861D01*
X4236567Y5696305D01*
X4233164Y5693867D01*
X4229100Y5693054D01*
X4225036Y5693867D01*
X4221632Y5696305D01*
X4219498Y5699861D01*
X4217365Y5705906D01*
X4214317Y5710834D01*
X4210202Y5714898D01*
X4205325Y5717997D01*
X4199839Y5719876D01*
X4193540Y5720588D01*
X4114037Y5720588D01*
X4107687Y5719876D01*
X4102252Y5717997D01*
X4097324Y5714898D01*
X4093260Y5710834D01*
X4090162Y5705906D01*
X4088231Y5700471D01*
X4087063Y5695594D01*
X4084777Y5692698D01*
X4081627Y5690768D01*
X4078020Y5690108D01*
X4033469Y5690108D01*
X4029456Y5690971D01*
X4026052Y5693359D01*
X4023918Y5696915D01*
X4021886Y5702706D01*
X4018787Y5707634D01*
X4014724Y5711698D01*
X4009796Y5714796D01*
X4004360Y5716676D01*
X3998010Y5717387D01*
X3919169Y5717387D01*
X3912819Y5716676D01*
X3907383Y5714796D01*
X3902456Y5711698D01*
X3898392Y5707634D01*
X3895293Y5702706D01*
X3893413Y5697270D01*
X3892702Y5690920D01*
X3892702Y5612079D01*
X3893413Y5605729D01*
X3895293Y5600293D01*
X3898392Y5595366D01*
X3902456Y5591302D01*
X3907383Y5588203D01*
X3912819Y5586323D01*
X3919169Y5585612D01*
X3998010Y5585612D01*
X4004360Y5586323D01*
X4009796Y5588203D01*
X4014724Y5591302D01*
X4018787Y5595366D01*
X4021886Y5600293D01*
X4023918Y5606084D01*
X4026052Y5609640D01*
X4029456Y5612028D01*
X4033469Y5612892D01*
X4078020Y5612892D01*
X4081627Y5612231D01*
X4084777Y5610301D01*
X4087063Y5607405D01*
X4088231Y5602528D01*
X4090162Y5597093D01*
X4093260Y5592165D01*
X4097324Y5588101D01*
X4102252Y5585002D01*
X4107687Y5583123D01*
X4114037Y5582412D01*
X4193540Y5582412D01*
X4199839Y5583123D01*
X4205325Y5585002D01*
X4210202Y5588101D01*
X4214317Y5592165D01*
X4217365Y5597093D01*
X4219498Y5603138D01*
X4221632Y5606694D01*
X4225036Y5609132D01*
X4229100Y5609945D01*
X4233164Y5609132D01*
X4236567Y5606694D01*
X4238701Y5603138D01*
X4240834Y5597093D01*
X4243882Y5592165D01*
X4247997Y5588101D01*
X4252874Y5585002D01*
X4258360Y5583123D01*
X4264660Y5582412D01*
X4344162Y5582412D01*
X4350512Y5583123D01*
X4355947Y5585002D01*
X4360875Y5588101D01*
X4364939Y5592165D01*
X4368038Y5597093D01*
X4369968Y5602528D01*
X4370679Y5608878D01*
X4370679Y5636869D01*
X4371441Y5640730D01*
X4373626Y5644032D01*
X4403394Y5673801D01*
X4406696Y5676036D01*
X4410608Y5676798D01*
X4473752Y5676798D01*
X4477512Y5676087D01*
X4480712Y5674055D01*
X4482947Y5670956D01*
X4483912Y5667248D01*
X4483404Y5663488D01*
X4481576Y5660136D01*
X4478223Y5656122D01*
X4470450Y5643829D01*
X4464253Y5630672D01*
X4459732Y5616803D01*
X4457039Y5602528D01*
X4456887Y5600700D01*
X4559300Y5600700D01*
X4559300Y5666638D01*
X4560062Y5670499D01*
X4562297Y5673801D01*
X4565548Y5676036D01*
X4569460Y5676798D01*
X4574540Y5676798D01*
X4578451Y5676036D01*
X4581702Y5673801D01*
X4583938Y5670499D01*
X4584700Y5666638D01*
X4584700Y5600700D01*
X4687112Y5600700D01*
X4686960Y5602528D01*
X4684268Y5616803D01*
X4679746Y5630672D01*
X4673549Y5643829D01*
X4665776Y5656122D01*
X4662424Y5660136D01*
X4660595Y5663488D01*
X4660087Y5667248D01*
X4661052Y5670956D01*
X4663287Y5674055D01*
X4666488Y5676087D01*
X4670247Y5676798D01*
X4727752Y5676798D01*
X4731512Y5676087D01*
X4734712Y5674055D01*
X4736947Y5670956D01*
X4737912Y5667248D01*
X4737404Y5663488D01*
X4735576Y5660136D01*
X4732223Y5656122D01*
X4724450Y5643829D01*
X4718253Y5630672D01*
X4713732Y5616803D01*
X4711039Y5602528D01*
X4710125Y5588000D01*
X4711039Y5573471D01*
X4713732Y5559196D01*
X4718253Y5545328D01*
X4724450Y5532170D01*
X4732223Y5519877D01*
X4741519Y5508650D01*
X4752136Y5498693D01*
X4763922Y5490159D01*
X4776673Y5483148D01*
X4790186Y5477764D01*
X4804308Y5474157D01*
G37*
G36*
X4584700Y5473039D02*
G01*
X4593691Y5474157D01*
X4607814Y5477764D01*
X4621326Y5483148D01*
X4634077Y5490159D01*
X4645863Y5498693D01*
X4656480Y5508650D01*
X4665776Y5519877D01*
X4673549Y5532170D01*
X4679746Y5545328D01*
X4684268Y5559196D01*
X4686960Y5573471D01*
X4687112Y5575300D01*
X4584700Y5575300D01*
G37*
G36*
X4559300Y5473039D02*
G01*
X4559300Y5575300D01*
X4456887Y5575300D01*
X4457039Y5573471D01*
X4459732Y5559196D01*
X4464253Y5545328D01*
X4470450Y5532170D01*
X4478223Y5519877D01*
X4487519Y5508650D01*
X4498136Y5498693D01*
X4509922Y5490159D01*
X4522673Y5483148D01*
X4536186Y5477764D01*
X4550308Y5474157D01*
G37*
G36*
X5473700Y5473700D02*
G01*
X5736336Y5473700D01*
X5735929Y5484063D01*
X5733034Y5507024D01*
X5728208Y5529630D01*
X5721553Y5551728D01*
X5713018Y5573217D01*
X5702757Y5593892D01*
X5690819Y5613704D01*
X5677204Y5632348D01*
X5662117Y5649874D01*
X5645607Y5666028D01*
X5627827Y5680760D01*
X5608828Y5693968D01*
X5588812Y5705500D01*
X5567934Y5715355D01*
X5546242Y5723382D01*
X5523992Y5729630D01*
X5501284Y5733948D01*
X5478322Y5736336D01*
X5473700Y5736437D01*
G37*
G36*
X393700Y5473700D02*
G01*
X656336Y5473700D01*
X655929Y5484063D01*
X653034Y5507024D01*
X648208Y5529630D01*
X641553Y5551728D01*
X633018Y5573217D01*
X622757Y5593892D01*
X610819Y5613704D01*
X597204Y5632348D01*
X582117Y5649874D01*
X565607Y5666028D01*
X547827Y5680760D01*
X528828Y5693968D01*
X508812Y5705500D01*
X487934Y5715355D01*
X466242Y5723382D01*
X443992Y5729630D01*
X421284Y5733948D01*
X398322Y5736336D01*
X393700Y5736437D01*
G37*
G36*
X5185410Y5473700D02*
G01*
X5448300Y5473700D01*
X5448300Y5736386D01*
X5432145Y5735370D01*
X5409285Y5732018D01*
X5386781Y5726734D01*
X5364835Y5719572D01*
X5343499Y5710631D01*
X5323027Y5699912D01*
X5303520Y5687568D01*
X5285130Y5673598D01*
X5267960Y5658104D01*
X5252161Y5641289D01*
X5237784Y5623153D01*
X5224983Y5603900D01*
X5213858Y5583682D01*
X5204460Y5562549D01*
X5196890Y5540756D01*
X5191150Y5518353D01*
X5187289Y5495594D01*
G37*
G36*
X105410Y5473700D02*
G01*
X368300Y5473700D01*
X368300Y5736386D01*
X352145Y5735370D01*
X329285Y5732018D01*
X306781Y5726734D01*
X284835Y5719572D01*
X263499Y5710631D01*
X243027Y5699912D01*
X223520Y5687568D01*
X205130Y5673598D01*
X187960Y5658104D01*
X172161Y5641289D01*
X157784Y5623153D01*
X144983Y5603900D01*
X133858Y5583682D01*
X124460Y5562549D01*
X116890Y5540756D01*
X111150Y5518353D01*
X107289Y5495594D01*
G37*
G36*
X2596438Y5583682D02*
G01*
X2626563Y5583682D01*
X2632862Y5584393D01*
X2641142Y5587593D01*
X2643936Y5588000D01*
X2970784Y5588000D01*
X2971800Y5589016D01*
X2971800Y5713984D01*
X2970784Y5715000D01*
X2639822Y5715000D01*
X2636469Y5715558D01*
X2632862Y5716828D01*
X2626563Y5717540D01*
X2596438Y5717540D01*
X2590139Y5716828D01*
X2586532Y5715558D01*
X2583180Y5715000D01*
X2575560Y5715000D01*
X2571648Y5715762D01*
X2568346Y5717997D01*
X2566162Y5721248D01*
X2565400Y5725160D01*
X2565400Y5589016D01*
X2566416Y5588000D01*
X2579065Y5588000D01*
X2581859Y5587593D01*
X2584653Y5586323D01*
X2590139Y5584393D01*
G37*
G36*
X3801110Y5585612D02*
G01*
X3827830Y5585612D01*
X3834180Y5586323D01*
X3839616Y5588203D01*
X3844544Y5591302D01*
X3848608Y5595366D01*
X3851706Y5600293D01*
X3853586Y5605729D01*
X3854297Y5612079D01*
X3854297Y5638800D01*
X3801110Y5638800D01*
G37*
G36*
X3748989Y5585612D02*
G01*
X3775710Y5585612D01*
X3775710Y5638800D01*
X3722522Y5638800D01*
X3722522Y5612079D01*
X3723233Y5605729D01*
X3725113Y5600293D01*
X3728212Y5595366D01*
X3732276Y5591302D01*
X3737203Y5588203D01*
X3742639Y5586323D01*
G37*
G36*
X3722522Y5664200D02*
G01*
X3775710Y5664200D01*
X3775710Y5717387D01*
X3748989Y5717387D01*
X3742639Y5716676D01*
X3737203Y5714796D01*
X3732276Y5711698D01*
X3728212Y5707634D01*
X3725113Y5702706D01*
X3723233Y5697270D01*
X3722522Y5690920D01*
G37*
G36*
X2174798Y4104995D02*
G01*
X2187448Y4104995D01*
X2199995Y4106773D01*
X2212187Y4110278D01*
X2223770Y4115409D01*
X2234539Y4122115D01*
X2244242Y4130294D01*
X2252726Y4139692D01*
X2259838Y4150207D01*
X2265375Y4161637D01*
X2269286Y4173677D01*
X2271522Y4186174D01*
X2271928Y4198823D01*
X2270607Y4211421D01*
X2267559Y4223766D01*
X2262784Y4235500D01*
X2256485Y4246473D01*
X2248662Y4256481D01*
X2239518Y4265269D01*
X2229256Y4272737D01*
X2218080Y4278680D01*
X2206193Y4282998D01*
X2193747Y4285640D01*
X2181098Y4286554D01*
X2168448Y4285640D01*
X2156053Y4282998D01*
X2144166Y4278680D01*
X2132939Y4272737D01*
X2122678Y4265269D01*
X2113584Y4256481D01*
X2105761Y4246473D01*
X2099411Y4235500D01*
X2094687Y4223766D01*
X2091639Y4211421D01*
X2090267Y4198823D01*
X2090724Y4186174D01*
X2092960Y4173677D01*
X2096871Y4161637D01*
X2102408Y4150207D01*
X2109520Y4139692D01*
X2118004Y4130294D01*
X2127707Y4122115D01*
X2138476Y4115409D01*
X2150059Y4110278D01*
X2162200Y4106773D01*
G37*

%LPD*%
G36*
X3251200Y5715000D02*
G01*
X3251200Y5680151D01*
X3267760Y5680151D01*
X3267760Y5715000D01*
G37*
G36*
X3286150Y5715000D02*
G01*
X3286150Y5696661D01*
X3302762Y5696661D01*
X3302762Y5680151D01*
X3339541Y5680151D01*
X3339541Y5663641D01*
X3321151Y5663641D01*
X3321151Y5680151D01*
X3286150Y5680151D01*
X3286150Y5645302D01*
X3302762Y5645302D01*
X3302762Y5663641D01*
X3321151Y5663641D01*
X3321151Y5645302D01*
X3339541Y5645302D01*
X3339541Y5610453D01*
X3356101Y5610453D01*
X3356101Y5575604D01*
X3339541Y5575604D01*
X3339541Y5610453D01*
X3321151Y5610453D01*
X3321151Y5575604D01*
X3339541Y5575604D01*
X3339541Y5557266D01*
X3286150Y5557266D01*
X3286150Y5592114D01*
X3302762Y5592114D01*
X3302762Y5626963D01*
X3267760Y5626963D01*
X3267760Y5610453D01*
X3286150Y5610453D01*
X3286150Y5592114D01*
X3267760Y5592114D01*
X3267760Y5610453D01*
X3251200Y5610453D01*
X3251200Y5645302D01*
X3267760Y5645302D01*
X3267760Y5663641D01*
X3216249Y5663641D01*
X3216249Y5645302D01*
X3234639Y5645302D01*
X3234639Y5626963D01*
X3216249Y5626963D01*
X3216249Y5610453D01*
X3251200Y5610453D01*
X3251200Y5592114D01*
X3234639Y5592114D01*
X3234639Y5610453D01*
X3216249Y5610453D01*
X3216249Y5592114D01*
X3234639Y5592114D01*
X3234639Y5575604D01*
X3181248Y5575604D01*
X3181248Y5557266D01*
X3197809Y5557266D01*
X3197809Y5540756D01*
X3181248Y5540756D01*
X3181248Y5522417D01*
X3144469Y5522417D01*
X3144469Y5540756D01*
X3127908Y5540756D01*
X3127908Y5557266D01*
X3162858Y5557266D01*
X3162858Y5575604D01*
X3076346Y5575604D01*
X3076346Y5557266D01*
X3109468Y5557266D01*
X3109468Y5540756D01*
X3092907Y5540756D01*
X3092907Y5522417D01*
X3144469Y5522417D01*
X3144469Y5505907D01*
X3181248Y5505907D01*
X3181248Y5522417D01*
X3197809Y5522417D01*
X3197809Y5540756D01*
X3234639Y5540756D01*
X3234639Y5557266D01*
X3251200Y5557266D01*
X3251200Y5575604D01*
X3267760Y5575604D01*
X3267760Y5557266D01*
X3286150Y5557266D01*
X3286150Y5540756D01*
X3302762Y5540756D01*
X3302762Y5522417D01*
X3286150Y5522417D01*
X3286150Y5487568D01*
X3302762Y5487568D01*
X3302762Y5505907D01*
X3321151Y5505907D01*
X3321151Y5522417D01*
X3339541Y5522417D01*
X3339541Y5540756D01*
X3374542Y5540756D01*
X3374542Y5575604D01*
X3391103Y5575604D01*
X3391103Y5557266D01*
X3409492Y5557266D01*
X3409492Y5575604D01*
X3426053Y5575604D01*
X3426053Y5557266D01*
X3409492Y5557266D01*
X3409492Y5522417D01*
X3391103Y5522417D01*
X3391103Y5540756D01*
X3374542Y5540756D01*
X3374542Y5522417D01*
X3356101Y5522417D01*
X3356101Y5505907D01*
X3321151Y5505907D01*
X3321151Y5487568D01*
X3339541Y5487568D01*
X3339541Y5452719D01*
X3356101Y5452719D01*
X3356101Y5469229D01*
X3374542Y5469229D01*
X3374542Y5487568D01*
X3409492Y5487568D01*
X3409492Y5505907D01*
X3426053Y5505907D01*
X3426053Y5469229D01*
X3461054Y5469229D01*
X3461054Y5487568D01*
X3514394Y5487568D01*
X3514394Y5452719D01*
X3461054Y5452719D01*
X3461054Y5434380D01*
X3479444Y5434380D01*
X3479444Y5399532D01*
X3514394Y5399532D01*
X3514394Y5383022D01*
X3549396Y5383022D01*
X3549396Y5364683D01*
X3514394Y5364683D01*
X3514394Y5383022D01*
X3426053Y5383022D01*
X3426053Y5399532D01*
X3444443Y5399532D01*
X3444443Y5452719D01*
X3426053Y5452719D01*
X3426053Y5469229D01*
X3374542Y5469229D01*
X3374542Y5452719D01*
X3356101Y5452719D01*
X3356101Y5434380D01*
X3374542Y5434380D01*
X3374542Y5416042D01*
X3391103Y5416042D01*
X3391103Y5434380D01*
X3426053Y5434380D01*
X3426053Y5416042D01*
X3409492Y5416042D01*
X3409492Y5364683D01*
X3426053Y5364683D01*
X3426053Y5346344D01*
X3549396Y5346344D01*
X3549396Y5329834D01*
X3514394Y5329834D01*
X3514394Y5346344D01*
X3497834Y5346344D01*
X3497834Y5293156D01*
X3444443Y5293156D01*
X3444443Y5346344D01*
X3409492Y5346344D01*
X3409492Y5364683D01*
X3391103Y5364683D01*
X3391103Y5329834D01*
X3409492Y5329834D01*
X3409492Y5311495D01*
X3426053Y5311495D01*
X3426053Y5276646D01*
X3479444Y5276646D01*
X3479444Y5260187D01*
X3461054Y5260187D01*
X3461054Y5276646D01*
X3426053Y5276646D01*
X3426053Y5260187D01*
X3444443Y5260187D01*
X3444443Y5241848D01*
X3426053Y5241848D01*
X3426053Y5225338D01*
X3409492Y5225338D01*
X3409492Y5241848D01*
X3391103Y5241848D01*
X3391103Y5260187D01*
X3374542Y5260187D01*
X3374542Y5276646D01*
X3356101Y5276646D01*
X3356101Y5293156D01*
X3374542Y5293156D01*
X3374542Y5311495D01*
X3391103Y5311495D01*
X3391103Y5329834D01*
X3374542Y5329834D01*
X3374542Y5383022D01*
X3356101Y5383022D01*
X3356101Y5364683D01*
X3321151Y5364683D01*
X3321151Y5383022D01*
X3339541Y5383022D01*
X3339541Y5416042D01*
X3286150Y5416042D01*
X3286150Y5452719D01*
X3302762Y5452719D01*
X3302762Y5469229D01*
X3251200Y5469229D01*
X3251200Y5487568D01*
X3267760Y5487568D01*
X3267760Y5505907D01*
X3234639Y5505907D01*
X3234639Y5522417D01*
X3216249Y5522417D01*
X3216249Y5487568D01*
X3197809Y5487568D01*
X3197809Y5505907D01*
X3162858Y5505907D01*
X3162858Y5487568D01*
X3144469Y5487568D01*
X3144469Y5505907D01*
X3127908Y5505907D01*
X3127908Y5522417D01*
X3092907Y5522417D01*
X3092907Y5487568D01*
X3076346Y5487568D01*
X3076346Y5452719D01*
X3109468Y5452719D01*
X3109468Y5469229D01*
X3092907Y5469229D01*
X3092907Y5487568D01*
X3109468Y5487568D01*
X3109468Y5505907D01*
X3127908Y5505907D01*
X3127908Y5469229D01*
X3162858Y5469229D01*
X3162858Y5487568D01*
X3197809Y5487568D01*
X3197809Y5469229D01*
X3181248Y5469229D01*
X3181248Y5452719D01*
X3197809Y5452719D01*
X3197809Y5469229D01*
X3216249Y5469229D01*
X3216249Y5452719D01*
X3267760Y5452719D01*
X3267760Y5434380D01*
X3251200Y5434380D01*
X3251200Y5452719D01*
X3234639Y5452719D01*
X3234639Y5434380D01*
X3181248Y5434380D01*
X3181248Y5416042D01*
X3197809Y5416042D01*
X3197809Y5399532D01*
X3181248Y5399532D01*
X3181248Y5416042D01*
X3162858Y5416042D01*
X3162858Y5399532D01*
X3181248Y5399532D01*
X3181248Y5383022D01*
X3162858Y5383022D01*
X3162858Y5364683D01*
X3181248Y5364683D01*
X3181248Y5383022D01*
X3234639Y5383022D01*
X3234639Y5416042D01*
X3251200Y5416042D01*
X3251200Y5383022D01*
X3234639Y5383022D01*
X3234639Y5364683D01*
X3181248Y5364683D01*
X3181248Y5346344D01*
X3216249Y5346344D01*
X3216249Y5311495D01*
X3234639Y5311495D01*
X3234639Y5364683D01*
X3267760Y5364683D01*
X3267760Y5416042D01*
X3286150Y5416042D01*
X3286150Y5399532D01*
X3302762Y5399532D01*
X3302762Y5383022D01*
X3286150Y5383022D01*
X3286150Y5346344D01*
X3302762Y5346344D01*
X3302762Y5364683D01*
X3321151Y5364683D01*
X3321151Y5346344D01*
X3356101Y5346344D01*
X3356101Y5329834D01*
X3374542Y5329834D01*
X3374542Y5311495D01*
X3356101Y5311495D01*
X3356101Y5293156D01*
X3339541Y5293156D01*
X3339541Y5311495D01*
X3321151Y5311495D01*
X3321151Y5293156D01*
X3339541Y5293156D01*
X3339541Y5276646D01*
X3286150Y5276646D01*
X3286150Y5311495D01*
X3302762Y5311495D01*
X3302762Y5329834D01*
X3267760Y5329834D01*
X3267760Y5346344D01*
X3251200Y5346344D01*
X3251200Y5329834D01*
X3267760Y5329834D01*
X3267760Y5311495D01*
X3251403Y5311495D01*
X3250285Y5294122D01*
X3216249Y5293055D01*
X3216249Y5276646D01*
X3251200Y5276646D01*
X3251200Y5260187D01*
X3234639Y5260187D01*
X3234639Y5276646D01*
X3216249Y5276646D01*
X3216249Y5207000D01*
X3234639Y5207000D01*
X3234639Y5241848D01*
X3267760Y5241848D01*
X3267760Y5276646D01*
X3286150Y5276646D01*
X3286150Y5260187D01*
X3302762Y5260187D01*
X3302762Y5241848D01*
X3286150Y5241848D01*
X3286150Y5207000D01*
X3302558Y5207000D01*
X3303676Y5224424D01*
X3321151Y5225542D01*
X3321151Y5241848D01*
X3356101Y5241848D01*
X3356101Y5225338D01*
X3321151Y5225338D01*
X3321151Y5207000D01*
X3391103Y5207000D01*
X3391103Y5225338D01*
X3409492Y5225338D01*
X3409492Y5207000D01*
X3479444Y5207000D01*
X3479444Y5225338D01*
X3461054Y5225338D01*
X3461054Y5241848D01*
X3497834Y5241848D01*
X3497834Y5276646D01*
X3514394Y5276646D01*
X3514394Y5311495D01*
X3530955Y5311495D01*
X3530955Y5276646D01*
X3584346Y5276646D01*
X3584346Y5311495D01*
X3549396Y5311495D01*
X3549396Y5329834D01*
X3567785Y5329834D01*
X3567785Y5364683D01*
X3584346Y5364683D01*
X3584346Y5383022D01*
X3567785Y5383022D01*
X3567785Y5399532D01*
X3584346Y5399532D01*
X3584346Y5416042D01*
X3549396Y5416042D01*
X3549396Y5399532D01*
X3530955Y5399532D01*
X3530955Y5416042D01*
X3497834Y5416042D01*
X3497834Y5434380D01*
X3514394Y5434380D01*
X3514394Y5452719D01*
X3549396Y5452719D01*
X3549396Y5434380D01*
X3584346Y5434380D01*
X3584346Y5469229D01*
X3567785Y5469229D01*
X3567785Y5487568D01*
X3549396Y5487568D01*
X3549396Y5469229D01*
X3530955Y5469229D01*
X3530955Y5487568D01*
X3514394Y5487568D01*
X3514394Y5505907D01*
X3530955Y5505907D01*
X3530955Y5522417D01*
X3549396Y5522417D01*
X3549396Y5540756D01*
X3567785Y5540756D01*
X3567785Y5575604D01*
X3549396Y5575604D01*
X3549396Y5540756D01*
X3530955Y5540756D01*
X3530955Y5575604D01*
X3514394Y5575604D01*
X3514394Y5557266D01*
X3497834Y5557266D01*
X3497834Y5575604D01*
X3479444Y5575604D01*
X3479444Y5540756D01*
X3514394Y5540756D01*
X3514394Y5522417D01*
X3497834Y5522417D01*
X3497834Y5540756D01*
X3479444Y5540756D01*
X3479444Y5522417D01*
X3444443Y5522417D01*
X3444443Y5505907D01*
X3426053Y5505907D01*
X3426053Y5540756D01*
X3461054Y5540756D01*
X3461054Y5575604D01*
X3444443Y5575604D01*
X3444443Y5610453D01*
X3426053Y5610453D01*
X3426053Y5592114D01*
X3409492Y5592114D01*
X3409492Y5610453D01*
X3391103Y5610453D01*
X3391103Y5626963D01*
X3409492Y5626963D01*
X3409492Y5645302D01*
X3391103Y5645302D01*
X3391103Y5626963D01*
X3374542Y5626963D01*
X3374542Y5610453D01*
X3391103Y5610453D01*
X3391103Y5592114D01*
X3374542Y5592114D01*
X3374542Y5610453D01*
X3356101Y5610453D01*
X3356101Y5645302D01*
X3374542Y5645302D01*
X3374542Y5663641D01*
X3444443Y5663641D01*
X3444443Y5696661D01*
X3426053Y5696661D01*
X3426053Y5715000D01*
X3409492Y5715000D01*
X3409492Y5696661D01*
X3426053Y5696661D01*
X3426053Y5680151D01*
X3391103Y5680151D01*
X3391103Y5696661D01*
X3374542Y5696661D01*
X3374542Y5663641D01*
X3356101Y5663641D01*
X3356101Y5715000D01*
X3339541Y5715000D01*
X3339541Y5696661D01*
X3321151Y5696661D01*
X3321151Y5715000D01*
G37*
G36*
X3076346Y5713171D02*
G01*
X3076346Y5698490D01*
X3181248Y5698490D01*
X3181248Y5608624D01*
X3092907Y5608624D01*
X3092907Y5698490D01*
X3076346Y5698490D01*
X3076346Y5593943D01*
X3197809Y5593943D01*
X3197809Y5713171D01*
G37*
G36*
X3462883Y5713171D02*
G01*
X3462883Y5698490D01*
X3567785Y5698490D01*
X3567785Y5608624D01*
X3477564Y5608624D01*
X3477564Y5698490D01*
X3462883Y5698490D01*
X3462883Y5593943D01*
X3584346Y5593943D01*
X3584346Y5713171D01*
G37*
G36*
X3216249Y5696661D02*
G01*
X3216249Y5680151D01*
X3234639Y5680151D01*
X3234639Y5696661D01*
G37*
G36*
X3111296Y5680151D02*
G01*
X3111296Y5628792D01*
X3161030Y5628792D01*
X3161030Y5680151D01*
G37*
G36*
X3497834Y5680151D02*
G01*
X3497834Y5628792D01*
X3547516Y5628792D01*
X3547516Y5680151D01*
G37*
G36*
X3426053Y5645302D02*
G01*
X3426053Y5626963D01*
X3444443Y5626963D01*
X3444443Y5645302D01*
G37*
G36*
X3251200Y5557266D02*
G01*
X3251200Y5522417D01*
X3267760Y5522417D01*
X3267760Y5557266D01*
G37*
G36*
X3567785Y5522417D02*
G01*
X3567785Y5505907D01*
X3584346Y5505907D01*
X3584346Y5522417D01*
G37*
G36*
X3144469Y5452719D02*
G01*
X3144469Y5434380D01*
X3162858Y5434380D01*
X3162858Y5452719D01*
G37*
G36*
X3321151Y5452719D02*
G01*
X3321151Y5434380D01*
X3339541Y5434380D01*
X3339541Y5416042D01*
X3356101Y5416042D01*
X3356101Y5399532D01*
X3374542Y5399532D01*
X3374542Y5383022D01*
X3391103Y5383022D01*
X3391103Y5399532D01*
X3374542Y5399532D01*
X3374542Y5416042D01*
X3356101Y5416042D01*
X3356101Y5434380D01*
X3339541Y5434380D01*
X3339541Y5452719D01*
G37*
G36*
X3076346Y5434380D02*
G01*
X3076346Y5346344D01*
X3092907Y5346344D01*
X3092907Y5399532D01*
X3109468Y5399532D01*
X3109468Y5383022D01*
X3127908Y5383022D01*
X3127908Y5364683D01*
X3109468Y5364683D01*
X3109468Y5346344D01*
X3127908Y5346344D01*
X3127908Y5364683D01*
X3144469Y5364683D01*
X3144469Y5416042D01*
X3092907Y5416042D01*
X3092907Y5434380D01*
G37*
G36*
X3461054Y5329834D02*
G01*
X3461054Y5311495D01*
X3479444Y5311495D01*
X3479444Y5329834D01*
G37*
G36*
X3076346Y5328005D02*
G01*
X3076346Y5313375D01*
X3181248Y5313375D01*
X3181248Y5223510D01*
X3092907Y5223510D01*
X3092907Y5313375D01*
X3076346Y5313375D01*
X3076346Y5208828D01*
X3197809Y5208828D01*
X3197809Y5328005D01*
G37*
G36*
X3111296Y5293156D02*
G01*
X3111296Y5243677D01*
X3161030Y5243677D01*
X3161030Y5293156D01*
G37*
G36*
X3374542Y5293156D02*
G01*
X3374542Y5276646D01*
X3391103Y5276646D01*
X3391103Y5260187D01*
X3409492Y5260187D01*
X3409492Y5241848D01*
X3426053Y5241848D01*
X3426053Y5260187D01*
X3409492Y5260187D01*
X3409492Y5293156D01*
G37*
G36*
X3530955Y5260187D02*
G01*
X3530955Y5241848D01*
X3514394Y5241848D01*
X3514394Y5225338D01*
X3497834Y5225338D01*
X3497834Y5207000D01*
X3549396Y5207000D01*
X3549396Y5241848D01*
X3567785Y5241848D01*
X3567785Y5225338D01*
X3584346Y5225338D01*
X3584346Y5241848D01*
X3567785Y5241848D01*
X3567785Y5260187D01*
G37*
D10*
X2603500Y5671312D02*
G01*
X2609850Y5674613D01*
X2619502Y5684012D01*
X2619502Y5617210D01*
D11*
X4681090Y4445713D02*
G01*
X4681804Y4445000D01*
X4902200Y4445000D01*
X4681090Y3945712D02*
G01*
X4685078Y3949700D01*
X4902200Y3949700D01*
X4181096Y3945712D02*
G01*
X4681090Y3945712D01*
X3681089Y3945712D02*
G01*
X4181096Y3945712D01*
X3181101Y3945712D02*
G01*
X3681089Y3945712D01*
X2681102Y3945712D02*
G01*
X3181101Y3945712D01*
X2181100Y3945712D02*
G01*
X2681102Y3945712D01*
X1681101Y3945712D02*
G01*
X2181100Y3945712D01*
X1181100Y3945712D02*
G01*
X1681101Y3945712D01*
X1681101Y4445713D02*
G01*
X1181100Y4445713D01*
X2181100Y4445713D02*
G01*
X1681101Y4445713D01*
X2681102Y4445713D02*
G01*
X2181100Y4445713D01*
X3181101Y4445713D02*
G01*
X2681102Y4445713D01*
X3681089Y4445713D02*
G01*
X3181101Y4445713D01*
X4181096Y4445713D02*
G01*
X3681089Y4445713D01*
X4681090Y4445713D02*
G01*
X4181096Y4445713D01*
X4521200Y2324100D02*
G01*
X4521200Y1079500D01*
X3553208Y435409D02*
G01*
X3553208Y1267185D01*
X3556000Y1270000D01*
X2283208Y435409D02*
G01*
X2283208Y1267185D01*
X2286000Y1270000D01*
X2029208Y435409D02*
G01*
X2029208Y1267185D01*
X2032000Y1270000D01*
X2537208Y435409D02*
G01*
X2537208Y1267185D01*
X2540000Y1270000D01*
X2791208Y435409D02*
G01*
X2791208Y1267185D01*
X2794000Y1270000D01*
X3045208Y435409D02*
G01*
X3045208Y1267185D01*
X3048000Y1270000D01*
X3299208Y435409D02*
G01*
X3299208Y1267185D01*
X3302000Y1270000D01*
X3807208Y435409D02*
G01*
X3807208Y1267185D01*
X3810000Y1270000D01*
X4267205Y2324105D02*
G01*
X4254500Y2311400D01*
X4254500Y1079500D01*
X1867209Y2324105D02*
G01*
X1866900Y2323795D01*
X1866900Y1079500D01*
X2158850Y2324105D02*
G01*
X2159000Y2323957D01*
X2159000Y1079500D01*
X2413000Y3098800D02*
G01*
X2413000Y1079500D01*
D12*
X4826000Y5588000D02*
G01*
X5080000Y5588000D01*
D11*
X4149092Y5651500D02*
G01*
X3958493Y5651500D01*
D12*
X4309107Y5651500D02*
G01*
X4385307Y5727700D01*
X4826000Y5727700D01*
D13*
G01*
X4304424Y5651500D03*
G01*
X4153775Y5651500D03*
D14*
G01*
X3958590Y5651500D03*
G01*
X3788409Y5651500D03*
D15*
G01*
X999997Y6441998D03*
G01*
X11084001Y6441998D03*
G01*
X1499996Y-6841997D03*
G01*
X10584002Y-6841997D03*
D16*
G01*
X381000Y5461000D03*
G01*
X5461000Y5461000D03*
G01*
X5461000Y381000D03*
G01*
X381000Y381000D03*
D17*
G01*
X3556000Y1270000D03*
G01*
X3556000Y1524000D03*
G01*
X2286000Y1270000D03*
G01*
X2286000Y1524000D03*
D18*
G01*
X3807206Y435406D03*
G01*
X3553206Y435406D03*
G01*
X3299206Y435406D03*
G01*
X3045206Y435406D03*
G01*
X2791206Y435406D03*
G01*
X2537206Y435406D03*
G01*
X2283206Y435406D03*
G01*
X2029206Y435406D03*
D17*
G01*
X2032000Y1282700D03*
G01*
X2032000Y1524000D03*
G01*
X2794000Y1524000D03*
G01*
X2794000Y1270000D03*
G01*
X2540000Y1524000D03*
G01*
X2540000Y1270000D03*
G01*
X3810000Y1270000D03*
G01*
X3810000Y1524000D03*
G01*
X3302000Y1524000D03*
G01*
X3302000Y1270000D03*
G01*
X3048000Y1524000D03*
G01*
X3048000Y1270000D03*
D19*
G01*
X4681093Y3695700D03*
G01*
X4681093Y3945712D03*
G01*
X4681093Y4195698D03*
G01*
X4681093Y4445711D03*
G01*
X4181093Y3695700D03*
G01*
X4181093Y4445711D03*
G01*
X4181093Y4195698D03*
G01*
X4181093Y3945712D03*
G01*
X3681095Y3945712D03*
G01*
X3681095Y4195698D03*
G01*
X3681095Y4445711D03*
G01*
X3681095Y3695700D03*
G01*
X3181095Y3945712D03*
G01*
X3181095Y4195698D03*
G01*
X3181095Y4445711D03*
G01*
X3181095Y3695700D03*
G01*
X2681097Y3945712D03*
G01*
X2681097Y4195698D03*
G01*
X2681097Y4445711D03*
G01*
X2681097Y3695700D03*
G01*
X2181097Y3945712D03*
G01*
X2181097Y4195698D03*
G01*
X2181097Y4445711D03*
G01*
X2181097Y3695700D03*
G01*
X1681098Y3945712D03*
G01*
X1681098Y4195698D03*
G01*
X1681098Y4445711D03*
G01*
X1681098Y3695700D03*
G01*
X1181100Y3945712D03*
G01*
X1181100Y4195698D03*
G01*
X1181100Y4445711D03*
G01*
X1181100Y3695700D03*
D20*
G01*
X4572000Y5588000D03*
G01*
X4572000Y5334000D03*
G01*
X4826000Y5334000D03*
G01*
X4826000Y5588000D03*
D21*
G01*
X4521200Y2324100D03*
G01*
X4521200Y1079500D03*
G01*
X4254500Y1079500D03*
G01*
X4267200Y2324100D03*
G01*
X1866900Y1079500D03*
G01*
X1867204Y2324100D03*
G01*
X2158847Y2324100D03*
G01*
X2159000Y1079500D03*
G01*
X2413000Y3098800D03*
G01*
X2413000Y1079500D03*
G01*
X3302000Y2032000D03*
G01*
X2540000Y2032000D03*
G01*
X4902200Y4445000D03*
G01*
X4902200Y3949700D03*
G01*
X4826000Y5727700D03*
G01*
X5080000Y5588000D03*
M02*
