M48
METRIC,LZ,000.000
;FILE_FORMAT=3:3
;TYPE=PLATED
;Layer: PTH_Through_Via
;EasyEDA v6.5.32, 2023-07-30 21:58:18
;7de9140c348b43c9878d0c7d88b18126,5a6b42c53f6a479593ecc07194224c93,10
;Gerber Generator version 0.2
;Holesize 1 = 0.305 mm
T01C0.305
%
G05
G90
T01
X019050Y006985
X019050Y004699
X007620Y006985
X007620Y005080
X019050Y005969
X019050Y040132
X009906Y013970
X010541Y049403
X009906Y048133
X009271Y012700
X009271Y046863
X008636Y045593
X008636Y011430
X011176Y016510
X017780Y010160
X017780Y050673
X008636Y033020
X009271Y030480
X009906Y027940
X010541Y015240
X010541Y025400
X008001Y044323
X008001Y020348
X011176Y038128
X024511Y051435
X024511Y043053
X030099Y048895
X030099Y041783
X032385Y046355
X032385Y043053
X031369Y041275
X031242Y045593
X025146Y038735
X025146Y046863
X025781Y036195
X025781Y048133
X026416Y033655
X026416Y049403
X024511Y022352
X024511Y008890
X025400Y019812
X025400Y007620
X026416Y004572
X026416Y015240
X029972Y006985
X029972Y013970
X032639Y009652
X032639Y012700
X030607Y008890
X030607Y017272
X031369Y014732
X031369Y010160
M30
