M48
METRIC,LZ,000.000
;FILE_FORMAT=3:3
;TYPE=PLATED
;Layer: PTH_Through_Via
;EasyEDA v6.5.34, 2023-09-10 21:32:29
;1afe794d2bab4df38a2457b4b3463e79,5a6b42c53f6a479593ecc07194224c93,10
;Gerber Generator version 0.2
;Holesize 1 = 0.305 mm
T01C0.305
%
G05
G90
T01
X040005Y050800
X040005Y053721
X050800Y055880
X050800Y050800
X012700Y023410
X012700Y050800
X012700Y031030
X012700Y038650
X012700Y041190
X025400Y023410
X025400Y031030
X025400Y038650
X025400Y050800
X038100Y038650
X038100Y031030
X038100Y023410
X045847Y041190
X045847Y038650
X049149Y038650
X049149Y041190
X038100Y050800
X045847Y050800
X049149Y050800
X012658Y009144
X012658Y022310
X027940Y022310
X030480Y015240
X038100Y015240
X038100Y022309
X051181Y009144
X051181Y037550
X032258Y038650
X032258Y050800
X021209Y041190
X019558Y038650
X021209Y050800
X019558Y050800
X051054Y024850
X049149Y028490
X049149Y025950
X045847Y025950
X045847Y028490
X043561Y033020
X051181Y033020
X043561Y028490
X043561Y044450
X051181Y044450
X051181Y040090
X043561Y038650
X051181Y031623
X042672Y031623
X051181Y027390
X042672Y025950
M30
