G04 Layer: TopSilkscreenLayer*
G04 EasyEDA v6.5.22, 2023-04-02 16:29:49*
G04 1135aa0c46e14357a5d69858543a1a0d,5a6b42c53f6a479593ecc07194224c93,10*
G04 Gerber Generator version 0.2*
G04 Scale: 100 percent, Rotated: No, Reflected: No *
G04 Dimensions in millimeters *
G04 leading zeros omitted , absolute positions ,4 integer and 5 decimal *
%FSLAX45Y45*%
%MOMM*%

%ADD10C,0.2032*%
%ADD11C,0.2030*%
%ADD12C,0.3000*%
%ADD13C,0.1524*%
%ADD14C,0.5000*%
%ADD15C,0.2540*%
%ADD16C,0.6350*%
%ADD17C,0.0143*%

%LPD*%
D10*
X7581900Y21419058D02*
G01*
X7581900Y21304504D01*
X7581900Y21419058D02*
G01*
X7630922Y21419058D01*
X7647431Y21413470D01*
X7652765Y21408136D01*
X7658354Y21397213D01*
X7658354Y21380704D01*
X7652765Y21369781D01*
X7647431Y21364448D01*
X7630922Y21359113D01*
X7581900Y21359113D01*
X7694168Y21419058D02*
G01*
X7694168Y21304504D01*
X7694168Y21419058D02*
G01*
X7743443Y21419058D01*
X7759700Y21413470D01*
X7765288Y21408136D01*
X7770622Y21397213D01*
X7770622Y21386292D01*
X7765288Y21375370D01*
X7759700Y21369781D01*
X7743443Y21364448D01*
X7694168Y21364448D01*
X7732522Y21364448D02*
G01*
X7770622Y21304504D01*
X7839456Y21419058D02*
G01*
X7828534Y21413470D01*
X7817611Y21402548D01*
X7812024Y21391626D01*
X7806690Y21375370D01*
X7806690Y21348192D01*
X7812024Y21331681D01*
X7817611Y21320760D01*
X7828534Y21309837D01*
X7839456Y21304504D01*
X7861045Y21304504D01*
X7871968Y21309837D01*
X7882890Y21320760D01*
X7888477Y21331681D01*
X7893811Y21348192D01*
X7893811Y21375370D01*
X7888477Y21391626D01*
X7882890Y21402548D01*
X7871968Y21413470D01*
X7861045Y21419058D01*
X7839456Y21419058D01*
X7967979Y21419058D02*
G01*
X7967979Y21304504D01*
X7929879Y21419058D02*
G01*
X8006334Y21419058D01*
X8074913Y21419058D02*
G01*
X8063991Y21413470D01*
X8053070Y21402548D01*
X8047736Y21391626D01*
X8042147Y21375370D01*
X8042147Y21348192D01*
X8047736Y21331681D01*
X8053070Y21320760D01*
X8063991Y21309837D01*
X8074913Y21304504D01*
X8096758Y21304504D01*
X8107679Y21309837D01*
X8118602Y21320760D01*
X8124190Y21331681D01*
X8129524Y21348192D01*
X8129524Y21375370D01*
X8124190Y21391626D01*
X8118602Y21402548D01*
X8107679Y21413470D01*
X8096758Y21419058D01*
X8074913Y21419058D01*
X8165591Y21419058D02*
G01*
X8165591Y21304504D01*
X8165591Y21419058D02*
G01*
X8241791Y21304504D01*
X8241791Y21419058D02*
G01*
X8241791Y21304504D01*
X8277859Y21419058D02*
G01*
X8277859Y21304504D01*
X8277859Y21419058D02*
G01*
X8348725Y21419058D01*
X8277859Y21364448D02*
G01*
X8321547Y21364448D01*
X8277859Y21304504D02*
G01*
X8348725Y21304504D01*
X8384793Y21419058D02*
G01*
X8384793Y21304504D01*
X8384793Y21419058D02*
G01*
X8428481Y21304504D01*
X8472170Y21419058D02*
G01*
X8428481Y21304504D01*
X8472170Y21419058D02*
G01*
X8472170Y21304504D01*
X8551672Y21419058D02*
G01*
X8507984Y21304504D01*
X8551672Y21419058D02*
G01*
X8595359Y21304504D01*
X8524493Y21342604D02*
G01*
X8579104Y21342604D01*
X8715247Y21419058D02*
G01*
X8715247Y21304504D01*
X8715247Y21419058D02*
G01*
X8764524Y21419058D01*
X8780779Y21413470D01*
X8786368Y21408136D01*
X8791702Y21397213D01*
X8791702Y21386292D01*
X8786368Y21375370D01*
X8780779Y21369781D01*
X8764524Y21364448D01*
X8715247Y21364448D02*
G01*
X8764524Y21364448D01*
X8780779Y21359113D01*
X8786368Y21353526D01*
X8791702Y21342604D01*
X8791702Y21326348D01*
X8786368Y21315426D01*
X8780779Y21309837D01*
X8764524Y21304504D01*
X8715247Y21304504D01*
X8871458Y21419058D02*
G01*
X8827770Y21304504D01*
X8871458Y21419058D02*
G01*
X8914891Y21304504D01*
X8844025Y21342604D02*
G01*
X8898636Y21342604D01*
X9027413Y21402548D02*
G01*
X9016491Y21413470D01*
X8999981Y21419058D01*
X8978138Y21419058D01*
X8961881Y21413470D01*
X8950959Y21402548D01*
X8950959Y21391626D01*
X8956547Y21380704D01*
X8961881Y21375370D01*
X8972804Y21369781D01*
X9005570Y21359113D01*
X9016491Y21353526D01*
X9021825Y21348192D01*
X9027413Y21337270D01*
X9027413Y21320760D01*
X9016491Y21309837D01*
X8999981Y21304504D01*
X8978138Y21304504D01*
X8961881Y21309837D01*
X8950959Y21320760D01*
X9063227Y21419058D02*
G01*
X9063227Y21304504D01*
X9063227Y21419058D02*
G01*
X9134347Y21419058D01*
X9063227Y21364448D02*
G01*
X9106915Y21364448D01*
X9063227Y21304504D02*
G01*
X9134347Y21304504D01*
X9170161Y21419058D02*
G01*
X9170161Y21304504D01*
X9170161Y21419058D02*
G01*
X9219438Y21419058D01*
X9235693Y21413470D01*
X9241281Y21408136D01*
X9246615Y21397213D01*
X9246615Y21386292D01*
X9241281Y21375370D01*
X9235693Y21369781D01*
X9219438Y21364448D01*
X9170161Y21364448D02*
G01*
X9219438Y21364448D01*
X9235693Y21359113D01*
X9241281Y21353526D01*
X9246615Y21342604D01*
X9246615Y21326348D01*
X9241281Y21315426D01*
X9235693Y21309837D01*
X9219438Y21304504D01*
X9170161Y21304504D01*
X9315450Y21419058D02*
G01*
X9304527Y21413470D01*
X9293606Y21402548D01*
X9288018Y21391626D01*
X9282684Y21375370D01*
X9282684Y21348192D01*
X9288018Y21331681D01*
X9293606Y21320760D01*
X9304527Y21309837D01*
X9315450Y21304504D01*
X9337293Y21304504D01*
X9347961Y21309837D01*
X9358884Y21320760D01*
X9364472Y21331681D01*
X9369806Y21348192D01*
X9369806Y21375370D01*
X9364472Y21391626D01*
X9358884Y21402548D01*
X9347961Y21413470D01*
X9337293Y21419058D01*
X9315450Y21419058D01*
X9449561Y21419058D02*
G01*
X9405874Y21304504D01*
X9449561Y21419058D02*
G01*
X9493250Y21304504D01*
X9422384Y21342604D02*
G01*
X9476740Y21342604D01*
X9529063Y21419058D02*
G01*
X9529063Y21304504D01*
X9529063Y21419058D02*
G01*
X9578340Y21419058D01*
X9594595Y21413470D01*
X9600184Y21408136D01*
X9605518Y21397213D01*
X9605518Y21386292D01*
X9600184Y21375370D01*
X9594595Y21369781D01*
X9578340Y21364448D01*
X9529063Y21364448D01*
X9567418Y21364448D02*
G01*
X9605518Y21304504D01*
X9641586Y21419058D02*
G01*
X9641586Y21304504D01*
X9641586Y21419058D02*
G01*
X9679686Y21419058D01*
X9696195Y21413470D01*
X9706863Y21402548D01*
X9712452Y21391626D01*
X9717786Y21375370D01*
X9717786Y21348192D01*
X9712452Y21331681D01*
X9706863Y21320760D01*
X9696195Y21309837D01*
X9679686Y21304504D01*
X9641586Y21304504D01*
X9848850Y21419058D02*
G01*
X9908793Y21419058D01*
X9876027Y21375370D01*
X9892538Y21375370D01*
X9903459Y21369781D01*
X9908793Y21364448D01*
X9914381Y21348192D01*
X9914381Y21337270D01*
X9908793Y21320760D01*
X9897872Y21309837D01*
X9881615Y21304504D01*
X9865106Y21304504D01*
X9848850Y21309837D01*
X9843261Y21315426D01*
X9837927Y21326348D01*
X9950195Y21380704D02*
G01*
X10010140Y21304504D01*
X10010140Y21380704D02*
G01*
X9950195Y21304504D01*
X10051795Y21391626D02*
G01*
X10051795Y21397213D01*
X10057129Y21408136D01*
X10062718Y21413470D01*
X10073640Y21419058D01*
X10095229Y21419058D01*
X10106152Y21413470D01*
X10111740Y21408136D01*
X10117074Y21397213D01*
X10117074Y21386292D01*
X10111740Y21375370D01*
X10100818Y21359113D01*
X10046208Y21304504D01*
X10122661Y21304504D01*
X10242550Y21419058D02*
G01*
X10286238Y21304504D01*
X10329925Y21419058D02*
G01*
X10286238Y21304504D01*
X10365993Y21397213D02*
G01*
X10376915Y21402548D01*
X10393172Y21419058D01*
X10393172Y21304504D01*
X10434574Y21331681D02*
G01*
X10429240Y21326348D01*
X10434574Y21320760D01*
X10440161Y21326348D01*
X10434574Y21331681D01*
X10475975Y21397213D02*
G01*
X10486897Y21402548D01*
X10503408Y21419058D01*
X10503408Y21304504D01*
X10623295Y21353526D02*
G01*
X10721593Y21353526D01*
X10841481Y21419058D02*
G01*
X10841481Y21304504D01*
X10841481Y21419058D02*
G01*
X10912347Y21419058D01*
X10841481Y21364448D02*
G01*
X10885170Y21364448D01*
X10948415Y21419058D02*
G01*
X10948415Y21304504D01*
X10948415Y21419058D02*
G01*
X10997438Y21419058D01*
X11013947Y21413470D01*
X11019281Y21408136D01*
X11024870Y21397213D01*
X11024870Y21386292D01*
X11019281Y21375370D01*
X11013947Y21369781D01*
X10997438Y21364448D01*
X10948415Y21364448D01*
X10986515Y21364448D02*
G01*
X11024870Y21304504D01*
X11093450Y21419058D02*
G01*
X11082527Y21413470D01*
X11071606Y21402548D01*
X11066272Y21391626D01*
X11060684Y21375370D01*
X11060684Y21348192D01*
X11066272Y21331681D01*
X11071606Y21320760D01*
X11082527Y21309837D01*
X11093450Y21304504D01*
X11115293Y21304504D01*
X11126215Y21309837D01*
X11137138Y21320760D01*
X11142725Y21331681D01*
X11148059Y21348192D01*
X11148059Y21375370D01*
X11142725Y21391626D01*
X11137138Y21402548D01*
X11126215Y21413470D01*
X11115293Y21419058D01*
X11093450Y21419058D01*
X11184127Y21419058D02*
G01*
X11184127Y21304504D01*
X11184127Y21419058D02*
G01*
X11260327Y21304504D01*
X11260327Y21419058D02*
G01*
X11260327Y21304504D01*
X11334495Y21419058D02*
G01*
X11334495Y21304504D01*
X11296395Y21419058D02*
G01*
X11372850Y21419058D01*
X7581900Y21228558D02*
G01*
X7581900Y21114004D01*
X7581900Y21228558D02*
G01*
X7630922Y21228558D01*
X7647431Y21222970D01*
X7652765Y21217636D01*
X7658354Y21206713D01*
X7658354Y21190204D01*
X7652765Y21179281D01*
X7647431Y21173948D01*
X7630922Y21168613D01*
X7581900Y21168613D01*
X7737856Y21228558D02*
G01*
X7694168Y21114004D01*
X7737856Y21228558D02*
G01*
X7781543Y21114004D01*
X7710677Y21152104D02*
G01*
X7765288Y21152104D01*
X7817611Y21228558D02*
G01*
X7817611Y21114004D01*
X7817611Y21228558D02*
G01*
X7866634Y21228558D01*
X7882890Y21222970D01*
X7888477Y21217636D01*
X7893811Y21206713D01*
X7893811Y21195792D01*
X7888477Y21184870D01*
X7882890Y21179281D01*
X7866634Y21173948D01*
X7817611Y21173948D01*
X7855711Y21173948D02*
G01*
X7893811Y21114004D01*
X7967979Y21228558D02*
G01*
X7967979Y21114004D01*
X7929879Y21228558D02*
G01*
X8006334Y21228558D01*
X8126222Y21228558D02*
G01*
X8126222Y21114004D01*
X8126222Y21228558D02*
G01*
X8202675Y21114004D01*
X8202675Y21228558D02*
G01*
X8202675Y21114004D01*
X8238743Y21228558D02*
G01*
X8238743Y21146770D01*
X8244077Y21130260D01*
X8255000Y21119337D01*
X8271256Y21114004D01*
X8282177Y21114004D01*
X8298688Y21119337D01*
X8309609Y21130260D01*
X8314943Y21146770D01*
X8314943Y21228558D01*
X8351011Y21228558D02*
G01*
X8351011Y21114004D01*
X8351011Y21228558D02*
G01*
X8394700Y21114004D01*
X8438388Y21228558D02*
G01*
X8394700Y21114004D01*
X8438388Y21228558D02*
G01*
X8438388Y21114004D01*
X8474202Y21228558D02*
G01*
X8474202Y21114004D01*
X8474202Y21228558D02*
G01*
X8523477Y21228558D01*
X8539734Y21222970D01*
X8545068Y21217636D01*
X8550656Y21206713D01*
X8550656Y21195792D01*
X8545068Y21184870D01*
X8539734Y21179281D01*
X8523477Y21173948D01*
X8474202Y21173948D02*
G01*
X8523477Y21173948D01*
X8539734Y21168613D01*
X8545068Y21163026D01*
X8550656Y21152104D01*
X8550656Y21135848D01*
X8545068Y21124926D01*
X8539734Y21119337D01*
X8523477Y21114004D01*
X8474202Y21114004D01*
X8586724Y21228558D02*
G01*
X8586724Y21114004D01*
X8586724Y21228558D02*
G01*
X8657590Y21228558D01*
X8586724Y21173948D02*
G01*
X8630158Y21173948D01*
X8586724Y21114004D02*
G01*
X8657590Y21114004D01*
X8693658Y21228558D02*
G01*
X8693658Y21114004D01*
X8693658Y21228558D02*
G01*
X8742679Y21228558D01*
X8758936Y21222970D01*
X8764524Y21217636D01*
X8769858Y21206713D01*
X8769858Y21195792D01*
X8764524Y21184870D01*
X8758936Y21179281D01*
X8742679Y21173948D01*
X8693658Y21173948D01*
X8731758Y21173948D02*
G01*
X8769858Y21114004D01*
X8890000Y21206713D02*
G01*
X8900922Y21212048D01*
X8917177Y21228558D01*
X8917177Y21114004D01*
X9018524Y21228558D02*
G01*
X8964168Y21228558D01*
X8958579Y21179281D01*
X8964168Y21184870D01*
X8980424Y21190204D01*
X8996679Y21190204D01*
X9013190Y21184870D01*
X9024111Y21173948D01*
X9029445Y21157692D01*
X9029445Y21146770D01*
X9024111Y21130260D01*
X9013190Y21119337D01*
X8996679Y21114004D01*
X8980424Y21114004D01*
X8964168Y21119337D01*
X8958579Y21124926D01*
X8953245Y21135848D01*
X9076436Y21228558D02*
G01*
X9136379Y21228558D01*
X9103613Y21184870D01*
X9120124Y21184870D01*
X9131045Y21179281D01*
X9136379Y21173948D01*
X9141968Y21157692D01*
X9141968Y21146770D01*
X9136379Y21130260D01*
X9125458Y21119337D01*
X9109202Y21114004D01*
X9092691Y21114004D01*
X9076436Y21119337D01*
X9071102Y21124926D01*
X9065513Y21135848D01*
X9183370Y21201126D02*
G01*
X9183370Y21206713D01*
X9188704Y21217636D01*
X9194291Y21222970D01*
X9205213Y21228558D01*
X9227058Y21228558D01*
X9237979Y21222970D01*
X9243313Y21217636D01*
X9248902Y21206713D01*
X9248902Y21195792D01*
X9243313Y21184870D01*
X9232391Y21168613D01*
X9177781Y21114004D01*
X9254236Y21114004D01*
X9290304Y21163026D02*
G01*
X9388347Y21163026D01*
X9457181Y21228558D02*
G01*
X9440925Y21222970D01*
X9430004Y21206713D01*
X9424415Y21179281D01*
X9424415Y21163026D01*
X9430004Y21135848D01*
X9440925Y21119337D01*
X9457181Y21114004D01*
X9468104Y21114004D01*
X9484359Y21119337D01*
X9495281Y21135848D01*
X9500870Y21163026D01*
X9500870Y21179281D01*
X9495281Y21206713D01*
X9484359Y21222970D01*
X9468104Y21228558D01*
X9457181Y21228558D01*
X9536684Y21206713D02*
G01*
X9547606Y21212048D01*
X9564115Y21228558D01*
X9564115Y21114004D01*
X9632695Y21228558D02*
G01*
X9616440Y21222970D01*
X9605518Y21206713D01*
X9600184Y21179281D01*
X9600184Y21163026D01*
X9605518Y21135848D01*
X9616440Y21119337D01*
X9632695Y21114004D01*
X9643618Y21114004D01*
X9660127Y21119337D01*
X9671050Y21135848D01*
X9676384Y21163026D01*
X9676384Y21179281D01*
X9671050Y21206713D01*
X9660127Y21222970D01*
X9643618Y21228558D01*
X9632695Y21228558D01*
X9712452Y21206713D02*
G01*
X9723374Y21212048D01*
X9739629Y21228558D01*
X9739629Y21114004D01*
D11*
X12667488Y21391626D02*
G01*
X12662154Y21402548D01*
X12651231Y21413470D01*
X12640309Y21419058D01*
X12618465Y21419058D01*
X12607543Y21413470D01*
X12596622Y21402548D01*
X12591034Y21391626D01*
X12585700Y21375370D01*
X12585700Y21348192D01*
X12591034Y21331681D01*
X12596622Y21320760D01*
X12607543Y21309837D01*
X12618465Y21304504D01*
X12640309Y21304504D01*
X12651231Y21309837D01*
X12662154Y21320760D01*
X12667488Y21331681D01*
X12736322Y21419058D02*
G01*
X12725400Y21413470D01*
X12714477Y21402548D01*
X12708890Y21391626D01*
X12703556Y21375370D01*
X12703556Y21348192D01*
X12708890Y21331681D01*
X12714477Y21320760D01*
X12725400Y21309837D01*
X12736322Y21304504D01*
X12758165Y21304504D01*
X12769088Y21309837D01*
X12779756Y21320760D01*
X12785343Y21331681D01*
X12790677Y21348192D01*
X12790677Y21375370D01*
X12785343Y21391626D01*
X12779756Y21402548D01*
X12769088Y21413470D01*
X12758165Y21419058D01*
X12736322Y21419058D01*
X12826745Y21419058D02*
G01*
X12826745Y21304504D01*
X12826745Y21419058D02*
G01*
X12875768Y21419058D01*
X12892277Y21413470D01*
X12897611Y21408136D01*
X12903200Y21397213D01*
X12903200Y21380704D01*
X12897611Y21369781D01*
X12892277Y21364448D01*
X12875768Y21359113D01*
X12826745Y21359113D01*
X12939268Y21419058D02*
G01*
X12982702Y21364448D01*
X12982702Y21304504D01*
X13026390Y21419058D02*
G01*
X12982702Y21364448D01*
X13062458Y21419058D02*
G01*
X13062458Y21304504D01*
X13062458Y21419058D02*
G01*
X13111479Y21419058D01*
X13127990Y21413470D01*
X13133324Y21408136D01*
X13138911Y21397213D01*
X13138911Y21386292D01*
X13133324Y21375370D01*
X13127990Y21369781D01*
X13111479Y21364448D01*
X13062458Y21364448D01*
X13100558Y21364448D02*
G01*
X13138911Y21304504D01*
X13174725Y21419058D02*
G01*
X13174725Y21304504D01*
X13292581Y21391626D02*
G01*
X13287247Y21402548D01*
X13276325Y21413470D01*
X13265404Y21419058D01*
X13243559Y21419058D01*
X13232638Y21413470D01*
X13221716Y21402548D01*
X13216127Y21391626D01*
X13210793Y21375370D01*
X13210793Y21348192D01*
X13216127Y21331681D01*
X13221716Y21320760D01*
X13232638Y21309837D01*
X13243559Y21304504D01*
X13265404Y21304504D01*
X13276325Y21309837D01*
X13287247Y21320760D01*
X13292581Y21331681D01*
X13292581Y21348192D01*
X13265404Y21348192D02*
G01*
X13292581Y21348192D01*
X13328650Y21419058D02*
G01*
X13328650Y21304504D01*
X13404850Y21419058D02*
G01*
X13404850Y21304504D01*
X13328650Y21364448D02*
G01*
X13404850Y21364448D01*
X13479272Y21419058D02*
G01*
X13479272Y21304504D01*
X13440918Y21419058D02*
G01*
X13517372Y21419058D01*
X13642847Y21391626D02*
G01*
X13642847Y21397213D01*
X13648181Y21408136D01*
X13653770Y21413470D01*
X13664691Y21419058D01*
X13686536Y21419058D01*
X13697458Y21413470D01*
X13702791Y21408136D01*
X13708125Y21397213D01*
X13708125Y21386292D01*
X13702791Y21375370D01*
X13691870Y21359113D01*
X13637259Y21304504D01*
X13713713Y21304504D01*
X13782547Y21419058D02*
G01*
X13766038Y21413470D01*
X13755116Y21397213D01*
X13749781Y21369781D01*
X13749781Y21353526D01*
X13755116Y21326348D01*
X13766038Y21309837D01*
X13782547Y21304504D01*
X13793216Y21304504D01*
X13809725Y21309837D01*
X13820647Y21326348D01*
X13825981Y21353526D01*
X13825981Y21369781D01*
X13820647Y21397213D01*
X13809725Y21413470D01*
X13793216Y21419058D01*
X13782547Y21419058D01*
X13867638Y21391626D02*
G01*
X13867638Y21397213D01*
X13872972Y21408136D01*
X13878306Y21413470D01*
X13889227Y21419058D01*
X13911072Y21419058D01*
X13921993Y21413470D01*
X13927581Y21408136D01*
X13932916Y21397213D01*
X13932916Y21386292D01*
X13927581Y21375370D01*
X13916659Y21359113D01*
X13862050Y21304504D01*
X13938504Y21304504D01*
X13985240Y21419058D02*
G01*
X14045438Y21419058D01*
X14012672Y21375370D01*
X14028927Y21375370D01*
X14039850Y21369781D01*
X14045438Y21364448D01*
X14050772Y21348192D01*
X14050772Y21337270D01*
X14045438Y21320760D01*
X14034516Y21309837D01*
X14018006Y21304504D01*
X14001750Y21304504D01*
X13985240Y21309837D01*
X13979906Y21315426D01*
X13974318Y21326348D01*
X14170913Y21419058D02*
G01*
X14214347Y21304504D01*
X14258036Y21419058D02*
G01*
X14214347Y21304504D01*
X14294104Y21419058D02*
G01*
X14294104Y21304504D01*
X14294104Y21419058D02*
G01*
X14364970Y21419058D01*
X14294104Y21364448D02*
G01*
X14337791Y21364448D01*
X14294104Y21304504D02*
G01*
X14364970Y21304504D01*
X14477238Y21419058D02*
G01*
X14422881Y21304504D01*
X14401038Y21419058D02*
G01*
X14477238Y21419058D01*
X14513306Y21419058D02*
G01*
X14513306Y21304504D01*
X14513306Y21419058D02*
G01*
X14584172Y21419058D01*
X14513306Y21364448D02*
G01*
X14556993Y21364448D01*
X14620240Y21419058D02*
G01*
X14620240Y21304504D01*
X14656308Y21419058D02*
G01*
X14656308Y21304504D01*
X14656308Y21419058D02*
G01*
X14699995Y21304504D01*
X14743429Y21419058D02*
G01*
X14699995Y21304504D01*
X14743429Y21419058D02*
G01*
X14743429Y21304504D01*
X14863572Y21353526D02*
G01*
X14961616Y21353526D01*
X15125445Y21419058D02*
G01*
X15081758Y21304504D01*
X15125445Y21419058D02*
G01*
X15168879Y21304504D01*
X15098013Y21342604D02*
G01*
X15152624Y21342604D01*
X15204947Y21419058D02*
G01*
X15204947Y21304504D01*
X15204947Y21304504D02*
G01*
X15270479Y21304504D01*
X15306547Y21419058D02*
G01*
X15306547Y21304504D01*
X15306547Y21304504D02*
G01*
X15371825Y21304504D01*
X15491968Y21419058D02*
G01*
X15491968Y21304504D01*
X15491968Y21419058D02*
G01*
X15540990Y21419058D01*
X15557245Y21413470D01*
X15562834Y21408136D01*
X15568168Y21397213D01*
X15568168Y21386292D01*
X15562834Y21375370D01*
X15557245Y21369781D01*
X15540990Y21364448D01*
X15491968Y21364448D01*
X15530068Y21364448D02*
G01*
X15568168Y21304504D01*
X15604236Y21419058D02*
G01*
X15604236Y21304504D01*
X15722091Y21391626D02*
G01*
X15716504Y21402548D01*
X15705581Y21413470D01*
X15694659Y21419058D01*
X15673070Y21419058D01*
X15662147Y21413470D01*
X15651225Y21402548D01*
X15645638Y21391626D01*
X15640304Y21375370D01*
X15640304Y21348192D01*
X15645638Y21331681D01*
X15651225Y21320760D01*
X15662147Y21309837D01*
X15673070Y21304504D01*
X15694659Y21304504D01*
X15705581Y21309837D01*
X15716504Y21320760D01*
X15722091Y21331681D01*
X15722091Y21348192D01*
X15694659Y21348192D02*
G01*
X15722091Y21348192D01*
X15758159Y21419058D02*
G01*
X15758159Y21304504D01*
X15834359Y21419058D02*
G01*
X15834359Y21304504D01*
X15758159Y21364448D02*
G01*
X15834359Y21364448D01*
X15908527Y21419058D02*
G01*
X15908527Y21304504D01*
X15870427Y21419058D02*
G01*
X15946881Y21419058D01*
X16059150Y21402548D02*
G01*
X16048227Y21413470D01*
X16031972Y21419058D01*
X16010127Y21419058D01*
X15993618Y21413470D01*
X15982695Y21402548D01*
X15982695Y21391626D01*
X15988284Y21380704D01*
X15993618Y21375370D01*
X16004540Y21369781D01*
X16037306Y21359113D01*
X16048227Y21353526D01*
X16053816Y21348192D01*
X16059150Y21337270D01*
X16059150Y21320760D01*
X16048227Y21309837D01*
X16031972Y21304504D01*
X16010127Y21304504D01*
X15993618Y21309837D01*
X15982695Y21320760D01*
X16179038Y21419058D02*
G01*
X16179038Y21304504D01*
X16179038Y21419058D02*
G01*
X16228313Y21419058D01*
X16244570Y21413470D01*
X16250158Y21408136D01*
X16255491Y21397213D01*
X16255491Y21386292D01*
X16250158Y21375370D01*
X16244570Y21369781D01*
X16228313Y21364448D01*
X16179038Y21364448D01*
X16217391Y21364448D02*
G01*
X16255491Y21304504D01*
X16291559Y21419058D02*
G01*
X16291559Y21304504D01*
X16291559Y21419058D02*
G01*
X16362425Y21419058D01*
X16291559Y21364448D02*
G01*
X16335247Y21364448D01*
X16291559Y21304504D02*
G01*
X16362425Y21304504D01*
X16474693Y21402548D02*
G01*
X16463772Y21413470D01*
X16447516Y21419058D01*
X16425672Y21419058D01*
X16409416Y21413470D01*
X16398493Y21402548D01*
X16398493Y21391626D01*
X16403827Y21380704D01*
X16409416Y21375370D01*
X16420338Y21369781D01*
X16452850Y21359113D01*
X16463772Y21353526D01*
X16469359Y21348192D01*
X16474693Y21337270D01*
X16474693Y21320760D01*
X16463772Y21309837D01*
X16447516Y21304504D01*
X16425672Y21304504D01*
X16409416Y21309837D01*
X16398493Y21320760D01*
X16510761Y21419058D02*
G01*
X16510761Y21304504D01*
X16510761Y21419058D02*
G01*
X16581627Y21419058D01*
X16510761Y21364448D02*
G01*
X16554450Y21364448D01*
X16510761Y21304504D02*
G01*
X16581627Y21304504D01*
X16617695Y21419058D02*
G01*
X16617695Y21304504D01*
X16617695Y21419058D02*
G01*
X16666718Y21419058D01*
X16683227Y21413470D01*
X16688561Y21408136D01*
X16694150Y21397213D01*
X16694150Y21386292D01*
X16688561Y21375370D01*
X16683227Y21369781D01*
X16666718Y21364448D01*
X16617695Y21364448D01*
X16655795Y21364448D02*
G01*
X16694150Y21304504D01*
X16729963Y21419058D02*
G01*
X16773652Y21304504D01*
X16817340Y21419058D02*
G01*
X16773652Y21304504D01*
X16853408Y21419058D02*
G01*
X16853408Y21304504D01*
X16853408Y21419058D02*
G01*
X16924274Y21419058D01*
X16853408Y21364448D02*
G01*
X16896841Y21364448D01*
X16853408Y21304504D02*
G01*
X16924274Y21304504D01*
X16960341Y21419058D02*
G01*
X16960341Y21304504D01*
X16960341Y21419058D02*
G01*
X16998441Y21419058D01*
X17014698Y21413470D01*
X17025620Y21402548D01*
X17031208Y21391626D01*
X17036541Y21375370D01*
X17036541Y21348192D01*
X17031208Y21331681D01*
X17025620Y21320760D01*
X17014698Y21309837D01*
X16998441Y21304504D01*
X16960341Y21304504D01*
D12*
X9888727Y7977378D02*
G01*
X9870440Y7995665D01*
X9843261Y8004810D01*
X9806940Y8004810D01*
X9779508Y7995665D01*
X9761474Y7977378D01*
X9761474Y7959344D01*
X9770363Y7941055D01*
X9779508Y7931912D01*
X9797795Y7923021D01*
X9852406Y7904734D01*
X9870440Y7895589D01*
X9879584Y7886445D01*
X9888727Y7868412D01*
X9888727Y7840979D01*
X9870440Y7822945D01*
X9843261Y7813802D01*
X9806940Y7813802D01*
X9779508Y7822945D01*
X9761474Y7840979D01*
X10012425Y8004810D02*
G01*
X10012425Y7813802D01*
X9948672Y8004810D02*
G01*
X10075925Y8004810D01*
X10208768Y8004810D02*
G01*
X10135870Y7813802D01*
X10208768Y8004810D02*
G01*
X10281411Y7813802D01*
X10163302Y7877555D02*
G01*
X10254234Y7877555D01*
X10341356Y8004810D02*
G01*
X10341356Y7813802D01*
X10341356Y8004810D02*
G01*
X10414000Y7813802D01*
X10486897Y8004810D02*
G01*
X10414000Y7813802D01*
X10486897Y8004810D02*
G01*
X10486897Y7813802D01*
X10546841Y8004810D02*
G01*
X10546841Y7813802D01*
X10546841Y8004810D02*
G01*
X10628629Y8004810D01*
X10656061Y7995665D01*
X10664952Y7986521D01*
X10674095Y7968234D01*
X10674095Y7941055D01*
X10664952Y7923021D01*
X10656061Y7913878D01*
X10628629Y7904734D01*
X10546841Y7904734D01*
X10946891Y8004810D02*
G01*
X10874247Y7813802D01*
X10946891Y8004810D02*
G01*
X11019536Y7813802D01*
X10901425Y7877555D02*
G01*
X10992358Y7877555D01*
X11097768Y8004810D02*
G01*
X11197843Y8004810D01*
X11143234Y7931912D01*
X11170411Y7931912D01*
X11188700Y7923021D01*
X11197843Y7913878D01*
X11206734Y7886445D01*
X11206734Y7868412D01*
X11197843Y7840979D01*
X11179556Y7822945D01*
X11152377Y7813802D01*
X11124945Y7813802D01*
X11097768Y7822945D01*
X11088624Y7832089D01*
X11079479Y7850123D01*
X16832834Y7977378D02*
G01*
X16814545Y7995665D01*
X16787368Y8004810D01*
X16751045Y8004810D01*
X16723613Y7995665D01*
X16705579Y7977378D01*
X16705579Y7959344D01*
X16714470Y7941055D01*
X16723613Y7931912D01*
X16741902Y7923021D01*
X16796511Y7904734D01*
X16814545Y7895589D01*
X16823690Y7886445D01*
X16832834Y7868412D01*
X16832834Y7840979D01*
X16814545Y7822945D01*
X16787368Y7813802D01*
X16751045Y7813802D01*
X16723613Y7822945D01*
X16705579Y7840979D01*
X16956531Y8004810D02*
G01*
X16956531Y7813802D01*
X16892777Y8004810D02*
G01*
X17020031Y8004810D01*
X17152874Y8004810D02*
G01*
X17079975Y7813802D01*
X17152874Y8004810D02*
G01*
X17225518Y7813802D01*
X17107408Y7877555D02*
G01*
X17198340Y7877555D01*
X17285461Y8004810D02*
G01*
X17285461Y7813802D01*
X17285461Y8004810D02*
G01*
X17358106Y7813802D01*
X17431004Y8004810D02*
G01*
X17358106Y7813802D01*
X17431004Y8004810D02*
G01*
X17431004Y7813802D01*
X17490948Y8004810D02*
G01*
X17490948Y7813802D01*
X17490948Y8004810D02*
G01*
X17572736Y8004810D01*
X17600168Y7995665D01*
X17609058Y7986521D01*
X17618202Y7968234D01*
X17618202Y7941055D01*
X17609058Y7923021D01*
X17600168Y7913878D01*
X17572736Y7904734D01*
X17490948Y7904734D01*
X17818354Y8004810D02*
G01*
X17818354Y7813802D01*
X17818354Y8004810D02*
G01*
X17900141Y8004810D01*
X17927320Y7995665D01*
X17936463Y7986521D01*
X17945608Y7968234D01*
X17945608Y7950200D01*
X17936463Y7931912D01*
X17927320Y7923021D01*
X17900141Y7913878D01*
X17818354Y7913878D02*
G01*
X17900141Y7913878D01*
X17927320Y7904734D01*
X17936463Y7895589D01*
X17945608Y7877555D01*
X17945608Y7850123D01*
X17936463Y7832089D01*
X17927320Y7822945D01*
X17900141Y7813802D01*
X17818354Y7813802D01*
X18023586Y8004810D02*
G01*
X18123661Y8004810D01*
X18069052Y7931912D01*
X18096484Y7931912D01*
X18114518Y7923021D01*
X18123661Y7913878D01*
X18132806Y7886445D01*
X18132806Y7868412D01*
X18123661Y7840979D01*
X18105627Y7822945D01*
X18078195Y7813802D01*
X18051018Y7813802D01*
X18023586Y7822945D01*
X18014695Y7832089D01*
X18005552Y7850123D01*
X9888727Y20677378D02*
G01*
X9870440Y20695666D01*
X9843261Y20704810D01*
X9806940Y20704810D01*
X9779508Y20695666D01*
X9761474Y20677378D01*
X9761474Y20659344D01*
X9770363Y20641055D01*
X9779508Y20631912D01*
X9797795Y20623021D01*
X9852406Y20604734D01*
X9870440Y20595589D01*
X9879584Y20586445D01*
X9888727Y20568412D01*
X9888727Y20540979D01*
X9870440Y20522945D01*
X9843261Y20513802D01*
X9806940Y20513802D01*
X9779508Y20522945D01*
X9761474Y20540979D01*
X10012425Y20704810D02*
G01*
X10012425Y20513802D01*
X9948672Y20704810D02*
G01*
X10075925Y20704810D01*
X10208768Y20704810D02*
G01*
X10135870Y20513802D01*
X10208768Y20704810D02*
G01*
X10281411Y20513802D01*
X10163302Y20577555D02*
G01*
X10254234Y20577555D01*
X10341356Y20704810D02*
G01*
X10341356Y20513802D01*
X10341356Y20704810D02*
G01*
X10414000Y20513802D01*
X10486897Y20704810D02*
G01*
X10414000Y20513802D01*
X10486897Y20704810D02*
G01*
X10486897Y20513802D01*
X10546841Y20704810D02*
G01*
X10546841Y20513802D01*
X10546841Y20704810D02*
G01*
X10628629Y20704810D01*
X10656061Y20695666D01*
X10664952Y20686521D01*
X10674095Y20668234D01*
X10674095Y20641055D01*
X10664952Y20623021D01*
X10656061Y20613878D01*
X10628629Y20604734D01*
X10546841Y20604734D01*
X10946891Y20704810D02*
G01*
X10874247Y20513802D01*
X10946891Y20704810D02*
G01*
X11019536Y20513802D01*
X10901425Y20577555D02*
G01*
X10992358Y20577555D01*
X11079479Y20668234D02*
G01*
X11097768Y20677378D01*
X11124945Y20704810D01*
X11124945Y20513802D01*
X16832834Y20677378D02*
G01*
X16814545Y20695666D01*
X16787368Y20704810D01*
X16751045Y20704810D01*
X16723613Y20695666D01*
X16705579Y20677378D01*
X16705579Y20659344D01*
X16714470Y20641055D01*
X16723613Y20631912D01*
X16741902Y20623021D01*
X16796511Y20604734D01*
X16814545Y20595589D01*
X16823690Y20586445D01*
X16832834Y20568412D01*
X16832834Y20540979D01*
X16814545Y20522945D01*
X16787368Y20513802D01*
X16751045Y20513802D01*
X16723613Y20522945D01*
X16705579Y20540979D01*
X16956531Y20704810D02*
G01*
X16956531Y20513802D01*
X16892777Y20704810D02*
G01*
X17020031Y20704810D01*
X17152874Y20704810D02*
G01*
X17079975Y20513802D01*
X17152874Y20704810D02*
G01*
X17225518Y20513802D01*
X17107408Y20577555D02*
G01*
X17198340Y20577555D01*
X17285461Y20704810D02*
G01*
X17285461Y20513802D01*
X17285461Y20704810D02*
G01*
X17358106Y20513802D01*
X17431004Y20704810D02*
G01*
X17358106Y20513802D01*
X17431004Y20704810D02*
G01*
X17431004Y20513802D01*
X17490948Y20704810D02*
G01*
X17490948Y20513802D01*
X17490948Y20704810D02*
G01*
X17572736Y20704810D01*
X17600168Y20695666D01*
X17609058Y20686521D01*
X17618202Y20668234D01*
X17618202Y20641055D01*
X17609058Y20623021D01*
X17600168Y20613878D01*
X17572736Y20604734D01*
X17490948Y20604734D01*
X17818354Y20704810D02*
G01*
X17818354Y20513802D01*
X17818354Y20704810D02*
G01*
X17900141Y20704810D01*
X17927320Y20695666D01*
X17936463Y20686521D01*
X17945608Y20668234D01*
X17945608Y20650200D01*
X17936463Y20631912D01*
X17927320Y20623021D01*
X17900141Y20613878D01*
X17818354Y20613878D02*
G01*
X17900141Y20613878D01*
X17927320Y20604734D01*
X17936463Y20595589D01*
X17945608Y20577555D01*
X17945608Y20550124D01*
X17936463Y20532089D01*
X17927320Y20522945D01*
X17900141Y20513802D01*
X17818354Y20513802D01*
X18005552Y20668234D02*
G01*
X18023586Y20677378D01*
X18051018Y20704810D01*
X18051018Y20513802D01*
X9888727Y14327378D02*
G01*
X9870440Y14345666D01*
X9843261Y14354810D01*
X9806940Y14354810D01*
X9779508Y14345666D01*
X9761474Y14327378D01*
X9761474Y14309344D01*
X9770363Y14291055D01*
X9779508Y14281912D01*
X9797795Y14273021D01*
X9852406Y14254734D01*
X9870440Y14245589D01*
X9879584Y14236445D01*
X9888727Y14218412D01*
X9888727Y14190979D01*
X9870440Y14172945D01*
X9843261Y14163802D01*
X9806940Y14163802D01*
X9779508Y14172945D01*
X9761474Y14190979D01*
X10012425Y14354810D02*
G01*
X10012425Y14163802D01*
X9948672Y14354810D02*
G01*
X10075925Y14354810D01*
X10208768Y14354810D02*
G01*
X10135870Y14163802D01*
X10208768Y14354810D02*
G01*
X10281411Y14163802D01*
X10163302Y14227555D02*
G01*
X10254234Y14227555D01*
X10341356Y14354810D02*
G01*
X10341356Y14163802D01*
X10341356Y14354810D02*
G01*
X10414000Y14163802D01*
X10486897Y14354810D02*
G01*
X10414000Y14163802D01*
X10486897Y14354810D02*
G01*
X10486897Y14163802D01*
X10546841Y14354810D02*
G01*
X10546841Y14163802D01*
X10546841Y14354810D02*
G01*
X10628629Y14354810D01*
X10656061Y14345666D01*
X10664952Y14336521D01*
X10674095Y14318234D01*
X10674095Y14291055D01*
X10664952Y14273021D01*
X10656061Y14263878D01*
X10628629Y14254734D01*
X10546841Y14254734D01*
X10946891Y14354810D02*
G01*
X10874247Y14163802D01*
X10946891Y14354810D02*
G01*
X11019536Y14163802D01*
X10901425Y14227555D02*
G01*
X10992358Y14227555D01*
X11088624Y14309344D02*
G01*
X11088624Y14318234D01*
X11097768Y14336521D01*
X11106911Y14345666D01*
X11124945Y14354810D01*
X11161522Y14354810D01*
X11179556Y14345666D01*
X11188700Y14336521D01*
X11197843Y14318234D01*
X11197843Y14300200D01*
X11188700Y14281912D01*
X11170411Y14254734D01*
X11079479Y14163802D01*
X11206734Y14163802D01*
X16832834Y14327378D02*
G01*
X16814545Y14345666D01*
X16787368Y14354810D01*
X16751045Y14354810D01*
X16723613Y14345666D01*
X16705579Y14327378D01*
X16705579Y14309344D01*
X16714470Y14291055D01*
X16723613Y14281912D01*
X16741902Y14273021D01*
X16796511Y14254734D01*
X16814545Y14245589D01*
X16823690Y14236445D01*
X16832834Y14218412D01*
X16832834Y14190979D01*
X16814545Y14172945D01*
X16787368Y14163802D01*
X16751045Y14163802D01*
X16723613Y14172945D01*
X16705579Y14190979D01*
X16956531Y14354810D02*
G01*
X16956531Y14163802D01*
X16892777Y14354810D02*
G01*
X17020031Y14354810D01*
X17152874Y14354810D02*
G01*
X17079975Y14163802D01*
X17152874Y14354810D02*
G01*
X17225518Y14163802D01*
X17107408Y14227555D02*
G01*
X17198340Y14227555D01*
X17285461Y14354810D02*
G01*
X17285461Y14163802D01*
X17285461Y14354810D02*
G01*
X17358106Y14163802D01*
X17431004Y14354810D02*
G01*
X17358106Y14163802D01*
X17431004Y14354810D02*
G01*
X17431004Y14163802D01*
X17490948Y14354810D02*
G01*
X17490948Y14163802D01*
X17490948Y14354810D02*
G01*
X17572736Y14354810D01*
X17600168Y14345666D01*
X17609058Y14336521D01*
X17618202Y14318234D01*
X17618202Y14291055D01*
X17609058Y14273021D01*
X17600168Y14263878D01*
X17572736Y14254734D01*
X17490948Y14254734D01*
X17818354Y14354810D02*
G01*
X17818354Y14163802D01*
X17818354Y14354810D02*
G01*
X17900141Y14354810D01*
X17927320Y14345666D01*
X17936463Y14336521D01*
X17945608Y14318234D01*
X17945608Y14300200D01*
X17936463Y14281912D01*
X17927320Y14273021D01*
X17900141Y14263878D01*
X17818354Y14263878D02*
G01*
X17900141Y14263878D01*
X17927320Y14254734D01*
X17936463Y14245589D01*
X17945608Y14227555D01*
X17945608Y14200124D01*
X17936463Y14182089D01*
X17927320Y14172945D01*
X17900141Y14163802D01*
X17818354Y14163802D01*
X18014695Y14309344D02*
G01*
X18014695Y14318234D01*
X18023586Y14336521D01*
X18032729Y14345666D01*
X18051018Y14354810D01*
X18087340Y14354810D01*
X18105627Y14345666D01*
X18114518Y14336521D01*
X18123661Y14318234D01*
X18123661Y14300200D01*
X18114518Y14281912D01*
X18096484Y14254734D01*
X18005552Y14163802D01*
X18132806Y14163802D01*
X9271000Y354329D02*
G01*
X9271000Y163321D01*
X9271000Y354329D02*
G01*
X9352788Y354329D01*
X9379965Y345186D01*
X9389109Y336042D01*
X9398254Y317754D01*
X9398254Y290576D01*
X9389109Y272287D01*
X9379965Y263397D01*
X9352788Y254254D01*
X9271000Y254254D01*
X9458197Y354329D02*
G01*
X9458197Y163321D01*
X9458197Y354329D02*
G01*
X9539986Y354329D01*
X9567418Y345186D01*
X9576561Y336042D01*
X9585452Y317754D01*
X9585452Y299720D01*
X9576561Y281431D01*
X9567418Y272287D01*
X9539986Y263397D01*
X9458197Y263397D01*
X9521952Y263397D02*
G01*
X9585452Y163321D01*
X9700006Y354329D02*
G01*
X9681972Y345186D01*
X9663684Y326897D01*
X9654540Y308863D01*
X9645650Y281431D01*
X9645650Y235965D01*
X9654540Y208787D01*
X9663684Y190500D01*
X9681972Y172465D01*
X9700006Y163321D01*
X9736327Y163321D01*
X9754615Y172465D01*
X9772904Y190500D01*
X9781793Y208787D01*
X9790938Y235965D01*
X9790938Y281431D01*
X9781793Y308863D01*
X9772904Y326897D01*
X9754615Y345186D01*
X9736327Y354329D01*
X9700006Y354329D01*
X9914636Y354329D02*
G01*
X9914636Y163321D01*
X9850881Y354329D02*
G01*
X9978390Y354329D01*
X10092690Y354329D02*
G01*
X10074656Y345186D01*
X10056368Y326897D01*
X10047477Y308863D01*
X10038334Y281431D01*
X10038334Y235965D01*
X10047477Y208787D01*
X10056368Y190500D01*
X10074656Y172465D01*
X10092690Y163321D01*
X10129265Y163321D01*
X10147300Y172465D01*
X10165588Y190500D01*
X10174731Y208787D01*
X10183622Y235965D01*
X10183622Y281431D01*
X10174731Y308863D01*
X10165588Y326897D01*
X10147300Y345186D01*
X10129265Y354329D01*
X10092690Y354329D01*
X10243820Y354329D02*
G01*
X10243820Y163321D01*
X10243820Y354329D02*
G01*
X10371074Y163321D01*
X10371074Y354329D02*
G01*
X10371074Y163321D01*
X10431018Y354329D02*
G01*
X10431018Y163321D01*
X10431018Y354329D02*
G01*
X10549127Y354329D01*
X10431018Y263397D02*
G01*
X10503661Y263397D01*
X10431018Y163321D02*
G01*
X10549127Y163321D01*
X10609072Y354329D02*
G01*
X10609072Y163321D01*
X10609072Y354329D02*
G01*
X10681970Y163321D01*
X10754613Y354329D02*
G01*
X10681970Y163321D01*
X10754613Y354329D02*
G01*
X10754613Y163321D01*
X10887456Y354329D02*
G01*
X10814558Y163321D01*
X10887456Y354329D02*
G01*
X10960100Y163321D01*
X10841990Y226821D02*
G01*
X10932922Y226821D01*
X11159997Y354329D02*
G01*
X11159997Y163321D01*
X11159997Y354329D02*
G01*
X11278361Y354329D01*
X11159997Y263397D02*
G01*
X11232895Y263397D01*
X11159997Y163321D02*
G01*
X11278361Y163321D01*
X11338306Y354329D02*
G01*
X11338306Y163321D01*
X11338306Y163321D02*
G01*
X11447272Y163321D01*
X11507470Y354329D02*
G01*
X11507470Y163321D01*
X11507470Y354329D02*
G01*
X11625579Y354329D01*
X11507470Y263397D02*
G01*
X11580113Y263397D01*
X11507470Y163321D02*
G01*
X11625579Y163321D01*
X11821922Y308863D02*
G01*
X11812777Y326897D01*
X11794743Y345186D01*
X11776456Y354329D01*
X11740134Y354329D01*
X11721845Y345186D01*
X11703811Y326897D01*
X11694668Y308863D01*
X11685524Y281431D01*
X11685524Y235965D01*
X11694668Y208787D01*
X11703811Y190500D01*
X11721845Y172465D01*
X11740134Y163321D01*
X11776456Y163321D01*
X11794743Y172465D01*
X11812777Y190500D01*
X11821922Y208787D01*
X11945620Y354329D02*
G01*
X11945620Y163321D01*
X11881865Y354329D02*
G01*
X12009120Y354329D01*
X12123674Y354329D02*
G01*
X12105640Y345186D01*
X12087352Y326897D01*
X12078208Y308863D01*
X12069063Y281431D01*
X12069063Y235965D01*
X12078208Y208787D01*
X12087352Y190500D01*
X12105640Y172465D01*
X12123674Y163321D01*
X12159995Y163321D01*
X12178284Y172465D01*
X12196572Y190500D01*
X12205461Y208787D01*
X12214606Y235965D01*
X12214606Y281431D01*
X12205461Y308863D01*
X12196572Y326897D01*
X12178284Y345186D01*
X12159995Y354329D01*
X12123674Y354329D01*
X12274550Y354329D02*
G01*
X12274550Y163321D01*
X12274550Y354329D02*
G01*
X12356338Y354329D01*
X12383770Y345186D01*
X12392913Y336042D01*
X12401804Y317754D01*
X12401804Y299720D01*
X12392913Y281431D01*
X12383770Y272287D01*
X12356338Y263397D01*
X12274550Y263397D01*
X12338304Y263397D02*
G01*
X12401804Y163321D01*
X12462002Y354329D02*
G01*
X12462002Y163321D01*
X12462002Y354329D02*
G01*
X12589256Y163321D01*
X12589256Y354329D02*
G01*
X12589256Y163321D01*
X12649200Y354329D02*
G01*
X12649200Y163321D01*
X12845541Y308863D02*
G01*
X12836397Y326897D01*
X12818363Y345186D01*
X12800075Y354329D01*
X12763754Y354329D01*
X12745465Y345186D01*
X12727431Y326897D01*
X12718288Y308863D01*
X12709143Y281431D01*
X12709143Y235965D01*
X12718288Y208787D01*
X12727431Y190500D01*
X12745465Y172465D01*
X12763754Y163321D01*
X12800075Y163321D01*
X12818363Y172465D01*
X12836397Y190500D01*
X12845541Y208787D01*
X13032740Y326897D02*
G01*
X13014706Y345186D01*
X12987274Y354329D01*
X12950952Y354329D01*
X12923774Y345186D01*
X12905486Y326897D01*
X12905486Y308863D01*
X12914629Y290576D01*
X12923774Y281431D01*
X12941808Y272287D01*
X12996418Y254254D01*
X13014706Y245110D01*
X13023595Y235965D01*
X13032740Y217931D01*
X13032740Y190500D01*
X13014706Y172465D01*
X12987274Y163321D01*
X12950952Y163321D01*
X12923774Y172465D01*
X12905486Y190500D01*
X13232891Y354329D02*
G01*
X13232891Y163321D01*
X13232891Y354329D02*
G01*
X13314679Y354329D01*
X13341858Y345186D01*
X13351002Y336042D01*
X13360145Y317754D01*
X13360145Y290576D01*
X13351002Y272287D01*
X13341858Y263397D01*
X13314679Y254254D01*
X13232891Y254254D01*
X13420090Y354329D02*
G01*
X13420090Y163321D01*
X13420090Y354329D02*
G01*
X13501877Y354329D01*
X13529056Y345186D01*
X13538200Y336042D01*
X13547343Y317754D01*
X13547343Y299720D01*
X13538200Y281431D01*
X13529056Y272287D01*
X13501877Y263397D01*
X13420090Y263397D01*
X13483843Y263397D02*
G01*
X13547343Y163321D01*
X13661897Y354329D02*
G01*
X13643609Y345186D01*
X13625575Y326897D01*
X13616431Y308863D01*
X13607288Y281431D01*
X13607288Y235965D01*
X13616431Y208787D01*
X13625575Y190500D01*
X13643609Y172465D01*
X13661897Y163321D01*
X13698220Y163321D01*
X13716508Y172465D01*
X13734541Y190500D01*
X13743686Y208787D01*
X13752829Y235965D01*
X13752829Y281431D01*
X13743686Y308863D01*
X13734541Y326897D01*
X13716508Y345186D01*
X13698220Y354329D01*
X13661897Y354329D01*
X13876527Y354329D02*
G01*
X13876527Y163321D01*
X13812774Y354329D02*
G01*
X13940027Y354329D01*
X14054581Y354329D02*
G01*
X14036547Y345186D01*
X14018259Y326897D01*
X14009116Y308863D01*
X13999972Y281431D01*
X13999972Y235965D01*
X14009116Y208787D01*
X14018259Y190500D01*
X14036547Y172465D01*
X14054581Y163321D01*
X14090904Y163321D01*
X14109191Y172465D01*
X14127479Y190500D01*
X14136370Y208787D01*
X14145513Y235965D01*
X14145513Y281431D01*
X14136370Y308863D01*
X14127479Y326897D01*
X14109191Y345186D01*
X14090904Y354329D01*
X14054581Y354329D01*
X14269211Y354329D02*
G01*
X14269211Y163321D01*
X14205458Y354329D02*
G01*
X14332711Y354329D01*
X14392909Y354329D02*
G01*
X14465554Y263397D01*
X14465554Y163321D01*
X14538197Y354329D02*
G01*
X14465554Y263397D01*
X14598141Y354329D02*
G01*
X14598141Y163321D01*
X14598141Y354329D02*
G01*
X14680184Y354329D01*
X14707361Y345186D01*
X14716506Y336042D01*
X14725650Y317754D01*
X14725650Y290576D01*
X14716506Y272287D01*
X14707361Y263397D01*
X14680184Y254254D01*
X14598141Y254254D01*
X14785593Y354329D02*
G01*
X14785593Y163321D01*
X14845538Y354329D02*
G01*
X14845538Y163321D01*
X14845538Y354329D02*
G01*
X14972791Y163321D01*
X14972791Y354329D02*
G01*
X14972791Y163321D01*
X15169134Y308863D02*
G01*
X15159990Y326897D01*
X15141956Y345186D01*
X15123668Y354329D01*
X15087345Y354329D01*
X15069058Y345186D01*
X15051024Y326897D01*
X15041879Y308863D01*
X15032736Y281431D01*
X15032736Y235965D01*
X15041879Y208787D01*
X15051024Y190500D01*
X15069058Y172465D01*
X15087345Y163321D01*
X15123668Y163321D01*
X15141956Y172465D01*
X15159990Y190500D01*
X15169134Y208787D01*
X15169134Y235965D01*
X15123668Y235965D02*
G01*
X15169134Y235965D01*
X15441929Y354329D02*
G01*
X15369286Y163321D01*
X15441929Y354329D02*
G01*
X15514574Y163321D01*
X15396463Y226821D02*
G01*
X15487395Y226821D01*
X15574518Y354329D02*
G01*
X15574518Y163321D01*
X15574518Y354329D02*
G01*
X15701772Y163321D01*
X15701772Y354329D02*
G01*
X15701772Y163321D01*
X15761970Y354329D02*
G01*
X15761970Y163321D01*
X15761970Y354329D02*
G01*
X15825470Y354329D01*
X15852902Y345186D01*
X15870936Y326897D01*
X15880079Y308863D01*
X15889224Y281431D01*
X15889224Y235965D01*
X15880079Y208787D01*
X15870936Y190500D01*
X15852902Y172465D01*
X15825470Y163321D01*
X15761970Y163321D01*
X16089122Y354329D02*
G01*
X16089122Y163321D01*
X16089122Y163321D02*
G01*
X16198341Y163321D01*
X16258286Y354329D02*
G01*
X16258286Y163321D01*
X16258286Y354329D02*
G01*
X16376395Y354329D01*
X16258286Y263397D02*
G01*
X16330929Y263397D01*
X16258286Y163321D02*
G01*
X16376395Y163321D01*
X16509238Y354329D02*
G01*
X16436340Y163321D01*
X16509238Y354329D02*
G01*
X16581881Y163321D01*
X16463772Y226821D02*
G01*
X16554704Y226821D01*
X16641825Y354329D02*
G01*
X16641825Y163321D01*
X16641825Y354329D02*
G01*
X16723613Y354329D01*
X16751045Y345186D01*
X16760190Y336042D01*
X16769079Y317754D01*
X16769079Y299720D01*
X16760190Y281431D01*
X16751045Y272287D01*
X16723613Y263397D01*
X16641825Y263397D01*
X16705579Y263397D02*
G01*
X16769079Y163321D01*
X16829277Y354329D02*
G01*
X16829277Y163321D01*
X16829277Y354329D02*
G01*
X16956531Y163321D01*
X16956531Y354329D02*
G01*
X16956531Y163321D01*
X17016475Y354329D02*
G01*
X17016475Y163321D01*
X17076420Y354329D02*
G01*
X17076420Y163321D01*
X17076420Y354329D02*
G01*
X17203674Y163321D01*
X17203674Y354329D02*
G01*
X17203674Y163321D01*
X17400016Y308863D02*
G01*
X17390872Y326897D01*
X17372838Y345186D01*
X17354550Y354329D01*
X17318227Y354329D01*
X17300193Y345186D01*
X17281906Y326897D01*
X17272761Y308863D01*
X17263618Y281431D01*
X17263618Y235965D01*
X17272761Y208787D01*
X17281906Y190500D01*
X17300193Y172465D01*
X17318227Y163321D01*
X17354550Y163321D01*
X17372838Y172465D01*
X17390872Y190500D01*
X17400016Y208787D01*
X17400016Y235965D01*
X17354550Y235965D02*
G01*
X17400016Y235965D01*
X17727422Y326897D02*
G01*
X17709134Y345186D01*
X17681956Y354329D01*
X17645634Y354329D01*
X17618202Y345186D01*
X17600168Y326897D01*
X17600168Y308863D01*
X17609058Y290576D01*
X17618202Y281431D01*
X17636490Y272287D01*
X17691100Y254254D01*
X17709134Y245110D01*
X17718277Y235965D01*
X17727422Y217931D01*
X17727422Y190500D01*
X17709134Y172465D01*
X17681956Y163321D01*
X17645634Y163321D01*
X17618202Y172465D01*
X17600168Y190500D01*
X17787366Y354329D02*
G01*
X17860009Y263397D01*
X17860009Y163321D01*
X17932908Y354329D02*
G01*
X17860009Y263397D01*
X18120106Y326897D02*
G01*
X18101818Y345186D01*
X18074640Y354329D01*
X18038318Y354329D01*
X18010886Y345186D01*
X17992852Y326897D01*
X17992852Y308863D01*
X18001995Y290576D01*
X18010886Y281431D01*
X18029174Y272287D01*
X18083784Y254254D01*
X18101818Y245110D01*
X18110961Y235965D01*
X18120106Y217931D01*
X18120106Y190500D01*
X18101818Y172465D01*
X18074640Y163321D01*
X18038318Y163321D01*
X18010886Y172465D01*
X17992852Y190500D01*
X18243804Y354329D02*
G01*
X18243804Y163321D01*
X18180050Y354329D02*
G01*
X18307304Y354329D01*
X18367248Y354329D02*
G01*
X18367248Y163321D01*
X18367248Y354329D02*
G01*
X18485611Y354329D01*
X18367248Y263397D02*
G01*
X18440145Y263397D01*
X18367248Y163321D02*
G01*
X18485611Y163321D01*
X18545556Y354329D02*
G01*
X18545556Y163321D01*
X18545556Y354329D02*
G01*
X18618200Y163321D01*
X18691098Y354329D02*
G01*
X18618200Y163321D01*
X18691098Y354329D02*
G01*
X18691098Y163321D01*
D10*
X11852909Y20771358D02*
G01*
X11852909Y20683981D01*
X11847322Y20667726D01*
X11841988Y20662137D01*
X11831065Y20656804D01*
X11820143Y20656804D01*
X11809222Y20662137D01*
X11803634Y20667726D01*
X11798300Y20683981D01*
X11798300Y20694904D01*
X11888724Y20749513D02*
G01*
X11899645Y20754848D01*
X11916156Y20771358D01*
X11916156Y20656804D01*
X12863829Y16674337D02*
G01*
X12863829Y16586962D01*
X12858495Y16570705D01*
X12852908Y16565118D01*
X12842240Y16559784D01*
X12831318Y16559784D01*
X12820395Y16565118D01*
X12814808Y16570705D01*
X12809474Y16586962D01*
X12809474Y16597884D01*
X12910820Y16674337D02*
G01*
X12970763Y16674337D01*
X12937997Y16630650D01*
X12954508Y16630650D01*
X12965429Y16625316D01*
X12970763Y16619728D01*
X12976352Y16603471D01*
X12976352Y16592550D01*
X12970763Y16576039D01*
X12959841Y16565118D01*
X12943586Y16559784D01*
X12927329Y16559784D01*
X12910820Y16565118D01*
X12905486Y16570705D01*
X12899897Y16581628D01*
X8545829Y15912337D02*
G01*
X8545829Y15824962D01*
X8540495Y15808705D01*
X8534908Y15803118D01*
X8524240Y15797784D01*
X8513318Y15797784D01*
X8502395Y15803118D01*
X8496808Y15808705D01*
X8491474Y15824962D01*
X8491474Y15835884D01*
X8636508Y15912337D02*
G01*
X8581897Y15835884D01*
X8663686Y15835884D01*
X8636508Y15912337D02*
G01*
X8636508Y15797784D01*
X11827509Y14421357D02*
G01*
X11827509Y14333981D01*
X11821922Y14317726D01*
X11816588Y14312137D01*
X11805665Y14306804D01*
X11794743Y14306804D01*
X11783822Y14312137D01*
X11778234Y14317726D01*
X11772900Y14333981D01*
X11772900Y14344904D01*
X11928856Y14421357D02*
G01*
X11874245Y14421357D01*
X11868911Y14372081D01*
X11874245Y14377670D01*
X11890756Y14383004D01*
X11907011Y14383004D01*
X11923522Y14377670D01*
X11934443Y14366747D01*
X11939777Y14350492D01*
X11939777Y14339570D01*
X11934443Y14323060D01*
X11923522Y14312137D01*
X11907011Y14306804D01*
X11890756Y14306804D01*
X11874245Y14312137D01*
X11868911Y14317726D01*
X11863324Y14328647D01*
X7783829Y13880337D02*
G01*
X7783829Y13792962D01*
X7778495Y13776705D01*
X7772908Y13771118D01*
X7762240Y13765784D01*
X7751318Y13765784D01*
X7740395Y13771118D01*
X7734808Y13776705D01*
X7729474Y13792962D01*
X7729474Y13803884D01*
X7885429Y13863828D02*
G01*
X7879841Y13874750D01*
X7863586Y13880337D01*
X7852663Y13880337D01*
X7836408Y13874750D01*
X7825486Y13858494D01*
X7819897Y13831316D01*
X7819897Y13803884D01*
X7825486Y13782039D01*
X7836408Y13771118D01*
X7852663Y13765784D01*
X7857997Y13765784D01*
X7874508Y13771118D01*
X7885429Y13782039D01*
X7890763Y13798550D01*
X7890763Y13803884D01*
X7885429Y13820394D01*
X7874508Y13831316D01*
X7857997Y13836650D01*
X7852663Y13836650D01*
X7836408Y13831316D01*
X7825486Y13820394D01*
X7819897Y13803884D01*
X8545829Y9562337D02*
G01*
X8545829Y9474962D01*
X8540495Y9458705D01*
X8534908Y9453118D01*
X8524240Y9447784D01*
X8513318Y9447784D01*
X8502395Y9453118D01*
X8496808Y9458705D01*
X8491474Y9474962D01*
X8491474Y9485884D01*
X8609329Y9562337D02*
G01*
X8592820Y9556750D01*
X8587486Y9545828D01*
X8587486Y9534905D01*
X8592820Y9524237D01*
X8603741Y9518650D01*
X8625586Y9513315D01*
X8641841Y9507728D01*
X8652763Y9496805D01*
X8658352Y9485884D01*
X8658352Y9469628D01*
X8652763Y9458705D01*
X8647429Y9453118D01*
X8630920Y9447784D01*
X8609329Y9447784D01*
X8592820Y9453118D01*
X8587486Y9458705D01*
X8581897Y9469628D01*
X8581897Y9485884D01*
X8587486Y9496805D01*
X8598408Y9507728D01*
X8614663Y9513315D01*
X8636508Y9518650D01*
X8647429Y9524237D01*
X8652763Y9534905D01*
X8652763Y9545828D01*
X8647429Y9556750D01*
X8630920Y9562337D01*
X8609329Y9562337D01*
X11852909Y8071358D02*
G01*
X11852909Y7983981D01*
X11847322Y7967726D01*
X11841988Y7962137D01*
X11831065Y7956804D01*
X11820143Y7956804D01*
X11809222Y7962137D01*
X11803634Y7967726D01*
X11798300Y7983981D01*
X11798300Y7994904D01*
X11959843Y8033004D02*
G01*
X11954256Y8016747D01*
X11943334Y8005826D01*
X11927077Y8000492D01*
X11921490Y8000492D01*
X11905234Y8005826D01*
X11894311Y8016747D01*
X11888724Y8033004D01*
X11888724Y8038592D01*
X11894311Y8054847D01*
X11905234Y8065770D01*
X11921490Y8071358D01*
X11927077Y8071358D01*
X11943334Y8065770D01*
X11954256Y8054847D01*
X11959843Y8033004D01*
X11959843Y8005826D01*
X11954256Y7978647D01*
X11943334Y7962137D01*
X11927077Y7956804D01*
X11916156Y7956804D01*
X11899645Y7962137D01*
X11894311Y7973060D01*
X7783829Y7530337D02*
G01*
X7783829Y7442962D01*
X7778495Y7426705D01*
X7772908Y7421118D01*
X7762240Y7415784D01*
X7751318Y7415784D01*
X7740395Y7421118D01*
X7734808Y7426705D01*
X7729474Y7442962D01*
X7729474Y7453884D01*
X7819897Y7508494D02*
G01*
X7830820Y7513828D01*
X7847329Y7530337D01*
X7847329Y7415784D01*
X7915909Y7530337D02*
G01*
X7899654Y7524750D01*
X7888731Y7508494D01*
X7883143Y7481315D01*
X7883143Y7464805D01*
X7888731Y7437628D01*
X7899654Y7421118D01*
X7915909Y7415784D01*
X7926831Y7415784D01*
X7943341Y7421118D01*
X7954009Y7437628D01*
X7959597Y7464805D01*
X7959597Y7481315D01*
X7954009Y7508494D01*
X7943341Y7524750D01*
X7926831Y7530337D01*
X7915909Y7530337D01*
X8545829Y3212337D02*
G01*
X8545829Y3124962D01*
X8540495Y3108705D01*
X8534908Y3103118D01*
X8524240Y3097784D01*
X8513318Y3097784D01*
X8502395Y3103118D01*
X8496808Y3108705D01*
X8491474Y3124962D01*
X8491474Y3135884D01*
X8581897Y3190494D02*
G01*
X8592820Y3195828D01*
X8609329Y3212337D01*
X8609329Y3097784D01*
X8650731Y3184905D02*
G01*
X8650731Y3190494D01*
X8656065Y3201415D01*
X8661654Y3206750D01*
X8672575Y3212337D01*
X8694420Y3212337D01*
X8705341Y3206750D01*
X8710675Y3201415D01*
X8716009Y3190494D01*
X8716009Y3179571D01*
X8710675Y3168650D01*
X8699754Y3152394D01*
X8645143Y3097784D01*
X8721597Y3097784D01*
X18723609Y20771358D02*
G01*
X18723609Y20683981D01*
X18718022Y20667726D01*
X18712688Y20662137D01*
X18701766Y20656804D01*
X18690843Y20656804D01*
X18679922Y20662137D01*
X18674334Y20667726D01*
X18669000Y20683981D01*
X18669000Y20694904D01*
X18759424Y20749513D02*
G01*
X18770345Y20754848D01*
X18786856Y20771358D01*
X18786856Y20656804D01*
X18833845Y20771358D02*
G01*
X18893790Y20771358D01*
X18861024Y20727670D01*
X18877279Y20727670D01*
X18888202Y20722081D01*
X18893790Y20716748D01*
X18899124Y20700492D01*
X18899124Y20689570D01*
X18893790Y20673060D01*
X18882868Y20662137D01*
X18866358Y20656804D01*
X18850102Y20656804D01*
X18833845Y20662137D01*
X18828258Y20667726D01*
X18822924Y20678648D01*
X19807936Y16674337D02*
G01*
X19807936Y16586962D01*
X19802602Y16570705D01*
X19797013Y16565118D01*
X19786345Y16559784D01*
X19775424Y16559784D01*
X19764502Y16565118D01*
X19758913Y16570705D01*
X19753579Y16586962D01*
X19753579Y16597884D01*
X19844004Y16652494D02*
G01*
X19854925Y16657828D01*
X19871436Y16674337D01*
X19871436Y16559784D01*
X19972781Y16674337D02*
G01*
X19918172Y16674337D01*
X19912838Y16625316D01*
X19918172Y16630650D01*
X19934681Y16636237D01*
X19950938Y16636237D01*
X19967448Y16630650D01*
X19978116Y16619728D01*
X19983704Y16603471D01*
X19983704Y16592550D01*
X19978116Y16576039D01*
X19967448Y16565118D01*
X19950938Y16559784D01*
X19934681Y16559784D01*
X19918172Y16565118D01*
X19912838Y16570705D01*
X19907250Y16581628D01*
X15489936Y15912337D02*
G01*
X15489936Y15824962D01*
X15484602Y15808705D01*
X15479013Y15803118D01*
X15468345Y15797784D01*
X15457424Y15797784D01*
X15446502Y15803118D01*
X15440913Y15808705D01*
X15435579Y15824962D01*
X15435579Y15835884D01*
X15526004Y15890494D02*
G01*
X15536925Y15895828D01*
X15553436Y15912337D01*
X15553436Y15797784D01*
X15654781Y15895828D02*
G01*
X15649447Y15906750D01*
X15632938Y15912337D01*
X15622016Y15912337D01*
X15605759Y15906750D01*
X15594838Y15890494D01*
X15589250Y15863316D01*
X15589250Y15835884D01*
X15594838Y15814039D01*
X15605759Y15803118D01*
X15622016Y15797784D01*
X15627604Y15797784D01*
X15643859Y15803118D01*
X15654781Y15814039D01*
X15660116Y15830550D01*
X15660116Y15835884D01*
X15654781Y15852394D01*
X15643859Y15863316D01*
X15627604Y15868650D01*
X15622016Y15868650D01*
X15605759Y15863316D01*
X15594838Y15852394D01*
X15589250Y15835884D01*
X18674079Y14421357D02*
G01*
X18674079Y14333981D01*
X18668491Y14317726D01*
X18663158Y14312137D01*
X18652236Y14306804D01*
X18641313Y14306804D01*
X18630391Y14312137D01*
X18625058Y14317726D01*
X18619470Y14333981D01*
X18619470Y14344904D01*
X18710148Y14399513D02*
G01*
X18721070Y14404847D01*
X18737325Y14421357D01*
X18737325Y14306804D01*
X18849593Y14421357D02*
G01*
X18795238Y14306804D01*
X18773393Y14421357D02*
G01*
X18849593Y14421357D01*
X14727936Y13880337D02*
G01*
X14727936Y13792962D01*
X14722602Y13776705D01*
X14717013Y13771118D01*
X14706345Y13765784D01*
X14695424Y13765784D01*
X14684502Y13771118D01*
X14678913Y13776705D01*
X14673579Y13792962D01*
X14673579Y13803884D01*
X14764004Y13858494D02*
G01*
X14774925Y13863828D01*
X14791436Y13880337D01*
X14791436Y13765784D01*
X14854681Y13880337D02*
G01*
X14838172Y13874750D01*
X14832838Y13863828D01*
X14832838Y13852905D01*
X14838172Y13842237D01*
X14849093Y13836650D01*
X14870938Y13831316D01*
X14887447Y13825728D01*
X14898116Y13814805D01*
X14903704Y13803884D01*
X14903704Y13787628D01*
X14898116Y13776705D01*
X14892781Y13771118D01*
X14876525Y13765784D01*
X14854681Y13765784D01*
X14838172Y13771118D01*
X14832838Y13776705D01*
X14827250Y13787628D01*
X14827250Y13803884D01*
X14832838Y13814805D01*
X14843759Y13825728D01*
X14860016Y13831316D01*
X14881859Y13836650D01*
X14892781Y13842237D01*
X14898116Y13852905D01*
X14898116Y13863828D01*
X14892781Y13874750D01*
X14876525Y13880337D01*
X14854681Y13880337D01*
X15489936Y9562337D02*
G01*
X15489936Y9474962D01*
X15484602Y9458705D01*
X15479013Y9453118D01*
X15468345Y9447784D01*
X15457424Y9447784D01*
X15446502Y9453118D01*
X15440913Y9458705D01*
X15435579Y9474962D01*
X15435579Y9485884D01*
X15531591Y9534905D02*
G01*
X15531591Y9540494D01*
X15536925Y9551415D01*
X15542513Y9556750D01*
X15553436Y9562337D01*
X15575025Y9562337D01*
X15585947Y9556750D01*
X15591536Y9551415D01*
X15596870Y9540494D01*
X15596870Y9529571D01*
X15591536Y9518650D01*
X15580613Y9502394D01*
X15526004Y9447784D01*
X15602458Y9447784D01*
X15671038Y9562337D02*
G01*
X15654781Y9556750D01*
X15643859Y9540494D01*
X15638525Y9513315D01*
X15638525Y9496805D01*
X15643859Y9469628D01*
X15654781Y9453118D01*
X15671038Y9447784D01*
X15681959Y9447784D01*
X15698470Y9453118D01*
X15709391Y9469628D01*
X15714725Y9496805D01*
X15714725Y9513315D01*
X15709391Y9540494D01*
X15698470Y9556750D01*
X15681959Y9562337D01*
X15671038Y9562337D01*
X18698184Y8071358D02*
G01*
X18698184Y7983981D01*
X18692596Y7967726D01*
X18687262Y7962137D01*
X18676340Y7956804D01*
X18665418Y7956804D01*
X18654496Y7962137D01*
X18649162Y7967726D01*
X18643574Y7983981D01*
X18643574Y7994904D01*
X18739586Y8043926D02*
G01*
X18739586Y8049513D01*
X18745174Y8060436D01*
X18750508Y8065770D01*
X18761430Y8071358D01*
X18783274Y8071358D01*
X18794196Y8065770D01*
X18799530Y8060436D01*
X18805118Y8049513D01*
X18805118Y8038592D01*
X18799530Y8027670D01*
X18788608Y8011413D01*
X18734252Y7956804D01*
X18810452Y7956804D01*
X18846520Y8049513D02*
G01*
X18857442Y8054847D01*
X18873698Y8071358D01*
X18873698Y7956804D01*
X14727936Y7530337D02*
G01*
X14727936Y7442962D01*
X14722602Y7426705D01*
X14717013Y7421118D01*
X14706345Y7415784D01*
X14695424Y7415784D01*
X14684502Y7421118D01*
X14678913Y7426705D01*
X14673579Y7442962D01*
X14673579Y7453884D01*
X14769591Y7502905D02*
G01*
X14769591Y7508494D01*
X14774925Y7519415D01*
X14780513Y7524750D01*
X14791436Y7530337D01*
X14813025Y7530337D01*
X14823947Y7524750D01*
X14829536Y7519415D01*
X14834870Y7508494D01*
X14834870Y7497571D01*
X14829536Y7486650D01*
X14818613Y7470394D01*
X14764004Y7415784D01*
X14840458Y7415784D01*
X14881859Y7502905D02*
G01*
X14881859Y7508494D01*
X14887447Y7519415D01*
X14892781Y7524750D01*
X14903704Y7530337D01*
X14925547Y7530337D01*
X14936470Y7524750D01*
X14941804Y7519415D01*
X14947391Y7508494D01*
X14947391Y7497571D01*
X14941804Y7486650D01*
X14930881Y7470394D01*
X14876525Y7415784D01*
X14952725Y7415784D01*
X15489936Y3212337D02*
G01*
X15489936Y3124962D01*
X15484602Y3108705D01*
X15479013Y3103118D01*
X15468345Y3097784D01*
X15457424Y3097784D01*
X15446502Y3103118D01*
X15440913Y3108705D01*
X15435579Y3124962D01*
X15435579Y3135884D01*
X15531591Y3184905D02*
G01*
X15531591Y3190494D01*
X15536925Y3201415D01*
X15542513Y3206750D01*
X15553436Y3212337D01*
X15575025Y3212337D01*
X15585947Y3206750D01*
X15591536Y3201415D01*
X15596870Y3190494D01*
X15596870Y3179571D01*
X15591536Y3168650D01*
X15580613Y3152394D01*
X15526004Y3097784D01*
X15602458Y3097784D01*
X15692881Y3212337D02*
G01*
X15638525Y3135884D01*
X15720313Y3135884D01*
X15692881Y3212337D02*
G01*
X15692881Y3097784D01*
X12863829Y3974337D02*
G01*
X12863829Y3886962D01*
X12858495Y3870705D01*
X12852908Y3865118D01*
X12842240Y3859784D01*
X12831318Y3859784D01*
X12820395Y3865118D01*
X12814808Y3870705D01*
X12809474Y3886962D01*
X12809474Y3897884D01*
X12899897Y3952494D02*
G01*
X12910820Y3957828D01*
X12927329Y3974337D01*
X12927329Y3859784D01*
X12963143Y3952494D02*
G01*
X12974065Y3957828D01*
X12990575Y3974337D01*
X12990575Y3859784D01*
X19807936Y3974337D02*
G01*
X19807936Y3886962D01*
X19802602Y3870705D01*
X19797013Y3865118D01*
X19786345Y3859784D01*
X19775424Y3859784D01*
X19764502Y3865118D01*
X19758913Y3870705D01*
X19753579Y3886962D01*
X19753579Y3897884D01*
X19849591Y3946905D02*
G01*
X19849591Y3952494D01*
X19854925Y3963415D01*
X19860513Y3968750D01*
X19871436Y3974337D01*
X19893025Y3974337D01*
X19903948Y3968750D01*
X19909536Y3963415D01*
X19914870Y3952494D01*
X19914870Y3941571D01*
X19909536Y3930650D01*
X19898613Y3914394D01*
X19844004Y3859784D01*
X19920458Y3859784D01*
X19967448Y3974337D02*
G01*
X20027391Y3974337D01*
X19994625Y3930650D01*
X20010881Y3930650D01*
X20021804Y3925315D01*
X20027391Y3919728D01*
X20032725Y3903471D01*
X20032725Y3892550D01*
X20027391Y3876039D01*
X20016470Y3865118D01*
X19999959Y3859784D01*
X19983704Y3859784D01*
X19967448Y3865118D01*
X19961859Y3870705D01*
X19956525Y3881628D01*
X19807936Y10324337D02*
G01*
X19807936Y10236962D01*
X19802602Y10220705D01*
X19797013Y10215118D01*
X19786345Y10209784D01*
X19775424Y10209784D01*
X19764502Y10215118D01*
X19758913Y10220705D01*
X19753579Y10236962D01*
X19753579Y10247884D01*
X19844004Y10302494D02*
G01*
X19854925Y10307828D01*
X19871436Y10324337D01*
X19871436Y10209784D01*
X19978116Y10286237D02*
G01*
X19972781Y10269728D01*
X19961859Y10258805D01*
X19945604Y10253471D01*
X19940016Y10253471D01*
X19923759Y10258805D01*
X19912838Y10269728D01*
X19907250Y10286237D01*
X19907250Y10291571D01*
X19912838Y10307828D01*
X19923759Y10318750D01*
X19940016Y10324337D01*
X19945604Y10324337D01*
X19961859Y10318750D01*
X19972781Y10307828D01*
X19978116Y10286237D01*
X19978116Y10258805D01*
X19972781Y10231628D01*
X19961859Y10215118D01*
X19945604Y10209784D01*
X19934681Y10209784D01*
X19918172Y10215118D01*
X19912838Y10226039D01*
X12863829Y10324337D02*
G01*
X12863829Y10236962D01*
X12858495Y10220705D01*
X12852908Y10215118D01*
X12842240Y10209784D01*
X12831318Y10209784D01*
X12820395Y10215118D01*
X12814808Y10220705D01*
X12809474Y10236962D01*
X12809474Y10247884D01*
X12976352Y10324337D02*
G01*
X12921741Y10209784D01*
X12899897Y10324337D02*
G01*
X12976352Y10324337D01*
D13*
X17791302Y21474937D02*
G01*
X17791302Y21379434D01*
X17759552Y21474937D02*
G01*
X17823306Y21474937D01*
X17853279Y21474937D02*
G01*
X17853279Y21379434D01*
X17853279Y21474937D02*
G01*
X17894173Y21474937D01*
X17907634Y21470366D01*
X17912206Y21465794D01*
X17916779Y21456904D01*
X17916779Y21443187D01*
X17912206Y21434044D01*
X17907634Y21429471D01*
X17894173Y21424900D01*
X17853279Y21424900D01*
X17946750Y21456904D02*
G01*
X17955895Y21461476D01*
X17969611Y21474937D01*
X17969611Y21379434D01*
X18188431Y21266658D02*
G01*
X18133822Y21266658D01*
X18128234Y21217381D01*
X18133822Y21222970D01*
X18150077Y21228304D01*
X18166588Y21228304D01*
X18182843Y21222970D01*
X18193766Y21212048D01*
X18199354Y21195792D01*
X18199354Y21184870D01*
X18193766Y21168360D01*
X18182843Y21157437D01*
X18166588Y21152104D01*
X18150077Y21152104D01*
X18133822Y21157437D01*
X18128234Y21163026D01*
X18122900Y21173948D01*
X18235168Y21266658D02*
G01*
X18278856Y21152104D01*
X18322543Y21266658D02*
G01*
X18278856Y21152104D01*
X19106522Y21239226D02*
G01*
X19100934Y21250148D01*
X19090012Y21261070D01*
X19079090Y21266658D01*
X19057246Y21266658D01*
X19046324Y21261070D01*
X19035402Y21250148D01*
X19030068Y21239226D01*
X19024480Y21222970D01*
X19024480Y21195792D01*
X19030068Y21179281D01*
X19035402Y21168360D01*
X19046324Y21157437D01*
X19057246Y21152104D01*
X19079090Y21152104D01*
X19090012Y21157437D01*
X19100934Y21168360D01*
X19106522Y21179281D01*
X19106522Y21195792D01*
X19079090Y21195792D02*
G01*
X19106522Y21195792D01*
X19142336Y21266658D02*
G01*
X19142336Y21152104D01*
X19142336Y21266658D02*
G01*
X19218790Y21152104D01*
X19218790Y21266658D02*
G01*
X19218790Y21152104D01*
X19254858Y21266658D02*
G01*
X19254858Y21152104D01*
X19254858Y21266658D02*
G01*
X19292958Y21266658D01*
X19309214Y21261070D01*
X19320136Y21250148D01*
X19325724Y21239226D01*
X19331058Y21222970D01*
X19331058Y21195792D01*
X19325724Y21179281D01*
X19320136Y21168360D01*
X19309214Y21157437D01*
X19292958Y21152104D01*
X19254858Y21152104D01*
X18731237Y21474937D02*
G01*
X18731237Y21379434D01*
X18699233Y21474937D02*
G01*
X18762987Y21474937D01*
X18792959Y21474937D02*
G01*
X18792959Y21379434D01*
X18792959Y21474937D02*
G01*
X18833853Y21474937D01*
X18847569Y21470366D01*
X18852141Y21465794D01*
X18856713Y21456904D01*
X18856713Y21443187D01*
X18852141Y21434044D01*
X18847569Y21429471D01*
X18833853Y21424900D01*
X18792959Y21424900D01*
X18891257Y21452331D02*
G01*
X18891257Y21456904D01*
X18895829Y21465794D01*
X18900147Y21470366D01*
X18909291Y21474937D01*
X18927579Y21474937D01*
X18936723Y21470366D01*
X18941295Y21465794D01*
X18945613Y21456904D01*
X18945613Y21447760D01*
X18941295Y21438616D01*
X18932151Y21424900D01*
X18886685Y21379434D01*
X18950185Y21379434D01*
X19683737Y21474937D02*
G01*
X19683737Y21379434D01*
X19651733Y21474937D02*
G01*
X19715487Y21474937D01*
X19745459Y21474937D02*
G01*
X19745459Y21379434D01*
X19745459Y21474937D02*
G01*
X19786353Y21474937D01*
X19800069Y21470366D01*
X19804641Y21465794D01*
X19809213Y21456904D01*
X19809213Y21443187D01*
X19804641Y21434044D01*
X19800069Y21429471D01*
X19786353Y21424900D01*
X19745459Y21424900D01*
X19848329Y21474937D02*
G01*
X19898113Y21474937D01*
X19870935Y21438616D01*
X19884651Y21438616D01*
X19893795Y21434044D01*
X19898113Y21429471D01*
X19902685Y21416010D01*
X19902685Y21406866D01*
X19898113Y21393150D01*
X19889223Y21384005D01*
X19875507Y21379434D01*
X19861791Y21379434D01*
X19848329Y21384005D01*
X19843757Y21388578D01*
X19839185Y21397721D01*
X20026137Y21266658D02*
G01*
X20086081Y21266658D01*
X20053315Y21222970D01*
X20069825Y21222970D01*
X20080747Y21217381D01*
X20086081Y21212048D01*
X20091669Y21195792D01*
X20091669Y21184870D01*
X20086081Y21168360D01*
X20075159Y21157437D01*
X20058903Y21152104D01*
X20042393Y21152104D01*
X20026137Y21157437D01*
X20020549Y21163026D01*
X20015215Y21173948D01*
X20133071Y21179281D02*
G01*
X20127483Y21173948D01*
X20133071Y21168360D01*
X20138405Y21173948D01*
X20133071Y21179281D01*
X20185395Y21266658D02*
G01*
X20245339Y21266658D01*
X20212573Y21222970D01*
X20229083Y21222970D01*
X20240005Y21217381D01*
X20245339Y21212048D01*
X20250927Y21195792D01*
X20250927Y21184870D01*
X20245339Y21168360D01*
X20234417Y21157437D01*
X20218161Y21152104D01*
X20201651Y21152104D01*
X20185395Y21157437D01*
X20179807Y21163026D01*
X20174473Y21173948D01*
X20286741Y21266658D02*
G01*
X20330429Y21152104D01*
X20374117Y21266658D02*
G01*
X20330429Y21152104D01*
D14*
X19113500Y1334262D02*
G01*
X19149822Y1352295D01*
X19204431Y1406905D01*
X19204431Y1025144D01*
X19542506Y1406905D02*
G01*
X19360895Y1406905D01*
X19342608Y1243329D01*
X19360895Y1261363D01*
X19415252Y1279652D01*
X19469861Y1279652D01*
X19524472Y1261363D01*
X19560793Y1225042D01*
X19578827Y1170686D01*
X19578827Y1134110D01*
X19560793Y1079754D01*
X19524472Y1043178D01*
X19469861Y1025144D01*
X19415252Y1025144D01*
X19360895Y1043178D01*
X19342608Y1061465D01*
X19324320Y1097787D01*
X19735291Y1406905D02*
G01*
X19935190Y1406905D01*
X19826224Y1261363D01*
X19880834Y1261363D01*
X19917156Y1243329D01*
X19935190Y1225042D01*
X19953477Y1170686D01*
X19953477Y1134110D01*
X19935190Y1079754D01*
X19898868Y1043178D01*
X19844511Y1025144D01*
X19789902Y1025144D01*
X19735291Y1043178D01*
X19717258Y1061465D01*
X19698970Y1097787D01*
X20091654Y1315973D02*
G01*
X20091654Y1334262D01*
X20109941Y1370584D01*
X20127975Y1388871D01*
X20164298Y1406905D01*
X20237195Y1406905D01*
X20273518Y1388871D01*
X20291806Y1370584D01*
X20309840Y1334262D01*
X20309840Y1297939D01*
X20291806Y1261363D01*
X20255229Y1207007D01*
X20073620Y1025144D01*
X20328127Y1025144D01*
X20593558Y1406905D02*
G01*
X20448016Y1025144D01*
X20593558Y1406905D02*
G01*
X20738845Y1025144D01*
X20502625Y1152397D02*
G01*
X20684490Y1152397D01*
D10*
X7783829Y20230337D02*
G01*
X7783829Y20142962D01*
X7778495Y20126705D01*
X7772908Y20121118D01*
X7762240Y20115784D01*
X7751318Y20115784D01*
X7740395Y20121118D01*
X7734808Y20126705D01*
X7729474Y20142962D01*
X7729474Y20153884D01*
X7825486Y20202905D02*
G01*
X7825486Y20208494D01*
X7830820Y20219416D01*
X7836408Y20224750D01*
X7847329Y20230337D01*
X7868920Y20230337D01*
X7879841Y20224750D01*
X7885429Y20219416D01*
X7890763Y20208494D01*
X7890763Y20197571D01*
X7885429Y20186650D01*
X7874508Y20170394D01*
X7819897Y20115784D01*
X7896352Y20115784D01*
X14727936Y20230337D02*
G01*
X14727936Y20142962D01*
X14722602Y20126705D01*
X14717013Y20121118D01*
X14706345Y20115784D01*
X14695424Y20115784D01*
X14684502Y20121118D01*
X14678913Y20126705D01*
X14673579Y20142962D01*
X14673579Y20153884D01*
X14764004Y20208494D02*
G01*
X14774925Y20213828D01*
X14791436Y20230337D01*
X14791436Y20115784D01*
X14881859Y20230337D02*
G01*
X14827250Y20153884D01*
X14909038Y20153884D01*
X14881859Y20230337D02*
G01*
X14881859Y20115784D01*
G36*
X7577023Y20960080D02*
G01*
X7577023Y20706080D01*
X7831023Y20960080D01*
G37*
G36*
X14521129Y20960080D02*
G01*
X14521129Y20706080D01*
X14775129Y20960080D01*
G37*
G36*
X14521129Y14610080D02*
G01*
X14521129Y14356080D01*
X14775129Y14610080D01*
G37*
G36*
X7577023Y14610080D02*
G01*
X7577023Y14356080D01*
X7831023Y14610080D01*
G37*
G36*
X7577023Y8260080D02*
G01*
X7577023Y8006080D01*
X7831023Y8260080D01*
G37*
G36*
X14521129Y8260080D02*
G01*
X14521129Y8006080D01*
X14775129Y8260080D01*
G37*
D15*
X14521096Y20960097D02*
G01*
X20363096Y20960097D01*
X20363096Y15118097D01*
X14521096Y15118605D01*
X14521096Y20960097D01*
X14521096Y14610097D02*
G01*
X20363096Y14610097D01*
X20363096Y8768097D01*
X14521096Y8768605D01*
X14521096Y14610097D01*
X14521096Y8260097D02*
G01*
X20363096Y8260097D01*
X20363096Y2418097D01*
X14521096Y2418605D01*
X14521096Y8260097D01*
D16*
X7952897Y20574000D02*
G01*
X7958007Y20579102D01*
X7952897Y20574000D02*
G01*
X7958007Y20579102D01*
D15*
X7576995Y20960097D02*
G01*
X13418995Y20960097D01*
X13418995Y15118097D01*
X7576995Y15118605D01*
X7576995Y20960097D01*
X7576995Y8260097D02*
G01*
X13418995Y8260097D01*
X13418995Y2418097D01*
X7576995Y2418605D01*
X7576995Y8260097D01*
X7576995Y14610097D02*
G01*
X13418995Y14610097D01*
X13418995Y8768097D01*
X7576995Y8768605D01*
X7576995Y14610097D01*
X12021997Y20833105D02*
G01*
X12529997Y20833105D01*
X12529997Y20325105D01*
X12021997Y20325105D01*
X12021997Y20833105D01*
X18966103Y20833105D02*
G01*
X19474103Y20833105D01*
X19474103Y20325105D01*
X18966103Y20325105D01*
X18966103Y20833105D01*
X12021997Y14483105D02*
G01*
X12529997Y14483105D01*
X12529997Y13975105D01*
X12021997Y13975105D01*
X12021997Y14483105D01*
X18966103Y14483105D02*
G01*
X19474103Y14483105D01*
X19474103Y13975105D01*
X18966103Y13975105D01*
X18966103Y14483105D01*
X12021997Y8133105D02*
G01*
X12529997Y8133105D01*
X12529997Y7625105D01*
X12021997Y7625105D01*
X12021997Y8133105D01*
X18966103Y8133105D02*
G01*
X19474103Y8133105D01*
X19474103Y7625105D01*
X18966103Y7625105D01*
X18966103Y8133105D01*
X7703997Y7371105D02*
G01*
X8211997Y7371105D01*
X8211997Y6863105D01*
X7703997Y6863105D01*
X7703997Y7371105D01*
X7703997Y13721105D02*
G01*
X8211997Y13721105D01*
X8211997Y13213105D01*
X7703997Y13213105D01*
X7703997Y13721105D01*
X14648103Y7371105D02*
G01*
X15156103Y7371105D01*
X15156103Y6863105D01*
X14648103Y6863105D01*
X14648103Y7371105D01*
X14648103Y13721105D02*
G01*
X15156103Y13721105D01*
X15156103Y13213105D01*
X14648103Y13213105D01*
X14648103Y13721105D01*
X8465997Y3053105D02*
G01*
X8973997Y3053105D01*
X8973997Y2545105D01*
X8465997Y2545105D01*
X8465997Y3053105D01*
X8465997Y9403105D02*
G01*
X8973997Y9403105D01*
X8973997Y8895105D01*
X8465997Y8895105D01*
X8465997Y9403105D01*
X15410103Y3053105D02*
G01*
X15918103Y3053105D01*
X15918103Y2545105D01*
X15410103Y2545105D01*
X15410103Y3053105D01*
X15410103Y9403105D02*
G01*
X15918103Y9403105D01*
X15918103Y8895105D01*
X15410103Y8895105D01*
X15410103Y9403105D01*
X15410103Y15753105D02*
G01*
X15918103Y15753105D01*
X15918103Y15245105D01*
X15410103Y15245105D01*
X15410103Y15753105D01*
X8465997Y15753105D02*
G01*
X8973997Y15753105D01*
X8973997Y15245105D01*
X8465997Y15245105D01*
X8465997Y15753105D01*
X12783997Y16515105D02*
G01*
X13291997Y16515105D01*
X13291997Y16007105D01*
X12783997Y16007105D01*
X12783997Y16515105D01*
X19728103Y16515105D02*
G01*
X20236103Y16515105D01*
X20236103Y16007105D01*
X19728103Y16007105D01*
X19728103Y16515105D01*
X12783997Y3815105D02*
G01*
X13291997Y3815105D01*
X13291997Y3307105D01*
X12783997Y3307105D01*
X12783997Y3815105D01*
X19728103Y3815105D02*
G01*
X20236103Y3815105D01*
X20236103Y3307105D01*
X19728103Y3307105D01*
X19728103Y3815105D01*
X19728103Y10165105D02*
G01*
X20236103Y10165105D01*
X20236103Y9657105D01*
X19728103Y9657105D01*
X19728103Y10165105D01*
X12783997Y10165105D02*
G01*
X13291997Y10165105D01*
X13291997Y9657105D01*
X12783997Y9657105D01*
X12783997Y10165105D01*
X7703997Y20071105D02*
G01*
X8211997Y20071105D01*
X8211997Y19563105D01*
X7703997Y19563105D01*
X7703997Y20071105D01*
X14648103Y20071105D02*
G01*
X15156103Y20071105D01*
X15156103Y19563105D01*
X14648103Y19563105D01*
X14648103Y20071105D01*
M02*
