M48
METRIC,LZ,000.000
;FILE_FORMAT=3:3
;TYPE=PLATED
;Layer: PTH_Through
;EasyEDA v6.5.34, 2023-08-01 23:33:27
;b51b2e2071534479880d9ec3b26c503f,5a6b42c53f6a479593ecc07194224c93,10
;Gerber Generator version 0.2
;Holesize 1 = 1.101 mm
T01C1.101
;Holesize 2 = 3.000 mm
T02C3.000
%
G05
G90
T01
X011799Y047689
X011799Y045149
X011799Y042609
X011799Y040069
X011799Y028603
X011799Y026063
X011799Y023523
X011799Y020983
X011799Y018443
X011799Y015903
X011799Y013363
X011799Y010823
X017780Y040640
X017780Y038100
X017780Y035560
X017780Y033020
X017780Y030480
X017780Y027940
X017780Y025400
X017780Y022860
X017780Y020320
X017780Y017780
X025400Y017780
X025400Y020320
X025400Y022860
X025400Y025400
X025400Y027940
X025400Y030480
X025400Y033020
X025400Y035560
X025400Y038100
X025400Y040640
T02
X003810Y054610
X003810Y003810
M30
