G04 Layer: TopSolderMaskLayer*
G04 Panelize: , Column: 2, Row: 2, Board Size: 58.42mm x 58.42mm, Panelized Board Size: 118.84mm x 118.84mm*
G04 EasyEDA v6.5.34, 2023-09-08 22:49:06*
G04 bc0c5e472efd4090a79f80cef72532b0,5a6b42c53f6a479593ecc07194224c93,10*
G04 Gerber Generator version 0.2*
G04 Scale: 100 percent, Rotated: No, Reflected: No *
G04 Dimensions in millimeters *
G04 leading zeros omitted , absolute positions ,4 integer and 5 decimal *
%FSLAX45Y45*%
%MOMM*%

%AMMACRO1*1,1,$1,$2,$3*1,1,$1,$4,$5*1,1,$1,0-$2,0-$3*1,1,$1,0-$4,0-$5*20,1,$1,$2,$3,$4,$5,0*20,1,$1,$4,$5,0-$2,0-$3,0*20,1,$1,0-$2,0-$3,0-$4,0-$5,0*20,1,$1,0-$4,0-$5,$2,$3,0*4,1,4,$2,$3,$4,$5,0-$2,0-$3,0-$4,0-$5,$2,$3,0*%
%ADD10MACRO1,0.1016X-0.45X0.35X0.45X0.35*%
%ADD11MACRO1,0.1016X0.45X0.4X0.45X-0.4*%
%ADD12C,1.9812*%
%ADD13C,1.8796*%
%ADD14MACRO1,0.2032X0.5X-0.55X-0.5X-0.55*%
%ADD15MACRO1,0.2032X-0.5X0.55X0.5X0.55*%
%ADD16MACRO1,0.1016X0.4X-0.45X-0.4X-0.45*%
%ADD17O,0.8031988000000001X2.0031963999999998*%
%ADD18MACRO1,0.2032X-0.45X-0.5X-0.45X0.5*%
%ADD19C,5.2032*%
%ADD20C,2.1016*%
%ADD21C,1.9016*%

%LPD*%
D10*
G01*
X1094806Y3678702D03*
G01*
X911799Y3678701D03*
G01*
X911799Y3568694D03*
G01*
X1094806Y3568694D03*
G01*
X3025203Y3678702D03*
G01*
X2842196Y3678701D03*
G01*
X2842196Y3568694D03*
G01*
X3025203Y3568694D03*
G01*
X4955598Y3678702D03*
G01*
X4772591Y3678701D03*
G01*
X4772591Y3568694D03*
G01*
X4955598Y3568694D03*
D11*
G01*
X761997Y3549492D03*
G01*
X761997Y3689492D03*
G01*
X2692394Y3549492D03*
G01*
X2692394Y3689492D03*
G01*
X4622789Y3549492D03*
G01*
X4622789Y3689492D03*
D12*
G01*
X4401413Y2715005D03*
D13*
G01*
X5091404Y2594990D03*
D12*
G01*
X2471013Y2715005D03*
D13*
G01*
X3161004Y2594990D03*
D12*
G01*
X540613Y2715005D03*
D13*
G01*
X1230604Y2594990D03*
D14*
G01*
X2332982Y4584976D03*
G01*
X2492982Y4584976D03*
D15*
G01*
X2670794Y4381779D03*
G01*
X2510795Y4381779D03*
D16*
G01*
X2342986Y4788176D03*
G01*
X2482984Y4788176D03*
D14*
G01*
X4263379Y4584976D03*
G01*
X4423379Y4584976D03*
D15*
G01*
X4601192Y4381779D03*
G01*
X4441192Y4381779D03*
D16*
G01*
X4273383Y4788176D03*
G01*
X4413382Y4788176D03*
D17*
G01*
X1346200Y1834032D03*
G01*
X1219200Y1834032D03*
G01*
X1092200Y1834032D03*
G01*
X965200Y1834032D03*
G01*
X838200Y1834032D03*
G01*
X711200Y1834032D03*
G01*
X584200Y1834032D03*
G01*
X1346200Y1214018D03*
G01*
X1219200Y1214018D03*
G01*
X1092200Y1214018D03*
G01*
X965200Y1214018D03*
G01*
X838200Y1214018D03*
G01*
X711200Y1214018D03*
G01*
X584200Y1214018D03*
D16*
G01*
X437996Y2082794D03*
G01*
X577994Y2082794D03*
D18*
G01*
X4144091Y5575292D03*
G01*
X4314090Y5575292D03*
D14*
G01*
X4149092Y5372100D03*
G01*
X4309092Y5372100D03*
D16*
G01*
X412596Y4788189D03*
G01*
X552594Y4788189D03*
D15*
G01*
X740404Y4381792D03*
G01*
X580405Y4381792D03*
D14*
G01*
X402592Y4584989D03*
G01*
X562592Y4584989D03*
D19*
G01*
X381000Y5461000D03*
G01*
X5461000Y5461000D03*
G01*
X5461000Y381000D03*
G01*
X381000Y381000D03*
D20*
G01*
X3048000Y914400D03*
G01*
X2794000Y914400D03*
G01*
X2540000Y914400D03*
G01*
X3302000Y914400D03*
D21*
G01*
X4572000Y5588000D03*
G01*
X4572000Y5334000D03*
G01*
X4826000Y5334000D03*
G01*
X4826000Y5588000D03*
M02*
