M48
METRIC,LZ,000.000
;FILE_FORMAT=3:3
;TYPE=PLATED
;Layer: PTH_Through
;EasyEDA v6.5.34, 2023-08-21 18:11:39
;65339524c9c04168860851439bfcdcf3,5a6b42c53f6a479593ecc07194224c93,10
;Gerber Generator version 0.2
;Holesize 1 = 0.305 mm
T01C0.305
;Holesize 2 = 0.915 mm
T02C0.915
;Holesize 3 = 1.101 mm
T03C1.101
;Holesize 4 = 1.301 mm
T04C1.301
;Holesize 5 = 3.000 mm
T05C3.000
%
G05
G90
T01
X012446Y027940
X016002Y030480
X019431Y040640
X031115Y014605
X033655Y014605
X036195Y014605
X038735Y014605
X041275Y014605
X043815Y014605
X046355Y014605
X012029Y014605
X014569Y014605
X035179Y048260
X037719Y045720
X040259Y043180
X047879Y038100
X042799Y035560
X045339Y022860
X032639Y020320
T02
X049911Y025400
X049911Y020320
X049911Y022860
X049911Y027940
X049911Y030480
X049911Y033020
X049911Y035560
X049911Y038100
X049911Y040640
X049911Y043180
X049911Y048260
X049911Y045720
T03
X045720Y055880
X045720Y053340
T04
X047597Y013299
X045057Y013299
X042517Y013299
X039977Y013299
X037437Y013299
X034897Y013299
X032357Y013299
X029817Y013299
X018351Y013299
X015811Y013299
X013271Y013299
X010731Y013299
T05
X003810Y054610
X054610Y054610
X054610Y003810
X003810Y003810
M30
