G04 Layer: TopLayer*
G04 EasyEDA v6.5.29, 2023-07-09 11:22:14*
G04 cfc9732f681849a493c23aee7f3b8659,5a6b42c53f6a479593ecc07194224c93,10*
G04 Gerber Generator version 0.2*
G04 Scale: 100 percent, Rotated: No, Reflected: No *
G04 Dimensions in millimeters *
G04 leading zeros omitted , absolute positions ,4 integer and 5 decimal *
%FSLAX45Y45*%
%MOMM*%

%ADD10C,0.1524*%
%ADD11C,0.6350*%
%ADD12C,5.0000*%
%ADD13C,1.5240*%
%ADD14C,1.8000*%
%ADD15C,0.0168*%

%LPD*%
G36*
X12752781Y25908D02*
G01*
X36068Y26416D01*
X32156Y27178D01*
X28905Y29362D01*
X26670Y32664D01*
X25908Y36576D01*
X25908Y2555240D01*
X26670Y2559151D01*
X28905Y2562402D01*
X32156Y2564638D01*
X36068Y2565400D01*
X32156Y2566162D01*
X28905Y2568397D01*
X26670Y2571648D01*
X25908Y2575560D01*
X25908Y3050540D01*
X26670Y3054451D01*
X28905Y3057702D01*
X32156Y3059938D01*
X36068Y3060700D01*
X32156Y3061462D01*
X28905Y3063697D01*
X26670Y3066948D01*
X25908Y3070860D01*
X25908Y5805932D01*
X26670Y5809843D01*
X28905Y5813094D01*
X32156Y5815330D01*
X36068Y5816092D01*
X12752832Y5816092D01*
X12756692Y5815330D01*
X12759994Y5813094D01*
X12762179Y5809843D01*
X12762992Y5805932D01*
X12762992Y36068D01*
X12762179Y32156D01*
X12759994Y28905D01*
X12756692Y26670D01*
G37*

%LPC*%
G36*
X393700Y5473700D02*
G01*
X656539Y5473700D01*
X654710Y5495594D01*
X650849Y5518353D01*
X645109Y5540756D01*
X637540Y5562549D01*
X628142Y5583682D01*
X616966Y5603900D01*
X604215Y5623153D01*
X589838Y5641289D01*
X574040Y5658104D01*
X556869Y5673598D01*
X538429Y5687568D01*
X518922Y5699912D01*
X498449Y5710631D01*
X477164Y5719572D01*
X455168Y5726734D01*
X432714Y5732018D01*
X409854Y5735370D01*
X393700Y5736386D01*
G37*
G36*
X12392406Y105562D02*
G01*
X12392406Y368300D01*
X12129719Y368300D01*
X12130176Y357936D01*
X12133072Y334975D01*
X12137847Y312369D01*
X12144552Y290271D01*
X12153036Y268782D01*
X12163348Y248107D01*
X12175286Y228346D01*
X12188901Y209651D01*
X12203988Y192125D01*
X12220498Y175971D01*
X12238278Y161239D01*
X12257278Y148031D01*
X12277293Y136499D01*
X12298172Y126644D01*
X12319863Y118618D01*
X12342114Y112369D01*
X12364770Y108051D01*
X12387783Y105664D01*
G37*
G36*
X12417806Y105613D02*
G01*
X12433960Y106629D01*
X12456820Y109982D01*
X12479274Y115265D01*
X12501270Y122428D01*
X12522555Y131368D01*
X12543028Y142087D01*
X12562535Y154432D01*
X12580975Y168402D01*
X12598146Y183896D01*
X12613944Y200710D01*
X12628321Y218846D01*
X12641072Y238099D01*
X12652248Y258317D01*
X12661646Y279450D01*
X12669215Y301244D01*
X12674955Y323646D01*
X12678816Y346405D01*
X12680645Y368300D01*
X12417806Y368300D01*
G37*
G36*
X393700Y105613D02*
G01*
X409854Y106629D01*
X432714Y109982D01*
X455168Y115265D01*
X477164Y122428D01*
X498449Y131368D01*
X518922Y142087D01*
X538429Y154432D01*
X556869Y168402D01*
X574040Y183896D01*
X589838Y200710D01*
X604215Y218846D01*
X616966Y238099D01*
X628142Y258317D01*
X637540Y279450D01*
X645109Y301244D01*
X650849Y323646D01*
X654710Y346405D01*
X656539Y368300D01*
X393700Y368300D01*
G37*
G36*
X12129719Y393700D02*
G01*
X12392406Y393700D01*
X12392406Y656437D01*
X12387783Y656336D01*
X12364770Y653948D01*
X12342114Y649630D01*
X12319863Y643382D01*
X12298172Y635355D01*
X12277293Y625500D01*
X12257278Y613968D01*
X12238278Y600760D01*
X12220498Y586028D01*
X12203988Y569874D01*
X12188901Y552399D01*
X12175286Y533704D01*
X12163348Y513892D01*
X12153036Y493217D01*
X12144552Y471728D01*
X12137847Y449630D01*
X12133072Y427024D01*
X12130176Y404114D01*
G37*
G36*
X105613Y393700D02*
G01*
X368300Y393700D01*
X368300Y656437D01*
X363677Y656336D01*
X340664Y653948D01*
X318008Y649630D01*
X295757Y643382D01*
X274066Y635355D01*
X253187Y625500D01*
X233171Y613968D01*
X214172Y600760D01*
X196392Y586028D01*
X179882Y569874D01*
X164795Y552399D01*
X151180Y533704D01*
X139242Y513892D01*
X128930Y493217D01*
X120446Y471728D01*
X113741Y449630D01*
X108966Y427024D01*
X106070Y404114D01*
G37*
G36*
X12417806Y393700D02*
G01*
X12680645Y393700D01*
X12678816Y415594D01*
X12674955Y438353D01*
X12669215Y460756D01*
X12661646Y482549D01*
X12652248Y503682D01*
X12641072Y523900D01*
X12628321Y543153D01*
X12613944Y561289D01*
X12598146Y578104D01*
X12580975Y593598D01*
X12562535Y607568D01*
X12543028Y619912D01*
X12522555Y630631D01*
X12501270Y639572D01*
X12479274Y646734D01*
X12456820Y652018D01*
X12433960Y655370D01*
X12417806Y656386D01*
G37*
G36*
X393700Y393700D02*
G01*
X656539Y393700D01*
X654710Y415594D01*
X650849Y438353D01*
X645109Y460756D01*
X637540Y482549D01*
X628142Y503682D01*
X616966Y523900D01*
X604215Y543153D01*
X589838Y561289D01*
X574040Y578104D01*
X556869Y593598D01*
X538429Y607568D01*
X518922Y619912D01*
X498449Y630631D01*
X477164Y639572D01*
X455168Y646734D01*
X432714Y652018D01*
X409854Y655370D01*
X393700Y656386D01*
G37*
G36*
X11941048Y406146D02*
G01*
X11954713Y406146D01*
X11968226Y407974D01*
X11981383Y411581D01*
X11993930Y416915D01*
X12005665Y423875D01*
X12016384Y432308D01*
X12025833Y442112D01*
X12033910Y453085D01*
X12040463Y465074D01*
X12045391Y477774D01*
X12048540Y491032D01*
X12049912Y504596D01*
X12049455Y518261D01*
X12048896Y521462D01*
X12048896Y524662D01*
X12049861Y527710D01*
X12051741Y530301D01*
X12318542Y797153D01*
X12324994Y804722D01*
X12329871Y812901D01*
X12333325Y821740D01*
X12335306Y831189D01*
X12335764Y838504D01*
X12335764Y910031D01*
X12336322Y913384D01*
X12337948Y916330D01*
X12340437Y918616D01*
X12346228Y922223D01*
X12357404Y931519D01*
X12367361Y942136D01*
X12375946Y953922D01*
X12382957Y966673D01*
X12388291Y980186D01*
X12391948Y994308D01*
X12393777Y1008735D01*
X12393777Y1023264D01*
X12391948Y1037742D01*
X12388291Y1051814D01*
X12382957Y1065326D01*
X12375946Y1078077D01*
X12367361Y1089863D01*
X12357404Y1100480D01*
X12346228Y1109776D01*
X12333935Y1117549D01*
X12320778Y1123746D01*
X12306909Y1128268D01*
X12292634Y1130960D01*
X12278106Y1131874D01*
X12263577Y1130960D01*
X12252960Y1128979D01*
X12249708Y1128877D01*
X12246559Y1129842D01*
X12243866Y1131773D01*
X12232690Y1142949D01*
X12230303Y1146759D01*
X12229744Y1151178D01*
X12231217Y1155446D01*
X12234316Y1158646D01*
X12238532Y1160221D01*
X12243003Y1159814D01*
X12249251Y1157732D01*
X12263577Y1155039D01*
X12265406Y1154938D01*
X12265406Y1257300D01*
X12163094Y1257300D01*
X12164263Y1248308D01*
X12167768Y1234592D01*
X12167920Y1230223D01*
X12166193Y1226159D01*
X12162942Y1223264D01*
X12158776Y1221943D01*
X12154458Y1222502D01*
X12150750Y1224889D01*
X12008510Y1367129D01*
X12006326Y1370380D01*
X12005564Y1374292D01*
X12005564Y4914646D01*
X12006021Y4917643D01*
X12007342Y4920386D01*
X12009424Y4922621D01*
X12016384Y4928108D01*
X12025833Y4937912D01*
X12033910Y4948885D01*
X12040463Y4960874D01*
X12045391Y4973574D01*
X12048540Y4986832D01*
X12049912Y5000396D01*
X12049455Y5014061D01*
X12047169Y5027472D01*
X12043156Y5040528D01*
X12037415Y5052872D01*
X12030049Y5064353D01*
X12021261Y5074767D01*
X12011152Y5083962D01*
X11999925Y5091633D01*
X11987733Y5097830D01*
X11974830Y5102301D01*
X11961469Y5104993D01*
X11947906Y5105908D01*
X11934291Y5104993D01*
X11920931Y5102301D01*
X11908028Y5097830D01*
X11895836Y5091633D01*
X11884609Y5083962D01*
X11874500Y5074767D01*
X11865711Y5064353D01*
X11858345Y5052872D01*
X11852605Y5040528D01*
X11848592Y5027472D01*
X11846306Y5014061D01*
X11845848Y5000396D01*
X11847220Y4986832D01*
X11850370Y4973574D01*
X11855297Y4960874D01*
X11861850Y4948885D01*
X11869928Y4937912D01*
X11879427Y4928108D01*
X11886387Y4922621D01*
X11888470Y4920386D01*
X11889790Y4917643D01*
X11890248Y4914646D01*
X11890248Y1346606D01*
X11891060Y1336700D01*
X11893397Y1327505D01*
X11897207Y1318768D01*
X11902490Y1310690D01*
X11907367Y1305204D01*
X12162332Y1050239D01*
X12164314Y1047394D01*
X12165228Y1043990D01*
X12164974Y1040536D01*
X12164263Y1037742D01*
X12162434Y1023264D01*
X12162434Y1008735D01*
X12164263Y994308D01*
X12167870Y980186D01*
X12173254Y966673D01*
X12180265Y953922D01*
X12188799Y942136D01*
X12198756Y931519D01*
X12209983Y922223D01*
X12215723Y918616D01*
X12218212Y916330D01*
X12219889Y913384D01*
X12220448Y910031D01*
X12220448Y866292D01*
X12219635Y862380D01*
X12217450Y859129D01*
X12041073Y682752D01*
X12037466Y680415D01*
X12033199Y679754D01*
X12030354Y680618D01*
X12031167Y677875D01*
X12030557Y673557D01*
X12028220Y669899D01*
X11970359Y612038D01*
X11966752Y609701D01*
X11962485Y609092D01*
X11947855Y610108D01*
X11934291Y609193D01*
X11920931Y606501D01*
X11908028Y602030D01*
X11895836Y595833D01*
X11884609Y588162D01*
X11874500Y578967D01*
X11865711Y568553D01*
X11858345Y557072D01*
X11852605Y544728D01*
X11848592Y531672D01*
X11846306Y518261D01*
X11845848Y504596D01*
X11847220Y491032D01*
X11850370Y477774D01*
X11855297Y465074D01*
X11861850Y453085D01*
X11869928Y442112D01*
X11879427Y432308D01*
X11890095Y423875D01*
X11901830Y416915D01*
X11914378Y411581D01*
X11927535Y407974D01*
G37*
G36*
X11681206Y406958D02*
G01*
X11681206Y495300D01*
X11592814Y495300D01*
X11593220Y491032D01*
X11596370Y477774D01*
X11601297Y465074D01*
X11607850Y453085D01*
X11615928Y442112D01*
X11625427Y432308D01*
X11636095Y423875D01*
X11647830Y416915D01*
X11660378Y411581D01*
X11673535Y407974D01*
G37*
G36*
X11706606Y406958D02*
G01*
X11714226Y407974D01*
X11727383Y411581D01*
X11739930Y416915D01*
X11751665Y423875D01*
X11762384Y432308D01*
X11771833Y442112D01*
X11779910Y453085D01*
X11786463Y465074D01*
X11791391Y477774D01*
X11794540Y491032D01*
X11794998Y495300D01*
X11706606Y495300D01*
G37*
G36*
X11001095Y472744D02*
G01*
X11019942Y472744D01*
X11038687Y474624D01*
X11057128Y478434D01*
X11075060Y484073D01*
X11092383Y491490D01*
X11108842Y500634D01*
X11124285Y511403D01*
X11138611Y523646D01*
X11151565Y537311D01*
X11163096Y552196D01*
X11173053Y568198D01*
X11181334Y585063D01*
X11187887Y602742D01*
X11192611Y620979D01*
X11195456Y639572D01*
X11196421Y658368D01*
X11195456Y677214D01*
X11192611Y695807D01*
X11187887Y714044D01*
X11181334Y731723D01*
X11173053Y748588D01*
X11163096Y764590D01*
X11151565Y779475D01*
X11138611Y793140D01*
X11124285Y805383D01*
X11108842Y816152D01*
X11092383Y825296D01*
X11075060Y832713D01*
X11057128Y838352D01*
X11038687Y842162D01*
X11019942Y844042D01*
X11001095Y844042D01*
X10982350Y842162D01*
X10963910Y838352D01*
X10945977Y832713D01*
X10928654Y825296D01*
X10912195Y816152D01*
X10896752Y805383D01*
X10882426Y793140D01*
X10869472Y779475D01*
X10857941Y764590D01*
X10847984Y748588D01*
X10839704Y731723D01*
X10833150Y714044D01*
X10828426Y695807D01*
X10825581Y677214D01*
X10824616Y658368D01*
X10825581Y639572D01*
X10828426Y620979D01*
X10833150Y602742D01*
X10839704Y585063D01*
X10847984Y568198D01*
X10857941Y552196D01*
X10869472Y537311D01*
X10882426Y523646D01*
X10896752Y511403D01*
X10912195Y500634D01*
X10928654Y491490D01*
X10945977Y484073D01*
X10963910Y478434D01*
X10982350Y474624D01*
G37*
G36*
X1317955Y472744D02*
G01*
X1336751Y472744D01*
X1355496Y474624D01*
X1373936Y478434D01*
X1391920Y484073D01*
X1409242Y491490D01*
X1425702Y500634D01*
X1441145Y511403D01*
X1455420Y523646D01*
X1468424Y537311D01*
X1479905Y552196D01*
X1489913Y568198D01*
X1498193Y585063D01*
X1504746Y602742D01*
X1509420Y620979D01*
X1512316Y639572D01*
X1513230Y658368D01*
X1512316Y677214D01*
X1509420Y695807D01*
X1504746Y714044D01*
X1498193Y731723D01*
X1489913Y748588D01*
X1479905Y764590D01*
X1468424Y779475D01*
X1455420Y793140D01*
X1441145Y805383D01*
X1425702Y816152D01*
X1409242Y825296D01*
X1391920Y832713D01*
X1373936Y838352D01*
X1355496Y842162D01*
X1336751Y844042D01*
X1317955Y844042D01*
X1299210Y842162D01*
X1280769Y838352D01*
X1262786Y832713D01*
X1245463Y825296D01*
X1229004Y816152D01*
X1213561Y805383D01*
X1199286Y793140D01*
X1186281Y779475D01*
X1174800Y764590D01*
X1164793Y748588D01*
X1156512Y731723D01*
X1149959Y714044D01*
X1145286Y695807D01*
X1142390Y677214D01*
X1141476Y658368D01*
X1142390Y639572D01*
X1145286Y620979D01*
X1149959Y602742D01*
X1156512Y585063D01*
X1164793Y568198D01*
X1174800Y552196D01*
X1186281Y537311D01*
X1199286Y523646D01*
X1213561Y511403D01*
X1229004Y500634D01*
X1245463Y491490D01*
X1262786Y484073D01*
X1280769Y478434D01*
X1299210Y474624D01*
G37*
G36*
X11592712Y520700D02*
G01*
X11681206Y520700D01*
X11681206Y609244D01*
X11666931Y606501D01*
X11654028Y602030D01*
X11641836Y595833D01*
X11630609Y588162D01*
X11620500Y578967D01*
X11611711Y568553D01*
X11604345Y557072D01*
X11598605Y544728D01*
X11594592Y531672D01*
G37*
G36*
X11706606Y520700D02*
G01*
X11795048Y520700D01*
X11793169Y531672D01*
X11789156Y544728D01*
X11783415Y557072D01*
X11776049Y568553D01*
X11767261Y578967D01*
X11757152Y588162D01*
X11745925Y595833D01*
X11733733Y602030D01*
X11720830Y606501D01*
X11706606Y609244D01*
G37*
G36*
X12417806Y5473700D02*
G01*
X12680645Y5473700D01*
X12678816Y5495594D01*
X12674955Y5518353D01*
X12669215Y5540756D01*
X12661646Y5562549D01*
X12652248Y5583682D01*
X12641072Y5603900D01*
X12628321Y5623153D01*
X12613944Y5641289D01*
X12598146Y5658104D01*
X12580975Y5673598D01*
X12562535Y5687568D01*
X12543028Y5699912D01*
X12522555Y5710631D01*
X12501270Y5719572D01*
X12479274Y5726734D01*
X12456820Y5732018D01*
X12433960Y5735370D01*
X12417806Y5736386D01*
G37*
G36*
X11941048Y660146D02*
G01*
X11954713Y660146D01*
X11968226Y661974D01*
X11981383Y665581D01*
X11993930Y670915D01*
X12005665Y677875D01*
X12014758Y685038D01*
X12018670Y686917D01*
X12023039Y687019D01*
X12024614Y686358D01*
X12023953Y687679D01*
X12023953Y691997D01*
X12025731Y695960D01*
X12033910Y707085D01*
X12040463Y719074D01*
X12045391Y731774D01*
X12048540Y745032D01*
X12049912Y758596D01*
X12049455Y772261D01*
X12047169Y785672D01*
X12043156Y798728D01*
X12037415Y811072D01*
X12030049Y822553D01*
X12021261Y832967D01*
X12011152Y842162D01*
X11999925Y849833D01*
X11987733Y856030D01*
X11974830Y860501D01*
X11961469Y863193D01*
X11947906Y864108D01*
X11934291Y863193D01*
X11920931Y860501D01*
X11908028Y856030D01*
X11895836Y849833D01*
X11884609Y842162D01*
X11874500Y832967D01*
X11865711Y822553D01*
X11858345Y811072D01*
X11852605Y798728D01*
X11848592Y785672D01*
X11846306Y772261D01*
X11845848Y758596D01*
X11847220Y745032D01*
X11850370Y731774D01*
X11855297Y719074D01*
X11861850Y707085D01*
X11869928Y696112D01*
X11879427Y686308D01*
X11890095Y677875D01*
X11901830Y670915D01*
X11914378Y665581D01*
X11927535Y661974D01*
G37*
G36*
X11681206Y660958D02*
G01*
X11681206Y749300D01*
X11592814Y749300D01*
X11593220Y745032D01*
X11596370Y731774D01*
X11601297Y719074D01*
X11607850Y707085D01*
X11615928Y696112D01*
X11625427Y686308D01*
X11636095Y677875D01*
X11647830Y670915D01*
X11660378Y665581D01*
X11673535Y661974D01*
G37*
G36*
X11706606Y660958D02*
G01*
X11714226Y661974D01*
X11727383Y665581D01*
X11739930Y670915D01*
X11751665Y677875D01*
X11762384Y686308D01*
X11771833Y696112D01*
X11779910Y707085D01*
X11786463Y719074D01*
X11791391Y731774D01*
X11794540Y745032D01*
X11794998Y749300D01*
X11706606Y749300D01*
G37*
G36*
X105613Y5473700D02*
G01*
X368300Y5473700D01*
X368300Y5736437D01*
X363677Y5736336D01*
X340664Y5733948D01*
X318008Y5729630D01*
X295757Y5723382D01*
X274066Y5715355D01*
X253187Y5705500D01*
X233171Y5693968D01*
X214172Y5680760D01*
X196392Y5666028D01*
X179882Y5649874D01*
X164795Y5632399D01*
X151180Y5613704D01*
X139242Y5593892D01*
X128930Y5573217D01*
X120446Y5551728D01*
X113741Y5529630D01*
X108966Y5507024D01*
X106070Y5484114D01*
G37*
G36*
X12129719Y5473700D02*
G01*
X12392406Y5473700D01*
X12392406Y5736437D01*
X12387783Y5736336D01*
X12364770Y5733948D01*
X12342114Y5729630D01*
X12319863Y5723382D01*
X12298172Y5715355D01*
X12277293Y5705500D01*
X12257278Y5693968D01*
X12238278Y5680760D01*
X12220498Y5666028D01*
X12203988Y5649874D01*
X12188901Y5632399D01*
X12175286Y5613704D01*
X12163348Y5593892D01*
X12153036Y5573217D01*
X12144552Y5551728D01*
X12137847Y5529630D01*
X12133072Y5507024D01*
X12130176Y5484114D01*
G37*
G36*
X11706606Y774700D02*
G01*
X11795048Y774700D01*
X11793169Y785672D01*
X11789156Y798728D01*
X11783415Y811072D01*
X11776049Y822553D01*
X11767261Y832967D01*
X11757152Y842162D01*
X11745925Y849833D01*
X11733733Y856030D01*
X11720830Y860501D01*
X11706606Y863244D01*
G37*
G36*
X11592712Y774700D02*
G01*
X11681206Y774700D01*
X11681206Y863244D01*
X11666931Y860501D01*
X11654028Y856030D01*
X11641836Y849833D01*
X11630609Y842162D01*
X11620500Y832967D01*
X11611711Y822553D01*
X11604345Y811072D01*
X11598605Y798728D01*
X11594592Y785672D01*
G37*
G36*
X12532106Y900125D02*
G01*
X12546634Y901039D01*
X12560909Y903732D01*
X12574778Y908253D01*
X12587935Y914450D01*
X12600228Y922223D01*
X12611404Y931519D01*
X12621361Y942136D01*
X12629946Y953922D01*
X12636957Y966673D01*
X12642291Y980186D01*
X12645948Y994308D01*
X12647777Y1008735D01*
X12647777Y1023264D01*
X12645948Y1037742D01*
X12642291Y1051814D01*
X12636957Y1065326D01*
X12629946Y1078077D01*
X12621361Y1089863D01*
X12611404Y1100480D01*
X12600228Y1109776D01*
X12587935Y1117549D01*
X12574778Y1123746D01*
X12560909Y1128268D01*
X12546634Y1130960D01*
X12532106Y1131874D01*
X12517577Y1130960D01*
X12503251Y1128268D01*
X12489434Y1123746D01*
X12476276Y1117549D01*
X12463983Y1109776D01*
X12452756Y1100480D01*
X12442799Y1089863D01*
X12434265Y1078077D01*
X12427254Y1065326D01*
X12421870Y1051814D01*
X12418263Y1037742D01*
X12416434Y1023264D01*
X12416434Y1008735D01*
X12418263Y994308D01*
X12421870Y980186D01*
X12427254Y966673D01*
X12434265Y953922D01*
X12442799Y942136D01*
X12452756Y931519D01*
X12463983Y922223D01*
X12476276Y914450D01*
X12489434Y908253D01*
X12503251Y903732D01*
X12517577Y901039D01*
G37*
G36*
X11706606Y5270500D02*
G01*
X11795048Y5270500D01*
X11793169Y5281472D01*
X11789156Y5294528D01*
X11783415Y5306872D01*
X11776049Y5318353D01*
X11767261Y5328767D01*
X11757152Y5337962D01*
X11745925Y5345633D01*
X11733733Y5351830D01*
X11720830Y5356301D01*
X11706606Y5359044D01*
G37*
G36*
X12519406Y1154938D02*
G01*
X12519406Y1257300D01*
X12417094Y1257300D01*
X12418263Y1248308D01*
X12421870Y1234186D01*
X12427254Y1220673D01*
X12434265Y1207922D01*
X12442799Y1196136D01*
X12452756Y1185519D01*
X12463983Y1176223D01*
X12476276Y1168450D01*
X12489434Y1162253D01*
X12503251Y1157732D01*
X12517577Y1155039D01*
G37*
G36*
X12290806Y1154938D02*
G01*
X12292634Y1155039D01*
X12306909Y1157732D01*
X12320778Y1162253D01*
X12333935Y1168450D01*
X12346228Y1176223D01*
X12357404Y1185519D01*
X12367361Y1196136D01*
X12375946Y1207922D01*
X12382957Y1220673D01*
X12388291Y1234186D01*
X12391948Y1248308D01*
X12393066Y1257300D01*
X12290806Y1257300D01*
G37*
G36*
X12544806Y1154938D02*
G01*
X12546634Y1155039D01*
X12560909Y1157732D01*
X12574778Y1162253D01*
X12587935Y1168450D01*
X12600228Y1176223D01*
X12611404Y1185519D01*
X12621361Y1196136D01*
X12629946Y1207922D01*
X12636957Y1220673D01*
X12642291Y1234186D01*
X12645948Y1248308D01*
X12647066Y1257300D01*
X12544806Y1257300D01*
G37*
G36*
X11592712Y5270500D02*
G01*
X11681206Y5270500D01*
X11681206Y5359044D01*
X11666931Y5356301D01*
X11654028Y5351830D01*
X11641836Y5345633D01*
X11630609Y5337962D01*
X11620500Y5328767D01*
X11611711Y5318353D01*
X11604345Y5306872D01*
X11598605Y5294528D01*
X11594592Y5281472D01*
G37*
G36*
X368300Y105562D02*
G01*
X368300Y368300D01*
X105613Y368300D01*
X106070Y357936D01*
X108966Y334975D01*
X113741Y312369D01*
X120446Y290271D01*
X128930Y268782D01*
X139242Y248107D01*
X151180Y228346D01*
X164795Y209651D01*
X179882Y192125D01*
X196392Y175971D01*
X214172Y161239D01*
X233171Y148031D01*
X253187Y136499D01*
X274066Y126644D01*
X295757Y118618D01*
X318008Y112369D01*
X340664Y108051D01*
X363677Y105664D01*
G37*
G36*
X12417094Y1282700D02*
G01*
X12519406Y1282700D01*
X12519406Y1385112D01*
X12517577Y1384960D01*
X12503251Y1382268D01*
X12489434Y1377746D01*
X12476276Y1371549D01*
X12463983Y1363776D01*
X12452756Y1354480D01*
X12442799Y1343863D01*
X12434265Y1332077D01*
X12427254Y1319326D01*
X12421870Y1305814D01*
X12418263Y1291742D01*
G37*
G36*
X12290806Y1282700D02*
G01*
X12393066Y1282700D01*
X12391948Y1291742D01*
X12388291Y1305814D01*
X12382957Y1319326D01*
X12375946Y1332077D01*
X12367361Y1343863D01*
X12357404Y1354480D01*
X12346228Y1363776D01*
X12333935Y1371549D01*
X12320778Y1377746D01*
X12306909Y1382268D01*
X12292634Y1384960D01*
X12290806Y1385112D01*
G37*
G36*
X12544806Y1282700D02*
G01*
X12647066Y1282700D01*
X12645948Y1291742D01*
X12642291Y1305814D01*
X12636957Y1319326D01*
X12629946Y1332077D01*
X12621361Y1343863D01*
X12611404Y1354480D01*
X12600228Y1363776D01*
X12587935Y1371549D01*
X12574778Y1377746D01*
X12560909Y1382268D01*
X12546634Y1384960D01*
X12544806Y1385112D01*
G37*
G36*
X12163094Y1282700D02*
G01*
X12265406Y1282700D01*
X12265406Y1385112D01*
X12263577Y1384960D01*
X12249251Y1382268D01*
X12235434Y1377746D01*
X12222276Y1371549D01*
X12209983Y1363776D01*
X12198756Y1354480D01*
X12188799Y1343863D01*
X12180265Y1332077D01*
X12173254Y1319326D01*
X12167870Y1305814D01*
X12164263Y1291742D01*
G37*
G36*
X11001095Y1862734D02*
G01*
X11019942Y1862734D01*
X11038687Y1864614D01*
X11057128Y1868424D01*
X11075060Y1874062D01*
X11092383Y1881479D01*
X11108842Y1890623D01*
X11124285Y1901393D01*
X11138611Y1913636D01*
X11151565Y1927301D01*
X11163096Y1942185D01*
X11173053Y1958187D01*
X11181334Y1975053D01*
X11187887Y1992731D01*
X11192611Y2010968D01*
X11195456Y2029561D01*
X11196421Y2048357D01*
X11195456Y2067204D01*
X11192611Y2085797D01*
X11187887Y2104034D01*
X11181334Y2121712D01*
X11173053Y2138578D01*
X11163096Y2154580D01*
X11151565Y2169464D01*
X11138611Y2183130D01*
X11124285Y2195372D01*
X11108842Y2206142D01*
X11092383Y2215286D01*
X11075060Y2222703D01*
X11057128Y2228342D01*
X11038687Y2232152D01*
X11019942Y2234031D01*
X11001095Y2234031D01*
X10982350Y2232152D01*
X10963910Y2228342D01*
X10945977Y2222703D01*
X10928654Y2215286D01*
X10912195Y2206142D01*
X10896752Y2195372D01*
X10882426Y2183130D01*
X10869472Y2169464D01*
X10857941Y2154580D01*
X10847984Y2138578D01*
X10839704Y2121712D01*
X10833150Y2104034D01*
X10828426Y2085797D01*
X10825581Y2067204D01*
X10824616Y2048357D01*
X10825581Y2029561D01*
X10828426Y2010968D01*
X10833150Y1992731D01*
X10839704Y1975053D01*
X10847984Y1958187D01*
X10857941Y1942185D01*
X10869472Y1927301D01*
X10882426Y1913636D01*
X10896752Y1901393D01*
X10912195Y1890623D01*
X10928654Y1881479D01*
X10945977Y1874062D01*
X10963910Y1868424D01*
X10982350Y1864614D01*
G37*
G36*
X1317955Y1862734D02*
G01*
X1336751Y1862734D01*
X1355496Y1864614D01*
X1373936Y1868424D01*
X1391920Y1874062D01*
X1409242Y1881479D01*
X1425702Y1890623D01*
X1441145Y1901393D01*
X1455420Y1913636D01*
X1468424Y1927301D01*
X1479905Y1942185D01*
X1489913Y1958187D01*
X1498193Y1975053D01*
X1504746Y1992731D01*
X1509420Y2010968D01*
X1512316Y2029561D01*
X1513230Y2048357D01*
X1512316Y2067204D01*
X1509420Y2085797D01*
X1504746Y2104034D01*
X1498193Y2121712D01*
X1489913Y2138578D01*
X1479905Y2154580D01*
X1468424Y2169464D01*
X1455420Y2183130D01*
X1441145Y2195372D01*
X1425702Y2206142D01*
X1409242Y2215286D01*
X1391920Y2222703D01*
X1373936Y2228342D01*
X1355496Y2232152D01*
X1336751Y2234031D01*
X1317955Y2234031D01*
X1299210Y2232152D01*
X1280769Y2228342D01*
X1262786Y2222703D01*
X1245463Y2215286D01*
X1229004Y2206142D01*
X1213561Y2195372D01*
X1199286Y2183130D01*
X1186281Y2169464D01*
X1174800Y2154580D01*
X1164793Y2138578D01*
X1156512Y2121712D01*
X1149959Y2104034D01*
X1145286Y2085797D01*
X1142390Y2067204D01*
X1141476Y2048357D01*
X1142390Y2029561D01*
X1145286Y2010968D01*
X1149959Y1992731D01*
X1156512Y1975053D01*
X1164793Y1958187D01*
X1174800Y1942185D01*
X1186281Y1927301D01*
X1199286Y1913636D01*
X1213561Y1901393D01*
X1229004Y1890623D01*
X1245463Y1881479D01*
X1262786Y1874062D01*
X1280769Y1868424D01*
X1299210Y1864614D01*
G37*
G36*
X116839Y2565400D02*
G01*
X252984Y2565400D01*
X254000Y2566416D01*
X254000Y2579065D01*
X254406Y2581859D01*
X255676Y2584653D01*
X257606Y2590139D01*
X258317Y2596438D01*
X258317Y2626563D01*
X257606Y2632862D01*
X254406Y2641142D01*
X254000Y2643936D01*
X254000Y2970784D01*
X252984Y2971800D01*
X128016Y2971800D01*
X127000Y2970784D01*
X127000Y2639822D01*
X126441Y2636469D01*
X125171Y2632862D01*
X124460Y2626563D01*
X124460Y2596438D01*
X125171Y2590139D01*
X126441Y2586532D01*
X127000Y2583180D01*
X127000Y2575560D01*
X126237Y2571648D01*
X124002Y2568397D01*
X120751Y2566162D01*
G37*
G36*
X127558Y3050438D02*
G01*
X634441Y3050438D01*
X640791Y3051149D01*
X646226Y3053080D01*
X651103Y3056128D01*
X655218Y3060242D01*
X658317Y3065119D01*
X660196Y3070606D01*
X660908Y3076905D01*
X660908Y3583787D01*
X660196Y3590086D01*
X658317Y3595573D01*
X655218Y3600450D01*
X651103Y3604564D01*
X646226Y3607612D01*
X640791Y3609543D01*
X634441Y3610254D01*
X127558Y3610254D01*
X121259Y3609543D01*
X115062Y3607358D01*
X111709Y3606800D01*
X102616Y3606800D01*
X101600Y3605784D01*
X101549Y3587648D01*
X101092Y3583787D01*
X101092Y3076803D01*
X101549Y3071774D01*
X101092Y3067608D01*
X98958Y3064002D01*
X95554Y3061563D01*
X91440Y3060700D01*
X102108Y3060700D01*
X106019Y3059938D01*
X109321Y3057702D01*
X110896Y3056128D01*
X115773Y3053080D01*
X121259Y3051149D01*
G37*
G36*
X11001095Y3578555D02*
G01*
X11019942Y3578555D01*
X11038687Y3580434D01*
X11057128Y3584244D01*
X11075060Y3589883D01*
X11092383Y3597300D01*
X11108842Y3606444D01*
X11124285Y3617214D01*
X11138611Y3629456D01*
X11151565Y3643122D01*
X11163096Y3658006D01*
X11173053Y3674008D01*
X11181334Y3690874D01*
X11187887Y3708552D01*
X11192611Y3726789D01*
X11195456Y3745382D01*
X11196421Y3764178D01*
X11195456Y3783025D01*
X11192611Y3801618D01*
X11187887Y3819855D01*
X11181334Y3837533D01*
X11173053Y3854399D01*
X11163096Y3870401D01*
X11151565Y3885285D01*
X11138611Y3898950D01*
X11124285Y3911193D01*
X11108842Y3921963D01*
X11092383Y3931107D01*
X11075060Y3938524D01*
X11057128Y3944162D01*
X11038687Y3947972D01*
X11019942Y3949852D01*
X11001095Y3949852D01*
X10982350Y3947972D01*
X10963910Y3944162D01*
X10945977Y3938524D01*
X10928654Y3931107D01*
X10912195Y3921963D01*
X10896752Y3911193D01*
X10882426Y3898950D01*
X10869472Y3885285D01*
X10857941Y3870401D01*
X10847984Y3854399D01*
X10839704Y3837533D01*
X10833150Y3819855D01*
X10828426Y3801618D01*
X10825581Y3783025D01*
X10824616Y3764178D01*
X10825581Y3745382D01*
X10828426Y3726789D01*
X10833150Y3708552D01*
X10839704Y3690874D01*
X10847984Y3674008D01*
X10857941Y3658006D01*
X10869472Y3643122D01*
X10882426Y3629456D01*
X10896752Y3617214D01*
X10912195Y3606444D01*
X10928654Y3597300D01*
X10945977Y3589883D01*
X10963910Y3584244D01*
X10982350Y3580434D01*
G37*
G36*
X1317955Y3578555D02*
G01*
X1336751Y3578555D01*
X1355496Y3580434D01*
X1373936Y3584244D01*
X1391920Y3589883D01*
X1409242Y3597300D01*
X1425702Y3606444D01*
X1441145Y3617214D01*
X1455420Y3629456D01*
X1468424Y3643122D01*
X1479905Y3658006D01*
X1489913Y3674008D01*
X1498193Y3690874D01*
X1504746Y3708552D01*
X1509420Y3726789D01*
X1512316Y3745382D01*
X1513230Y3764178D01*
X1512316Y3783025D01*
X1509420Y3801618D01*
X1504746Y3819855D01*
X1498193Y3837533D01*
X1489913Y3854399D01*
X1479905Y3870401D01*
X1468424Y3885285D01*
X1455420Y3898950D01*
X1441145Y3911193D01*
X1425702Y3921963D01*
X1409242Y3931107D01*
X1391920Y3938524D01*
X1373936Y3944162D01*
X1355496Y3947972D01*
X1336751Y3949852D01*
X1317955Y3949852D01*
X1299210Y3947972D01*
X1280769Y3944162D01*
X1262786Y3938524D01*
X1245463Y3931107D01*
X1229004Y3921963D01*
X1213561Y3911193D01*
X1199286Y3898950D01*
X1186281Y3885285D01*
X1174800Y3870401D01*
X1164793Y3854399D01*
X1156512Y3837533D01*
X1149959Y3819855D01*
X1145286Y3801618D01*
X1142390Y3783025D01*
X1141476Y3764178D01*
X1142390Y3745382D01*
X1145286Y3726789D01*
X1149959Y3708552D01*
X1156512Y3690874D01*
X1164793Y3674008D01*
X1174800Y3658006D01*
X1186281Y3643122D01*
X1199286Y3629456D01*
X1213561Y3617214D01*
X1229004Y3606444D01*
X1245463Y3597300D01*
X1262786Y3589883D01*
X1280769Y3584244D01*
X1299210Y3580434D01*
G37*
G36*
X11681206Y4902758D02*
G01*
X11681206Y4991100D01*
X11592814Y4991100D01*
X11593220Y4986832D01*
X11596370Y4973574D01*
X11601297Y4960874D01*
X11607850Y4948885D01*
X11615928Y4937912D01*
X11625427Y4928108D01*
X11636095Y4919675D01*
X11647830Y4912715D01*
X11660378Y4907381D01*
X11673535Y4903774D01*
G37*
G36*
X11706606Y4902758D02*
G01*
X11714226Y4903774D01*
X11727383Y4907381D01*
X11739930Y4912715D01*
X11751665Y4919675D01*
X11762384Y4928108D01*
X11771833Y4937912D01*
X11779910Y4948885D01*
X11786463Y4960874D01*
X11791391Y4973574D01*
X11794540Y4986832D01*
X11794998Y4991100D01*
X11706606Y4991100D01*
G37*
G36*
X11001095Y4968544D02*
G01*
X11019942Y4968544D01*
X11038687Y4970424D01*
X11057128Y4974234D01*
X11075060Y4979873D01*
X11092383Y4987290D01*
X11108842Y4996434D01*
X11124285Y5007203D01*
X11138611Y5019446D01*
X11151565Y5033111D01*
X11163096Y5047996D01*
X11173053Y5063998D01*
X11181334Y5080863D01*
X11187887Y5098542D01*
X11192611Y5116779D01*
X11195456Y5135372D01*
X11196421Y5154168D01*
X11195456Y5173014D01*
X11192611Y5191607D01*
X11187887Y5209844D01*
X11181334Y5227523D01*
X11173053Y5244388D01*
X11163096Y5260390D01*
X11151565Y5275275D01*
X11138611Y5288940D01*
X11124285Y5301183D01*
X11108842Y5311952D01*
X11092383Y5321096D01*
X11075060Y5328513D01*
X11057128Y5334152D01*
X11038687Y5337962D01*
X11019942Y5339842D01*
X11001095Y5339842D01*
X10982350Y5337962D01*
X10963910Y5334152D01*
X10945977Y5328513D01*
X10928654Y5321096D01*
X10912195Y5311952D01*
X10896752Y5301183D01*
X10882426Y5288940D01*
X10869472Y5275275D01*
X10857941Y5260390D01*
X10847984Y5244388D01*
X10839704Y5227523D01*
X10833150Y5209844D01*
X10828426Y5191607D01*
X10825581Y5173014D01*
X10824616Y5154168D01*
X10825581Y5135372D01*
X10828426Y5116779D01*
X10833150Y5098542D01*
X10839704Y5080863D01*
X10847984Y5063998D01*
X10857941Y5047996D01*
X10869472Y5033111D01*
X10882426Y5019446D01*
X10896752Y5007203D01*
X10912195Y4996434D01*
X10928654Y4987290D01*
X10945977Y4979873D01*
X10963910Y4974234D01*
X10982350Y4970424D01*
G37*
G36*
X1317955Y4968544D02*
G01*
X1336751Y4968544D01*
X1355496Y4970424D01*
X1373936Y4974234D01*
X1391920Y4979873D01*
X1409242Y4987290D01*
X1425702Y4996434D01*
X1441145Y5007203D01*
X1455420Y5019446D01*
X1468424Y5033111D01*
X1479905Y5047996D01*
X1489913Y5063998D01*
X1498193Y5080863D01*
X1504746Y5098542D01*
X1509420Y5116779D01*
X1512316Y5135372D01*
X1513230Y5154168D01*
X1512316Y5173014D01*
X1509420Y5191607D01*
X1504746Y5209844D01*
X1498193Y5227523D01*
X1489913Y5244388D01*
X1479905Y5260390D01*
X1468424Y5275275D01*
X1455420Y5288940D01*
X1441145Y5301183D01*
X1425702Y5311952D01*
X1409242Y5321096D01*
X1391920Y5328513D01*
X1373936Y5334152D01*
X1355496Y5337962D01*
X1336751Y5339842D01*
X1317955Y5339842D01*
X1299210Y5337962D01*
X1280769Y5334152D01*
X1262786Y5328513D01*
X1245463Y5321096D01*
X1229004Y5311952D01*
X1213561Y5301183D01*
X1199286Y5288940D01*
X1186281Y5275275D01*
X1174800Y5260390D01*
X1164793Y5244388D01*
X1156512Y5227523D01*
X1149959Y5209844D01*
X1145286Y5191607D01*
X1142390Y5173014D01*
X1141476Y5154168D01*
X1142390Y5135372D01*
X1145286Y5116779D01*
X1149959Y5098542D01*
X1156512Y5080863D01*
X1164793Y5063998D01*
X1174800Y5047996D01*
X1186281Y5033111D01*
X1199286Y5019446D01*
X1213561Y5007203D01*
X1229004Y4996434D01*
X1245463Y4987290D01*
X1262786Y4979873D01*
X1280769Y4974234D01*
X1299210Y4970424D01*
G37*
G36*
X11592712Y5016500D02*
G01*
X11681206Y5016500D01*
X11681206Y5105044D01*
X11666931Y5102301D01*
X11654028Y5097830D01*
X11641836Y5091633D01*
X11630609Y5083962D01*
X11620500Y5074767D01*
X11611711Y5064353D01*
X11604345Y5052872D01*
X11598605Y5040528D01*
X11594592Y5027472D01*
G37*
G36*
X11706606Y5016500D02*
G01*
X11795048Y5016500D01*
X11793169Y5027472D01*
X11789156Y5040528D01*
X11783415Y5052872D01*
X11776049Y5064353D01*
X11767261Y5074767D01*
X11757152Y5083962D01*
X11745925Y5091633D01*
X11733733Y5097830D01*
X11720830Y5102301D01*
X11706606Y5105044D01*
G37*
G36*
X11941048Y5155946D02*
G01*
X11954713Y5155946D01*
X11968226Y5157774D01*
X11981383Y5161381D01*
X11993930Y5166715D01*
X12005665Y5173675D01*
X12016384Y5182108D01*
X12025833Y5191912D01*
X12033910Y5202885D01*
X12040463Y5214874D01*
X12045391Y5227574D01*
X12048540Y5240832D01*
X12049912Y5254396D01*
X12049455Y5268061D01*
X12047169Y5281472D01*
X12043156Y5294528D01*
X12037415Y5306872D01*
X12030049Y5318353D01*
X12021261Y5328767D01*
X12011152Y5337962D01*
X11999925Y5345633D01*
X11987733Y5351830D01*
X11974830Y5356301D01*
X11961469Y5358993D01*
X11947906Y5359908D01*
X11934291Y5358993D01*
X11920931Y5356301D01*
X11908028Y5351830D01*
X11895836Y5345633D01*
X11884609Y5337962D01*
X11874500Y5328767D01*
X11865711Y5318353D01*
X11858345Y5306872D01*
X11852605Y5294528D01*
X11848592Y5281472D01*
X11846306Y5268061D01*
X11845848Y5254396D01*
X11847220Y5240832D01*
X11850370Y5227574D01*
X11855297Y5214874D01*
X11861850Y5202885D01*
X11869928Y5191912D01*
X11879427Y5182108D01*
X11890095Y5173675D01*
X11901830Y5166715D01*
X11914378Y5161381D01*
X11927535Y5157774D01*
G37*
G36*
X11681206Y5156758D02*
G01*
X11681206Y5245100D01*
X11592814Y5245100D01*
X11593220Y5240832D01*
X11596370Y5227574D01*
X11601297Y5214874D01*
X11607850Y5202885D01*
X11615928Y5191912D01*
X11625427Y5182108D01*
X11636095Y5173675D01*
X11647830Y5166715D01*
X11660378Y5161381D01*
X11673535Y5157774D01*
G37*
G36*
X11706606Y5156758D02*
G01*
X11714226Y5157774D01*
X11727383Y5161381D01*
X11739930Y5166715D01*
X11751665Y5173675D01*
X11762384Y5182108D01*
X11771833Y5191912D01*
X11779910Y5202885D01*
X11786463Y5214874D01*
X11791391Y5227574D01*
X11794540Y5240832D01*
X11794998Y5245100D01*
X11706606Y5245100D01*
G37*
G36*
X12392406Y5185562D02*
G01*
X12392406Y5448300D01*
X12129719Y5448300D01*
X12130176Y5437936D01*
X12133072Y5414975D01*
X12137847Y5392369D01*
X12144552Y5370271D01*
X12153036Y5348782D01*
X12163348Y5328107D01*
X12175286Y5308346D01*
X12188901Y5289651D01*
X12203988Y5272125D01*
X12220498Y5255971D01*
X12238278Y5241239D01*
X12257278Y5228031D01*
X12277293Y5216499D01*
X12298172Y5206644D01*
X12319863Y5198618D01*
X12342114Y5192369D01*
X12364770Y5188051D01*
X12387783Y5185664D01*
G37*
G36*
X368300Y5185562D02*
G01*
X368300Y5448300D01*
X105613Y5448300D01*
X106070Y5437936D01*
X108966Y5414975D01*
X113741Y5392369D01*
X120446Y5370271D01*
X128930Y5348782D01*
X139242Y5328107D01*
X151180Y5308346D01*
X164795Y5289651D01*
X179882Y5272125D01*
X196392Y5255971D01*
X214172Y5241239D01*
X233171Y5228031D01*
X253187Y5216499D01*
X274066Y5206644D01*
X295757Y5198618D01*
X318008Y5192369D01*
X340664Y5188051D01*
X363677Y5185664D01*
G37*
G36*
X12417806Y5185613D02*
G01*
X12433960Y5186629D01*
X12456820Y5189982D01*
X12479274Y5195265D01*
X12501270Y5202428D01*
X12522555Y5211368D01*
X12543028Y5222087D01*
X12562535Y5234432D01*
X12580975Y5248402D01*
X12598146Y5263896D01*
X12613944Y5280710D01*
X12628321Y5298846D01*
X12641072Y5318099D01*
X12652248Y5338318D01*
X12661646Y5359450D01*
X12669215Y5381244D01*
X12674955Y5403646D01*
X12678816Y5426405D01*
X12680645Y5448300D01*
X12417806Y5448300D01*
G37*
G36*
X393700Y5185613D02*
G01*
X409854Y5186629D01*
X432714Y5189982D01*
X455168Y5195265D01*
X477164Y5202428D01*
X498449Y5211368D01*
X518922Y5222087D01*
X538429Y5234432D01*
X556869Y5248402D01*
X574040Y5263896D01*
X589838Y5280710D01*
X604215Y5298846D01*
X616966Y5318099D01*
X628142Y5338318D01*
X637540Y5359450D01*
X645109Y5381244D01*
X650849Y5403646D01*
X654710Y5426405D01*
X656539Y5448300D01*
X393700Y5448300D01*
G37*

%LPD*%
G36*
X372770Y3584346D02*
G01*
X372770Y3567785D01*
X354431Y3567785D01*
X354431Y3549396D01*
X372770Y3549396D01*
X372770Y3530955D01*
X354431Y3530955D01*
X354431Y3514394D01*
X336092Y3514394D01*
X336092Y3530955D01*
X319582Y3530955D01*
X319582Y3549396D01*
X301244Y3549396D01*
X301244Y3567785D01*
X266395Y3567785D01*
X266395Y3549396D01*
X301244Y3549396D01*
X301244Y3530955D01*
X266395Y3530955D01*
X266395Y3514394D01*
X319582Y3514394D01*
X319582Y3497834D01*
X301244Y3497834D01*
X301244Y3514394D01*
X284734Y3514394D01*
X284734Y3497834D01*
X266395Y3497834D01*
X266395Y3479444D01*
X319582Y3479444D01*
X319582Y3444443D01*
X336092Y3444443D01*
X336092Y3426053D01*
X301244Y3426053D01*
X301244Y3461004D01*
X266395Y3461004D01*
X266395Y3444443D01*
X231546Y3444443D01*
X231546Y3426053D01*
X249885Y3426053D01*
X249885Y3409492D01*
X231546Y3409492D01*
X231546Y3391103D01*
X249885Y3391103D01*
X249885Y3374542D01*
X231546Y3374542D01*
X231546Y3391103D01*
X215036Y3391103D01*
X215036Y3409492D01*
X196697Y3409492D01*
X196697Y3391103D01*
X215036Y3391103D01*
X215036Y3374542D01*
X231546Y3374542D01*
X231546Y3356101D01*
X266395Y3356101D01*
X266395Y3339541D01*
X231546Y3339541D01*
X231546Y3356101D01*
X196697Y3356101D01*
X196697Y3374542D01*
X178358Y3374542D01*
X178358Y3444443D01*
X145338Y3444443D01*
X145338Y3426053D01*
X127000Y3426053D01*
X127000Y3409492D01*
X145338Y3409492D01*
X145338Y3426053D01*
X161848Y3426053D01*
X161848Y3391103D01*
X145338Y3391103D01*
X145338Y3374542D01*
X178358Y3374542D01*
X178358Y3356101D01*
X127000Y3356101D01*
X127000Y3339541D01*
X178358Y3339541D01*
X178358Y3321151D01*
X161848Y3321151D01*
X161848Y3339541D01*
X145338Y3339541D01*
X145338Y3321151D01*
X127000Y3321151D01*
X127000Y3286150D01*
X145338Y3286150D01*
X145338Y3302762D01*
X161848Y3302762D01*
X161848Y3286150D01*
X196697Y3286150D01*
X196697Y3302762D01*
X178358Y3302762D01*
X178358Y3321151D01*
X196697Y3321151D01*
X196697Y3339541D01*
X231546Y3339541D01*
X231546Y3321151D01*
X266395Y3321151D01*
X266395Y3339541D01*
X284734Y3339541D01*
X284734Y3286150D01*
X249885Y3286150D01*
X249885Y3302762D01*
X215036Y3302762D01*
X215036Y3286150D01*
X249885Y3286150D01*
X249885Y3267760D01*
X231546Y3267760D01*
X231546Y3286150D01*
X215036Y3286150D01*
X215036Y3267760D01*
X231546Y3267760D01*
X231546Y3251200D01*
X266395Y3251200D01*
X266395Y3267760D01*
X284734Y3267760D01*
X284734Y3286150D01*
X301244Y3286150D01*
X301244Y3302762D01*
X319582Y3302762D01*
X319582Y3286150D01*
X354431Y3286150D01*
X354431Y3302762D01*
X336092Y3302762D01*
X336092Y3321151D01*
X319582Y3321151D01*
X319582Y3339541D01*
X301244Y3339541D01*
X301244Y3374542D01*
X266395Y3374542D01*
X266395Y3391103D01*
X284734Y3391103D01*
X284734Y3409492D01*
X266395Y3409492D01*
X266395Y3426053D01*
X284734Y3426053D01*
X284734Y3409492D01*
X319582Y3409492D01*
X319582Y3391103D01*
X301244Y3391103D01*
X301244Y3374542D01*
X319582Y3374542D01*
X319582Y3356101D01*
X336092Y3356101D01*
X336092Y3321151D01*
X354431Y3321151D01*
X354431Y3339541D01*
X389280Y3339541D01*
X389280Y3356101D01*
X372770Y3356101D01*
X372770Y3374542D01*
X354431Y3374542D01*
X354431Y3409492D01*
X336092Y3409492D01*
X336092Y3426053D01*
X372770Y3426053D01*
X372770Y3461004D01*
X354431Y3461004D01*
X354431Y3514394D01*
X389280Y3514394D01*
X389280Y3461004D01*
X407619Y3461004D01*
X407619Y3479444D01*
X442468Y3479444D01*
X442468Y3514394D01*
X458978Y3514394D01*
X458978Y3549396D01*
X512165Y3549396D01*
X512165Y3514394D01*
X495655Y3514394D01*
X495655Y3549396D01*
X477316Y3549396D01*
X477316Y3514394D01*
X458978Y3514394D01*
X458978Y3497834D01*
X548843Y3497834D01*
X548843Y3479444D01*
X581812Y3479444D01*
X581812Y3461004D01*
X565353Y3461004D01*
X565353Y3479444D01*
X548843Y3479444D01*
X548843Y3444443D01*
X495655Y3444443D01*
X495655Y3497834D01*
X458978Y3497834D01*
X458978Y3426053D01*
X442468Y3426053D01*
X442468Y3444443D01*
X389280Y3444443D01*
X389280Y3426053D01*
X372770Y3426053D01*
X372770Y3374542D01*
X389280Y3374542D01*
X389280Y3356101D01*
X407619Y3356101D01*
X407619Y3374542D01*
X425958Y3374542D01*
X425958Y3391103D01*
X407619Y3391103D01*
X407619Y3426053D01*
X425958Y3426053D01*
X425958Y3409492D01*
X477316Y3409492D01*
X477316Y3426053D01*
X495655Y3426053D01*
X495655Y3409492D01*
X477316Y3409492D01*
X477316Y3391103D01*
X512165Y3391103D01*
X512165Y3409492D01*
X530504Y3409492D01*
X530504Y3426053D01*
X581812Y3426053D01*
X581812Y3444443D01*
X600151Y3444443D01*
X600151Y3426053D01*
X616661Y3426053D01*
X616661Y3409492D01*
X600151Y3409492D01*
X600151Y3391103D01*
X581812Y3391103D01*
X581812Y3374542D01*
X565353Y3374542D01*
X565353Y3356101D01*
X548843Y3356101D01*
X548843Y3374542D01*
X530504Y3374542D01*
X530504Y3391103D01*
X512165Y3391103D01*
X512165Y3374542D01*
X458978Y3374542D01*
X458978Y3356101D01*
X477316Y3356101D01*
X477316Y3321151D01*
X458978Y3321151D01*
X458978Y3339541D01*
X425958Y3339541D01*
X425958Y3286150D01*
X389280Y3286150D01*
X389280Y3302762D01*
X372770Y3302762D01*
X372770Y3267760D01*
X407619Y3267760D01*
X407619Y3251200D01*
X458978Y3251200D01*
X458978Y3234639D01*
X477316Y3234639D01*
X477316Y3181248D01*
X458978Y3181248D01*
X458978Y3234639D01*
X425958Y3234639D01*
X425958Y3251200D01*
X389280Y3251200D01*
X389280Y3267760D01*
X372770Y3267760D01*
X372770Y3251200D01*
X354431Y3251200D01*
X354431Y3267760D01*
X336092Y3267760D01*
X336092Y3234639D01*
X319582Y3234639D01*
X319582Y3216249D01*
X354431Y3216249D01*
X354431Y3197809D01*
X336092Y3197809D01*
X336092Y3181248D01*
X319582Y3181248D01*
X319582Y3197809D01*
X301244Y3197809D01*
X301244Y3234639D01*
X284734Y3234639D01*
X284734Y3251200D01*
X249885Y3251200D01*
X249885Y3234639D01*
X231546Y3234639D01*
X231546Y3251200D01*
X196697Y3251200D01*
X196697Y3267760D01*
X178358Y3267760D01*
X178358Y3216249D01*
X196697Y3216249D01*
X196697Y3234639D01*
X215036Y3234639D01*
X215036Y3216249D01*
X249885Y3216249D01*
X249885Y3234639D01*
X266395Y3234639D01*
X266395Y3181248D01*
X284734Y3181248D01*
X284734Y3197809D01*
X301244Y3197809D01*
X301244Y3181248D01*
X319582Y3181248D01*
X319582Y3144469D01*
X301244Y3144469D01*
X301244Y3127857D01*
X319582Y3127857D01*
X319582Y3144469D01*
X336092Y3144469D01*
X336092Y3162858D01*
X354431Y3162858D01*
X354431Y3144469D01*
X336092Y3144469D01*
X336092Y3127857D01*
X284734Y3127857D01*
X284734Y3162858D01*
X266395Y3162858D01*
X266395Y3076346D01*
X284734Y3076346D01*
X284734Y3109468D01*
X301244Y3109468D01*
X301244Y3092907D01*
X354431Y3092907D01*
X354431Y3076346D01*
X389280Y3076346D01*
X389280Y3109468D01*
X372770Y3109468D01*
X372770Y3092907D01*
X354431Y3092907D01*
X354431Y3109468D01*
X336092Y3109468D01*
X336092Y3127857D01*
X372770Y3127857D01*
X372770Y3162858D01*
X354431Y3162858D01*
X354431Y3197809D01*
X372770Y3197809D01*
X372770Y3181248D01*
X389280Y3181248D01*
X389280Y3197809D01*
X372770Y3197809D01*
X372770Y3216249D01*
X389280Y3216249D01*
X389280Y3234639D01*
X407619Y3234639D01*
X407619Y3197809D01*
X442468Y3197809D01*
X442468Y3181248D01*
X425958Y3181248D01*
X425958Y3197809D01*
X407619Y3197809D01*
X407619Y3181248D01*
X425958Y3181248D01*
X425958Y3162858D01*
X442468Y3162858D01*
X442468Y3181248D01*
X458978Y3181248D01*
X458978Y3162858D01*
X477316Y3162858D01*
X477316Y3181248D01*
X495655Y3181248D01*
X495655Y3216249D01*
X530504Y3216249D01*
X530504Y3234639D01*
X477316Y3234639D01*
X477316Y3267760D01*
X425958Y3267760D01*
X425958Y3286150D01*
X442468Y3286150D01*
X442468Y3302762D01*
X458978Y3302762D01*
X458978Y3286150D01*
X495655Y3286150D01*
X495655Y3302762D01*
X477316Y3302762D01*
X477316Y3321151D01*
X495655Y3321151D01*
X495655Y3356101D01*
X512165Y3356101D01*
X512165Y3374542D01*
X530504Y3374542D01*
X530504Y3356101D01*
X548843Y3356101D01*
X548843Y3339541D01*
X530504Y3339541D01*
X530504Y3321151D01*
X548843Y3321151D01*
X548843Y3339541D01*
X565353Y3339541D01*
X565353Y3286150D01*
X530504Y3286150D01*
X530504Y3302762D01*
X512165Y3302762D01*
X512165Y3267760D01*
X495655Y3267760D01*
X495655Y3251200D01*
X512165Y3251200D01*
X512165Y3267760D01*
X530504Y3267760D01*
X530504Y3251403D01*
X533663Y3251200D01*
X581812Y3251200D01*
X581812Y3234639D01*
X565353Y3234639D01*
X565353Y3251200D01*
X533663Y3251200D01*
X547878Y3250285D01*
X548944Y3216249D01*
X635000Y3216249D01*
X635000Y3234639D01*
X600151Y3234639D01*
X600151Y3267760D01*
X565353Y3267760D01*
X565353Y3286150D01*
X581812Y3286150D01*
X581812Y3302762D01*
X600151Y3302762D01*
X600151Y3286150D01*
X635000Y3286150D01*
X635000Y3302558D01*
X617575Y3303676D01*
X616458Y3321151D01*
X600151Y3321151D01*
X600151Y3356101D01*
X616661Y3356101D01*
X616661Y3321151D01*
X635000Y3321151D01*
X635000Y3391103D01*
X616661Y3391103D01*
X616661Y3409492D01*
X635000Y3409492D01*
X635000Y3479444D01*
X616661Y3479444D01*
X616661Y3461004D01*
X600151Y3461004D01*
X600151Y3497834D01*
X565353Y3497834D01*
X565353Y3514394D01*
X530504Y3514394D01*
X530504Y3530955D01*
X565353Y3530955D01*
X565353Y3584346D01*
X530504Y3584346D01*
X530504Y3549396D01*
X512165Y3549396D01*
X512165Y3567785D01*
X477316Y3567785D01*
X477316Y3584346D01*
X458978Y3584346D01*
X458978Y3567785D01*
X442468Y3567785D01*
X442468Y3584346D01*
X425958Y3584346D01*
X425958Y3549396D01*
X442468Y3549396D01*
X442468Y3530955D01*
X425958Y3530955D01*
X425958Y3497834D01*
X407619Y3497834D01*
X407619Y3514394D01*
X389280Y3514394D01*
X389280Y3549396D01*
X407619Y3549396D01*
X407619Y3584346D01*
G37*
G36*
X128828Y3584346D02*
G01*
X128828Y3567785D01*
X233375Y3567785D01*
X233375Y3477615D01*
X143510Y3477615D01*
X143510Y3567785D01*
X128828Y3567785D01*
X128828Y3462883D01*
X248056Y3462883D01*
X248056Y3584346D01*
G37*
G36*
X319582Y3584346D02*
G01*
X319582Y3567785D01*
X336092Y3567785D01*
X336092Y3584346D01*
G37*
G36*
X600151Y3584346D02*
G01*
X600151Y3567785D01*
X581812Y3567785D01*
X581812Y3530955D01*
X600151Y3530955D01*
X600151Y3514394D01*
X616661Y3514394D01*
X616661Y3497834D01*
X635000Y3497834D01*
X635000Y3549396D01*
X600151Y3549396D01*
X600151Y3567785D01*
X616661Y3567785D01*
X616661Y3584346D01*
G37*
G36*
X161848Y3547516D02*
G01*
X161848Y3497834D01*
X213207Y3497834D01*
X213207Y3547516D01*
G37*
G36*
X512165Y3479444D02*
G01*
X512165Y3461004D01*
X530504Y3461004D01*
X530504Y3479444D01*
G37*
G36*
X196697Y3444443D02*
G01*
X196697Y3426053D01*
X215036Y3426053D01*
X215036Y3444443D01*
G37*
G36*
X581812Y3426053D02*
G01*
X581812Y3409492D01*
X548843Y3409492D01*
X548843Y3374542D01*
X565353Y3374542D01*
X565353Y3391103D01*
X581812Y3391103D01*
X581812Y3409492D01*
X600151Y3409492D01*
X600151Y3426053D01*
G37*
G36*
X442468Y3391103D02*
G01*
X442468Y3374542D01*
X425958Y3374542D01*
X425958Y3356101D01*
X407619Y3356101D01*
X407619Y3339541D01*
X389280Y3339541D01*
X389280Y3321151D01*
X407619Y3321151D01*
X407619Y3339541D01*
X425958Y3339541D01*
X425958Y3356101D01*
X442468Y3356101D01*
X442468Y3374542D01*
X458978Y3374542D01*
X458978Y3391103D01*
G37*
G36*
X127000Y3267760D02*
G01*
X127000Y3251200D01*
X161848Y3251200D01*
X161848Y3267760D01*
G37*
G36*
X284734Y3267760D02*
G01*
X284734Y3251200D01*
X319582Y3251200D01*
X319582Y3267760D01*
G37*
G36*
X145338Y3234639D02*
G01*
X145338Y3216249D01*
X161848Y3216249D01*
X161848Y3234639D01*
G37*
G36*
X128828Y3197809D02*
G01*
X128828Y3181248D01*
X233375Y3181248D01*
X233375Y3092907D01*
X143510Y3092907D01*
X143510Y3181248D01*
X128828Y3181248D01*
X128828Y3076346D01*
X248056Y3076346D01*
X248056Y3197809D01*
G37*
G36*
X513994Y3197809D02*
G01*
X513994Y3181248D01*
X618490Y3181248D01*
X618490Y3092907D01*
X528624Y3092907D01*
X528624Y3181248D01*
X513994Y3181248D01*
X513994Y3076346D01*
X633171Y3076346D01*
X633171Y3197809D01*
G37*
G36*
X389280Y3162858D02*
G01*
X389280Y3144469D01*
X407619Y3144469D01*
X407619Y3162858D01*
G37*
G36*
X161848Y3161030D02*
G01*
X161848Y3111296D01*
X213207Y3111296D01*
X213207Y3161030D01*
G37*
G36*
X548843Y3161030D02*
G01*
X548843Y3111296D01*
X598322Y3111296D01*
X598322Y3161030D01*
G37*
G36*
X425958Y3144469D02*
G01*
X425958Y3092907D01*
X407619Y3092907D01*
X407619Y3076346D01*
X495655Y3076346D01*
X495655Y3092907D01*
X442468Y3092907D01*
X442468Y3109468D01*
X458978Y3109468D01*
X458978Y3127857D01*
X477316Y3127857D01*
X477316Y3109468D01*
X495655Y3109468D01*
X495655Y3127857D01*
X477316Y3127857D01*
X477316Y3144469D01*
G37*
D10*
X170687Y2603500D02*
G01*
X167386Y2609850D01*
X157987Y2619502D01*
X224789Y2619502D01*
D11*
X11947893Y5003802D02*
G01*
X11947893Y1346197D01*
X12278088Y1016002D01*
X11947893Y508002D02*
G01*
X12278088Y838202D01*
X12278088Y1016002D01*
D12*
G01*
X12405106Y381000D03*
G01*
X12405106Y5461000D03*
G01*
X381000Y381000D03*
G01*
X381000Y5461000D03*
D13*
G01*
X11693880Y762000D03*
G01*
X11947880Y762000D03*
G01*
X11947880Y508000D03*
G01*
X11693880Y508000D03*
G01*
X11693906Y5257800D03*
G01*
X11947906Y5257800D03*
G01*
X11947906Y5003800D03*
G01*
X11693906Y5003800D03*
D14*
G01*
X12532080Y1016000D03*
G01*
X12278080Y1016000D03*
G01*
X12278080Y1270000D03*
G01*
X12532080Y1270000D03*
M02*
