G04 Layer: TopLayer*
G04 Panelize: , Column: 2, Row: 2, Board Size: 58.42mm x 58.42mm, Panelized Board Size: 118.84mm x 118.84mm*
G04 EasyEDA v6.5.34, 2023-09-07 21:37:19*
G04 37d5d949b0044b0a9540a43f37a93ca3,5a6b42c53f6a479593ecc07194224c93,10*
G04 Gerber Generator version 0.2*
G04 Scale: 100 percent, Rotated: No, Reflected: No *
G04 Dimensions in millimeters *
G04 leading zeros omitted , absolute positions ,4 integer and 5 decimal *
%FSLAX45Y45*%
%MOMM*%

%ADD10C,0.2540*%
%ADD11C,0.5000*%
%ADD12O,0.6299962X1.8649950000000002*%
%ADD13R,1.0000X1.1000*%
%ADD14R,0.8999X1.0000*%
%ADD15R,0.9000X0.8000*%
%ADD16R,1.0000X0.8999*%
%ADD17R,1.1000X1.0000*%
%ADD18C,1.5240*%
%ADD19C,5.0000*%
%ADD20C,2.0000*%
%ADD21C,1.8000*%
%ADD22C,0.6096*%
%ADD23C,0.0122*%

%LPD*%
G36*
X5805932Y25908D02*
G01*
X36068Y26416D01*
X32156Y27178D01*
X28905Y29362D01*
X26670Y32664D01*
X25908Y36576D01*
X25908Y5805932D01*
X26670Y5809843D01*
X28905Y5813094D01*
X32156Y5815330D01*
X36068Y5816092D01*
X5805932Y5816092D01*
X5809843Y5815330D01*
X5813094Y5813094D01*
X5815330Y5809843D01*
X5816092Y5805932D01*
X5816092Y36068D01*
X5815330Y32207D01*
X5813094Y28905D01*
X5809843Y26670D01*
G37*

%LPC*%
G36*
X4584700Y5600700D02*
G01*
X4687112Y5600700D01*
X4686960Y5602528D01*
X4684268Y5616803D01*
X4679746Y5630672D01*
X4673549Y5643829D01*
X4665776Y5656122D01*
X4656480Y5667349D01*
X4645863Y5677306D01*
X4634077Y5685840D01*
X4621326Y5692851D01*
X4607814Y5698236D01*
X4593691Y5701842D01*
X4584700Y5702960D01*
G37*
G36*
X393700Y105562D02*
G01*
X398322Y105664D01*
X421284Y108051D01*
X443992Y112369D01*
X466242Y118618D01*
X487934Y126644D01*
X508812Y136499D01*
X528828Y148031D01*
X547827Y161239D01*
X565607Y175971D01*
X582117Y192125D01*
X597204Y209600D01*
X610819Y228295D01*
X622757Y248107D01*
X633018Y268782D01*
X641553Y290271D01*
X648208Y312369D01*
X653034Y334975D01*
X655929Y357936D01*
X656336Y368300D01*
X393700Y368300D01*
G37*
G36*
X5448300Y105613D02*
G01*
X5448300Y368300D01*
X5185410Y368300D01*
X5187289Y346405D01*
X5191150Y323646D01*
X5196890Y301244D01*
X5204460Y279450D01*
X5213858Y258317D01*
X5224983Y238099D01*
X5237784Y218846D01*
X5252161Y200710D01*
X5267960Y183896D01*
X5285130Y168402D01*
X5303520Y154432D01*
X5323027Y142087D01*
X5343499Y131368D01*
X5364835Y122428D01*
X5386781Y115265D01*
X5409285Y109982D01*
X5432145Y106629D01*
G37*
G36*
X368300Y105613D02*
G01*
X368300Y368300D01*
X105410Y368300D01*
X107289Y346405D01*
X111150Y323646D01*
X116890Y301244D01*
X124460Y279450D01*
X133858Y258317D01*
X144983Y238099D01*
X157784Y218846D01*
X172161Y200710D01*
X187960Y183896D01*
X205130Y168402D01*
X223520Y154432D01*
X243027Y142087D01*
X263499Y131368D01*
X284835Y122428D01*
X306781Y115265D01*
X329285Y109982D01*
X352145Y106629D01*
G37*
G36*
X5473700Y393700D02*
G01*
X5736336Y393700D01*
X5735929Y404063D01*
X5733034Y427024D01*
X5728208Y449630D01*
X5721553Y471728D01*
X5713018Y493217D01*
X5702757Y513892D01*
X5690819Y533704D01*
X5677204Y552348D01*
X5662117Y569874D01*
X5645607Y586028D01*
X5627827Y600760D01*
X5608828Y613968D01*
X5588812Y625500D01*
X5567934Y635355D01*
X5546242Y643382D01*
X5523992Y649630D01*
X5501284Y653948D01*
X5478322Y656336D01*
X5473700Y656437D01*
G37*
G36*
X393700Y393700D02*
G01*
X656336Y393700D01*
X655929Y404063D01*
X653034Y427024D01*
X648208Y449630D01*
X641553Y471728D01*
X633018Y493217D01*
X622757Y513892D01*
X610819Y533704D01*
X597204Y552348D01*
X582117Y569874D01*
X565607Y586028D01*
X547827Y600760D01*
X528828Y613968D01*
X508812Y625500D01*
X487934Y635355D01*
X466242Y643382D01*
X443992Y649630D01*
X421284Y653948D01*
X398322Y656336D01*
X393700Y656437D01*
G37*
G36*
X5185410Y393700D02*
G01*
X5448300Y393700D01*
X5448300Y656386D01*
X5432145Y655370D01*
X5409285Y652018D01*
X5386781Y646734D01*
X5364835Y639572D01*
X5343499Y630631D01*
X5323027Y619912D01*
X5303520Y607568D01*
X5285130Y593598D01*
X5267960Y578104D01*
X5252161Y561289D01*
X5237784Y543153D01*
X5224983Y523900D01*
X5213858Y503682D01*
X5204460Y482549D01*
X5196890Y460756D01*
X5191150Y438353D01*
X5187289Y415594D01*
G37*
G36*
X105410Y393700D02*
G01*
X368300Y393700D01*
X368300Y656386D01*
X352145Y655370D01*
X329285Y652018D01*
X306781Y646734D01*
X284835Y639572D01*
X263499Y630631D01*
X243027Y619912D01*
X223520Y607568D01*
X205130Y593598D01*
X187960Y578104D01*
X172161Y561289D01*
X157784Y543153D01*
X144983Y523900D01*
X133858Y503682D01*
X124460Y482549D01*
X116890Y460756D01*
X111150Y438353D01*
X107289Y415594D01*
G37*
G36*
X2177440Y583488D02*
G01*
X2191258Y584403D01*
X2204821Y587095D01*
X2217978Y591566D01*
X2230374Y597662D01*
X2241905Y605383D01*
X2252319Y614527D01*
X2261463Y624941D01*
X2269134Y636422D01*
X2275281Y648868D01*
X2279700Y661974D01*
X2282444Y675538D01*
X2283307Y689356D01*
X2282444Y703224D01*
X2279700Y716788D01*
X2275281Y729894D01*
X2269134Y742340D01*
X2261463Y753821D01*
X2252319Y764235D01*
X2241905Y773379D01*
X2230374Y781100D01*
X2217978Y787196D01*
X2204821Y791667D01*
X2191258Y794359D01*
X2177440Y795274D01*
X2163622Y794359D01*
X2150059Y791667D01*
X2136902Y787196D01*
X2124506Y781100D01*
X2112975Y773379D01*
X2102561Y764235D01*
X2093417Y753821D01*
X2085746Y742340D01*
X2079599Y729894D01*
X2075180Y716788D01*
X2072436Y703224D01*
X2071573Y689356D01*
X2072436Y675538D01*
X2075180Y661974D01*
X2079599Y648868D01*
X2085746Y636422D01*
X2093417Y624941D01*
X2102561Y614527D01*
X2112975Y605383D01*
X2124506Y597662D01*
X2136902Y591566D01*
X2150059Y587095D01*
X2163622Y584403D01*
G37*
G36*
X3664559Y583488D02*
G01*
X3678377Y584403D01*
X3691940Y587095D01*
X3705047Y591566D01*
X3717493Y597662D01*
X3728974Y605383D01*
X3739387Y614527D01*
X3748532Y624941D01*
X3756253Y636422D01*
X3762349Y648868D01*
X3766820Y661974D01*
X3769512Y675538D01*
X3770426Y689356D01*
X3769512Y703224D01*
X3766820Y716788D01*
X3762349Y729894D01*
X3756253Y742340D01*
X3748532Y753821D01*
X3739387Y764235D01*
X3728974Y773379D01*
X3717493Y781100D01*
X3705047Y787196D01*
X3691940Y791667D01*
X3678377Y794359D01*
X3664559Y795274D01*
X3650691Y794359D01*
X3637127Y791667D01*
X3624021Y787196D01*
X3611575Y781100D01*
X3600094Y773379D01*
X3589680Y764235D01*
X3580536Y753821D01*
X3572814Y742340D01*
X3566718Y729894D01*
X3562248Y716788D01*
X3559556Y703224D01*
X3558641Y689356D01*
X3559556Y675538D01*
X3562248Y661974D01*
X3566718Y648868D01*
X3572814Y636422D01*
X3580536Y624941D01*
X3589680Y614527D01*
X3600094Y605383D01*
X3611575Y597662D01*
X3624021Y591566D01*
X3637127Y587095D01*
X3650691Y584403D01*
G37*
G36*
X2540000Y788517D02*
G01*
X2555189Y789432D01*
X2570124Y792175D01*
X2584653Y796696D01*
X2598521Y802894D01*
X2611526Y810768D01*
X2623464Y820166D01*
X2634234Y830884D01*
X2643581Y842873D01*
X2651455Y855878D01*
X2657754Y869797D01*
X2659938Y872947D01*
X2663190Y875080D01*
X2667000Y875792D01*
X2670810Y875080D01*
X2674061Y872947D01*
X2676245Y869797D01*
X2682544Y855878D01*
X2690418Y842873D01*
X2699766Y830884D01*
X2710535Y820166D01*
X2722473Y810768D01*
X2735478Y802894D01*
X2749346Y796696D01*
X2763875Y792175D01*
X2778810Y789432D01*
X2794000Y788517D01*
X2809189Y789432D01*
X2824124Y792175D01*
X2838653Y796696D01*
X2852521Y802894D01*
X2865526Y810768D01*
X2877464Y820166D01*
X2888234Y830884D01*
X2897581Y842873D01*
X2905455Y855878D01*
X2911754Y869797D01*
X2913938Y872947D01*
X2917190Y875080D01*
X2921000Y875792D01*
X2924810Y875080D01*
X2928061Y872947D01*
X2930245Y869797D01*
X2936544Y855878D01*
X2944418Y842873D01*
X2953766Y830884D01*
X2964535Y820166D01*
X2976473Y810768D01*
X2989478Y802894D01*
X3003346Y796696D01*
X3017875Y792175D01*
X3032810Y789432D01*
X3048000Y788517D01*
X3063189Y789432D01*
X3078124Y792175D01*
X3092653Y796696D01*
X3106521Y802894D01*
X3119526Y810768D01*
X3131464Y820166D01*
X3142234Y830884D01*
X3151581Y842873D01*
X3159455Y855878D01*
X3165754Y869797D01*
X3167938Y872947D01*
X3171190Y875080D01*
X3175000Y875792D01*
X3178810Y875080D01*
X3182061Y872947D01*
X3184245Y869797D01*
X3190544Y855878D01*
X3198418Y842873D01*
X3207766Y830884D01*
X3218535Y820166D01*
X3230473Y810768D01*
X3243478Y802894D01*
X3257346Y796696D01*
X3271875Y792175D01*
X3286810Y789432D01*
X3302000Y788517D01*
X3317189Y789432D01*
X3332124Y792175D01*
X3346653Y796696D01*
X3360521Y802894D01*
X3373526Y810768D01*
X3385464Y820166D01*
X3396234Y830884D01*
X3405581Y842873D01*
X3413455Y855878D01*
X3419703Y869746D01*
X3424224Y884275D01*
X3426968Y899210D01*
X3427882Y914400D01*
X3426968Y929538D01*
X3424224Y944524D01*
X3419703Y959053D01*
X3413455Y972870D01*
X3405581Y985875D01*
X3396234Y997864D01*
X3385464Y1008634D01*
X3373526Y1017981D01*
X3360521Y1025855D01*
X3346653Y1032103D01*
X3332124Y1036624D01*
X3317189Y1039368D01*
X3302000Y1040282D01*
X3286810Y1039368D01*
X3271875Y1036624D01*
X3257346Y1032103D01*
X3243478Y1025855D01*
X3230473Y1017981D01*
X3218535Y1008634D01*
X3207766Y997864D01*
X3198418Y985875D01*
X3190544Y972870D01*
X3184245Y958951D01*
X3182061Y955802D01*
X3178810Y953719D01*
X3175000Y952957D01*
X3171190Y953719D01*
X3167938Y955802D01*
X3165754Y958951D01*
X3159455Y972870D01*
X3151581Y985875D01*
X3142234Y997864D01*
X3131464Y1008634D01*
X3119526Y1017981D01*
X3106521Y1025855D01*
X3092602Y1032103D01*
X3089452Y1034338D01*
X3087319Y1037590D01*
X3086608Y1041400D01*
X3086608Y1681581D01*
X3087370Y1685493D01*
X3089605Y1688795D01*
X3111804Y1710994D01*
X3115106Y1713230D01*
X3119018Y1713992D01*
X3504692Y1713992D01*
X3512718Y1714804D01*
X3519932Y1716989D01*
X3526637Y1720545D01*
X3532835Y1725675D01*
X3570224Y1763064D01*
X3575354Y1769262D01*
X3578910Y1775968D01*
X3581095Y1783181D01*
X3581908Y1791207D01*
X3581908Y2094534D01*
X3582670Y2098395D01*
X3584905Y2101697D01*
X3588156Y2103932D01*
X3592068Y2104694D01*
X3597706Y2104694D01*
X3604056Y2105406D01*
X3609492Y2107336D01*
X3614420Y2110384D01*
X3618484Y2114499D01*
X3621582Y2119376D01*
X3623513Y2124862D01*
X3624224Y2131161D01*
X3624224Y2230018D01*
X3623513Y2236368D01*
X3621582Y2241804D01*
X3618484Y2246731D01*
X3614420Y2250795D01*
X3612540Y2252014D01*
X3609594Y2254808D01*
X3607968Y2258568D01*
X3607968Y2262632D01*
X3609594Y2266391D01*
X3612540Y2269185D01*
X3614420Y2270404D01*
X3618484Y2274468D01*
X3621582Y2279396D01*
X3623513Y2284831D01*
X3624224Y2291181D01*
X3624224Y2390038D01*
X3623513Y2396337D01*
X3621582Y2401824D01*
X3618484Y2406700D01*
X3614420Y2410815D01*
X3609492Y2413863D01*
X3604056Y2415794D01*
X3597706Y2416505D01*
X3592068Y2416505D01*
X3588156Y2417267D01*
X3584905Y2419451D01*
X3582670Y2422753D01*
X3581908Y2426665D01*
X3581908Y2442972D01*
X3582619Y2446629D01*
X3584600Y2449830D01*
X3588562Y2454148D01*
X3593744Y2462072D01*
X3597503Y2470607D01*
X3599687Y2473807D01*
X3602990Y2475941D01*
X3606800Y2476703D01*
X3610610Y2475941D01*
X3613861Y2473807D01*
X3616096Y2470607D01*
X3619855Y2462072D01*
X3625037Y2454148D01*
X3631437Y2447188D01*
X3638905Y2441346D01*
X3647236Y2436876D01*
X3656228Y2433777D01*
X3665575Y2432202D01*
X3675024Y2432202D01*
X3684371Y2433777D01*
X3693363Y2436876D01*
X3701694Y2441346D01*
X3709162Y2447188D01*
X3715562Y2454148D01*
X3720744Y2462072D01*
X3724503Y2470607D01*
X3726687Y2473807D01*
X3729990Y2475941D01*
X3733800Y2476703D01*
X3737610Y2475941D01*
X3740861Y2473807D01*
X3743096Y2470607D01*
X3746855Y2462072D01*
X3752037Y2454148D01*
X3755999Y2449830D01*
X3757980Y2446629D01*
X3758692Y2442921D01*
X3758692Y2406243D01*
X3758031Y2402586D01*
X3756101Y2399487D01*
X3753205Y2397201D01*
X3749649Y2396134D01*
X3746550Y2395778D01*
X3741064Y2393899D01*
X3736187Y2390800D01*
X3732072Y2386685D01*
X3729024Y2381808D01*
X3727094Y2376322D01*
X3726383Y2370023D01*
X3726383Y2291181D01*
X3727094Y2284831D01*
X3729024Y2279396D01*
X3732072Y2274468D01*
X3736187Y2270404D01*
X3738067Y2269185D01*
X3741013Y2266391D01*
X3742639Y2262632D01*
X3742639Y2258568D01*
X3741013Y2254808D01*
X3738067Y2252014D01*
X3736187Y2250795D01*
X3732072Y2246731D01*
X3729024Y2241804D01*
X3727094Y2236368D01*
X3726383Y2230018D01*
X3726383Y2203297D01*
X3784600Y2203297D01*
X3784600Y2254504D01*
X3785362Y2258415D01*
X3787597Y2261717D01*
X3790848Y2263902D01*
X3794760Y2264664D01*
X3799840Y2264664D01*
X3803751Y2263902D01*
X3807002Y2261717D01*
X3809237Y2258415D01*
X3810000Y2254504D01*
X3810000Y2203297D01*
X3868216Y2203297D01*
X3868216Y2230018D01*
X3867505Y2236368D01*
X3865575Y2241804D01*
X3862527Y2246731D01*
X3858412Y2250795D01*
X3856532Y2252014D01*
X3853586Y2254808D01*
X3851960Y2258568D01*
X3851960Y2262632D01*
X3853586Y2266391D01*
X3856532Y2269185D01*
X3858412Y2270404D01*
X3862527Y2274468D01*
X3865575Y2279396D01*
X3867505Y2284831D01*
X3868216Y2291181D01*
X3868216Y2370023D01*
X3867505Y2376322D01*
X3865575Y2381808D01*
X3862527Y2386685D01*
X3858412Y2390800D01*
X3853535Y2393899D01*
X3848049Y2395778D01*
X3844950Y2396134D01*
X3841394Y2397201D01*
X3838498Y2399487D01*
X3836568Y2402586D01*
X3835908Y2406243D01*
X3835908Y2442972D01*
X3836619Y2446629D01*
X3838600Y2449830D01*
X3842562Y2454148D01*
X3847744Y2462072D01*
X3851554Y2470759D01*
X3853891Y2479954D01*
X3854704Y2489809D01*
X3854704Y2612491D01*
X3853891Y2622346D01*
X3851554Y2631541D01*
X3847744Y2640177D01*
X3842562Y2648153D01*
X3838600Y2652471D01*
X3836619Y2655671D01*
X3835908Y2659329D01*
X3835908Y2723591D01*
X3836670Y2727502D01*
X3838854Y2730804D01*
X3840479Y2732379D01*
X3846068Y2740406D01*
X3850233Y2749346D01*
X3852773Y2758795D01*
X3853637Y2768600D01*
X3852773Y2778404D01*
X3850233Y2787853D01*
X3846068Y2796794D01*
X3840479Y2804820D01*
X3833520Y2811780D01*
X3825443Y2817418D01*
X3816553Y2821533D01*
X3807053Y2824073D01*
X3797300Y2824937D01*
X3787495Y2824073D01*
X3777996Y2821533D01*
X3769106Y2817418D01*
X3761079Y2811780D01*
X3754120Y2804820D01*
X3748481Y2796794D01*
X3744366Y2787853D01*
X3741775Y2778404D01*
X3740962Y2768600D01*
X3741775Y2758795D01*
X3744366Y2749346D01*
X3748481Y2740406D01*
X3754120Y2732379D01*
X3755694Y2730804D01*
X3757929Y2727502D01*
X3758692Y2723591D01*
X3758692Y2659329D01*
X3757980Y2655671D01*
X3755999Y2652471D01*
X3752037Y2648153D01*
X3746855Y2640177D01*
X3743096Y2631694D01*
X3740861Y2628493D01*
X3737610Y2626360D01*
X3733800Y2625598D01*
X3729990Y2626360D01*
X3726687Y2628493D01*
X3724503Y2631694D01*
X3720744Y2640177D01*
X3715562Y2648153D01*
X3711600Y2652471D01*
X3709619Y2655620D01*
X3708908Y2659329D01*
X3708908Y2856992D01*
X3708095Y2865018D01*
X3705910Y2872232D01*
X3702354Y2878937D01*
X3697224Y2885135D01*
X3659835Y2922524D01*
X3653637Y2927654D01*
X3646932Y2931210D01*
X3639718Y2933395D01*
X3631692Y2934208D01*
X1919884Y2934208D01*
X1915972Y2934970D01*
X1912670Y2937205D01*
X1910486Y2940456D01*
X1909724Y2944368D01*
X1909724Y2948787D01*
X1909013Y2955137D01*
X1907082Y2960573D01*
X1903984Y2965500D01*
X1899920Y2969564D01*
X1894992Y2972663D01*
X1889556Y2974594D01*
X1883206Y2975305D01*
X1774393Y2975305D01*
X1768043Y2974594D01*
X1762607Y2972663D01*
X1757680Y2969564D01*
X1753616Y2965500D01*
X1750517Y2960573D01*
X1748586Y2955137D01*
X1747875Y2948787D01*
X1747875Y2849930D01*
X1748586Y2843631D01*
X1750517Y2838145D01*
X1753616Y2833268D01*
X1757680Y2829153D01*
X1759559Y2827985D01*
X1762506Y2825191D01*
X1764131Y2821432D01*
X1764131Y2817368D01*
X1762506Y2813608D01*
X1759559Y2810764D01*
X1757680Y2809595D01*
X1753616Y2805480D01*
X1750517Y2800604D01*
X1748637Y2795219D01*
X1747824Y2787142D01*
X1746808Y2783586D01*
X1744573Y2780639D01*
X1741373Y2778658D01*
X1737715Y2777998D01*
X1716684Y2777998D01*
X1713026Y2778658D01*
X1709826Y2780639D01*
X1707591Y2783586D01*
X1706575Y2787142D01*
X1705762Y2795219D01*
X1703882Y2800604D01*
X1700784Y2805480D01*
X1696720Y2809595D01*
X1694840Y2810764D01*
X1691893Y2813608D01*
X1690268Y2817368D01*
X1690268Y2821432D01*
X1691893Y2825191D01*
X1694840Y2827985D01*
X1696720Y2829153D01*
X1700784Y2833268D01*
X1703882Y2838145D01*
X1705813Y2843631D01*
X1706524Y2849930D01*
X1706524Y2948787D01*
X1705813Y2955137D01*
X1703882Y2960573D01*
X1700784Y2965500D01*
X1696720Y2969564D01*
X1691792Y2972663D01*
X1686356Y2974594D01*
X1680006Y2975305D01*
X1674368Y2975305D01*
X1670456Y2976067D01*
X1667205Y2978251D01*
X1664970Y2981553D01*
X1664207Y2985465D01*
X1664207Y5034991D01*
X1664970Y5038902D01*
X1667205Y5042204D01*
X1668780Y5043779D01*
X1674418Y5051806D01*
X1678533Y5060696D01*
X1681073Y5070195D01*
X1681937Y5080000D01*
X1681073Y5089753D01*
X1678533Y5099253D01*
X1674418Y5108143D01*
X1668780Y5116220D01*
X1661820Y5123129D01*
X1653793Y5128768D01*
X1644853Y5132933D01*
X1635404Y5135473D01*
X1625600Y5136337D01*
X1615795Y5135473D01*
X1606346Y5132933D01*
X1597406Y5128768D01*
X1589379Y5123129D01*
X1582420Y5116220D01*
X1576781Y5108143D01*
X1572666Y5099253D01*
X1570126Y5089753D01*
X1569262Y5080000D01*
X1570126Y5070195D01*
X1572666Y5060696D01*
X1576781Y5051806D01*
X1582420Y5043779D01*
X1583994Y5042204D01*
X1586230Y5038902D01*
X1586992Y5034991D01*
X1586992Y2985465D01*
X1586230Y2981553D01*
X1583994Y2978251D01*
X1580692Y2976067D01*
X1576832Y2975305D01*
X1571193Y2975305D01*
X1564843Y2974594D01*
X1559407Y2972663D01*
X1554480Y2969564D01*
X1550416Y2965500D01*
X1547317Y2960573D01*
X1545386Y2955137D01*
X1544675Y2948787D01*
X1544675Y2849930D01*
X1545386Y2843631D01*
X1547317Y2838145D01*
X1550416Y2833268D01*
X1554480Y2829153D01*
X1556359Y2827985D01*
X1559306Y2825191D01*
X1560931Y2821432D01*
X1560931Y2817368D01*
X1559306Y2813608D01*
X1556359Y2810764D01*
X1554480Y2809595D01*
X1550416Y2805480D01*
X1547317Y2800604D01*
X1545386Y2795168D01*
X1544675Y2788818D01*
X1544675Y2689961D01*
X1545386Y2683662D01*
X1547317Y2678176D01*
X1550416Y2673299D01*
X1554480Y2669184D01*
X1559407Y2666085D01*
X1564843Y2664206D01*
X1571193Y2663494D01*
X1680006Y2663494D01*
X1686356Y2664206D01*
X1691792Y2666085D01*
X1696720Y2669184D01*
X1700784Y2673299D01*
X1703882Y2678176D01*
X1705762Y2683560D01*
X1706575Y2691587D01*
X1707591Y2695194D01*
X1709826Y2698140D01*
X1713026Y2700070D01*
X1716684Y2700782D01*
X1737715Y2700782D01*
X1741373Y2700070D01*
X1744573Y2698140D01*
X1746808Y2695194D01*
X1747824Y2691587D01*
X1748637Y2683560D01*
X1750517Y2678176D01*
X1753616Y2673299D01*
X1757680Y2669184D01*
X1762607Y2666085D01*
X1768043Y2664206D01*
X1774393Y2663494D01*
X1883206Y2663494D01*
X1889556Y2664206D01*
X1894992Y2666085D01*
X1899920Y2669184D01*
X1903984Y2673299D01*
X1907082Y2678176D01*
X1908962Y2683560D01*
X1909775Y2691587D01*
X1910791Y2695194D01*
X1913026Y2698140D01*
X1916226Y2700070D01*
X1919884Y2700782D01*
X1951482Y2700782D01*
X1959508Y2701544D01*
X1966722Y2703779D01*
X1973376Y2707335D01*
X1976780Y2710078D01*
X1979371Y2711653D01*
X1982317Y2712364D01*
X1991004Y2713126D01*
X2000453Y2715666D01*
X2009393Y2719781D01*
X2017420Y2725420D01*
X2024380Y2732379D01*
X2030018Y2740406D01*
X2034133Y2749346D01*
X2036673Y2758795D01*
X2037537Y2768600D01*
X2036673Y2778404D01*
X2034133Y2787853D01*
X2030018Y2796794D01*
X2024380Y2804820D01*
X2017420Y2811780D01*
X2009393Y2817418D01*
X2000453Y2821533D01*
X1991004Y2824073D01*
X1981200Y2824937D01*
X1971395Y2824073D01*
X1961946Y2821533D01*
X1953006Y2817418D01*
X1944979Y2811780D01*
X1938020Y2804820D01*
X1932381Y2796794D01*
X1928672Y2788767D01*
X1926031Y2785313D01*
X1922170Y2783281D01*
X1917801Y2783027D01*
X1913788Y2784652D01*
X1910740Y2787802D01*
X1909368Y2791917D01*
X1909013Y2795168D01*
X1907082Y2800604D01*
X1903984Y2805480D01*
X1899920Y2809595D01*
X1898040Y2810764D01*
X1895093Y2813608D01*
X1893468Y2817368D01*
X1893468Y2821432D01*
X1895093Y2825191D01*
X1898040Y2827985D01*
X1899920Y2829153D01*
X1903984Y2833268D01*
X1907082Y2838145D01*
X1909013Y2843631D01*
X1909470Y2847949D01*
X1910537Y2851505D01*
X1912823Y2854401D01*
X1915972Y2856331D01*
X1919579Y2856992D01*
X2249932Y2856992D01*
X2253792Y2856230D01*
X2257094Y2853994D01*
X2259330Y2850743D01*
X2260092Y2846832D01*
X2260092Y2659329D01*
X2259380Y2655671D01*
X2257399Y2652471D01*
X2253437Y2648153D01*
X2248255Y2640177D01*
X2244496Y2631694D01*
X2242261Y2628493D01*
X2239010Y2626360D01*
X2235200Y2625598D01*
X2231390Y2626360D01*
X2228088Y2628493D01*
X2225903Y2631694D01*
X2222144Y2640177D01*
X2216962Y2648153D01*
X2210562Y2655112D01*
X2203094Y2660904D01*
X2194763Y2665425D01*
X2185771Y2668524D01*
X2176424Y2670048D01*
X2166975Y2670048D01*
X2157628Y2668524D01*
X2148636Y2665425D01*
X2140305Y2660904D01*
X2132838Y2655112D01*
X2126437Y2648153D01*
X2121255Y2640177D01*
X2117496Y2631694D01*
X2115261Y2628493D01*
X2112010Y2626360D01*
X2108200Y2625598D01*
X2104390Y2626360D01*
X2101088Y2628493D01*
X2098903Y2631694D01*
X2095144Y2640177D01*
X2089962Y2648153D01*
X2083562Y2655112D01*
X2076094Y2660904D01*
X2067763Y2665425D01*
X2058771Y2668524D01*
X2049424Y2670048D01*
X2039975Y2670048D01*
X2030628Y2668524D01*
X2021636Y2665425D01*
X2013305Y2660904D01*
X2005838Y2655112D01*
X1999437Y2648153D01*
X1994255Y2640177D01*
X1990445Y2631541D01*
X1988108Y2622346D01*
X1987296Y2612491D01*
X1987296Y2489809D01*
X1988108Y2479954D01*
X1990445Y2470759D01*
X1994255Y2462072D01*
X1997456Y2457145D01*
X1998827Y2453995D01*
X1999030Y2450541D01*
X1998116Y2447239D01*
X1996135Y2444445D01*
X1971141Y2419451D01*
X1967890Y2417267D01*
X1963978Y2416505D01*
X1926742Y2416505D01*
X1920443Y2415794D01*
X1914956Y2413863D01*
X1910080Y2410764D01*
X1905965Y2406700D01*
X1902917Y2401773D01*
X1900986Y2396337D01*
X1900275Y2389987D01*
X1900275Y2291130D01*
X1900986Y2284831D01*
X1902917Y2279345D01*
X1905965Y2274468D01*
X1910080Y2270353D01*
X1911959Y2269185D01*
X1914906Y2266391D01*
X1916531Y2262632D01*
X1916531Y2258568D01*
X1914906Y2254808D01*
X1911959Y2251964D01*
X1910080Y2250795D01*
X1905965Y2246680D01*
X1902917Y2241804D01*
X1900986Y2236368D01*
X1900275Y2230018D01*
X1900275Y2131161D01*
X1900986Y2124862D01*
X1902917Y2119376D01*
X1905965Y2114499D01*
X1910080Y2110384D01*
X1914956Y2107285D01*
X1920443Y2105406D01*
X1926742Y2104694D01*
X1932432Y2104694D01*
X1936343Y2103932D01*
X1939594Y2101697D01*
X1941830Y2098395D01*
X1942592Y2094534D01*
X1942592Y1778507D01*
X1943404Y1770481D01*
X1945589Y1763268D01*
X1949145Y1756562D01*
X1954275Y1750364D01*
X1978964Y1725675D01*
X1985162Y1720545D01*
X1991868Y1716989D01*
X1999081Y1714804D01*
X2007107Y1713992D01*
X2722981Y1713992D01*
X2726893Y1713230D01*
X2730195Y1710994D01*
X2752394Y1688795D01*
X2754630Y1685493D01*
X2755392Y1681581D01*
X2755392Y1041400D01*
X2754680Y1037590D01*
X2752547Y1034338D01*
X2749397Y1032103D01*
X2735478Y1025855D01*
X2722473Y1017981D01*
X2710535Y1008634D01*
X2699766Y997864D01*
X2690418Y985875D01*
X2682544Y972870D01*
X2676245Y958951D01*
X2674061Y955802D01*
X2670810Y953719D01*
X2667000Y952957D01*
X2663190Y953719D01*
X2659938Y955802D01*
X2657754Y958951D01*
X2651455Y972870D01*
X2643581Y985875D01*
X2634234Y997864D01*
X2623464Y1008634D01*
X2611526Y1017981D01*
X2598521Y1025855D01*
X2584653Y1032103D01*
X2570124Y1036624D01*
X2555189Y1039368D01*
X2540000Y1040282D01*
X2524810Y1039368D01*
X2509875Y1036624D01*
X2495346Y1032103D01*
X2481478Y1025855D01*
X2468473Y1017981D01*
X2456535Y1008634D01*
X2445766Y997864D01*
X2436418Y985875D01*
X2428544Y972870D01*
X2422296Y959053D01*
X2417775Y944524D01*
X2415032Y929538D01*
X2414117Y914400D01*
X2415032Y899210D01*
X2417775Y884275D01*
X2422296Y869746D01*
X2428544Y855878D01*
X2436418Y842873D01*
X2445766Y830884D01*
X2456535Y820166D01*
X2468473Y810768D01*
X2481478Y802894D01*
X2495346Y796696D01*
X2509875Y792175D01*
X2524810Y789432D01*
G37*
G36*
X4456887Y5600700D02*
G01*
X4559300Y5600700D01*
X4559300Y5702960D01*
X4550308Y5701842D01*
X4536186Y5698236D01*
X4522673Y5692851D01*
X4509922Y5685840D01*
X4498136Y5677306D01*
X4487519Y5667349D01*
X4478223Y5656122D01*
X4470450Y5643829D01*
X4464253Y5630672D01*
X4459732Y5616803D01*
X4457039Y5602528D01*
G37*
G36*
X4073194Y5588000D02*
G01*
X4131411Y5588000D01*
X4131411Y5651195D01*
X4099661Y5651195D01*
X4093362Y5650484D01*
X4087876Y5648604D01*
X4082999Y5645505D01*
X4078884Y5641390D01*
X4075785Y5636514D01*
X4073906Y5631027D01*
X4073194Y5624728D01*
G37*
G36*
X4156811Y5588000D02*
G01*
X4214977Y5588000D01*
X4214977Y5624728D01*
X4214266Y5631027D01*
X4212386Y5636514D01*
X4209288Y5641390D01*
X4205224Y5645505D01*
X4200296Y5648604D01*
X4194860Y5650484D01*
X4188510Y5651195D01*
X4156811Y5651195D01*
G37*
G36*
X4099661Y5499404D02*
G01*
X4131411Y5499404D01*
X4131411Y5562600D01*
X4073194Y5562600D01*
X4073194Y5525871D01*
X4073906Y5519521D01*
X4075785Y5514086D01*
X4078884Y5509158D01*
X4082999Y5505094D01*
X4087876Y5501995D01*
X4093362Y5500116D01*
G37*
G36*
X4156811Y5499404D02*
G01*
X4188510Y5499404D01*
X4194860Y5500116D01*
X4200296Y5501995D01*
X4205224Y5505094D01*
X4209288Y5509158D01*
X4212386Y5514086D01*
X4214266Y5519521D01*
X4214977Y5525871D01*
X4214977Y5562600D01*
X4156811Y5562600D01*
G37*
G36*
X105410Y5473700D02*
G01*
X368300Y5473700D01*
X368300Y5736386D01*
X352145Y5735370D01*
X329285Y5732018D01*
X306781Y5726734D01*
X284835Y5719572D01*
X263499Y5710631D01*
X243027Y5699912D01*
X223520Y5687568D01*
X205130Y5673598D01*
X187960Y5658104D01*
X172161Y5641289D01*
X157784Y5623153D01*
X144983Y5603900D01*
X133858Y5583682D01*
X124460Y5562549D01*
X116890Y5540756D01*
X111150Y5518353D01*
X107289Y5495594D01*
G37*
G36*
X5185410Y5473700D02*
G01*
X5448300Y5473700D01*
X5448300Y5736386D01*
X5432145Y5735370D01*
X5409285Y5732018D01*
X5386781Y5726734D01*
X5364835Y5719572D01*
X5343499Y5710631D01*
X5323027Y5699912D01*
X5303520Y5687568D01*
X5285130Y5673598D01*
X5267960Y5658104D01*
X5252161Y5641289D01*
X5237784Y5623153D01*
X5224983Y5603900D01*
X5213858Y5583682D01*
X5204460Y5562549D01*
X5196890Y5540756D01*
X5191150Y5518353D01*
X5187289Y5495594D01*
G37*
G36*
X5473700Y5473700D02*
G01*
X5736336Y5473700D01*
X5735929Y5484063D01*
X5733034Y5507024D01*
X5728208Y5529630D01*
X5721553Y5551728D01*
X5713018Y5573217D01*
X5702757Y5593892D01*
X5690819Y5613704D01*
X5677204Y5632348D01*
X5662117Y5649874D01*
X5645607Y5666028D01*
X5627827Y5680760D01*
X5608828Y5693968D01*
X5588812Y5705500D01*
X5567934Y5715355D01*
X5546242Y5723382D01*
X5523992Y5729630D01*
X5501284Y5733948D01*
X5478322Y5736336D01*
X5473700Y5736437D01*
G37*
G36*
X393700Y5473700D02*
G01*
X656336Y5473700D01*
X655929Y5484063D01*
X653034Y5507024D01*
X648208Y5529630D01*
X641553Y5551728D01*
X633018Y5573217D01*
X622757Y5593892D01*
X610819Y5613704D01*
X597204Y5632348D01*
X582117Y5649874D01*
X565607Y5666028D01*
X547827Y5680760D01*
X528828Y5693968D01*
X508812Y5705500D01*
X487934Y5715355D01*
X466242Y5723382D01*
X443992Y5729630D01*
X421284Y5733948D01*
X398322Y5736336D01*
X393700Y5736437D01*
G37*
G36*
X4584700Y5473039D02*
G01*
X4593691Y5474157D01*
X4607814Y5477764D01*
X4621326Y5483148D01*
X4634077Y5490159D01*
X4645863Y5498693D01*
X4656480Y5508650D01*
X4665776Y5519877D01*
X4673549Y5532170D01*
X4679746Y5545328D01*
X4684268Y5559196D01*
X4686960Y5573471D01*
X4687112Y5575300D01*
X4584700Y5575300D01*
G37*
G36*
X3752850Y2124710D02*
G01*
X3784600Y2124710D01*
X3784600Y2177897D01*
X3726383Y2177897D01*
X3726383Y2151176D01*
X3727094Y2144877D01*
X3729024Y2139391D01*
X3732072Y2134514D01*
X3736187Y2130399D01*
X3741064Y2127300D01*
X3746550Y2125421D01*
G37*
G36*
X3810000Y2124710D02*
G01*
X3841750Y2124710D01*
X3848049Y2125421D01*
X3853535Y2127300D01*
X3858412Y2130399D01*
X3862527Y2134514D01*
X3865575Y2139391D01*
X3867505Y2144877D01*
X3868216Y2151176D01*
X3868216Y2177897D01*
X3810000Y2177897D01*
G37*
G36*
X4559300Y5473039D02*
G01*
X4559300Y5575300D01*
X4456887Y5575300D01*
X4457039Y5573471D01*
X4459732Y5559196D01*
X4464253Y5545328D01*
X4470450Y5532170D01*
X4478223Y5519877D01*
X4487519Y5508650D01*
X4498136Y5498693D01*
X4509922Y5490159D01*
X4522673Y5483148D01*
X4536186Y5477764D01*
X4550308Y5474157D01*
G37*
G36*
X4818735Y5472328D02*
G01*
X4833264Y5472328D01*
X4847691Y5474157D01*
X4861814Y5477764D01*
X4875326Y5483148D01*
X4888077Y5490159D01*
X4899863Y5498693D01*
X4910480Y5508650D01*
X4919776Y5519877D01*
X4927549Y5532170D01*
X4933746Y5545328D01*
X4938268Y5559196D01*
X4940960Y5573471D01*
X4941874Y5588000D01*
X4940960Y5602528D01*
X4938268Y5616803D01*
X4933746Y5630672D01*
X4927549Y5643829D01*
X4919776Y5656122D01*
X4910480Y5667349D01*
X4899863Y5677306D01*
X4888077Y5685840D01*
X4875326Y5692851D01*
X4861814Y5698236D01*
X4847691Y5701842D01*
X4833264Y5703671D01*
X4818735Y5703671D01*
X4804308Y5701842D01*
X4790186Y5698236D01*
X4776673Y5692851D01*
X4763922Y5685840D01*
X4752136Y5677306D01*
X4741519Y5667349D01*
X4732223Y5656122D01*
X4724450Y5643829D01*
X4718253Y5630672D01*
X4713732Y5616803D01*
X4711039Y5602528D01*
X4710125Y5588000D01*
X4711039Y5573471D01*
X4713732Y5559196D01*
X4718253Y5545328D01*
X4724450Y5532170D01*
X4732223Y5519877D01*
X4741519Y5508650D01*
X4752136Y5498693D01*
X4763922Y5490159D01*
X4776673Y5483148D01*
X4790186Y5477764D01*
X4804308Y5474157D01*
G37*
G36*
X4456887Y5346700D02*
G01*
X4559300Y5346700D01*
X4559300Y5448960D01*
X4550308Y5447842D01*
X4536186Y5444236D01*
X4522673Y5438851D01*
X4509922Y5431840D01*
X4498136Y5423306D01*
X4487519Y5413349D01*
X4478223Y5402122D01*
X4470450Y5389829D01*
X4464253Y5376672D01*
X4459732Y5362803D01*
X4457039Y5348528D01*
G37*
G36*
X4584700Y5346700D02*
G01*
X4687112Y5346700D01*
X4686960Y5348528D01*
X4684268Y5362803D01*
X4679746Y5376672D01*
X4673549Y5389829D01*
X4665776Y5402122D01*
X4656480Y5413349D01*
X4645863Y5423306D01*
X4634077Y5431840D01*
X4621326Y5438851D01*
X4607814Y5444236D01*
X4593691Y5447842D01*
X4584700Y5448960D01*
G37*
G36*
X4584700Y5219039D02*
G01*
X4593691Y5220157D01*
X4607814Y5223764D01*
X4621326Y5229148D01*
X4634077Y5236159D01*
X4645863Y5244693D01*
X4656480Y5254650D01*
X4665776Y5265877D01*
X4673549Y5278170D01*
X4679746Y5291328D01*
X4684268Y5305196D01*
X4686960Y5319471D01*
X4687112Y5321300D01*
X4584700Y5321300D01*
G37*
G36*
X4559300Y5219039D02*
G01*
X4559300Y5321300D01*
X4456887Y5321300D01*
X4457039Y5319471D01*
X4459732Y5305196D01*
X4464253Y5291328D01*
X4470450Y5278170D01*
X4478223Y5265877D01*
X4487519Y5254650D01*
X4498136Y5244693D01*
X4509922Y5236159D01*
X4522673Y5229148D01*
X4536186Y5223764D01*
X4550308Y5220157D01*
G37*
G36*
X4818735Y5218328D02*
G01*
X4833264Y5218328D01*
X4847691Y5220157D01*
X4861814Y5223764D01*
X4875326Y5229148D01*
X4888077Y5236159D01*
X4899863Y5244693D01*
X4910480Y5254650D01*
X4919776Y5265877D01*
X4927549Y5278170D01*
X4933746Y5291328D01*
X4938268Y5305196D01*
X4940960Y5319471D01*
X4941874Y5334000D01*
X4940960Y5348528D01*
X4938268Y5362803D01*
X4933746Y5376672D01*
X4927549Y5389829D01*
X4919776Y5402122D01*
X4910480Y5413349D01*
X4899863Y5423306D01*
X4888077Y5431840D01*
X4875326Y5438851D01*
X4861814Y5444236D01*
X4847691Y5447842D01*
X4833264Y5449671D01*
X4818735Y5449671D01*
X4804308Y5447842D01*
X4790186Y5444236D01*
X4776673Y5438851D01*
X4763922Y5431840D01*
X4752136Y5423306D01*
X4741519Y5413349D01*
X4732223Y5402122D01*
X4724450Y5389829D01*
X4718253Y5376672D01*
X4713732Y5362803D01*
X4711039Y5348528D01*
X4710125Y5334000D01*
X4711039Y5319471D01*
X4713732Y5305196D01*
X4718253Y5291328D01*
X4724450Y5278170D01*
X4732223Y5265877D01*
X4741519Y5254650D01*
X4752136Y5244693D01*
X4763922Y5236159D01*
X4776673Y5229148D01*
X4790186Y5223764D01*
X4804308Y5220157D01*
G37*
G36*
X368300Y5185613D02*
G01*
X368300Y5448300D01*
X105410Y5448300D01*
X107289Y5426405D01*
X111150Y5403646D01*
X116890Y5381244D01*
X124460Y5359450D01*
X133858Y5338318D01*
X144983Y5318099D01*
X157784Y5298846D01*
X172161Y5280710D01*
X187960Y5263896D01*
X205130Y5248402D01*
X223520Y5234432D01*
X243027Y5222087D01*
X263499Y5211368D01*
X284835Y5202428D01*
X306781Y5195265D01*
X329285Y5189982D01*
X352145Y5186629D01*
G37*
G36*
X5448300Y5185613D02*
G01*
X5448300Y5448300D01*
X5185410Y5448300D01*
X5187289Y5426405D01*
X5191150Y5403646D01*
X5196890Y5381244D01*
X5204460Y5359450D01*
X5213858Y5338318D01*
X5224983Y5318099D01*
X5237784Y5298846D01*
X5252161Y5280710D01*
X5267960Y5263896D01*
X5285130Y5248402D01*
X5303520Y5234432D01*
X5323027Y5222087D01*
X5343499Y5211368D01*
X5364835Y5202428D01*
X5386781Y5195265D01*
X5409285Y5189982D01*
X5432145Y5186629D01*
G37*
G36*
X393700Y5185562D02*
G01*
X398322Y5185664D01*
X421284Y5188051D01*
X443992Y5192369D01*
X466242Y5198618D01*
X487934Y5206644D01*
X508812Y5216499D01*
X528828Y5228031D01*
X547827Y5241239D01*
X565607Y5255971D01*
X582117Y5272125D01*
X597204Y5289600D01*
X610819Y5308295D01*
X622757Y5328107D01*
X633018Y5348782D01*
X641553Y5370271D01*
X648208Y5392369D01*
X653034Y5414975D01*
X655929Y5437936D01*
X656336Y5448300D01*
X393700Y5448300D01*
G37*
G36*
X5473700Y5185562D02*
G01*
X5478322Y5185664D01*
X5501284Y5188051D01*
X5523992Y5192369D01*
X5546242Y5198618D01*
X5567934Y5206644D01*
X5588812Y5216499D01*
X5608828Y5228031D01*
X5627827Y5241239D01*
X5645607Y5255971D01*
X5662117Y5272125D01*
X5677204Y5289600D01*
X5690819Y5308295D01*
X5702757Y5328107D01*
X5713018Y5348782D01*
X5721553Y5370271D01*
X5728208Y5392369D01*
X5733034Y5414975D01*
X5735929Y5437936D01*
X5736336Y5448300D01*
X5473700Y5448300D01*
G37*
G36*
X4149090Y5023662D02*
G01*
X4158894Y5024475D01*
X4168343Y5027015D01*
X4177284Y5031181D01*
X4185310Y5036820D01*
X4192270Y5043779D01*
X4197908Y5051806D01*
X4202023Y5060696D01*
X4204563Y5070195D01*
X4205427Y5080000D01*
X4204563Y5089753D01*
X4202023Y5099253D01*
X4197908Y5108143D01*
X4192270Y5116220D01*
X4190695Y5117795D01*
X4188460Y5121097D01*
X4187698Y5124958D01*
X4187698Y5281015D01*
X4188358Y5284673D01*
X4190339Y5287873D01*
X4193286Y5290108D01*
X4196892Y5291124D01*
X4204919Y5291937D01*
X4210304Y5293817D01*
X4215231Y5296916D01*
X4219295Y5300980D01*
X4220514Y5302859D01*
X4223308Y5305806D01*
X4227068Y5307431D01*
X4231132Y5307431D01*
X4234891Y5305806D01*
X4237685Y5302859D01*
X4238904Y5300980D01*
X4242968Y5296916D01*
X4247896Y5293817D01*
X4253331Y5291886D01*
X4259681Y5291175D01*
X4358538Y5291175D01*
X4364837Y5291886D01*
X4370324Y5293817D01*
X4375200Y5296916D01*
X4379315Y5300980D01*
X4382363Y5305907D01*
X4384294Y5311343D01*
X4385005Y5317693D01*
X4385005Y5426506D01*
X4384294Y5432856D01*
X4382363Y5438292D01*
X4379315Y5443220D01*
X4375200Y5447284D01*
X4370324Y5450382D01*
X4364939Y5452262D01*
X4356862Y5453075D01*
X4353306Y5454091D01*
X4350308Y5456326D01*
X4348378Y5459526D01*
X4347667Y5463184D01*
X4347667Y5489244D01*
X4348378Y5492902D01*
X4350308Y5496052D01*
X4353306Y5498287D01*
X4356862Y5499354D01*
X4364888Y5500116D01*
X4370324Y5501995D01*
X4375200Y5505094D01*
X4379315Y5509158D01*
X4382363Y5514086D01*
X4384294Y5519521D01*
X4385005Y5525871D01*
X4385005Y5624728D01*
X4384294Y5631027D01*
X4382363Y5636514D01*
X4379315Y5641390D01*
X4375200Y5645505D01*
X4370324Y5648604D01*
X4364837Y5650484D01*
X4358538Y5651195D01*
X4269689Y5651195D01*
X4263339Y5650484D01*
X4257903Y5648604D01*
X4252976Y5645505D01*
X4248912Y5641390D01*
X4245813Y5636514D01*
X4243882Y5631027D01*
X4243171Y5624728D01*
X4243171Y5525871D01*
X4243882Y5519521D01*
X4245813Y5514086D01*
X4248912Y5509158D01*
X4252976Y5505094D01*
X4257903Y5501995D01*
X4263694Y5499963D01*
X4267200Y5497830D01*
X4269638Y5494477D01*
X4270451Y5490413D01*
X4270451Y5463184D01*
X4269790Y5459526D01*
X4267860Y5456326D01*
X4264863Y5454091D01*
X4261307Y5453075D01*
X4253280Y5452262D01*
X4247896Y5450382D01*
X4242968Y5447284D01*
X4238904Y5443220D01*
X4237685Y5441340D01*
X4234891Y5438394D01*
X4231132Y5436768D01*
X4227068Y5436768D01*
X4223308Y5438394D01*
X4220514Y5441340D01*
X4219295Y5443220D01*
X4215231Y5447284D01*
X4210304Y5450382D01*
X4204868Y5452313D01*
X4198518Y5453024D01*
X4099661Y5453024D01*
X4093362Y5452313D01*
X4087876Y5450382D01*
X4082999Y5447284D01*
X4078884Y5443220D01*
X4075836Y5438292D01*
X4073906Y5432856D01*
X4073194Y5426506D01*
X4073194Y5317693D01*
X4073906Y5311343D01*
X4075836Y5305907D01*
X4078884Y5300980D01*
X4082999Y5296916D01*
X4087876Y5293817D01*
X4093260Y5291937D01*
X4101287Y5291124D01*
X4104894Y5290108D01*
X4107840Y5287873D01*
X4109821Y5284673D01*
X4110482Y5281015D01*
X4110482Y5124958D01*
X4109720Y5121097D01*
X4107484Y5117795D01*
X4105910Y5116220D01*
X4100271Y5108143D01*
X4096156Y5099253D01*
X4093616Y5089753D01*
X4092752Y5080000D01*
X4093616Y5070195D01*
X4096156Y5060696D01*
X4100271Y5051806D01*
X4105910Y5043779D01*
X4112869Y5036820D01*
X4120896Y5031181D01*
X4129836Y5027015D01*
X4139285Y5024475D01*
G37*
G36*
X5080000Y5023612D02*
G01*
X5089804Y5024475D01*
X5099253Y5027015D01*
X5108194Y5031181D01*
X5116220Y5036820D01*
X5123180Y5043728D01*
X5128818Y5051806D01*
X5132933Y5060696D01*
X5135473Y5070195D01*
X5136337Y5079949D01*
X5135473Y5089753D01*
X5132933Y5099253D01*
X5131866Y5101590D01*
X5130901Y5105908D01*
X5130901Y5562041D01*
X5131866Y5566359D01*
X5132933Y5568746D01*
X5135473Y5578195D01*
X5136337Y5588000D01*
X5135473Y5597804D01*
X5132933Y5607253D01*
X5128818Y5616194D01*
X5123180Y5624220D01*
X5116220Y5631180D01*
X5108194Y5636818D01*
X5099253Y5640933D01*
X5089804Y5643473D01*
X5080000Y5644337D01*
X5070195Y5643473D01*
X5060746Y5640933D01*
X5051806Y5636818D01*
X5043779Y5631180D01*
X5036820Y5624220D01*
X5031181Y5616194D01*
X5027066Y5607253D01*
X5024526Y5597804D01*
X5023662Y5588000D01*
X5024526Y5578195D01*
X5027066Y5568746D01*
X5028133Y5566410D01*
X5029098Y5562142D01*
X5029098Y5105857D01*
X5028133Y5101539D01*
X5027066Y5099253D01*
X5024526Y5089753D01*
X5023662Y5079949D01*
X5024526Y5070195D01*
X5027066Y5060696D01*
X5031181Y5051806D01*
X5036820Y5043728D01*
X5043779Y5036820D01*
X5051806Y5031181D01*
X5060746Y5027015D01*
X5070195Y5024475D01*
G37*
G36*
X2676296Y4330242D02*
G01*
X2689910Y4330700D01*
X2703372Y4332986D01*
X2716377Y4337050D01*
X2728772Y4342790D01*
X2740253Y4350105D01*
X2750667Y4358894D01*
X2759811Y4369003D01*
X2767533Y4380280D01*
X2773680Y4392422D01*
X2778150Y4405325D01*
X2780893Y4418685D01*
X2781757Y4432300D01*
X2780893Y4445914D01*
X2778150Y4459274D01*
X2773680Y4472127D01*
X2767533Y4484319D01*
X2759811Y4495546D01*
X2750667Y4505655D01*
X2740253Y4514494D01*
X2735275Y4517644D01*
X2732786Y4519930D01*
X2731160Y4522876D01*
X2730601Y4526229D01*
X2730601Y5054092D01*
X2731566Y5058359D01*
X2732633Y5060696D01*
X2735173Y5070195D01*
X2736037Y5080000D01*
X2735173Y5089753D01*
X2732633Y5099253D01*
X2728518Y5108143D01*
X2722880Y5116220D01*
X2715920Y5123180D01*
X2707894Y5128768D01*
X2698953Y5132933D01*
X2689504Y5135473D01*
X2679700Y5136337D01*
X2669895Y5135473D01*
X2660446Y5132933D01*
X2651506Y5128768D01*
X2643479Y5123180D01*
X2636520Y5116220D01*
X2630881Y5108143D01*
X2626766Y5099253D01*
X2624226Y5089753D01*
X2623362Y5080000D01*
X2624226Y5070195D01*
X2626766Y5060696D01*
X2627833Y5058359D01*
X2628798Y5054092D01*
X2628798Y4526432D01*
X2628290Y4523333D01*
X2626868Y4520488D01*
X2624632Y4518253D01*
X2613761Y4510227D01*
X2604008Y4500778D01*
X2595524Y4490059D01*
X2588564Y4478324D01*
X2583281Y4465777D01*
X2579674Y4452620D01*
X2577846Y4439107D01*
X2577846Y4425492D01*
X2579674Y4411980D01*
X2583281Y4398822D01*
X2588564Y4386275D01*
X2595524Y4374540D01*
X2604008Y4363821D01*
X2613761Y4354322D01*
X2624785Y4346244D01*
X2636723Y4339691D01*
X2649474Y4334814D01*
X2662732Y4331614D01*
G37*
G36*
X2122271Y3925671D02*
G01*
X2221128Y3925671D01*
X2227478Y3926382D01*
X2232914Y3928313D01*
X2237841Y3931361D01*
X2241905Y3935476D01*
X2245004Y3940352D01*
X2246884Y3945839D01*
X2247595Y3952138D01*
X2247595Y4040987D01*
X2246884Y4047337D01*
X2245004Y4052773D01*
X2241905Y4057700D01*
X2237841Y4061764D01*
X2232914Y4064863D01*
X2227529Y4066743D01*
X2219502Y4067556D01*
X2215896Y4068572D01*
X2212949Y4070807D01*
X2210968Y4074007D01*
X2210308Y4077665D01*
X2210308Y5034991D01*
X2211070Y5038902D01*
X2213305Y5042204D01*
X2214880Y5043779D01*
X2220518Y5051806D01*
X2224633Y5060696D01*
X2227173Y5070195D01*
X2228037Y5080000D01*
X2227173Y5089753D01*
X2224633Y5099253D01*
X2220518Y5108143D01*
X2214880Y5116220D01*
X2207920Y5123129D01*
X2199894Y5128768D01*
X2190953Y5132933D01*
X2181504Y5135473D01*
X2171700Y5136337D01*
X2161895Y5135473D01*
X2152446Y5132933D01*
X2143506Y5128768D01*
X2135479Y5123129D01*
X2128520Y5116220D01*
X2122881Y5108143D01*
X2118766Y5099253D01*
X2116226Y5089753D01*
X2115362Y5080000D01*
X2116226Y5070195D01*
X2118766Y5060696D01*
X2122881Y5051806D01*
X2128520Y5043779D01*
X2130094Y5042204D01*
X2132330Y5038902D01*
X2133092Y5034991D01*
X2133092Y4077665D01*
X2132431Y4074007D01*
X2130450Y4070807D01*
X2127504Y4068572D01*
X2123897Y4067556D01*
X2115870Y4066743D01*
X2110486Y4064863D01*
X2105609Y4061764D01*
X2101494Y4057700D01*
X2098395Y4052773D01*
X2096516Y4047337D01*
X2095804Y4040987D01*
X2095804Y3952138D01*
X2096516Y3945839D01*
X2098395Y3940352D01*
X2101494Y3935476D01*
X2105609Y3931361D01*
X2110486Y3928313D01*
X2115972Y3926382D01*
G37*
G36*
X1987296Y3100324D02*
G01*
X2032000Y3100324D01*
X2032000Y3205226D01*
X2030628Y3205022D01*
X2021636Y3201924D01*
X2013305Y3197402D01*
X2005838Y3191611D01*
X1999437Y3184652D01*
X1994255Y3176676D01*
X1990445Y3168040D01*
X1988108Y3158845D01*
X1987296Y3148990D01*
G37*
G36*
X3358896Y3100324D02*
G01*
X3403600Y3100324D01*
X3403600Y3205226D01*
X3402228Y3205022D01*
X3393236Y3201924D01*
X3384905Y3197402D01*
X3377437Y3191611D01*
X3371037Y3184652D01*
X3365855Y3176676D01*
X3362045Y3168040D01*
X3359708Y3158845D01*
X3358896Y3148990D01*
G37*
G36*
X2673096Y3100324D02*
G01*
X2717800Y3100324D01*
X2717800Y3205226D01*
X2716428Y3205022D01*
X2707436Y3201924D01*
X2699105Y3197402D01*
X2691638Y3191611D01*
X2685237Y3184652D01*
X2680055Y3176676D01*
X2676245Y3168040D01*
X2673908Y3158845D01*
X2673096Y3148990D01*
G37*
G36*
X2032000Y2970022D02*
G01*
X2032000Y3074924D01*
X1987296Y3074924D01*
X1987296Y3026308D01*
X1988108Y3016453D01*
X1990445Y3007258D01*
X1994255Y2998571D01*
X1999437Y2990646D01*
X2005838Y2983687D01*
X2013305Y2977845D01*
X2021636Y2973374D01*
X2030628Y2970276D01*
G37*
G36*
X2717800Y2970022D02*
G01*
X2717800Y3074924D01*
X2673096Y3074924D01*
X2673096Y3026308D01*
X2673908Y3016453D01*
X2676245Y3007258D01*
X2680055Y2998571D01*
X2685237Y2990646D01*
X2691638Y2983687D01*
X2699105Y2977845D01*
X2707436Y2973374D01*
X2716428Y2970276D01*
G37*
G36*
X5473700Y105562D02*
G01*
X5478322Y105664D01*
X5501284Y108051D01*
X5523992Y112369D01*
X5546242Y118618D01*
X5567934Y126644D01*
X5588812Y136499D01*
X5608828Y148031D01*
X5627827Y161239D01*
X5645607Y175971D01*
X5662117Y192125D01*
X5677204Y209600D01*
X5690819Y228295D01*
X5702757Y248107D01*
X5713018Y268782D01*
X5721553Y290271D01*
X5728208Y312369D01*
X5733034Y334975D01*
X5735929Y357936D01*
X5736336Y368300D01*
X5473700Y368300D01*
G37*
G36*
X2852775Y2968701D02*
G01*
X2862224Y2968701D01*
X2871571Y2970276D01*
X2880563Y2973374D01*
X2888894Y2977845D01*
X2896362Y2983687D01*
X2902762Y2990646D01*
X2907944Y2998571D01*
X2911703Y3007106D01*
X2913888Y3010306D01*
X2917190Y3012440D01*
X2921000Y3013202D01*
X2924810Y3012440D01*
X2928061Y3010306D01*
X2930296Y3007106D01*
X2934055Y2998571D01*
X2939237Y2990646D01*
X2945638Y2983687D01*
X2953105Y2977845D01*
X2961436Y2973374D01*
X2970428Y2970276D01*
X2979775Y2968701D01*
X2989224Y2968701D01*
X2998571Y2970276D01*
X3007563Y2973374D01*
X3015894Y2977845D01*
X3023362Y2983687D01*
X3029762Y2990646D01*
X3034944Y2998571D01*
X3038703Y3007106D01*
X3040888Y3010306D01*
X3044190Y3012440D01*
X3048000Y3013202D01*
X3051810Y3012440D01*
X3055061Y3010306D01*
X3057296Y3007106D01*
X3061055Y2998571D01*
X3066237Y2990646D01*
X3072638Y2983687D01*
X3080105Y2977845D01*
X3088436Y2973374D01*
X3097428Y2970276D01*
X3106775Y2968701D01*
X3116224Y2968701D01*
X3125571Y2970276D01*
X3134563Y2973374D01*
X3142894Y2977845D01*
X3150362Y2983687D01*
X3156762Y2990646D01*
X3161944Y2998571D01*
X3165754Y3007258D01*
X3168091Y3016453D01*
X3168904Y3026308D01*
X3168904Y3148990D01*
X3168091Y3158845D01*
X3165754Y3168040D01*
X3161944Y3176676D01*
X3156762Y3184652D01*
X3152800Y3188970D01*
X3150819Y3192119D01*
X3150108Y3195828D01*
X3150108Y3307689D01*
X3150768Y3311245D01*
X3152648Y3314395D01*
X3155492Y3316630D01*
X3158998Y3317748D01*
X3162604Y3317544D01*
X3170732Y3315614D01*
X3184296Y3314242D01*
X3197910Y3314700D01*
X3211372Y3316986D01*
X3224377Y3321050D01*
X3236772Y3326790D01*
X3248253Y3334105D01*
X3258667Y3342894D01*
X3267811Y3353003D01*
X3275533Y3364280D01*
X3281679Y3376422D01*
X3286150Y3389325D01*
X3288893Y3402685D01*
X3289757Y3416300D01*
X3288893Y3429914D01*
X3286150Y3443274D01*
X3281679Y3456127D01*
X3275533Y3468319D01*
X3267811Y3479546D01*
X3258667Y3489655D01*
X3248253Y3498494D01*
X3236772Y3505809D01*
X3224377Y3511550D01*
X3211372Y3515614D01*
X3197910Y3517849D01*
X3184296Y3518306D01*
X3170732Y3516934D01*
X3157474Y3513785D01*
X3144723Y3508908D01*
X3132785Y3502355D01*
X3121761Y3494227D01*
X3112008Y3484778D01*
X3104743Y3475583D01*
X3101543Y3472942D01*
X3097580Y3471773D01*
X3093415Y3472281D01*
X3089859Y3474415D01*
X3087471Y3477818D01*
X3086608Y3481882D01*
X3086608Y3604666D01*
X3087471Y3608781D01*
X3089859Y3612134D01*
X3093415Y3614267D01*
X3097580Y3614826D01*
X3101543Y3613658D01*
X3104743Y3610965D01*
X3112008Y3601821D01*
X3121761Y3592322D01*
X3132785Y3584244D01*
X3144723Y3577691D01*
X3157474Y3572814D01*
X3170732Y3569614D01*
X3184296Y3568242D01*
X3197910Y3568700D01*
X3211372Y3570986D01*
X3224377Y3575050D01*
X3236772Y3580790D01*
X3248253Y3588105D01*
X3258667Y3596894D01*
X3267811Y3607003D01*
X3275533Y3618280D01*
X3281679Y3630422D01*
X3286150Y3643325D01*
X3288893Y3656685D01*
X3289757Y3670300D01*
X3288893Y3683914D01*
X3286150Y3697274D01*
X3281679Y3710127D01*
X3275533Y3722319D01*
X3267811Y3733546D01*
X3258667Y3743655D01*
X3248253Y3752494D01*
X3236772Y3759809D01*
X3224377Y3765550D01*
X3211372Y3769614D01*
X3197910Y3771849D01*
X3184296Y3772306D01*
X3170732Y3770934D01*
X3157474Y3767785D01*
X3144723Y3762908D01*
X3132785Y3756355D01*
X3121761Y3748227D01*
X3112008Y3738778D01*
X3104743Y3729583D01*
X3101543Y3726942D01*
X3097580Y3725773D01*
X3093415Y3726281D01*
X3089859Y3728415D01*
X3087471Y3731818D01*
X3086608Y3735882D01*
X3086608Y3858666D01*
X3087471Y3862781D01*
X3089859Y3866134D01*
X3093415Y3868267D01*
X3097580Y3868826D01*
X3101543Y3867658D01*
X3104743Y3864965D01*
X3112008Y3855821D01*
X3121761Y3846322D01*
X3132785Y3838244D01*
X3144723Y3831691D01*
X3157474Y3826814D01*
X3170732Y3823614D01*
X3184296Y3822242D01*
X3197910Y3822700D01*
X3211372Y3824986D01*
X3224377Y3829050D01*
X3236772Y3834790D01*
X3248253Y3842105D01*
X3258667Y3850894D01*
X3267811Y3861003D01*
X3275533Y3872280D01*
X3279495Y3880104D01*
X3281730Y3883050D01*
X3284931Y3885031D01*
X3288537Y3885692D01*
X3472281Y3885692D01*
X3476193Y3884929D01*
X3479495Y3882694D01*
X3501694Y3860495D01*
X3503929Y3857193D01*
X3504692Y3853281D01*
X3504692Y3195828D01*
X3503980Y3192170D01*
X3501999Y3188970D01*
X3498037Y3184652D01*
X3492855Y3176676D01*
X3489096Y3168192D01*
X3486861Y3164992D01*
X3483610Y3162858D01*
X3479800Y3162096D01*
X3475990Y3162858D01*
X3472687Y3164992D01*
X3470503Y3168192D01*
X3466744Y3176676D01*
X3461562Y3184652D01*
X3455162Y3191611D01*
X3447694Y3197402D01*
X3439363Y3201924D01*
X3430371Y3205022D01*
X3429000Y3205226D01*
X3429000Y3100324D01*
X3475736Y3100324D01*
X3479596Y3099562D01*
X3482898Y3097377D01*
X3485134Y3094075D01*
X3485896Y3090164D01*
X3485896Y3085084D01*
X3485134Y3081223D01*
X3482898Y3077921D01*
X3479596Y3075736D01*
X3475736Y3074924D01*
X3429000Y3074924D01*
X3429000Y2970022D01*
X3430371Y2970276D01*
X3439363Y2973374D01*
X3447694Y2977845D01*
X3455162Y2983687D01*
X3461562Y2990646D01*
X3466744Y2998571D01*
X3470503Y3007106D01*
X3472687Y3010306D01*
X3475990Y3012440D01*
X3479800Y3013202D01*
X3483610Y3012440D01*
X3486861Y3010306D01*
X3489096Y3007106D01*
X3492855Y2998571D01*
X3498037Y2990646D01*
X3504437Y2983687D01*
X3511905Y2977845D01*
X3520236Y2973374D01*
X3529228Y2970276D01*
X3538575Y2968701D01*
X3548024Y2968701D01*
X3557371Y2970276D01*
X3566363Y2973374D01*
X3574694Y2977845D01*
X3582162Y2983687D01*
X3588562Y2990646D01*
X3593744Y2998571D01*
X3597503Y3007106D01*
X3599687Y3010306D01*
X3602990Y3012440D01*
X3606800Y3013202D01*
X3610610Y3012440D01*
X3613861Y3010306D01*
X3616096Y3007106D01*
X3619855Y2998571D01*
X3625037Y2990646D01*
X3631437Y2983687D01*
X3638905Y2977845D01*
X3647236Y2973374D01*
X3656228Y2970276D01*
X3665575Y2968701D01*
X3675024Y2968701D01*
X3684371Y2970276D01*
X3693363Y2973374D01*
X3701694Y2977845D01*
X3709162Y2983687D01*
X3715562Y2990646D01*
X3720744Y2998571D01*
X3724503Y3007106D01*
X3726687Y3010306D01*
X3729990Y3012440D01*
X3733800Y3013202D01*
X3737610Y3012440D01*
X3740861Y3010306D01*
X3743096Y3007106D01*
X3746855Y2998571D01*
X3752037Y2990646D01*
X3758437Y2983687D01*
X3765905Y2977845D01*
X3774236Y2973374D01*
X3783228Y2970276D01*
X3792575Y2968701D01*
X3802024Y2968701D01*
X3811371Y2970276D01*
X3820363Y2973374D01*
X3828694Y2977845D01*
X3836162Y2983687D01*
X3842562Y2990646D01*
X3847744Y2998571D01*
X3851554Y3007258D01*
X3853891Y3016453D01*
X3854704Y3026308D01*
X3854704Y3148990D01*
X3853891Y3158845D01*
X3851554Y3168040D01*
X3847744Y3176676D01*
X3842562Y3184652D01*
X3838600Y3188970D01*
X3836619Y3192119D01*
X3835908Y3195828D01*
X3835908Y4380992D01*
X3835095Y4389018D01*
X3832910Y4396232D01*
X3829354Y4402937D01*
X3824224Y4409135D01*
X3774135Y4459224D01*
X3767937Y4464354D01*
X3761232Y4467910D01*
X3754018Y4470095D01*
X3745992Y4470908D01*
X3288537Y4470908D01*
X3284880Y4471568D01*
X3281730Y4473549D01*
X3279495Y4476496D01*
X3275533Y4484319D01*
X3267811Y4495546D01*
X3258667Y4505655D01*
X3248253Y4514494D01*
X3236772Y4521809D01*
X3224377Y4527550D01*
X3211372Y4531614D01*
X3197910Y4533849D01*
X3184296Y4534306D01*
X3170732Y4532934D01*
X3157474Y4529785D01*
X3144723Y4524908D01*
X3132785Y4518355D01*
X3121761Y4510227D01*
X3112008Y4500778D01*
X3103524Y4490059D01*
X3096564Y4478324D01*
X3091281Y4465777D01*
X3087674Y4452620D01*
X3085846Y4439107D01*
X3085846Y4425492D01*
X3087674Y4411980D01*
X3091281Y4398822D01*
X3096564Y4386275D01*
X3103524Y4374540D01*
X3112008Y4363821D01*
X3121761Y4354322D01*
X3132785Y4346244D01*
X3144723Y4339691D01*
X3157474Y4334814D01*
X3170732Y4331614D01*
X3184296Y4330242D01*
X3197910Y4330700D01*
X3211372Y4332986D01*
X3224377Y4337050D01*
X3236772Y4342790D01*
X3248253Y4350105D01*
X3258667Y4358894D01*
X3267811Y4369003D01*
X3275533Y4380280D01*
X3279495Y4388104D01*
X3281730Y4391050D01*
X3284931Y4393031D01*
X3288537Y4393692D01*
X3726281Y4393692D01*
X3730193Y4392930D01*
X3733495Y4390694D01*
X3755694Y4368495D01*
X3757929Y4365193D01*
X3758692Y4361281D01*
X3758692Y3195828D01*
X3757980Y3192170D01*
X3755999Y3188970D01*
X3752037Y3184652D01*
X3746855Y3176676D01*
X3743096Y3168192D01*
X3740861Y3164992D01*
X3737610Y3162858D01*
X3733800Y3162096D01*
X3729990Y3162858D01*
X3726687Y3164992D01*
X3724503Y3168192D01*
X3720744Y3176676D01*
X3715562Y3184652D01*
X3711600Y3188970D01*
X3709619Y3192119D01*
X3708908Y3195828D01*
X3708908Y4126992D01*
X3708095Y4135018D01*
X3705910Y4142232D01*
X3702354Y4148937D01*
X3697224Y4155135D01*
X3647135Y4205224D01*
X3640937Y4210354D01*
X3634232Y4213910D01*
X3627018Y4216095D01*
X3618992Y4216908D01*
X3288537Y4216908D01*
X3284880Y4217568D01*
X3281730Y4219549D01*
X3279495Y4222496D01*
X3275533Y4230319D01*
X3267811Y4241546D01*
X3258667Y4251655D01*
X3248253Y4260494D01*
X3236772Y4267809D01*
X3224377Y4273550D01*
X3211372Y4277614D01*
X3197910Y4279849D01*
X3184296Y4280306D01*
X3170732Y4278934D01*
X3157474Y4275785D01*
X3144723Y4270908D01*
X3132785Y4264355D01*
X3121761Y4256227D01*
X3112008Y4246778D01*
X3103524Y4236059D01*
X3096564Y4224324D01*
X3091281Y4211777D01*
X3087674Y4198620D01*
X3085846Y4185107D01*
X3085846Y4171492D01*
X3087674Y4157979D01*
X3088182Y4156100D01*
X3088386Y4151680D01*
X3086709Y4147616D01*
X3083458Y4144619D01*
X3079292Y4143298D01*
X3074924Y4143857D01*
X3071164Y4146194D01*
X3012135Y4205224D01*
X3005937Y4210354D01*
X2999232Y4213910D01*
X2992018Y4216095D01*
X2983992Y4216908D01*
X2780538Y4216908D01*
X2776880Y4217568D01*
X2773730Y4219549D01*
X2771495Y4222496D01*
X2767533Y4230319D01*
X2759811Y4241546D01*
X2750667Y4251655D01*
X2740253Y4260494D01*
X2728772Y4267809D01*
X2716377Y4273550D01*
X2703372Y4277614D01*
X2689910Y4279849D01*
X2676296Y4280306D01*
X2662732Y4278934D01*
X2649474Y4275785D01*
X2636723Y4270908D01*
X2624785Y4264355D01*
X2613761Y4256227D01*
X2604008Y4246778D01*
X2595524Y4236059D01*
X2588564Y4224324D01*
X2583281Y4211777D01*
X2579674Y4198620D01*
X2577846Y4185107D01*
X2577846Y4171492D01*
X2579674Y4157979D01*
X2583281Y4144822D01*
X2588564Y4132275D01*
X2595524Y4120540D01*
X2604008Y4109821D01*
X2613761Y4100322D01*
X2624785Y4092244D01*
X2636723Y4085691D01*
X2649474Y4080814D01*
X2662732Y4077614D01*
X2676296Y4076242D01*
X2689910Y4076700D01*
X2703372Y4078986D01*
X2716377Y4083050D01*
X2728772Y4088790D01*
X2740253Y4096105D01*
X2750667Y4104894D01*
X2759811Y4115003D01*
X2767533Y4126280D01*
X2771495Y4134104D01*
X2773730Y4137050D01*
X2776931Y4139031D01*
X2780538Y4139692D01*
X2964281Y4139692D01*
X2968193Y4138929D01*
X2971495Y4136694D01*
X3006394Y4101795D01*
X3008630Y4098493D01*
X3009392Y4094581D01*
X3009392Y3673754D01*
X3008630Y3669842D01*
X3006394Y3666540D01*
X3003143Y3664356D01*
X2999232Y3663594D01*
X2995320Y3664356D01*
X2992069Y3666540D01*
X2961335Y3697224D01*
X2955137Y3702354D01*
X2948432Y3705910D01*
X2941218Y3708095D01*
X2933192Y3708908D01*
X2780538Y3708908D01*
X2776880Y3709568D01*
X2773730Y3711549D01*
X2771495Y3714496D01*
X2767533Y3722319D01*
X2759811Y3733546D01*
X2750667Y3743655D01*
X2740253Y3752494D01*
X2728772Y3759809D01*
X2716377Y3765550D01*
X2703372Y3769614D01*
X2689910Y3771849D01*
X2676296Y3772306D01*
X2662732Y3770934D01*
X2649474Y3767785D01*
X2636723Y3762908D01*
X2624785Y3756355D01*
X2613761Y3748227D01*
X2604008Y3738778D01*
X2595524Y3728059D01*
X2588564Y3716324D01*
X2583281Y3703777D01*
X2579674Y3690620D01*
X2577846Y3677107D01*
X2577846Y3663492D01*
X2579674Y3649979D01*
X2583281Y3636822D01*
X2588564Y3624275D01*
X2595524Y3612540D01*
X2604008Y3601821D01*
X2613761Y3592322D01*
X2624785Y3584244D01*
X2636723Y3577691D01*
X2649474Y3572814D01*
X2662732Y3569614D01*
X2676296Y3568242D01*
X2689910Y3568700D01*
X2703372Y3570986D01*
X2716377Y3575050D01*
X2728772Y3580790D01*
X2740253Y3588105D01*
X2750667Y3596894D01*
X2759811Y3607003D01*
X2767533Y3618280D01*
X2771495Y3626104D01*
X2773730Y3629050D01*
X2776931Y3631031D01*
X2780538Y3631692D01*
X2913481Y3631692D01*
X2917393Y3630929D01*
X2920695Y3628694D01*
X2942894Y3606495D01*
X2945130Y3603193D01*
X2945892Y3599281D01*
X2945892Y3195828D01*
X2945180Y3192170D01*
X2943199Y3188970D01*
X2939237Y3184652D01*
X2934055Y3176676D01*
X2930296Y3168192D01*
X2928061Y3164992D01*
X2924810Y3162858D01*
X2921000Y3162096D01*
X2917190Y3162858D01*
X2913888Y3164992D01*
X2911703Y3168192D01*
X2907944Y3176676D01*
X2902762Y3184652D01*
X2898800Y3188970D01*
X2896819Y3192170D01*
X2896108Y3195828D01*
X2896108Y3237992D01*
X2895295Y3246018D01*
X2893110Y3253232D01*
X2889554Y3259886D01*
X2884424Y3266135D01*
X2778302Y3372307D01*
X2776169Y3375406D01*
X2775356Y3379063D01*
X2775864Y3382822D01*
X2778150Y3389325D01*
X2780893Y3402685D01*
X2781757Y3416300D01*
X2780893Y3429914D01*
X2778150Y3443274D01*
X2773680Y3456127D01*
X2767533Y3468319D01*
X2759811Y3479546D01*
X2750667Y3489655D01*
X2740253Y3498494D01*
X2728772Y3505809D01*
X2716377Y3511550D01*
X2703372Y3515614D01*
X2689910Y3517849D01*
X2676296Y3518306D01*
X2662732Y3516934D01*
X2649474Y3513785D01*
X2636723Y3508908D01*
X2624785Y3502355D01*
X2613761Y3494227D01*
X2604008Y3484778D01*
X2595524Y3474059D01*
X2588564Y3462324D01*
X2583281Y3449777D01*
X2579674Y3436620D01*
X2577846Y3423107D01*
X2577846Y3409492D01*
X2579674Y3395979D01*
X2583281Y3382822D01*
X2588564Y3370275D01*
X2595524Y3358540D01*
X2604008Y3347821D01*
X2613761Y3338322D01*
X2624785Y3330244D01*
X2636723Y3323691D01*
X2649474Y3318814D01*
X2662732Y3315614D01*
X2676296Y3314242D01*
X2689910Y3314700D01*
X2703372Y3316986D01*
X2713532Y3320135D01*
X2717190Y3320592D01*
X2720746Y3319729D01*
X2723743Y3317646D01*
X2815894Y3225495D01*
X2818130Y3222193D01*
X2818892Y3218281D01*
X2818892Y3195828D01*
X2818180Y3192170D01*
X2816199Y3188970D01*
X2812237Y3184652D01*
X2807055Y3176676D01*
X2803296Y3168192D01*
X2801061Y3164992D01*
X2797810Y3162858D01*
X2794000Y3162096D01*
X2790190Y3162858D01*
X2786888Y3164992D01*
X2784703Y3168192D01*
X2780944Y3176676D01*
X2775762Y3184652D01*
X2769362Y3191611D01*
X2761894Y3197402D01*
X2753563Y3201924D01*
X2744571Y3205022D01*
X2743200Y3205226D01*
X2743200Y3100324D01*
X2789936Y3100324D01*
X2793796Y3099562D01*
X2797098Y3097377D01*
X2799334Y3094075D01*
X2800096Y3090164D01*
X2800096Y3085084D01*
X2799334Y3081223D01*
X2797098Y3077921D01*
X2793796Y3075736D01*
X2789936Y3074924D01*
X2743200Y3074924D01*
X2743200Y2970022D01*
X2744571Y2970276D01*
X2753563Y2973374D01*
X2761894Y2977845D01*
X2769362Y2983687D01*
X2775762Y2990646D01*
X2780944Y2998571D01*
X2784703Y3007106D01*
X2786888Y3010306D01*
X2790190Y3012440D01*
X2794000Y3013202D01*
X2797810Y3012440D01*
X2801061Y3010306D01*
X2803296Y3007106D01*
X2807055Y2998571D01*
X2812237Y2990646D01*
X2818638Y2983687D01*
X2826105Y2977845D01*
X2834436Y2973374D01*
X2843428Y2970276D01*
G37*
G36*
X2166975Y2968701D02*
G01*
X2176424Y2968701D01*
X2185771Y2970276D01*
X2194763Y2973374D01*
X2203094Y2977845D01*
X2210562Y2983687D01*
X2216962Y2990646D01*
X2222144Y2998571D01*
X2225903Y3007106D01*
X2228088Y3010306D01*
X2231390Y3012440D01*
X2235200Y3013202D01*
X2239010Y3012440D01*
X2242261Y3010306D01*
X2244496Y3007106D01*
X2248255Y2998571D01*
X2253437Y2990646D01*
X2259838Y2983687D01*
X2267305Y2977845D01*
X2275636Y2973374D01*
X2284628Y2970276D01*
X2293975Y2968701D01*
X2303424Y2968701D01*
X2312771Y2970276D01*
X2321763Y2973374D01*
X2330094Y2977845D01*
X2337562Y2983687D01*
X2343962Y2990646D01*
X2349144Y2998571D01*
X2352903Y3007106D01*
X2355088Y3010306D01*
X2358390Y3012440D01*
X2362200Y3013202D01*
X2366010Y3012440D01*
X2369261Y3010306D01*
X2371496Y3007106D01*
X2375255Y2998571D01*
X2380437Y2990646D01*
X2386838Y2983687D01*
X2394305Y2977845D01*
X2402636Y2973374D01*
X2411628Y2970276D01*
X2420975Y2968701D01*
X2430424Y2968701D01*
X2439771Y2970276D01*
X2448763Y2973374D01*
X2457094Y2977845D01*
X2464562Y2983687D01*
X2470962Y2990646D01*
X2476144Y2998571D01*
X2479954Y3007258D01*
X2482291Y3016453D01*
X2483104Y3026308D01*
X2483104Y3148990D01*
X2482291Y3158845D01*
X2479954Y3168040D01*
X2476144Y3176676D01*
X2470962Y3184652D01*
X2467000Y3188970D01*
X2465019Y3192119D01*
X2464308Y3195828D01*
X2464308Y3853281D01*
X2465070Y3857193D01*
X2467305Y3860495D01*
X2489504Y3882694D01*
X2492806Y3884929D01*
X2496718Y3885692D01*
X2578709Y3885692D01*
X2582570Y3884929D01*
X2585821Y3882745D01*
X2595524Y3866540D01*
X2604008Y3855821D01*
X2613761Y3846322D01*
X2624785Y3838244D01*
X2636723Y3831691D01*
X2649474Y3826814D01*
X2662732Y3823614D01*
X2676296Y3822242D01*
X2689910Y3822700D01*
X2703372Y3824986D01*
X2716377Y3829050D01*
X2728772Y3834790D01*
X2740253Y3842105D01*
X2750667Y3850894D01*
X2759811Y3861003D01*
X2767533Y3872280D01*
X2773680Y3884422D01*
X2778150Y3897325D01*
X2780893Y3910685D01*
X2781757Y3924300D01*
X2780893Y3937914D01*
X2778150Y3951274D01*
X2773680Y3964127D01*
X2767533Y3976319D01*
X2759811Y3987546D01*
X2750667Y3997655D01*
X2740253Y4006494D01*
X2728772Y4013809D01*
X2716377Y4019550D01*
X2703372Y4023614D01*
X2689910Y4025849D01*
X2676296Y4026306D01*
X2662732Y4024934D01*
X2649474Y4021785D01*
X2636723Y4016908D01*
X2624785Y4010355D01*
X2613761Y4002227D01*
X2604008Y3992778D01*
X2595524Y3982059D01*
X2585872Y3965854D01*
X2582570Y3963670D01*
X2578709Y3962908D01*
X2477008Y3962908D01*
X2468981Y3962095D01*
X2461768Y3959910D01*
X2455062Y3956354D01*
X2448864Y3951224D01*
X2398776Y3901135D01*
X2393645Y3894937D01*
X2390089Y3888232D01*
X2387904Y3881018D01*
X2387092Y3872992D01*
X2387092Y3195828D01*
X2386380Y3192170D01*
X2384399Y3188970D01*
X2380437Y3184652D01*
X2375255Y3176676D01*
X2371496Y3168192D01*
X2369261Y3164992D01*
X2366010Y3162858D01*
X2362200Y3162096D01*
X2358390Y3162858D01*
X2355088Y3164992D01*
X2352903Y3168192D01*
X2349144Y3176676D01*
X2343962Y3184652D01*
X2340000Y3188970D01*
X2338019Y3192170D01*
X2337308Y3195828D01*
X2337308Y3485591D01*
X2338070Y3489502D01*
X2340254Y3492804D01*
X2341880Y3494379D01*
X2347518Y3502406D01*
X2351633Y3511296D01*
X2354173Y3520795D01*
X2355037Y3530600D01*
X2354173Y3540353D01*
X2351633Y3549853D01*
X2347518Y3558743D01*
X2341880Y3566820D01*
X2334920Y3573779D01*
X2326894Y3579368D01*
X2317953Y3583533D01*
X2308504Y3586073D01*
X2298700Y3586937D01*
X2288895Y3586073D01*
X2279446Y3583533D01*
X2270506Y3579368D01*
X2262479Y3573779D01*
X2255520Y3566820D01*
X2249881Y3558743D01*
X2245766Y3549853D01*
X2243226Y3540353D01*
X2242362Y3530600D01*
X2243226Y3520795D01*
X2245766Y3511296D01*
X2249881Y3502406D01*
X2255520Y3494379D01*
X2257094Y3492804D01*
X2259330Y3489502D01*
X2260092Y3485591D01*
X2260092Y3195828D01*
X2259380Y3192170D01*
X2257399Y3188970D01*
X2253437Y3184652D01*
X2248255Y3176676D01*
X2244496Y3168192D01*
X2242261Y3164992D01*
X2239010Y3162858D01*
X2235200Y3162096D01*
X2231390Y3162858D01*
X2228088Y3164992D01*
X2225903Y3168192D01*
X2222144Y3176676D01*
X2216962Y3184652D01*
X2213000Y3188970D01*
X2211019Y3192119D01*
X2210308Y3195828D01*
X2210308Y3745534D01*
X2210968Y3749192D01*
X2212949Y3752342D01*
X2215896Y3754577D01*
X2219502Y3755644D01*
X2227529Y3756406D01*
X2232914Y3758285D01*
X2237841Y3761384D01*
X2241905Y3765499D01*
X2245004Y3770376D01*
X2246884Y3775862D01*
X2247595Y3782161D01*
X2247595Y3871010D01*
X2246884Y3877310D01*
X2245004Y3882796D01*
X2241905Y3887673D01*
X2237841Y3891787D01*
X2232914Y3894886D01*
X2227478Y3896766D01*
X2221128Y3897477D01*
X2122271Y3897477D01*
X2115972Y3896766D01*
X2110486Y3894886D01*
X2105609Y3891787D01*
X2101494Y3887673D01*
X2098395Y3882796D01*
X2096516Y3877310D01*
X2095804Y3871010D01*
X2095804Y3782161D01*
X2096516Y3775862D01*
X2098395Y3770376D01*
X2101494Y3765499D01*
X2105609Y3761384D01*
X2110486Y3758285D01*
X2115870Y3756406D01*
X2123897Y3755644D01*
X2127504Y3754577D01*
X2130450Y3752342D01*
X2132431Y3749192D01*
X2133092Y3745534D01*
X2133092Y3195828D01*
X2132380Y3192170D01*
X2130399Y3188970D01*
X2126437Y3184652D01*
X2121255Y3176676D01*
X2117496Y3168192D01*
X2115261Y3164992D01*
X2112010Y3162858D01*
X2108200Y3162096D01*
X2104390Y3162858D01*
X2101088Y3164992D01*
X2098903Y3168192D01*
X2095144Y3176676D01*
X2089962Y3184652D01*
X2083562Y3191611D01*
X2076094Y3197402D01*
X2067763Y3201924D01*
X2058771Y3205022D01*
X2057400Y3205226D01*
X2057400Y3100324D01*
X2104136Y3100324D01*
X2107996Y3099562D01*
X2111298Y3097377D01*
X2113534Y3094075D01*
X2114296Y3090164D01*
X2114296Y3085084D01*
X2113534Y3081223D01*
X2111298Y3077921D01*
X2107996Y3075736D01*
X2104136Y3074924D01*
X2057400Y3074924D01*
X2057400Y2970022D01*
X2058771Y2970276D01*
X2067763Y2973374D01*
X2076094Y2977845D01*
X2083562Y2983687D01*
X2089962Y2990646D01*
X2095144Y2998571D01*
X2098903Y3007106D01*
X2101088Y3010306D01*
X2104390Y3012440D01*
X2108200Y3013202D01*
X2112010Y3012440D01*
X2115261Y3010306D01*
X2117496Y3007106D01*
X2121255Y2998571D01*
X2126437Y2990646D01*
X2132838Y2983687D01*
X2140305Y2977845D01*
X2148636Y2973374D01*
X2157628Y2970276D01*
G37*
G36*
X3403600Y2970022D02*
G01*
X3403600Y3074924D01*
X3358896Y3074924D01*
X3358896Y3026308D01*
X3359708Y3016453D01*
X3362045Y3007258D01*
X3365855Y2998571D01*
X3371037Y2990646D01*
X3377437Y2983687D01*
X3384905Y2977845D01*
X3393236Y2973374D01*
X3402228Y2970276D01*
G37*

%LPD*%
G36*
X3606800Y3162096D02*
G01*
X3602990Y3162858D01*
X3599687Y3164992D01*
X3597503Y3168192D01*
X3593744Y3176676D01*
X3588562Y3184652D01*
X3584600Y3188970D01*
X3582619Y3192119D01*
X3581908Y3195828D01*
X3581908Y3872992D01*
X3581095Y3881018D01*
X3578910Y3888232D01*
X3575354Y3894937D01*
X3570224Y3901135D01*
X3520135Y3951224D01*
X3513937Y3956354D01*
X3507232Y3959910D01*
X3500018Y3962095D01*
X3491992Y3962908D01*
X3288537Y3962908D01*
X3284880Y3963568D01*
X3281730Y3965549D01*
X3279495Y3968496D01*
X3275533Y3976319D01*
X3267811Y3987546D01*
X3258667Y3997655D01*
X3248253Y4006494D01*
X3236772Y4013809D01*
X3224377Y4019550D01*
X3211372Y4023614D01*
X3197910Y4025849D01*
X3184296Y4026306D01*
X3170732Y4024934D01*
X3157474Y4021785D01*
X3144723Y4016908D01*
X3132785Y4010355D01*
X3121761Y4002227D01*
X3112008Y3992778D01*
X3104743Y3983583D01*
X3101543Y3980942D01*
X3097580Y3979773D01*
X3093415Y3980281D01*
X3089859Y3982415D01*
X3087471Y3985818D01*
X3086608Y3989882D01*
X3086608Y4112666D01*
X3087471Y4116781D01*
X3089859Y4120134D01*
X3093415Y4122267D01*
X3097580Y4122826D01*
X3101543Y4121658D01*
X3104743Y4118965D01*
X3112008Y4109821D01*
X3121761Y4100322D01*
X3132785Y4092244D01*
X3144723Y4085691D01*
X3157474Y4080814D01*
X3170732Y4077614D01*
X3184296Y4076242D01*
X3197910Y4076700D01*
X3211372Y4078986D01*
X3224377Y4083050D01*
X3236772Y4088790D01*
X3248253Y4096105D01*
X3258667Y4104894D01*
X3267811Y4115003D01*
X3275533Y4126280D01*
X3279495Y4134104D01*
X3281730Y4137050D01*
X3284931Y4139031D01*
X3288537Y4139692D01*
X3599281Y4139692D01*
X3603193Y4138929D01*
X3606495Y4136694D01*
X3628694Y4114495D01*
X3630929Y4111193D01*
X3631692Y4107281D01*
X3631692Y3195828D01*
X3630980Y3192170D01*
X3628999Y3188970D01*
X3625037Y3184652D01*
X3619855Y3176676D01*
X3616096Y3168192D01*
X3613861Y3164992D01*
X3610610Y3162858D01*
G37*

%LPD*%
G36*
X2915818Y1943607D02*
G01*
X2911906Y1944370D01*
X2908604Y1946605D01*
X2899105Y1956104D01*
X2896870Y1959406D01*
X2896108Y1963318D01*
X2896108Y2094534D01*
X2896870Y2098395D01*
X2899105Y2101697D01*
X2902356Y2103932D01*
X2906268Y2104694D01*
X2911906Y2104694D01*
X2918256Y2105406D01*
X2923692Y2107336D01*
X2928620Y2110384D01*
X2932684Y2114499D01*
X2935782Y2119376D01*
X2937713Y2124862D01*
X2938424Y2131161D01*
X2938424Y2230018D01*
X2937713Y2236368D01*
X2935782Y2241804D01*
X2932684Y2246731D01*
X2928620Y2250795D01*
X2926740Y2252014D01*
X2923794Y2254808D01*
X2922168Y2258568D01*
X2922168Y2262632D01*
X2923794Y2266391D01*
X2926740Y2269185D01*
X2928620Y2270404D01*
X2932684Y2274468D01*
X2935782Y2279396D01*
X2937713Y2284831D01*
X2938424Y2291181D01*
X2938424Y2390038D01*
X2937713Y2396337D01*
X2935782Y2401824D01*
X2932684Y2406700D01*
X2928620Y2410815D01*
X2923692Y2413863D01*
X2918256Y2415794D01*
X2911906Y2416505D01*
X2906268Y2416505D01*
X2902356Y2417267D01*
X2899105Y2419451D01*
X2896870Y2422753D01*
X2896108Y2426665D01*
X2896108Y2442972D01*
X2896819Y2446629D01*
X2898800Y2449830D01*
X2902762Y2454148D01*
X2907944Y2462072D01*
X2911703Y2470607D01*
X2913888Y2473807D01*
X2917190Y2475941D01*
X2921000Y2476703D01*
X2924810Y2475941D01*
X2928061Y2473807D01*
X2930296Y2470607D01*
X2934055Y2462072D01*
X2939237Y2454148D01*
X2945638Y2447188D01*
X2953105Y2441346D01*
X2961436Y2436876D01*
X2970428Y2433777D01*
X2979775Y2432202D01*
X2989224Y2432202D01*
X2998571Y2433777D01*
X3007563Y2436876D01*
X3015894Y2441346D01*
X3023362Y2447188D01*
X3029762Y2454148D01*
X3034944Y2462072D01*
X3038703Y2470607D01*
X3040888Y2473807D01*
X3044190Y2475941D01*
X3048000Y2476703D01*
X3051810Y2475941D01*
X3055061Y2473807D01*
X3057296Y2470607D01*
X3061055Y2462072D01*
X3066237Y2454148D01*
X3070199Y2449830D01*
X3072180Y2446629D01*
X3072892Y2442921D01*
X3072892Y2406243D01*
X3072231Y2402586D01*
X3070301Y2399487D01*
X3067405Y2397201D01*
X3063849Y2396134D01*
X3060750Y2395778D01*
X3055264Y2393899D01*
X3050387Y2390800D01*
X3046272Y2386685D01*
X3043224Y2381808D01*
X3041294Y2376322D01*
X3040583Y2370023D01*
X3040583Y2291181D01*
X3041294Y2284831D01*
X3043224Y2279396D01*
X3046272Y2274468D01*
X3050387Y2270404D01*
X3052267Y2269185D01*
X3055213Y2266391D01*
X3056839Y2262632D01*
X3056839Y2258568D01*
X3055213Y2254808D01*
X3052267Y2252014D01*
X3050387Y2250795D01*
X3046272Y2246731D01*
X3043224Y2241804D01*
X3041294Y2236368D01*
X3040583Y2230018D01*
X3040583Y2203297D01*
X3098800Y2203297D01*
X3098800Y2254504D01*
X3099562Y2258415D01*
X3101797Y2261717D01*
X3105099Y2263902D01*
X3108960Y2264664D01*
X3114040Y2264664D01*
X3117951Y2263902D01*
X3121202Y2261717D01*
X3123438Y2258415D01*
X3124200Y2254504D01*
X3124200Y2203297D01*
X3182416Y2203297D01*
X3182416Y2230018D01*
X3181705Y2236368D01*
X3179775Y2241804D01*
X3176727Y2246731D01*
X3172612Y2250795D01*
X3170732Y2252014D01*
X3167786Y2254808D01*
X3166211Y2258568D01*
X3166211Y2262632D01*
X3167786Y2266391D01*
X3170732Y2269185D01*
X3172612Y2270404D01*
X3176727Y2274468D01*
X3179775Y2279396D01*
X3181705Y2284831D01*
X3182416Y2291181D01*
X3182416Y2370023D01*
X3181705Y2376322D01*
X3179775Y2381808D01*
X3176727Y2386685D01*
X3172612Y2390800D01*
X3167735Y2393899D01*
X3162249Y2395778D01*
X3159150Y2396134D01*
X3155594Y2397201D01*
X3152698Y2399487D01*
X3150768Y2402586D01*
X3150108Y2406243D01*
X3150108Y2442972D01*
X3150819Y2446629D01*
X3152800Y2449830D01*
X3156762Y2454148D01*
X3161944Y2462072D01*
X3165754Y2470759D01*
X3168091Y2479954D01*
X3168904Y2489809D01*
X3168904Y2612491D01*
X3168091Y2622346D01*
X3165754Y2631541D01*
X3161944Y2640177D01*
X3156762Y2648153D01*
X3152800Y2652471D01*
X3150819Y2655671D01*
X3150108Y2659329D01*
X3150108Y2723591D01*
X3150870Y2727502D01*
X3153054Y2730804D01*
X3154680Y2732379D01*
X3160318Y2740406D01*
X3164433Y2749346D01*
X3166973Y2758795D01*
X3167837Y2768600D01*
X3166973Y2778404D01*
X3164433Y2787853D01*
X3160318Y2796794D01*
X3154680Y2804820D01*
X3147720Y2811780D01*
X3139694Y2817418D01*
X3130753Y2821533D01*
X3121304Y2824073D01*
X3111500Y2824937D01*
X3101695Y2824073D01*
X3092246Y2821533D01*
X3083306Y2817418D01*
X3075279Y2811780D01*
X3068320Y2804820D01*
X3062681Y2796794D01*
X3058566Y2787853D01*
X3056026Y2778404D01*
X3055162Y2768600D01*
X3056026Y2758795D01*
X3058566Y2749346D01*
X3062681Y2740406D01*
X3068320Y2732379D01*
X3069894Y2730804D01*
X3072130Y2727502D01*
X3072892Y2723591D01*
X3072892Y2659329D01*
X3072180Y2655671D01*
X3070199Y2652471D01*
X3066237Y2648153D01*
X3061055Y2640177D01*
X3057296Y2631694D01*
X3055061Y2628493D01*
X3051810Y2626360D01*
X3048000Y2625598D01*
X3044190Y2626360D01*
X3040888Y2628493D01*
X3038703Y2631694D01*
X3034944Y2640177D01*
X3029762Y2648153D01*
X3025800Y2652471D01*
X3023819Y2655671D01*
X3023108Y2659329D01*
X3023108Y2846832D01*
X3023870Y2850692D01*
X3026054Y2853994D01*
X3029356Y2856230D01*
X3033268Y2856992D01*
X3611981Y2856992D01*
X3615893Y2856230D01*
X3619195Y2853994D01*
X3628694Y2844495D01*
X3630929Y2841193D01*
X3631692Y2837281D01*
X3631692Y2659329D01*
X3630980Y2655671D01*
X3628999Y2652471D01*
X3625037Y2648153D01*
X3619855Y2640177D01*
X3616096Y2631694D01*
X3613861Y2628493D01*
X3610610Y2626360D01*
X3606800Y2625598D01*
X3602990Y2626360D01*
X3599687Y2628493D01*
X3597503Y2631694D01*
X3593744Y2640177D01*
X3588562Y2648153D01*
X3582162Y2655112D01*
X3574694Y2660904D01*
X3566363Y2665425D01*
X3557371Y2668524D01*
X3548024Y2670048D01*
X3538575Y2670048D01*
X3529228Y2668524D01*
X3520236Y2665425D01*
X3511905Y2660904D01*
X3504437Y2655112D01*
X3498037Y2648153D01*
X3492855Y2640177D01*
X3489096Y2631694D01*
X3486861Y2628493D01*
X3483610Y2626360D01*
X3479800Y2625598D01*
X3475990Y2626360D01*
X3472687Y2628493D01*
X3470503Y2631694D01*
X3466744Y2640177D01*
X3461562Y2648153D01*
X3455162Y2655112D01*
X3447694Y2660904D01*
X3439363Y2665425D01*
X3430371Y2668524D01*
X3421024Y2670048D01*
X3411575Y2670048D01*
X3402228Y2668524D01*
X3393236Y2665425D01*
X3384905Y2660904D01*
X3377437Y2655112D01*
X3371037Y2648153D01*
X3365855Y2640177D01*
X3362045Y2631541D01*
X3359708Y2622346D01*
X3358896Y2612491D01*
X3358896Y2489809D01*
X3359708Y2479954D01*
X3362045Y2470759D01*
X3365855Y2462072D01*
X3371037Y2454148D01*
X3374999Y2449830D01*
X3376980Y2446629D01*
X3377692Y2442921D01*
X3377692Y1963318D01*
X3376929Y1959406D01*
X3374694Y1956104D01*
X3365195Y1946605D01*
X3361893Y1944370D01*
X3357981Y1943607D01*
G37*

%LPC*%
G36*
X3067050Y2124710D02*
G01*
X3098800Y2124710D01*
X3098800Y2177897D01*
X3040583Y2177897D01*
X3040583Y2151176D01*
X3041294Y2144877D01*
X3043224Y2139391D01*
X3046272Y2134514D01*
X3050387Y2130399D01*
X3055264Y2127300D01*
X3060750Y2125421D01*
G37*
G36*
X3124200Y2124710D02*
G01*
X3155950Y2124710D01*
X3162249Y2125421D01*
X3167735Y2127300D01*
X3172612Y2130399D01*
X3176727Y2134514D01*
X3179775Y2139391D01*
X3181705Y2144877D01*
X3182416Y2151176D01*
X3182416Y2177897D01*
X3124200Y2177897D01*
G37*

%LPD*%
G36*
X2230018Y1943607D02*
G01*
X2226106Y1944370D01*
X2222804Y1946605D01*
X2213305Y1956104D01*
X2211070Y1959406D01*
X2210308Y1963318D01*
X2210308Y2094534D01*
X2211070Y2098395D01*
X2213305Y2101697D01*
X2216556Y2103932D01*
X2220468Y2104694D01*
X2226106Y2104694D01*
X2232456Y2105406D01*
X2237892Y2107336D01*
X2242820Y2110384D01*
X2246884Y2114499D01*
X2249982Y2119376D01*
X2251913Y2124862D01*
X2252624Y2131161D01*
X2252624Y2230018D01*
X2251913Y2236368D01*
X2249982Y2241804D01*
X2246884Y2246731D01*
X2242820Y2250795D01*
X2240940Y2252014D01*
X2237994Y2254808D01*
X2236368Y2258568D01*
X2236368Y2262632D01*
X2237994Y2266391D01*
X2240940Y2269185D01*
X2242820Y2270404D01*
X2246884Y2274468D01*
X2249982Y2279396D01*
X2251913Y2284831D01*
X2252624Y2291181D01*
X2252624Y2390038D01*
X2251913Y2396337D01*
X2249982Y2401824D01*
X2246884Y2406700D01*
X2242820Y2410815D01*
X2237892Y2413863D01*
X2232456Y2415794D01*
X2226106Y2416505D01*
X2220468Y2416505D01*
X2216556Y2417267D01*
X2213305Y2419451D01*
X2211070Y2422753D01*
X2210308Y2426665D01*
X2210308Y2442972D01*
X2211019Y2446629D01*
X2213000Y2449830D01*
X2216962Y2454148D01*
X2222144Y2462072D01*
X2225903Y2470607D01*
X2228088Y2473807D01*
X2231390Y2475941D01*
X2235200Y2476703D01*
X2239010Y2475941D01*
X2242261Y2473807D01*
X2244496Y2470607D01*
X2248255Y2462072D01*
X2253437Y2454148D01*
X2259838Y2447188D01*
X2267305Y2441346D01*
X2275636Y2436876D01*
X2284628Y2433777D01*
X2293975Y2432202D01*
X2303424Y2432202D01*
X2312771Y2433777D01*
X2321763Y2436876D01*
X2330094Y2441346D01*
X2337562Y2447188D01*
X2343962Y2454148D01*
X2349144Y2462072D01*
X2352903Y2470607D01*
X2355088Y2473807D01*
X2358390Y2475941D01*
X2362200Y2476703D01*
X2366010Y2475941D01*
X2369261Y2473807D01*
X2371496Y2470607D01*
X2375255Y2462072D01*
X2380437Y2454148D01*
X2384399Y2449830D01*
X2386380Y2446629D01*
X2387092Y2442921D01*
X2387092Y2406243D01*
X2386431Y2402586D01*
X2384501Y2399487D01*
X2381605Y2397201D01*
X2378049Y2396134D01*
X2374950Y2395778D01*
X2369464Y2393899D01*
X2364587Y2390800D01*
X2360472Y2386685D01*
X2357424Y2381808D01*
X2355494Y2376322D01*
X2354783Y2370023D01*
X2354783Y2291181D01*
X2355494Y2284831D01*
X2357424Y2279396D01*
X2360472Y2274468D01*
X2364587Y2270404D01*
X2366467Y2269185D01*
X2369413Y2266391D01*
X2371039Y2262632D01*
X2371039Y2258568D01*
X2369413Y2254808D01*
X2366467Y2252014D01*
X2364587Y2250795D01*
X2360472Y2246731D01*
X2357424Y2241804D01*
X2355494Y2236368D01*
X2354783Y2230018D01*
X2354783Y2203297D01*
X2413000Y2203297D01*
X2413000Y2254504D01*
X2413762Y2258415D01*
X2415997Y2261717D01*
X2419299Y2263902D01*
X2423160Y2264664D01*
X2428240Y2264664D01*
X2432151Y2263902D01*
X2435402Y2261717D01*
X2437638Y2258415D01*
X2438400Y2254504D01*
X2438400Y2203297D01*
X2496616Y2203297D01*
X2496616Y2230018D01*
X2495905Y2236368D01*
X2493975Y2241804D01*
X2490927Y2246731D01*
X2486812Y2250795D01*
X2484932Y2252014D01*
X2481986Y2254808D01*
X2480411Y2258568D01*
X2480411Y2262632D01*
X2481986Y2266391D01*
X2484932Y2269185D01*
X2486812Y2270404D01*
X2490927Y2274468D01*
X2493975Y2279396D01*
X2495905Y2284831D01*
X2496616Y2291181D01*
X2496616Y2370023D01*
X2495905Y2376322D01*
X2493975Y2381808D01*
X2490927Y2386685D01*
X2486812Y2390800D01*
X2481935Y2393899D01*
X2476449Y2395778D01*
X2473350Y2396134D01*
X2469794Y2397201D01*
X2466898Y2399487D01*
X2464968Y2402586D01*
X2464308Y2406243D01*
X2464308Y2442972D01*
X2465019Y2446629D01*
X2467000Y2449830D01*
X2470962Y2454148D01*
X2476144Y2462072D01*
X2479954Y2470759D01*
X2482291Y2479954D01*
X2483104Y2489809D01*
X2483104Y2612491D01*
X2482291Y2622346D01*
X2479954Y2631541D01*
X2476144Y2640177D01*
X2470962Y2648153D01*
X2467000Y2652471D01*
X2465019Y2655671D01*
X2464308Y2659329D01*
X2464308Y2723591D01*
X2465070Y2727502D01*
X2467254Y2730804D01*
X2468880Y2732379D01*
X2474518Y2740406D01*
X2478633Y2749346D01*
X2481173Y2758795D01*
X2482037Y2768600D01*
X2481173Y2778404D01*
X2478633Y2787853D01*
X2474518Y2796794D01*
X2468880Y2804820D01*
X2461920Y2811780D01*
X2453894Y2817418D01*
X2444953Y2821533D01*
X2435504Y2824073D01*
X2425700Y2824937D01*
X2415895Y2824073D01*
X2406446Y2821533D01*
X2397506Y2817418D01*
X2389479Y2811780D01*
X2382520Y2804820D01*
X2376881Y2796794D01*
X2372766Y2787853D01*
X2370226Y2778404D01*
X2369362Y2768600D01*
X2370226Y2758795D01*
X2372766Y2749346D01*
X2376881Y2740406D01*
X2382520Y2732379D01*
X2384094Y2730804D01*
X2386330Y2727502D01*
X2387092Y2723591D01*
X2387092Y2659329D01*
X2386380Y2655671D01*
X2384399Y2652471D01*
X2380437Y2648153D01*
X2375255Y2640177D01*
X2371496Y2631694D01*
X2369261Y2628493D01*
X2366010Y2626360D01*
X2362200Y2625598D01*
X2358390Y2626360D01*
X2355088Y2628493D01*
X2352903Y2631694D01*
X2349144Y2640177D01*
X2343962Y2648153D01*
X2340000Y2652471D01*
X2338019Y2655671D01*
X2337308Y2659329D01*
X2337308Y2846832D01*
X2338070Y2850692D01*
X2340254Y2853994D01*
X2343556Y2856230D01*
X2347468Y2856992D01*
X2935732Y2856992D01*
X2939592Y2856230D01*
X2942894Y2853994D01*
X2945130Y2850692D01*
X2945892Y2846832D01*
X2945892Y2659329D01*
X2945180Y2655671D01*
X2943199Y2652471D01*
X2939237Y2648153D01*
X2934055Y2640177D01*
X2930296Y2631694D01*
X2928061Y2628493D01*
X2924810Y2626360D01*
X2921000Y2625598D01*
X2917190Y2626360D01*
X2913888Y2628493D01*
X2911703Y2631694D01*
X2907944Y2640177D01*
X2902762Y2648153D01*
X2896362Y2655112D01*
X2888894Y2660904D01*
X2880563Y2665425D01*
X2871571Y2668524D01*
X2862224Y2670048D01*
X2852775Y2670048D01*
X2843428Y2668524D01*
X2834436Y2665425D01*
X2826105Y2660904D01*
X2818638Y2655112D01*
X2812237Y2648153D01*
X2807055Y2640177D01*
X2803296Y2631694D01*
X2801061Y2628493D01*
X2797810Y2626360D01*
X2794000Y2625598D01*
X2790190Y2626360D01*
X2786888Y2628493D01*
X2784703Y2631694D01*
X2780944Y2640177D01*
X2775762Y2648153D01*
X2769362Y2655112D01*
X2761894Y2660904D01*
X2753563Y2665425D01*
X2744571Y2668524D01*
X2735224Y2670048D01*
X2725775Y2670048D01*
X2716428Y2668524D01*
X2707436Y2665425D01*
X2699105Y2660904D01*
X2691638Y2655112D01*
X2685237Y2648153D01*
X2680055Y2640177D01*
X2676245Y2631541D01*
X2673908Y2622346D01*
X2673096Y2612491D01*
X2673096Y2489809D01*
X2673908Y2479954D01*
X2676245Y2470759D01*
X2680055Y2462072D01*
X2685237Y2454148D01*
X2689199Y2449830D01*
X2691180Y2446629D01*
X2691892Y2442921D01*
X2691892Y1963318D01*
X2691130Y1959406D01*
X2688894Y1956104D01*
X2679395Y1946605D01*
X2676093Y1944370D01*
X2672181Y1943607D01*
G37*

%LPC*%
G36*
X2381250Y2124710D02*
G01*
X2413000Y2124710D01*
X2413000Y2177897D01*
X2354783Y2177897D01*
X2354783Y2151176D01*
X2355494Y2144877D01*
X2357424Y2139391D01*
X2360472Y2134514D01*
X2364587Y2130399D01*
X2369464Y2127300D01*
X2374950Y2125421D01*
G37*
G36*
X2438400Y2124710D02*
G01*
X2470150Y2124710D01*
X2476449Y2125421D01*
X2481935Y2127300D01*
X2486812Y2130399D01*
X2490927Y2134514D01*
X2493975Y2139391D01*
X2495905Y2144877D01*
X2496616Y2151176D01*
X2496616Y2177897D01*
X2438400Y2177897D01*
G37*

%LPD*%
G36*
X2921000Y952957D02*
G01*
X2917190Y953719D01*
X2913938Y955802D01*
X2911754Y958951D01*
X2905455Y972870D01*
X2897581Y985875D01*
X2888234Y997864D01*
X2877464Y1008634D01*
X2865526Y1017981D01*
X2852521Y1025855D01*
X2838602Y1032103D01*
X2835452Y1034338D01*
X2833319Y1037590D01*
X2832608Y1041400D01*
X2832608Y1701292D01*
X2831795Y1709318D01*
X2829610Y1716532D01*
X2826054Y1723237D01*
X2820924Y1729435D01*
X2770835Y1779524D01*
X2764637Y1784654D01*
X2757932Y1788210D01*
X2750718Y1790395D01*
X2742692Y1791207D01*
X2029968Y1791207D01*
X2026056Y1791970D01*
X2022805Y1794205D01*
X2020570Y1797456D01*
X2019807Y1801368D01*
X2019807Y2094534D01*
X2020570Y2098395D01*
X2022805Y2101697D01*
X2026056Y2103932D01*
X2029968Y2104694D01*
X2035606Y2104694D01*
X2041956Y2105406D01*
X2047392Y2107285D01*
X2052320Y2110384D01*
X2056384Y2114499D01*
X2059482Y2119376D01*
X2061413Y2124862D01*
X2062124Y2131161D01*
X2062124Y2230018D01*
X2061413Y2236368D01*
X2059482Y2241804D01*
X2056384Y2246680D01*
X2052320Y2250795D01*
X2050440Y2251964D01*
X2047493Y2254808D01*
X2045868Y2258568D01*
X2045868Y2262632D01*
X2047493Y2266391D01*
X2050440Y2269185D01*
X2052320Y2270353D01*
X2056384Y2274468D01*
X2059482Y2279345D01*
X2061413Y2284831D01*
X2062124Y2291130D01*
X2062124Y2389987D01*
X2061514Y2395220D01*
X2061616Y2398217D01*
X2062632Y2401112D01*
X2064410Y2403551D01*
X2071624Y2410764D01*
X2076754Y2416962D01*
X2080310Y2423617D01*
X2082495Y2430881D01*
X2083307Y2438908D01*
X2083307Y2442972D01*
X2084019Y2446629D01*
X2086000Y2449830D01*
X2089962Y2454148D01*
X2095144Y2462072D01*
X2098903Y2470607D01*
X2101088Y2473807D01*
X2104390Y2475941D01*
X2108200Y2476703D01*
X2112010Y2475941D01*
X2115261Y2473807D01*
X2117496Y2470607D01*
X2121255Y2462072D01*
X2126437Y2454148D01*
X2130399Y2449830D01*
X2132380Y2446629D01*
X2133092Y2442921D01*
X2133092Y2426665D01*
X2132330Y2422753D01*
X2130094Y2419451D01*
X2126843Y2417267D01*
X2122932Y2416505D01*
X2117293Y2416505D01*
X2110943Y2415794D01*
X2105507Y2413863D01*
X2100580Y2410815D01*
X2096516Y2406700D01*
X2093417Y2401824D01*
X2091486Y2396337D01*
X2090775Y2390038D01*
X2090775Y2291181D01*
X2091486Y2284831D01*
X2093417Y2279396D01*
X2096516Y2274468D01*
X2100580Y2270404D01*
X2102459Y2269185D01*
X2105406Y2266391D01*
X2107031Y2262632D01*
X2107031Y2258568D01*
X2105406Y2254808D01*
X2102459Y2252014D01*
X2100580Y2250795D01*
X2096516Y2246731D01*
X2093417Y2241804D01*
X2091486Y2236368D01*
X2090775Y2230018D01*
X2090775Y2131161D01*
X2091486Y2124862D01*
X2093417Y2119376D01*
X2096516Y2114499D01*
X2100580Y2110384D01*
X2105507Y2107336D01*
X2110943Y2105406D01*
X2117293Y2104694D01*
X2122932Y2104694D01*
X2126843Y2103932D01*
X2130094Y2101697D01*
X2132330Y2098395D01*
X2133092Y2094534D01*
X2133092Y1943607D01*
X2133904Y1935581D01*
X2136089Y1928368D01*
X2139645Y1921662D01*
X2144776Y1915464D01*
X2182164Y1878075D01*
X2188362Y1872945D01*
X2195068Y1869389D01*
X2202281Y1867204D01*
X2210308Y1866392D01*
X2691892Y1866392D01*
X2699918Y1867204D01*
X2707132Y1869389D01*
X2713837Y1872945D01*
X2720035Y1878075D01*
X2757424Y1915464D01*
X2762554Y1921662D01*
X2766110Y1928368D01*
X2768295Y1935581D01*
X2769108Y1943607D01*
X2769108Y2103120D01*
X2769870Y2107031D01*
X2772054Y2110282D01*
X2775356Y2112518D01*
X2779217Y2113280D01*
X2783078Y2112568D01*
X2791307Y2107336D01*
X2796743Y2105406D01*
X2803093Y2104694D01*
X2808732Y2104694D01*
X2812643Y2103932D01*
X2815894Y2101697D01*
X2818130Y2098395D01*
X2818892Y2094534D01*
X2818892Y1943607D01*
X2819704Y1935581D01*
X2821889Y1928368D01*
X2825445Y1921662D01*
X2830576Y1915464D01*
X2867964Y1878075D01*
X2874162Y1872945D01*
X2880868Y1869389D01*
X2888081Y1867204D01*
X2896108Y1866392D01*
X3377692Y1866392D01*
X3385718Y1867204D01*
X3392932Y1869389D01*
X3399637Y1872945D01*
X3405835Y1878075D01*
X3443224Y1915464D01*
X3448354Y1921662D01*
X3451910Y1928368D01*
X3454095Y1935581D01*
X3454908Y1943607D01*
X3454908Y2103120D01*
X3455670Y2107031D01*
X3457854Y2110282D01*
X3461156Y2112518D01*
X3465017Y2113280D01*
X3468878Y2112568D01*
X3477107Y2107336D01*
X3482543Y2105406D01*
X3488893Y2104694D01*
X3494532Y2104694D01*
X3498443Y2103932D01*
X3501694Y2101697D01*
X3503929Y2098395D01*
X3504692Y2094534D01*
X3504692Y1810918D01*
X3503929Y1807006D01*
X3501694Y1803704D01*
X3492195Y1794205D01*
X3488893Y1791970D01*
X3484981Y1791207D01*
X3099308Y1791207D01*
X3091281Y1790395D01*
X3084068Y1788210D01*
X3077362Y1784654D01*
X3071164Y1779524D01*
X3021076Y1729435D01*
X3015945Y1723237D01*
X3012389Y1716532D01*
X3010204Y1709318D01*
X3009392Y1701292D01*
X3009392Y1041400D01*
X3008680Y1037590D01*
X3006547Y1034338D01*
X3003397Y1032103D01*
X2989478Y1025855D01*
X2976473Y1017981D01*
X2964535Y1008634D01*
X2953766Y997864D01*
X2944418Y985875D01*
X2936544Y972870D01*
X2930245Y958951D01*
X2928061Y955802D01*
X2924810Y953719D01*
G37*

%LPD*%
D10*
X4314093Y5575300D02*
G01*
X4309082Y5570288D01*
X4309082Y5372100D01*
X2425694Y2551145D02*
G01*
X2425707Y2330610D01*
X3111494Y2551145D02*
G01*
X3111507Y2330610D01*
X3797292Y2551145D02*
G01*
X3797305Y2330610D01*
X3797300Y3087623D02*
G01*
X3797300Y4381500D01*
X3746500Y4432300D01*
X3187700Y4432300D01*
X3670300Y3087623D02*
G01*
X3670300Y4127500D01*
X3619500Y4178300D01*
X3187700Y4178300D01*
X3543300Y3087623D02*
G01*
X3543300Y3873500D01*
X3492500Y3924300D01*
X3187700Y3924300D01*
X3543292Y2551145D02*
G01*
X3543300Y2340579D01*
X3416300Y2551176D02*
G01*
X3416300Y1943100D01*
X3378200Y1905000D01*
X2895600Y1905000D01*
X2857500Y1943100D01*
X2857500Y2180589D01*
X2730500Y2551176D02*
G01*
X2730500Y1943100D01*
X2692400Y1905000D01*
X2209800Y1905000D01*
X2171700Y1943100D01*
X2171700Y2180589D01*
X3543300Y2180589D02*
G01*
X3543300Y1790700D01*
X3505200Y1752600D01*
X3098800Y1752600D01*
X3048000Y1701800D01*
X3048000Y914400D01*
X2171694Y2551145D02*
G01*
X2171702Y2340579D01*
X2857494Y2551145D02*
G01*
X2857502Y2340579D01*
X2984494Y2551145D02*
G01*
X2984494Y2895594D01*
X3670300Y2551176D02*
G01*
X3670300Y2857500D01*
X3632200Y2895600D01*
X2984494Y2895594D01*
X2984494Y2895594D02*
G01*
X2298694Y2895594D01*
X2298694Y2551145D01*
X2044694Y2551145D02*
G01*
X2044694Y2438394D01*
X1981194Y2374894D01*
X1981194Y2340574D01*
X1981200Y2180589D02*
G01*
X1981200Y1778000D01*
X2006600Y1752600D01*
X2743200Y1752600D01*
X2794000Y1701800D01*
X2794000Y914400D01*
X2171700Y3826510D02*
G01*
X2171700Y3087623D01*
X2425700Y3087623D02*
G01*
X2425700Y3873500D01*
X2476500Y3924300D01*
X2679700Y3924300D01*
X2857494Y3087644D02*
G01*
X2857494Y3238489D01*
X2679694Y3416289D01*
X3111500Y3087623D02*
G01*
X3111500Y3314700D01*
X3048000Y3378200D01*
X3048000Y4114800D01*
X2984500Y4178300D01*
X2679700Y4178300D01*
X2984500Y3087623D02*
G01*
X2984500Y3619500D01*
X2933700Y3670300D01*
X2679700Y3670300D01*
X2298694Y3087644D02*
G01*
X2298694Y3530592D01*
X2171700Y3996583D02*
G01*
X2171700Y5079989D01*
X4149090Y5372100D02*
G01*
X4149090Y5079989D01*
D11*
X5079987Y5588000D02*
G01*
X5079987Y5079987D01*
X2679694Y4432289D02*
G01*
X2679694Y5079989D01*
D10*
X2298700Y2895600D02*
G01*
X1854200Y2895600D01*
X1850389Y2899410D01*
X1828800Y2899410D01*
X2425694Y2551145D02*
G01*
X2425694Y2768594D01*
X3797292Y2551145D02*
G01*
X3797292Y2768594D01*
X3111494Y2551145D02*
G01*
X3111494Y2768594D01*
X1625597Y2899374D02*
G01*
X1625597Y5079989D01*
X1625597Y2739379D02*
G01*
X1828797Y2739379D01*
X1828797Y2739379D02*
G01*
X1951979Y2739379D01*
X1981194Y2768594D01*
D12*
G01*
X3797300Y3087649D03*
G01*
X3670300Y3087649D03*
G01*
X3543300Y3087649D03*
G01*
X3416300Y3087649D03*
G01*
X3797300Y2551150D03*
G01*
X3670300Y2551150D03*
G01*
X3543300Y2551150D03*
G01*
X3416300Y2551150D03*
G01*
X3111500Y3087649D03*
G01*
X2984500Y3087649D03*
G01*
X2857500Y3087649D03*
G01*
X2730500Y3087649D03*
G01*
X3111500Y2551150D03*
G01*
X2984500Y2551150D03*
G01*
X2857500Y2551150D03*
G01*
X2730500Y2551150D03*
G01*
X2425700Y3087649D03*
G01*
X2298700Y3087649D03*
G01*
X2171700Y3087649D03*
G01*
X2044700Y3087649D03*
G01*
X2425700Y2551150D03*
G01*
X2298700Y2551150D03*
G01*
X2171700Y2551150D03*
G01*
X2044700Y2551150D03*
D13*
G01*
X4149090Y5372100D03*
G01*
X4309084Y5372100D03*
D14*
G01*
X4144086Y5575300D03*
G01*
X4314088Y5575300D03*
D15*
G01*
X3111500Y2190597D03*
G01*
X3111500Y2330602D03*
G01*
X2425700Y2190597D03*
G01*
X2425700Y2330602D03*
D16*
G01*
X2171700Y3826586D03*
G01*
X2171700Y3996588D03*
D17*
G01*
X3543300Y2180589D03*
G01*
X3543300Y2340584D03*
G01*
X2857500Y2180589D03*
G01*
X2857500Y2340584D03*
G01*
X2171700Y2180589D03*
G01*
X2171700Y2340584D03*
G01*
X1828800Y2739389D03*
G01*
X1828800Y2899384D03*
G01*
X1981200Y2180589D03*
G01*
X1981200Y2340584D03*
G01*
X1625600Y2739389D03*
G01*
X1625600Y2899384D03*
D15*
G01*
X3797300Y2190597D03*
G01*
X3797300Y2330602D03*
D18*
G01*
X2679700Y4432300D03*
G01*
X2679700Y4178300D03*
G01*
X2679700Y3924300D03*
G01*
X2679700Y3670300D03*
G01*
X2679700Y3416300D03*
G01*
X3187700Y3416300D03*
G01*
X3187700Y3670300D03*
G01*
X3187700Y3924300D03*
G01*
X3187700Y4178300D03*
G01*
X3187700Y4432300D03*
D19*
G01*
X381000Y5461000D03*
G01*
X5461000Y5461000D03*
G01*
X5461000Y381000D03*
G01*
X381000Y381000D03*
D20*
G01*
X3048000Y914400D03*
G01*
X2794000Y914400D03*
G01*
X2540000Y914400D03*
G01*
X3302000Y914400D03*
D21*
G01*
X4826000Y5588000D03*
G01*
X4826000Y5334000D03*
G01*
X4572000Y5334000D03*
G01*
X4572000Y5588000D03*
D22*
G01*
X5080000Y5079974D03*
G01*
X5080000Y5588000D03*
G01*
X2921000Y1041400D03*
G01*
X2565400Y2184400D03*
G01*
X3251200Y2184400D03*
G01*
X3937000Y2184400D03*
G01*
X2298700Y3530600D03*
G01*
X2171700Y5079974D03*
G01*
X4149090Y5080000D03*
G01*
X2679700Y5080000D03*
G01*
X2425700Y2768600D03*
G01*
X1981200Y2768600D03*
G01*
X1625600Y5079974D03*
G01*
X3111500Y2768600D03*
G01*
X3797300Y2768600D03*
G01*
X3276600Y4038600D03*
M02*
