G04 Layer: BottomSilkscreenLayer*
G04 Panelize: Stamp Hole, Column: 2, Row: 2, Board Size: 58.42mm x 58.42mm, Panelized Board Size: 122.84mm x 122.84mm*
G04 EasyEDA v6.5.32, 2023-07-30 21:55:26*
G04 0189717723f44532b496580ac8dbca45,5a6b42c53f6a479593ecc07194224c93,10*
G04 Gerber Generator version 0.2*
G04 Scale: 100 percent, Rotated: No, Reflected: No *
G04 Dimensions in millimeters *
G04 leading zeros omitted , absolute positions ,4 integer and 5 decimal *
%FSLAX45Y45*%
%MOMM*%

%ADD10C,0.1520*%
%ADD11C,0.1524*%
%ADD12C,0.2540*%

%LPD*%
D10*
X1865744Y5703338D02*
G01*
X1865744Y5620212D01*
X1870941Y5604624D01*
X1876135Y5599429D01*
X1886526Y5594235D01*
X1896917Y5594235D01*
X1907308Y5599429D01*
X1912505Y5604624D01*
X1917700Y5620212D01*
X1917700Y5630603D01*
X1831454Y5703338D02*
G01*
X1831454Y5594235D01*
X1831454Y5594235D02*
G01*
X1769110Y5594235D01*
X1656887Y5677362D02*
G01*
X1662084Y5687753D01*
X1672475Y5698144D01*
X1682864Y5703338D01*
X1703646Y5703338D01*
X1714037Y5698144D01*
X1724428Y5687753D01*
X1729625Y5677362D01*
X1734820Y5661774D01*
X1734820Y5635797D01*
X1729625Y5620212D01*
X1724428Y5609821D01*
X1714037Y5599429D01*
X1703646Y5594235D01*
X1682864Y5594235D01*
X1672475Y5599429D01*
X1662084Y5609821D01*
X1656887Y5620212D01*
X1570644Y5703338D02*
G01*
X1570644Y5620212D01*
X1575838Y5604624D01*
X1581035Y5599429D01*
X1591424Y5594235D01*
X1601815Y5594235D01*
X1612206Y5599429D01*
X1617403Y5604624D01*
X1622597Y5620212D01*
X1622597Y5630603D01*
X1536354Y5703338D02*
G01*
X1536354Y5594235D01*
X1536354Y5594235D02*
G01*
X1474007Y5594235D01*
X1361785Y5677362D02*
G01*
X1366982Y5687753D01*
X1377373Y5698144D01*
X1387764Y5703338D01*
X1408544Y5703338D01*
X1418935Y5698144D01*
X1429326Y5687753D01*
X1434523Y5677362D01*
X1439717Y5661774D01*
X1439717Y5635797D01*
X1434523Y5620212D01*
X1429326Y5609821D01*
X1418935Y5599429D01*
X1408544Y5594235D01*
X1387764Y5594235D01*
X1377373Y5599429D01*
X1366982Y5609821D01*
X1361785Y5620212D01*
X1275542Y5703338D02*
G01*
X1275542Y5620212D01*
X1280736Y5604624D01*
X1285933Y5599429D01*
X1296324Y5594235D01*
X1306715Y5594235D01*
X1317104Y5599429D01*
X1322301Y5604624D01*
X1327495Y5620212D01*
X1327495Y5630603D01*
X1241252Y5703338D02*
G01*
X1241252Y5594235D01*
X1241252Y5594235D02*
G01*
X1178905Y5594235D01*
X1066685Y5677362D02*
G01*
X1071879Y5687753D01*
X1082271Y5698144D01*
X1092662Y5703338D01*
X1113444Y5703338D01*
X1123835Y5698144D01*
X1134224Y5687753D01*
X1139421Y5677362D01*
X1144615Y5661774D01*
X1144615Y5635797D01*
X1139421Y5620212D01*
X1134224Y5609821D01*
X1123835Y5599429D01*
X1113444Y5594235D01*
X1092662Y5594235D01*
X1082271Y5599429D01*
X1071879Y5609821D01*
X1066685Y5620212D01*
X980439Y5703338D02*
G01*
X980439Y5620212D01*
X985634Y5604624D01*
X990831Y5599429D01*
X1001222Y5594235D01*
X1011613Y5594235D01*
X1022004Y5599429D01*
X1027198Y5604624D01*
X1032395Y5620212D01*
X1032395Y5630603D01*
X946150Y5703338D02*
G01*
X946150Y5594235D01*
X946150Y5594235D02*
G01*
X883805Y5594235D01*
X771583Y5677362D02*
G01*
X776777Y5687753D01*
X787168Y5698144D01*
X797560Y5703338D01*
X818342Y5703338D01*
X828733Y5698144D01*
X839124Y5687753D01*
X844318Y5677362D01*
X849515Y5661774D01*
X849515Y5635797D01*
X844318Y5620212D01*
X839124Y5609821D01*
X828733Y5599429D01*
X818342Y5594235D01*
X797560Y5594235D01*
X787168Y5599429D01*
X776777Y5609821D01*
X771583Y5620212D01*
D11*
X2754167Y5486862D02*
G01*
X2759364Y5497253D01*
X2769755Y5507644D01*
X2780144Y5512838D01*
X2800926Y5512838D01*
X2811317Y5507644D01*
X2821708Y5497253D01*
X2826905Y5486862D01*
X2832100Y5471274D01*
X2832100Y5445297D01*
X2826905Y5429712D01*
X2821708Y5419321D01*
X2811317Y5408929D01*
X2800926Y5403735D01*
X2780144Y5403735D01*
X2769755Y5408929D01*
X2759364Y5419321D01*
X2754167Y5429712D01*
X2688704Y5512838D02*
G01*
X2699095Y5507644D01*
X2709486Y5497253D01*
X2714683Y5486862D01*
X2719877Y5471274D01*
X2719877Y5445297D01*
X2714683Y5429712D01*
X2709486Y5419321D01*
X2699095Y5408929D01*
X2688704Y5403735D01*
X2667924Y5403735D01*
X2657533Y5408929D01*
X2647142Y5419321D01*
X2641945Y5429712D01*
X2636751Y5445297D01*
X2636751Y5471274D01*
X2641945Y5486862D01*
X2647142Y5497253D01*
X2657533Y5507644D01*
X2667924Y5512838D01*
X2688704Y5512838D01*
X2602461Y5512838D02*
G01*
X2602461Y5403735D01*
X2602461Y5512838D02*
G01*
X2555702Y5512838D01*
X2540114Y5507644D01*
X2534920Y5502447D01*
X2529725Y5492056D01*
X2529725Y5476471D01*
X2534920Y5466079D01*
X2540114Y5460885D01*
X2555702Y5455688D01*
X2602461Y5455688D01*
X2495435Y5512838D02*
G01*
X2453871Y5460885D01*
X2453871Y5403735D01*
X2412306Y5512838D02*
G01*
X2453871Y5460885D01*
X2378016Y5512838D02*
G01*
X2378016Y5403735D01*
X2378016Y5512838D02*
G01*
X2331257Y5512838D01*
X2315672Y5507644D01*
X2310475Y5502447D01*
X2305281Y5492056D01*
X2305281Y5481665D01*
X2310475Y5471274D01*
X2315672Y5466079D01*
X2331257Y5460885D01*
X2378016Y5460885D01*
X2341648Y5460885D02*
G01*
X2305281Y5403735D01*
X2270991Y5512838D02*
G01*
X2270991Y5403735D01*
X2158768Y5486862D02*
G01*
X2163965Y5497253D01*
X2174354Y5507644D01*
X2184745Y5512838D01*
X2205527Y5512838D01*
X2215918Y5507644D01*
X2226309Y5497253D01*
X2231504Y5486862D01*
X2236701Y5471274D01*
X2236701Y5445297D01*
X2231504Y5429712D01*
X2226309Y5419321D01*
X2215918Y5408929D01*
X2205527Y5403735D01*
X2184745Y5403735D01*
X2174354Y5408929D01*
X2163965Y5419321D01*
X2158768Y5429712D01*
X2158768Y5445297D01*
X2184745Y5445297D02*
G01*
X2158768Y5445297D01*
X2124478Y5512838D02*
G01*
X2124478Y5403735D01*
X2051743Y5512838D02*
G01*
X2051743Y5403735D01*
X2124478Y5460885D02*
G01*
X2051743Y5460885D01*
X1981085Y5512838D02*
G01*
X1981085Y5403735D01*
X2017453Y5512838D02*
G01*
X1944715Y5512838D01*
X1825221Y5486862D02*
G01*
X1825221Y5492056D01*
X1820024Y5502447D01*
X1814829Y5507644D01*
X1804438Y5512838D01*
X1783656Y5512838D01*
X1773265Y5507644D01*
X1768071Y5502447D01*
X1762874Y5492056D01*
X1762874Y5481665D01*
X1768071Y5471274D01*
X1778462Y5455688D01*
X1830415Y5403735D01*
X1757679Y5403735D01*
X1692216Y5512838D02*
G01*
X1707804Y5507644D01*
X1718195Y5492056D01*
X1723389Y5466079D01*
X1723389Y5450494D01*
X1718195Y5424515D01*
X1707804Y5408929D01*
X1692216Y5403735D01*
X1681825Y5403735D01*
X1666239Y5408929D01*
X1655848Y5424515D01*
X1650654Y5450494D01*
X1650654Y5466079D01*
X1655848Y5492056D01*
X1666239Y5507644D01*
X1681825Y5512838D01*
X1692216Y5512838D01*
X1611167Y5486862D02*
G01*
X1611167Y5492056D01*
X1605973Y5502447D01*
X1600776Y5507644D01*
X1590385Y5512838D01*
X1569605Y5512838D01*
X1559214Y5507644D01*
X1554017Y5502447D01*
X1548823Y5492056D01*
X1548823Y5481665D01*
X1554017Y5471274D01*
X1564408Y5455688D01*
X1616364Y5403735D01*
X1543626Y5403735D01*
X1498945Y5512838D02*
G01*
X1441795Y5512838D01*
X1472968Y5471274D01*
X1457383Y5471274D01*
X1446992Y5466079D01*
X1441795Y5460885D01*
X1436601Y5445297D01*
X1436601Y5434906D01*
X1441795Y5419321D01*
X1452186Y5408929D01*
X1467774Y5403735D01*
X1483360Y5403735D01*
X1498945Y5408929D01*
X1504142Y5414124D01*
X1509336Y5424515D01*
X1322301Y5512838D02*
G01*
X1280736Y5403735D01*
X1239174Y5512838D02*
G01*
X1280736Y5403735D01*
X1204884Y5512838D02*
G01*
X1204884Y5403735D01*
X1204884Y5512838D02*
G01*
X1137343Y5512838D01*
X1204884Y5460885D02*
G01*
X1163320Y5460885D01*
X1204884Y5403735D02*
G01*
X1137343Y5403735D01*
X1030315Y5512838D02*
G01*
X1082271Y5403735D01*
X1103053Y5512838D02*
G01*
X1030315Y5512838D01*
X996025Y5512838D02*
G01*
X996025Y5403735D01*
X996025Y5512838D02*
G01*
X928484Y5512838D01*
X996025Y5460885D02*
G01*
X954463Y5460885D01*
X894194Y5512838D02*
G01*
X894194Y5403735D01*
X859904Y5512838D02*
G01*
X859904Y5403735D01*
X859904Y5512838D02*
G01*
X818342Y5403735D01*
X776777Y5512838D02*
G01*
X818342Y5403735D01*
X776777Y5512838D02*
G01*
X776777Y5403735D01*
X3017456Y4636528D02*
G01*
X2960306Y4636528D01*
X2991479Y4594964D01*
X2975891Y4594964D01*
X2965503Y4589769D01*
X2960306Y4584575D01*
X2955112Y4568987D01*
X2955112Y4558596D01*
X2960306Y4543010D01*
X2970697Y4532619D01*
X2986283Y4527425D01*
X3001871Y4527425D01*
X3017456Y4532619D01*
X3022653Y4537814D01*
X3027847Y4548205D01*
X2920822Y4636528D02*
G01*
X2879257Y4527425D01*
X2837693Y4636528D02*
G01*
X2879257Y4527425D01*
X2793011Y4636528D02*
G01*
X2735861Y4636528D01*
X2767035Y4594964D01*
X2751449Y4594964D01*
X2741058Y4589769D01*
X2735861Y4584575D01*
X2730667Y4568987D01*
X2730667Y4558596D01*
X2735861Y4543010D01*
X2746253Y4532619D01*
X2761841Y4527425D01*
X2777426Y4527425D01*
X2793011Y4532619D01*
X2798208Y4537814D01*
X2803403Y4548205D01*
X2585194Y4636528D02*
G01*
X2595585Y4631334D01*
X2605976Y4620943D01*
X2611173Y4610552D01*
X2616367Y4594964D01*
X2616367Y4568987D01*
X2611173Y4553402D01*
X2605976Y4543010D01*
X2595585Y4532619D01*
X2585194Y4527425D01*
X2564411Y4527425D01*
X2554023Y4532619D01*
X2543632Y4543010D01*
X2538435Y4553402D01*
X2533241Y4568987D01*
X2533241Y4594964D01*
X2538435Y4610552D01*
X2543632Y4620943D01*
X2554023Y4631334D01*
X2564411Y4636528D01*
X2585194Y4636528D01*
X2498951Y4636528D02*
G01*
X2498951Y4558596D01*
X2493754Y4543010D01*
X2483363Y4532619D01*
X2467777Y4527425D01*
X2457386Y4527425D01*
X2441801Y4532619D01*
X2431409Y4543010D01*
X2426213Y4558596D01*
X2426213Y4636528D01*
X2355555Y4636528D02*
G01*
X2355555Y4527425D01*
X2391923Y4636528D02*
G01*
X2319187Y4636528D01*
X2284897Y4636528D02*
G01*
X2284897Y4527425D01*
X2284897Y4636528D02*
G01*
X2238138Y4636528D01*
X2222553Y4631334D01*
X2217356Y4626137D01*
X2212162Y4615746D01*
X2212162Y4600160D01*
X2217356Y4589769D01*
X2222553Y4584575D01*
X2238138Y4579378D01*
X2284897Y4579378D01*
X2177872Y4636528D02*
G01*
X2177872Y4558596D01*
X2172675Y4543010D01*
X2162284Y4532619D01*
X2146698Y4527425D01*
X2136307Y4527425D01*
X2120722Y4532619D01*
X2110331Y4543010D01*
X2105134Y4558596D01*
X2105134Y4636528D01*
X2034476Y4636528D02*
G01*
X2034476Y4527425D01*
X2070844Y4636528D02*
G01*
X1998108Y4636528D01*
X1883808Y4636528D02*
G01*
X1883808Y4527425D01*
X1883808Y4636528D02*
G01*
X1816267Y4636528D01*
X1883808Y4584575D02*
G01*
X1842244Y4584575D01*
X1883808Y4527425D02*
G01*
X1816267Y4527425D01*
X1781977Y4636528D02*
G01*
X1781977Y4527425D01*
X1781977Y4636528D02*
G01*
X1709242Y4527425D01*
X1709242Y4636528D02*
G01*
X1709242Y4527425D01*
X1633387Y4636528D02*
G01*
X1674952Y4527425D01*
X1633387Y4636528D02*
G01*
X1591823Y4527425D01*
X1659364Y4563793D02*
G01*
X1607411Y4563793D01*
X1557533Y4636528D02*
G01*
X1557533Y4527425D01*
X1557533Y4636528D02*
G01*
X1510774Y4636528D01*
X1495188Y4631334D01*
X1489991Y4626137D01*
X1484797Y4615746D01*
X1484797Y4605355D01*
X1489991Y4594964D01*
X1495188Y4589769D01*
X1510774Y4584575D01*
X1557533Y4584575D02*
G01*
X1510774Y4584575D01*
X1495188Y4579378D01*
X1489991Y4574184D01*
X1484797Y4563793D01*
X1484797Y4548205D01*
X1489991Y4537814D01*
X1495188Y4532619D01*
X1510774Y4527425D01*
X1557533Y4527425D01*
X1450507Y4636528D02*
G01*
X1450507Y4527425D01*
X1450507Y4527425D02*
G01*
X1388163Y4527425D01*
X1353873Y4636528D02*
G01*
X1353873Y4527425D01*
X1353873Y4636528D02*
G01*
X1286332Y4636528D01*
X1353873Y4584575D02*
G01*
X1312308Y4584575D01*
X1353873Y4527425D02*
G01*
X1286332Y4527425D01*
X3727162Y4458731D02*
G01*
X3727162Y4349628D01*
X3727162Y4458731D02*
G01*
X3680404Y4458731D01*
X3664818Y4453536D01*
X3659621Y4448340D01*
X3654427Y4437948D01*
X3654427Y4427557D01*
X3659621Y4417166D01*
X3664818Y4411972D01*
X3680404Y4406778D01*
X3727162Y4406778D01*
X3690795Y4406778D02*
G01*
X3654427Y4349628D01*
X3620137Y4458731D02*
G01*
X3620137Y4349628D01*
X3620137Y4458731D02*
G01*
X3552596Y4458731D01*
X3620137Y4406778D02*
G01*
X3578572Y4406778D01*
X3620137Y4349628D02*
G01*
X3552596Y4349628D01*
X3518306Y4458731D02*
G01*
X3518306Y4349628D01*
X3518306Y4458731D02*
G01*
X3476741Y4349628D01*
X3435177Y4458731D02*
G01*
X3476741Y4349628D01*
X3435177Y4458731D02*
G01*
X3435177Y4349628D01*
X3369716Y4458731D02*
G01*
X3380107Y4453536D01*
X3390498Y4443145D01*
X3395692Y4432754D01*
X3400887Y4417166D01*
X3400887Y4391190D01*
X3395692Y4375604D01*
X3390498Y4365213D01*
X3380107Y4354822D01*
X3369716Y4349628D01*
X3348934Y4349628D01*
X3338542Y4354822D01*
X3328151Y4365213D01*
X3322957Y4375604D01*
X3317760Y4391190D01*
X3317760Y4417166D01*
X3322957Y4432754D01*
X3328151Y4443145D01*
X3338542Y4453536D01*
X3348934Y4458731D01*
X3369716Y4458731D01*
X3283470Y4458731D02*
G01*
X3241908Y4349628D01*
X3200344Y4458731D02*
G01*
X3241908Y4349628D01*
X3166054Y4458731D02*
G01*
X3166054Y4349628D01*
X3166054Y4458731D02*
G01*
X3098512Y4458731D01*
X3166054Y4406778D02*
G01*
X3124489Y4406778D01*
X3166054Y4349628D02*
G01*
X3098512Y4349628D01*
X2984212Y4458731D02*
G01*
X2984212Y4349628D01*
X2949922Y4458731D02*
G01*
X2949922Y4349628D01*
X2949922Y4458731D02*
G01*
X2882381Y4458731D01*
X2949922Y4406778D02*
G01*
X2908358Y4406778D01*
X2736908Y4458731D02*
G01*
X2747299Y4453536D01*
X2757690Y4443145D01*
X2762887Y4432754D01*
X2768081Y4417166D01*
X2768081Y4391190D01*
X2762887Y4375604D01*
X2757690Y4365213D01*
X2747299Y4354822D01*
X2736908Y4349628D01*
X2716128Y4349628D01*
X2705737Y4354822D01*
X2695346Y4365213D01*
X2690149Y4375604D01*
X2684955Y4391190D01*
X2684955Y4417166D01*
X2690149Y4432754D01*
X2695346Y4443145D01*
X2705737Y4453536D01*
X2716128Y4458731D01*
X2736908Y4458731D01*
X2614297Y4458731D02*
G01*
X2614297Y4349628D01*
X2650665Y4458731D02*
G01*
X2577927Y4458731D01*
X2543637Y4458731D02*
G01*
X2543637Y4349628D01*
X2470901Y4458731D02*
G01*
X2470901Y4349628D01*
X2543637Y4406778D02*
G01*
X2470901Y4406778D01*
X2436611Y4458731D02*
G01*
X2436611Y4349628D01*
X2436611Y4458731D02*
G01*
X2369070Y4458731D01*
X2436611Y4406778D02*
G01*
X2395047Y4406778D01*
X2436611Y4349628D02*
G01*
X2369070Y4349628D01*
X2334780Y4458731D02*
G01*
X2334780Y4349628D01*
X2334780Y4458731D02*
G01*
X2288021Y4458731D01*
X2272436Y4453536D01*
X2267239Y4448340D01*
X2262045Y4437948D01*
X2262045Y4427557D01*
X2267239Y4417166D01*
X2272436Y4411972D01*
X2288021Y4406778D01*
X2334780Y4406778D01*
X2298412Y4406778D02*
G01*
X2262045Y4349628D01*
X2147745Y4458731D02*
G01*
X2147745Y4349628D01*
X2147745Y4458731D02*
G01*
X2100986Y4458731D01*
X2085398Y4453536D01*
X2080204Y4448340D01*
X2075007Y4437948D01*
X2075007Y4422363D01*
X2080204Y4411972D01*
X2085398Y4406778D01*
X2100986Y4401581D01*
X2147745Y4401581D01*
X2009546Y4458731D02*
G01*
X2019937Y4453536D01*
X2030328Y4443145D01*
X2035522Y4432754D01*
X2040717Y4417166D01*
X2040717Y4391190D01*
X2035522Y4375604D01*
X2030328Y4365213D01*
X2019937Y4354822D01*
X2009546Y4349628D01*
X1988764Y4349628D01*
X1978372Y4354822D01*
X1967981Y4365213D01*
X1962787Y4375604D01*
X1957590Y4391190D01*
X1957590Y4417166D01*
X1962787Y4432754D01*
X1967981Y4443145D01*
X1978372Y4453536D01*
X1988764Y4458731D01*
X2009546Y4458731D01*
X1923300Y4458731D02*
G01*
X1897324Y4349628D01*
X1871347Y4458731D02*
G01*
X1897324Y4349628D01*
X1871347Y4458731D02*
G01*
X1845368Y4349628D01*
X1819391Y4458731D02*
G01*
X1845368Y4349628D01*
X1785101Y4458731D02*
G01*
X1785101Y4349628D01*
X1785101Y4458731D02*
G01*
X1717560Y4458731D01*
X1785101Y4406778D02*
G01*
X1743537Y4406778D01*
X1785101Y4349628D02*
G01*
X1717560Y4349628D01*
X1683270Y4458731D02*
G01*
X1683270Y4349628D01*
X1683270Y4458731D02*
G01*
X1636511Y4458731D01*
X1620926Y4453536D01*
X1615729Y4448340D01*
X1610535Y4437948D01*
X1610535Y4427557D01*
X1615729Y4417166D01*
X1620926Y4411972D01*
X1636511Y4406778D01*
X1683270Y4406778D01*
X1646902Y4406778D02*
G01*
X1610535Y4349628D01*
X1576245Y4396386D02*
G01*
X1482727Y4396386D01*
X1375699Y4443145D02*
G01*
X1386090Y4453536D01*
X1401678Y4458731D01*
X1422458Y4458731D01*
X1438046Y4453536D01*
X1448437Y4443145D01*
X1448437Y4432754D01*
X1443240Y4422363D01*
X1438046Y4417166D01*
X1427655Y4411972D01*
X1396481Y4401581D01*
X1386090Y4396386D01*
X1380896Y4391190D01*
X1375699Y4380798D01*
X1375699Y4365213D01*
X1386090Y4354822D01*
X1401678Y4349628D01*
X1422458Y4349628D01*
X1438046Y4354822D01*
X1448437Y4365213D01*
X1341409Y4458731D02*
G01*
X1341409Y4380798D01*
X1336215Y4365213D01*
X1325824Y4354822D01*
X1310238Y4349628D01*
X1299847Y4349628D01*
X1284259Y4354822D01*
X1273868Y4365213D01*
X1268674Y4380798D01*
X1268674Y4458731D01*
X1234384Y4458731D02*
G01*
X1234384Y4349628D01*
X1234384Y4458731D02*
G01*
X1187625Y4458731D01*
X1172037Y4453536D01*
X1166842Y4448340D01*
X1161648Y4437948D01*
X1161648Y4422363D01*
X1166842Y4411972D01*
X1172037Y4406778D01*
X1187625Y4401581D01*
X1234384Y4401581D01*
X1127358Y4458731D02*
G01*
X1127358Y4349628D01*
X1127358Y4458731D02*
G01*
X1080597Y4458731D01*
X1065011Y4453536D01*
X1059817Y4448340D01*
X1054620Y4437948D01*
X1054620Y4422363D01*
X1059817Y4411972D01*
X1065011Y4406778D01*
X1080597Y4401581D01*
X1127358Y4401581D01*
X1020330Y4458731D02*
G01*
X1020330Y4349628D01*
X1020330Y4349628D02*
G01*
X957986Y4349628D01*
X923696Y4458731D02*
G01*
X882131Y4406778D01*
X882131Y4349628D01*
X840567Y4458731D02*
G01*
X882131Y4406778D01*
X806277Y4458731D02*
G01*
X806277Y4349628D01*
X771987Y4458731D02*
G01*
X771987Y4349628D01*
X771987Y4458731D02*
G01*
X699251Y4349628D01*
X699251Y4458731D02*
G01*
X699251Y4349628D01*
X587029Y4432754D02*
G01*
X592226Y4443145D01*
X602617Y4453536D01*
X613008Y4458731D01*
X633788Y4458731D01*
X644179Y4453536D01*
X654570Y4443145D01*
X659767Y4432754D01*
X664961Y4417166D01*
X664961Y4391190D01*
X659767Y4375604D01*
X654570Y4365213D01*
X644179Y4354822D01*
X633788Y4349628D01*
X613008Y4349628D01*
X602617Y4354822D01*
X592226Y4365213D01*
X587029Y4375604D01*
X587029Y4391190D01*
X613008Y4391190D02*
G01*
X587029Y4391190D01*
X2997194Y4280931D02*
G01*
X2997194Y4171828D01*
X2997194Y4280931D02*
G01*
X2955630Y4171828D01*
X2914068Y4280931D02*
G01*
X2955630Y4171828D01*
X2914068Y4280931D02*
G01*
X2914068Y4171828D01*
X2848604Y4280931D02*
G01*
X2858996Y4275736D01*
X2869387Y4265345D01*
X2874581Y4254954D01*
X2879778Y4239366D01*
X2879778Y4213390D01*
X2874581Y4197804D01*
X2869387Y4187413D01*
X2858996Y4177022D01*
X2848604Y4171828D01*
X2827822Y4171828D01*
X2817431Y4177022D01*
X2807040Y4187413D01*
X2801846Y4197804D01*
X2796649Y4213390D01*
X2796649Y4239366D01*
X2801846Y4254954D01*
X2807040Y4265345D01*
X2817431Y4275736D01*
X2827822Y4280931D01*
X2848604Y4280931D01*
X2762359Y4280931D02*
G01*
X2762359Y4171828D01*
X2762359Y4280931D02*
G01*
X2725991Y4280931D01*
X2710406Y4275736D01*
X2700014Y4265345D01*
X2694820Y4254954D01*
X2689623Y4239366D01*
X2689623Y4213390D01*
X2694820Y4197804D01*
X2700014Y4187413D01*
X2710406Y4177022D01*
X2725991Y4171828D01*
X2762359Y4171828D01*
X2655333Y4280931D02*
G01*
X2655333Y4202998D01*
X2650139Y4187413D01*
X2639748Y4177022D01*
X2624160Y4171828D01*
X2613769Y4171828D01*
X2598183Y4177022D01*
X2587792Y4187413D01*
X2582598Y4202998D01*
X2582598Y4280931D01*
X2548308Y4280931D02*
G01*
X2548308Y4171828D01*
X2548308Y4171828D02*
G01*
X2485961Y4171828D01*
X2451671Y4280931D02*
G01*
X2451671Y4171828D01*
X2451671Y4280931D02*
G01*
X2384130Y4280931D01*
X2451671Y4228978D02*
G01*
X2410109Y4228978D01*
X2451671Y4171828D02*
G01*
X2384130Y4171828D01*
X2313472Y4301713D02*
G01*
X2323863Y4291322D01*
X2334254Y4275736D01*
X2344646Y4254954D01*
X2349840Y4228978D01*
X2349840Y4208195D01*
X2344646Y4182216D01*
X2334254Y4161436D01*
X2323863Y4145848D01*
X2313472Y4135457D01*
X2206447Y4265345D02*
G01*
X2216838Y4275736D01*
X2232423Y4280931D01*
X2253206Y4280931D01*
X2268791Y4275736D01*
X2279182Y4265345D01*
X2279182Y4254954D01*
X2273988Y4244563D01*
X2268791Y4239366D01*
X2258400Y4234172D01*
X2227229Y4223781D01*
X2216838Y4218586D01*
X2211641Y4213390D01*
X2206447Y4202998D01*
X2206447Y4187413D01*
X2216838Y4177022D01*
X2232423Y4171828D01*
X2253206Y4171828D01*
X2268791Y4177022D01*
X2279182Y4187413D01*
X2172157Y4301713D02*
G01*
X2161766Y4291322D01*
X2151374Y4275736D01*
X2140983Y4254954D01*
X2135789Y4228978D01*
X2135789Y4208195D01*
X2140983Y4182216D01*
X2151374Y4161436D01*
X2161766Y4145848D01*
X2172157Y4135457D01*
X2021489Y4280931D02*
G01*
X2021489Y4171828D01*
X2021489Y4280931D02*
G01*
X1974730Y4280931D01*
X1959142Y4275736D01*
X1953948Y4270540D01*
X1948751Y4260148D01*
X1948751Y4244563D01*
X1953948Y4234172D01*
X1959142Y4228978D01*
X1974730Y4223781D01*
X2021489Y4223781D01*
X1914461Y4280931D02*
G01*
X1914461Y4171828D01*
X1914461Y4280931D02*
G01*
X1867702Y4280931D01*
X1852117Y4275736D01*
X1846920Y4270540D01*
X1841726Y4260148D01*
X1841726Y4249757D01*
X1846920Y4239366D01*
X1852117Y4234172D01*
X1867702Y4228978D01*
X1914461Y4228978D01*
X1878093Y4228978D02*
G01*
X1841726Y4171828D01*
X1807436Y4280931D02*
G01*
X1807436Y4171828D01*
X1807436Y4280931D02*
G01*
X1739894Y4280931D01*
X1807436Y4228978D02*
G01*
X1765871Y4228978D01*
X1807436Y4171828D02*
G01*
X1739894Y4171828D01*
X1632869Y4265345D02*
G01*
X1643260Y4275736D01*
X1658846Y4280931D01*
X1679628Y4280931D01*
X1695213Y4275736D01*
X1705604Y4265345D01*
X1705604Y4254954D01*
X1700410Y4244563D01*
X1695213Y4239366D01*
X1684822Y4234172D01*
X1653649Y4223781D01*
X1643260Y4218586D01*
X1638063Y4213390D01*
X1632869Y4202998D01*
X1632869Y4187413D01*
X1643260Y4177022D01*
X1658846Y4171828D01*
X1679628Y4171828D01*
X1695213Y4177022D01*
X1705604Y4187413D01*
X1598579Y4280931D02*
G01*
X1598579Y4171828D01*
X1598579Y4280931D02*
G01*
X1531038Y4280931D01*
X1598579Y4228978D02*
G01*
X1557014Y4228978D01*
X1598579Y4171828D02*
G01*
X1531038Y4171828D01*
X1496748Y4280931D02*
G01*
X1496748Y4171828D01*
X1496748Y4280931D02*
G01*
X1424010Y4171828D01*
X1424010Y4280931D02*
G01*
X1424010Y4171828D01*
X1353352Y4280931D02*
G01*
X1353352Y4171828D01*
X1389720Y4280931D02*
G01*
X1316984Y4280931D01*
D12*
X2413002Y4953000D02*
G01*
X2413002Y4699000D01*
X1905002Y4699000D01*
X1905002Y4953000D01*
X2413002Y4953000D01*
X2413002Y4699000D01*
X4445000Y5715000D02*
G01*
X4953000Y5715000D01*
X4953000Y5207000D01*
X4445000Y5207000D01*
X4445000Y5715000D01*
M02*
