M48
METRIC,LZ,000.000
;FILE_FORMAT=3:3
;TYPE=PLATED
;Layer: PTH_Through
;EasyEDA v6.5.32, 2023-07-25 14:04:49
;8272ca0991b848eeaebf2c144ff7441f,5a6b42c53f6a479593ecc07194224c93,10
;Gerber Generator version 0.2
;Holesize 1 = 0.305 mm
T01C0.305
;Holesize 2 = 0.701 mm
T02C0.701
;Holesize 3 = 1.101 mm
T03C1.101
;Holesize 4 = 1.301 mm
T04C1.301
;Holesize 5 = 3.000 mm
T05C3.000
%
G05
G90
T01
X029464Y010668
X027940Y013208
X026416Y015748
X017526Y015748
X019288Y013208
X021082Y010668
X025146Y018288
X026162Y027686
X007366Y021590
X015748Y021590
X005842Y022860
X014288Y022860
X004318Y024130
X012700Y024130
X029464Y032004
X020288Y032004
X027940Y030988
X011176Y039624
X015748Y047244
X014288Y044704
X012700Y042164
X007366Y047244
X005842Y044704
X004318Y042164
X035306Y021590
X035306Y034544
X011176Y024130
X037084Y022860
X037084Y037084
T02
X013288Y029900
X015288Y029900
X014288Y031900
X018288Y029900
X019288Y031900
X020288Y029900
X013288Y025400
X014288Y027400
X015288Y025400
X020288Y025400
X019288Y027400
X018288Y025400
T03
X012700Y005080
X012700Y002540
T04
X044196Y029464
X044196Y032004
X044196Y034544
X044196Y037084
X044196Y039624
X044196Y042164
X044196Y044704
X044196Y047244
X044196Y015748
X044196Y013208
X044196Y010668
X044196Y018288
T05
X003810Y054610
X054610Y054610
X054610Y003810
X003810Y003810
M30
