G04 Layer: TopLayer*
G04 Panelize: , Column: 2, Row: 2, Board Size: 127.89mm x 58.42mm, Panelized Board Size: 257.78mm x 118.84mm*
G04 EasyEDA v6.5.34, 2023-08-21 18:11:39*
G04 e8c068331ae34e3d8125ef6c1ac767d1,5a6b42c53f6a479593ecc07194224c93,10*
G04 Gerber Generator version 0.2*
G04 Scale: 100 percent, Rotated: No, Reflected: No *
G04 Dimensions in millimeters *
G04 leading zeros omitted , absolute positions ,4 integer and 5 decimal *
%FSLAX45Y45*%
%MOMM*%

%ADD10C,0.1524*%
%ADD11C,5.0000*%
%ADD12C,1.8000*%

%LPD*%
G36*
X12752781Y25908D02*
G01*
X36068Y26416D01*
X32156Y27178D01*
X28905Y29362D01*
X26670Y32664D01*
X25908Y36576D01*
X25908Y5805932D01*
X26670Y5809843D01*
X28905Y5813094D01*
X32156Y5815330D01*
X36068Y5816092D01*
X2555240Y5816092D01*
X2559100Y5815330D01*
X2562402Y5813094D01*
X2564638Y5809843D01*
X2565400Y5805932D01*
X2566162Y5809843D01*
X2568346Y5813094D01*
X2571648Y5815330D01*
X2575560Y5816092D01*
X3050540Y5816092D01*
X3054400Y5815330D01*
X3057702Y5813094D01*
X3059938Y5809843D01*
X3060700Y5805932D01*
X3061462Y5809843D01*
X3063646Y5813094D01*
X3066948Y5815330D01*
X3070860Y5816092D01*
X12752832Y5816092D01*
X12756692Y5815330D01*
X12759994Y5813094D01*
X12762179Y5809843D01*
X12762992Y5805932D01*
X12762992Y36068D01*
X12762179Y32156D01*
X12759994Y28905D01*
X12756692Y26670D01*
G37*

%LPC*%
G36*
X393700Y5185562D02*
G01*
X398322Y5185664D01*
X421284Y5188051D01*
X443992Y5192369D01*
X466242Y5198618D01*
X487934Y5206644D01*
X508812Y5216499D01*
X528828Y5228031D01*
X547827Y5241239D01*
X565607Y5255971D01*
X582117Y5272125D01*
X597204Y5289600D01*
X610819Y5308295D01*
X622757Y5328107D01*
X633018Y5348782D01*
X641553Y5370271D01*
X648208Y5392369D01*
X653034Y5414975D01*
X655929Y5437936D01*
X656336Y5448300D01*
X393700Y5448300D01*
G37*
G36*
X393700Y105562D02*
G01*
X398322Y105664D01*
X421284Y108051D01*
X443992Y112369D01*
X466242Y118618D01*
X487934Y126644D01*
X508812Y136499D01*
X528828Y148031D01*
X547827Y161239D01*
X565607Y175971D01*
X582117Y192125D01*
X597204Y209600D01*
X610819Y228295D01*
X622757Y248107D01*
X633018Y268782D01*
X641553Y290271D01*
X648208Y312369D01*
X653034Y334975D01*
X655929Y357936D01*
X656336Y368300D01*
X393700Y368300D01*
G37*
G36*
X12392406Y105613D02*
G01*
X12392406Y368300D01*
X12129516Y368300D01*
X12131395Y346405D01*
X12135256Y323646D01*
X12140996Y301244D01*
X12148566Y279450D01*
X12157964Y258317D01*
X12169089Y238099D01*
X12181890Y218846D01*
X12196267Y200710D01*
X12212066Y183896D01*
X12229236Y168402D01*
X12247626Y154432D01*
X12267133Y142087D01*
X12287605Y131368D01*
X12308941Y122428D01*
X12330887Y115265D01*
X12353391Y109982D01*
X12376251Y106629D01*
G37*
G36*
X368300Y105613D02*
G01*
X368300Y368300D01*
X105410Y368300D01*
X107289Y346405D01*
X111150Y323646D01*
X116890Y301244D01*
X124460Y279450D01*
X133858Y258317D01*
X144983Y238099D01*
X157784Y218846D01*
X172161Y200710D01*
X187960Y183896D01*
X205130Y168402D01*
X223520Y154432D01*
X243027Y142087D01*
X263499Y131368D01*
X284835Y122428D01*
X306781Y115265D01*
X329285Y109982D01*
X352145Y106629D01*
G37*
G36*
X12417806Y393700D02*
G01*
X12680442Y393700D01*
X12680035Y404063D01*
X12677140Y427024D01*
X12672314Y449630D01*
X12665659Y471728D01*
X12657124Y493217D01*
X12646863Y513892D01*
X12634925Y533704D01*
X12621310Y552348D01*
X12606223Y569874D01*
X12589713Y586028D01*
X12571933Y600760D01*
X12552934Y613968D01*
X12532918Y625500D01*
X12512040Y635355D01*
X12490348Y643382D01*
X12468098Y649630D01*
X12445390Y653948D01*
X12422428Y656336D01*
X12417806Y656437D01*
G37*
G36*
X393700Y393700D02*
G01*
X656336Y393700D01*
X655929Y404063D01*
X653034Y427024D01*
X648208Y449630D01*
X641553Y471728D01*
X633018Y493217D01*
X622757Y513892D01*
X610819Y533704D01*
X597204Y552348D01*
X582117Y569874D01*
X565607Y586028D01*
X547827Y600760D01*
X528828Y613968D01*
X508812Y625500D01*
X487934Y635355D01*
X466242Y643382D01*
X443992Y649630D01*
X421284Y653948D01*
X398322Y656336D01*
X393700Y656437D01*
G37*
G36*
X12129516Y393700D02*
G01*
X12392406Y393700D01*
X12392406Y656386D01*
X12376251Y655370D01*
X12353391Y652018D01*
X12330887Y646734D01*
X12308941Y639572D01*
X12287605Y630631D01*
X12267133Y619912D01*
X12247626Y607568D01*
X12229236Y593598D01*
X12212066Y578104D01*
X12196267Y561289D01*
X12181890Y543153D01*
X12169089Y523900D01*
X12157964Y503682D01*
X12148566Y482549D01*
X12140996Y460756D01*
X12135256Y438353D01*
X12131395Y415594D01*
G37*
G36*
X105410Y393700D02*
G01*
X368300Y393700D01*
X368300Y656386D01*
X352145Y655370D01*
X329285Y652018D01*
X306781Y646734D01*
X284835Y639572D01*
X263499Y630631D01*
X243027Y619912D01*
X223520Y607568D01*
X205130Y593598D01*
X187960Y578104D01*
X172161Y561289D01*
X157784Y543153D01*
X144983Y523900D01*
X133858Y503682D01*
X124460Y482549D01*
X116890Y460756D01*
X111150Y438353D01*
X107289Y415594D01*
G37*
G36*
X3076905Y5181092D02*
G01*
X3583787Y5181092D01*
X3590086Y5181803D01*
X3595573Y5183682D01*
X3600450Y5186781D01*
X3604564Y5190896D01*
X3607612Y5195773D01*
X3609543Y5201208D01*
X3610254Y5207558D01*
X3610254Y5714441D01*
X3609543Y5720740D01*
X3607358Y5726938D01*
X3606800Y5730341D01*
X3606800Y5739384D01*
X3605784Y5740400D01*
X3587648Y5740450D01*
X3583787Y5740908D01*
X3076803Y5740908D01*
X3071774Y5740450D01*
X3067608Y5740908D01*
X3064002Y5743041D01*
X3061563Y5746445D01*
X3060700Y5750560D01*
X3060700Y5739841D01*
X3059938Y5735980D01*
X3057702Y5732678D01*
X3056128Y5731103D01*
X3053080Y5726226D01*
X3051149Y5720740D01*
X3050438Y5714441D01*
X3050438Y5207558D01*
X3051149Y5201208D01*
X3053080Y5195773D01*
X3056128Y5190896D01*
X3060242Y5186781D01*
X3065119Y5183682D01*
X3070606Y5181803D01*
G37*
G36*
X12417806Y5185562D02*
G01*
X12422428Y5185664D01*
X12445390Y5188051D01*
X12468098Y5192369D01*
X12490348Y5198618D01*
X12512040Y5206644D01*
X12532918Y5216499D01*
X12552934Y5228031D01*
X12571933Y5241239D01*
X12589713Y5255971D01*
X12606223Y5272125D01*
X12621310Y5289600D01*
X12634925Y5308295D01*
X12646863Y5328107D01*
X12657124Y5348782D01*
X12665659Y5370271D01*
X12672314Y5392369D01*
X12677140Y5414975D01*
X12680035Y5437936D01*
X12680442Y5448300D01*
X12417806Y5448300D01*
G37*
G36*
X12417806Y105562D02*
G01*
X12422428Y105664D01*
X12445390Y108051D01*
X12468098Y112369D01*
X12490348Y118618D01*
X12512040Y126644D01*
X12532918Y136499D01*
X12552934Y148031D01*
X12571933Y161239D01*
X12589713Y175971D01*
X12606223Y192125D01*
X12621310Y209600D01*
X12634925Y228295D01*
X12646863Y248107D01*
X12657124Y268782D01*
X12665659Y290271D01*
X12672314Y312369D01*
X12677140Y334975D01*
X12680035Y357936D01*
X12680442Y368300D01*
X12417806Y368300D01*
G37*
G36*
X12392406Y5185613D02*
G01*
X12392406Y5448300D01*
X12129516Y5448300D01*
X12131395Y5426405D01*
X12135256Y5403646D01*
X12140996Y5381244D01*
X12148566Y5359450D01*
X12157964Y5338318D01*
X12169089Y5318099D01*
X12181890Y5298846D01*
X12196267Y5280710D01*
X12212066Y5263896D01*
X12229236Y5248402D01*
X12247626Y5234432D01*
X12267133Y5222087D01*
X12287605Y5211368D01*
X12308941Y5202428D01*
X12330887Y5195265D01*
X12353391Y5189982D01*
X12376251Y5186629D01*
G37*
G36*
X368300Y5185613D02*
G01*
X368300Y5448300D01*
X105410Y5448300D01*
X107289Y5426405D01*
X111150Y5403646D01*
X116890Y5381244D01*
X124460Y5359450D01*
X133858Y5338318D01*
X144983Y5318099D01*
X157784Y5298846D01*
X172161Y5280710D01*
X187960Y5263896D01*
X205130Y5248402D01*
X223520Y5234432D01*
X243027Y5222087D01*
X263499Y5211368D01*
X284835Y5202428D01*
X306781Y5195265D01*
X329285Y5189982D01*
X352145Y5186629D01*
G37*
G36*
X393700Y5473700D02*
G01*
X656336Y5473700D01*
X655929Y5484063D01*
X653034Y5507024D01*
X648208Y5529630D01*
X641553Y5551728D01*
X633018Y5573217D01*
X622757Y5593892D01*
X610819Y5613704D01*
X597204Y5632348D01*
X582117Y5649874D01*
X565607Y5666028D01*
X547827Y5680760D01*
X528828Y5693968D01*
X508812Y5705500D01*
X487934Y5715355D01*
X466242Y5723382D01*
X443992Y5729630D01*
X421284Y5733948D01*
X398322Y5736336D01*
X393700Y5736437D01*
G37*
G36*
X12417806Y5473700D02*
G01*
X12680442Y5473700D01*
X12680035Y5484063D01*
X12677140Y5507024D01*
X12672314Y5529630D01*
X12665659Y5551728D01*
X12657124Y5573217D01*
X12646863Y5593892D01*
X12634925Y5613704D01*
X12621310Y5632348D01*
X12606223Y5649874D01*
X12589713Y5666028D01*
X12571933Y5680760D01*
X12552934Y5693968D01*
X12532918Y5705500D01*
X12512040Y5715355D01*
X12490348Y5723382D01*
X12468098Y5729630D01*
X12445390Y5733948D01*
X12422428Y5736336D01*
X12417806Y5736437D01*
G37*
G36*
X12129516Y5473700D02*
G01*
X12392406Y5473700D01*
X12392406Y5736386D01*
X12376251Y5735370D01*
X12353391Y5732018D01*
X12330887Y5726734D01*
X12308941Y5719572D01*
X12287605Y5710631D01*
X12267133Y5699912D01*
X12247626Y5687568D01*
X12229236Y5673598D01*
X12212066Y5658104D01*
X12196267Y5641289D01*
X12181890Y5623153D01*
X12169089Y5603900D01*
X12157964Y5583682D01*
X12148566Y5562549D01*
X12140996Y5540756D01*
X12135256Y5518353D01*
X12131395Y5495594D01*
G37*
G36*
X105410Y5473700D02*
G01*
X368300Y5473700D01*
X368300Y5736386D01*
X352145Y5735370D01*
X329285Y5732018D01*
X306781Y5726734D01*
X284835Y5719572D01*
X263499Y5710631D01*
X243027Y5699912D01*
X223520Y5687568D01*
X205130Y5673598D01*
X187960Y5658104D01*
X172161Y5641289D01*
X157784Y5623153D01*
X144983Y5603900D01*
X133858Y5583682D01*
X124460Y5562549D01*
X116890Y5540756D01*
X111150Y5518353D01*
X107289Y5495594D01*
G37*
G36*
X2596438Y5583682D02*
G01*
X2626563Y5583682D01*
X2632862Y5584393D01*
X2641142Y5587593D01*
X2643936Y5588000D01*
X2970784Y5588000D01*
X2971800Y5589016D01*
X2971800Y5713984D01*
X2970784Y5715000D01*
X2639822Y5715000D01*
X2636469Y5715558D01*
X2632862Y5716828D01*
X2626563Y5717540D01*
X2596438Y5717540D01*
X2590139Y5716828D01*
X2586532Y5715558D01*
X2583180Y5715000D01*
X2575560Y5715000D01*
X2571648Y5715762D01*
X2568346Y5717997D01*
X2566162Y5721248D01*
X2565400Y5725160D01*
X2565400Y5589016D01*
X2566416Y5588000D01*
X2579065Y5588000D01*
X2581859Y5587593D01*
X2584653Y5586323D01*
X2590139Y5584393D01*
G37*

%LPD*%
G36*
X3251200Y5715000D02*
G01*
X3251200Y5680151D01*
X3267760Y5680151D01*
X3267760Y5715000D01*
G37*
G36*
X3286150Y5715000D02*
G01*
X3286150Y5696661D01*
X3302762Y5696661D01*
X3302762Y5680151D01*
X3339541Y5680151D01*
X3339541Y5663641D01*
X3321151Y5663641D01*
X3321151Y5680151D01*
X3286150Y5680151D01*
X3286150Y5645302D01*
X3302762Y5645302D01*
X3302762Y5663641D01*
X3321151Y5663641D01*
X3321151Y5645302D01*
X3339541Y5645302D01*
X3339541Y5610453D01*
X3356101Y5610453D01*
X3356101Y5575604D01*
X3339541Y5575604D01*
X3339541Y5610453D01*
X3321151Y5610453D01*
X3321151Y5575604D01*
X3339541Y5575604D01*
X3339541Y5557266D01*
X3286150Y5557266D01*
X3286150Y5592114D01*
X3302762Y5592114D01*
X3302762Y5626963D01*
X3267760Y5626963D01*
X3267760Y5610453D01*
X3286150Y5610453D01*
X3286150Y5592114D01*
X3267760Y5592114D01*
X3267760Y5610453D01*
X3251200Y5610453D01*
X3251200Y5645302D01*
X3267760Y5645302D01*
X3267760Y5663641D01*
X3216249Y5663641D01*
X3216249Y5645302D01*
X3234639Y5645302D01*
X3234639Y5626963D01*
X3216249Y5626963D01*
X3216249Y5610453D01*
X3251200Y5610453D01*
X3251200Y5592114D01*
X3234639Y5592114D01*
X3234639Y5610453D01*
X3216249Y5610453D01*
X3216249Y5592114D01*
X3234639Y5592114D01*
X3234639Y5575604D01*
X3181248Y5575604D01*
X3181248Y5557266D01*
X3197809Y5557266D01*
X3197809Y5540756D01*
X3181248Y5540756D01*
X3181248Y5522417D01*
X3144469Y5522417D01*
X3144469Y5540756D01*
X3127908Y5540756D01*
X3127908Y5557266D01*
X3162858Y5557266D01*
X3162858Y5575604D01*
X3076346Y5575604D01*
X3076346Y5557266D01*
X3109468Y5557266D01*
X3109468Y5540756D01*
X3092907Y5540756D01*
X3092907Y5522417D01*
X3144469Y5522417D01*
X3144469Y5505907D01*
X3181248Y5505907D01*
X3181248Y5522417D01*
X3197809Y5522417D01*
X3197809Y5540756D01*
X3234639Y5540756D01*
X3234639Y5557266D01*
X3251200Y5557266D01*
X3251200Y5575604D01*
X3267760Y5575604D01*
X3267760Y5557266D01*
X3286150Y5557266D01*
X3286150Y5540756D01*
X3302762Y5540756D01*
X3302762Y5522417D01*
X3286150Y5522417D01*
X3286150Y5487568D01*
X3302762Y5487568D01*
X3302762Y5505907D01*
X3321151Y5505907D01*
X3321151Y5522417D01*
X3339541Y5522417D01*
X3339541Y5540756D01*
X3374542Y5540756D01*
X3374542Y5575604D01*
X3391103Y5575604D01*
X3391103Y5557266D01*
X3409492Y5557266D01*
X3409492Y5575604D01*
X3426053Y5575604D01*
X3426053Y5557266D01*
X3409492Y5557266D01*
X3409492Y5522417D01*
X3391103Y5522417D01*
X3391103Y5540756D01*
X3374542Y5540756D01*
X3374542Y5522417D01*
X3356101Y5522417D01*
X3356101Y5505907D01*
X3321151Y5505907D01*
X3321151Y5487568D01*
X3339541Y5487568D01*
X3339541Y5452719D01*
X3356101Y5452719D01*
X3356101Y5469229D01*
X3374542Y5469229D01*
X3374542Y5487568D01*
X3409492Y5487568D01*
X3409492Y5505907D01*
X3426053Y5505907D01*
X3426053Y5469229D01*
X3461054Y5469229D01*
X3461054Y5487568D01*
X3514394Y5487568D01*
X3514394Y5452719D01*
X3461054Y5452719D01*
X3461054Y5434380D01*
X3479444Y5434380D01*
X3479444Y5399532D01*
X3514394Y5399532D01*
X3514394Y5383022D01*
X3549396Y5383022D01*
X3549396Y5364683D01*
X3514394Y5364683D01*
X3514394Y5383022D01*
X3426053Y5383022D01*
X3426053Y5399532D01*
X3444443Y5399532D01*
X3444443Y5452719D01*
X3426053Y5452719D01*
X3426053Y5469229D01*
X3374542Y5469229D01*
X3374542Y5452719D01*
X3356101Y5452719D01*
X3356101Y5434380D01*
X3374542Y5434380D01*
X3374542Y5416042D01*
X3391103Y5416042D01*
X3391103Y5434380D01*
X3426053Y5434380D01*
X3426053Y5416042D01*
X3409492Y5416042D01*
X3409492Y5364683D01*
X3426053Y5364683D01*
X3426053Y5346344D01*
X3549396Y5346344D01*
X3549396Y5329834D01*
X3514394Y5329834D01*
X3514394Y5346344D01*
X3497834Y5346344D01*
X3497834Y5293156D01*
X3444443Y5293156D01*
X3444443Y5346344D01*
X3409492Y5346344D01*
X3409492Y5364683D01*
X3391103Y5364683D01*
X3391103Y5329834D01*
X3409492Y5329834D01*
X3409492Y5311495D01*
X3426053Y5311495D01*
X3426053Y5276646D01*
X3479444Y5276646D01*
X3479444Y5260187D01*
X3461054Y5260187D01*
X3461054Y5276646D01*
X3426053Y5276646D01*
X3426053Y5260187D01*
X3444443Y5260187D01*
X3444443Y5241848D01*
X3426053Y5241848D01*
X3426053Y5225338D01*
X3409492Y5225338D01*
X3409492Y5241848D01*
X3391103Y5241848D01*
X3391103Y5260187D01*
X3374542Y5260187D01*
X3374542Y5276646D01*
X3356101Y5276646D01*
X3356101Y5293156D01*
X3374542Y5293156D01*
X3374542Y5311495D01*
X3391103Y5311495D01*
X3391103Y5329834D01*
X3374542Y5329834D01*
X3374542Y5383022D01*
X3356101Y5383022D01*
X3356101Y5364683D01*
X3321151Y5364683D01*
X3321151Y5383022D01*
X3339541Y5383022D01*
X3339541Y5416042D01*
X3286150Y5416042D01*
X3286150Y5452719D01*
X3302762Y5452719D01*
X3302762Y5469229D01*
X3251200Y5469229D01*
X3251200Y5487568D01*
X3267760Y5487568D01*
X3267760Y5505907D01*
X3234639Y5505907D01*
X3234639Y5522417D01*
X3216249Y5522417D01*
X3216249Y5487568D01*
X3197809Y5487568D01*
X3197809Y5505907D01*
X3162858Y5505907D01*
X3162858Y5487568D01*
X3144469Y5487568D01*
X3144469Y5505907D01*
X3127908Y5505907D01*
X3127908Y5522417D01*
X3092907Y5522417D01*
X3092907Y5487568D01*
X3076346Y5487568D01*
X3076346Y5452719D01*
X3109468Y5452719D01*
X3109468Y5469229D01*
X3092907Y5469229D01*
X3092907Y5487568D01*
X3109468Y5487568D01*
X3109468Y5505907D01*
X3127908Y5505907D01*
X3127908Y5469229D01*
X3162858Y5469229D01*
X3162858Y5487568D01*
X3197809Y5487568D01*
X3197809Y5469229D01*
X3181248Y5469229D01*
X3181248Y5452719D01*
X3197809Y5452719D01*
X3197809Y5469229D01*
X3216249Y5469229D01*
X3216249Y5452719D01*
X3267760Y5452719D01*
X3267760Y5434380D01*
X3251200Y5434380D01*
X3251200Y5452719D01*
X3234639Y5452719D01*
X3234639Y5434380D01*
X3181248Y5434380D01*
X3181248Y5416042D01*
X3197809Y5416042D01*
X3197809Y5399532D01*
X3181248Y5399532D01*
X3181248Y5416042D01*
X3162858Y5416042D01*
X3162858Y5399532D01*
X3181248Y5399532D01*
X3181248Y5383022D01*
X3162858Y5383022D01*
X3162858Y5364683D01*
X3181248Y5364683D01*
X3181248Y5383022D01*
X3234639Y5383022D01*
X3234639Y5416042D01*
X3251200Y5416042D01*
X3251200Y5383022D01*
X3234639Y5383022D01*
X3234639Y5364683D01*
X3181248Y5364683D01*
X3181248Y5346344D01*
X3216249Y5346344D01*
X3216249Y5311495D01*
X3234639Y5311495D01*
X3234639Y5364683D01*
X3267760Y5364683D01*
X3267760Y5416042D01*
X3286150Y5416042D01*
X3286150Y5399532D01*
X3302762Y5399532D01*
X3302762Y5383022D01*
X3286150Y5383022D01*
X3286150Y5346344D01*
X3302762Y5346344D01*
X3302762Y5364683D01*
X3321151Y5364683D01*
X3321151Y5346344D01*
X3356101Y5346344D01*
X3356101Y5329834D01*
X3374542Y5329834D01*
X3374542Y5311495D01*
X3356101Y5311495D01*
X3356101Y5293156D01*
X3339541Y5293156D01*
X3339541Y5311495D01*
X3321151Y5311495D01*
X3321151Y5293156D01*
X3339541Y5293156D01*
X3339541Y5276646D01*
X3286150Y5276646D01*
X3286150Y5311495D01*
X3302762Y5311495D01*
X3302762Y5329834D01*
X3267760Y5329834D01*
X3267760Y5346344D01*
X3251200Y5346344D01*
X3251200Y5329834D01*
X3267760Y5329834D01*
X3267760Y5311495D01*
X3251403Y5311495D01*
X3250285Y5294122D01*
X3216249Y5293055D01*
X3216249Y5276646D01*
X3251200Y5276646D01*
X3251200Y5260187D01*
X3234639Y5260187D01*
X3234639Y5276646D01*
X3216249Y5276646D01*
X3216249Y5207000D01*
X3234639Y5207000D01*
X3234639Y5241848D01*
X3267760Y5241848D01*
X3267760Y5276646D01*
X3286150Y5276646D01*
X3286150Y5260187D01*
X3302762Y5260187D01*
X3302762Y5241848D01*
X3286150Y5241848D01*
X3286150Y5207000D01*
X3302558Y5207000D01*
X3303676Y5224424D01*
X3321151Y5225542D01*
X3321151Y5241848D01*
X3356101Y5241848D01*
X3356101Y5225338D01*
X3321151Y5225338D01*
X3321151Y5207000D01*
X3391103Y5207000D01*
X3391103Y5225338D01*
X3409492Y5225338D01*
X3409492Y5207000D01*
X3479444Y5207000D01*
X3479444Y5225338D01*
X3461054Y5225338D01*
X3461054Y5241848D01*
X3497834Y5241848D01*
X3497834Y5276646D01*
X3514394Y5276646D01*
X3514394Y5311495D01*
X3530955Y5311495D01*
X3530955Y5276646D01*
X3584346Y5276646D01*
X3584346Y5311495D01*
X3549396Y5311495D01*
X3549396Y5329834D01*
X3567785Y5329834D01*
X3567785Y5364683D01*
X3584346Y5364683D01*
X3584346Y5383022D01*
X3567785Y5383022D01*
X3567785Y5399532D01*
X3584346Y5399532D01*
X3584346Y5416042D01*
X3549396Y5416042D01*
X3549396Y5399532D01*
X3530955Y5399532D01*
X3530955Y5416042D01*
X3497834Y5416042D01*
X3497834Y5434380D01*
X3514394Y5434380D01*
X3514394Y5452719D01*
X3549396Y5452719D01*
X3549396Y5434380D01*
X3584346Y5434380D01*
X3584346Y5469229D01*
X3567785Y5469229D01*
X3567785Y5487568D01*
X3549396Y5487568D01*
X3549396Y5469229D01*
X3530955Y5469229D01*
X3530955Y5487568D01*
X3514394Y5487568D01*
X3514394Y5505907D01*
X3530955Y5505907D01*
X3530955Y5522417D01*
X3549396Y5522417D01*
X3549396Y5540756D01*
X3567785Y5540756D01*
X3567785Y5575604D01*
X3549396Y5575604D01*
X3549396Y5540756D01*
X3530955Y5540756D01*
X3530955Y5575604D01*
X3514394Y5575604D01*
X3514394Y5557266D01*
X3497834Y5557266D01*
X3497834Y5575604D01*
X3479444Y5575604D01*
X3479444Y5540756D01*
X3514394Y5540756D01*
X3514394Y5522417D01*
X3497834Y5522417D01*
X3497834Y5540756D01*
X3479444Y5540756D01*
X3479444Y5522417D01*
X3444443Y5522417D01*
X3444443Y5505907D01*
X3426053Y5505907D01*
X3426053Y5540756D01*
X3461054Y5540756D01*
X3461054Y5575604D01*
X3444443Y5575604D01*
X3444443Y5610453D01*
X3426053Y5610453D01*
X3426053Y5592114D01*
X3409492Y5592114D01*
X3409492Y5610453D01*
X3391103Y5610453D01*
X3391103Y5626963D01*
X3409492Y5626963D01*
X3409492Y5645302D01*
X3391103Y5645302D01*
X3391103Y5626963D01*
X3374542Y5626963D01*
X3374542Y5610453D01*
X3391103Y5610453D01*
X3391103Y5592114D01*
X3374542Y5592114D01*
X3374542Y5610453D01*
X3356101Y5610453D01*
X3356101Y5645302D01*
X3374542Y5645302D01*
X3374542Y5663641D01*
X3444443Y5663641D01*
X3444443Y5696661D01*
X3426053Y5696661D01*
X3426053Y5715000D01*
X3409492Y5715000D01*
X3409492Y5696661D01*
X3426053Y5696661D01*
X3426053Y5680151D01*
X3391103Y5680151D01*
X3391103Y5696661D01*
X3374542Y5696661D01*
X3374542Y5663641D01*
X3356101Y5663641D01*
X3356101Y5715000D01*
X3339541Y5715000D01*
X3339541Y5696661D01*
X3321151Y5696661D01*
X3321151Y5715000D01*
G37*
G36*
X3076346Y5713171D02*
G01*
X3076346Y5698490D01*
X3181248Y5698490D01*
X3181248Y5608624D01*
X3092907Y5608624D01*
X3092907Y5698490D01*
X3076346Y5698490D01*
X3076346Y5593943D01*
X3197809Y5593943D01*
X3197809Y5713171D01*
G37*
G36*
X3462883Y5713171D02*
G01*
X3462883Y5698490D01*
X3567785Y5698490D01*
X3567785Y5608624D01*
X3477564Y5608624D01*
X3477564Y5698490D01*
X3462883Y5698490D01*
X3462883Y5593943D01*
X3584346Y5593943D01*
X3584346Y5713171D01*
G37*
G36*
X3216249Y5696661D02*
G01*
X3216249Y5680151D01*
X3234639Y5680151D01*
X3234639Y5696661D01*
G37*
G36*
X3111296Y5680151D02*
G01*
X3111296Y5628792D01*
X3161030Y5628792D01*
X3161030Y5680151D01*
G37*
G36*
X3497834Y5680151D02*
G01*
X3497834Y5628792D01*
X3547516Y5628792D01*
X3547516Y5680151D01*
G37*
G36*
X3426053Y5645302D02*
G01*
X3426053Y5626963D01*
X3444443Y5626963D01*
X3444443Y5645302D01*
G37*
G36*
X3251200Y5557266D02*
G01*
X3251200Y5522417D01*
X3267760Y5522417D01*
X3267760Y5557266D01*
G37*
G36*
X3567785Y5522417D02*
G01*
X3567785Y5505907D01*
X3584346Y5505907D01*
X3584346Y5522417D01*
G37*
G36*
X3144469Y5452719D02*
G01*
X3144469Y5434380D01*
X3162858Y5434380D01*
X3162858Y5452719D01*
G37*
G36*
X3321151Y5452719D02*
G01*
X3321151Y5434380D01*
X3339541Y5434380D01*
X3339541Y5416042D01*
X3356101Y5416042D01*
X3356101Y5399532D01*
X3374542Y5399532D01*
X3374542Y5383022D01*
X3391103Y5383022D01*
X3391103Y5399532D01*
X3374542Y5399532D01*
X3374542Y5416042D01*
X3356101Y5416042D01*
X3356101Y5434380D01*
X3339541Y5434380D01*
X3339541Y5452719D01*
G37*
G36*
X3076346Y5434380D02*
G01*
X3076346Y5346344D01*
X3092907Y5346344D01*
X3092907Y5399532D01*
X3109468Y5399532D01*
X3109468Y5383022D01*
X3127908Y5383022D01*
X3127908Y5364683D01*
X3109468Y5364683D01*
X3109468Y5346344D01*
X3127908Y5346344D01*
X3127908Y5364683D01*
X3144469Y5364683D01*
X3144469Y5416042D01*
X3092907Y5416042D01*
X3092907Y5434380D01*
G37*
G36*
X3461054Y5329834D02*
G01*
X3461054Y5311495D01*
X3479444Y5311495D01*
X3479444Y5329834D01*
G37*
G36*
X3076346Y5328005D02*
G01*
X3076346Y5313375D01*
X3181248Y5313375D01*
X3181248Y5223510D01*
X3092907Y5223510D01*
X3092907Y5313375D01*
X3076346Y5313375D01*
X3076346Y5208828D01*
X3197809Y5208828D01*
X3197809Y5328005D01*
G37*
G36*
X3111296Y5293156D02*
G01*
X3111296Y5243677D01*
X3161030Y5243677D01*
X3161030Y5293156D01*
G37*
G36*
X3374542Y5293156D02*
G01*
X3374542Y5276646D01*
X3391103Y5276646D01*
X3391103Y5260187D01*
X3409492Y5260187D01*
X3409492Y5241848D01*
X3426053Y5241848D01*
X3426053Y5260187D01*
X3409492Y5260187D01*
X3409492Y5293156D01*
G37*
G36*
X3530955Y5260187D02*
G01*
X3530955Y5241848D01*
X3514394Y5241848D01*
X3514394Y5225338D01*
X3497834Y5225338D01*
X3497834Y5207000D01*
X3549396Y5207000D01*
X3549396Y5241848D01*
X3567785Y5241848D01*
X3567785Y5225338D01*
X3584346Y5225338D01*
X3584346Y5241848D01*
X3567785Y5241848D01*
X3567785Y5260187D01*
G37*
D10*
X2603500Y5671312D02*
G01*
X2609850Y5674613D01*
X2619502Y5684012D01*
X2619502Y5617210D01*
D11*
G01*
X381000Y5461000D03*
G01*
X381000Y381000D03*
G01*
X12405106Y5461000D03*
G01*
X12405106Y381000D03*
G01*
X4550486Y472109D03*
G01*
X10350474Y472109D03*
G01*
X4550486Y5372100D03*
G01*
X10350474Y5372100D03*
D12*
G01*
X1270000Y508000D03*
G01*
X1270000Y254000D03*
M02*
