G04 Layer: TopSilkscreenLayer*
G04 Panelize: , Column: 2, Row: 2, Board Size: 127.89mm x 58.42mm, Panelized Board Size: 257.78mm x 118.84mm*
G04 EasyEDA v6.5.34, 2023-08-21 18:11:39*
G04 e8c068331ae34e3d8125ef6c1ac767d1,5a6b42c53f6a479593ecc07194224c93,10*
G04 Gerber Generator version 0.2*
G04 Scale: 100 percent, Rotated: No, Reflected: No *
G04 Dimensions in millimeters *
G04 leading zeros omitted , absolute positions ,4 integer and 5 decimal *
%FSLAX45Y45*%
%MOMM*%

%ADD10C,0.1524*%
%ADD11C,0.2540*%
%ADD12C,0.1270*%

%LPD*%
G36*
X9049105Y3377133D02*
G01*
X7867192Y3376929D01*
X7521702Y3376523D01*
X7390587Y3376117D01*
X7299655Y3375609D01*
X7229856Y3374898D01*
X7172909Y3373932D01*
X7138212Y3372815D01*
X7114336Y3371392D01*
X7105192Y3370427D01*
X7097725Y3369106D01*
X7094016Y3367989D01*
X7090968Y3366668D01*
X7084974Y3362807D01*
X7080758Y3359556D01*
X7076490Y3355848D01*
X7072274Y3351834D01*
X7068261Y3347618D01*
X7064552Y3343351D01*
X7061301Y3339134D01*
X7057085Y3332530D01*
X7055713Y3329838D01*
X7053732Y3324351D01*
X7052360Y3318459D01*
X7051243Y3310636D01*
X7050278Y3300323D01*
X7049465Y3286963D01*
X7048246Y3248863D01*
X7047585Y3191916D01*
X7047230Y3111601D01*
X7047077Y2872790D01*
X7075982Y2872790D01*
X7076186Y3134360D01*
X7076592Y3207512D01*
X7077405Y3258108D01*
X7078014Y3276346D01*
X7078776Y3290671D01*
X7079691Y3301644D01*
X7080808Y3309823D01*
X7082078Y3315817D01*
X7083653Y3320186D01*
X7085888Y3324199D01*
X7087971Y3326993D01*
X7091324Y3330752D01*
X7095337Y3334359D01*
X7099858Y3337712D01*
X7104786Y3340862D01*
X7110018Y3343656D01*
X7115403Y3346094D01*
X7120839Y3348126D01*
X7126173Y3349701D01*
X7131354Y3350818D01*
X7136231Y3351326D01*
X7140651Y3351225D01*
X7146645Y3350260D01*
X7164933Y3349701D01*
X7248499Y3348736D01*
X7378395Y3348177D01*
X9087104Y3348024D01*
X9418878Y3347618D01*
X9687255Y3346754D01*
X9783927Y3346196D01*
X9878466Y3345332D01*
X9946487Y3344214D01*
X9977018Y3343249D01*
X9985451Y3342741D01*
X9989312Y3342233D01*
X9992969Y3340252D01*
X9998049Y3337102D01*
X10001656Y3333953D01*
X10003231Y3332073D01*
X10004755Y3329838D01*
X10007447Y3324301D01*
X10009733Y3316833D01*
X10011664Y3307029D01*
X10013289Y3294430D01*
X10014610Y3278632D01*
X10015677Y3259124D01*
X10016490Y3235502D01*
X10017556Y3174085D01*
X10018014Y3090824D01*
X10018014Y2750058D01*
X10017658Y2670352D01*
X10017048Y2611882D01*
X10016032Y2571089D01*
X10015372Y2556205D01*
X10014559Y2544419D01*
X10013594Y2535326D01*
X10012527Y2528417D01*
X10011257Y2523286D01*
X10009835Y2519476D01*
X10003332Y2508250D01*
X10000284Y2504490D01*
X9998659Y2503119D01*
X9996170Y2501493D01*
X9990074Y2498852D01*
X9986568Y2497785D01*
X9978847Y2496058D01*
X9965740Y2494076D01*
X9950450Y2492552D01*
X9931247Y2491232D01*
X9907625Y2490063D01*
X9879076Y2489098D01*
X9845090Y2488285D01*
X9758781Y2487066D01*
X9644684Y2486304D01*
X9467545Y2485898D01*
X7805724Y2485745D01*
X7805724Y3348075D01*
X7776768Y3348075D01*
X7776768Y2485745D01*
X7297420Y2485999D01*
X7254544Y2486253D01*
X7218375Y2486761D01*
X7188352Y2487523D01*
X7163714Y2488590D01*
X7143902Y2489962D01*
X7128306Y2491790D01*
X7116216Y2494026D01*
X7111288Y2495346D01*
X7107021Y2496820D01*
X7103313Y2498394D01*
X7100062Y2500122D01*
X7097268Y2502001D01*
X7094778Y2504033D01*
X7092492Y2506268D01*
X7089444Y2509875D01*
X7085431Y2515362D01*
X7083958Y2518054D01*
X7082586Y2521813D01*
X7081418Y2527046D01*
X7080402Y2534208D01*
X7079488Y2543657D01*
X7078725Y2555900D01*
X7077506Y2590190D01*
X7076744Y2640482D01*
X7076287Y2710027D01*
X7075982Y2872790D01*
X7047077Y2872790D01*
X7047280Y2705557D01*
X7047687Y2631490D01*
X7048500Y2579674D01*
X7049820Y2545588D01*
X7050735Y2533853D01*
X7051802Y2524861D01*
X7053021Y2518054D01*
X7054494Y2512923D01*
X7056170Y2508859D01*
X7058101Y2505405D01*
X7061301Y2500528D01*
X7064552Y2496312D01*
X7068261Y2492044D01*
X7072274Y2487828D01*
X7076490Y2483815D01*
X7080758Y2480106D01*
X7084974Y2476855D01*
X7089698Y2473706D01*
X7092899Y2472080D01*
X7095744Y2471115D01*
X7101941Y2469743D01*
X7113473Y2468372D01*
X7124192Y2467559D01*
X7151319Y2466340D01*
X7191197Y2465324D01*
X7258964Y2464409D01*
X7435697Y2463393D01*
X7621778Y2462987D01*
X7842859Y2462784D01*
X9987483Y2462631D01*
X10006533Y2475636D01*
X10010597Y2478684D01*
X10014813Y2482291D01*
X10019030Y2486355D01*
X10023195Y2490774D01*
X10027107Y2495346D01*
X10030714Y2499969D01*
X10033812Y2504490D01*
X10036352Y2508808D01*
X10038943Y2514549D01*
X10040467Y2519324D01*
X10041737Y2525420D01*
X10042855Y2533396D01*
X10043769Y2543657D01*
X10044582Y2556814D01*
X10045242Y2573274D01*
X10046208Y2618282D01*
X10046766Y2682646D01*
X10047020Y2770428D01*
X10047071Y3309467D01*
X10031730Y3335782D01*
X10030409Y3338626D01*
X10027564Y3347212D01*
X10026243Y3350615D01*
X10025329Y3352393D01*
X10022992Y3355390D01*
X10019995Y3357829D01*
X10015270Y3360369D01*
X10007854Y3362909D01*
X9999980Y3364737D01*
X9990124Y3366414D01*
X9976256Y3368090D01*
X9959136Y3369614D01*
X9933279Y3371240D01*
X9910724Y3372256D01*
X9842703Y3374186D01*
X9767671Y3375355D01*
X9674199Y3376168D01*
X9560204Y3376726D01*
X9273336Y3377133D01*
G37*
G36*
X8100263Y3264763D02*
G01*
X8094065Y3264153D01*
X8087969Y3262884D01*
X8082127Y3260953D01*
X8076641Y3258312D01*
X8071510Y3255264D01*
X8067040Y3252012D01*
X8063128Y3248558D01*
X8059775Y3244850D01*
X8056981Y3240735D01*
X8054644Y3236163D01*
X8052765Y3231083D01*
X8051292Y3225342D01*
X8050225Y3218942D01*
X8049514Y3211779D01*
X8049107Y3203702D01*
X8049012Y3195320D01*
X8077962Y3195320D01*
X8078063Y3203905D01*
X8078470Y3211017D01*
X8079231Y3216910D01*
X8080451Y3221736D01*
X8082127Y3225749D01*
X8084362Y3229152D01*
X8087258Y3232099D01*
X8090814Y3234893D01*
X8099653Y3240938D01*
X8105241Y3243275D01*
X8110524Y3242208D01*
X8118398Y3238195D01*
X8121802Y3235909D01*
X8124799Y3232912D01*
X8127390Y3229305D01*
X8129625Y3225190D01*
X8131505Y3220618D01*
X8132978Y3215640D01*
X8134045Y3210407D01*
X8134807Y3204921D01*
X8135162Y3199282D01*
X8135112Y3193592D01*
X8134756Y3187903D01*
X8133994Y3182315D01*
X8132876Y3176879D01*
X8131403Y3171698D01*
X8129625Y3166872D01*
X8127441Y3162401D01*
X8124901Y3158439D01*
X8122056Y3154984D01*
X8118856Y3152190D01*
X8115300Y3150158D01*
X8109762Y3148126D01*
X8104581Y3147212D01*
X8099806Y3147415D01*
X8095437Y3148736D01*
X8091474Y3151073D01*
X8088020Y3154476D01*
X8085023Y3158896D01*
X8082534Y3164332D01*
X8080552Y3170682D01*
X8079130Y3177997D01*
X8078216Y3186176D01*
X8077962Y3195320D01*
X8049012Y3195320D01*
X8049107Y3185515D01*
X8049564Y3177336D01*
X8050275Y3170021D01*
X8051444Y3163570D01*
X8052968Y3157778D01*
X8054949Y3152698D01*
X8057438Y3148126D01*
X8060486Y3144062D01*
X8064093Y3140354D01*
X8068309Y3136950D01*
X8073237Y3133699D01*
X8078825Y3130600D01*
X8084667Y3128010D01*
X8090712Y3126028D01*
X8096808Y3124809D01*
X8102955Y3124250D01*
X8109102Y3124352D01*
X8115198Y3125114D01*
X8121192Y3126536D01*
X8127034Y3128619D01*
X8132673Y3131312D01*
X8138109Y3134664D01*
X8143189Y3138627D01*
X8147964Y3143199D01*
X8151926Y3147720D01*
X8155127Y3152190D01*
X8157565Y3156864D01*
X8159343Y3162147D01*
X8160613Y3168243D01*
X8161375Y3175558D01*
X8161781Y3184398D01*
X8161934Y3195066D01*
X8161832Y3205937D01*
X8161426Y3214878D01*
X8160613Y3222142D01*
X8159343Y3228187D01*
X8157413Y3233318D01*
X8154822Y3237890D01*
X8151418Y3242310D01*
X8147151Y3246882D01*
X8142274Y3251200D01*
X8136991Y3254908D01*
X8131352Y3258108D01*
X8125409Y3260648D01*
X8119262Y3262629D01*
X8112963Y3263950D01*
X8106613Y3264662D01*
G37*
G36*
X8172450Y3261867D02*
G01*
X8190382Y3180029D01*
X8195716Y3157118D01*
X8197900Y3148736D01*
X8199932Y3142183D01*
X8201863Y3137154D01*
X8203844Y3133547D01*
X8205927Y3131007D01*
X8208213Y3129483D01*
X8210854Y3128619D01*
X8213852Y3128264D01*
X8217408Y3128162D01*
X8222335Y3128365D01*
X8226298Y3129229D01*
X8229549Y3131261D01*
X8232343Y3134766D01*
X8234934Y3140252D01*
X8237575Y3148126D01*
X8240522Y3158794D01*
X8255000Y3217214D01*
X8269579Y3158845D01*
X8272576Y3148228D01*
X8275218Y3140405D01*
X8277809Y3134868D01*
X8280603Y3131312D01*
X8283803Y3129280D01*
X8287664Y3128365D01*
X8292490Y3128162D01*
X8295894Y3128264D01*
X8298789Y3128619D01*
X8301329Y3129432D01*
X8303564Y3130905D01*
X8305596Y3133191D01*
X8307527Y3136493D01*
X8309356Y3140964D01*
X8311286Y3146806D01*
X8315553Y3163366D01*
X8331352Y3231540D01*
X8335975Y3250031D01*
X8337143Y3254044D01*
X8337296Y3257092D01*
X8335264Y3259378D01*
X8331149Y3260801D01*
X8325103Y3261309D01*
X8319820Y3261055D01*
X8315604Y3260039D01*
X8312251Y3257905D01*
X8309457Y3254298D01*
X8307120Y3248863D01*
X8304987Y3241243D01*
X8302853Y3231032D01*
X8299196Y3210610D01*
X8296706Y3198977D01*
X8295487Y3194659D01*
X8294268Y3191306D01*
X8293049Y3188970D01*
X8291779Y3187598D01*
X8290509Y3187242D01*
X8289239Y3187852D01*
X8287867Y3189478D01*
X8286445Y3192068D01*
X8284921Y3195675D01*
X8281670Y3205835D01*
X8274913Y3231997D01*
X8272221Y3241497D01*
X8269782Y3248710D01*
X8267344Y3253994D01*
X8264855Y3257600D01*
X8262061Y3259836D01*
X8258860Y3260953D01*
X8255101Y3261309D01*
X8251291Y3260953D01*
X8248040Y3259734D01*
X8245195Y3257346D01*
X8242553Y3253435D01*
X8239912Y3247694D01*
X8237220Y3239820D01*
X8234172Y3229508D01*
X8218982Y3171596D01*
X8208009Y3228289D01*
X8205673Y3238601D01*
X8203488Y3246323D01*
X8201253Y3251860D01*
X8198713Y3255619D01*
X8195665Y3258007D01*
X8191957Y3259378D01*
X8187334Y3260140D01*
G37*
G36*
X7927340Y3261309D02*
G01*
X7927340Y3218230D01*
X7956346Y3218230D01*
X7956397Y3224936D01*
X7956702Y3229965D01*
X7957566Y3233572D01*
X7959191Y3235909D01*
X7961782Y3237230D01*
X7965643Y3237687D01*
X7970977Y3237585D01*
X7978038Y3237026D01*
X7989062Y3235553D01*
X7995970Y3232962D01*
X7999831Y3228441D01*
X8001711Y3221431D01*
X8002016Y3215792D01*
X8001203Y3210966D01*
X7999272Y3206902D01*
X7996224Y3203600D01*
X7992008Y3201060D01*
X7986623Y3199231D01*
X7980019Y3198114D01*
X7972247Y3197707D01*
X7963662Y3198266D01*
X7958886Y3200958D01*
X7956803Y3207156D01*
X7956346Y3218230D01*
X7927340Y3218230D01*
X7927340Y3128162D01*
X7941868Y3128162D01*
X7949590Y3128873D01*
X7953959Y3131921D01*
X7955889Y3138932D01*
X7956346Y3151327D01*
X7956346Y3158947D01*
X7956702Y3164636D01*
X7957515Y3168751D01*
X7959191Y3171545D01*
X7961833Y3173222D01*
X7965795Y3174085D01*
X7971332Y3174441D01*
X7978698Y3174492D01*
X7986623Y3174847D01*
X7993938Y3175914D01*
X8000746Y3177692D01*
X8006943Y3180130D01*
X8012480Y3183229D01*
X8017408Y3186938D01*
X8021624Y3191256D01*
X8025130Y3196132D01*
X8027924Y3201568D01*
X8029956Y3207512D01*
X8031175Y3213963D01*
X8031632Y3220872D01*
X8031429Y3226460D01*
X8030870Y3231591D01*
X8029905Y3236214D01*
X8028533Y3240379D01*
X8026653Y3244088D01*
X8024317Y3247390D01*
X8021421Y3250285D01*
X8017967Y3252774D01*
X8013903Y3254959D01*
X8009280Y3256737D01*
X8003946Y3258210D01*
X7997952Y3259378D01*
X7991246Y3260242D01*
X7983829Y3260852D01*
X7966608Y3261309D01*
G37*
G36*
X8350148Y3261309D02*
G01*
X8350148Y3128162D01*
X8414613Y3128264D01*
X8426145Y3128467D01*
X8434781Y3129026D01*
X8440877Y3129838D01*
X8444839Y3131159D01*
X8447024Y3132937D01*
X8447786Y3135274D01*
X8447532Y3138322D01*
X8446668Y3141065D01*
X8445093Y3143351D01*
X8442655Y3145231D01*
X8439200Y3146704D01*
X8434628Y3147923D01*
X8428685Y3148838D01*
X8421319Y3149600D01*
X8401558Y3150768D01*
X8393430Y3151479D01*
X8387537Y3152444D01*
X8383524Y3153918D01*
X8381034Y3156102D01*
X8379714Y3159201D01*
X8379206Y3163417D01*
X8379206Y3174492D01*
X8379663Y3178657D01*
X8380831Y3181705D01*
X8383016Y3183737D01*
X8386521Y3185007D01*
X8391652Y3185718D01*
X8423198Y3186430D01*
X8428278Y3187090D01*
X8431936Y3188055D01*
X8434476Y3189528D01*
X8436051Y3191560D01*
X8436813Y3194253D01*
X8437016Y3197606D01*
X8436813Y3201009D01*
X8436051Y3203651D01*
X8434476Y3205683D01*
X8431936Y3207156D01*
X8428278Y3208172D01*
X8423198Y3208782D01*
X8416493Y3209137D01*
X8399119Y3209290D01*
X8392210Y3209544D01*
X8387080Y3210204D01*
X8383524Y3211372D01*
X8381187Y3213100D01*
X8379866Y3215589D01*
X8379256Y3218992D01*
X8379104Y3223361D01*
X8379256Y3227781D01*
X8379968Y3231184D01*
X8381492Y3233775D01*
X8384133Y3235706D01*
X8388248Y3237026D01*
X8394090Y3237992D01*
X8402015Y3238703D01*
X8421319Y3239871D01*
X8428685Y3240582D01*
X8434628Y3241548D01*
X8439200Y3242767D01*
X8442655Y3244240D01*
X8445093Y3246120D01*
X8446668Y3248406D01*
X8447532Y3251149D01*
X8447786Y3254197D01*
X8447024Y3256534D01*
X8444839Y3258312D01*
X8440877Y3259582D01*
X8434781Y3260445D01*
X8426145Y3260953D01*
X8399780Y3261309D01*
G37*
G36*
X8460181Y3261309D02*
G01*
X8460181Y3220770D01*
X8489137Y3220770D01*
X8489696Y3230168D01*
X8492236Y3235401D01*
X8498128Y3237636D01*
X8508796Y3238144D01*
X8517483Y3237534D01*
X8524341Y3235706D01*
X8529218Y3232759D01*
X8532063Y3228746D01*
X8533231Y3223717D01*
X8532876Y3219043D01*
X8531148Y3214725D01*
X8528151Y3210966D01*
X8523986Y3207816D01*
X8518804Y3205480D01*
X8512708Y3203956D01*
X8505799Y3203397D01*
X8497011Y3203956D01*
X8491982Y3206343D01*
X8489696Y3211626D01*
X8489137Y3220770D01*
X8460181Y3220770D01*
X8460181Y3128162D01*
X8479129Y3128314D01*
X8482533Y3128873D01*
X8485073Y3130092D01*
X8486902Y3132226D01*
X8488070Y3135477D01*
X8488730Y3140049D01*
X8489086Y3146247D01*
X8489238Y3162401D01*
X8489543Y3168700D01*
X8490204Y3173323D01*
X8491474Y3176473D01*
X8493506Y3178505D01*
X8496350Y3179673D01*
X8500262Y3180130D01*
X8505342Y3180283D01*
X8512759Y3179826D01*
X8519058Y3178403D01*
X8524240Y3175965D01*
X8528405Y3172510D01*
X8531555Y3167989D01*
X8533790Y3162300D01*
X8535060Y3155391D01*
X8535974Y3137052D01*
X8538159Y3131312D01*
X8543137Y3128772D01*
X8551926Y3128162D01*
X8557310Y3128264D01*
X8561273Y3128619D01*
X8564067Y3129635D01*
X8565743Y3131566D01*
X8566454Y3134766D01*
X8566404Y3139440D01*
X8564372Y3154527D01*
X8562340Y3165246D01*
X8559647Y3175050D01*
X8556701Y3182772D01*
X8553805Y3187395D01*
X8551164Y3191052D01*
X8550706Y3194761D01*
X8552383Y3198977D01*
X8558885Y3207613D01*
X8560765Y3211779D01*
X8561933Y3216351D01*
X8562492Y3221278D01*
X8562390Y3226358D01*
X8561781Y3231540D01*
X8560562Y3236569D01*
X8558784Y3241395D01*
X8556548Y3245815D01*
X8553805Y3249777D01*
X8550605Y3253028D01*
X8546947Y3255568D01*
X8544052Y3256686D01*
X8539784Y3257753D01*
X8534450Y3258769D01*
X8521293Y3260293D01*
X8513826Y3260852D01*
X8498230Y3261309D01*
G37*
G36*
X8587587Y3261309D02*
G01*
X8587587Y3128162D01*
X8648141Y3128213D01*
X8659114Y3128467D01*
X8667242Y3129026D01*
X8673033Y3129991D01*
X8676792Y3131413D01*
X8679027Y3133445D01*
X8680043Y3136188D01*
X8680246Y3139744D01*
X8680043Y3143148D01*
X8679230Y3145840D01*
X8677554Y3147872D01*
X8674862Y3149346D01*
X8670798Y3150362D01*
X8665210Y3150971D01*
X8630158Y3151632D01*
X8624468Y3152292D01*
X8620658Y3153562D01*
X8618321Y3155645D01*
X8617102Y3158744D01*
X8616645Y3163011D01*
X8616645Y3174288D01*
X8617102Y3178556D01*
X8618270Y3181654D01*
X8620404Y3183737D01*
X8623909Y3185007D01*
X8629040Y3185718D01*
X8636152Y3186023D01*
X8653983Y3186125D01*
X8660638Y3186430D01*
X8665718Y3187090D01*
X8669426Y3188055D01*
X8671915Y3189528D01*
X8673490Y3191560D01*
X8674252Y3194253D01*
X8674455Y3197606D01*
X8674252Y3201009D01*
X8673490Y3203651D01*
X8671915Y3205683D01*
X8669426Y3207156D01*
X8665718Y3208172D01*
X8660638Y3208782D01*
X8653983Y3209137D01*
X8636508Y3209290D01*
X8629599Y3209544D01*
X8624468Y3210204D01*
X8620912Y3211372D01*
X8618575Y3213150D01*
X8617305Y3215690D01*
X8616696Y3219145D01*
X8616543Y3223666D01*
X8616696Y3228238D01*
X8617305Y3231692D01*
X8618677Y3234232D01*
X8621217Y3236010D01*
X8625128Y3237179D01*
X8630716Y3237788D01*
X8638387Y3238093D01*
X8657844Y3238195D01*
X8665210Y3238500D01*
X8670798Y3239109D01*
X8674862Y3240125D01*
X8677554Y3241598D01*
X8679230Y3243630D01*
X8680043Y3246272D01*
X8680246Y3249726D01*
X8680043Y3253232D01*
X8679027Y3255975D01*
X8676792Y3258058D01*
X8673033Y3259480D01*
X8667242Y3260445D01*
X8659114Y3260953D01*
X8633917Y3261309D01*
G37*
G36*
X8697620Y3261309D02*
G01*
X8697620Y3238144D01*
X8743797Y3238144D01*
X8751519Y3237382D01*
X8758072Y3235248D01*
X8763254Y3231743D01*
X8766962Y3226968D01*
X8769248Y3220923D01*
X8771178Y3212846D01*
X8772448Y3203752D01*
X8772956Y3194710D01*
X8772753Y3187496D01*
X8772194Y3180994D01*
X8771229Y3175152D01*
X8769908Y3170021D01*
X8768130Y3165500D01*
X8765997Y3161639D01*
X8763406Y3158439D01*
X8760409Y3155848D01*
X8756904Y3153867D01*
X8752992Y3152444D01*
X8748623Y3151581D01*
X8743797Y3151327D01*
X8726627Y3151327D01*
X8726627Y3238144D01*
X8697620Y3238144D01*
X8697620Y3128162D01*
X8743391Y3128264D01*
X8752027Y3128721D01*
X8759088Y3129584D01*
X8764981Y3131007D01*
X8770112Y3133140D01*
X8774887Y3136138D01*
X8779713Y3140049D01*
X8784945Y3145078D01*
X8789924Y3150260D01*
X8793835Y3155035D01*
X8796782Y3159760D01*
X8798966Y3164738D01*
X8800439Y3170377D01*
X8801303Y3177032D01*
X8801760Y3185058D01*
X8801912Y3194710D01*
X8801760Y3204413D01*
X8801303Y3212439D01*
X8800439Y3219043D01*
X8798966Y3224682D01*
X8796782Y3229711D01*
X8793835Y3234385D01*
X8789924Y3239160D01*
X8784945Y3244392D01*
X8779713Y3249422D01*
X8774887Y3253333D01*
X8770112Y3256330D01*
X8764981Y3258464D01*
X8759088Y3259886D01*
X8752027Y3260750D01*
X8743391Y3261156D01*
G37*
G36*
X8871407Y3261309D02*
G01*
X8871407Y3223666D01*
X8900363Y3223666D01*
X8901023Y3231083D01*
X8903512Y3235502D01*
X8908846Y3237585D01*
X8917736Y3238144D01*
X8926626Y3237585D01*
X8931910Y3235502D01*
X8934450Y3231083D01*
X8935110Y3223666D01*
X8934450Y3216249D01*
X8931910Y3211830D01*
X8926626Y3209747D01*
X8917736Y3209188D01*
X8908846Y3209747D01*
X8903512Y3211830D01*
X8901023Y3216249D01*
X8900363Y3223666D01*
X8871407Y3223666D01*
X8871407Y3169056D01*
X8900363Y3169056D01*
X8900820Y3178759D01*
X8903208Y3183839D01*
X8908846Y3185515D01*
X8919159Y3184956D01*
X8928811Y3183432D01*
X8934805Y3180486D01*
X8938158Y3175406D01*
X8939834Y3167227D01*
X8940292Y3158540D01*
X8938209Y3153765D01*
X8932265Y3151733D01*
X8920988Y3151327D01*
X8909710Y3151784D01*
X8903462Y3154019D01*
X8900871Y3159353D01*
X8900363Y3169056D01*
X8871407Y3169056D01*
X8871407Y3128162D01*
X8921597Y3128314D01*
X8930538Y3128670D01*
X8938006Y3129330D01*
X8944152Y3130296D01*
X8949182Y3131667D01*
X8953296Y3133445D01*
X8956649Y3135630D01*
X8959392Y3138322D01*
X8964320Y3144570D01*
X8968079Y3150565D01*
X8970721Y3156407D01*
X8972245Y3162046D01*
X8972600Y3167583D01*
X8971889Y3173018D01*
X8970060Y3178403D01*
X8963304Y3190748D01*
X8961526Y3197402D01*
X8961780Y3204210D01*
X8965844Y3218637D01*
X8966454Y3225647D01*
X8965996Y3232607D01*
X8964472Y3239312D01*
X8961983Y3245408D01*
X8958580Y3250692D01*
X8954414Y3254806D01*
X8949537Y3257600D01*
X8946896Y3258362D01*
X8938310Y3259683D01*
X8926423Y3260648D01*
X8912758Y3261207D01*
G37*
G36*
X8984386Y3261309D02*
G01*
X8978747Y3261004D01*
X8974124Y3260191D01*
X8970975Y3258972D01*
X8969857Y3257499D01*
X8971432Y3253181D01*
X8975801Y3244189D01*
X8982252Y3231845D01*
X8996832Y3204921D01*
X9002014Y3193694D01*
X9005874Y3183432D01*
X9008465Y3173780D01*
X9009938Y3164332D01*
X9010294Y3159556D01*
X9010446Y3146552D01*
X9010802Y3140252D01*
X9011462Y3135579D01*
X9012631Y3132277D01*
X9014409Y3130143D01*
X9017000Y3128873D01*
X9020403Y3128314D01*
X9024874Y3128162D01*
X9032544Y3128873D01*
X9036913Y3131718D01*
X9038894Y3138068D01*
X9039504Y3152749D01*
X9040012Y3156661D01*
X9041993Y3165500D01*
X9043466Y3170377D01*
X9047378Y3180994D01*
X9052560Y3192678D01*
X9058910Y3205378D01*
X9075420Y3236112D01*
X9081719Y3248456D01*
X9085224Y3256076D01*
X9085681Y3257651D01*
X9084513Y3259074D01*
X9081414Y3260242D01*
X9076791Y3261004D01*
X9071152Y3261309D01*
X9067088Y3261004D01*
X9063431Y3260090D01*
X9060078Y3258464D01*
X9056979Y3255975D01*
X9053880Y3252520D01*
X9050782Y3247999D01*
X9047480Y3242259D01*
X9038742Y3225139D01*
X9033967Y3216859D01*
X9030106Y3211271D01*
X9027769Y3209188D01*
X9025432Y3211271D01*
X9021572Y3216859D01*
X9016796Y3225139D01*
X9008059Y3242259D01*
X9004757Y3247999D01*
X9001658Y3252520D01*
X8998559Y3255975D01*
X8995410Y3258464D01*
X8992108Y3260090D01*
X8988450Y3261004D01*
G37*
G36*
X7305141Y3258616D02*
G01*
X7296353Y3258058D01*
X7283805Y3256432D01*
X7269073Y3253892D01*
X7247940Y3249523D01*
X7225792Y3244646D01*
X7209028Y3240430D01*
X7196937Y3236569D01*
X7192365Y3234639D01*
X7188708Y3232658D01*
X7185812Y3230524D01*
X7183628Y3228289D01*
X7182053Y3225901D01*
X7180935Y3223209D01*
X7180224Y3220262D01*
X7179767Y3216960D01*
X7179360Y3206750D01*
X7179259Y3195370D01*
X7179524Y3188665D01*
X7206386Y3188665D01*
X7206437Y3191002D01*
X7208520Y3191814D01*
X7211415Y3192424D01*
X7212482Y3194405D01*
X7211771Y3198012D01*
X7206437Y3209544D01*
X7206589Y3212998D01*
X7210298Y3214624D01*
X7224268Y3215436D01*
X7228230Y3216656D01*
X7229754Y3218789D01*
X7228027Y3224530D01*
X7229957Y3225952D01*
X7234936Y3226003D01*
X7250633Y3223615D01*
X7256373Y3223666D01*
X7260031Y3224834D01*
X7261352Y3227070D01*
X7262215Y3229203D01*
X7264653Y3230321D01*
X7268362Y3230422D01*
X7277608Y3228441D01*
X7281265Y3228594D01*
X7283653Y3229864D01*
X7284516Y3232150D01*
X7285126Y3234740D01*
X7287158Y3235655D01*
X7290765Y3234842D01*
X7301484Y3229813D01*
X7305040Y3229051D01*
X7307072Y3230067D01*
X7308088Y3235604D01*
X7309561Y3236518D01*
X7312152Y3235452D01*
X7316114Y3232556D01*
X7319873Y3230168D01*
X7323886Y3228746D01*
X7327696Y3228492D01*
X7333945Y3230422D01*
X7337755Y3230168D01*
X7341768Y3228746D01*
X7345578Y3226358D01*
X7348829Y3223971D01*
X7351522Y3222752D01*
X7353350Y3222650D01*
X7354011Y3223869D01*
X7354976Y3224733D01*
X7357567Y3223818D01*
X7361428Y3221278D01*
X7371181Y3213303D01*
X7375702Y3210407D01*
X7379309Y3208934D01*
X7383830Y3209391D01*
X7387183Y3207004D01*
X7391196Y3202635D01*
X7395514Y3196793D01*
X7399781Y3189884D01*
X7403744Y3182518D01*
X7406944Y3175152D01*
X7409129Y3168345D01*
X7409863Y3161995D01*
X7443114Y3161995D01*
X7443520Y3166160D01*
X7444536Y3170580D01*
X7446111Y3175457D01*
X7448245Y3180943D01*
X7451648Y3188004D01*
X7455814Y3194964D01*
X7460335Y3201416D01*
X7464856Y3207004D01*
X7469022Y3211271D01*
X7472425Y3213760D01*
X7474762Y3214116D01*
X7475626Y3211880D01*
X7476540Y3210966D01*
X7479030Y3211830D01*
X7482687Y3214166D01*
X7491679Y3221583D01*
X7495387Y3223971D01*
X7497876Y3224784D01*
X7498791Y3223869D01*
X7499400Y3222650D01*
X7501128Y3222599D01*
X7503668Y3223768D01*
X7506716Y3225952D01*
X7510525Y3228238D01*
X7514945Y3229610D01*
X7519466Y3229965D01*
X7527340Y3228441D01*
X7531100Y3228949D01*
X7534452Y3230524D01*
X7536891Y3233115D01*
X7539177Y3236264D01*
X7540955Y3237331D01*
X7542428Y3236468D01*
X7543749Y3233572D01*
X7545425Y3230727D01*
X7548067Y3229610D01*
X7551928Y3230219D01*
X7562189Y3234944D01*
X7565644Y3235655D01*
X7567625Y3234740D01*
X7568285Y3232150D01*
X7569149Y3229864D01*
X7571536Y3228594D01*
X7575194Y3228441D01*
X7584440Y3230422D01*
X7588097Y3230321D01*
X7590536Y3229203D01*
X7591450Y3227070D01*
X7592720Y3224834D01*
X7596428Y3223666D01*
X7602169Y3223615D01*
X7617866Y3226003D01*
X7622794Y3225952D01*
X7624724Y3224530D01*
X7622946Y3218789D01*
X7624267Y3216706D01*
X7627721Y3215436D01*
X7639812Y3214370D01*
X7643875Y3212185D01*
X7645908Y3208070D01*
X7646263Y3201670D01*
X7645755Y3195980D01*
X7644688Y3190392D01*
X7643317Y3185464D01*
X7641691Y3181959D01*
X7640472Y3178708D01*
X7639964Y3174695D01*
X7640218Y3170377D01*
X7642148Y3162655D01*
X7641793Y3159709D01*
X7640320Y3157829D01*
X7635290Y3156407D01*
X7633766Y3154527D01*
X7633360Y3151733D01*
X7634884Y3144418D01*
X7634122Y3140913D01*
X7632141Y3138017D01*
X7628991Y3136036D01*
X7625638Y3134258D01*
X7622946Y3131972D01*
X7621066Y3129432D01*
X7619339Y3123031D01*
X7616393Y3118104D01*
X7612075Y3112617D01*
X7606893Y3107080D01*
X7601254Y3101898D01*
X7595717Y3097631D01*
X7590739Y3094685D01*
X7586776Y3093567D01*
X7584084Y3093059D01*
X7582458Y3091789D01*
X7581950Y3089910D01*
X7582763Y3087674D01*
X7583068Y3085388D01*
X7581036Y3083560D01*
X7577124Y3082340D01*
X7565745Y3081426D01*
X7561072Y3080156D01*
X7557871Y3078327D01*
X7556703Y3076092D01*
X7556042Y3073400D01*
X7554163Y3071418D01*
X7551216Y3070148D01*
X7547305Y3069488D01*
X7542682Y3069437D01*
X7537450Y3069996D01*
X7531709Y3071012D01*
X7525715Y3072536D01*
X7519517Y3074466D01*
X7513370Y3076803D01*
X7507325Y3079445D01*
X7501585Y3082442D01*
X7496352Y3085642D01*
X7491679Y3089097D01*
X7487767Y3092704D01*
X7484770Y3096412D01*
X7482027Y3100832D01*
X7480249Y3104489D01*
X7479588Y3107740D01*
X7480249Y3110890D01*
X7482331Y3114294D01*
X7485989Y3118307D01*
X7491323Y3123285D01*
X7501991Y3132378D01*
X7510373Y3138830D01*
X7520381Y3146044D01*
X7531353Y3153562D01*
X7542733Y3161030D01*
X7553909Y3167989D01*
X7580477Y3183890D01*
X7590739Y3190494D01*
X7596479Y3194558D01*
X7597241Y3195421D01*
X7596733Y3195777D01*
X7595311Y3195675D01*
X7589926Y3193999D01*
X7581696Y3190748D01*
X7559344Y3180638D01*
X7546390Y3174390D01*
X7520279Y3160928D01*
X7508290Y3154324D01*
X7484770Y3140456D01*
X7473137Y3134055D01*
X7464298Y3129737D01*
X7461351Y3128568D01*
X7459522Y3128162D01*
X7456779Y3129483D01*
X7453477Y3133039D01*
X7450074Y3138322D01*
X7446975Y3144774D01*
X7445197Y3149498D01*
X7443927Y3153816D01*
X7443266Y3157931D01*
X7443114Y3161995D01*
X7409863Y3161995D01*
X7409992Y3160877D01*
X7408976Y3153664D01*
X7406081Y3146552D01*
X7401204Y3139389D01*
X7389774Y3125266D01*
X7369556Y3140049D01*
X7360818Y3145637D01*
X7350099Y3151886D01*
X7324902Y3165500D01*
X7298436Y3178657D01*
X7286142Y3184398D01*
X7275169Y3189224D01*
X7266127Y3192830D01*
X7259574Y3195015D01*
X7257389Y3195472D01*
X7256018Y3195472D01*
X7255560Y3194913D01*
X7256272Y3194100D01*
X7261758Y3190290D01*
X7271512Y3184245D01*
X7296861Y3169564D01*
X7307732Y3162960D01*
X7318959Y3155746D01*
X7329931Y3148228D01*
X7340142Y3140913D01*
X7348880Y3134156D01*
X7359599Y3124860D01*
X7365085Y3119678D01*
X7369048Y3115360D01*
X7371638Y3111652D01*
X7373010Y3108299D01*
X7373264Y3105099D01*
X7372502Y3101848D01*
X7370876Y3098342D01*
X7368286Y3094634D01*
X7364628Y3090976D01*
X7360005Y3087471D01*
X7354722Y3084118D01*
X7348829Y3081020D01*
X7342530Y3078175D01*
X7336028Y3075635D01*
X7329474Y3073501D01*
X7323074Y3071774D01*
X7316927Y3070555D01*
X7311288Y3069844D01*
X7306259Y3069742D01*
X7302093Y3070250D01*
X7298842Y3071418D01*
X7296810Y3073349D01*
X7296099Y3076092D01*
X7294930Y3078327D01*
X7291730Y3080156D01*
X7287006Y3081426D01*
X7275677Y3082340D01*
X7271715Y3083560D01*
X7269734Y3085388D01*
X7270038Y3087674D01*
X7270800Y3089910D01*
X7270292Y3091789D01*
X7268667Y3093059D01*
X7266025Y3093567D01*
X7262266Y3094634D01*
X7257389Y3097530D01*
X7251852Y3101746D01*
X7246213Y3106775D01*
X7240930Y3112109D01*
X7236510Y3117342D01*
X7233513Y3121964D01*
X7231583Y3127756D01*
X7229398Y3130753D01*
X7226147Y3134156D01*
X7217918Y3141116D01*
X7216140Y3143504D01*
X7216952Y3144875D01*
X7223658Y3145993D01*
X7224420Y3147974D01*
X7222540Y3151530D01*
X7213600Y3162350D01*
X7211720Y3165906D01*
X7212177Y3167989D01*
X7217816Y3169361D01*
X7218273Y3171444D01*
X7216394Y3175050D01*
X7208316Y3185007D01*
X7206386Y3188665D01*
X7179524Y3188665D01*
X7180224Y3181197D01*
X7181951Y3172460D01*
X7184847Y3163214D01*
X7189063Y3152648D01*
X7194854Y3139948D01*
X7202424Y3124250D01*
X7204760Y3120085D01*
X7207859Y3115411D01*
X7211669Y3110280D01*
X7220712Y3099511D01*
X7230872Y3089148D01*
X7236002Y3084474D01*
X7260539Y3063138D01*
X7243368Y3048660D01*
X7238288Y3044139D01*
X7233615Y3039516D01*
X7229398Y3034741D01*
X7225538Y3029813D01*
X7222032Y3024581D01*
X7218934Y3019145D01*
X7216140Y3013354D01*
X7213650Y3007207D01*
X7211466Y3000705D01*
X7209536Y2993745D01*
X7207808Y2986278D01*
X7205065Y2971952D01*
X7202863Y2964586D01*
X7234224Y2964586D01*
X7234428Y2970580D01*
X7235596Y2978505D01*
X7237679Y2987548D01*
X7239660Y2993593D01*
X7242251Y2999638D01*
X7245350Y3005632D01*
X7249007Y3011525D01*
X7253122Y3017164D01*
X7257643Y3022600D01*
X7262520Y3027680D01*
X7267702Y3032404D01*
X7273137Y3036722D01*
X7278725Y3040532D01*
X7284466Y3043783D01*
X7290308Y3046476D01*
X7298436Y3049117D01*
X7307072Y3050997D01*
X7315809Y3052114D01*
X7324039Y3052419D01*
X7331303Y3051962D01*
X7337145Y3050743D01*
X7341006Y3048762D01*
X7342428Y3046069D01*
X7341920Y3043682D01*
X7340498Y3040684D01*
X7338161Y3037230D01*
X7335113Y3033369D01*
X7331354Y3029051D01*
X7325948Y3023463D01*
X7363561Y3023463D01*
X7363917Y3026918D01*
X7364730Y3030321D01*
X7366050Y3033674D01*
X7367778Y3036925D01*
X7369962Y3040126D01*
X7372553Y3043174D01*
X7375499Y3046120D01*
X7382459Y3051505D01*
X7386370Y3053943D01*
X7390587Y3056178D01*
X7395006Y3058160D01*
X7399680Y3059938D01*
X7404506Y3061462D01*
X7409535Y3062732D01*
X7414666Y3063697D01*
X7419949Y3064357D01*
X7425283Y3064662D01*
X7430719Y3064662D01*
X7436154Y3064306D01*
X7441590Y3063544D01*
X7446975Y3062376D01*
X7452359Y3060852D01*
X7457694Y3058871D01*
X7462875Y3056432D01*
X7468717Y3053232D01*
X7473950Y3049981D01*
X7478674Y3046679D01*
X7482953Y3043224D01*
X7513167Y3043224D01*
X7514081Y3045409D01*
X7516164Y3047238D01*
X7519517Y3048812D01*
X7523632Y3049828D01*
X7528458Y3050336D01*
X7533792Y3050387D01*
X7539532Y3049930D01*
X7545527Y3049066D01*
X7551674Y3047796D01*
X7557820Y3046171D01*
X7563815Y3044139D01*
X7569504Y3041802D01*
X7574788Y3039110D01*
X7579512Y3036112D01*
X7584592Y3032302D01*
X7589316Y3028289D01*
X7593736Y3023971D01*
X7597800Y3019450D01*
X7601508Y3014726D01*
X7604912Y3009747D01*
X7607960Y3004566D01*
X7610703Y2999130D01*
X7613040Y2993542D01*
X7615072Y2987700D01*
X7616698Y2981655D01*
X7618018Y2975457D01*
X7621981Y2952902D01*
X7593482Y2968904D01*
X7584948Y2974543D01*
X7575194Y2981604D01*
X7564831Y2989630D01*
X7554417Y2998216D01*
X7544511Y3006902D01*
X7530998Y3019653D01*
X7524038Y3026664D01*
X7518908Y3032302D01*
X7515504Y3036824D01*
X7513624Y3040430D01*
X7513167Y3043224D01*
X7482953Y3043224D01*
X7486345Y3040075D01*
X7489342Y3036722D01*
X7491831Y3033420D01*
X7493762Y3030118D01*
X7495133Y3026867D01*
X7495997Y3023616D01*
X7496352Y3020466D01*
X7496200Y3017418D01*
X7495540Y3014421D01*
X7494371Y3011525D01*
X7492695Y3008731D01*
X7490561Y3006090D01*
X7487920Y3003550D01*
X7484821Y3001213D01*
X7481214Y2998978D01*
X7477201Y2996946D01*
X7472680Y2995117D01*
X7467752Y2993491D01*
X7462367Y2992018D01*
X7456525Y2990850D01*
X7450277Y2989884D01*
X7443571Y2989122D01*
X7436459Y2988665D01*
X7428941Y2988513D01*
X7419492Y2988614D01*
X7411161Y2989021D01*
X7403846Y2989732D01*
X7397445Y2990850D01*
X7391755Y2992374D01*
X7386675Y2994304D01*
X7382052Y2996692D01*
X7377734Y2999536D01*
X7373772Y3002838D01*
X7370521Y3006140D01*
X7367879Y3009595D01*
X7365949Y3012998D01*
X7364577Y3016504D01*
X7363815Y3019958D01*
X7363561Y3023463D01*
X7325948Y3023463D01*
X7316673Y3014624D01*
X7304887Y3004312D01*
X7292289Y2993999D01*
X7279436Y2984246D01*
X7267092Y2975559D01*
X7255814Y2968396D01*
X7250785Y2965551D01*
X7246315Y2963316D01*
X7242403Y2961741D01*
X7239203Y2960827D01*
X7236714Y2960725D01*
X7235139Y2961436D01*
X7234224Y2964586D01*
X7202863Y2964586D01*
X7201153Y2960014D01*
X7198512Y2954477D01*
X7195464Y2949092D01*
X7191857Y2943910D01*
X7187793Y2938881D01*
X7179208Y2929737D01*
X7175550Y2925318D01*
X7172198Y2920695D01*
X7169099Y2915920D01*
X7166305Y2910941D01*
X7163765Y2905861D01*
X7161580Y2900629D01*
X7159650Y2895295D01*
X7158075Y2889859D01*
X7156754Y2884322D01*
X7155738Y2878734D01*
X7155027Y2873095D01*
X7154559Y2863951D01*
X7181748Y2863951D01*
X7182002Y2870403D01*
X7182815Y2876651D01*
X7184339Y2882798D01*
X7186675Y2889097D01*
X7189622Y2895498D01*
X7193127Y2901746D01*
X7197039Y2907741D01*
X7201204Y2913329D01*
X7205573Y2918358D01*
X7209993Y2922727D01*
X7214362Y2926232D01*
X7218527Y2928721D01*
X7222439Y2930093D01*
X7225893Y2930194D01*
X7228331Y2929331D01*
X7230364Y2927756D01*
X7232142Y2925318D01*
X7233564Y2921965D01*
X7234783Y2917647D01*
X7235698Y2912160D01*
X7236459Y2905556D01*
X7237018Y2897632D01*
X7237171Y2891637D01*
X7237059Y2886964D01*
X7265517Y2886964D01*
X7265771Y2896616D01*
X7266279Y2901442D01*
X7268209Y2911195D01*
X7269632Y2916021D01*
X7271308Y2920796D01*
X7273290Y2925521D01*
X7278116Y2934716D01*
X7280960Y2939135D01*
X7284110Y2943402D01*
X7287564Y2947568D01*
X7291324Y2951530D01*
X7295388Y2955340D01*
X7299756Y2958947D01*
X7304430Y2962300D01*
X7309408Y2965450D01*
X7314641Y2968345D01*
X7320635Y2970987D01*
X7327036Y2973019D01*
X7333691Y2974441D01*
X7340600Y2975305D01*
X7347559Y2975660D01*
X7354519Y2975406D01*
X7361275Y2974594D01*
X7367828Y2973273D01*
X7374026Y2971444D01*
X7379716Y2969056D01*
X7384846Y2966161D01*
X7389266Y2962757D01*
X7393025Y2959049D01*
X7396378Y2955137D01*
X7399375Y2951022D01*
X7401966Y2946704D01*
X7404150Y2942285D01*
X7405979Y2937662D01*
X7407452Y2932938D01*
X7408570Y2928112D01*
X7409332Y2923235D01*
X7409789Y2918256D01*
X7409874Y2914040D01*
X7445857Y2914040D01*
X7445908Y2918968D01*
X7446314Y2923844D01*
X7447025Y2928670D01*
X7448092Y2933446D01*
X7449464Y2938119D01*
X7451191Y2942742D01*
X7453274Y2947212D01*
X7455662Y2951581D01*
X7458456Y2955798D01*
X7461656Y2959912D01*
X7466177Y2965043D01*
X7470394Y2969107D01*
X7474508Y2972206D01*
X7478826Y2974492D01*
X7483602Y2976067D01*
X7489139Y2977032D01*
X7495743Y2977540D01*
X7503668Y2977692D01*
X7509916Y2977489D01*
X7516164Y2976880D01*
X7522362Y2975914D01*
X7528356Y2974594D01*
X7534148Y2972968D01*
X7539634Y2971038D01*
X7544663Y2968802D01*
X7549235Y2966313D01*
X7553096Y2963672D01*
X7557008Y2960522D01*
X7560818Y2956915D01*
X7564577Y2952902D01*
X7568184Y2948533D01*
X7571689Y2943860D01*
X7574991Y2938983D01*
X7580985Y2928721D01*
X7585811Y2918206D01*
X7587742Y2912973D01*
X7589316Y2907893D01*
X7590485Y2902915D01*
X7591051Y2899156D01*
X7614716Y2899156D01*
X7614970Y2910586D01*
X7615834Y2919780D01*
X7616545Y2923286D01*
X7617409Y2925876D01*
X7618475Y2927553D01*
X7621574Y2929940D01*
X7624978Y2931109D01*
X7628636Y2931160D01*
X7632598Y2930042D01*
X7636916Y2927705D01*
X7641488Y2924200D01*
X7646466Y2919476D01*
X7651750Y2913583D01*
X7655255Y2908909D01*
X7658303Y2903728D01*
X7660944Y2898140D01*
X7663129Y2892196D01*
X7664907Y2885948D01*
X7666228Y2879547D01*
X7667091Y2872943D01*
X7667498Y2866288D01*
X7667498Y2859684D01*
X7666990Y2853080D01*
X7666075Y2846679D01*
X7664703Y2840431D01*
X7662875Y2834487D01*
X7660538Y2828950D01*
X7657795Y2823768D01*
X7654544Y2819095D01*
X7650886Y2814777D01*
X7647381Y2811576D01*
X7644130Y2809392D01*
X7641081Y2808376D01*
X7638186Y2808478D01*
X7635443Y2809697D01*
X7632852Y2812034D01*
X7630363Y2815590D01*
X7627924Y2820263D01*
X7625588Y2826156D01*
X7623302Y2833217D01*
X7619796Y2847086D01*
X7617663Y2859430D01*
X7616088Y2872740D01*
X7615123Y2886252D01*
X7614716Y2899156D01*
X7591051Y2899156D01*
X7591450Y2893720D01*
X7591094Y2887065D01*
X7590129Y2880614D01*
X7588503Y2874314D01*
X7586319Y2868218D01*
X7583576Y2862427D01*
X7580325Y2856941D01*
X7576616Y2851810D01*
X7572502Y2847035D01*
X7567930Y2842717D01*
X7563002Y2838805D01*
X7557770Y2835452D01*
X7552181Y2832608D01*
X7546390Y2830322D01*
X7540396Y2828594D01*
X7534148Y2827578D01*
X7527798Y2827223D01*
X7522514Y2827426D01*
X7517282Y2827985D01*
X7512253Y2828950D01*
X7507274Y2830220D01*
X7502448Y2831795D01*
X7497775Y2833725D01*
X7493253Y2835960D01*
X7488885Y2838450D01*
X7484668Y2841244D01*
X7480655Y2844241D01*
X7476794Y2847492D01*
X7469631Y2854655D01*
X7466380Y2858516D01*
X7460488Y2866796D01*
X7457846Y2871114D01*
X7453375Y2880156D01*
X7449820Y2889605D01*
X7447381Y2899308D01*
X7446568Y2904185D01*
X7446060Y2909112D01*
X7445857Y2914040D01*
X7409874Y2914040D01*
X7409637Y2908147D01*
X7409078Y2903067D01*
X7408265Y2898038D01*
X7407097Y2892958D01*
X7405674Y2887980D01*
X7403947Y2883052D01*
X7399680Y2873400D01*
X7397140Y2868777D01*
X7391349Y2859887D01*
X7388098Y2855671D01*
X7384643Y2851708D01*
X7380935Y2847898D01*
X7377023Y2844292D01*
X7372908Y2840990D01*
X7368590Y2837891D01*
X7364120Y2835097D01*
X7359446Y2832608D01*
X7354570Y2830423D01*
X7349591Y2828594D01*
X7344409Y2827070D01*
X7339126Y2825953D01*
X7333691Y2825191D01*
X7328103Y2824886D01*
X7322566Y2824988D01*
X7317282Y2825445D01*
X7312202Y2826308D01*
X7307376Y2827528D01*
X7302855Y2829052D01*
X7298537Y2830931D01*
X7294473Y2833166D01*
X7290714Y2835656D01*
X7287158Y2838399D01*
X7283907Y2841447D01*
X7280859Y2844698D01*
X7278116Y2848203D01*
X7275626Y2851912D01*
X7273442Y2855772D01*
X7271461Y2859836D01*
X7269784Y2864053D01*
X7267244Y2872892D01*
X7265822Y2882188D01*
X7265517Y2886964D01*
X7237059Y2886964D01*
X7236561Y2878480D01*
X7234783Y2864358D01*
X7232091Y2850083D01*
X7228738Y2836570D01*
X7224826Y2824530D01*
X7222794Y2819349D01*
X7220661Y2814878D01*
X7218527Y2811170D01*
X7216394Y2808376D01*
X7214311Y2806547D01*
X7211212Y2805328D01*
X7208062Y2805379D01*
X7204913Y2806547D01*
X7201712Y2808782D01*
X7198614Y2811881D01*
X7195667Y2815844D01*
X7192822Y2820466D01*
X7190231Y2825750D01*
X7187895Y2831490D01*
X7185863Y2837637D01*
X7184186Y2844038D01*
X7182916Y2850642D01*
X7182053Y2857296D01*
X7181748Y2863951D01*
X7154559Y2863951D01*
X7154773Y2856026D01*
X7155281Y2850337D01*
X7156094Y2844698D01*
X7157262Y2839059D01*
X7158736Y2833522D01*
X7160514Y2828086D01*
X7162596Y2822702D01*
X7164984Y2817418D01*
X7167727Y2812288D01*
X7172706Y2804007D01*
X7177481Y2793644D01*
X7182967Y2779776D01*
X7188453Y2764129D01*
X7219848Y2764028D01*
X7220254Y2768854D01*
X7221118Y2773476D01*
X7222540Y2777845D01*
X7224420Y2781909D01*
X7226909Y2785719D01*
X7229906Y2789224D01*
X7234732Y2793339D01*
X7239711Y2796082D01*
X7245045Y2797505D01*
X7250836Y2797505D01*
X7257288Y2796133D01*
X7264552Y2793288D01*
X7272781Y2789021D01*
X7282129Y2783332D01*
X7287463Y2779725D01*
X7297318Y2772003D01*
X7301839Y2767888D01*
X7309089Y2760319D01*
X7350404Y2760319D01*
X7350404Y2764790D01*
X7350759Y2769362D01*
X7351471Y2774035D01*
X7352487Y2778810D01*
X7353909Y2783636D01*
X7356144Y2789580D01*
X7358634Y2795117D01*
X7361478Y2800350D01*
X7364679Y2805125D01*
X7368133Y2809544D01*
X7371943Y2813608D01*
X7376109Y2817266D01*
X7380579Y2820568D01*
X7385354Y2823464D01*
X7390434Y2826004D01*
X7395819Y2828137D01*
X7401559Y2829915D01*
X7407554Y2831236D01*
X7413904Y2832252D01*
X7420559Y2832811D01*
X7427518Y2833014D01*
X7437475Y2832912D01*
X7445603Y2832404D01*
X7452309Y2831388D01*
X7458100Y2829560D01*
X7463536Y2826766D01*
X7468971Y2822803D01*
X7475016Y2817469D01*
X7482078Y2810560D01*
X7486751Y2805684D01*
X7490815Y2800858D01*
X7494422Y2796032D01*
X7497419Y2791256D01*
X7499959Y2786481D01*
X7501940Y2781706D01*
X7503414Y2776880D01*
X7504328Y2772003D01*
X7504734Y2767126D01*
X7504633Y2762199D01*
X7504023Y2757170D01*
X7502906Y2752039D01*
X7501229Y2746857D01*
X7499096Y2741574D01*
X7496403Y2736138D01*
X7493253Y2730550D01*
X7490409Y2726283D01*
X7487412Y2722270D01*
X7484211Y2718562D01*
X7480858Y2715107D01*
X7473696Y2709113D01*
X7469886Y2706573D01*
X7465974Y2704287D01*
X7457897Y2700477D01*
X7450644Y2698089D01*
X7511999Y2698089D01*
X7512202Y2702864D01*
X7512913Y2707792D01*
X7513980Y2712923D01*
X7515504Y2718206D01*
X7517384Y2723642D01*
X7519619Y2729128D01*
X7525003Y2740253D01*
X7531608Y2751328D01*
X7539228Y2762148D01*
X7547609Y2772511D01*
X7556703Y2782112D01*
X7561427Y2786532D01*
X7566253Y2790698D01*
X7576108Y2798114D01*
X7581138Y2801264D01*
X7586167Y2804007D01*
X7591196Y2806344D01*
X7596174Y2808224D01*
X7601102Y2809646D01*
X7604455Y2808782D01*
X7611211Y2806395D01*
X7614412Y2804464D01*
X7617358Y2801416D01*
X7620000Y2797352D01*
X7622387Y2792374D01*
X7624419Y2786684D01*
X7626045Y2780385D01*
X7627315Y2773629D01*
X7628128Y2766568D01*
X7628432Y2759354D01*
X7628280Y2752090D01*
X7627620Y2744927D01*
X7626350Y2738018D01*
X7624978Y2732989D01*
X7623251Y2728010D01*
X7621117Y2723184D01*
X7618628Y2718511D01*
X7615834Y2713939D01*
X7612735Y2709468D01*
X7609433Y2705201D01*
X7602016Y2697226D01*
X7593838Y2689961D01*
X7585151Y2683611D01*
X7576108Y2678226D01*
X7571486Y2675940D01*
X7566914Y2673959D01*
X7562291Y2672232D01*
X7557770Y2670810D01*
X7553299Y2669692D01*
X7548880Y2668879D01*
X7544612Y2668473D01*
X7540498Y2668371D01*
X7536535Y2668625D01*
X7532776Y2669286D01*
X7529271Y2670352D01*
X7525969Y2671775D01*
X7522921Y2673604D01*
X7520228Y2675890D01*
X7517790Y2678582D01*
X7515758Y2681732D01*
X7514081Y2685389D01*
X7512913Y2689301D01*
X7512202Y2693568D01*
X7511999Y2698089D01*
X7450644Y2698089D01*
X7445146Y2696718D01*
X7436408Y2695498D01*
X7431989Y2695194D01*
X7423200Y2695346D01*
X7414463Y2696413D01*
X7410145Y2697226D01*
X7401661Y2699562D01*
X7397546Y2700985D01*
X7389622Y2704490D01*
X7382103Y2708706D01*
X7375144Y2713634D01*
X7368895Y2719273D01*
X7366000Y2722321D01*
X7363358Y2725470D01*
X7358684Y2732328D01*
X7354925Y2739694D01*
X7353452Y2743606D01*
X7351318Y2751734D01*
X7350709Y2756001D01*
X7350404Y2760319D01*
X7309089Y2760319D01*
X7313777Y2754731D01*
X7317181Y2750058D01*
X7320280Y2745232D01*
X7323124Y2740304D01*
X7325715Y2735275D01*
X7327950Y2730093D01*
X7329931Y2724810D01*
X7331608Y2719425D01*
X7332929Y2713888D01*
X7333996Y2708300D01*
X7334910Y2701137D01*
X7335113Y2694787D01*
X7334656Y2689250D01*
X7333488Y2684526D01*
X7331608Y2680563D01*
X7328916Y2677363D01*
X7325461Y2674924D01*
X7321194Y2673146D01*
X7316063Y2672080D01*
X7310069Y2671622D01*
X7303160Y2671826D01*
X7295388Y2672638D01*
X7289850Y2673654D01*
X7284415Y2675178D01*
X7279081Y2677210D01*
X7273848Y2679700D01*
X7268718Y2682544D01*
X7263739Y2685846D01*
X7258964Y2689453D01*
X7254392Y2693416D01*
X7249972Y2697683D01*
X7245807Y2702153D01*
X7241844Y2706878D01*
X7238187Y2711805D01*
X7234783Y2716834D01*
X7231684Y2722016D01*
X7226452Y2732633D01*
X7224369Y2738018D01*
X7222642Y2743352D01*
X7221321Y2748686D01*
X7220407Y2753918D01*
X7219899Y2759049D01*
X7219848Y2764028D01*
X7188487Y2764028D01*
X7193584Y2748026D01*
X7199223Y2731617D01*
X7204964Y2716377D01*
X7209993Y2704236D01*
X7213346Y2697784D01*
X7216952Y2693009D01*
X7221981Y2687624D01*
X7228281Y2681782D01*
X7235799Y2675432D01*
X7244486Y2668625D01*
X7254240Y2661513D01*
X7264958Y2654147D01*
X7286369Y2640380D01*
X7355281Y2640380D01*
X7355941Y2643022D01*
X7357160Y2645613D01*
X7359040Y2648102D01*
X7361428Y2650439D01*
X7364323Y2652674D01*
X7367676Y2654808D01*
X7371537Y2656840D01*
X7375753Y2658719D01*
X7385253Y2662072D01*
X7395870Y2664764D01*
X7401559Y2665933D01*
X7413396Y2667660D01*
X7425690Y2668625D01*
X7438085Y2668828D01*
X7444231Y2668625D01*
X7456220Y2667508D01*
X7462062Y2666644D01*
X7467650Y2665526D01*
X7473035Y2664155D01*
X7478166Y2662529D01*
X7482941Y2660650D01*
X7487412Y2658516D01*
X7491526Y2656078D01*
X7495184Y2653334D01*
X7497927Y2650439D01*
X7499705Y2647391D01*
X7500569Y2644190D01*
X7500518Y2640888D01*
X7499451Y2637434D01*
X7497521Y2633827D01*
X7494625Y2630068D01*
X7490764Y2626156D01*
X7485989Y2622143D01*
X7480249Y2617978D01*
X7473543Y2613609D01*
X7468209Y2610662D01*
X7462520Y2608224D01*
X7456474Y2606192D01*
X7450175Y2604617D01*
X7443622Y2603449D01*
X7436967Y2602738D01*
X7430160Y2602382D01*
X7423302Y2602484D01*
X7416495Y2602992D01*
X7409688Y2603855D01*
X7403033Y2605074D01*
X7396581Y2606700D01*
X7390282Y2608681D01*
X7384338Y2611018D01*
X7378700Y2613710D01*
X7373467Y2616708D01*
X7368641Y2620060D01*
X7364374Y2623718D01*
X7360615Y2627680D01*
X7357516Y2631948D01*
X7356043Y2634843D01*
X7355331Y2637637D01*
X7355281Y2640380D01*
X7286369Y2640380D01*
X7308951Y2626918D01*
X7333488Y2613101D01*
X7374991Y2588920D01*
X7381341Y2585872D01*
X7387691Y2583434D01*
X7394295Y2581503D01*
X7401306Y2580132D01*
X7409027Y2579166D01*
X7417612Y2578658D01*
X7434478Y2578506D01*
X7446721Y2579065D01*
X7452004Y2579674D01*
X7456931Y2580538D01*
X7461554Y2581706D01*
X7466025Y2583230D01*
X7470546Y2585110D01*
X7475118Y2587396D01*
X7485227Y2593390D01*
X7496962Y2601112D01*
X7509357Y2608884D01*
X7521143Y2615844D01*
X7530947Y2621178D01*
X7539837Y2625344D01*
X7550962Y2631236D01*
X7562900Y2638247D01*
X7575194Y2646019D01*
X7587437Y2654350D01*
X7599222Y2662936D01*
X7610144Y2671470D01*
X7619796Y2679598D01*
X7627823Y2687116D01*
X7633817Y2693720D01*
X7635900Y2696565D01*
X7638592Y2701086D01*
X7641488Y2706776D01*
X7647635Y2720746D01*
X7653528Y2736596D01*
X7660843Y2760370D01*
X7663535Y2768498D01*
X7669682Y2784652D01*
X7672933Y2792171D01*
X7676184Y2799029D01*
X7679283Y2804972D01*
X7684922Y2814167D01*
X7687360Y2818790D01*
X7689443Y2823616D01*
X7691272Y2828645D01*
X7692847Y2833878D01*
X7694066Y2839212D01*
X7695031Y2844698D01*
X7695742Y2850286D01*
X7696098Y2855925D01*
X7696047Y2867456D01*
X7694777Y2878988D01*
X7693710Y2884728D01*
X7692390Y2890418D01*
X7690764Y2896006D01*
X7688834Y2901492D01*
X7686649Y2906877D01*
X7684160Y2912110D01*
X7681366Y2917190D01*
X7675118Y2926943D01*
X7668768Y2935427D01*
X7662976Y2941675D01*
X7658506Y2944876D01*
X7654950Y2947873D01*
X7651496Y2953664D01*
X7648549Y2961386D01*
X7643926Y2982569D01*
X7640320Y2994964D01*
X7638186Y3001060D01*
X7633258Y3012897D01*
X7627772Y3023819D01*
X7624825Y3028899D01*
X7621778Y3033623D01*
X7618679Y3037941D01*
X7615529Y3041853D01*
X7612329Y3045256D01*
X7609128Y3048203D01*
X7605979Y3050540D01*
X7591094Y3060293D01*
X7622082Y3090824D01*
X7629702Y3099358D01*
X7637170Y3108502D01*
X7644079Y3117850D01*
X7650073Y3126892D01*
X7654798Y3135071D01*
X7656525Y3138728D01*
X7659116Y3145028D01*
X7661452Y3151682D01*
X7663586Y3158591D01*
X7665415Y3165652D01*
X7668310Y3180029D01*
X7670088Y3193999D01*
X7670546Y3200603D01*
X7670647Y3206851D01*
X7670495Y3212642D01*
X7670038Y3217875D01*
X7669225Y3222498D01*
X7668056Y3226358D01*
X7666583Y3229457D01*
X7664754Y3231591D01*
X7662113Y3233166D01*
X7657541Y3234994D01*
X7643825Y3239465D01*
X7625486Y3244342D01*
X7604556Y3249117D01*
X7589824Y3251860D01*
X7575600Y3253841D01*
X7561884Y3255162D01*
X7548625Y3255721D01*
X7535925Y3255517D01*
X7529779Y3255213D01*
X7517942Y3253994D01*
X7506716Y3252063D01*
X7496048Y3249422D01*
X7486091Y3246120D01*
X7476794Y3242106D01*
X7472375Y3239871D01*
X7464094Y3234842D01*
X7456576Y3229152D01*
X7449820Y3222853D01*
X7443876Y3215843D01*
X7438694Y3208172D01*
X7425436Y3186023D01*
X7411466Y3207359D01*
X7405014Y3216097D01*
X7397750Y3224022D01*
X7393838Y3227628D01*
X7389723Y3231032D01*
X7385405Y3234232D01*
X7380884Y3237230D01*
X7376210Y3239973D01*
X7366253Y3244799D01*
X7361072Y3246831D01*
X7350099Y3250285D01*
X7344359Y3251657D01*
X7307681Y3258362D01*
G37*
G36*
X8703411Y3058718D02*
G01*
X8703411Y2886710D01*
X8755583Y2886710D01*
X8755684Y2895904D01*
X8756650Y2912313D01*
X8757462Y2919272D01*
X8758478Y2925267D01*
X8759698Y2930144D01*
X8761018Y2933750D01*
X8762492Y2936036D01*
X8766708Y2939034D01*
X8772144Y2941116D01*
X8778392Y2942386D01*
X8785047Y2942742D01*
X8791600Y2942285D01*
X8797645Y2940964D01*
X8802776Y2938780D01*
X8806434Y2935732D01*
X8808669Y2932430D01*
X8810701Y2928213D01*
X8812530Y2923133D01*
X8814155Y2917444D01*
X8815527Y2911195D01*
X8816644Y2904591D01*
X8817457Y2897682D01*
X8818016Y2890723D01*
X8818219Y2883763D01*
X8818067Y2877007D01*
X8817559Y2870555D01*
X8816695Y2864561D01*
X8815222Y2858516D01*
X8813139Y2853029D01*
X8810498Y2848203D01*
X8807399Y2844038D01*
X8803843Y2840583D01*
X8799880Y2837840D01*
X8795512Y2835808D01*
X8790889Y2834589D01*
X8785961Y2834132D01*
X8780830Y2834487D01*
X8775496Y2835656D01*
X8770061Y2837738D01*
X8765540Y2840024D01*
X8762085Y2842412D01*
X8759494Y2845511D01*
X8757716Y2849676D01*
X8756599Y2855468D01*
X8755938Y2863240D01*
X8755634Y2873502D01*
X8755583Y2886710D01*
X8703411Y2886710D01*
X8703411Y2798267D01*
X8726627Y2798267D01*
X8737701Y2798775D01*
X8744813Y2800350D01*
X8748623Y2803296D01*
X8749792Y2807868D01*
X8750046Y2812846D01*
X8751366Y2814523D01*
X8754516Y2812897D01*
X8764574Y2804515D01*
X8769197Y2801569D01*
X8774074Y2799181D01*
X8779205Y2797251D01*
X8784488Y2795879D01*
X8789974Y2794914D01*
X8795512Y2794508D01*
X8801150Y2794508D01*
X8806840Y2795016D01*
X8812428Y2795981D01*
X8818016Y2797352D01*
X8823452Y2799181D01*
X8828735Y2801416D01*
X8833815Y2804058D01*
X8838641Y2807157D01*
X8843213Y2810611D01*
X8847429Y2814421D01*
X8851239Y2818688D01*
X8854694Y2823260D01*
X8857640Y2828239D01*
X8859621Y2832404D01*
X8861348Y2837180D01*
X8862923Y2842412D01*
X8865412Y2854147D01*
X8867089Y2867152D01*
X8867952Y2880817D01*
X8867952Y2894787D01*
X8867698Y2901696D01*
X8866479Y2915056D01*
X8864447Y2927451D01*
X8863126Y2933090D01*
X8861602Y2938322D01*
X8859875Y2943047D01*
X8857945Y2947212D01*
X8855151Y2951988D01*
X8851950Y2956458D01*
X8848445Y2960624D01*
X8844584Y2964484D01*
X8840470Y2967990D01*
X8836152Y2971190D01*
X8831580Y2973984D01*
X8826804Y2976473D01*
X8821928Y2978556D01*
X8816949Y2980283D01*
X8811869Y2981655D01*
X8806738Y2982569D01*
X8801658Y2983128D01*
X8796528Y2983230D01*
X8791498Y2982925D01*
X8786571Y2982163D01*
X8781745Y2980944D01*
X8777122Y2979267D01*
X8772652Y2977083D01*
X8768435Y2974492D01*
X8755583Y2965450D01*
X8755583Y3058718D01*
G37*
G36*
X9836048Y3058718D02*
G01*
X9820808Y3058414D01*
X9816084Y3057652D01*
X9812934Y3056128D01*
X9811004Y3053689D01*
X9810038Y3050032D01*
X9809683Y3044952D01*
X9809632Y3017570D01*
X9841941Y3019958D01*
X9847884Y3020771D01*
X9852304Y3021939D01*
X9855504Y3023616D01*
X9857638Y3026105D01*
X9859060Y3029508D01*
X9859975Y3034030D01*
X9861194Y3046120D01*
X9861296Y3050743D01*
X9860635Y3054096D01*
X9858908Y3056331D01*
X9855911Y3057702D01*
X9851288Y3058414D01*
G37*
G36*
X7927340Y3041345D02*
G01*
X7927340Y3000857D01*
X8019897Y3000756D01*
X8027263Y3000349D01*
X8033308Y2999587D01*
X8038236Y2998419D01*
X8042300Y2996742D01*
X8045754Y2994456D01*
X8048752Y2991612D01*
X8051546Y2988005D01*
X8055102Y2982417D01*
X8057794Y2977083D01*
X8059572Y2972054D01*
X8060588Y2967278D01*
X8060690Y2962757D01*
X8060029Y2958592D01*
X8058556Y2954731D01*
X8056270Y2951226D01*
X8053222Y2948076D01*
X8049361Y2945282D01*
X8044789Y2942844D01*
X8039455Y2940862D01*
X8033410Y2939288D01*
X8026603Y2938119D01*
X8019135Y2937408D01*
X8010906Y2937205D01*
X7979511Y2937205D01*
X7979511Y3000857D01*
X7927340Y3000857D01*
X7927340Y2798267D01*
X7979511Y2798267D01*
X7979511Y2898089D01*
X8019237Y2894685D01*
X8025587Y2893822D01*
X8031327Y2892755D01*
X8036407Y2891434D01*
X8040878Y2889808D01*
X8044840Y2887878D01*
X8048244Y2885592D01*
X8051190Y2882950D01*
X8053628Y2879902D01*
X8055660Y2876346D01*
X8057286Y2872384D01*
X8058556Y2867863D01*
X8059470Y2862783D01*
X8060131Y2857144D01*
X8060588Y2843936D01*
X8060639Y2834233D01*
X8060944Y2826004D01*
X8061553Y2819146D01*
X8062518Y2813507D01*
X8064042Y2808935D01*
X8066125Y2805379D01*
X8068868Y2802737D01*
X8072424Y2800807D01*
X8076793Y2799537D01*
X8082178Y2798775D01*
X8088579Y2798368D01*
X8104936Y2798368D01*
X8111591Y2798572D01*
X8116366Y2799080D01*
X8119414Y2799994D01*
X8120938Y2801366D01*
X8121243Y2803347D01*
X8120380Y2806039D01*
X8117484Y2812288D01*
X8116366Y2815945D01*
X8114436Y2825242D01*
X8113166Y2836113D01*
X8112455Y2855264D01*
X8111693Y2862834D01*
X8110474Y2870098D01*
X8108797Y2876956D01*
X8106765Y2883357D01*
X8104276Y2889300D01*
X8101431Y2894685D01*
X8098281Y2899460D01*
X8094776Y2903575D01*
X8091017Y2907030D01*
X8087004Y2909671D01*
X8082737Y2911449D01*
X8075726Y2913938D01*
X8073644Y2916021D01*
X8076793Y2918866D01*
X8085378Y2923540D01*
X8088934Y2925724D01*
X8092338Y2928416D01*
X8095488Y2931668D01*
X8098434Y2935325D01*
X8101126Y2939440D01*
X8103565Y2943961D01*
X8105648Y2948838D01*
X8107425Y2954070D01*
X8109305Y2960725D01*
X8110524Y2966516D01*
X8111134Y2971647D01*
X8111032Y2976524D01*
X8110220Y2981401D01*
X8108696Y2986532D01*
X8106409Y2992221D01*
X8100771Y3003753D01*
X8098078Y3008325D01*
X8095234Y3012490D01*
X8092236Y3016351D01*
X8088985Y3019856D01*
X8085480Y3023057D01*
X8081670Y3025952D01*
X8077555Y3028543D01*
X8073034Y3030829D01*
X8068157Y3032861D01*
X8062823Y3034639D01*
X8057032Y3036214D01*
X8050733Y3037535D01*
X8036458Y3039516D01*
X8028482Y3040227D01*
X8010448Y3041091D01*
X7989620Y3041345D01*
G37*
G36*
X9589566Y3041345D02*
G01*
X9589566Y3001416D01*
X9641687Y3001416D01*
X9688880Y2999079D01*
X9697618Y2998317D01*
X9704324Y2997250D01*
X9709454Y2995726D01*
X9713417Y2993593D01*
X9716465Y2990646D01*
X9719106Y2986836D01*
X9721596Y2981960D01*
X9724186Y2975864D01*
X9725914Y2970022D01*
X9726828Y2964434D01*
X9726980Y2959150D01*
X9726320Y2954172D01*
X9724948Y2949549D01*
X9722815Y2945282D01*
X9719970Y2941370D01*
X9716414Y2937814D01*
X9712147Y2934716D01*
X9707219Y2932023D01*
X9701631Y2929737D01*
X9695434Y2927959D01*
X9688576Y2926689D01*
X9681159Y2925876D01*
X9673132Y2925622D01*
X9641687Y2925622D01*
X9641687Y3001416D01*
X9589566Y3001416D01*
X9589566Y2798267D01*
X9641687Y2798267D01*
X9641687Y2883560D01*
X9692538Y2886964D01*
X9707016Y2888792D01*
X9720021Y2891485D01*
X9726015Y2893161D01*
X9731654Y2895041D01*
X9736937Y2897174D01*
X9741865Y2899511D01*
X9746488Y2902102D01*
X9750755Y2904896D01*
X9754666Y2907893D01*
X9758273Y2911144D01*
X9761524Y2914650D01*
X9764471Y2918409D01*
X9767112Y2922371D01*
X9769398Y2926588D01*
X9771380Y2931058D01*
X9773056Y2935782D01*
X9774428Y2940761D01*
X9775494Y2945993D01*
X9776206Y2951480D01*
X9776663Y2957220D01*
X9776815Y2963214D01*
X9776561Y2970428D01*
X9775748Y2977286D01*
X9774478Y2983839D01*
X9772650Y2990088D01*
X9770262Y2996031D01*
X9767366Y3001721D01*
X9763912Y3007106D01*
X9759899Y3012186D01*
X9755327Y3017062D01*
X9750247Y3021634D01*
X9744608Y3025952D01*
X9738360Y3030067D01*
X9734499Y3032252D01*
X9730587Y3034131D01*
X9726422Y3035757D01*
X9721900Y3037128D01*
X9716871Y3038297D01*
X9711131Y3039211D01*
X9697110Y3040481D01*
X9678720Y3041142D01*
X9654692Y3041345D01*
G37*
G36*
X8604605Y2983534D02*
G01*
X8599220Y2983382D01*
X8593937Y2982671D01*
X8588654Y2981452D01*
X8583523Y2979724D01*
X8578494Y2977438D01*
X8566251Y2970123D01*
X8561679Y2968599D01*
X8558885Y2970123D01*
X8556650Y2974594D01*
X8553805Y2978404D01*
X8548776Y2981198D01*
X8541715Y2982925D01*
X8532774Y2983484D01*
X8512302Y2983484D01*
X8512302Y2887878D01*
X8558072Y2887878D01*
X8558123Y2895193D01*
X8558479Y2902356D01*
X8559190Y2909214D01*
X8560206Y2915666D01*
X8561578Y2921457D01*
X8563305Y2926537D01*
X8565337Y2930753D01*
X8567724Y2933903D01*
X8573008Y2938068D01*
X8578900Y2940913D01*
X8585149Y2942386D01*
X8591499Y2942539D01*
X8597747Y2941320D01*
X8603640Y2938881D01*
X8608872Y2935122D01*
X8613343Y2930093D01*
X8615527Y2926384D01*
X8617407Y2921863D01*
X8618982Y2916732D01*
X8620252Y2911094D01*
X8621268Y2904998D01*
X8621979Y2898648D01*
X8622487Y2885440D01*
X8622284Y2878836D01*
X8621776Y2872435D01*
X8621014Y2866288D01*
X8619947Y2860497D01*
X8618575Y2855264D01*
X8616950Y2850591D01*
X8615019Y2846679D01*
X8612784Y2843580D01*
X8608060Y2839262D01*
X8602878Y2836113D01*
X8597442Y2834182D01*
X8591753Y2833471D01*
X8585962Y2833928D01*
X8580221Y2835605D01*
X8574633Y2838500D01*
X8569248Y2842615D01*
X8566759Y2845562D01*
X8564575Y2849626D01*
X8562695Y2854604D01*
X8561120Y2860344D01*
X8559901Y2866644D01*
X8558936Y2873502D01*
X8558377Y2880614D01*
X8558072Y2887878D01*
X8512302Y2887878D01*
X8512302Y2728823D01*
X8558631Y2728823D01*
X8558631Y2810154D01*
X8576919Y2800705D01*
X8581898Y2798368D01*
X8586927Y2796540D01*
X8592007Y2795117D01*
X8597087Y2794152D01*
X8602218Y2793593D01*
X8607247Y2793492D01*
X8612276Y2793847D01*
X8617254Y2794609D01*
X8622182Y2795778D01*
X8626957Y2797352D01*
X8631682Y2799334D01*
X8636254Y2801670D01*
X8640673Y2804464D01*
X8644991Y2807614D01*
X8649106Y2811119D01*
X8653018Y2815031D01*
X8656726Y2819298D01*
X8660180Y2823870D01*
X8663432Y2828848D01*
X8666378Y2834182D01*
X8668207Y2838399D01*
X8669782Y2843428D01*
X8671153Y2849219D01*
X8672220Y2855569D01*
X8673084Y2862478D01*
X8674100Y2877261D01*
X8674100Y2892755D01*
X8673744Y2900476D01*
X8673134Y2907995D01*
X8672271Y2915259D01*
X8671204Y2922117D01*
X8669883Y2928518D01*
X8668308Y2934258D01*
X8666480Y2939288D01*
X8663838Y2944977D01*
X8660790Y2950362D01*
X8657336Y2955340D01*
X8653627Y2959963D01*
X8649563Y2964230D01*
X8645245Y2968091D01*
X8640673Y2971546D01*
X8635898Y2974594D01*
X8630920Y2977235D01*
X8625840Y2979420D01*
X8620607Y2981147D01*
X8615324Y2982417D01*
X8609990Y2983230D01*
G37*
G36*
X9079890Y2983484D02*
G01*
X9079890Y2798267D01*
X9132011Y2798267D01*
X9132062Y2872841D01*
X9132519Y2893110D01*
X9133586Y2908655D01*
X9134500Y2914853D01*
X9135618Y2920085D01*
X9137040Y2924505D01*
X9138767Y2928061D01*
X9140850Y2930956D01*
X9143288Y2933141D01*
X9146133Y2934817D01*
X9149384Y2935986D01*
X9153144Y2936697D01*
X9157360Y2937103D01*
X9167164Y2937306D01*
X9171025Y2937764D01*
X9173870Y2938830D01*
X9175902Y2940710D01*
X9177172Y2943555D01*
X9177934Y2947670D01*
X9178290Y2953156D01*
X9178340Y2960319D01*
X9177883Y2972358D01*
X9176105Y2979420D01*
X9172244Y2982671D01*
X9165691Y2983484D01*
X9159697Y2982518D01*
X9152788Y2979775D01*
X9145828Y2975813D01*
X9139631Y2970885D01*
X9126220Y2958338D01*
X9126220Y2970885D01*
X9125407Y2977438D01*
X9122105Y2981248D01*
X9115094Y2983026D01*
X9103055Y2983484D01*
G37*
G36*
X9201505Y2983484D02*
G01*
X9201505Y2798267D01*
X9247835Y2798267D01*
X9247936Y2870606D01*
X9248495Y2890875D01*
X9249105Y2899257D01*
X9249918Y2906674D01*
X9251035Y2913024D01*
X9252407Y2918510D01*
X9254134Y2923133D01*
X9256217Y2926943D01*
X9258655Y2930042D01*
X9261500Y2932531D01*
X9264802Y2934360D01*
X9268612Y2935681D01*
X9272879Y2936595D01*
X9277654Y2937052D01*
X9288322Y2937306D01*
X9292386Y2937764D01*
X9295384Y2938780D01*
X9297466Y2940608D01*
X9298787Y2943453D01*
X9299549Y2947568D01*
X9299905Y2953105D01*
X9299956Y2960319D01*
X9299549Y2972765D01*
X9297619Y2979724D01*
X9293250Y2982823D01*
X9285478Y2983484D01*
X9278975Y2982620D01*
X9272016Y2980232D01*
X9265412Y2976727D01*
X9259976Y2972460D01*
X9253626Y2966364D01*
X9249968Y2964281D01*
X9247886Y2966364D01*
X9246006Y2972460D01*
X9243618Y2977692D01*
X9239199Y2981096D01*
X9232290Y2982925D01*
X9222333Y2983484D01*
G37*
G36*
X9427921Y2983484D02*
G01*
X9409074Y2920949D01*
X9402978Y2902356D01*
X9397796Y2888234D01*
X9395764Y2883408D01*
X9394190Y2880360D01*
X9393174Y2879293D01*
X9392158Y2880360D01*
X9390684Y2883306D01*
X9386417Y2894177D01*
X9381032Y2910281D01*
X9375038Y2929940D01*
X9360408Y2980588D01*
X9333077Y2982366D01*
X9322460Y2982772D01*
X9313773Y2982671D01*
X9307931Y2982010D01*
X9305747Y2980944D01*
X9308287Y2972663D01*
X9315145Y2952546D01*
X9353854Y2842971D01*
X9359138Y2826512D01*
X9362744Y2813608D01*
X9364878Y2803550D01*
X9365437Y2799435D01*
X9365691Y2795778D01*
X9365640Y2792526D01*
X9365335Y2789631D01*
X9363913Y2784500D01*
X9360306Y2777490D01*
X9355226Y2772054D01*
X9348673Y2768092D01*
X9340596Y2765602D01*
X9331706Y2763164D01*
X9326372Y2759659D01*
X9323832Y2754020D01*
X9323120Y2745282D01*
X9323781Y2738120D01*
X9325711Y2732125D01*
X9328658Y2727553D01*
X9332468Y2724912D01*
X9336735Y2723794D01*
X9341612Y2723337D01*
X9346996Y2723540D01*
X9352686Y2724353D01*
X9358630Y2725724D01*
X9364573Y2727553D01*
X9370466Y2729839D01*
X9376156Y2732532D01*
X9381439Y2735580D01*
X9386214Y2738932D01*
X9390329Y2742488D01*
X9393631Y2746248D01*
X9395510Y2749600D01*
X9398355Y2755544D01*
X9406229Y2774086D01*
X9416389Y2799638D01*
X9427972Y2829814D01*
X9443161Y2870555D01*
X9454845Y2902712D01*
X9465157Y2931972D01*
X9473285Y2956001D01*
X9476232Y2965297D01*
X9479381Y2977134D01*
X9479534Y2978454D01*
X9477451Y2980436D01*
X9471914Y2982010D01*
X9463735Y2983077D01*
X9453727Y2983484D01*
G37*
G36*
X9809632Y2983484D02*
G01*
X9809632Y2798267D01*
X9861753Y2798267D01*
X9861753Y2983484D01*
G37*
G36*
X8402218Y2983230D02*
G01*
X8395716Y2982925D01*
X8389162Y2982214D01*
X8382660Y2981045D01*
X8376208Y2979521D01*
X8369858Y2977489D01*
X8363661Y2975051D01*
X8358428Y2972562D01*
X8353755Y2969818D01*
X8349589Y2966821D01*
X8345881Y2963519D01*
X8342731Y2959912D01*
X8339988Y2956001D01*
X8337702Y2951683D01*
X8335924Y2947009D01*
X8334502Y2941929D01*
X8333536Y2936392D01*
X8332978Y2930448D01*
X8332774Y2923997D01*
X8333079Y2917952D01*
X8333943Y2912414D01*
X8335518Y2907334D01*
X8337753Y2902661D01*
X8340801Y2898343D01*
X8344662Y2894380D01*
X8349386Y2890672D01*
X8355075Y2887167D01*
X8361730Y2883814D01*
X8369452Y2880614D01*
X8378240Y2877464D01*
X8397443Y2871368D01*
X8405520Y2868320D01*
X8412530Y2865221D01*
X8418372Y2861970D01*
X8423097Y2858719D01*
X8426653Y2855417D01*
X8429040Y2852064D01*
X8430209Y2848711D01*
X8430209Y2845409D01*
X8428990Y2842056D01*
X8426551Y2838805D01*
X8422894Y2835554D01*
X8417255Y2831795D01*
X8412073Y2829255D01*
X8407196Y2827985D01*
X8402472Y2827985D01*
X8397697Y2829356D01*
X8392718Y2832100D01*
X8387384Y2836214D01*
X8376412Y2846120D01*
X8370824Y2849778D01*
X8364880Y2852724D01*
X8358835Y2854858D01*
X8352840Y2856280D01*
X8347049Y2856941D01*
X8341664Y2856788D01*
X8336838Y2855874D01*
X8332825Y2854147D01*
X8329675Y2851607D01*
X8327694Y2848305D01*
X8326983Y2844139D01*
X8327593Y2839059D01*
X8329320Y2833878D01*
X8332063Y2828645D01*
X8335772Y2823565D01*
X8340293Y2818587D01*
X8345525Y2813862D01*
X8351418Y2809443D01*
X8357819Y2805480D01*
X8364626Y2801975D01*
X8371789Y2799080D01*
X8379155Y2796794D01*
X8386622Y2795270D01*
X8394090Y2794355D01*
X8401405Y2793847D01*
X8408517Y2793796D01*
X8415375Y2794152D01*
X8422030Y2794914D01*
X8428431Y2796032D01*
X8434527Y2797606D01*
X8440369Y2799537D01*
X8445906Y2801874D01*
X8451088Y2804566D01*
X8455964Y2807614D01*
X8460435Y2811068D01*
X8464550Y2814828D01*
X8468309Y2818993D01*
X8471611Y2823464D01*
X8474506Y2828239D01*
X8480602Y2840532D01*
X8482177Y2845155D01*
X8482838Y2849321D01*
X8482584Y2853436D01*
X8481415Y2857855D01*
X8479383Y2862986D01*
X8476488Y2869285D01*
X8473998Y2874111D01*
X8471255Y2878378D01*
X8468258Y2882290D01*
X8464753Y2885846D01*
X8460740Y2889046D01*
X8456117Y2892044D01*
X8450732Y2894888D01*
X8444534Y2897530D01*
X8437372Y2900172D01*
X8429193Y2902813D01*
X8409228Y2908300D01*
X8399983Y2911094D01*
X8392464Y2914243D01*
X8386724Y2917799D01*
X8382762Y2921711D01*
X8380577Y2925876D01*
X8380171Y2930398D01*
X8381644Y2935173D01*
X8384946Y2940151D01*
X8389010Y2944063D01*
X8393633Y2946704D01*
X8398560Y2948127D01*
X8403793Y2948330D01*
X8409076Y2947314D01*
X8414258Y2945130D01*
X8419236Y2941726D01*
X8427567Y2933801D01*
X8432241Y2930956D01*
X8437575Y2928620D01*
X8443366Y2926892D01*
X8449411Y2925724D01*
X8455456Y2925165D01*
X8461197Y2925165D01*
X8466429Y2925826D01*
X8470950Y2927096D01*
X8474456Y2928975D01*
X8476742Y2931515D01*
X8477554Y2934665D01*
X8477250Y2939440D01*
X8476284Y2944063D01*
X8474710Y2948432D01*
X8472525Y2952648D01*
X8469884Y2956661D01*
X8466683Y2960420D01*
X8463026Y2963926D01*
X8458962Y2967177D01*
X8454491Y2970174D01*
X8449665Y2972917D01*
X8444534Y2975356D01*
X8439099Y2977489D01*
X8433358Y2979318D01*
X8427466Y2980791D01*
X8421319Y2981960D01*
X8415070Y2982722D01*
X8408670Y2983179D01*
G37*
G36*
X8972550Y2982925D02*
G01*
X8965438Y2982722D01*
X8958529Y2982010D01*
X8951823Y2980893D01*
X8945524Y2979267D01*
X8939580Y2977235D01*
X8934196Y2974644D01*
X8929878Y2972104D01*
X8925763Y2969158D01*
X8921851Y2965907D01*
X8918194Y2962351D01*
X8914739Y2958541D01*
X8911539Y2954426D01*
X8908542Y2950108D01*
X8905798Y2945536D01*
X8901023Y2935833D01*
X8897162Y2925470D01*
X8895492Y2919476D01*
X8946235Y2919476D01*
X8947099Y2922473D01*
X8949029Y2925927D01*
X8951925Y2929686D01*
X8955786Y2933903D01*
X8960764Y2938018D01*
X8965946Y2940812D01*
X8971229Y2942285D01*
X8976563Y2942437D01*
X8981744Y2941320D01*
X8986723Y2938881D01*
X8991396Y2935122D01*
X8995562Y2930093D01*
X8999931Y2923590D01*
X9002623Y2918460D01*
X9003538Y2914650D01*
X9002522Y2911906D01*
X8999372Y2910027D01*
X8993936Y2908909D01*
X8986062Y2908401D01*
X8975648Y2908249D01*
X8968384Y2908401D01*
X8962136Y2908960D01*
X8956954Y2909773D01*
X8952788Y2910992D01*
X8949639Y2912567D01*
X8947505Y2914497D01*
X8946337Y2916783D01*
X8946235Y2919476D01*
X8895492Y2919476D01*
X8893251Y2909011D01*
X8891879Y2897733D01*
X8891524Y2886303D01*
X8891727Y2880614D01*
X8892997Y2869336D01*
X8894013Y2863850D01*
X8895283Y2858414D01*
X8896858Y2853080D01*
X8898686Y2847898D01*
X8900769Y2842869D01*
X8903157Y2837992D01*
X8905849Y2833319D01*
X8908796Y2828848D01*
X8912047Y2824632D01*
X8915552Y2820670D01*
X8920022Y2816301D01*
X8924645Y2812338D01*
X8929370Y2808732D01*
X8934246Y2805582D01*
X8939326Y2802788D01*
X8944559Y2800400D01*
X8949944Y2798368D01*
X8955532Y2796794D01*
X8961323Y2795574D01*
X8967266Y2794711D01*
X8973413Y2794254D01*
X8979763Y2794203D01*
X8986367Y2794508D01*
X8993124Y2795219D01*
X9000185Y2796286D01*
X9015730Y2799689D01*
X9022791Y2801569D01*
X9028734Y2803398D01*
X9033611Y2805277D01*
X9037421Y2807309D01*
X9040368Y2809544D01*
X9042450Y2812034D01*
X9043720Y2814878D01*
X9044279Y2818130D01*
X9044228Y2821889D01*
X9043619Y2826156D01*
X9042552Y2831033D01*
X9040164Y2838246D01*
X9037066Y2842158D01*
X9032595Y2843276D01*
X9026042Y2842006D01*
X9017304Y2839516D01*
X9001861Y2835960D01*
X8995105Y2834944D01*
X8989009Y2834335D01*
X8983370Y2834284D01*
X8978290Y2834640D01*
X8973667Y2835554D01*
X8969451Y2836926D01*
X8965641Y2838754D01*
X8962136Y2841091D01*
X8958935Y2843936D01*
X8951315Y2852166D01*
X8948724Y2855671D01*
X8946896Y2858770D01*
X8945930Y2861564D01*
X8945829Y2863951D01*
X8946642Y2866034D01*
X8948369Y2867812D01*
X8951061Y2869336D01*
X8954719Y2870555D01*
X8959392Y2871571D01*
X8965133Y2872333D01*
X8971889Y2872892D01*
X8988704Y2873451D01*
X9050934Y2873552D01*
X9050782Y2906725D01*
X9050274Y2913075D01*
X9049512Y2919222D01*
X9048394Y2925165D01*
X9046972Y2930855D01*
X9045295Y2936290D01*
X9043314Y2941472D01*
X9041028Y2946400D01*
X9038488Y2951022D01*
X9035694Y2955340D01*
X9032595Y2959354D01*
X9029242Y2963011D01*
X9025636Y2966415D01*
X9021826Y2969412D01*
X9017711Y2972054D01*
X9013393Y2974340D01*
X9007246Y2976930D01*
X9000693Y2979064D01*
X8993886Y2980740D01*
X8986875Y2981909D01*
X8979712Y2982620D01*
G37*
G36*
X8226704Y2981909D02*
G01*
X8219643Y2981858D01*
X8212734Y2981502D01*
X8206079Y2980893D01*
X8199831Y2979928D01*
X8194040Y2978708D01*
X8188858Y2977235D01*
X8184388Y2975508D01*
X8177428Y2971800D01*
X8170722Y2967126D01*
X8164525Y2961792D01*
X8158937Y2955950D01*
X8154212Y2949956D01*
X8150606Y2943961D01*
X8148269Y2938221D01*
X8147456Y2932988D01*
X8148421Y2930448D01*
X8151164Y2928366D01*
X8155330Y2926842D01*
X8160562Y2925826D01*
X8166557Y2925267D01*
X8172958Y2925267D01*
X8179460Y2925673D01*
X8185759Y2926588D01*
X8191449Y2927959D01*
X8196224Y2929737D01*
X8199780Y2931972D01*
X8204453Y2938627D01*
X8208975Y2941066D01*
X8215528Y2942183D01*
X8224164Y2941878D01*
X8233816Y2940354D01*
X8239810Y2937459D01*
X8243163Y2932328D01*
X8244840Y2924149D01*
X8245297Y2915564D01*
X8243366Y2910738D01*
X8237778Y2908706D01*
X8219846Y2908096D01*
X8212581Y2907538D01*
X8205571Y2906725D01*
X8198815Y2905506D01*
X8192414Y2904032D01*
X8186318Y2902204D01*
X8180527Y2900121D01*
X8175091Y2897733D01*
X8170011Y2895041D01*
X8165338Y2892094D01*
X8161020Y2888894D01*
X8157057Y2885440D01*
X8153552Y2881731D01*
X8150504Y2877769D01*
X8147862Y2873603D01*
X8145627Y2869234D01*
X8143900Y2864612D01*
X8142681Y2859836D01*
X8141919Y2854858D01*
X8141832Y2853080D01*
X8195564Y2853080D01*
X8196173Y2857550D01*
X8197545Y2861919D01*
X8199780Y2865932D01*
X8202777Y2869438D01*
X8206587Y2872232D01*
X8211159Y2874162D01*
X8221014Y2876702D01*
X8228888Y2878226D01*
X8234984Y2878734D01*
X8239506Y2878023D01*
X8242604Y2876092D01*
X8244586Y2872841D01*
X8245602Y2868218D01*
X8245906Y2862173D01*
X8245195Y2855315D01*
X8243163Y2849270D01*
X8239912Y2844088D01*
X8235543Y2839821D01*
X8230209Y2836621D01*
X8223961Y2834538D01*
X8217001Y2833674D01*
X8209381Y2834081D01*
X8204962Y2835351D01*
X8201406Y2837637D01*
X8198662Y2840736D01*
X8196783Y2844495D01*
X8195767Y2848660D01*
X8195564Y2853080D01*
X8141832Y2853080D01*
X8141665Y2849676D01*
X8141868Y2844190D01*
X8142528Y2838907D01*
X8143595Y2833827D01*
X8145119Y2829001D01*
X8146999Y2824429D01*
X8149285Y2820111D01*
X8151926Y2816098D01*
X8154974Y2812389D01*
X8158378Y2808935D01*
X8162086Y2805836D01*
X8166201Y2803042D01*
X8170570Y2800604D01*
X8175294Y2798470D01*
X8180273Y2796743D01*
X8185607Y2795422D01*
X8191195Y2794457D01*
X8197951Y2793695D01*
X8203742Y2793441D01*
X8208873Y2793746D01*
X8213547Y2794711D01*
X8218017Y2796387D01*
X8222488Y2798826D01*
X8227263Y2802128D01*
X8242553Y2814523D01*
X8248294Y2817622D01*
X8251291Y2815945D01*
X8253374Y2809849D01*
X8255965Y2804109D01*
X8260689Y2800604D01*
X8268665Y2798775D01*
X8280857Y2798267D01*
X8294827Y2798572D01*
X8299043Y2799283D01*
X8301685Y2800604D01*
X8303056Y2802737D01*
X8303310Y2805988D01*
X8302802Y2810459D01*
X8301177Y2819298D01*
X8300262Y2827680D01*
X8299450Y2838754D01*
X8298789Y2851810D01*
X8298078Y2881122D01*
X8297672Y2919171D01*
X8297214Y2926384D01*
X8296554Y2932430D01*
X8295640Y2937611D01*
X8294420Y2942082D01*
X8292795Y2945993D01*
X8290763Y2949702D01*
X8288223Y2953308D01*
X8285225Y2957068D01*
X8276691Y2966415D01*
X8272018Y2970631D01*
X8267395Y2973984D01*
X8262467Y2976524D01*
X8256981Y2978404D01*
X8250580Y2979826D01*
X8242960Y2980842D01*
X8233867Y2981604D01*
G37*
G36*
X9761016Y2711500D02*
G01*
X9742424Y2710992D01*
X9734651Y2710383D01*
X9727895Y2709570D01*
X9722256Y2708554D01*
X9717735Y2707284D01*
X9714382Y2705811D01*
X9712299Y2704185D01*
X9709810Y2699512D01*
X9707473Y2692247D01*
X9705594Y2683306D01*
X9704374Y2673807D01*
X9703663Y2666390D01*
X9702800Y2660700D01*
X9701479Y2656484D01*
X9699396Y2653436D01*
X9696297Y2651302D01*
X9691878Y2649778D01*
X9685883Y2648559D01*
X9674148Y2646781D01*
X9669983Y2645816D01*
X9660991Y2642920D01*
X9651288Y2638958D01*
X9641128Y2633929D01*
X9630765Y2628087D01*
X9607550Y2612796D01*
X9602012Y2609443D01*
X9596932Y2606649D01*
X9592106Y2604363D01*
X9587484Y2602534D01*
X9582810Y2601163D01*
X9578035Y2600096D01*
X9572955Y2599385D01*
X9561474Y2598674D01*
X9545574Y2598775D01*
X9537700Y2599283D01*
X9530791Y2600198D01*
X9524593Y2601620D01*
X9518904Y2603601D01*
X9513468Y2606192D01*
X9507982Y2609545D01*
X9496552Y2617825D01*
X9485223Y2625445D01*
X9473996Y2632049D01*
X9462871Y2637586D01*
X9451746Y2642158D01*
X9446260Y2644038D01*
X9435236Y2647035D01*
X9424263Y2649016D01*
X9413290Y2649982D01*
X9407804Y2650083D01*
X9396882Y2649524D01*
X9385909Y2647899D01*
X9374987Y2645308D01*
X9369501Y2643632D01*
X9358477Y2639466D01*
X9352940Y2637028D01*
X9341866Y2631338D01*
X9330740Y2624632D01*
X9319869Y2617368D01*
X9309658Y2611221D01*
X9299956Y2606243D01*
X9290558Y2602433D01*
X9281210Y2599639D01*
X9276486Y2598623D01*
X9266885Y2597302D01*
X9255760Y2596591D01*
X9250934Y2596642D01*
X9246412Y2597048D01*
X9242044Y2597861D01*
X9237675Y2599080D01*
X9233103Y2600807D01*
X9228175Y2603093D01*
X9216847Y2609494D01*
X9189974Y2626309D01*
X9177934Y2632862D01*
X9166199Y2638399D01*
X9154718Y2642819D01*
X9143492Y2646222D01*
X9132366Y2648610D01*
X9121444Y2649880D01*
X9116009Y2650134D01*
X9105188Y2649829D01*
X9094419Y2648458D01*
X9089034Y2647391D01*
X9083598Y2646019D01*
X9072778Y2642514D01*
X9061856Y2637993D01*
X9050832Y2632354D01*
X9039606Y2625648D01*
X9028226Y2617927D01*
X9016695Y2609545D01*
X9011208Y2606192D01*
X9005722Y2603601D01*
X9000032Y2601620D01*
X8993886Y2600198D01*
X8986977Y2599283D01*
X8979052Y2598775D01*
X8963202Y2598674D01*
X8951671Y2599385D01*
X8946642Y2600096D01*
X8941866Y2601112D01*
X8937244Y2602534D01*
X8932570Y2604312D01*
X8927795Y2606598D01*
X8917228Y2612694D01*
X8898483Y2625191D01*
X8886698Y2632151D01*
X8874912Y2637993D01*
X8869019Y2640482D01*
X8863177Y2642666D01*
X8857335Y2644546D01*
X8851442Y2646172D01*
X8845600Y2647492D01*
X8839758Y2648508D01*
X8828074Y2649677D01*
X8822232Y2649829D01*
X8810548Y2649270D01*
X8798864Y2647492D01*
X8793022Y2646222D01*
X8787180Y2644648D01*
X8775446Y2640584D01*
X8763711Y2635351D01*
X8751976Y2628950D01*
X8746083Y2625344D01*
X8733332Y2616758D01*
X8721699Y2609443D01*
X8716619Y2606649D01*
X8711793Y2604363D01*
X8707170Y2602534D01*
X8702497Y2601163D01*
X8697722Y2600096D01*
X8692642Y2599385D01*
X8681161Y2598674D01*
X8665260Y2598775D01*
X8657386Y2599283D01*
X8650478Y2600198D01*
X8644280Y2601620D01*
X8638590Y2603601D01*
X8633104Y2606192D01*
X8627668Y2609545D01*
X8616086Y2617927D01*
X8604707Y2625648D01*
X8593480Y2632354D01*
X8582456Y2637993D01*
X8571534Y2642514D01*
X8560714Y2646019D01*
X8555329Y2647391D01*
X8544560Y2649270D01*
X8539124Y2649829D01*
X8528304Y2650134D01*
X8517432Y2649372D01*
X8511946Y2648610D01*
X8500872Y2646222D01*
X8489594Y2642819D01*
X8478113Y2638399D01*
X8466378Y2632862D01*
X8454390Y2626309D01*
X8427567Y2609545D01*
X8416188Y2603144D01*
X8411311Y2600858D01*
X8406739Y2599131D01*
X8402370Y2597861D01*
X8398002Y2597099D01*
X8393531Y2596642D01*
X8383625Y2596794D01*
X8373160Y2597810D01*
X8363813Y2599588D01*
X8354517Y2602382D01*
X8349843Y2604160D01*
X8340293Y2608580D01*
X8330387Y2614066D01*
X8314385Y2624582D01*
X8303209Y2631287D01*
X8292084Y2636977D01*
X8280958Y2641650D01*
X8269935Y2645257D01*
X8264398Y2646730D01*
X8258911Y2647899D01*
X8247888Y2649474D01*
X8242401Y2649931D01*
X8231378Y2649982D01*
X8225840Y2649626D01*
X8214817Y2648153D01*
X8203793Y2645664D01*
X8192719Y2642158D01*
X8187131Y2640025D01*
X8175955Y2634945D01*
X8164779Y2628900D01*
X8153450Y2621788D01*
X8137855Y2610713D01*
X8133334Y2608072D01*
X8128508Y2605786D01*
X8123377Y2603703D01*
X8118094Y2601976D01*
X8112607Y2600502D01*
X8107019Y2599385D01*
X8101279Y2598521D01*
X8095538Y2597962D01*
X8083956Y2597708D01*
X8078266Y2598064D01*
X8072628Y2598674D01*
X8067141Y2599639D01*
X8061858Y2600858D01*
X8056778Y2602433D01*
X8051901Y2604262D01*
X8047380Y2606395D01*
X8043113Y2608884D01*
X8033969Y2615742D01*
X8023301Y2623261D01*
X8012684Y2629865D01*
X8002117Y2635554D01*
X7996885Y2638044D01*
X7986522Y2642209D01*
X7976412Y2645410D01*
X7966557Y2647594D01*
X7957058Y2648661D01*
X7950657Y2648813D01*
X7944866Y2648508D01*
X7939684Y2647797D01*
X7935214Y2646730D01*
X7931353Y2645308D01*
X7928152Y2643581D01*
X7925562Y2641600D01*
X7923682Y2639415D01*
X7922463Y2637078D01*
X7921904Y2634589D01*
X7922006Y2632049D01*
X7922818Y2629408D01*
X7924292Y2626766D01*
X7926425Y2624175D01*
X7929219Y2621686D01*
X7932775Y2619248D01*
X7936992Y2617012D01*
X7941868Y2614980D01*
X7947507Y2613152D01*
X7958886Y2610256D01*
X7964830Y2608224D01*
X7971332Y2605633D01*
X7985252Y2598978D01*
X7992313Y2595168D01*
X7999069Y2591206D01*
X8011058Y2583332D01*
X8022081Y2576525D01*
X8032851Y2570734D01*
X8043316Y2565908D01*
X8053578Y2562098D01*
X8063738Y2559304D01*
X8073796Y2557475D01*
X8083854Y2556662D01*
X8093964Y2556865D01*
X8104174Y2558034D01*
X8114588Y2560269D01*
X8125206Y2563469D01*
X8136077Y2567635D01*
X8147354Y2572867D01*
X8159038Y2579116D01*
X8171180Y2586329D01*
X8183270Y2594000D01*
X8194243Y2600350D01*
X8204555Y2605430D01*
X8209483Y2607411D01*
X8219084Y2610459D01*
X8228482Y2612136D01*
X8233156Y2612440D01*
X8237829Y2612440D01*
X8242503Y2612085D01*
X8247278Y2611374D01*
X8252104Y2610307D01*
X8257031Y2608935D01*
X8262061Y2607208D01*
X8272627Y2602738D01*
X8284006Y2596845D01*
X8296249Y2589530D01*
X8308848Y2581554D01*
X8320684Y2574798D01*
X8332266Y2569108D01*
X8343696Y2564485D01*
X8354872Y2560980D01*
X8360409Y2559608D01*
X8371382Y2557729D01*
X8382253Y2556865D01*
X8387638Y2556865D01*
X8398306Y2557627D01*
X8408974Y2559507D01*
X8414258Y2560828D01*
X8424824Y2564333D01*
X8430107Y2566466D01*
X8440724Y2571546D01*
X8451342Y2577744D01*
X8477199Y2594508D01*
X8489188Y2601315D01*
X8494776Y2604109D01*
X8500160Y2606497D01*
X8505393Y2608529D01*
X8510422Y2610104D01*
X8515350Y2611323D01*
X8520226Y2612136D01*
X8525052Y2612542D01*
X8529878Y2612542D01*
X8534704Y2612186D01*
X8539632Y2611424D01*
X8544610Y2610256D01*
X8549792Y2608732D01*
X8560612Y2604516D01*
X8572449Y2598724D01*
X8585504Y2591460D01*
X8598509Y2583789D01*
X8610498Y2577033D01*
X8622233Y2570835D01*
X8633053Y2565501D01*
X8642451Y2561336D01*
X8649766Y2558592D01*
X8652510Y2557830D01*
X8658352Y2556764D01*
X8664346Y2556052D01*
X8670391Y2555748D01*
X8676538Y2555798D01*
X8682786Y2556256D01*
X8689086Y2557068D01*
X8695537Y2558237D01*
X8702040Y2559812D01*
X8708644Y2561793D01*
X8715298Y2564130D01*
X8722055Y2566822D01*
X8728862Y2569870D01*
X8735771Y2573324D01*
X8749741Y2581351D01*
X8764066Y2590698D01*
X8776512Y2598318D01*
X8781948Y2601315D01*
X8787028Y2603754D01*
X8791854Y2605735D01*
X8796528Y2607259D01*
X8801201Y2608427D01*
X8805976Y2609291D01*
X8816340Y2610104D01*
X8827973Y2610104D01*
X8838336Y2609291D01*
X8843111Y2608427D01*
X8847785Y2607259D01*
X8852509Y2605735D01*
X8857284Y2603754D01*
X8862364Y2601315D01*
X8873693Y2594813D01*
X8894572Y2581351D01*
X8901582Y2577185D01*
X8908542Y2573375D01*
X8915450Y2569921D01*
X8922258Y2566822D01*
X8929014Y2564130D01*
X8935669Y2561793D01*
X8942273Y2559862D01*
X8948775Y2558237D01*
X8955176Y2557068D01*
X8961526Y2556256D01*
X8967724Y2555798D01*
X8973870Y2555748D01*
X8979916Y2556052D01*
X8985859Y2556764D01*
X8991701Y2557830D01*
X8997848Y2559761D01*
X9006433Y2563368D01*
X9016898Y2568244D01*
X9028582Y2574188D01*
X9040926Y2580894D01*
X9070441Y2598013D01*
X9083751Y2605024D01*
X9089339Y2607513D01*
X9094419Y2609494D01*
X9099143Y2610866D01*
X9103664Y2611831D01*
X9108135Y2612339D01*
X9112656Y2612440D01*
X9117431Y2612237D01*
X9122562Y2611729D01*
X9128607Y2610764D01*
X9135008Y2609138D01*
X9141764Y2606954D01*
X9148775Y2604160D01*
X9155938Y2600858D01*
X9163202Y2597048D01*
X9170466Y2592781D01*
X9183471Y2584145D01*
X9194749Y2577134D01*
X9205722Y2571140D01*
X9211056Y2568498D01*
X9221622Y2564028D01*
X9231985Y2560523D01*
X9242196Y2558034D01*
X9252305Y2556510D01*
X9262364Y2556052D01*
X9267393Y2556154D01*
X9277502Y2557170D01*
X9282531Y2558034D01*
X9292742Y2560574D01*
X9303156Y2564079D01*
X9313722Y2568600D01*
X9324543Y2574137D01*
X9335668Y2580640D01*
X9354870Y2593289D01*
X9362389Y2597708D01*
X9369653Y2601518D01*
X9376714Y2604719D01*
X9383674Y2607310D01*
X9390532Y2609342D01*
X9397288Y2610764D01*
X9404045Y2611678D01*
X9414459Y2612288D01*
X9419031Y2612186D01*
X9423400Y2611729D01*
X9427616Y2610916D01*
X9431934Y2609646D01*
X9436404Y2607970D01*
X9441230Y2605735D01*
X9446463Y2602941D01*
X9458807Y2595524D01*
X9472472Y2586736D01*
X9484614Y2579471D01*
X9496247Y2573172D01*
X9507474Y2567889D01*
X9518243Y2563622D01*
X9528708Y2560269D01*
X9538919Y2557932D01*
X9548977Y2556611D01*
X9558832Y2556256D01*
X9563760Y2556408D01*
X9573514Y2557526D01*
X9583369Y2559608D01*
X9588296Y2560980D01*
X9598253Y2564536D01*
X9608413Y2569006D01*
X9618827Y2574493D01*
X9629495Y2580894D01*
X9642246Y2589123D01*
X9649714Y2593644D01*
X9657181Y2597861D01*
X9664446Y2601671D01*
X9677552Y2607716D01*
X9682937Y2609748D01*
X9687306Y2610916D01*
X9693249Y2612085D01*
X9697720Y2612593D01*
X9700971Y2612288D01*
X9703104Y2610916D01*
X9704425Y2608122D01*
X9705136Y2603754D01*
X9705746Y2576423D01*
X9706152Y2571242D01*
X9706864Y2566720D01*
X9707880Y2562860D01*
X9709302Y2559608D01*
X9711182Y2556916D01*
X9713620Y2554782D01*
X9716719Y2553106D01*
X9720427Y2551836D01*
X9724898Y2550972D01*
X9730232Y2550414D01*
X9736378Y2550160D01*
X9751669Y2550312D01*
X9774986Y2551226D01*
X9785908Y2551887D01*
X9794087Y2552801D01*
X9799929Y2554020D01*
X9803841Y2555748D01*
X9806330Y2558084D01*
X9807752Y2561132D01*
X9809276Y2568702D01*
X9810496Y2571648D01*
X9812324Y2573934D01*
X9815017Y2575763D01*
X9818674Y2577134D01*
X9823551Y2578150D01*
X9829749Y2578912D01*
X9849967Y2580792D01*
X9858400Y2582875D01*
X9863175Y2585872D01*
X9864648Y2589936D01*
X9863124Y2594051D01*
X9858298Y2597048D01*
X9849815Y2599080D01*
X9837115Y2600401D01*
X9809632Y2602179D01*
X9809632Y2658770D01*
X9837115Y2660497D01*
X9849815Y2661818D01*
X9858298Y2663901D01*
X9863124Y2666898D01*
X9864648Y2670962D01*
X9863175Y2675026D01*
X9858400Y2678023D01*
X9850069Y2680106D01*
X9829901Y2681986D01*
X9823602Y2682798D01*
X9818674Y2683865D01*
X9814915Y2685338D01*
X9812070Y2687320D01*
X9809988Y2689910D01*
X9808413Y2693212D01*
X9805873Y2701798D01*
X9804196Y2705201D01*
X9801758Y2707690D01*
X9797948Y2709418D01*
X9792462Y2710535D01*
X9784791Y2711145D01*
G37*
D10*
X774700Y5322315D02*
G01*
X774700Y5213350D01*
X774700Y5322315D02*
G01*
X821436Y5322315D01*
X836929Y5317236D01*
X842263Y5311902D01*
X847344Y5301487D01*
X847344Y5285994D01*
X842263Y5275579D01*
X836929Y5270500D01*
X821436Y5265165D01*
X774700Y5265165D01*
X923289Y5322315D02*
G01*
X881634Y5213350D01*
X923289Y5322315D02*
G01*
X964945Y5213350D01*
X897381Y5249671D02*
G01*
X949197Y5249671D01*
X999236Y5322315D02*
G01*
X999236Y5213350D01*
X999236Y5322315D02*
G01*
X1045971Y5322315D01*
X1061465Y5317236D01*
X1066800Y5311902D01*
X1071879Y5301487D01*
X1071879Y5291073D01*
X1066800Y5280660D01*
X1061465Y5275579D01*
X1045971Y5270500D01*
X999236Y5270500D01*
X1035557Y5270500D02*
G01*
X1071879Y5213350D01*
X1142492Y5322315D02*
G01*
X1142492Y5213350D01*
X1106170Y5322315D02*
G01*
X1178813Y5322315D01*
X1293113Y5322315D02*
G01*
X1293113Y5213350D01*
X1293113Y5322315D02*
G01*
X1366012Y5213350D01*
X1366012Y5322315D02*
G01*
X1366012Y5213350D01*
X1400302Y5322315D02*
G01*
X1400302Y5244337D01*
X1405381Y5228844D01*
X1415795Y5218429D01*
X1431289Y5213350D01*
X1441704Y5213350D01*
X1457452Y5218429D01*
X1467865Y5228844D01*
X1472945Y5244337D01*
X1472945Y5322315D01*
X1507236Y5322315D02*
G01*
X1507236Y5213350D01*
X1507236Y5322315D02*
G01*
X1548892Y5213350D01*
X1590294Y5322315D02*
G01*
X1548892Y5213350D01*
X1590294Y5322315D02*
G01*
X1590294Y5213350D01*
X1704594Y5301487D02*
G01*
X1715007Y5306821D01*
X1730755Y5322315D01*
X1730755Y5213350D01*
X1765045Y5301487D02*
G01*
X1775460Y5306821D01*
X1790954Y5322315D01*
X1790954Y5213350D01*
X1887473Y5322315D02*
G01*
X1835657Y5322315D01*
X1830323Y5275579D01*
X1835657Y5280660D01*
X1851152Y5285994D01*
X1866900Y5285994D01*
X1882394Y5280660D01*
X1892807Y5270500D01*
X1897887Y5254752D01*
X1897887Y5244337D01*
X1892807Y5228844D01*
X1882394Y5218429D01*
X1866900Y5213350D01*
X1851152Y5213350D01*
X1835657Y5218429D01*
X1830323Y5223510D01*
X1825244Y5233923D01*
X1994661Y5306821D02*
G01*
X1989327Y5317236D01*
X1973834Y5322315D01*
X1963420Y5322315D01*
X1947925Y5317236D01*
X1937511Y5301487D01*
X1932177Y5275579D01*
X1932177Y5249671D01*
X1937511Y5228844D01*
X1947925Y5218429D01*
X1963420Y5213350D01*
X1968500Y5213350D01*
X1984247Y5218429D01*
X1994661Y5228844D01*
X1999741Y5244337D01*
X1999741Y5249671D01*
X1994661Y5265165D01*
X1984247Y5275579D01*
X1968500Y5280660D01*
X1963420Y5280660D01*
X1947925Y5275579D01*
X1937511Y5265165D01*
X1932177Y5249671D01*
X2034031Y5260086D02*
G01*
X2127504Y5260086D01*
X2193036Y5322315D02*
G01*
X2177541Y5317236D01*
X2167127Y5301487D01*
X2161793Y5275579D01*
X2161793Y5260086D01*
X2167127Y5233923D01*
X2177541Y5218429D01*
X2193036Y5213350D01*
X2203450Y5213350D01*
X2218943Y5218429D01*
X2229358Y5233923D01*
X2234691Y5260086D01*
X2234691Y5275579D01*
X2229358Y5301487D01*
X2218943Y5317236D01*
X2203450Y5322315D01*
X2193036Y5322315D01*
X2268981Y5301487D02*
G01*
X2279395Y5306821D01*
X2294890Y5322315D01*
X2294890Y5213350D01*
X2360422Y5322315D02*
G01*
X2344674Y5317236D01*
X2334259Y5301487D01*
X2329179Y5275579D01*
X2329179Y5260086D01*
X2334259Y5233923D01*
X2344674Y5218429D01*
X2360422Y5213350D01*
X2370836Y5213350D01*
X2386329Y5218429D01*
X2396743Y5233923D01*
X2401824Y5260086D01*
X2401824Y5275579D01*
X2396743Y5301487D01*
X2386329Y5317236D01*
X2370836Y5322315D01*
X2360422Y5322315D01*
X2436113Y5301487D02*
G01*
X2446527Y5306821D01*
X2462275Y5322315D01*
X2462275Y5213350D01*
X2576575Y5322315D02*
G01*
X2617977Y5213350D01*
X2659634Y5322315D02*
G01*
X2617977Y5213350D01*
X2725165Y5322315D02*
G01*
X2709418Y5317236D01*
X2699004Y5301487D01*
X2693924Y5275579D01*
X2693924Y5260086D01*
X2699004Y5233923D01*
X2709418Y5218429D01*
X2725165Y5213350D01*
X2735579Y5213350D01*
X2751074Y5218429D01*
X2761488Y5233923D01*
X2766568Y5260086D01*
X2766568Y5275579D01*
X2761488Y5301487D01*
X2751074Y5317236D01*
X2735579Y5322315D01*
X2725165Y5322315D01*
X2806191Y5239257D02*
G01*
X2800858Y5233923D01*
X2806191Y5228844D01*
X2811272Y5233923D01*
X2806191Y5239257D01*
X2845561Y5301487D02*
G01*
X2855975Y5306821D01*
X2871470Y5322315D01*
X2871470Y5213350D01*
X774700Y5512815D02*
G01*
X774700Y5403850D01*
X774700Y5512815D02*
G01*
X821436Y5512815D01*
X836929Y5507736D01*
X842263Y5502402D01*
X847344Y5491987D01*
X847344Y5481573D01*
X842263Y5471160D01*
X836929Y5466079D01*
X821436Y5461000D01*
X774700Y5461000D01*
X811021Y5461000D02*
G01*
X847344Y5403850D01*
X923289Y5512815D02*
G01*
X881634Y5403850D01*
X923289Y5512815D02*
G01*
X964945Y5403850D01*
X897381Y5440171D02*
G01*
X949197Y5440171D01*
X1071879Y5497321D02*
G01*
X1061465Y5507736D01*
X1045971Y5512815D01*
X1025144Y5512815D01*
X1009650Y5507736D01*
X999236Y5497321D01*
X999236Y5486907D01*
X1004315Y5476494D01*
X1009650Y5471160D01*
X1019810Y5466079D01*
X1051052Y5455665D01*
X1061465Y5450586D01*
X1066800Y5445252D01*
X1071879Y5434837D01*
X1071879Y5419344D01*
X1061465Y5408929D01*
X1045971Y5403850D01*
X1025144Y5403850D01*
X1009650Y5408929D01*
X999236Y5419344D01*
X1106170Y5512815D02*
G01*
X1106170Y5403850D01*
X1106170Y5512815D02*
G01*
X1152905Y5512815D01*
X1168400Y5507736D01*
X1173734Y5502402D01*
X1178813Y5491987D01*
X1178813Y5476494D01*
X1173734Y5466079D01*
X1168400Y5461000D01*
X1152905Y5455665D01*
X1106170Y5455665D01*
X1213104Y5512815D02*
G01*
X1213104Y5403850D01*
X1213104Y5512815D02*
G01*
X1259839Y5512815D01*
X1275587Y5507736D01*
X1280668Y5502402D01*
X1286002Y5491987D01*
X1286002Y5481573D01*
X1280668Y5471160D01*
X1275587Y5466079D01*
X1259839Y5461000D01*
X1213104Y5461000D02*
G01*
X1259839Y5461000D01*
X1275587Y5455665D01*
X1280668Y5450586D01*
X1286002Y5440171D01*
X1286002Y5424423D01*
X1280668Y5414010D01*
X1275587Y5408929D01*
X1259839Y5403850D01*
X1213104Y5403850D01*
X1320292Y5512815D02*
G01*
X1320292Y5403850D01*
X1320292Y5512815D02*
G01*
X1387855Y5512815D01*
X1320292Y5461000D02*
G01*
X1361694Y5461000D01*
X1320292Y5403850D02*
G01*
X1387855Y5403850D01*
X1422145Y5512815D02*
G01*
X1422145Y5403850D01*
X1422145Y5512815D02*
G01*
X1468881Y5512815D01*
X1484376Y5507736D01*
X1489710Y5502402D01*
X1494789Y5491987D01*
X1494789Y5481573D01*
X1489710Y5471160D01*
X1484376Y5466079D01*
X1468881Y5461000D01*
X1422145Y5461000D01*
X1458468Y5461000D02*
G01*
X1494789Y5403850D01*
X1529079Y5512815D02*
G01*
X1529079Y5403850D01*
X1529079Y5512815D02*
G01*
X1575815Y5512815D01*
X1591310Y5507736D01*
X1596644Y5502402D01*
X1601723Y5491987D01*
X1601723Y5481573D01*
X1596644Y5471160D01*
X1591310Y5466079D01*
X1575815Y5461000D01*
X1529079Y5461000D01*
X1565402Y5461000D02*
G01*
X1601723Y5403850D01*
X1636013Y5512815D02*
G01*
X1677670Y5461000D01*
X1677670Y5403850D01*
X1719326Y5512815D02*
G01*
X1677670Y5461000D01*
X1833626Y5512815D02*
G01*
X1833626Y5403850D01*
X1833626Y5512815D02*
G01*
X1880362Y5512815D01*
X1895855Y5507736D01*
X1901189Y5502402D01*
X1906270Y5491987D01*
X1906270Y5476494D01*
X1901189Y5466079D01*
X1895855Y5461000D01*
X1880362Y5455665D01*
X1833626Y5455665D01*
X1940559Y5512815D02*
G01*
X1940559Y5403850D01*
X2096515Y5512815D02*
G01*
X2054859Y5403850D01*
X2096515Y5512815D02*
G01*
X2137918Y5403850D01*
X2070354Y5440171D02*
G01*
X2122424Y5440171D01*
X2172208Y5512815D02*
G01*
X2172208Y5403850D01*
X2172208Y5512815D02*
G01*
X2208529Y5512815D01*
X2224277Y5507736D01*
X2234691Y5497321D01*
X2239772Y5486907D01*
X2245106Y5471160D01*
X2245106Y5445252D01*
X2239772Y5429757D01*
X2234691Y5419344D01*
X2224277Y5408929D01*
X2208529Y5403850D01*
X2172208Y5403850D01*
X2320797Y5512815D02*
G01*
X2279395Y5403850D01*
X2320797Y5512815D02*
G01*
X2362454Y5403850D01*
X2294890Y5440171D02*
G01*
X2346959Y5440171D01*
X2396743Y5512815D02*
G01*
X2396743Y5403850D01*
X2396743Y5512815D02*
G01*
X2443479Y5512815D01*
X2458974Y5507736D01*
X2464308Y5502402D01*
X2469388Y5491987D01*
X2469388Y5476494D01*
X2464308Y5466079D01*
X2458974Y5461000D01*
X2443479Y5455665D01*
X2396743Y5455665D01*
X2540000Y5512815D02*
G01*
X2540000Y5403850D01*
X2503677Y5512815D02*
G01*
X2576575Y5512815D01*
X2610865Y5512815D02*
G01*
X2610865Y5403850D01*
X2610865Y5512815D02*
G01*
X2678429Y5512815D01*
X2610865Y5461000D02*
G01*
X2652268Y5461000D01*
X2610865Y5403850D02*
G01*
X2678429Y5403850D01*
X2712720Y5512815D02*
G01*
X2712720Y5403850D01*
X2712720Y5512815D02*
G01*
X2759456Y5512815D01*
X2774950Y5507736D01*
X2780029Y5502402D01*
X2785363Y5491987D01*
X2785363Y5481573D01*
X2780029Y5471160D01*
X2774950Y5466079D01*
X2759456Y5461000D01*
X2712720Y5461000D01*
X2749041Y5461000D02*
G01*
X2785363Y5403850D01*
X774700Y5703315D02*
G01*
X774700Y5594350D01*
X774700Y5703315D02*
G01*
X821436Y5703315D01*
X836929Y5698236D01*
X842263Y5692902D01*
X847344Y5682487D01*
X847344Y5666994D01*
X842263Y5656579D01*
X836929Y5651500D01*
X821436Y5646165D01*
X774700Y5646165D01*
X881634Y5703315D02*
G01*
X881634Y5594350D01*
X881634Y5703315D02*
G01*
X928370Y5703315D01*
X944118Y5698236D01*
X949197Y5692902D01*
X954531Y5682487D01*
X954531Y5672073D01*
X949197Y5661660D01*
X944118Y5656579D01*
X928370Y5651500D01*
X881634Y5651500D01*
X918210Y5651500D02*
G01*
X954531Y5594350D01*
X1019810Y5703315D02*
G01*
X1009650Y5698236D01*
X999236Y5687821D01*
X993902Y5677407D01*
X988821Y5661660D01*
X988821Y5635752D01*
X993902Y5620257D01*
X999236Y5609844D01*
X1009650Y5599429D01*
X1019810Y5594350D01*
X1040637Y5594350D01*
X1051052Y5599429D01*
X1061465Y5609844D01*
X1066800Y5620257D01*
X1071879Y5635752D01*
X1071879Y5661660D01*
X1066800Y5677407D01*
X1061465Y5687821D01*
X1051052Y5698236D01*
X1040637Y5703315D01*
X1019810Y5703315D01*
X1142492Y5703315D02*
G01*
X1142492Y5594350D01*
X1106170Y5703315D02*
G01*
X1178813Y5703315D01*
X1244345Y5703315D02*
G01*
X1233931Y5698236D01*
X1223518Y5687821D01*
X1218437Y5677407D01*
X1213104Y5661660D01*
X1213104Y5635752D01*
X1218437Y5620257D01*
X1223518Y5609844D01*
X1233931Y5599429D01*
X1244345Y5594350D01*
X1265173Y5594350D01*
X1275587Y5599429D01*
X1286002Y5609844D01*
X1291081Y5620257D01*
X1296415Y5635752D01*
X1296415Y5661660D01*
X1291081Y5677407D01*
X1286002Y5687821D01*
X1275587Y5698236D01*
X1265173Y5703315D01*
X1244345Y5703315D01*
X1330705Y5703315D02*
G01*
X1330705Y5594350D01*
X1330705Y5703315D02*
G01*
X1403350Y5594350D01*
X1403350Y5703315D02*
G01*
X1403350Y5594350D01*
X1437639Y5703315D02*
G01*
X1437639Y5594350D01*
X1437639Y5703315D02*
G01*
X1505204Y5703315D01*
X1437639Y5651500D02*
G01*
X1479295Y5651500D01*
X1437639Y5594350D02*
G01*
X1505204Y5594350D01*
X1539494Y5703315D02*
G01*
X1539494Y5594350D01*
X1539494Y5703315D02*
G01*
X1581150Y5594350D01*
X1622552Y5703315D02*
G01*
X1581150Y5594350D01*
X1622552Y5703315D02*
G01*
X1622552Y5594350D01*
X1698497Y5703315D02*
G01*
X1656842Y5594350D01*
X1698497Y5703315D02*
G01*
X1739900Y5594350D01*
X1672589Y5630671D02*
G01*
X1724405Y5630671D01*
X1927097Y5687821D02*
G01*
X1916684Y5698236D01*
X1901189Y5703315D01*
X1880362Y5703315D01*
X1864613Y5698236D01*
X1854200Y5687821D01*
X1854200Y5677407D01*
X1859534Y5666994D01*
X1864613Y5661660D01*
X1875028Y5656579D01*
X1906270Y5646165D01*
X1916684Y5641086D01*
X1921763Y5635752D01*
X1927097Y5625337D01*
X1927097Y5609844D01*
X1916684Y5599429D01*
X1901189Y5594350D01*
X1880362Y5594350D01*
X1864613Y5599429D01*
X1854200Y5609844D01*
X1997709Y5703315D02*
G01*
X1997709Y5594350D01*
X1961388Y5703315D02*
G01*
X2034031Y5703315D01*
X2109977Y5703315D02*
G01*
X2068322Y5594350D01*
X2109977Y5703315D02*
G01*
X2151379Y5594350D01*
X2084070Y5630671D02*
G01*
X2135886Y5630671D01*
X2185670Y5703315D02*
G01*
X2185670Y5594350D01*
X2185670Y5703315D02*
G01*
X2227325Y5594350D01*
X2268981Y5703315D02*
G01*
X2227325Y5594350D01*
X2268981Y5703315D02*
G01*
X2268981Y5594350D01*
X2303272Y5703315D02*
G01*
X2303272Y5594350D01*
X2303272Y5703315D02*
G01*
X2350008Y5703315D01*
X2365502Y5698236D01*
X2370836Y5692902D01*
X2375915Y5682487D01*
X2375915Y5666994D01*
X2370836Y5656579D01*
X2365502Y5651500D01*
X2350008Y5646165D01*
X2303272Y5646165D01*
X311889Y2687835D02*
G01*
X316461Y2674373D01*
X329923Y2665229D01*
X352783Y2660657D01*
X366499Y2660657D01*
X389105Y2665229D01*
X402821Y2674373D01*
X407393Y2687835D01*
X407393Y2696979D01*
X402821Y2710695D01*
X389105Y2719839D01*
X366499Y2724157D01*
X352783Y2724157D01*
X329923Y2719839D01*
X316461Y2710695D01*
X311889Y2696979D01*
X311889Y2687835D01*
X334495Y2758701D02*
G01*
X329923Y2758701D01*
X321033Y2763273D01*
X316461Y2767845D01*
X311889Y2776989D01*
X311889Y2795277D01*
X316461Y2804167D01*
X321033Y2808739D01*
X329923Y2813311D01*
X339067Y2813311D01*
X348211Y2808739D01*
X361927Y2799849D01*
X407393Y2754383D01*
X407393Y2817883D01*
X311889Y2972569D02*
G01*
X311889Y2927103D01*
X352783Y2922531D01*
X348211Y2927103D01*
X343639Y2940565D01*
X343639Y2954281D01*
X348211Y2967997D01*
X357355Y2976887D01*
X370817Y2981459D01*
X379961Y2981459D01*
X393677Y2976887D01*
X402821Y2967997D01*
X407393Y2954281D01*
X407393Y2940565D01*
X402821Y2927103D01*
X398249Y2922531D01*
X389105Y2917959D01*
X311889Y3011431D02*
G01*
X407393Y3048007D01*
X311889Y3084329D02*
G01*
X407393Y3048007D01*
X493029Y2687835D02*
G01*
X497601Y2674373D01*
X511063Y2665229D01*
X533923Y2660657D01*
X547639Y2660657D01*
X570245Y2665229D01*
X583961Y2674373D01*
X588533Y2687835D01*
X588533Y2696979D01*
X583961Y2710695D01*
X570245Y2719839D01*
X547639Y2724157D01*
X533923Y2724157D01*
X511063Y2719839D01*
X497601Y2710695D01*
X493029Y2696979D01*
X493029Y2687835D01*
X493029Y2799849D02*
G01*
X556529Y2754383D01*
X556529Y2822455D01*
X493029Y2799849D02*
G01*
X588533Y2799849D01*
X493029Y2976887D02*
G01*
X493029Y2931675D01*
X533923Y2927103D01*
X529351Y2931675D01*
X524779Y2945137D01*
X524779Y2958853D01*
X529351Y2972569D01*
X538495Y2981459D01*
X551957Y2986031D01*
X561101Y2986031D01*
X574817Y2981459D01*
X583961Y2972569D01*
X588533Y2958853D01*
X588533Y2945137D01*
X583961Y2931675D01*
X579389Y2927103D01*
X570245Y2922531D01*
X493029Y3016003D02*
G01*
X588533Y3052579D01*
X493029Y3088901D02*
G01*
X588533Y3052579D01*
X674171Y2687835D02*
G01*
X678743Y2674373D01*
X692205Y2665229D01*
X715065Y2660657D01*
X728781Y2660657D01*
X751387Y2665229D01*
X765103Y2674373D01*
X769675Y2687835D01*
X769675Y2696979D01*
X765103Y2710695D01*
X751387Y2719839D01*
X728781Y2724157D01*
X715065Y2724157D01*
X692205Y2719839D01*
X678743Y2710695D01*
X674171Y2696979D01*
X674171Y2687835D01*
X687633Y2808739D02*
G01*
X678743Y2804167D01*
X674171Y2790705D01*
X674171Y2781561D01*
X678743Y2767845D01*
X692205Y2758701D01*
X715065Y2754383D01*
X737671Y2754383D01*
X755959Y2758701D01*
X765103Y2767845D01*
X769675Y2781561D01*
X769675Y2786133D01*
X765103Y2799849D01*
X755959Y2808739D01*
X742243Y2813311D01*
X737671Y2813311D01*
X724209Y2808739D01*
X715065Y2799849D01*
X710493Y2786133D01*
X710493Y2781561D01*
X715065Y2767845D01*
X724209Y2758701D01*
X737671Y2754383D01*
X696777Y2981459D02*
G01*
X687633Y2976887D01*
X678743Y2967997D01*
X674171Y2958853D01*
X674171Y2940565D01*
X678743Y2931675D01*
X687633Y2922531D01*
X696777Y2917959D01*
X710493Y2913387D01*
X733099Y2913387D01*
X746815Y2917959D01*
X755959Y2922531D01*
X765103Y2931675D01*
X769675Y2940565D01*
X769675Y2958853D01*
X765103Y2967997D01*
X755959Y2976887D01*
X746815Y2981459D01*
X733099Y2981459D01*
X733099Y2958853D02*
G01*
X733099Y2981459D01*
X674171Y3011431D02*
G01*
X769675Y3011431D01*
X674171Y3011431D02*
G01*
X769675Y3075185D01*
X674171Y3075185D02*
G01*
X769675Y3075185D01*
X674171Y3105157D02*
G01*
X769675Y3105157D01*
X674171Y3105157D02*
G01*
X674171Y3136907D01*
X678743Y3150623D01*
X687633Y3159767D01*
X696777Y3164339D01*
X710493Y3168911D01*
X733099Y3168911D01*
X746815Y3164339D01*
X755959Y3159767D01*
X765103Y3150623D01*
X769675Y3136907D01*
X769675Y3105157D01*
X855304Y2687835D02*
G01*
X859876Y2674373D01*
X873338Y2665229D01*
X896198Y2660657D01*
X909914Y2660657D01*
X932520Y2665229D01*
X946236Y2674373D01*
X950808Y2687835D01*
X950808Y2696979D01*
X946236Y2710695D01*
X932520Y2719839D01*
X909914Y2724157D01*
X896198Y2724157D01*
X873338Y2719839D01*
X859876Y2710695D01*
X855304Y2696979D01*
X855304Y2687835D01*
X855304Y2776989D02*
G01*
X859876Y2763273D01*
X868766Y2758701D01*
X877910Y2758701D01*
X887054Y2763273D01*
X891626Y2772417D01*
X896198Y2790705D01*
X900770Y2804167D01*
X909914Y2813311D01*
X918804Y2817883D01*
X932520Y2817883D01*
X941664Y2813311D01*
X946236Y2808739D01*
X950808Y2795277D01*
X950808Y2776989D01*
X946236Y2763273D01*
X941664Y2758701D01*
X932520Y2754383D01*
X918804Y2754383D01*
X909914Y2758701D01*
X900770Y2767845D01*
X896198Y2781561D01*
X891626Y2799849D01*
X887054Y2808739D01*
X877910Y2813311D01*
X868766Y2813311D01*
X859876Y2808739D01*
X855304Y2795277D01*
X855304Y2776989D01*
X877910Y2986031D02*
G01*
X868766Y2981459D01*
X859876Y2972569D01*
X855304Y2963425D01*
X855304Y2945137D01*
X859876Y2935993D01*
X868766Y2927103D01*
X877910Y2922531D01*
X891626Y2917959D01*
X914232Y2917959D01*
X927948Y2922531D01*
X937092Y2927103D01*
X946236Y2935993D01*
X950808Y2945137D01*
X950808Y2963425D01*
X946236Y2972569D01*
X937092Y2981459D01*
X927948Y2986031D01*
X914232Y2986031D01*
X914232Y2963425D02*
G01*
X914232Y2986031D01*
X855304Y3016003D02*
G01*
X950808Y3016003D01*
X855304Y3016003D02*
G01*
X855304Y3056897D01*
X859876Y3070613D01*
X864448Y3075185D01*
X873338Y3079757D01*
X887054Y3079757D01*
X896198Y3075185D01*
X900770Y3070613D01*
X905342Y3056897D01*
X905342Y3016003D01*
X855304Y3109729D02*
G01*
X950808Y3109729D01*
X855304Y3167133D02*
G01*
X859876Y3157989D01*
X868766Y3148845D01*
X877910Y3144273D01*
X891626Y3139701D01*
X914232Y3139701D01*
X927948Y3144273D01*
X937092Y3148845D01*
X946236Y3157989D01*
X950808Y3167133D01*
X950808Y3185167D01*
X946236Y3194311D01*
X937092Y3203455D01*
X927948Y3208027D01*
X914232Y3212345D01*
X891626Y3212345D01*
X877910Y3208027D01*
X868766Y3203455D01*
X859876Y3194311D01*
X855304Y3185167D01*
X855304Y3167133D01*
X873338Y3312421D02*
G01*
X868766Y3321565D01*
X855304Y3335281D01*
X950808Y3335281D01*
X855304Y3410719D02*
G01*
X918804Y3365253D01*
X918804Y3433325D01*
X855304Y3410719D02*
G01*
X950808Y3410719D01*
X1416766Y2698757D02*
G01*
X1412194Y2707901D01*
X1398732Y2721363D01*
X1494236Y2721363D01*
X1398732Y2796801D02*
G01*
X1462232Y2751589D01*
X1462232Y2819661D01*
X1398732Y2796801D02*
G01*
X1494236Y2796801D01*
X1421338Y2987809D02*
G01*
X1412194Y2983237D01*
X1403304Y2974093D01*
X1398732Y2965203D01*
X1398732Y2946915D01*
X1403304Y2937771D01*
X1412194Y2928627D01*
X1421338Y2924309D01*
X1435054Y2919737D01*
X1457660Y2919737D01*
X1471376Y2924309D01*
X1480520Y2928627D01*
X1489664Y2937771D01*
X1494236Y2946915D01*
X1494236Y2965203D01*
X1489664Y2974093D01*
X1480520Y2983237D01*
X1471376Y2987809D01*
X1457660Y2987809D01*
X1457660Y2965203D02*
G01*
X1457660Y2987809D01*
X1398732Y3017781D02*
G01*
X1494236Y3017781D01*
X1398732Y3017781D02*
G01*
X1494236Y3081535D01*
X1398732Y3081535D02*
G01*
X1494236Y3081535D01*
X1398732Y3111507D02*
G01*
X1494236Y3111507D01*
X1398732Y3111507D02*
G01*
X1398732Y3143257D01*
X1403304Y3156973D01*
X1412194Y3166117D01*
X1421338Y3170435D01*
X1435054Y3175007D01*
X1457660Y3175007D01*
X1471376Y3170435D01*
X1480520Y3166117D01*
X1489664Y3156973D01*
X1494236Y3143257D01*
X1494236Y3111507D01*
X1597919Y2698757D02*
G01*
X1593347Y2707901D01*
X1579885Y2721363D01*
X1675389Y2721363D01*
X1593347Y2805945D02*
G01*
X1584457Y2801373D01*
X1579885Y2787911D01*
X1579885Y2778767D01*
X1584457Y2765051D01*
X1597919Y2755907D01*
X1620779Y2751589D01*
X1643385Y2751589D01*
X1661673Y2755907D01*
X1670817Y2765051D01*
X1675389Y2778767D01*
X1675389Y2783339D01*
X1670817Y2796801D01*
X1661673Y2805945D01*
X1647957Y2810517D01*
X1643385Y2810517D01*
X1629923Y2805945D01*
X1620779Y2796801D01*
X1616207Y2783339D01*
X1616207Y2778767D01*
X1620779Y2765051D01*
X1629923Y2755907D01*
X1643385Y2751589D01*
X1602491Y2978665D02*
G01*
X1593347Y2974093D01*
X1584457Y2965203D01*
X1579885Y2956059D01*
X1579885Y2937771D01*
X1584457Y2928627D01*
X1593347Y2919737D01*
X1602491Y2915165D01*
X1616207Y2910593D01*
X1638813Y2910593D01*
X1652529Y2915165D01*
X1661673Y2919737D01*
X1670817Y2928627D01*
X1675389Y2937771D01*
X1675389Y2956059D01*
X1670817Y2965203D01*
X1661673Y2974093D01*
X1652529Y2978665D01*
X1638813Y2978665D01*
X1638813Y2956059D02*
G01*
X1638813Y2978665D01*
X1579885Y3008637D02*
G01*
X1675389Y3008637D01*
X1579885Y3008637D02*
G01*
X1579885Y3049531D01*
X1584457Y3063247D01*
X1589029Y3067819D01*
X1597919Y3072391D01*
X1611635Y3072391D01*
X1620779Y3067819D01*
X1625351Y3063247D01*
X1629923Y3049531D01*
X1629923Y3008637D01*
X1579885Y3102363D02*
G01*
X1675389Y3102363D01*
X1579885Y3159767D02*
G01*
X1584457Y3150623D01*
X1593347Y3141479D01*
X1602491Y3136907D01*
X1616207Y3132335D01*
X1638813Y3132335D01*
X1652529Y3136907D01*
X1661673Y3141479D01*
X1670817Y3150623D01*
X1675389Y3159767D01*
X1675389Y3177801D01*
X1670817Y3186945D01*
X1661673Y3196089D01*
X1652529Y3200661D01*
X1638813Y3205233D01*
X1616207Y3205233D01*
X1602491Y3200661D01*
X1593347Y3196089D01*
X1584457Y3186945D01*
X1579885Y3177801D01*
X1579885Y3159767D01*
X1602491Y3309627D02*
G01*
X1597919Y3309627D01*
X1589029Y3314199D01*
X1584457Y3318771D01*
X1579885Y3327915D01*
X1579885Y3345949D01*
X1584457Y3355093D01*
X1589029Y3359665D01*
X1597919Y3364237D01*
X1607063Y3364237D01*
X1616207Y3359665D01*
X1629923Y3350521D01*
X1675389Y3305055D01*
X1675389Y3368809D01*
X1579885Y3407925D02*
G01*
X1579885Y3457709D01*
X1616207Y3430531D01*
X1616207Y3444247D01*
X1620779Y3453391D01*
X1625351Y3457709D01*
X1638813Y3462281D01*
X1647957Y3462281D01*
X1661673Y3457709D01*
X1670817Y3448819D01*
X1675389Y3435103D01*
X1675389Y3421387D01*
X1670817Y3407925D01*
X1666245Y3403353D01*
X1657101Y3398781D01*
X1779064Y2698757D02*
G01*
X1774492Y2707901D01*
X1761030Y2721363D01*
X1856534Y2721363D01*
X1761030Y2774195D02*
G01*
X1765602Y2760479D01*
X1774492Y2755907D01*
X1783636Y2755907D01*
X1792780Y2760479D01*
X1797352Y2769623D01*
X1801924Y2787911D01*
X1806496Y2801373D01*
X1815640Y2810517D01*
X1824530Y2815089D01*
X1838246Y2815089D01*
X1847390Y2810517D01*
X1851962Y2805945D01*
X1856534Y2792483D01*
X1856534Y2774195D01*
X1851962Y2760479D01*
X1847390Y2755907D01*
X1838246Y2751589D01*
X1824530Y2751589D01*
X1815640Y2755907D01*
X1806496Y2765051D01*
X1801924Y2778767D01*
X1797352Y2796801D01*
X1792780Y2805945D01*
X1783636Y2810517D01*
X1774492Y2810517D01*
X1765602Y2805945D01*
X1761030Y2792483D01*
X1761030Y2774195D01*
X1783636Y2983237D02*
G01*
X1774492Y2978665D01*
X1765602Y2969775D01*
X1761030Y2960631D01*
X1761030Y2942343D01*
X1765602Y2933199D01*
X1774492Y2924309D01*
X1783636Y2919737D01*
X1797352Y2915165D01*
X1819958Y2915165D01*
X1833674Y2919737D01*
X1842818Y2924309D01*
X1851962Y2933199D01*
X1856534Y2942343D01*
X1856534Y2960631D01*
X1851962Y2969775D01*
X1842818Y2978665D01*
X1833674Y2983237D01*
X1819958Y2983237D01*
X1819958Y2960631D02*
G01*
X1819958Y2983237D01*
X1761030Y3013209D02*
G01*
X1856534Y3013209D01*
X1761030Y3013209D02*
G01*
X1761030Y3054103D01*
X1765602Y3067819D01*
X1770174Y3072391D01*
X1779064Y3076963D01*
X1792780Y3076963D01*
X1801924Y3072391D01*
X1806496Y3067819D01*
X1811068Y3054103D01*
X1811068Y3013209D01*
X1761030Y3106935D02*
G01*
X1856534Y3106935D01*
X1761030Y3164085D02*
G01*
X1765602Y3155195D01*
X1774492Y3146051D01*
X1783636Y3141479D01*
X1797352Y3136907D01*
X1819958Y3136907D01*
X1833674Y3141479D01*
X1842818Y3146051D01*
X1851962Y3155195D01*
X1856534Y3164085D01*
X1856534Y3182373D01*
X1851962Y3191517D01*
X1842818Y3200661D01*
X1833674Y3205233D01*
X1819958Y3209551D01*
X1797352Y3209551D01*
X1783636Y3205233D01*
X1774492Y3200661D01*
X1765602Y3191517D01*
X1761030Y3182373D01*
X1761030Y3164085D01*
X1783636Y3314199D02*
G01*
X1779064Y3314199D01*
X1770174Y3318771D01*
X1765602Y3323343D01*
X1761030Y3332487D01*
X1761030Y3350521D01*
X1765602Y3359665D01*
X1770174Y3364237D01*
X1779064Y3368809D01*
X1788208Y3368809D01*
X1797352Y3364237D01*
X1811068Y3355093D01*
X1856534Y3309627D01*
X1856534Y3373381D01*
X1761030Y3448819D02*
G01*
X1824530Y3403353D01*
X1824530Y3471425D01*
X1761030Y3448819D02*
G01*
X1856534Y3448819D01*
X1964781Y2665229D02*
G01*
X1960209Y2665229D01*
X1951319Y2669801D01*
X1946747Y2674373D01*
X1942175Y2683263D01*
X1942175Y2701551D01*
X1946747Y2710695D01*
X1951319Y2715267D01*
X1960209Y2719839D01*
X1969353Y2719839D01*
X1978497Y2715267D01*
X1992213Y2706123D01*
X2037679Y2660657D01*
X2037679Y2724157D01*
X1942175Y2781561D02*
G01*
X1946747Y2767845D01*
X1960209Y2758701D01*
X1983069Y2754383D01*
X1996785Y2754383D01*
X2019391Y2758701D01*
X2033107Y2767845D01*
X2037679Y2781561D01*
X2037679Y2790705D01*
X2033107Y2804167D01*
X2019391Y2813311D01*
X1996785Y2817883D01*
X1983069Y2817883D01*
X1960209Y2813311D01*
X1946747Y2804167D01*
X1942175Y2790705D01*
X1942175Y2781561D01*
X1964781Y2986031D02*
G01*
X1955637Y2981459D01*
X1946747Y2972569D01*
X1942175Y2963425D01*
X1942175Y2945137D01*
X1946747Y2935993D01*
X1955637Y2927103D01*
X1964781Y2922531D01*
X1978497Y2917959D01*
X2001103Y2917959D01*
X2014819Y2922531D01*
X2023963Y2927103D01*
X2033107Y2935993D01*
X2037679Y2945137D01*
X2037679Y2963425D01*
X2033107Y2972569D01*
X2023963Y2981459D01*
X2014819Y2986031D01*
X2001103Y2986031D01*
X2001103Y2963425D02*
G01*
X2001103Y2986031D01*
X1942175Y3016003D02*
G01*
X2037679Y3016003D01*
X1942175Y3016003D02*
G01*
X2037679Y3079757D01*
X1942175Y3079757D02*
G01*
X2037679Y3079757D01*
X1942175Y3109729D02*
G01*
X2037679Y3109729D01*
X1942175Y3109729D02*
G01*
X1942175Y3141479D01*
X1946747Y3155195D01*
X1955637Y3164339D01*
X1964781Y3168911D01*
X1978497Y3173483D01*
X2001103Y3173483D01*
X2014819Y3168911D01*
X2023963Y3164339D01*
X2033107Y3155195D01*
X2037679Y3141479D01*
X2037679Y3109729D01*
X2145913Y2665229D02*
G01*
X2141341Y2665229D01*
X2132451Y2669801D01*
X2127879Y2674373D01*
X2123307Y2683263D01*
X2123307Y2701551D01*
X2127879Y2710695D01*
X2132451Y2715267D01*
X2141341Y2719839D01*
X2150485Y2719839D01*
X2159629Y2715267D01*
X2173345Y2706123D01*
X2218811Y2660657D01*
X2218811Y2724157D01*
X2145913Y2758701D02*
G01*
X2141341Y2758701D01*
X2132451Y2763273D01*
X2127879Y2767845D01*
X2123307Y2776989D01*
X2123307Y2795277D01*
X2127879Y2804167D01*
X2132451Y2808739D01*
X2141341Y2813311D01*
X2150485Y2813311D01*
X2159629Y2808739D01*
X2173345Y2799849D01*
X2218811Y2754383D01*
X2218811Y2817883D01*
X2145913Y2986031D02*
G01*
X2136769Y2981459D01*
X2127879Y2972569D01*
X2123307Y2963425D01*
X2123307Y2945137D01*
X2127879Y2935993D01*
X2136769Y2927103D01*
X2145913Y2922531D01*
X2159629Y2917959D01*
X2182235Y2917959D01*
X2195951Y2922531D01*
X2205095Y2927103D01*
X2214239Y2935993D01*
X2218811Y2945137D01*
X2218811Y2963425D01*
X2214239Y2972569D01*
X2205095Y2981459D01*
X2195951Y2986031D01*
X2182235Y2986031D01*
X2182235Y2963425D02*
G01*
X2182235Y2986031D01*
X2123307Y3016003D02*
G01*
X2218811Y3016003D01*
X2123307Y3016003D02*
G01*
X2123307Y3056897D01*
X2127879Y3070613D01*
X2132451Y3075185D01*
X2141341Y3079757D01*
X2155057Y3079757D01*
X2164201Y3075185D01*
X2168773Y3070613D01*
X2173345Y3056897D01*
X2173345Y3016003D01*
X2123307Y3109729D02*
G01*
X2218811Y3109729D01*
X2123307Y3167133D02*
G01*
X2127879Y3157989D01*
X2136769Y3148845D01*
X2145913Y3144273D01*
X2159629Y3139701D01*
X2182235Y3139701D01*
X2195951Y3144273D01*
X2205095Y3148845D01*
X2214239Y3157989D01*
X2218811Y3167133D01*
X2218811Y3185167D01*
X2214239Y3194311D01*
X2205095Y3203455D01*
X2195951Y3208027D01*
X2182235Y3212345D01*
X2159629Y3212345D01*
X2145913Y3208027D01*
X2136769Y3203455D01*
X2127879Y3194311D01*
X2123307Y3185167D01*
X2123307Y3167133D01*
X2145913Y3316993D02*
G01*
X2141341Y3316993D01*
X2132451Y3321565D01*
X2127879Y3326137D01*
X2123307Y3335281D01*
X2123307Y3353315D01*
X2127879Y3362459D01*
X2132451Y3367031D01*
X2141341Y3371603D01*
X2150485Y3371603D01*
X2159629Y3367031D01*
X2173345Y3357887D01*
X2218811Y3312421D01*
X2218811Y3376175D01*
X2123307Y3460757D02*
G01*
X2123307Y3415291D01*
X2164201Y3410719D01*
X2159629Y3415291D01*
X2155057Y3428753D01*
X2155057Y3442469D01*
X2159629Y3456185D01*
X2168773Y3465075D01*
X2182235Y3469647D01*
X2191379Y3469647D01*
X2205095Y3465075D01*
X2214239Y3456185D01*
X2218811Y3442469D01*
X2218811Y3428753D01*
X2214239Y3415291D01*
X2209667Y3410719D01*
X2200523Y3406147D01*
X2327054Y2665229D02*
G01*
X2322482Y2665229D01*
X2313592Y2669801D01*
X2309020Y2674373D01*
X2304448Y2683263D01*
X2304448Y2701551D01*
X2309020Y2710695D01*
X2313592Y2715267D01*
X2322482Y2719839D01*
X2331626Y2719839D01*
X2340770Y2715267D01*
X2354486Y2706123D01*
X2399952Y2660657D01*
X2399952Y2724157D01*
X2304448Y2799849D02*
G01*
X2367948Y2754383D01*
X2367948Y2822455D01*
X2304448Y2799849D02*
G01*
X2399952Y2799849D01*
X2327054Y2990603D02*
G01*
X2317910Y2986031D01*
X2309020Y2976887D01*
X2304448Y2967997D01*
X2304448Y2949709D01*
X2309020Y2940565D01*
X2317910Y2931675D01*
X2327054Y2927103D01*
X2340770Y2922531D01*
X2363376Y2922531D01*
X2377092Y2927103D01*
X2386236Y2931675D01*
X2395380Y2940565D01*
X2399952Y2949709D01*
X2399952Y2967997D01*
X2395380Y2976887D01*
X2386236Y2986031D01*
X2377092Y2990603D01*
X2363376Y2990603D01*
X2363376Y2967997D02*
G01*
X2363376Y2990603D01*
X2304448Y3020575D02*
G01*
X2399952Y3020575D01*
X2304448Y3020575D02*
G01*
X2304448Y3061469D01*
X2309020Y3075185D01*
X2313592Y3079757D01*
X2322482Y3084329D01*
X2336198Y3084329D01*
X2345342Y3079757D01*
X2349914Y3075185D01*
X2354486Y3061469D01*
X2354486Y3020575D01*
X2304448Y3114301D02*
G01*
X2399952Y3114301D01*
X2304448Y3171451D02*
G01*
X2309020Y3162561D01*
X2317910Y3153417D01*
X2327054Y3148845D01*
X2340770Y3144273D01*
X2363376Y3144273D01*
X2377092Y3148845D01*
X2386236Y3153417D01*
X2395380Y3162561D01*
X2399952Y3171451D01*
X2399952Y3189739D01*
X2395380Y3198883D01*
X2386236Y3208027D01*
X2377092Y3212345D01*
X2363376Y3216917D01*
X2340770Y3216917D01*
X2327054Y3212345D01*
X2317910Y3208027D01*
X2309020Y3198883D01*
X2304448Y3189739D01*
X2304448Y3171451D01*
X2304448Y3344171D02*
G01*
X2309020Y3330709D01*
X2322482Y3321565D01*
X2345342Y3316993D01*
X2359058Y3316993D01*
X2381664Y3321565D01*
X2395380Y3330709D01*
X2399952Y3344171D01*
X2399952Y3353315D01*
X2395380Y3367031D01*
X2381664Y3376175D01*
X2359058Y3380747D01*
X2345342Y3380747D01*
X2322482Y3376175D01*
X2309020Y3367031D01*
X2304448Y3353315D01*
X2304448Y3344171D01*
X2304448Y3433325D02*
G01*
X2309020Y3419609D01*
X2317910Y3415291D01*
X2327054Y3415291D01*
X2336198Y3419609D01*
X2340770Y3428753D01*
X2345342Y3447041D01*
X2349914Y3460757D01*
X2359058Y3469647D01*
X2367948Y3474219D01*
X2381664Y3474219D01*
X2390808Y3469647D01*
X2395380Y3465075D01*
X2399952Y3451613D01*
X2399952Y3433325D01*
X2395380Y3419609D01*
X2390808Y3415291D01*
X2381664Y3410719D01*
X2367948Y3410719D01*
X2359058Y3415291D01*
X2349914Y3424181D01*
X2345342Y3437897D01*
X2340770Y3456185D01*
X2336198Y3465075D01*
X2327054Y3469647D01*
X2317910Y3469647D01*
X2309020Y3465075D01*
X2304448Y3451613D01*
X2304448Y3433325D01*
X2508194Y2665229D02*
G01*
X2503622Y2665229D01*
X2494732Y2669801D01*
X2490160Y2674373D01*
X2485588Y2683263D01*
X2485588Y2701551D01*
X2490160Y2710695D01*
X2494732Y2715267D01*
X2503622Y2719839D01*
X2512766Y2719839D01*
X2521910Y2715267D01*
X2535626Y2706123D01*
X2581092Y2660657D01*
X2581092Y2724157D01*
X2499050Y2808739D02*
G01*
X2490160Y2804167D01*
X2485588Y2790705D01*
X2485588Y2781561D01*
X2490160Y2767845D01*
X2503622Y2758701D01*
X2526482Y2754383D01*
X2549088Y2754383D01*
X2567376Y2758701D01*
X2576520Y2767845D01*
X2581092Y2781561D01*
X2581092Y2786133D01*
X2576520Y2799849D01*
X2567376Y2808739D01*
X2553660Y2813311D01*
X2549088Y2813311D01*
X2535626Y2808739D01*
X2526482Y2799849D01*
X2521910Y2786133D01*
X2521910Y2781561D01*
X2526482Y2767845D01*
X2535626Y2758701D01*
X2549088Y2754383D01*
X2508194Y2981459D02*
G01*
X2499050Y2976887D01*
X2490160Y2967997D01*
X2485588Y2958853D01*
X2485588Y2940565D01*
X2490160Y2931675D01*
X2499050Y2922531D01*
X2508194Y2917959D01*
X2521910Y2913387D01*
X2544516Y2913387D01*
X2558232Y2917959D01*
X2567376Y2922531D01*
X2576520Y2931675D01*
X2581092Y2940565D01*
X2581092Y2958853D01*
X2576520Y2967997D01*
X2567376Y2976887D01*
X2558232Y2981459D01*
X2544516Y2981459D01*
X2544516Y2958853D02*
G01*
X2544516Y2981459D01*
X2485588Y3011431D02*
G01*
X2581092Y3011431D01*
X2485588Y3011431D02*
G01*
X2485588Y3052579D01*
X2490160Y3066041D01*
X2494732Y3070613D01*
X2503622Y3075185D01*
X2517338Y3075185D01*
X2526482Y3070613D01*
X2531054Y3066041D01*
X2535626Y3052579D01*
X2535626Y3011431D01*
X2485588Y3105157D02*
G01*
X2581092Y3105157D01*
X2485588Y3162561D02*
G01*
X2490160Y3153417D01*
X2499050Y3144273D01*
X2508194Y3139701D01*
X2521910Y3135129D01*
X2544516Y3135129D01*
X2558232Y3139701D01*
X2567376Y3144273D01*
X2576520Y3153417D01*
X2581092Y3162561D01*
X2581092Y3180595D01*
X2576520Y3189739D01*
X2567376Y3198883D01*
X2558232Y3203455D01*
X2544516Y3208027D01*
X2521910Y3208027D01*
X2508194Y3203455D01*
X2499050Y3198883D01*
X2490160Y3189739D01*
X2485588Y3180595D01*
X2485588Y3162561D01*
X2485588Y3335281D02*
G01*
X2490160Y3321565D01*
X2503622Y3312421D01*
X2526482Y3307849D01*
X2540198Y3307849D01*
X2562804Y3312421D01*
X2576520Y3321565D01*
X2581092Y3335281D01*
X2581092Y3344171D01*
X2576520Y3357887D01*
X2562804Y3367031D01*
X2540198Y3371603D01*
X2526482Y3371603D01*
X2503622Y3367031D01*
X2490160Y3357887D01*
X2485588Y3344171D01*
X2485588Y3335281D01*
X2485588Y3465075D02*
G01*
X2581092Y3419609D01*
X2485588Y3401575D02*
G01*
X2485588Y3465075D01*
X2689336Y2665229D02*
G01*
X2684764Y2665229D01*
X2675874Y2669801D01*
X2671302Y2674373D01*
X2666730Y2683263D01*
X2666730Y2701551D01*
X2671302Y2710695D01*
X2675874Y2715267D01*
X2684764Y2719839D01*
X2693908Y2719839D01*
X2703052Y2715267D01*
X2716768Y2706123D01*
X2762234Y2660657D01*
X2762234Y2724157D01*
X2666730Y2776989D02*
G01*
X2671302Y2763273D01*
X2680192Y2758701D01*
X2689336Y2758701D01*
X2698480Y2763273D01*
X2703052Y2772417D01*
X2707624Y2790705D01*
X2712196Y2804167D01*
X2721340Y2813311D01*
X2730230Y2817883D01*
X2743946Y2817883D01*
X2753090Y2813311D01*
X2757662Y2808739D01*
X2762234Y2795277D01*
X2762234Y2776989D01*
X2757662Y2763273D01*
X2753090Y2758701D01*
X2743946Y2754383D01*
X2730230Y2754383D01*
X2721340Y2758701D01*
X2712196Y2767845D01*
X2707624Y2781561D01*
X2703052Y2799849D01*
X2698480Y2808739D01*
X2689336Y2813311D01*
X2680192Y2813311D01*
X2671302Y2808739D01*
X2666730Y2795277D01*
X2666730Y2776989D01*
X2666730Y2917959D02*
G01*
X2762234Y2917959D01*
X2666730Y2947931D02*
G01*
X2762234Y2947931D01*
X2666730Y2947931D02*
G01*
X2666730Y2979681D01*
X2671302Y2993397D01*
X2680192Y3002541D01*
X2689336Y3007113D01*
X2703052Y3011431D01*
X2725658Y3011431D01*
X2739374Y3007113D01*
X2748518Y3002541D01*
X2757662Y2993397D01*
X2762234Y2979681D01*
X2762234Y2947931D01*
X2680192Y3175261D02*
G01*
X2671302Y3166117D01*
X2666730Y3152401D01*
X2666730Y3134367D01*
X2671302Y3120651D01*
X2680192Y3111507D01*
X2689336Y3111507D01*
X2698480Y3116079D01*
X2703052Y3120651D01*
X2707624Y3129795D01*
X2716768Y3156973D01*
X2721340Y3166117D01*
X2725658Y3170689D01*
X2734802Y3175261D01*
X2748518Y3175261D01*
X2757662Y3166117D01*
X2762234Y3152401D01*
X2762234Y3134367D01*
X2757662Y3120651D01*
X2748518Y3111507D01*
X2689336Y3273305D02*
G01*
X2680192Y3268733D01*
X2671302Y3259843D01*
X2666730Y3250699D01*
X2666730Y3232411D01*
X2671302Y3223267D01*
X2680192Y3214377D01*
X2689336Y3209805D01*
X2703052Y3205233D01*
X2725658Y3205233D01*
X2739374Y3209805D01*
X2748518Y3214377D01*
X2757662Y3223267D01*
X2762234Y3232411D01*
X2762234Y3250699D01*
X2757662Y3259843D01*
X2748518Y3268733D01*
X2739374Y3273305D01*
X2847870Y2669801D02*
G01*
X2847870Y2719839D01*
X2884192Y2692407D01*
X2884192Y2706123D01*
X2888764Y2715267D01*
X2893336Y2719839D01*
X2906798Y2724157D01*
X2915942Y2724157D01*
X2929658Y2719839D01*
X2938802Y2710695D01*
X2943374Y2696979D01*
X2943374Y2683263D01*
X2938802Y2669801D01*
X2934230Y2665229D01*
X2925086Y2660657D01*
X2847870Y2781561D02*
G01*
X2852442Y2767845D01*
X2865904Y2758701D01*
X2888764Y2754383D01*
X2902480Y2754383D01*
X2925086Y2758701D01*
X2938802Y2767845D01*
X2943374Y2781561D01*
X2943374Y2790705D01*
X2938802Y2804167D01*
X2925086Y2813311D01*
X2902480Y2817883D01*
X2888764Y2817883D01*
X2865904Y2813311D01*
X2852442Y2804167D01*
X2847870Y2790705D01*
X2847870Y2781561D01*
X2870476Y2986031D02*
G01*
X2861332Y2981459D01*
X2852442Y2972569D01*
X2847870Y2963425D01*
X2847870Y2945137D01*
X2852442Y2935993D01*
X2861332Y2927103D01*
X2870476Y2922531D01*
X2884192Y2917959D01*
X2906798Y2917959D01*
X2920514Y2922531D01*
X2929658Y2927103D01*
X2938802Y2935993D01*
X2943374Y2945137D01*
X2943374Y2963425D01*
X2938802Y2972569D01*
X2929658Y2981459D01*
X2920514Y2986031D01*
X2906798Y2986031D01*
X2906798Y2963425D02*
G01*
X2906798Y2986031D01*
X2847870Y3016003D02*
G01*
X2943374Y3016003D01*
X2847870Y3016003D02*
G01*
X2943374Y3079757D01*
X2847870Y3079757D02*
G01*
X2943374Y3079757D01*
X2847870Y3109729D02*
G01*
X2943374Y3109729D01*
X2847870Y3109729D02*
G01*
X2847870Y3141479D01*
X2852442Y3155195D01*
X2861332Y3164339D01*
X2870476Y3168911D01*
X2884192Y3173483D01*
X2906798Y3173483D01*
X2920514Y3168911D01*
X2929658Y3164339D01*
X2938802Y3155195D01*
X2943374Y3141479D01*
X2943374Y3109729D01*
X3029026Y2669801D02*
G01*
X3029026Y2719839D01*
X3065348Y2692407D01*
X3065348Y2706123D01*
X3069920Y2715267D01*
X3074492Y2719839D01*
X3087954Y2724157D01*
X3097098Y2724157D01*
X3110814Y2719839D01*
X3119958Y2710695D01*
X3124530Y2696979D01*
X3124530Y2683263D01*
X3119958Y2669801D01*
X3115386Y2665229D01*
X3106242Y2660657D01*
X3051632Y2758701D02*
G01*
X3047060Y2758701D01*
X3038170Y2763273D01*
X3033598Y2767845D01*
X3029026Y2776989D01*
X3029026Y2795277D01*
X3033598Y2804167D01*
X3038170Y2808739D01*
X3047060Y2813311D01*
X3056204Y2813311D01*
X3065348Y2808739D01*
X3079064Y2799849D01*
X3124530Y2754383D01*
X3124530Y2817883D01*
X3051632Y2986031D02*
G01*
X3042488Y2981459D01*
X3033598Y2972569D01*
X3029026Y2963425D01*
X3029026Y2945137D01*
X3033598Y2935993D01*
X3042488Y2927103D01*
X3051632Y2922531D01*
X3065348Y2917959D01*
X3087954Y2917959D01*
X3101670Y2922531D01*
X3110814Y2927103D01*
X3119958Y2935993D01*
X3124530Y2945137D01*
X3124530Y2963425D01*
X3119958Y2972569D01*
X3110814Y2981459D01*
X3101670Y2986031D01*
X3087954Y2986031D01*
X3087954Y2963425D02*
G01*
X3087954Y2986031D01*
X3029026Y3016003D02*
G01*
X3124530Y3016003D01*
X3029026Y3016003D02*
G01*
X3029026Y3056897D01*
X3033598Y3070613D01*
X3038170Y3075185D01*
X3047060Y3079757D01*
X3060776Y3079757D01*
X3069920Y3075185D01*
X3074492Y3070613D01*
X3079064Y3056897D01*
X3079064Y3016003D01*
X3029026Y3109729D02*
G01*
X3124530Y3109729D01*
X3029026Y3167133D02*
G01*
X3033598Y3157989D01*
X3042488Y3148845D01*
X3051632Y3144273D01*
X3065348Y3139701D01*
X3087954Y3139701D01*
X3101670Y3144273D01*
X3110814Y3148845D01*
X3119958Y3157989D01*
X3124530Y3167133D01*
X3124530Y3185167D01*
X3119958Y3194311D01*
X3110814Y3203455D01*
X3101670Y3208027D01*
X3087954Y3212345D01*
X3065348Y3212345D01*
X3051632Y3208027D01*
X3042488Y3203455D01*
X3033598Y3194311D01*
X3029026Y3185167D01*
X3029026Y3167133D01*
X3047060Y3312421D02*
G01*
X3042488Y3321565D01*
X3029026Y3335281D01*
X3124530Y3335281D01*
X3051632Y3369825D02*
G01*
X3047060Y3369825D01*
X3038170Y3374397D01*
X3033598Y3378715D01*
X3029026Y3387859D01*
X3029026Y3406147D01*
X3033598Y3415291D01*
X3038170Y3419609D01*
X3047060Y3424181D01*
X3056204Y3424181D01*
X3065348Y3419609D01*
X3079064Y3410719D01*
X3124530Y3365253D01*
X3124530Y3428753D01*
X3210166Y2669801D02*
G01*
X3210166Y2719839D01*
X3246488Y2692407D01*
X3246488Y2706123D01*
X3251060Y2715267D01*
X3255632Y2719839D01*
X3269094Y2724157D01*
X3278238Y2724157D01*
X3291954Y2719839D01*
X3301098Y2710695D01*
X3305670Y2696979D01*
X3305670Y2683263D01*
X3301098Y2669801D01*
X3296526Y2665229D01*
X3287382Y2660657D01*
X3210166Y2799849D02*
G01*
X3273666Y2754383D01*
X3273666Y2822455D01*
X3210166Y2799849D02*
G01*
X3305670Y2799849D01*
X3232772Y2990603D02*
G01*
X3223628Y2986031D01*
X3214738Y2976887D01*
X3210166Y2967997D01*
X3210166Y2949709D01*
X3214738Y2940565D01*
X3223628Y2931675D01*
X3232772Y2927103D01*
X3246488Y2922531D01*
X3269094Y2922531D01*
X3282810Y2927103D01*
X3291954Y2931675D01*
X3301098Y2940565D01*
X3305670Y2949709D01*
X3305670Y2967997D01*
X3301098Y2976887D01*
X3291954Y2986031D01*
X3282810Y2990603D01*
X3269094Y2990603D01*
X3269094Y2967997D02*
G01*
X3269094Y2990603D01*
X3210166Y3020575D02*
G01*
X3305670Y3020575D01*
X3210166Y3020575D02*
G01*
X3305670Y3084329D01*
X3210166Y3084329D02*
G01*
X3305670Y3084329D01*
X3210166Y3114301D02*
G01*
X3305670Y3114301D01*
X3210166Y3114301D02*
G01*
X3210166Y3146051D01*
X3214738Y3159767D01*
X3223628Y3168911D01*
X3232772Y3173483D01*
X3246488Y3177801D01*
X3269094Y3177801D01*
X3282810Y3173483D01*
X3291954Y3168911D01*
X3301098Y3159767D01*
X3305670Y3146051D01*
X3305670Y3114301D01*
X3391306Y2669801D02*
G01*
X3391306Y2719839D01*
X3427628Y2692407D01*
X3427628Y2706123D01*
X3432200Y2715267D01*
X3436772Y2719839D01*
X3450234Y2724157D01*
X3459378Y2724157D01*
X3473094Y2719839D01*
X3482238Y2710695D01*
X3486810Y2696979D01*
X3486810Y2683263D01*
X3482238Y2669801D01*
X3477666Y2665229D01*
X3468522Y2660657D01*
X3404768Y2808739D02*
G01*
X3395878Y2804167D01*
X3391306Y2790705D01*
X3391306Y2781561D01*
X3395878Y2767845D01*
X3409340Y2758701D01*
X3432200Y2754383D01*
X3454806Y2754383D01*
X3473094Y2758701D01*
X3482238Y2767845D01*
X3486810Y2781561D01*
X3486810Y2786133D01*
X3482238Y2799849D01*
X3473094Y2808739D01*
X3459378Y2813311D01*
X3454806Y2813311D01*
X3441344Y2808739D01*
X3432200Y2799849D01*
X3427628Y2786133D01*
X3427628Y2781561D01*
X3432200Y2767845D01*
X3441344Y2758701D01*
X3454806Y2754383D01*
X3413912Y2981459D02*
G01*
X3404768Y2976887D01*
X3395878Y2967997D01*
X3391306Y2958853D01*
X3391306Y2940565D01*
X3395878Y2931675D01*
X3404768Y2922531D01*
X3413912Y2917959D01*
X3427628Y2913387D01*
X3450234Y2913387D01*
X3463950Y2917959D01*
X3473094Y2922531D01*
X3482238Y2931675D01*
X3486810Y2940565D01*
X3486810Y2958853D01*
X3482238Y2967997D01*
X3473094Y2976887D01*
X3463950Y2981459D01*
X3450234Y2981459D01*
X3450234Y2958853D02*
G01*
X3450234Y2981459D01*
X3391306Y3011431D02*
G01*
X3486810Y3011431D01*
X3391306Y3011431D02*
G01*
X3391306Y3052579D01*
X3395878Y3066041D01*
X3400450Y3070613D01*
X3409340Y3075185D01*
X3423056Y3075185D01*
X3432200Y3070613D01*
X3436772Y3066041D01*
X3441344Y3052579D01*
X3441344Y3011431D01*
X3391306Y3105157D02*
G01*
X3486810Y3105157D01*
X3391306Y3162561D02*
G01*
X3395878Y3153417D01*
X3404768Y3144273D01*
X3413912Y3139701D01*
X3427628Y3135129D01*
X3450234Y3135129D01*
X3463950Y3139701D01*
X3473094Y3144273D01*
X3482238Y3153417D01*
X3486810Y3162561D01*
X3486810Y3180595D01*
X3482238Y3189739D01*
X3473094Y3198883D01*
X3463950Y3203455D01*
X3450234Y3208027D01*
X3427628Y3208027D01*
X3413912Y3203455D01*
X3404768Y3198883D01*
X3395878Y3189739D01*
X3391306Y3180595D01*
X3391306Y3162561D01*
X3409340Y3307849D02*
G01*
X3404768Y3316993D01*
X3391306Y3330709D01*
X3486810Y3330709D01*
X3391306Y3383287D02*
G01*
X3395878Y3369825D01*
X3404768Y3365253D01*
X3413912Y3365253D01*
X3423056Y3369825D01*
X3427628Y3378715D01*
X3432200Y3397003D01*
X3436772Y3410719D01*
X3445916Y3419609D01*
X3454806Y3424181D01*
X3468522Y3424181D01*
X3477666Y3419609D01*
X3482238Y3415291D01*
X3486810Y3401575D01*
X3486810Y3383287D01*
X3482238Y3369825D01*
X3477666Y3365253D01*
X3468522Y3360681D01*
X3454806Y3360681D01*
X3445916Y3365253D01*
X3436772Y3374397D01*
X3432200Y3387859D01*
X3427628Y3406147D01*
X3423056Y3415291D01*
X3413912Y3419609D01*
X3404768Y3419609D01*
X3395878Y3415291D01*
X3391306Y3401575D01*
X3391306Y3383287D01*
X3595055Y2665229D02*
G01*
X3590483Y2665229D01*
X3581593Y2669801D01*
X3577021Y2674373D01*
X3572449Y2683263D01*
X3572449Y2701551D01*
X3577021Y2710695D01*
X3581593Y2715267D01*
X3590483Y2719839D01*
X3599627Y2719839D01*
X3608771Y2715267D01*
X3622487Y2706123D01*
X3667953Y2660657D01*
X3667953Y2724157D01*
X3572449Y2776989D02*
G01*
X3577021Y2763273D01*
X3585911Y2758701D01*
X3595055Y2758701D01*
X3604199Y2763273D01*
X3608771Y2772417D01*
X3613343Y2790705D01*
X3617915Y2804167D01*
X3627059Y2813311D01*
X3635949Y2817883D01*
X3649665Y2817883D01*
X3658809Y2813311D01*
X3663381Y2808739D01*
X3667953Y2795277D01*
X3667953Y2776989D01*
X3663381Y2763273D01*
X3658809Y2758701D01*
X3649665Y2754383D01*
X3635949Y2754383D01*
X3627059Y2758701D01*
X3617915Y2767845D01*
X3613343Y2781561D01*
X3608771Y2799849D01*
X3604199Y2808739D01*
X3595055Y2813311D01*
X3585911Y2813311D01*
X3577021Y2808739D01*
X3572449Y2795277D01*
X3572449Y2776989D01*
X3595055Y2986031D02*
G01*
X3585911Y2981459D01*
X3577021Y2972569D01*
X3572449Y2963425D01*
X3572449Y2945137D01*
X3577021Y2935993D01*
X3585911Y2927103D01*
X3595055Y2922531D01*
X3608771Y2917959D01*
X3631377Y2917959D01*
X3645093Y2922531D01*
X3654237Y2927103D01*
X3663381Y2935993D01*
X3667953Y2945137D01*
X3667953Y2963425D01*
X3663381Y2972569D01*
X3654237Y2981459D01*
X3645093Y2986031D01*
X3631377Y2986031D01*
X3631377Y2963425D02*
G01*
X3631377Y2986031D01*
X3572449Y3016003D02*
G01*
X3667953Y3016003D01*
X3572449Y3016003D02*
G01*
X3572449Y3056897D01*
X3577021Y3070613D01*
X3581593Y3075185D01*
X3590483Y3079757D01*
X3604199Y3079757D01*
X3613343Y3075185D01*
X3617915Y3070613D01*
X3622487Y3056897D01*
X3622487Y3016003D01*
X3572449Y3109729D02*
G01*
X3667953Y3109729D01*
X3572449Y3167133D02*
G01*
X3577021Y3157989D01*
X3585911Y3148845D01*
X3595055Y3144273D01*
X3608771Y3139701D01*
X3631377Y3139701D01*
X3645093Y3144273D01*
X3654237Y3148845D01*
X3663381Y3157989D01*
X3667953Y3167133D01*
X3667953Y3185167D01*
X3663381Y3194311D01*
X3654237Y3203455D01*
X3645093Y3208027D01*
X3631377Y3212345D01*
X3608771Y3212345D01*
X3595055Y3208027D01*
X3585911Y3203455D01*
X3577021Y3194311D01*
X3572449Y3185167D01*
X3572449Y3167133D01*
X3595055Y3316993D02*
G01*
X3590483Y3316993D01*
X3581593Y3321565D01*
X3577021Y3326137D01*
X3572449Y3335281D01*
X3572449Y3353315D01*
X3577021Y3362459D01*
X3581593Y3367031D01*
X3590483Y3371603D01*
X3599627Y3371603D01*
X3608771Y3367031D01*
X3622487Y3357887D01*
X3667953Y3312421D01*
X3667953Y3376175D01*
X3572449Y3433325D02*
G01*
X3577021Y3419609D01*
X3590483Y3410719D01*
X3613343Y3406147D01*
X3627059Y3406147D01*
X3649665Y3410719D01*
X3663381Y3419609D01*
X3667953Y3433325D01*
X3667953Y3442469D01*
X3663381Y3456185D01*
X3649665Y3465075D01*
X3627059Y3469647D01*
X3613343Y3469647D01*
X3590483Y3465075D01*
X3577021Y3456185D01*
X3572449Y3442469D01*
X3572449Y3433325D01*
X1054483Y2698757D02*
G01*
X1049911Y2707901D01*
X1036449Y2721363D01*
X1131953Y2721363D01*
X1036449Y2778767D02*
G01*
X1041021Y2765051D01*
X1054483Y2755907D01*
X1077343Y2751589D01*
X1091059Y2751589D01*
X1113665Y2755907D01*
X1127381Y2765051D01*
X1131953Y2778767D01*
X1131953Y2787911D01*
X1127381Y2801373D01*
X1113665Y2810517D01*
X1091059Y2815089D01*
X1077343Y2815089D01*
X1054483Y2810517D01*
X1041021Y2801373D01*
X1036449Y2787911D01*
X1036449Y2778767D01*
X1059055Y2983237D02*
G01*
X1049911Y2978665D01*
X1041021Y2969775D01*
X1036449Y2960631D01*
X1036449Y2942343D01*
X1041021Y2933199D01*
X1049911Y2924309D01*
X1059055Y2919737D01*
X1072771Y2915165D01*
X1095377Y2915165D01*
X1109093Y2919737D01*
X1118237Y2924309D01*
X1127381Y2933199D01*
X1131953Y2942343D01*
X1131953Y2960631D01*
X1127381Y2969775D01*
X1118237Y2978665D01*
X1109093Y2983237D01*
X1095377Y2983237D01*
X1095377Y2960631D02*
G01*
X1095377Y2983237D01*
X1036449Y3013209D02*
G01*
X1131953Y3013209D01*
X1036449Y3013209D02*
G01*
X1036449Y3054103D01*
X1041021Y3067819D01*
X1045593Y3072391D01*
X1054483Y3076963D01*
X1068199Y3076963D01*
X1077343Y3072391D01*
X1081915Y3067819D01*
X1086487Y3054103D01*
X1086487Y3013209D01*
X1036449Y3106935D02*
G01*
X1131953Y3106935D01*
X1036449Y3164085D02*
G01*
X1041021Y3155195D01*
X1049911Y3146051D01*
X1059055Y3141479D01*
X1072771Y3136907D01*
X1095377Y3136907D01*
X1109093Y3141479D01*
X1118237Y3146051D01*
X1127381Y3155195D01*
X1131953Y3164085D01*
X1131953Y3182373D01*
X1127381Y3191517D01*
X1118237Y3200661D01*
X1109093Y3205233D01*
X1095377Y3209551D01*
X1072771Y3209551D01*
X1059055Y3205233D01*
X1049911Y3200661D01*
X1041021Y3191517D01*
X1036449Y3182373D01*
X1036449Y3164085D01*
X1054483Y3309627D02*
G01*
X1049911Y3318771D01*
X1036449Y3332487D01*
X1131953Y3332487D01*
X1036449Y3416815D02*
G01*
X1036449Y3371349D01*
X1077343Y3367031D01*
X1072771Y3371349D01*
X1068199Y3385065D01*
X1068199Y3398781D01*
X1072771Y3412497D01*
X1081915Y3421387D01*
X1095377Y3425959D01*
X1104521Y3425959D01*
X1118237Y3421387D01*
X1127381Y3412497D01*
X1131953Y3398781D01*
X1131953Y3385065D01*
X1127381Y3371349D01*
X1122809Y3367031D01*
X1113665Y3362459D01*
X1235626Y2698757D02*
G01*
X1231054Y2707901D01*
X1217592Y2721363D01*
X1313096Y2721363D01*
X1240198Y2755907D02*
G01*
X1235626Y2755907D01*
X1226736Y2760479D01*
X1222164Y2765051D01*
X1217592Y2774195D01*
X1217592Y2792483D01*
X1222164Y2801373D01*
X1226736Y2805945D01*
X1235626Y2810517D01*
X1244770Y2810517D01*
X1253914Y2805945D01*
X1267630Y2796801D01*
X1313096Y2751589D01*
X1313096Y2815089D01*
X1240198Y2983237D02*
G01*
X1231054Y2978665D01*
X1222164Y2969775D01*
X1217592Y2960631D01*
X1217592Y2942343D01*
X1222164Y2933199D01*
X1231054Y2924309D01*
X1240198Y2919737D01*
X1253914Y2915165D01*
X1276520Y2915165D01*
X1290236Y2919737D01*
X1299380Y2924309D01*
X1308524Y2933199D01*
X1313096Y2942343D01*
X1313096Y2960631D01*
X1308524Y2969775D01*
X1299380Y2978665D01*
X1290236Y2983237D01*
X1276520Y2983237D01*
X1276520Y2960631D02*
G01*
X1276520Y2983237D01*
X1217592Y3013209D02*
G01*
X1313096Y3013209D01*
X1217592Y3013209D02*
G01*
X1217592Y3054103D01*
X1222164Y3067819D01*
X1226736Y3072391D01*
X1235626Y3076963D01*
X1249342Y3076963D01*
X1258486Y3072391D01*
X1263058Y3067819D01*
X1267630Y3054103D01*
X1267630Y3013209D01*
X1217592Y3106935D02*
G01*
X1313096Y3106935D01*
X1217592Y3164085D02*
G01*
X1222164Y3155195D01*
X1231054Y3146051D01*
X1240198Y3141479D01*
X1253914Y3136907D01*
X1276520Y3136907D01*
X1290236Y3141479D01*
X1299380Y3146051D01*
X1308524Y3155195D01*
X1313096Y3164085D01*
X1313096Y3182373D01*
X1308524Y3191517D01*
X1299380Y3200661D01*
X1290236Y3205233D01*
X1276520Y3209551D01*
X1253914Y3209551D01*
X1240198Y3205233D01*
X1231054Y3200661D01*
X1222164Y3191517D01*
X1217592Y3182373D01*
X1217592Y3164085D01*
X1235626Y3309627D02*
G01*
X1231054Y3318771D01*
X1217592Y3332487D01*
X1313096Y3332487D01*
X1217592Y3385065D02*
G01*
X1222164Y3371349D01*
X1231054Y3367031D01*
X1240198Y3367031D01*
X1249342Y3371349D01*
X1253914Y3380493D01*
X1258486Y3398781D01*
X1263058Y3412497D01*
X1272202Y3421387D01*
X1281092Y3425959D01*
X1294808Y3425959D01*
X1303952Y3421387D01*
X1308524Y3416815D01*
X1313096Y3403353D01*
X1313096Y3385065D01*
X1308524Y3371349D01*
X1303952Y3367031D01*
X1294808Y3362459D01*
X1281092Y3362459D01*
X1272202Y3367031D01*
X1263058Y3375921D01*
X1258486Y3389637D01*
X1253914Y3407925D01*
X1249342Y3416815D01*
X1240198Y3421387D01*
X1231054Y3421387D01*
X1222164Y3416815D01*
X1217592Y3403353D01*
X1217592Y3385065D01*
X311886Y1925838D02*
G01*
X316458Y1912376D01*
X329920Y1903232D01*
X352780Y1898660D01*
X366496Y1898660D01*
X389102Y1903232D01*
X402818Y1912376D01*
X407390Y1925838D01*
X407390Y1934982D01*
X402818Y1948698D01*
X389102Y1957842D01*
X366496Y1962160D01*
X352780Y1962160D01*
X329920Y1957842D01*
X316458Y1948698D01*
X311886Y1934982D01*
X311886Y1925838D01*
X329920Y1992386D02*
G01*
X325348Y2001276D01*
X311886Y2014992D01*
X407390Y2014992D01*
X311889Y1501401D02*
G01*
X311889Y1551439D01*
X348211Y1524007D01*
X348211Y1537723D01*
X352783Y1546867D01*
X357355Y1551439D01*
X370817Y1555757D01*
X379961Y1555757D01*
X393677Y1551439D01*
X402821Y1542295D01*
X407393Y1528579D01*
X407393Y1514863D01*
X402821Y1501401D01*
X398249Y1496829D01*
X389105Y1492257D01*
X311889Y1585983D02*
G01*
X407393Y1622305D01*
X311889Y1658627D02*
G01*
X407393Y1622305D01*
X311889Y1697743D02*
G01*
X311889Y1747781D01*
X348211Y1720349D01*
X348211Y1734065D01*
X352783Y1743209D01*
X357355Y1747781D01*
X370817Y1752353D01*
X379961Y1752353D01*
X393677Y1747781D01*
X402821Y1738637D01*
X407393Y1724921D01*
X407393Y1711459D01*
X402821Y1697743D01*
X398249Y1693171D01*
X389105Y1688599D01*
X493029Y1925838D02*
G01*
X497601Y1912376D01*
X511063Y1903232D01*
X533923Y1898660D01*
X547639Y1898660D01*
X570245Y1903232D01*
X583961Y1912376D01*
X588533Y1925838D01*
X588533Y1934982D01*
X583961Y1948698D01*
X570245Y1957842D01*
X547639Y1962160D01*
X533923Y1962160D01*
X511063Y1957842D01*
X497601Y1948698D01*
X493029Y1934982D01*
X493029Y1925838D01*
X493029Y2001276D02*
G01*
X493029Y2051314D01*
X529351Y2024136D01*
X529351Y2037852D01*
X533923Y2046742D01*
X538495Y2051314D01*
X551957Y2055886D01*
X561101Y2055886D01*
X574817Y2051314D01*
X583961Y2042170D01*
X588533Y2028708D01*
X588533Y2014992D01*
X583961Y2001276D01*
X579389Y1996704D01*
X570245Y1992386D01*
X674171Y1925838D02*
G01*
X678743Y1912376D01*
X692205Y1903232D01*
X715065Y1898660D01*
X728781Y1898660D01*
X751387Y1903232D01*
X765103Y1912376D01*
X769675Y1925838D01*
X769675Y1934982D01*
X765103Y1948698D01*
X751387Y1957842D01*
X728781Y1962160D01*
X715065Y1962160D01*
X692205Y1957842D01*
X678743Y1948698D01*
X674171Y1934982D01*
X674171Y1925838D01*
X674171Y2046742D02*
G01*
X674171Y2001276D01*
X715065Y1996704D01*
X710493Y2001276D01*
X705921Y2014992D01*
X705921Y2028708D01*
X710493Y2042170D01*
X719637Y2051314D01*
X733099Y2055886D01*
X742243Y2055886D01*
X755959Y2051314D01*
X765103Y2042170D01*
X769675Y2028708D01*
X769675Y2014992D01*
X765103Y2001276D01*
X760531Y1996704D01*
X751387Y1992386D01*
X855311Y1925838D02*
G01*
X859883Y1912376D01*
X873345Y1903232D01*
X896205Y1898660D01*
X909921Y1898660D01*
X932527Y1903232D01*
X946243Y1912376D01*
X950815Y1925838D01*
X950815Y1934982D01*
X946243Y1948698D01*
X932527Y1957842D01*
X909921Y1962160D01*
X896205Y1962160D01*
X873345Y1957842D01*
X859883Y1948698D01*
X855311Y1934982D01*
X855311Y1925838D01*
X855311Y2055886D02*
G01*
X950815Y2010420D01*
X855311Y1992386D02*
G01*
X855311Y2055886D01*
X1036454Y1925838D02*
G01*
X1041026Y1912376D01*
X1054488Y1903232D01*
X1077348Y1898660D01*
X1091064Y1898660D01*
X1113670Y1903232D01*
X1127386Y1912376D01*
X1131958Y1925838D01*
X1131958Y1934982D01*
X1127386Y1948698D01*
X1113670Y1957842D01*
X1091064Y1962160D01*
X1077348Y1962160D01*
X1054488Y1957842D01*
X1041026Y1948698D01*
X1036454Y1934982D01*
X1036454Y1925838D01*
X1068204Y2051314D02*
G01*
X1081920Y2046742D01*
X1091064Y2037852D01*
X1095382Y2024136D01*
X1095382Y2019564D01*
X1091064Y2005848D01*
X1081920Y1996704D01*
X1068204Y1992386D01*
X1063632Y1992386D01*
X1049916Y1996704D01*
X1041026Y2005848D01*
X1036454Y2019564D01*
X1036454Y2024136D01*
X1041026Y2037852D01*
X1049916Y2046742D01*
X1068204Y2051314D01*
X1091064Y2051314D01*
X1113670Y2046742D01*
X1127386Y2037852D01*
X1131958Y2024136D01*
X1131958Y2014992D01*
X1127386Y2001276D01*
X1118242Y1996704D01*
X1235631Y1898660D02*
G01*
X1231059Y1907804D01*
X1217597Y1921266D01*
X1313101Y1921266D01*
X1235631Y1951492D02*
G01*
X1231059Y1960382D01*
X1217597Y1974098D01*
X1313101Y1974098D01*
X1416773Y1898660D02*
G01*
X1412201Y1907804D01*
X1398739Y1921266D01*
X1494243Y1921266D01*
X1398739Y1960382D02*
G01*
X1398739Y2010420D01*
X1435061Y1983242D01*
X1435061Y1996704D01*
X1439633Y2005848D01*
X1444205Y2010420D01*
X1457667Y2014992D01*
X1466811Y2014992D01*
X1480527Y2010420D01*
X1489671Y2001276D01*
X1494243Y1987814D01*
X1494243Y1974098D01*
X1489671Y1960382D01*
X1485099Y1955810D01*
X1475955Y1951492D01*
X1597916Y1898660D02*
G01*
X1593344Y1907804D01*
X1579882Y1921266D01*
X1675386Y1921266D01*
X1579882Y2005848D02*
G01*
X1579882Y1960382D01*
X1620776Y1955810D01*
X1616204Y1960382D01*
X1611632Y1974098D01*
X1611632Y1987814D01*
X1616204Y2001276D01*
X1625348Y2010420D01*
X1638810Y2014992D01*
X1647954Y2014992D01*
X1661670Y2010420D01*
X1670814Y2001276D01*
X1675386Y1987814D01*
X1675386Y1974098D01*
X1670814Y1960382D01*
X1666242Y1955810D01*
X1657098Y1951492D01*
X1779056Y1898660D02*
G01*
X1774484Y1907804D01*
X1761022Y1921266D01*
X1856526Y1921266D01*
X1761022Y2014992D02*
G01*
X1856526Y1969526D01*
X1761022Y1951492D02*
G01*
X1761022Y2014992D01*
X1960199Y1898660D02*
G01*
X1955627Y1907804D01*
X1942165Y1921266D01*
X2037669Y1921266D01*
X1973915Y2010420D02*
G01*
X1987631Y2005848D01*
X1996775Y1996704D01*
X2001093Y1983242D01*
X2001093Y1978670D01*
X1996775Y1964954D01*
X1987631Y1955810D01*
X1973915Y1951492D01*
X1969343Y1951492D01*
X1955627Y1955810D01*
X1946737Y1964954D01*
X1942165Y1978670D01*
X1942165Y1983242D01*
X1946737Y1996704D01*
X1955627Y2005848D01*
X1973915Y2010420D01*
X1996775Y2010420D01*
X2019381Y2005848D01*
X2033097Y1996704D01*
X2037669Y1983242D01*
X2037669Y1974098D01*
X2033097Y1960382D01*
X2023953Y1955810D01*
X2145913Y1903232D02*
G01*
X2141341Y1903232D01*
X2132451Y1907804D01*
X2127879Y1912376D01*
X2123307Y1921266D01*
X2123307Y1939554D01*
X2127879Y1948698D01*
X2132451Y1953270D01*
X2141341Y1957842D01*
X2150485Y1957842D01*
X2159629Y1953270D01*
X2173345Y1944126D01*
X2218811Y1898660D01*
X2218811Y1962160D01*
X2141341Y1992386D02*
G01*
X2136769Y2001276D01*
X2123307Y2014992D01*
X2218811Y2014992D01*
X2327056Y1903232D02*
G01*
X2322484Y1903232D01*
X2313594Y1907804D01*
X2309022Y1912376D01*
X2304450Y1921266D01*
X2304450Y1939554D01*
X2309022Y1948698D01*
X2313594Y1953270D01*
X2322484Y1957842D01*
X2331628Y1957842D01*
X2340772Y1953270D01*
X2354488Y1944126D01*
X2399954Y1898660D01*
X2399954Y1962160D01*
X2304450Y2001276D02*
G01*
X2304450Y2051314D01*
X2340772Y2024136D01*
X2340772Y2037852D01*
X2345344Y2046742D01*
X2349916Y2051314D01*
X2363378Y2055886D01*
X2372522Y2055886D01*
X2386238Y2051314D01*
X2395382Y2042170D01*
X2399954Y2028708D01*
X2399954Y2014992D01*
X2395382Y2001276D01*
X2390810Y1996704D01*
X2381666Y1992386D01*
X2508196Y1903232D02*
G01*
X2503624Y1903232D01*
X2494734Y1907804D01*
X2490162Y1912376D01*
X2485590Y1921266D01*
X2485590Y1939554D01*
X2490162Y1948698D01*
X2494734Y1953270D01*
X2503624Y1957842D01*
X2512768Y1957842D01*
X2521912Y1953270D01*
X2535628Y1944126D01*
X2581094Y1898660D01*
X2581094Y1962160D01*
X2485590Y2046742D02*
G01*
X2485590Y2001276D01*
X2526484Y1996704D01*
X2521912Y2001276D01*
X2517340Y2014992D01*
X2517340Y2028708D01*
X2521912Y2042170D01*
X2531056Y2051314D01*
X2544518Y2055886D01*
X2553662Y2055886D01*
X2567378Y2051314D01*
X2576522Y2042170D01*
X2581094Y2028708D01*
X2581094Y2014992D01*
X2576522Y2001276D01*
X2571950Y1996704D01*
X2562806Y1992386D01*
X2689339Y1903232D02*
G01*
X2684767Y1903232D01*
X2675877Y1907804D01*
X2671305Y1912376D01*
X2666733Y1921266D01*
X2666733Y1939554D01*
X2671305Y1948698D01*
X2675877Y1953270D01*
X2684767Y1957842D01*
X2693911Y1957842D01*
X2703055Y1953270D01*
X2716771Y1944126D01*
X2762237Y1898660D01*
X2762237Y1962160D01*
X2666733Y2055886D02*
G01*
X2762237Y2010420D01*
X2666733Y1992386D02*
G01*
X2666733Y2055886D01*
X2870481Y1903232D02*
G01*
X2865909Y1903232D01*
X2857019Y1907804D01*
X2852447Y1912376D01*
X2847875Y1921266D01*
X2847875Y1939554D01*
X2852447Y1948698D01*
X2857019Y1953270D01*
X2865909Y1957842D01*
X2875053Y1957842D01*
X2884197Y1953270D01*
X2897913Y1944126D01*
X2943379Y1898660D01*
X2943379Y1962160D01*
X2879625Y2051314D02*
G01*
X2893341Y2046742D01*
X2902485Y2037852D01*
X2906803Y2024136D01*
X2906803Y2019564D01*
X2902485Y2005848D01*
X2893341Y1996704D01*
X2879625Y1992386D01*
X2875053Y1992386D01*
X2861337Y1996704D01*
X2852447Y2005848D01*
X2847875Y2019564D01*
X2847875Y2024136D01*
X2852447Y2037852D01*
X2861337Y2046742D01*
X2879625Y2051314D01*
X2902485Y2051314D01*
X2925091Y2046742D01*
X2938807Y2037852D01*
X2943379Y2024136D01*
X2943379Y2014992D01*
X2938807Y2001276D01*
X2929663Y1996704D01*
X3029018Y1907804D02*
G01*
X3029018Y1957842D01*
X3065340Y1930410D01*
X3065340Y1944126D01*
X3069912Y1953270D01*
X3074484Y1957842D01*
X3087946Y1962160D01*
X3097090Y1962160D01*
X3110806Y1957842D01*
X3119950Y1948698D01*
X3124522Y1934982D01*
X3124522Y1921266D01*
X3119950Y1907804D01*
X3115378Y1903232D01*
X3106234Y1898660D01*
X3047052Y1992386D02*
G01*
X3042480Y2001276D01*
X3029018Y2014992D01*
X3124522Y2014992D01*
X3210161Y1907804D02*
G01*
X3210161Y1957842D01*
X3246483Y1930410D01*
X3246483Y1944126D01*
X3251055Y1953270D01*
X3255627Y1957842D01*
X3269089Y1962160D01*
X3278233Y1962160D01*
X3291949Y1957842D01*
X3301093Y1948698D01*
X3305665Y1934982D01*
X3305665Y1921266D01*
X3301093Y1907804D01*
X3296521Y1903232D01*
X3287377Y1898660D01*
X3210161Y2001276D02*
G01*
X3210161Y2051314D01*
X3246483Y2024136D01*
X3246483Y2037852D01*
X3251055Y2046742D01*
X3255627Y2051314D01*
X3269089Y2055886D01*
X3278233Y2055886D01*
X3291949Y2051314D01*
X3301093Y2042170D01*
X3305665Y2028708D01*
X3305665Y2014992D01*
X3301093Y2001276D01*
X3296521Y1996704D01*
X3287377Y1992386D01*
X3391301Y1907804D02*
G01*
X3391301Y1957842D01*
X3427623Y1930410D01*
X3427623Y1944126D01*
X3432195Y1953270D01*
X3436767Y1957842D01*
X3450229Y1962160D01*
X3459373Y1962160D01*
X3473089Y1957842D01*
X3482233Y1948698D01*
X3486805Y1934982D01*
X3486805Y1921266D01*
X3482233Y1907804D01*
X3477661Y1903232D01*
X3468517Y1898660D01*
X3391301Y2046742D02*
G01*
X3391301Y2001276D01*
X3432195Y1996704D01*
X3427623Y2001276D01*
X3423051Y2014992D01*
X3423051Y2028708D01*
X3427623Y2042170D01*
X3436767Y2051314D01*
X3450229Y2055886D01*
X3459373Y2055886D01*
X3473089Y2051314D01*
X3482233Y2042170D01*
X3486805Y2028708D01*
X3486805Y2014992D01*
X3482233Y2001276D01*
X3477661Y1996704D01*
X3468517Y1992386D01*
X3572443Y1907804D02*
G01*
X3572443Y1957842D01*
X3608765Y1930410D01*
X3608765Y1944126D01*
X3613337Y1953270D01*
X3617909Y1957842D01*
X3631371Y1962160D01*
X3640515Y1962160D01*
X3654231Y1957842D01*
X3663375Y1948698D01*
X3667947Y1934982D01*
X3667947Y1921266D01*
X3663375Y1907804D01*
X3658803Y1903232D01*
X3649659Y1898660D01*
X3572443Y2055886D02*
G01*
X3667947Y2010420D01*
X3572443Y1992386D02*
G01*
X3572443Y2055886D01*
X515635Y1268232D02*
G01*
X506491Y1263660D01*
X497601Y1254770D01*
X493029Y1245626D01*
X493029Y1227338D01*
X497601Y1218448D01*
X506491Y1209304D01*
X515635Y1204732D01*
X529351Y1200160D01*
X551957Y1200160D01*
X565673Y1204732D01*
X574817Y1209304D01*
X583961Y1218448D01*
X588533Y1227338D01*
X588533Y1245626D01*
X583961Y1254770D01*
X574817Y1263660D01*
X565673Y1268232D01*
X551957Y1268232D01*
X551957Y1245626D02*
G01*
X551957Y1268232D01*
X493029Y1298204D02*
G01*
X588533Y1298204D01*
X493029Y1298204D02*
G01*
X493029Y1339352D01*
X497601Y1352814D01*
X502173Y1357386D01*
X511063Y1361958D01*
X524779Y1361958D01*
X533923Y1357386D01*
X538495Y1352814D01*
X543067Y1339352D01*
X543067Y1298204D01*
X493029Y1391930D02*
G01*
X588533Y1391930D01*
X493029Y1449334D02*
G01*
X497601Y1440190D01*
X506491Y1431046D01*
X515635Y1426474D01*
X529351Y1421902D01*
X551957Y1421902D01*
X565673Y1426474D01*
X574817Y1431046D01*
X583961Y1440190D01*
X588533Y1449334D01*
X588533Y1467368D01*
X583961Y1476512D01*
X574817Y1485656D01*
X565673Y1490228D01*
X551957Y1494800D01*
X529351Y1494800D01*
X515635Y1490228D01*
X506491Y1485656D01*
X497601Y1476512D01*
X493029Y1467368D01*
X493029Y1449334D01*
X493029Y1622054D02*
G01*
X497601Y1608338D01*
X511063Y1599194D01*
X533923Y1594622D01*
X547639Y1594622D01*
X570245Y1599194D01*
X583961Y1608338D01*
X588533Y1622054D01*
X588533Y1630944D01*
X583961Y1644660D01*
X570245Y1653804D01*
X547639Y1658376D01*
X533923Y1658376D01*
X511063Y1653804D01*
X497601Y1644660D01*
X493029Y1630944D01*
X493029Y1622054D01*
X515635Y1692920D02*
G01*
X511063Y1692920D01*
X502173Y1697492D01*
X497601Y1702064D01*
X493029Y1710954D01*
X493029Y1729242D01*
X497601Y1738386D01*
X502173Y1742958D01*
X511063Y1747530D01*
X520207Y1747530D01*
X529351Y1742958D01*
X543067Y1733814D01*
X588533Y1688348D01*
X588533Y1751848D01*
X696777Y1268232D02*
G01*
X687633Y1263660D01*
X678743Y1254770D01*
X674171Y1245626D01*
X674171Y1227338D01*
X678743Y1218448D01*
X687633Y1209304D01*
X696777Y1204732D01*
X710493Y1200160D01*
X733099Y1200160D01*
X746815Y1204732D01*
X755959Y1209304D01*
X765103Y1218448D01*
X769675Y1227338D01*
X769675Y1245626D01*
X765103Y1254770D01*
X755959Y1263660D01*
X746815Y1268232D01*
X733099Y1268232D01*
X733099Y1245626D02*
G01*
X733099Y1268232D01*
X674171Y1298204D02*
G01*
X769675Y1298204D01*
X674171Y1298204D02*
G01*
X674171Y1339352D01*
X678743Y1352814D01*
X683315Y1357386D01*
X692205Y1361958D01*
X705921Y1361958D01*
X715065Y1357386D01*
X719637Y1352814D01*
X724209Y1339352D01*
X724209Y1298204D01*
X674171Y1391930D02*
G01*
X769675Y1391930D01*
X674171Y1449334D02*
G01*
X678743Y1440190D01*
X687633Y1431046D01*
X696777Y1426474D01*
X710493Y1421902D01*
X733099Y1421902D01*
X746815Y1426474D01*
X755959Y1431046D01*
X765103Y1440190D01*
X769675Y1449334D01*
X769675Y1467368D01*
X765103Y1476512D01*
X755959Y1485656D01*
X746815Y1490228D01*
X733099Y1494800D01*
X710493Y1494800D01*
X696777Y1490228D01*
X687633Y1485656D01*
X678743Y1476512D01*
X674171Y1467368D01*
X674171Y1449334D01*
X674171Y1622054D02*
G01*
X678743Y1608338D01*
X692205Y1599194D01*
X715065Y1594622D01*
X728781Y1594622D01*
X751387Y1599194D01*
X765103Y1608338D01*
X769675Y1622054D01*
X769675Y1630944D01*
X765103Y1644660D01*
X751387Y1653804D01*
X728781Y1658376D01*
X715065Y1658376D01*
X692205Y1653804D01*
X678743Y1644660D01*
X674171Y1630944D01*
X674171Y1622054D01*
X674171Y1697492D02*
G01*
X674171Y1747530D01*
X710493Y1720098D01*
X710493Y1733814D01*
X715065Y1742958D01*
X719637Y1747530D01*
X733099Y1751848D01*
X742243Y1751848D01*
X755959Y1747530D01*
X765103Y1738386D01*
X769675Y1724670D01*
X769675Y1710954D01*
X765103Y1697492D01*
X760531Y1692920D01*
X751387Y1688348D01*
X877917Y1268232D02*
G01*
X868773Y1263660D01*
X859883Y1254770D01*
X855311Y1245626D01*
X855311Y1227338D01*
X859883Y1218448D01*
X868773Y1209304D01*
X877917Y1204732D01*
X891633Y1200160D01*
X914239Y1200160D01*
X927955Y1204732D01*
X937099Y1209304D01*
X946243Y1218448D01*
X950815Y1227338D01*
X950815Y1245626D01*
X946243Y1254770D01*
X937099Y1263660D01*
X927955Y1268232D01*
X914239Y1268232D01*
X914239Y1245626D02*
G01*
X914239Y1268232D01*
X855311Y1298204D02*
G01*
X950815Y1298204D01*
X855311Y1298204D02*
G01*
X855311Y1339352D01*
X859883Y1352814D01*
X864455Y1357386D01*
X873345Y1361958D01*
X887061Y1361958D01*
X896205Y1357386D01*
X900777Y1352814D01*
X905349Y1339352D01*
X905349Y1298204D01*
X855311Y1391930D02*
G01*
X950815Y1391930D01*
X855311Y1449334D02*
G01*
X859883Y1440190D01*
X868773Y1431046D01*
X877917Y1426474D01*
X891633Y1421902D01*
X914239Y1421902D01*
X927955Y1426474D01*
X937099Y1431046D01*
X946243Y1440190D01*
X950815Y1449334D01*
X950815Y1467368D01*
X946243Y1476512D01*
X937099Y1485656D01*
X927955Y1490228D01*
X914239Y1494800D01*
X891633Y1494800D01*
X877917Y1490228D01*
X868773Y1485656D01*
X859883Y1476512D01*
X855311Y1467368D01*
X855311Y1449334D01*
X855311Y1622054D02*
G01*
X859883Y1608338D01*
X873345Y1599194D01*
X896205Y1594622D01*
X909921Y1594622D01*
X932527Y1599194D01*
X946243Y1608338D01*
X950815Y1622054D01*
X950815Y1630944D01*
X946243Y1644660D01*
X932527Y1653804D01*
X909921Y1658376D01*
X896205Y1658376D01*
X873345Y1653804D01*
X859883Y1644660D01*
X855311Y1630944D01*
X855311Y1622054D01*
X855311Y1733814D02*
G01*
X918811Y1688348D01*
X918811Y1756420D01*
X855311Y1733814D02*
G01*
X950815Y1733814D01*
X1059060Y1560332D02*
G01*
X1049916Y1555760D01*
X1041026Y1546870D01*
X1036454Y1537726D01*
X1036454Y1519438D01*
X1041026Y1510548D01*
X1049916Y1501404D01*
X1059060Y1496832D01*
X1072776Y1492260D01*
X1095382Y1492260D01*
X1109098Y1496832D01*
X1118242Y1501404D01*
X1127386Y1510548D01*
X1131958Y1519438D01*
X1131958Y1537726D01*
X1127386Y1546870D01*
X1118242Y1555760D01*
X1109098Y1560332D01*
X1095382Y1560332D01*
X1095382Y1537726D02*
G01*
X1095382Y1560332D01*
X1036454Y1590304D02*
G01*
X1131958Y1590304D01*
X1036454Y1590304D02*
G01*
X1131958Y1654058D01*
X1036454Y1654058D02*
G01*
X1131958Y1654058D01*
X1036454Y1684030D02*
G01*
X1131958Y1684030D01*
X1036454Y1684030D02*
G01*
X1036454Y1715780D01*
X1041026Y1729496D01*
X1049916Y1738640D01*
X1059060Y1743212D01*
X1072776Y1747784D01*
X1095382Y1747784D01*
X1109098Y1743212D01*
X1118242Y1738640D01*
X1127386Y1729496D01*
X1131958Y1715780D01*
X1131958Y1684030D01*
X1240203Y1306332D02*
G01*
X1231059Y1301760D01*
X1222169Y1292870D01*
X1217597Y1283726D01*
X1217597Y1265438D01*
X1222169Y1256548D01*
X1231059Y1247404D01*
X1240203Y1242832D01*
X1253919Y1238260D01*
X1276525Y1238260D01*
X1290241Y1242832D01*
X1299385Y1247404D01*
X1308529Y1256548D01*
X1313101Y1265438D01*
X1313101Y1283726D01*
X1308529Y1292870D01*
X1299385Y1301760D01*
X1290241Y1306332D01*
X1276525Y1306332D01*
X1276525Y1283726D02*
G01*
X1276525Y1306332D01*
X1217597Y1336304D02*
G01*
X1313101Y1336304D01*
X1217597Y1336304D02*
G01*
X1217597Y1377452D01*
X1222169Y1390914D01*
X1226741Y1395486D01*
X1235631Y1400058D01*
X1249347Y1400058D01*
X1258491Y1395486D01*
X1263063Y1390914D01*
X1267635Y1377452D01*
X1267635Y1336304D01*
X1217597Y1430030D02*
G01*
X1313101Y1430030D01*
X1217597Y1487434D02*
G01*
X1222169Y1478290D01*
X1231059Y1469146D01*
X1240203Y1464574D01*
X1253919Y1460002D01*
X1276525Y1460002D01*
X1290241Y1464574D01*
X1299385Y1469146D01*
X1308529Y1478290D01*
X1313101Y1487434D01*
X1313101Y1505468D01*
X1308529Y1514612D01*
X1299385Y1523756D01*
X1290241Y1528328D01*
X1276525Y1532900D01*
X1253919Y1532900D01*
X1240203Y1528328D01*
X1231059Y1523756D01*
X1222169Y1514612D01*
X1217597Y1505468D01*
X1217597Y1487434D01*
X1235631Y1632722D02*
G01*
X1231059Y1641866D01*
X1217597Y1655582D01*
X1313101Y1655582D01*
X1217597Y1749054D02*
G01*
X1313101Y1703588D01*
X1217597Y1685554D02*
G01*
X1217597Y1749054D01*
X1421345Y1268232D02*
G01*
X1412201Y1263660D01*
X1403311Y1254770D01*
X1398739Y1245626D01*
X1398739Y1227338D01*
X1403311Y1218448D01*
X1412201Y1209304D01*
X1421345Y1204732D01*
X1435061Y1200160D01*
X1457667Y1200160D01*
X1471383Y1204732D01*
X1480527Y1209304D01*
X1489671Y1218448D01*
X1494243Y1227338D01*
X1494243Y1245626D01*
X1489671Y1254770D01*
X1480527Y1263660D01*
X1471383Y1268232D01*
X1457667Y1268232D01*
X1457667Y1245626D02*
G01*
X1457667Y1268232D01*
X1398739Y1298204D02*
G01*
X1494243Y1298204D01*
X1398739Y1298204D02*
G01*
X1398739Y1339352D01*
X1403311Y1352814D01*
X1407883Y1357386D01*
X1416773Y1361958D01*
X1430489Y1361958D01*
X1439633Y1357386D01*
X1444205Y1352814D01*
X1448777Y1339352D01*
X1448777Y1298204D01*
X1398739Y1391930D02*
G01*
X1494243Y1391930D01*
X1398739Y1449334D02*
G01*
X1403311Y1440190D01*
X1412201Y1431046D01*
X1421345Y1426474D01*
X1435061Y1421902D01*
X1457667Y1421902D01*
X1471383Y1426474D01*
X1480527Y1431046D01*
X1489671Y1440190D01*
X1494243Y1449334D01*
X1494243Y1467368D01*
X1489671Y1476512D01*
X1480527Y1485656D01*
X1471383Y1490228D01*
X1457667Y1494800D01*
X1435061Y1494800D01*
X1421345Y1490228D01*
X1412201Y1485656D01*
X1403311Y1476512D01*
X1398739Y1467368D01*
X1398739Y1449334D01*
X1421345Y1599194D02*
G01*
X1416773Y1599194D01*
X1407883Y1603766D01*
X1403311Y1608338D01*
X1398739Y1617482D01*
X1398739Y1635516D01*
X1403311Y1644660D01*
X1407883Y1649232D01*
X1416773Y1653804D01*
X1425917Y1653804D01*
X1435061Y1649232D01*
X1448777Y1640088D01*
X1494243Y1594622D01*
X1494243Y1658376D01*
X1398739Y1751848D02*
G01*
X1494243Y1706636D01*
X1398739Y1688348D02*
G01*
X1398739Y1751848D01*
X1602488Y1268232D02*
G01*
X1593344Y1263660D01*
X1584454Y1254770D01*
X1579882Y1245626D01*
X1579882Y1227338D01*
X1584454Y1218448D01*
X1593344Y1209304D01*
X1602488Y1204732D01*
X1616204Y1200160D01*
X1638810Y1200160D01*
X1652526Y1204732D01*
X1661670Y1209304D01*
X1670814Y1218448D01*
X1675386Y1227338D01*
X1675386Y1245626D01*
X1670814Y1254770D01*
X1661670Y1263660D01*
X1652526Y1268232D01*
X1638810Y1268232D01*
X1638810Y1245626D02*
G01*
X1638810Y1268232D01*
X1579882Y1298204D02*
G01*
X1675386Y1298204D01*
X1579882Y1298204D02*
G01*
X1579882Y1339352D01*
X1584454Y1352814D01*
X1589026Y1357386D01*
X1597916Y1361958D01*
X1611632Y1361958D01*
X1620776Y1357386D01*
X1625348Y1352814D01*
X1629920Y1339352D01*
X1629920Y1298204D01*
X1579882Y1391930D02*
G01*
X1675386Y1391930D01*
X1579882Y1449334D02*
G01*
X1584454Y1440190D01*
X1593344Y1431046D01*
X1602488Y1426474D01*
X1616204Y1421902D01*
X1638810Y1421902D01*
X1652526Y1426474D01*
X1661670Y1431046D01*
X1670814Y1440190D01*
X1675386Y1449334D01*
X1675386Y1467368D01*
X1670814Y1476512D01*
X1661670Y1485656D01*
X1652526Y1490228D01*
X1638810Y1494800D01*
X1616204Y1494800D01*
X1602488Y1490228D01*
X1593344Y1485656D01*
X1584454Y1476512D01*
X1579882Y1467368D01*
X1579882Y1449334D01*
X1602488Y1599194D02*
G01*
X1597916Y1599194D01*
X1589026Y1603766D01*
X1584454Y1608338D01*
X1579882Y1617482D01*
X1579882Y1635516D01*
X1584454Y1644660D01*
X1589026Y1649232D01*
X1597916Y1653804D01*
X1607060Y1653804D01*
X1616204Y1649232D01*
X1629920Y1640088D01*
X1675386Y1594622D01*
X1675386Y1658376D01*
X1602488Y1692920D02*
G01*
X1597916Y1692920D01*
X1589026Y1697492D01*
X1584454Y1702064D01*
X1579882Y1710954D01*
X1579882Y1729242D01*
X1584454Y1738386D01*
X1589026Y1742958D01*
X1597916Y1747530D01*
X1607060Y1747530D01*
X1616204Y1742958D01*
X1629920Y1733814D01*
X1675386Y1688348D01*
X1675386Y1751848D01*
X1761025Y1501401D02*
G01*
X1761025Y1551439D01*
X1797347Y1524007D01*
X1797347Y1537723D01*
X1801919Y1546867D01*
X1806491Y1551439D01*
X1819953Y1555757D01*
X1829097Y1555757D01*
X1842813Y1551439D01*
X1851957Y1542295D01*
X1856529Y1528579D01*
X1856529Y1514863D01*
X1851957Y1501401D01*
X1847385Y1496829D01*
X1838241Y1492257D01*
X1761025Y1585983D02*
G01*
X1856529Y1622305D01*
X1761025Y1658627D02*
G01*
X1856529Y1622305D01*
X1761025Y1697743D02*
G01*
X1761025Y1747781D01*
X1797347Y1720349D01*
X1797347Y1734065D01*
X1801919Y1743209D01*
X1806491Y1747781D01*
X1819953Y1752353D01*
X1829097Y1752353D01*
X1842813Y1747781D01*
X1851957Y1738637D01*
X1856529Y1724921D01*
X1856529Y1711459D01*
X1851957Y1697743D01*
X1847385Y1693171D01*
X1838241Y1688599D01*
X1964771Y1306332D02*
G01*
X1955627Y1301760D01*
X1946737Y1292870D01*
X1942165Y1283726D01*
X1942165Y1265438D01*
X1946737Y1256548D01*
X1955627Y1247404D01*
X1964771Y1242832D01*
X1978487Y1238260D01*
X2001093Y1238260D01*
X2014809Y1242832D01*
X2023953Y1247404D01*
X2033097Y1256548D01*
X2037669Y1265438D01*
X2037669Y1283726D01*
X2033097Y1292870D01*
X2023953Y1301760D01*
X2014809Y1306332D01*
X2001093Y1306332D01*
X2001093Y1283726D02*
G01*
X2001093Y1306332D01*
X1942165Y1336304D02*
G01*
X2037669Y1336304D01*
X1942165Y1336304D02*
G01*
X1942165Y1377452D01*
X1946737Y1390914D01*
X1951309Y1395486D01*
X1960199Y1400058D01*
X1973915Y1400058D01*
X1983059Y1395486D01*
X1987631Y1390914D01*
X1992203Y1377452D01*
X1992203Y1336304D01*
X1942165Y1430030D02*
G01*
X2037669Y1430030D01*
X1942165Y1487434D02*
G01*
X1946737Y1478290D01*
X1955627Y1469146D01*
X1964771Y1464574D01*
X1978487Y1460002D01*
X2001093Y1460002D01*
X2014809Y1464574D01*
X2023953Y1469146D01*
X2033097Y1478290D01*
X2037669Y1487434D01*
X2037669Y1505468D01*
X2033097Y1514612D01*
X2023953Y1523756D01*
X2014809Y1528328D01*
X2001093Y1532900D01*
X1978487Y1532900D01*
X1964771Y1528328D01*
X1955627Y1523756D01*
X1946737Y1514612D01*
X1942165Y1505468D01*
X1942165Y1487434D01*
X1960199Y1632722D02*
G01*
X1955627Y1641866D01*
X1942165Y1655582D01*
X2037669Y1655582D01*
X1942165Y1712732D02*
G01*
X1946737Y1699270D01*
X1960199Y1690126D01*
X1983059Y1685554D01*
X1996775Y1685554D01*
X2019381Y1690126D01*
X2033097Y1699270D01*
X2037669Y1712732D01*
X2037669Y1721876D01*
X2033097Y1735592D01*
X2019381Y1744736D01*
X1996775Y1749054D01*
X1983059Y1749054D01*
X1960199Y1744736D01*
X1946737Y1735592D01*
X1942165Y1721876D01*
X1942165Y1712732D01*
X2145911Y1268232D02*
G01*
X2136767Y1263660D01*
X2127877Y1254770D01*
X2123305Y1245626D01*
X2123305Y1227338D01*
X2127877Y1218448D01*
X2136767Y1209304D01*
X2145911Y1204732D01*
X2159627Y1200160D01*
X2182233Y1200160D01*
X2195949Y1204732D01*
X2205093Y1209304D01*
X2214237Y1218448D01*
X2218809Y1227338D01*
X2218809Y1245626D01*
X2214237Y1254770D01*
X2205093Y1263660D01*
X2195949Y1268232D01*
X2182233Y1268232D01*
X2182233Y1245626D02*
G01*
X2182233Y1268232D01*
X2123305Y1298204D02*
G01*
X2218809Y1298204D01*
X2123305Y1298204D02*
G01*
X2123305Y1339352D01*
X2127877Y1352814D01*
X2132449Y1357386D01*
X2141339Y1361958D01*
X2155055Y1361958D01*
X2164199Y1357386D01*
X2168771Y1352814D01*
X2173343Y1339352D01*
X2173343Y1298204D01*
X2123305Y1391930D02*
G01*
X2218809Y1391930D01*
X2123305Y1449334D02*
G01*
X2127877Y1440190D01*
X2136767Y1431046D01*
X2145911Y1426474D01*
X2159627Y1421902D01*
X2182233Y1421902D01*
X2195949Y1426474D01*
X2205093Y1431046D01*
X2214237Y1440190D01*
X2218809Y1449334D01*
X2218809Y1467368D01*
X2214237Y1476512D01*
X2205093Y1485656D01*
X2195949Y1490228D01*
X2182233Y1494800D01*
X2159627Y1494800D01*
X2145911Y1490228D01*
X2136767Y1485656D01*
X2127877Y1476512D01*
X2123305Y1467368D01*
X2123305Y1449334D01*
X2123305Y1622054D02*
G01*
X2127877Y1608338D01*
X2141339Y1599194D01*
X2164199Y1594622D01*
X2177915Y1594622D01*
X2200521Y1599194D01*
X2214237Y1608338D01*
X2218809Y1622054D01*
X2218809Y1630944D01*
X2214237Y1644660D01*
X2200521Y1653804D01*
X2177915Y1658376D01*
X2164199Y1658376D01*
X2141339Y1653804D01*
X2127877Y1644660D01*
X2123305Y1630944D01*
X2123305Y1622054D01*
X2155055Y1747530D02*
G01*
X2168771Y1742958D01*
X2177915Y1733814D01*
X2182233Y1720098D01*
X2182233Y1715526D01*
X2177915Y1702064D01*
X2168771Y1692920D01*
X2155055Y1688348D01*
X2150483Y1688348D01*
X2136767Y1692920D01*
X2127877Y1702064D01*
X2123305Y1715526D01*
X2123305Y1720098D01*
X2127877Y1733814D01*
X2136767Y1742958D01*
X2155055Y1747530D01*
X2177915Y1747530D01*
X2200521Y1742958D01*
X2214237Y1733814D01*
X2218809Y1720098D01*
X2218809Y1710954D01*
X2214237Y1697492D01*
X2205093Y1692920D01*
X2327054Y1344432D02*
G01*
X2317910Y1339860D01*
X2309020Y1330970D01*
X2304448Y1321826D01*
X2304448Y1303538D01*
X2309020Y1294648D01*
X2317910Y1285504D01*
X2327054Y1280932D01*
X2340770Y1276360D01*
X2363376Y1276360D01*
X2377092Y1280932D01*
X2386236Y1285504D01*
X2395380Y1294648D01*
X2399952Y1303538D01*
X2399952Y1321826D01*
X2395380Y1330970D01*
X2386236Y1339860D01*
X2377092Y1344432D01*
X2363376Y1344432D01*
X2363376Y1321826D02*
G01*
X2363376Y1344432D01*
X2304448Y1374404D02*
G01*
X2399952Y1374404D01*
X2304448Y1374404D02*
G01*
X2304448Y1415552D01*
X2309020Y1429014D01*
X2313592Y1433586D01*
X2322482Y1438158D01*
X2336198Y1438158D01*
X2345342Y1433586D01*
X2349914Y1429014D01*
X2354486Y1415552D01*
X2354486Y1374404D01*
X2304448Y1468130D02*
G01*
X2399952Y1468130D01*
X2304448Y1525534D02*
G01*
X2309020Y1516390D01*
X2317910Y1507246D01*
X2327054Y1502674D01*
X2340770Y1498102D01*
X2363376Y1498102D01*
X2377092Y1502674D01*
X2386236Y1507246D01*
X2395380Y1516390D01*
X2399952Y1525534D01*
X2399952Y1543568D01*
X2395380Y1552712D01*
X2386236Y1561856D01*
X2377092Y1566428D01*
X2363376Y1571000D01*
X2340770Y1571000D01*
X2327054Y1566428D01*
X2317910Y1561856D01*
X2309020Y1552712D01*
X2304448Y1543568D01*
X2304448Y1525534D01*
X2322482Y1670822D02*
G01*
X2317910Y1679966D01*
X2304448Y1693682D01*
X2399952Y1693682D01*
X2322482Y1723654D02*
G01*
X2317910Y1732798D01*
X2304448Y1746260D01*
X2399952Y1746260D01*
X2508196Y1560332D02*
G01*
X2499052Y1555760D01*
X2490162Y1546870D01*
X2485590Y1537726D01*
X2485590Y1519438D01*
X2490162Y1510548D01*
X2499052Y1501404D01*
X2508196Y1496832D01*
X2521912Y1492260D01*
X2544518Y1492260D01*
X2558234Y1496832D01*
X2567378Y1501404D01*
X2576522Y1510548D01*
X2581094Y1519438D01*
X2581094Y1537726D01*
X2576522Y1546870D01*
X2567378Y1555760D01*
X2558234Y1560332D01*
X2544518Y1560332D01*
X2544518Y1537726D02*
G01*
X2544518Y1560332D01*
X2485590Y1590304D02*
G01*
X2581094Y1590304D01*
X2485590Y1590304D02*
G01*
X2581094Y1654058D01*
X2485590Y1654058D02*
G01*
X2581094Y1654058D01*
X2485590Y1684030D02*
G01*
X2581094Y1684030D01*
X2485590Y1684030D02*
G01*
X2485590Y1715780D01*
X2490162Y1729496D01*
X2499052Y1738640D01*
X2508196Y1743212D01*
X2521912Y1747784D01*
X2544518Y1747784D01*
X2558234Y1743212D01*
X2567378Y1738640D01*
X2576522Y1729496D01*
X2581094Y1715780D01*
X2581094Y1684030D01*
X2666730Y1403360D02*
G01*
X2762234Y1403360D01*
X2666730Y1433332D02*
G01*
X2762234Y1433332D01*
X2666730Y1433332D02*
G01*
X2666730Y1465082D01*
X2671302Y1478798D01*
X2680192Y1487942D01*
X2689336Y1492514D01*
X2703052Y1497086D01*
X2725658Y1497086D01*
X2739374Y1492514D01*
X2748518Y1487942D01*
X2757662Y1478798D01*
X2762234Y1465082D01*
X2762234Y1433332D01*
X2680192Y1660662D02*
G01*
X2671302Y1651518D01*
X2666730Y1637802D01*
X2666730Y1619768D01*
X2671302Y1606052D01*
X2680192Y1596908D01*
X2689336Y1596908D01*
X2698480Y1601480D01*
X2703052Y1606052D01*
X2707624Y1615196D01*
X2716768Y1642374D01*
X2721340Y1651518D01*
X2725658Y1656090D01*
X2734802Y1660662D01*
X2748518Y1660662D01*
X2757662Y1651518D01*
X2762234Y1637802D01*
X2762234Y1619768D01*
X2757662Y1606052D01*
X2748518Y1596908D01*
X2666730Y1690634D02*
G01*
X2762234Y1690634D01*
X2666730Y1690634D02*
G01*
X2666730Y1722384D01*
X2671302Y1736100D01*
X2680192Y1745244D01*
X2689336Y1749816D01*
X2703052Y1754134D01*
X2725658Y1754134D01*
X2739374Y1749816D01*
X2748518Y1745244D01*
X2757662Y1736100D01*
X2762234Y1722384D01*
X2762234Y1690634D01*
X2870479Y1268232D02*
G01*
X2861335Y1263660D01*
X2852445Y1254770D01*
X2847873Y1245626D01*
X2847873Y1227338D01*
X2852445Y1218448D01*
X2861335Y1209304D01*
X2870479Y1204732D01*
X2884195Y1200160D01*
X2906801Y1200160D01*
X2920517Y1204732D01*
X2929661Y1209304D01*
X2938805Y1218448D01*
X2943377Y1227338D01*
X2943377Y1245626D01*
X2938805Y1254770D01*
X2929661Y1263660D01*
X2920517Y1268232D01*
X2906801Y1268232D01*
X2906801Y1245626D02*
G01*
X2906801Y1268232D01*
X2847873Y1298204D02*
G01*
X2943377Y1298204D01*
X2847873Y1298204D02*
G01*
X2847873Y1339352D01*
X2852445Y1352814D01*
X2857017Y1357386D01*
X2865907Y1361958D01*
X2879623Y1361958D01*
X2888767Y1357386D01*
X2893339Y1352814D01*
X2897911Y1339352D01*
X2897911Y1298204D01*
X2847873Y1391930D02*
G01*
X2943377Y1391930D01*
X2847873Y1449334D02*
G01*
X2852445Y1440190D01*
X2861335Y1431046D01*
X2870479Y1426474D01*
X2884195Y1421902D01*
X2906801Y1421902D01*
X2920517Y1426474D01*
X2929661Y1431046D01*
X2938805Y1440190D01*
X2943377Y1449334D01*
X2943377Y1467368D01*
X2938805Y1476512D01*
X2929661Y1485656D01*
X2920517Y1490228D01*
X2906801Y1494800D01*
X2884195Y1494800D01*
X2870479Y1490228D01*
X2861335Y1485656D01*
X2852445Y1476512D01*
X2847873Y1467368D01*
X2847873Y1449334D01*
X2847873Y1622054D02*
G01*
X2852445Y1608338D01*
X2865907Y1599194D01*
X2888767Y1594622D01*
X2902483Y1594622D01*
X2925089Y1599194D01*
X2938805Y1608338D01*
X2943377Y1622054D01*
X2943377Y1630944D01*
X2938805Y1644660D01*
X2925089Y1653804D01*
X2902483Y1658376D01*
X2888767Y1658376D01*
X2865907Y1653804D01*
X2852445Y1644660D01*
X2847873Y1630944D01*
X2847873Y1622054D01*
X2847873Y1742958D02*
G01*
X2847873Y1697492D01*
X2888767Y1692920D01*
X2884195Y1697492D01*
X2879623Y1710954D01*
X2879623Y1724670D01*
X2884195Y1738386D01*
X2893339Y1747530D01*
X2906801Y1751848D01*
X2915945Y1751848D01*
X2929661Y1747530D01*
X2938805Y1738386D01*
X2943377Y1724670D01*
X2943377Y1710954D01*
X2938805Y1697492D01*
X2934233Y1692920D01*
X2925089Y1688348D01*
X3051622Y1268234D02*
G01*
X3042478Y1263662D01*
X3033588Y1254772D01*
X3029016Y1245628D01*
X3029016Y1227340D01*
X3033588Y1218450D01*
X3042478Y1209306D01*
X3051622Y1204734D01*
X3065338Y1200162D01*
X3087944Y1200162D01*
X3101660Y1204734D01*
X3110804Y1209306D01*
X3119948Y1218450D01*
X3124520Y1227340D01*
X3124520Y1245628D01*
X3119948Y1254772D01*
X3110804Y1263662D01*
X3101660Y1268234D01*
X3087944Y1268234D01*
X3087944Y1245628D02*
G01*
X3087944Y1268234D01*
X3029016Y1298206D02*
G01*
X3124520Y1298206D01*
X3029016Y1298206D02*
G01*
X3029016Y1339354D01*
X3033588Y1352816D01*
X3038160Y1357388D01*
X3047050Y1361960D01*
X3060766Y1361960D01*
X3069910Y1357388D01*
X3074482Y1352816D01*
X3079054Y1339354D01*
X3079054Y1298206D01*
X3029016Y1391932D02*
G01*
X3124520Y1391932D01*
X3029016Y1449336D02*
G01*
X3033588Y1440192D01*
X3042478Y1431048D01*
X3051622Y1426476D01*
X3065338Y1421904D01*
X3087944Y1421904D01*
X3101660Y1426476D01*
X3110804Y1431048D01*
X3119948Y1440192D01*
X3124520Y1449336D01*
X3124520Y1467370D01*
X3119948Y1476514D01*
X3110804Y1485658D01*
X3101660Y1490230D01*
X3087944Y1494802D01*
X3065338Y1494802D01*
X3051622Y1490230D01*
X3042478Y1485658D01*
X3033588Y1476514D01*
X3029016Y1467370D01*
X3029016Y1449336D01*
X3029016Y1622056D02*
G01*
X3033588Y1608340D01*
X3047050Y1599196D01*
X3069910Y1594624D01*
X3083626Y1594624D01*
X3106232Y1599196D01*
X3119948Y1608340D01*
X3124520Y1622056D01*
X3124520Y1630946D01*
X3119948Y1644662D01*
X3106232Y1653806D01*
X3083626Y1658378D01*
X3069910Y1658378D01*
X3047050Y1653806D01*
X3033588Y1644662D01*
X3029016Y1630946D01*
X3029016Y1622056D01*
X3042478Y1742960D02*
G01*
X3033588Y1738388D01*
X3029016Y1724672D01*
X3029016Y1715528D01*
X3033588Y1702066D01*
X3047050Y1692922D01*
X3069910Y1688350D01*
X3092516Y1688350D01*
X3110804Y1692922D01*
X3119948Y1702066D01*
X3124520Y1715528D01*
X3124520Y1720100D01*
X3119948Y1733816D01*
X3110804Y1742960D01*
X3097088Y1747532D01*
X3092516Y1747532D01*
X3079054Y1742960D01*
X3069910Y1733816D01*
X3065338Y1720100D01*
X3065338Y1715528D01*
X3069910Y1702066D01*
X3079054Y1692922D01*
X3092516Y1688350D01*
X3232767Y1306332D02*
G01*
X3223623Y1301760D01*
X3214733Y1292870D01*
X3210161Y1283726D01*
X3210161Y1265438D01*
X3214733Y1256548D01*
X3223623Y1247404D01*
X3232767Y1242832D01*
X3246483Y1238260D01*
X3269089Y1238260D01*
X3282805Y1242832D01*
X3291949Y1247404D01*
X3301093Y1256548D01*
X3305665Y1265438D01*
X3305665Y1283726D01*
X3301093Y1292870D01*
X3291949Y1301760D01*
X3282805Y1306332D01*
X3269089Y1306332D01*
X3269089Y1283726D02*
G01*
X3269089Y1306332D01*
X3210161Y1336304D02*
G01*
X3305665Y1336304D01*
X3210161Y1336304D02*
G01*
X3210161Y1377452D01*
X3214733Y1390914D01*
X3219305Y1395486D01*
X3228195Y1400058D01*
X3241911Y1400058D01*
X3251055Y1395486D01*
X3255627Y1390914D01*
X3260199Y1377452D01*
X3260199Y1336304D01*
X3210161Y1430030D02*
G01*
X3305665Y1430030D01*
X3210161Y1487434D02*
G01*
X3214733Y1478290D01*
X3223623Y1469146D01*
X3232767Y1464574D01*
X3246483Y1460002D01*
X3269089Y1460002D01*
X3282805Y1464574D01*
X3291949Y1469146D01*
X3301093Y1478290D01*
X3305665Y1487434D01*
X3305665Y1505468D01*
X3301093Y1514612D01*
X3291949Y1523756D01*
X3282805Y1528328D01*
X3269089Y1532900D01*
X3246483Y1532900D01*
X3232767Y1528328D01*
X3223623Y1523756D01*
X3214733Y1514612D01*
X3210161Y1505468D01*
X3210161Y1487434D01*
X3228195Y1632722D02*
G01*
X3223623Y1641866D01*
X3210161Y1655582D01*
X3305665Y1655582D01*
X3210161Y1694698D02*
G01*
X3210161Y1744736D01*
X3246483Y1717304D01*
X3246483Y1731020D01*
X3251055Y1740164D01*
X3255627Y1744736D01*
X3269089Y1749054D01*
X3278233Y1749054D01*
X3291949Y1744736D01*
X3301093Y1735592D01*
X3305665Y1721876D01*
X3305665Y1708160D01*
X3301093Y1694698D01*
X3296521Y1690126D01*
X3287377Y1685554D01*
X3413907Y1306332D02*
G01*
X3404763Y1301760D01*
X3395873Y1292870D01*
X3391301Y1283726D01*
X3391301Y1265438D01*
X3395873Y1256548D01*
X3404763Y1247404D01*
X3413907Y1242832D01*
X3427623Y1238260D01*
X3450229Y1238260D01*
X3463945Y1242832D01*
X3473089Y1247404D01*
X3482233Y1256548D01*
X3486805Y1265438D01*
X3486805Y1283726D01*
X3482233Y1292870D01*
X3473089Y1301760D01*
X3463945Y1306332D01*
X3450229Y1306332D01*
X3450229Y1283726D02*
G01*
X3450229Y1306332D01*
X3391301Y1336304D02*
G01*
X3486805Y1336304D01*
X3391301Y1336304D02*
G01*
X3391301Y1377452D01*
X3395873Y1390914D01*
X3400445Y1395486D01*
X3409335Y1400058D01*
X3423051Y1400058D01*
X3432195Y1395486D01*
X3436767Y1390914D01*
X3441339Y1377452D01*
X3441339Y1336304D01*
X3391301Y1430030D02*
G01*
X3486805Y1430030D01*
X3391301Y1487434D02*
G01*
X3395873Y1478290D01*
X3404763Y1469146D01*
X3413907Y1464574D01*
X3427623Y1460002D01*
X3450229Y1460002D01*
X3463945Y1464574D01*
X3473089Y1469146D01*
X3482233Y1478290D01*
X3486805Y1487434D01*
X3486805Y1505468D01*
X3482233Y1514612D01*
X3473089Y1523756D01*
X3463945Y1528328D01*
X3450229Y1532900D01*
X3427623Y1532900D01*
X3413907Y1528328D01*
X3404763Y1523756D01*
X3395873Y1514612D01*
X3391301Y1505468D01*
X3391301Y1487434D01*
X3409335Y1632722D02*
G01*
X3404763Y1641866D01*
X3391301Y1655582D01*
X3486805Y1655582D01*
X3423051Y1744736D02*
G01*
X3436767Y1740164D01*
X3445911Y1731020D01*
X3450229Y1717304D01*
X3450229Y1712732D01*
X3445911Y1699270D01*
X3436767Y1690126D01*
X3423051Y1685554D01*
X3418479Y1685554D01*
X3404763Y1690126D01*
X3395873Y1699270D01*
X3391301Y1712732D01*
X3391301Y1717304D01*
X3395873Y1731020D01*
X3404763Y1740164D01*
X3423051Y1744736D01*
X3445911Y1744736D01*
X3468517Y1740164D01*
X3482233Y1731020D01*
X3486805Y1717304D01*
X3486805Y1708160D01*
X3482233Y1694698D01*
X3473089Y1690126D01*
X3595047Y1268232D02*
G01*
X3585903Y1263660D01*
X3577013Y1254770D01*
X3572441Y1245626D01*
X3572441Y1227338D01*
X3577013Y1218448D01*
X3585903Y1209304D01*
X3595047Y1204732D01*
X3608763Y1200160D01*
X3631369Y1200160D01*
X3645085Y1204732D01*
X3654229Y1209304D01*
X3663373Y1218448D01*
X3667945Y1227338D01*
X3667945Y1245626D01*
X3663373Y1254770D01*
X3654229Y1263660D01*
X3645085Y1268232D01*
X3631369Y1268232D01*
X3631369Y1245626D02*
G01*
X3631369Y1268232D01*
X3572441Y1298204D02*
G01*
X3667945Y1298204D01*
X3572441Y1298204D02*
G01*
X3572441Y1339352D01*
X3577013Y1352814D01*
X3581585Y1357386D01*
X3590475Y1361958D01*
X3604191Y1361958D01*
X3613335Y1357386D01*
X3617907Y1352814D01*
X3622479Y1339352D01*
X3622479Y1298204D01*
X3572441Y1391930D02*
G01*
X3667945Y1391930D01*
X3572441Y1449334D02*
G01*
X3577013Y1440190D01*
X3585903Y1431046D01*
X3595047Y1426474D01*
X3608763Y1421902D01*
X3631369Y1421902D01*
X3645085Y1426474D01*
X3654229Y1431046D01*
X3663373Y1440190D01*
X3667945Y1449334D01*
X3667945Y1467368D01*
X3663373Y1476512D01*
X3654229Y1485656D01*
X3645085Y1490228D01*
X3631369Y1494800D01*
X3608763Y1494800D01*
X3595047Y1490228D01*
X3585903Y1485656D01*
X3577013Y1476512D01*
X3572441Y1467368D01*
X3572441Y1449334D01*
X3595047Y1599194D02*
G01*
X3590475Y1599194D01*
X3581585Y1603766D01*
X3577013Y1608338D01*
X3572441Y1617482D01*
X3572441Y1635516D01*
X3577013Y1644660D01*
X3581585Y1649232D01*
X3590475Y1653804D01*
X3599619Y1653804D01*
X3608763Y1649232D01*
X3622479Y1640088D01*
X3667945Y1594622D01*
X3667945Y1658376D01*
X3585903Y1742958D02*
G01*
X3577013Y1738386D01*
X3572441Y1724670D01*
X3572441Y1715526D01*
X3577013Y1702064D01*
X3590475Y1692920D01*
X3613335Y1688348D01*
X3635941Y1688348D01*
X3654229Y1692920D01*
X3663373Y1702064D01*
X3667945Y1715526D01*
X3667945Y1720098D01*
X3663373Y1733814D01*
X3654229Y1742958D01*
X3640513Y1747530D01*
X3635941Y1747530D01*
X3622479Y1742958D01*
X3613335Y1733814D01*
X3608763Y1720098D01*
X3608763Y1715526D01*
X3613335Y1702064D01*
X3622479Y1692920D01*
X3635941Y1688348D01*
X912599Y3613157D02*
G01*
X912599Y3694945D01*
X871451Y3724917D02*
G01*
X912599Y3797815D01*
X953493Y3724917D01*
X880595Y3965963D02*
G01*
X871451Y3961391D01*
X862561Y3952247D01*
X857989Y3943103D01*
X857989Y3925069D01*
X862561Y3915925D01*
X871451Y3906781D01*
X880595Y3902209D01*
X894311Y3897637D01*
X916917Y3897637D01*
X930633Y3902209D01*
X939777Y3906781D01*
X948921Y3915925D01*
X953493Y3925069D01*
X953493Y3943103D01*
X948921Y3952247D01*
X939777Y3961391D01*
X930633Y3965963D01*
X916917Y3965963D01*
X916917Y3943103D02*
G01*
X916917Y3965963D01*
X857989Y3995935D02*
G01*
X953493Y3995935D01*
X857989Y3995935D02*
G01*
X857989Y4036829D01*
X862561Y4050291D01*
X867133Y4054863D01*
X876023Y4059435D01*
X889739Y4059435D01*
X898883Y4054863D01*
X903455Y4050291D01*
X908027Y4036829D01*
X908027Y3995935D01*
X857989Y4089407D02*
G01*
X953493Y4089407D01*
X857989Y4146811D02*
G01*
X862561Y4137667D01*
X871451Y4128523D01*
X880595Y4123951D01*
X894311Y4119633D01*
X916917Y4119633D01*
X930633Y4123951D01*
X939777Y4128523D01*
X948921Y4137667D01*
X953493Y4146811D01*
X953493Y4164845D01*
X948921Y4173989D01*
X939777Y4183133D01*
X930633Y4187705D01*
X916917Y4192277D01*
X894311Y4192277D01*
X880595Y4187705D01*
X871451Y4183133D01*
X862561Y4173989D01*
X857989Y4164845D01*
X857989Y4146811D01*
X857989Y4319531D02*
G01*
X862561Y4305815D01*
X876023Y4296671D01*
X898883Y4292353D01*
X912599Y4292353D01*
X935205Y4296671D01*
X948921Y4305815D01*
X953493Y4319531D01*
X953493Y4328675D01*
X948921Y4342137D01*
X935205Y4351281D01*
X912599Y4355853D01*
X898883Y4355853D01*
X876023Y4351281D01*
X862561Y4342137D01*
X857989Y4328675D01*
X857989Y4319531D01*
X876023Y4385825D02*
G01*
X871451Y4394969D01*
X857989Y4408685D01*
X953493Y4408685D01*
X1090399Y3613157D02*
G01*
X1090399Y3694945D01*
X1049251Y3724917D02*
G01*
X1090399Y3797815D01*
X1131293Y3724917D01*
X1058395Y3965963D02*
G01*
X1049251Y3961391D01*
X1040361Y3952247D01*
X1035789Y3943103D01*
X1035789Y3925069D01*
X1040361Y3915925D01*
X1049251Y3906781D01*
X1058395Y3902209D01*
X1072111Y3897637D01*
X1094717Y3897637D01*
X1108433Y3902209D01*
X1117577Y3906781D01*
X1126721Y3915925D01*
X1131293Y3925069D01*
X1131293Y3943103D01*
X1126721Y3952247D01*
X1117577Y3961391D01*
X1108433Y3965963D01*
X1094717Y3965963D01*
X1094717Y3943103D02*
G01*
X1094717Y3965963D01*
X1035789Y3995935D02*
G01*
X1131293Y3995935D01*
X1035789Y3995935D02*
G01*
X1035789Y4036829D01*
X1040361Y4050291D01*
X1044933Y4054863D01*
X1053823Y4059435D01*
X1067539Y4059435D01*
X1076683Y4054863D01*
X1081255Y4050291D01*
X1085827Y4036829D01*
X1085827Y3995935D01*
X1035789Y4089407D02*
G01*
X1131293Y4089407D01*
X1035789Y4146811D02*
G01*
X1040361Y4137667D01*
X1049251Y4128523D01*
X1058395Y4123951D01*
X1072111Y4119633D01*
X1094717Y4119633D01*
X1108433Y4123951D01*
X1117577Y4128523D01*
X1126721Y4137667D01*
X1131293Y4146811D01*
X1131293Y4164845D01*
X1126721Y4173989D01*
X1117577Y4183133D01*
X1108433Y4187705D01*
X1094717Y4192277D01*
X1072111Y4192277D01*
X1058395Y4187705D01*
X1049251Y4183133D01*
X1040361Y4173989D01*
X1035789Y4164845D01*
X1035789Y4146811D01*
X1035789Y4319531D02*
G01*
X1040361Y4305815D01*
X1053823Y4296671D01*
X1076683Y4292353D01*
X1090399Y4292353D01*
X1113005Y4296671D01*
X1126721Y4305815D01*
X1131293Y4319531D01*
X1131293Y4328675D01*
X1126721Y4342137D01*
X1113005Y4351281D01*
X1090399Y4355853D01*
X1076683Y4355853D01*
X1053823Y4351281D01*
X1040361Y4342137D01*
X1035789Y4328675D01*
X1035789Y4319531D01*
X1035789Y4413257D02*
G01*
X1040361Y4399541D01*
X1053823Y4390397D01*
X1076683Y4385825D01*
X1090399Y4385825D01*
X1113005Y4390397D01*
X1126721Y4399541D01*
X1131293Y4413257D01*
X1131293Y4422147D01*
X1126721Y4435863D01*
X1113005Y4445007D01*
X1090399Y4449579D01*
X1076683Y4449579D01*
X1053823Y4445007D01*
X1040361Y4435863D01*
X1035789Y4422147D01*
X1035789Y4413257D01*
X1814296Y3613157D02*
G01*
X1814296Y3694945D01*
X1773148Y3724917D02*
G01*
X1814296Y3797815D01*
X1855190Y3724917D01*
X1773148Y3961391D02*
G01*
X1764258Y3952247D01*
X1759686Y3938531D01*
X1759686Y3920497D01*
X1764258Y3906781D01*
X1773148Y3897637D01*
X1782292Y3897637D01*
X1791436Y3902209D01*
X1796008Y3906781D01*
X1800580Y3915925D01*
X1809724Y3943103D01*
X1814296Y3952247D01*
X1818614Y3956819D01*
X1827758Y3961391D01*
X1841474Y3961391D01*
X1850618Y3952247D01*
X1855190Y3938531D01*
X1855190Y3920497D01*
X1850618Y3906781D01*
X1841474Y3897637D01*
X1759686Y3991363D02*
G01*
X1855190Y4013969D01*
X1759686Y4036829D02*
G01*
X1855190Y4013969D01*
X1759686Y4036829D02*
G01*
X1855190Y4059435D01*
X1759686Y4082295D02*
G01*
X1855190Y4059435D01*
X1759686Y4112267D02*
G01*
X1855190Y4112267D01*
X1759686Y4112267D02*
G01*
X1759686Y4144017D01*
X1764258Y4157733D01*
X1773148Y4166877D01*
X1782292Y4171449D01*
X1796008Y4175767D01*
X1818614Y4175767D01*
X1832330Y4171449D01*
X1841474Y4166877D01*
X1850618Y4157733D01*
X1855190Y4144017D01*
X1855190Y4112267D01*
X1759686Y4205993D02*
G01*
X1855190Y4205993D01*
X1759686Y4263143D02*
G01*
X1764258Y4253999D01*
X1773148Y4244855D01*
X1782292Y4240537D01*
X1796008Y4235965D01*
X1818614Y4235965D01*
X1832330Y4240537D01*
X1841474Y4244855D01*
X1850618Y4253999D01*
X1855190Y4263143D01*
X1855190Y4281431D01*
X1850618Y4290321D01*
X1841474Y4299465D01*
X1832330Y4304037D01*
X1818614Y4308609D01*
X1796008Y4308609D01*
X1782292Y4304037D01*
X1773148Y4299465D01*
X1764258Y4290321D01*
X1759686Y4281431D01*
X1759686Y4263143D01*
X2169896Y3613157D02*
G01*
X2169896Y3694945D01*
X2128748Y3724917D02*
G01*
X2169896Y3797815D01*
X2210790Y3724917D01*
X2128748Y3961391D02*
G01*
X2119858Y3952247D01*
X2115286Y3938531D01*
X2115286Y3920497D01*
X2119858Y3906781D01*
X2128748Y3897637D01*
X2137892Y3897637D01*
X2147036Y3902209D01*
X2151608Y3906781D01*
X2156180Y3915925D01*
X2165324Y3943103D01*
X2169896Y3952247D01*
X2174214Y3956819D01*
X2183358Y3961391D01*
X2197074Y3961391D01*
X2206218Y3952247D01*
X2210790Y3938531D01*
X2210790Y3920497D01*
X2206218Y3906781D01*
X2197074Y3897637D01*
X2115286Y3991363D02*
G01*
X2210790Y4013969D01*
X2115286Y4036829D02*
G01*
X2210790Y4013969D01*
X2115286Y4036829D02*
G01*
X2210790Y4059435D01*
X2115286Y4082295D02*
G01*
X2210790Y4059435D01*
X2137892Y4180339D02*
G01*
X2128748Y4175767D01*
X2119858Y4166877D01*
X2115286Y4157733D01*
X2115286Y4139445D01*
X2119858Y4130301D01*
X2128748Y4121411D01*
X2137892Y4116839D01*
X2151608Y4112267D01*
X2174214Y4112267D01*
X2187930Y4116839D01*
X2197074Y4121411D01*
X2206218Y4130301D01*
X2210790Y4139445D01*
X2210790Y4157733D01*
X2206218Y4166877D01*
X2197074Y4175767D01*
X2187930Y4180339D01*
X2115286Y4210311D02*
G01*
X2210790Y4210311D01*
X2210790Y4210311D02*
G01*
X2210790Y4264921D01*
X2115286Y4294893D02*
G01*
X2210790Y4294893D01*
X2115286Y4358647D02*
G01*
X2178786Y4294893D01*
X2156180Y4317753D02*
G01*
X2210790Y4358647D01*
X3753586Y1907809D02*
G01*
X3753586Y1957847D01*
X3789908Y1930415D01*
X3789908Y1944131D01*
X3794480Y1953275D01*
X3799052Y1957847D01*
X3812514Y1962165D01*
X3821658Y1962165D01*
X3835374Y1957847D01*
X3844518Y1948703D01*
X3849090Y1934987D01*
X3849090Y1921271D01*
X3844518Y1907809D01*
X3839946Y1903237D01*
X3830802Y1898665D01*
X3785336Y2051319D02*
G01*
X3799052Y2046747D01*
X3808196Y2037857D01*
X3812514Y2024141D01*
X3812514Y2019569D01*
X3808196Y2005853D01*
X3799052Y1996709D01*
X3785336Y1992391D01*
X3780764Y1992391D01*
X3767048Y1996709D01*
X3758158Y2005853D01*
X3753586Y2019569D01*
X3753586Y2024141D01*
X3758158Y2037857D01*
X3767048Y2046747D01*
X3785336Y2051319D01*
X3808196Y2051319D01*
X3830802Y2046747D01*
X3844518Y2037857D01*
X3849090Y2024141D01*
X3849090Y2014997D01*
X3844518Y2001281D01*
X3835374Y1996709D01*
X3776192Y1560332D02*
G01*
X3767048Y1555760D01*
X3758158Y1546870D01*
X3753586Y1537726D01*
X3753586Y1519438D01*
X3758158Y1510548D01*
X3767048Y1501404D01*
X3776192Y1496832D01*
X3789908Y1492260D01*
X3812514Y1492260D01*
X3826230Y1496832D01*
X3835374Y1501404D01*
X3844518Y1510548D01*
X3849090Y1519438D01*
X3849090Y1537726D01*
X3844518Y1546870D01*
X3835374Y1555760D01*
X3826230Y1560332D01*
X3812514Y1560332D01*
X3812514Y1537726D02*
G01*
X3812514Y1560332D01*
X3753586Y1590304D02*
G01*
X3849090Y1590304D01*
X3753586Y1590304D02*
G01*
X3849090Y1654058D01*
X3753586Y1654058D02*
G01*
X3849090Y1654058D01*
X3753586Y1684030D02*
G01*
X3849090Y1684030D01*
X3753586Y1684030D02*
G01*
X3753586Y1715780D01*
X3758158Y1729496D01*
X3767048Y1738640D01*
X3776192Y1743212D01*
X3789908Y1747784D01*
X3812514Y1747784D01*
X3826230Y1743212D01*
X3835374Y1738640D01*
X3844518Y1729496D01*
X3849090Y1715780D01*
X3849090Y1684030D01*
X3753584Y2693423D02*
G01*
X3817084Y2647957D01*
X3817084Y2716029D01*
X3753584Y2693423D02*
G01*
X3849088Y2693423D01*
X3753584Y2773433D02*
G01*
X3758156Y2759717D01*
X3771618Y2750573D01*
X3794478Y2746001D01*
X3808194Y2746001D01*
X3830800Y2750573D01*
X3844516Y2759717D01*
X3849088Y2773433D01*
X3849088Y2782577D01*
X3844516Y2796039D01*
X3830800Y2805183D01*
X3808194Y2809755D01*
X3794478Y2809755D01*
X3771618Y2805183D01*
X3758156Y2796039D01*
X3753584Y2782577D01*
X3753584Y2773433D01*
X3776190Y2977903D02*
G01*
X3767046Y2973331D01*
X3758156Y2964187D01*
X3753584Y2955297D01*
X3753584Y2937009D01*
X3758156Y2927865D01*
X3767046Y2918975D01*
X3776190Y2914403D01*
X3789906Y2909831D01*
X3812512Y2909831D01*
X3826228Y2914403D01*
X3835372Y2918975D01*
X3844516Y2927865D01*
X3849088Y2937009D01*
X3849088Y2955297D01*
X3844516Y2964187D01*
X3835372Y2973331D01*
X3826228Y2977903D01*
X3812512Y2977903D01*
X3812512Y2955297D02*
G01*
X3812512Y2977903D01*
X3753584Y3007875D02*
G01*
X3849088Y3007875D01*
X3753584Y3007875D02*
G01*
X3753584Y3048769D01*
X3758156Y3062485D01*
X3762728Y3067057D01*
X3771618Y3071629D01*
X3785334Y3071629D01*
X3794478Y3067057D01*
X3799050Y3062485D01*
X3803622Y3048769D01*
X3803622Y3007875D01*
X3753584Y3101601D02*
G01*
X3849088Y3101601D01*
X3753584Y3158751D02*
G01*
X3758156Y3149861D01*
X3767046Y3140717D01*
X3776190Y3136145D01*
X3789906Y3131573D01*
X3812512Y3131573D01*
X3826228Y3136145D01*
X3835372Y3140717D01*
X3844516Y3149861D01*
X3849088Y3158751D01*
X3849088Y3177039D01*
X3844516Y3186183D01*
X3835372Y3195327D01*
X3826228Y3199645D01*
X3812512Y3204217D01*
X3789906Y3204217D01*
X3776190Y3199645D01*
X3767046Y3195327D01*
X3758156Y3186183D01*
X3753584Y3177039D01*
X3753584Y3158751D01*
X3776190Y3308865D02*
G01*
X3771618Y3308865D01*
X3762728Y3313437D01*
X3758156Y3318009D01*
X3753584Y3327153D01*
X3753584Y3345187D01*
X3758156Y3354331D01*
X3762728Y3358903D01*
X3771618Y3363475D01*
X3780762Y3363475D01*
X3789906Y3358903D01*
X3803622Y3349759D01*
X3849088Y3304293D01*
X3849088Y3368047D01*
X3771618Y3398019D02*
G01*
X3767046Y3406909D01*
X3753584Y3420625D01*
X3849088Y3420625D01*
X6464300Y521715D02*
G01*
X6464300Y412750D01*
X6464300Y521715D02*
G01*
X6511036Y521715D01*
X6526529Y516636D01*
X6531863Y511302D01*
X6536943Y500887D01*
X6536943Y490473D01*
X6531863Y480060D01*
X6526529Y474979D01*
X6511036Y469900D01*
X6464300Y469900D01*
X6500622Y469900D02*
G01*
X6536943Y412750D01*
X6612890Y521715D02*
G01*
X6571234Y412750D01*
X6612890Y521715D02*
G01*
X6654545Y412750D01*
X6586981Y449071D02*
G01*
X6638797Y449071D01*
X6761479Y506221D02*
G01*
X6751065Y516636D01*
X6735572Y521715D01*
X6714743Y521715D01*
X6698995Y516636D01*
X6688836Y506221D01*
X6688836Y495807D01*
X6693915Y485394D01*
X6698995Y480060D01*
X6709409Y474979D01*
X6740652Y464565D01*
X6751065Y459486D01*
X6756145Y454152D01*
X6761479Y443737D01*
X6761479Y428244D01*
X6751065Y417829D01*
X6735572Y412750D01*
X6714743Y412750D01*
X6698995Y417829D01*
X6688836Y428244D01*
X6795770Y521715D02*
G01*
X6795770Y412750D01*
X6795770Y521715D02*
G01*
X6842506Y521715D01*
X6858000Y516636D01*
X6863334Y511302D01*
X6868413Y500887D01*
X6868413Y485394D01*
X6863334Y474979D01*
X6858000Y469900D01*
X6842506Y464565D01*
X6795770Y464565D01*
X6902704Y521715D02*
G01*
X6902704Y412750D01*
X6902704Y521715D02*
G01*
X6949440Y521715D01*
X6965188Y516636D01*
X6970268Y511302D01*
X6975602Y500887D01*
X6975602Y490473D01*
X6970268Y480060D01*
X6965188Y474979D01*
X6949440Y469900D01*
X6902704Y469900D02*
G01*
X6949440Y469900D01*
X6965188Y464565D01*
X6970268Y459486D01*
X6975602Y449071D01*
X6975602Y433323D01*
X6970268Y422910D01*
X6965188Y417829D01*
X6949440Y412750D01*
X6902704Y412750D01*
X7009891Y521715D02*
G01*
X7009891Y412750D01*
X7009891Y521715D02*
G01*
X7077456Y521715D01*
X7009891Y469900D02*
G01*
X7051293Y469900D01*
X7009891Y412750D02*
G01*
X7077456Y412750D01*
X7111745Y521715D02*
G01*
X7111745Y412750D01*
X7111745Y521715D02*
G01*
X7158481Y521715D01*
X7173975Y516636D01*
X7179056Y511302D01*
X7184390Y500887D01*
X7184390Y490473D01*
X7179056Y480060D01*
X7173975Y474979D01*
X7158481Y469900D01*
X7111745Y469900D01*
X7148068Y469900D02*
G01*
X7184390Y412750D01*
X7218679Y521715D02*
G01*
X7218679Y412750D01*
X7218679Y521715D02*
G01*
X7265415Y521715D01*
X7280909Y516636D01*
X7286243Y511302D01*
X7291324Y500887D01*
X7291324Y490473D01*
X7286243Y480060D01*
X7280909Y474979D01*
X7265415Y469900D01*
X7218679Y469900D01*
X7255002Y469900D02*
G01*
X7291324Y412750D01*
X7325613Y521715D02*
G01*
X7367270Y469900D01*
X7367270Y412750D01*
X7408925Y521715D02*
G01*
X7367270Y469900D01*
X7523225Y521715D02*
G01*
X7523225Y412750D01*
X7523225Y521715D02*
G01*
X7569961Y521715D01*
X7585456Y516636D01*
X7590536Y511302D01*
X7595870Y500887D01*
X7595870Y485394D01*
X7590536Y474979D01*
X7585456Y469900D01*
X7569961Y464565D01*
X7523225Y464565D01*
X7630159Y521715D02*
G01*
X7630159Y412750D01*
X7744459Y521715D02*
G01*
X7786115Y412750D01*
X7827518Y521715D02*
G01*
X7786115Y412750D01*
X7867141Y495807D02*
G01*
X7867141Y500887D01*
X7872222Y511302D01*
X7877556Y516636D01*
X7887715Y521715D01*
X7908543Y521715D01*
X7918958Y516636D01*
X7924291Y511302D01*
X7929372Y500887D01*
X7929372Y490473D01*
X7924291Y480060D01*
X7913877Y464565D01*
X7861808Y412750D01*
X7934706Y412750D01*
X8062468Y542544D02*
G01*
X7968995Y376173D01*
X8096758Y521715D02*
G01*
X8138159Y412750D01*
X8179815Y521715D02*
G01*
X8138159Y412750D01*
X8224520Y521715D02*
G01*
X8281670Y521715D01*
X8250427Y480060D01*
X8266175Y480060D01*
X8276336Y474979D01*
X8281670Y469900D01*
X8286750Y454152D01*
X8286750Y443737D01*
X8281670Y428244D01*
X8271256Y417829D01*
X8255761Y412750D01*
X8240013Y412750D01*
X8224520Y417829D01*
X8219186Y422910D01*
X8214106Y433323D01*
X8414765Y542544D02*
G01*
X8321040Y376173D01*
X8449056Y521715D02*
G01*
X8490458Y412750D01*
X8532113Y521715D02*
G01*
X8490458Y412750D01*
X8618220Y521715D02*
G01*
X8566404Y449071D01*
X8644381Y449071D01*
X8618220Y521715D02*
G01*
X8618220Y412750D01*
X1627378Y902207D02*
G01*
X1622044Y912621D01*
X1611629Y923036D01*
X1601470Y928115D01*
X1580642Y928115D01*
X1570228Y923036D01*
X1559813Y912621D01*
X1554479Y902207D01*
X1549400Y886460D01*
X1549400Y860552D01*
X1554479Y845057D01*
X1559813Y834644D01*
X1570228Y824229D01*
X1580642Y819150D01*
X1601470Y819150D01*
X1611629Y824229D01*
X1622044Y834644D01*
X1627378Y845057D01*
X1627378Y860552D01*
X1601470Y860552D02*
G01*
X1627378Y860552D01*
X1661668Y928115D02*
G01*
X1661668Y819150D01*
X1661668Y928115D02*
G01*
X1708404Y928115D01*
X1723897Y923036D01*
X1729231Y917702D01*
X1734312Y907287D01*
X1734312Y891794D01*
X1729231Y881379D01*
X1723897Y876300D01*
X1708404Y870965D01*
X1661668Y870965D01*
X1768602Y928115D02*
G01*
X1768602Y819150D01*
X1834134Y928115D02*
G01*
X1823720Y923036D01*
X1813305Y912621D01*
X1808226Y902207D01*
X1802892Y886460D01*
X1802892Y860552D01*
X1808226Y845057D01*
X1813305Y834644D01*
X1823720Y824229D01*
X1834134Y819150D01*
X1854962Y819150D01*
X1865376Y824229D01*
X1875789Y834644D01*
X1880870Y845057D01*
X1885950Y860552D01*
X1885950Y886460D01*
X1880870Y902207D01*
X1875789Y912621D01*
X1865376Y923036D01*
X1854962Y928115D01*
X1834134Y928115D01*
X2000250Y928115D02*
G01*
X2000250Y819150D01*
X2000250Y928115D02*
G01*
X2047240Y928115D01*
X2062734Y923036D01*
X2067813Y917702D01*
X2073147Y907287D01*
X2073147Y891794D01*
X2067813Y881379D01*
X2062734Y876300D01*
X2047240Y870965D01*
X2000250Y870965D01*
X2107438Y928115D02*
G01*
X2107438Y819150D01*
X2141727Y928115D02*
G01*
X2141727Y819150D01*
X2141727Y928115D02*
G01*
X2214372Y819150D01*
X2214372Y928115D02*
G01*
X2214372Y819150D01*
X2279904Y928115D02*
G01*
X2269490Y923036D01*
X2259075Y912621D01*
X2253995Y902207D01*
X2248661Y886460D01*
X2248661Y860552D01*
X2253995Y845057D01*
X2259075Y834644D01*
X2269490Y824229D01*
X2279904Y819150D01*
X2300731Y819150D01*
X2311145Y824229D01*
X2321559Y834644D01*
X2326640Y845057D01*
X2331720Y860552D01*
X2331720Y886460D01*
X2326640Y902207D01*
X2321559Y912621D01*
X2311145Y923036D01*
X2300731Y928115D01*
X2279904Y928115D01*
X2366009Y928115D02*
G01*
X2366009Y850137D01*
X2371343Y834644D01*
X2381758Y824229D01*
X2397252Y819150D01*
X2407665Y819150D01*
X2423159Y824229D01*
X2433574Y834644D01*
X2438908Y850137D01*
X2438908Y928115D01*
X2509520Y928115D02*
G01*
X2509520Y819150D01*
X2473197Y928115D02*
G01*
X2545841Y928115D01*
X776475Y227837D02*
G01*
X767585Y223265D01*
X758441Y214376D01*
X753869Y205231D01*
X749297Y191515D01*
X749297Y168910D01*
X753869Y155194D01*
X758441Y146050D01*
X767585Y136905D01*
X776475Y132334D01*
X794763Y132334D01*
X803907Y136905D01*
X813051Y146050D01*
X817369Y155194D01*
X821941Y168910D01*
X821941Y191515D01*
X817369Y205231D01*
X813051Y214376D01*
X803907Y223265D01*
X794763Y227837D01*
X776475Y227837D01*
X851913Y227837D02*
G01*
X851913Y132334D01*
X851913Y227837D02*
G01*
X915667Y132334D01*
X915667Y227837D02*
G01*
X915667Y132334D01*
X945639Y227837D02*
G01*
X945639Y132334D01*
X945639Y132334D02*
G01*
X1000249Y132334D01*
X1030221Y227837D02*
G01*
X1066543Y182371D01*
X1066543Y132334D01*
X1102865Y227837D02*
G01*
X1066543Y182371D01*
X918969Y344931D02*
G01*
X914651Y354076D01*
X905507Y362965D01*
X896363Y367537D01*
X878075Y367537D01*
X869185Y362965D01*
X860041Y354076D01*
X855469Y344931D01*
X850897Y331215D01*
X850897Y308610D01*
X855469Y294894D01*
X860041Y285750D01*
X869185Y276605D01*
X878075Y272034D01*
X896363Y272034D01*
X905507Y276605D01*
X914651Y285750D01*
X918969Y294894D01*
X918969Y308610D01*
X896363Y308610D02*
G01*
X918969Y308610D01*
X949195Y367537D02*
G01*
X949195Y272034D01*
X949195Y367537D02*
G01*
X1012695Y272034D01*
X1012695Y367537D02*
G01*
X1012695Y272034D01*
X1042667Y367537D02*
G01*
X1042667Y272034D01*
X1042667Y367537D02*
G01*
X1074417Y367537D01*
X1088133Y362965D01*
X1097277Y354076D01*
X1101849Y344931D01*
X1106421Y331215D01*
X1106421Y308610D01*
X1101849Y294894D01*
X1097277Y285750D01*
X1088133Y276605D01*
X1074417Y272034D01*
X1042667Y272034D01*
X1036063Y634237D02*
G01*
X1036063Y561594D01*
X1031491Y547878D01*
X1026919Y543305D01*
X1017775Y538734D01*
X1008885Y538734D01*
X999741Y543305D01*
X995169Y547878D01*
X990597Y561594D01*
X990597Y570737D01*
X1066035Y616204D02*
G01*
X1075179Y620776D01*
X1088895Y634237D01*
X1088895Y538734D01*
X1618477Y3921246D02*
G01*
X1624827Y3914896D01*
X1634225Y3908546D01*
X1647179Y3902196D01*
X1662927Y3898894D01*
X1675627Y3898894D01*
X1691629Y3902196D01*
X1704329Y3908546D01*
X1713981Y3914896D01*
X1720331Y3921246D01*
X1631177Y3942074D02*
G01*
X1662927Y3967728D01*
X1697979Y3967728D01*
X1631177Y3993128D02*
G01*
X1662927Y3967728D01*
X1631177Y4013956D02*
G01*
X1697979Y4013956D01*
X1631177Y4013956D02*
G01*
X1631177Y4055358D01*
X1662927Y4013956D02*
G01*
X1662927Y4039610D01*
X1697979Y4013956D02*
G01*
X1697979Y4055358D01*
X1631177Y4076440D02*
G01*
X1697979Y4076440D01*
X1697979Y4076440D02*
G01*
X1697979Y4114540D01*
X1631177Y4135622D02*
G01*
X1697979Y4135622D01*
X1697979Y4135622D02*
G01*
X1697979Y4173722D01*
X1631177Y4213854D02*
G01*
X1634225Y4207504D01*
X1640829Y4201154D01*
X1647179Y4198106D01*
X1656577Y4194804D01*
X1672579Y4194804D01*
X1681977Y4198106D01*
X1688327Y4201154D01*
X1694677Y4207504D01*
X1697979Y4213854D01*
X1697979Y4226554D01*
X1694677Y4232904D01*
X1688327Y4239254D01*
X1681977Y4242556D01*
X1672579Y4245604D01*
X1656577Y4245604D01*
X1647179Y4242556D01*
X1640829Y4239254D01*
X1634225Y4232904D01*
X1631177Y4226554D01*
X1631177Y4213854D01*
X1618477Y4266686D02*
G01*
X1624827Y4273036D01*
X1634225Y4279386D01*
X1647179Y4285736D01*
X1662927Y4289038D01*
X1675627Y4289038D01*
X1691629Y4285736D01*
X1704329Y4279386D01*
X1713981Y4273036D01*
X1720331Y4266686D01*
X2253472Y3921246D02*
G01*
X2259822Y3914896D01*
X2269220Y3908546D01*
X2282174Y3902196D01*
X2297922Y3898894D01*
X2310622Y3898894D01*
X2326624Y3902196D01*
X2339324Y3908546D01*
X2348976Y3914896D01*
X2355326Y3921246D01*
X2266172Y3961378D02*
G01*
X2269220Y3954774D01*
X2275824Y3948424D01*
X2282174Y3945376D01*
X2291572Y3942074D01*
X2307574Y3942074D01*
X2316972Y3945376D01*
X2323322Y3948424D01*
X2329672Y3954774D01*
X2332974Y3961378D01*
X2332974Y3974078D01*
X2329672Y3980428D01*
X2323322Y3986778D01*
X2316972Y3989826D01*
X2307574Y3993128D01*
X2291572Y3993128D01*
X2282174Y3989826D01*
X2275824Y3986778D01*
X2269220Y3980428D01*
X2266172Y3974078D01*
X2266172Y3961378D01*
X2266172Y4013956D02*
G01*
X2332974Y4013956D01*
X2266172Y4013956D02*
G01*
X2266172Y4042658D01*
X2269220Y4052310D01*
X2272522Y4055358D01*
X2278872Y4058660D01*
X2285222Y4058660D01*
X2291572Y4055358D01*
X2294874Y4052310D01*
X2297922Y4042658D01*
X2297922Y4013956D01*
X2297922Y4036308D02*
G01*
X2332974Y4058660D01*
X2266172Y4105142D02*
G01*
X2332974Y4079742D01*
X2266172Y4105142D02*
G01*
X2332974Y4130542D01*
X2310622Y4089140D02*
G01*
X2310622Y4120890D01*
X2266172Y4151624D02*
G01*
X2332974Y4151624D01*
X2266172Y4151624D02*
G01*
X2332974Y4196074D01*
X2266172Y4196074D02*
G01*
X2332974Y4196074D01*
X2282174Y4264908D02*
G01*
X2275824Y4261606D01*
X2269220Y4255256D01*
X2266172Y4248906D01*
X2266172Y4236206D01*
X2269220Y4229856D01*
X2275824Y4223506D01*
X2282174Y4220204D01*
X2291572Y4217156D01*
X2307574Y4217156D01*
X2316972Y4220204D01*
X2323322Y4223506D01*
X2329672Y4229856D01*
X2332974Y4236206D01*
X2332974Y4248906D01*
X2329672Y4255256D01*
X2323322Y4261606D01*
X2316972Y4264908D01*
X2307574Y4264908D01*
X2307574Y4248906D02*
G01*
X2307574Y4264908D01*
X2266172Y4285736D02*
G01*
X2332974Y4285736D01*
X2266172Y4285736D02*
G01*
X2266172Y4327138D01*
X2297922Y4285736D02*
G01*
X2297922Y4311136D01*
X2332974Y4285736D02*
G01*
X2332974Y4327138D01*
X2253472Y4348220D02*
G01*
X2259822Y4354570D01*
X2269220Y4360920D01*
X2282174Y4367270D01*
X2297922Y4370318D01*
X2310622Y4370318D01*
X2326624Y4367270D01*
X2339324Y4360920D01*
X2348976Y4354570D01*
X2355326Y4348220D01*
X1935975Y3921249D02*
G01*
X1942325Y3914899D01*
X1951723Y3908549D01*
X1964677Y3902199D01*
X1980425Y3898897D01*
X1993125Y3898897D01*
X2009127Y3902199D01*
X2021827Y3908549D01*
X2031479Y3914899D01*
X2037829Y3921249D01*
X1948675Y3942077D02*
G01*
X2015477Y3942077D01*
X1948675Y3942077D02*
G01*
X1948675Y3970779D01*
X1951723Y3980431D01*
X1955025Y3983479D01*
X1961375Y3986781D01*
X1967725Y3986781D01*
X1974075Y3983479D01*
X1977377Y3980431D01*
X1980425Y3970779D01*
X1980425Y3942077D02*
G01*
X1980425Y3970779D01*
X1983727Y3980431D01*
X1986775Y3983479D01*
X1993125Y3986781D01*
X2002777Y3986781D01*
X2009127Y3983479D01*
X2012175Y3980431D01*
X2015477Y3970779D01*
X2015477Y3942077D01*
X1948675Y4007609D02*
G01*
X2015477Y4007609D01*
X2015477Y4007609D02*
G01*
X2015477Y4045963D01*
X1948675Y4092445D02*
G01*
X2015477Y4066791D01*
X1948675Y4092445D02*
G01*
X2015477Y4117845D01*
X1993125Y4076443D02*
G01*
X1993125Y4108193D01*
X1964677Y4186425D02*
G01*
X1958327Y4183377D01*
X1951723Y4177027D01*
X1948675Y4170677D01*
X1948675Y4157977D01*
X1951723Y4151627D01*
X1958327Y4145277D01*
X1964677Y4141975D01*
X1974075Y4138927D01*
X1990077Y4138927D01*
X1999475Y4141975D01*
X2005825Y4145277D01*
X2012175Y4151627D01*
X2015477Y4157977D01*
X2015477Y4170677D01*
X2012175Y4177027D01*
X2005825Y4183377D01*
X1999475Y4186425D01*
X1948675Y4207507D02*
G01*
X2015477Y4207507D01*
X1948675Y4251957D02*
G01*
X1993125Y4207507D01*
X1977377Y4223509D02*
G01*
X2015477Y4251957D01*
X1935975Y4273039D02*
G01*
X1942325Y4279389D01*
X1951723Y4285739D01*
X1964677Y4292089D01*
X1980425Y4295391D01*
X1993125Y4295391D01*
X2009127Y4292089D01*
X2021827Y4285739D01*
X2031479Y4279389D01*
X2037829Y4273039D01*
G36*
X0Y5842000D02*
G01*
X0Y5588000D01*
X254000Y5842000D01*
G37*
G36*
X12786106Y254000D02*
G01*
X12532106Y0D01*
X12786106Y0D01*
G37*
D11*
G75*
G01
X387350Y2432050D02*
G03X387350Y2432050I-25400J0D01*
G75*
G01
X568477Y2432050D02*
G03X568477Y2432050I-25400J0D01*
G75*
G01
X749630Y2432050D02*
G03X749630Y2432050I-25400J0D01*
G75*
G01
X930783Y2432050D02*
G03X930783Y2432050I-25400J0D01*
G75*
G01
X1111910Y2432050D02*
G03X1111910Y2432050I-25400J0D01*
G75*
G01
X1293063Y2432050D02*
G03X1293063Y2432050I-25400J0D01*
G75*
G01
X1474191Y2432050D02*
G03X1474191Y2432050I-25400J0D01*
G75*
G01
X1655343Y2432050D02*
G03X1655343Y2432050I-25400J0D01*
G75*
G01
X1836471Y2432050D02*
G03X1836471Y2432050I-25400J0D01*
G75*
G01
X2017624Y2432050D02*
G03X2017624Y2432050I-25400J0D01*
G75*
G01
X2198776Y2432050D02*
G03X2198776Y2432050I-25400J0D01*
G75*
G01
X2379904Y2432050D02*
G03X2379904Y2432050I-25400J0D01*
G75*
G01
X2561057Y2432050D02*
G03X2561057Y2432050I-25400J0D01*
G75*
G01
X2742184Y2432050D02*
G03X2742184Y2432050I-25400J0D01*
G75*
G01
X2923337Y2432050D02*
G03X2923337Y2432050I-25400J0D01*
G75*
G01
X3104490Y2432050D02*
G03X3104490Y2432050I-25400J0D01*
G75*
G01
X3285617Y2432050D02*
G03X3285617Y2432050I-25400J0D01*
G75*
G01
X3466770Y2432050D02*
G03X3466770Y2432050I-25400J0D01*
G75*
G01
X3647897Y2432050D02*
G03X3647897Y2432050I-25400J0D01*
G75*
G01
X3466744Y2254250D02*
G03X3466744Y2254250I-25400J0D01*
G75*
G01
X3285617Y2254250D02*
G03X3285617Y2254250I-25400J0D01*
G75*
G01
X3104464Y2254250D02*
G03X3104464Y2254250I-25400J0D01*
G75*
G01
X2923337Y2254250D02*
G03X2923337Y2254250I-25400J0D01*
G75*
G01
X2742184Y2254250D02*
G03X2742184Y2254250I-25400J0D01*
G75*
G01
X2561031Y2254250D02*
G03X2561031Y2254250I-25400J0D01*
G75*
G01
X2379904Y2254250D02*
G03X2379904Y2254250I-25400J0D01*
G75*
G01
X2198751Y2254250D02*
G03X2198751Y2254250I-25400J0D01*
G75*
G01
X2017624Y2254250D02*
G03X2017624Y2254250I-25400J0D01*
G75*
G01
X1836471Y2254250D02*
G03X1836471Y2254250I-25400J0D01*
G75*
G01
X1655343Y2254250D02*
G03X1655343Y2254250I-25400J0D01*
G75*
G01
X1474191Y2254250D02*
G03X1474191Y2254250I-25400J0D01*
G75*
G01
X1293063Y2254250D02*
G03X1293063Y2254250I-25400J0D01*
G75*
G01
X1111910Y2254250D02*
G03X1111910Y2254250I-25400J0D01*
G75*
G01
X930758Y2254250D02*
G03X930758Y2254250I-25400J0D01*
G75*
G01
X749630Y2254250D02*
G03X749630Y2254250I-25400J0D01*
G75*
G01
X568477Y2254250D02*
G03X568477Y2254250I-25400J0D01*
G75*
G01
X387350Y2254250D02*
G03X387350Y2254250I-25400J0D01*
G75*
G01
X3829050Y2254250D02*
G03X3829050Y2254250I-25400J0D01*
G75*
G01
X3829050Y2432050D02*
G03X3829050Y2432050I-25400J0D01*
G75*
G01
X3647897Y2254250D02*
G03X3647897Y2254250I-25400J0D01*
X4203700Y5715000D02*
G01*
X12703683Y5715000D01*
X12703683Y115011D01*
X4203700Y115011D01*
X4203700Y5715000D01*
X222250Y2559050D02*
G01*
X3943350Y2559050D01*
X3943350Y2139950D01*
X222250Y2139950D01*
X222250Y2559050D01*
D12*
X323850Y2292350D02*
G01*
X400050Y2292350D01*
X400050Y2216150D01*
X323850Y2216150D01*
X323850Y2292350D01*
D11*
X1143000Y635000D02*
G01*
X1397000Y635000D01*
X1397000Y127000D01*
X1143000Y127000D01*
X1143000Y635000D01*
M02*
