G04 Layer: BottomLayer*
G04 Panelize: , Column: 2, Row: 2, Board Size: 127.89mm x 58.42mm, Panelized Board Size: 257.78mm x 118.84mm*
G04 EasyEDA v6.5.34, 2023-08-21 18:11:39*
G04 e8c068331ae34e3d8125ef6c1ac767d1,5a6b42c53f6a479593ecc07194224c93,10*
G04 Gerber Generator version 0.2*
G04 Scale: 100 percent, Rotated: No, Reflected: No *
G04 Dimensions in millimeters *
G04 leading zeros omitted , absolute positions ,4 integer and 5 decimal *
%FSLAX45Y45*%
%MOMM*%

%ADD10C,0.1524*%
%ADD11C,5.0000*%
%ADD12C,1.8000*%

%LPD*%
G36*
X12752781Y25908D02*
G01*
X36068Y26416D01*
X32156Y27178D01*
X28905Y29362D01*
X26670Y32664D01*
X25908Y36576D01*
X25908Y5805932D01*
X26670Y5809843D01*
X28905Y5813094D01*
X32156Y5815330D01*
X36068Y5816092D01*
X2555240Y5816092D01*
X2559151Y5815330D01*
X2562402Y5813094D01*
X2564638Y5809843D01*
X2565400Y5805932D01*
X2566162Y5809843D01*
X2568397Y5813094D01*
X2571648Y5815330D01*
X2575560Y5816092D01*
X12752832Y5816092D01*
X12756692Y5815330D01*
X12759994Y5813094D01*
X12762179Y5809843D01*
X12762992Y5805932D01*
X12762992Y36068D01*
X12762179Y32156D01*
X12759994Y28905D01*
X12756692Y26670D01*
G37*

%LPC*%
G36*
X10074910Y484784D02*
G01*
X10337800Y484784D01*
X10337800Y747471D01*
X10321645Y746455D01*
X10298785Y743102D01*
X10276281Y737819D01*
X10254284Y730656D01*
X10232999Y721715D01*
X10212527Y710996D01*
X10193020Y698652D01*
X10174630Y684682D01*
X10157460Y669188D01*
X10141610Y652373D01*
X10127284Y634238D01*
X10114483Y614984D01*
X10103358Y594766D01*
X10093960Y573633D01*
X10086340Y551840D01*
X10080599Y529437D01*
X10076738Y506679D01*
G37*
G36*
X393700Y105562D02*
G01*
X398322Y105664D01*
X421284Y108051D01*
X443992Y112369D01*
X466242Y118618D01*
X487934Y126644D01*
X508812Y136499D01*
X528828Y148031D01*
X547827Y161239D01*
X565607Y175971D01*
X582117Y192125D01*
X597204Y209600D01*
X610819Y228295D01*
X622757Y248107D01*
X633018Y268782D01*
X641553Y290271D01*
X648208Y312369D01*
X653034Y334975D01*
X655929Y357936D01*
X656336Y368300D01*
X393700Y368300D01*
G37*
G36*
X12392406Y105613D02*
G01*
X12392406Y368300D01*
X12129516Y368300D01*
X12131395Y346405D01*
X12135256Y323646D01*
X12140996Y301244D01*
X12148566Y279450D01*
X12157964Y258317D01*
X12169089Y238099D01*
X12181890Y218846D01*
X12196267Y200710D01*
X12212066Y183896D01*
X12229236Y168402D01*
X12247626Y154432D01*
X12267133Y142087D01*
X12287605Y131368D01*
X12308941Y122428D01*
X12330887Y115265D01*
X12353391Y109982D01*
X12376251Y106629D01*
G37*
G36*
X368300Y105613D02*
G01*
X368300Y368300D01*
X105410Y368300D01*
X107289Y346405D01*
X111150Y323646D01*
X116890Y301244D01*
X124460Y279450D01*
X133858Y258317D01*
X144983Y238099D01*
X157784Y218846D01*
X172161Y200710D01*
X187960Y183896D01*
X205130Y168402D01*
X223520Y154432D01*
X243027Y142087D01*
X263499Y131368D01*
X284835Y122428D01*
X306781Y115265D01*
X329285Y109982D01*
X352145Y106629D01*
G37*
G36*
X1257300Y139039D02*
G01*
X1257300Y241300D01*
X1154887Y241300D01*
X1155039Y239471D01*
X1157732Y225196D01*
X1162253Y211328D01*
X1168450Y198170D01*
X1176223Y185877D01*
X1185519Y174650D01*
X1196136Y164693D01*
X1207922Y156159D01*
X1220673Y149148D01*
X1234186Y143764D01*
X1248308Y140157D01*
G37*
G36*
X1282700Y139039D02*
G01*
X1291691Y140157D01*
X1305814Y143764D01*
X1319326Y149148D01*
X1332077Y156159D01*
X1343863Y164693D01*
X1354480Y174650D01*
X1363776Y185877D01*
X1371549Y198170D01*
X1377746Y211328D01*
X1382268Y225196D01*
X1384960Y239471D01*
X1385112Y241300D01*
X1282700Y241300D01*
G37*
G36*
X10363200Y196646D02*
G01*
X10367822Y196748D01*
X10390784Y199136D01*
X10413492Y203454D01*
X10435742Y209702D01*
X10457383Y217728D01*
X10478312Y227584D01*
X10498328Y239115D01*
X10517276Y252323D01*
X10535107Y267055D01*
X10551617Y283210D01*
X10566704Y300685D01*
X10580268Y319379D01*
X10592257Y339191D01*
X10602518Y359867D01*
X10611002Y381355D01*
X10617708Y403453D01*
X10622534Y426059D01*
X10625429Y448970D01*
X10625836Y459384D01*
X10363200Y459384D01*
G37*
G36*
X4563211Y196646D02*
G01*
X4567834Y196748D01*
X4590796Y199136D01*
X4613503Y203454D01*
X4635754Y209702D01*
X4657394Y217728D01*
X4678324Y227584D01*
X4698339Y239115D01*
X4717288Y252323D01*
X4735118Y267055D01*
X4751628Y283210D01*
X4766716Y300685D01*
X4780280Y319379D01*
X4792268Y339191D01*
X4802530Y359867D01*
X4811014Y381355D01*
X4817719Y403453D01*
X4822545Y426059D01*
X4825441Y448970D01*
X4825847Y459384D01*
X4563211Y459384D01*
G37*
G36*
X10337800Y196697D02*
G01*
X10337800Y459384D01*
X10074910Y459384D01*
X10076738Y437489D01*
X10080599Y414731D01*
X10086340Y392328D01*
X10093960Y370535D01*
X10103358Y349402D01*
X10114483Y329184D01*
X10127284Y309930D01*
X10141610Y291795D01*
X10157460Y274980D01*
X10174630Y259486D01*
X10193020Y245516D01*
X10212527Y233121D01*
X10232999Y222453D01*
X10254284Y213461D01*
X10276281Y206349D01*
X10298785Y201066D01*
X10321645Y197713D01*
G37*
G36*
X4537811Y196697D02*
G01*
X4537811Y459384D01*
X4274921Y459384D01*
X4276750Y437489D01*
X4280611Y414731D01*
X4286351Y392328D01*
X4293971Y370535D01*
X4303369Y349402D01*
X4314494Y329184D01*
X4327296Y309930D01*
X4341622Y291795D01*
X4357471Y274980D01*
X4374642Y259486D01*
X4393031Y245516D01*
X4412538Y233121D01*
X4433011Y222453D01*
X4454296Y213461D01*
X4476292Y206349D01*
X4498797Y201066D01*
X4521657Y197713D01*
G37*
G36*
X1154887Y266700D02*
G01*
X1257300Y266700D01*
X1257300Y368960D01*
X1248308Y367842D01*
X1234186Y364236D01*
X1220673Y358851D01*
X1207922Y351840D01*
X1196136Y343306D01*
X1185519Y333349D01*
X1176223Y322122D01*
X1168450Y309829D01*
X1162253Y296672D01*
X1157732Y282803D01*
X1155039Y268528D01*
G37*
G36*
X1282700Y266700D02*
G01*
X1385112Y266700D01*
X1384960Y268528D01*
X1382268Y282803D01*
X1377746Y296672D01*
X1371549Y309829D01*
X1363776Y322122D01*
X1354480Y333349D01*
X1343863Y343306D01*
X1332077Y351840D01*
X1319326Y358851D01*
X1305814Y364236D01*
X1291691Y367842D01*
X1282700Y368960D01*
G37*
G36*
X1257300Y393039D02*
G01*
X1257300Y495300D01*
X1154887Y495300D01*
X1155039Y493471D01*
X1157732Y479196D01*
X1162253Y465328D01*
X1168450Y452170D01*
X1176223Y439877D01*
X1185519Y428650D01*
X1196136Y418693D01*
X1207922Y410159D01*
X1220673Y403148D01*
X1234186Y397764D01*
X1248308Y394157D01*
G37*
G36*
X1282700Y393039D02*
G01*
X1291691Y394157D01*
X1305814Y397764D01*
X1319326Y403148D01*
X1332077Y410159D01*
X1343863Y418693D01*
X1354480Y428650D01*
X1363776Y439877D01*
X1371549Y452170D01*
X1377746Y465328D01*
X1382268Y479196D01*
X1384960Y493471D01*
X1385112Y495300D01*
X1282700Y495300D01*
G37*
G36*
X12417806Y393700D02*
G01*
X12680442Y393700D01*
X12680035Y404063D01*
X12677140Y427024D01*
X12672314Y449630D01*
X12665659Y471728D01*
X12657124Y493217D01*
X12646863Y513892D01*
X12634925Y533704D01*
X12621310Y552348D01*
X12606223Y569874D01*
X12589713Y586028D01*
X12571933Y600760D01*
X12552934Y613968D01*
X12532918Y625500D01*
X12512040Y635355D01*
X12490348Y643382D01*
X12468098Y649630D01*
X12445390Y653948D01*
X12422428Y656336D01*
X12417806Y656437D01*
G37*
G36*
X393700Y393700D02*
G01*
X656336Y393700D01*
X655929Y404063D01*
X653034Y427024D01*
X648208Y449630D01*
X641553Y471728D01*
X633018Y493217D01*
X622757Y513892D01*
X610819Y533704D01*
X597204Y552348D01*
X582117Y569874D01*
X565607Y586028D01*
X547827Y600760D01*
X528828Y613968D01*
X508812Y625500D01*
X487934Y635355D01*
X466242Y643382D01*
X443992Y649630D01*
X421284Y653948D01*
X398322Y656336D01*
X393700Y656437D01*
G37*
G36*
X12129516Y393700D02*
G01*
X12392406Y393700D01*
X12392406Y656386D01*
X12376251Y655370D01*
X12353391Y652018D01*
X12330887Y646734D01*
X12308941Y639572D01*
X12287605Y630631D01*
X12267133Y619912D01*
X12247626Y607568D01*
X12229236Y593598D01*
X12212066Y578104D01*
X12196267Y561289D01*
X12181890Y543153D01*
X12169089Y523900D01*
X12157964Y503682D01*
X12148566Y482549D01*
X12140996Y460756D01*
X12135256Y438353D01*
X12131395Y415594D01*
G37*
G36*
X105410Y393700D02*
G01*
X368300Y393700D01*
X368300Y656386D01*
X352145Y655370D01*
X329285Y652018D01*
X306781Y646734D01*
X284835Y639572D01*
X263499Y630631D01*
X243027Y619912D01*
X223520Y607568D01*
X205130Y593598D01*
X187960Y578104D01*
X172161Y561289D01*
X157784Y543153D01*
X144983Y523900D01*
X133858Y503682D01*
X124460Y482549D01*
X116890Y460756D01*
X111150Y438353D01*
X107289Y415594D01*
G37*
G36*
X10363200Y484784D02*
G01*
X10625836Y484784D01*
X10625429Y495147D01*
X10622534Y518109D01*
X10617708Y540715D01*
X10611002Y562813D01*
X10602518Y584301D01*
X10592257Y604977D01*
X10580268Y624738D01*
X10566704Y643432D01*
X10551617Y660958D01*
X10535107Y677113D01*
X10517276Y691845D01*
X10498328Y705053D01*
X10478312Y716584D01*
X10457383Y726440D01*
X10435742Y734466D01*
X10413492Y740714D01*
X10390784Y745032D01*
X10367822Y747420D01*
X10363200Y747522D01*
G37*
G36*
X4563211Y484784D02*
G01*
X4825847Y484784D01*
X4825441Y495147D01*
X4822545Y518109D01*
X4817719Y540715D01*
X4811014Y562813D01*
X4802530Y584301D01*
X4792268Y604977D01*
X4780280Y624738D01*
X4766716Y643432D01*
X4751628Y660958D01*
X4735118Y677113D01*
X4717288Y691845D01*
X4698339Y705053D01*
X4678324Y716584D01*
X4657394Y726440D01*
X4635754Y734466D01*
X4613503Y740714D01*
X4590796Y745032D01*
X4567834Y747420D01*
X4563211Y747522D01*
G37*
G36*
X4274921Y484784D02*
G01*
X4537811Y484784D01*
X4537811Y747471D01*
X4521657Y746455D01*
X4498797Y743102D01*
X4476292Y737819D01*
X4454296Y730656D01*
X4433011Y721715D01*
X4412538Y710996D01*
X4393031Y698652D01*
X4374642Y684682D01*
X4357471Y669188D01*
X4341622Y652373D01*
X4327296Y634238D01*
X4314494Y614984D01*
X4303369Y594766D01*
X4293971Y573633D01*
X4286351Y551840D01*
X4280611Y529437D01*
X4276750Y506679D01*
G37*
G36*
X12417806Y105562D02*
G01*
X12422428Y105664D01*
X12445390Y108051D01*
X12468098Y112369D01*
X12490348Y118618D01*
X12512040Y126644D01*
X12532918Y136499D01*
X12552934Y148031D01*
X12571933Y161239D01*
X12589713Y175971D01*
X12606223Y192125D01*
X12621310Y209600D01*
X12634925Y228295D01*
X12646863Y248107D01*
X12657124Y268782D01*
X12665659Y290271D01*
X12672314Y312369D01*
X12677140Y334975D01*
X12680035Y357936D01*
X12680442Y368300D01*
X12417806Y368300D01*
G37*
G36*
X1154887Y520700D02*
G01*
X1257300Y520700D01*
X1257300Y622960D01*
X1248308Y621842D01*
X1234186Y618236D01*
X1220673Y612851D01*
X1207922Y605840D01*
X1196136Y597306D01*
X1185519Y587349D01*
X1176223Y576122D01*
X1168450Y563829D01*
X1162253Y550672D01*
X1157732Y536803D01*
X1155039Y522528D01*
G37*
G36*
X1282700Y520700D02*
G01*
X1385112Y520700D01*
X1384960Y522528D01*
X1382268Y536803D01*
X1377746Y550672D01*
X1371549Y563829D01*
X1363776Y576122D01*
X1354480Y587349D01*
X1343863Y597306D01*
X1332077Y605840D01*
X1319326Y612851D01*
X1305814Y618236D01*
X1291691Y621842D01*
X1282700Y622960D01*
G37*
G36*
X4563211Y5096611D02*
G01*
X4567834Y5096713D01*
X4590796Y5099151D01*
X4613503Y5103469D01*
X4635754Y5109667D01*
X4657394Y5117744D01*
X4678324Y5127548D01*
X4698339Y5139131D01*
X4717288Y5152288D01*
X4735118Y5167020D01*
X4751628Y5183225D01*
X4766716Y5200700D01*
X4780280Y5219395D01*
X4792268Y5239156D01*
X4802530Y5259832D01*
X4811014Y5281320D01*
X4817719Y5303469D01*
X4822545Y5326075D01*
X4825441Y5348986D01*
X4825847Y5359349D01*
X4563211Y5359349D01*
G37*
G36*
X10363200Y5096611D02*
G01*
X10367822Y5096713D01*
X10390784Y5099151D01*
X10413492Y5103469D01*
X10435742Y5109667D01*
X10457383Y5117744D01*
X10478312Y5127548D01*
X10498328Y5139131D01*
X10517276Y5152288D01*
X10535107Y5167020D01*
X10551617Y5183225D01*
X10566704Y5200700D01*
X10580268Y5219395D01*
X10592257Y5239156D01*
X10602518Y5259832D01*
X10611002Y5281320D01*
X10617708Y5303469D01*
X10622534Y5326075D01*
X10625429Y5348986D01*
X10625836Y5359349D01*
X10363200Y5359349D01*
G37*
G36*
X4537811Y5096662D02*
G01*
X4537811Y5359349D01*
X4274921Y5359349D01*
X4276750Y5337505D01*
X4280611Y5314696D01*
X4286351Y5292344D01*
X4293971Y5270500D01*
X4303369Y5249418D01*
X4314494Y5229148D01*
X4327296Y5209895D01*
X4341622Y5191810D01*
X4357471Y5174945D01*
X4374642Y5159502D01*
X4393031Y5145532D01*
X4412538Y5133136D01*
X4433011Y5122418D01*
X4454296Y5113477D01*
X4476292Y5106314D01*
X4498797Y5101082D01*
X4521657Y5097678D01*
G37*
G36*
X10337800Y5096662D02*
G01*
X10337800Y5359349D01*
X10074910Y5359349D01*
X10076738Y5337505D01*
X10080599Y5314696D01*
X10086340Y5292344D01*
X10093960Y5270500D01*
X10103358Y5249418D01*
X10114483Y5229148D01*
X10127284Y5209895D01*
X10141610Y5191810D01*
X10157460Y5174945D01*
X10174630Y5159502D01*
X10193020Y5145532D01*
X10212527Y5133136D01*
X10232999Y5122418D01*
X10254284Y5113477D01*
X10276281Y5106314D01*
X10298785Y5101082D01*
X10321645Y5097678D01*
G37*
G36*
X12417806Y5185562D02*
G01*
X12422428Y5185664D01*
X12445390Y5188051D01*
X12468098Y5192369D01*
X12490348Y5198618D01*
X12512040Y5206644D01*
X12532918Y5216499D01*
X12552934Y5228031D01*
X12571933Y5241239D01*
X12589713Y5255971D01*
X12606223Y5272125D01*
X12621310Y5289600D01*
X12634925Y5308295D01*
X12646863Y5328107D01*
X12657124Y5348782D01*
X12665659Y5370271D01*
X12672314Y5392369D01*
X12677140Y5414975D01*
X12680035Y5437936D01*
X12680442Y5448300D01*
X12417806Y5448300D01*
G37*
G36*
X393700Y5185562D02*
G01*
X398322Y5185664D01*
X421284Y5188051D01*
X443992Y5192369D01*
X466242Y5198618D01*
X487934Y5206644D01*
X508812Y5216499D01*
X528828Y5228031D01*
X547827Y5241239D01*
X565607Y5255971D01*
X582117Y5272125D01*
X597204Y5289600D01*
X610819Y5308295D01*
X622757Y5328107D01*
X633018Y5348782D01*
X641553Y5370271D01*
X648208Y5392369D01*
X653034Y5414975D01*
X655929Y5437936D01*
X656336Y5448300D01*
X393700Y5448300D01*
G37*
G36*
X12392406Y5185613D02*
G01*
X12392406Y5448300D01*
X12129516Y5448300D01*
X12131395Y5426405D01*
X12135256Y5403646D01*
X12140996Y5381244D01*
X12148566Y5359450D01*
X12157964Y5338318D01*
X12169089Y5318099D01*
X12181890Y5298846D01*
X12196267Y5280710D01*
X12212066Y5263896D01*
X12229236Y5248402D01*
X12247626Y5234432D01*
X12267133Y5222087D01*
X12287605Y5211368D01*
X12308941Y5202428D01*
X12330887Y5195265D01*
X12353391Y5189982D01*
X12376251Y5186629D01*
G37*
G36*
X368300Y5185613D02*
G01*
X368300Y5448300D01*
X105410Y5448300D01*
X107289Y5426405D01*
X111150Y5403646D01*
X116890Y5381244D01*
X124460Y5359450D01*
X133858Y5338318D01*
X144983Y5318099D01*
X157784Y5298846D01*
X172161Y5280710D01*
X187960Y5263896D01*
X205130Y5248402D01*
X223520Y5234432D01*
X243027Y5222087D01*
X263499Y5211368D01*
X284835Y5202428D01*
X306781Y5195265D01*
X329285Y5189982D01*
X352145Y5186629D01*
G37*
G36*
X4563211Y5384749D02*
G01*
X4825847Y5384749D01*
X4825441Y5395163D01*
X4822545Y5418074D01*
X4817719Y5440680D01*
X4811014Y5462828D01*
X4802530Y5484266D01*
X4792268Y5504992D01*
X4780280Y5524754D01*
X4766716Y5543448D01*
X4751628Y5560923D01*
X4735118Y5577128D01*
X4717288Y5591810D01*
X4698339Y5605018D01*
X4678324Y5616549D01*
X4657394Y5626404D01*
X4635754Y5634482D01*
X4613503Y5640679D01*
X4590796Y5644997D01*
X4567834Y5647436D01*
X4563211Y5647537D01*
G37*
G36*
X10363200Y5384749D02*
G01*
X10625836Y5384749D01*
X10625429Y5395163D01*
X10622534Y5418074D01*
X10617708Y5440680D01*
X10611002Y5462828D01*
X10602518Y5484266D01*
X10592257Y5504992D01*
X10580268Y5524754D01*
X10566704Y5543448D01*
X10551617Y5560923D01*
X10535107Y5577128D01*
X10517276Y5591810D01*
X10498328Y5605018D01*
X10478312Y5616549D01*
X10457383Y5626404D01*
X10435742Y5634482D01*
X10413492Y5640679D01*
X10390784Y5644997D01*
X10367822Y5647436D01*
X10363200Y5647537D01*
G37*
G36*
X4274921Y5384749D02*
G01*
X4537811Y5384749D01*
X4537811Y5647486D01*
X4521657Y5646470D01*
X4498797Y5643067D01*
X4476292Y5637784D01*
X4454296Y5630672D01*
X4433011Y5621731D01*
X4412538Y5611012D01*
X4393031Y5598617D01*
X4374642Y5584647D01*
X4357471Y5569204D01*
X4341622Y5552338D01*
X4327296Y5534253D01*
X4314494Y5515000D01*
X4303369Y5494731D01*
X4293971Y5473649D01*
X4286351Y5451805D01*
X4280611Y5429453D01*
X4276750Y5406644D01*
G37*
G36*
X10074910Y5384749D02*
G01*
X10337800Y5384749D01*
X10337800Y5647486D01*
X10321645Y5646470D01*
X10298785Y5643067D01*
X10276281Y5637784D01*
X10254284Y5630672D01*
X10232999Y5621731D01*
X10212527Y5611012D01*
X10193020Y5598617D01*
X10174630Y5584647D01*
X10157460Y5569204D01*
X10141610Y5552338D01*
X10127284Y5534253D01*
X10114483Y5515000D01*
X10103358Y5494731D01*
X10093960Y5473649D01*
X10086340Y5451805D01*
X10080599Y5429453D01*
X10076738Y5406644D01*
G37*
G36*
X393700Y5473700D02*
G01*
X656336Y5473700D01*
X655929Y5484063D01*
X653034Y5507024D01*
X648208Y5529630D01*
X641553Y5551728D01*
X633018Y5573217D01*
X622757Y5593892D01*
X610819Y5613704D01*
X597204Y5632348D01*
X582117Y5649874D01*
X565607Y5666028D01*
X547827Y5680760D01*
X528828Y5693968D01*
X508812Y5705500D01*
X487934Y5715355D01*
X466242Y5723382D01*
X443992Y5729630D01*
X421284Y5733948D01*
X398322Y5736336D01*
X393700Y5736437D01*
G37*
G36*
X12417806Y5473700D02*
G01*
X12680442Y5473700D01*
X12680035Y5484063D01*
X12677140Y5507024D01*
X12672314Y5529630D01*
X12665659Y5551728D01*
X12657124Y5573217D01*
X12646863Y5593892D01*
X12634925Y5613704D01*
X12621310Y5632348D01*
X12606223Y5649874D01*
X12589713Y5666028D01*
X12571933Y5680760D01*
X12552934Y5693968D01*
X12532918Y5705500D01*
X12512040Y5715355D01*
X12490348Y5723382D01*
X12468098Y5729630D01*
X12445390Y5733948D01*
X12422428Y5736336D01*
X12417806Y5736437D01*
G37*
G36*
X12129516Y5473700D02*
G01*
X12392406Y5473700D01*
X12392406Y5736386D01*
X12376251Y5735370D01*
X12353391Y5732018D01*
X12330887Y5726734D01*
X12308941Y5719572D01*
X12287605Y5710631D01*
X12267133Y5699912D01*
X12247626Y5687568D01*
X12229236Y5673598D01*
X12212066Y5658104D01*
X12196267Y5641289D01*
X12181890Y5623153D01*
X12169089Y5603900D01*
X12157964Y5583682D01*
X12148566Y5562549D01*
X12140996Y5540756D01*
X12135256Y5518353D01*
X12131395Y5495594D01*
G37*
G36*
X105410Y5473700D02*
G01*
X368300Y5473700D01*
X368300Y5736386D01*
X352145Y5735370D01*
X329285Y5732018D01*
X306781Y5726734D01*
X284835Y5719572D01*
X263499Y5710631D01*
X243027Y5699912D01*
X223520Y5687568D01*
X205130Y5673598D01*
X187960Y5658104D01*
X172161Y5641289D01*
X157784Y5623153D01*
X144983Y5603900D01*
X133858Y5583682D01*
X124460Y5562549D01*
X116890Y5540756D01*
X111150Y5518353D01*
X107289Y5495594D01*
G37*
G36*
X2691688Y5583682D02*
G01*
X2750261Y5583682D01*
X2756560Y5584393D01*
X2764840Y5587593D01*
X2767634Y5588000D01*
X2970784Y5588000D01*
X2971800Y5589016D01*
X2971800Y5713984D01*
X2970784Y5715000D01*
X2763520Y5715000D01*
X2760167Y5715558D01*
X2756560Y5716828D01*
X2750261Y5717540D01*
X2691688Y5717540D01*
X2685389Y5716828D01*
X2681782Y5715558D01*
X2678430Y5715000D01*
X2575560Y5715000D01*
X2571648Y5715762D01*
X2568397Y5717997D01*
X2566162Y5721248D01*
X2565400Y5725160D01*
X2565400Y5589016D01*
X2566416Y5588000D01*
X2674315Y5588000D01*
X2677109Y5587593D01*
X2679903Y5586323D01*
X2685389Y5584393D01*
G37*

%LPD*%
D10*
X2739897Y5668010D02*
G01*
X2739897Y5671312D01*
X2736850Y5677662D01*
X2733547Y5680963D01*
X2727197Y5684012D01*
X2714497Y5684012D01*
X2708147Y5680963D01*
X2705100Y5677662D01*
X2701797Y5671312D01*
X2701797Y5664962D01*
X2705100Y5658612D01*
X2711450Y5648960D01*
X2743200Y5617210D01*
X2698750Y5617210D01*
D11*
G01*
X381000Y5461000D03*
G01*
X381000Y381000D03*
G01*
X12405106Y5461000D03*
G01*
X12405106Y381000D03*
G01*
X4550486Y472109D03*
G01*
X10350474Y472109D03*
G01*
X4550486Y5372100D03*
G01*
X10350474Y5372100D03*
D12*
G01*
X1270000Y508000D03*
G01*
X1270000Y254000D03*
M02*
