M48
METRIC,LZ,000.000
;FILE_FORMAT=3:3
;TYPE=PLATED
;Layer: PTH_Through_Via
;EasyEDA v6.5.34, 2023-09-08 22:52:23
;25f9ab1a57db4546acea81688240381b,5a6b42c53f6a479593ecc07194224c93,10
;Gerber Generator version 0.2
;Holesize 1 = 0.305 mm
T01C0.305
%
G05
G90
T01
X039878Y053721
X030480Y021336
X028593Y036195
X020066Y034925
X029591Y032639
X030547Y032639
X028321Y031369
X017907Y036195
X015748Y028194
X015621Y025781
X015621Y030607
X020955Y033655
X020955Y034925
X020955Y036195
X021082Y022987
X022606Y021590
X020574Y027305
X020574Y029083
X019431Y024257
X019431Y022987
X018796Y033147
X025400Y021463
X030734Y029464
X031115Y022225
X027305Y027051
X034036Y035560
X020574Y019177
X028321Y030480
X028321Y029718
X028702Y024892
X035560Y028702
X035560Y030099
X025273Y024257
X030734Y025781
X031496Y030734
X030734Y030734
X030226Y034671
X032512Y030734
X033401Y036195
X036703Y031496
X037084Y024638
X031115Y020193
X034036Y022860
X048260Y050785
X039878Y050785
X042164Y021082
X039624Y016256
X048260Y014224
M30
