G04 Layer: TopSilkscreenLayer*
G04 Panelize: V-CUT, Column: 2, Row: 2, Board Size: 58.42mm x 58.42mm, Panelized Board Size: 118.84mm x 118.84mm*
G04 EasyEDA v6.5.32, 2023-07-26 20:50:30*
G04 9c01c07f2c6843c3a362350cb2311acb,5a6b42c53f6a479593ecc07194224c93,10*
G04 Gerber Generator version 0.2*
G04 Scale: 100 percent, Rotated: No, Reflected: No *
G04 Dimensions in millimeters *
G04 leading zeros omitted , absolute positions ,4 integer and 5 decimal *
%FSLAX45Y45*%
%MOMM*%

%ADD10C,0.1524*%
%ADD11C,0.2540*%
%ADD12C,0.1016*%
%ADD13C,0.1270*%
%ADD14C,0.2500*%
%ADD15C,0.0135*%

%LPD*%
D10*
X762000Y5423915D02*
G01*
X762000Y5314950D01*
X762000Y5423915D02*
G01*
X808736Y5423915D01*
X824229Y5418836D01*
X829563Y5413502D01*
X834644Y5403087D01*
X834644Y5387594D01*
X829563Y5377179D01*
X824229Y5372100D01*
X808736Y5366765D01*
X762000Y5366765D01*
X910589Y5423915D02*
G01*
X868934Y5314950D01*
X910589Y5423915D02*
G01*
X952245Y5314950D01*
X884681Y5351271D02*
G01*
X936497Y5351271D01*
X986536Y5423915D02*
G01*
X986536Y5314950D01*
X986536Y5423915D02*
G01*
X1033271Y5423915D01*
X1048765Y5418836D01*
X1054100Y5413502D01*
X1059179Y5403087D01*
X1059179Y5392673D01*
X1054100Y5382260D01*
X1048765Y5377179D01*
X1033271Y5372100D01*
X986536Y5372100D01*
X1022857Y5372100D02*
G01*
X1059179Y5314950D01*
X1129792Y5423915D02*
G01*
X1129792Y5314950D01*
X1093470Y5423915D02*
G01*
X1166113Y5423915D01*
X1280413Y5423915D02*
G01*
X1280413Y5314950D01*
X1280413Y5423915D02*
G01*
X1353312Y5314950D01*
X1353312Y5423915D02*
G01*
X1353312Y5314950D01*
X1387602Y5423915D02*
G01*
X1387602Y5345937D01*
X1392681Y5330444D01*
X1403095Y5320029D01*
X1418589Y5314950D01*
X1429004Y5314950D01*
X1444752Y5320029D01*
X1455165Y5330444D01*
X1460245Y5345937D01*
X1460245Y5423915D01*
X1494536Y5423915D02*
G01*
X1494536Y5314950D01*
X1494536Y5423915D02*
G01*
X1536192Y5314950D01*
X1577594Y5423915D02*
G01*
X1536192Y5314950D01*
X1577594Y5423915D02*
G01*
X1577594Y5314950D01*
X1611884Y5423915D02*
G01*
X1611884Y5314950D01*
X1611884Y5423915D02*
G01*
X1658620Y5423915D01*
X1674368Y5418836D01*
X1679447Y5413502D01*
X1684781Y5403087D01*
X1684781Y5392673D01*
X1679447Y5382260D01*
X1674368Y5377179D01*
X1658620Y5372100D01*
X1611884Y5372100D02*
G01*
X1658620Y5372100D01*
X1674368Y5366765D01*
X1679447Y5361686D01*
X1684781Y5351271D01*
X1684781Y5335523D01*
X1679447Y5325110D01*
X1674368Y5320029D01*
X1658620Y5314950D01*
X1611884Y5314950D01*
X1719071Y5423915D02*
G01*
X1719071Y5314950D01*
X1719071Y5423915D02*
G01*
X1786636Y5423915D01*
X1719071Y5372100D02*
G01*
X1760473Y5372100D01*
X1719071Y5314950D02*
G01*
X1786636Y5314950D01*
X1820926Y5423915D02*
G01*
X1820926Y5314950D01*
X1820926Y5423915D02*
G01*
X1867662Y5423915D01*
X1883155Y5418836D01*
X1888489Y5413502D01*
X1893570Y5403087D01*
X1893570Y5392673D01*
X1888489Y5382260D01*
X1883155Y5377179D01*
X1867662Y5372100D01*
X1820926Y5372100D01*
X1857247Y5372100D02*
G01*
X1893570Y5314950D01*
X2007870Y5403087D02*
G01*
X2018284Y5408421D01*
X2033777Y5423915D01*
X2033777Y5314950D01*
X2099309Y5423915D02*
G01*
X2083815Y5418836D01*
X2073402Y5403087D01*
X2068068Y5377179D01*
X2068068Y5361686D01*
X2073402Y5335523D01*
X2083815Y5320029D01*
X2099309Y5314950D01*
X2109724Y5314950D01*
X2125218Y5320029D01*
X2135631Y5335523D01*
X2140965Y5361686D01*
X2140965Y5377179D01*
X2135631Y5403087D01*
X2125218Y5418836D01*
X2109724Y5423915D01*
X2099309Y5423915D01*
X2227072Y5423915D02*
G01*
X2175256Y5351271D01*
X2252979Y5351271D01*
X2227072Y5423915D02*
G01*
X2227072Y5314950D01*
X2349754Y5408421D02*
G01*
X2344420Y5418836D01*
X2328925Y5423915D01*
X2318511Y5423915D01*
X2303018Y5418836D01*
X2292604Y5403087D01*
X2287270Y5377179D01*
X2287270Y5351271D01*
X2292604Y5330444D01*
X2303018Y5320029D01*
X2318511Y5314950D01*
X2323845Y5314950D01*
X2339340Y5320029D01*
X2349754Y5330444D01*
X2354834Y5345937D01*
X2354834Y5351271D01*
X2349754Y5366765D01*
X2339340Y5377179D01*
X2323845Y5382260D01*
X2318511Y5382260D01*
X2303018Y5377179D01*
X2292604Y5366765D01*
X2287270Y5351271D01*
X2389124Y5361686D02*
G01*
X2482850Y5361686D01*
X2548127Y5423915D02*
G01*
X2532634Y5418836D01*
X2522220Y5403087D01*
X2517140Y5377179D01*
X2517140Y5361686D01*
X2522220Y5335523D01*
X2532634Y5320029D01*
X2548127Y5314950D01*
X2558541Y5314950D01*
X2574290Y5320029D01*
X2584450Y5335523D01*
X2589784Y5361686D01*
X2589784Y5377179D01*
X2584450Y5403087D01*
X2574290Y5418836D01*
X2558541Y5423915D01*
X2548127Y5423915D01*
X2624074Y5403087D02*
G01*
X2634488Y5408421D01*
X2649981Y5423915D01*
X2649981Y5314950D01*
X2715513Y5423915D02*
G01*
X2700020Y5418836D01*
X2689606Y5403087D01*
X2684272Y5377179D01*
X2684272Y5361686D01*
X2689606Y5335523D01*
X2700020Y5320029D01*
X2715513Y5314950D01*
X2725927Y5314950D01*
X2741422Y5320029D01*
X2751836Y5335523D01*
X2757170Y5361686D01*
X2757170Y5377179D01*
X2751836Y5403087D01*
X2741422Y5418836D01*
X2725927Y5423915D01*
X2715513Y5423915D01*
X2791459Y5403087D02*
G01*
X2801620Y5408421D01*
X2817368Y5423915D01*
X2817368Y5314950D01*
X762000Y5601715D02*
G01*
X762000Y5492750D01*
X762000Y5601715D02*
G01*
X808736Y5601715D01*
X824229Y5596636D01*
X829563Y5591302D01*
X834644Y5580887D01*
X834644Y5565394D01*
X829563Y5554979D01*
X824229Y5549900D01*
X808736Y5544565D01*
X762000Y5544565D01*
X868934Y5601715D02*
G01*
X868934Y5492750D01*
X868934Y5601715D02*
G01*
X915670Y5601715D01*
X931418Y5596636D01*
X936497Y5591302D01*
X941831Y5580887D01*
X941831Y5570473D01*
X936497Y5560060D01*
X931418Y5554979D01*
X915670Y5549900D01*
X868934Y5549900D01*
X905510Y5549900D02*
G01*
X941831Y5492750D01*
X1007110Y5601715D02*
G01*
X996950Y5596636D01*
X986536Y5586221D01*
X981202Y5575807D01*
X976121Y5560060D01*
X976121Y5534152D01*
X981202Y5518657D01*
X986536Y5508244D01*
X996950Y5497829D01*
X1007110Y5492750D01*
X1027937Y5492750D01*
X1038352Y5497829D01*
X1048765Y5508244D01*
X1054100Y5518657D01*
X1059179Y5534152D01*
X1059179Y5560060D01*
X1054100Y5575807D01*
X1048765Y5586221D01*
X1038352Y5596636D01*
X1027937Y5601715D01*
X1007110Y5601715D01*
X1129792Y5601715D02*
G01*
X1129792Y5492750D01*
X1093470Y5601715D02*
G01*
X1166113Y5601715D01*
X1231645Y5601715D02*
G01*
X1221231Y5596636D01*
X1210818Y5586221D01*
X1205737Y5575807D01*
X1200404Y5560060D01*
X1200404Y5534152D01*
X1205737Y5518657D01*
X1210818Y5508244D01*
X1221231Y5497829D01*
X1231645Y5492750D01*
X1252473Y5492750D01*
X1262887Y5497829D01*
X1273302Y5508244D01*
X1278381Y5518657D01*
X1283715Y5534152D01*
X1283715Y5560060D01*
X1278381Y5575807D01*
X1273302Y5586221D01*
X1262887Y5596636D01*
X1252473Y5601715D01*
X1231645Y5601715D01*
X1318005Y5601715D02*
G01*
X1318005Y5492750D01*
X1318005Y5601715D02*
G01*
X1390650Y5492750D01*
X1390650Y5601715D02*
G01*
X1390650Y5492750D01*
X1424939Y5601715D02*
G01*
X1424939Y5492750D01*
X1424939Y5601715D02*
G01*
X1492504Y5601715D01*
X1424939Y5549900D02*
G01*
X1466595Y5549900D01*
X1424939Y5492750D02*
G01*
X1492504Y5492750D01*
X1526794Y5601715D02*
G01*
X1526794Y5492750D01*
X1526794Y5601715D02*
G01*
X1568450Y5492750D01*
X1609852Y5601715D02*
G01*
X1568450Y5492750D01*
X1609852Y5601715D02*
G01*
X1609852Y5492750D01*
X1685797Y5601715D02*
G01*
X1644142Y5492750D01*
X1685797Y5601715D02*
G01*
X1727200Y5492750D01*
X1659889Y5529071D02*
G01*
X1711705Y5529071D01*
X1841500Y5601715D02*
G01*
X1841500Y5492750D01*
X1841500Y5601715D02*
G01*
X1883155Y5492750D01*
X1924812Y5601715D02*
G01*
X1883155Y5492750D01*
X1924812Y5601715D02*
G01*
X1924812Y5492750D01*
X1990090Y5601715D02*
G01*
X1979929Y5596636D01*
X1969515Y5586221D01*
X1964181Y5575807D01*
X1959102Y5560060D01*
X1959102Y5534152D01*
X1964181Y5518657D01*
X1969515Y5508244D01*
X1979929Y5497829D01*
X1990090Y5492750D01*
X2010918Y5492750D01*
X2021331Y5497829D01*
X2031745Y5508244D01*
X2037079Y5518657D01*
X2042159Y5534152D01*
X2042159Y5560060D01*
X2037079Y5575807D01*
X2031745Y5586221D01*
X2021331Y5596636D01*
X2010918Y5601715D01*
X1990090Y5601715D01*
X2112772Y5601715D02*
G01*
X2112772Y5492750D01*
X2076450Y5601715D02*
G01*
X2149093Y5601715D01*
X2214625Y5601715D02*
G01*
X2204211Y5596636D01*
X2193797Y5586221D01*
X2188718Y5575807D01*
X2183384Y5560060D01*
X2183384Y5534152D01*
X2188718Y5518657D01*
X2193797Y5508244D01*
X2204211Y5497829D01*
X2214625Y5492750D01*
X2235454Y5492750D01*
X2245868Y5497829D01*
X2256281Y5508244D01*
X2261361Y5518657D01*
X2266695Y5534152D01*
X2266695Y5560060D01*
X2261361Y5575807D01*
X2256281Y5586221D01*
X2245868Y5596636D01*
X2235454Y5601715D01*
X2214625Y5601715D01*
X2300986Y5601715D02*
G01*
X2300986Y5492750D01*
X2300986Y5601715D02*
G01*
X2347722Y5601715D01*
X2363215Y5596636D01*
X2368550Y5591302D01*
X2373629Y5580887D01*
X2373629Y5570473D01*
X2368550Y5560060D01*
X2363215Y5554979D01*
X2347722Y5549900D01*
X2300986Y5549900D01*
X2337308Y5549900D02*
G01*
X2373629Y5492750D01*
X2487929Y5601715D02*
G01*
X2487929Y5492750D01*
X2487929Y5601715D02*
G01*
X2524252Y5601715D01*
X2540000Y5596636D01*
X2550159Y5586221D01*
X2555493Y5575807D01*
X2560574Y5560060D01*
X2560574Y5534152D01*
X2555493Y5518657D01*
X2550159Y5508244D01*
X2540000Y5497829D01*
X2524252Y5492750D01*
X2487929Y5492750D01*
X2594863Y5601715D02*
G01*
X2594863Y5492750D01*
X2594863Y5601715D02*
G01*
X2641600Y5601715D01*
X2657347Y5596636D01*
X2662427Y5591302D01*
X2667761Y5580887D01*
X2667761Y5570473D01*
X2662427Y5560060D01*
X2657347Y5554979D01*
X2641600Y5549900D01*
X2594863Y5549900D01*
X2631440Y5549900D02*
G01*
X2667761Y5492750D01*
X2702052Y5601715D02*
G01*
X2702052Y5492750D01*
X2736341Y5601715D02*
G01*
X2777743Y5492750D01*
X2819400Y5601715D02*
G01*
X2777743Y5492750D01*
X2853690Y5601715D02*
G01*
X2853690Y5492750D01*
X2853690Y5601715D02*
G01*
X2921254Y5601715D01*
X2853690Y5549900D02*
G01*
X2895345Y5549900D01*
X2853690Y5492750D02*
G01*
X2921254Y5492750D01*
X2955543Y5601715D02*
G01*
X2955543Y5492750D01*
X2955543Y5601715D02*
G01*
X3002279Y5601715D01*
X3017774Y5596636D01*
X3023108Y5591302D01*
X3028188Y5580887D01*
X3028188Y5570473D01*
X3023108Y5560060D01*
X3017774Y5554979D01*
X3002279Y5549900D01*
X2955543Y5549900D01*
X2991865Y5549900D02*
G01*
X3028188Y5492750D01*
X3142488Y5601715D02*
G01*
X3184143Y5492750D01*
X3225800Y5601715D02*
G01*
X3184143Y5492750D01*
X3291077Y5601715D02*
G01*
X3275584Y5596636D01*
X3265170Y5580887D01*
X3260090Y5554979D01*
X3260090Y5539486D01*
X3265170Y5513323D01*
X3275584Y5497829D01*
X3291077Y5492750D01*
X3301491Y5492750D01*
X3317240Y5497829D01*
X3327400Y5513323D01*
X3332734Y5539486D01*
X3332734Y5554979D01*
X3327400Y5580887D01*
X3317240Y5596636D01*
X3301491Y5601715D01*
X3291077Y5601715D01*
X3372104Y5518657D02*
G01*
X3367024Y5513323D01*
X3372104Y5508244D01*
X3377438Y5513323D01*
X3372104Y5518657D01*
X3416808Y5575807D02*
G01*
X3416808Y5580887D01*
X3422141Y5591302D01*
X3427222Y5596636D01*
X3437636Y5601715D01*
X3458463Y5601715D01*
X3468877Y5596636D01*
X3473958Y5591302D01*
X3479291Y5580887D01*
X3479291Y5570473D01*
X3473958Y5560060D01*
X3463543Y5544565D01*
X3411727Y5492750D01*
X3484372Y5492750D01*
X3860792Y3047740D02*
G01*
X3860792Y2927852D01*
X3860792Y3047740D02*
G01*
X3906512Y2927852D01*
X3952232Y3047740D02*
G01*
X3906512Y2927852D01*
X3952232Y3047740D02*
G01*
X3952232Y2927852D01*
X4024114Y3047740D02*
G01*
X4012684Y3041898D01*
X4001254Y3030722D01*
X3995412Y3019292D01*
X3989824Y3002020D01*
X3989824Y2973572D01*
X3995412Y2956300D01*
X4001254Y2944870D01*
X4012684Y2933440D01*
X4024114Y2927852D01*
X4046974Y2927852D01*
X4058404Y2933440D01*
X4069834Y2944870D01*
X4075422Y2956300D01*
X4081264Y2973572D01*
X4081264Y3002020D01*
X4075422Y3019292D01*
X4069834Y3030722D01*
X4058404Y3041898D01*
X4046974Y3047740D01*
X4024114Y3047740D01*
X4158734Y3047740D02*
G01*
X4158734Y2927852D01*
X4118856Y3047740D02*
G01*
X4198866Y3047740D01*
X4270748Y3047740D02*
G01*
X4259318Y3041898D01*
X4247888Y3030722D01*
X4242046Y3019292D01*
X4236458Y3002020D01*
X4236458Y2973572D01*
X4242046Y2956300D01*
X4247888Y2944870D01*
X4259318Y2933440D01*
X4270748Y2927852D01*
X4293608Y2927852D01*
X4305038Y2933440D01*
X4316468Y2944870D01*
X4322056Y2956300D01*
X4327898Y2973572D01*
X4327898Y3002020D01*
X4322056Y3019292D01*
X4316468Y3030722D01*
X4305038Y3041898D01*
X4293608Y3047740D01*
X4270748Y3047740D01*
X4365490Y3047740D02*
G01*
X4365490Y2927852D01*
X4365490Y3047740D02*
G01*
X4416798Y3047740D01*
X4434070Y3041898D01*
X4439658Y3036310D01*
X4445500Y3024880D01*
X4445500Y3013450D01*
X4439658Y3002020D01*
X4434070Y2996432D01*
X4416798Y2990590D01*
X4365490Y2990590D01*
X4405368Y2990590D02*
G01*
X4445500Y2927852D01*
X4570976Y3024880D02*
G01*
X4582406Y3030722D01*
X4599424Y3047740D01*
X4599424Y2927852D01*
X4637270Y3047740D02*
G01*
X4637270Y2927852D01*
X4637270Y3047740D02*
G01*
X4688578Y3047740D01*
X4705850Y3041898D01*
X4711438Y3036310D01*
X4717026Y3024880D01*
X4717026Y3013450D01*
X4711438Y3002020D01*
X4705850Y2996432D01*
X4688578Y2990590D01*
X4637270Y2990590D02*
G01*
X4688578Y2990590D01*
X4705850Y2985002D01*
X4711438Y2979160D01*
X4717026Y2967730D01*
X4717026Y2950712D01*
X4711438Y2939282D01*
X4705850Y2933440D01*
X4688578Y2927852D01*
X4637270Y2927852D01*
X3860792Y3352538D02*
G01*
X3860792Y3232650D01*
X3860792Y3352538D02*
G01*
X3906512Y3232650D01*
X3952232Y3352538D02*
G01*
X3906512Y3232650D01*
X3952232Y3352538D02*
G01*
X3952232Y3232650D01*
X4024114Y3352538D02*
G01*
X4012684Y3346696D01*
X4001254Y3335520D01*
X3995412Y3324090D01*
X3989824Y3306818D01*
X3989824Y3278370D01*
X3995412Y3261098D01*
X4001254Y3249668D01*
X4012684Y3238238D01*
X4024114Y3232650D01*
X4046974Y3232650D01*
X4058404Y3238238D01*
X4069834Y3249668D01*
X4075422Y3261098D01*
X4081264Y3278370D01*
X4081264Y3306818D01*
X4075422Y3324090D01*
X4069834Y3335520D01*
X4058404Y3346696D01*
X4046974Y3352538D01*
X4024114Y3352538D01*
X4158734Y3352538D02*
G01*
X4158734Y3232650D01*
X4118856Y3352538D02*
G01*
X4198866Y3352538D01*
X4270748Y3352538D02*
G01*
X4259318Y3346696D01*
X4247888Y3335520D01*
X4242046Y3324090D01*
X4236458Y3306818D01*
X4236458Y3278370D01*
X4242046Y3261098D01*
X4247888Y3249668D01*
X4259318Y3238238D01*
X4270748Y3232650D01*
X4293608Y3232650D01*
X4305038Y3238238D01*
X4316468Y3249668D01*
X4322056Y3261098D01*
X4327898Y3278370D01*
X4327898Y3306818D01*
X4322056Y3324090D01*
X4316468Y3335520D01*
X4305038Y3346696D01*
X4293608Y3352538D01*
X4270748Y3352538D01*
X4365490Y3352538D02*
G01*
X4365490Y3232650D01*
X4365490Y3352538D02*
G01*
X4416798Y3352538D01*
X4434070Y3346696D01*
X4439658Y3341108D01*
X4445500Y3329678D01*
X4445500Y3318248D01*
X4439658Y3306818D01*
X4434070Y3301230D01*
X4416798Y3295388D01*
X4365490Y3295388D01*
X4405368Y3295388D02*
G01*
X4445500Y3232650D01*
X4570976Y3329678D02*
G01*
X4582406Y3335520D01*
X4599424Y3352538D01*
X4599424Y3232650D01*
X4682990Y3352538D02*
G01*
X4637270Y3232650D01*
X4682990Y3352538D02*
G01*
X4728456Y3232650D01*
X4654288Y3272528D02*
G01*
X4711438Y3272528D01*
X3530600Y4241545D02*
G01*
X3530600Y4121657D01*
X3530600Y4241545D02*
G01*
X3576320Y4121657D01*
X3622040Y4241545D02*
G01*
X3576320Y4121657D01*
X3622040Y4241545D02*
G01*
X3622040Y4121657D01*
X3693922Y4241545D02*
G01*
X3682491Y4235704D01*
X3671061Y4224528D01*
X3665220Y4213097D01*
X3659631Y4195826D01*
X3659631Y4167378D01*
X3665220Y4150105D01*
X3671061Y4138676D01*
X3682491Y4127245D01*
X3693922Y4121657D01*
X3716781Y4121657D01*
X3728211Y4127245D01*
X3739641Y4138676D01*
X3745229Y4150105D01*
X3751072Y4167378D01*
X3751072Y4195826D01*
X3745229Y4213097D01*
X3739641Y4224528D01*
X3728211Y4235704D01*
X3716781Y4241545D01*
X3693922Y4241545D01*
X3828541Y4241545D02*
G01*
X3828541Y4121657D01*
X3788663Y4241545D02*
G01*
X3868674Y4241545D01*
X3940556Y4241545D02*
G01*
X3929125Y4235704D01*
X3917695Y4224528D01*
X3911854Y4213097D01*
X3906265Y4195826D01*
X3906265Y4167378D01*
X3911854Y4150105D01*
X3917695Y4138676D01*
X3929125Y4127245D01*
X3940556Y4121657D01*
X3963415Y4121657D01*
X3974845Y4127245D01*
X3986275Y4138676D01*
X3991863Y4150105D01*
X3997706Y4167378D01*
X3997706Y4195826D01*
X3991863Y4213097D01*
X3986275Y4224528D01*
X3974845Y4235704D01*
X3963415Y4241545D01*
X3940556Y4241545D01*
X4035297Y4241545D02*
G01*
X4035297Y4121657D01*
X4035297Y4241545D02*
G01*
X4086606Y4241545D01*
X4103877Y4235704D01*
X4109465Y4230115D01*
X4115308Y4218686D01*
X4115308Y4207255D01*
X4109465Y4195826D01*
X4103877Y4190237D01*
X4086606Y4184395D01*
X4035297Y4184395D01*
X4075175Y4184395D02*
G01*
X4115308Y4121657D01*
X4326381Y4213097D02*
G01*
X4320793Y4224528D01*
X4309363Y4235704D01*
X4297934Y4241545D01*
X4275074Y4241545D01*
X4263643Y4235704D01*
X4252213Y4224528D01*
X4246625Y4213097D01*
X4240784Y4195826D01*
X4240784Y4167378D01*
X4246625Y4150105D01*
X4252213Y4138676D01*
X4263643Y4127245D01*
X4275074Y4121657D01*
X4297934Y4121657D01*
X4309363Y4127245D01*
X4320793Y4138676D01*
X4326381Y4150105D01*
X4326381Y4167378D01*
X4297934Y4167378D02*
G01*
X4326381Y4167378D01*
X4364227Y4241545D02*
G01*
X4364227Y4121657D01*
X4364227Y4241545D02*
G01*
X4443984Y4121657D01*
X4443984Y4241545D02*
G01*
X4443984Y4121657D01*
X4481829Y4241545D02*
G01*
X4481829Y4121657D01*
X4481829Y4241545D02*
G01*
X4521708Y4241545D01*
X4538725Y4235704D01*
X4550156Y4224528D01*
X4555997Y4213097D01*
X4561586Y4195826D01*
X4561586Y4167378D01*
X4555997Y4150105D01*
X4550156Y4138676D01*
X4538725Y4127245D01*
X4521708Y4121657D01*
X4481829Y4121657D01*
X3505200Y4749543D02*
G01*
X3505200Y4629655D01*
X3505200Y4749543D02*
G01*
X3550920Y4629655D01*
X3596640Y4749543D02*
G01*
X3550920Y4629655D01*
X3596640Y4749543D02*
G01*
X3596640Y4629655D01*
X3668522Y4749543D02*
G01*
X3657091Y4743701D01*
X3645661Y4732525D01*
X3639820Y4721095D01*
X3634231Y4703823D01*
X3634231Y4675375D01*
X3639820Y4658103D01*
X3645661Y4646673D01*
X3657091Y4635243D01*
X3668522Y4629655D01*
X3691381Y4629655D01*
X3702811Y4635243D01*
X3714241Y4646673D01*
X3719829Y4658103D01*
X3725672Y4675375D01*
X3725672Y4703823D01*
X3719829Y4721095D01*
X3714241Y4732525D01*
X3702811Y4743701D01*
X3691381Y4749543D01*
X3668522Y4749543D01*
X3803141Y4749543D02*
G01*
X3803141Y4629655D01*
X3763263Y4749543D02*
G01*
X3843274Y4749543D01*
X3915156Y4749543D02*
G01*
X3903725Y4743701D01*
X3892295Y4732525D01*
X3886454Y4721095D01*
X3880865Y4703823D01*
X3880865Y4675375D01*
X3886454Y4658103D01*
X3892295Y4646673D01*
X3903725Y4635243D01*
X3915156Y4629655D01*
X3938015Y4629655D01*
X3949445Y4635243D01*
X3960875Y4646673D01*
X3966463Y4658103D01*
X3972306Y4675375D01*
X3972306Y4703823D01*
X3966463Y4721095D01*
X3960875Y4732525D01*
X3949445Y4743701D01*
X3938015Y4749543D01*
X3915156Y4749543D01*
X4009897Y4749543D02*
G01*
X4009897Y4629655D01*
X4009897Y4749543D02*
G01*
X4061206Y4749543D01*
X4078477Y4743701D01*
X4084065Y4738113D01*
X4089908Y4726683D01*
X4089908Y4715253D01*
X4084065Y4703823D01*
X4078477Y4698235D01*
X4061206Y4692393D01*
X4009897Y4692393D01*
X4049775Y4692393D02*
G01*
X4089908Y4629655D01*
X4215384Y4749543D02*
G01*
X4261104Y4629655D01*
X4306824Y4749543D02*
G01*
X4261104Y4629655D01*
X4430013Y4721095D02*
G01*
X4424425Y4732525D01*
X4412995Y4743701D01*
X4401565Y4749543D01*
X4378706Y4749543D01*
X4367275Y4743701D01*
X4355845Y4732525D01*
X4350258Y4721095D01*
X4344415Y4703823D01*
X4344415Y4675375D01*
X4350258Y4658103D01*
X4355845Y4646673D01*
X4367275Y4635243D01*
X4378706Y4629655D01*
X4401565Y4629655D01*
X4412995Y4635243D01*
X4424425Y4646673D01*
X4430013Y4658103D01*
X4553458Y4721095D02*
G01*
X4547615Y4732525D01*
X4536186Y4743701D01*
X4524756Y4749543D01*
X4501895Y4749543D01*
X4490465Y4743701D01*
X4479036Y4732525D01*
X4473447Y4721095D01*
X4467859Y4703823D01*
X4467859Y4675375D01*
X4473447Y4658103D01*
X4479036Y4646673D01*
X4490465Y4635243D01*
X4501895Y4629655D01*
X4524756Y4629655D01*
X4536186Y4635243D01*
X4547615Y4646673D01*
X4553458Y4658103D01*
X3809992Y1396733D02*
G01*
X3809992Y1276845D01*
X3809992Y1396733D02*
G01*
X3855712Y1276845D01*
X3901432Y1396733D02*
G01*
X3855712Y1276845D01*
X3901432Y1396733D02*
G01*
X3901432Y1276845D01*
X3973314Y1396733D02*
G01*
X3961884Y1391145D01*
X3950454Y1379715D01*
X3944612Y1368285D01*
X3939024Y1351013D01*
X3939024Y1322565D01*
X3944612Y1305293D01*
X3950454Y1293863D01*
X3961884Y1282433D01*
X3973314Y1276845D01*
X3996174Y1276845D01*
X4007604Y1282433D01*
X4019034Y1293863D01*
X4024622Y1305293D01*
X4030464Y1322565D01*
X4030464Y1351013D01*
X4024622Y1368285D01*
X4019034Y1379715D01*
X4007604Y1391145D01*
X3996174Y1396733D01*
X3973314Y1396733D01*
X4107934Y1396733D02*
G01*
X4107934Y1276845D01*
X4068056Y1396733D02*
G01*
X4148066Y1396733D01*
X4219948Y1396733D02*
G01*
X4208518Y1391145D01*
X4197088Y1379715D01*
X4191246Y1368285D01*
X4185658Y1351013D01*
X4185658Y1322565D01*
X4191246Y1305293D01*
X4197088Y1293863D01*
X4208518Y1282433D01*
X4219948Y1276845D01*
X4242808Y1276845D01*
X4254238Y1282433D01*
X4265668Y1293863D01*
X4271256Y1305293D01*
X4277098Y1322565D01*
X4277098Y1351013D01*
X4271256Y1368285D01*
X4265668Y1379715D01*
X4254238Y1391145D01*
X4242808Y1396733D01*
X4219948Y1396733D01*
X4314690Y1396733D02*
G01*
X4314690Y1276845D01*
X4314690Y1396733D02*
G01*
X4365998Y1396733D01*
X4383270Y1391145D01*
X4388858Y1385303D01*
X4394700Y1373873D01*
X4394700Y1362443D01*
X4388858Y1351013D01*
X4383270Y1345425D01*
X4365998Y1339583D01*
X4314690Y1339583D01*
X4354568Y1339583D02*
G01*
X4394700Y1276845D01*
X4526018Y1368285D02*
G01*
X4526018Y1373873D01*
X4531606Y1385303D01*
X4537448Y1391145D01*
X4548624Y1396733D01*
X4571484Y1396733D01*
X4582914Y1391145D01*
X4588756Y1385303D01*
X4594344Y1373873D01*
X4594344Y1362443D01*
X4588756Y1351013D01*
X4577326Y1333995D01*
X4520176Y1276845D01*
X4600186Y1276845D01*
X4683498Y1396733D02*
G01*
X4637778Y1276845D01*
X4683498Y1396733D02*
G01*
X4729218Y1276845D01*
X4655050Y1316723D02*
G01*
X4711946Y1316723D01*
X3809992Y1041143D02*
G01*
X3809992Y921255D01*
X3809992Y1041143D02*
G01*
X3855712Y921255D01*
X3901432Y1041143D02*
G01*
X3855712Y921255D01*
X3901432Y1041143D02*
G01*
X3901432Y921255D01*
X3973314Y1041143D02*
G01*
X3961884Y1035301D01*
X3950454Y1024125D01*
X3944612Y1012695D01*
X3939024Y995423D01*
X3939024Y966975D01*
X3944612Y949703D01*
X3950454Y938273D01*
X3961884Y926843D01*
X3973314Y921255D01*
X3996174Y921255D01*
X4007604Y926843D01*
X4019034Y938273D01*
X4024622Y949703D01*
X4030464Y966975D01*
X4030464Y995423D01*
X4024622Y1012695D01*
X4019034Y1024125D01*
X4007604Y1035301D01*
X3996174Y1041143D01*
X3973314Y1041143D01*
X4107934Y1041143D02*
G01*
X4107934Y921255D01*
X4068056Y1041143D02*
G01*
X4148066Y1041143D01*
X4219948Y1041143D02*
G01*
X4208518Y1035301D01*
X4197088Y1024125D01*
X4191246Y1012695D01*
X4185658Y995423D01*
X4185658Y966975D01*
X4191246Y949703D01*
X4197088Y938273D01*
X4208518Y926843D01*
X4219948Y921255D01*
X4242808Y921255D01*
X4254238Y926843D01*
X4265668Y938273D01*
X4271256Y949703D01*
X4277098Y966975D01*
X4277098Y995423D01*
X4271256Y1012695D01*
X4265668Y1024125D01*
X4254238Y1035301D01*
X4242808Y1041143D01*
X4219948Y1041143D01*
X4314690Y1041143D02*
G01*
X4314690Y921255D01*
X4314690Y1041143D02*
G01*
X4365998Y1041143D01*
X4383270Y1035301D01*
X4388858Y1029713D01*
X4394700Y1018283D01*
X4394700Y1006853D01*
X4388858Y995423D01*
X4383270Y989835D01*
X4365998Y983993D01*
X4314690Y983993D01*
X4354568Y983993D02*
G01*
X4394700Y921255D01*
X4526018Y1012695D02*
G01*
X4526018Y1018283D01*
X4531606Y1029713D01*
X4537448Y1035301D01*
X4548624Y1041143D01*
X4571484Y1041143D01*
X4582914Y1035301D01*
X4588756Y1029713D01*
X4594344Y1018283D01*
X4594344Y1006853D01*
X4588756Y995423D01*
X4577326Y978405D01*
X4520176Y921255D01*
X4600186Y921255D01*
X4637778Y1041143D02*
G01*
X4637778Y921255D01*
X4637778Y1041143D02*
G01*
X4689086Y1041143D01*
X4706358Y1035301D01*
X4711946Y1029713D01*
X4717788Y1018283D01*
X4717788Y1006853D01*
X4711946Y995423D01*
X4706358Y989835D01*
X4689086Y983993D01*
X4637778Y983993D02*
G01*
X4689086Y983993D01*
X4706358Y978405D01*
X4711946Y972563D01*
X4717788Y961133D01*
X4717788Y944115D01*
X4711946Y932685D01*
X4706358Y926843D01*
X4689086Y921255D01*
X4637778Y921255D01*
X286765Y4520437D02*
G01*
X286765Y4447794D01*
X282194Y4434078D01*
X277621Y4429505D01*
X268478Y4424934D01*
X259587Y4424934D01*
X250444Y4429505D01*
X245871Y4434078D01*
X241300Y4447794D01*
X241300Y4456937D01*
X321310Y4497831D02*
G01*
X321310Y4502404D01*
X325881Y4511294D01*
X330454Y4515865D01*
X339597Y4520437D01*
X357631Y4520437D01*
X366776Y4515865D01*
X371347Y4511294D01*
X375920Y4502404D01*
X375920Y4493260D01*
X371347Y4484115D01*
X362204Y4470400D01*
X316737Y4424934D01*
X380492Y4424934D01*
X1168400Y3613657D02*
G01*
X1168400Y3499104D01*
X1168400Y3613657D02*
G01*
X1212087Y3499104D01*
X1255776Y3613657D02*
G01*
X1212087Y3499104D01*
X1255776Y3613657D02*
G01*
X1255776Y3499104D01*
X1324355Y3613657D02*
G01*
X1313434Y3608070D01*
X1302512Y3597147D01*
X1297178Y3586226D01*
X1291589Y3569970D01*
X1291589Y3542792D01*
X1297178Y3526281D01*
X1302512Y3515360D01*
X1313434Y3504437D01*
X1324355Y3499104D01*
X1346200Y3499104D01*
X1357121Y3504437D01*
X1368044Y3515360D01*
X1373378Y3526281D01*
X1378965Y3542792D01*
X1378965Y3569970D01*
X1373378Y3586226D01*
X1368044Y3597147D01*
X1357121Y3608070D01*
X1346200Y3613657D01*
X1324355Y3613657D01*
X1453134Y3613657D02*
G01*
X1453134Y3499104D01*
X1415034Y3613657D02*
G01*
X1491234Y3613657D01*
X1560068Y3613657D02*
G01*
X1549145Y3608070D01*
X1538223Y3597147D01*
X1532636Y3586226D01*
X1527302Y3569970D01*
X1527302Y3542792D01*
X1532636Y3526281D01*
X1538223Y3515360D01*
X1549145Y3504437D01*
X1560068Y3499104D01*
X1581912Y3499104D01*
X1592834Y3504437D01*
X1603755Y3515360D01*
X1609089Y3526281D01*
X1614678Y3542792D01*
X1614678Y3569970D01*
X1609089Y3586226D01*
X1603755Y3597147D01*
X1592834Y3608070D01*
X1581912Y3613657D01*
X1560068Y3613657D01*
X1650492Y3613657D02*
G01*
X1650492Y3499104D01*
X1650492Y3613657D02*
G01*
X1699768Y3613657D01*
X1716023Y3608070D01*
X1721612Y3602736D01*
X1726945Y3591813D01*
X1726945Y3580892D01*
X1721612Y3569970D01*
X1716023Y3564381D01*
X1699768Y3559047D01*
X1650492Y3559047D01*
X1688845Y3559047D02*
G01*
X1726945Y3499104D01*
X1846834Y3591813D02*
G01*
X1857755Y3597147D01*
X1874265Y3613657D01*
X1874265Y3499104D01*
X1994154Y3613657D02*
G01*
X1994154Y3499104D01*
X2030222Y3613657D02*
G01*
X2030222Y3499104D01*
X2030222Y3613657D02*
G01*
X2106675Y3499104D01*
X2106675Y3613657D02*
G01*
X2106675Y3499104D01*
X2232152Y3586226D02*
G01*
X2232152Y3591813D01*
X2237486Y3602736D01*
X2242820Y3608070D01*
X2253741Y3613657D01*
X2275586Y3613657D01*
X2286508Y3608070D01*
X2292095Y3602736D01*
X2297429Y3591813D01*
X2297429Y3580892D01*
X2292095Y3569970D01*
X2281174Y3553713D01*
X2226563Y3499104D01*
X2303018Y3499104D01*
X1250187Y3332226D02*
G01*
X1244854Y3343147D01*
X1233931Y3354070D01*
X1223010Y3359657D01*
X1201165Y3359657D01*
X1190244Y3354070D01*
X1179321Y3343147D01*
X1173734Y3332226D01*
X1168400Y3315970D01*
X1168400Y3288792D01*
X1173734Y3272281D01*
X1179321Y3261360D01*
X1190244Y3250437D01*
X1201165Y3245104D01*
X1223010Y3245104D01*
X1233931Y3250437D01*
X1244854Y3261360D01*
X1250187Y3272281D01*
X1250187Y3288792D01*
X1223010Y3288792D02*
G01*
X1250187Y3288792D01*
X1286255Y3359657D02*
G01*
X1286255Y3245104D01*
X1286255Y3359657D02*
G01*
X1362455Y3245104D01*
X1362455Y3359657D02*
G01*
X1362455Y3245104D01*
X1398523Y3359657D02*
G01*
X1398523Y3245104D01*
X1398523Y3359657D02*
G01*
X1436878Y3359657D01*
X1453134Y3354070D01*
X1464055Y3343147D01*
X1469389Y3332226D01*
X1474978Y3315970D01*
X1474978Y3288792D01*
X1469389Y3272281D01*
X1464055Y3261360D01*
X1453134Y3250437D01*
X1436878Y3245104D01*
X1398523Y3245104D01*
X1168400Y3105657D02*
G01*
X1168400Y2991104D01*
X1168400Y3105657D02*
G01*
X1212087Y2991104D01*
X1255776Y3105657D02*
G01*
X1212087Y2991104D01*
X1255776Y3105657D02*
G01*
X1255776Y2991104D01*
X1324355Y3105657D02*
G01*
X1313434Y3100070D01*
X1302512Y3089147D01*
X1297178Y3078226D01*
X1291589Y3061970D01*
X1291589Y3034792D01*
X1297178Y3018281D01*
X1302512Y3007360D01*
X1313434Y2996437D01*
X1324355Y2991104D01*
X1346200Y2991104D01*
X1357121Y2996437D01*
X1368044Y3007360D01*
X1373378Y3018281D01*
X1378965Y3034792D01*
X1378965Y3061970D01*
X1373378Y3078226D01*
X1368044Y3089147D01*
X1357121Y3100070D01*
X1346200Y3105657D01*
X1324355Y3105657D01*
X1453134Y3105657D02*
G01*
X1453134Y2991104D01*
X1415034Y3105657D02*
G01*
X1491234Y3105657D01*
X1560068Y3105657D02*
G01*
X1549145Y3100070D01*
X1538223Y3089147D01*
X1532636Y3078226D01*
X1527302Y3061970D01*
X1527302Y3034792D01*
X1532636Y3018281D01*
X1538223Y3007360D01*
X1549145Y2996437D01*
X1560068Y2991104D01*
X1581912Y2991104D01*
X1592834Y2996437D01*
X1603755Y3007360D01*
X1609089Y3018281D01*
X1614678Y3034792D01*
X1614678Y3061970D01*
X1609089Y3078226D01*
X1603755Y3089147D01*
X1592834Y3100070D01*
X1581912Y3105657D01*
X1560068Y3105657D01*
X1650492Y3105657D02*
G01*
X1650492Y2991104D01*
X1650492Y3105657D02*
G01*
X1699768Y3105657D01*
X1716023Y3100070D01*
X1721612Y3094736D01*
X1726945Y3083813D01*
X1726945Y3072892D01*
X1721612Y3061970D01*
X1716023Y3056381D01*
X1699768Y3051047D01*
X1650492Y3051047D01*
X1688845Y3051047D02*
G01*
X1726945Y2991104D01*
X1846834Y3105657D02*
G01*
X1890521Y2991104D01*
X1934209Y3105657D02*
G01*
X1890521Y2991104D01*
X2052065Y3078226D02*
G01*
X2046477Y3089147D01*
X2035556Y3100070D01*
X2024888Y3105657D01*
X2003043Y3105657D01*
X1992122Y3100070D01*
X1981200Y3089147D01*
X1975611Y3078226D01*
X1970277Y3061970D01*
X1970277Y3034792D01*
X1975611Y3018281D01*
X1981200Y3007360D01*
X1992122Y2996437D01*
X2003043Y2991104D01*
X2024888Y2991104D01*
X2035556Y2996437D01*
X2046477Y3007360D01*
X2052065Y3018281D01*
X2169922Y3078226D02*
G01*
X2164334Y3089147D01*
X2153411Y3100070D01*
X2142490Y3105657D01*
X2120645Y3105657D01*
X2109977Y3100070D01*
X2099056Y3089147D01*
X2093468Y3078226D01*
X2088134Y3061970D01*
X2088134Y3034792D01*
X2093468Y3018281D01*
X2099056Y3007360D01*
X2109977Y2996437D01*
X2120645Y2991104D01*
X2142490Y2991104D01*
X2153411Y2996437D01*
X2164334Y3007360D01*
X2169922Y3018281D01*
X1168400Y2343657D02*
G01*
X1168400Y2229104D01*
X1168400Y2343657D02*
G01*
X1212087Y2229104D01*
X1255776Y2343657D02*
G01*
X1212087Y2229104D01*
X1255776Y2343657D02*
G01*
X1255776Y2229104D01*
X1324355Y2343657D02*
G01*
X1313434Y2338070D01*
X1302512Y2327147D01*
X1297178Y2316226D01*
X1291589Y2299970D01*
X1291589Y2272792D01*
X1297178Y2256281D01*
X1302512Y2245360D01*
X1313434Y2234437D01*
X1324355Y2229104D01*
X1346200Y2229104D01*
X1357121Y2234437D01*
X1368044Y2245360D01*
X1373378Y2256281D01*
X1378965Y2272792D01*
X1378965Y2299970D01*
X1373378Y2316226D01*
X1368044Y2327147D01*
X1357121Y2338070D01*
X1346200Y2343657D01*
X1324355Y2343657D01*
X1453134Y2343657D02*
G01*
X1453134Y2229104D01*
X1415034Y2343657D02*
G01*
X1491234Y2343657D01*
X1560068Y2343657D02*
G01*
X1549145Y2338070D01*
X1538223Y2327147D01*
X1532636Y2316226D01*
X1527302Y2299970D01*
X1527302Y2272792D01*
X1532636Y2256281D01*
X1538223Y2245360D01*
X1549145Y2234437D01*
X1560068Y2229104D01*
X1581912Y2229104D01*
X1592834Y2234437D01*
X1603755Y2245360D01*
X1609089Y2256281D01*
X1614678Y2272792D01*
X1614678Y2299970D01*
X1609089Y2316226D01*
X1603755Y2327147D01*
X1592834Y2338070D01*
X1581912Y2343657D01*
X1560068Y2343657D01*
X1650492Y2343657D02*
G01*
X1650492Y2229104D01*
X1650492Y2343657D02*
G01*
X1699768Y2343657D01*
X1716023Y2338070D01*
X1721612Y2332736D01*
X1726945Y2321813D01*
X1726945Y2310892D01*
X1721612Y2299970D01*
X1716023Y2294381D01*
X1699768Y2289047D01*
X1650492Y2289047D01*
X1688845Y2289047D02*
G01*
X1726945Y2229104D01*
X1852421Y2316226D02*
G01*
X1852421Y2321813D01*
X1857755Y2332736D01*
X1863344Y2338070D01*
X1874265Y2343657D01*
X1896110Y2343657D01*
X1907031Y2338070D01*
X1912365Y2332736D01*
X1917954Y2321813D01*
X1917954Y2310892D01*
X1912365Y2299970D01*
X1901444Y2283713D01*
X1846834Y2229104D01*
X1923287Y2229104D01*
X2043429Y2343657D02*
G01*
X2043429Y2229104D01*
X2079243Y2343657D02*
G01*
X2079243Y2229104D01*
X2079243Y2343657D02*
G01*
X2155697Y2229104D01*
X2155697Y2343657D02*
G01*
X2155697Y2229104D01*
X2286508Y2343657D02*
G01*
X2346706Y2343657D01*
X2313940Y2299970D01*
X2330195Y2299970D01*
X2341118Y2294381D01*
X2346706Y2289047D01*
X2352040Y2272792D01*
X2352040Y2261870D01*
X2346706Y2245360D01*
X2335784Y2234437D01*
X2319274Y2229104D01*
X2303018Y2229104D01*
X2286508Y2234437D01*
X2281174Y2240026D01*
X2275586Y2250947D01*
X1168400Y2089657D02*
G01*
X1168400Y1975104D01*
X1168400Y2089657D02*
G01*
X1212087Y1975104D01*
X1255776Y2089657D02*
G01*
X1212087Y1975104D01*
X1255776Y2089657D02*
G01*
X1255776Y1975104D01*
X1324355Y2089657D02*
G01*
X1313434Y2084070D01*
X1302512Y2073147D01*
X1297178Y2062226D01*
X1291589Y2045970D01*
X1291589Y2018792D01*
X1297178Y2002281D01*
X1302512Y1991360D01*
X1313434Y1980437D01*
X1324355Y1975104D01*
X1346200Y1975104D01*
X1357121Y1980437D01*
X1368044Y1991360D01*
X1373378Y2002281D01*
X1378965Y2018792D01*
X1378965Y2045970D01*
X1373378Y2062226D01*
X1368044Y2073147D01*
X1357121Y2084070D01*
X1346200Y2089657D01*
X1324355Y2089657D01*
X1453134Y2089657D02*
G01*
X1453134Y1975104D01*
X1415034Y2089657D02*
G01*
X1491234Y2089657D01*
X1560068Y2089657D02*
G01*
X1549145Y2084070D01*
X1538223Y2073147D01*
X1532636Y2062226D01*
X1527302Y2045970D01*
X1527302Y2018792D01*
X1532636Y2002281D01*
X1538223Y1991360D01*
X1549145Y1980437D01*
X1560068Y1975104D01*
X1581912Y1975104D01*
X1592834Y1980437D01*
X1603755Y1991360D01*
X1609089Y2002281D01*
X1614678Y2018792D01*
X1614678Y2045970D01*
X1609089Y2062226D01*
X1603755Y2073147D01*
X1592834Y2084070D01*
X1581912Y2089657D01*
X1560068Y2089657D01*
X1650492Y2089657D02*
G01*
X1650492Y1975104D01*
X1650492Y2089657D02*
G01*
X1699768Y2089657D01*
X1716023Y2084070D01*
X1721612Y2078736D01*
X1726945Y2067813D01*
X1726945Y2056892D01*
X1721612Y2045970D01*
X1716023Y2040381D01*
X1699768Y2035047D01*
X1650492Y2035047D01*
X1688845Y2035047D02*
G01*
X1726945Y1975104D01*
X1852421Y2062226D02*
G01*
X1852421Y2067813D01*
X1857755Y2078736D01*
X1863344Y2084070D01*
X1874265Y2089657D01*
X1896110Y2089657D01*
X1907031Y2084070D01*
X1912365Y2078736D01*
X1917954Y2067813D01*
X1917954Y2056892D01*
X1912365Y2045970D01*
X1901444Y2029713D01*
X1846834Y1975104D01*
X1923287Y1975104D01*
X2043429Y2089657D02*
G01*
X2043429Y1975104D01*
X2079243Y2089657D02*
G01*
X2079243Y1975104D01*
X2079243Y2089657D02*
G01*
X2155697Y1975104D01*
X2155697Y2089657D02*
G01*
X2155697Y1975104D01*
X2330195Y2089657D02*
G01*
X2275586Y2013204D01*
X2357374Y2013204D01*
X2330195Y2089657D02*
G01*
X2330195Y1975104D01*
X1250187Y2570226D02*
G01*
X1244854Y2581147D01*
X1233931Y2592070D01*
X1223010Y2597657D01*
X1201165Y2597657D01*
X1190244Y2592070D01*
X1179321Y2581147D01*
X1173734Y2570226D01*
X1168400Y2553970D01*
X1168400Y2526792D01*
X1173734Y2510281D01*
X1179321Y2499360D01*
X1190244Y2488437D01*
X1201165Y2483104D01*
X1223010Y2483104D01*
X1233931Y2488437D01*
X1244854Y2499360D01*
X1250187Y2510281D01*
X1250187Y2526792D01*
X1223010Y2526792D02*
G01*
X1250187Y2526792D01*
X1286255Y2597657D02*
G01*
X1286255Y2483104D01*
X1286255Y2597657D02*
G01*
X1362455Y2483104D01*
X1362455Y2597657D02*
G01*
X1362455Y2483104D01*
X1398523Y2597657D02*
G01*
X1398523Y2483104D01*
X1398523Y2597657D02*
G01*
X1436878Y2597657D01*
X1453134Y2592070D01*
X1464055Y2581147D01*
X1469389Y2570226D01*
X1474978Y2553970D01*
X1474978Y2526792D01*
X1469389Y2510281D01*
X1464055Y2499360D01*
X1453134Y2488437D01*
X1436878Y2483104D01*
X1398523Y2483104D01*
X1168400Y2851657D02*
G01*
X1168400Y2737104D01*
X1168400Y2851657D02*
G01*
X1239265Y2851657D01*
X1168400Y2797047D02*
G01*
X1212087Y2797047D01*
X1168400Y2737104D02*
G01*
X1239265Y2737104D01*
X1275334Y2851657D02*
G01*
X1275334Y2737104D01*
X1275334Y2851657D02*
G01*
X1351787Y2737104D01*
X1351787Y2851657D02*
G01*
X1351787Y2737104D01*
X1431289Y2851657D02*
G01*
X1387602Y2737104D01*
X1431289Y2851657D02*
G01*
X1474978Y2737104D01*
X1404112Y2775204D02*
G01*
X1458468Y2775204D01*
X1511045Y2851657D02*
G01*
X1511045Y2737104D01*
X1511045Y2851657D02*
G01*
X1560068Y2851657D01*
X1576323Y2846070D01*
X1581912Y2840736D01*
X1587245Y2829813D01*
X1587245Y2818892D01*
X1581912Y2807970D01*
X1576323Y2802381D01*
X1560068Y2797047D01*
X1511045Y2797047D02*
G01*
X1560068Y2797047D01*
X1576323Y2791713D01*
X1581912Y2786126D01*
X1587245Y2775204D01*
X1587245Y2758947D01*
X1581912Y2748026D01*
X1576323Y2742437D01*
X1560068Y2737104D01*
X1511045Y2737104D01*
X1623313Y2851657D02*
G01*
X1623313Y2737104D01*
X1623313Y2737104D02*
G01*
X1688845Y2737104D01*
X1724660Y2851657D02*
G01*
X1724660Y2737104D01*
X1724660Y2851657D02*
G01*
X1795779Y2851657D01*
X1724660Y2797047D02*
G01*
X1768347Y2797047D01*
X1724660Y2737104D02*
G01*
X1795779Y2737104D01*
X1168400Y3867657D02*
G01*
X1168400Y3753104D01*
X1168400Y3867657D02*
G01*
X1212087Y3753104D01*
X1255776Y3867657D02*
G01*
X1212087Y3753104D01*
X1255776Y3867657D02*
G01*
X1255776Y3753104D01*
X1324355Y3867657D02*
G01*
X1313434Y3862070D01*
X1302512Y3851147D01*
X1297178Y3840226D01*
X1291589Y3823970D01*
X1291589Y3796792D01*
X1297178Y3780281D01*
X1302512Y3769360D01*
X1313434Y3758437D01*
X1324355Y3753104D01*
X1346200Y3753104D01*
X1357121Y3758437D01*
X1368044Y3769360D01*
X1373378Y3780281D01*
X1378965Y3796792D01*
X1378965Y3823970D01*
X1373378Y3840226D01*
X1368044Y3851147D01*
X1357121Y3862070D01*
X1346200Y3867657D01*
X1324355Y3867657D01*
X1453134Y3867657D02*
G01*
X1453134Y3753104D01*
X1415034Y3867657D02*
G01*
X1491234Y3867657D01*
X1560068Y3867657D02*
G01*
X1549145Y3862070D01*
X1538223Y3851147D01*
X1532636Y3840226D01*
X1527302Y3823970D01*
X1527302Y3796792D01*
X1532636Y3780281D01*
X1538223Y3769360D01*
X1549145Y3758437D01*
X1560068Y3753104D01*
X1581912Y3753104D01*
X1592834Y3758437D01*
X1603755Y3769360D01*
X1609089Y3780281D01*
X1614678Y3796792D01*
X1614678Y3823970D01*
X1609089Y3840226D01*
X1603755Y3851147D01*
X1592834Y3862070D01*
X1581912Y3867657D01*
X1560068Y3867657D01*
X1650492Y3867657D02*
G01*
X1650492Y3753104D01*
X1650492Y3867657D02*
G01*
X1699768Y3867657D01*
X1716023Y3862070D01*
X1721612Y3856736D01*
X1726945Y3845813D01*
X1726945Y3834892D01*
X1721612Y3823970D01*
X1716023Y3818381D01*
X1699768Y3813047D01*
X1650492Y3813047D01*
X1688845Y3813047D02*
G01*
X1726945Y3753104D01*
X1846834Y3845813D02*
G01*
X1857755Y3851147D01*
X1874265Y3867657D01*
X1874265Y3753104D01*
X1994154Y3867657D02*
G01*
X1994154Y3753104D01*
X2030222Y3867657D02*
G01*
X2030222Y3753104D01*
X2030222Y3867657D02*
G01*
X2106675Y3753104D01*
X2106675Y3867657D02*
G01*
X2106675Y3753104D01*
X2226563Y3845813D02*
G01*
X2237486Y3851147D01*
X2253741Y3867657D01*
X2253741Y3753104D01*
X3409950Y4589526D02*
G01*
X3400806Y4580381D01*
X3391915Y4566665D01*
X3382772Y4548631D01*
X3378200Y4525771D01*
X3378200Y4507737D01*
X3382772Y4484878D01*
X3391915Y4466844D01*
X3400806Y4453128D01*
X3409950Y4443984D01*
X3439922Y4571237D02*
G01*
X3439922Y4475734D01*
X3439922Y4571237D02*
G01*
X3476497Y4475734D01*
X3512820Y4571237D02*
G01*
X3476497Y4475734D01*
X3512820Y4571237D02*
G01*
X3512820Y4475734D01*
X3542791Y4571237D02*
G01*
X3542791Y4475734D01*
X3572763Y4571237D02*
G01*
X3572763Y4475734D01*
X3572763Y4571237D02*
G01*
X3636263Y4475734D01*
X3636263Y4571237D02*
G01*
X3636263Y4475734D01*
X3790950Y4557776D02*
G01*
X3786377Y4566665D01*
X3772661Y4571237D01*
X3763772Y4571237D01*
X3750056Y4566665D01*
X3740911Y4553204D01*
X3736340Y4530344D01*
X3736340Y4507737D01*
X3740911Y4489450D01*
X3750056Y4480305D01*
X3763772Y4475734D01*
X3768090Y4475734D01*
X3781806Y4480305D01*
X3790950Y4489450D01*
X3795522Y4503165D01*
X3795522Y4507737D01*
X3790950Y4521200D01*
X3781806Y4530344D01*
X3768090Y4534915D01*
X3763772Y4534915D01*
X3750056Y4530344D01*
X3740911Y4521200D01*
X3736340Y4507737D01*
X3825493Y4571237D02*
G01*
X3861815Y4475734D01*
X3898138Y4571237D02*
G01*
X3861815Y4475734D01*
X4009897Y4589526D02*
G01*
X3928109Y4443984D01*
X4040124Y4571237D02*
G01*
X4040124Y4475734D01*
X4040124Y4571237D02*
G01*
X4076445Y4475734D01*
X4112768Y4571237D02*
G01*
X4076445Y4475734D01*
X4112768Y4571237D02*
G01*
X4112768Y4475734D01*
X4179061Y4571237D02*
G01*
X4142740Y4475734D01*
X4179061Y4571237D02*
G01*
X4215384Y4475734D01*
X4156456Y4507737D02*
G01*
X4201922Y4507737D01*
X4245356Y4571237D02*
G01*
X4309109Y4475734D01*
X4309109Y4571237D02*
G01*
X4245356Y4475734D01*
X4409186Y4553204D02*
G01*
X4418075Y4557776D01*
X4431791Y4571237D01*
X4431791Y4475734D01*
X4484624Y4571237D02*
G01*
X4470908Y4566665D01*
X4466336Y4557776D01*
X4466336Y4548631D01*
X4470908Y4539487D01*
X4480052Y4534915D01*
X4498086Y4530344D01*
X4511802Y4525771D01*
X4520945Y4516628D01*
X4525518Y4507737D01*
X4525518Y4494021D01*
X4520945Y4484878D01*
X4516374Y4480305D01*
X4502658Y4475734D01*
X4484624Y4475734D01*
X4470908Y4480305D01*
X4466336Y4484878D01*
X4461763Y4494021D01*
X4461763Y4507737D01*
X4466336Y4516628D01*
X4475479Y4525771D01*
X4489195Y4530344D01*
X4507229Y4534915D01*
X4516374Y4539487D01*
X4520945Y4548631D01*
X4520945Y4557776D01*
X4516374Y4566665D01*
X4502658Y4571237D01*
X4484624Y4571237D01*
X4555490Y4571237D02*
G01*
X4591811Y4475734D01*
X4628134Y4571237D02*
G01*
X4591811Y4475734D01*
X4658106Y4589526D02*
G01*
X4667250Y4580381D01*
X4676393Y4566665D01*
X4685538Y4548631D01*
X4690109Y4525771D01*
X4690109Y4507737D01*
X4685538Y4484878D01*
X4676393Y4466844D01*
X4667250Y4453128D01*
X4658106Y4443984D01*
X1270000Y1701032D02*
G01*
X1270000Y1605528D01*
X1270000Y1701032D02*
G01*
X1329181Y1701032D01*
X1270000Y1655566D02*
G01*
X1306321Y1655566D01*
X1270000Y1605528D02*
G01*
X1329181Y1605528D01*
X1359154Y1701032D02*
G01*
X1359154Y1605528D01*
X1359154Y1701032D02*
G01*
X1422654Y1605528D01*
X1422654Y1701032D02*
G01*
X1422654Y1605528D01*
X1524000Y1701032D02*
G01*
X1524000Y1605528D01*
X1553971Y1701032D02*
G01*
X1553971Y1605528D01*
X1553971Y1701032D02*
G01*
X1617726Y1605528D01*
X1617726Y1701032D02*
G01*
X1617726Y1605528D01*
X1647697Y1682998D02*
G01*
X1656842Y1687570D01*
X1670304Y1701032D01*
X1670304Y1605528D01*
X1765300Y1701032D02*
G01*
X1765300Y1605528D01*
X1795271Y1701032D02*
G01*
X1795271Y1605528D01*
X1795271Y1701032D02*
G01*
X1859026Y1605528D01*
X1859026Y1701032D02*
G01*
X1859026Y1605528D01*
X1893570Y1678426D02*
G01*
X1893570Y1682998D01*
X1898142Y1691888D01*
X1902460Y1696460D01*
X1911604Y1701032D01*
X1929892Y1701032D01*
X1939036Y1696460D01*
X1943354Y1691888D01*
X1947925Y1682998D01*
X1947925Y1673854D01*
X1943354Y1664710D01*
X1934463Y1650994D01*
X1888997Y1605528D01*
X1952497Y1605528D01*
X2097277Y1701032D02*
G01*
X2088388Y1696460D01*
X2079243Y1687570D01*
X2074672Y1678426D01*
X2070100Y1664710D01*
X2070100Y1642104D01*
X2074672Y1628388D01*
X2079243Y1619244D01*
X2088388Y1610100D01*
X2097277Y1605528D01*
X2115565Y1605528D01*
X2124709Y1610100D01*
X2133854Y1619244D01*
X2138172Y1628388D01*
X2142743Y1642104D01*
X2142743Y1664710D01*
X2138172Y1678426D01*
X2133854Y1687570D01*
X2124709Y1696460D01*
X2115565Y1701032D01*
X2097277Y1701032D01*
X2172715Y1701032D02*
G01*
X2172715Y1632960D01*
X2177288Y1619244D01*
X2186431Y1610100D01*
X2200147Y1605528D01*
X2209291Y1605528D01*
X2222754Y1610100D01*
X2231897Y1619244D01*
X2236470Y1632960D01*
X2236470Y1701032D01*
X2298191Y1701032D02*
G01*
X2298191Y1605528D01*
X2266441Y1701032D02*
G01*
X2330195Y1701032D01*
X2360168Y1682998D02*
G01*
X2369311Y1687570D01*
X2382774Y1701032D01*
X2382774Y1605528D01*
X2605277Y1701032D02*
G01*
X2596388Y1696460D01*
X2587243Y1687570D01*
X2582672Y1678426D01*
X2578100Y1664710D01*
X2578100Y1642104D01*
X2582672Y1628388D01*
X2587243Y1619244D01*
X2596388Y1610100D01*
X2605277Y1605528D01*
X2623565Y1605528D01*
X2632709Y1610100D01*
X2641854Y1619244D01*
X2646172Y1628388D01*
X2650743Y1642104D01*
X2650743Y1664710D01*
X2646172Y1678426D01*
X2641854Y1687570D01*
X2632709Y1696460D01*
X2623565Y1701032D01*
X2605277Y1701032D01*
X2680715Y1701032D02*
G01*
X2680715Y1632960D01*
X2685288Y1619244D01*
X2694431Y1610100D01*
X2708147Y1605528D01*
X2717291Y1605528D01*
X2730754Y1610100D01*
X2739897Y1619244D01*
X2744470Y1632960D01*
X2744470Y1701032D01*
X2806191Y1701032D02*
G01*
X2806191Y1605528D01*
X2774441Y1701032D02*
G01*
X2838195Y1701032D01*
X2872740Y1678426D02*
G01*
X2872740Y1682998D01*
X2877311Y1691888D01*
X2881629Y1696460D01*
X2890774Y1701032D01*
X2909061Y1701032D01*
X2918206Y1696460D01*
X2922524Y1691888D01*
X2927095Y1682998D01*
X2927095Y1673854D01*
X2922524Y1664710D01*
X2913634Y1650994D01*
X2868168Y1605528D01*
X2931668Y1605528D01*
X3073402Y1701032D02*
G01*
X3073402Y1605528D01*
X3073402Y1701032D02*
G01*
X3109724Y1605528D01*
X3146046Y1701032D02*
G01*
X3109724Y1605528D01*
X3146046Y1701032D02*
G01*
X3146046Y1605528D01*
X3203450Y1701032D02*
G01*
X3194306Y1696460D01*
X3185162Y1687570D01*
X3180590Y1678426D01*
X3176018Y1664710D01*
X3176018Y1642104D01*
X3180590Y1628388D01*
X3185162Y1619244D01*
X3194306Y1610100D01*
X3203450Y1605528D01*
X3221484Y1605528D01*
X3230628Y1610100D01*
X3239772Y1619244D01*
X3244344Y1628388D01*
X3248916Y1642104D01*
X3248916Y1664710D01*
X3244344Y1678426D01*
X3239772Y1687570D01*
X3230628Y1696460D01*
X3221484Y1701032D01*
X3203450Y1701032D01*
X3278888Y1701032D02*
G01*
X3278888Y1605528D01*
X3278888Y1701032D02*
G01*
X3310638Y1701032D01*
X3324354Y1696460D01*
X3333498Y1687570D01*
X3337816Y1678426D01*
X3342388Y1664710D01*
X3342388Y1642104D01*
X3337816Y1628388D01*
X3333498Y1619244D01*
X3324354Y1610100D01*
X3310638Y1605528D01*
X3278888Y1605528D01*
X3372360Y1701032D02*
G01*
X3372360Y1605528D01*
X3372360Y1701032D02*
G01*
X3431542Y1701032D01*
X3372360Y1655566D02*
G01*
X3408936Y1655566D01*
X3372360Y1605528D02*
G01*
X3431542Y1605528D01*
X1320800Y1447032D02*
G01*
X1320800Y1351528D01*
X1320800Y1351528D02*
G01*
X1375410Y1351528D01*
X1574800Y1447032D02*
G01*
X1638554Y1351528D01*
X1638554Y1447032D02*
G01*
X1574800Y1351528D01*
X1828800Y1447032D02*
G01*
X1892554Y1351528D01*
X1892554Y1447032D02*
G01*
X1828800Y1351528D01*
X2082800Y1447032D02*
G01*
X2082800Y1351528D01*
X2146554Y1447032D02*
G01*
X2146554Y1351528D01*
X2082800Y1401566D02*
G01*
X2146554Y1401566D01*
X2176525Y1447032D02*
G01*
X2176525Y1351528D01*
X2206497Y1392676D02*
G01*
X2288286Y1392676D01*
X2382011Y1447032D02*
G01*
X2318258Y1351528D01*
X2318258Y1447032D02*
G01*
X2382011Y1447032D01*
X2318258Y1351528D02*
G01*
X2382011Y1351528D01*
X2590800Y1447032D02*
G01*
X2590800Y1351528D01*
X2654554Y1447032D02*
G01*
X2654554Y1351528D01*
X2590800Y1401566D02*
G01*
X2654554Y1401566D01*
X2684525Y1447032D02*
G01*
X2684525Y1351528D01*
X2714497Y1392676D02*
G01*
X2796286Y1392676D01*
X2890011Y1447032D02*
G01*
X2826258Y1351528D01*
X2826258Y1447032D02*
G01*
X2890011Y1447032D01*
X2826258Y1351528D02*
G01*
X2890011Y1351528D01*
X3151377Y1447032D02*
G01*
X3142488Y1442460D01*
X3133343Y1433570D01*
X3128772Y1424426D01*
X3124200Y1410710D01*
X3124200Y1388104D01*
X3128772Y1374388D01*
X3133343Y1365244D01*
X3142488Y1356100D01*
X3151377Y1351528D01*
X3169665Y1351528D01*
X3178809Y1356100D01*
X3187954Y1365244D01*
X3192272Y1374388D01*
X3196843Y1388104D01*
X3196843Y1410710D01*
X3192272Y1424426D01*
X3187954Y1433570D01*
X3178809Y1442460D01*
X3169665Y1447032D01*
X3151377Y1447032D01*
X3226815Y1447032D02*
G01*
X3226815Y1351528D01*
X3226815Y1447032D02*
G01*
X3285997Y1447032D01*
X3226815Y1401566D02*
G01*
X3263391Y1401566D01*
X3315970Y1447032D02*
G01*
X3315970Y1351528D01*
X3315970Y1447032D02*
G01*
X3375152Y1447032D01*
X3315970Y1401566D02*
G01*
X3352291Y1401566D01*
X3151375Y1193032D02*
G01*
X3142485Y1188460D01*
X3133341Y1179570D01*
X3128769Y1170426D01*
X3124197Y1156710D01*
X3124197Y1134104D01*
X3128769Y1120388D01*
X3133341Y1111244D01*
X3142485Y1102100D01*
X3151375Y1097528D01*
X3169663Y1097528D01*
X3178807Y1102100D01*
X3187951Y1111244D01*
X3192269Y1120388D01*
X3196841Y1134104D01*
X3196841Y1156710D01*
X3192269Y1170426D01*
X3187951Y1179570D01*
X3178807Y1188460D01*
X3169663Y1193032D01*
X3151375Y1193032D01*
X3226813Y1193032D02*
G01*
X3226813Y1097528D01*
X3226813Y1193032D02*
G01*
X3285995Y1193032D01*
X3226813Y1147566D02*
G01*
X3263389Y1147566D01*
X3315967Y1193032D02*
G01*
X3315967Y1097528D01*
X3315967Y1193032D02*
G01*
X3375149Y1193032D01*
X3315967Y1147566D02*
G01*
X3352289Y1147566D01*
X2590800Y1193032D02*
G01*
X2590800Y1097528D01*
X2654554Y1193032D02*
G01*
X2654554Y1097528D01*
X2590800Y1147566D02*
G01*
X2654554Y1147566D01*
X2684525Y1193032D02*
G01*
X2684525Y1097528D01*
X2714497Y1138676D02*
G01*
X2796286Y1138676D01*
X2890011Y1193032D02*
G01*
X2826258Y1097528D01*
X2826258Y1193032D02*
G01*
X2890011Y1193032D01*
X2826258Y1097528D02*
G01*
X2890011Y1097528D01*
X2082800Y1193032D02*
G01*
X2082800Y1097528D01*
X2146554Y1193032D02*
G01*
X2146554Y1097528D01*
X2082800Y1147566D02*
G01*
X2146554Y1147566D01*
X2176525Y1193032D02*
G01*
X2176525Y1097528D01*
X2206497Y1138676D02*
G01*
X2288286Y1138676D01*
X2382011Y1193032D02*
G01*
X2318258Y1097528D01*
X2318258Y1193032D02*
G01*
X2382011Y1193032D01*
X2318258Y1097528D02*
G01*
X2382011Y1097528D01*
X1828800Y1193032D02*
G01*
X1828800Y1097528D01*
X1828800Y1097528D02*
G01*
X1883410Y1097528D01*
X1574800Y1193032D02*
G01*
X1574800Y1097528D01*
X1574800Y1097528D02*
G01*
X1629410Y1097528D01*
X1320800Y1193032D02*
G01*
X1320800Y1097528D01*
X1384554Y1193032D02*
G01*
X1384554Y1097528D01*
X1320800Y1147566D02*
G01*
X1384554Y1147566D01*
X3217669Y916426D02*
G01*
X3213351Y925570D01*
X3204207Y934460D01*
X3195063Y939032D01*
X3176775Y939032D01*
X3167885Y934460D01*
X3158741Y925570D01*
X3154169Y916426D01*
X3149597Y902710D01*
X3149597Y880104D01*
X3154169Y866388D01*
X3158741Y857244D01*
X3167885Y848100D01*
X3176775Y843528D01*
X3195063Y843528D01*
X3204207Y848100D01*
X3213351Y857244D01*
X3217669Y866388D01*
X3247895Y939032D02*
G01*
X3270501Y843528D01*
X3293107Y939032D02*
G01*
X3270501Y843528D01*
X3293107Y939032D02*
G01*
X3315967Y843528D01*
X3338573Y939032D02*
G01*
X3315967Y843528D01*
X2717800Y939032D02*
G01*
X2717800Y843528D01*
X2717800Y843528D02*
G01*
X2772409Y843528D01*
X2209800Y939032D02*
G01*
X2209800Y843528D01*
X2273554Y939032D02*
G01*
X2273554Y843528D01*
X2209800Y893566D02*
G01*
X2273554Y893566D01*
X1828800Y939032D02*
G01*
X1828800Y843528D01*
X1828800Y843528D02*
G01*
X1883410Y843528D01*
X1574800Y939032D02*
G01*
X1574800Y843528D01*
X1638554Y939032D02*
G01*
X1638554Y843528D01*
X1574800Y893566D02*
G01*
X1638554Y893566D01*
X1320800Y939032D02*
G01*
X1320800Y843528D01*
X1384554Y939032D02*
G01*
X1384554Y843528D01*
X1320800Y893566D02*
G01*
X1384554Y893566D01*
X3179572Y662426D02*
G01*
X3175254Y671570D01*
X3166109Y680460D01*
X3156965Y685032D01*
X3138677Y685032D01*
X3129788Y680460D01*
X3120643Y671570D01*
X3116072Y662426D01*
X3111500Y648710D01*
X3111500Y626104D01*
X3116072Y612388D01*
X3120643Y603244D01*
X3129788Y594100D01*
X3138677Y589528D01*
X3156965Y589528D01*
X3166109Y594100D01*
X3175254Y603244D01*
X3179572Y612388D01*
X3277870Y662426D02*
G01*
X3273297Y671570D01*
X3264154Y680460D01*
X3255009Y685032D01*
X3236975Y685032D01*
X3227831Y680460D01*
X3218688Y671570D01*
X3214115Y662426D01*
X3209797Y648710D01*
X3209797Y626104D01*
X3214115Y612388D01*
X3218688Y603244D01*
X3227831Y594100D01*
X3236975Y589528D01*
X3255009Y589528D01*
X3264154Y594100D01*
X3273297Y603244D01*
X3277870Y612388D01*
X3307841Y685032D02*
G01*
X3330702Y589528D01*
X3353308Y685032D02*
G01*
X3330702Y589528D01*
X3353308Y685032D02*
G01*
X3375913Y589528D01*
X3398774Y685032D02*
G01*
X3375913Y589528D01*
X2717800Y685032D02*
G01*
X2717800Y589528D01*
X2781554Y685032D02*
G01*
X2781554Y589528D01*
X2717800Y639566D02*
G01*
X2781554Y639566D01*
X2209800Y685032D02*
G01*
X2209800Y589528D01*
X2209800Y589528D02*
G01*
X2264409Y589528D01*
X1828800Y685032D02*
G01*
X1828800Y589528D01*
X1892554Y685032D02*
G01*
X1892554Y589528D01*
X1828800Y639566D02*
G01*
X1892554Y639566D01*
X1574800Y685032D02*
G01*
X1574800Y589528D01*
X1574800Y589528D02*
G01*
X1629410Y589528D01*
X1320800Y685032D02*
G01*
X1320800Y589528D01*
X1384554Y685032D02*
G01*
X1384554Y589528D01*
X1320800Y639566D02*
G01*
X1384554Y639566D01*
X3035300Y431032D02*
G01*
X3035300Y335528D01*
X3035300Y431032D02*
G01*
X3076193Y431032D01*
X3089909Y426460D01*
X3094481Y422142D01*
X3099054Y412998D01*
X3099054Y403854D01*
X3094481Y394710D01*
X3089909Y390138D01*
X3076193Y385566D01*
X3035300Y385566D02*
G01*
X3076193Y385566D01*
X3089909Y380994D01*
X3094481Y376676D01*
X3099054Y367532D01*
X3099054Y353816D01*
X3094481Y344672D01*
X3089909Y340100D01*
X3076193Y335528D01*
X3035300Y335528D01*
X3129025Y431032D02*
G01*
X3129025Y335528D01*
X3129025Y431032D02*
G01*
X3169920Y431032D01*
X3183381Y426460D01*
X3187954Y422142D01*
X3192525Y412998D01*
X3192525Y403854D01*
X3187954Y394710D01*
X3183381Y390138D01*
X3169920Y385566D01*
X3129025Y385566D01*
X3160775Y385566D02*
G01*
X3192525Y335528D01*
X3258820Y431032D02*
G01*
X3222497Y335528D01*
X3258820Y431032D02*
G01*
X3295395Y335528D01*
X3236213Y367532D02*
G01*
X3281679Y367532D01*
X3325368Y431032D02*
G01*
X3325368Y335528D01*
X3388868Y431032D02*
G01*
X3325368Y367532D01*
X3347974Y390138D02*
G01*
X3388868Y335528D01*
X3418840Y431032D02*
G01*
X3418840Y335528D01*
X3418840Y431032D02*
G01*
X3478022Y431032D01*
X3418840Y385566D02*
G01*
X3455415Y385566D01*
X3418840Y335528D02*
G01*
X3478022Y335528D01*
X2717800Y431032D02*
G01*
X2717800Y335528D01*
X2717800Y335528D02*
G01*
X2772409Y335528D01*
X2209800Y431032D02*
G01*
X2209800Y335528D01*
X2209800Y335528D02*
G01*
X2264409Y335528D01*
X1828800Y431032D02*
G01*
X1828800Y335528D01*
X1892554Y431032D02*
G01*
X1892554Y335528D01*
X1828800Y385566D02*
G01*
X1892554Y385566D01*
X1574800Y431032D02*
G01*
X1574800Y335528D01*
X1638554Y431032D02*
G01*
X1638554Y335528D01*
X1574800Y385566D02*
G01*
X1638554Y385566D01*
X1320800Y431032D02*
G01*
X1320800Y335528D01*
X1384554Y431032D02*
G01*
X1384554Y335528D01*
X1320800Y385566D02*
G01*
X1384554Y385566D01*
X79827Y3766118D02*
G01*
X152471Y3807012D01*
X79827Y3847906D01*
X79827Y3512118D02*
G01*
X152471Y3553012D01*
X79827Y3593906D01*
X79827Y2750118D02*
G01*
X152471Y2791012D01*
X79827Y2831906D01*
X79827Y2242118D02*
G01*
X152471Y2283012D01*
X79827Y2323906D01*
X79827Y1988118D02*
G01*
X152471Y2029012D01*
X79827Y2069906D01*
X79827Y3004118D02*
G01*
X152471Y3045012D01*
X79827Y3085906D01*
X5762198Y4735548D02*
G01*
X5689554Y4694638D01*
X5762198Y4653754D01*
X5689600Y3211576D02*
G01*
X5762243Y3170428D01*
X5689600Y3129534D01*
X5689600Y2703576D02*
G01*
X5762243Y2662428D01*
X5689600Y2621534D01*
X5689600Y1687576D02*
G01*
X5762243Y1646428D01*
X5689600Y1605534D01*
X5689600Y1179576D02*
G01*
X5762243Y1138428D01*
X5689600Y1097534D01*
X5762198Y4227548D02*
G01*
X5689554Y4186638D01*
X5762198Y4145754D01*
X4782565Y5714237D02*
G01*
X4782565Y5641594D01*
X4777993Y5627878D01*
X4773422Y5623305D01*
X4764277Y5618734D01*
X4755388Y5618734D01*
X4746243Y5623305D01*
X4741672Y5627878D01*
X4737100Y5641594D01*
X4737100Y5650737D01*
X4812538Y5696204D02*
G01*
X4821681Y5700776D01*
X4835397Y5714237D01*
X4835397Y5618734D01*
X4805172Y5424931D02*
G01*
X4800854Y5434076D01*
X4791709Y5442965D01*
X4782565Y5447537D01*
X4764277Y5447537D01*
X4755388Y5442965D01*
X4746243Y5434076D01*
X4741672Y5424931D01*
X4737100Y5411215D01*
X4737100Y5388610D01*
X4741672Y5374894D01*
X4746243Y5365750D01*
X4755388Y5356605D01*
X4764277Y5352034D01*
X4782565Y5352034D01*
X4791709Y5356605D01*
X4800854Y5365750D01*
X4805172Y5374894D01*
X4805172Y5388610D01*
X4782565Y5388610D02*
G01*
X4805172Y5388610D01*
X4835397Y5447537D02*
G01*
X4835397Y5352034D01*
X4835397Y5447537D02*
G01*
X4898897Y5352034D01*
X4898897Y5447537D02*
G01*
X4898897Y5352034D01*
X4928870Y5447537D02*
G01*
X4928870Y5352034D01*
X4928870Y5447537D02*
G01*
X4960620Y5447537D01*
X4974336Y5442965D01*
X4983479Y5434076D01*
X4988052Y5424931D01*
X4992624Y5411215D01*
X4992624Y5388610D01*
X4988052Y5374894D01*
X4983479Y5365750D01*
X4974336Y5356605D01*
X4960620Y5352034D01*
X4928870Y5352034D01*
X4764277Y5307837D02*
G01*
X4755388Y5303265D01*
X4746243Y5294376D01*
X4741672Y5285231D01*
X4737100Y5271515D01*
X4737100Y5248910D01*
X4741672Y5235194D01*
X4746243Y5226050D01*
X4755388Y5216905D01*
X4764277Y5212334D01*
X4782565Y5212334D01*
X4791709Y5216905D01*
X4800854Y5226050D01*
X4805172Y5235194D01*
X4809743Y5248910D01*
X4809743Y5271515D01*
X4805172Y5285231D01*
X4800854Y5294376D01*
X4791709Y5303265D01*
X4782565Y5307837D01*
X4764277Y5307837D01*
X4839715Y5307837D02*
G01*
X4839715Y5212334D01*
X4839715Y5307837D02*
G01*
X4903470Y5212334D01*
X4903470Y5307837D02*
G01*
X4903470Y5212334D01*
X4933441Y5307837D02*
G01*
X4933441Y5212334D01*
X4933441Y5212334D02*
G01*
X4988052Y5212334D01*
X5018024Y5307837D02*
G01*
X5054345Y5262371D01*
X5054345Y5212334D01*
X5090668Y5307837D02*
G01*
X5054345Y5262371D01*
X3659375Y1701037D02*
G01*
X3650485Y1696465D01*
X3641341Y1687576D01*
X3636769Y1678431D01*
X3632197Y1664715D01*
X3632197Y1642110D01*
X3636769Y1628394D01*
X3641341Y1619250D01*
X3650485Y1610105D01*
X3659375Y1605534D01*
X3677663Y1605534D01*
X3686807Y1610105D01*
X3695951Y1619250D01*
X3700269Y1628394D01*
X3704841Y1642110D01*
X3704841Y1664715D01*
X3700269Y1678431D01*
X3695951Y1687576D01*
X3686807Y1696465D01*
X3677663Y1701037D01*
X3659375Y1701037D01*
X3734813Y1701037D02*
G01*
X3734813Y1605534D01*
X3734813Y1701037D02*
G01*
X3775707Y1701037D01*
X3789423Y1696465D01*
X3793995Y1691894D01*
X3798567Y1683004D01*
X3798567Y1673860D01*
X3793995Y1664715D01*
X3789423Y1660144D01*
X3775707Y1655571D01*
X3734813Y1655571D01*
X3766817Y1655571D02*
G01*
X3798567Y1605534D01*
X3864861Y1701037D02*
G01*
X3828539Y1605534D01*
X3864861Y1701037D02*
G01*
X3901183Y1605534D01*
X3842255Y1637537D02*
G01*
X3887721Y1637537D01*
X3931409Y1701037D02*
G01*
X3931409Y1605534D01*
X3931409Y1701037D02*
G01*
X3994909Y1605534D01*
X3994909Y1701037D02*
G01*
X3994909Y1605534D01*
X4093207Y1678431D02*
G01*
X4088635Y1687576D01*
X4079491Y1696465D01*
X4070347Y1701037D01*
X4052313Y1701037D01*
X4043169Y1696465D01*
X4034025Y1687576D01*
X4029453Y1678431D01*
X4024881Y1664715D01*
X4024881Y1642110D01*
X4029453Y1628394D01*
X4034025Y1619250D01*
X4043169Y1610105D01*
X4052313Y1605534D01*
X4070347Y1605534D01*
X4079491Y1610105D01*
X4088635Y1619250D01*
X4093207Y1628394D01*
X4093207Y1642110D01*
X4070347Y1642110D02*
G01*
X4093207Y1642110D01*
X4123179Y1701037D02*
G01*
X4123179Y1605534D01*
X4123179Y1701037D02*
G01*
X4182107Y1701037D01*
X4123179Y1655571D02*
G01*
X4159501Y1655571D01*
X4123179Y1605534D02*
G01*
X4182107Y1605534D01*
X3860800Y2107437D02*
G01*
X3860800Y2011934D01*
X3860800Y2107437D02*
G01*
X3901693Y2107437D01*
X3915409Y2102865D01*
X3919981Y2098294D01*
X3924554Y2089404D01*
X3924554Y2080260D01*
X3919981Y2071115D01*
X3915409Y2066544D01*
X3901693Y2061971D01*
X3860800Y2061971D02*
G01*
X3901693Y2061971D01*
X3915409Y2057400D01*
X3919981Y2053081D01*
X3924554Y2043937D01*
X3924554Y2030221D01*
X3919981Y2021078D01*
X3915409Y2016505D01*
X3901693Y2011934D01*
X3860800Y2011934D01*
X3954525Y2107437D02*
G01*
X3954525Y2011934D01*
X3954525Y2011934D02*
G01*
X4008881Y2011934D01*
X4038854Y2107437D02*
G01*
X4038854Y2039365D01*
X4043425Y2025650D01*
X4052570Y2016505D01*
X4066286Y2011934D01*
X4075429Y2011934D01*
X4088891Y2016505D01*
X4098036Y2025650D01*
X4102608Y2039365D01*
X4102608Y2107437D01*
X4132579Y2107437D02*
G01*
X4132579Y2011934D01*
X4132579Y2107437D02*
G01*
X4191761Y2107437D01*
X4132579Y2061971D02*
G01*
X4168902Y2061971D01*
X4132579Y2011934D02*
G01*
X4191761Y2011934D01*
X3937000Y2310637D02*
G01*
X3937000Y2215134D01*
X3937000Y2310637D02*
G01*
X3977893Y2310637D01*
X3991609Y2306065D01*
X3996181Y2301494D01*
X4000754Y2292604D01*
X4000754Y2283460D01*
X3996181Y2274315D01*
X3991609Y2269744D01*
X3977893Y2265171D01*
X3937000Y2265171D01*
X3968750Y2265171D02*
G01*
X4000754Y2215134D01*
X4030725Y2310637D02*
G01*
X4030725Y2215134D01*
X4030725Y2310637D02*
G01*
X4089654Y2310637D01*
X4030725Y2265171D02*
G01*
X4067047Y2265171D01*
X4030725Y2215134D02*
G01*
X4089654Y2215134D01*
X4119625Y2310637D02*
G01*
X4119625Y2215134D01*
X4119625Y2310637D02*
G01*
X4151629Y2310637D01*
X4165091Y2306065D01*
X4174236Y2297176D01*
X4178808Y2288031D01*
X4183379Y2274315D01*
X4183379Y2251710D01*
X4178808Y2237994D01*
X4174236Y2228850D01*
X4165091Y2219705D01*
X4151629Y2215134D01*
X4119625Y2215134D01*
X3632200Y2717037D02*
G01*
X3668522Y2671571D01*
X3668522Y2621534D01*
X3704843Y2717037D02*
G01*
X3668522Y2671571D01*
X3734815Y2717037D02*
G01*
X3734815Y2621534D01*
X3734815Y2717037D02*
G01*
X3793997Y2717037D01*
X3734815Y2671571D02*
G01*
X3771391Y2671571D01*
X3734815Y2621534D02*
G01*
X3793997Y2621534D01*
X3823970Y2717037D02*
G01*
X3823970Y2621534D01*
X3823970Y2621534D02*
G01*
X3878579Y2621534D01*
X3908552Y2717037D02*
G01*
X3908552Y2621534D01*
X3908552Y2621534D02*
G01*
X3963161Y2621534D01*
X4020311Y2717037D02*
G01*
X4011168Y2712465D01*
X4002277Y2703576D01*
X3997706Y2694431D01*
X3993134Y2680715D01*
X3993134Y2658110D01*
X3997706Y2644394D01*
X4002277Y2635250D01*
X4011168Y2626105D01*
X4020311Y2621534D01*
X4038600Y2621534D01*
X4047743Y2626105D01*
X4056634Y2635250D01*
X4061206Y2644394D01*
X4065777Y2658110D01*
X4065777Y2680715D01*
X4061206Y2694431D01*
X4056634Y2703576D01*
X4047743Y2712465D01*
X4038600Y2717037D01*
X4020311Y2717037D01*
X4095750Y2717037D02*
G01*
X4118609Y2621534D01*
X4141215Y2717037D02*
G01*
X4118609Y2621534D01*
X4141215Y2717037D02*
G01*
X4164075Y2621534D01*
X4186681Y2717037D02*
G01*
X4164075Y2621534D01*
X4064000Y4012437D02*
G01*
X4064000Y3916934D01*
X4064000Y4012437D02*
G01*
X4095750Y4012437D01*
X4109465Y4007865D01*
X4118609Y3998976D01*
X4123181Y3989831D01*
X4127754Y3976115D01*
X4127754Y3953510D01*
X4123181Y3939794D01*
X4118609Y3930650D01*
X4109465Y3921505D01*
X4095750Y3916934D01*
X4064000Y3916934D01*
X4162297Y3989831D02*
G01*
X4162297Y3994404D01*
X4166615Y4003294D01*
X4171188Y4007865D01*
X4180331Y4012437D01*
X4198620Y4012437D01*
X4207509Y4007865D01*
X4212081Y4003294D01*
X4216654Y3994404D01*
X4216654Y3985260D01*
X4212081Y3976115D01*
X4203191Y3962400D01*
X4157725Y3916934D01*
X4221225Y3916934D01*
X4267200Y4012437D02*
G01*
X4267200Y3916934D01*
X4267200Y4012437D02*
G01*
X4298950Y4012437D01*
X4312665Y4007865D01*
X4321809Y3998976D01*
X4326381Y3989831D01*
X4330954Y3976115D01*
X4330954Y3953510D01*
X4326381Y3939794D01*
X4321809Y3930650D01*
X4312665Y3921505D01*
X4298950Y3916934D01*
X4267200Y3916934D01*
X4369815Y4012437D02*
G01*
X4419854Y4012437D01*
X4392675Y3976115D01*
X4406391Y3976115D01*
X4415281Y3971544D01*
X4419854Y3966971D01*
X4424425Y3953510D01*
X4424425Y3944365D01*
X4419854Y3930650D01*
X4410709Y3921505D01*
X4397247Y3916934D01*
X4383531Y3916934D01*
X4369815Y3921505D01*
X4365497Y3926078D01*
X4360925Y3935221D01*
X4470400Y4012437D02*
G01*
X4470400Y3916934D01*
X4470400Y4012437D02*
G01*
X4502150Y4012437D01*
X4515865Y4007865D01*
X4525009Y3998976D01*
X4529581Y3989831D01*
X4534154Y3976115D01*
X4534154Y3953510D01*
X4529581Y3939794D01*
X4525009Y3930650D01*
X4515865Y3921505D01*
X4502150Y3916934D01*
X4470400Y3916934D01*
X4609591Y4012437D02*
G01*
X4564125Y3948937D01*
X4632197Y3948937D01*
X4609591Y4012437D02*
G01*
X4609591Y3916934D01*
X3860802Y812040D02*
G01*
X3860802Y716536D01*
X3860802Y812040D02*
G01*
X3892552Y812040D01*
X3906268Y807468D01*
X3915412Y798578D01*
X3919984Y789434D01*
X3924302Y775718D01*
X3924302Y753112D01*
X3919984Y739396D01*
X3915412Y730252D01*
X3906268Y721108D01*
X3892552Y716536D01*
X3860802Y716536D01*
X4008884Y812040D02*
G01*
X3963418Y812040D01*
X3959100Y771146D01*
X3963418Y775718D01*
X3977134Y780290D01*
X3990850Y780290D01*
X4004312Y775718D01*
X4013456Y766574D01*
X4018028Y753112D01*
X4018028Y743968D01*
X4013456Y730252D01*
X4004312Y721108D01*
X3990850Y716536D01*
X3977134Y716536D01*
X3963418Y721108D01*
X3959100Y725680D01*
X3954528Y734824D01*
X4470402Y812043D02*
G01*
X4470402Y716539D01*
X4470402Y812043D02*
G01*
X4502152Y812043D01*
X4515868Y807471D01*
X4525012Y798581D01*
X4529584Y789437D01*
X4533902Y775721D01*
X4533902Y753115D01*
X4529584Y739399D01*
X4525012Y730255D01*
X4515868Y721111D01*
X4502152Y716539D01*
X4470402Y716539D01*
X4618484Y798581D02*
G01*
X4613912Y807471D01*
X4600450Y812043D01*
X4591306Y812043D01*
X4577590Y807471D01*
X4568700Y794009D01*
X4564128Y771149D01*
X4564128Y748543D01*
X4568700Y730255D01*
X4577590Y721111D01*
X4591306Y716539D01*
X4595878Y716539D01*
X4609594Y721111D01*
X4618484Y730255D01*
X4623056Y743971D01*
X4623056Y748543D01*
X4618484Y762005D01*
X4609594Y771149D01*
X4595878Y775721D01*
X4591306Y775721D01*
X4577590Y771149D01*
X4568700Y762005D01*
X4564128Y748543D01*
X4267202Y812043D02*
G01*
X4267202Y716539D01*
X4267202Y812043D02*
G01*
X4298952Y812043D01*
X4312668Y807471D01*
X4321812Y798581D01*
X4326384Y789437D01*
X4330702Y775721D01*
X4330702Y753115D01*
X4326384Y739399D01*
X4321812Y730255D01*
X4312668Y721111D01*
X4298952Y716539D01*
X4267202Y716539D01*
X4424428Y812043D02*
G01*
X4378962Y716539D01*
X4360928Y812043D02*
G01*
X4424428Y812043D01*
X4064002Y812043D02*
G01*
X4064002Y716539D01*
X4064002Y812043D02*
G01*
X4095752Y812043D01*
X4109468Y807471D01*
X4118612Y798581D01*
X4123184Y789437D01*
X4127502Y775721D01*
X4127502Y753115D01*
X4123184Y739399D01*
X4118612Y730255D01*
X4109468Y721111D01*
X4095752Y716539D01*
X4064002Y716539D01*
X4180334Y812043D02*
G01*
X4166618Y807471D01*
X4162300Y798581D01*
X4162300Y789437D01*
X4166618Y780293D01*
X4175762Y775721D01*
X4194050Y771149D01*
X4207512Y766577D01*
X4216656Y757687D01*
X4221228Y748543D01*
X4221228Y734827D01*
X4216656Y725683D01*
X4212084Y721111D01*
X4198622Y716539D01*
X4180334Y716539D01*
X4166618Y721111D01*
X4162300Y725683D01*
X4157728Y734827D01*
X4157728Y748543D01*
X4162300Y757687D01*
X4171190Y766577D01*
X4184906Y771149D01*
X4203194Y775721D01*
X4212084Y780293D01*
X4216656Y789437D01*
X4216656Y798581D01*
X4212084Y807471D01*
X4198622Y812043D01*
X4180334Y812043D01*
X3886200Y4012437D02*
G01*
X3886200Y3916934D01*
X3886200Y4012437D02*
G01*
X3917950Y4012437D01*
X3931665Y4007865D01*
X3940809Y3998976D01*
X3945381Y3989831D01*
X3949954Y3976115D01*
X3949954Y3953510D01*
X3945381Y3939794D01*
X3940809Y3930650D01*
X3931665Y3921505D01*
X3917950Y3916934D01*
X3886200Y3916934D01*
X3979925Y3994404D02*
G01*
X3988815Y3998976D01*
X4002531Y4012437D01*
X4002531Y3916934D01*
X2552689Y2310622D02*
G01*
X2552689Y2215121D01*
X2552689Y2310622D02*
G01*
X2593583Y2310622D01*
X2607299Y2306053D01*
X2611871Y2301481D01*
X2616443Y2292588D01*
X2616443Y2283447D01*
X2611871Y2274303D01*
X2607299Y2269731D01*
X2593583Y2265156D01*
X2552689Y2265156D01*
X2584439Y2265156D02*
G01*
X2616443Y2215121D01*
X2646415Y2292588D02*
G01*
X2655305Y2297160D01*
X2669021Y2310622D01*
X2669021Y2215121D01*
X4090670Y2858515D02*
G01*
X4090670Y2775457D01*
X4085336Y2759710D01*
X4080256Y2754629D01*
X4069841Y2749550D01*
X4059427Y2749550D01*
X4049013Y2754629D01*
X4043679Y2759710D01*
X4038600Y2775457D01*
X4038600Y2785871D01*
X4187190Y2843021D02*
G01*
X4182109Y2853436D01*
X4166361Y2858515D01*
X4155947Y2858515D01*
X4140454Y2853436D01*
X4130040Y2837687D01*
X4124959Y2811779D01*
X4124959Y2785871D01*
X4130040Y2765044D01*
X4140454Y2754629D01*
X4155947Y2749550D01*
X4161281Y2749550D01*
X4176775Y2754629D01*
X4187190Y2765044D01*
X4192270Y2780537D01*
X4192270Y2785871D01*
X4187190Y2801365D01*
X4176775Y2811779D01*
X4161281Y2816860D01*
X4155947Y2816860D01*
X4140454Y2811779D01*
X4130040Y2801365D01*
X4124959Y2785871D01*
X2887492Y2288067D02*
G01*
X2882920Y2296957D01*
X2874030Y2306101D01*
X2864886Y2310673D01*
X2846598Y2310673D01*
X2837454Y2306101D01*
X2828564Y2296957D01*
X2823992Y2288067D01*
X2819420Y2274351D01*
X2819420Y2251491D01*
X2823992Y2238029D01*
X2828564Y2228885D01*
X2837454Y2219741D01*
X2846598Y2215169D01*
X2864886Y2215169D01*
X2874030Y2219741D01*
X2882920Y2228885D01*
X2887492Y2238029D01*
X2972074Y2310673D02*
G01*
X2926608Y2310673D01*
X2922036Y2269779D01*
X2926608Y2274351D01*
X2940324Y2278923D01*
X2954040Y2278923D01*
X2967502Y2274351D01*
X2976646Y2265207D01*
X2981218Y2251491D01*
X2981218Y2242601D01*
X2976646Y2228885D01*
X2967502Y2219741D01*
X2954040Y2215169D01*
X2940324Y2215169D01*
X2926608Y2219741D01*
X2922036Y2224313D01*
X2917464Y2233457D01*
X3116066Y3634224D02*
G01*
X3111748Y3643368D01*
X3102604Y3652258D01*
X3093460Y3656830D01*
X3075172Y3656830D01*
X3066282Y3652258D01*
X3057138Y3643368D01*
X3052566Y3634224D01*
X3047994Y3620508D01*
X3047994Y3597902D01*
X3052566Y3584186D01*
X3057138Y3575042D01*
X3066282Y3565898D01*
X3075172Y3561326D01*
X3093460Y3561326D01*
X3102604Y3565898D01*
X3111748Y3575042D01*
X3116066Y3584186D01*
X3155182Y3656830D02*
G01*
X3205220Y3656830D01*
X3178042Y3620508D01*
X3191504Y3620508D01*
X3200648Y3615936D01*
X3205220Y3611364D01*
X3209792Y3597902D01*
X3209792Y3588758D01*
X3205220Y3575042D01*
X3196076Y3565898D01*
X3182614Y3561326D01*
X3168898Y3561326D01*
X3155182Y3565898D01*
X3150610Y3570470D01*
X3146292Y3579614D01*
X3433572Y3431031D02*
G01*
X3429000Y3439921D01*
X3420109Y3449065D01*
X3410965Y3453637D01*
X3392677Y3453637D01*
X3383534Y3449065D01*
X3374643Y3439921D01*
X3370072Y3431031D01*
X3365500Y3417315D01*
X3365500Y3394455D01*
X3370072Y3380994D01*
X3374643Y3371850D01*
X3383534Y3362705D01*
X3392677Y3358134D01*
X3410965Y3358134D01*
X3420109Y3362705D01*
X3429000Y3371850D01*
X3433572Y3380994D01*
X3509009Y3453637D02*
G01*
X3463543Y3390137D01*
X3531870Y3390137D01*
X3509009Y3453637D02*
G01*
X3509009Y3358134D01*
X2887466Y3634224D02*
G01*
X2883148Y3643368D01*
X2874004Y3652258D01*
X2864860Y3656830D01*
X2846572Y3656830D01*
X2837682Y3652258D01*
X2828538Y3643368D01*
X2823966Y3634224D01*
X2819394Y3620508D01*
X2819394Y3597902D01*
X2823966Y3584186D01*
X2828538Y3575042D01*
X2837682Y3565898D01*
X2846572Y3561326D01*
X2864860Y3561326D01*
X2874004Y3565898D01*
X2883148Y3575042D01*
X2887466Y3584186D01*
X2922010Y3634224D02*
G01*
X2922010Y3638796D01*
X2926582Y3647686D01*
X2931154Y3652258D01*
X2940298Y3656830D01*
X2958586Y3656830D01*
X2967476Y3652258D01*
X2972048Y3647686D01*
X2976620Y3638796D01*
X2976620Y3629652D01*
X2972048Y3620508D01*
X2962904Y3606792D01*
X2917692Y3561326D01*
X2981192Y3561326D01*
X2608072Y3431031D02*
G01*
X2603754Y3440176D01*
X2594609Y3449065D01*
X2585465Y3453637D01*
X2567177Y3453637D01*
X2558288Y3449065D01*
X2549143Y3440176D01*
X2544572Y3431031D01*
X2540000Y3417315D01*
X2540000Y3394710D01*
X2544572Y3380994D01*
X2549143Y3371850D01*
X2558288Y3362705D01*
X2567177Y3358134D01*
X2585465Y3358134D01*
X2594609Y3362705D01*
X2603754Y3371850D01*
X2608072Y3380994D01*
X2638297Y3435604D02*
G01*
X2647188Y3440176D01*
X2660904Y3453637D01*
X2660904Y3358134D01*
X2565400Y3148837D02*
G01*
X2565400Y3080765D01*
X2569972Y3067050D01*
X2579115Y3057905D01*
X2592577Y3053334D01*
X2601722Y3053334D01*
X2615438Y3057905D01*
X2624581Y3067050D01*
X2629154Y3080765D01*
X2629154Y3148837D01*
X2659125Y3130804D02*
G01*
X2668015Y3135376D01*
X2681731Y3148837D01*
X2681731Y3053334D01*
X4617455Y5028427D02*
G01*
X4617455Y4955783D01*
X4612883Y4942067D01*
X4608311Y4937495D01*
X4599167Y4932923D01*
X4590277Y4932923D01*
X4581133Y4937495D01*
X4576561Y4942067D01*
X4571989Y4955783D01*
X4571989Y4964927D01*
X4656571Y5028427D02*
G01*
X4706609Y5028427D01*
X4679177Y4992105D01*
X4692893Y4992105D01*
X4702037Y4987533D01*
X4706609Y4982961D01*
X4711181Y4969499D01*
X4711181Y4960355D01*
X4706609Y4946639D01*
X4697465Y4937495D01*
X4683749Y4932923D01*
X4670287Y4932923D01*
X4656571Y4937495D01*
X4651999Y4942067D01*
X4647427Y4951211D01*
X4846045Y3682222D02*
G01*
X4846045Y3609578D01*
X4841473Y3595862D01*
X4836901Y3591290D01*
X4827757Y3586718D01*
X4818867Y3586718D01*
X4809723Y3591290D01*
X4805151Y3595862D01*
X4800579Y3609578D01*
X4800579Y3618722D01*
X4921483Y3682222D02*
G01*
X4876017Y3618722D01*
X4944089Y3618722D01*
X4921483Y3682222D02*
G01*
X4921483Y3586718D01*
X4846045Y2158230D02*
G01*
X4846045Y2085586D01*
X4841473Y2071870D01*
X4836901Y2067298D01*
X4827757Y2062726D01*
X4818867Y2062726D01*
X4809723Y2067298D01*
X4805151Y2071870D01*
X4800579Y2085586D01*
X4800579Y2094730D01*
X4930627Y2158230D02*
G01*
X4885161Y2158230D01*
X4880589Y2117336D01*
X4885161Y2121908D01*
X4898877Y2126480D01*
X4912339Y2126480D01*
X4926055Y2121908D01*
X4935199Y2112764D01*
X4939771Y2099302D01*
X4939771Y2090158D01*
X4935199Y2076442D01*
X4926055Y2067298D01*
X4912339Y2062726D01*
X4898877Y2062726D01*
X4885161Y2067298D01*
X4880589Y2071870D01*
X4876017Y2081014D01*
G36*
X4204919Y3821074D02*
G01*
X4204919Y3790594D01*
X4234434Y3790594D01*
X4234434Y3821074D01*
G37*
G36*
X4045965Y3821074D02*
G01*
X4045965Y3790594D01*
X4075429Y3790594D01*
X4075429Y3821074D01*
G37*
G36*
X4408119Y3821074D02*
G01*
X4408119Y3790594D01*
X4437634Y3790594D01*
X4437634Y3821074D01*
G37*
G36*
X4249166Y3821074D02*
G01*
X4249166Y3790594D01*
X4278630Y3790594D01*
X4278630Y3821074D01*
G37*
G36*
X4611319Y3821074D02*
G01*
X4611319Y3790594D01*
X4640834Y3790594D01*
X4640834Y3821074D01*
G37*
G36*
X4452366Y3821074D02*
G01*
X4452366Y3790594D01*
X4481830Y3790594D01*
X4481830Y3821074D01*
G37*
G36*
X4001719Y620674D02*
G01*
X4001719Y590194D01*
X4031234Y590194D01*
X4031234Y620674D01*
G37*
G36*
X3842765Y620674D02*
G01*
X3842765Y590194D01*
X3872229Y590194D01*
X3872229Y620674D01*
G37*
G36*
X4611319Y620674D02*
G01*
X4611319Y590194D01*
X4640834Y590194D01*
X4640834Y620674D01*
G37*
G36*
X4452366Y620674D02*
G01*
X4452366Y590194D01*
X4481830Y590194D01*
X4481830Y620674D01*
G37*
G36*
X4408119Y620674D02*
G01*
X4408119Y590194D01*
X4437634Y590194D01*
X4437634Y620674D01*
G37*
G36*
X4249166Y620674D02*
G01*
X4249166Y590194D01*
X4278630Y590194D01*
X4278630Y620674D01*
G37*
G36*
X4204919Y620674D02*
G01*
X4204919Y590194D01*
X4234434Y590194D01*
X4234434Y620674D01*
G37*
G36*
X4045965Y620674D02*
G01*
X4045965Y590194D01*
X4075429Y590194D01*
X4075429Y620674D01*
G37*
G36*
X4001719Y3821074D02*
G01*
X4001719Y3790594D01*
X4031234Y3790594D01*
X4031234Y3821074D01*
G37*
G36*
X3842765Y3821074D02*
G01*
X3842765Y3790594D01*
X3872229Y3790594D01*
X3872229Y3821074D01*
G37*
D11*
X1219200Y1015994D02*
G01*
X3505187Y1015994D01*
X2997200Y1777994D02*
G01*
X2997200Y254000D01*
D10*
X4226811Y3798211D02*
G01*
X4226811Y3516972D01*
X4226811Y3516972D02*
G01*
X4210011Y3516972D01*
X4053573Y3798211D02*
G01*
X4053573Y3516972D01*
X4053573Y3516972D02*
G01*
X4070372Y3516972D01*
X4226811Y3762522D02*
G01*
X4053573Y3762522D01*
X4430011Y3798211D02*
G01*
X4430011Y3516972D01*
X4430011Y3516972D02*
G01*
X4413211Y3516972D01*
X4256773Y3798211D02*
G01*
X4256773Y3516972D01*
X4256773Y3516972D02*
G01*
X4273572Y3516972D01*
X4430011Y3762522D02*
G01*
X4256773Y3762522D01*
X4633211Y3798211D02*
G01*
X4633211Y3516972D01*
X4633211Y3516972D02*
G01*
X4616411Y3516972D01*
X4459973Y3798211D02*
G01*
X4459973Y3516972D01*
X4459973Y3516972D02*
G01*
X4476772Y3516972D01*
X4633211Y3762522D02*
G01*
X4459973Y3762522D01*
X4023611Y597819D02*
G01*
X4023611Y316580D01*
X4023611Y316580D02*
G01*
X4006811Y316580D01*
X3850373Y597819D02*
G01*
X3850373Y316580D01*
X3850373Y316580D02*
G01*
X3867172Y316580D01*
X4023611Y562129D02*
G01*
X3850373Y562129D01*
X4633211Y597819D02*
G01*
X4633211Y316580D01*
X4633211Y316580D02*
G01*
X4616411Y316580D01*
X4459973Y597819D02*
G01*
X4459973Y316580D01*
X4459973Y316580D02*
G01*
X4476772Y316580D01*
X4633211Y562129D02*
G01*
X4459973Y562129D01*
X4430011Y597819D02*
G01*
X4430011Y316580D01*
X4430011Y316580D02*
G01*
X4413211Y316580D01*
X4256773Y597819D02*
G01*
X4256773Y316580D01*
X4256773Y316580D02*
G01*
X4273572Y316580D01*
X4430011Y562129D02*
G01*
X4256773Y562129D01*
X4226811Y597819D02*
G01*
X4226811Y316580D01*
X4226811Y316580D02*
G01*
X4210011Y316580D01*
X4053573Y597819D02*
G01*
X4053573Y316580D01*
X4053573Y316580D02*
G01*
X4070372Y316580D01*
X4226811Y562129D02*
G01*
X4053573Y562129D01*
X4023611Y3798211D02*
G01*
X4023611Y3516972D01*
X4023611Y3516972D02*
G01*
X4006811Y3516972D01*
X3850373Y3798211D02*
G01*
X3850373Y3516972D01*
X3850373Y3516972D02*
G01*
X3867172Y3516972D01*
X4023611Y3762522D02*
G01*
X3850373Y3762522D01*
D11*
X2696199Y2544587D02*
G01*
X2696199Y2669590D01*
X2696710Y2359532D02*
G01*
X2536705Y2359532D01*
X2696199Y2669590D02*
G01*
X2536192Y2669590D01*
X2536705Y2484528D02*
G01*
X2536705Y2359532D01*
X2696710Y2484528D02*
G01*
X2696710Y2359532D01*
X2536192Y2544587D02*
G01*
X2536192Y2669590D01*
X4386572Y2849112D02*
G01*
X4386572Y2799074D01*
X4309610Y2799074D01*
X4309610Y2559044D01*
X4249666Y2559044D01*
X4249666Y2449062D01*
X4388408Y1458996D02*
G01*
X4388408Y1508993D01*
X4309592Y1508993D01*
X4309592Y1768995D01*
X4259592Y1768995D01*
X4450100Y1458996D02*
G01*
X4450100Y1508993D01*
X4649591Y1508993D01*
X4649591Y2798996D01*
X4449592Y2798996D01*
X4449592Y2848993D01*
X4450092Y2848993D01*
X4699594Y1458993D02*
G01*
X4699594Y2848993D01*
X4249592Y1458996D02*
G01*
X4699594Y1458993D01*
X4249592Y2848993D02*
G01*
X4699594Y2848993D01*
X4249592Y1458996D02*
G01*
X4249592Y2848993D01*
X2855622Y2653596D02*
G01*
X2935625Y2653596D01*
X2824637Y2542621D02*
G01*
X2824637Y2622618D01*
X2966598Y2542621D02*
G01*
X2966598Y2622618D01*
X2824055Y2485031D02*
G01*
X2824055Y2405032D01*
X2855038Y2374049D02*
G01*
X2935030Y2374049D01*
X2966016Y2485031D02*
G01*
X2966016Y2405032D01*
X3058822Y3466393D02*
G01*
X3138825Y3466393D01*
X3027837Y3355418D02*
G01*
X3027837Y3435416D01*
X3169798Y3355418D02*
G01*
X3169798Y3435416D01*
X3027255Y3297829D02*
G01*
X3027255Y3217829D01*
X3058238Y3186846D02*
G01*
X3138230Y3186846D01*
X3169216Y3297829D02*
G01*
X3169216Y3217829D01*
X3211220Y3466393D02*
G01*
X3291222Y3466393D01*
X3180234Y3355418D02*
G01*
X3180234Y3435416D01*
X3322195Y3355418D02*
G01*
X3322195Y3435416D01*
X3179653Y3297829D02*
G01*
X3179653Y3217829D01*
X3210636Y3186846D02*
G01*
X3290628Y3186846D01*
X3321613Y3297829D02*
G01*
X3321613Y3217829D01*
X2906422Y3466393D02*
G01*
X2986425Y3466393D01*
X2875437Y3355418D02*
G01*
X2875437Y3435416D01*
X3017398Y3355418D02*
G01*
X3017398Y3435416D01*
X2874855Y3297829D02*
G01*
X2874855Y3217829D01*
X2905838Y3186846D02*
G01*
X2985830Y3186846D01*
X3016816Y3297829D02*
G01*
X3016816Y3217829D01*
X2754022Y3466393D02*
G01*
X2834025Y3466393D01*
X2723037Y3355418D02*
G01*
X2723037Y3435416D01*
X2864998Y3355418D02*
G01*
X2864998Y3435416D01*
X2722455Y3297829D02*
G01*
X2722455Y3217829D01*
X2753438Y3186846D02*
G01*
X2833430Y3186846D01*
X2864416Y3297829D02*
G01*
X2864416Y3217829D01*
D12*
X3071004Y3070999D02*
G01*
X3071004Y3025424D01*
X3071004Y2816575D02*
G01*
X3071004Y2771000D01*
X2771005Y3070999D02*
G01*
X2771005Y3025424D01*
X2771005Y2816575D02*
G01*
X2771005Y2771000D01*
X3071004Y3070999D02*
G01*
X3025429Y3070999D01*
X2816580Y3070999D02*
G01*
X2771005Y3070999D01*
X2771005Y2771000D02*
G01*
X2816580Y2771000D01*
X3025429Y2771000D02*
G01*
X3071004Y2771000D01*
D13*
X5526201Y3837000D02*
G01*
X5536201Y5052999D01*
X4953002Y4343400D02*
G01*
X4953002Y4521200D01*
X4953002Y4851400D02*
G01*
X4953002Y4978400D01*
X4953002Y4013200D02*
G01*
X4953002Y3911600D01*
X5410202Y3911600D01*
X5410202Y4978400D01*
X4953002Y4978400D01*
D11*
X4776193Y3837000D02*
G01*
X4776193Y5052999D01*
X5636186Y5052999D01*
X5636186Y3837000D01*
X4776193Y3837000D01*
D13*
X5526201Y2313002D02*
G01*
X5536201Y3529004D01*
X4953002Y2819405D02*
G01*
X4953002Y2997205D01*
X4953002Y3327405D02*
G01*
X4953002Y3454405D01*
X4953002Y2489205D02*
G01*
X4953002Y2387605D01*
X5410202Y2387605D01*
X5410202Y3454405D01*
X4953002Y3454405D01*
D11*
X4776193Y2313002D02*
G01*
X4776193Y3529004D01*
X5636186Y3529004D01*
X5636186Y2313002D01*
X4776193Y2313002D01*
D13*
X5526201Y789015D02*
G01*
X5536201Y2005015D01*
X4953002Y1295415D02*
G01*
X4953002Y1473215D01*
X4953002Y1803415D02*
G01*
X4953002Y1930415D01*
X4953002Y965215D02*
G01*
X4953002Y863615D01*
X5410202Y863615D01*
X5410202Y1930415D01*
X4953002Y1930415D01*
D11*
X4776193Y789015D02*
G01*
X4776193Y2005015D01*
X5636186Y2005015D01*
X5636186Y789015D01*
X4776193Y789015D01*
G75*
G01*
X2855039Y2374044D02*
G02*
X2824056Y2405027I0J30983D01*
G75*
G01*
X2966016Y2405027D02*
G02*
X2935031Y2374044I-30983J0D01*
G75*
G01*
X2824637Y2622614D02*
G02*
X2855623Y2653596I30983J0D01*
G75*
G01*
X2935615Y2653596D02*
G02*
X2966598Y2622614I0J-30982D01*
G75*
G01*
X3058239Y3186841D02*
G02*
X3027256Y3217824I0J30983D01*
G75*
G01*
X3169216Y3217824D02*
G02*
X3138231Y3186841I-30983J0D01*
G75*
G01*
X3027837Y3435411D02*
G02*
X3058823Y3466394I30983J0D01*
G75*
G01*
X3138815Y3466394D02*
G02*
X3169798Y3435411I0J-30983D01*
G75*
G01*
X3210636Y3186841D02*
G02*
X3179653Y3217824I0J30983D01*
G75*
G01*
X3321614Y3217824D02*
G02*
X3290628Y3186841I-30983J0D01*
G75*
G01*
X3180235Y3435411D02*
G02*
X3211220Y3466394I30983J0D01*
G75*
G01*
X3291213Y3466394D02*
G02*
X3322196Y3435411I0J-30983D01*
G75*
G01*
X2905839Y3186841D02*
G02*
X2874856Y3217824I0J30983D01*
G75*
G01*
X3016816Y3217824D02*
G02*
X2985831Y3186841I-30983J0D01*
G75*
G01*
X2875437Y3435411D02*
G02*
X2906423Y3466394I30983J0D01*
G75*
G01*
X2986415Y3466394D02*
G02*
X3017398Y3435411I0J-30983D01*
G75*
G01*
X2753439Y3186841D02*
G02*
X2722456Y3217824I0J30983D01*
G75*
G01*
X2864416Y3217824D02*
G02*
X2833431Y3186841I-30983J0D01*
G75*
G01*
X2723037Y3435411D02*
G02*
X2754023Y3466394I30983J0D01*
G75*
G01*
X2834015Y3466394D02*
G02*
X2864998Y3435411I0J-30983D01*
D14*
G75*
G01*
X2747000Y3046125D02*
G03*
X2747000Y3045871I-993J-127D01*
D13*
G75*
G01*
X4953003Y4521200D02*
G02*
X4953003Y4851400I233398J165100D01*
G75*
G01*
X4953003Y4013200D02*
G02*
X4953003Y4343400I233398J165100D01*
G75*
G01*
X4953003Y2997205D02*
G02*
X4953003Y3327405I233398J165100D01*
G75*
G01*
X4953003Y2489205D02*
G02*
X4953003Y2819405I233398J165100D01*
G75*
G01*
X4953003Y1473215D02*
G02*
X4953003Y1803415I233398J165100D01*
G75*
G01*
X4953003Y965215D02*
G02*
X4953003Y1295415I233398J165100D01*
D11*
X235407Y4343704D02*
G01*
X1085418Y4343704D01*
X1085418Y1493697D01*
X235407Y1493697D01*
X235407Y4343704D01*
X4445000Y5715000D02*
G01*
X4699000Y5715000D01*
X4699000Y5207000D01*
X4445000Y5207000D01*
X4445000Y5715000D01*
X1219200Y1778000D02*
G01*
X3505200Y1778000D01*
X3505200Y254000D01*
X1219200Y254000D01*
X1219200Y1778000D01*
X1219200Y1524000D02*
G01*
X3505200Y1524000D01*
X3505200Y508000D01*
X1219200Y508000D01*
X1219200Y1524000D01*
X1219200Y1270000D02*
G01*
X3505200Y1270000D01*
X3505200Y762000D01*
X1219200Y762000D01*
X1219200Y1270000D01*
X1473200Y1778000D02*
G01*
X1727200Y1778000D01*
X1727200Y254000D01*
X1473200Y254000D01*
X1473200Y1778000D01*
X1981200Y1778000D02*
G01*
X2489200Y1778000D01*
X2489200Y254000D01*
X1981200Y254000D01*
X1981200Y1778000D01*
M02*
