M48
METRIC,LZ,000.000
;FILE_FORMAT=3:3
;TYPE=PLATED
;Layer: PTH_Through
;EasyEDA v6.5.34, 2023-09-10 21:38:17
;5915201a24e44bbb9a238a9ce508910a,5a6b42c53f6a479593ecc07194224c93,10
;Gerber Generator version 0.2
;Holesize 1 = 0.305 mm
T01C0.305
;Holesize 2 = 0.920 mm
T02C0.920
;Holesize 3 = 1.000 mm
T03C1.000
;Holesize 4 = 1.101 mm
T04C1.101
;Holesize 5 = 1.301 mm
T05C1.301
;Holesize 6 = 2.301 mm
T06C2.301
;Holesize 7 = 3.000 mm
T07C3.000
%
G05
G90
T01
X048260Y050785
X041491Y050800
X029272Y036449
X029272Y050800
X040471Y023241
X040471Y005080
X030480Y005080
X017780Y036703
X017780Y018923
X039624Y026035
X041571Y023241
X050800Y055880
X050800Y023241
X030734Y031877
X027178Y031623
X027178Y034417
X028702Y031115
X029845Y031115
X032766Y032004
X027940Y029845
X030734Y029845
X025400Y028829
X032131Y028829
X032131Y034544
X031496Y032004
X031496Y033909
X032766Y033909
X050800Y020320
X034290Y024638
X034290Y020320
X037465Y025908
X037465Y023368
X037465Y029591
X033020Y025908
X021590Y025045
X021590Y040005
X050800Y049403
X022860Y040894
X022860Y049403
X022860Y023241
X023495Y033401
X023495Y031623
X020955Y031623
X020955Y033401
X023495Y047244
X022225Y047244
X022225Y045466
X023495Y045466
X024130Y027305
X024130Y022352
X022225Y031623
X022225Y033401
X037465Y037592
X036830Y033909
X036830Y032004
X038100Y032004
X038100Y033909
X034163Y053721
X034163Y049403
T02
X045339Y029593G85X045339Y029588
X045339Y032093G85X045339Y032088
X045339Y034093G85X045339Y034088
X045339Y036593G85X045339Y036588
T03
X013055Y040660
X013055Y043160
X015055Y043160
X015055Y040660
X013055Y022880
X013055Y025380
X015055Y025380
X015055Y022880
T04
X045720Y055880
X045720Y053340
X048260Y053340
X048260Y055880
T05
X033020Y009144
X025400Y009144
X027940Y009144
X030480Y009144
T06
X010345Y047930
X010345Y035890
X010345Y030150
X010345Y018110
X048049Y026521G85X048049Y026521
X048049Y039661G85X048049Y039661
T07
X003810Y054610
X003810Y003810
X054610Y003810
X054610Y054610
M30
