G04 Layer: TopSolderMaskLayer*
G04 EasyEDA v6.5.34, 2023-09-10 21:38:17*
G04 5915201a24e44bbb9a238a9ce508910a,5a6b42c53f6a479593ecc07194224c93,10*
G04 Gerber Generator version 0.2*
G04 Scale: 100 percent, Rotated: No, Reflected: No *
G04 Dimensions in millimeters *
G04 leading zeros omitted , absolute positions ,4 integer and 5 decimal *
%FSLAX45Y45*%
%MOMM*%

%AMMACRO1*1,1,$1,$2,$3*1,1,$1,$4,$5*1,1,$1,0-$2,0-$3*1,1,$1,0-$4,0-$5*20,1,$1,$2,$3,$4,$5,0*20,1,$1,$4,$5,0-$2,0-$3,0*20,1,$1,0-$2,0-$3,0-$4,0-$5,0*20,1,$1,0-$4,0-$5,$2,$3,0*4,1,4,$2,$3,$4,$5,0-$2,0-$3,0-$4,0-$5,$2,$3,0*%
%ADD10MACRO1,0.1016X-0.5663X0.6885X-0.5663X-0.6885*%
%ADD11MACRO1,0.1016X0.5663X0.6885X0.5663X-0.6885*%
%ADD12MACRO1,0.2032X0.5X-0.55X-0.5X-0.55*%
%ADD13MACRO1,0.2032X-0.45X-0.5X-0.45X0.5*%
%ADD14MACRO1,0.1016X-0.4X0.45X0.4X0.45*%
%ADD15MACRO1,0.1016X0.35X0.45X0.35X-0.45*%
%ADD16O,1.7232122X0.8031988000000001*%
%ADD17MACRO1,0.1016X0.29X0.15X0.29X-0.15*%
%ADD18MACRO1,0.1016X0.29X0.125X0.29X-0.125*%
%ADD19MACRO1,0.1016X-0.175X0.315X0.175X0.315*%
%ADD20MACRO1,0.1016X-0.29X-0.15X-0.29X0.15*%
%ADD21MACRO1,0.1016X-0.29X-0.125X-0.29X0.125*%
%ADD22MACRO1,0.1016X0.175X-0.315X-0.175X-0.315*%
%ADD23C,3.2032*%
%ADD24C,1.7272*%
%ADD25C,1.6342*%
%ADD26C,3.6533*%
%ADD27C,5.2032*%
%ADD28C,2.1016*%
%ADD29C,1.9016*%

%LPD*%
D10*
G01*
X718926Y3416296D03*
D11*
G01*
X525673Y3416296D03*
D10*
G01*
X718926Y3200396D03*
D11*
G01*
X525673Y3200396D03*
D12*
G01*
X3564884Y5372092D03*
G01*
X3724884Y5372092D03*
D13*
G01*
X3559883Y5575284D03*
G01*
X3729883Y5575284D03*
D12*
G01*
X3933184Y3759192D03*
G01*
X4093184Y3759192D03*
D13*
G01*
X3928183Y3962384D03*
G01*
X4098183Y3962384D03*
D12*
G01*
X2637787Y2209794D03*
G01*
X2797787Y2209794D03*
D14*
G01*
X3613292Y2959094D03*
G01*
X3473292Y2959094D03*
G01*
X3257692Y2031994D03*
G01*
X3117692Y2031994D03*
D15*
G01*
X2048897Y2321488D03*
G01*
X2048896Y2504495D03*
G01*
X1938891Y2504495D03*
G01*
X1938891Y2321488D03*
G01*
X2048894Y4099486D03*
G01*
X2048893Y4282493D03*
G01*
X1938888Y4282493D03*
G01*
X1938888Y4099486D03*
D16*
G01*
X3588682Y2209792D03*
G01*
X3588682Y2336792D03*
G01*
X3588682Y2463792D03*
G01*
X3588682Y2590792D03*
G01*
X3040702Y2209792D03*
G01*
X3040702Y2336792D03*
G01*
X3040702Y2463792D03*
G01*
X3040702Y2590792D03*
D17*
G01*
X2856999Y3376786D03*
D18*
G01*
X2856999Y3326787D03*
G01*
X2856999Y3276787D03*
D17*
G01*
X2856994Y3226786D03*
D19*
G01*
X2920994Y3215991D03*
D20*
G01*
X2984994Y3226786D03*
D21*
G01*
X2984995Y3276787D03*
G01*
X2984995Y3326787D03*
D20*
G01*
X2984995Y3376786D03*
D22*
G01*
X2920842Y3387992D03*
D23*
G01*
X1034508Y4792997D03*
G01*
X1034508Y3588986D03*
D24*
G01*
X1305501Y4065998D03*
G01*
X1305501Y4315985D03*
G01*
X1505501Y4315985D03*
G01*
X1505501Y4065998D03*
D23*
G01*
X1034508Y3014997D03*
G01*
X1034508Y1810986D03*
D24*
G01*
X1305501Y2287998D03*
G01*
X1305501Y2537985D03*
G01*
X1505501Y2537985D03*
G01*
X1505501Y2287998D03*
D13*
G01*
X1908886Y3670284D03*
G01*
X2078885Y3670284D03*
D12*
G01*
X1913887Y3886192D03*
G01*
X2073887Y3886192D03*
G01*
X1913887Y2108194D03*
G01*
X2073887Y2108194D03*
D13*
G01*
X1908886Y1892287D03*
G01*
X2078885Y1892287D03*
G01*
X4144083Y5575284D03*
G01*
X4314083Y5575284D03*
D12*
G01*
X4149084Y5372092D03*
G01*
X4309084Y5372092D03*
D14*
G01*
X3067194Y3543292D03*
G01*
X2927195Y3543292D03*
D15*
G01*
X4157093Y2423088D03*
G01*
X4157092Y2606095D03*
G01*
X4047086Y2606095D03*
G01*
X4047086Y2423088D03*
D25*
G01*
X4533892Y2959092D03*
G01*
X4533892Y3209079D03*
G01*
X4533892Y3409078D03*
G01*
X4533892Y3659090D03*
D26*
G01*
X4804884Y2652082D03*
G01*
X4804884Y3966100D03*
D27*
G01*
X380992Y5460992D03*
G01*
X380992Y380992D03*
G01*
X5460992Y380992D03*
G01*
X5460992Y5460992D03*
D28*
G01*
X3301992Y914392D03*
G01*
X2539992Y914392D03*
G01*
X2793992Y914392D03*
G01*
X3047992Y914392D03*
D29*
G01*
X4571992Y5587992D03*
G01*
X4571992Y5333992D03*
G01*
X4825992Y5333992D03*
G01*
X4825992Y5587992D03*
M02*
