G04 Layer: TopSilkscreenLayer*
G04 EasyEDA v6.5.34, 2023-09-10 21:38:17*
G04 5915201a24e44bbb9a238a9ce508910a,5a6b42c53f6a479593ecc07194224c93,10*
G04 Gerber Generator version 0.2*
G04 Scale: 100 percent, Rotated: No, Reflected: No *
G04 Dimensions in millimeters *
G04 leading zeros omitted , absolute positions ,4 integer and 5 decimal *
%FSLAX45Y45*%
%MOMM*%

%ADD10C,0.1524*%
%ADD11C,0.2540*%
%ADD12C,0.1500*%
%ADD13C,0.1001*%
%ADD14C,0.1999*%
%ADD15C,0.0165*%

%LPD*%
D10*
X761992Y5601759D02*
G01*
X761992Y5492539D01*
X761992Y5601759D02*
G01*
X808728Y5601759D01*
X824222Y5596425D01*
X829556Y5591345D01*
X834636Y5580931D01*
X834636Y5565437D01*
X829556Y5555023D01*
X824222Y5549689D01*
X808728Y5544609D01*
X761992Y5544609D01*
X868926Y5601759D02*
G01*
X868926Y5492539D01*
X868926Y5601759D02*
G01*
X915662Y5601759D01*
X931410Y5596425D01*
X936490Y5591345D01*
X941824Y5580931D01*
X941824Y5570517D01*
X936490Y5560103D01*
X931410Y5555023D01*
X915662Y5549689D01*
X868926Y5549689D01*
X905502Y5549689D02*
G01*
X941824Y5492539D01*
X1007102Y5601759D02*
G01*
X996942Y5596425D01*
X986528Y5586265D01*
X981194Y5575851D01*
X976114Y5560103D01*
X976114Y5534195D01*
X981194Y5518701D01*
X986528Y5508287D01*
X996942Y5497873D01*
X1007102Y5492539D01*
X1027930Y5492539D01*
X1038344Y5497873D01*
X1048758Y5508287D01*
X1054092Y5518701D01*
X1059172Y5534195D01*
X1059172Y5560103D01*
X1054092Y5575851D01*
X1048758Y5586265D01*
X1038344Y5596425D01*
X1027930Y5601759D01*
X1007102Y5601759D01*
X1129784Y5601759D02*
G01*
X1129784Y5492539D01*
X1093462Y5601759D02*
G01*
X1166106Y5601759D01*
X1231638Y5601759D02*
G01*
X1221224Y5596425D01*
X1210810Y5586265D01*
X1205730Y5575851D01*
X1200396Y5560103D01*
X1200396Y5534195D01*
X1205730Y5518701D01*
X1210810Y5508287D01*
X1221224Y5497873D01*
X1231638Y5492539D01*
X1252466Y5492539D01*
X1262880Y5497873D01*
X1273294Y5508287D01*
X1278374Y5518701D01*
X1283708Y5534195D01*
X1283708Y5560103D01*
X1278374Y5575851D01*
X1273294Y5586265D01*
X1262880Y5596425D01*
X1252466Y5601759D01*
X1231638Y5601759D01*
X1317998Y5601759D02*
G01*
X1317998Y5492539D01*
X1317998Y5601759D02*
G01*
X1390642Y5492539D01*
X1390642Y5601759D02*
G01*
X1390642Y5492539D01*
X1424932Y5601759D02*
G01*
X1424932Y5492539D01*
X1424932Y5601759D02*
G01*
X1492496Y5601759D01*
X1424932Y5549689D02*
G01*
X1466588Y5549689D01*
X1424932Y5492539D02*
G01*
X1492496Y5492539D01*
X1526786Y5601759D02*
G01*
X1526786Y5492539D01*
X1526786Y5601759D02*
G01*
X1568442Y5492539D01*
X1609844Y5601759D02*
G01*
X1568442Y5492539D01*
X1609844Y5601759D02*
G01*
X1609844Y5492539D01*
X1685790Y5601759D02*
G01*
X1644134Y5492539D01*
X1685790Y5601759D02*
G01*
X1727192Y5492539D01*
X1659882Y5529115D02*
G01*
X1711698Y5529115D01*
X1841492Y5601759D02*
G01*
X1841492Y5523781D01*
X1846826Y5508287D01*
X1857240Y5497873D01*
X1872734Y5492539D01*
X1883148Y5492539D01*
X1898642Y5497873D01*
X1909056Y5508287D01*
X1914390Y5523781D01*
X1914390Y5601759D01*
X2021324Y5586265D02*
G01*
X2010910Y5596425D01*
X1995416Y5601759D01*
X1974588Y5601759D01*
X1959094Y5596425D01*
X1948680Y5586265D01*
X1948680Y5575851D01*
X1953760Y5565437D01*
X1959094Y5560103D01*
X1969508Y5555023D01*
X2000496Y5544609D01*
X2010910Y5539275D01*
X2016244Y5534195D01*
X2021324Y5523781D01*
X2021324Y5508287D01*
X2010910Y5497873D01*
X1995416Y5492539D01*
X1974588Y5492539D01*
X1959094Y5497873D01*
X1948680Y5508287D01*
X2055614Y5601759D02*
G01*
X2055614Y5492539D01*
X2055614Y5601759D02*
G01*
X2102350Y5601759D01*
X2118098Y5596425D01*
X2123178Y5591345D01*
X2128512Y5580931D01*
X2128512Y5570517D01*
X2123178Y5560103D01*
X2118098Y5555023D01*
X2102350Y5549689D01*
X2055614Y5549689D02*
G01*
X2102350Y5549689D01*
X2118098Y5544609D01*
X2123178Y5539275D01*
X2128512Y5529115D01*
X2128512Y5513367D01*
X2123178Y5502953D01*
X2118098Y5497873D01*
X2102350Y5492539D01*
X2055614Y5492539D01*
X2315456Y5586265D02*
G01*
X2305042Y5596425D01*
X2289548Y5601759D01*
X2268720Y5601759D01*
X2252972Y5596425D01*
X2242812Y5586265D01*
X2242812Y5575851D01*
X2247892Y5565437D01*
X2252972Y5560103D01*
X2263386Y5555023D01*
X2294628Y5544609D01*
X2305042Y5539275D01*
X2310122Y5534195D01*
X2315456Y5523781D01*
X2315456Y5508287D01*
X2305042Y5497873D01*
X2289548Y5492539D01*
X2268720Y5492539D01*
X2252972Y5497873D01*
X2242812Y5508287D01*
X2349746Y5601759D02*
G01*
X2375654Y5492539D01*
X2401562Y5601759D02*
G01*
X2375654Y5492539D01*
X2401562Y5601759D02*
G01*
X2427724Y5492539D01*
X2453632Y5601759D02*
G01*
X2427724Y5492539D01*
X2487922Y5601759D02*
G01*
X2487922Y5492539D01*
X2558534Y5601759D02*
G01*
X2558534Y5492539D01*
X2522212Y5601759D02*
G01*
X2594856Y5601759D01*
X2707124Y5575851D02*
G01*
X2702044Y5586265D01*
X2691630Y5596425D01*
X2681216Y5601759D01*
X2660388Y5601759D01*
X2649974Y5596425D01*
X2639560Y5586265D01*
X2634480Y5575851D01*
X2629146Y5560103D01*
X2629146Y5534195D01*
X2634480Y5518701D01*
X2639560Y5508287D01*
X2649974Y5497873D01*
X2660388Y5492539D01*
X2681216Y5492539D01*
X2691630Y5497873D01*
X2702044Y5508287D01*
X2707124Y5518701D01*
X2741414Y5601759D02*
G01*
X2741414Y5492539D01*
X2814312Y5601759D02*
G01*
X2814312Y5492539D01*
X2741414Y5549689D02*
G01*
X2814312Y5549689D01*
X2928612Y5601759D02*
G01*
X2970014Y5492539D01*
X3011670Y5601759D02*
G01*
X2970014Y5492539D01*
X3077202Y5601759D02*
G01*
X3061454Y5596425D01*
X3051040Y5580931D01*
X3045960Y5555023D01*
X3045960Y5539275D01*
X3051040Y5513367D01*
X3061454Y5497873D01*
X3077202Y5492539D01*
X3087362Y5492539D01*
X3103110Y5497873D01*
X3113524Y5513367D01*
X3118604Y5539275D01*
X3118604Y5555023D01*
X3113524Y5580931D01*
X3103110Y5596425D01*
X3087362Y5601759D01*
X3077202Y5601759D01*
X3158228Y5518701D02*
G01*
X3152894Y5513367D01*
X3158228Y5508287D01*
X3163308Y5513367D01*
X3158228Y5518701D01*
X3197598Y5580931D02*
G01*
X3208012Y5586265D01*
X3223506Y5601759D01*
X3223506Y5492539D01*
X761992Y5423959D02*
G01*
X761992Y5314739D01*
X761992Y5423959D02*
G01*
X808728Y5423959D01*
X824222Y5418625D01*
X829556Y5413545D01*
X834636Y5403131D01*
X834636Y5387637D01*
X829556Y5377223D01*
X824222Y5371889D01*
X808728Y5366809D01*
X761992Y5366809D01*
X910582Y5423959D02*
G01*
X868926Y5314739D01*
X910582Y5423959D02*
G01*
X952238Y5314739D01*
X884674Y5351315D02*
G01*
X936490Y5351315D01*
X986528Y5423959D02*
G01*
X986528Y5314739D01*
X986528Y5423959D02*
G01*
X1033264Y5423959D01*
X1048758Y5418625D01*
X1054092Y5413545D01*
X1059172Y5403131D01*
X1059172Y5392717D01*
X1054092Y5382303D01*
X1048758Y5377223D01*
X1033264Y5371889D01*
X986528Y5371889D01*
X1022850Y5371889D02*
G01*
X1059172Y5314739D01*
X1129784Y5423959D02*
G01*
X1129784Y5314739D01*
X1093462Y5423959D02*
G01*
X1166106Y5423959D01*
X1280406Y5423959D02*
G01*
X1280406Y5314739D01*
X1280406Y5423959D02*
G01*
X1353304Y5314739D01*
X1353304Y5423959D02*
G01*
X1353304Y5314739D01*
X1387594Y5423959D02*
G01*
X1387594Y5345981D01*
X1392674Y5330487D01*
X1403088Y5320073D01*
X1418582Y5314739D01*
X1428996Y5314739D01*
X1444744Y5320073D01*
X1455158Y5330487D01*
X1460238Y5345981D01*
X1460238Y5423959D01*
X1494528Y5423959D02*
G01*
X1494528Y5314739D01*
X1494528Y5423959D02*
G01*
X1536184Y5314739D01*
X1577586Y5423959D02*
G01*
X1536184Y5314739D01*
X1577586Y5423959D02*
G01*
X1577586Y5314739D01*
X1611876Y5423959D02*
G01*
X1611876Y5314739D01*
X1611876Y5423959D02*
G01*
X1658612Y5423959D01*
X1674360Y5418625D01*
X1679440Y5413545D01*
X1684774Y5403131D01*
X1684774Y5392717D01*
X1679440Y5382303D01*
X1674360Y5377223D01*
X1658612Y5371889D01*
X1611876Y5371889D02*
G01*
X1658612Y5371889D01*
X1674360Y5366809D01*
X1679440Y5361475D01*
X1684774Y5351315D01*
X1684774Y5335567D01*
X1679440Y5325153D01*
X1674360Y5320073D01*
X1658612Y5314739D01*
X1611876Y5314739D01*
X1719064Y5423959D02*
G01*
X1719064Y5314739D01*
X1719064Y5423959D02*
G01*
X1786628Y5423959D01*
X1719064Y5371889D02*
G01*
X1760466Y5371889D01*
X1719064Y5314739D02*
G01*
X1786628Y5314739D01*
X1820918Y5423959D02*
G01*
X1820918Y5314739D01*
X1820918Y5423959D02*
G01*
X1867654Y5423959D01*
X1883148Y5418625D01*
X1888482Y5413545D01*
X1893562Y5403131D01*
X1893562Y5392717D01*
X1888482Y5382303D01*
X1883148Y5377223D01*
X1867654Y5371889D01*
X1820918Y5371889D01*
X1857240Y5371889D02*
G01*
X1893562Y5314739D01*
X2007862Y5403131D02*
G01*
X2018276Y5408465D01*
X2033770Y5423959D01*
X2033770Y5314739D01*
X2068060Y5403131D02*
G01*
X2078474Y5408465D01*
X2094222Y5423959D01*
X2094222Y5314739D01*
X2159500Y5423959D02*
G01*
X2144006Y5418625D01*
X2133592Y5403131D01*
X2128512Y5377223D01*
X2128512Y5361475D01*
X2133592Y5335567D01*
X2144006Y5320073D01*
X2159500Y5314739D01*
X2169914Y5314739D01*
X2185662Y5320073D01*
X2195822Y5335567D01*
X2201156Y5361475D01*
X2201156Y5377223D01*
X2195822Y5403131D01*
X2185662Y5418625D01*
X2169914Y5423959D01*
X2159500Y5423959D01*
X2303010Y5387637D02*
G01*
X2297676Y5371889D01*
X2287262Y5361475D01*
X2271768Y5356395D01*
X2266688Y5356395D01*
X2250940Y5361475D01*
X2240526Y5371889D01*
X2235446Y5387637D01*
X2235446Y5392717D01*
X2240526Y5408465D01*
X2250940Y5418625D01*
X2266688Y5423959D01*
X2271768Y5423959D01*
X2287262Y5418625D01*
X2297676Y5408465D01*
X2303010Y5387637D01*
X2303010Y5361475D01*
X2297676Y5335567D01*
X2287262Y5320073D01*
X2271768Y5314739D01*
X2261354Y5314739D01*
X2245860Y5320073D01*
X2240526Y5330487D01*
X2337300Y5361475D02*
G01*
X2430772Y5361475D01*
X2496304Y5423959D02*
G01*
X2480556Y5418625D01*
X2470142Y5403131D01*
X2465062Y5377223D01*
X2465062Y5361475D01*
X2470142Y5335567D01*
X2480556Y5320073D01*
X2496304Y5314739D01*
X2506718Y5314739D01*
X2522212Y5320073D01*
X2532626Y5335567D01*
X2537706Y5361475D01*
X2537706Y5377223D01*
X2532626Y5403131D01*
X2522212Y5418625D01*
X2506718Y5423959D01*
X2496304Y5423959D01*
X2571996Y5403131D02*
G01*
X2582410Y5408465D01*
X2598158Y5423959D01*
X2598158Y5314739D01*
X2663436Y5423959D02*
G01*
X2647942Y5418625D01*
X2637528Y5403131D01*
X2632448Y5377223D01*
X2632448Y5361475D01*
X2637528Y5335567D01*
X2647942Y5320073D01*
X2663436Y5314739D01*
X2673850Y5314739D01*
X2689598Y5320073D01*
X2700012Y5335567D01*
X2705092Y5361475D01*
X2705092Y5377223D01*
X2700012Y5403131D01*
X2689598Y5418625D01*
X2673850Y5423959D01*
X2663436Y5423959D01*
X2739382Y5403131D02*
G01*
X2749796Y5408465D01*
X2765290Y5423959D01*
X2765290Y5314739D01*
X3340955Y108602D02*
G01*
X3300061Y181500D01*
X3259167Y108602D01*
X3086955Y108602D02*
G01*
X3046061Y181500D01*
X3005167Y108602D01*
X2832955Y108602D02*
G01*
X2792061Y181500D01*
X2751167Y108602D01*
X2578955Y108602D02*
G01*
X2538061Y181500D01*
X2497167Y108602D01*
X2864403Y1440431D02*
G01*
X2858815Y1451353D01*
X2847893Y1462275D01*
X2836971Y1467863D01*
X2820715Y1473197D01*
X2793283Y1473197D01*
X2777027Y1467863D01*
X2766105Y1462275D01*
X2755183Y1451353D01*
X2749849Y1440431D01*
X2749849Y1418587D01*
X2755183Y1407665D01*
X2766105Y1396743D01*
X2777027Y1391409D01*
X2793283Y1385821D01*
X2820715Y1385821D01*
X2836971Y1391409D01*
X2847893Y1396743D01*
X2858815Y1407665D01*
X2864403Y1418587D01*
X2864403Y1440431D01*
X2864403Y1350007D02*
G01*
X2749849Y1350007D01*
X2864403Y1350007D02*
G01*
X2864403Y1279141D01*
X2809793Y1350007D02*
G01*
X2809793Y1306319D01*
X2749849Y1350007D02*
G01*
X2749849Y1279141D01*
X3118403Y1562097D02*
G01*
X3003849Y1562097D01*
X3003849Y1562097D02*
G01*
X3003849Y1496565D01*
X3118403Y1460751D02*
G01*
X3003849Y1460751D01*
X3118403Y1460751D02*
G01*
X3118403Y1389631D01*
X3063793Y1460751D02*
G01*
X3063793Y1417063D01*
X3003849Y1460751D02*
G01*
X3003849Y1389631D01*
X3118403Y1353817D02*
G01*
X3003849Y1353817D01*
X3118403Y1353817D02*
G01*
X3118403Y1315463D01*
X3112815Y1299207D01*
X3101893Y1288285D01*
X3090971Y1282951D01*
X3074715Y1277363D01*
X3047283Y1277363D01*
X3031027Y1282951D01*
X3020105Y1288285D01*
X3009183Y1299207D01*
X3003849Y1315463D01*
X3003849Y1353817D01*
X2593893Y1803143D02*
G01*
X2604815Y1814065D01*
X2610403Y1830575D01*
X2610403Y1852419D01*
X2604815Y1868675D01*
X2593893Y1879597D01*
X2582971Y1879597D01*
X2572049Y1874263D01*
X2566715Y1868675D01*
X2561127Y1857753D01*
X2550205Y1824987D01*
X2544871Y1814065D01*
X2539283Y1808731D01*
X2528361Y1803143D01*
X2512105Y1803143D01*
X2501183Y1814065D01*
X2495849Y1830575D01*
X2495849Y1852419D01*
X2501183Y1868675D01*
X2512105Y1879597D01*
X2610403Y1767329D02*
G01*
X2495849Y1739897D01*
X2610403Y1712719D02*
G01*
X2495849Y1739897D01*
X2610403Y1712719D02*
G01*
X2495849Y1685541D01*
X2610403Y1658109D02*
G01*
X2495849Y1685541D01*
X2610403Y1622041D02*
G01*
X2495849Y1622041D01*
X2610403Y1547873D02*
G01*
X2495849Y1547873D01*
X2610403Y1586227D02*
G01*
X2610403Y1509773D01*
X2582971Y1391917D02*
G01*
X2593893Y1397505D01*
X2604815Y1408427D01*
X2610403Y1419349D01*
X2610403Y1440939D01*
X2604815Y1451861D01*
X2593893Y1462783D01*
X2582971Y1468371D01*
X2566715Y1473705D01*
X2539283Y1473705D01*
X2523027Y1468371D01*
X2512105Y1462783D01*
X2501183Y1451861D01*
X2495849Y1440939D01*
X2495849Y1419349D01*
X2501183Y1408427D01*
X2512105Y1397505D01*
X2523027Y1391917D01*
X2610403Y1355849D02*
G01*
X2495849Y1355849D01*
X2610403Y1279649D02*
G01*
X2495849Y1279649D01*
X2555793Y1355849D02*
G01*
X2555793Y1279649D01*
X3372398Y1612897D02*
G01*
X3257844Y1612897D01*
X3372398Y1612897D02*
G01*
X3372398Y1563875D01*
X3366810Y1547365D01*
X3361476Y1542031D01*
X3350554Y1536443D01*
X3334044Y1536443D01*
X3323122Y1542031D01*
X3317788Y1547365D01*
X3312200Y1563875D01*
X3312200Y1612897D01*
X3372398Y1500629D02*
G01*
X3257844Y1473197D01*
X3372398Y1446019D02*
G01*
X3257844Y1473197D01*
X3372398Y1446019D02*
G01*
X3257844Y1418841D01*
X3372398Y1391409D02*
G01*
X3257844Y1418841D01*
X3372398Y1355341D02*
G01*
X3257844Y1355341D01*
X3372398Y1355341D02*
G01*
X3372398Y1306319D01*
X3366810Y1290063D01*
X3361476Y1284475D01*
X3350554Y1279141D01*
X3339632Y1279141D01*
X3328710Y1284475D01*
X3323122Y1290063D01*
X3317788Y1306319D01*
X3317788Y1355341D01*
X3317788Y1317241D02*
G01*
X3257844Y1279141D01*
X2082294Y1276464D02*
G01*
X2082294Y1203817D01*
X2077722Y1190101D01*
X2073150Y1185532D01*
X2064006Y1180957D01*
X2055116Y1180957D01*
X2045972Y1185532D01*
X2041400Y1190101D01*
X2036828Y1203817D01*
X2036828Y1212964D01*
X2116838Y1253855D02*
G01*
X2116838Y1258430D01*
X2121410Y1267317D01*
X2125982Y1271889D01*
X2135126Y1276464D01*
X2153160Y1276464D01*
X2162304Y1271889D01*
X2166876Y1267317D01*
X2171448Y1258430D01*
X2171448Y1249286D01*
X2166876Y1240139D01*
X2157732Y1226423D01*
X2112266Y1180957D01*
X2176020Y1180957D01*
X76192Y5106456D02*
G01*
X76192Y5028478D01*
X81272Y5012984D01*
X91686Y5002570D01*
X107434Y4997236D01*
X117848Y4997236D01*
X133342Y5002570D01*
X143756Y5012984D01*
X148836Y5028478D01*
X148836Y5106456D01*
X256024Y5090962D02*
G01*
X245610Y5101122D01*
X229862Y5106456D01*
X209288Y5106456D01*
X193540Y5101122D01*
X183126Y5090962D01*
X183126Y5080548D01*
X188460Y5070134D01*
X193540Y5064800D01*
X203954Y5059720D01*
X235196Y5049306D01*
X245610Y5043972D01*
X250690Y5038892D01*
X256024Y5028478D01*
X256024Y5012984D01*
X245610Y5002570D01*
X229862Y4997236D01*
X209288Y4997236D01*
X193540Y5002570D01*
X183126Y5012984D01*
X290314Y5106456D02*
G01*
X290314Y4997236D01*
X290314Y5106456D02*
G01*
X337050Y5106456D01*
X352544Y5101122D01*
X357878Y5096042D01*
X362958Y5085628D01*
X362958Y5075214D01*
X357878Y5064800D01*
X352544Y5059720D01*
X337050Y5054386D01*
X290314Y5054386D02*
G01*
X337050Y5054386D01*
X352544Y5049306D01*
X357878Y5043972D01*
X362958Y5033812D01*
X362958Y5018064D01*
X357878Y5007650D01*
X352544Y5002570D01*
X337050Y4997236D01*
X290314Y4997236D01*
X477258Y5106456D02*
G01*
X477258Y4997236D01*
X549902Y5106456D02*
G01*
X549902Y4997236D01*
X477258Y5054386D02*
G01*
X549902Y5054386D01*
X615434Y5106456D02*
G01*
X605020Y5101122D01*
X594606Y5090962D01*
X589526Y5080548D01*
X584192Y5064800D01*
X584192Y5038892D01*
X589526Y5023398D01*
X594606Y5012984D01*
X605020Y5002570D01*
X615434Y4997236D01*
X636262Y4997236D01*
X646676Y5002570D01*
X657090Y5012984D01*
X662170Y5023398D01*
X667504Y5038892D01*
X667504Y5064800D01*
X662170Y5080548D01*
X657090Y5090962D01*
X646676Y5101122D01*
X636262Y5106456D01*
X615434Y5106456D01*
X774438Y5090962D02*
G01*
X764024Y5101122D01*
X748530Y5106456D01*
X727702Y5106456D01*
X712208Y5101122D01*
X701794Y5090962D01*
X701794Y5080548D01*
X706874Y5070134D01*
X712208Y5064800D01*
X722622Y5059720D01*
X753610Y5049306D01*
X764024Y5043972D01*
X769358Y5038892D01*
X774438Y5028478D01*
X774438Y5012984D01*
X764024Y5002570D01*
X748530Y4997236D01*
X727702Y4997236D01*
X712208Y5002570D01*
X701794Y5012984D01*
X845050Y5106456D02*
G01*
X845050Y4997236D01*
X808728Y5106456D02*
G01*
X881372Y5106456D01*
X1037328Y5106456D02*
G01*
X995672Y4997236D01*
X1037328Y5106456D02*
G01*
X1078984Y4997236D01*
X1011420Y5033812D02*
G01*
X1063236Y5033812D01*
X5036558Y5714230D02*
G01*
X5036558Y5641586D01*
X5031986Y5627870D01*
X5027414Y5623298D01*
X5018270Y5618726D01*
X5009380Y5618726D01*
X5000236Y5623298D01*
X4995664Y5627870D01*
X4991092Y5641586D01*
X4991092Y5650730D01*
X5066530Y5696196D02*
G01*
X5075674Y5700768D01*
X5089390Y5714230D01*
X5089390Y5618726D01*
X4111236Y5790430D02*
G01*
X4161274Y5790430D01*
X4133842Y5754108D01*
X4147558Y5754108D01*
X4156702Y5749536D01*
X4161274Y5744964D01*
X4165846Y5731502D01*
X4165846Y5722358D01*
X4161274Y5708642D01*
X4152130Y5699498D01*
X4138414Y5694926D01*
X4124698Y5694926D01*
X4111236Y5699498D01*
X4106664Y5704070D01*
X4102092Y5713214D01*
X4195818Y5790430D02*
G01*
X4232140Y5694926D01*
X4268462Y5790430D02*
G01*
X4232140Y5694926D01*
X4307578Y5790430D02*
G01*
X4357616Y5790430D01*
X4330184Y5754108D01*
X4343900Y5754108D01*
X4353044Y5749536D01*
X4357616Y5744964D01*
X4362188Y5731502D01*
X4362188Y5722358D01*
X4357616Y5708642D01*
X4348472Y5699498D01*
X4334756Y5694926D01*
X4321294Y5694926D01*
X4307578Y5699498D01*
X4303006Y5704070D01*
X4298434Y5713214D01*
X3924289Y1789935D02*
G01*
X3924289Y1694431D01*
X3924289Y1789935D02*
G01*
X3965183Y1789935D01*
X3978899Y1785363D01*
X3983471Y1780791D01*
X3988043Y1771901D01*
X3988043Y1762757D01*
X3983471Y1753613D01*
X3978899Y1749041D01*
X3965183Y1744469D01*
X3924289Y1744469D01*
X3956039Y1744469D02*
G01*
X3988043Y1694431D01*
X4018015Y1771901D02*
G01*
X4026905Y1776473D01*
X4040621Y1789935D01*
X4040621Y1694431D01*
X4075165Y1749041D02*
G01*
X4070593Y1744469D01*
X4075165Y1739897D01*
X4079737Y1744469D01*
X4075165Y1749041D01*
X4075165Y1717291D02*
G01*
X4070593Y1712719D01*
X4075165Y1708147D01*
X4079737Y1712719D01*
X4075165Y1717291D01*
X4206989Y1789935D02*
G01*
X4193273Y1785363D01*
X4184385Y1771901D01*
X4179813Y1749041D01*
X4179813Y1735579D01*
X4184385Y1712719D01*
X4193273Y1699003D01*
X4206989Y1694431D01*
X4216135Y1694431D01*
X4229851Y1699003D01*
X4238739Y1712719D01*
X4243313Y1735579D01*
X4243313Y1749041D01*
X4238739Y1771901D01*
X4229851Y1785363D01*
X4216135Y1789935D01*
X4206989Y1789935D01*
X4277855Y1717291D02*
G01*
X4273285Y1712719D01*
X4277855Y1708147D01*
X4282429Y1712719D01*
X4277855Y1717291D01*
X4367011Y1776473D02*
G01*
X4362439Y1785363D01*
X4348723Y1789935D01*
X4339833Y1789935D01*
X4326117Y1785363D01*
X4316973Y1771901D01*
X4312401Y1749041D01*
X4312401Y1726435D01*
X4316973Y1708147D01*
X4326117Y1699003D01*
X4339833Y1694431D01*
X4344405Y1694431D01*
X4357867Y1699003D01*
X4367011Y1708147D01*
X4371583Y1721863D01*
X4371583Y1726435D01*
X4367011Y1739897D01*
X4357867Y1749041D01*
X4344405Y1753613D01*
X4339833Y1753613D01*
X4326117Y1749041D01*
X4316973Y1739897D01*
X4312401Y1726435D01*
X4447021Y1789935D02*
G01*
X4401555Y1726435D01*
X4469627Y1726435D01*
X4447021Y1789935D02*
G01*
X4447021Y1694431D01*
X4558781Y1758185D02*
G01*
X4554207Y1744469D01*
X4545065Y1735579D01*
X4531603Y1731007D01*
X4527031Y1731007D01*
X4513315Y1735579D01*
X4504171Y1744469D01*
X4499853Y1758185D01*
X4499853Y1762757D01*
X4504171Y1776473D01*
X4513315Y1785363D01*
X4527031Y1789935D01*
X4531603Y1789935D01*
X4545065Y1785363D01*
X4554207Y1776473D01*
X4558781Y1758185D01*
X4558781Y1735579D01*
X4554207Y1712719D01*
X4545065Y1699003D01*
X4531603Y1694431D01*
X4522457Y1694431D01*
X4508743Y1699003D01*
X4504171Y1708147D01*
X4588753Y1789935D02*
G01*
X4588753Y1694431D01*
X4652505Y1789935D02*
G01*
X4588753Y1726435D01*
X4611613Y1749041D02*
G01*
X4652505Y1694431D01*
X3924292Y1485178D02*
G01*
X3924292Y1389674D01*
X3924292Y1485178D02*
G01*
X3965186Y1485178D01*
X3978902Y1480606D01*
X3983474Y1476034D01*
X3988046Y1467144D01*
X3988046Y1458000D01*
X3983474Y1448856D01*
X3978902Y1444284D01*
X3965186Y1439712D01*
X3924292Y1439712D01*
X3956042Y1439712D02*
G01*
X3988046Y1389674D01*
X4072374Y1471462D02*
G01*
X4067802Y1480606D01*
X4054340Y1485178D01*
X4045196Y1485178D01*
X4031480Y1480606D01*
X4022590Y1467144D01*
X4018018Y1444284D01*
X4018018Y1421678D01*
X4022590Y1403390D01*
X4031480Y1394246D01*
X4045196Y1389674D01*
X4049768Y1389674D01*
X4063484Y1394246D01*
X4072374Y1403390D01*
X4076946Y1417106D01*
X4076946Y1421678D01*
X4072374Y1435140D01*
X4063484Y1444284D01*
X4049768Y1448856D01*
X4045196Y1448856D01*
X4031480Y1444284D01*
X4022590Y1435140D01*
X4018018Y1421678D01*
X4111490Y1444284D02*
G01*
X4106918Y1439712D01*
X4111490Y1435140D01*
X4116062Y1439712D01*
X4111490Y1444284D01*
X4111490Y1412534D02*
G01*
X4106918Y1407962D01*
X4111490Y1403390D01*
X4116062Y1407962D01*
X4111490Y1412534D01*
X4243316Y1485178D02*
G01*
X4229854Y1480606D01*
X4220710Y1467144D01*
X4216138Y1444284D01*
X4216138Y1430568D01*
X4220710Y1407962D01*
X4229854Y1394246D01*
X4243316Y1389674D01*
X4252460Y1389674D01*
X4266176Y1394246D01*
X4275320Y1407962D01*
X4279638Y1430568D01*
X4279638Y1444284D01*
X4275320Y1467144D01*
X4266176Y1480606D01*
X4252460Y1485178D01*
X4243316Y1485178D01*
X4314182Y1412534D02*
G01*
X4309864Y1407962D01*
X4314182Y1403390D01*
X4318754Y1407962D01*
X4314182Y1412534D01*
X4353298Y1462572D02*
G01*
X4353298Y1467144D01*
X4357870Y1476034D01*
X4362442Y1480606D01*
X4371586Y1485178D01*
X4389620Y1485178D01*
X4398764Y1480606D01*
X4403336Y1476034D01*
X4407908Y1467144D01*
X4407908Y1458000D01*
X4403336Y1448856D01*
X4394192Y1435140D01*
X4348726Y1389674D01*
X4412480Y1389674D01*
X4451596Y1485178D02*
G01*
X4501634Y1485178D01*
X4474202Y1448856D01*
X4487918Y1448856D01*
X4497062Y1444284D01*
X4501634Y1439712D01*
X4506206Y1425996D01*
X4506206Y1417106D01*
X4501634Y1403390D01*
X4492490Y1394246D01*
X4478774Y1389674D01*
X4465312Y1389674D01*
X4451596Y1394246D01*
X4447024Y1398818D01*
X4442452Y1407962D01*
X4536178Y1485178D02*
G01*
X4536178Y1389674D01*
X4599678Y1485178D02*
G01*
X4536178Y1421678D01*
X4558784Y1444284D02*
G01*
X4599678Y1389674D01*
X3924292Y1637578D02*
G01*
X3924292Y1542074D01*
X3924292Y1637578D02*
G01*
X3965186Y1637578D01*
X3978902Y1633006D01*
X3983474Y1628434D01*
X3988046Y1619544D01*
X3988046Y1610400D01*
X3983474Y1601256D01*
X3978902Y1596684D01*
X3965186Y1592112D01*
X3924292Y1592112D01*
X3956042Y1592112D02*
G01*
X3988046Y1542074D01*
X4022590Y1614972D02*
G01*
X4022590Y1619544D01*
X4026908Y1628434D01*
X4031480Y1633006D01*
X4040624Y1637578D01*
X4058912Y1637578D01*
X4067802Y1633006D01*
X4072374Y1628434D01*
X4076946Y1619544D01*
X4076946Y1610400D01*
X4072374Y1601256D01*
X4063484Y1587540D01*
X4018018Y1542074D01*
X4081518Y1542074D01*
X4111490Y1582968D02*
G01*
X4193278Y1582968D01*
X4223504Y1637578D02*
G01*
X4223504Y1542074D01*
X4223504Y1637578D02*
G01*
X4264398Y1637578D01*
X4277860Y1633006D01*
X4282432Y1628434D01*
X4287004Y1619544D01*
X4287004Y1610400D01*
X4282432Y1601256D01*
X4277860Y1596684D01*
X4264398Y1592112D01*
X4223504Y1592112D01*
X4255254Y1592112D02*
G01*
X4287004Y1542074D01*
X4371586Y1637578D02*
G01*
X4326120Y1637578D01*
X4321548Y1596684D01*
X4326120Y1601256D01*
X4339836Y1605828D01*
X4353298Y1605828D01*
X4367014Y1601256D01*
X4376158Y1592112D01*
X4380730Y1578396D01*
X4380730Y1569506D01*
X4376158Y1555790D01*
X4367014Y1546646D01*
X4353298Y1542074D01*
X4339836Y1542074D01*
X4326120Y1546646D01*
X4321548Y1551218D01*
X4316976Y1560362D01*
X4415274Y1596684D02*
G01*
X4410702Y1592112D01*
X4415274Y1587540D01*
X4419846Y1592112D01*
X4415274Y1596684D01*
X4415274Y1564934D02*
G01*
X4410702Y1560362D01*
X4415274Y1555790D01*
X4419846Y1560362D01*
X4415274Y1564934D01*
X4519668Y1619544D02*
G01*
X4528812Y1623862D01*
X4542528Y1637578D01*
X4542528Y1542074D01*
X4572500Y1637578D02*
G01*
X4572500Y1542074D01*
X4636000Y1637578D02*
G01*
X4572500Y1574078D01*
X4595106Y1596684D02*
G01*
X4636000Y1542074D01*
X3924289Y1942383D02*
G01*
X3924289Y1874311D01*
X3928861Y1860595D01*
X3938005Y1851451D01*
X3951467Y1846879D01*
X3960611Y1846879D01*
X3974327Y1851451D01*
X3983471Y1860595D01*
X3988043Y1874311D01*
X3988043Y1942383D01*
X4022587Y1919777D02*
G01*
X4022587Y1924095D01*
X4026905Y1933239D01*
X4031477Y1937811D01*
X4040621Y1942383D01*
X4058909Y1942383D01*
X4068053Y1937811D01*
X4072371Y1933239D01*
X4076943Y1924095D01*
X4076943Y1915205D01*
X4072371Y1906061D01*
X4063481Y1892345D01*
X4018015Y1846879D01*
X4081515Y1846879D01*
X4116059Y1901489D02*
G01*
X4111487Y1896917D01*
X4116059Y1892345D01*
X4120631Y1896917D01*
X4116059Y1901489D01*
X4116059Y1869739D02*
G01*
X4111487Y1865167D01*
X4116059Y1860595D01*
X4120631Y1865167D01*
X4116059Y1869739D01*
X4220707Y1942383D02*
G01*
X4220707Y1846879D01*
X4220707Y1942383D02*
G01*
X4257029Y1846879D01*
X4293351Y1942383D02*
G01*
X4257029Y1846879D01*
X4293351Y1942383D02*
G01*
X4293351Y1846879D01*
X4323323Y1942383D02*
G01*
X4323323Y1846879D01*
X4421621Y1919777D02*
G01*
X4417049Y1928667D01*
X4407905Y1937811D01*
X4398761Y1942383D01*
X4380727Y1942383D01*
X4371583Y1937811D01*
X4362439Y1928667D01*
X4357867Y1919777D01*
X4353295Y1906061D01*
X4353295Y1883201D01*
X4357867Y1869739D01*
X4362439Y1860595D01*
X4371583Y1851451D01*
X4380727Y1846879D01*
X4398761Y1846879D01*
X4407905Y1851451D01*
X4417049Y1860595D01*
X4421621Y1869739D01*
X4456165Y1919777D02*
G01*
X4456165Y1924095D01*
X4460737Y1933239D01*
X4465309Y1937811D01*
X4474199Y1942383D01*
X4492487Y1942383D01*
X4501631Y1937811D01*
X4506203Y1933239D01*
X4510775Y1924095D01*
X4510775Y1915205D01*
X4506203Y1906061D01*
X4497059Y1892345D01*
X4451593Y1846879D01*
X4515093Y1846879D01*
X4599675Y1942383D02*
G01*
X4554209Y1942383D01*
X4549637Y1901489D01*
X4554209Y1906061D01*
X4567925Y1910633D01*
X4581641Y1910633D01*
X4595103Y1906061D01*
X4604247Y1896917D01*
X4608819Y1883201D01*
X4608819Y1874311D01*
X4604247Y1860595D01*
X4595103Y1851451D01*
X4581641Y1846879D01*
X4567925Y1846879D01*
X4554209Y1851451D01*
X4549637Y1856023D01*
X4545319Y1865167D01*
X4684257Y1942383D02*
G01*
X4638791Y1878883D01*
X4707117Y1878883D01*
X4684257Y1942383D02*
G01*
X4684257Y1846879D01*
X4782555Y1942383D02*
G01*
X4737089Y1878883D01*
X4805161Y1878883D01*
X4782555Y1942383D02*
G01*
X4782555Y1846879D01*
X4835133Y1887773D02*
G01*
X4916921Y1887773D01*
X4946893Y1924095D02*
G01*
X4956037Y1928667D01*
X4969753Y1942383D01*
X4969753Y1846879D01*
X4999725Y1942383D02*
G01*
X5036047Y1896917D01*
X5036047Y1846879D01*
X5072369Y1942383D02*
G01*
X5036047Y1896917D01*
X5102595Y1942383D02*
G01*
X5102595Y1846879D01*
X5102595Y1942383D02*
G01*
X5138917Y1846879D01*
X5175239Y1942383D02*
G01*
X5138917Y1846879D01*
X5175239Y1942383D02*
G01*
X5175239Y1846879D01*
X3924289Y2094783D02*
G01*
X3924289Y2026711D01*
X3928861Y2012995D01*
X3938005Y2003851D01*
X3951467Y1999279D01*
X3960611Y1999279D01*
X3974327Y2003851D01*
X3983471Y2012995D01*
X3988043Y2026711D01*
X3988043Y2094783D01*
X4018015Y2076495D02*
G01*
X4026905Y2081067D01*
X4040621Y2094783D01*
X4040621Y1999279D01*
X4075165Y2053889D02*
G01*
X4070593Y2049317D01*
X4075165Y2044745D01*
X4079737Y2049317D01*
X4075165Y2053889D01*
X4075165Y2022139D02*
G01*
X4070593Y2017567D01*
X4075165Y2012995D01*
X4079737Y2017567D01*
X4075165Y2022139D01*
X4211563Y2094783D02*
G01*
X4211563Y1999279D01*
X4179813Y2094783D02*
G01*
X4243313Y2094783D01*
X4337039Y2081067D02*
G01*
X4327895Y2090211D01*
X4314179Y2094783D01*
X4296145Y2094783D01*
X4282429Y2090211D01*
X4273285Y2081067D01*
X4273285Y2072177D01*
X4277857Y2063033D01*
X4282429Y2058461D01*
X4291573Y2053889D01*
X4318751Y2044745D01*
X4327895Y2040173D01*
X4332467Y2035601D01*
X4337039Y2026711D01*
X4337039Y2012995D01*
X4327895Y2003851D01*
X4314179Y1999279D01*
X4296145Y1999279D01*
X4282429Y2003851D01*
X4273285Y2012995D01*
X4376155Y2094783D02*
G01*
X4426193Y2094783D01*
X4398761Y2058461D01*
X4412477Y2058461D01*
X4421621Y2053889D01*
X4426193Y2049317D01*
X4430765Y2035601D01*
X4430765Y2026711D01*
X4426193Y2012995D01*
X4417049Y2003851D01*
X4403333Y1999279D01*
X4389871Y1999279D01*
X4376155Y2003851D01*
X4371583Y2008423D01*
X4367011Y2017567D01*
X4460737Y2094783D02*
G01*
X4460737Y2026711D01*
X4465309Y2012995D01*
X4474199Y2003851D01*
X4487915Y1999279D01*
X4497059Y1999279D01*
X4510775Y2003851D01*
X4519665Y2012995D01*
X4524237Y2026711D01*
X4524237Y2094783D01*
X4617963Y2081067D02*
G01*
X4608819Y2090211D01*
X4595103Y2094783D01*
X4577069Y2094783D01*
X4563353Y2090211D01*
X4554209Y2081067D01*
X4554209Y2072177D01*
X4558781Y2063033D01*
X4563353Y2058461D01*
X4572497Y2053889D01*
X4599675Y2044745D01*
X4608819Y2040173D01*
X4613391Y2035601D01*
X4617963Y2026711D01*
X4617963Y2012995D01*
X4608819Y2003851D01*
X4595103Y1999279D01*
X4577069Y1999279D01*
X4563353Y2003851D01*
X4554209Y2012995D01*
X4647935Y2094783D02*
G01*
X4647935Y1999279D01*
X4647935Y2094783D02*
G01*
X4688829Y2094783D01*
X4702545Y2090211D01*
X4707117Y2085639D01*
X4711689Y2076495D01*
X4711689Y2067605D01*
X4707117Y2058461D01*
X4702545Y2053889D01*
X4688829Y2049317D01*
X4647935Y2049317D02*
G01*
X4688829Y2049317D01*
X4702545Y2044745D01*
X4707117Y2040173D01*
X4711689Y2031283D01*
X4711689Y2017567D01*
X4707117Y2008423D01*
X4702545Y2003851D01*
X4688829Y1999279D01*
X4647935Y1999279D01*
X4746233Y2072177D02*
G01*
X4746233Y2076495D01*
X4750551Y2085639D01*
X4755123Y2090211D01*
X4764267Y2094783D01*
X4782555Y2094783D01*
X4791445Y2090211D01*
X4796017Y2085639D01*
X4800589Y2076495D01*
X4800589Y2067605D01*
X4796017Y2058461D01*
X4787127Y2044745D01*
X4741661Y1999279D01*
X4805161Y1999279D01*
X4839705Y2072177D02*
G01*
X4839705Y2076495D01*
X4844277Y2085639D01*
X4848849Y2090211D01*
X4857993Y2094783D01*
X4876027Y2094783D01*
X4885171Y2090211D01*
X4889743Y2085639D01*
X4894315Y2076495D01*
X4894315Y2067605D01*
X4889743Y2058461D01*
X4880599Y2044745D01*
X4835133Y1999279D01*
X4898887Y1999279D01*
X4928859Y2076495D02*
G01*
X4938003Y2081067D01*
X4951465Y2094783D01*
X4951465Y1999279D01*
X4981437Y2094783D02*
G01*
X4981437Y1999279D01*
X4981437Y2094783D02*
G01*
X5040619Y2094783D01*
X4981437Y2049317D02*
G01*
X5018013Y2049317D01*
X4981437Y1999279D02*
G01*
X5040619Y1999279D01*
X5070591Y2094783D02*
G01*
X5070591Y1999279D01*
X5070591Y2094783D02*
G01*
X5111485Y2094783D01*
X5125201Y2090211D01*
X5129773Y2085639D01*
X5134345Y2076495D01*
X5134345Y2067605D01*
X5129773Y2058461D01*
X5125201Y2053889D01*
X5111485Y2049317D01*
X5070591Y2049317D01*
X5102595Y2049317D02*
G01*
X5134345Y1999279D01*
X5227817Y2081067D02*
G01*
X5218927Y2090211D01*
X5205211Y2094783D01*
X5186923Y2094783D01*
X5173461Y2090211D01*
X5164317Y2081067D01*
X5164317Y2072177D01*
X5168889Y2063033D01*
X5173461Y2058461D01*
X5182351Y2053889D01*
X5209783Y2044745D01*
X5218927Y2040173D01*
X5223499Y2035601D01*
X5227817Y2026711D01*
X5227817Y2012995D01*
X5218927Y2003851D01*
X5205211Y1999279D01*
X5186923Y1999279D01*
X5173461Y2003851D01*
X5164317Y2012995D01*
X5258043Y2094783D02*
G01*
X5258043Y1999279D01*
X5258043Y2094783D02*
G01*
X5316971Y2094783D01*
X5258043Y2049317D02*
G01*
X5294365Y2049317D01*
X5258043Y1999279D02*
G01*
X5316971Y1999279D01*
X5346943Y2094783D02*
G01*
X5346943Y1999279D01*
X5346943Y2094783D02*
G01*
X5387837Y2094783D01*
X5401553Y2090211D01*
X5406125Y2085639D01*
X5410697Y2076495D01*
X5410697Y2067605D01*
X5406125Y2058461D01*
X5401553Y2053889D01*
X5387837Y2049317D01*
X5346943Y2049317D01*
X5378947Y2049317D02*
G01*
X5410697Y1999279D01*
X3992361Y1310177D02*
G01*
X3988043Y1319067D01*
X3978899Y1328211D01*
X3969755Y1332783D01*
X3951467Y1332783D01*
X3942577Y1328211D01*
X3933433Y1319067D01*
X3928861Y1310177D01*
X3924289Y1296461D01*
X3924289Y1273601D01*
X3928861Y1260139D01*
X3933433Y1250995D01*
X3942577Y1241851D01*
X3951467Y1237279D01*
X3969755Y1237279D01*
X3978899Y1241851D01*
X3988043Y1250995D01*
X3992361Y1260139D01*
X4022587Y1314749D02*
G01*
X4031477Y1319067D01*
X4045193Y1332783D01*
X4045193Y1237279D01*
X4084309Y1255567D02*
G01*
X4079737Y1250995D01*
X4075165Y1255567D01*
X4079737Y1260139D01*
X4084309Y1255567D01*
X4084309Y1246423D01*
X4075165Y1237279D01*
X4182353Y1310177D02*
G01*
X4178035Y1319067D01*
X4168891Y1328211D01*
X4159747Y1332783D01*
X4141459Y1332783D01*
X4132569Y1328211D01*
X4123425Y1319067D01*
X4118853Y1310177D01*
X4114281Y1296461D01*
X4114281Y1273601D01*
X4118853Y1260139D01*
X4123425Y1250995D01*
X4132569Y1241851D01*
X4141459Y1237279D01*
X4159747Y1237279D01*
X4168891Y1241851D01*
X4178035Y1250995D01*
X4182353Y1260139D01*
X4221469Y1332783D02*
G01*
X4271507Y1332783D01*
X4244329Y1296461D01*
X4258045Y1296461D01*
X4266935Y1291889D01*
X4271507Y1287317D01*
X4276079Y1273601D01*
X4276079Y1264711D01*
X4271507Y1250995D01*
X4262363Y1241851D01*
X4248901Y1237279D01*
X4235185Y1237279D01*
X4221469Y1241851D01*
X4216897Y1246423D01*
X4212579Y1255567D01*
X4310623Y1291889D02*
G01*
X4306051Y1287317D01*
X4310623Y1282745D01*
X4315195Y1287317D01*
X4310623Y1291889D01*
X4310623Y1260139D02*
G01*
X4306051Y1255567D01*
X4310623Y1250995D01*
X4315195Y1255567D01*
X4310623Y1260139D01*
X4442449Y1332783D02*
G01*
X4428733Y1328211D01*
X4419843Y1314749D01*
X4415271Y1291889D01*
X4415271Y1278173D01*
X4419843Y1255567D01*
X4428733Y1241851D01*
X4442449Y1237279D01*
X4451593Y1237279D01*
X4465309Y1241851D01*
X4474199Y1255567D01*
X4478771Y1278173D01*
X4478771Y1291889D01*
X4474199Y1314749D01*
X4465309Y1328211D01*
X4451593Y1332783D01*
X4442449Y1332783D01*
X4513315Y1260139D02*
G01*
X4508743Y1255567D01*
X4513315Y1250995D01*
X4517887Y1255567D01*
X4513315Y1260139D01*
X4547859Y1314749D02*
G01*
X4557003Y1319067D01*
X4570719Y1332783D01*
X4570719Y1237279D01*
X4600691Y1301033D02*
G01*
X4600691Y1255567D01*
X4605263Y1241851D01*
X4614407Y1237279D01*
X4627869Y1237279D01*
X4637013Y1241851D01*
X4650729Y1255567D01*
X4650729Y1301033D02*
G01*
X4650729Y1237279D01*
X4680701Y1332783D02*
G01*
X4680701Y1237279D01*
X4680701Y1332783D02*
G01*
X4739629Y1332783D01*
X4680701Y1287317D02*
G01*
X4717023Y1287317D01*
X3992364Y1157772D02*
G01*
X3988046Y1166662D01*
X3978902Y1175806D01*
X3969758Y1180378D01*
X3951470Y1180378D01*
X3942580Y1175806D01*
X3933436Y1166662D01*
X3928864Y1157772D01*
X3924292Y1144056D01*
X3924292Y1121196D01*
X3928864Y1107734D01*
X3933436Y1098590D01*
X3942580Y1089446D01*
X3951470Y1084874D01*
X3969758Y1084874D01*
X3978902Y1089446D01*
X3988046Y1098590D01*
X3992364Y1107734D01*
X4026908Y1157772D02*
G01*
X4026908Y1162344D01*
X4031480Y1171234D01*
X4036052Y1175806D01*
X4045196Y1180378D01*
X4063484Y1180378D01*
X4072374Y1175806D01*
X4076946Y1171234D01*
X4081518Y1162344D01*
X4081518Y1153200D01*
X4076946Y1144056D01*
X4067802Y1130340D01*
X4022590Y1084874D01*
X4086090Y1084874D01*
X4120634Y1139484D02*
G01*
X4116062Y1134912D01*
X4120634Y1130340D01*
X4125206Y1134912D01*
X4120634Y1139484D01*
X4120634Y1107734D02*
G01*
X4116062Y1103162D01*
X4120634Y1098590D01*
X4125206Y1103162D01*
X4120634Y1107734D01*
X4229854Y1157772D02*
G01*
X4229854Y1162344D01*
X4234172Y1171234D01*
X4238744Y1175806D01*
X4247888Y1180378D01*
X4266176Y1180378D01*
X4275320Y1175806D01*
X4279638Y1171234D01*
X4284210Y1162344D01*
X4284210Y1153200D01*
X4279638Y1144056D01*
X4270748Y1130340D01*
X4225282Y1084874D01*
X4288782Y1084874D01*
X4346186Y1180378D02*
G01*
X4332470Y1175806D01*
X4323326Y1162344D01*
X4318754Y1139484D01*
X4318754Y1125768D01*
X4323326Y1103162D01*
X4332470Y1089446D01*
X4346186Y1084874D01*
X4355076Y1084874D01*
X4368792Y1089446D01*
X4377936Y1103162D01*
X4382508Y1125768D01*
X4382508Y1139484D01*
X4377936Y1162344D01*
X4368792Y1175806D01*
X4355076Y1180378D01*
X4346186Y1180378D01*
X4412480Y1148628D02*
G01*
X4412480Y1103162D01*
X4417052Y1089446D01*
X4426196Y1084874D01*
X4439658Y1084874D01*
X4448802Y1089446D01*
X4462518Y1103162D01*
X4462518Y1148628D02*
G01*
X4462518Y1084874D01*
X4492490Y1180378D02*
G01*
X4492490Y1084874D01*
X4492490Y1180378D02*
G01*
X4551672Y1180378D01*
X4492490Y1134912D02*
G01*
X4528812Y1134912D01*
X76192Y1588564D02*
G01*
X76192Y1510586D01*
X81272Y1495092D01*
X91686Y1484678D01*
X107434Y1479344D01*
X117848Y1479344D01*
X133342Y1484678D01*
X143756Y1495092D01*
X148836Y1510586D01*
X148836Y1588564D01*
X256024Y1573070D02*
G01*
X245610Y1583230D01*
X229862Y1588564D01*
X209288Y1588564D01*
X193540Y1583230D01*
X183126Y1573070D01*
X183126Y1562656D01*
X188460Y1552242D01*
X193540Y1546908D01*
X203954Y1541828D01*
X235196Y1531414D01*
X245610Y1526080D01*
X250690Y1521000D01*
X256024Y1510586D01*
X256024Y1495092D01*
X245610Y1484678D01*
X229862Y1479344D01*
X209288Y1479344D01*
X193540Y1484678D01*
X183126Y1495092D01*
X290314Y1588564D02*
G01*
X290314Y1479344D01*
X290314Y1588564D02*
G01*
X337050Y1588564D01*
X352544Y1583230D01*
X357878Y1578150D01*
X362958Y1567736D01*
X362958Y1557322D01*
X357878Y1546908D01*
X352544Y1541828D01*
X337050Y1536494D01*
X290314Y1536494D02*
G01*
X337050Y1536494D01*
X352544Y1531414D01*
X357878Y1526080D01*
X362958Y1515920D01*
X362958Y1500172D01*
X357878Y1489758D01*
X352544Y1484678D01*
X337050Y1479344D01*
X290314Y1479344D01*
X477258Y1588564D02*
G01*
X477258Y1479344D01*
X549902Y1588564D02*
G01*
X549902Y1479344D01*
X477258Y1536494D02*
G01*
X549902Y1536494D01*
X615434Y1588564D02*
G01*
X605020Y1583230D01*
X594606Y1573070D01*
X589526Y1562656D01*
X584192Y1546908D01*
X584192Y1521000D01*
X589526Y1505506D01*
X594606Y1495092D01*
X605020Y1484678D01*
X615434Y1479344D01*
X636262Y1479344D01*
X646676Y1484678D01*
X657090Y1495092D01*
X662170Y1505506D01*
X667504Y1521000D01*
X667504Y1546908D01*
X662170Y1562656D01*
X657090Y1573070D01*
X646676Y1583230D01*
X636262Y1588564D01*
X615434Y1588564D01*
X774438Y1573070D02*
G01*
X764024Y1583230D01*
X748530Y1588564D01*
X727702Y1588564D01*
X712208Y1583230D01*
X701794Y1573070D01*
X701794Y1562656D01*
X706874Y1552242D01*
X712208Y1546908D01*
X722622Y1541828D01*
X753610Y1531414D01*
X764024Y1526080D01*
X769358Y1521000D01*
X774438Y1510586D01*
X774438Y1495092D01*
X764024Y1484678D01*
X748530Y1479344D01*
X727702Y1479344D01*
X712208Y1484678D01*
X701794Y1495092D01*
X845050Y1588564D02*
G01*
X845050Y1479344D01*
X808728Y1588564D02*
G01*
X881372Y1588564D01*
X995672Y1588564D02*
G01*
X995672Y1479344D01*
X995672Y1588564D02*
G01*
X1042662Y1588564D01*
X1058156Y1583230D01*
X1063236Y1578150D01*
X1068570Y1567736D01*
X1068570Y1557322D01*
X1063236Y1546908D01*
X1058156Y1541828D01*
X1042662Y1536494D01*
X995672Y1536494D02*
G01*
X1042662Y1536494D01*
X1058156Y1531414D01*
X1063236Y1526080D01*
X1068570Y1515920D01*
X1068570Y1500172D01*
X1063236Y1489758D01*
X1058156Y1484678D01*
X1042662Y1479344D01*
X995672Y1479344D01*
X4762492Y4407959D02*
G01*
X4762492Y4329981D01*
X4767572Y4314487D01*
X4777986Y4304073D01*
X4793734Y4298739D01*
X4804148Y4298739D01*
X4819642Y4304073D01*
X4830056Y4314487D01*
X4835136Y4329981D01*
X4835136Y4407959D01*
X4942324Y4392465D02*
G01*
X4931910Y4402625D01*
X4916162Y4407959D01*
X4895588Y4407959D01*
X4879840Y4402625D01*
X4869426Y4392465D01*
X4869426Y4382051D01*
X4874760Y4371637D01*
X4879840Y4366303D01*
X4890254Y4361223D01*
X4921496Y4350809D01*
X4931910Y4345475D01*
X4936990Y4340395D01*
X4942324Y4329981D01*
X4942324Y4314487D01*
X4931910Y4304073D01*
X4916162Y4298739D01*
X4895588Y4298739D01*
X4879840Y4304073D01*
X4869426Y4314487D01*
X4976614Y4407959D02*
G01*
X4976614Y4298739D01*
X4976614Y4407959D02*
G01*
X5023350Y4407959D01*
X5038844Y4402625D01*
X5044178Y4397545D01*
X5049258Y4387131D01*
X5049258Y4376717D01*
X5044178Y4366303D01*
X5038844Y4361223D01*
X5023350Y4355889D01*
X4976614Y4355889D02*
G01*
X5023350Y4355889D01*
X5038844Y4350809D01*
X5044178Y4345475D01*
X5049258Y4335315D01*
X5049258Y4319567D01*
X5044178Y4309153D01*
X5038844Y4304073D01*
X5023350Y4298739D01*
X4976614Y4298739D01*
X5163558Y4407959D02*
G01*
X5163558Y4298739D01*
X5163558Y4407959D02*
G01*
X5199880Y4407959D01*
X5215628Y4402625D01*
X5226042Y4392465D01*
X5231122Y4382051D01*
X5236202Y4366303D01*
X5236202Y4340395D01*
X5231122Y4324901D01*
X5226042Y4314487D01*
X5215628Y4304073D01*
X5199880Y4298739D01*
X5163558Y4298739D01*
X5270492Y4407959D02*
G01*
X5270492Y4298739D01*
X5270492Y4407959D02*
G01*
X5338056Y4407959D01*
X5270492Y4355889D02*
G01*
X5312148Y4355889D01*
X5270492Y4298739D02*
G01*
X5338056Y4298739D01*
X5372346Y4407959D02*
G01*
X5414002Y4298739D01*
X5455658Y4407959D02*
G01*
X5414002Y4298739D01*
X5489948Y4407959D02*
G01*
X5489948Y4298739D01*
X5601962Y4382051D02*
G01*
X5596882Y4392465D01*
X5586468Y4402625D01*
X5576054Y4407959D01*
X5555226Y4407959D01*
X5544812Y4402625D01*
X5534652Y4392465D01*
X5529318Y4382051D01*
X5524238Y4366303D01*
X5524238Y4340395D01*
X5529318Y4324901D01*
X5534652Y4314487D01*
X5544812Y4304073D01*
X5555226Y4298739D01*
X5576054Y4298739D01*
X5586468Y4304073D01*
X5596882Y4314487D01*
X5601962Y4324901D01*
X5636252Y4407959D02*
G01*
X5636252Y4298739D01*
X5636252Y4407959D02*
G01*
X5703816Y4407959D01*
X5636252Y4355889D02*
G01*
X5677908Y4355889D01*
X5636252Y4298739D02*
G01*
X5703816Y4298739D01*
X3623302Y5790430D02*
G01*
X3577836Y5790430D01*
X3573264Y5749536D01*
X3577836Y5754108D01*
X3591298Y5758680D01*
X3605014Y5758680D01*
X3618730Y5754108D01*
X3627874Y5744964D01*
X3632446Y5731502D01*
X3632446Y5722358D01*
X3627874Y5708642D01*
X3618730Y5699498D01*
X3605014Y5694926D01*
X3591298Y5694926D01*
X3577836Y5699498D01*
X3573264Y5704070D01*
X3568692Y5713214D01*
X3662418Y5790430D02*
G01*
X3698740Y5694926D01*
X3735062Y5790430D02*
G01*
X3698740Y5694926D01*
X3924292Y1027978D02*
G01*
X3924292Y932474D01*
X3924292Y1027978D02*
G01*
X3956042Y1027978D01*
X3969758Y1023406D01*
X3978902Y1014262D01*
X3983474Y1005372D01*
X3988046Y991656D01*
X3988046Y968796D01*
X3983474Y955334D01*
X3978902Y946190D01*
X3969758Y937046D01*
X3956042Y932474D01*
X3924292Y932474D01*
X4018018Y1009944D02*
G01*
X4026908Y1014262D01*
X4040624Y1027978D01*
X4040624Y932474D01*
X4070596Y973368D02*
G01*
X4152384Y973368D01*
X4182356Y1027978D02*
G01*
X4182356Y932474D01*
X4182356Y1027978D02*
G01*
X4214360Y1027978D01*
X4227822Y1023406D01*
X4236966Y1014262D01*
X4241538Y1005372D01*
X4246110Y991656D01*
X4246110Y968796D01*
X4241538Y955334D01*
X4236966Y946190D01*
X4227822Y937046D01*
X4214360Y932474D01*
X4182356Y932474D01*
X4330692Y1027978D02*
G01*
X4285226Y1027978D01*
X4280654Y987084D01*
X4285226Y991656D01*
X4298942Y996228D01*
X4312404Y996228D01*
X4326120Y991656D01*
X4335264Y982512D01*
X4339836Y968796D01*
X4339836Y959906D01*
X4335264Y946190D01*
X4326120Y937046D01*
X4312404Y932474D01*
X4298942Y932474D01*
X4285226Y937046D01*
X4280654Y941618D01*
X4276082Y950762D01*
X4374380Y987084D02*
G01*
X4369808Y982512D01*
X4374380Y977940D01*
X4378952Y982512D01*
X4374380Y987084D01*
X4374380Y955334D02*
G01*
X4369808Y950762D01*
X4374380Y946190D01*
X4378952Y950762D01*
X4374380Y955334D01*
X4542528Y1014262D02*
G01*
X4533384Y1023406D01*
X4519668Y1027978D01*
X4501634Y1027978D01*
X4487918Y1023406D01*
X4478774Y1014262D01*
X4478774Y1005372D01*
X4483346Y996228D01*
X4487918Y991656D01*
X4497062Y987084D01*
X4524240Y977940D01*
X4533384Y973368D01*
X4537956Y968796D01*
X4542528Y959906D01*
X4542528Y946190D01*
X4533384Y937046D01*
X4519668Y932474D01*
X4501634Y932474D01*
X4487918Y937046D01*
X4478774Y946190D01*
X4572500Y1027978D02*
G01*
X4572500Y932474D01*
X4572500Y1027978D02*
G01*
X4608822Y932474D01*
X4645144Y1027978D02*
G01*
X4608822Y932474D01*
X4645144Y1027978D02*
G01*
X4645144Y932474D01*
X4675116Y1027978D02*
G01*
X4675116Y932474D01*
X4675116Y932474D02*
G01*
X4729726Y932474D01*
X4759698Y973368D02*
G01*
X4841486Y973368D01*
X4871458Y1027978D02*
G01*
X4871458Y932474D01*
X4871458Y932474D02*
G01*
X4926068Y932474D01*
X4956040Y1027978D02*
G01*
X5019794Y932474D01*
X5019794Y1027978D02*
G01*
X4956040Y932474D01*
X5081516Y1027978D02*
G01*
X5081516Y932474D01*
X5049766Y1027978D02*
G01*
X5113266Y1027978D01*
X5170670Y1027978D02*
G01*
X5156954Y1023406D01*
X5147810Y1009944D01*
X5143492Y987084D01*
X5143492Y973368D01*
X5147810Y950762D01*
X5156954Y937046D01*
X5170670Y932474D01*
X5179814Y932474D01*
X5193276Y937046D01*
X5202420Y950762D01*
X5206992Y973368D01*
X5206992Y987084D01*
X5202420Y1009944D01*
X5193276Y1023406D01*
X5179814Y1027978D01*
X5170670Y1027978D01*
X5259824Y1027978D02*
G01*
X5246108Y1023406D01*
X5241536Y1014262D01*
X5241536Y1005372D01*
X5246108Y996228D01*
X5255252Y991656D01*
X5273286Y987084D01*
X5287002Y982512D01*
X5296146Y973368D01*
X5300718Y964478D01*
X5300718Y950762D01*
X5296146Y941618D01*
X5291574Y937046D01*
X5277858Y932474D01*
X5259824Y932474D01*
X5246108Y937046D01*
X5241536Y941618D01*
X5236964Y950762D01*
X5236964Y964478D01*
X5241536Y973368D01*
X5250680Y982512D01*
X5264396Y987084D01*
X5282430Y991656D01*
X5291574Y996228D01*
X5296146Y1005372D01*
X5296146Y1014262D01*
X5291574Y1023406D01*
X5277858Y1027978D01*
X5259824Y1027978D01*
X5357868Y1027978D02*
G01*
X5344406Y1023406D01*
X5335262Y1009944D01*
X5330690Y987084D01*
X5330690Y973368D01*
X5335262Y950762D01*
X5344406Y937046D01*
X5357868Y932474D01*
X5367012Y932474D01*
X5380728Y937046D01*
X5389618Y950762D01*
X5394190Y973368D01*
X5394190Y987084D01*
X5389618Y1009944D01*
X5380728Y1023406D01*
X5367012Y1027978D01*
X5357868Y1027978D01*
X5478772Y1027978D02*
G01*
X5433306Y1027978D01*
X5428734Y987084D01*
X5433306Y991656D01*
X5447022Y996228D01*
X5460738Y996228D01*
X5474200Y991656D01*
X5483344Y982512D01*
X5487916Y968796D01*
X5487916Y959906D01*
X5483344Y946190D01*
X5474200Y937046D01*
X5460738Y932474D01*
X5447022Y932474D01*
X5433306Y937046D01*
X5428734Y941618D01*
X5424162Y950762D01*
X5586214Y1005372D02*
G01*
X5581642Y1014262D01*
X5572498Y1023406D01*
X5563354Y1027978D01*
X5545320Y1027978D01*
X5536176Y1023406D01*
X5527032Y1014262D01*
X5522460Y1005372D01*
X5517888Y991656D01*
X5517888Y968796D01*
X5522460Y955334D01*
X5527032Y946190D01*
X5536176Y937046D01*
X5545320Y932474D01*
X5563354Y932474D01*
X5572498Y937046D01*
X5581642Y946190D01*
X5586214Y955334D01*
X5586214Y968796D01*
X5563354Y968796D02*
G01*
X5586214Y968796D01*
X5616186Y1027978D02*
G01*
X5638792Y932474D01*
X5661652Y1027978D02*
G01*
X5638792Y932474D01*
X5661652Y1027978D02*
G01*
X5684258Y932474D01*
X5707118Y1027978D02*
G01*
X5684258Y932474D01*
X3924292Y875578D02*
G01*
X3924292Y780074D01*
X3924292Y875578D02*
G01*
X3956042Y875578D01*
X3969758Y871006D01*
X3978902Y861862D01*
X3983474Y852972D01*
X3988046Y839256D01*
X3988046Y816396D01*
X3983474Y802934D01*
X3978902Y793790D01*
X3969758Y784646D01*
X3956042Y780074D01*
X3924292Y780074D01*
X4072374Y861862D02*
G01*
X4067802Y871006D01*
X4054340Y875578D01*
X4045196Y875578D01*
X4031480Y871006D01*
X4022590Y857544D01*
X4018018Y834684D01*
X4018018Y812078D01*
X4022590Y793790D01*
X4031480Y784646D01*
X4045196Y780074D01*
X4049768Y780074D01*
X4063484Y784646D01*
X4072374Y793790D01*
X4076946Y807506D01*
X4076946Y812078D01*
X4072374Y825540D01*
X4063484Y834684D01*
X4049768Y839256D01*
X4045196Y839256D01*
X4031480Y834684D01*
X4022590Y825540D01*
X4018018Y812078D01*
X4106918Y820968D02*
G01*
X4188960Y820968D01*
X4218932Y875578D02*
G01*
X4218932Y780074D01*
X4218932Y875578D02*
G01*
X4250682Y875578D01*
X4264398Y871006D01*
X4273288Y861862D01*
X4277860Y852972D01*
X4282432Y839256D01*
X4282432Y816396D01*
X4277860Y802934D01*
X4273288Y793790D01*
X4264398Y784646D01*
X4250682Y780074D01*
X4218932Y780074D01*
X4335264Y875578D02*
G01*
X4321548Y871006D01*
X4316976Y861862D01*
X4316976Y852972D01*
X4321548Y843828D01*
X4330692Y839256D01*
X4348726Y834684D01*
X4362442Y830112D01*
X4371586Y820968D01*
X4376158Y812078D01*
X4376158Y798362D01*
X4371586Y789218D01*
X4367014Y784646D01*
X4353298Y780074D01*
X4335264Y780074D01*
X4321548Y784646D01*
X4316976Y789218D01*
X4312404Y798362D01*
X4312404Y812078D01*
X4316976Y820968D01*
X4326120Y830112D01*
X4339836Y834684D01*
X4357870Y839256D01*
X4367014Y843828D01*
X4371586Y852972D01*
X4371586Y861862D01*
X4367014Y871006D01*
X4353298Y875578D01*
X4335264Y875578D01*
X4410702Y834684D02*
G01*
X4406130Y830112D01*
X4410702Y825540D01*
X4415274Y830112D01*
X4410702Y834684D01*
X4410702Y802934D02*
G01*
X4406130Y798362D01*
X4410702Y793790D01*
X4415274Y798362D01*
X4410702Y802934D01*
X4515096Y875578D02*
G01*
X4537956Y780074D01*
X4560562Y875578D02*
G01*
X4537956Y780074D01*
X4560562Y875578D02*
G01*
X4583422Y780074D01*
X4606028Y875578D02*
G01*
X4583422Y780074D01*
X4699754Y861862D02*
G01*
X4690610Y871006D01*
X4676894Y875578D01*
X4658860Y875578D01*
X4645144Y871006D01*
X4636000Y861862D01*
X4636000Y852972D01*
X4640572Y843828D01*
X4645144Y839256D01*
X4654288Y834684D01*
X4681466Y825540D01*
X4690610Y820968D01*
X4695182Y816396D01*
X4699754Y807506D01*
X4699754Y793790D01*
X4690610Y784646D01*
X4676894Y780074D01*
X4658860Y780074D01*
X4645144Y784646D01*
X4636000Y793790D01*
X4734298Y852972D02*
G01*
X4734298Y857544D01*
X4738870Y866434D01*
X4743442Y871006D01*
X4752586Y875578D01*
X4770620Y875578D01*
X4779764Y871006D01*
X4784336Y866434D01*
X4788908Y857544D01*
X4788908Y848400D01*
X4784336Y839256D01*
X4775192Y825540D01*
X4729726Y780074D01*
X4793480Y780074D01*
X4846058Y875578D02*
G01*
X4832596Y871006D01*
X4828024Y861862D01*
X4828024Y852972D01*
X4832596Y843828D01*
X4841486Y839256D01*
X4859774Y834684D01*
X4873490Y830112D01*
X4882380Y820968D01*
X4886952Y812078D01*
X4886952Y798362D01*
X4882380Y789218D01*
X4877808Y784646D01*
X4864346Y780074D01*
X4846058Y780074D01*
X4832596Y784646D01*
X4828024Y789218D01*
X4823452Y798362D01*
X4823452Y812078D01*
X4828024Y820968D01*
X4836914Y830112D01*
X4850630Y834684D01*
X4868918Y839256D01*
X4877808Y843828D01*
X4882380Y852972D01*
X4882380Y861862D01*
X4877808Y871006D01*
X4864346Y875578D01*
X4846058Y875578D01*
X4916924Y857544D02*
G01*
X4926068Y861862D01*
X4939784Y875578D01*
X4939784Y780074D01*
X4974328Y852972D02*
G01*
X4974328Y857544D01*
X4978900Y866434D01*
X4983472Y871006D01*
X4992362Y875578D01*
X5010650Y875578D01*
X5019794Y871006D01*
X5024366Y866434D01*
X5028938Y857544D01*
X5028938Y848400D01*
X5024366Y839256D01*
X5015222Y825540D01*
X4969756Y780074D01*
X5033256Y780074D01*
X5063482Y875578D02*
G01*
X5063482Y780074D01*
X5063482Y875578D02*
G01*
X5104376Y875578D01*
X5117838Y871006D01*
X5122410Y866434D01*
X5126982Y857544D01*
X5126982Y848400D01*
X5122410Y839256D01*
X5117838Y834684D01*
X5104376Y830112D01*
X5063482Y830112D02*
G01*
X5104376Y830112D01*
X5117838Y825540D01*
X5122410Y820968D01*
X5126982Y812078D01*
X5126982Y798362D01*
X5122410Y789218D01*
X5117838Y784646D01*
X5104376Y780074D01*
X5063482Y780074D01*
X5156954Y820968D02*
G01*
X5238742Y820968D01*
X5273286Y852972D02*
G01*
X5273286Y857544D01*
X5277858Y866434D01*
X5282430Y871006D01*
X5291574Y875578D01*
X5309862Y875578D01*
X5318752Y871006D01*
X5323324Y866434D01*
X5327896Y857544D01*
X5327896Y848400D01*
X5323324Y839256D01*
X5314180Y825540D01*
X5268714Y780074D01*
X5332468Y780074D01*
X5389618Y875578D02*
G01*
X5376156Y871006D01*
X5367012Y857544D01*
X5362440Y834684D01*
X5362440Y820968D01*
X5367012Y798362D01*
X5376156Y784646D01*
X5389618Y780074D01*
X5398762Y780074D01*
X5412478Y784646D01*
X5421622Y798362D01*
X5426194Y820968D01*
X5426194Y834684D01*
X5421622Y857544D01*
X5412478Y871006D01*
X5398762Y875578D01*
X5389618Y875578D01*
X5460738Y852972D02*
G01*
X5460738Y857544D01*
X5465310Y866434D01*
X5469628Y871006D01*
X5478772Y875578D01*
X5497060Y875578D01*
X5506204Y871006D01*
X5510776Y866434D01*
X5515094Y857544D01*
X5515094Y848400D01*
X5510776Y839256D01*
X5501632Y825540D01*
X5456166Y780074D01*
X5519666Y780074D01*
X5577070Y875578D02*
G01*
X5563354Y871006D01*
X5554210Y857544D01*
X5549638Y834684D01*
X5549638Y820968D01*
X5554210Y798362D01*
X5563354Y784646D01*
X5577070Y780074D01*
X5586214Y780074D01*
X5599676Y784646D01*
X5608820Y798362D01*
X5613392Y820968D01*
X5613392Y834684D01*
X5608820Y857544D01*
X5599676Y871006D01*
X5586214Y875578D01*
X5577070Y875578D01*
X3924292Y723181D02*
G01*
X3924292Y627677D01*
X3924292Y723181D02*
G01*
X3983474Y723181D01*
X3924292Y677715D02*
G01*
X3960614Y677715D01*
X4013446Y723181D02*
G01*
X4013446Y627677D01*
X4013446Y723181D02*
G01*
X4054340Y723181D01*
X4067802Y718609D01*
X4072374Y714037D01*
X4076946Y705147D01*
X4076946Y696003D01*
X4072374Y686859D01*
X4067802Y682287D01*
X4054340Y677715D01*
X4013446Y677715D02*
G01*
X4054340Y677715D01*
X4067802Y673143D01*
X4072374Y668571D01*
X4076946Y659681D01*
X4076946Y645965D01*
X4072374Y636821D01*
X4067802Y632249D01*
X4054340Y627677D01*
X4013446Y627677D01*
X4106918Y705147D02*
G01*
X4116062Y709465D01*
X4129778Y723181D01*
X4129778Y627677D01*
X4168894Y645965D02*
G01*
X4164322Y641393D01*
X4159750Y645965D01*
X4164322Y650537D01*
X4168894Y645965D01*
X4168894Y636821D01*
X4159750Y627677D01*
X4198866Y723181D02*
G01*
X4198866Y627677D01*
X4198866Y723181D02*
G01*
X4258048Y723181D01*
X4198866Y677715D02*
G01*
X4235188Y677715D01*
X4288020Y723181D02*
G01*
X4288020Y627677D01*
X4288020Y723181D02*
G01*
X4328914Y723181D01*
X4342376Y718609D01*
X4346948Y714037D01*
X4351520Y705147D01*
X4351520Y696003D01*
X4346948Y686859D01*
X4342376Y682287D01*
X4328914Y677715D01*
X4288020Y677715D02*
G01*
X4328914Y677715D01*
X4342376Y673143D01*
X4346948Y668571D01*
X4351520Y659681D01*
X4351520Y645965D01*
X4346948Y636821D01*
X4342376Y632249D01*
X4328914Y627677D01*
X4288020Y627677D01*
X4386064Y700575D02*
G01*
X4386064Y705147D01*
X4390636Y714037D01*
X4395208Y718609D01*
X4404352Y723181D01*
X4422386Y723181D01*
X4431530Y718609D01*
X4436102Y714037D01*
X4440674Y705147D01*
X4440674Y696003D01*
X4436102Y686859D01*
X4426958Y673143D01*
X4381492Y627677D01*
X4445246Y627677D01*
X4479790Y682287D02*
G01*
X4475218Y677715D01*
X4479790Y673143D01*
X4484362Y677715D01*
X4479790Y682287D01*
X4479790Y650537D02*
G01*
X4475218Y645965D01*
X4479790Y641393D01*
X4484362Y645965D01*
X4479790Y650537D01*
X4584184Y723181D02*
G01*
X4584184Y627677D01*
X4584184Y723181D02*
G01*
X4616188Y723181D01*
X4629650Y718609D01*
X4638794Y709465D01*
X4643366Y700575D01*
X4647938Y686859D01*
X4647938Y663999D01*
X4643366Y650537D01*
X4638794Y641393D01*
X4629650Y632249D01*
X4616188Y627677D01*
X4584184Y627677D01*
X4677910Y723181D02*
G01*
X4677910Y627677D01*
X4677910Y723181D02*
G01*
X4741664Y627677D01*
X4741664Y723181D02*
G01*
X4741664Y627677D01*
X4771636Y723181D02*
G01*
X4771636Y627677D01*
X4771636Y723181D02*
G01*
X4812530Y723181D01*
X4825992Y718609D01*
X4830564Y714037D01*
X4835136Y705147D01*
X4835136Y691431D01*
X4830564Y682287D01*
X4825992Y677715D01*
X4812530Y673143D01*
X4771636Y673143D01*
X152400Y3466416D02*
G01*
X152400Y3370912D01*
X152400Y3466416D02*
G01*
X211581Y3466416D01*
X152400Y3420950D02*
G01*
X188722Y3420950D01*
X241554Y3466416D02*
G01*
X241554Y3370912D01*
X241554Y3466416D02*
G01*
X282447Y3466416D01*
X295910Y3461844D01*
X300481Y3457272D01*
X305054Y3448382D01*
X305054Y3439238D01*
X300481Y3430094D01*
X295910Y3425522D01*
X282447Y3420950D01*
X241554Y3420950D02*
G01*
X282447Y3420950D01*
X295910Y3416378D01*
X300481Y3411806D01*
X305054Y3402916D01*
X305054Y3389200D01*
X300481Y3380056D01*
X295910Y3375484D01*
X282447Y3370912D01*
X241554Y3370912D01*
X335026Y3448382D02*
G01*
X344170Y3452954D01*
X357886Y3466416D01*
X357886Y3370912D01*
X152392Y3250420D02*
G01*
X152392Y3155170D01*
X152392Y3250420D02*
G01*
X211574Y3250420D01*
X152392Y3204954D02*
G01*
X188714Y3204954D01*
X241546Y3250420D02*
G01*
X241546Y3155170D01*
X241546Y3250420D02*
G01*
X282440Y3250420D01*
X296156Y3245848D01*
X300474Y3241530D01*
X305046Y3232386D01*
X305046Y3223242D01*
X300474Y3214098D01*
X296156Y3209526D01*
X282440Y3204954D01*
X241546Y3204954D02*
G01*
X282440Y3204954D01*
X296156Y3200382D01*
X300474Y3196064D01*
X305046Y3186920D01*
X305046Y3173204D01*
X300474Y3164060D01*
X296156Y3159488D01*
X282440Y3155170D01*
X241546Y3155170D01*
X339590Y3227814D02*
G01*
X339590Y3232386D01*
X344162Y3241530D01*
X348734Y3245848D01*
X357878Y3250420D01*
X375912Y3250420D01*
X385056Y3245848D01*
X389628Y3241530D01*
X394200Y3232386D01*
X394200Y3223242D01*
X389628Y3214098D01*
X380484Y3200382D01*
X335018Y3155170D01*
X398772Y3155170D01*
X3289292Y5434881D02*
G01*
X3289292Y5339377D01*
X3289292Y5434881D02*
G01*
X3330186Y5434881D01*
X3343902Y5430309D01*
X3348474Y5425737D01*
X3353046Y5416593D01*
X3353046Y5407703D01*
X3348474Y5398559D01*
X3343902Y5393987D01*
X3330186Y5389415D01*
X3289292Y5389415D01*
X3321042Y5389415D02*
G01*
X3353046Y5339377D01*
X3387590Y5412275D02*
G01*
X3387590Y5416593D01*
X3391908Y5425737D01*
X3396480Y5430309D01*
X3405624Y5434881D01*
X3423912Y5434881D01*
X3432802Y5430309D01*
X3437374Y5425737D01*
X3441946Y5416593D01*
X3441946Y5407703D01*
X3437374Y5398559D01*
X3428484Y5384843D01*
X3383018Y5339377D01*
X3446518Y5339377D01*
X3289292Y5625381D02*
G01*
X3289292Y5529877D01*
X3289292Y5625381D02*
G01*
X3321042Y5625381D01*
X3334758Y5620809D01*
X3343902Y5611665D01*
X3348474Y5602775D01*
X3353046Y5589059D01*
X3353046Y5566199D01*
X3348474Y5552737D01*
X3343902Y5543593D01*
X3334758Y5534449D01*
X3321042Y5529877D01*
X3289292Y5529877D01*
X3387590Y5602775D02*
G01*
X3387590Y5607093D01*
X3391908Y5616237D01*
X3396480Y5620809D01*
X3405624Y5625381D01*
X3423912Y5625381D01*
X3432802Y5620809D01*
X3437374Y5616237D01*
X3441946Y5607093D01*
X3441946Y5598203D01*
X3437374Y5589059D01*
X3428484Y5575343D01*
X3383018Y5529877D01*
X3446518Y5529877D01*
X4216392Y3809281D02*
G01*
X4216392Y3713777D01*
X4216392Y3809281D02*
G01*
X4257286Y3809281D01*
X4271002Y3804709D01*
X4275574Y3800137D01*
X4280146Y3790993D01*
X4280146Y3782103D01*
X4275574Y3772959D01*
X4271002Y3768387D01*
X4257286Y3763815D01*
X4216392Y3763815D01*
X4248142Y3763815D02*
G01*
X4280146Y3713777D01*
X4364474Y3809281D02*
G01*
X4319008Y3809281D01*
X4314690Y3768387D01*
X4319008Y3772959D01*
X4332724Y3777531D01*
X4346440Y3777531D01*
X4359902Y3772959D01*
X4369046Y3763815D01*
X4373618Y3750099D01*
X4373618Y3741209D01*
X4369046Y3727493D01*
X4359902Y3718349D01*
X4346440Y3713777D01*
X4332724Y3713777D01*
X4319008Y3718349D01*
X4314690Y3722921D01*
X4310118Y3732065D01*
X4216392Y4012481D02*
G01*
X4216392Y3916977D01*
X4216392Y4012481D02*
G01*
X4248142Y4012481D01*
X4261858Y4007909D01*
X4271002Y3998765D01*
X4275574Y3989875D01*
X4280146Y3976159D01*
X4280146Y3953299D01*
X4275574Y3939837D01*
X4271002Y3930693D01*
X4261858Y3921549D01*
X4248142Y3916977D01*
X4216392Y3916977D01*
X4364474Y4012481D02*
G01*
X4319008Y4012481D01*
X4314690Y3971587D01*
X4319008Y3976159D01*
X4332724Y3980731D01*
X4346440Y3980731D01*
X4359902Y3976159D01*
X4369046Y3967015D01*
X4373618Y3953299D01*
X4373618Y3944409D01*
X4369046Y3930693D01*
X4359902Y3921549D01*
X4346440Y3916977D01*
X4332724Y3916977D01*
X4319008Y3921549D01*
X4314690Y3926121D01*
X4310118Y3935265D01*
X2641592Y2437681D02*
G01*
X2641592Y2342177D01*
X2641592Y2437681D02*
G01*
X2682486Y2437681D01*
X2696202Y2433109D01*
X2700774Y2428537D01*
X2705346Y2419647D01*
X2705346Y2410503D01*
X2700774Y2401359D01*
X2696202Y2396787D01*
X2682486Y2392215D01*
X2641592Y2392215D01*
X2673342Y2392215D02*
G01*
X2705346Y2342177D01*
X2789674Y2423965D02*
G01*
X2785356Y2433109D01*
X2771640Y2437681D01*
X2762496Y2437681D01*
X2748780Y2433109D01*
X2739890Y2419647D01*
X2735318Y2396787D01*
X2735318Y2374181D01*
X2739890Y2355893D01*
X2748780Y2346749D01*
X2762496Y2342177D01*
X2767068Y2342177D01*
X2780784Y2346749D01*
X2789674Y2355893D01*
X2794246Y2369609D01*
X2794246Y2374181D01*
X2789674Y2387643D01*
X2780784Y2396787D01*
X2767068Y2401359D01*
X2762496Y2401359D01*
X2748780Y2396787D01*
X2739890Y2387643D01*
X2735318Y2374181D01*
X3801861Y2986577D02*
G01*
X3797543Y2995467D01*
X3788399Y3004611D01*
X3779255Y3009183D01*
X3760967Y3009183D01*
X3752077Y3004611D01*
X3742933Y2995467D01*
X3738361Y2986577D01*
X3733789Y2972861D01*
X3733789Y2950001D01*
X3738361Y2936539D01*
X3742933Y2927395D01*
X3752077Y2918251D01*
X3760967Y2913679D01*
X3779255Y2913679D01*
X3788399Y2918251D01*
X3797543Y2927395D01*
X3801861Y2936539D01*
X3836405Y2986577D02*
G01*
X3836405Y2990895D01*
X3840977Y3000039D01*
X3845549Y3004611D01*
X3854693Y3009183D01*
X3872981Y3009183D01*
X3881871Y3004611D01*
X3886443Y3000039D01*
X3891015Y2990895D01*
X3891015Y2982005D01*
X3886443Y2972861D01*
X3877553Y2959145D01*
X3832087Y2913679D01*
X3895587Y2913679D01*
X3446264Y2059475D02*
G01*
X3441946Y2068365D01*
X3432802Y2077509D01*
X3423658Y2082081D01*
X3405370Y2082081D01*
X3396480Y2077509D01*
X3387336Y2068365D01*
X3382764Y2059475D01*
X3378192Y2045759D01*
X3378192Y2022899D01*
X3382764Y2009437D01*
X3387336Y2000293D01*
X3396480Y1991149D01*
X3405370Y1986577D01*
X3423658Y1986577D01*
X3432802Y1991149D01*
X3441946Y2000293D01*
X3446264Y2009437D01*
X3485380Y2082081D02*
G01*
X3535418Y2082081D01*
X3508240Y2045759D01*
X3521702Y2045759D01*
X3530846Y2041187D01*
X3535418Y2036615D01*
X3539990Y2022899D01*
X3539990Y2014009D01*
X3535418Y2000293D01*
X3526274Y1991149D01*
X3512812Y1986577D01*
X3499096Y1986577D01*
X3485380Y1991149D01*
X3480808Y1995721D01*
X3476490Y2004865D01*
X2133592Y2463081D02*
G01*
X2133592Y2367577D01*
X2133592Y2463081D02*
G01*
X2165342Y2463081D01*
X2179058Y2458509D01*
X2188202Y2449365D01*
X2192774Y2440475D01*
X2197346Y2426759D01*
X2197346Y2403899D01*
X2192774Y2390437D01*
X2188202Y2381293D01*
X2179058Y2372149D01*
X2165342Y2367577D01*
X2133592Y2367577D01*
X2290818Y2463081D02*
G01*
X2245352Y2367577D01*
X2227318Y2463081D02*
G01*
X2290818Y2463081D01*
X2133592Y4241081D02*
G01*
X2133592Y4145577D01*
X2133592Y4241081D02*
G01*
X2165342Y4241081D01*
X2179058Y4236509D01*
X2188202Y4227365D01*
X2192774Y4218475D01*
X2197346Y4204759D01*
X2197346Y4181899D01*
X2192774Y4168437D01*
X2188202Y4159293D01*
X2179058Y4150149D01*
X2165342Y4145577D01*
X2133592Y4145577D01*
X2249924Y4241081D02*
G01*
X2236208Y4236509D01*
X2231890Y4227365D01*
X2231890Y4218475D01*
X2236208Y4209331D01*
X2245352Y4204759D01*
X2263640Y4200187D01*
X2277102Y4195615D01*
X2286246Y4186471D01*
X2290818Y4177581D01*
X2290818Y4163865D01*
X2286246Y4154721D01*
X2281674Y4150149D01*
X2268212Y4145577D01*
X2249924Y4145577D01*
X2236208Y4150149D01*
X2231890Y4154721D01*
X2227318Y4163865D01*
X2227318Y4177581D01*
X2231890Y4186471D01*
X2240780Y4195615D01*
X2254496Y4200187D01*
X2272784Y4204759D01*
X2281674Y4209331D01*
X2286246Y4218475D01*
X2286246Y4227365D01*
X2281674Y4236509D01*
X2268212Y4241081D01*
X2249924Y4241081D01*
X3365492Y2793281D02*
G01*
X3365492Y2725209D01*
X3370064Y2711493D01*
X3379208Y2702349D01*
X3392670Y2697777D01*
X3401814Y2697777D01*
X3415530Y2702349D01*
X3424674Y2711493D01*
X3429246Y2725209D01*
X3429246Y2793281D01*
X3463790Y2770675D02*
G01*
X3463790Y2775247D01*
X3468108Y2784137D01*
X3472680Y2788709D01*
X3481824Y2793281D01*
X3500112Y2793281D01*
X3509002Y2788709D01*
X3513574Y2784137D01*
X3518146Y2775247D01*
X3518146Y2766103D01*
X3513574Y2756959D01*
X3504684Y2743243D01*
X3459218Y2697777D01*
X3522718Y2697777D01*
X2666944Y3352129D02*
G01*
X2666944Y3283803D01*
X2671516Y3270341D01*
X2680660Y3261197D01*
X2694376Y3256625D01*
X2703266Y3256625D01*
X2716982Y3261197D01*
X2726126Y3270341D01*
X2730698Y3283803D01*
X2730698Y3352129D01*
X2760670Y3333841D02*
G01*
X2769814Y3338413D01*
X2783276Y3352129D01*
X2783276Y3256625D01*
X1607553Y4939657D02*
G01*
X1607553Y4866759D01*
X1602981Y4853297D01*
X1598409Y4848725D01*
X1589265Y4844153D01*
X1580375Y4844153D01*
X1571231Y4848725D01*
X1566659Y4853297D01*
X1562087Y4866759D01*
X1562087Y4875903D01*
X1646669Y4939657D02*
G01*
X1696707Y4939657D01*
X1669275Y4903335D01*
X1682991Y4903335D01*
X1692135Y4898763D01*
X1696707Y4894191D01*
X1701279Y4880475D01*
X1701279Y4871331D01*
X1696707Y4857869D01*
X1687563Y4848725D01*
X1673847Y4844153D01*
X1660385Y4844153D01*
X1646669Y4848725D01*
X1642097Y4853297D01*
X1637525Y4862441D01*
X1607553Y3161659D02*
G01*
X1607553Y3088761D01*
X1602981Y3075299D01*
X1598409Y3070727D01*
X1589265Y3066155D01*
X1580375Y3066155D01*
X1571231Y3070727D01*
X1566659Y3075299D01*
X1562087Y3088761D01*
X1562087Y3097905D01*
X1682991Y3161659D02*
G01*
X1637525Y3097905D01*
X1705851Y3097905D01*
X1682991Y3161659D02*
G01*
X1682991Y3066155D01*
X2197092Y3720381D02*
G01*
X2197092Y3624877D01*
X2197092Y3720381D02*
G01*
X2228842Y3720381D01*
X2242558Y3715809D01*
X2251702Y3706665D01*
X2256274Y3697775D01*
X2260846Y3684059D01*
X2260846Y3661199D01*
X2256274Y3647737D01*
X2251702Y3638593D01*
X2242558Y3629449D01*
X2228842Y3624877D01*
X2197092Y3624877D01*
X2299708Y3720381D02*
G01*
X2349746Y3720381D01*
X2322568Y3684059D01*
X2336284Y3684059D01*
X2345174Y3679487D01*
X2349746Y3674915D01*
X2354318Y3661199D01*
X2354318Y3652309D01*
X2349746Y3638593D01*
X2340856Y3629449D01*
X2327140Y3624877D01*
X2313424Y3624877D01*
X2299708Y3629449D01*
X2295390Y3634021D01*
X2290818Y3643165D01*
X2197092Y3936281D02*
G01*
X2197092Y3840777D01*
X2197092Y3936281D02*
G01*
X2237986Y3936281D01*
X2251702Y3931709D01*
X2256274Y3927137D01*
X2260846Y3917993D01*
X2260846Y3909103D01*
X2256274Y3899959D01*
X2251702Y3895387D01*
X2237986Y3890815D01*
X2197092Y3890815D01*
X2228842Y3890815D02*
G01*
X2260846Y3840777D01*
X2299708Y3936281D02*
G01*
X2349746Y3936281D01*
X2322568Y3899959D01*
X2336284Y3899959D01*
X2345174Y3895387D01*
X2349746Y3890815D01*
X2354318Y3877099D01*
X2354318Y3868209D01*
X2349746Y3854493D01*
X2340856Y3845349D01*
X2327140Y3840777D01*
X2313424Y3840777D01*
X2299708Y3845349D01*
X2295390Y3849921D01*
X2290818Y3859065D01*
X2197092Y2158281D02*
G01*
X2197092Y2062777D01*
X2197092Y2158281D02*
G01*
X2237986Y2158281D01*
X2251702Y2153709D01*
X2256274Y2149137D01*
X2260846Y2140247D01*
X2260846Y2131103D01*
X2256274Y2121959D01*
X2251702Y2117387D01*
X2237986Y2112815D01*
X2197092Y2112815D01*
X2228842Y2112815D02*
G01*
X2260846Y2062777D01*
X2336284Y2158281D02*
G01*
X2290818Y2094781D01*
X2358890Y2094781D01*
X2336284Y2158281D02*
G01*
X2336284Y2062777D01*
X2197092Y1942381D02*
G01*
X2197092Y1846877D01*
X2197092Y1942381D02*
G01*
X2228842Y1942381D01*
X2242558Y1937809D01*
X2251702Y1928665D01*
X2256274Y1919775D01*
X2260846Y1906059D01*
X2260846Y1883199D01*
X2256274Y1869737D01*
X2251702Y1860593D01*
X2242558Y1851449D01*
X2228842Y1846877D01*
X2197092Y1846877D01*
X2336284Y1942381D02*
G01*
X2290818Y1878881D01*
X2358890Y1878881D01*
X2336284Y1942381D02*
G01*
X2336284Y1846877D01*
X3873492Y5625330D02*
G01*
X3873492Y5529826D01*
X3873492Y5625330D02*
G01*
X3905242Y5625330D01*
X3918958Y5620758D01*
X3928102Y5611868D01*
X3932674Y5602724D01*
X3937246Y5589008D01*
X3937246Y5566402D01*
X3932674Y5552686D01*
X3928102Y5543542D01*
X3918958Y5534398D01*
X3905242Y5529826D01*
X3873492Y5529826D01*
X3967218Y5607296D02*
G01*
X3976108Y5611868D01*
X3989824Y5625330D01*
X3989824Y5529826D01*
X3873492Y5434830D02*
G01*
X3873492Y5339326D01*
X3873492Y5434830D02*
G01*
X3914386Y5434830D01*
X3928102Y5430258D01*
X3932674Y5425686D01*
X3937246Y5416796D01*
X3937246Y5407652D01*
X3932674Y5398508D01*
X3928102Y5393936D01*
X3914386Y5389364D01*
X3873492Y5389364D01*
X3905242Y5389364D02*
G01*
X3937246Y5339326D01*
X3967218Y5416796D02*
G01*
X3976108Y5421368D01*
X3989824Y5434830D01*
X3989824Y5339326D01*
X3255764Y3570775D02*
G01*
X3251446Y3579665D01*
X3242302Y3588809D01*
X3233158Y3593381D01*
X3214870Y3593381D01*
X3205980Y3588809D01*
X3196836Y3579665D01*
X3192264Y3570775D01*
X3187692Y3557059D01*
X3187692Y3534199D01*
X3192264Y3520737D01*
X3196836Y3511593D01*
X3205980Y3502449D01*
X3214870Y3497877D01*
X3233158Y3497877D01*
X3242302Y3502449D01*
X3251446Y3511593D01*
X3255764Y3520737D01*
X3285990Y3575093D02*
G01*
X3294880Y3579665D01*
X3308596Y3593381D01*
X3308596Y3497877D01*
X3797292Y2564681D02*
G01*
X3797292Y2469177D01*
X3797292Y2564681D02*
G01*
X3829042Y2564681D01*
X3842758Y2560109D01*
X3851902Y2550965D01*
X3856474Y2542075D01*
X3861046Y2528359D01*
X3861046Y2505499D01*
X3856474Y2492037D01*
X3851902Y2482893D01*
X3842758Y2473749D01*
X3829042Y2469177D01*
X3797292Y2469177D01*
X3945374Y2550965D02*
G01*
X3940802Y2560109D01*
X3927340Y2564681D01*
X3918196Y2564681D01*
X3904480Y2560109D01*
X3895590Y2546647D01*
X3891018Y2523787D01*
X3891018Y2501181D01*
X3895590Y2482893D01*
X3904480Y2473749D01*
X3918196Y2469177D01*
X3922768Y2469177D01*
X3936484Y2473749D01*
X3945374Y2482893D01*
X3949946Y2496609D01*
X3949946Y2501181D01*
X3945374Y2514643D01*
X3936484Y2523787D01*
X3922768Y2528359D01*
X3918196Y2528359D01*
X3904480Y2523787D01*
X3895590Y2514643D01*
X3891018Y2501181D01*
X4494268Y4173009D02*
G01*
X4494268Y4100365D01*
X4489696Y4086649D01*
X4485124Y4082077D01*
X4476234Y4077505D01*
X4467090Y4077505D01*
X4457946Y4082077D01*
X4453374Y4086649D01*
X4448802Y4100365D01*
X4448802Y4109509D01*
X4578850Y4173009D02*
G01*
X4533384Y4173009D01*
X4528812Y4132115D01*
X4533384Y4136687D01*
X4547100Y4141259D01*
X4560562Y4141259D01*
X4574278Y4136687D01*
X4583422Y4127543D01*
X4587994Y4113827D01*
X4587994Y4104937D01*
X4583422Y4091221D01*
X4574278Y4082077D01*
X4560562Y4077505D01*
X4547100Y4077505D01*
X4533384Y4082077D01*
X4528812Y4086649D01*
X4524240Y4095793D01*
G36*
X0Y5842000D02*
G01*
X0Y5588000D01*
X254000Y5842000D01*
G37*
G36*
X0Y254000D02*
G01*
X0Y0D01*
X254000Y0D01*
G37*
G36*
X5842000Y254000D02*
G01*
X5588000Y0D01*
X5842000Y0D01*
G37*
G36*
X5588000Y5842000D02*
G01*
X5842000Y5588000D01*
X5842000Y5842000D01*
G37*
D11*
X664425Y3314705D02*
G01*
X778725Y3314705D01*
X791425Y3314705D01*
X816825Y3340105D01*
X816825Y3479805D01*
X816825Y3492505D01*
X791425Y3517905D01*
X664425Y3517905D01*
X588225Y3517905D02*
G01*
X473925Y3517905D01*
X461225Y3517905D01*
X435825Y3492505D01*
X435825Y3352805D01*
X435825Y3340105D01*
X461225Y3314705D01*
X588225Y3314705D01*
X664425Y3098805D02*
G01*
X778725Y3098805D01*
X791425Y3098805D01*
X816825Y3124205D01*
X816825Y3263905D01*
X816825Y3276605D01*
X791425Y3302005D01*
X664425Y3302005D01*
X588225Y3302005D02*
G01*
X473925Y3302005D01*
X461225Y3302005D01*
X435825Y3276605D01*
X435825Y3136905D01*
X435825Y3124205D01*
X461225Y3098805D01*
X588225Y3098805D01*
X3489830Y5291579D02*
G01*
X3489830Y5451584D01*
X3799888Y5292089D02*
G01*
X3799888Y5452094D01*
X3614826Y5451584D02*
G01*
X3489830Y5451584D01*
X3614826Y5291579D02*
G01*
X3489830Y5291579D01*
X3674884Y5452094D02*
G01*
X3799888Y5452094D01*
X3674884Y5292089D02*
G01*
X3799888Y5292089D01*
D12*
X3661892Y5575515D02*
G01*
X3627892Y5575515D01*
X3469886Y5540288D02*
G01*
X3469886Y5530286D01*
X3499881Y5500283D01*
X3684887Y5650290D02*
G01*
X3799888Y5650290D01*
X3684887Y5500283D02*
G01*
X3799888Y5500283D01*
X3604887Y5650290D02*
G01*
X3499881Y5650290D01*
X3604887Y5500283D02*
G01*
X3499881Y5500283D01*
X3799888Y5650278D02*
G01*
X3799888Y5502287D01*
X3469886Y5610280D02*
G01*
X3469886Y5540288D01*
X3469886Y5610280D02*
G01*
X3469886Y5620296D01*
X3499881Y5650290D01*
X3661892Y5610288D02*
G01*
X3661892Y5542290D01*
D11*
X3858130Y3678679D02*
G01*
X3858130Y3838684D01*
X4168188Y3679189D02*
G01*
X4168188Y3839194D01*
X3983126Y3838684D02*
G01*
X3858130Y3838684D01*
X3983126Y3678679D02*
G01*
X3858130Y3678679D01*
X4043184Y3839194D02*
G01*
X4168188Y3839194D01*
X4043184Y3679189D02*
G01*
X4168188Y3679189D01*
D12*
X4030192Y3962615D02*
G01*
X3996192Y3962615D01*
X3838186Y3927388D02*
G01*
X3838186Y3917386D01*
X3868181Y3887383D01*
X4053187Y4037390D02*
G01*
X4168188Y4037390D01*
X4053187Y3887383D02*
G01*
X4168188Y3887383D01*
X3973187Y4037390D02*
G01*
X3868181Y4037390D01*
X3973187Y3887383D02*
G01*
X3868181Y3887383D01*
X4168188Y4037378D02*
G01*
X4168188Y3889387D01*
X3838186Y3997380D02*
G01*
X3838186Y3927388D01*
X3838186Y3997380D02*
G01*
X3838186Y4007396D01*
X3868181Y4037390D01*
X4030192Y3997388D02*
G01*
X4030192Y3929390D01*
D11*
X2562733Y2129281D02*
G01*
X2562733Y2289286D01*
X2872790Y2129792D02*
G01*
X2872790Y2289797D01*
X2687728Y2289286D02*
G01*
X2562733Y2289286D01*
X2687728Y2129281D02*
G01*
X2562733Y2129281D01*
X2747787Y2289797D02*
G01*
X2872790Y2289797D01*
X2747787Y2129792D02*
G01*
X2872790Y2129792D01*
X3682293Y2999071D02*
G01*
X3682293Y2919069D01*
X3571318Y3030057D02*
G01*
X3651316Y3030057D01*
X3571318Y2888091D02*
G01*
X3651316Y2888091D01*
X3513729Y3030639D02*
G01*
X3433729Y3030639D01*
X3402746Y2999656D02*
G01*
X3402746Y2919658D01*
X3513729Y2888678D02*
G01*
X3433729Y2888678D01*
X3326693Y2071971D02*
G01*
X3326693Y1991969D01*
X3215718Y2102957D02*
G01*
X3295716Y2102957D01*
X3215718Y1960991D02*
G01*
X3295716Y1960991D01*
X3158129Y2103539D02*
G01*
X3078129Y2103539D01*
X3047146Y2072556D02*
G01*
X3047146Y1992558D01*
X3158129Y1961578D02*
G01*
X3078129Y1961578D01*
X2108200Y2565400D02*
G01*
X2107021Y2565400D01*
X1892300Y2449540D02*
G01*
X1892300Y2376446D01*
X2095500Y2449540D02*
G01*
X2095500Y2376454D01*
X2108197Y4343397D02*
G01*
X2107018Y4343397D01*
X1892297Y4227537D02*
G01*
X1892297Y4154444D01*
X2095497Y4227537D02*
G01*
X2095497Y4154451D01*
X3114695Y2650294D02*
G01*
X3114695Y2635882D01*
X3114695Y2545707D02*
G01*
X3114695Y2508882D01*
X3514694Y2650294D02*
G01*
X3514694Y2635882D01*
X3514694Y2545707D02*
G01*
X3514694Y2508882D01*
X3514694Y2418707D02*
G01*
X3514694Y2381882D01*
X3514694Y2291707D02*
G01*
X3514694Y2254882D01*
X3256696Y2650294D02*
G01*
X3114695Y2650294D01*
X3114695Y2418707D02*
G01*
X3114695Y2381882D01*
X3114695Y2291707D02*
G01*
X3114695Y2254882D01*
X3114695Y2164707D02*
G01*
X3114695Y2150295D01*
X3514694Y2650294D02*
G01*
X3374692Y2650294D01*
X3514694Y2150295D02*
G01*
X3114695Y2150295D01*
X3514694Y2164707D02*
G01*
X3514694Y2150295D01*
X2995990Y3161995D02*
G01*
X2845991Y3161992D01*
X2995990Y3441989D02*
G01*
X2845991Y3441992D01*
X2995990Y3441989D02*
G01*
X2995990Y3414900D01*
X2995990Y3188672D02*
G01*
X2995990Y3161995D01*
X2845991Y3441992D02*
G01*
X2845991Y3414900D01*
X2845991Y3188672D02*
G01*
X2845991Y3161992D01*
X1705493Y4790991D02*
G01*
X1705493Y3590993D01*
X5496Y3590993D01*
X5496Y4790991D01*
X1705493Y4790991D01*
X1705493Y3012993D02*
G01*
X1705493Y1812996D01*
X5496Y1812996D01*
X5496Y3012993D01*
X1705493Y3012993D01*
D12*
X2010895Y3670515D02*
G01*
X1976894Y3670515D01*
X1818888Y3635288D02*
G01*
X1818888Y3625286D01*
X1848883Y3595283D01*
X2033889Y3745290D02*
G01*
X2148890Y3745290D01*
X2033889Y3595283D02*
G01*
X2148890Y3595283D01*
X1953889Y3745290D02*
G01*
X1848883Y3745290D01*
X1953889Y3595283D02*
G01*
X1848883Y3595283D01*
X2148890Y3745278D02*
G01*
X2148890Y3597287D01*
X1818888Y3705280D02*
G01*
X1818888Y3635288D01*
X1818888Y3705280D02*
G01*
X1818888Y3715296D01*
X1848883Y3745290D01*
X2010895Y3705288D02*
G01*
X2010895Y3637290D01*
D11*
X1838833Y3805679D02*
G01*
X1838833Y3965684D01*
X2148890Y3806189D02*
G01*
X2148890Y3966194D01*
X1963828Y3965684D02*
G01*
X1838833Y3965684D01*
X1963828Y3805679D02*
G01*
X1838833Y3805679D01*
X2023887Y3966194D02*
G01*
X2148890Y3966194D01*
X2023887Y3806189D02*
G01*
X2148890Y3806189D01*
X1838833Y2027681D02*
G01*
X1838833Y2187686D01*
X2148890Y2028192D02*
G01*
X2148890Y2188197D01*
X1963828Y2187686D02*
G01*
X1838833Y2187686D01*
X1963828Y2027681D02*
G01*
X1838833Y2027681D01*
X2023887Y2188197D02*
G01*
X2148890Y2188197D01*
X2023887Y2028192D02*
G01*
X2148890Y2028192D01*
D12*
X2010895Y1892518D02*
G01*
X1976894Y1892518D01*
X1818888Y1857291D02*
G01*
X1818888Y1847288D01*
X1848883Y1817286D01*
X2033889Y1967293D02*
G01*
X2148890Y1967293D01*
X2033889Y1817286D02*
G01*
X2148890Y1817286D01*
X1953889Y1967293D02*
G01*
X1848883Y1967293D01*
X1953889Y1817286D02*
G01*
X1848883Y1817286D01*
X2148890Y1967280D02*
G01*
X2148890Y1819290D01*
X1818888Y1927283D02*
G01*
X1818888Y1857291D01*
X1818888Y1927283D02*
G01*
X1818888Y1937298D01*
X1848883Y1967293D01*
X2010895Y1927291D02*
G01*
X2010895Y1859292D01*
X4246092Y5575515D02*
G01*
X4212092Y5575515D01*
X4054086Y5540288D02*
G01*
X4054086Y5530286D01*
X4084081Y5500283D01*
X4269087Y5650290D02*
G01*
X4384088Y5650290D01*
X4269087Y5500283D02*
G01*
X4384088Y5500283D01*
X4189087Y5650290D02*
G01*
X4084081Y5650290D01*
X4189087Y5500283D02*
G01*
X4084081Y5500283D01*
X4384088Y5650278D02*
G01*
X4384088Y5502287D01*
X4054086Y5610280D02*
G01*
X4054086Y5540288D01*
X4054086Y5610280D02*
G01*
X4054086Y5620296D01*
X4084081Y5650290D01*
X4246092Y5610288D02*
G01*
X4246092Y5542290D01*
D11*
X4074030Y5291579D02*
G01*
X4074030Y5451584D01*
X4384088Y5292089D02*
G01*
X4384088Y5452094D01*
X4199026Y5451584D02*
G01*
X4074030Y5451584D01*
X4199026Y5291579D02*
G01*
X4074030Y5291579D01*
X4259084Y5452094D02*
G01*
X4384088Y5452094D01*
X4259084Y5292089D02*
G01*
X4384088Y5292089D01*
X3136196Y3583269D02*
G01*
X3136196Y3503267D01*
X3025221Y3614254D02*
G01*
X3105218Y3614254D01*
X3025221Y3472289D02*
G01*
X3105218Y3472289D01*
X2967631Y3614836D02*
G01*
X2887632Y3614836D01*
X2856649Y3583853D02*
G01*
X2856649Y3503856D01*
X2967631Y3472875D02*
G01*
X2887632Y3472875D01*
X4216397Y2667000D02*
G01*
X4215216Y2667000D01*
X4000497Y2551140D02*
G01*
X4000497Y2478046D01*
X4203697Y2551140D02*
G01*
X4203697Y2478054D01*
D13*
X5058882Y2584089D02*
G01*
X5834877Y2584089D01*
X5834877Y4034099D01*
X5058882Y4034099D01*
X4434880Y2584089D02*
G01*
X4434880Y4034099D01*
D11*
G75*
G01*
X3402741Y2999656D02*
G02*
X3433724Y3030639I30983J0D01*
G75*
G01*
X3433724Y2888673D02*
G02*
X3402741Y2919659I0J30983D01*
G75*
G01*
X3651311Y3030057D02*
G02*
X3682294Y2999072I0J-30982D01*
G75*
G01*
X3682294Y2919075D02*
G02*
X3651311Y2888092I-30983J0D01*
G75*
G01*
X3047141Y2072556D02*
G02*
X3078124Y2103539I30983J0D01*
G75*
G01*
X3078124Y1961573D02*
G02*
X3047141Y1992559I0J30983D01*
G75*
G01*
X3295711Y2102957D02*
G02*
X3326694Y2071972I0J-30982D01*
G75*
G01*
X3326694Y1991975D02*
G02*
X3295711Y1960992I-30983J0D01*
G75*
G01*
X3374692Y2649294D02*
G02*
X3256691Y2649294I-59000J-4468D01*
G75*
G01*
X2856644Y3583854D02*
G02*
X2887627Y3614837I30983J0D01*
G75*
G01*
X2887627Y3472871D02*
G02*
X2856644Y3503856I0J30983D01*
G75*
G01*
X3105214Y3614255D02*
G02*
X3136196Y3583269I0J-30983D01*
G75*
G01*
X3136196Y3503272D02*
G02*
X3105214Y3472289I-30983J0D01*
D14*
G75*
G01*
X4354896Y2966105D02*
G03*
X4334881Y2966105I-10008J0D01*
G75*
G01*
X4334881Y2966105D02*
G03*
X4354896Y2966105I10007J0D01*
D11*
G75*
G01
X3067042Y2666992D02*
G03X3067042Y2666992I-19050J0D01*
G75*
G01
X2798006Y3426986D02*
G03X2798006Y3426986I-2007J0D01*
X2022721Y1114391D02*
G01*
X3822717Y1114391D01*
X3822717Y264380D01*
X2022721Y264380D01*
X2022721Y1114391D01*
X4444992Y5714992D02*
G01*
X4952992Y5714992D01*
X4952992Y5206992D01*
X4444992Y5206992D01*
X4444992Y5714992D01*
M02*
