G04 Layer: TopLayer*
G04 EasyEDA v6.5.34, 2023-09-10 21:38:17*
G04 5915201a24e44bbb9a238a9ce508910a,5a6b42c53f6a479593ecc07194224c93,10*
G04 Gerber Generator version 0.2*
G04 Scale: 100 percent, Rotated: No, Reflected: No *
G04 Dimensions in millimeters *
G04 leading zeros omitted , absolute positions ,4 integer and 5 decimal *
%FSLAX45Y45*%
%MOMM*%

%AMMACRO1*21,1,$1,$2,0,0,$3*%
%ADD10C,0.2540*%
%ADD11C,0.5000*%
%ADD12MACRO1,1.377X1.1325X-90.0000*%
%ADD13R,1.0000X1.1000*%
%ADD14R,0.8999X1.0000*%
%ADD15R,0.8000X0.9000*%
%ADD16R,0.7000X0.9000*%
%ADD17O,1.5200122X0.5999988*%
%ADD18R,0.5800X0.3000*%
%ADD19R,0.5800X0.2500*%
%ADD20R,0.3500X0.6300*%
%ADD21C,3.0000*%
%ADD22C,1.5240*%
%ADD23C,1.4310*%
%ADD24C,3.4501*%
%ADD25C,5.0000*%
%ADD26C,2.0000*%
%ADD27C,1.8000*%
%ADD28C,0.6096*%
%ADD29C,0.0175*%

%LPD*%
G36*
X5805932Y25908D02*
G01*
X36068Y26416D01*
X32156Y27178D01*
X28905Y29362D01*
X26670Y32664D01*
X25908Y36576D01*
X25908Y5805932D01*
X26670Y5809792D01*
X28905Y5813094D01*
X32156Y5815330D01*
X36068Y5816092D01*
X5805932Y5816092D01*
X5809792Y5815330D01*
X5813094Y5813094D01*
X5815330Y5809792D01*
X5816092Y5805932D01*
X5816092Y36068D01*
X5815330Y32156D01*
X5813094Y28905D01*
X5809792Y26670D01*
G37*

%LPC*%
G36*
X4584700Y5600700D02*
G01*
X4687112Y5600700D01*
X4686960Y5602528D01*
X4684268Y5616803D01*
X4679746Y5630672D01*
X4673549Y5643829D01*
X4665776Y5656122D01*
X4656480Y5667349D01*
X4645863Y5677306D01*
X4634077Y5685840D01*
X4621326Y5692851D01*
X4607814Y5698236D01*
X4593691Y5701842D01*
X4584700Y5702960D01*
G37*
G36*
X5448300Y105613D02*
G01*
X5448300Y368300D01*
X5185410Y368300D01*
X5187289Y346405D01*
X5191099Y323646D01*
X5196890Y301244D01*
X5204460Y279450D01*
X5213858Y258317D01*
X5224983Y238099D01*
X5237784Y218846D01*
X5252161Y200710D01*
X5267960Y183896D01*
X5285130Y168402D01*
X5303520Y154432D01*
X5323027Y142036D01*
X5343499Y131368D01*
X5364835Y122377D01*
X5386781Y115265D01*
X5409285Y109982D01*
X5432145Y106629D01*
G37*
G36*
X368300Y105613D02*
G01*
X368300Y368300D01*
X105410Y368300D01*
X107289Y346405D01*
X111099Y323646D01*
X116890Y301244D01*
X124460Y279450D01*
X133858Y258317D01*
X144983Y238099D01*
X157784Y218846D01*
X172161Y200710D01*
X187960Y183896D01*
X205130Y168402D01*
X223520Y154432D01*
X243027Y142036D01*
X263499Y131368D01*
X284835Y122377D01*
X306781Y115265D01*
X329285Y109982D01*
X352145Y106629D01*
G37*
G36*
X393700Y393700D02*
G01*
X656336Y393700D01*
X655929Y404063D01*
X653034Y427024D01*
X648208Y449630D01*
X641553Y471728D01*
X633018Y493217D01*
X622757Y513892D01*
X610819Y533654D01*
X597204Y552348D01*
X582117Y569874D01*
X565607Y586028D01*
X547776Y600760D01*
X528828Y613968D01*
X508812Y625500D01*
X487883Y635355D01*
X466242Y643382D01*
X443992Y649630D01*
X421284Y653948D01*
X398322Y656336D01*
X393700Y656437D01*
G37*
G36*
X5473700Y393700D02*
G01*
X5736336Y393700D01*
X5735929Y404063D01*
X5733034Y427024D01*
X5728208Y449630D01*
X5721553Y471728D01*
X5713018Y493217D01*
X5702757Y513892D01*
X5690819Y533654D01*
X5677204Y552348D01*
X5662117Y569874D01*
X5645607Y586028D01*
X5627776Y600760D01*
X5608828Y613968D01*
X5588812Y625500D01*
X5567883Y635355D01*
X5546242Y643382D01*
X5523992Y649630D01*
X5501284Y653948D01*
X5478322Y656336D01*
X5473700Y656437D01*
G37*
G36*
X105410Y393700D02*
G01*
X368300Y393700D01*
X368300Y656386D01*
X352145Y655370D01*
X329285Y652018D01*
X306781Y646734D01*
X284835Y639572D01*
X263499Y630631D01*
X243027Y619912D01*
X223520Y607568D01*
X205130Y593598D01*
X187960Y578104D01*
X172161Y561289D01*
X157784Y543153D01*
X144983Y523900D01*
X133858Y503682D01*
X124460Y482549D01*
X116890Y460756D01*
X111099Y438353D01*
X107289Y415594D01*
G37*
G36*
X5185410Y393700D02*
G01*
X5448300Y393700D01*
X5448300Y656386D01*
X5432145Y655370D01*
X5409285Y652018D01*
X5386781Y646734D01*
X5364835Y639572D01*
X5343499Y630631D01*
X5323027Y619912D01*
X5303520Y607568D01*
X5285130Y593598D01*
X5267960Y578104D01*
X5252161Y561289D01*
X5237784Y543153D01*
X5224983Y523900D01*
X5213858Y503682D01*
X5204460Y482549D01*
X5196890Y460756D01*
X5191099Y438353D01*
X5187289Y415594D01*
G37*
G36*
X4047083Y451662D02*
G01*
X4056887Y452526D01*
X4066336Y455066D01*
X4075277Y459232D01*
X4083304Y464820D01*
X4090263Y471779D01*
X4095902Y479856D01*
X4100017Y488746D01*
X4102557Y498246D01*
X4103420Y508000D01*
X4102557Y517804D01*
X4100017Y527304D01*
X4095902Y536194D01*
X4090263Y544220D01*
X4083304Y551180D01*
X4075277Y556818D01*
X4066336Y560933D01*
X4056887Y563524D01*
X4047083Y564337D01*
X4037279Y563524D01*
X4027830Y560933D01*
X4018889Y556818D01*
X4010863Y551180D01*
X4009339Y549656D01*
X4006037Y547420D01*
X4002125Y546658D01*
X3093008Y546658D01*
X3089097Y547420D01*
X3085795Y549656D01*
X3084220Y551230D01*
X3076194Y556869D01*
X3067253Y560984D01*
X3057804Y563524D01*
X3048000Y564388D01*
X3038195Y563524D01*
X3028746Y560984D01*
X3019806Y556869D01*
X3011779Y551230D01*
X3004820Y544271D01*
X2999181Y536244D01*
X2995066Y527304D01*
X2992526Y517855D01*
X2991662Y508050D01*
X2992526Y498246D01*
X2995066Y488797D01*
X2999181Y479856D01*
X3004820Y471830D01*
X3011779Y464870D01*
X3019806Y459232D01*
X3028746Y455117D01*
X3038195Y452577D01*
X3048000Y451713D01*
X3057804Y452577D01*
X3067253Y455117D01*
X3076194Y459232D01*
X3084220Y464870D01*
X3085795Y466445D01*
X3089097Y468680D01*
X3093008Y469442D01*
X4002074Y469442D01*
X4005935Y468680D01*
X4009237Y466445D01*
X4010863Y464820D01*
X4018889Y459232D01*
X4027830Y455066D01*
X4037279Y452526D01*
G37*
G36*
X3664559Y583488D02*
G01*
X3678377Y584403D01*
X3691940Y587095D01*
X3705047Y591566D01*
X3717493Y597662D01*
X3728974Y605383D01*
X3739387Y614527D01*
X3748532Y624941D01*
X3756253Y636422D01*
X3762349Y648868D01*
X3766820Y661974D01*
X3769512Y675538D01*
X3770426Y689356D01*
X3769512Y703224D01*
X3766820Y716788D01*
X3762349Y729894D01*
X3756253Y742340D01*
X3748532Y753821D01*
X3739387Y764235D01*
X3728974Y773379D01*
X3717493Y781100D01*
X3705047Y787196D01*
X3691940Y791667D01*
X3678377Y794359D01*
X3664559Y795274D01*
X3650691Y794359D01*
X3637127Y791667D01*
X3624021Y787196D01*
X3611575Y781100D01*
X3600094Y773379D01*
X3589680Y764235D01*
X3580536Y753821D01*
X3572814Y742340D01*
X3566718Y729894D01*
X3562248Y716788D01*
X3559556Y703224D01*
X3558641Y689356D01*
X3559556Y675538D01*
X3562248Y661974D01*
X3566718Y648868D01*
X3572814Y636422D01*
X3580536Y624941D01*
X3589680Y614527D01*
X3600094Y605383D01*
X3611575Y597662D01*
X3624021Y591566D01*
X3637127Y587095D01*
X3650691Y584403D01*
G37*
G36*
X2177440Y583488D02*
G01*
X2191258Y584403D01*
X2204821Y587095D01*
X2217978Y591566D01*
X2230374Y597662D01*
X2241905Y605383D01*
X2252319Y614527D01*
X2261463Y624941D01*
X2269134Y636422D01*
X2275281Y648868D01*
X2279700Y661974D01*
X2282444Y675538D01*
X2283307Y689356D01*
X2282444Y703224D01*
X2279700Y716788D01*
X2275281Y729894D01*
X2269134Y742340D01*
X2261463Y753821D01*
X2252319Y764235D01*
X2241905Y773379D01*
X2230374Y781100D01*
X2217978Y787196D01*
X2204821Y791667D01*
X2191258Y794359D01*
X2177440Y795274D01*
X2163622Y794359D01*
X2150059Y791667D01*
X2136902Y787196D01*
X2124506Y781100D01*
X2112975Y773379D01*
X2102561Y764235D01*
X2093417Y753821D01*
X2085746Y742340D01*
X2079599Y729894D01*
X2075180Y716788D01*
X2072436Y703224D01*
X2071573Y689356D01*
X2072436Y675538D01*
X2075180Y661974D01*
X2079599Y648868D01*
X2085746Y636422D01*
X2093417Y624941D01*
X2102561Y614527D01*
X2112975Y605383D01*
X2124506Y597662D01*
X2136902Y591566D01*
X2150059Y587095D01*
X2163622Y584403D01*
G37*
G36*
X2540000Y788517D02*
G01*
X2555189Y789432D01*
X2570124Y792175D01*
X2584653Y796696D01*
X2598521Y802894D01*
X2611526Y810768D01*
X2623464Y820166D01*
X2634234Y830884D01*
X2643581Y842873D01*
X2651455Y855878D01*
X2657754Y869797D01*
X2659938Y872947D01*
X2663190Y875080D01*
X2667000Y875792D01*
X2670810Y875080D01*
X2674010Y872947D01*
X2676245Y869797D01*
X2682544Y855878D01*
X2690368Y842873D01*
X2699766Y830884D01*
X2710535Y820166D01*
X2722473Y810768D01*
X2735478Y802894D01*
X2749346Y796696D01*
X2763875Y792175D01*
X2778810Y789432D01*
X2794000Y788517D01*
X2809189Y789432D01*
X2824124Y792175D01*
X2838653Y796696D01*
X2852521Y802894D01*
X2865526Y810768D01*
X2877464Y820166D01*
X2888234Y830884D01*
X2897581Y842873D01*
X2905455Y855878D01*
X2911754Y869797D01*
X2913938Y872947D01*
X2917190Y875080D01*
X2921000Y875792D01*
X2924810Y875080D01*
X2928010Y872947D01*
X2930245Y869797D01*
X2936544Y855878D01*
X2944368Y842873D01*
X2953766Y830884D01*
X2964535Y820166D01*
X2976473Y810768D01*
X2989478Y802894D01*
X3003346Y796696D01*
X3017875Y792175D01*
X3032810Y789432D01*
X3048000Y788517D01*
X3063189Y789432D01*
X3078124Y792175D01*
X3092653Y796696D01*
X3106521Y802894D01*
X3119526Y810768D01*
X3131464Y820166D01*
X3142234Y830884D01*
X3151581Y842873D01*
X3159455Y855878D01*
X3165754Y869797D01*
X3167938Y872947D01*
X3171190Y875080D01*
X3175000Y875792D01*
X3178810Y875080D01*
X3182010Y872947D01*
X3184245Y869797D01*
X3190544Y855878D01*
X3198368Y842873D01*
X3207766Y830884D01*
X3218535Y820166D01*
X3230473Y810768D01*
X3243478Y802894D01*
X3257346Y796696D01*
X3271875Y792175D01*
X3286810Y789432D01*
X3302000Y788517D01*
X3317189Y789432D01*
X3332124Y792175D01*
X3346653Y796696D01*
X3360521Y802894D01*
X3373526Y810768D01*
X3385464Y820166D01*
X3396234Y830884D01*
X3405581Y842873D01*
X3413455Y855878D01*
X3419703Y869746D01*
X3424224Y884275D01*
X3426968Y899210D01*
X3427882Y914400D01*
X3426968Y929538D01*
X3424224Y944524D01*
X3419703Y959002D01*
X3413455Y972870D01*
X3405581Y985875D01*
X3396234Y997864D01*
X3385464Y1008634D01*
X3373526Y1017981D01*
X3360521Y1025855D01*
X3346653Y1032103D01*
X3332124Y1036624D01*
X3317189Y1039368D01*
X3302000Y1040282D01*
X3286810Y1039368D01*
X3271875Y1036624D01*
X3257346Y1032103D01*
X3243478Y1025855D01*
X3230473Y1017981D01*
X3218535Y1008634D01*
X3207766Y997864D01*
X3198368Y985875D01*
X3190544Y972870D01*
X3184245Y958951D01*
X3182010Y955802D01*
X3178810Y953719D01*
X3175000Y952957D01*
X3171190Y953719D01*
X3167938Y955802D01*
X3165754Y958951D01*
X3159455Y972870D01*
X3151581Y985875D01*
X3142234Y997864D01*
X3131464Y1008634D01*
X3119526Y1017981D01*
X3106521Y1025855D01*
X3092653Y1032103D01*
X3078124Y1036624D01*
X3063189Y1039368D01*
X3048000Y1040282D01*
X3032810Y1039368D01*
X3017875Y1036624D01*
X3003346Y1032103D01*
X2989478Y1025855D01*
X2976473Y1017981D01*
X2964535Y1008634D01*
X2953766Y997864D01*
X2944368Y985875D01*
X2936544Y972870D01*
X2930245Y958951D01*
X2928010Y955802D01*
X2924810Y953719D01*
X2921000Y952957D01*
X2917190Y953719D01*
X2913938Y955802D01*
X2911754Y958951D01*
X2905455Y972870D01*
X2897581Y985875D01*
X2888234Y997864D01*
X2877464Y1008634D01*
X2865526Y1017981D01*
X2852521Y1025855D01*
X2838653Y1032103D01*
X2824124Y1036624D01*
X2809189Y1039368D01*
X2794000Y1040282D01*
X2778810Y1039368D01*
X2763875Y1036624D01*
X2749346Y1032103D01*
X2735478Y1025855D01*
X2722473Y1017981D01*
X2710535Y1008634D01*
X2699766Y997864D01*
X2690368Y985875D01*
X2682544Y972870D01*
X2676245Y958951D01*
X2674010Y955802D01*
X2670810Y953719D01*
X2667000Y952957D01*
X2663190Y953719D01*
X2659938Y955802D01*
X2657754Y958951D01*
X2651455Y972870D01*
X2643581Y985875D01*
X2634234Y997864D01*
X2623464Y1008634D01*
X2611526Y1017981D01*
X2598521Y1025855D01*
X2584653Y1032103D01*
X2570124Y1036624D01*
X2555189Y1039368D01*
X2540000Y1040282D01*
X2524810Y1039368D01*
X2509875Y1036624D01*
X2495346Y1032103D01*
X2481478Y1025855D01*
X2468473Y1017981D01*
X2456535Y1008634D01*
X2445766Y997864D01*
X2436368Y985875D01*
X2428544Y972870D01*
X2422296Y959002D01*
X2417775Y944524D01*
X2415032Y929538D01*
X2414117Y914400D01*
X2415032Y899210D01*
X2417775Y884275D01*
X2422296Y869746D01*
X2428544Y855878D01*
X2436368Y842873D01*
X2445766Y830884D01*
X2456535Y820166D01*
X2468473Y810768D01*
X2481478Y802894D01*
X2495346Y796696D01*
X2509875Y792175D01*
X2524810Y789432D01*
G37*
G36*
X1034491Y1635099D02*
G01*
X1052576Y1636014D01*
X1070508Y1638807D01*
X1087983Y1643430D01*
X1104950Y1649831D01*
X1121156Y1657908D01*
X1136446Y1667662D01*
X1150620Y1678889D01*
X1163574Y1691538D01*
X1175207Y1705406D01*
X1185316Y1720443D01*
X1193800Y1736445D01*
X1200658Y1753209D01*
X1205687Y1770583D01*
X1208938Y1788414D01*
X1210360Y1806448D01*
X1209903Y1824583D01*
X1207566Y1842516D01*
X1203401Y1860143D01*
X1197457Y1877263D01*
X1189786Y1893671D01*
X1180439Y1909165D01*
X1169568Y1923694D01*
X1157274Y1936953D01*
X1143660Y1948942D01*
X1128928Y1959406D01*
X1113129Y1968347D01*
X1096568Y1975561D01*
X1079296Y1981098D01*
X1061567Y1984806D01*
X1043584Y1986635D01*
X1025448Y1986635D01*
X1007465Y1984806D01*
X989736Y1981098D01*
X972464Y1975561D01*
X955852Y1968347D01*
X940104Y1959406D01*
X925321Y1948942D01*
X911758Y1936953D01*
X899464Y1923694D01*
X888593Y1909165D01*
X879246Y1893671D01*
X871575Y1877263D01*
X865632Y1860143D01*
X861466Y1842516D01*
X859129Y1824583D01*
X858672Y1806448D01*
X860094Y1788414D01*
X863295Y1770583D01*
X868375Y1753209D01*
X875182Y1736445D01*
X883716Y1720443D01*
X893826Y1705406D01*
X905408Y1691538D01*
X918413Y1678889D01*
X932586Y1667662D01*
X947877Y1657908D01*
X964082Y1649831D01*
X980998Y1643430D01*
X998524Y1638807D01*
X1016406Y1636014D01*
G37*
G36*
X1864461Y1816404D02*
G01*
X1896211Y1816404D01*
X1896211Y1879600D01*
X1837994Y1879600D01*
X1837994Y1842871D01*
X1838706Y1836521D01*
X1840636Y1831086D01*
X1843684Y1826209D01*
X1847799Y1822094D01*
X1852675Y1818995D01*
X1858162Y1817116D01*
G37*
G36*
X1921611Y1816404D02*
G01*
X1953310Y1816404D01*
X1959660Y1817116D01*
X1965096Y1818995D01*
X1970024Y1822094D01*
X1974088Y1826209D01*
X1977186Y1831086D01*
X1979066Y1836521D01*
X1979777Y1842871D01*
X1979777Y1879600D01*
X1921611Y1879600D01*
G37*
G36*
X2034489Y1816404D02*
G01*
X2123338Y1816404D01*
X2129637Y1817116D01*
X2135124Y1818995D01*
X2140000Y1822094D01*
X2144115Y1826209D01*
X2147163Y1831086D01*
X2149094Y1836521D01*
X2149805Y1842871D01*
X2149805Y1941728D01*
X2149094Y1948027D01*
X2147163Y1953514D01*
X2144115Y1958390D01*
X2140000Y1962505D01*
X2135124Y1965604D01*
X2129637Y1967484D01*
X2126538Y1967839D01*
X2122982Y1968906D01*
X2120087Y1971192D01*
X2118156Y1974342D01*
X2117496Y1977948D01*
X2117496Y2017572D01*
X2118156Y2021179D01*
X2120087Y2024329D01*
X2122982Y2026564D01*
X2126538Y2027631D01*
X2129637Y2027986D01*
X2135124Y2029917D01*
X2140000Y2033016D01*
X2144115Y2037080D01*
X2147163Y2042007D01*
X2149094Y2047443D01*
X2149805Y2053793D01*
X2149805Y2162606D01*
X2149094Y2168956D01*
X2147163Y2174392D01*
X2141931Y2182622D01*
X2141169Y2186482D01*
X2141982Y2190343D01*
X2144166Y2193645D01*
X2147468Y2195830D01*
X2151329Y2196592D01*
X2368042Y2196592D01*
X2371902Y2195830D01*
X2375204Y2193594D01*
X2376779Y2192020D01*
X2384806Y2186381D01*
X2393746Y2182266D01*
X2403195Y2179726D01*
X2413000Y2178862D01*
X2422804Y2179726D01*
X2432253Y2182266D01*
X2441194Y2186381D01*
X2449220Y2192020D01*
X2456180Y2198979D01*
X2461818Y2207006D01*
X2465933Y2215946D01*
X2468473Y2225395D01*
X2469337Y2235200D01*
X2468473Y2245004D01*
X2465933Y2254453D01*
X2461818Y2263394D01*
X2456180Y2271420D01*
X2449220Y2278380D01*
X2441194Y2284018D01*
X2432253Y2288133D01*
X2422804Y2290673D01*
X2413000Y2291537D01*
X2403195Y2290673D01*
X2393746Y2288133D01*
X2384806Y2284018D01*
X2376779Y2278380D01*
X2375204Y2276805D01*
X2371902Y2274570D01*
X2367991Y2273808D01*
X2338832Y2273808D01*
X2334514Y2274773D01*
X2331059Y2277414D01*
X2329027Y2281326D01*
X2328824Y2285746D01*
X2330500Y2289810D01*
X2334818Y2295906D01*
X2338933Y2304846D01*
X2341473Y2314295D01*
X2342337Y2324100D01*
X2341473Y2333904D01*
X2338933Y2343353D01*
X2334818Y2352294D01*
X2329180Y2360320D01*
X2322220Y2367280D01*
X2314194Y2372918D01*
X2305253Y2377033D01*
X2295804Y2379573D01*
X2286000Y2380437D01*
X2276195Y2379573D01*
X2266746Y2377033D01*
X2257806Y2372918D01*
X2249779Y2367280D01*
X2248204Y2365705D01*
X2244902Y2363470D01*
X2240991Y2362708D01*
X2119274Y2362708D01*
X2115616Y2363368D01*
X2112518Y2365298D01*
X2110232Y2368194D01*
X2109114Y2372258D01*
X2107184Y2377694D01*
X2104136Y2382621D01*
X2100021Y2386685D01*
X2095144Y2389784D01*
X2089657Y2391714D01*
X2083358Y2392426D01*
X2014474Y2392426D01*
X2008174Y2391714D01*
X2002688Y2389784D01*
X1999335Y2387650D01*
X1995779Y2386279D01*
X1992020Y2386279D01*
X1988515Y2387650D01*
X1985111Y2389784D01*
X1979675Y2391714D01*
X1973325Y2392426D01*
X1904492Y2392426D01*
X1898142Y2391714D01*
X1892706Y2389784D01*
X1887778Y2386685D01*
X1883714Y2382621D01*
X1880616Y2377694D01*
X1878736Y2372258D01*
X1878025Y2365908D01*
X1878025Y2277059D01*
X1878736Y2270760D01*
X1880616Y2265273D01*
X1883714Y2260396D01*
X1887778Y2256282D01*
X1892706Y2253234D01*
X1898142Y2251303D01*
X1904492Y2250592D01*
X1919681Y2250592D01*
X1923592Y2249830D01*
X1926894Y2247595D01*
X1966264Y2208276D01*
X1967636Y2207107D01*
X1970227Y2203907D01*
X1971293Y2199944D01*
X1970735Y2195830D01*
X1968601Y2192324D01*
X1965198Y2189937D01*
X1961184Y2189124D01*
X1864461Y2189124D01*
X1858162Y2188413D01*
X1852675Y2186482D01*
X1847799Y2183384D01*
X1843684Y2179320D01*
X1840636Y2174392D01*
X1838706Y2168956D01*
X1837994Y2162606D01*
X1837994Y2156968D01*
X1837232Y2153107D01*
X1834997Y2149805D01*
X1831746Y2147570D01*
X1827834Y2146808D01*
X1705508Y2146808D01*
X1701647Y2147570D01*
X1698345Y2149805D01*
X1604162Y2243937D01*
X1602079Y2246985D01*
X1601216Y2250541D01*
X1601622Y2254148D01*
X1604822Y2264359D01*
X1607058Y2277770D01*
X1607515Y2291435D01*
X1606143Y2304999D01*
X1602994Y2318258D01*
X1598117Y2330958D01*
X1591564Y2342946D01*
X1583436Y2353919D01*
X1573987Y2363724D01*
X1563268Y2372156D01*
X1551533Y2379116D01*
X1538986Y2384450D01*
X1525828Y2388057D01*
X1512316Y2389886D01*
X1498701Y2389886D01*
X1485188Y2388057D01*
X1472031Y2384450D01*
X1459484Y2379116D01*
X1447749Y2372156D01*
X1437030Y2363724D01*
X1427530Y2353919D01*
X1419453Y2342946D01*
X1414424Y2333752D01*
X1411579Y2330500D01*
X1407668Y2328672D01*
X1403350Y2328672D01*
X1399438Y2330500D01*
X1396593Y2333752D01*
X1391564Y2342946D01*
X1383436Y2353919D01*
X1373987Y2363724D01*
X1363268Y2372156D01*
X1351534Y2379116D01*
X1338986Y2384450D01*
X1325829Y2388057D01*
X1318209Y2389073D01*
X1318209Y2300732D01*
X1393342Y2300732D01*
X1397152Y2299970D01*
X1400403Y2297836D01*
X1402638Y2294686D01*
X1403502Y2290876D01*
X1403654Y2285796D01*
X1402994Y2281834D01*
X1400810Y2278430D01*
X1397457Y2276094D01*
X1393494Y2275332D01*
X1318209Y2275332D01*
X1318209Y2186787D01*
X1332484Y2189530D01*
X1345336Y2194001D01*
X1357528Y2200198D01*
X1368755Y2207869D01*
X1378864Y2217064D01*
X1387703Y2227478D01*
X1395018Y2238959D01*
X1396288Y2241651D01*
X1398524Y2244750D01*
X1401724Y2246833D01*
X1405483Y2247544D01*
X1409242Y2246833D01*
X1412494Y2244750D01*
X1414729Y2241651D01*
X1415999Y2238959D01*
X1423314Y2227478D01*
X1432102Y2217064D01*
X1442212Y2207869D01*
X1453489Y2200198D01*
X1465630Y2194001D01*
X1478534Y2189530D01*
X1491894Y2186838D01*
X1505508Y2185924D01*
X1519123Y2186838D01*
X1532483Y2189530D01*
X1538986Y2191816D01*
X1542745Y2192375D01*
X1546402Y2191512D01*
X1549501Y2189429D01*
X1657654Y2081275D01*
X1663903Y2076145D01*
X1670557Y2072589D01*
X1677771Y2070404D01*
X1685798Y2069592D01*
X1827834Y2069592D01*
X1831746Y2068830D01*
X1834997Y2066645D01*
X1837232Y2063343D01*
X1837994Y2059432D01*
X1837994Y2053793D01*
X1838706Y2047443D01*
X1840636Y2042007D01*
X1843684Y2037080D01*
X1847799Y2033016D01*
X1852675Y2029917D01*
X1858162Y2027986D01*
X1864461Y2027275D01*
X1963318Y2027275D01*
X1969668Y2027986D01*
X1975104Y2029917D01*
X1980031Y2033016D01*
X1984095Y2037080D01*
X1985314Y2038959D01*
X1988108Y2041906D01*
X1991868Y2043531D01*
X1995932Y2043531D01*
X1999691Y2041906D01*
X2002485Y2038959D01*
X2003704Y2037080D01*
X2007768Y2033016D01*
X2012696Y2029917D01*
X2018131Y2027986D01*
X2024481Y2027275D01*
X2030120Y2027275D01*
X2034032Y2026513D01*
X2037334Y2024329D01*
X2039518Y2021027D01*
X2040280Y2017115D01*
X2040280Y1977948D01*
X2039620Y1974342D01*
X2037689Y1971192D01*
X2034793Y1968906D01*
X2031238Y1967839D01*
X2028139Y1967484D01*
X2022703Y1965604D01*
X2017775Y1962505D01*
X2013712Y1958390D01*
X2010613Y1953514D01*
X2008682Y1948027D01*
X2007971Y1941728D01*
X2007971Y1842871D01*
X2008682Y1836521D01*
X2010613Y1831086D01*
X2013712Y1826209D01*
X2017775Y1822094D01*
X2022703Y1818995D01*
X2028139Y1817116D01*
G37*
G36*
X1921611Y1905000D02*
G01*
X1979777Y1905000D01*
X1979777Y1941728D01*
X1979066Y1948027D01*
X1977186Y1953514D01*
X1974088Y1958390D01*
X1970024Y1962505D01*
X1965096Y1965604D01*
X1959660Y1967484D01*
X1953310Y1968195D01*
X1921611Y1968195D01*
G37*
G36*
X1837994Y1905000D02*
G01*
X1896211Y1905000D01*
X1896211Y1968195D01*
X1864461Y1968195D01*
X1858162Y1967484D01*
X1852675Y1965604D01*
X1847799Y1962505D01*
X1843684Y1958390D01*
X1840636Y1953514D01*
X1838706Y1948027D01*
X1837994Y1941728D01*
G37*
G36*
X3078276Y1961083D02*
G01*
X3104997Y1961083D01*
X3104997Y2019300D01*
X3051810Y2019300D01*
X3051810Y1987550D01*
X3052521Y1981250D01*
X3054400Y1975764D01*
X3057499Y1970887D01*
X3061614Y1966772D01*
X3066491Y1963724D01*
X3071977Y1961794D01*
G37*
G36*
X3130397Y1961083D02*
G01*
X3157118Y1961083D01*
X3163468Y1961794D01*
X3168904Y1963724D01*
X3173831Y1966772D01*
X3177895Y1970887D01*
X3179114Y1972767D01*
X3181908Y1975713D01*
X3185668Y1977339D01*
X3189732Y1977339D01*
X3193491Y1975713D01*
X3196285Y1972767D01*
X3197504Y1970887D01*
X3201568Y1966772D01*
X3206496Y1963724D01*
X3211931Y1961794D01*
X3218281Y1961083D01*
X3297123Y1961083D01*
X3303422Y1961794D01*
X3308908Y1963724D01*
X3313785Y1966772D01*
X3317900Y1970887D01*
X3321304Y1976323D01*
X3323590Y1978863D01*
X3326587Y1980539D01*
X3329940Y1981098D01*
X3403092Y1981098D01*
X3407410Y1980133D01*
X3409746Y1979066D01*
X3419195Y1976526D01*
X3429000Y1975662D01*
X3438804Y1976526D01*
X3448253Y1979066D01*
X3450590Y1980133D01*
X3454908Y1981098D01*
X5054092Y1981098D01*
X5058410Y1980133D01*
X5060746Y1979066D01*
X5070195Y1976526D01*
X5080000Y1975662D01*
X5089804Y1976526D01*
X5099253Y1979066D01*
X5108194Y1983181D01*
X5116220Y1988820D01*
X5123180Y1995779D01*
X5128818Y2003806D01*
X5132933Y2012746D01*
X5135473Y2022195D01*
X5136337Y2032000D01*
X5135473Y2041804D01*
X5132933Y2051253D01*
X5128818Y2060193D01*
X5123180Y2068220D01*
X5116220Y2075180D01*
X5108194Y2080818D01*
X5099253Y2084933D01*
X5089804Y2087473D01*
X5080000Y2088337D01*
X5070195Y2087473D01*
X5060746Y2084933D01*
X5058410Y2083866D01*
X5054092Y2082901D01*
X3454908Y2082901D01*
X3450640Y2083866D01*
X3448253Y2084933D01*
X3438804Y2087473D01*
X3429000Y2088337D01*
X3419195Y2087473D01*
X3409746Y2084933D01*
X3407359Y2083866D01*
X3403092Y2082901D01*
X3329940Y2082901D01*
X3326587Y2083460D01*
X3323590Y2085136D01*
X3321304Y2087676D01*
X3317900Y2093112D01*
X3313785Y2097227D01*
X3308908Y2100275D01*
X3303422Y2102205D01*
X3297123Y2102916D01*
X3218281Y2102916D01*
X3211931Y2102205D01*
X3206496Y2100275D01*
X3201568Y2097227D01*
X3197504Y2093112D01*
X3196285Y2091232D01*
X3193491Y2088286D01*
X3189732Y2086711D01*
X3185668Y2086711D01*
X3181908Y2088286D01*
X3179114Y2091232D01*
X3177895Y2093112D01*
X3173831Y2097227D01*
X3168904Y2100275D01*
X3163468Y2102205D01*
X3157118Y2102916D01*
X3130397Y2102916D01*
X3130397Y2044700D01*
X3181604Y2044700D01*
X3185515Y2043938D01*
X3188817Y2041702D01*
X3191002Y2038451D01*
X3191764Y2034539D01*
X3191764Y2029460D01*
X3191002Y2025599D01*
X3188817Y2022297D01*
X3185515Y2020062D01*
X3181604Y2019300D01*
X3130397Y2019300D01*
G37*
G36*
X3051810Y2044700D02*
G01*
X3104997Y2044700D01*
X3104997Y2102916D01*
X3078276Y2102916D01*
X3071977Y2102205D01*
X3066491Y2100275D01*
X3061614Y2097227D01*
X3057499Y2093112D01*
X3054400Y2088235D01*
X3052521Y2082749D01*
X3051810Y2076450D01*
G37*
G36*
X2588361Y2128875D02*
G01*
X2625090Y2128875D01*
X2625090Y2197100D01*
X2561894Y2197100D01*
X2561894Y2155393D01*
X2562606Y2149043D01*
X2564536Y2143607D01*
X2567584Y2138680D01*
X2571699Y2134616D01*
X2576576Y2131517D01*
X2582062Y2129586D01*
G37*
G36*
X2650490Y2128875D02*
G01*
X2687218Y2128875D01*
X2693568Y2129586D01*
X2699004Y2131517D01*
X2703931Y2134616D01*
X2707995Y2138680D01*
X2709214Y2140559D01*
X2712008Y2143506D01*
X2715768Y2145131D01*
X2719832Y2145131D01*
X2723591Y2143506D01*
X2726385Y2140559D01*
X2727604Y2138680D01*
X2731668Y2134616D01*
X2736596Y2131517D01*
X2742031Y2129586D01*
X2748381Y2128875D01*
X2847238Y2128875D01*
X2853537Y2129586D01*
X2859024Y2131517D01*
X2863900Y2134616D01*
X2868015Y2138680D01*
X2871063Y2143607D01*
X2872994Y2149043D01*
X2873705Y2155393D01*
X2873705Y2161032D01*
X2874467Y2164943D01*
X2876702Y2168245D01*
X2879953Y2170430D01*
X2883865Y2171192D01*
X2950413Y2171192D01*
X2954274Y2170430D01*
X2957576Y2168194D01*
X2958795Y2167026D01*
X2966770Y2161438D01*
X2975610Y2157323D01*
X2985008Y2154783D01*
X2995168Y2153869D01*
X3086252Y2153869D01*
X3096412Y2154783D01*
X3105810Y2157323D01*
X3114649Y2161438D01*
X3122625Y2167026D01*
X3129483Y2173884D01*
X3135071Y2181860D01*
X3139186Y2190699D01*
X3141726Y2200097D01*
X3142589Y2209800D01*
X3141726Y2219502D01*
X3139186Y2228900D01*
X3135071Y2237740D01*
X3129483Y2245715D01*
X3122625Y2252624D01*
X3114649Y2258161D01*
X3105810Y2262327D01*
X3101390Y2263495D01*
X3097479Y2265527D01*
X3094786Y2269032D01*
X3093872Y2273300D01*
X3094786Y2277618D01*
X3097479Y2281072D01*
X3101390Y2283104D01*
X3105810Y2284323D01*
X3114649Y2288438D01*
X3122625Y2294026D01*
X3129483Y2300884D01*
X3135071Y2308860D01*
X3139186Y2317699D01*
X3140913Y2324100D01*
X3053384Y2324100D01*
X3053384Y2275890D01*
X3052622Y2271979D01*
X3050438Y2268677D01*
X3047136Y2266492D01*
X3043224Y2265730D01*
X3038144Y2265730D01*
X3034284Y2266492D01*
X3030982Y2268677D01*
X3028797Y2271979D01*
X3027984Y2275890D01*
X3027984Y2324100D01*
X2940507Y2324100D01*
X2942183Y2317699D01*
X2946298Y2308860D01*
X2951886Y2300884D01*
X2958795Y2294026D01*
X2966770Y2288438D01*
X2975610Y2284323D01*
X2980029Y2283104D01*
X2983941Y2281072D01*
X2986582Y2277618D01*
X2987548Y2273300D01*
X2986582Y2269032D01*
X2983941Y2265527D01*
X2980029Y2263495D01*
X2975610Y2262327D01*
X2966770Y2258161D01*
X2958795Y2252624D01*
X2957576Y2251405D01*
X2954274Y2249170D01*
X2950413Y2248408D01*
X2883865Y2248408D01*
X2879953Y2249170D01*
X2876702Y2251405D01*
X2874467Y2254707D01*
X2873705Y2258568D01*
X2873705Y2264206D01*
X2872994Y2270556D01*
X2871063Y2275992D01*
X2868015Y2280920D01*
X2863900Y2284984D01*
X2859024Y2288082D01*
X2853537Y2290013D01*
X2847238Y2290724D01*
X2748381Y2290724D01*
X2742031Y2290013D01*
X2736596Y2288082D01*
X2731668Y2284984D01*
X2727604Y2280920D01*
X2726385Y2279040D01*
X2723591Y2276094D01*
X2719832Y2274468D01*
X2715768Y2274468D01*
X2712008Y2276094D01*
X2709214Y2279040D01*
X2707995Y2280920D01*
X2703931Y2284984D01*
X2699004Y2288082D01*
X2693568Y2290013D01*
X2687218Y2290724D01*
X2650490Y2290724D01*
X2650490Y2222500D01*
X2711704Y2222500D01*
X2715615Y2221738D01*
X2718917Y2219502D01*
X2721102Y2216251D01*
X2721864Y2212340D01*
X2721864Y2207260D01*
X2721102Y2203399D01*
X2718917Y2200097D01*
X2715615Y2197862D01*
X2711704Y2197100D01*
X2650490Y2197100D01*
G37*
G36*
X3543147Y2153869D02*
G01*
X3634232Y2153869D01*
X3644392Y2154783D01*
X3653790Y2157323D01*
X3662629Y2161438D01*
X3670604Y2167026D01*
X3677513Y2173884D01*
X3683101Y2181860D01*
X3687216Y2190699D01*
X3689705Y2200097D01*
X3690569Y2209800D01*
X3689705Y2219502D01*
X3687216Y2228900D01*
X3683101Y2237740D01*
X3677513Y2245715D01*
X3670604Y2252624D01*
X3662629Y2258161D01*
X3653790Y2262327D01*
X3649370Y2263495D01*
X3645458Y2265527D01*
X3642817Y2269032D01*
X3641851Y2273300D01*
X3642817Y2277618D01*
X3645458Y2281072D01*
X3649370Y2283104D01*
X3655161Y2284933D01*
X3659479Y2285898D01*
X3720592Y2285898D01*
X3724859Y2284933D01*
X3727246Y2283866D01*
X3736695Y2281326D01*
X3746500Y2280462D01*
X3756304Y2281326D01*
X3765753Y2283866D01*
X3774694Y2287981D01*
X3782720Y2293620D01*
X3789679Y2300579D01*
X3795318Y2308606D01*
X3799433Y2317546D01*
X3801973Y2326995D01*
X3802837Y2336800D01*
X3801973Y2346604D01*
X3799433Y2356053D01*
X3795318Y2364994D01*
X3789679Y2373020D01*
X3782720Y2379980D01*
X3774694Y2385618D01*
X3765753Y2389733D01*
X3756304Y2392273D01*
X3746500Y2393137D01*
X3736695Y2392273D01*
X3727246Y2389733D01*
X3724910Y2388666D01*
X3720592Y2387701D01*
X3659479Y2387701D01*
X3655161Y2388666D01*
X3649370Y2390495D01*
X3645458Y2392527D01*
X3642817Y2396032D01*
X3641851Y2400300D01*
X3642817Y2404618D01*
X3645458Y2408072D01*
X3649370Y2410104D01*
X3653790Y2411323D01*
X3662629Y2415438D01*
X3670604Y2421026D01*
X3677513Y2427884D01*
X3683101Y2435860D01*
X3687216Y2444699D01*
X3689705Y2454097D01*
X3690569Y2463800D01*
X3689705Y2473502D01*
X3687216Y2482900D01*
X3683101Y2491740D01*
X3677513Y2499715D01*
X3670604Y2506624D01*
X3662629Y2512161D01*
X3653790Y2516327D01*
X3649370Y2517495D01*
X3645458Y2519527D01*
X3642817Y2523032D01*
X3641851Y2527300D01*
X3642817Y2531618D01*
X3645458Y2535072D01*
X3649370Y2537104D01*
X3655161Y2538933D01*
X3659479Y2539898D01*
X3720592Y2539898D01*
X3724859Y2538933D01*
X3727246Y2537866D01*
X3736695Y2535326D01*
X3746500Y2534462D01*
X3756304Y2535326D01*
X3765753Y2537866D01*
X3774694Y2541981D01*
X3782720Y2547620D01*
X3789679Y2554579D01*
X3795318Y2562606D01*
X3799433Y2571546D01*
X3801973Y2580995D01*
X3802837Y2590800D01*
X3801973Y2600604D01*
X3799433Y2610053D01*
X3795318Y2618994D01*
X3789679Y2627020D01*
X3782720Y2633980D01*
X3774694Y2639618D01*
X3765753Y2643733D01*
X3756304Y2646273D01*
X3746500Y2647137D01*
X3736695Y2646273D01*
X3727246Y2643733D01*
X3724910Y2642666D01*
X3720592Y2641701D01*
X3659479Y2641701D01*
X3655161Y2642666D01*
X3653790Y2643327D01*
X3644392Y2645816D01*
X3634232Y2646730D01*
X3543147Y2646730D01*
X3532987Y2645816D01*
X3523589Y2643327D01*
X3514750Y2639161D01*
X3506774Y2633624D01*
X3499916Y2626715D01*
X3494328Y2618740D01*
X3490214Y2609900D01*
X3487674Y2600502D01*
X3486810Y2590800D01*
X3487674Y2581097D01*
X3490214Y2571699D01*
X3494328Y2562860D01*
X3499916Y2554884D01*
X3506774Y2548026D01*
X3514750Y2542438D01*
X3523589Y2538323D01*
X3528009Y2537104D01*
X3531920Y2535072D01*
X3534613Y2531618D01*
X3535527Y2527300D01*
X3534613Y2523032D01*
X3531920Y2519527D01*
X3528009Y2517495D01*
X3522218Y2515666D01*
X3517900Y2514701D01*
X3454908Y2514701D01*
X3450640Y2515666D01*
X3448253Y2516733D01*
X3438804Y2519273D01*
X3429000Y2520137D01*
X3419195Y2519273D01*
X3409746Y2516733D01*
X3400806Y2512618D01*
X3392779Y2506980D01*
X3385820Y2500020D01*
X3380181Y2491994D01*
X3376066Y2483053D01*
X3373526Y2473604D01*
X3372662Y2463800D01*
X3373526Y2453995D01*
X3376066Y2444546D01*
X3380181Y2435606D01*
X3385820Y2427579D01*
X3392779Y2420620D01*
X3400806Y2414981D01*
X3409746Y2410866D01*
X3419195Y2408326D01*
X3429000Y2407462D01*
X3438804Y2408326D01*
X3448253Y2410866D01*
X3450590Y2411933D01*
X3454908Y2412898D01*
X3517950Y2412898D01*
X3522218Y2411933D01*
X3528009Y2410104D01*
X3531920Y2408072D01*
X3534613Y2404618D01*
X3535527Y2400300D01*
X3534613Y2396032D01*
X3531920Y2392527D01*
X3528009Y2390495D01*
X3523589Y2389327D01*
X3514750Y2385161D01*
X3506774Y2379624D01*
X3499916Y2372715D01*
X3494328Y2364740D01*
X3490214Y2355900D01*
X3487674Y2346502D01*
X3486810Y2336800D01*
X3487674Y2327097D01*
X3490214Y2317699D01*
X3494328Y2308860D01*
X3499916Y2300884D01*
X3506774Y2294026D01*
X3514750Y2288438D01*
X3523589Y2284323D01*
X3528009Y2283104D01*
X3531920Y2281072D01*
X3534613Y2277618D01*
X3535527Y2273300D01*
X3534613Y2269032D01*
X3531920Y2265527D01*
X3528009Y2263495D01*
X3523589Y2262327D01*
X3514750Y2258161D01*
X3506774Y2252624D01*
X3499916Y2245715D01*
X3494328Y2237740D01*
X3490214Y2228900D01*
X3487674Y2219502D01*
X3486810Y2209800D01*
X3487674Y2200097D01*
X3490214Y2190699D01*
X3494328Y2181860D01*
X3499916Y2173884D01*
X3506774Y2167026D01*
X3514750Y2161438D01*
X3523589Y2157323D01*
X3532987Y2154783D01*
G37*
G36*
X1292809Y2186787D02*
G01*
X1292809Y2275332D01*
X1204366Y2275332D01*
X1206195Y2264359D01*
X1210259Y2251303D01*
X1215999Y2238959D01*
X1223314Y2227478D01*
X1232103Y2217064D01*
X1242212Y2207869D01*
X1253490Y2200198D01*
X1265631Y2194001D01*
X1278534Y2189530D01*
G37*
G36*
X2561894Y2222500D02*
G01*
X2625090Y2222500D01*
X2625090Y2290724D01*
X2588361Y2290724D01*
X2582062Y2290013D01*
X2576576Y2288082D01*
X2571699Y2284984D01*
X2567584Y2280920D01*
X2564536Y2275992D01*
X2562606Y2270556D01*
X2561894Y2264206D01*
G37*
G36*
X4047083Y2267762D02*
G01*
X4056887Y2268626D01*
X4066336Y2271166D01*
X4075277Y2275281D01*
X4083304Y2280920D01*
X4090263Y2287879D01*
X4093768Y2292908D01*
X4096562Y2295601D01*
X4100169Y2297023D01*
X4104030Y2297023D01*
X4107637Y2295601D01*
X4110431Y2292908D01*
X4113936Y2287879D01*
X4120845Y2280920D01*
X4128922Y2275281D01*
X4137812Y2271166D01*
X4147312Y2268626D01*
X4157116Y2267762D01*
X4166870Y2268626D01*
X4176369Y2271166D01*
X4185259Y2275281D01*
X4193336Y2280920D01*
X4194962Y2282545D01*
X4198213Y2284780D01*
X4202125Y2285542D01*
X5034940Y2285542D01*
X5038852Y2284780D01*
X5042154Y2282545D01*
X5043779Y2280920D01*
X5051806Y2275281D01*
X5060746Y2271166D01*
X5070195Y2268626D01*
X5080000Y2267762D01*
X5089804Y2268626D01*
X5099253Y2271166D01*
X5108194Y2275281D01*
X5116220Y2280920D01*
X5123180Y2287879D01*
X5128818Y2295906D01*
X5132933Y2304846D01*
X5135473Y2314295D01*
X5136337Y2324100D01*
X5135473Y2333904D01*
X5132933Y2343353D01*
X5128818Y2352294D01*
X5123180Y2360320D01*
X5116220Y2367280D01*
X5108194Y2372918D01*
X5099253Y2377033D01*
X5089804Y2379573D01*
X5080000Y2380437D01*
X5070195Y2379573D01*
X5060746Y2377033D01*
X5051806Y2372918D01*
X5043779Y2367280D01*
X5042255Y2365756D01*
X5038953Y2363520D01*
X5035042Y2362758D01*
X4227576Y2362758D01*
X4223461Y2363622D01*
X4220006Y2366162D01*
X4217924Y2369820D01*
X4217517Y2374036D01*
X4218025Y2378659D01*
X4218025Y2467508D01*
X4217314Y2473858D01*
X4215384Y2479294D01*
X4212336Y2484221D01*
X4208221Y2488285D01*
X4203344Y2491384D01*
X4197858Y2493314D01*
X4191558Y2494026D01*
X4122674Y2494026D01*
X4116374Y2493314D01*
X4110888Y2491384D01*
X4107535Y2489250D01*
X4103979Y2487879D01*
X4100220Y2487879D01*
X4096715Y2489250D01*
X4093311Y2491384D01*
X4087876Y2493314D01*
X4081526Y2494026D01*
X4012692Y2494026D01*
X4006342Y2493314D01*
X4000906Y2491384D01*
X3995978Y2488285D01*
X3991914Y2484221D01*
X3988815Y2479294D01*
X3986936Y2473858D01*
X3986225Y2467508D01*
X3986225Y2378659D01*
X3986936Y2372360D01*
X3988815Y2366873D01*
X3991914Y2361996D01*
X3994302Y2359558D01*
X3996588Y2356154D01*
X3997299Y2352090D01*
X3996334Y2348077D01*
X3994150Y2343353D01*
X3991610Y2333904D01*
X3990746Y2324100D01*
X3991610Y2314295D01*
X3994150Y2304846D01*
X3998264Y2295906D01*
X4003903Y2287879D01*
X4010863Y2280920D01*
X4018889Y2275281D01*
X4027830Y2271166D01*
X4037279Y2268626D01*
G37*
G36*
X1204417Y2300732D02*
G01*
X1292809Y2300732D01*
X1292809Y2389073D01*
X1285189Y2388057D01*
X1272032Y2384450D01*
X1259484Y2379116D01*
X1247749Y2372156D01*
X1237030Y2363724D01*
X1227531Y2353919D01*
X1219454Y2342946D01*
X1212900Y2330958D01*
X1208024Y2318258D01*
X1204823Y2304999D01*
G37*
G36*
X2940507Y2349500D02*
G01*
X3027984Y2349500D01*
X3027984Y2397709D01*
X3028797Y2401620D01*
X3030982Y2404922D01*
X3034284Y2407107D01*
X3038144Y2407869D01*
X3043224Y2407869D01*
X3047136Y2407107D01*
X3050438Y2404922D01*
X3052622Y2401620D01*
X3053384Y2397709D01*
X3053384Y2349500D01*
X3140913Y2349500D01*
X3139186Y2355900D01*
X3135071Y2364740D01*
X3129483Y2372715D01*
X3122625Y2379624D01*
X3114649Y2385161D01*
X3105810Y2389327D01*
X3101390Y2390495D01*
X3097479Y2392527D01*
X3094786Y2396032D01*
X3093872Y2400300D01*
X3094786Y2404618D01*
X3097479Y2408072D01*
X3101390Y2410104D01*
X3105810Y2411323D01*
X3114649Y2415438D01*
X3122625Y2421026D01*
X3129483Y2427884D01*
X3135071Y2435860D01*
X3139186Y2444699D01*
X3141726Y2454097D01*
X3142589Y2463800D01*
X3141726Y2473502D01*
X3139186Y2482900D01*
X3135071Y2491740D01*
X3129483Y2499715D01*
X3122625Y2506624D01*
X3114649Y2512161D01*
X3105810Y2516327D01*
X3101390Y2517495D01*
X3097479Y2519527D01*
X3094786Y2523032D01*
X3093872Y2527300D01*
X3094786Y2531618D01*
X3097479Y2535072D01*
X3101390Y2537104D01*
X3105810Y2538323D01*
X3114649Y2542438D01*
X3122625Y2548026D01*
X3123844Y2549194D01*
X3127146Y2551430D01*
X3131007Y2552192D01*
X3256991Y2552192D01*
X3260902Y2551430D01*
X3264204Y2549194D01*
X3265779Y2547620D01*
X3273806Y2541981D01*
X3282746Y2537866D01*
X3292195Y2535326D01*
X3302000Y2534462D01*
X3311804Y2535326D01*
X3321253Y2537866D01*
X3330194Y2541981D01*
X3338220Y2547620D01*
X3345179Y2554579D01*
X3350818Y2562606D01*
X3354933Y2571546D01*
X3357473Y2580995D01*
X3358337Y2590800D01*
X3357473Y2600604D01*
X3354933Y2610053D01*
X3350818Y2618994D01*
X3345179Y2627020D01*
X3338220Y2633980D01*
X3330194Y2639618D01*
X3321253Y2643733D01*
X3311804Y2646273D01*
X3302000Y2647137D01*
X3292195Y2646273D01*
X3282746Y2643733D01*
X3273806Y2639618D01*
X3265779Y2633980D01*
X3264204Y2632405D01*
X3260902Y2630170D01*
X3256991Y2629408D01*
X3131007Y2629408D01*
X3127146Y2630170D01*
X3123844Y2632405D01*
X3122625Y2633624D01*
X3114649Y2639161D01*
X3105810Y2643327D01*
X3096412Y2645816D01*
X3086252Y2646730D01*
X2995168Y2646730D01*
X2985008Y2645816D01*
X2975610Y2643327D01*
X2966770Y2639161D01*
X2958795Y2633624D01*
X2951886Y2626715D01*
X2946298Y2618740D01*
X2942183Y2609900D01*
X2939694Y2600502D01*
X2938830Y2590800D01*
X2939694Y2581097D01*
X2942183Y2571699D01*
X2946298Y2562860D01*
X2951886Y2554884D01*
X2958795Y2548026D01*
X2966770Y2542438D01*
X2975610Y2538323D01*
X2980029Y2537104D01*
X2983941Y2535072D01*
X2986582Y2531618D01*
X2987548Y2527300D01*
X2986582Y2523032D01*
X2983941Y2519527D01*
X2980029Y2517495D01*
X2975610Y2516327D01*
X2966770Y2512161D01*
X2958795Y2506624D01*
X2951886Y2499715D01*
X2946298Y2491740D01*
X2942183Y2482900D01*
X2939694Y2473502D01*
X2938830Y2463800D01*
X2939694Y2454097D01*
X2942183Y2444699D01*
X2946298Y2435860D01*
X2951886Y2427884D01*
X2958795Y2421026D01*
X2966770Y2415438D01*
X2975610Y2411323D01*
X2980029Y2410104D01*
X2983941Y2408072D01*
X2986582Y2404618D01*
X2987548Y2400300D01*
X2986582Y2396032D01*
X2983941Y2392527D01*
X2980029Y2390495D01*
X2975610Y2389327D01*
X2966770Y2385161D01*
X2958795Y2379624D01*
X2951886Y2372715D01*
X2946298Y2364740D01*
X2942183Y2355900D01*
G37*
G36*
X1904492Y2433574D02*
G01*
X1926234Y2433574D01*
X1926234Y2491790D01*
X1878025Y2491790D01*
X1878025Y2460091D01*
X1878736Y2453741D01*
X1880616Y2448306D01*
X1883714Y2443378D01*
X1887778Y2439314D01*
X1892706Y2436215D01*
X1898142Y2434285D01*
G37*
G36*
X1951634Y2433574D02*
G01*
X1973325Y2433574D01*
X1979675Y2434285D01*
X1985111Y2436215D01*
X1988515Y2438349D01*
X1992020Y2439720D01*
X1995779Y2439720D01*
X1999335Y2438349D01*
X2002688Y2436215D01*
X2008174Y2434285D01*
X2014474Y2433574D01*
X2083358Y2433574D01*
X2089657Y2434285D01*
X2095144Y2436215D01*
X2100021Y2439314D01*
X2104136Y2443378D01*
X2107184Y2448306D01*
X2109470Y2454808D01*
X2111349Y2458059D01*
X2114245Y2460396D01*
X2117750Y2461564D01*
X2121458Y2461361D01*
X2124862Y2459837D01*
X2130806Y2455722D01*
X2139746Y2451557D01*
X2149195Y2449017D01*
X2159000Y2448153D01*
X2168804Y2449017D01*
X2178253Y2451557D01*
X2187194Y2455672D01*
X2195220Y2461310D01*
X2202180Y2468270D01*
X2207818Y2476296D01*
X2211933Y2485237D01*
X2214473Y2494686D01*
X2215337Y2504490D01*
X2214473Y2514295D01*
X2211933Y2523744D01*
X2207818Y2532684D01*
X2202180Y2540711D01*
X2195220Y2547670D01*
X2187194Y2553309D01*
X2178253Y2557424D01*
X2168804Y2559964D01*
X2159000Y2560828D01*
X2149195Y2559964D01*
X2139746Y2557424D01*
X2130806Y2553309D01*
X2124913Y2549144D01*
X2121509Y2547620D01*
X2117801Y2547416D01*
X2114245Y2548534D01*
X2111349Y2550871D01*
X2109470Y2554122D01*
X2107184Y2560726D01*
X2104136Y2565603D01*
X2100021Y2569718D01*
X2095144Y2572766D01*
X2089657Y2574696D01*
X2083358Y2575407D01*
X2014474Y2575407D01*
X2008174Y2574696D01*
X2002688Y2572766D01*
X1999335Y2570683D01*
X1995779Y2569260D01*
X1992020Y2569260D01*
X1988515Y2570683D01*
X1985111Y2572766D01*
X1979675Y2574696D01*
X1973325Y2575407D01*
X1951634Y2575407D01*
X1951634Y2517190D01*
X1977847Y2517190D01*
X1981758Y2516428D01*
X1985010Y2514244D01*
X1987245Y2510942D01*
X1988007Y2507030D01*
X1988007Y2501950D01*
X1987245Y2498090D01*
X1985010Y2494788D01*
X1981758Y2492552D01*
X1977847Y2491790D01*
X1951634Y2491790D01*
G37*
G36*
X1305509Y2435910D02*
G01*
X1319123Y2436825D01*
X1332484Y2439517D01*
X1345336Y2443988D01*
X1357528Y2450185D01*
X1368755Y2457856D01*
X1378864Y2467051D01*
X1387703Y2477465D01*
X1395018Y2488946D01*
X1396288Y2491638D01*
X1398524Y2494737D01*
X1401724Y2496820D01*
X1405483Y2497531D01*
X1409242Y2496820D01*
X1412494Y2494737D01*
X1414729Y2491638D01*
X1415999Y2488946D01*
X1423314Y2477465D01*
X1432102Y2467051D01*
X1442212Y2457856D01*
X1453489Y2450185D01*
X1465630Y2443988D01*
X1478534Y2439517D01*
X1491894Y2436825D01*
X1505508Y2435910D01*
X1519123Y2436825D01*
X1532483Y2439517D01*
X1545336Y2443988D01*
X1557528Y2450185D01*
X1568754Y2457856D01*
X1578864Y2467051D01*
X1587703Y2477465D01*
X1595018Y2488946D01*
X1600758Y2501290D01*
X1604822Y2514346D01*
X1607058Y2527757D01*
X1607515Y2541422D01*
X1606143Y2554986D01*
X1602994Y2568244D01*
X1598117Y2580944D01*
X1591564Y2592933D01*
X1583436Y2603906D01*
X1573987Y2613710D01*
X1563268Y2622143D01*
X1551533Y2629103D01*
X1538986Y2634437D01*
X1525828Y2638044D01*
X1512316Y2639872D01*
X1498701Y2639872D01*
X1485188Y2638044D01*
X1472031Y2634437D01*
X1460144Y2629408D01*
X1456232Y2628595D01*
X1452321Y2629357D01*
X1448968Y2631541D01*
X1400505Y2680055D01*
X1398270Y2683357D01*
X1397508Y2687269D01*
X1397508Y3167532D01*
X1398270Y3171444D01*
X1400505Y3174746D01*
X1411020Y3185261D01*
X1414322Y3187496D01*
X1418234Y3188258D01*
X2815742Y3188258D01*
X2819095Y3187700D01*
X2822244Y3186582D01*
X2828544Y3185871D01*
X2868625Y3185871D01*
X2872638Y3185058D01*
X2876042Y3182620D01*
X2878175Y3179064D01*
X2880207Y3173272D01*
X2883306Y3168396D01*
X2887370Y3164281D01*
X2892298Y3161233D01*
X2897733Y3159302D01*
X2904083Y3158591D01*
X2908300Y3158591D01*
X2908300Y3196082D01*
X2908858Y3199485D01*
X2911398Y3206699D01*
X2913583Y3210255D01*
X2916936Y3212642D01*
X2921000Y3213455D01*
X2925064Y3212642D01*
X2928467Y3210255D01*
X2930601Y3206699D01*
X2933141Y3199485D01*
X2933700Y3196082D01*
X2933700Y3158591D01*
X2937916Y3158591D01*
X2944266Y3159302D01*
X2949702Y3161233D01*
X2954629Y3164281D01*
X2958693Y3168396D01*
X2961792Y3173272D01*
X2963824Y3179064D01*
X2965958Y3182620D01*
X2969361Y3185058D01*
X2973425Y3185871D01*
X3007969Y3185871D01*
X3012287Y3184906D01*
X3015742Y3182264D01*
X3017774Y3178352D01*
X3020466Y3168446D01*
X3024581Y3159506D01*
X3030220Y3151479D01*
X3037179Y3144520D01*
X3045206Y3138881D01*
X3054146Y3134766D01*
X3063595Y3132226D01*
X3073400Y3131362D01*
X3083204Y3132226D01*
X3092653Y3134766D01*
X3101594Y3138881D01*
X3109620Y3144520D01*
X3116580Y3151479D01*
X3122218Y3159506D01*
X3126333Y3168446D01*
X3128873Y3177895D01*
X3129737Y3187700D01*
X3128873Y3197504D01*
X3126333Y3206953D01*
X3122218Y3215894D01*
X3117697Y3222294D01*
X3116021Y3226358D01*
X3116224Y3230778D01*
X3118256Y3234690D01*
X3121710Y3237331D01*
X3126028Y3238296D01*
X4428134Y3238296D01*
X4432350Y3237382D01*
X4435805Y3234791D01*
X4437888Y3231032D01*
X4438192Y3226765D01*
X4436668Y3215741D01*
X4436668Y3202432D01*
X4438497Y3189274D01*
X4442104Y3176473D01*
X4447387Y3164281D01*
X4454296Y3152902D01*
X4462678Y3142589D01*
X4472432Y3133496D01*
X4483252Y3125825D01*
X4495088Y3119729D01*
X4507585Y3115259D01*
X4520641Y3112566D01*
X4533900Y3111652D01*
X4547158Y3112566D01*
X4560163Y3115259D01*
X4572711Y3119729D01*
X4584547Y3125825D01*
X4595368Y3133496D01*
X4605121Y3142589D01*
X4613503Y3152902D01*
X4620412Y3164281D01*
X4625695Y3176473D01*
X4629302Y3189274D01*
X4631131Y3202432D01*
X4631131Y3215741D01*
X4629302Y3228898D01*
X4625695Y3241700D01*
X4620412Y3253892D01*
X4613503Y3265271D01*
X4605121Y3275584D01*
X4595368Y3284677D01*
X4584547Y3292348D01*
X4572711Y3298444D01*
X4569764Y3299510D01*
X4566208Y3301644D01*
X4563821Y3305048D01*
X4563008Y3309112D01*
X4563821Y3313125D01*
X4566208Y3316528D01*
X4569764Y3318662D01*
X4572711Y3319729D01*
X4584547Y3325825D01*
X4595368Y3333496D01*
X4605121Y3342589D01*
X4613503Y3352901D01*
X4620412Y3364280D01*
X4625695Y3376472D01*
X4629302Y3389274D01*
X4631131Y3402431D01*
X4631131Y3415741D01*
X4629302Y3428898D01*
X4625695Y3441700D01*
X4620412Y3453892D01*
X4613503Y3465271D01*
X4605121Y3475583D01*
X4595368Y3484676D01*
X4584547Y3492347D01*
X4572711Y3498443D01*
X4560163Y3502914D01*
X4547158Y3505606D01*
X4533900Y3506520D01*
X4520641Y3505606D01*
X4507585Y3502914D01*
X4495088Y3498443D01*
X4483252Y3492347D01*
X4472432Y3484676D01*
X4462678Y3475583D01*
X4454296Y3465271D01*
X4447387Y3453892D01*
X4442104Y3441700D01*
X4438497Y3428898D01*
X4436668Y3415741D01*
X4436668Y3402431D01*
X4438497Y3389274D01*
X4441494Y3378606D01*
X4441850Y3375050D01*
X4440936Y3371596D01*
X4438599Y3368395D01*
X4435297Y3366160D01*
X4431385Y3365398D01*
X3088944Y3365398D01*
X3085033Y3366160D01*
X3081731Y3368395D01*
X3079546Y3371646D01*
X3078784Y3375558D01*
X3079546Y3379419D01*
X3081731Y3382721D01*
X3111754Y3412794D01*
X3115056Y3415029D01*
X3118967Y3415792D01*
X3168091Y3415792D01*
X3172002Y3415029D01*
X3175304Y3412794D01*
X3176879Y3411220D01*
X3184906Y3405581D01*
X3193846Y3401466D01*
X3203295Y3398926D01*
X3213100Y3398062D01*
X3222904Y3398926D01*
X3232353Y3401466D01*
X3241294Y3405581D01*
X3249320Y3411220D01*
X3256279Y3418179D01*
X3261918Y3426206D01*
X3266033Y3435146D01*
X3268573Y3444595D01*
X3269437Y3454400D01*
X3268573Y3464204D01*
X3266033Y3473653D01*
X3261918Y3482594D01*
X3256279Y3490620D01*
X3249320Y3497579D01*
X3241294Y3503218D01*
X3232353Y3507333D01*
X3222904Y3509873D01*
X3213100Y3510737D01*
X3203295Y3509873D01*
X3193846Y3507333D01*
X3184906Y3503218D01*
X3176879Y3497579D01*
X3175304Y3496005D01*
X3172002Y3493770D01*
X3168091Y3493008D01*
X3143250Y3493008D01*
X3139389Y3493770D01*
X3136087Y3496005D01*
X3133852Y3499256D01*
X3133090Y3503168D01*
X3133090Y3530600D01*
X3079902Y3530600D01*
X3079902Y3493363D01*
X3078937Y3489045D01*
X3076194Y3485540D01*
X3071114Y3481324D01*
X3067761Y3479546D01*
X3064002Y3479088D01*
X3060293Y3480003D01*
X3057245Y3482238D01*
X3055213Y3485489D01*
X3054502Y3489198D01*
X3054502Y3530600D01*
X3003296Y3530600D01*
X2999384Y3531362D01*
X2996082Y3533597D01*
X2993898Y3536848D01*
X2993136Y3540760D01*
X2993136Y3545840D01*
X2993898Y3549751D01*
X2996082Y3553002D01*
X2999384Y3555237D01*
X3003296Y3556000D01*
X3054502Y3556000D01*
X3054502Y3614216D01*
X3027781Y3614216D01*
X3021431Y3613505D01*
X3015996Y3611575D01*
X3011068Y3608527D01*
X3007004Y3604412D01*
X3005785Y3602532D01*
X3002991Y3599586D01*
X2999232Y3597960D01*
X2995168Y3597960D01*
X2991408Y3599586D01*
X2988614Y3602532D01*
X2987395Y3604412D01*
X2983331Y3608527D01*
X2979572Y3611626D01*
X2977946Y3614877D01*
X2977540Y3618534D01*
X2978505Y3622040D01*
X2980131Y3625646D01*
X2982671Y3635095D01*
X2983534Y3644900D01*
X2982671Y3654704D01*
X2980131Y3664153D01*
X2976016Y3673094D01*
X2970377Y3681120D01*
X2963418Y3688079D01*
X2955391Y3693718D01*
X2946450Y3697833D01*
X2937002Y3700373D01*
X2927197Y3701237D01*
X2917393Y3700373D01*
X2907944Y3697833D01*
X2899003Y3693718D01*
X2890977Y3688079D01*
X2884017Y3681120D01*
X2878378Y3673094D01*
X2874264Y3664153D01*
X2871724Y3654704D01*
X2870860Y3644900D01*
X2871724Y3635095D01*
X2874264Y3625646D01*
X2875940Y3622040D01*
X2876854Y3618484D01*
X2876448Y3614877D01*
X2874822Y3611626D01*
X2871114Y3608527D01*
X2866999Y3604412D01*
X2863951Y3599535D01*
X2862021Y3594049D01*
X2861310Y3587750D01*
X2861310Y3498850D01*
X2862021Y3492550D01*
X2863951Y3487064D01*
X2866999Y3482187D01*
X2871063Y3478123D01*
X2877362Y3474313D01*
X2879953Y3472027D01*
X2881680Y3469030D01*
X2882239Y3465626D01*
X2882239Y3437128D01*
X2881833Y3434283D01*
X2880055Y3430727D01*
X2877870Y3424529D01*
X2875737Y3420973D01*
X2872384Y3418535D01*
X2868320Y3417722D01*
X2828544Y3417722D01*
X2822244Y3417011D01*
X2819095Y3415893D01*
X2815742Y3415334D01*
X2676042Y3415334D01*
X2672130Y3416096D01*
X2668828Y3418332D01*
X2657805Y3429355D01*
X2655570Y3432657D01*
X2654808Y3436569D01*
X2654808Y4596942D01*
X2653995Y4604969D01*
X2651810Y4612182D01*
X2648254Y4618888D01*
X2643124Y4625086D01*
X2580335Y4687874D01*
X2574137Y4693005D01*
X2567432Y4696561D01*
X2560218Y4698746D01*
X2552192Y4699558D01*
X1359408Y4699558D01*
X1351381Y4698746D01*
X1344168Y4696561D01*
X1337462Y4693005D01*
X1331264Y4687874D01*
X1278636Y4635246D01*
X1273505Y4629048D01*
X1269949Y4622342D01*
X1267764Y4615129D01*
X1266952Y4607102D01*
X1266952Y4417009D01*
X1266190Y4413148D01*
X1264005Y4409846D01*
X1247749Y4400143D01*
X1237030Y4391710D01*
X1227531Y4381906D01*
X1219454Y4370933D01*
X1212900Y4358944D01*
X1208024Y4346244D01*
X1204823Y4332986D01*
X1203452Y4319422D01*
X1203909Y4305757D01*
X1206195Y4292346D01*
X1210259Y4279290D01*
X1215999Y4266946D01*
X1223314Y4255414D01*
X1232103Y4245000D01*
X1242212Y4235856D01*
X1253490Y4228134D01*
X1265631Y4221988D01*
X1278534Y4217517D01*
X1291894Y4214825D01*
X1305509Y4213910D01*
X1319123Y4214825D01*
X1332484Y4217517D01*
X1345336Y4221988D01*
X1357528Y4228134D01*
X1368755Y4235856D01*
X1378864Y4245000D01*
X1387703Y4255414D01*
X1395018Y4266946D01*
X1396288Y4269638D01*
X1398524Y4272737D01*
X1401724Y4274820D01*
X1405483Y4275531D01*
X1409242Y4274820D01*
X1412494Y4272737D01*
X1414729Y4269638D01*
X1415999Y4266946D01*
X1423314Y4255414D01*
X1432102Y4245000D01*
X1442212Y4235856D01*
X1453489Y4228134D01*
X1465630Y4221988D01*
X1478534Y4217517D01*
X1491894Y4214825D01*
X1505508Y4213910D01*
X1519123Y4214825D01*
X1532483Y4217517D01*
X1545336Y4221988D01*
X1557528Y4228134D01*
X1568754Y4235856D01*
X1578864Y4245000D01*
X1587703Y4255414D01*
X1595018Y4266946D01*
X1600758Y4279290D01*
X1604822Y4292346D01*
X1607058Y4305757D01*
X1607515Y4319422D01*
X1606143Y4332986D01*
X1602994Y4346244D01*
X1598117Y4358944D01*
X1591564Y4370933D01*
X1583436Y4381906D01*
X1573987Y4391710D01*
X1563268Y4400143D01*
X1551533Y4407103D01*
X1538986Y4412437D01*
X1525828Y4416044D01*
X1512316Y4417872D01*
X1498701Y4417872D01*
X1485188Y4416044D01*
X1472031Y4412437D01*
X1459484Y4407103D01*
X1453235Y4403394D01*
X1449019Y4402023D01*
X1444599Y4402582D01*
X1440891Y4404969D01*
X1400505Y4445355D01*
X1398270Y4448657D01*
X1397508Y4452569D01*
X1397508Y4561382D01*
X1398270Y4565294D01*
X1400505Y4568545D01*
X1403756Y4570780D01*
X1407668Y4571542D01*
X2507081Y4571542D01*
X2510993Y4570780D01*
X2514295Y4568545D01*
X2523794Y4559046D01*
X2526030Y4555744D01*
X2526792Y4551832D01*
X2526792Y3391458D01*
X2527604Y3383432D01*
X2529789Y3376218D01*
X2533345Y3369513D01*
X2538476Y3363315D01*
X2568905Y3332835D01*
X2571089Y3329584D01*
X2571851Y3325672D01*
X2571089Y3321761D01*
X2568905Y3318510D01*
X2565603Y3316274D01*
X2561691Y3315512D01*
X1372362Y3315512D01*
X1364335Y3314700D01*
X1357122Y3312515D01*
X1350416Y3308959D01*
X1344218Y3303828D01*
X1278636Y3238246D01*
X1273505Y3232048D01*
X1269949Y3225342D01*
X1267764Y3218129D01*
X1266952Y3210102D01*
X1266952Y2639009D01*
X1266190Y2635148D01*
X1264005Y2631846D01*
X1247749Y2622143D01*
X1237030Y2613710D01*
X1227531Y2603906D01*
X1219454Y2592933D01*
X1212900Y2580944D01*
X1208024Y2568244D01*
X1204823Y2554986D01*
X1203452Y2541422D01*
X1203909Y2527757D01*
X1206195Y2514346D01*
X1210259Y2501290D01*
X1215999Y2488946D01*
X1223314Y2477465D01*
X1232103Y2467051D01*
X1242212Y2457856D01*
X1253490Y2450185D01*
X1265631Y2443988D01*
X1278534Y2439517D01*
X1291894Y2436825D01*
G37*
G36*
X4792167Y2454300D02*
G01*
X4792167Y2639415D01*
X4607102Y2639415D01*
X4607458Y2632659D01*
X4610303Y2613406D01*
X4615027Y2594508D01*
X4621580Y2576169D01*
X4629912Y2558592D01*
X4639919Y2541879D01*
X4651502Y2526233D01*
X4664608Y2511806D01*
X4679035Y2498750D01*
X4694682Y2487117D01*
X4711344Y2477109D01*
X4728972Y2468778D01*
X4747310Y2462225D01*
X4766208Y2457500D01*
X4785461Y2454656D01*
G37*
G36*
X4817567Y2454300D02*
G01*
X4824323Y2454656D01*
X4843576Y2457500D01*
X4862474Y2462225D01*
X4880813Y2468778D01*
X4898390Y2477109D01*
X4915103Y2487117D01*
X4930749Y2498750D01*
X4945176Y2511806D01*
X4958232Y2526233D01*
X4969865Y2541879D01*
X4979873Y2558592D01*
X4988204Y2576169D01*
X4994757Y2594508D01*
X4999482Y2613406D01*
X5002326Y2632659D01*
X5002682Y2639415D01*
X4817567Y2639415D01*
G37*
G36*
X1878025Y2517190D02*
G01*
X1926234Y2517190D01*
X1926234Y2575407D01*
X1904492Y2575407D01*
X1898142Y2574696D01*
X1892706Y2572766D01*
X1887778Y2569718D01*
X1883714Y2565603D01*
X1880616Y2560726D01*
X1878736Y2555240D01*
X1878025Y2548940D01*
G37*
G36*
X4012692Y2535174D02*
G01*
X4034434Y2535174D01*
X4034434Y2593390D01*
X3986225Y2593390D01*
X3986225Y2561691D01*
X3986936Y2555341D01*
X3988815Y2549906D01*
X3991914Y2544978D01*
X3995978Y2540914D01*
X4000906Y2537815D01*
X4006342Y2535885D01*
G37*
G36*
X4059834Y2535174D02*
G01*
X4081526Y2535174D01*
X4087876Y2535885D01*
X4093311Y2537815D01*
X4096715Y2539949D01*
X4100220Y2541320D01*
X4103979Y2541320D01*
X4107535Y2539949D01*
X4110888Y2537815D01*
X4116374Y2535885D01*
X4122674Y2535174D01*
X4191558Y2535174D01*
X4197858Y2535885D01*
X4203344Y2537815D01*
X4208221Y2540914D01*
X4212336Y2544978D01*
X4215384Y2549906D01*
X4217314Y2555341D01*
X4218025Y2561691D01*
X4218025Y2650540D01*
X4217314Y2656840D01*
X4215384Y2662326D01*
X4212336Y2667203D01*
X4208221Y2671318D01*
X4198924Y2676804D01*
X4196537Y2680208D01*
X4195724Y2684272D01*
X4195724Y2700426D01*
X4194911Y2708452D01*
X4192727Y2715666D01*
X4189171Y2722321D01*
X4184040Y2728569D01*
X4155135Y2757424D01*
X4148937Y2762554D01*
X4142232Y2766110D01*
X4135018Y2768295D01*
X4126992Y2769108D01*
X2458008Y2769108D01*
X2454097Y2769870D01*
X2450795Y2772105D01*
X2449220Y2773680D01*
X2441194Y2779318D01*
X2432253Y2783433D01*
X2422804Y2785973D01*
X2413000Y2786837D01*
X2403195Y2785973D01*
X2393746Y2783433D01*
X2384806Y2779318D01*
X2376779Y2773680D01*
X2369820Y2766720D01*
X2364181Y2758694D01*
X2360066Y2749753D01*
X2357526Y2740304D01*
X2356662Y2730500D01*
X2357526Y2720695D01*
X2360066Y2711246D01*
X2364181Y2702306D01*
X2369820Y2694279D01*
X2376779Y2687320D01*
X2384806Y2681681D01*
X2393746Y2677566D01*
X2403195Y2675026D01*
X2413000Y2674162D01*
X2422804Y2675026D01*
X2432253Y2677566D01*
X2441194Y2681681D01*
X2449220Y2687320D01*
X2450795Y2688894D01*
X2454097Y2691130D01*
X2458008Y2691892D01*
X3993489Y2691892D01*
X3997706Y2690977D01*
X4001211Y2688336D01*
X4003243Y2684526D01*
X4003548Y2680208D01*
X4001973Y2676144D01*
X3998874Y2673146D01*
X3995978Y2671318D01*
X3991914Y2667203D01*
X3988815Y2662326D01*
X3986936Y2656840D01*
X3986225Y2650540D01*
X3986225Y2618790D01*
X4034434Y2618790D01*
X4034434Y2681732D01*
X4035196Y2685643D01*
X4037380Y2688894D01*
X4040682Y2691130D01*
X4044594Y2691892D01*
X4049674Y2691892D01*
X4053535Y2691130D01*
X4056837Y2688894D01*
X4059021Y2685643D01*
X4059834Y2681732D01*
X4059834Y2618790D01*
X4086047Y2618790D01*
X4089908Y2618028D01*
X4093210Y2615844D01*
X4095445Y2612542D01*
X4096207Y2608630D01*
X4096207Y2603550D01*
X4095445Y2599690D01*
X4093210Y2596388D01*
X4089908Y2594152D01*
X4086047Y2593390D01*
X4059834Y2593390D01*
G37*
G36*
X4607102Y2664815D02*
G01*
X4792167Y2664815D01*
X4792167Y2849880D01*
X4785461Y2849524D01*
X4766208Y2846679D01*
X4747310Y2841955D01*
X4728972Y2835402D01*
X4711344Y2827070D01*
X4694682Y2817063D01*
X4679035Y2805480D01*
X4664608Y2792374D01*
X4651502Y2777947D01*
X4639919Y2762300D01*
X4629912Y2745638D01*
X4621580Y2728010D01*
X4615027Y2709672D01*
X4610303Y2690774D01*
X4607458Y2671521D01*
G37*
G36*
X4817567Y2664815D02*
G01*
X5002682Y2664815D01*
X5002326Y2671521D01*
X4999482Y2690774D01*
X4994757Y2709672D01*
X4988204Y2728010D01*
X4979873Y2745638D01*
X4969865Y2762300D01*
X4958232Y2777947D01*
X4945176Y2792374D01*
X4930749Y2805480D01*
X4915103Y2817063D01*
X4898390Y2827070D01*
X4880813Y2835402D01*
X4862474Y2841955D01*
X4843576Y2846679D01*
X4824323Y2849524D01*
X4817567Y2849880D01*
G37*
G36*
X2540000Y2826562D02*
G01*
X2549804Y2827426D01*
X2559253Y2829966D01*
X2568194Y2834081D01*
X2576220Y2839720D01*
X2577795Y2841294D01*
X2581097Y2843530D01*
X2585008Y2844292D01*
X3168091Y2844292D01*
X3172002Y2843530D01*
X3175304Y2841294D01*
X3176879Y2839720D01*
X3184906Y2834081D01*
X3193846Y2829966D01*
X3203295Y2827426D01*
X3213100Y2826562D01*
X3222904Y2827426D01*
X3232353Y2829966D01*
X3241294Y2834081D01*
X3249320Y2839720D01*
X3256279Y2846679D01*
X3261918Y2854706D01*
X3266033Y2863646D01*
X3268573Y2873095D01*
X3269437Y2882900D01*
X3268573Y2892704D01*
X3266033Y2902153D01*
X3261918Y2911094D01*
X3256279Y2919120D01*
X3249320Y2926080D01*
X3241294Y2931718D01*
X3232353Y2935833D01*
X3222904Y2938373D01*
X3213100Y2939237D01*
X3203295Y2938373D01*
X3193846Y2935833D01*
X3184906Y2931718D01*
X3176879Y2926080D01*
X3175304Y2924505D01*
X3172002Y2922270D01*
X3168091Y2921508D01*
X3113532Y2921508D01*
X3109366Y2922422D01*
X3105962Y2924911D01*
X3103829Y2928620D01*
X3103422Y2932836D01*
X3104794Y2936900D01*
X3107690Y2939999D01*
X3109620Y2941320D01*
X3116580Y2948279D01*
X3122218Y2956306D01*
X3126333Y2965246D01*
X3128873Y2974695D01*
X3129737Y2984500D01*
X3128873Y2994304D01*
X3126333Y3003753D01*
X3122218Y3012694D01*
X3116580Y3020720D01*
X3109620Y3027680D01*
X3101594Y3033318D01*
X3092653Y3037433D01*
X3083204Y3039973D01*
X3073400Y3040837D01*
X3063595Y3039973D01*
X3054146Y3037433D01*
X3045206Y3033318D01*
X3037179Y3027680D01*
X3035604Y3026105D01*
X3032302Y3023870D01*
X3028391Y3023108D01*
X2839008Y3023108D01*
X2835097Y3023870D01*
X2831795Y3026105D01*
X2830220Y3027680D01*
X2822194Y3033318D01*
X2813253Y3037433D01*
X2803804Y3039973D01*
X2794000Y3040837D01*
X2784195Y3039973D01*
X2774746Y3037433D01*
X2765806Y3033318D01*
X2757779Y3027680D01*
X2750820Y3020720D01*
X2745181Y3012694D01*
X2741066Y3003753D01*
X2738526Y2994304D01*
X2737662Y2984500D01*
X2738526Y2974695D01*
X2741066Y2965246D01*
X2745181Y2956306D01*
X2750820Y2948279D01*
X2757779Y2941320D01*
X2759710Y2939999D01*
X2762605Y2936900D01*
X2763977Y2932836D01*
X2763570Y2928620D01*
X2761488Y2924911D01*
X2758033Y2922422D01*
X2753868Y2921508D01*
X2585008Y2921508D01*
X2581097Y2922270D01*
X2577795Y2924505D01*
X2576220Y2926080D01*
X2568194Y2931718D01*
X2559253Y2935833D01*
X2549804Y2938373D01*
X2540000Y2939237D01*
X2530195Y2938373D01*
X2520746Y2935833D01*
X2511806Y2931718D01*
X2503779Y2926080D01*
X2496820Y2919120D01*
X2491181Y2911094D01*
X2487066Y2902153D01*
X2484526Y2892704D01*
X2483662Y2882900D01*
X2484526Y2873095D01*
X2487066Y2863646D01*
X2491181Y2854706D01*
X2496820Y2846679D01*
X2503779Y2839720D01*
X2511806Y2834081D01*
X2520746Y2829966D01*
X2530195Y2827426D01*
G37*
G36*
X1034491Y2839110D02*
G01*
X1052576Y2840024D01*
X1070508Y2842818D01*
X1087983Y2847441D01*
X1104950Y2853842D01*
X1121156Y2861919D01*
X1136446Y2871673D01*
X1150620Y2882900D01*
X1163574Y2895549D01*
X1175207Y2909417D01*
X1185316Y2924454D01*
X1193800Y2940456D01*
X1200658Y2957220D01*
X1205687Y2974594D01*
X1208938Y2992424D01*
X1210360Y3010458D01*
X1209903Y3028594D01*
X1207566Y3046526D01*
X1203401Y3064154D01*
X1197457Y3081274D01*
X1189786Y3097682D01*
X1180439Y3113176D01*
X1169568Y3127705D01*
X1157274Y3140964D01*
X1143660Y3152952D01*
X1128928Y3163417D01*
X1113129Y3172358D01*
X1096568Y3179572D01*
X1079296Y3185109D01*
X1061567Y3188817D01*
X1043584Y3190646D01*
X1025448Y3190646D01*
X1007465Y3188817D01*
X989736Y3185109D01*
X972464Y3179572D01*
X957580Y3173069D01*
X953617Y3172256D01*
X949655Y3172968D01*
X946302Y3175203D01*
X885291Y3236264D01*
X881837Y3239414D01*
X878332Y3242106D01*
X874572Y3244494D01*
X870610Y3246526D01*
X866546Y3248253D01*
X862279Y3249574D01*
X857961Y3250539D01*
X853541Y3251098D01*
X848918Y3251301D01*
X811631Y3251301D01*
X807770Y3252114D01*
X804468Y3254298D01*
X802233Y3257600D01*
X801471Y3261461D01*
X801471Y3268726D01*
X800760Y3275076D01*
X798830Y3280511D01*
X795782Y3285439D01*
X791667Y3289503D01*
X786790Y3292601D01*
X781304Y3294481D01*
X775004Y3295192D01*
X662889Y3295192D01*
X656539Y3294481D01*
X651103Y3292601D01*
X646226Y3289503D01*
X642112Y3285439D01*
X639013Y3280511D01*
X637133Y3275076D01*
X636422Y3268726D01*
X636422Y3132175D01*
X637133Y3125876D01*
X639013Y3120390D01*
X642112Y3115513D01*
X646226Y3111398D01*
X651103Y3108299D01*
X656539Y3106420D01*
X662889Y3105708D01*
X775004Y3105708D01*
X781304Y3106420D01*
X786790Y3108299D01*
X791667Y3111398D01*
X795782Y3115513D01*
X798830Y3120390D01*
X800760Y3125876D01*
X801471Y3132175D01*
X801471Y3139338D01*
X802233Y3143250D01*
X804468Y3146501D01*
X807770Y3148736D01*
X811631Y3149498D01*
X823823Y3149498D01*
X827735Y3148736D01*
X830986Y3146501D01*
X874420Y3103118D01*
X876655Y3099714D01*
X877366Y3095650D01*
X876401Y3091637D01*
X871575Y3081274D01*
X865632Y3064154D01*
X861466Y3046526D01*
X859129Y3028594D01*
X858672Y3010458D01*
X860094Y2992424D01*
X863295Y2974594D01*
X868375Y2957220D01*
X875182Y2940456D01*
X883716Y2924454D01*
X893826Y2909417D01*
X905408Y2895549D01*
X918413Y2882900D01*
X932586Y2871673D01*
X947877Y2861919D01*
X964082Y2853842D01*
X980998Y2847441D01*
X998524Y2842818D01*
X1016406Y2840024D01*
G37*
G36*
X4533900Y2861665D02*
G01*
X4547158Y2862580D01*
X4560163Y2865272D01*
X4572711Y2869742D01*
X4584547Y2875838D01*
X4595368Y2883509D01*
X4605121Y2892602D01*
X4613503Y2902915D01*
X4620412Y2914294D01*
X4625695Y2926486D01*
X4629302Y2939288D01*
X4631131Y2952445D01*
X4631131Y2965754D01*
X4629302Y2978912D01*
X4625695Y2991713D01*
X4620412Y3003905D01*
X4613503Y3015284D01*
X4605121Y3025597D01*
X4595368Y3034690D01*
X4584547Y3042361D01*
X4572711Y3048457D01*
X4560163Y3052927D01*
X4547158Y3055620D01*
X4533900Y3056534D01*
X4520641Y3055620D01*
X4507585Y3052927D01*
X4495088Y3048457D01*
X4483252Y3042361D01*
X4472432Y3034690D01*
X4462678Y3025597D01*
X4451807Y3012287D01*
X4448759Y3010611D01*
X4445355Y3010001D01*
X3772408Y3010001D01*
X3768090Y3010966D01*
X3765753Y3012033D01*
X3756304Y3014573D01*
X3746500Y3015437D01*
X3736695Y3014573D01*
X3727246Y3012033D01*
X3724910Y3010966D01*
X3720592Y3010001D01*
X3685540Y3010001D01*
X3682187Y3010560D01*
X3679190Y3012236D01*
X3676904Y3014776D01*
X3673500Y3020212D01*
X3669385Y3024327D01*
X3664508Y3027375D01*
X3659022Y3029305D01*
X3652723Y3030016D01*
X3573881Y3030016D01*
X3567531Y3029305D01*
X3562096Y3027375D01*
X3557168Y3024327D01*
X3553104Y3020212D01*
X3551885Y3018332D01*
X3549091Y3015386D01*
X3545332Y3013811D01*
X3541268Y3013811D01*
X3537508Y3015386D01*
X3534714Y3018332D01*
X3533495Y3020212D01*
X3529431Y3024327D01*
X3524504Y3027375D01*
X3519068Y3029305D01*
X3512718Y3030016D01*
X3485997Y3030016D01*
X3485997Y2971800D01*
X3537204Y2971800D01*
X3541115Y2971038D01*
X3544417Y2968802D01*
X3546601Y2965551D01*
X3547364Y2961640D01*
X3547364Y2956560D01*
X3546601Y2952699D01*
X3544417Y2949397D01*
X3541115Y2947162D01*
X3537204Y2946400D01*
X3485997Y2946400D01*
X3485997Y2888183D01*
X3512718Y2888183D01*
X3519068Y2888894D01*
X3524504Y2890824D01*
X3529431Y2893872D01*
X3533495Y2897987D01*
X3534714Y2899867D01*
X3537508Y2902813D01*
X3541268Y2904439D01*
X3545332Y2904439D01*
X3549091Y2902813D01*
X3551885Y2899867D01*
X3553104Y2897987D01*
X3557168Y2893872D01*
X3562096Y2890824D01*
X3567531Y2888894D01*
X3573881Y2888183D01*
X3652723Y2888183D01*
X3659022Y2888894D01*
X3664508Y2890824D01*
X3669385Y2893872D01*
X3673500Y2897987D01*
X3676904Y2903423D01*
X3679190Y2905963D01*
X3682187Y2907639D01*
X3685540Y2908198D01*
X3720592Y2908198D01*
X3724910Y2907233D01*
X3727246Y2906166D01*
X3736695Y2903626D01*
X3746500Y2902762D01*
X3756304Y2903626D01*
X3765753Y2906166D01*
X3768140Y2907233D01*
X3772408Y2908198D01*
X4445355Y2908198D01*
X4448759Y2907588D01*
X4451807Y2905912D01*
X4462678Y2892602D01*
X4472432Y2883509D01*
X4483252Y2875838D01*
X4495088Y2869742D01*
X4507585Y2865272D01*
X4520641Y2862580D01*
G37*
G36*
X3433876Y2888183D02*
G01*
X3460597Y2888183D01*
X3460597Y2946400D01*
X3407410Y2946400D01*
X3407410Y2914650D01*
X3408121Y2908350D01*
X3410000Y2902864D01*
X3413099Y2897987D01*
X3417214Y2893872D01*
X3422091Y2890824D01*
X3427577Y2888894D01*
G37*
G36*
X3407410Y2971800D02*
G01*
X3460597Y2971800D01*
X3460597Y3030016D01*
X3433876Y3030016D01*
X3427577Y3029305D01*
X3422091Y3027375D01*
X3417214Y3024327D01*
X3413099Y3020212D01*
X3410000Y3015335D01*
X3408121Y3009849D01*
X3407410Y3003550D01*
G37*
G36*
X469646Y3105708D02*
G01*
X512978Y3105708D01*
X512978Y3187750D01*
X443179Y3187750D01*
X443179Y3132175D01*
X443890Y3125876D01*
X445770Y3120390D01*
X448868Y3115513D01*
X452932Y3111398D01*
X457860Y3108299D01*
X463296Y3106420D01*
G37*
G36*
X538378Y3105708D02*
G01*
X581761Y3105708D01*
X588060Y3106420D01*
X593547Y3108299D01*
X598424Y3111398D01*
X602538Y3115513D01*
X605586Y3120390D01*
X607517Y3125876D01*
X608228Y3132175D01*
X608228Y3187750D01*
X538378Y3187750D01*
G37*
G36*
X5473700Y105562D02*
G01*
X5478322Y105664D01*
X5501284Y108051D01*
X5523992Y112369D01*
X5546242Y118618D01*
X5567883Y126644D01*
X5588812Y136499D01*
X5608828Y148031D01*
X5627776Y161239D01*
X5645607Y175971D01*
X5662117Y192125D01*
X5677204Y209600D01*
X5690819Y228295D01*
X5702757Y248107D01*
X5713018Y268782D01*
X5721553Y290271D01*
X5728208Y312369D01*
X5733034Y334975D01*
X5735929Y357886D01*
X5736336Y368300D01*
X5473700Y368300D01*
G37*
G36*
X538378Y3213150D02*
G01*
X608228Y3213150D01*
X608228Y3268726D01*
X607517Y3275076D01*
X605586Y3280511D01*
X602538Y3285439D01*
X598424Y3289503D01*
X593547Y3292601D01*
X588060Y3294481D01*
X581761Y3295192D01*
X538378Y3295192D01*
G37*
G36*
X443179Y3213150D02*
G01*
X512978Y3213150D01*
X512978Y3295192D01*
X469646Y3295192D01*
X463296Y3294481D01*
X457860Y3292601D01*
X452932Y3289503D01*
X448868Y3285439D01*
X445770Y3280511D01*
X443890Y3275076D01*
X443179Y3268726D01*
G37*
G36*
X4456887Y5600700D02*
G01*
X4559300Y5600700D01*
X4559300Y5702960D01*
X4550308Y5701842D01*
X4536186Y5698236D01*
X4522673Y5692851D01*
X4509922Y5685840D01*
X4498136Y5677306D01*
X4487519Y5667349D01*
X4478223Y5656122D01*
X4470450Y5643829D01*
X4464253Y5630672D01*
X4459732Y5616803D01*
X4457039Y5602528D01*
G37*
G36*
X538378Y3321608D02*
G01*
X581761Y3321608D01*
X588060Y3322320D01*
X593547Y3324199D01*
X598424Y3327298D01*
X602538Y3331413D01*
X605586Y3336290D01*
X607517Y3341776D01*
X608228Y3348075D01*
X608228Y3403650D01*
X538378Y3403650D01*
G37*
G36*
X469646Y3321608D02*
G01*
X512978Y3321608D01*
X512978Y3403650D01*
X443179Y3403650D01*
X443179Y3348075D01*
X443890Y3341776D01*
X445770Y3336290D01*
X448868Y3331413D01*
X452932Y3327298D01*
X457860Y3324199D01*
X463296Y3322320D01*
G37*
G36*
X662889Y3321608D02*
G01*
X775004Y3321608D01*
X781304Y3322320D01*
X786790Y3324199D01*
X791667Y3327298D01*
X795782Y3331413D01*
X798830Y3336290D01*
X800760Y3341776D01*
X801471Y3348075D01*
X801471Y3355238D01*
X802233Y3359150D01*
X804468Y3362401D01*
X807770Y3364636D01*
X811631Y3365398D01*
X861618Y3365398D01*
X866292Y3365601D01*
X870661Y3366160D01*
X875030Y3367125D01*
X879246Y3368497D01*
X883361Y3370173D01*
X887272Y3372205D01*
X891032Y3374593D01*
X894537Y3377336D01*
X897991Y3380486D01*
X946403Y3428898D01*
X949909Y3431184D01*
X954074Y3431844D01*
X958138Y3430778D01*
X964082Y3427831D01*
X980998Y3421430D01*
X998524Y3416808D01*
X1016406Y3414014D01*
X1034491Y3413099D01*
X1052576Y3414014D01*
X1070508Y3416808D01*
X1087983Y3421430D01*
X1104950Y3427831D01*
X1121156Y3435908D01*
X1136446Y3445611D01*
X1150620Y3456889D01*
X1163574Y3469538D01*
X1175207Y3483406D01*
X1185316Y3498443D01*
X1193800Y3514445D01*
X1200658Y3531209D01*
X1205687Y3548583D01*
X1208938Y3566414D01*
X1210360Y3584448D01*
X1209903Y3602583D01*
X1207566Y3620515D01*
X1203401Y3638143D01*
X1197457Y3655263D01*
X1189786Y3671671D01*
X1180439Y3687165D01*
X1169568Y3701694D01*
X1157274Y3714953D01*
X1143660Y3726942D01*
X1128928Y3737406D01*
X1113129Y3746347D01*
X1096568Y3753561D01*
X1079296Y3759098D01*
X1061567Y3762806D01*
X1043584Y3764635D01*
X1025448Y3764635D01*
X1007465Y3762806D01*
X989736Y3759098D01*
X972464Y3753561D01*
X955852Y3746347D01*
X940104Y3737406D01*
X925321Y3726942D01*
X911758Y3714953D01*
X899464Y3701694D01*
X888593Y3687165D01*
X879246Y3671671D01*
X871575Y3655263D01*
X865632Y3638143D01*
X861466Y3620515D01*
X859129Y3602583D01*
X858672Y3584448D01*
X860094Y3566414D01*
X863295Y3548583D01*
X868375Y3531209D01*
X875182Y3514445D01*
X876096Y3512718D01*
X877265Y3508603D01*
X876655Y3504387D01*
X874318Y3500780D01*
X843737Y3470198D01*
X840435Y3468014D01*
X836523Y3467201D01*
X811631Y3467201D01*
X807770Y3468014D01*
X804468Y3470198D01*
X802233Y3473500D01*
X801471Y3477361D01*
X801471Y3484626D01*
X800760Y3490976D01*
X798830Y3496411D01*
X795782Y3501339D01*
X791667Y3505403D01*
X786790Y3508501D01*
X781304Y3510381D01*
X775004Y3511092D01*
X662889Y3511092D01*
X656539Y3510381D01*
X651103Y3508501D01*
X646226Y3505403D01*
X642112Y3501339D01*
X639013Y3496411D01*
X637133Y3490976D01*
X636422Y3484626D01*
X636422Y3348075D01*
X637133Y3341776D01*
X639013Y3336290D01*
X642112Y3331413D01*
X646226Y3327298D01*
X651103Y3324199D01*
X656539Y3322320D01*
G37*
G36*
X538378Y3429050D02*
G01*
X608228Y3429050D01*
X608228Y3484626D01*
X607517Y3490976D01*
X605586Y3496411D01*
X602538Y3501339D01*
X598424Y3505403D01*
X593547Y3508501D01*
X588060Y3510381D01*
X581761Y3511092D01*
X538378Y3511092D01*
G37*
G36*
X393700Y105562D02*
G01*
X398322Y105664D01*
X421284Y108051D01*
X443992Y112369D01*
X466242Y118618D01*
X487883Y126644D01*
X508812Y136499D01*
X528828Y148031D01*
X547776Y161239D01*
X565607Y175971D01*
X582117Y192125D01*
X597204Y209600D01*
X610819Y228295D01*
X622757Y248107D01*
X633018Y268782D01*
X641553Y290271D01*
X648208Y312369D01*
X653034Y334975D01*
X655929Y357886D01*
X656336Y368300D01*
X393700Y368300D01*
G37*
G36*
X3079902Y3556000D02*
G01*
X3133090Y3556000D01*
X3133090Y3587750D01*
X3132378Y3594049D01*
X3130499Y3599535D01*
X3127400Y3604412D01*
X3123285Y3608527D01*
X3118408Y3611575D01*
X3112922Y3613505D01*
X3106623Y3614216D01*
X3079902Y3614216D01*
G37*
G36*
X4546600Y3562553D02*
G01*
X4560163Y3565296D01*
X4572711Y3569715D01*
X4584547Y3575862D01*
X4595368Y3583533D01*
X4605121Y3592576D01*
X4613503Y3602888D01*
X4620412Y3614267D01*
X4625695Y3626459D01*
X4629302Y3639261D01*
X4630267Y3646424D01*
X4546600Y3646424D01*
G37*
G36*
X4521200Y3562553D02*
G01*
X4521200Y3646424D01*
X4437532Y3646424D01*
X4438497Y3639261D01*
X4442104Y3626459D01*
X4447387Y3614267D01*
X4454296Y3602888D01*
X4462678Y3592576D01*
X4472432Y3583533D01*
X4483252Y3575862D01*
X4495088Y3569715D01*
X4507585Y3565296D01*
G37*
G36*
X1921611Y3594404D02*
G01*
X1953310Y3594404D01*
X1959660Y3595115D01*
X1965096Y3596995D01*
X1970024Y3600094D01*
X1974088Y3604158D01*
X1977186Y3609086D01*
X1979066Y3614521D01*
X1979777Y3620871D01*
X1979777Y3657600D01*
X1921611Y3657600D01*
G37*
G36*
X1864461Y3594404D02*
G01*
X1896211Y3594404D01*
X1896211Y3657600D01*
X1837994Y3657600D01*
X1837994Y3620871D01*
X1838706Y3614521D01*
X1840636Y3609086D01*
X1843684Y3604158D01*
X1847799Y3600094D01*
X1852675Y3596995D01*
X1858162Y3595115D01*
G37*
G36*
X2034489Y3594404D02*
G01*
X2123338Y3594404D01*
X2129637Y3595115D01*
X2135124Y3596995D01*
X2140000Y3600094D01*
X2144115Y3604158D01*
X2147163Y3609086D01*
X2149094Y3614521D01*
X2149805Y3620871D01*
X2149805Y3719728D01*
X2149094Y3726027D01*
X2147163Y3731514D01*
X2144115Y3736390D01*
X2140000Y3740505D01*
X2135124Y3743604D01*
X2129637Y3745484D01*
X2126538Y3745839D01*
X2122982Y3746906D01*
X2120087Y3749192D01*
X2118156Y3752291D01*
X2117496Y3755948D01*
X2117496Y3795572D01*
X2118156Y3799179D01*
X2120087Y3802329D01*
X2122982Y3804564D01*
X2126538Y3805631D01*
X2129637Y3805986D01*
X2135124Y3807917D01*
X2140000Y3811015D01*
X2144115Y3815079D01*
X2147163Y3820007D01*
X2149094Y3825443D01*
X2149805Y3831793D01*
X2149805Y3934053D01*
X2150516Y3937711D01*
X2152446Y3940911D01*
X2155444Y3943146D01*
X2159101Y3944162D01*
X2168804Y3945026D01*
X2178253Y3947566D01*
X2187194Y3951681D01*
X2195220Y3957320D01*
X2202180Y3964279D01*
X2207818Y3972306D01*
X2211933Y3981246D01*
X2214473Y3990695D01*
X2215337Y4000500D01*
X2214473Y4010304D01*
X2211933Y4019753D01*
X2207818Y4028694D01*
X2203500Y4034790D01*
X2201824Y4038854D01*
X2202027Y4043273D01*
X2204059Y4047185D01*
X2207514Y4049826D01*
X2211832Y4050792D01*
X2240991Y4050792D01*
X2244902Y4050029D01*
X2248204Y4047794D01*
X2249779Y4046220D01*
X2257806Y4040581D01*
X2266746Y4036466D01*
X2276195Y4033926D01*
X2286000Y4033062D01*
X2295804Y4033926D01*
X2305253Y4036466D01*
X2314194Y4040581D01*
X2322220Y4046220D01*
X2329180Y4053179D01*
X2334818Y4061206D01*
X2338933Y4070146D01*
X2341473Y4079595D01*
X2342337Y4089400D01*
X2341473Y4099204D01*
X2338933Y4108653D01*
X2334818Y4117594D01*
X2329180Y4125620D01*
X2322220Y4132579D01*
X2314194Y4138218D01*
X2305253Y4142333D01*
X2295804Y4144873D01*
X2286000Y4145737D01*
X2276195Y4144873D01*
X2266746Y4142333D01*
X2257806Y4138218D01*
X2249779Y4132579D01*
X2248204Y4131005D01*
X2244902Y4128770D01*
X2240991Y4128008D01*
X2119985Y4128008D01*
X2116074Y4128770D01*
X2112772Y4131005D01*
X2110587Y4134256D01*
X2109825Y4138168D01*
X2109825Y4143908D01*
X2109114Y4150258D01*
X2107184Y4155694D01*
X2104136Y4160621D01*
X2100021Y4164685D01*
X2095144Y4167784D01*
X2089657Y4169714D01*
X2083358Y4170426D01*
X2014474Y4170426D01*
X2008174Y4169714D01*
X2002688Y4167784D01*
X1999335Y4165650D01*
X1995779Y4164279D01*
X1992020Y4164279D01*
X1988515Y4165650D01*
X1985111Y4167784D01*
X1979675Y4169714D01*
X1973325Y4170426D01*
X1904492Y4170426D01*
X1898142Y4169714D01*
X1892706Y4167784D01*
X1887778Y4164685D01*
X1883714Y4160621D01*
X1880616Y4155694D01*
X1878736Y4150258D01*
X1878025Y4143908D01*
X1878025Y4055059D01*
X1878736Y4048760D01*
X1880616Y4043273D01*
X1883714Y4038396D01*
X1887778Y4034282D01*
X1892655Y4031234D01*
X1899513Y4028897D01*
X1902815Y4027017D01*
X1905254Y4024071D01*
X1906727Y4021277D01*
X1911807Y4015079D01*
X1942592Y3984498D01*
X1944827Y3981196D01*
X1945589Y3977284D01*
X1944827Y3973372D01*
X1942642Y3970070D01*
X1939340Y3967886D01*
X1935429Y3967124D01*
X1864461Y3967124D01*
X1858162Y3966413D01*
X1852675Y3964482D01*
X1847799Y3961384D01*
X1843684Y3957320D01*
X1840636Y3952392D01*
X1838706Y3946956D01*
X1837994Y3940606D01*
X1837994Y3934968D01*
X1837232Y3931107D01*
X1834997Y3927805D01*
X1831746Y3925570D01*
X1827834Y3924808D01*
X1705508Y3924808D01*
X1701647Y3925570D01*
X1698345Y3927805D01*
X1604162Y4021937D01*
X1602079Y4024985D01*
X1601216Y4028541D01*
X1601622Y4032148D01*
X1604822Y4042359D01*
X1607058Y4055770D01*
X1607515Y4069435D01*
X1606143Y4082999D01*
X1602994Y4096258D01*
X1598117Y4108958D01*
X1591564Y4120946D01*
X1583436Y4131919D01*
X1573987Y4141724D01*
X1563268Y4150156D01*
X1551533Y4157116D01*
X1538986Y4162450D01*
X1525828Y4166057D01*
X1512316Y4167886D01*
X1498701Y4167886D01*
X1485188Y4166057D01*
X1472031Y4162450D01*
X1459484Y4157116D01*
X1447749Y4150156D01*
X1437030Y4141724D01*
X1427530Y4131919D01*
X1419453Y4120946D01*
X1414424Y4111751D01*
X1411579Y4108500D01*
X1407668Y4106672D01*
X1403350Y4106672D01*
X1399438Y4108500D01*
X1396593Y4111751D01*
X1391564Y4120946D01*
X1383436Y4131919D01*
X1373987Y4141724D01*
X1363268Y4150156D01*
X1351534Y4157116D01*
X1338986Y4162450D01*
X1325829Y4166057D01*
X1318209Y4167073D01*
X1318209Y4078681D01*
X1393342Y4078681D01*
X1397152Y4077970D01*
X1400403Y4075836D01*
X1402638Y4072686D01*
X1403502Y4068876D01*
X1403654Y4063796D01*
X1402994Y4059834D01*
X1400810Y4056379D01*
X1397457Y4054094D01*
X1393494Y4053281D01*
X1318209Y4053281D01*
X1318209Y3964787D01*
X1332484Y3967530D01*
X1345336Y3972001D01*
X1357528Y3978148D01*
X1368755Y3985869D01*
X1378864Y3995013D01*
X1387703Y4005427D01*
X1395018Y4016959D01*
X1396288Y4019651D01*
X1398524Y4022750D01*
X1401724Y4024833D01*
X1405483Y4025544D01*
X1409242Y4024833D01*
X1412494Y4022750D01*
X1414729Y4019651D01*
X1415999Y4016959D01*
X1423314Y4005427D01*
X1432102Y3995013D01*
X1442212Y3985869D01*
X1453489Y3978148D01*
X1465630Y3972001D01*
X1478534Y3967530D01*
X1491894Y3964838D01*
X1505508Y3963924D01*
X1519123Y3964838D01*
X1532483Y3967530D01*
X1538986Y3969816D01*
X1542745Y3970375D01*
X1546402Y3969512D01*
X1549501Y3967378D01*
X1657654Y3859276D01*
X1663903Y3854145D01*
X1670557Y3850589D01*
X1677771Y3848404D01*
X1685798Y3847592D01*
X1827834Y3847592D01*
X1831746Y3846829D01*
X1834997Y3844594D01*
X1837232Y3841343D01*
X1837994Y3837432D01*
X1837994Y3831793D01*
X1838706Y3825443D01*
X1840636Y3820007D01*
X1843684Y3815079D01*
X1847799Y3811015D01*
X1852675Y3807917D01*
X1858162Y3805986D01*
X1864461Y3805275D01*
X1963318Y3805275D01*
X1969668Y3805986D01*
X1975104Y3807917D01*
X1980031Y3811015D01*
X1984095Y3815079D01*
X1985314Y3816959D01*
X1988108Y3819906D01*
X1991868Y3821531D01*
X1995932Y3821531D01*
X1999691Y3819906D01*
X2002485Y3816959D01*
X2003704Y3815079D01*
X2007768Y3811015D01*
X2012696Y3807917D01*
X2018131Y3805986D01*
X2024481Y3805275D01*
X2030120Y3805275D01*
X2034032Y3804513D01*
X2037334Y3802329D01*
X2039518Y3799027D01*
X2040280Y3795115D01*
X2040280Y3755948D01*
X2039620Y3752291D01*
X2037689Y3749192D01*
X2034793Y3746906D01*
X2031238Y3745839D01*
X2028139Y3745484D01*
X2022703Y3743604D01*
X2017775Y3740505D01*
X2013712Y3736390D01*
X2010613Y3731514D01*
X2008682Y3726027D01*
X2007971Y3719728D01*
X2007971Y3620871D01*
X2008682Y3614521D01*
X2010613Y3609086D01*
X2013712Y3604158D01*
X2017775Y3600094D01*
X2022703Y3596995D01*
X2028139Y3595115D01*
G37*
G36*
X4437532Y3671824D02*
G01*
X4521200Y3671824D01*
X4521200Y3755644D01*
X4507585Y3752900D01*
X4495088Y3748481D01*
X4483252Y3742334D01*
X4472432Y3734663D01*
X4462678Y3725621D01*
X4454296Y3715308D01*
X4447387Y3703929D01*
X4442104Y3691737D01*
X4438497Y3678936D01*
G37*
G36*
X4546600Y3671824D02*
G01*
X4630267Y3671824D01*
X4629302Y3678936D01*
X4625695Y3691737D01*
X4620412Y3703929D01*
X4613503Y3715308D01*
X4605121Y3725621D01*
X4595368Y3734663D01*
X4584547Y3742334D01*
X4572711Y3748481D01*
X4560163Y3752900D01*
X4546600Y3755644D01*
G37*
G36*
X3883761Y3678275D02*
G01*
X3982618Y3678275D01*
X3988968Y3678986D01*
X3994404Y3680917D01*
X3999331Y3684015D01*
X4003395Y3688079D01*
X4004614Y3689959D01*
X4007408Y3692906D01*
X4011168Y3694531D01*
X4015232Y3694531D01*
X4018991Y3692906D01*
X4021785Y3689959D01*
X4023004Y3688079D01*
X4027068Y3684015D01*
X4031996Y3680917D01*
X4037431Y3678986D01*
X4043781Y3678275D01*
X4142638Y3678275D01*
X4148937Y3678986D01*
X4154424Y3680917D01*
X4159300Y3684015D01*
X4163415Y3688079D01*
X4166463Y3693007D01*
X4168394Y3698443D01*
X4169105Y3704793D01*
X4169105Y3813606D01*
X4168394Y3819956D01*
X4166463Y3825392D01*
X4163415Y3830320D01*
X4159300Y3834384D01*
X4154424Y3837482D01*
X4148937Y3839413D01*
X4145838Y3839768D01*
X4142282Y3840835D01*
X4139387Y3843070D01*
X4137456Y3846220D01*
X4136796Y3849827D01*
X4136796Y3876751D01*
X4137456Y3880358D01*
X4139387Y3883507D01*
X4142282Y3885793D01*
X4145838Y3886860D01*
X4148937Y3887215D01*
X4154424Y3889095D01*
X4159300Y3892194D01*
X4163415Y3896258D01*
X4166463Y3901186D01*
X4168394Y3906621D01*
X4169105Y3912971D01*
X4169105Y4011828D01*
X4168394Y4018127D01*
X4166463Y4023614D01*
X4163415Y4028490D01*
X4159300Y4032605D01*
X4154424Y4035704D01*
X4148937Y4037584D01*
X4142638Y4038295D01*
X4053789Y4038295D01*
X4047439Y4037584D01*
X4042003Y4035704D01*
X4037076Y4032605D01*
X4033012Y4028490D01*
X4029913Y4023614D01*
X4027982Y4018127D01*
X4027271Y4011828D01*
X4027271Y3912971D01*
X4027982Y3906621D01*
X4029913Y3901186D01*
X4033012Y3896258D01*
X4037076Y3892194D01*
X4042003Y3889095D01*
X4047439Y3887215D01*
X4050537Y3886860D01*
X4054094Y3885793D01*
X4056989Y3883507D01*
X4058920Y3880358D01*
X4059580Y3876751D01*
X4059580Y3850284D01*
X4058818Y3846372D01*
X4056583Y3843070D01*
X4053332Y3840886D01*
X4049420Y3840124D01*
X4043781Y3840124D01*
X4037431Y3839413D01*
X4031996Y3837482D01*
X4027068Y3834384D01*
X4023004Y3830320D01*
X4021785Y3828440D01*
X4018991Y3825494D01*
X4015232Y3823868D01*
X4011168Y3823868D01*
X4007408Y3825494D01*
X4004614Y3828440D01*
X4003395Y3830320D01*
X3999331Y3834384D01*
X3994404Y3837482D01*
X3988968Y3839413D01*
X3982618Y3840124D01*
X3883761Y3840124D01*
X3877462Y3839413D01*
X3871976Y3837482D01*
X3867099Y3834384D01*
X3862984Y3830320D01*
X3859936Y3825392D01*
X3858006Y3819956D01*
X3857294Y3813606D01*
X3857294Y3807968D01*
X3856532Y3804056D01*
X3854297Y3800805D01*
X3851046Y3798570D01*
X3847134Y3797808D01*
X3791508Y3797808D01*
X3787597Y3798570D01*
X3784295Y3800805D01*
X3782720Y3802379D01*
X3774694Y3808018D01*
X3765753Y3812133D01*
X3756304Y3814673D01*
X3746500Y3815537D01*
X3736695Y3814673D01*
X3727246Y3812133D01*
X3718306Y3808018D01*
X3710279Y3802379D01*
X3703320Y3795420D01*
X3697681Y3787394D01*
X3693566Y3778453D01*
X3691026Y3769004D01*
X3690162Y3759200D01*
X3691026Y3749395D01*
X3693566Y3739946D01*
X3697681Y3731006D01*
X3703320Y3722979D01*
X3710279Y3716020D01*
X3718306Y3710381D01*
X3727246Y3706266D01*
X3736695Y3703726D01*
X3746500Y3702862D01*
X3756304Y3703726D01*
X3765753Y3706266D01*
X3774694Y3710381D01*
X3782720Y3716020D01*
X3784295Y3717594D01*
X3787597Y3719829D01*
X3791508Y3720592D01*
X3847134Y3720592D01*
X3851046Y3719829D01*
X3854297Y3717594D01*
X3856532Y3714343D01*
X3857294Y3710432D01*
X3857294Y3704793D01*
X3858006Y3698443D01*
X3859936Y3693007D01*
X3862984Y3688079D01*
X3867099Y3684015D01*
X3871976Y3680917D01*
X3877462Y3678986D01*
G37*
G36*
X1921611Y3683000D02*
G01*
X1979777Y3683000D01*
X1979777Y3719728D01*
X1979066Y3726027D01*
X1977186Y3731514D01*
X1974088Y3736390D01*
X1970024Y3740505D01*
X1965096Y3743604D01*
X1959660Y3745484D01*
X1953310Y3746195D01*
X1921611Y3746195D01*
G37*
G36*
X1837994Y3683000D02*
G01*
X1896211Y3683000D01*
X1896211Y3746195D01*
X1864461Y3746195D01*
X1858162Y3745484D01*
X1852675Y3743604D01*
X1847799Y3740505D01*
X1843684Y3736390D01*
X1840636Y3731514D01*
X1838706Y3726027D01*
X1837994Y3719728D01*
G37*
G36*
X4792167Y3768344D02*
G01*
X4792167Y3953408D01*
X4607102Y3953408D01*
X4607458Y3946651D01*
X4610303Y3927398D01*
X4615027Y3908501D01*
X4621580Y3890162D01*
X4629912Y3872585D01*
X4639919Y3855872D01*
X4651502Y3840226D01*
X4664608Y3825798D01*
X4679035Y3812743D01*
X4694682Y3801160D01*
X4711344Y3791153D01*
X4728972Y3782822D01*
X4747310Y3776268D01*
X4766208Y3771544D01*
X4785461Y3768648D01*
G37*
G36*
X4817567Y3768344D02*
G01*
X4824323Y3768648D01*
X4843576Y3771544D01*
X4862474Y3776268D01*
X4880813Y3782822D01*
X4898390Y3791153D01*
X4915103Y3801160D01*
X4930749Y3812743D01*
X4945176Y3825798D01*
X4958232Y3840226D01*
X4969865Y3855872D01*
X4979873Y3872585D01*
X4988204Y3890162D01*
X4994757Y3908501D01*
X4999482Y3927398D01*
X5002326Y3946651D01*
X5002682Y3953408D01*
X4817567Y3953408D01*
G37*
G36*
X3940911Y3886504D02*
G01*
X3972610Y3886504D01*
X3978960Y3887215D01*
X3984396Y3889095D01*
X3989324Y3892194D01*
X3993387Y3896258D01*
X3996486Y3901186D01*
X3998366Y3906621D01*
X3999077Y3912971D01*
X3999077Y3949700D01*
X3940911Y3949700D01*
G37*
G36*
X3883761Y3886504D02*
G01*
X3915511Y3886504D01*
X3915511Y3949700D01*
X3857294Y3949700D01*
X3857294Y3912971D01*
X3858006Y3906621D01*
X3859885Y3901186D01*
X3862984Y3896258D01*
X3867099Y3892194D01*
X3871976Y3889095D01*
X3877462Y3887215D01*
G37*
G36*
X1292809Y3964787D02*
G01*
X1292809Y4053281D01*
X1204366Y4053281D01*
X1206195Y4042359D01*
X1210259Y4029303D01*
X1215999Y4016959D01*
X1223314Y4005427D01*
X1232103Y3995013D01*
X1242212Y3985869D01*
X1253490Y3978148D01*
X1265631Y3972001D01*
X1278534Y3967530D01*
G37*
G36*
X3940911Y3975100D02*
G01*
X3999077Y3975100D01*
X3999077Y4011828D01*
X3998366Y4018127D01*
X3996486Y4023614D01*
X3993387Y4028490D01*
X3989324Y4032605D01*
X3984396Y4035704D01*
X3978960Y4037584D01*
X3972610Y4038295D01*
X3940911Y4038295D01*
G37*
G36*
X3857294Y3975100D02*
G01*
X3915511Y3975100D01*
X3915511Y4038295D01*
X3883761Y4038295D01*
X3877462Y4037584D01*
X3871976Y4035704D01*
X3867099Y4032605D01*
X3862984Y4028490D01*
X3859885Y4023614D01*
X3858006Y4018127D01*
X3857294Y4011828D01*
G37*
G36*
X4607102Y3978808D02*
G01*
X4792167Y3978808D01*
X4792167Y4163872D01*
X4785461Y4163568D01*
X4766208Y4160723D01*
X4747310Y4155948D01*
X4728972Y4149394D01*
X4711344Y4141063D01*
X4694682Y4131056D01*
X4679035Y4119473D01*
X4664608Y4106418D01*
X4651502Y4091990D01*
X4639919Y4076344D01*
X4629912Y4059631D01*
X4621580Y4042054D01*
X4615027Y4023715D01*
X4610303Y4004818D01*
X4607458Y3985564D01*
G37*
G36*
X4817567Y3978808D02*
G01*
X5002682Y3978808D01*
X5002326Y3985564D01*
X4999482Y4004818D01*
X4994757Y4023715D01*
X4988204Y4042054D01*
X4979873Y4059631D01*
X4969865Y4076344D01*
X4958232Y4091990D01*
X4945176Y4106418D01*
X4930749Y4119473D01*
X4915103Y4131056D01*
X4898390Y4141063D01*
X4880813Y4149394D01*
X4862474Y4155948D01*
X4843576Y4160723D01*
X4824323Y4163568D01*
X4817567Y4163872D01*
G37*
G36*
X1204417Y4078681D02*
G01*
X1292809Y4078681D01*
X1292809Y4167073D01*
X1285189Y4166057D01*
X1272032Y4162450D01*
X1259484Y4157116D01*
X1247749Y4150156D01*
X1237030Y4141724D01*
X1227531Y4131919D01*
X1219454Y4120946D01*
X1212900Y4108958D01*
X1208024Y4096258D01*
X1204823Y4082999D01*
G37*
G36*
X1904492Y4211574D02*
G01*
X1926234Y4211574D01*
X1926234Y4269790D01*
X1878025Y4269790D01*
X1878025Y4238091D01*
X1878736Y4231741D01*
X1880616Y4226306D01*
X1883714Y4221378D01*
X1887778Y4217314D01*
X1892706Y4214215D01*
X1898142Y4212285D01*
G37*
G36*
X1951634Y4211574D02*
G01*
X1973325Y4211574D01*
X1979675Y4212285D01*
X1985111Y4214215D01*
X1988515Y4216349D01*
X1992020Y4217720D01*
X1995779Y4217720D01*
X1999335Y4216349D01*
X2002688Y4214215D01*
X2008174Y4212285D01*
X2014474Y4211574D01*
X2083358Y4211574D01*
X2089657Y4212285D01*
X2095144Y4214215D01*
X2100021Y4217314D01*
X2104136Y4221378D01*
X2107184Y4226306D01*
X2109114Y4231741D01*
X2109825Y4238091D01*
X2109825Y4326940D01*
X2109114Y4333240D01*
X2107184Y4338726D01*
X2104136Y4343603D01*
X2100021Y4347718D01*
X2095144Y4350766D01*
X2089657Y4352696D01*
X2083358Y4353407D01*
X2014474Y4353407D01*
X2008174Y4352696D01*
X2002688Y4350766D01*
X1999335Y4348683D01*
X1995779Y4347260D01*
X1992020Y4347260D01*
X1988515Y4348683D01*
X1985111Y4350766D01*
X1979675Y4352696D01*
X1973325Y4353407D01*
X1951634Y4353407D01*
X1951634Y4295190D01*
X1977847Y4295190D01*
X1981707Y4294428D01*
X1985010Y4292244D01*
X1987245Y4288942D01*
X1988007Y4285030D01*
X1988007Y4279950D01*
X1987245Y4276090D01*
X1985010Y4272788D01*
X1981707Y4270552D01*
X1977847Y4269790D01*
X1951634Y4269790D01*
G37*
G36*
X1878025Y4295190D02*
G01*
X1926234Y4295190D01*
X1926234Y4353407D01*
X1904492Y4353407D01*
X1898142Y4352696D01*
X1892706Y4350766D01*
X1887778Y4347718D01*
X1883714Y4343603D01*
X1880616Y4338726D01*
X1878736Y4333240D01*
X1878025Y4326940D01*
G37*
G36*
X1034491Y4617110D02*
G01*
X1052576Y4618024D01*
X1070508Y4620818D01*
X1087983Y4625441D01*
X1104950Y4631842D01*
X1121156Y4639919D01*
X1136446Y4649622D01*
X1150620Y4660900D01*
X1163574Y4673549D01*
X1175207Y4687417D01*
X1185316Y4702454D01*
X1193800Y4718456D01*
X1200658Y4735220D01*
X1205687Y4752594D01*
X1208938Y4770424D01*
X1210360Y4788458D01*
X1209903Y4806594D01*
X1207566Y4824526D01*
X1203401Y4842154D01*
X1197457Y4859274D01*
X1189786Y4875682D01*
X1180439Y4891176D01*
X1169568Y4905705D01*
X1157274Y4918964D01*
X1143660Y4930952D01*
X1128928Y4941417D01*
X1113129Y4950358D01*
X1096568Y4957572D01*
X1079296Y4963109D01*
X1061567Y4966817D01*
X1043584Y4968646D01*
X1025448Y4968646D01*
X1007465Y4966817D01*
X989736Y4963109D01*
X972464Y4957572D01*
X955852Y4950358D01*
X940104Y4941417D01*
X925321Y4930952D01*
X911758Y4918964D01*
X899464Y4905705D01*
X888593Y4891176D01*
X879246Y4875682D01*
X871575Y4859274D01*
X865632Y4842154D01*
X861466Y4824526D01*
X859129Y4806594D01*
X858672Y4788458D01*
X860094Y4770424D01*
X863295Y4752594D01*
X868375Y4735220D01*
X875182Y4718456D01*
X883716Y4702454D01*
X893826Y4687417D01*
X905408Y4673549D01*
X918413Y4660900D01*
X932586Y4649622D01*
X947877Y4639919D01*
X964082Y4631842D01*
X980998Y4625441D01*
X998524Y4620818D01*
X1016406Y4618024D01*
G37*
G36*
X2286000Y4883962D02*
G01*
X2295804Y4884826D01*
X2305253Y4887366D01*
X2314194Y4891481D01*
X2322220Y4897120D01*
X2323795Y4898694D01*
X2327097Y4900930D01*
X2331008Y4901692D01*
X3371291Y4901692D01*
X3375202Y4900930D01*
X3378504Y4898694D01*
X3380079Y4897120D01*
X3388106Y4891481D01*
X3397046Y4887366D01*
X3406495Y4884826D01*
X3416300Y4883962D01*
X3426104Y4884826D01*
X3435553Y4887366D01*
X3444494Y4891481D01*
X3452520Y4897120D01*
X3454095Y4898694D01*
X3457397Y4900930D01*
X3461308Y4901692D01*
X5034991Y4901692D01*
X5038902Y4900930D01*
X5042204Y4898694D01*
X5043779Y4897120D01*
X5051806Y4891481D01*
X5060746Y4887366D01*
X5070195Y4884826D01*
X5080000Y4883962D01*
X5089804Y4884826D01*
X5099253Y4887366D01*
X5108194Y4891481D01*
X5116220Y4897120D01*
X5123180Y4904079D01*
X5128818Y4912106D01*
X5132933Y4921046D01*
X5135473Y4930495D01*
X5136337Y4940300D01*
X5135473Y4950104D01*
X5132933Y4959553D01*
X5128818Y4968494D01*
X5123180Y4976520D01*
X5116220Y4983480D01*
X5108194Y4989118D01*
X5099253Y4993233D01*
X5089804Y4995773D01*
X5080000Y4996637D01*
X5070195Y4995773D01*
X5060746Y4993233D01*
X5051806Y4989118D01*
X5043779Y4983480D01*
X5042204Y4981905D01*
X5038902Y4979670D01*
X5034991Y4978908D01*
X3461308Y4978908D01*
X3457397Y4979670D01*
X3454095Y4981905D01*
X3452520Y4983480D01*
X3444494Y4989118D01*
X3435553Y4993233D01*
X3426104Y4995773D01*
X3416300Y4996637D01*
X3406495Y4995773D01*
X3397046Y4993233D01*
X3388106Y4989118D01*
X3380079Y4983480D01*
X3378504Y4981905D01*
X3375202Y4979670D01*
X3371291Y4978908D01*
X2331008Y4978908D01*
X2327097Y4979670D01*
X2323795Y4981905D01*
X2322220Y4983480D01*
X2314194Y4989118D01*
X2305253Y4993233D01*
X2295804Y4995773D01*
X2286000Y4996637D01*
X2276195Y4995773D01*
X2266746Y4993233D01*
X2257806Y4989118D01*
X2249779Y4983480D01*
X2242820Y4976520D01*
X2237181Y4968494D01*
X2233066Y4959553D01*
X2230526Y4950104D01*
X2229662Y4940300D01*
X2230526Y4930495D01*
X2233066Y4921046D01*
X2237181Y4912106D01*
X2242820Y4904079D01*
X2249779Y4897120D01*
X2257806Y4891481D01*
X2266746Y4887366D01*
X2276195Y4884826D01*
G37*
G36*
X4826000Y5022138D02*
G01*
X4835804Y5023002D01*
X4845253Y5025542D01*
X4854194Y5029708D01*
X4862220Y5035346D01*
X4869180Y5042255D01*
X4874818Y5050332D01*
X4878933Y5059222D01*
X4881473Y5068722D01*
X4882337Y5078476D01*
X4881473Y5088280D01*
X4878933Y5097780D01*
X4874818Y5106670D01*
X4869180Y5114747D01*
X4862220Y5121656D01*
X4854194Y5127294D01*
X4845253Y5131460D01*
X4835804Y5134000D01*
X4826000Y5134864D01*
X4816195Y5134000D01*
X4806746Y5131460D01*
X4797806Y5127294D01*
X4789779Y5121656D01*
X4788255Y5120182D01*
X4784953Y5117947D01*
X4781042Y5117185D01*
X4197858Y5118506D01*
X4193946Y5119268D01*
X4190644Y5121503D01*
X4188460Y5124754D01*
X4187698Y5128666D01*
X4187698Y5281015D01*
X4188358Y5284673D01*
X4190339Y5287873D01*
X4193286Y5290108D01*
X4196892Y5291124D01*
X4204919Y5291937D01*
X4210304Y5293817D01*
X4215231Y5296916D01*
X4219295Y5300980D01*
X4220514Y5302859D01*
X4223308Y5305806D01*
X4227068Y5307431D01*
X4231132Y5307431D01*
X4234891Y5305806D01*
X4237685Y5302859D01*
X4238904Y5300980D01*
X4242968Y5296916D01*
X4247896Y5293817D01*
X4253331Y5291886D01*
X4259681Y5291175D01*
X4358538Y5291175D01*
X4364837Y5291886D01*
X4370324Y5293817D01*
X4375200Y5296916D01*
X4379315Y5300980D01*
X4382363Y5305907D01*
X4384294Y5311343D01*
X4385005Y5317693D01*
X4385005Y5426506D01*
X4384294Y5432856D01*
X4382363Y5438292D01*
X4379315Y5443220D01*
X4375200Y5447284D01*
X4370324Y5450382D01*
X4364939Y5452262D01*
X4356862Y5453075D01*
X4353306Y5454091D01*
X4350308Y5456326D01*
X4348378Y5459526D01*
X4347667Y5463184D01*
X4347667Y5489244D01*
X4348378Y5492902D01*
X4350308Y5496052D01*
X4353306Y5498287D01*
X4356862Y5499354D01*
X4364888Y5500116D01*
X4370324Y5501995D01*
X4375200Y5505094D01*
X4379315Y5509158D01*
X4382363Y5514086D01*
X4384294Y5519521D01*
X4385005Y5525871D01*
X4385005Y5624728D01*
X4384294Y5631027D01*
X4382363Y5636514D01*
X4379315Y5641390D01*
X4375200Y5645505D01*
X4370324Y5648604D01*
X4364837Y5650484D01*
X4358538Y5651195D01*
X4269689Y5651195D01*
X4263339Y5650484D01*
X4257903Y5648604D01*
X4252976Y5645505D01*
X4248912Y5641390D01*
X4245813Y5636514D01*
X4243882Y5631027D01*
X4243171Y5624728D01*
X4243171Y5525871D01*
X4243882Y5519521D01*
X4245813Y5514086D01*
X4248912Y5509158D01*
X4252976Y5505094D01*
X4257903Y5501995D01*
X4263694Y5499963D01*
X4267200Y5497830D01*
X4269638Y5494477D01*
X4270451Y5490413D01*
X4270451Y5463184D01*
X4269790Y5459526D01*
X4267860Y5456326D01*
X4264863Y5454091D01*
X4261307Y5453075D01*
X4253280Y5452262D01*
X4247896Y5450382D01*
X4242968Y5447284D01*
X4238904Y5443220D01*
X4237685Y5441340D01*
X4234891Y5438394D01*
X4231132Y5436768D01*
X4227068Y5436768D01*
X4223308Y5438394D01*
X4220514Y5441340D01*
X4219295Y5443220D01*
X4215231Y5447284D01*
X4210304Y5450382D01*
X4204868Y5452313D01*
X4198518Y5453024D01*
X4099661Y5453024D01*
X4093362Y5452313D01*
X4087876Y5450382D01*
X4082999Y5447284D01*
X4078884Y5443220D01*
X4075836Y5438292D01*
X4073906Y5432856D01*
X4073194Y5426506D01*
X4073194Y5317693D01*
X4073906Y5311343D01*
X4075836Y5305907D01*
X4078884Y5300980D01*
X4082999Y5296916D01*
X4087876Y5293817D01*
X4093260Y5291937D01*
X4101337Y5291124D01*
X4104894Y5290108D01*
X4107840Y5287873D01*
X4109821Y5284673D01*
X4110482Y5281015D01*
X4110482Y5128768D01*
X4109720Y5124856D01*
X4107484Y5121605D01*
X4104233Y5119370D01*
X4100322Y5118608D01*
X2972206Y5118608D01*
X2968294Y5119370D01*
X2964992Y5121605D01*
X2963418Y5123180D01*
X2955391Y5128818D01*
X2946450Y5132933D01*
X2937002Y5135473D01*
X2927197Y5136337D01*
X2917393Y5135473D01*
X2907944Y5132933D01*
X2899003Y5128818D01*
X2890977Y5123180D01*
X2884017Y5116220D01*
X2878378Y5108194D01*
X2874264Y5099253D01*
X2871724Y5089804D01*
X2870860Y5080000D01*
X2871724Y5070195D01*
X2874264Y5060746D01*
X2878378Y5051806D01*
X2884017Y5043779D01*
X2890977Y5036820D01*
X2899003Y5031181D01*
X2907944Y5027066D01*
X2917393Y5024526D01*
X2927197Y5023662D01*
X2937002Y5024526D01*
X2946450Y5027066D01*
X2955391Y5031181D01*
X2963418Y5036820D01*
X2964992Y5038394D01*
X2968294Y5040630D01*
X2972206Y5041392D01*
X4104081Y5041392D01*
X4107992Y5040630D01*
X4111294Y5038394D01*
X4112869Y5036820D01*
X4120896Y5031181D01*
X4129836Y5027066D01*
X4139285Y5024526D01*
X4149090Y5023662D01*
X4158894Y5024526D01*
X4168343Y5027066D01*
X4177284Y5031181D01*
X4185310Y5036820D01*
X4186783Y5038293D01*
X4190085Y5040528D01*
X4193997Y5041290D01*
X4780940Y5039969D01*
X4784852Y5039207D01*
X4788103Y5036972D01*
X4789779Y5035346D01*
X4797806Y5029708D01*
X4806746Y5025542D01*
X4816195Y5023002D01*
G37*
G36*
X393700Y5185562D02*
G01*
X398322Y5185664D01*
X421284Y5188051D01*
X443992Y5192369D01*
X466242Y5198618D01*
X487883Y5206644D01*
X508812Y5216499D01*
X528828Y5228031D01*
X547776Y5241239D01*
X565607Y5255971D01*
X582117Y5272125D01*
X597204Y5289600D01*
X610819Y5308295D01*
X622757Y5328107D01*
X633018Y5348782D01*
X641553Y5370271D01*
X648208Y5392369D01*
X653034Y5414975D01*
X655929Y5437886D01*
X656336Y5448300D01*
X393700Y5448300D01*
G37*
G36*
X5473700Y5185562D02*
G01*
X5478322Y5185664D01*
X5501284Y5188051D01*
X5523992Y5192369D01*
X5546242Y5198618D01*
X5567883Y5206644D01*
X5588812Y5216499D01*
X5608828Y5228031D01*
X5627776Y5241239D01*
X5645607Y5255971D01*
X5662117Y5272125D01*
X5677204Y5289600D01*
X5690819Y5308295D01*
X5702757Y5328107D01*
X5713018Y5348782D01*
X5721553Y5370271D01*
X5728208Y5392369D01*
X5733034Y5414975D01*
X5735929Y5437886D01*
X5736336Y5448300D01*
X5473700Y5448300D01*
G37*
G36*
X368300Y5185613D02*
G01*
X368300Y5448300D01*
X105410Y5448300D01*
X107289Y5426405D01*
X111099Y5403646D01*
X116890Y5381244D01*
X124460Y5359450D01*
X133858Y5338318D01*
X144983Y5318099D01*
X157784Y5298846D01*
X172161Y5280710D01*
X187960Y5263896D01*
X205130Y5248402D01*
X223520Y5234432D01*
X243027Y5222036D01*
X263499Y5211368D01*
X284835Y5202377D01*
X306781Y5195265D01*
X329285Y5189982D01*
X352145Y5186629D01*
G37*
G36*
X5448300Y5185613D02*
G01*
X5448300Y5448300D01*
X5185410Y5448300D01*
X5187289Y5426405D01*
X5191099Y5403646D01*
X5196890Y5381244D01*
X5204460Y5359450D01*
X5213858Y5338318D01*
X5224983Y5318099D01*
X5237784Y5298846D01*
X5252161Y5280710D01*
X5267960Y5263896D01*
X5285130Y5248402D01*
X5303520Y5234432D01*
X5323027Y5222036D01*
X5343499Y5211368D01*
X5364835Y5202377D01*
X5386781Y5195265D01*
X5409285Y5189982D01*
X5432145Y5186629D01*
G37*
G36*
X4818735Y5218328D02*
G01*
X4833264Y5218328D01*
X4847691Y5220157D01*
X4861814Y5223764D01*
X4875326Y5229148D01*
X4888077Y5236159D01*
X4899863Y5244693D01*
X4910480Y5254650D01*
X4919776Y5265877D01*
X4927549Y5278170D01*
X4933746Y5291328D01*
X4938268Y5305196D01*
X4940960Y5319471D01*
X4941874Y5334000D01*
X4940960Y5348528D01*
X4938268Y5362803D01*
X4933746Y5376672D01*
X4927549Y5389829D01*
X4919776Y5402122D01*
X4910480Y5413349D01*
X4899863Y5423306D01*
X4888077Y5431840D01*
X4875326Y5438851D01*
X4861814Y5444236D01*
X4847691Y5447842D01*
X4833264Y5449671D01*
X4818735Y5449671D01*
X4804308Y5447842D01*
X4790186Y5444236D01*
X4776673Y5438851D01*
X4763922Y5431840D01*
X4752136Y5423306D01*
X4741519Y5413349D01*
X4732223Y5402122D01*
X4724450Y5389829D01*
X4718253Y5376672D01*
X4713732Y5362803D01*
X4711039Y5348528D01*
X4710125Y5334000D01*
X4711039Y5319471D01*
X4713732Y5305196D01*
X4718253Y5291328D01*
X4724450Y5278170D01*
X4732223Y5265877D01*
X4741519Y5254650D01*
X4752136Y5244693D01*
X4763922Y5236159D01*
X4776673Y5229148D01*
X4790186Y5223764D01*
X4804308Y5220157D01*
G37*
G36*
X4559300Y5219039D02*
G01*
X4559300Y5321300D01*
X4456887Y5321300D01*
X4457039Y5319471D01*
X4459732Y5305196D01*
X4464253Y5291328D01*
X4470450Y5278170D01*
X4478223Y5265877D01*
X4487519Y5254650D01*
X4498136Y5244693D01*
X4509922Y5236159D01*
X4522673Y5229148D01*
X4536186Y5223764D01*
X4550308Y5220157D01*
G37*
G36*
X4584700Y5219039D02*
G01*
X4593691Y5220157D01*
X4607814Y5223764D01*
X4621326Y5229148D01*
X4634077Y5236159D01*
X4645863Y5244693D01*
X4656480Y5254650D01*
X4665776Y5265877D01*
X4673549Y5278170D01*
X4679746Y5291328D01*
X4684268Y5305196D01*
X4686960Y5319471D01*
X4687112Y5321300D01*
X4584700Y5321300D01*
G37*
G36*
X3515461Y5291175D02*
G01*
X3614318Y5291175D01*
X3620668Y5291886D01*
X3626104Y5293817D01*
X3631031Y5296916D01*
X3635095Y5300980D01*
X3636314Y5302859D01*
X3639108Y5305806D01*
X3642868Y5307431D01*
X3646932Y5307431D01*
X3650691Y5305806D01*
X3653485Y5302859D01*
X3654704Y5300980D01*
X3658768Y5296916D01*
X3663696Y5293817D01*
X3669131Y5291886D01*
X3675481Y5291175D01*
X3774338Y5291175D01*
X3780637Y5291886D01*
X3786124Y5293817D01*
X3791000Y5296916D01*
X3795115Y5300980D01*
X3798163Y5305907D01*
X3800094Y5311343D01*
X3800805Y5317693D01*
X3800805Y5426506D01*
X3800094Y5432856D01*
X3798163Y5438292D01*
X3795115Y5443220D01*
X3791000Y5447284D01*
X3786124Y5450382D01*
X3780739Y5452262D01*
X3772662Y5453075D01*
X3769106Y5454091D01*
X3766108Y5456326D01*
X3764178Y5459526D01*
X3763467Y5463184D01*
X3763467Y5489244D01*
X3764178Y5492902D01*
X3766108Y5496052D01*
X3769106Y5498287D01*
X3772662Y5499354D01*
X3780688Y5500116D01*
X3786124Y5501995D01*
X3791000Y5505094D01*
X3795115Y5509158D01*
X3798163Y5514086D01*
X3800094Y5519521D01*
X3800805Y5525871D01*
X3800805Y5624728D01*
X3800094Y5631027D01*
X3798163Y5636514D01*
X3795115Y5641390D01*
X3791000Y5645505D01*
X3786124Y5648604D01*
X3780637Y5650484D01*
X3774338Y5651195D01*
X3685489Y5651195D01*
X3679139Y5650484D01*
X3673703Y5648604D01*
X3668776Y5645505D01*
X3664712Y5641390D01*
X3661613Y5636514D01*
X3659682Y5631027D01*
X3658971Y5624728D01*
X3658971Y5525871D01*
X3659682Y5519521D01*
X3661613Y5514086D01*
X3664712Y5509158D01*
X3668776Y5505094D01*
X3673703Y5501995D01*
X3679494Y5499963D01*
X3683000Y5497830D01*
X3685438Y5494477D01*
X3686251Y5490413D01*
X3686251Y5463184D01*
X3685590Y5459526D01*
X3683660Y5456326D01*
X3680663Y5454091D01*
X3677107Y5453075D01*
X3669080Y5452262D01*
X3663696Y5450382D01*
X3658768Y5447284D01*
X3654704Y5443220D01*
X3653485Y5441340D01*
X3650691Y5438394D01*
X3646932Y5436768D01*
X3642868Y5436768D01*
X3639108Y5438394D01*
X3636314Y5441340D01*
X3635095Y5443220D01*
X3631031Y5447284D01*
X3626104Y5450382D01*
X3620668Y5452313D01*
X3614318Y5453024D01*
X3515461Y5453024D01*
X3509162Y5452313D01*
X3503676Y5450382D01*
X3498799Y5447284D01*
X3494684Y5443220D01*
X3491636Y5438292D01*
X3489706Y5432856D01*
X3488994Y5426506D01*
X3488994Y5420868D01*
X3488232Y5416956D01*
X3485997Y5413705D01*
X3482746Y5411470D01*
X3478834Y5410708D01*
X3461308Y5410708D01*
X3457397Y5411470D01*
X3454095Y5413705D01*
X3452520Y5415280D01*
X3444494Y5420918D01*
X3435553Y5425033D01*
X3426104Y5427573D01*
X3416300Y5428437D01*
X3406495Y5427573D01*
X3397046Y5425033D01*
X3388106Y5420918D01*
X3380079Y5415280D01*
X3373120Y5408320D01*
X3367481Y5400294D01*
X3363366Y5391353D01*
X3360826Y5381904D01*
X3359962Y5372100D01*
X3360826Y5362295D01*
X3363366Y5352846D01*
X3367481Y5343906D01*
X3373120Y5335879D01*
X3380079Y5328920D01*
X3388106Y5323281D01*
X3397046Y5319166D01*
X3406495Y5316626D01*
X3416300Y5315762D01*
X3426104Y5316626D01*
X3435553Y5319166D01*
X3444494Y5323281D01*
X3452520Y5328920D01*
X3454095Y5330494D01*
X3457397Y5332730D01*
X3461308Y5333492D01*
X3478834Y5333492D01*
X3482746Y5332730D01*
X3485997Y5330494D01*
X3488232Y5327243D01*
X3488994Y5323332D01*
X3488994Y5317693D01*
X3489706Y5311343D01*
X3491636Y5305907D01*
X3494684Y5300980D01*
X3498799Y5296916D01*
X3503676Y5293817D01*
X3509162Y5291886D01*
G37*
G36*
X4456887Y5346700D02*
G01*
X4559300Y5346700D01*
X4559300Y5448960D01*
X4550308Y5447842D01*
X4536186Y5444236D01*
X4522673Y5438851D01*
X4509922Y5431840D01*
X4498136Y5423306D01*
X4487519Y5413349D01*
X4478223Y5402122D01*
X4470450Y5389829D01*
X4464253Y5376672D01*
X4459732Y5362803D01*
X4457039Y5348528D01*
G37*
G36*
X4584700Y5346700D02*
G01*
X4687112Y5346700D01*
X4686960Y5348528D01*
X4684268Y5362803D01*
X4679746Y5376672D01*
X4673549Y5389829D01*
X4665776Y5402122D01*
X4656480Y5413349D01*
X4645863Y5423306D01*
X4634077Y5431840D01*
X4621326Y5438851D01*
X4607814Y5444236D01*
X4593691Y5447842D01*
X4584700Y5448960D01*
G37*
G36*
X4818735Y5472328D02*
G01*
X4833264Y5472328D01*
X4847691Y5474157D01*
X4861814Y5477764D01*
X4875326Y5483148D01*
X4888077Y5490159D01*
X4899863Y5498693D01*
X4910480Y5508650D01*
X4919776Y5519877D01*
X4927701Y5532424D01*
X4929987Y5534964D01*
X4932934Y5536590D01*
X4936286Y5537149D01*
X5053990Y5537149D01*
X5058257Y5536184D01*
X5060746Y5535066D01*
X5070195Y5532526D01*
X5080000Y5531662D01*
X5089804Y5532526D01*
X5099253Y5535066D01*
X5108194Y5539181D01*
X5116220Y5544820D01*
X5123180Y5551779D01*
X5128818Y5559806D01*
X5132933Y5568746D01*
X5135473Y5578195D01*
X5136337Y5588000D01*
X5135473Y5597804D01*
X5132933Y5607253D01*
X5128818Y5616194D01*
X5123180Y5624220D01*
X5116220Y5631180D01*
X5108194Y5636818D01*
X5099253Y5640933D01*
X5089804Y5643473D01*
X5080000Y5644337D01*
X5070195Y5643473D01*
X5060746Y5640933D01*
X5058511Y5639917D01*
X5054193Y5638952D01*
X4936236Y5638952D01*
X4932883Y5639511D01*
X4929936Y5641136D01*
X4927650Y5643676D01*
X4919776Y5656122D01*
X4910480Y5667349D01*
X4899863Y5677306D01*
X4888077Y5685840D01*
X4875326Y5692851D01*
X4861814Y5698236D01*
X4847691Y5701842D01*
X4833264Y5703671D01*
X4818735Y5703671D01*
X4804308Y5701842D01*
X4790186Y5698236D01*
X4776673Y5692851D01*
X4763922Y5685840D01*
X4752136Y5677306D01*
X4741519Y5667349D01*
X4732223Y5656122D01*
X4724450Y5643829D01*
X4718253Y5630672D01*
X4713732Y5616803D01*
X4711039Y5602528D01*
X4710125Y5588000D01*
X4711039Y5573471D01*
X4713732Y5559196D01*
X4718253Y5545328D01*
X4724450Y5532170D01*
X4732223Y5519877D01*
X4741519Y5508650D01*
X4752136Y5498693D01*
X4763922Y5490159D01*
X4776673Y5483148D01*
X4790186Y5477764D01*
X4804308Y5474157D01*
G37*
G36*
X4559300Y5473039D02*
G01*
X4559300Y5575300D01*
X4456887Y5575300D01*
X4457039Y5573471D01*
X4459732Y5559196D01*
X4464253Y5545328D01*
X4470450Y5532170D01*
X4478223Y5519877D01*
X4487519Y5508650D01*
X4498136Y5498693D01*
X4509922Y5490159D01*
X4522673Y5483148D01*
X4536186Y5477764D01*
X4550308Y5474157D01*
G37*
G36*
X4584700Y5473039D02*
G01*
X4593691Y5474157D01*
X4607814Y5477764D01*
X4621326Y5483148D01*
X4634077Y5490159D01*
X4645863Y5498693D01*
X4656480Y5508650D01*
X4665776Y5519877D01*
X4673549Y5532170D01*
X4679746Y5545328D01*
X4684268Y5559196D01*
X4686960Y5573471D01*
X4687112Y5575300D01*
X4584700Y5575300D01*
G37*
G36*
X393700Y5473700D02*
G01*
X656336Y5473700D01*
X655929Y5484063D01*
X653034Y5507024D01*
X648208Y5529630D01*
X641553Y5551728D01*
X633018Y5573217D01*
X622757Y5593892D01*
X610819Y5613654D01*
X597204Y5632348D01*
X582117Y5649874D01*
X565607Y5666028D01*
X547776Y5680760D01*
X528828Y5693968D01*
X508812Y5705500D01*
X487883Y5715355D01*
X466242Y5723382D01*
X443992Y5729630D01*
X421284Y5733948D01*
X398322Y5736336D01*
X393700Y5736437D01*
G37*
G36*
X5473700Y5473700D02*
G01*
X5736336Y5473700D01*
X5735929Y5484063D01*
X5733034Y5507024D01*
X5728208Y5529630D01*
X5721553Y5551728D01*
X5713018Y5573217D01*
X5702757Y5593892D01*
X5690819Y5613654D01*
X5677204Y5632348D01*
X5662117Y5649874D01*
X5645607Y5666028D01*
X5627776Y5680760D01*
X5608828Y5693968D01*
X5588812Y5705500D01*
X5567883Y5715355D01*
X5546242Y5723382D01*
X5523992Y5729630D01*
X5501284Y5733948D01*
X5478322Y5736336D01*
X5473700Y5736437D01*
G37*
G36*
X5185410Y5473700D02*
G01*
X5448300Y5473700D01*
X5448300Y5736386D01*
X5432145Y5735370D01*
X5409285Y5732018D01*
X5386781Y5726734D01*
X5364835Y5719572D01*
X5343499Y5710631D01*
X5323027Y5699912D01*
X5303520Y5687568D01*
X5285130Y5673598D01*
X5267960Y5658104D01*
X5252161Y5641289D01*
X5237784Y5623153D01*
X5224983Y5603900D01*
X5213858Y5583682D01*
X5204460Y5562549D01*
X5196890Y5540756D01*
X5191099Y5518353D01*
X5187289Y5495594D01*
G37*
G36*
X105410Y5473700D02*
G01*
X368300Y5473700D01*
X368300Y5736386D01*
X352145Y5735370D01*
X329285Y5732018D01*
X306781Y5726734D01*
X284835Y5719572D01*
X263499Y5710631D01*
X243027Y5699912D01*
X223520Y5687568D01*
X205130Y5673598D01*
X187960Y5658104D01*
X172161Y5641289D01*
X157784Y5623153D01*
X144983Y5603900D01*
X133858Y5583682D01*
X124460Y5562549D01*
X116890Y5540756D01*
X111099Y5518353D01*
X107289Y5495594D01*
G37*
G36*
X3515461Y5499404D02*
G01*
X3547211Y5499404D01*
X3547211Y5562600D01*
X3488994Y5562600D01*
X3488994Y5525871D01*
X3489706Y5519521D01*
X3491585Y5514086D01*
X3494684Y5509158D01*
X3498799Y5505094D01*
X3503676Y5501995D01*
X3509162Y5500116D01*
G37*
G36*
X4099661Y5499404D02*
G01*
X4131411Y5499404D01*
X4131411Y5562600D01*
X4073194Y5562600D01*
X4073194Y5525871D01*
X4073906Y5519521D01*
X4075785Y5514086D01*
X4078884Y5509158D01*
X4082999Y5505094D01*
X4087876Y5501995D01*
X4093362Y5500116D01*
G37*
G36*
X3572611Y5499404D02*
G01*
X3604310Y5499404D01*
X3610660Y5500116D01*
X3616096Y5501995D01*
X3621024Y5505094D01*
X3625087Y5509158D01*
X3628186Y5514086D01*
X3630066Y5519521D01*
X3630777Y5525871D01*
X3630777Y5562600D01*
X3572611Y5562600D01*
G37*
G36*
X4156811Y5499404D02*
G01*
X4188510Y5499404D01*
X4194860Y5500116D01*
X4200296Y5501995D01*
X4205224Y5505094D01*
X4209288Y5509158D01*
X4212386Y5514086D01*
X4214266Y5519521D01*
X4214977Y5525871D01*
X4214977Y5562600D01*
X4156811Y5562600D01*
G37*
G36*
X4073194Y5588000D02*
G01*
X4131411Y5588000D01*
X4131411Y5651195D01*
X4099661Y5651195D01*
X4093362Y5650484D01*
X4087876Y5648604D01*
X4082999Y5645505D01*
X4078884Y5641390D01*
X4075785Y5636514D01*
X4073906Y5631027D01*
X4073194Y5624728D01*
G37*
G36*
X3572611Y5588000D02*
G01*
X3630777Y5588000D01*
X3630777Y5624728D01*
X3630066Y5631027D01*
X3628186Y5636514D01*
X3625087Y5641390D01*
X3621024Y5645505D01*
X3616096Y5648604D01*
X3610660Y5650484D01*
X3604310Y5651195D01*
X3572611Y5651195D01*
G37*
G36*
X3488994Y5588000D02*
G01*
X3547211Y5588000D01*
X3547211Y5651195D01*
X3515461Y5651195D01*
X3509162Y5650484D01*
X3503676Y5648604D01*
X3498799Y5645505D01*
X3494684Y5641390D01*
X3491585Y5636514D01*
X3489706Y5631027D01*
X3488994Y5624728D01*
G37*
G36*
X4156811Y5588000D02*
G01*
X4214977Y5588000D01*
X4214977Y5624728D01*
X4214266Y5631027D01*
X4212386Y5636514D01*
X4209288Y5641390D01*
X4205224Y5645505D01*
X4200296Y5648604D01*
X4194860Y5650484D01*
X4188510Y5651195D01*
X4156811Y5651195D01*
G37*
G36*
X443179Y3429050D02*
G01*
X512978Y3429050D01*
X512978Y3511092D01*
X469646Y3511092D01*
X463296Y3510381D01*
X457860Y3508501D01*
X452932Y3505403D01*
X448868Y3501339D01*
X445770Y3496411D01*
X443890Y3490976D01*
X443179Y3484626D01*
G37*

%LPD*%
G36*
X2921000Y3240125D02*
G01*
X2916936Y3240938D01*
X2913532Y3243376D01*
X2911398Y3246882D01*
X2910433Y3249676D01*
X2909874Y3253028D01*
X2910433Y3256381D01*
X2911398Y3259175D01*
X2913532Y3262731D01*
X2916936Y3265119D01*
X2921000Y3265982D01*
X2925064Y3265119D01*
X2928467Y3262731D01*
X2930601Y3259175D01*
X2931566Y3256381D01*
X2932125Y3253028D01*
X2931566Y3249676D01*
X2930601Y3246882D01*
X2928467Y3243376D01*
X2925064Y3240938D01*
G37*

%LPD*%
D10*
X1505506Y4065998D02*
G01*
X1685310Y3886194D01*
X1913887Y3886194D01*
X2073882Y3886194D02*
G01*
X2078885Y3881191D01*
X2078885Y3670294D01*
X1505506Y2288001D02*
G01*
X1685310Y2108197D01*
X1913887Y2108197D01*
X2073882Y2108197D02*
G01*
X2078885Y2103193D01*
X2078885Y1892297D01*
X2985000Y3276897D02*
G01*
X4466074Y3276897D01*
X4533892Y3209079D01*
X2985002Y3326782D02*
G01*
X4451591Y3326782D01*
X4533889Y3409081D01*
X4314085Y5575292D02*
G01*
X4309074Y5570280D01*
X4309074Y5372092D01*
X4149084Y5372092D02*
G01*
X4149084Y5079979D01*
X4149084Y5079992D02*
G01*
X4825992Y5078465D01*
X2920842Y3387996D02*
G01*
X2920842Y3543292D01*
X2927189Y3543292D01*
X2927192Y3543292D02*
G01*
X2927192Y3644892D01*
X2927192Y5079989D02*
G01*
X4149079Y5079989D01*
X4047075Y2423078D02*
G01*
X4047075Y2324094D01*
X3047992Y508043D02*
G01*
X4046976Y508043D01*
X2856984Y3276897D02*
G01*
X1371846Y3276897D01*
X1305552Y3210603D01*
X1305552Y2538011D01*
X2856984Y3226859D02*
G01*
X1398008Y3226859D01*
X1358892Y3187743D01*
X1358892Y2667043D01*
X1487924Y2538011D01*
X1505450Y2538011D01*
X1305552Y4316011D02*
G01*
X1305552Y4607603D01*
X1358892Y4660943D01*
X2552692Y4660943D01*
X2616192Y4597443D01*
X2616192Y3416343D01*
X2655816Y3376719D01*
X2856984Y3376719D01*
X1505450Y4316011D02*
G01*
X1475224Y4316011D01*
X1358892Y4432343D01*
X1358892Y4584743D01*
X1384292Y4610143D01*
X2527292Y4610143D01*
X2565392Y4572043D01*
X2565392Y3390943D01*
X2629654Y3326681D01*
X2856984Y3326681D01*
X4157083Y2423078D02*
G01*
X4157083Y2324094D01*
X5079992Y2324143D02*
G01*
X4157210Y2324143D01*
X2985002Y3376795D02*
G01*
X3021197Y3376795D01*
X3073394Y3428992D01*
X2985002Y3226782D02*
G01*
X3034304Y3226782D01*
X3073394Y3187692D01*
X3073392Y2984492D02*
G01*
X3073392Y2984492D01*
X2793992Y2984492D01*
X3213092Y2882892D02*
G01*
X2539992Y2882892D01*
X2539992Y2882892D01*
X3073392Y3429043D02*
G01*
X3098741Y3454392D01*
X3213092Y3454392D01*
D11*
X4825992Y5588043D02*
G01*
X5079992Y5588043D01*
X3588684Y2463792D02*
G01*
X3588684Y2463792D01*
X3428992Y2463792D01*
X3428992Y2031992D02*
G01*
X5079992Y2031992D01*
X5079992Y2031992D01*
X3746492Y2336794D02*
G01*
X3588684Y2336794D01*
X3588684Y2590794D02*
G01*
X3746492Y2590794D01*
X3746492Y2959094D02*
G01*
X4533889Y2959094D01*
D10*
X3301992Y2590794D02*
G01*
X3040705Y2590794D01*
X2797782Y2209797D02*
G01*
X3040705Y2209794D01*
D11*
X3746492Y2959092D02*
G01*
X3613294Y2959094D01*
X3428992Y2031992D02*
G01*
X3257692Y2031992D01*
X3257692Y2031992D01*
D10*
X2048888Y2504485D02*
G01*
X2158994Y2504485D01*
X2158992Y4000543D02*
G01*
X1981192Y4000543D01*
X1938774Y4042707D01*
X1938774Y4099349D01*
X2048883Y4099476D02*
G01*
X2058967Y4089392D01*
X2273292Y4089392D01*
X2285992Y2324092D02*
G01*
X2051748Y2324092D01*
X2049007Y2321351D01*
X2412992Y2235192D02*
G01*
X1993892Y2235192D01*
X1938875Y2290208D01*
X1938875Y2321476D01*
X4157083Y2606085D02*
G01*
X4157083Y2700901D01*
X4127492Y2730492D01*
X2412992Y2730492D01*
X4093179Y3759194D02*
G01*
X4098183Y3764198D01*
X4098183Y3962394D01*
X3746492Y3759192D02*
G01*
X3933184Y3759194D01*
X3729885Y5575292D02*
G01*
X3724874Y5570280D01*
X3724874Y5372092D01*
X3564884Y5372092D02*
G01*
X3416292Y5372092D01*
D11*
X1034514Y3015000D02*
G01*
X849111Y3200402D01*
X718926Y3200402D01*
X1034514Y3588986D02*
G01*
X861829Y3416302D01*
X718926Y3416302D01*
D10*
X2285992Y4940343D02*
G01*
X3416292Y4940292D01*
X5079992Y4940343D01*
X5079992Y4940343D01*
D12*
G01*
X718926Y3416296D03*
G01*
X525673Y3416296D03*
G01*
X718926Y3200396D03*
G01*
X525673Y3200396D03*
D13*
G01*
X3564882Y5372092D03*
G01*
X3724876Y5372092D03*
D14*
G01*
X3559878Y5575292D03*
G01*
X3729880Y5575292D03*
D13*
G01*
X3933182Y3759192D03*
G01*
X4093176Y3759192D03*
D14*
G01*
X3928178Y3962392D03*
G01*
X4098180Y3962392D03*
D13*
G01*
X2637782Y2209792D03*
G01*
X2797776Y2209792D03*
D15*
G01*
X3613294Y2959092D03*
G01*
X3473289Y2959092D03*
G01*
X3257694Y2031992D03*
G01*
X3117689Y2031992D03*
D16*
G01*
X2048908Y2321476D03*
G01*
X2048883Y2504483D03*
G01*
X1938901Y2504483D03*
G01*
X1938901Y2321476D03*
G01*
X2048883Y4099476D03*
G01*
X2048883Y4282483D03*
G01*
X1938901Y4282483D03*
G01*
X1938901Y4099476D03*
D17*
G01*
X3588682Y2209792D03*
G01*
X3588682Y2336792D03*
G01*
X3588682Y2463792D03*
G01*
X3588682Y2590792D03*
G01*
X3040702Y2209792D03*
G01*
X3040702Y2336792D03*
G01*
X3040702Y2463792D03*
G01*
X3040702Y2590792D03*
D18*
G01*
X2857009Y3376795D03*
D19*
G01*
X2857009Y3326782D03*
G01*
X2857009Y3276795D03*
D18*
G01*
X2856984Y3226782D03*
D20*
G01*
X2920992Y3215987D03*
D18*
G01*
X2985000Y3226782D03*
D19*
G01*
X2985000Y3276795D03*
G01*
X2985000Y3326782D03*
D18*
G01*
X2985000Y3376795D03*
D20*
G01*
X2920839Y3387996D03*
D14*
G01*
X1908878Y3670292D03*
G01*
X2078880Y3670292D03*
D13*
G01*
X1913882Y3886192D03*
G01*
X2073876Y3886192D03*
G01*
X1913882Y2108192D03*
G01*
X2073876Y2108192D03*
D14*
G01*
X1908878Y1892292D03*
G01*
X2078880Y1892292D03*
G01*
X4144078Y5575292D03*
G01*
X4314080Y5575292D03*
D13*
G01*
X4149082Y5372092D03*
G01*
X4309076Y5372092D03*
D15*
G01*
X3067194Y3543292D03*
G01*
X2927189Y3543292D03*
D16*
G01*
X4157083Y2423076D03*
G01*
X4157083Y2606083D03*
G01*
X4047075Y2606083D03*
G01*
X4047075Y2423076D03*
D21*
G01*
X1034508Y4792997D03*
G01*
X1034508Y3588986D03*
D22*
G01*
X1305501Y4065998D03*
G01*
X1305501Y4315985D03*
G01*
X1505501Y4315985D03*
G01*
X1505501Y4065998D03*
D21*
G01*
X1034508Y3014997D03*
G01*
X1034508Y1810986D03*
D22*
G01*
X1305501Y2287998D03*
G01*
X1305501Y2537985D03*
G01*
X1505501Y2537985D03*
G01*
X1505501Y2287998D03*
D23*
G01*
X4533892Y2959092D03*
G01*
X4533892Y3209079D03*
G01*
X4533892Y3409078D03*
G01*
X4533892Y3659090D03*
D24*
G01*
X4804884Y2652082D03*
G01*
X4804884Y3966100D03*
D25*
G01*
X380992Y5460992D03*
G01*
X380992Y380992D03*
G01*
X5460992Y380992D03*
G01*
X5460992Y5460992D03*
D26*
G01*
X3301992Y914392D03*
G01*
X2539992Y914392D03*
G01*
X2793992Y914392D03*
G01*
X3047992Y914392D03*
D27*
G01*
X4571992Y5587992D03*
G01*
X4571992Y5333992D03*
G01*
X4825992Y5333992D03*
G01*
X4825992Y5587992D03*
D28*
G01*
X4825992Y5078493D03*
G01*
X4149082Y5079992D03*
G01*
X2927189Y3644892D03*
G01*
X2927189Y5079992D03*
G01*
X4047075Y2324092D03*
G01*
X4047075Y507992D03*
G01*
X3047992Y508043D03*
G01*
X1777992Y3670292D03*
G01*
X1777992Y1892292D03*
G01*
X3962392Y2603492D03*
G01*
X4157083Y2324092D03*
G01*
X5079992Y5587992D03*
G01*
X5079992Y2324092D03*
G01*
X3073392Y3187692D03*
G01*
X2717792Y3162292D03*
G01*
X2717792Y3441692D03*
G01*
X2870192Y3111492D03*
G01*
X2984492Y3111492D03*
G01*
X3276592Y3200392D03*
G01*
X2793992Y2984492D03*
G01*
X3073392Y2984492D03*
G01*
X2539992Y2882892D03*
G01*
X3213092Y2882892D03*
G01*
X3213092Y3454392D03*
G01*
X3149592Y3200392D03*
G01*
X3149592Y3390892D03*
G01*
X3276592Y3390892D03*
G01*
X5079992Y2031992D03*
G01*
X3428992Y2463792D03*
G01*
X3428992Y2031992D03*
G01*
X3746492Y2590792D03*
G01*
X3746492Y2336792D03*
G01*
X3746492Y2959092D03*
G01*
X3301992Y2590792D03*
G01*
X2158992Y2504483D03*
G01*
X2158992Y4000492D03*
G01*
X5079992Y4940292D03*
G01*
X2285992Y4089392D03*
G01*
X2285992Y4940292D03*
G01*
X2285992Y2324092D03*
G01*
X2349492Y3340092D03*
G01*
X2349492Y3162292D03*
G01*
X2095492Y3162292D03*
G01*
X2095492Y3340092D03*
G01*
X2349492Y4724392D03*
G01*
X2222492Y4724392D03*
G01*
X2222492Y4546592D03*
G01*
X2349492Y4546592D03*
G01*
X2412992Y2730492D03*
G01*
X2412992Y2235192D03*
G01*
X2222492Y3162292D03*
G01*
X2222492Y3340092D03*
G01*
X3746492Y3759192D03*
G01*
X3682992Y3390892D03*
G01*
X3682992Y3200392D03*
G01*
X3809992Y3200392D03*
G01*
X3809992Y3390892D03*
G01*
X3416292Y5372092D03*
G01*
X3416292Y4940292D03*
M02*
