G04 Layer: BottomLayer*
G04 Panelize: , Column: 2, Row: 2, Board Size: 58.42mm x 58.42mm, Panelized Board Size: 118.84mm x 118.84mm*
G04 EasyEDA v6.5.34, 2023-10-07 22:52:34*
G04 b7e43a5b2ceb43bf805b1727b84d9839,5a6b42c53f6a479593ecc07194224c93,10*
G04 Gerber Generator version 0.2*
G04 Scale: 100 percent, Rotated: No, Reflected: No *
G04 Dimensions in millimeters *
G04 leading zeros omitted , absolute positions ,4 integer and 5 decimal *
%FSLAX45Y45*%
%MOMM*%

%ADD10C,0.1524*%
%ADD11C,0.5000*%
%ADD12C,0.2540*%
%ADD13C,5.0000*%
%ADD14C,1.8000*%
%ADD15C,2.0000*%
%ADD16C,0.6096*%
%ADD17C,0.0182*%

%LPD*%
G36*
X5805932Y25908D02*
G01*
X36068Y26416D01*
X32156Y27178D01*
X28905Y29413D01*
X26670Y32664D01*
X25908Y36576D01*
X25908Y5805932D01*
X26670Y5809843D01*
X28905Y5813094D01*
X32156Y5815330D01*
X36068Y5816092D01*
X2555240Y5816092D01*
X2559151Y5815330D01*
X2562402Y5813094D01*
X2564638Y5809843D01*
X2565400Y5805932D01*
X2566162Y5809843D01*
X2568397Y5813094D01*
X2571648Y5815330D01*
X2575560Y5816092D01*
X5805932Y5816092D01*
X5809843Y5815330D01*
X5813094Y5813094D01*
X5815330Y5809843D01*
X5816092Y5805932D01*
X5816092Y36068D01*
X5815330Y32207D01*
X5813094Y28905D01*
X5809843Y26670D01*
G37*

%LPC*%
G36*
X4584700Y5600700D02*
G01*
X4687112Y5600700D01*
X4686960Y5602528D01*
X4684268Y5616803D01*
X4679746Y5630672D01*
X4673549Y5643829D01*
X4665776Y5656122D01*
X4656480Y5667349D01*
X4645863Y5677306D01*
X4634077Y5685840D01*
X4621326Y5692851D01*
X4607814Y5698236D01*
X4593691Y5701842D01*
X4584700Y5702960D01*
G37*
G36*
X393700Y105562D02*
G01*
X398322Y105664D01*
X421284Y108051D01*
X443992Y112369D01*
X466242Y118618D01*
X487934Y126644D01*
X508812Y136499D01*
X528828Y148031D01*
X547827Y161239D01*
X565607Y175971D01*
X582117Y192125D01*
X597204Y209600D01*
X610819Y228295D01*
X622757Y248107D01*
X633018Y268782D01*
X641553Y290271D01*
X648208Y312369D01*
X653034Y334975D01*
X655929Y357936D01*
X656336Y368300D01*
X393700Y368300D01*
G37*
G36*
X5448300Y105613D02*
G01*
X5448300Y368300D01*
X5185410Y368300D01*
X5187289Y346405D01*
X5191150Y323646D01*
X5196890Y301244D01*
X5204460Y279450D01*
X5213858Y258317D01*
X5224983Y238099D01*
X5237784Y218846D01*
X5252161Y200710D01*
X5267960Y183896D01*
X5285130Y168402D01*
X5303520Y154432D01*
X5323027Y142087D01*
X5343499Y131368D01*
X5364835Y122428D01*
X5386781Y115265D01*
X5409285Y109982D01*
X5432145Y106629D01*
G37*
G36*
X368300Y105613D02*
G01*
X368300Y368300D01*
X105410Y368300D01*
X107289Y346405D01*
X111150Y323646D01*
X116890Y301244D01*
X124460Y279450D01*
X133858Y258317D01*
X144983Y238099D01*
X157784Y218846D01*
X172161Y200710D01*
X187960Y183896D01*
X205130Y168402D01*
X223520Y154432D01*
X243027Y142087D01*
X263499Y131368D01*
X284835Y122428D01*
X306781Y115265D01*
X329285Y109982D01*
X352145Y106629D01*
G37*
G36*
X393700Y393700D02*
G01*
X656336Y393700D01*
X655929Y404063D01*
X653034Y427024D01*
X648208Y449630D01*
X641553Y471728D01*
X633018Y493217D01*
X622757Y513892D01*
X610819Y533704D01*
X597204Y552348D01*
X582117Y569874D01*
X565607Y586028D01*
X547827Y600760D01*
X528828Y613968D01*
X508812Y625500D01*
X487934Y635355D01*
X466242Y643382D01*
X443992Y649630D01*
X421284Y653948D01*
X398322Y656336D01*
X393700Y656437D01*
G37*
G36*
X5473700Y393700D02*
G01*
X5736336Y393700D01*
X5735929Y404063D01*
X5733034Y427024D01*
X5728208Y449630D01*
X5721553Y471728D01*
X5713018Y493217D01*
X5702757Y513892D01*
X5690819Y533704D01*
X5677204Y552348D01*
X5662117Y569874D01*
X5645607Y586028D01*
X5627827Y600760D01*
X5608828Y613968D01*
X5588812Y625500D01*
X5567934Y635355D01*
X5546242Y643382D01*
X5523992Y649630D01*
X5501284Y653948D01*
X5478322Y656336D01*
X5473700Y656437D01*
G37*
G36*
X5185410Y393700D02*
G01*
X5448300Y393700D01*
X5448300Y656386D01*
X5432145Y655370D01*
X5409285Y652018D01*
X5386781Y646734D01*
X5364835Y639572D01*
X5343499Y630631D01*
X5323027Y619912D01*
X5303520Y607568D01*
X5285130Y593598D01*
X5267960Y578104D01*
X5252161Y561289D01*
X5237784Y543153D01*
X5224983Y523900D01*
X5213858Y503682D01*
X5204460Y482549D01*
X5196890Y460756D01*
X5191150Y438353D01*
X5187289Y415594D01*
G37*
G36*
X105410Y393700D02*
G01*
X368300Y393700D01*
X368300Y656386D01*
X352145Y655370D01*
X329285Y652018D01*
X306781Y646734D01*
X284835Y639572D01*
X263499Y630631D01*
X243027Y619912D01*
X223520Y607568D01*
X205130Y593598D01*
X187960Y578104D01*
X172161Y561289D01*
X157784Y543153D01*
X144983Y523900D01*
X133858Y503682D01*
X124460Y482549D01*
X116890Y460756D01*
X111150Y438353D01*
X107289Y415594D01*
G37*
G36*
X2379218Y540562D02*
G01*
X2389022Y541426D01*
X2398471Y543966D01*
X2407412Y548081D01*
X2415438Y553720D01*
X2422398Y560679D01*
X2428036Y568706D01*
X2432151Y577646D01*
X2434691Y587095D01*
X2435555Y596900D01*
X2434691Y606704D01*
X2432151Y616153D01*
X2428036Y625094D01*
X2422398Y633120D01*
X2420823Y634695D01*
X2418588Y637997D01*
X2417826Y641908D01*
X2417826Y822299D01*
X2418588Y826211D01*
X2420823Y829513D01*
X2426004Y834694D01*
X2429306Y836930D01*
X2433218Y837692D01*
X3330549Y837692D01*
X3334156Y837031D01*
X3337306Y835101D01*
X3339592Y832154D01*
X3340658Y828598D01*
X3340354Y824890D01*
X3339744Y822604D01*
X3338880Y812800D01*
X3339744Y802995D01*
X3340354Y800709D01*
X3340658Y797001D01*
X3339592Y793445D01*
X3337306Y790498D01*
X3334156Y788568D01*
X3330549Y787908D01*
X2678226Y787908D01*
X2674315Y788670D01*
X2671013Y790905D01*
X2669438Y792480D01*
X2661412Y798118D01*
X2652471Y802233D01*
X2643022Y804773D01*
X2633218Y805637D01*
X2623413Y804773D01*
X2613964Y802233D01*
X2605024Y798118D01*
X2596997Y792480D01*
X2590038Y785520D01*
X2584399Y777494D01*
X2580284Y768553D01*
X2577744Y759104D01*
X2576880Y749300D01*
X2577744Y739495D01*
X2580284Y730046D01*
X2584399Y721106D01*
X2590038Y713079D01*
X2596997Y706120D01*
X2605024Y700481D01*
X2613964Y696366D01*
X2623413Y693826D01*
X2633218Y692962D01*
X2643022Y693826D01*
X2652471Y696366D01*
X2661412Y700481D01*
X2669438Y706120D01*
X2671013Y707694D01*
X2674315Y709930D01*
X2678226Y710692D01*
X4603191Y710692D01*
X4607102Y709930D01*
X4610404Y707694D01*
X4611979Y706120D01*
X4620006Y700481D01*
X4628946Y696366D01*
X4638395Y693826D01*
X4648200Y692962D01*
X4658004Y693826D01*
X4667453Y696366D01*
X4676394Y700481D01*
X4684420Y706120D01*
X4691380Y713079D01*
X4697018Y721106D01*
X4701133Y730046D01*
X4703673Y739495D01*
X4704537Y749300D01*
X4703673Y759104D01*
X4703064Y761390D01*
X4702759Y765098D01*
X4703826Y768654D01*
X4706112Y771601D01*
X4709261Y773531D01*
X4712868Y774192D01*
X4857191Y774192D01*
X4861102Y773430D01*
X4864404Y771194D01*
X4865979Y769620D01*
X4874006Y763981D01*
X4882946Y759866D01*
X4892395Y757326D01*
X4902200Y756462D01*
X4912004Y757326D01*
X4921453Y759866D01*
X4930394Y763981D01*
X4938420Y769620D01*
X4945380Y776579D01*
X4951018Y784606D01*
X4955133Y793546D01*
X4957673Y802995D01*
X4958537Y812800D01*
X4957673Y822604D01*
X4955133Y832053D01*
X4951018Y840994D01*
X4945380Y849020D01*
X4938420Y855980D01*
X4930394Y861618D01*
X4921453Y865733D01*
X4912004Y868273D01*
X4902200Y869137D01*
X4892395Y868273D01*
X4882946Y865733D01*
X4874006Y861618D01*
X4865979Y855980D01*
X4864404Y854405D01*
X4861102Y852169D01*
X4857191Y851408D01*
X4585868Y851408D01*
X4582261Y852068D01*
X4579112Y853998D01*
X4576826Y856945D01*
X4575759Y860501D01*
X4576064Y864209D01*
X4576673Y866495D01*
X4577537Y876300D01*
X4576673Y886104D01*
X4576064Y888390D01*
X4575759Y892098D01*
X4576826Y895654D01*
X4579112Y898601D01*
X4582261Y900531D01*
X4585868Y901192D01*
X4730191Y901192D01*
X4734102Y900430D01*
X4737404Y898194D01*
X4738979Y896619D01*
X4747006Y890981D01*
X4755946Y886866D01*
X4765395Y884326D01*
X4775200Y883462D01*
X4785004Y884326D01*
X4794453Y886866D01*
X4803394Y890981D01*
X4811420Y896619D01*
X4818380Y903579D01*
X4824018Y911606D01*
X4828133Y920546D01*
X4830673Y929995D01*
X4831537Y939800D01*
X4830673Y949604D01*
X4828133Y959053D01*
X4824018Y967994D01*
X4818380Y976020D01*
X4811420Y982980D01*
X4803394Y988618D01*
X4794453Y992733D01*
X4785004Y995273D01*
X4775200Y996137D01*
X4765395Y995273D01*
X4755946Y992733D01*
X4747006Y988618D01*
X4738979Y982980D01*
X4737404Y981405D01*
X4734102Y979169D01*
X4730191Y978408D01*
X3694226Y978408D01*
X3690315Y979169D01*
X3687013Y981405D01*
X3685438Y982980D01*
X3677412Y988618D01*
X3668471Y992733D01*
X3659022Y995273D01*
X3649218Y996137D01*
X3639413Y995273D01*
X3629964Y992733D01*
X3621024Y988618D01*
X3612997Y982980D01*
X3606037Y976020D01*
X3600399Y967994D01*
X3596284Y959053D01*
X3593744Y949604D01*
X3592880Y939800D01*
X3593744Y929995D01*
X3594354Y927709D01*
X3594658Y924001D01*
X3593592Y920445D01*
X3591306Y917498D01*
X3588156Y915568D01*
X3584549Y914908D01*
X2413508Y914908D01*
X2405481Y914095D01*
X2398268Y911910D01*
X2391562Y908354D01*
X2385364Y903224D01*
X2352294Y870153D01*
X2347163Y863955D01*
X2343607Y857250D01*
X2341422Y850036D01*
X2340610Y842010D01*
X2340610Y641908D01*
X2339848Y637997D01*
X2337612Y634695D01*
X2336038Y633120D01*
X2330399Y625094D01*
X2326284Y616153D01*
X2323744Y606704D01*
X2322880Y596900D01*
X2323744Y587095D01*
X2326284Y577646D01*
X2330399Y568706D01*
X2336038Y560679D01*
X2342997Y553720D01*
X2351024Y548081D01*
X2359964Y543966D01*
X2369413Y541426D01*
G37*
G36*
X3649218Y1404162D02*
G01*
X3659022Y1405026D01*
X3668471Y1407566D01*
X3677412Y1411681D01*
X3685438Y1417320D01*
X3692398Y1424279D01*
X3698036Y1432306D01*
X3702151Y1441246D01*
X3704691Y1450695D01*
X3705555Y1460500D01*
X3704691Y1470304D01*
X3702151Y1479753D01*
X3696258Y1491996D01*
X3695801Y1495044D01*
X3695801Y2082292D01*
X3696766Y2086610D01*
X3697833Y2088946D01*
X3700373Y2098395D01*
X3701237Y2108200D01*
X3700373Y2118004D01*
X3697833Y2127453D01*
X3693718Y2136394D01*
X3688079Y2144420D01*
X3681120Y2151380D01*
X3673094Y2157018D01*
X3664153Y2161133D01*
X3654704Y2163673D01*
X3644900Y2164537D01*
X3635095Y2163673D01*
X3625646Y2161133D01*
X3616706Y2157018D01*
X3608679Y2151380D01*
X3601720Y2144420D01*
X3596081Y2136394D01*
X3591966Y2127453D01*
X3589426Y2118004D01*
X3588562Y2108200D01*
X3589426Y2098395D01*
X3591966Y2088946D01*
X3593033Y2086610D01*
X3593998Y2082292D01*
X3593998Y1472641D01*
X3592880Y1460449D01*
X3593744Y1450695D01*
X3596284Y1441246D01*
X3600399Y1432306D01*
X3606037Y1424279D01*
X3612997Y1417320D01*
X3621024Y1411681D01*
X3629964Y1407566D01*
X3639413Y1405026D01*
G37*
G36*
X2633218Y1404162D02*
G01*
X2643022Y1405026D01*
X2652471Y1407566D01*
X2661412Y1411681D01*
X2669438Y1417320D01*
X2676398Y1424279D01*
X2682036Y1432306D01*
X2686151Y1441246D01*
X2688691Y1450695D01*
X2689555Y1460500D01*
X2688691Y1470304D01*
X2686151Y1479753D01*
X2680258Y1491996D01*
X2679801Y1495044D01*
X2679801Y2082292D01*
X2680766Y2086610D01*
X2681833Y2088946D01*
X2684373Y2098395D01*
X2685237Y2108200D01*
X2684373Y2118004D01*
X2681833Y2127453D01*
X2677718Y2136394D01*
X2672080Y2144420D01*
X2665120Y2151380D01*
X2657094Y2157018D01*
X2648153Y2161133D01*
X2638704Y2163673D01*
X2628900Y2164537D01*
X2619095Y2163673D01*
X2609646Y2161133D01*
X2600706Y2157018D01*
X2592679Y2151380D01*
X2585720Y2144420D01*
X2580081Y2136394D01*
X2575966Y2127453D01*
X2573426Y2118004D01*
X2572562Y2108200D01*
X2573426Y2098395D01*
X2575966Y2088946D01*
X2577033Y2086610D01*
X2577998Y2082292D01*
X2577998Y1472641D01*
X2576880Y1460449D01*
X2577744Y1450695D01*
X2580284Y1441246D01*
X2584399Y1432306D01*
X2590038Y1424279D01*
X2596997Y1417320D01*
X2605024Y1411681D01*
X2613964Y1407566D01*
X2623413Y1405026D01*
G37*
G36*
X2379218Y1404162D02*
G01*
X2389022Y1405026D01*
X2398471Y1407566D01*
X2407412Y1411681D01*
X2415438Y1417320D01*
X2422398Y1424279D01*
X2428036Y1432306D01*
X2432151Y1441246D01*
X2434691Y1450695D01*
X2435555Y1460500D01*
X2434691Y1470304D01*
X2432151Y1479753D01*
X2426258Y1491996D01*
X2425801Y1495044D01*
X2425801Y2082292D01*
X2426766Y2086610D01*
X2427833Y2088946D01*
X2430373Y2098395D01*
X2431237Y2108200D01*
X2430373Y2118004D01*
X2427833Y2127453D01*
X2423718Y2136394D01*
X2418080Y2144420D01*
X2411120Y2151380D01*
X2403094Y2157018D01*
X2394153Y2161133D01*
X2384704Y2163673D01*
X2374900Y2164537D01*
X2365095Y2163673D01*
X2355646Y2161133D01*
X2346706Y2157018D01*
X2338679Y2151380D01*
X2331720Y2144420D01*
X2326081Y2136394D01*
X2322525Y2128672D01*
X2320493Y2125776D01*
X2275687Y2080971D01*
X2272385Y2078786D01*
X2268524Y2078024D01*
X1006856Y2078024D01*
X1003096Y2078736D01*
X999845Y2080818D01*
X997610Y2084019D01*
X996899Y2085593D01*
X989025Y2098598D01*
X979627Y2110587D01*
X968908Y2121357D01*
X956919Y2130704D01*
X943914Y2138578D01*
X929995Y2144826D01*
X926846Y2147062D01*
X924712Y2150313D01*
X924001Y2154123D01*
X924712Y2157882D01*
X926846Y2161133D01*
X929995Y2163368D01*
X943914Y2169617D01*
X956919Y2177491D01*
X968908Y2186889D01*
X979627Y2197608D01*
X989025Y2209596D01*
X999845Y2227376D01*
X1003046Y2229459D01*
X1006856Y2230170D01*
X2094992Y2230221D01*
X2099310Y2229256D01*
X2101646Y2228138D01*
X2111095Y2225598D01*
X2120900Y2224735D01*
X2130704Y2225598D01*
X2140153Y2228138D01*
X2149094Y2232304D01*
X2157120Y2237943D01*
X2164080Y2244902D01*
X2169718Y2252929D01*
X2173833Y2261819D01*
X2176373Y2271318D01*
X2177237Y2281123D01*
X2176373Y2290876D01*
X2173833Y2300376D01*
X2169718Y2309266D01*
X2164080Y2317343D01*
X2157120Y2324252D01*
X2149094Y2329891D01*
X2140153Y2334056D01*
X2130704Y2336596D01*
X2120900Y2337460D01*
X2111095Y2336596D01*
X2101646Y2334056D01*
X2099310Y2332990D01*
X2094992Y2332024D01*
X1006856Y2332024D01*
X1003096Y2332736D01*
X999845Y2334818D01*
X997610Y2338019D01*
X996899Y2339594D01*
X989025Y2352598D01*
X979627Y2364587D01*
X968908Y2375357D01*
X956919Y2384704D01*
X943914Y2392578D01*
X929995Y2398826D01*
X926846Y2401062D01*
X924712Y2404313D01*
X924001Y2408123D01*
X924712Y2411882D01*
X926846Y2415133D01*
X929995Y2417368D01*
X943914Y2423617D01*
X956919Y2431491D01*
X968908Y2440889D01*
X979627Y2451608D01*
X989025Y2463596D01*
X996899Y2476601D01*
X997610Y2478278D01*
X999845Y2481427D01*
X1003096Y2483510D01*
X1006906Y2484272D01*
X2602839Y2484272D01*
X2607106Y2483307D01*
X2609646Y2482138D01*
X2619095Y2479598D01*
X2628900Y2478735D01*
X2638704Y2479598D01*
X2648153Y2482138D01*
X2657094Y2486304D01*
X2665120Y2491943D01*
X2672080Y2498852D01*
X2677718Y2506929D01*
X2681833Y2515819D01*
X2684373Y2525318D01*
X2685237Y2535072D01*
X2684373Y2544876D01*
X2681833Y2554376D01*
X2677718Y2563266D01*
X2672080Y2571292D01*
X2665120Y2578252D01*
X2657094Y2583891D01*
X2648153Y2588056D01*
X2638704Y2590596D01*
X2628900Y2591460D01*
X2619095Y2590596D01*
X2609646Y2588056D01*
X2607462Y2587040D01*
X2603144Y2586075D01*
X1006856Y2586075D01*
X1003046Y2586837D01*
X999794Y2588920D01*
X989025Y2606598D01*
X979627Y2618587D01*
X968908Y2629357D01*
X956919Y2638704D01*
X943914Y2646578D01*
X929995Y2652826D01*
X926846Y2655062D01*
X924712Y2658313D01*
X924001Y2662123D01*
X924712Y2665882D01*
X926846Y2669133D01*
X929995Y2671368D01*
X943914Y2677617D01*
X956919Y2685491D01*
X968908Y2694889D01*
X979627Y2705608D01*
X989025Y2717596D01*
X996899Y2730601D01*
X997610Y2732278D01*
X999845Y2735427D01*
X1003096Y2737510D01*
X1006906Y2738272D01*
X2661970Y2738272D01*
X2666593Y2738475D01*
X2671013Y2739034D01*
X2675331Y2739999D01*
X2679598Y2741320D01*
X2683662Y2743047D01*
X2687624Y2745079D01*
X2691384Y2747467D01*
X2694889Y2750159D01*
X2698343Y2753309D01*
X2715056Y2770073D01*
X2717952Y2772105D01*
X2725674Y2775661D01*
X2733700Y2781300D01*
X2740660Y2788259D01*
X2746298Y2796286D01*
X2750413Y2805226D01*
X2752953Y2814675D01*
X2753817Y2824480D01*
X2752953Y2834284D01*
X2750413Y2843733D01*
X2746298Y2852674D01*
X2740660Y2860700D01*
X2733700Y2867660D01*
X2725674Y2873298D01*
X2716733Y2877413D01*
X2707284Y2879953D01*
X2697480Y2880817D01*
X2687675Y2879953D01*
X2678226Y2877413D01*
X2669286Y2873298D01*
X2661259Y2867660D01*
X2654300Y2860700D01*
X2648661Y2852674D01*
X2645562Y2845968D01*
X2643327Y2842869D01*
X2640076Y2840786D01*
X2636367Y2840075D01*
X1006856Y2840075D01*
X1003046Y2840837D01*
X999794Y2842920D01*
X989025Y2860598D01*
X979627Y2872587D01*
X968908Y2883357D01*
X956919Y2892704D01*
X943914Y2900578D01*
X929995Y2906826D01*
X926846Y2909062D01*
X924712Y2912313D01*
X924001Y2916123D01*
X924712Y2919882D01*
X926846Y2923133D01*
X929995Y2925368D01*
X943914Y2931617D01*
X956919Y2939491D01*
X968908Y2948889D01*
X979627Y2959608D01*
X989025Y2971596D01*
X999845Y2989376D01*
X1003046Y2991459D01*
X1006856Y2992170D01*
X3319729Y2992170D01*
X3323590Y2991408D01*
X3326892Y2989224D01*
X3337001Y2979064D01*
X3339236Y2975813D01*
X3339998Y2971901D01*
X3339998Y2134108D01*
X3339033Y2129790D01*
X3337966Y2127453D01*
X3335426Y2118004D01*
X3334562Y2108200D01*
X3335426Y2098395D01*
X3337966Y2088946D01*
X3339033Y2086610D01*
X3339998Y2082292D01*
X3339998Y1472641D01*
X3338880Y1460449D01*
X3339744Y1450695D01*
X3342284Y1441246D01*
X3346399Y1432306D01*
X3352037Y1424279D01*
X3358997Y1417320D01*
X3367024Y1411681D01*
X3375964Y1407566D01*
X3385413Y1405026D01*
X3395218Y1404162D01*
X3405022Y1405026D01*
X3414471Y1407566D01*
X3423412Y1411681D01*
X3431438Y1417320D01*
X3438398Y1424279D01*
X3444036Y1432306D01*
X3448151Y1441246D01*
X3450691Y1450695D01*
X3451555Y1460500D01*
X3450691Y1470304D01*
X3448151Y1479753D01*
X3442258Y1491996D01*
X3441801Y1495044D01*
X3441801Y2082292D01*
X3442766Y2086610D01*
X3443833Y2088946D01*
X3446373Y2098395D01*
X3447237Y2108200D01*
X3446373Y2118004D01*
X3443833Y2127453D01*
X3442766Y2129790D01*
X3441801Y2134108D01*
X3441801Y2996996D01*
X3441598Y3001619D01*
X3441039Y3006039D01*
X3440074Y3010357D01*
X3438753Y3014624D01*
X3437026Y3018688D01*
X3434994Y3022650D01*
X3432606Y3026410D01*
X3429914Y3029915D01*
X3426714Y3033369D01*
X3381146Y3078937D01*
X3377692Y3082086D01*
X3374186Y3084779D01*
X3370427Y3087166D01*
X3366515Y3089249D01*
X3362401Y3090926D01*
X3358184Y3092246D01*
X3353815Y3093212D01*
X3349447Y3093821D01*
X3344773Y3094024D01*
X1006856Y3094024D01*
X1003096Y3094736D01*
X999845Y3096818D01*
X997610Y3099968D01*
X996899Y3101594D01*
X989025Y3114598D01*
X979627Y3126587D01*
X968908Y3137357D01*
X956919Y3146704D01*
X943914Y3154578D01*
X929995Y3160826D01*
X926846Y3163062D01*
X924712Y3166313D01*
X924001Y3170123D01*
X924712Y3173882D01*
X926846Y3177133D01*
X929995Y3179368D01*
X943914Y3185617D01*
X956919Y3193491D01*
X968908Y3202889D01*
X979627Y3213608D01*
X989025Y3225596D01*
X999845Y3243376D01*
X1003046Y3245459D01*
X1006856Y3246170D01*
X3110992Y3246170D01*
X3115310Y3245256D01*
X3117646Y3244138D01*
X3127095Y3241598D01*
X3136900Y3240735D01*
X3146704Y3241598D01*
X3156153Y3244138D01*
X3165094Y3248304D01*
X3173120Y3253943D01*
X3180080Y3260852D01*
X3185718Y3268929D01*
X3189833Y3277819D01*
X3192373Y3287318D01*
X3193237Y3297072D01*
X3192373Y3306876D01*
X3189833Y3316376D01*
X3185718Y3325266D01*
X3180080Y3333292D01*
X3173120Y3340252D01*
X3165094Y3345891D01*
X3156153Y3350056D01*
X3146704Y3352596D01*
X3136900Y3353460D01*
X3127095Y3352596D01*
X3117646Y3350056D01*
X3115310Y3348939D01*
X3110992Y3348024D01*
X1006856Y3348024D01*
X1003096Y3348736D01*
X999845Y3350818D01*
X997610Y3353968D01*
X996899Y3355594D01*
X989025Y3368598D01*
X979627Y3380587D01*
X968908Y3391357D01*
X956919Y3400704D01*
X943914Y3408578D01*
X929995Y3414826D01*
X926846Y3417062D01*
X924712Y3420313D01*
X924001Y3424123D01*
X924712Y3427882D01*
X926846Y3431133D01*
X929995Y3433368D01*
X943914Y3439617D01*
X956919Y3447491D01*
X968908Y3456889D01*
X979627Y3467608D01*
X989025Y3479596D01*
X996899Y3492601D01*
X997610Y3494278D01*
X999845Y3497427D01*
X1003096Y3499510D01*
X1006906Y3500272D01*
X3618839Y3500272D01*
X3623106Y3499307D01*
X3625646Y3498138D01*
X3635095Y3495598D01*
X3644900Y3494735D01*
X3654704Y3495598D01*
X3664153Y3498138D01*
X3673094Y3502304D01*
X3681120Y3507943D01*
X3688079Y3514851D01*
X3693718Y3522929D01*
X3697833Y3531819D01*
X3700373Y3541318D01*
X3701237Y3551072D01*
X3700373Y3560876D01*
X3697833Y3570376D01*
X3693718Y3579266D01*
X3688079Y3587292D01*
X3681120Y3594252D01*
X3673094Y3599891D01*
X3664153Y3604056D01*
X3654704Y3606596D01*
X3644900Y3607460D01*
X3635095Y3606596D01*
X3625646Y3604056D01*
X3623462Y3603040D01*
X3619144Y3602075D01*
X1006856Y3602075D01*
X1003046Y3602837D01*
X999794Y3604920D01*
X989025Y3622598D01*
X979627Y3634587D01*
X968908Y3645357D01*
X956919Y3654704D01*
X943914Y3662578D01*
X929995Y3668826D01*
X926846Y3671062D01*
X924712Y3674313D01*
X924001Y3678123D01*
X924712Y3681882D01*
X926846Y3685133D01*
X929995Y3687368D01*
X943914Y3693617D01*
X956919Y3701491D01*
X968908Y3710889D01*
X979627Y3721608D01*
X989025Y3733596D01*
X999845Y3751376D01*
X1003046Y3753459D01*
X1006856Y3754170D01*
X3872992Y3754170D01*
X3877310Y3753256D01*
X3879646Y3752138D01*
X3889095Y3749598D01*
X3898900Y3748735D01*
X3908704Y3749598D01*
X3918153Y3752138D01*
X3927094Y3756304D01*
X3935120Y3761943D01*
X3942079Y3768851D01*
X3947718Y3776929D01*
X3951833Y3785819D01*
X3954373Y3795318D01*
X3955237Y3805072D01*
X3954373Y3814876D01*
X3951833Y3824376D01*
X3947718Y3833266D01*
X3942079Y3841292D01*
X3935120Y3848252D01*
X3927094Y3853891D01*
X3918153Y3858056D01*
X3908704Y3860596D01*
X3898900Y3861460D01*
X3889095Y3860596D01*
X3879646Y3858056D01*
X3877310Y3856939D01*
X3872992Y3856024D01*
X1006856Y3856024D01*
X1003096Y3856736D01*
X999845Y3858818D01*
X997610Y3861968D01*
X996899Y3863594D01*
X989025Y3876598D01*
X979627Y3888587D01*
X968908Y3899357D01*
X956919Y3908704D01*
X943914Y3916578D01*
X930046Y3922826D01*
X915517Y3927348D01*
X900582Y3930091D01*
X885393Y3931005D01*
X870254Y3930091D01*
X855268Y3927348D01*
X840790Y3922826D01*
X826922Y3916578D01*
X813917Y3908704D01*
X801928Y3899357D01*
X791159Y3888587D01*
X781812Y3876598D01*
X773938Y3863594D01*
X767689Y3849725D01*
X763168Y3835247D01*
X760425Y3820261D01*
X759510Y3805123D01*
X760425Y3789934D01*
X763168Y3774998D01*
X767689Y3760470D01*
X773938Y3746601D01*
X781812Y3733596D01*
X791159Y3721608D01*
X801928Y3710889D01*
X813917Y3701491D01*
X826922Y3693617D01*
X840841Y3687368D01*
X843991Y3685133D01*
X846074Y3681882D01*
X846836Y3678123D01*
X846074Y3674313D01*
X843991Y3671062D01*
X840841Y3668826D01*
X826922Y3662578D01*
X813917Y3654704D01*
X801928Y3645357D01*
X791159Y3634587D01*
X781812Y3622598D01*
X773938Y3609594D01*
X767689Y3595725D01*
X763168Y3581247D01*
X760425Y3566261D01*
X759510Y3551123D01*
X760425Y3535934D01*
X763168Y3520998D01*
X767689Y3506470D01*
X773938Y3492601D01*
X781812Y3479596D01*
X791159Y3467608D01*
X801928Y3456889D01*
X813917Y3447491D01*
X826922Y3439617D01*
X840841Y3433368D01*
X843991Y3431133D01*
X846074Y3427882D01*
X846836Y3424123D01*
X846074Y3420313D01*
X843991Y3417062D01*
X840841Y3414826D01*
X826922Y3408578D01*
X813917Y3400704D01*
X801928Y3391357D01*
X791159Y3380587D01*
X781812Y3368598D01*
X773938Y3355594D01*
X767689Y3341725D01*
X763168Y3327247D01*
X760425Y3312261D01*
X759510Y3297123D01*
X760425Y3281934D01*
X763168Y3266998D01*
X767689Y3252470D01*
X773938Y3238601D01*
X781812Y3225596D01*
X791159Y3213608D01*
X801928Y3202889D01*
X813917Y3193491D01*
X826922Y3185617D01*
X840841Y3179368D01*
X843991Y3177133D01*
X846074Y3173882D01*
X846836Y3170123D01*
X846074Y3166313D01*
X843991Y3163062D01*
X840841Y3160826D01*
X826922Y3154578D01*
X813917Y3146704D01*
X801928Y3137357D01*
X791159Y3126587D01*
X781812Y3114598D01*
X773938Y3101594D01*
X767689Y3087725D01*
X763168Y3073247D01*
X760425Y3058261D01*
X759510Y3043123D01*
X760425Y3027934D01*
X763168Y3012998D01*
X767689Y2998470D01*
X773938Y2984601D01*
X781812Y2971596D01*
X791159Y2959608D01*
X801928Y2948889D01*
X813917Y2939491D01*
X826922Y2931617D01*
X840841Y2925368D01*
X843991Y2923133D01*
X846074Y2919882D01*
X846836Y2916123D01*
X846074Y2912313D01*
X843991Y2909062D01*
X840841Y2906826D01*
X826922Y2900578D01*
X813917Y2892704D01*
X801928Y2883357D01*
X791159Y2872587D01*
X781812Y2860598D01*
X773938Y2847594D01*
X767689Y2833725D01*
X763168Y2819247D01*
X760425Y2804261D01*
X759510Y2789123D01*
X760425Y2773934D01*
X763168Y2758998D01*
X767689Y2744470D01*
X773938Y2730601D01*
X781812Y2717596D01*
X791159Y2705608D01*
X801928Y2694889D01*
X813917Y2685491D01*
X826922Y2677617D01*
X840841Y2671368D01*
X843991Y2669133D01*
X846074Y2665882D01*
X846836Y2662123D01*
X846074Y2658313D01*
X843991Y2655062D01*
X840841Y2652826D01*
X826922Y2646578D01*
X813917Y2638704D01*
X801928Y2629357D01*
X791159Y2618587D01*
X781812Y2606598D01*
X773938Y2593594D01*
X767689Y2579725D01*
X763168Y2565247D01*
X760425Y2550261D01*
X759510Y2535123D01*
X760425Y2519934D01*
X763168Y2504998D01*
X767689Y2490470D01*
X773938Y2476601D01*
X781812Y2463596D01*
X791159Y2451608D01*
X801928Y2440889D01*
X813917Y2431491D01*
X826922Y2423617D01*
X840841Y2417368D01*
X843991Y2415133D01*
X846074Y2411882D01*
X846836Y2408123D01*
X846074Y2404313D01*
X843991Y2401062D01*
X840841Y2398826D01*
X826922Y2392578D01*
X813917Y2384704D01*
X801928Y2375357D01*
X791159Y2364587D01*
X781812Y2352598D01*
X773938Y2339594D01*
X767689Y2325725D01*
X763168Y2311247D01*
X760425Y2296261D01*
X759510Y2281123D01*
X760425Y2265934D01*
X763168Y2250998D01*
X767689Y2236470D01*
X773938Y2222601D01*
X781812Y2209596D01*
X791159Y2197608D01*
X801928Y2186889D01*
X813917Y2177491D01*
X826922Y2169617D01*
X840841Y2163368D01*
X843991Y2161133D01*
X846074Y2157882D01*
X846836Y2154123D01*
X846074Y2150313D01*
X843991Y2147062D01*
X840841Y2144826D01*
X826922Y2138578D01*
X813917Y2130704D01*
X801928Y2121357D01*
X791159Y2110587D01*
X781812Y2098598D01*
X773938Y2085593D01*
X767689Y2071725D01*
X763168Y2057247D01*
X760425Y2042261D01*
X759510Y2027123D01*
X760425Y2011934D01*
X763168Y1996998D01*
X767689Y1982470D01*
X773938Y1968601D01*
X781812Y1955596D01*
X791159Y1943607D01*
X801928Y1932889D01*
X813917Y1923491D01*
X826922Y1915617D01*
X840790Y1909419D01*
X855268Y1904898D01*
X870254Y1902155D01*
X885393Y1901240D01*
X900582Y1902155D01*
X915517Y1904898D01*
X930046Y1909419D01*
X943914Y1915617D01*
X956919Y1923491D01*
X968908Y1932889D01*
X979627Y1943607D01*
X989025Y1955596D01*
X999845Y1973376D01*
X1003046Y1975459D01*
X1006856Y1976170D01*
X2293569Y1976170D01*
X2298242Y1976374D01*
X2302611Y1976983D01*
X2306929Y1977948D01*
X2310688Y1979168D01*
X2314448Y1979625D01*
X2318156Y1978660D01*
X2321255Y1976424D01*
X2323287Y1973224D01*
X2323998Y1969465D01*
X2323998Y1472641D01*
X2322880Y1460449D01*
X2323744Y1450695D01*
X2326284Y1441246D01*
X2330399Y1432306D01*
X2336038Y1424279D01*
X2342997Y1417320D01*
X2351024Y1411681D01*
X2359964Y1407566D01*
X2369413Y1405026D01*
G37*
G36*
X660400Y1549603D02*
G01*
X674217Y1550517D01*
X687781Y1553210D01*
X700938Y1557680D01*
X713333Y1563776D01*
X724865Y1571498D01*
X735279Y1580642D01*
X744423Y1591056D01*
X752094Y1602536D01*
X758240Y1614982D01*
X762660Y1628089D01*
X765403Y1641652D01*
X766267Y1655470D01*
X765403Y1669338D01*
X762660Y1682902D01*
X758240Y1696008D01*
X752094Y1708454D01*
X744423Y1719935D01*
X735279Y1730349D01*
X724865Y1739493D01*
X713333Y1747215D01*
X700938Y1753311D01*
X687781Y1757781D01*
X674217Y1760474D01*
X660400Y1761388D01*
X646582Y1760474D01*
X633018Y1757781D01*
X619861Y1753311D01*
X607466Y1747215D01*
X595934Y1739493D01*
X585520Y1730349D01*
X576376Y1719935D01*
X568706Y1708454D01*
X562559Y1696008D01*
X558139Y1682902D01*
X555396Y1669338D01*
X554532Y1655470D01*
X555396Y1641652D01*
X558139Y1628089D01*
X562559Y1614982D01*
X568706Y1602536D01*
X576376Y1591056D01*
X585520Y1580642D01*
X595934Y1571498D01*
X607466Y1563776D01*
X619861Y1557680D01*
X633018Y1553210D01*
X646582Y1550517D01*
G37*
G36*
X5156250Y2043734D02*
G01*
X5170068Y2044598D01*
X5183632Y2047341D01*
X5196738Y2051761D01*
X5209184Y2057907D01*
X5220665Y2065578D01*
X5231079Y2074722D01*
X5240223Y2085136D01*
X5247944Y2096668D01*
X5254040Y2109063D01*
X5258511Y2122220D01*
X5261203Y2135784D01*
X5262118Y2149602D01*
X5261203Y2163419D01*
X5258511Y2176983D01*
X5254040Y2190140D01*
X5247944Y2202535D01*
X5240223Y2214067D01*
X5231079Y2224481D01*
X5220665Y2233625D01*
X5209184Y2241296D01*
X5196738Y2247442D01*
X5183632Y2251862D01*
X5170068Y2254605D01*
X5156250Y2255469D01*
X5142382Y2254605D01*
X5128818Y2251862D01*
X5115712Y2247442D01*
X5103266Y2241296D01*
X5091785Y2233625D01*
X5081371Y2224481D01*
X5072227Y2214067D01*
X5064506Y2202535D01*
X5058410Y2190140D01*
X5053939Y2176983D01*
X5051247Y2163419D01*
X5050332Y2149602D01*
X5051247Y2135784D01*
X5053939Y2122220D01*
X5058410Y2109063D01*
X5064506Y2096668D01*
X5072227Y2085136D01*
X5081371Y2074722D01*
X5091785Y2065578D01*
X5103266Y2057907D01*
X5115712Y2051761D01*
X5128818Y2047341D01*
X5142382Y2044598D01*
G37*
G36*
X4931206Y2386279D02*
G01*
X4946396Y2387193D01*
X4961331Y2389936D01*
X4975860Y2394458D01*
X4989728Y2400706D01*
X5002733Y2408580D01*
X5014722Y2417927D01*
X5025440Y2428697D01*
X5034838Y2440635D01*
X5042662Y2453690D01*
X5048910Y2467508D01*
X5053431Y2482037D01*
X5056174Y2496972D01*
X5057089Y2512161D01*
X5056174Y2527350D01*
X5053431Y2542286D01*
X5048910Y2556814D01*
X5042662Y2570683D01*
X5034838Y2583688D01*
X5025440Y2595626D01*
X5014722Y2606395D01*
X5002733Y2615793D01*
X4989728Y2623616D01*
X4975809Y2629916D01*
X4972659Y2632151D01*
X4970526Y2635351D01*
X4969814Y2639161D01*
X4970526Y2642971D01*
X4972659Y2646222D01*
X4975809Y2648458D01*
X4989728Y2654706D01*
X5002733Y2662580D01*
X5014722Y2671927D01*
X5025440Y2682697D01*
X5034838Y2694635D01*
X5042662Y2707690D01*
X5048910Y2721508D01*
X5053431Y2736037D01*
X5056174Y2750972D01*
X5057089Y2766161D01*
X5056174Y2781350D01*
X5053431Y2796286D01*
X5048910Y2810814D01*
X5042662Y2824683D01*
X5034838Y2837688D01*
X5025440Y2849626D01*
X5014722Y2860395D01*
X5002733Y2869793D01*
X4989728Y2877616D01*
X4975809Y2883916D01*
X4972659Y2886151D01*
X4970526Y2889351D01*
X4969814Y2893161D01*
X4970526Y2896971D01*
X4972659Y2900222D01*
X4975809Y2902458D01*
X4989728Y2908706D01*
X5002733Y2916580D01*
X5014722Y2925927D01*
X5025440Y2936697D01*
X5034838Y2948635D01*
X5042662Y2961690D01*
X5048910Y2975508D01*
X5053431Y2990037D01*
X5056174Y3004972D01*
X5057089Y3020161D01*
X5056174Y3035350D01*
X5053431Y3050286D01*
X5048910Y3064814D01*
X5042662Y3078683D01*
X5034838Y3091688D01*
X5025440Y3103626D01*
X5014722Y3114395D01*
X5002733Y3123793D01*
X4989728Y3131616D01*
X4975809Y3137916D01*
X4972659Y3140151D01*
X4970526Y3143351D01*
X4969814Y3147161D01*
X4970526Y3150971D01*
X4972659Y3154222D01*
X4975809Y3156458D01*
X4989728Y3162706D01*
X5002733Y3170580D01*
X5014722Y3179927D01*
X5025440Y3190697D01*
X5034838Y3202635D01*
X5042662Y3215690D01*
X5048910Y3229508D01*
X5053431Y3244037D01*
X5056174Y3258972D01*
X5057089Y3274161D01*
X5056174Y3289350D01*
X5053431Y3304286D01*
X5048910Y3318814D01*
X5042662Y3332683D01*
X5034838Y3345687D01*
X5025440Y3357626D01*
X5014722Y3368395D01*
X5002733Y3377793D01*
X4989728Y3385616D01*
X4975860Y3391865D01*
X4961331Y3396386D01*
X4946396Y3399129D01*
X4931206Y3400044D01*
X4916017Y3399129D01*
X4901082Y3396386D01*
X4886553Y3391865D01*
X4872736Y3385616D01*
X4859680Y3377793D01*
X4847742Y3368395D01*
X4836972Y3357626D01*
X4827625Y3345687D01*
X4819751Y3332683D01*
X4814570Y3321202D01*
X4812334Y3318052D01*
X4809134Y3315919D01*
X4805324Y3315208D01*
X4693208Y3315208D01*
X4689297Y3315970D01*
X4685995Y3318205D01*
X4684420Y3319779D01*
X4676394Y3325418D01*
X4667453Y3329533D01*
X4658004Y3332073D01*
X4648200Y3332937D01*
X4638395Y3332073D01*
X4628946Y3329533D01*
X4620006Y3325418D01*
X4611979Y3319779D01*
X4605020Y3312820D01*
X4599381Y3304794D01*
X4595266Y3295853D01*
X4592726Y3286404D01*
X4591862Y3276600D01*
X4592726Y3266795D01*
X4595266Y3257346D01*
X4599381Y3248406D01*
X4605020Y3240379D01*
X4611979Y3233420D01*
X4620006Y3227781D01*
X4628946Y3223666D01*
X4638395Y3221126D01*
X4648200Y3220262D01*
X4658004Y3221126D01*
X4667453Y3223666D01*
X4676394Y3227781D01*
X4684420Y3233420D01*
X4685995Y3234994D01*
X4689297Y3237230D01*
X4693208Y3237992D01*
X4803394Y3237992D01*
X4807559Y3237077D01*
X4811014Y3234588D01*
X4813503Y3229508D01*
X4819751Y3215690D01*
X4827625Y3202635D01*
X4836972Y3190697D01*
X4847742Y3179927D01*
X4859680Y3170580D01*
X4872736Y3162706D01*
X4886655Y3156458D01*
X4889804Y3154222D01*
X4891887Y3150971D01*
X4892649Y3147161D01*
X4891887Y3143351D01*
X4889804Y3140151D01*
X4886655Y3137916D01*
X4872736Y3131616D01*
X4859680Y3123793D01*
X4847742Y3114395D01*
X4836972Y3103626D01*
X4827625Y3091688D01*
X4819751Y3078683D01*
X4814570Y3067202D01*
X4812334Y3064052D01*
X4809134Y3061919D01*
X4805324Y3061208D01*
X4629708Y3061208D01*
X4625797Y3061970D01*
X4622495Y3064205D01*
X4620920Y3065780D01*
X4612894Y3071418D01*
X4603953Y3075533D01*
X4594504Y3078073D01*
X4584700Y3078937D01*
X4574895Y3078073D01*
X4565446Y3075533D01*
X4556506Y3071418D01*
X4548479Y3065780D01*
X4541520Y3058820D01*
X4535881Y3050794D01*
X4531766Y3041853D01*
X4529226Y3032404D01*
X4528362Y3022600D01*
X4529226Y3012795D01*
X4531766Y3003346D01*
X4535881Y2994406D01*
X4541520Y2986379D01*
X4548479Y2979420D01*
X4556506Y2973781D01*
X4565446Y2969666D01*
X4574895Y2967126D01*
X4584700Y2966262D01*
X4594504Y2967126D01*
X4603953Y2969666D01*
X4612894Y2973781D01*
X4620920Y2979420D01*
X4622495Y2980994D01*
X4625797Y2983230D01*
X4629708Y2983992D01*
X4803394Y2983992D01*
X4807559Y2983077D01*
X4811014Y2980588D01*
X4813503Y2975508D01*
X4819751Y2961690D01*
X4827625Y2948635D01*
X4836972Y2936697D01*
X4847742Y2925927D01*
X4859680Y2916580D01*
X4872736Y2908706D01*
X4886655Y2902458D01*
X4889804Y2900222D01*
X4891887Y2896971D01*
X4892649Y2893161D01*
X4891887Y2889351D01*
X4889804Y2886151D01*
X4886655Y2883916D01*
X4872736Y2877616D01*
X4859680Y2869793D01*
X4847742Y2860395D01*
X4836972Y2849626D01*
X4827625Y2837688D01*
X4819751Y2824683D01*
X4814570Y2813202D01*
X4812334Y2810052D01*
X4809134Y2807919D01*
X4805324Y2807208D01*
X4502708Y2807208D01*
X4498797Y2807970D01*
X4495495Y2810205D01*
X4493920Y2811780D01*
X4485894Y2817418D01*
X4476953Y2821533D01*
X4467504Y2824073D01*
X4457700Y2824937D01*
X4447895Y2824073D01*
X4438446Y2821533D01*
X4429506Y2817418D01*
X4421479Y2811780D01*
X4414520Y2804820D01*
X4408881Y2796794D01*
X4404766Y2787853D01*
X4402226Y2778404D01*
X4401362Y2768600D01*
X4402226Y2758795D01*
X4404766Y2749346D01*
X4408881Y2740406D01*
X4414520Y2732379D01*
X4421479Y2725420D01*
X4429506Y2719781D01*
X4438446Y2715666D01*
X4447895Y2713126D01*
X4457700Y2712262D01*
X4467504Y2713126D01*
X4476953Y2715666D01*
X4485894Y2719781D01*
X4493920Y2725420D01*
X4495495Y2726994D01*
X4498797Y2729230D01*
X4502708Y2729992D01*
X4803394Y2729992D01*
X4807559Y2729077D01*
X4811014Y2726588D01*
X4813503Y2721508D01*
X4819751Y2707690D01*
X4827625Y2694635D01*
X4836972Y2682697D01*
X4847742Y2671927D01*
X4859680Y2662580D01*
X4872736Y2654706D01*
X4886655Y2648458D01*
X4889804Y2646222D01*
X4891887Y2642971D01*
X4892649Y2639161D01*
X4891887Y2635351D01*
X4889804Y2632151D01*
X4886655Y2629916D01*
X4872736Y2623616D01*
X4859680Y2615793D01*
X4847742Y2606395D01*
X4836972Y2595626D01*
X4827625Y2583688D01*
X4819751Y2570683D01*
X4814570Y2559202D01*
X4812334Y2556052D01*
X4809134Y2553919D01*
X4805324Y2553208D01*
X4439208Y2553208D01*
X4435297Y2553970D01*
X4431995Y2556205D01*
X4430420Y2557780D01*
X4422394Y2563418D01*
X4413453Y2567533D01*
X4404004Y2570073D01*
X4394200Y2570937D01*
X4384395Y2570073D01*
X4374946Y2567533D01*
X4366006Y2563418D01*
X4357979Y2557780D01*
X4351020Y2550820D01*
X4345381Y2542794D01*
X4341266Y2533853D01*
X4338726Y2524404D01*
X4337862Y2514600D01*
X4338726Y2504795D01*
X4341266Y2495346D01*
X4345381Y2486406D01*
X4351020Y2478379D01*
X4357979Y2471420D01*
X4366006Y2465781D01*
X4374946Y2461666D01*
X4384395Y2459126D01*
X4394200Y2458262D01*
X4404004Y2459126D01*
X4413453Y2461666D01*
X4422394Y2465781D01*
X4430420Y2471420D01*
X4431995Y2472994D01*
X4435297Y2475230D01*
X4439208Y2475992D01*
X4803394Y2475992D01*
X4807559Y2475077D01*
X4811014Y2472588D01*
X4813503Y2467508D01*
X4819751Y2453690D01*
X4827625Y2440635D01*
X4836972Y2428697D01*
X4847742Y2417927D01*
X4859680Y2408580D01*
X4872736Y2400706D01*
X4886553Y2394458D01*
X4901082Y2389936D01*
X4916017Y2387193D01*
G37*
G36*
X1676400Y70662D02*
G01*
X1686204Y71526D01*
X1695653Y74066D01*
X1697989Y75133D01*
X1702307Y76098D01*
X4368292Y76098D01*
X4372610Y75133D01*
X4374946Y74066D01*
X4384395Y71526D01*
X4394200Y70662D01*
X4404004Y71526D01*
X4413453Y74066D01*
X4415790Y75133D01*
X4420108Y76098D01*
X5003292Y76098D01*
X5007610Y75133D01*
X5009946Y74066D01*
X5019395Y71526D01*
X5029200Y70662D01*
X5039004Y71526D01*
X5048453Y74066D01*
X5057394Y78181D01*
X5065420Y83820D01*
X5072380Y90779D01*
X5078018Y98806D01*
X5082133Y107746D01*
X5084673Y117195D01*
X5085537Y127000D01*
X5084673Y136804D01*
X5082133Y146253D01*
X5078018Y155194D01*
X5072380Y163220D01*
X5065420Y170180D01*
X5057394Y175818D01*
X5048453Y179933D01*
X5039004Y182473D01*
X5029200Y183337D01*
X5019395Y182473D01*
X5009946Y179933D01*
X5007610Y178866D01*
X5003292Y177901D01*
X4420108Y177901D01*
X4415790Y178866D01*
X4413453Y179933D01*
X4404004Y182473D01*
X4394200Y183337D01*
X4384395Y182473D01*
X4374946Y179933D01*
X4372610Y178866D01*
X4368292Y177901D01*
X1702307Y177901D01*
X1697989Y178866D01*
X1695653Y179933D01*
X1686204Y182473D01*
X1676400Y183337D01*
X1666595Y182473D01*
X1657146Y179933D01*
X1648206Y175818D01*
X1640179Y170180D01*
X1633220Y163220D01*
X1627581Y155194D01*
X1623466Y146253D01*
X1620926Y136804D01*
X1620062Y127000D01*
X1620926Y117195D01*
X1623466Y107746D01*
X1627581Y98806D01*
X1633220Y90779D01*
X1640179Y83820D01*
X1648206Y78181D01*
X1657146Y74066D01*
X1666595Y71526D01*
G37*
G36*
X5156250Y3530803D02*
G01*
X5170068Y3531717D01*
X5183632Y3534410D01*
X5196738Y3538880D01*
X5209184Y3544976D01*
X5220665Y3552698D01*
X5231079Y3561842D01*
X5240223Y3572256D01*
X5247944Y3583736D01*
X5254040Y3596182D01*
X5258511Y3609289D01*
X5261203Y3622852D01*
X5262118Y3636670D01*
X5261203Y3650538D01*
X5258511Y3664102D01*
X5254040Y3677208D01*
X5247944Y3689654D01*
X5240223Y3701135D01*
X5231079Y3711549D01*
X5220665Y3720693D01*
X5209184Y3728415D01*
X5196738Y3734511D01*
X5183632Y3738981D01*
X5170068Y3741674D01*
X5156250Y3742588D01*
X5142382Y3741674D01*
X5128818Y3738981D01*
X5115712Y3734511D01*
X5103266Y3728415D01*
X5091785Y3720693D01*
X5081371Y3711549D01*
X5072227Y3701135D01*
X5064506Y3689654D01*
X5058410Y3677208D01*
X5053939Y3664102D01*
X5051247Y3650538D01*
X5050332Y3636670D01*
X5051247Y3622852D01*
X5053939Y3609289D01*
X5058410Y3596182D01*
X5064506Y3583736D01*
X5072227Y3572256D01*
X5081371Y3561842D01*
X5091785Y3552698D01*
X5103266Y3544976D01*
X5115712Y3538880D01*
X5128818Y3534410D01*
X5142382Y3531717D01*
G37*
G36*
X2247900Y3880662D02*
G01*
X2257704Y3881526D01*
X2267153Y3884066D01*
X2276094Y3888181D01*
X2284120Y3893820D01*
X2285695Y3895394D01*
X2288997Y3897629D01*
X2292908Y3898392D01*
X4349191Y3898392D01*
X4353102Y3897629D01*
X4356404Y3895394D01*
X4357979Y3893820D01*
X4366006Y3888181D01*
X4374946Y3884066D01*
X4384395Y3881526D01*
X4394200Y3880662D01*
X4404004Y3881526D01*
X4413453Y3884066D01*
X4422394Y3888181D01*
X4430420Y3893820D01*
X4437380Y3900779D01*
X4443018Y3908806D01*
X4447133Y3917746D01*
X4449673Y3927195D01*
X4450384Y3935069D01*
X4451299Y3938473D01*
X4453331Y3941368D01*
X4456226Y3943400D01*
X4459630Y3944315D01*
X4467504Y3945026D01*
X4476953Y3947566D01*
X4485894Y3951681D01*
X4493920Y3957320D01*
X4500880Y3964279D01*
X4506518Y3972306D01*
X4510633Y3981246D01*
X4513173Y3990695D01*
X4514037Y4000500D01*
X4513173Y4010304D01*
X4512564Y4012590D01*
X4512259Y4016298D01*
X4513326Y4019854D01*
X4515612Y4022801D01*
X4518761Y4024731D01*
X4522368Y4025392D01*
X4539691Y4025392D01*
X4543602Y4024629D01*
X4546904Y4022394D01*
X4548479Y4020820D01*
X4556506Y4015181D01*
X4565446Y4011066D01*
X4574895Y4008526D01*
X4584700Y4007662D01*
X4594504Y4008526D01*
X4603953Y4011066D01*
X4612894Y4015181D01*
X4620920Y4020820D01*
X4627880Y4027779D01*
X4633518Y4035806D01*
X4637633Y4044746D01*
X4640173Y4054195D01*
X4640884Y4062069D01*
X4641799Y4065473D01*
X4643831Y4068368D01*
X4646726Y4070400D01*
X4650130Y4071315D01*
X4658004Y4072026D01*
X4667453Y4074566D01*
X4676394Y4078681D01*
X4684420Y4084320D01*
X4691380Y4091279D01*
X4697018Y4099306D01*
X4701133Y4108246D01*
X4703673Y4117695D01*
X4704537Y4127500D01*
X4703673Y4137304D01*
X4701133Y4146753D01*
X4697018Y4155694D01*
X4691380Y4163720D01*
X4684420Y4170679D01*
X4676394Y4176318D01*
X4667453Y4180433D01*
X4658004Y4182973D01*
X4648200Y4183837D01*
X4638395Y4182973D01*
X4628946Y4180433D01*
X4620006Y4176318D01*
X4611979Y4170679D01*
X4610404Y4169105D01*
X4607102Y4166870D01*
X4603191Y4166108D01*
X3816908Y4166108D01*
X3812997Y4166870D01*
X3809695Y4169105D01*
X3808120Y4170679D01*
X3800094Y4176318D01*
X3791153Y4180433D01*
X3781704Y4182973D01*
X3771900Y4183837D01*
X3762095Y4182973D01*
X3752646Y4180433D01*
X3743706Y4176318D01*
X3735679Y4170679D01*
X3728720Y4163720D01*
X3723081Y4155694D01*
X3718966Y4146753D01*
X3716426Y4137304D01*
X3715562Y4127500D01*
X3716426Y4117695D01*
X3717036Y4115409D01*
X3717340Y4111701D01*
X3716274Y4108145D01*
X3713987Y4105198D01*
X3710838Y4103268D01*
X3707231Y4102608D01*
X3308908Y4102608D01*
X3304997Y4103370D01*
X3301695Y4105605D01*
X3300120Y4107179D01*
X3292094Y4112818D01*
X3283153Y4116933D01*
X3273704Y4119473D01*
X3263900Y4120337D01*
X3254095Y4119473D01*
X3244646Y4116933D01*
X3235706Y4112818D01*
X3227679Y4107179D01*
X3220720Y4100220D01*
X3215081Y4092194D01*
X3210966Y4083253D01*
X3208426Y4073804D01*
X3207562Y4064000D01*
X3208426Y4054195D01*
X3209036Y4051909D01*
X3209340Y4048201D01*
X3208274Y4044645D01*
X3205988Y4041698D01*
X3202838Y4039768D01*
X3199231Y4039108D01*
X2800908Y4039108D01*
X2796997Y4039870D01*
X2793695Y4042105D01*
X2792120Y4043679D01*
X2784094Y4049318D01*
X2775153Y4053433D01*
X2765704Y4055973D01*
X2755900Y4056837D01*
X2746095Y4055973D01*
X2736646Y4053433D01*
X2727706Y4049318D01*
X2719679Y4043679D01*
X2712720Y4036720D01*
X2707081Y4028694D01*
X2702966Y4019753D01*
X2700426Y4010304D01*
X2699562Y4000500D01*
X2700426Y3990695D01*
X2701036Y3988409D01*
X2701340Y3984701D01*
X2700274Y3981145D01*
X2697988Y3978198D01*
X2694838Y3976268D01*
X2691231Y3975608D01*
X2292908Y3975608D01*
X2288997Y3976370D01*
X2285695Y3978605D01*
X2284120Y3980179D01*
X2276094Y3985818D01*
X2267153Y3989933D01*
X2257704Y3992473D01*
X2247900Y3993337D01*
X2238095Y3992473D01*
X2228646Y3989933D01*
X2219706Y3985818D01*
X2211679Y3980179D01*
X2204720Y3973220D01*
X2199081Y3965194D01*
X2194966Y3956253D01*
X2192426Y3946804D01*
X2191562Y3937000D01*
X2192426Y3927195D01*
X2194966Y3917746D01*
X2199081Y3908806D01*
X2204720Y3900779D01*
X2211679Y3893820D01*
X2219706Y3888181D01*
X2228646Y3884066D01*
X2238095Y3881526D01*
G37*
G36*
X5473700Y105562D02*
G01*
X5478322Y105664D01*
X5501284Y108051D01*
X5523992Y112369D01*
X5546242Y118618D01*
X5567934Y126644D01*
X5588812Y136499D01*
X5608828Y148031D01*
X5627827Y161239D01*
X5645607Y175971D01*
X5662117Y192125D01*
X5677204Y209600D01*
X5690819Y228295D01*
X5702757Y248107D01*
X5713018Y268782D01*
X5721553Y290271D01*
X5728208Y312369D01*
X5733034Y334975D01*
X5735929Y357936D01*
X5736336Y368300D01*
X5473700Y368300D01*
G37*
G36*
X4826000Y5125262D02*
G01*
X4835804Y5126126D01*
X4845253Y5128666D01*
X4854194Y5132781D01*
X4862220Y5138420D01*
X4869180Y5145379D01*
X4874818Y5153406D01*
X4878933Y5162346D01*
X4881473Y5171795D01*
X4882337Y5181600D01*
X4881473Y5191404D01*
X4878933Y5200853D01*
X4877866Y5203190D01*
X4876901Y5207508D01*
X4876901Y5224018D01*
X4877562Y5227523D01*
X4879390Y5230622D01*
X4882184Y5232908D01*
X4888077Y5236159D01*
X4899863Y5244693D01*
X4910480Y5254650D01*
X4919776Y5265877D01*
X4927549Y5278170D01*
X4933746Y5291328D01*
X4938268Y5305196D01*
X4940960Y5319471D01*
X4941874Y5334000D01*
X4940960Y5348528D01*
X4938268Y5362803D01*
X4933746Y5376672D01*
X4927549Y5389829D01*
X4919776Y5402122D01*
X4910480Y5413349D01*
X4899863Y5423306D01*
X4888077Y5431840D01*
X4875326Y5438851D01*
X4861814Y5444236D01*
X4847691Y5447842D01*
X4833264Y5449671D01*
X4818735Y5449671D01*
X4804308Y5447842D01*
X4790186Y5444236D01*
X4776673Y5438851D01*
X4763922Y5431840D01*
X4752136Y5423306D01*
X4741519Y5413349D01*
X4732223Y5402122D01*
X4724450Y5389829D01*
X4718253Y5376672D01*
X4713732Y5362803D01*
X4711039Y5348528D01*
X4710125Y5334000D01*
X4711039Y5319471D01*
X4713732Y5305196D01*
X4718253Y5291328D01*
X4724450Y5278170D01*
X4732223Y5265877D01*
X4741519Y5254650D01*
X4752136Y5244693D01*
X4763922Y5236159D01*
X4769815Y5232908D01*
X4772609Y5230622D01*
X4774438Y5227523D01*
X4775098Y5224018D01*
X4775098Y5207508D01*
X4774133Y5203190D01*
X4773066Y5200853D01*
X4770526Y5191404D01*
X4769662Y5181600D01*
X4770526Y5171795D01*
X4773066Y5162346D01*
X4777181Y5153406D01*
X4782820Y5145379D01*
X4789779Y5138420D01*
X4797806Y5132781D01*
X4806746Y5128666D01*
X4816195Y5126126D01*
G37*
G36*
X5473700Y5185562D02*
G01*
X5478322Y5185664D01*
X5501284Y5188051D01*
X5523992Y5192369D01*
X5546242Y5198618D01*
X5567934Y5206644D01*
X5588812Y5216499D01*
X5608828Y5228031D01*
X5627827Y5241239D01*
X5645607Y5255971D01*
X5662117Y5272125D01*
X5677204Y5289600D01*
X5690819Y5308295D01*
X5702757Y5328107D01*
X5713018Y5348782D01*
X5721553Y5370271D01*
X5728208Y5392369D01*
X5733034Y5414975D01*
X5735929Y5437936D01*
X5736336Y5448300D01*
X5473700Y5448300D01*
G37*
G36*
X393700Y5185562D02*
G01*
X398322Y5185664D01*
X421284Y5188051D01*
X443992Y5192369D01*
X466242Y5198618D01*
X487934Y5206644D01*
X508812Y5216499D01*
X528828Y5228031D01*
X547827Y5241239D01*
X565607Y5255971D01*
X582117Y5272125D01*
X597204Y5289600D01*
X610819Y5308295D01*
X622757Y5328107D01*
X633018Y5348782D01*
X641553Y5370271D01*
X648208Y5392369D01*
X653034Y5414975D01*
X655929Y5437936D01*
X656336Y5448300D01*
X393700Y5448300D01*
G37*
G36*
X5448300Y5185613D02*
G01*
X5448300Y5448300D01*
X5185410Y5448300D01*
X5187289Y5426405D01*
X5191150Y5403646D01*
X5196890Y5381244D01*
X5204460Y5359450D01*
X5213858Y5338318D01*
X5224983Y5318099D01*
X5237784Y5298846D01*
X5252161Y5280710D01*
X5267960Y5263896D01*
X5285130Y5248402D01*
X5303520Y5234432D01*
X5323027Y5222087D01*
X5343499Y5211368D01*
X5364835Y5202428D01*
X5386781Y5195265D01*
X5409285Y5189982D01*
X5432145Y5186629D01*
G37*
G36*
X368300Y5185613D02*
G01*
X368300Y5448300D01*
X105410Y5448300D01*
X107289Y5426405D01*
X111150Y5403646D01*
X116890Y5381244D01*
X124460Y5359450D01*
X133858Y5338318D01*
X144983Y5318099D01*
X157784Y5298846D01*
X172161Y5280710D01*
X187960Y5263896D01*
X205130Y5248402D01*
X223520Y5234432D01*
X243027Y5222087D01*
X263499Y5211368D01*
X284835Y5202428D01*
X306781Y5195265D01*
X329285Y5189982D01*
X352145Y5186629D01*
G37*
G36*
X4559300Y5219039D02*
G01*
X4559300Y5321300D01*
X4456887Y5321300D01*
X4457039Y5319471D01*
X4459732Y5305196D01*
X4464253Y5291328D01*
X4470450Y5278170D01*
X4478223Y5265877D01*
X4487519Y5254650D01*
X4498136Y5244693D01*
X4509922Y5236159D01*
X4522673Y5229148D01*
X4536186Y5223764D01*
X4550308Y5220157D01*
G37*
G36*
X4584700Y5219039D02*
G01*
X4593691Y5220157D01*
X4607814Y5223764D01*
X4621326Y5229148D01*
X4634077Y5236159D01*
X4645863Y5244693D01*
X4656480Y5254650D01*
X4665776Y5265877D01*
X4673549Y5278170D01*
X4679746Y5291328D01*
X4684268Y5305196D01*
X4686960Y5319471D01*
X4687112Y5321300D01*
X4584700Y5321300D01*
G37*
G36*
X4456887Y5346700D02*
G01*
X4559300Y5346700D01*
X4559300Y5448960D01*
X4550308Y5447842D01*
X4536186Y5444236D01*
X4522673Y5438851D01*
X4509922Y5431840D01*
X4498136Y5423306D01*
X4487519Y5413349D01*
X4478223Y5402122D01*
X4470450Y5389829D01*
X4464253Y5376672D01*
X4459732Y5362803D01*
X4457039Y5348528D01*
G37*
G36*
X4584700Y5346700D02*
G01*
X4687112Y5346700D01*
X4686960Y5348528D01*
X4684268Y5362803D01*
X4679746Y5376672D01*
X4673549Y5389829D01*
X4665776Y5402122D01*
X4656480Y5413349D01*
X4645863Y5423306D01*
X4634077Y5431840D01*
X4621326Y5438851D01*
X4607814Y5444236D01*
X4593691Y5447842D01*
X4584700Y5448960D01*
G37*
G36*
X4818735Y5472328D02*
G01*
X4833264Y5472328D01*
X4847691Y5474157D01*
X4861814Y5477764D01*
X4875326Y5483148D01*
X4888077Y5490159D01*
X4899863Y5498693D01*
X4910480Y5508650D01*
X4919776Y5519877D01*
X4927549Y5532170D01*
X4933746Y5545328D01*
X4938268Y5559196D01*
X4940960Y5573471D01*
X4941874Y5588000D01*
X4940960Y5602528D01*
X4938268Y5616803D01*
X4933746Y5630672D01*
X4927549Y5643829D01*
X4919776Y5656122D01*
X4910480Y5667349D01*
X4899863Y5677306D01*
X4888077Y5685840D01*
X4875326Y5692851D01*
X4861814Y5698236D01*
X4847691Y5701842D01*
X4833264Y5703671D01*
X4818735Y5703671D01*
X4804308Y5701842D01*
X4790186Y5698236D01*
X4776673Y5692851D01*
X4763922Y5685840D01*
X4752136Y5677306D01*
X4741519Y5667349D01*
X4732223Y5656122D01*
X4724450Y5643829D01*
X4718253Y5630672D01*
X4713732Y5616803D01*
X4711039Y5602528D01*
X4710125Y5588000D01*
X4711039Y5573471D01*
X4713732Y5559196D01*
X4718253Y5545328D01*
X4724450Y5532170D01*
X4732223Y5519877D01*
X4741519Y5508650D01*
X4752136Y5498693D01*
X4763922Y5490159D01*
X4776673Y5483148D01*
X4790186Y5477764D01*
X4804308Y5474157D01*
G37*
G36*
X4559300Y5473039D02*
G01*
X4559300Y5575300D01*
X4456887Y5575300D01*
X4457039Y5573471D01*
X4459732Y5559196D01*
X4464253Y5545328D01*
X4470450Y5532170D01*
X4478223Y5519877D01*
X4487519Y5508650D01*
X4498136Y5498693D01*
X4509922Y5490159D01*
X4522673Y5483148D01*
X4536186Y5477764D01*
X4550308Y5474157D01*
G37*
G36*
X4584700Y5473039D02*
G01*
X4593691Y5474157D01*
X4607814Y5477764D01*
X4621326Y5483148D01*
X4634077Y5490159D01*
X4645863Y5498693D01*
X4656480Y5508650D01*
X4665776Y5519877D01*
X4673549Y5532170D01*
X4679746Y5545328D01*
X4684268Y5559196D01*
X4686960Y5573471D01*
X4687112Y5575300D01*
X4584700Y5575300D01*
G37*
G36*
X393700Y5473700D02*
G01*
X656336Y5473700D01*
X655929Y5484063D01*
X653034Y5507024D01*
X648208Y5529630D01*
X641553Y5551728D01*
X633018Y5573217D01*
X622757Y5593892D01*
X610819Y5613704D01*
X597204Y5632348D01*
X582117Y5649874D01*
X565607Y5666028D01*
X547827Y5680760D01*
X528828Y5693968D01*
X508812Y5705500D01*
X487934Y5715355D01*
X466242Y5723382D01*
X443992Y5729630D01*
X421284Y5733948D01*
X398322Y5736336D01*
X393700Y5736437D01*
G37*
G36*
X5473700Y5473700D02*
G01*
X5736336Y5473700D01*
X5735929Y5484063D01*
X5733034Y5507024D01*
X5728208Y5529630D01*
X5721553Y5551728D01*
X5713018Y5573217D01*
X5702757Y5593892D01*
X5690819Y5613704D01*
X5677204Y5632348D01*
X5662117Y5649874D01*
X5645607Y5666028D01*
X5627827Y5680760D01*
X5608828Y5693968D01*
X5588812Y5705500D01*
X5567934Y5715355D01*
X5546242Y5723382D01*
X5523992Y5729630D01*
X5501284Y5733948D01*
X5478322Y5736336D01*
X5473700Y5736437D01*
G37*
G36*
X5185410Y5473700D02*
G01*
X5448300Y5473700D01*
X5448300Y5736386D01*
X5432145Y5735370D01*
X5409285Y5732018D01*
X5386781Y5726734D01*
X5364835Y5719572D01*
X5343499Y5710631D01*
X5323027Y5699912D01*
X5303520Y5687568D01*
X5285130Y5673598D01*
X5267960Y5658104D01*
X5252161Y5641289D01*
X5237784Y5623153D01*
X5224983Y5603900D01*
X5213858Y5583682D01*
X5204460Y5562549D01*
X5196890Y5540756D01*
X5191150Y5518353D01*
X5187289Y5495594D01*
G37*
G36*
X105410Y5473700D02*
G01*
X368300Y5473700D01*
X368300Y5736386D01*
X352145Y5735370D01*
X329285Y5732018D01*
X306781Y5726734D01*
X284835Y5719572D01*
X263499Y5710631D01*
X243027Y5699912D01*
X223520Y5687568D01*
X205130Y5673598D01*
X187960Y5658104D01*
X172161Y5641289D01*
X157784Y5623153D01*
X144983Y5603900D01*
X133858Y5583682D01*
X124460Y5562549D01*
X116890Y5540756D01*
X111150Y5518353D01*
X107289Y5495594D01*
G37*
G36*
X2691688Y5583682D02*
G01*
X2750261Y5583682D01*
X2756560Y5584393D01*
X2764840Y5587593D01*
X2767634Y5588000D01*
X2970784Y5588000D01*
X2971800Y5589016D01*
X2971800Y5713984D01*
X2970784Y5715000D01*
X2763520Y5715000D01*
X2760167Y5715558D01*
X2756560Y5716828D01*
X2750261Y5717540D01*
X2691688Y5717540D01*
X2685389Y5716828D01*
X2681782Y5715558D01*
X2678430Y5715000D01*
X2575560Y5715000D01*
X2571648Y5715762D01*
X2568397Y5717997D01*
X2566162Y5721248D01*
X2565400Y5725160D01*
X2565400Y5589016D01*
X2566416Y5588000D01*
X2674315Y5588000D01*
X2677109Y5587593D01*
X2679903Y5586323D01*
X2685389Y5584393D01*
G37*
G36*
X4456887Y5600700D02*
G01*
X4559300Y5600700D01*
X4559300Y5702960D01*
X4550308Y5701842D01*
X4536186Y5698236D01*
X4522673Y5692851D01*
X4509922Y5685840D01*
X4498136Y5677306D01*
X4487519Y5667349D01*
X4478223Y5656122D01*
X4470450Y5643829D01*
X4464253Y5630672D01*
X4459732Y5616803D01*
X4457039Y5602528D01*
G37*
G36*
X660400Y4070807D02*
G01*
X674217Y4071721D01*
X687781Y4074414D01*
X700938Y4078884D01*
X713333Y4084980D01*
X724865Y4092701D01*
X735279Y4101846D01*
X744423Y4112260D01*
X752094Y4123740D01*
X758240Y4136186D01*
X762660Y4149293D01*
X765403Y4162856D01*
X766267Y4176674D01*
X765403Y4190542D01*
X762660Y4204106D01*
X758240Y4217212D01*
X752094Y4229658D01*
X744423Y4241139D01*
X735279Y4251553D01*
X724865Y4260697D01*
X713333Y4268419D01*
X700938Y4274515D01*
X687781Y4278985D01*
X674217Y4281678D01*
X660400Y4282592D01*
X646582Y4281678D01*
X633018Y4278985D01*
X619861Y4274515D01*
X607466Y4268419D01*
X595934Y4260697D01*
X585520Y4251553D01*
X576376Y4241139D01*
X568706Y4229658D01*
X562559Y4217212D01*
X558139Y4204106D01*
X555396Y4190542D01*
X554532Y4176674D01*
X555396Y4162856D01*
X558139Y4149293D01*
X562559Y4136186D01*
X568706Y4123740D01*
X576376Y4112260D01*
X585520Y4101846D01*
X595934Y4092701D01*
X607466Y4084980D01*
X619861Y4078884D01*
X633018Y4074414D01*
X646582Y4071721D01*
G37*

%LPD*%
D10*
X2739897Y5668010D02*
G01*
X2739897Y5671312D01*
X2736850Y5677662D01*
X2733547Y5680963D01*
X2727197Y5684012D01*
X2714497Y5684012D01*
X2708147Y5680963D01*
X2705100Y5677662D01*
X2701797Y5671312D01*
X2701797Y5664962D01*
X2705100Y5658612D01*
X2711450Y5648960D01*
X2743200Y5617210D01*
X2698750Y5617210D01*
D11*
X4394200Y127000D02*
G01*
X5029200Y127000D01*
X1676400Y127000D02*
G01*
X4394200Y127000D01*
D12*
X4775200Y939800D02*
G01*
X3649218Y939800D01*
X4521200Y876300D02*
G01*
X2413000Y876300D01*
X2379218Y842518D01*
X2379218Y596900D01*
X3395215Y812800D02*
G01*
X4902200Y812800D01*
X4648200Y749300D02*
G01*
X2633215Y749300D01*
X2247900Y3937000D02*
G01*
X4394200Y3937000D01*
X2755900Y4000500D02*
G01*
X4457700Y4000500D01*
X3263900Y4064000D02*
G01*
X4584700Y4064000D01*
X3771900Y4127500D02*
G01*
X4648200Y4127500D01*
X4394200Y2514600D02*
G01*
X4928770Y2514600D01*
X4931209Y2512164D01*
X4457700Y2768600D02*
G01*
X4928770Y2768600D01*
X4931209Y2766164D01*
X4584700Y3022600D02*
G01*
X4928770Y3022600D01*
X4931209Y3020164D01*
X4648200Y3276600D02*
G01*
X4928770Y3276600D01*
X4931209Y3274164D01*
D11*
X885444Y2535173D02*
G01*
X2628900Y2535173D01*
X3644900Y3551173D02*
G01*
X885444Y3551173D01*
X885416Y2281095D02*
G01*
X2120900Y2281107D01*
X885416Y3805095D02*
G01*
X3898900Y3805095D01*
X3136900Y3297095D02*
G01*
X885416Y3297095D01*
X885418Y2027097D02*
G01*
X2293797Y2027097D01*
X2374900Y2108200D01*
X2379215Y1460500D02*
G01*
X2374900Y1464815D01*
X2374900Y2108200D01*
X885444Y2789173D02*
G01*
X2662174Y2789173D01*
X2697479Y2824479D01*
X2633215Y1460500D02*
G01*
X2628900Y1464815D01*
X2628900Y2108200D01*
X885416Y3043095D02*
G01*
X3344999Y3043095D01*
X3390900Y2997200D01*
X3390900Y2108200D01*
X3395215Y1460500D02*
G01*
X3390900Y1464815D01*
X3390900Y2108200D01*
X3649215Y1460500D02*
G01*
X3644900Y1464815D01*
X3644900Y2108200D01*
X4826000Y5334000D02*
G01*
X4826000Y5181600D01*
D13*
G01*
X381000Y5461000D03*
G01*
X5461000Y5461000D03*
G01*
X5461000Y381000D03*
G01*
X381000Y381000D03*
D14*
G01*
X4572000Y5588000D03*
G01*
X4572000Y5334000D03*
G01*
X4826000Y5334000D03*
G01*
X4826000Y5588000D03*
D15*
G01*
X4931206Y3020161D03*
G01*
X4931206Y2766161D03*
G01*
X4931206Y2512161D03*
G01*
X4931206Y3274161D03*
G01*
X885418Y3805097D03*
G01*
X885418Y3551097D03*
G01*
X885418Y3297097D03*
G01*
X885418Y3043097D03*
G01*
X885418Y2789097D03*
G01*
X885418Y2535097D03*
G01*
X885418Y2281097D03*
G01*
X885418Y2027097D03*
D16*
G01*
X4826000Y5181600D03*
G01*
X3649218Y1460500D03*
G01*
X3644900Y2108200D03*
G01*
X3395218Y1460500D03*
G01*
X3390900Y2108200D03*
G01*
X2374900Y2108200D03*
G01*
X2379218Y1460500D03*
G01*
X2628900Y2108200D03*
G01*
X2633218Y1460500D03*
G01*
X2697479Y2824479D03*
G01*
X3136900Y3297097D03*
G01*
X3898900Y3805097D03*
G01*
X2120900Y2281097D03*
G01*
X3644900Y3551097D03*
G01*
X2628900Y2535097D03*
G01*
X4648200Y3276600D03*
G01*
X4584700Y3022600D03*
G01*
X4457700Y2768600D03*
G01*
X4394200Y2514600D03*
G01*
X3771900Y4127500D03*
G01*
X4648200Y4127500D03*
G01*
X3263900Y4064000D03*
G01*
X4584700Y4064000D03*
G01*
X2755900Y4000500D03*
G01*
X4457700Y4000500D03*
G01*
X2247900Y3937000D03*
G01*
X4394200Y3937000D03*
G01*
X2379218Y596900D03*
G01*
X4521200Y876300D03*
G01*
X4775200Y939800D03*
G01*
X2633218Y749300D03*
G01*
X4648200Y749300D03*
G01*
X4902200Y812800D03*
G01*
X3395218Y812800D03*
G01*
X3649218Y939800D03*
G01*
X1676400Y127000D03*
G01*
X4394200Y127000D03*
G01*
X5029200Y127000D03*
M02*
