G04 Layer: TopSolderMaskLayer*
G04 EasyEDA v6.5.22, 2022-11-24 12:25:33*
G04 d5585ffcc7884e9682782ddcc4f09953,5a6b42c53f6a479593ecc07194224c93,10*
G04 Gerber Generator version 0.2*
G04 Scale: 100 percent, Rotated: No, Reflected: No *
G04 Dimensions in millimeters *
G04 leading zeros omitted , absolute positions ,4 integer and 5 decimal *
%FSLAX45Y45*%
%MOMM*%

%AMMACRO1*1,1,$1,$2,$3*1,1,$1,$4,$5*1,1,$1,0-$2,0-$3*1,1,$1,0-$4,0-$5*20,1,$1,$2,$3,$4,$5,0*20,1,$1,$4,$5,0-$2,0-$3,0*20,1,$1,0-$2,0-$3,0-$4,0-$5,0*20,1,$1,0-$4,0-$5,$2,$3,0*4,1,4,$2,$3,$4,$5,0-$2,0-$3,0-$4,0-$5,$2,$3,0*%
%ADD10MACRO1,0.2032X-0.55X-0.5X-0.55X0.5*%
%ADD11MACRO1,0.1016X-0.266X-0.5188X0.266X-0.5188*%
%ADD12C,5.2032*%
%ADD13C,2.1016*%
%ADD14C,1.9016*%
%ADD15C,1.6256*%
%ADD16C,3.0000*%

%LPD*%
D10*
G01*
X2667000Y4652007D03*
G01*
X2667000Y4492007D03*
G01*
X2984500Y4652007D03*
G01*
X2984500Y4492007D03*
G01*
X3302000Y4652007D03*
G01*
X3302000Y4492007D03*
G01*
X3619500Y4652007D03*
G01*
X3619500Y4492007D03*
G01*
X3937000Y4652007D03*
G01*
X3937000Y4492007D03*
G01*
X4254500Y4652007D03*
G01*
X4254500Y4492007D03*
G01*
X4572000Y4652007D03*
G01*
X4572000Y4492007D03*
G01*
X4889500Y4652007D03*
G01*
X4889500Y4492007D03*
D11*
G01*
X1155700Y5063125D03*
G01*
X1060700Y4842874D03*
G01*
X1250699Y4842874D03*
D10*
G01*
X1066800Y4652007D03*
G01*
X1066800Y4492007D03*
G01*
X1409700Y4652007D03*
G01*
X1409700Y4492007D03*
D11*
G01*
X1498600Y5063125D03*
G01*
X1403600Y4842874D03*
G01*
X1593599Y4842874D03*
D10*
G01*
X1752600Y4652007D03*
G01*
X1752600Y4492007D03*
D11*
G01*
X1841500Y5063125D03*
G01*
X1746500Y4842874D03*
G01*
X1936499Y4842874D03*
D10*
G01*
X2095500Y4652007D03*
G01*
X2095500Y4492007D03*
D11*
G01*
X2184400Y5063125D03*
G01*
X2089400Y4842874D03*
G01*
X2279399Y4842874D03*
D12*
G01*
X381000Y5461000D03*
G01*
X5461000Y5461000D03*
G01*
X5461000Y381000D03*
G01*
X381000Y381000D03*
D13*
G01*
X4759706Y1329893D03*
G01*
X4505706Y1329893D03*
G01*
X4251706Y1329893D03*
G01*
X3997706Y1329893D03*
G01*
X3743706Y1329893D03*
G01*
X3489706Y1329893D03*
G01*
X3235706Y1329893D03*
G01*
X2981706Y1329893D03*
D14*
G01*
X4572000Y5588000D03*
G01*
X4572000Y5334000D03*
D13*
G01*
X1835099Y1329918D03*
G01*
X1581099Y1329918D03*
G01*
X1327099Y1329918D03*
G01*
X1073099Y1329918D03*
D15*
G01*
X3048000Y2628900D03*
G01*
X3302000Y2628900D03*
G01*
X3556000Y2628900D03*
G01*
X2794000Y2628900D03*
G01*
X2540000Y2628900D03*
G01*
X2286000Y2628900D03*
G01*
X2794000Y4152900D03*
G01*
X2540000Y4152900D03*
G01*
X2286000Y4152900D03*
G01*
X3048000Y4152900D03*
G01*
X3302000Y4152900D03*
G01*
X3556000Y4152900D03*
D16*
G01*
X999997Y6041999D03*
G01*
X10884001Y6041999D03*
G01*
X1499996Y-6241999D03*
G01*
X10384002Y-6241999D03*
M02*
