G04 Layer: BottomLayer*
G04 EasyEDA v6.5.34, 2023-09-20 23:56:27*
G04 3f122a9d00374f5cbf43cf1a7a14275c,5a6b42c53f6a479593ecc07194224c93,10*
G04 Gerber Generator version 0.2*
G04 Scale: 100 percent, Rotated: No, Reflected: No *
G04 Dimensions in millimeters *
G04 leading zeros omitted , absolute positions ,4 integer and 5 decimal *
%FSLAX45Y45*%
%MOMM*%

%ADD10C,0.1524*%
%ADD11C,0.6350*%
%ADD12C,5.0000*%

%LPD*%
G36*
X1945132Y25908D02*
G01*
X36068Y26416D01*
X32156Y27178D01*
X28905Y29362D01*
X26670Y32664D01*
X25908Y36576D01*
X25908Y2821940D01*
X26670Y2825851D01*
X28905Y2829102D01*
X32156Y2831338D01*
X36068Y2832100D01*
X32156Y2832862D01*
X28905Y2835097D01*
X26670Y2838399D01*
X25908Y2842260D01*
X25908Y5805932D01*
X26670Y5809792D01*
X28905Y5813094D01*
X32156Y5815330D01*
X36068Y5816092D01*
X2555240Y5816092D01*
X2559151Y5815330D01*
X2562402Y5813094D01*
X2564638Y5809792D01*
X2565400Y5805932D01*
X2566162Y5809792D01*
X2568397Y5813094D01*
X2571648Y5815330D01*
X2575560Y5816092D01*
X4091940Y5816092D01*
X4095851Y5815330D01*
X4099102Y5813094D01*
X4101337Y5809792D01*
X4102100Y5805932D01*
X4102862Y5809792D01*
X4105097Y5813094D01*
X4108348Y5815330D01*
X4112260Y5816092D01*
X5805932Y5816092D01*
X5809792Y5815330D01*
X5813094Y5813094D01*
X5815330Y5809792D01*
X5816092Y5805932D01*
X5816092Y36068D01*
X5815330Y32156D01*
X5813094Y28905D01*
X5809792Y26670D01*
X5805932Y25908D01*
X3896868Y25908D01*
X3892956Y26670D01*
X3889705Y28905D01*
X3887470Y32207D01*
X3886708Y36068D01*
X3886708Y1155090D01*
X3885895Y1161592D01*
X3883812Y1167130D01*
X3880256Y1172260D01*
X3877259Y1175308D01*
X3873652Y1177950D01*
X3868115Y1180439D01*
X3860647Y1181608D01*
X1981809Y1181608D01*
X1975307Y1180846D01*
X1969770Y1178712D01*
X1964639Y1175207D01*
X1961591Y1172159D01*
X1959000Y1168552D01*
X1956460Y1163015D01*
X1955292Y1155547D01*
X1955292Y36068D01*
X1954530Y32207D01*
X1952294Y28905D01*
X1949043Y26720D01*
G37*

%LPC*%
G36*
X393700Y5185562D02*
G01*
X398322Y5185664D01*
X421284Y5188051D01*
X443992Y5192369D01*
X466242Y5198618D01*
X487883Y5206644D01*
X508812Y5216499D01*
X528828Y5228031D01*
X547776Y5241239D01*
X565607Y5255971D01*
X582117Y5272125D01*
X597204Y5289600D01*
X610819Y5308295D01*
X622757Y5328107D01*
X633018Y5348782D01*
X641553Y5370271D01*
X648208Y5392369D01*
X653034Y5414975D01*
X655929Y5437886D01*
X656336Y5448300D01*
X393700Y5448300D01*
G37*
G36*
X5473700Y105562D02*
G01*
X5478322Y105664D01*
X5501284Y108051D01*
X5523992Y112369D01*
X5546242Y118618D01*
X5567883Y126644D01*
X5588812Y136499D01*
X5608828Y148031D01*
X5627776Y161239D01*
X5645607Y175971D01*
X5662117Y192125D01*
X5677204Y209600D01*
X5690819Y228295D01*
X5702757Y248107D01*
X5713018Y268782D01*
X5721553Y290271D01*
X5728208Y312369D01*
X5733034Y334975D01*
X5735929Y357886D01*
X5736336Y368300D01*
X5473700Y368300D01*
G37*
G36*
X393700Y105562D02*
G01*
X398322Y105664D01*
X421284Y108051D01*
X443992Y112369D01*
X466242Y118618D01*
X487883Y126644D01*
X508812Y136499D01*
X528828Y148031D01*
X547776Y161239D01*
X565607Y175971D01*
X582117Y192125D01*
X597204Y209600D01*
X610819Y228295D01*
X622757Y248107D01*
X633018Y268782D01*
X641553Y290271D01*
X648208Y312369D01*
X653034Y334975D01*
X655929Y357886D01*
X656336Y368300D01*
X393700Y368300D01*
G37*
G36*
X368300Y105613D02*
G01*
X368300Y368300D01*
X105410Y368300D01*
X107289Y346405D01*
X111099Y323646D01*
X116890Y301244D01*
X124460Y279450D01*
X133858Y258317D01*
X144983Y238099D01*
X157784Y218846D01*
X172161Y200710D01*
X187960Y183896D01*
X205130Y168402D01*
X223520Y154432D01*
X243027Y142036D01*
X263499Y131368D01*
X284835Y122377D01*
X306781Y115265D01*
X329285Y109982D01*
X352145Y106629D01*
G37*
G36*
X5448300Y105613D02*
G01*
X5448300Y368300D01*
X5185410Y368300D01*
X5187289Y346405D01*
X5191099Y323646D01*
X5196890Y301244D01*
X5204460Y279450D01*
X5213858Y258317D01*
X5224983Y238099D01*
X5237784Y218846D01*
X5252161Y200710D01*
X5267960Y183896D01*
X5285130Y168402D01*
X5303520Y154432D01*
X5323027Y142036D01*
X5343499Y131368D01*
X5364835Y122377D01*
X5386781Y115265D01*
X5409285Y109982D01*
X5432145Y106629D01*
G37*
G36*
X393700Y393700D02*
G01*
X656336Y393700D01*
X655929Y404063D01*
X653034Y427024D01*
X648208Y449630D01*
X641553Y471728D01*
X633018Y493217D01*
X622757Y513892D01*
X610819Y533654D01*
X597204Y552348D01*
X582117Y569874D01*
X565607Y586028D01*
X547776Y600760D01*
X528828Y613968D01*
X508812Y625500D01*
X487883Y635355D01*
X466242Y643382D01*
X443992Y649630D01*
X421284Y653948D01*
X398322Y656336D01*
X393700Y656437D01*
G37*
G36*
X5473700Y393700D02*
G01*
X5736336Y393700D01*
X5735929Y404063D01*
X5733034Y427024D01*
X5728208Y449630D01*
X5721553Y471728D01*
X5713018Y493217D01*
X5702757Y513892D01*
X5690819Y533654D01*
X5677204Y552348D01*
X5662117Y569874D01*
X5645607Y586028D01*
X5627776Y600760D01*
X5608828Y613968D01*
X5588812Y625500D01*
X5567883Y635355D01*
X5546242Y643382D01*
X5523992Y649630D01*
X5501284Y653948D01*
X5478322Y656336D01*
X5473700Y656437D01*
G37*
G36*
X5185410Y393700D02*
G01*
X5448300Y393700D01*
X5448300Y656386D01*
X5432145Y655370D01*
X5409285Y652018D01*
X5386781Y646734D01*
X5364835Y639572D01*
X5343499Y630631D01*
X5323027Y619912D01*
X5303520Y607568D01*
X5285130Y593598D01*
X5267960Y578104D01*
X5252161Y561289D01*
X5237784Y543153D01*
X5224983Y523900D01*
X5213858Y503682D01*
X5204460Y482549D01*
X5196890Y460756D01*
X5191099Y438353D01*
X5187289Y415594D01*
G37*
G36*
X105410Y393700D02*
G01*
X368300Y393700D01*
X368300Y656386D01*
X352145Y655370D01*
X329285Y652018D01*
X306781Y646734D01*
X284835Y639572D01*
X263499Y630631D01*
X243027Y619912D01*
X223520Y607568D01*
X205130Y593598D01*
X187960Y578104D01*
X172161Y561289D01*
X157784Y543153D01*
X144983Y523900D01*
X133858Y503682D01*
X124460Y482549D01*
X116890Y460756D01*
X111099Y438353D01*
X107289Y415594D01*
G37*
G36*
X1894839Y2832100D02*
G01*
X3961384Y2832100D01*
X3962400Y2833116D01*
X3962400Y4126484D01*
X3961384Y4127500D01*
X1906016Y4127500D01*
X1905000Y4126484D01*
X1905000Y2842260D01*
X1904238Y2838399D01*
X1902053Y2835097D01*
X1898751Y2832862D01*
G37*
G36*
X5473700Y5185562D02*
G01*
X5478322Y5185664D01*
X5501284Y5188051D01*
X5523992Y5192369D01*
X5546242Y5198618D01*
X5567883Y5206644D01*
X5588812Y5216499D01*
X5608828Y5228031D01*
X5627776Y5241239D01*
X5645607Y5255971D01*
X5662117Y5272125D01*
X5677204Y5289600D01*
X5690819Y5308295D01*
X5702757Y5328107D01*
X5713018Y5348782D01*
X5721553Y5370271D01*
X5728208Y5392369D01*
X5733034Y5414975D01*
X5735929Y5437886D01*
X5736336Y5448300D01*
X5473700Y5448300D01*
G37*
G36*
X2691688Y5583682D02*
G01*
X2750261Y5583682D01*
X2756560Y5584393D01*
X2764840Y5587593D01*
X2767634Y5588000D01*
X2970784Y5588000D01*
X2971800Y5589016D01*
X2971800Y5713984D01*
X2970784Y5715000D01*
X2763520Y5715000D01*
X2760167Y5715558D01*
X2756560Y5716828D01*
X2750261Y5717540D01*
X2691688Y5717540D01*
X2685389Y5716828D01*
X2681782Y5715558D01*
X2678430Y5715000D01*
X2575560Y5715000D01*
X2571648Y5715762D01*
X2568397Y5717997D01*
X2566162Y5721248D01*
X2565400Y5725160D01*
X2565400Y5589016D01*
X2566416Y5588000D01*
X2674315Y5588000D01*
X2677109Y5587593D01*
X2679903Y5586323D01*
X2685389Y5584393D01*
G37*
G36*
X5448300Y5185613D02*
G01*
X5448300Y5448300D01*
X5185410Y5448300D01*
X5187289Y5426405D01*
X5191099Y5403646D01*
X5196890Y5381244D01*
X5204460Y5359450D01*
X5213858Y5338318D01*
X5224983Y5318099D01*
X5237784Y5298846D01*
X5252161Y5280710D01*
X5267960Y5263896D01*
X5285130Y5248402D01*
X5303520Y5234432D01*
X5323027Y5222036D01*
X5343499Y5211368D01*
X5364835Y5202377D01*
X5386781Y5195265D01*
X5409285Y5189982D01*
X5432145Y5186629D01*
G37*
G36*
X368300Y5185613D02*
G01*
X368300Y5448300D01*
X105410Y5448300D01*
X107289Y5426405D01*
X111099Y5403646D01*
X116890Y5381244D01*
X124460Y5359450D01*
X133858Y5338318D01*
X144983Y5318099D01*
X157784Y5298846D01*
X172161Y5280710D01*
X187960Y5263896D01*
X205130Y5248402D01*
X223520Y5234432D01*
X243027Y5222036D01*
X263499Y5211368D01*
X284835Y5202377D01*
X306781Y5195265D01*
X329285Y5189982D01*
X352145Y5186629D01*
G37*
G36*
X4103115Y5448300D02*
G01*
X4329684Y5448300D01*
X4330700Y5449316D01*
X4330700Y5675884D01*
X4329684Y5676900D01*
X4112260Y5676900D01*
X4108348Y5677662D01*
X4105097Y5679897D01*
X4102862Y5683148D01*
X4102100Y5687060D01*
X4102100Y5449316D01*
X4102252Y5448452D01*
G37*
G36*
X5473700Y5473700D02*
G01*
X5736336Y5473700D01*
X5735929Y5484063D01*
X5733034Y5507024D01*
X5728208Y5529630D01*
X5721553Y5551728D01*
X5713018Y5573217D01*
X5702757Y5593892D01*
X5690819Y5613654D01*
X5677204Y5632348D01*
X5662117Y5649874D01*
X5645607Y5666028D01*
X5627776Y5680760D01*
X5608828Y5693968D01*
X5588812Y5705500D01*
X5567883Y5715355D01*
X5546242Y5723382D01*
X5523992Y5729630D01*
X5501284Y5733948D01*
X5478322Y5736336D01*
X5473700Y5736437D01*
G37*
G36*
X393700Y5473700D02*
G01*
X656336Y5473700D01*
X655929Y5484063D01*
X653034Y5507024D01*
X648208Y5529630D01*
X641553Y5551728D01*
X633018Y5573217D01*
X622757Y5593892D01*
X610819Y5613654D01*
X597204Y5632348D01*
X582117Y5649874D01*
X565607Y5666028D01*
X547776Y5680760D01*
X528828Y5693968D01*
X508812Y5705500D01*
X487883Y5715355D01*
X466242Y5723382D01*
X443992Y5729630D01*
X421284Y5733948D01*
X398322Y5736336D01*
X393700Y5736437D01*
G37*
G36*
X105410Y5473700D02*
G01*
X368300Y5473700D01*
X368300Y5736386D01*
X352145Y5735370D01*
X329285Y5732018D01*
X306781Y5726734D01*
X284835Y5719572D01*
X263499Y5710631D01*
X243027Y5699912D01*
X223520Y5687568D01*
X205130Y5673598D01*
X187960Y5658104D01*
X172161Y5641289D01*
X157784Y5623153D01*
X144983Y5603900D01*
X133858Y5583682D01*
X124460Y5562549D01*
X116890Y5540756D01*
X111099Y5518353D01*
X107289Y5495594D01*
G37*
G36*
X5185410Y5473700D02*
G01*
X5448300Y5473700D01*
X5448300Y5736386D01*
X5432145Y5735370D01*
X5409285Y5732018D01*
X5386781Y5726734D01*
X5364835Y5719572D01*
X5343499Y5710631D01*
X5323027Y5699912D01*
X5303520Y5687568D01*
X5285130Y5673598D01*
X5267960Y5658104D01*
X5252161Y5641289D01*
X5237784Y5623153D01*
X5224983Y5603900D01*
X5213858Y5583682D01*
X5204460Y5562549D01*
X5196890Y5540756D01*
X5191099Y5518353D01*
X5187289Y5495594D01*
G37*

%LPD*%
D10*
X2739890Y5668002D02*
G01*
X2739890Y5671304D01*
X2736842Y5677654D01*
X2733540Y5680956D01*
X2727190Y5684004D01*
X2714490Y5684004D01*
X2708140Y5680956D01*
X2705092Y5677654D01*
X2701790Y5671304D01*
X2701790Y5664954D01*
X2705092Y5658604D01*
X2711442Y5648952D01*
X2743192Y5617202D01*
X2698742Y5617202D01*
D11*
G75*
G01
X4352384Y5562592D02*
G03X4352384Y5562592I-135992J0D01*
D12*
G01*
X380992Y5460992D03*
G01*
X380992Y380992D03*
G01*
X5460992Y380992D03*
G01*
X5460992Y5460992D03*
M02*
