G04 Layer: TopSilkscreenLayer*
G04 EasyEDA v6.5.34, 2023-08-21 18:11:39*
G04 c46f0082a94245e39cc9accd834b7a4f,5a6b42c53f6a479593ecc07194224c93,10*
G04 Gerber Generator version 0.2*
G04 Scale: 100 percent, Rotated: No, Reflected: No *
G04 Dimensions in millimeters *
G04 leading zeros omitted , absolute positions ,4 integer and 5 decimal *
%FSLAX45Y45*%
%MOMM*%

%ADD10C,0.1524*%
%ADD11C,0.2540*%
%ADD12C,0.1500*%

%LPD*%
D10*
X761992Y5601759D02*
G01*
X761992Y5492539D01*
X761992Y5601759D02*
G01*
X808728Y5601759D01*
X824222Y5596425D01*
X829556Y5591345D01*
X834636Y5580931D01*
X834636Y5565437D01*
X829556Y5555023D01*
X824222Y5549689D01*
X808728Y5544609D01*
X761992Y5544609D01*
X868926Y5601759D02*
G01*
X868926Y5492539D01*
X868926Y5601759D02*
G01*
X915662Y5601759D01*
X931410Y5596425D01*
X936490Y5591345D01*
X941824Y5580931D01*
X941824Y5570517D01*
X936490Y5560103D01*
X931410Y5555023D01*
X915662Y5549689D01*
X868926Y5549689D01*
X905502Y5549689D02*
G01*
X941824Y5492539D01*
X1007102Y5601759D02*
G01*
X996942Y5596425D01*
X986528Y5586265D01*
X981194Y5575851D01*
X976114Y5560103D01*
X976114Y5534195D01*
X981194Y5518701D01*
X986528Y5508287D01*
X996942Y5497873D01*
X1007102Y5492539D01*
X1027930Y5492539D01*
X1038344Y5497873D01*
X1048758Y5508287D01*
X1054092Y5518701D01*
X1059172Y5534195D01*
X1059172Y5560103D01*
X1054092Y5575851D01*
X1048758Y5586265D01*
X1038344Y5596425D01*
X1027930Y5601759D01*
X1007102Y5601759D01*
X1129784Y5601759D02*
G01*
X1129784Y5492539D01*
X1093462Y5601759D02*
G01*
X1166106Y5601759D01*
X1231638Y5601759D02*
G01*
X1221224Y5596425D01*
X1210810Y5586265D01*
X1205730Y5575851D01*
X1200396Y5560103D01*
X1200396Y5534195D01*
X1205730Y5518701D01*
X1210810Y5508287D01*
X1221224Y5497873D01*
X1231638Y5492539D01*
X1252466Y5492539D01*
X1262880Y5497873D01*
X1273294Y5508287D01*
X1278374Y5518701D01*
X1283708Y5534195D01*
X1283708Y5560103D01*
X1278374Y5575851D01*
X1273294Y5586265D01*
X1262880Y5596425D01*
X1252466Y5601759D01*
X1231638Y5601759D01*
X1317998Y5601759D02*
G01*
X1317998Y5492539D01*
X1317998Y5601759D02*
G01*
X1390642Y5492539D01*
X1390642Y5601759D02*
G01*
X1390642Y5492539D01*
X1424932Y5601759D02*
G01*
X1424932Y5492539D01*
X1424932Y5601759D02*
G01*
X1492496Y5601759D01*
X1424932Y5549689D02*
G01*
X1466588Y5549689D01*
X1424932Y5492539D02*
G01*
X1492496Y5492539D01*
X1526786Y5601759D02*
G01*
X1526786Y5492539D01*
X1526786Y5601759D02*
G01*
X1568442Y5492539D01*
X1609844Y5601759D02*
G01*
X1568442Y5492539D01*
X1609844Y5601759D02*
G01*
X1609844Y5492539D01*
X1685790Y5601759D02*
G01*
X1644134Y5492539D01*
X1685790Y5601759D02*
G01*
X1727192Y5492539D01*
X1659882Y5529115D02*
G01*
X1711698Y5529115D01*
X1919470Y5575851D02*
G01*
X1914390Y5586265D01*
X1903976Y5596425D01*
X1893562Y5601759D01*
X1872734Y5601759D01*
X1862320Y5596425D01*
X1851906Y5586265D01*
X1846826Y5575851D01*
X1841492Y5560103D01*
X1841492Y5534195D01*
X1846826Y5518701D01*
X1851906Y5508287D01*
X1862320Y5497873D01*
X1872734Y5492539D01*
X1893562Y5492539D01*
X1903976Y5497873D01*
X1914390Y5508287D01*
X1919470Y5518701D01*
X1995416Y5601759D02*
G01*
X1953760Y5492539D01*
X1995416Y5601759D02*
G01*
X2037072Y5492539D01*
X1969508Y5529115D02*
G01*
X2021324Y5529115D01*
X2071362Y5601759D02*
G01*
X2071362Y5492539D01*
X2071362Y5601759D02*
G01*
X2118098Y5601759D01*
X2133592Y5596425D01*
X2138672Y5591345D01*
X2144006Y5580931D01*
X2144006Y5570517D01*
X2138672Y5560103D01*
X2133592Y5555023D01*
X2118098Y5549689D01*
X2071362Y5549689D01*
X2107684Y5549689D02*
G01*
X2144006Y5492539D01*
X2178296Y5601759D02*
G01*
X2178296Y5492539D01*
X2178296Y5601759D02*
G01*
X2214618Y5601759D01*
X2230112Y5596425D01*
X2240526Y5586265D01*
X2245860Y5575851D01*
X2250940Y5560103D01*
X2250940Y5534195D01*
X2245860Y5518701D01*
X2240526Y5508287D01*
X2230112Y5497873D01*
X2214618Y5492539D01*
X2178296Y5492539D01*
X2443218Y5575851D02*
G01*
X2438138Y5586265D01*
X2427724Y5596425D01*
X2417310Y5601759D01*
X2396482Y5601759D01*
X2386068Y5596425D01*
X2375654Y5586265D01*
X2370574Y5575851D01*
X2365240Y5560103D01*
X2365240Y5534195D01*
X2370574Y5518701D01*
X2375654Y5508287D01*
X2386068Y5497873D01*
X2396482Y5492539D01*
X2417310Y5492539D01*
X2427724Y5497873D01*
X2438138Y5508287D01*
X2443218Y5518701D01*
X2519164Y5601759D02*
G01*
X2477508Y5492539D01*
X2519164Y5601759D02*
G01*
X2560566Y5492539D01*
X2493002Y5529115D02*
G01*
X2545072Y5529115D01*
X2594856Y5601759D02*
G01*
X2594856Y5492539D01*
X2594856Y5601759D02*
G01*
X2641592Y5601759D01*
X2657340Y5596425D01*
X2662420Y5591345D01*
X2667754Y5580931D01*
X2667754Y5570517D01*
X2662420Y5560103D01*
X2657340Y5555023D01*
X2641592Y5549689D01*
X2594856Y5549689D01*
X2631432Y5549689D02*
G01*
X2667754Y5492539D01*
X2702044Y5601759D02*
G01*
X2702044Y5492539D01*
X2702044Y5601759D02*
G01*
X2748780Y5601759D01*
X2764274Y5596425D01*
X2769608Y5591345D01*
X2774688Y5580931D01*
X2774688Y5570517D01*
X2769608Y5560103D01*
X2764274Y5555023D01*
X2748780Y5549689D01*
X2702044Y5549689D01*
X2738366Y5549689D02*
G01*
X2774688Y5492539D01*
X2808978Y5601759D02*
G01*
X2808978Y5492539D01*
X2843268Y5601759D02*
G01*
X2843268Y5492539D01*
X2843268Y5601759D02*
G01*
X2910832Y5601759D01*
X2843268Y5549689D02*
G01*
X2884924Y5549689D01*
X2843268Y5492539D02*
G01*
X2910832Y5492539D01*
X2945122Y5601759D02*
G01*
X2945122Y5492539D01*
X2945122Y5601759D02*
G01*
X2991858Y5601759D01*
X3007352Y5596425D01*
X3012686Y5591345D01*
X3017766Y5580931D01*
X3017766Y5570517D01*
X3012686Y5560103D01*
X3007352Y5555023D01*
X2991858Y5549689D01*
X2945122Y5549689D01*
X2981444Y5549689D02*
G01*
X3017766Y5492539D01*
X3132066Y5601759D02*
G01*
X3173722Y5492539D01*
X3215378Y5601759D02*
G01*
X3173722Y5492539D01*
X3280656Y5601759D02*
G01*
X3265162Y5596425D01*
X3254748Y5580931D01*
X3249668Y5555023D01*
X3249668Y5539275D01*
X3254748Y5513367D01*
X3265162Y5497873D01*
X3280656Y5492539D01*
X3291070Y5492539D01*
X3306818Y5497873D01*
X3317232Y5513367D01*
X3322312Y5539275D01*
X3322312Y5555023D01*
X3317232Y5580931D01*
X3306818Y5596425D01*
X3291070Y5601759D01*
X3280656Y5601759D01*
X3361682Y5518701D02*
G01*
X3356602Y5513367D01*
X3361682Y5508287D01*
X3367016Y5513367D01*
X3361682Y5518701D01*
X3401306Y5580931D02*
G01*
X3411720Y5586265D01*
X3427214Y5601759D01*
X3427214Y5492539D01*
X761992Y5423959D02*
G01*
X761992Y5314739D01*
X761992Y5423959D02*
G01*
X808728Y5423959D01*
X824222Y5418625D01*
X829556Y5413545D01*
X834636Y5403131D01*
X834636Y5387637D01*
X829556Y5377223D01*
X824222Y5371889D01*
X808728Y5366809D01*
X761992Y5366809D01*
X910582Y5423959D02*
G01*
X868926Y5314739D01*
X910582Y5423959D02*
G01*
X952238Y5314739D01*
X884674Y5351315D02*
G01*
X936490Y5351315D01*
X986528Y5423959D02*
G01*
X986528Y5314739D01*
X986528Y5423959D02*
G01*
X1033264Y5423959D01*
X1048758Y5418625D01*
X1054092Y5413545D01*
X1059172Y5403131D01*
X1059172Y5392717D01*
X1054092Y5382303D01*
X1048758Y5377223D01*
X1033264Y5371889D01*
X986528Y5371889D01*
X1022850Y5371889D02*
G01*
X1059172Y5314739D01*
X1129784Y5423959D02*
G01*
X1129784Y5314739D01*
X1093462Y5423959D02*
G01*
X1166106Y5423959D01*
X1280406Y5423959D02*
G01*
X1280406Y5314739D01*
X1280406Y5423959D02*
G01*
X1353304Y5314739D01*
X1353304Y5423959D02*
G01*
X1353304Y5314739D01*
X1387594Y5423959D02*
G01*
X1387594Y5345981D01*
X1392674Y5330487D01*
X1403088Y5320073D01*
X1418582Y5314739D01*
X1428996Y5314739D01*
X1444744Y5320073D01*
X1455158Y5330487D01*
X1460238Y5345981D01*
X1460238Y5423959D01*
X1494528Y5423959D02*
G01*
X1494528Y5314739D01*
X1494528Y5423959D02*
G01*
X1536184Y5314739D01*
X1577586Y5423959D02*
G01*
X1536184Y5314739D01*
X1577586Y5423959D02*
G01*
X1577586Y5314739D01*
X1611876Y5423959D02*
G01*
X1611876Y5314739D01*
X1611876Y5423959D02*
G01*
X1658612Y5423959D01*
X1674360Y5418625D01*
X1679440Y5413545D01*
X1684774Y5403131D01*
X1684774Y5392717D01*
X1679440Y5382303D01*
X1674360Y5377223D01*
X1658612Y5371889D01*
X1611876Y5371889D02*
G01*
X1658612Y5371889D01*
X1674360Y5366809D01*
X1679440Y5361475D01*
X1684774Y5351315D01*
X1684774Y5335567D01*
X1679440Y5325153D01*
X1674360Y5320073D01*
X1658612Y5314739D01*
X1611876Y5314739D01*
X1719064Y5423959D02*
G01*
X1719064Y5314739D01*
X1719064Y5423959D02*
G01*
X1786628Y5423959D01*
X1719064Y5371889D02*
G01*
X1760466Y5371889D01*
X1719064Y5314739D02*
G01*
X1786628Y5314739D01*
X1820918Y5423959D02*
G01*
X1820918Y5314739D01*
X1820918Y5423959D02*
G01*
X1867654Y5423959D01*
X1883148Y5418625D01*
X1888482Y5413545D01*
X1893562Y5403131D01*
X1893562Y5392717D01*
X1888482Y5382303D01*
X1883148Y5377223D01*
X1867654Y5371889D01*
X1820918Y5371889D01*
X1857240Y5371889D02*
G01*
X1893562Y5314739D01*
X2007862Y5403131D02*
G01*
X2018276Y5408465D01*
X2033770Y5423959D01*
X2033770Y5314739D01*
X2068060Y5403131D02*
G01*
X2078474Y5408465D01*
X2094222Y5423959D01*
X2094222Y5314739D01*
X2128512Y5403131D02*
G01*
X2138672Y5408465D01*
X2154420Y5423959D01*
X2154420Y5314739D01*
X2214618Y5423959D02*
G01*
X2199124Y5418625D01*
X2193790Y5408465D01*
X2193790Y5398051D01*
X2199124Y5387637D01*
X2209538Y5382303D01*
X2230112Y5377223D01*
X2245860Y5371889D01*
X2256274Y5361475D01*
X2261354Y5351315D01*
X2261354Y5335567D01*
X2256274Y5325153D01*
X2250940Y5320073D01*
X2235446Y5314739D01*
X2214618Y5314739D01*
X2199124Y5320073D01*
X2193790Y5325153D01*
X2188710Y5335567D01*
X2188710Y5351315D01*
X2193790Y5361475D01*
X2204204Y5371889D01*
X2219952Y5377223D01*
X2240526Y5382303D01*
X2250940Y5387637D01*
X2256274Y5398051D01*
X2256274Y5408465D01*
X2250940Y5418625D01*
X2235446Y5423959D01*
X2214618Y5423959D01*
X2295644Y5361475D02*
G01*
X2389116Y5361475D01*
X2454648Y5423959D02*
G01*
X2439154Y5418625D01*
X2428740Y5403131D01*
X2423406Y5377223D01*
X2423406Y5361475D01*
X2428740Y5335567D01*
X2439154Y5320073D01*
X2454648Y5314739D01*
X2465062Y5314739D01*
X2480556Y5320073D01*
X2490970Y5335567D01*
X2496304Y5361475D01*
X2496304Y5377223D01*
X2490970Y5403131D01*
X2480556Y5418625D01*
X2465062Y5423959D01*
X2454648Y5423959D01*
X2530594Y5403131D02*
G01*
X2541008Y5408465D01*
X2556502Y5423959D01*
X2556502Y5314739D01*
X2622034Y5423959D02*
G01*
X2606286Y5418625D01*
X2595872Y5403131D01*
X2590792Y5377223D01*
X2590792Y5361475D01*
X2595872Y5335567D01*
X2606286Y5320073D01*
X2622034Y5314739D01*
X2632448Y5314739D01*
X2647942Y5320073D01*
X2658356Y5335567D01*
X2663436Y5361475D01*
X2663436Y5377223D01*
X2658356Y5403131D01*
X2647942Y5418625D01*
X2632448Y5423959D01*
X2622034Y5423959D01*
X2697726Y5403131D02*
G01*
X2708140Y5408465D01*
X2723888Y5423959D01*
X2723888Y5314739D01*
X5036558Y5714230D02*
G01*
X5036558Y5641586D01*
X5031986Y5627870D01*
X5027414Y5623298D01*
X5018270Y5618726D01*
X5009380Y5618726D01*
X5000236Y5623298D01*
X4995664Y5627870D01*
X4991092Y5641586D01*
X4991092Y5650730D01*
X5066530Y5696196D02*
G01*
X5075674Y5700768D01*
X5089390Y5714230D01*
X5089390Y5618726D01*
X4111236Y5790430D02*
G01*
X4161274Y5790430D01*
X4133842Y5754108D01*
X4147558Y5754108D01*
X4156702Y5749536D01*
X4161274Y5744964D01*
X4165846Y5731502D01*
X4165846Y5722358D01*
X4161274Y5708642D01*
X4152130Y5699498D01*
X4138414Y5694926D01*
X4124698Y5694926D01*
X4111236Y5699498D01*
X4106664Y5704070D01*
X4102092Y5713214D01*
X4195818Y5790430D02*
G01*
X4232140Y5694926D01*
X4268462Y5790430D02*
G01*
X4232140Y5694926D01*
X4307578Y5790430D02*
G01*
X4357616Y5790430D01*
X4330184Y5754108D01*
X4343900Y5754108D01*
X4353044Y5749536D01*
X4357616Y5744964D01*
X4362188Y5731502D01*
X4362188Y5722358D01*
X4357616Y5708642D01*
X4348472Y5699498D01*
X4334756Y5694926D01*
X4321294Y5694926D01*
X4307578Y5699498D01*
X4303006Y5704070D01*
X4298434Y5713214D01*
X2830314Y3734859D02*
G01*
X2830314Y3625639D01*
X2793992Y3734859D02*
G01*
X2866636Y3734859D01*
X2932168Y3734859D02*
G01*
X2921754Y3729525D01*
X2911340Y3719365D01*
X2906260Y3708951D01*
X2900926Y3693203D01*
X2900926Y3667295D01*
X2906260Y3651801D01*
X2911340Y3641387D01*
X2921754Y3630973D01*
X2932168Y3625639D01*
X2952996Y3625639D01*
X2963410Y3630973D01*
X2973824Y3641387D01*
X2978904Y3651801D01*
X2984238Y3667295D01*
X2984238Y3693203D01*
X2978904Y3708951D01*
X2973824Y3719365D01*
X2963410Y3729525D01*
X2952996Y3734859D01*
X2932168Y3734859D01*
X3018528Y3734859D02*
G01*
X3018528Y3625639D01*
X3018528Y3734859D02*
G01*
X3065264Y3734859D01*
X3080758Y3729525D01*
X3086092Y3724445D01*
X3091172Y3714031D01*
X3091172Y3698537D01*
X3086092Y3688123D01*
X3080758Y3682789D01*
X3065264Y3677709D01*
X3018528Y3677709D01*
X2578092Y2210859D02*
G01*
X2578092Y2101639D01*
X2578092Y2210859D02*
G01*
X2624828Y2210859D01*
X2640322Y2205525D01*
X2645656Y2200445D01*
X2650736Y2190031D01*
X2650736Y2179617D01*
X2645656Y2169203D01*
X2640322Y2164123D01*
X2624828Y2158789D01*
X2578092Y2158789D02*
G01*
X2624828Y2158789D01*
X2640322Y2153709D01*
X2645656Y2148375D01*
X2650736Y2138215D01*
X2650736Y2122467D01*
X2645656Y2112053D01*
X2640322Y2106973D01*
X2624828Y2101639D01*
X2578092Y2101639D01*
X2716268Y2210859D02*
G01*
X2705854Y2205525D01*
X2695440Y2195365D01*
X2690360Y2184951D01*
X2685026Y2169203D01*
X2685026Y2143295D01*
X2690360Y2127801D01*
X2695440Y2117387D01*
X2705854Y2106973D01*
X2716268Y2101639D01*
X2737096Y2101639D01*
X2747510Y2106973D01*
X2757924Y2117387D01*
X2763004Y2127801D01*
X2768338Y2143295D01*
X2768338Y2169203D01*
X2763004Y2184951D01*
X2757924Y2195365D01*
X2747510Y2205525D01*
X2737096Y2210859D01*
X2716268Y2210859D01*
X2838950Y2210859D02*
G01*
X2838950Y2101639D01*
X2802628Y2210859D02*
G01*
X2875272Y2210859D01*
X2945884Y2210859D02*
G01*
X2945884Y2101639D01*
X2909562Y2210859D02*
G01*
X2982206Y2210859D01*
X3047738Y2210859D02*
G01*
X3037324Y2205525D01*
X3026910Y2195365D01*
X3021830Y2184951D01*
X3016496Y2169203D01*
X3016496Y2143295D01*
X3021830Y2127801D01*
X3026910Y2117387D01*
X3037324Y2106973D01*
X3047738Y2101639D01*
X3068566Y2101639D01*
X3078980Y2106973D01*
X3089394Y2117387D01*
X3094474Y2127801D01*
X3099808Y2143295D01*
X3099808Y2169203D01*
X3094474Y2184951D01*
X3089394Y2195365D01*
X3078980Y2205525D01*
X3068566Y2210859D01*
X3047738Y2210859D01*
X3134098Y2210859D02*
G01*
X3134098Y2101639D01*
X3134098Y2210859D02*
G01*
X3175500Y2101639D01*
X3217156Y2210859D02*
G01*
X3175500Y2101639D01*
X3217156Y2210859D02*
G01*
X3217156Y2101639D01*
X4649457Y3366556D02*
G01*
X4649457Y3283498D01*
X4644123Y3267750D01*
X4639043Y3262670D01*
X4628629Y3257336D01*
X4618215Y3257336D01*
X4607801Y3262670D01*
X4602467Y3267750D01*
X4597387Y3283498D01*
X4597387Y3293912D01*
X4688827Y3340648D02*
G01*
X4688827Y3345728D01*
X4693907Y3356142D01*
X4699241Y3361222D01*
X4709655Y3366556D01*
X4730483Y3366556D01*
X4740897Y3361222D01*
X4745977Y3356142D01*
X4751057Y3345728D01*
X4751057Y3335314D01*
X4745977Y3324900D01*
X4735563Y3309406D01*
X4683747Y3257336D01*
X4756391Y3257336D01*
X3873492Y5625330D02*
G01*
X3873492Y5529826D01*
X3873492Y5625330D02*
G01*
X3905242Y5625330D01*
X3918958Y5620758D01*
X3928102Y5611868D01*
X3932674Y5602724D01*
X3937246Y5589008D01*
X3937246Y5566402D01*
X3932674Y5552686D01*
X3928102Y5543542D01*
X3918958Y5534398D01*
X3905242Y5529826D01*
X3873492Y5529826D01*
X3967218Y5607296D02*
G01*
X3976108Y5611868D01*
X3989824Y5625330D01*
X3989824Y5529826D01*
X3873492Y5434830D02*
G01*
X3873492Y5339326D01*
X3873492Y5434830D02*
G01*
X3914386Y5434830D01*
X3928102Y5430258D01*
X3932674Y5425686D01*
X3937246Y5416796D01*
X3937246Y5407652D01*
X3932674Y5398508D01*
X3928102Y5393936D01*
X3914386Y5389364D01*
X3873492Y5389364D01*
X3905242Y5389364D02*
G01*
X3937246Y5339326D01*
X3967218Y5416796D02*
G01*
X3976108Y5421368D01*
X3989824Y5434830D01*
X3989824Y5339326D01*
G36*
X0Y5842000D02*
G01*
X0Y5588000D01*
X254000Y5842000D01*
G37*
G36*
X0Y254000D02*
G01*
X0Y0D01*
X254000Y0D01*
G37*
G36*
X5842000Y254000D02*
G01*
X5588000Y0D01*
X5842000Y0D01*
G37*
G36*
X5588000Y5842000D02*
G01*
X5842000Y5588000D01*
X5842000Y5842000D01*
G37*
D11*
X1320794Y3403594D02*
G01*
X4521194Y3403594D01*
X4521194Y2438394D01*
X1320794Y2438394D01*
X1320794Y3403594D01*
D12*
X4246092Y5575515D02*
G01*
X4212092Y5575515D01*
X4054086Y5540288D02*
G01*
X4054086Y5530286D01*
X4084081Y5500283D01*
X4269087Y5650290D02*
G01*
X4384088Y5650290D01*
X4269087Y5500283D02*
G01*
X4384088Y5500283D01*
X4189087Y5650290D02*
G01*
X4084081Y5650290D01*
X4189087Y5500283D02*
G01*
X4084081Y5500283D01*
X4384088Y5650278D02*
G01*
X4384088Y5502287D01*
X4054086Y5610280D02*
G01*
X4054086Y5540288D01*
X4054086Y5610280D02*
G01*
X4054086Y5620296D01*
X4084081Y5650290D01*
X4246092Y5610288D02*
G01*
X4246092Y5542290D01*
D11*
X4074030Y5291579D02*
G01*
X4074030Y5451584D01*
X4384088Y5292089D02*
G01*
X4384088Y5452094D01*
X4199026Y5451584D02*
G01*
X4074030Y5451584D01*
X4199026Y5291579D02*
G01*
X4074030Y5291579D01*
X4259084Y5452094D02*
G01*
X4384088Y5452094D01*
X4259084Y5292089D02*
G01*
X4384088Y5292089D01*
G75*
G01
X1422392Y3327392D02*
G03X1422392Y3327392I-25400J0D01*
X4444992Y5714992D02*
G01*
X4952992Y5714992D01*
X4952992Y5206992D01*
X4444992Y5206992D01*
X4444992Y5714992D01*
G36*
X25392Y2946392D02*
G01*
X5168892Y2946392D01*
X5168892Y2895592D01*
X25392Y2895592D01*
G37*
M02*
