G04 Layer: TopSilkscreenLayer*
G04 EasyEDA v6.5.34, 2023-08-01 23:33:27*
G04 74fb3d3c296a4d11a7f64f3819e37d63,5a6b42c53f6a479593ecc07194224c93,10*
G04 Gerber Generator version 0.2*
G04 Scale: 100 percent, Rotated: No, Reflected: No *
G04 Dimensions in millimeters *
G04 leading zeros omitted , absolute positions ,4 integer and 5 decimal *
%FSLAX45Y45*%
%MOMM*%

%ADD10C,0.1524*%
%ADD11C,0.2540*%

%LPD*%
G36*
X5153355Y4853533D02*
G01*
X5145684Y4851857D01*
X5139385Y4848047D01*
X5135575Y4842510D01*
X5115864Y4809591D01*
X5084775Y4755896D01*
X5043373Y4683302D01*
X5007102Y4619091D01*
X4966817Y4546244D01*
X4960010Y4533239D01*
X4957826Y4528566D01*
X4956987Y4524400D01*
X4987493Y4524400D01*
X4987594Y4525213D01*
X4992979Y4535627D01*
X5015585Y4576419D01*
X5049266Y4636109D01*
X5087162Y4702606D01*
X5122265Y4763668D01*
X5147665Y4807153D01*
X5154574Y4818532D01*
X5156454Y4821224D01*
X5157317Y4820259D01*
X5162143Y4812588D01*
X5182616Y4777790D01*
X5213959Y4723180D01*
X5290464Y4587290D01*
X5326024Y4523384D01*
X5325211Y4523028D01*
X5318353Y4522419D01*
X5283555Y4521555D01*
X5221071Y4520996D01*
X5035753Y4521149D01*
X5011267Y4521555D01*
X4996688Y4522165D01*
X4992319Y4522571D01*
X4989576Y4523079D01*
X4988052Y4523689D01*
X4987493Y4524400D01*
X4956987Y4524400D01*
X4956200Y4520488D01*
X4957013Y4512614D01*
X4960162Y4505401D01*
X4965496Y4499152D01*
X4971897Y4493615D01*
X5274564Y4493869D01*
X5321401Y4494580D01*
X5333644Y4495241D01*
X5340705Y4496104D01*
X5344312Y4497273D01*
X5345379Y4497984D01*
X5350052Y4502708D01*
X5353456Y4508093D01*
X5355488Y4514088D01*
X5356199Y4520692D01*
X5355590Y4522825D01*
X5351221Y4532579D01*
X5342991Y4548733D01*
X5331612Y4570272D01*
X5301691Y4624933D01*
X5266334Y4687925D01*
X5230520Y4750612D01*
X5199126Y4804206D01*
X5186629Y4824933D01*
X5173624Y4845304D01*
X5171084Y4848707D01*
X5169611Y4850180D01*
X5161635Y4852974D01*
G37*
G36*
X5155895Y4771186D02*
G01*
X5147767Y4769967D01*
X5142941Y4767173D01*
X5137708Y4762754D01*
X5133187Y4757674D01*
X5130342Y4752848D01*
X5129936Y4748987D01*
X5129834Y4740757D01*
X5130444Y4713986D01*
X5132019Y4678375D01*
X5133441Y4652213D01*
X5134813Y4632350D01*
X5136286Y4617923D01*
X5137150Y4612487D01*
X5138166Y4608017D01*
X5139334Y4604512D01*
X5140655Y4601768D01*
X5142230Y4599736D01*
X5144058Y4598263D01*
X5146141Y4597247D01*
X5148580Y4596587D01*
X5154422Y4595876D01*
X5159197Y4595825D01*
X5163362Y4596485D01*
X5166969Y4597857D01*
X5170220Y4599940D01*
X5172100Y4601667D01*
X5173624Y4603750D01*
X5174792Y4606747D01*
X5175707Y4611268D01*
X5176520Y4617974D01*
X5178145Y4640021D01*
X5181092Y4693005D01*
X5182260Y4726787D01*
X5182209Y4738370D01*
X5181701Y4747006D01*
X5180787Y4753203D01*
X5179466Y4757318D01*
X5178653Y4758740D01*
X5172303Y4765192D01*
X5164429Y4769459D01*
G37*
G36*
X5155285Y4575810D02*
G01*
X5150408Y4574895D01*
X5145735Y4572812D01*
X5141468Y4569460D01*
X5138064Y4565142D01*
X5136184Y4560570D01*
X5135575Y4555947D01*
X5136134Y4551476D01*
X5137810Y4547209D01*
X5140350Y4543348D01*
X5143703Y4540097D01*
X5147665Y4537608D01*
X5152186Y4535982D01*
X5157063Y4535424D01*
X5162194Y4536135D01*
X5167426Y4538167D01*
X5172354Y4542586D01*
X5175453Y4548886D01*
X5176469Y4556150D01*
X5175046Y4563211D01*
X5172405Y4567885D01*
X5168900Y4571492D01*
X5164734Y4574032D01*
X5160111Y4575505D01*
G37*
G36*
X5697982Y2592578D02*
G01*
X5697982Y2505456D01*
X5645404Y2505456D01*
X5645404Y2497328D01*
X5759196Y2497328D01*
X5759196Y2505456D01*
X5706618Y2505456D01*
X5706618Y2592578D01*
G37*
G36*
X5664962Y2483866D02*
G01*
X5664962Y2475738D01*
X5739638Y2475738D01*
X5739638Y2483866D01*
G37*
G36*
X5682742Y2462022D02*
G01*
X5682742Y2454402D01*
X5721858Y2454402D01*
X5721858Y2462022D01*
G37*
G36*
X5697982Y3354578D02*
G01*
X5697982Y3267456D01*
X5645404Y3267456D01*
X5645404Y3259328D01*
X5759196Y3259328D01*
X5759196Y3267456D01*
X5706618Y3267456D01*
X5706618Y3354578D01*
G37*
G36*
X5664962Y3245866D02*
G01*
X5664962Y3237738D01*
X5739638Y3237738D01*
X5739638Y3245866D01*
G37*
G36*
X5682742Y3224022D02*
G01*
X5682742Y3216402D01*
X5721858Y3216402D01*
X5721858Y3224022D01*
G37*
D10*
X762000Y5423915D02*
G01*
X762000Y5314950D01*
X762000Y5423915D02*
G01*
X808736Y5423915D01*
X824229Y5418836D01*
X829563Y5413502D01*
X834644Y5403087D01*
X834644Y5387594D01*
X829563Y5377179D01*
X824229Y5372100D01*
X808736Y5366765D01*
X762000Y5366765D01*
X910589Y5423915D02*
G01*
X868934Y5314950D01*
X910589Y5423915D02*
G01*
X952245Y5314950D01*
X884681Y5351271D02*
G01*
X936497Y5351271D01*
X986536Y5423915D02*
G01*
X986536Y5314950D01*
X986536Y5423915D02*
G01*
X1033271Y5423915D01*
X1048765Y5418836D01*
X1054100Y5413502D01*
X1059179Y5403087D01*
X1059179Y5392673D01*
X1054100Y5382260D01*
X1048765Y5377179D01*
X1033271Y5372100D01*
X986536Y5372100D01*
X1022857Y5372100D02*
G01*
X1059179Y5314950D01*
X1129792Y5423915D02*
G01*
X1129792Y5314950D01*
X1093470Y5423915D02*
G01*
X1166113Y5423915D01*
X1280413Y5423915D02*
G01*
X1280413Y5314950D01*
X1280413Y5423915D02*
G01*
X1353312Y5314950D01*
X1353312Y5423915D02*
G01*
X1353312Y5314950D01*
X1387602Y5423915D02*
G01*
X1387602Y5345937D01*
X1392681Y5330444D01*
X1403095Y5320029D01*
X1418589Y5314950D01*
X1429004Y5314950D01*
X1444752Y5320029D01*
X1455165Y5330444D01*
X1460245Y5345937D01*
X1460245Y5423915D01*
X1494536Y5423915D02*
G01*
X1494536Y5314950D01*
X1494536Y5423915D02*
G01*
X1536192Y5314950D01*
X1577594Y5423915D02*
G01*
X1536192Y5314950D01*
X1577594Y5423915D02*
G01*
X1577594Y5314950D01*
X1611884Y5423915D02*
G01*
X1611884Y5314950D01*
X1611884Y5423915D02*
G01*
X1658620Y5423915D01*
X1674368Y5418836D01*
X1679447Y5413502D01*
X1684781Y5403087D01*
X1684781Y5392673D01*
X1679447Y5382260D01*
X1674368Y5377179D01*
X1658620Y5372100D01*
X1611884Y5372100D02*
G01*
X1658620Y5372100D01*
X1674368Y5366765D01*
X1679447Y5361686D01*
X1684781Y5351271D01*
X1684781Y5335523D01*
X1679447Y5325110D01*
X1674368Y5320029D01*
X1658620Y5314950D01*
X1611884Y5314950D01*
X1719071Y5423915D02*
G01*
X1719071Y5314950D01*
X1719071Y5423915D02*
G01*
X1786636Y5423915D01*
X1719071Y5372100D02*
G01*
X1760473Y5372100D01*
X1719071Y5314950D02*
G01*
X1786636Y5314950D01*
X1820926Y5423915D02*
G01*
X1820926Y5314950D01*
X1820926Y5423915D02*
G01*
X1867662Y5423915D01*
X1883155Y5418836D01*
X1888489Y5413502D01*
X1893570Y5403087D01*
X1893570Y5392673D01*
X1888489Y5382260D01*
X1883155Y5377179D01*
X1867662Y5372100D01*
X1820926Y5372100D01*
X1857247Y5372100D02*
G01*
X1893570Y5314950D01*
X2007870Y5403087D02*
G01*
X2018284Y5408421D01*
X2033777Y5423915D01*
X2033777Y5314950D01*
X2099309Y5423915D02*
G01*
X2083815Y5418836D01*
X2073402Y5403087D01*
X2068068Y5377179D01*
X2068068Y5361686D01*
X2073402Y5335523D01*
X2083815Y5320029D01*
X2099309Y5314950D01*
X2109724Y5314950D01*
X2125218Y5320029D01*
X2135631Y5335523D01*
X2140965Y5361686D01*
X2140965Y5377179D01*
X2135631Y5403087D01*
X2125218Y5418836D01*
X2109724Y5423915D01*
X2099309Y5423915D01*
X2237486Y5408421D02*
G01*
X2232406Y5418836D01*
X2216658Y5423915D01*
X2206243Y5423915D01*
X2190750Y5418836D01*
X2180336Y5403087D01*
X2175256Y5377179D01*
X2175256Y5351271D01*
X2180336Y5330444D01*
X2190750Y5320029D01*
X2206243Y5314950D01*
X2211577Y5314950D01*
X2227072Y5320029D01*
X2237486Y5330444D01*
X2242820Y5345937D01*
X2242820Y5351271D01*
X2237486Y5366765D01*
X2227072Y5377179D01*
X2211577Y5382260D01*
X2206243Y5382260D01*
X2190750Y5377179D01*
X2180336Y5366765D01*
X2175256Y5351271D01*
X2287270Y5423915D02*
G01*
X2344420Y5423915D01*
X2313431Y5382260D01*
X2328925Y5382260D01*
X2339340Y5377179D01*
X2344420Y5372100D01*
X2349754Y5356352D01*
X2349754Y5345937D01*
X2344420Y5330444D01*
X2334259Y5320029D01*
X2318511Y5314950D01*
X2303018Y5314950D01*
X2287270Y5320029D01*
X2282190Y5325110D01*
X2277109Y5335523D01*
X2384043Y5361686D02*
G01*
X2477515Y5361686D01*
X2543047Y5423915D02*
G01*
X2527300Y5418836D01*
X2517140Y5403087D01*
X2511806Y5377179D01*
X2511806Y5361686D01*
X2517140Y5335523D01*
X2527300Y5320029D01*
X2543047Y5314950D01*
X2553461Y5314950D01*
X2568956Y5320029D01*
X2579370Y5335523D01*
X2584450Y5361686D01*
X2584450Y5377179D01*
X2579370Y5403087D01*
X2568956Y5418836D01*
X2553461Y5423915D01*
X2543047Y5423915D01*
X2618740Y5403087D02*
G01*
X2629154Y5408421D01*
X2644902Y5423915D01*
X2644902Y5314950D01*
X2710179Y5423915D02*
G01*
X2694686Y5418836D01*
X2684272Y5403087D01*
X2679191Y5377179D01*
X2679191Y5361686D01*
X2684272Y5335523D01*
X2694686Y5320029D01*
X2710179Y5314950D01*
X2720593Y5314950D01*
X2736341Y5320029D01*
X2746756Y5335523D01*
X2751836Y5361686D01*
X2751836Y5377179D01*
X2746756Y5403087D01*
X2736341Y5418836D01*
X2720593Y5423915D01*
X2710179Y5423915D01*
X2786125Y5403087D02*
G01*
X2796540Y5408421D01*
X2812034Y5423915D01*
X2812034Y5314950D01*
X762000Y5601715D02*
G01*
X762000Y5492750D01*
X762000Y5601715D02*
G01*
X808736Y5601715D01*
X824229Y5596636D01*
X829563Y5591302D01*
X834644Y5580887D01*
X834644Y5565394D01*
X829563Y5554979D01*
X824229Y5549900D01*
X808736Y5544565D01*
X762000Y5544565D01*
X868934Y5601715D02*
G01*
X868934Y5492750D01*
X868934Y5601715D02*
G01*
X915670Y5601715D01*
X931418Y5596636D01*
X936497Y5591302D01*
X941831Y5580887D01*
X941831Y5570473D01*
X936497Y5560060D01*
X931418Y5554979D01*
X915670Y5549900D01*
X868934Y5549900D01*
X905510Y5549900D02*
G01*
X941831Y5492750D01*
X1007110Y5601715D02*
G01*
X996950Y5596636D01*
X986536Y5586221D01*
X981202Y5575807D01*
X976121Y5560060D01*
X976121Y5534152D01*
X981202Y5518657D01*
X986536Y5508244D01*
X996950Y5497829D01*
X1007110Y5492750D01*
X1027937Y5492750D01*
X1038352Y5497829D01*
X1048765Y5508244D01*
X1054100Y5518657D01*
X1059179Y5534152D01*
X1059179Y5560060D01*
X1054100Y5575807D01*
X1048765Y5586221D01*
X1038352Y5596636D01*
X1027937Y5601715D01*
X1007110Y5601715D01*
X1129792Y5601715D02*
G01*
X1129792Y5492750D01*
X1093470Y5601715D02*
G01*
X1166113Y5601715D01*
X1231645Y5601715D02*
G01*
X1221231Y5596636D01*
X1210818Y5586221D01*
X1205737Y5575807D01*
X1200404Y5560060D01*
X1200404Y5534152D01*
X1205737Y5518657D01*
X1210818Y5508244D01*
X1221231Y5497829D01*
X1231645Y5492750D01*
X1252473Y5492750D01*
X1262887Y5497829D01*
X1273302Y5508244D01*
X1278381Y5518657D01*
X1283715Y5534152D01*
X1283715Y5560060D01*
X1278381Y5575807D01*
X1273302Y5586221D01*
X1262887Y5596636D01*
X1252473Y5601715D01*
X1231645Y5601715D01*
X1318005Y5601715D02*
G01*
X1318005Y5492750D01*
X1318005Y5601715D02*
G01*
X1390650Y5492750D01*
X1390650Y5601715D02*
G01*
X1390650Y5492750D01*
X1424939Y5601715D02*
G01*
X1424939Y5492750D01*
X1424939Y5601715D02*
G01*
X1492504Y5601715D01*
X1424939Y5549900D02*
G01*
X1466595Y5549900D01*
X1424939Y5492750D02*
G01*
X1492504Y5492750D01*
X1526794Y5601715D02*
G01*
X1526794Y5492750D01*
X1526794Y5601715D02*
G01*
X1568450Y5492750D01*
X1609852Y5601715D02*
G01*
X1568450Y5492750D01*
X1609852Y5601715D02*
G01*
X1609852Y5492750D01*
X1685797Y5601715D02*
G01*
X1644142Y5492750D01*
X1685797Y5601715D02*
G01*
X1727200Y5492750D01*
X1659889Y5529071D02*
G01*
X1711705Y5529071D01*
X1914397Y5586221D02*
G01*
X1903984Y5596636D01*
X1888489Y5601715D01*
X1867662Y5601715D01*
X1851913Y5596636D01*
X1841500Y5586221D01*
X1841500Y5575807D01*
X1846834Y5565394D01*
X1851913Y5560060D01*
X1862328Y5554979D01*
X1893570Y5544565D01*
X1903984Y5539486D01*
X1909063Y5534152D01*
X1914397Y5523737D01*
X1914397Y5508244D01*
X1903984Y5497829D01*
X1888489Y5492750D01*
X1867662Y5492750D01*
X1851913Y5497829D01*
X1841500Y5508244D01*
X1948688Y5601715D02*
G01*
X1948688Y5523737D01*
X1953768Y5508244D01*
X1964181Y5497829D01*
X1979929Y5492750D01*
X1990090Y5492750D01*
X2005838Y5497829D01*
X2016252Y5508244D01*
X2021331Y5523737D01*
X2021331Y5601715D01*
X2055622Y5601715D02*
G01*
X2055622Y5492750D01*
X2055622Y5601715D02*
G01*
X2102358Y5601715D01*
X2118106Y5596636D01*
X2123186Y5591302D01*
X2128520Y5580887D01*
X2128520Y5565394D01*
X2123186Y5554979D01*
X2118106Y5549900D01*
X2102358Y5544565D01*
X2055622Y5544565D01*
X2162809Y5601715D02*
G01*
X2162809Y5492750D01*
X2162809Y5601715D02*
G01*
X2230120Y5601715D01*
X2162809Y5549900D02*
G01*
X2204211Y5549900D01*
X2162809Y5492750D02*
G01*
X2230120Y5492750D01*
X2264409Y5601715D02*
G01*
X2264409Y5492750D01*
X2264409Y5601715D02*
G01*
X2311400Y5601715D01*
X2326893Y5596636D01*
X2331974Y5591302D01*
X2337308Y5580887D01*
X2337308Y5570473D01*
X2331974Y5560060D01*
X2326893Y5554979D01*
X2311400Y5549900D01*
X2264409Y5549900D01*
X2300986Y5549900D02*
G01*
X2337308Y5492750D01*
X2449575Y5575807D02*
G01*
X2444241Y5586221D01*
X2433827Y5596636D01*
X2423413Y5601715D01*
X2402840Y5601715D01*
X2392425Y5596636D01*
X2382011Y5586221D01*
X2376677Y5575807D01*
X2371597Y5560060D01*
X2371597Y5534152D01*
X2376677Y5518657D01*
X2382011Y5508244D01*
X2392425Y5497829D01*
X2402840Y5492750D01*
X2423413Y5492750D01*
X2433827Y5497829D01*
X2444241Y5508244D01*
X2449575Y5518657D01*
X2525268Y5601715D02*
G01*
X2483865Y5492750D01*
X2525268Y5601715D02*
G01*
X2566924Y5492750D01*
X2499359Y5529071D02*
G01*
X2551429Y5529071D01*
X2601213Y5601715D02*
G01*
X2601213Y5492750D01*
X2601213Y5601715D02*
G01*
X2647950Y5601715D01*
X2663443Y5596636D01*
X2668777Y5591302D01*
X2673858Y5580887D01*
X2673858Y5565394D01*
X2668777Y5554979D01*
X2663443Y5549900D01*
X2647950Y5544565D01*
X2601213Y5544565D01*
X2749804Y5601715D02*
G01*
X2708147Y5492750D01*
X2749804Y5601715D02*
G01*
X2791459Y5492750D01*
X2723895Y5529071D02*
G01*
X2775711Y5529071D01*
X2903474Y5575807D02*
G01*
X2898393Y5586221D01*
X2887979Y5596636D01*
X2877565Y5601715D01*
X2856738Y5601715D01*
X2846324Y5596636D01*
X2835909Y5586221D01*
X2830829Y5575807D01*
X2825750Y5560060D01*
X2825750Y5534152D01*
X2830829Y5518657D01*
X2835909Y5508244D01*
X2846324Y5497829D01*
X2856738Y5492750D01*
X2877565Y5492750D01*
X2887979Y5497829D01*
X2898393Y5508244D01*
X2903474Y5518657D01*
X2937763Y5601715D02*
G01*
X2937763Y5492750D01*
X3008629Y5601715D02*
G01*
X3008629Y5492750D01*
X2972054Y5601715D02*
G01*
X3044952Y5601715D01*
X3110229Y5601715D02*
G01*
X3100070Y5596636D01*
X3089656Y5586221D01*
X3084322Y5575807D01*
X3079241Y5560060D01*
X3079241Y5534152D01*
X3084322Y5518657D01*
X3089656Y5508244D01*
X3100070Y5497829D01*
X3110229Y5492750D01*
X3131058Y5492750D01*
X3141472Y5497829D01*
X3151886Y5508244D01*
X3157220Y5518657D01*
X3162300Y5534152D01*
X3162300Y5560060D01*
X3157220Y5575807D01*
X3151886Y5586221D01*
X3141472Y5596636D01*
X3131058Y5601715D01*
X3110229Y5601715D01*
X3196590Y5601715D02*
G01*
X3196590Y5492750D01*
X3196590Y5601715D02*
G01*
X3243325Y5601715D01*
X3258820Y5596636D01*
X3264154Y5591302D01*
X3269234Y5580887D01*
X3269234Y5570473D01*
X3264154Y5560060D01*
X3258820Y5554979D01*
X3243325Y5549900D01*
X3196590Y5549900D01*
X3232911Y5549900D02*
G01*
X3269234Y5492750D01*
X3383534Y5601715D02*
G01*
X3425190Y5492750D01*
X3466845Y5601715D02*
G01*
X3425190Y5492750D01*
X3532124Y5601715D02*
G01*
X3516629Y5596636D01*
X3506215Y5580887D01*
X3501136Y5554979D01*
X3501136Y5539486D01*
X3506215Y5513323D01*
X3516629Y5497829D01*
X3532124Y5492750D01*
X3542538Y5492750D01*
X3558286Y5497829D01*
X3568700Y5513323D01*
X3573779Y5539486D01*
X3573779Y5554979D01*
X3568700Y5580887D01*
X3558286Y5596636D01*
X3542538Y5601715D01*
X3532124Y5601715D01*
X3613150Y5518657D02*
G01*
X3608070Y5513323D01*
X3613150Y5508244D01*
X3618484Y5513323D01*
X3613150Y5518657D01*
X3652774Y5580887D02*
G01*
X3663188Y5586221D01*
X3678681Y5601715D01*
X3678681Y5492750D01*
X4470392Y2773420D02*
G01*
X4568690Y2773420D01*
X4519414Y3076442D02*
G01*
X4519414Y2978398D01*
X4470392Y3027420D02*
G01*
X4568690Y3027420D01*
X4348980Y2557520D02*
G01*
X4343646Y2568442D01*
X4332724Y2579364D01*
X4321802Y2584952D01*
X4299958Y2584952D01*
X4289036Y2579364D01*
X4278114Y2568442D01*
X4272526Y2557520D01*
X4267192Y2541264D01*
X4267192Y2514086D01*
X4272526Y2497576D01*
X4278114Y2486654D01*
X4289036Y2475732D01*
X4299958Y2470398D01*
X4321802Y2470398D01*
X4332724Y2475732D01*
X4343646Y2486654D01*
X4348980Y2497576D01*
X4348980Y2514086D01*
X4321802Y2514086D02*
G01*
X4348980Y2514086D01*
X4385048Y2584952D02*
G01*
X4385048Y2470398D01*
X4385048Y2584952D02*
G01*
X4461248Y2470398D01*
X4461248Y2584952D02*
G01*
X4461248Y2470398D01*
X4497316Y2584952D02*
G01*
X4497316Y2470398D01*
X4497316Y2584952D02*
G01*
X4535670Y2584952D01*
X4551926Y2579364D01*
X4562848Y2568442D01*
X4568182Y2557520D01*
X4573770Y2541264D01*
X4573770Y2514086D01*
X4568182Y2497576D01*
X4562848Y2486654D01*
X4551926Y2475732D01*
X4535670Y2470398D01*
X4497316Y2470398D01*
X4348988Y3319526D02*
G01*
X4343654Y3330447D01*
X4332731Y3341370D01*
X4321809Y3346957D01*
X4299965Y3346957D01*
X4289043Y3341370D01*
X4278122Y3330447D01*
X4272534Y3319526D01*
X4267200Y3303270D01*
X4267200Y3276092D01*
X4272534Y3259581D01*
X4278122Y3248660D01*
X4289043Y3237737D01*
X4299965Y3232404D01*
X4321809Y3232404D01*
X4332731Y3237737D01*
X4343654Y3248660D01*
X4348988Y3259581D01*
X4348988Y3276092D01*
X4321809Y3276092D02*
G01*
X4348988Y3276092D01*
X4385056Y3346957D02*
G01*
X4385056Y3232404D01*
X4385056Y3346957D02*
G01*
X4461256Y3232404D01*
X4461256Y3346957D02*
G01*
X4461256Y3232404D01*
X4497324Y3346957D02*
G01*
X4497324Y3232404D01*
X4497324Y3346957D02*
G01*
X4535677Y3346957D01*
X4551934Y3341370D01*
X4562856Y3330447D01*
X4568190Y3319526D01*
X4573777Y3303270D01*
X4573777Y3276092D01*
X4568190Y3259581D01*
X4562856Y3248660D01*
X4551934Y3237737D01*
X4535677Y3232404D01*
X4497324Y3232404D01*
X4769855Y3961655D02*
G01*
X4769855Y3889011D01*
X4765283Y3875295D01*
X4760711Y3870723D01*
X4751567Y3866151D01*
X4742677Y3866151D01*
X4733533Y3870723D01*
X4728961Y3875295D01*
X4724389Y3889011D01*
X4724389Y3898155D01*
X4804399Y3939049D02*
G01*
X4804399Y3943621D01*
X4808971Y3952511D01*
X4813543Y3957083D01*
X4822687Y3961655D01*
X4840721Y3961655D01*
X4849865Y3957083D01*
X4854437Y3952511D01*
X4859009Y3943621D01*
X4859009Y3934477D01*
X4854437Y3925333D01*
X4845293Y3911617D01*
X4799827Y3866151D01*
X4863581Y3866151D01*
X4782565Y5714237D02*
G01*
X4782565Y5641594D01*
X4777993Y5627878D01*
X4773422Y5623305D01*
X4764277Y5618734D01*
X4755388Y5618734D01*
X4746243Y5623305D01*
X4741672Y5627878D01*
X4737100Y5641594D01*
X4737100Y5650737D01*
X4812538Y5696204D02*
G01*
X4821681Y5700776D01*
X4835397Y5714237D01*
X4835397Y5618734D01*
X4805172Y5424931D02*
G01*
X4800854Y5434076D01*
X4791709Y5442965D01*
X4782565Y5447537D01*
X4764277Y5447537D01*
X4755388Y5442965D01*
X4746243Y5434076D01*
X4741672Y5424931D01*
X4737100Y5411215D01*
X4737100Y5388610D01*
X4741672Y5374894D01*
X4746243Y5365750D01*
X4755388Y5356605D01*
X4764277Y5352034D01*
X4782565Y5352034D01*
X4791709Y5356605D01*
X4800854Y5365750D01*
X4805172Y5374894D01*
X4805172Y5388610D01*
X4782565Y5388610D02*
G01*
X4805172Y5388610D01*
X4835397Y5447537D02*
G01*
X4835397Y5352034D01*
X4835397Y5447537D02*
G01*
X4898897Y5352034D01*
X4898897Y5447537D02*
G01*
X4898897Y5352034D01*
X4928870Y5447537D02*
G01*
X4928870Y5352034D01*
X4928870Y5447537D02*
G01*
X4960620Y5447537D01*
X4974336Y5442965D01*
X4983479Y5434076D01*
X4988052Y5424931D01*
X4992624Y5411215D01*
X4992624Y5388610D01*
X4988052Y5374894D01*
X4983479Y5365750D01*
X4974336Y5356605D01*
X4960620Y5352034D01*
X4928870Y5352034D01*
X4764277Y5307837D02*
G01*
X4755388Y5303265D01*
X4746243Y5294376D01*
X4741672Y5285231D01*
X4737100Y5271515D01*
X4737100Y5248910D01*
X4741672Y5235194D01*
X4746243Y5226050D01*
X4755388Y5216905D01*
X4764277Y5212334D01*
X4782565Y5212334D01*
X4791709Y5216905D01*
X4800854Y5226050D01*
X4805172Y5235194D01*
X4809743Y5248910D01*
X4809743Y5271515D01*
X4805172Y5285231D01*
X4800854Y5294376D01*
X4791709Y5303265D01*
X4782565Y5307837D01*
X4764277Y5307837D01*
X4839715Y5307837D02*
G01*
X4839715Y5212334D01*
X4839715Y5307837D02*
G01*
X4903470Y5212334D01*
X4903470Y5307837D02*
G01*
X4903470Y5212334D01*
X4933441Y5307837D02*
G01*
X4933441Y5212334D01*
X4933441Y5212334D02*
G01*
X4988052Y5212334D01*
X5018024Y5307837D02*
G01*
X5054345Y5262371D01*
X5054345Y5212334D01*
X5090668Y5307837D02*
G01*
X5054345Y5262371D01*
X5699475Y2986003D02*
G01*
X5699475Y3068045D01*
X5740364Y3026897D02*
G01*
X5658576Y3026897D01*
X5740379Y2772907D02*
G01*
X5658591Y2772907D01*
X889507Y4433315D02*
G01*
X874013Y4428236D01*
X868679Y4417821D01*
X868679Y4407407D01*
X874013Y4396994D01*
X884428Y4391660D01*
X905255Y4386579D01*
X920750Y4381500D01*
X931163Y4371086D01*
X936244Y4360671D01*
X936244Y4344923D01*
X931163Y4334510D01*
X925829Y4329429D01*
X910336Y4324350D01*
X889507Y4324350D01*
X874013Y4329429D01*
X868679Y4334510D01*
X863600Y4344923D01*
X863600Y4360671D01*
X868679Y4371086D01*
X879094Y4381500D01*
X894842Y4386579D01*
X915670Y4391660D01*
X925829Y4396994D01*
X931163Y4407407D01*
X931163Y4417821D01*
X925829Y4428236D01*
X910336Y4433315D01*
X889507Y4433315D01*
X1050544Y4433315D02*
G01*
X1050544Y4324350D01*
X1050544Y4433315D02*
G01*
X1118107Y4433315D01*
X1050544Y4381500D02*
G01*
X1092200Y4381500D01*
X1194054Y4433315D02*
G01*
X1152397Y4324350D01*
X1194054Y4433315D02*
G01*
X1235710Y4324350D01*
X1168145Y4360671D02*
G01*
X1219962Y4360671D01*
X1270000Y4433315D02*
G01*
X1270000Y4324350D01*
X1270000Y4433315D02*
G01*
X1316736Y4433315D01*
X1332229Y4428236D01*
X1337310Y4422902D01*
X1342644Y4412487D01*
X1342644Y4402073D01*
X1337310Y4391660D01*
X1332229Y4386579D01*
X1316736Y4381500D01*
X1270000Y4381500D01*
X1306321Y4381500D02*
G01*
X1342644Y4324350D01*
X1418589Y4433315D02*
G01*
X1376934Y4324350D01*
X1418589Y4433315D02*
G01*
X1459992Y4324350D01*
X1392428Y4360671D02*
G01*
X1444497Y4360671D01*
X1494281Y4433315D02*
G01*
X1494281Y4324350D01*
X1494281Y4433315D02*
G01*
X1530604Y4433315D01*
X1546352Y4428236D01*
X1556765Y4417821D01*
X1561845Y4407407D01*
X1567179Y4391660D01*
X1567179Y4365752D01*
X1561845Y4350257D01*
X1556765Y4339844D01*
X1546352Y4329429D01*
X1530604Y4324350D01*
X1494281Y4324350D01*
X1754123Y4417821D02*
G01*
X1743710Y4428236D01*
X1728215Y4433315D01*
X1707387Y4433315D01*
X1691639Y4428236D01*
X1681479Y4417821D01*
X1681479Y4407407D01*
X1686560Y4396994D01*
X1691639Y4391660D01*
X1702054Y4386579D01*
X1733295Y4376165D01*
X1743710Y4371086D01*
X1748789Y4365752D01*
X1754123Y4355337D01*
X1754123Y4339844D01*
X1743710Y4329429D01*
X1728215Y4324350D01*
X1707387Y4324350D01*
X1691639Y4329429D01*
X1681479Y4339844D01*
X1788413Y4433315D02*
G01*
X1788413Y4355337D01*
X1793494Y4339844D01*
X1803907Y4329429D01*
X1819655Y4324350D01*
X1830070Y4324350D01*
X1845563Y4329429D01*
X1855978Y4339844D01*
X1861057Y4355337D01*
X1861057Y4433315D01*
X1895347Y4433315D02*
G01*
X1895347Y4324350D01*
X1895347Y4433315D02*
G01*
X1942084Y4433315D01*
X1957831Y4428236D01*
X1962911Y4422902D01*
X1968245Y4412487D01*
X1968245Y4396994D01*
X1962911Y4386579D01*
X1957831Y4381500D01*
X1942084Y4376165D01*
X1895347Y4376165D01*
X2002536Y4433315D02*
G01*
X2002536Y4324350D01*
X2002536Y4433315D02*
G01*
X2070100Y4433315D01*
X2002536Y4381500D02*
G01*
X2043938Y4381500D01*
X2002536Y4324350D02*
G01*
X2070100Y4324350D01*
X2104390Y4433315D02*
G01*
X2104390Y4324350D01*
X2104390Y4433315D02*
G01*
X2151125Y4433315D01*
X2166620Y4428236D01*
X2171700Y4422902D01*
X2177034Y4412487D01*
X2177034Y4402073D01*
X2171700Y4391660D01*
X2166620Y4386579D01*
X2151125Y4381500D01*
X2104390Y4381500D01*
X2140711Y4381500D02*
G01*
X2177034Y4324350D01*
X2289302Y4407407D02*
G01*
X2283968Y4417821D01*
X2273554Y4428236D01*
X2263140Y4433315D01*
X2242565Y4433315D01*
X2232152Y4428236D01*
X2221738Y4417821D01*
X2216404Y4407407D01*
X2211324Y4391660D01*
X2211324Y4365752D01*
X2216404Y4350257D01*
X2221738Y4339844D01*
X2232152Y4329429D01*
X2242565Y4324350D01*
X2263140Y4324350D01*
X2273554Y4329429D01*
X2283968Y4339844D01*
X2289302Y4350257D01*
X2364993Y4433315D02*
G01*
X2323591Y4324350D01*
X2364993Y4433315D02*
G01*
X2406650Y4324350D01*
X2339086Y4360671D02*
G01*
X2391156Y4360671D01*
X2440940Y4433315D02*
G01*
X2440940Y4324350D01*
X2440940Y4433315D02*
G01*
X2487675Y4433315D01*
X2503170Y4428236D01*
X2508504Y4422902D01*
X2513584Y4412487D01*
X2513584Y4396994D01*
X2508504Y4386579D01*
X2503170Y4381500D01*
X2487675Y4376165D01*
X2440940Y4376165D01*
X2589529Y4433315D02*
G01*
X2547874Y4324350D01*
X2589529Y4433315D02*
G01*
X2631186Y4324350D01*
X2563622Y4360671D02*
G01*
X2615438Y4360671D01*
X2743200Y4407407D02*
G01*
X2738120Y4417821D01*
X2727706Y4428236D01*
X2717291Y4433315D01*
X2696463Y4433315D01*
X2686050Y4428236D01*
X2675890Y4417821D01*
X2670556Y4407407D01*
X2665475Y4391660D01*
X2665475Y4365752D01*
X2670556Y4350257D01*
X2675890Y4339844D01*
X2686050Y4329429D01*
X2696463Y4324350D01*
X2717291Y4324350D01*
X2727706Y4329429D01*
X2738120Y4339844D01*
X2743200Y4350257D01*
X2777490Y4433315D02*
G01*
X2777490Y4324350D01*
X2848356Y4433315D02*
G01*
X2848356Y4324350D01*
X2811779Y4433315D02*
G01*
X2884677Y4433315D01*
X2950209Y4433315D02*
G01*
X2939795Y4428236D01*
X2929381Y4417821D01*
X2924047Y4407407D01*
X2918968Y4391660D01*
X2918968Y4365752D01*
X2924047Y4350257D01*
X2929381Y4339844D01*
X2939795Y4329429D01*
X2950209Y4324350D01*
X2970784Y4324350D01*
X2981197Y4329429D01*
X2991611Y4339844D01*
X2996945Y4350257D01*
X3002025Y4365752D01*
X3002025Y4391660D01*
X2996945Y4407407D01*
X2991611Y4417821D01*
X2981197Y4428236D01*
X2970784Y4433315D01*
X2950209Y4433315D01*
X3036315Y4433315D02*
G01*
X3036315Y4324350D01*
X3036315Y4433315D02*
G01*
X3083052Y4433315D01*
X3098800Y4428236D01*
X3103879Y4422902D01*
X3108959Y4412487D01*
X3108959Y4402073D01*
X3103879Y4391660D01*
X3098800Y4386579D01*
X3083052Y4381500D01*
X3036315Y4381500D01*
X3072638Y4381500D02*
G01*
X3108959Y4324350D01*
X1346200Y4636515D02*
G01*
X1346200Y4527550D01*
X1346200Y4636515D02*
G01*
X1387855Y4527550D01*
X1429257Y4636515D02*
G01*
X1387855Y4527550D01*
X1429257Y4636515D02*
G01*
X1429257Y4527550D01*
X1505204Y4636515D02*
G01*
X1463547Y4527550D01*
X1505204Y4636515D02*
G01*
X1546860Y4527550D01*
X1479295Y4563871D02*
G01*
X1531112Y4563871D01*
X1581150Y4636515D02*
G01*
X1653794Y4527550D01*
X1653794Y4636515D02*
G01*
X1581150Y4527550D01*
X1688084Y4636515D02*
G01*
X1713992Y4527550D01*
X1739900Y4636515D02*
G01*
X1713992Y4527550D01*
X1739900Y4636515D02*
G01*
X1766062Y4527550D01*
X1791970Y4636515D02*
G01*
X1766062Y4527550D01*
X1826260Y4636515D02*
G01*
X1826260Y4527550D01*
X1826260Y4636515D02*
G01*
X1893823Y4636515D01*
X1826260Y4584700D02*
G01*
X1867915Y4584700D01*
X1826260Y4527550D02*
G01*
X1893823Y4527550D01*
X1928113Y4636515D02*
G01*
X1928113Y4527550D01*
X1928113Y4527550D02*
G01*
X1990343Y4527550D01*
X2024634Y4636515D02*
G01*
X2024634Y4527550D01*
X2024634Y4527550D02*
G01*
X2087118Y4527550D01*
X2201418Y4636515D02*
G01*
X2201418Y4527550D01*
X2201418Y4636515D02*
G01*
X2248154Y4636515D01*
X2263647Y4631436D01*
X2268981Y4626102D01*
X2274061Y4615687D01*
X2274061Y4600194D01*
X2268981Y4589779D01*
X2263647Y4584700D01*
X2248154Y4579365D01*
X2201418Y4579365D01*
X2386329Y4610607D02*
G01*
X2381250Y4621021D01*
X2370836Y4631436D01*
X2360422Y4636515D01*
X2339593Y4636515D01*
X2329179Y4631436D01*
X2318765Y4621021D01*
X2313686Y4610607D01*
X2308352Y4594860D01*
X2308352Y4568952D01*
X2313686Y4553457D01*
X2318765Y4543044D01*
X2329179Y4532629D01*
X2339593Y4527550D01*
X2360422Y4527550D01*
X2370836Y4532629D01*
X2381250Y4543044D01*
X2386329Y4553457D01*
X2425700Y4610607D02*
G01*
X2425700Y4615687D01*
X2431034Y4626102D01*
X2436113Y4631436D01*
X2446527Y4636515D01*
X2467356Y4636515D01*
X2477770Y4631436D01*
X2482850Y4626102D01*
X2488184Y4615687D01*
X2488184Y4605273D01*
X2482850Y4594860D01*
X2472690Y4579365D01*
X2420620Y4527550D01*
X2493263Y4527550D01*
X2532888Y4610607D02*
G01*
X2532888Y4615687D01*
X2537968Y4626102D01*
X2543302Y4631436D01*
X2553715Y4636515D01*
X2574290Y4636515D01*
X2584704Y4631436D01*
X2590038Y4626102D01*
X2595118Y4615687D01*
X2595118Y4605273D01*
X2590038Y4594860D01*
X2579624Y4579365D01*
X2527554Y4527550D01*
X2600452Y4527550D01*
X2645156Y4636515D02*
G01*
X2702306Y4636515D01*
X2671063Y4594860D01*
X2686558Y4594860D01*
X2696972Y4589779D01*
X2702306Y4584700D01*
X2707386Y4568952D01*
X2707386Y4558537D01*
X2702306Y4543044D01*
X2691891Y4532629D01*
X2676143Y4527550D01*
X2660650Y4527550D01*
X2645156Y4532629D01*
X2639822Y4537710D01*
X2634741Y4548123D01*
X4729477Y4407407D02*
G01*
X4729477Y4412487D01*
X4734811Y4422902D01*
X4739891Y4428236D01*
X4750305Y4433315D01*
X4771133Y4433315D01*
X4781547Y4428236D01*
X4786627Y4422902D01*
X4791961Y4412487D01*
X4791961Y4402073D01*
X4786627Y4391660D01*
X4776467Y4376165D01*
X4724397Y4324350D01*
X4797041Y4324350D01*
X4836665Y4350257D02*
G01*
X4831331Y4344923D01*
X4836665Y4339844D01*
X4841745Y4344923D01*
X4836665Y4350257D01*
X4886449Y4433315D02*
G01*
X4943599Y4433315D01*
X4912357Y4391660D01*
X4928105Y4391660D01*
X4938519Y4386579D01*
X4943599Y4381500D01*
X4948933Y4365752D01*
X4948933Y4355337D01*
X4943599Y4339844D01*
X4933185Y4329429D01*
X4917691Y4324350D01*
X4902197Y4324350D01*
X4886449Y4329429D01*
X4881369Y4334510D01*
X4876035Y4344923D01*
X5063233Y4433315D02*
G01*
X5104635Y4324350D01*
X5146291Y4433315D02*
G01*
X5104635Y4324350D01*
X5211823Y4433315D02*
G01*
X5201409Y4428236D01*
X5190995Y4417821D01*
X5185661Y4407407D01*
X5180581Y4391660D01*
X5180581Y4365752D01*
X5185661Y4350257D01*
X5190995Y4339844D01*
X5201409Y4329429D01*
X5211823Y4324350D01*
X5232397Y4324350D01*
X5242811Y4329429D01*
X5253225Y4339844D01*
X5258559Y4350257D01*
X5263639Y4365752D01*
X5263639Y4391660D01*
X5258559Y4407407D01*
X5253225Y4417821D01*
X5242811Y4428236D01*
X5232397Y4433315D01*
X5211823Y4433315D01*
X5297929Y4433315D02*
G01*
X5297929Y4324350D01*
X5297929Y4324350D02*
G01*
X5360413Y4324350D01*
X5431025Y4433315D02*
G01*
X5431025Y4324350D01*
X5394703Y4433315D02*
G01*
X5467347Y4433315D01*
X5574281Y4417821D02*
G01*
X5563867Y4428236D01*
X5548373Y4433315D01*
X5527545Y4433315D01*
X5512051Y4428236D01*
X5501637Y4417821D01*
X5501637Y4407407D01*
X5506717Y4396994D01*
X5512051Y4391660D01*
X5522465Y4386579D01*
X5553707Y4376165D01*
X5563867Y4371086D01*
X5569201Y4365752D01*
X5574281Y4355337D01*
X5574281Y4339844D01*
X5563867Y4329429D01*
X5548373Y4324350D01*
X5527545Y4324350D01*
X5512051Y4329429D01*
X5501637Y4339844D01*
X4800600Y4280915D02*
G01*
X4800600Y4171950D01*
X4800600Y4280915D02*
G01*
X4842256Y4171950D01*
X4883658Y4280915D02*
G01*
X4842256Y4171950D01*
X4883658Y4280915D02*
G01*
X4883658Y4171950D01*
X4959604Y4280915D02*
G01*
X4917947Y4171950D01*
X4959604Y4280915D02*
G01*
X5001259Y4171950D01*
X4933695Y4208271D02*
G01*
X4985511Y4208271D01*
X5035550Y4280915D02*
G01*
X5108193Y4171950D01*
X5108193Y4280915D02*
G01*
X5035550Y4171950D01*
X5142484Y4280915D02*
G01*
X5142484Y4171950D01*
X5176774Y4280915D02*
G01*
X5176774Y4171950D01*
X5176774Y4280915D02*
G01*
X5218429Y4171950D01*
X5259831Y4280915D02*
G01*
X5218429Y4171950D01*
X5259831Y4280915D02*
G01*
X5259831Y4171950D01*
X5294122Y4280915D02*
G01*
X5294122Y4202937D01*
X5299456Y4187444D01*
X5309870Y4177029D01*
X5325363Y4171950D01*
X5335777Y4171950D01*
X5351272Y4177029D01*
X5361686Y4187444D01*
X5367020Y4202937D01*
X5367020Y4280915D01*
X5401309Y4280915D02*
G01*
X5401309Y4171950D01*
X5401309Y4280915D02*
G01*
X5442711Y4171950D01*
X5484368Y4280915D02*
G01*
X5442711Y4171950D01*
X5484368Y4280915D02*
G01*
X5484368Y4171950D01*
D11*
X4445000Y5715000D02*
G01*
X4699000Y5715000D01*
X4699000Y5207000D01*
X4445000Y5207000D01*
X4445000Y5715000D01*
X4731207Y3794887D02*
G01*
X5581218Y3794887D01*
X5581218Y1994890D01*
X4731207Y1994890D01*
X4731207Y3794887D01*
X584200Y4038600D02*
G01*
X3384194Y4038600D01*
X3384194Y1738604D01*
X584200Y1738604D01*
X584200Y4038600D01*
M02*
