G04 Layer: BottomLayer*
G04 EasyEDA v6.5.34, 2023-09-10 21:32:29*
G04 1afe794d2bab4df38a2457b4b3463e79,5a6b42c53f6a479593ecc07194224c93,10*
G04 Gerber Generator version 0.2*
G04 Scale: 100 percent, Rotated: No, Reflected: No *
G04 Dimensions in millimeters *
G04 leading zeros omitted , absolute positions ,4 integer and 5 decimal *
%FSLAX45Y45*%
%MOMM*%

%ADD10C,0.2540*%
%ADD11C,0.5000*%
%ADD12C,5.0000*%
%ADD13C,1.8000*%
%ADD14C,2.0000*%
%ADD15C,0.6096*%

%LPD*%
D10*
X4267192Y3162292D02*
G01*
X4267192Y2595003D01*
X4267205Y2594990D01*
X5118092Y3162292D02*
G01*
X5118092Y2739014D01*
X5118079Y2739001D01*
X4356092Y3864985D02*
G01*
X4356092Y4444992D01*
X5118092Y4444992D02*
G01*
X5118092Y4008993D01*
X4914889Y3864993D02*
G01*
X4914889Y2848998D01*
X4584689Y3864993D02*
G01*
X4584689Y2848998D01*
X5118092Y3302043D02*
G01*
X5118092Y3754993D01*
X4356092Y3302043D02*
G01*
X4356105Y2848990D01*
X4597392Y2861698D02*
G01*
X4584692Y2848998D01*
X4914892Y2848993D02*
G01*
X4914892Y2594993D01*
X4584692Y2848993D02*
G01*
X4584692Y2594993D01*
X5118092Y914392D02*
G01*
X5105392Y2484996D01*
X1955794Y3864993D02*
G01*
X1955794Y5080043D01*
X2120894Y4118993D02*
G01*
X2120894Y5080043D01*
X2539994Y3864993D02*
G01*
X2539994Y5080043D01*
X3225792Y3864993D02*
G01*
X3225792Y5080043D01*
X3809992Y3864993D02*
G01*
X3809992Y5080043D01*
X3809992Y1524043D02*
G01*
X3809992Y2230925D01*
X3047992Y914443D02*
G01*
X3047992Y1524043D01*
X2793992Y914392D02*
G01*
X2793992Y2231001D01*
X1265801Y914392D02*
G01*
X1265801Y2231001D01*
X4914889Y4118993D02*
G01*
X4914889Y3864993D01*
X4584689Y4118993D02*
G01*
X4584689Y3864993D01*
X4914889Y4118993D02*
G01*
X4914889Y5079977D01*
X4584689Y4118993D02*
G01*
X4584689Y5079977D01*
X3809989Y3102990D02*
G01*
X3809989Y2340996D01*
X3809989Y3864990D02*
G01*
X3809989Y3102990D01*
X2539994Y3102993D02*
G01*
X2539994Y2340996D01*
X2539994Y3864993D02*
G01*
X2539994Y3102993D01*
X1269992Y3864993D02*
G01*
X1269992Y4118993D01*
X1269992Y2340907D02*
G01*
X1269997Y3102993D01*
X1269992Y3864907D01*
X1269992Y4118993D02*
G01*
X1269992Y5079992D01*
D11*
X4000489Y5372089D02*
G01*
X4000489Y5079977D01*
X5079977Y5587989D02*
G01*
X5079977Y5079977D01*
D12*
G01*
X380992Y5460992D03*
D13*
G01*
X4571992Y5587992D03*
G01*
X4571992Y5333992D03*
G01*
X4825992Y5333992D03*
G01*
X4825992Y5587992D03*
D12*
G01*
X380992Y380992D03*
G01*
X5460992Y380992D03*
G01*
X5460992Y5460992D03*
D14*
G01*
X3301992Y914392D03*
G01*
X2539992Y914392D03*
G01*
X2793992Y914392D03*
G01*
X3047992Y914392D03*
D15*
G01*
X4000492Y5079966D03*
G01*
X4000492Y5372092D03*
G01*
X5079992Y5587992D03*
G01*
X5079992Y5079966D03*
G01*
X1269992Y2340983D03*
G01*
X1269992Y5079992D03*
G01*
X1269992Y3102983D03*
G01*
X1269992Y3864983D03*
G01*
X1269992Y4118983D03*
G01*
X2539992Y2340983D03*
G01*
X2539992Y3102983D03*
G01*
X2539992Y3864983D03*
G01*
X2539992Y5080043D03*
G01*
X3809992Y3864983D03*
G01*
X3809992Y3102983D03*
G01*
X3809992Y2340983D03*
G01*
X4584692Y4118983D03*
G01*
X4584692Y3864983D03*
G01*
X4914892Y3864983D03*
G01*
X4914892Y4118983D03*
G01*
X3809992Y5080043D03*
G01*
X4584692Y5079966D03*
G01*
X4914892Y5079966D03*
G01*
X1265801Y914392D03*
G01*
X1265801Y2231001D03*
G01*
X2793992Y2231001D03*
G01*
X3047992Y1524043D03*
G01*
X3809992Y1524043D03*
G01*
X3809992Y2230925D03*
G01*
X5118092Y914392D03*
G01*
X5118092Y3755001D03*
G01*
X3225792Y3864983D03*
G01*
X3225792Y5080043D03*
G01*
X2120892Y4118983D03*
G01*
X1955792Y3864983D03*
G01*
X2120892Y5080043D03*
G01*
X1955792Y5080043D03*
G01*
X5105392Y2485001D03*
G01*
X4914892Y2849008D03*
G01*
X4914892Y2595008D03*
G01*
X4584692Y2595008D03*
G01*
X4584692Y2849008D03*
G01*
X4356092Y3302043D03*
G01*
X5118092Y3302043D03*
G01*
X4356117Y2848983D03*
G01*
X4356092Y4444992D03*
G01*
X5118092Y4444992D03*
G01*
X5118092Y4009001D03*
G01*
X4356092Y3864983D03*
G01*
X5118092Y3162292D03*
G01*
X4267192Y3162292D03*
G01*
X5118092Y2739001D03*
G01*
X4267217Y2594983D03*
M02*
