M48
METRIC,LZ,000.000
;FILE_FORMAT=3:3
;TYPE=PLATED
;Layer: PTH_Through
;EasyEDA v6.5.29, 2023-07-24 16:36:01
;a67172d6d4c449c092c22cdc1d0531fc,5a6b42c53f6a479593ecc07194224c93,10
;Gerber Generator version 0.2
;Holesize 1 = 0.305 mm
T01C0.305
;Holesize 2 = 0.701 mm
T02C0.701
;Holesize 3 = 0.800 mm
T03C0.800
;Holesize 4 = 0.813 mm
T04C0.813
;Holesize 5 = 1.101 mm
T05C1.101
%
G05
G90
T01
X004445Y092456
X006223Y092456
X008001Y092456
X009779Y092456
X011557Y092456
X013335Y092456
X015113Y092456
X016891Y092456
X018669Y092456
X020447Y092456
X022225Y092456
X024003Y092456
X025781Y092456
X027559Y092456
X029337Y092456
X031115Y092456
X003556Y091559
X005334Y091559
X007112Y091568
X008890Y091559
X010668Y091559
X012446Y091559
X014224Y091559
X016002Y091559
X019557Y091557
X021335Y091557
X023113Y091557
X024891Y091557
X026669Y091557
X028447Y091557
X030225Y091557
X032003Y091557
X080263Y091565
X078485Y091565
X076707Y091565
X074929Y091565
X071373Y091565
X067817Y091565
X064262Y091567
X060706Y091567
X058928Y091567
X055372Y091576
X053594Y091567
X051816Y091567
X079375Y092464
X077597Y092464
X075819Y092464
X074041Y092464
X072263Y092464
X070485Y092464
X068707Y092464
X066929Y092464
X065151Y092464
X063373Y092464
X061595Y092464
X059817Y092464
X058039Y092464
X056261Y092464
X054483Y092464
X052704Y092464
X073151Y091565
X069595Y091565
X062484Y091567
X057150Y091567
X051689Y-009017
X053467Y-009017
X055245Y-009017
X049911Y-009017
X048133Y-009017
X046355Y-009017
X044577Y-009020
X042799Y-009022
X041023Y-009022
X039245Y-009022
X037467Y-009022
X035687Y-009017
X033909Y-009017
X032131Y-009017
X030353Y-009017
X027707Y-009914
X024130Y-003175
X024511Y-002413
X019558Y-001270
X115316Y000762
X115364Y013462
X115364Y026162
X115316Y033147
X115316Y038862
X115316Y044577
X115316Y051181
X115316Y056896
X115316Y066802
X115316Y076581
X115316Y082296
X-031290Y077978
X-031290Y044958
X003937Y011430
X-016129Y020320
X-016129Y015240
X-016129Y010160
X-016129Y-000000
X-016129Y005080
X-006096Y009398
X-010795Y-031877
X042761Y004699
X041910Y017780
X017780Y071120
X065913Y071120
X097282Y059817
X097282Y056515
X097282Y052451
X016637Y058420
X100711Y054229
X096012Y050927
X032639Y089027
X051181Y089027
X014605Y024130
X005080Y002540
X020320Y002540
X058039Y089027
X061595Y089027
X063373Y089027
X066929Y089027
X070485Y089027
X074041Y089027
X075819Y089027
X056261Y089027
X052705Y089027
X054483Y089027
X059817Y089027
X068707Y089027
X072263Y089027
X077597Y089027
X079375Y089027
X080899Y089027
X031115Y089027
X029337Y089027
X027559Y089027
X025781Y089027
X024003Y089027
X022225Y089027
X020447Y089027
X018669Y089027
X015113Y089027
X013335Y089027
X011557Y089027
X009779Y089027
X008001Y089027
X006223Y089027
X004445Y089027
X002921Y089027
X100076Y051816
X099822Y058420
X100076Y056515
X097282Y067630
X097330Y014290
X108204Y017907
X115316Y017907
X-018796Y070424
X-031290Y073406
X-021082Y071374
X-019939Y073787
T02
X-026823Y-032768G85X-025924Y-032768
X-026823Y-024128G85X-025924Y-024128
X-030623Y-024128G85X-029723Y-024128
X-030623Y-032768G85X-029723Y-032768
T03
X102107Y058674
X108107Y058674
X105107Y058674
X105107Y052959
X108107Y052959
X102107Y052959
X105107Y068580
X108107Y068580
X102107Y068580
X102107Y078359
X108107Y078359
X105107Y078359
X105107Y084074
X108107Y084074
X102107Y084074
X102107Y040640
X108107Y040640
X105107Y040640
X105107Y046355
X108107Y046355
X102107Y046355
X105107Y034925
X108107Y034925
X102107Y034925
X-024083Y076200
X-018083Y076200
X-021083Y076200
X102155Y027940
X108155Y027940
X105155Y027940
X-021083Y043180
X-018083Y043180
X-024083Y043180
X105155Y015240
X108155Y015240
X102155Y015240
X102107Y002540
X108107Y002540
X105107Y002540
T04
X002540Y-002540
X005080Y-002540
X007620Y-002540
X010160Y-002540
X012700Y-002540
X015240Y-002540
X017780Y-002540
X020320Y-002540
X022860Y-002540
X-000000Y000000
X-000000Y002540
X-000000Y005080
X-000000Y007620
X-000000Y010160
X-000000Y012700
X-000000Y015240
X-000000Y017780
X-000000Y020320
X002540Y022860
X005080Y022860
X007620Y022860
X010160Y022860
X012700Y022860
X015240Y022860
X017780Y022860
X020320Y022860
X022860Y022860
X025400Y020320
X025400Y017780
X025400Y015240
X025400Y012700
X025400Y010160
X025400Y007620
X025400Y005080
X025400Y002540
X025400Y000000
X002540Y020320
X005080Y020320
X007620Y020320
X010160Y020320
X012700Y020320
X015240Y020320
X017780Y020320
X020320Y020320
X022860Y020320
X002540Y017780
X002540Y015240
X002540Y012700
X002540Y010160
X002540Y007620
X002540Y005080
X002540Y002540
X002540Y000000
X005080Y000000
X007620Y000000
X010160Y000000
X012700Y000000
X015240Y000000
X017780Y000000
X020320Y000000
X022860Y000000
X022860Y002540
X022860Y005080
X022860Y007620
X022860Y010160
X022860Y012700
X022860Y015240
X022860Y017780
T05
X015240Y100457
X012700Y100457
X010160Y100457
X007620Y100457
X005080Y100457
X002540Y100457
X-000000Y100457
X-002540Y100457
X015240Y108077
X012700Y108077
X010160Y108077
X007620Y108077
X005080Y108077
X002540Y108077
X-000000Y108077
X-002540Y108077
X038100Y100457
X035560Y100457
X033020Y100457
X030480Y100457
X027940Y100457
X025400Y100457
X022860Y100457
X020320Y100457
X038100Y108077
X035560Y108077
X033020Y108077
X030480Y108077
X027940Y108077
X025400Y108077
X022860Y108077
X020320Y108077
X063500Y100465
X060960Y100465
X058420Y100465
X055880Y100465
X053340Y100465
X050800Y100465
X048260Y100465
X045720Y100465
X063500Y108085
X060960Y108085
X058420Y108085
X055880Y108085
X053340Y108085
X050800Y108085
X048260Y108085
X045720Y108085
X086233Y100465
X083693Y100465
X081153Y100465
X078613Y100465
X076073Y100465
X073533Y100465
X070993Y100465
X068453Y100465
X086233Y108085
X083693Y108085
X081153Y108085
X078613Y108085
X076073Y108085
X073533Y108085
X070993Y108085
X068453Y108085
M30
