G04 Layer: BottomLayer*
G04 EasyEDA v6.5.32, 2023-07-25 17:33:38*
G04 0e047b32cf204c8d8061d642989ecc76,5a6b42c53f6a479593ecc07194224c93,10*
G04 Gerber Generator version 0.2*
G04 Scale: 100 percent, Rotated: No, Reflected: No *
G04 Dimensions in millimeters *
G04 leading zeros omitted , absolute positions ,4 integer and 5 decimal *
%FSLAX45Y45*%
%MOMM*%

%ADD10C,0.5000*%
%ADD11C,0.2540*%
%ADD12C,5.0000*%
%ADD13C,1.8000*%
%ADD14C,2.0000*%
%ADD15C,0.6096*%
%ADD16C,0.0197*%

%LPD*%
G36*
X671068Y15138907D02*
G01*
X667156Y15139669D01*
X663905Y15141905D01*
X661670Y15145156D01*
X660908Y15149068D01*
X660908Y20918932D01*
X661670Y20922843D01*
X663905Y20926094D01*
X667156Y20928330D01*
X671068Y20929092D01*
X27268932Y20929092D01*
X27272843Y20928330D01*
X27276094Y20926094D01*
X27278330Y20922843D01*
X27279092Y20918932D01*
X27279092Y15149068D01*
X27278330Y15145156D01*
X27276094Y15141905D01*
X27272843Y15139669D01*
X27268932Y15138907D01*
G37*

%LPC*%
G36*
X26047700Y20713700D02*
G01*
X26150112Y20713700D01*
X26149960Y20715528D01*
X26147268Y20729803D01*
X26142746Y20743672D01*
X26136549Y20756829D01*
X26128776Y20769122D01*
X26119480Y20780349D01*
X26108863Y20790306D01*
X26097077Y20798840D01*
X26084326Y20805851D01*
X26070814Y20811236D01*
X26056691Y20814842D01*
X26047700Y20815960D01*
G37*
G36*
X26936700Y15218562D02*
G01*
X26941322Y15218663D01*
X26964284Y15221051D01*
X26986992Y15225369D01*
X27009242Y15231618D01*
X27030934Y15239644D01*
X27051812Y15249499D01*
X27071827Y15261031D01*
X27090827Y15274239D01*
X27108607Y15288971D01*
X27125117Y15305125D01*
X27140204Y15322600D01*
X27153819Y15341295D01*
X27165757Y15361107D01*
X27176018Y15381782D01*
X27184553Y15403271D01*
X27191208Y15425369D01*
X27196034Y15447975D01*
X27198929Y15470936D01*
X27199336Y15481300D01*
X26936700Y15481300D01*
G37*
G36*
X1003300Y15218613D02*
G01*
X1003300Y15481300D01*
X740410Y15481300D01*
X742289Y15459405D01*
X746150Y15436646D01*
X751890Y15414244D01*
X759460Y15392450D01*
X768858Y15371318D01*
X779983Y15351099D01*
X792784Y15331846D01*
X807161Y15313710D01*
X822960Y15296896D01*
X840130Y15281401D01*
X858519Y15267432D01*
X878027Y15255087D01*
X898499Y15244368D01*
X919835Y15235428D01*
X941781Y15228265D01*
X964285Y15222982D01*
X987145Y15219629D01*
G37*
G36*
X26911300Y15218613D02*
G01*
X26911300Y15481300D01*
X26648410Y15481300D01*
X26650289Y15459405D01*
X26654150Y15436646D01*
X26659890Y15414244D01*
X26667460Y15392450D01*
X26676858Y15371318D01*
X26687983Y15351099D01*
X26700784Y15331846D01*
X26715161Y15313710D01*
X26730960Y15296896D01*
X26748130Y15281401D01*
X26766520Y15267432D01*
X26786027Y15255087D01*
X26806499Y15244368D01*
X26827835Y15235428D01*
X26849781Y15228265D01*
X26872285Y15222982D01*
X26895145Y15219629D01*
G37*
G36*
X26936700Y15506700D02*
G01*
X27199336Y15506700D01*
X27198929Y15517063D01*
X27196034Y15540024D01*
X27191208Y15562630D01*
X27184553Y15584728D01*
X27176018Y15606217D01*
X27165757Y15626892D01*
X27153819Y15646704D01*
X27140204Y15665348D01*
X27125117Y15682874D01*
X27108607Y15699028D01*
X27090827Y15713760D01*
X27071827Y15726968D01*
X27051812Y15738500D01*
X27030934Y15748355D01*
X27009242Y15756382D01*
X26986992Y15762630D01*
X26964284Y15766948D01*
X26941322Y15769336D01*
X26936700Y15769437D01*
G37*
G36*
X1028700Y15506700D02*
G01*
X1291336Y15506700D01*
X1290929Y15517063D01*
X1288034Y15540024D01*
X1283208Y15562630D01*
X1276553Y15584728D01*
X1268018Y15606217D01*
X1257757Y15626892D01*
X1245819Y15646704D01*
X1232204Y15665348D01*
X1217117Y15682874D01*
X1200607Y15699028D01*
X1182827Y15713760D01*
X1163828Y15726968D01*
X1143812Y15738500D01*
X1122934Y15748355D01*
X1101242Y15756382D01*
X1078992Y15762630D01*
X1056284Y15766948D01*
X1033322Y15769336D01*
X1028700Y15769437D01*
G37*
G36*
X740410Y15506700D02*
G01*
X1003300Y15506700D01*
X1003300Y15769386D01*
X987145Y15768370D01*
X964285Y15765018D01*
X941781Y15759734D01*
X919835Y15752572D01*
X898499Y15743631D01*
X878027Y15732912D01*
X858519Y15720568D01*
X840130Y15706598D01*
X822960Y15691104D01*
X807161Y15674289D01*
X792784Y15656153D01*
X779983Y15636900D01*
X768858Y15616682D01*
X759460Y15595549D01*
X751890Y15573756D01*
X746150Y15551353D01*
X742289Y15528594D01*
G37*
G36*
X26648410Y15506700D02*
G01*
X26911300Y15506700D01*
X26911300Y15769386D01*
X26895145Y15768370D01*
X26872285Y15765018D01*
X26849781Y15759734D01*
X26827835Y15752572D01*
X26806499Y15743631D01*
X26786027Y15732912D01*
X26766520Y15720568D01*
X26748130Y15706598D01*
X26730960Y15691104D01*
X26715161Y15674289D01*
X26700784Y15656153D01*
X26687983Y15636900D01*
X26676858Y15616682D01*
X26667460Y15595549D01*
X26659890Y15573756D01*
X26654150Y15551353D01*
X26650289Y15528594D01*
G37*
G36*
X25641198Y15673679D02*
G01*
X25655016Y15674136D01*
X25668630Y15676422D01*
X25681787Y15680537D01*
X25694335Y15686328D01*
X25705968Y15693796D01*
X25716534Y15702686D01*
X25725780Y15712948D01*
X25733603Y15724327D01*
X25739852Y15736620D01*
X25744373Y15749676D01*
X25747116Y15763240D01*
X25748030Y15777006D01*
X25747116Y15790773D01*
X25744373Y15804337D01*
X25739852Y15817342D01*
X25733603Y15829686D01*
X25725780Y15841065D01*
X25716534Y15851327D01*
X25705968Y15860217D01*
X25694335Y15867684D01*
X25681787Y15873476D01*
X25668630Y15877590D01*
X25655016Y15879876D01*
X25641198Y15880334D01*
X25627431Y15878962D01*
X25614020Y15875762D01*
X25601117Y15870783D01*
X25589026Y15864128D01*
X25577901Y15855950D01*
X25567995Y15846348D01*
X25559410Y15835528D01*
X25552400Y15823641D01*
X25546964Y15810941D01*
X25543357Y15797580D01*
X25541478Y15783915D01*
X25541478Y15770098D01*
X25543357Y15756432D01*
X25546964Y15743072D01*
X25552400Y15730372D01*
X25559410Y15718485D01*
X25567995Y15707664D01*
X25577901Y15698063D01*
X25589026Y15689884D01*
X25601117Y15683230D01*
X25614020Y15678251D01*
X25627431Y15675051D01*
G37*
G36*
X23119943Y15673679D02*
G01*
X23133761Y15674136D01*
X23147375Y15676422D01*
X23160532Y15680537D01*
X23173080Y15686328D01*
X23184713Y15693796D01*
X23195280Y15702686D01*
X23204525Y15712948D01*
X23212348Y15724327D01*
X23218597Y15736620D01*
X23223118Y15749676D01*
X23225861Y15763240D01*
X23226776Y15777006D01*
X23225861Y15790773D01*
X23223118Y15804337D01*
X23218597Y15817342D01*
X23212348Y15829686D01*
X23204525Y15841065D01*
X23195280Y15851327D01*
X23184713Y15860217D01*
X23173080Y15867684D01*
X23160532Y15873476D01*
X23147375Y15877590D01*
X23133761Y15879876D01*
X23119943Y15880334D01*
X23106176Y15878962D01*
X23092765Y15875762D01*
X23079862Y15870783D01*
X23067772Y15864128D01*
X23056646Y15855950D01*
X23046740Y15846348D01*
X23038155Y15835528D01*
X23031145Y15823641D01*
X23025709Y15810941D01*
X23022102Y15797580D01*
X23020223Y15783915D01*
X23020223Y15770098D01*
X23022102Y15756432D01*
X23025709Y15743072D01*
X23031145Y15730372D01*
X23038155Y15718485D01*
X23046740Y15707664D01*
X23056646Y15698063D01*
X23067772Y15689884D01*
X23079862Y15683230D01*
X23092765Y15678251D01*
X23106176Y15675051D01*
G37*
G36*
X23495000Y15876117D02*
G01*
X23510189Y15877032D01*
X23525124Y15879775D01*
X23539653Y15884296D01*
X23553521Y15890544D01*
X23566526Y15898418D01*
X23578464Y15907766D01*
X23589234Y15918535D01*
X23598581Y15930473D01*
X23606455Y15943478D01*
X23612754Y15957397D01*
X23614938Y15960598D01*
X23618190Y15962680D01*
X23622000Y15963392D01*
X23625810Y15962680D01*
X23629061Y15960598D01*
X23631245Y15957397D01*
X23637544Y15943478D01*
X23645418Y15930473D01*
X23654766Y15918535D01*
X23665535Y15907766D01*
X23677473Y15898418D01*
X23690478Y15890544D01*
X23704346Y15884296D01*
X23718875Y15879775D01*
X23733810Y15877032D01*
X23749000Y15876117D01*
X23764189Y15877032D01*
X23779124Y15879775D01*
X23793653Y15884296D01*
X23807521Y15890544D01*
X23820526Y15898418D01*
X23832464Y15907766D01*
X23843234Y15918535D01*
X23852581Y15930473D01*
X23860455Y15943478D01*
X23866754Y15957397D01*
X23868938Y15960598D01*
X23872190Y15962680D01*
X23876000Y15963392D01*
X23879810Y15962680D01*
X23883061Y15960598D01*
X23885245Y15957397D01*
X23891544Y15943478D01*
X23899418Y15930473D01*
X23908766Y15918535D01*
X23919535Y15907766D01*
X23931473Y15898418D01*
X23944478Y15890544D01*
X23958346Y15884296D01*
X23972875Y15879775D01*
X23987810Y15877032D01*
X24003000Y15876117D01*
X24018189Y15877032D01*
X24033124Y15879775D01*
X24047653Y15884296D01*
X24061521Y15890544D01*
X24074526Y15898418D01*
X24086464Y15907766D01*
X24097234Y15918535D01*
X24106581Y15930473D01*
X24114455Y15943478D01*
X24120754Y15957397D01*
X24122938Y15960598D01*
X24126190Y15962680D01*
X24130000Y15963392D01*
X24133810Y15962680D01*
X24137061Y15960598D01*
X24139245Y15957397D01*
X24145544Y15943478D01*
X24153418Y15930473D01*
X24162766Y15918535D01*
X24173535Y15907766D01*
X24185473Y15898418D01*
X24198478Y15890544D01*
X24212346Y15884296D01*
X24226875Y15879775D01*
X24241810Y15877032D01*
X24257000Y15876117D01*
X24272189Y15877032D01*
X24287124Y15879775D01*
X24301653Y15884296D01*
X24315521Y15890544D01*
X24328526Y15898418D01*
X24340464Y15907766D01*
X24351234Y15918535D01*
X24360581Y15930473D01*
X24368455Y15943478D01*
X24374754Y15957397D01*
X24376938Y15960598D01*
X24380190Y15962680D01*
X24384000Y15963392D01*
X24387810Y15962680D01*
X24391061Y15960598D01*
X24393245Y15957397D01*
X24399544Y15943478D01*
X24407418Y15930473D01*
X24416766Y15918535D01*
X24427535Y15907766D01*
X24439473Y15898418D01*
X24452478Y15890544D01*
X24466346Y15884296D01*
X24480875Y15879775D01*
X24495810Y15877032D01*
X24511000Y15876117D01*
X24526189Y15877032D01*
X24541124Y15879775D01*
X24555653Y15884296D01*
X24569521Y15890544D01*
X24582526Y15898418D01*
X24594464Y15907766D01*
X24605234Y15918535D01*
X24614581Y15930473D01*
X24622455Y15943478D01*
X24628754Y15957397D01*
X24630938Y15960598D01*
X24634190Y15962680D01*
X24638000Y15963392D01*
X24641810Y15962680D01*
X24645061Y15960598D01*
X24647245Y15957397D01*
X24653544Y15943478D01*
X24661418Y15930473D01*
X24670766Y15918535D01*
X24681535Y15907766D01*
X24693473Y15898418D01*
X24706478Y15890544D01*
X24720346Y15884296D01*
X24734875Y15879775D01*
X24749810Y15877032D01*
X24765000Y15876117D01*
X24780189Y15877032D01*
X24795124Y15879775D01*
X24809653Y15884296D01*
X24823521Y15890544D01*
X24836526Y15898418D01*
X24848464Y15907766D01*
X24859234Y15918535D01*
X24868581Y15930473D01*
X24876455Y15943478D01*
X24882754Y15957397D01*
X24884938Y15960598D01*
X24888190Y15962680D01*
X24892000Y15963392D01*
X24895810Y15962680D01*
X24899061Y15960598D01*
X24901245Y15957397D01*
X24907544Y15943478D01*
X24915418Y15930473D01*
X24924766Y15918535D01*
X24935535Y15907766D01*
X24947473Y15898418D01*
X24960478Y15890544D01*
X24974346Y15884296D01*
X24988875Y15879775D01*
X25003810Y15877032D01*
X25019000Y15876117D01*
X25034189Y15877032D01*
X25049124Y15879775D01*
X25063653Y15884296D01*
X25077521Y15890544D01*
X25090526Y15898418D01*
X25102464Y15907766D01*
X25113234Y15918535D01*
X25122581Y15930473D01*
X25130455Y15943478D01*
X25136754Y15957397D01*
X25138938Y15960598D01*
X25142190Y15962680D01*
X25146000Y15963392D01*
X25149810Y15962680D01*
X25153061Y15960598D01*
X25155245Y15957397D01*
X25161544Y15943478D01*
X25169418Y15930473D01*
X25178766Y15918535D01*
X25189535Y15907766D01*
X25201473Y15898418D01*
X25214478Y15890544D01*
X25228346Y15884296D01*
X25242875Y15879775D01*
X25257810Y15877032D01*
X25273000Y15876117D01*
X25288189Y15877032D01*
X25303124Y15879775D01*
X25317653Y15884296D01*
X25331521Y15890544D01*
X25344526Y15898418D01*
X25356464Y15907766D01*
X25367234Y15918535D01*
X25376581Y15930473D01*
X25384455Y15943478D01*
X25390703Y15957346D01*
X25395224Y15971875D01*
X25397968Y15986810D01*
X25398882Y16002000D01*
X25397968Y16017189D01*
X25395224Y16032124D01*
X25390703Y16046653D01*
X25384455Y16060521D01*
X25376581Y16073526D01*
X25367234Y16085464D01*
X25356464Y16096234D01*
X25344526Y16105581D01*
X25331521Y16113455D01*
X25317653Y16119703D01*
X25303124Y16124224D01*
X25288189Y16126968D01*
X25273000Y16127882D01*
X25257810Y16126968D01*
X25242875Y16124224D01*
X25228346Y16119703D01*
X25214478Y16113455D01*
X25201473Y16105581D01*
X25189535Y16096234D01*
X25178766Y16085464D01*
X25169418Y16073526D01*
X25161544Y16060521D01*
X25155245Y16046602D01*
X25153061Y16043401D01*
X25149810Y16041319D01*
X25146000Y16040607D01*
X25142190Y16041319D01*
X25138938Y16043401D01*
X25136754Y16046602D01*
X25130455Y16060521D01*
X25122581Y16073526D01*
X25113234Y16085464D01*
X25102464Y16096234D01*
X25090526Y16105581D01*
X25077521Y16113455D01*
X25063653Y16119703D01*
X25049124Y16124224D01*
X25034189Y16126968D01*
X25019000Y16127882D01*
X25003810Y16126968D01*
X24988875Y16124224D01*
X24974346Y16119703D01*
X24960478Y16113455D01*
X24947473Y16105581D01*
X24935535Y16096234D01*
X24924766Y16085464D01*
X24915418Y16073526D01*
X24907544Y16060521D01*
X24901245Y16046602D01*
X24899061Y16043401D01*
X24895810Y16041319D01*
X24892000Y16040607D01*
X24888190Y16041319D01*
X24884938Y16043401D01*
X24882754Y16046602D01*
X24876455Y16060521D01*
X24868581Y16073526D01*
X24859234Y16085464D01*
X24848464Y16096234D01*
X24836526Y16105581D01*
X24823521Y16113455D01*
X24809653Y16119703D01*
X24795124Y16124224D01*
X24780189Y16126968D01*
X24765000Y16127882D01*
X24749810Y16126968D01*
X24734875Y16124224D01*
X24720346Y16119703D01*
X24706478Y16113455D01*
X24693473Y16105581D01*
X24681535Y16096234D01*
X24670766Y16085464D01*
X24661418Y16073526D01*
X24653544Y16060521D01*
X24647245Y16046602D01*
X24645061Y16043401D01*
X24641810Y16041319D01*
X24638000Y16040607D01*
X24634190Y16041319D01*
X24630938Y16043401D01*
X24628754Y16046602D01*
X24622455Y16060521D01*
X24614581Y16073526D01*
X24605234Y16085464D01*
X24594464Y16096234D01*
X24582526Y16105581D01*
X24569521Y16113455D01*
X24555653Y16119703D01*
X24541124Y16124224D01*
X24526189Y16126968D01*
X24511000Y16127882D01*
X24495810Y16126968D01*
X24480875Y16124224D01*
X24466346Y16119703D01*
X24452478Y16113455D01*
X24439473Y16105581D01*
X24427535Y16096234D01*
X24416766Y16085464D01*
X24407418Y16073526D01*
X24399544Y16060521D01*
X24393245Y16046602D01*
X24391061Y16043401D01*
X24387810Y16041319D01*
X24384000Y16040607D01*
X24380190Y16041319D01*
X24376938Y16043401D01*
X24374754Y16046602D01*
X24368455Y16060521D01*
X24360581Y16073526D01*
X24351234Y16085464D01*
X24340464Y16096234D01*
X24328526Y16105581D01*
X24315521Y16113455D01*
X24301653Y16119703D01*
X24287124Y16124224D01*
X24272189Y16126968D01*
X24257000Y16127882D01*
X24241810Y16126968D01*
X24226875Y16124224D01*
X24212346Y16119703D01*
X24198478Y16113455D01*
X24185473Y16105581D01*
X24173535Y16096234D01*
X24162766Y16085464D01*
X24153418Y16073526D01*
X24145544Y16060521D01*
X24139245Y16046602D01*
X24137061Y16043401D01*
X24133810Y16041319D01*
X24130000Y16040607D01*
X24126190Y16041319D01*
X24122938Y16043401D01*
X24120754Y16046602D01*
X24114455Y16060521D01*
X24106581Y16073526D01*
X24097234Y16085464D01*
X24086464Y16096234D01*
X24074526Y16105581D01*
X24061521Y16113455D01*
X24047653Y16119703D01*
X24033124Y16124224D01*
X24018189Y16126968D01*
X24003000Y16127882D01*
X23987810Y16126968D01*
X23972875Y16124224D01*
X23958346Y16119703D01*
X23944478Y16113455D01*
X23931473Y16105581D01*
X23919535Y16096234D01*
X23908766Y16085464D01*
X23899418Y16073526D01*
X23891544Y16060521D01*
X23885245Y16046602D01*
X23883061Y16043401D01*
X23879810Y16041319D01*
X23876000Y16040607D01*
X23872190Y16041319D01*
X23868938Y16043401D01*
X23866754Y16046602D01*
X23860455Y16060521D01*
X23852581Y16073526D01*
X23843234Y16085464D01*
X23832464Y16096234D01*
X23820526Y16105581D01*
X23807521Y16113455D01*
X23793602Y16119703D01*
X23790452Y16121938D01*
X23788319Y16125190D01*
X23787608Y16129000D01*
X23787608Y17480991D01*
X23788370Y17484902D01*
X23790605Y17488204D01*
X23792180Y17489779D01*
X23797818Y17497806D01*
X23801933Y17506746D01*
X23804473Y17516195D01*
X23805337Y17526000D01*
X23804473Y17535804D01*
X23801933Y17545253D01*
X23797818Y17554194D01*
X23792180Y17562220D01*
X23785220Y17569180D01*
X23777194Y17574818D01*
X23768253Y17578933D01*
X23758804Y17581473D01*
X23749000Y17582337D01*
X23739195Y17581473D01*
X23729746Y17578933D01*
X23720806Y17574818D01*
X23712779Y17569180D01*
X23705820Y17562220D01*
X23700181Y17554194D01*
X23696066Y17545253D01*
X23693526Y17535804D01*
X23692662Y17526000D01*
X23693526Y17516195D01*
X23696066Y17506746D01*
X23700181Y17497806D01*
X23705820Y17489779D01*
X23707394Y17488204D01*
X23709630Y17484902D01*
X23710392Y17480991D01*
X23710392Y16129000D01*
X23709680Y16125190D01*
X23707547Y16121938D01*
X23704397Y16119703D01*
X23690478Y16113455D01*
X23677473Y16105581D01*
X23665535Y16096234D01*
X23654766Y16085464D01*
X23645418Y16073526D01*
X23637544Y16060521D01*
X23631245Y16046602D01*
X23629061Y16043401D01*
X23625810Y16041319D01*
X23622000Y16040607D01*
X23618190Y16041319D01*
X23614938Y16043401D01*
X23612754Y16046602D01*
X23606455Y16060521D01*
X23598581Y16073526D01*
X23589234Y16085464D01*
X23578464Y16096234D01*
X23566526Y16105581D01*
X23553521Y16113455D01*
X23539653Y16119703D01*
X23525124Y16124224D01*
X23510189Y16126968D01*
X23495000Y16127882D01*
X23479810Y16126968D01*
X23464875Y16124224D01*
X23450346Y16119703D01*
X23436478Y16113455D01*
X23423473Y16105581D01*
X23411535Y16096234D01*
X23400766Y16085464D01*
X23391418Y16073526D01*
X23383544Y16060521D01*
X23377296Y16046653D01*
X23372775Y16032124D01*
X23370032Y16017189D01*
X23369117Y16002000D01*
X23370032Y15986810D01*
X23372775Y15971875D01*
X23377296Y15957346D01*
X23383544Y15943478D01*
X23391418Y15930473D01*
X23400766Y15918535D01*
X23411535Y15907766D01*
X23423473Y15898418D01*
X23436478Y15890544D01*
X23450346Y15884296D01*
X23464875Y15879775D01*
X23479810Y15877032D01*
G37*
G36*
X25919887Y20713700D02*
G01*
X26022300Y20713700D01*
X26022300Y20815960D01*
X26013308Y20814842D01*
X25999186Y20811236D01*
X25985673Y20805851D01*
X25972922Y20798840D01*
X25961136Y20790306D01*
X25950519Y20780349D01*
X25941223Y20769122D01*
X25933450Y20756829D01*
X25927253Y20743672D01*
X25922732Y20729803D01*
X25920039Y20715528D01*
G37*
G36*
X26648410Y20586700D02*
G01*
X26911300Y20586700D01*
X26911300Y20849386D01*
X26895145Y20848370D01*
X26872285Y20845018D01*
X26849781Y20839734D01*
X26827835Y20832572D01*
X26806499Y20823631D01*
X26786027Y20812912D01*
X26766520Y20800568D01*
X26748130Y20786598D01*
X26730960Y20771104D01*
X26715161Y20754289D01*
X26700784Y20736153D01*
X26687983Y20716900D01*
X26676858Y20696682D01*
X26667460Y20675549D01*
X26659890Y20653756D01*
X26654150Y20631353D01*
X26650289Y20608594D01*
G37*
G36*
X740410Y20586700D02*
G01*
X1003300Y20586700D01*
X1003300Y20849386D01*
X987145Y20848370D01*
X964285Y20845018D01*
X941781Y20839734D01*
X919835Y20832572D01*
X898499Y20823631D01*
X878027Y20812912D01*
X858519Y20800568D01*
X840130Y20786598D01*
X822960Y20771104D01*
X807161Y20754289D01*
X792784Y20736153D01*
X779983Y20716900D01*
X768858Y20696682D01*
X759460Y20675549D01*
X751890Y20653756D01*
X746150Y20631353D01*
X742289Y20608594D01*
G37*
G36*
X26936700Y20586700D02*
G01*
X27199336Y20586700D01*
X27198929Y20597063D01*
X27196034Y20620024D01*
X27191208Y20642630D01*
X27184553Y20664728D01*
X27176018Y20686217D01*
X27165757Y20706892D01*
X27153819Y20726704D01*
X27140204Y20745348D01*
X27125117Y20762874D01*
X27108607Y20779028D01*
X27090827Y20793760D01*
X27071827Y20806968D01*
X27051812Y20818500D01*
X27030934Y20828355D01*
X27009242Y20836382D01*
X26986992Y20842630D01*
X26964284Y20846948D01*
X26941322Y20849336D01*
X26936700Y20849437D01*
G37*
G36*
X1028700Y20586700D02*
G01*
X1291336Y20586700D01*
X1290929Y20597063D01*
X1288034Y20620024D01*
X1283208Y20642630D01*
X1276553Y20664728D01*
X1268018Y20686217D01*
X1257757Y20706892D01*
X1245819Y20726704D01*
X1232204Y20745348D01*
X1217117Y20762874D01*
X1200607Y20779028D01*
X1182827Y20793760D01*
X1163828Y20806968D01*
X1143812Y20818500D01*
X1122934Y20828355D01*
X1101242Y20836382D01*
X1078992Y20842630D01*
X1056284Y20846948D01*
X1033322Y20849336D01*
X1028700Y20849437D01*
G37*
G36*
X26047700Y20586039D02*
G01*
X26056691Y20587157D01*
X26070814Y20590764D01*
X26084326Y20596148D01*
X26097077Y20603159D01*
X26108863Y20611693D01*
X26119480Y20621650D01*
X26128776Y20632877D01*
X26136549Y20645170D01*
X26142746Y20658328D01*
X26147268Y20672196D01*
X26149960Y20686471D01*
X26150112Y20688300D01*
X26047700Y20688300D01*
G37*
G36*
X26022300Y20586039D02*
G01*
X26022300Y20688300D01*
X25919887Y20688300D01*
X25920039Y20686471D01*
X25922732Y20672196D01*
X25927253Y20658328D01*
X25933450Y20645170D01*
X25941223Y20632877D01*
X25950519Y20621650D01*
X25961136Y20611693D01*
X25972922Y20603159D01*
X25985673Y20596148D01*
X25999186Y20590764D01*
X26013308Y20587157D01*
G37*
G36*
X26281735Y20585328D02*
G01*
X26296264Y20585328D01*
X26310691Y20587157D01*
X26324814Y20590764D01*
X26338326Y20596148D01*
X26351077Y20603159D01*
X26362863Y20611693D01*
X26373480Y20621650D01*
X26382776Y20632877D01*
X26390549Y20645170D01*
X26396746Y20658328D01*
X26401268Y20672196D01*
X26403960Y20686471D01*
X26404874Y20701000D01*
X26403960Y20715528D01*
X26401268Y20729803D01*
X26396746Y20743672D01*
X26390549Y20756829D01*
X26382776Y20769122D01*
X26373480Y20780349D01*
X26362863Y20790306D01*
X26351077Y20798840D01*
X26338326Y20805851D01*
X26324814Y20811236D01*
X26310691Y20814842D01*
X26296264Y20816671D01*
X26281735Y20816671D01*
X26267308Y20814842D01*
X26253186Y20811236D01*
X26239673Y20805851D01*
X26226922Y20798840D01*
X26215136Y20790306D01*
X26204519Y20780349D01*
X26195223Y20769122D01*
X26187450Y20756829D01*
X26181253Y20743672D01*
X26176731Y20729803D01*
X26174039Y20715528D01*
X26173125Y20701000D01*
X26174039Y20686471D01*
X26176731Y20672196D01*
X26181253Y20658328D01*
X26187450Y20645170D01*
X26195223Y20632877D01*
X26204519Y20621650D01*
X26215136Y20611693D01*
X26226922Y20603159D01*
X26239673Y20596148D01*
X26253186Y20590764D01*
X26267308Y20587157D01*
G37*
G36*
X25919887Y20459700D02*
G01*
X26022300Y20459700D01*
X26022300Y20561960D01*
X26013308Y20560842D01*
X25999186Y20557236D01*
X25985673Y20551851D01*
X25972922Y20544840D01*
X25961136Y20536306D01*
X25950519Y20526349D01*
X25941223Y20515122D01*
X25933450Y20502829D01*
X25927253Y20489672D01*
X25922732Y20475803D01*
X25920039Y20461528D01*
G37*
G36*
X26047700Y20459700D02*
G01*
X26150112Y20459700D01*
X26149960Y20461528D01*
X26147268Y20475803D01*
X26142746Y20489672D01*
X26136549Y20502829D01*
X26128776Y20515122D01*
X26119480Y20526349D01*
X26108863Y20536306D01*
X26097077Y20544840D01*
X26084326Y20551851D01*
X26070814Y20557236D01*
X26056691Y20560842D01*
X26047700Y20561960D01*
G37*
G36*
X26022300Y20332039D02*
G01*
X26022300Y20434300D01*
X25919887Y20434300D01*
X25920039Y20432471D01*
X25922732Y20418196D01*
X25927253Y20404328D01*
X25933450Y20391170D01*
X25941223Y20378877D01*
X25950519Y20367650D01*
X25961136Y20357693D01*
X25972922Y20349159D01*
X25985673Y20342148D01*
X25999186Y20336764D01*
X26013308Y20333157D01*
G37*
G36*
X26047700Y20332039D02*
G01*
X26056691Y20333157D01*
X26070814Y20336764D01*
X26084326Y20342148D01*
X26097077Y20349159D01*
X26108863Y20357693D01*
X26119480Y20367650D01*
X26128776Y20378877D01*
X26136549Y20391170D01*
X26142746Y20404328D01*
X26147268Y20418196D01*
X26149960Y20432471D01*
X26150112Y20434300D01*
X26047700Y20434300D01*
G37*
G36*
X26281735Y20331328D02*
G01*
X26296264Y20331328D01*
X26310691Y20333157D01*
X26324814Y20336764D01*
X26338326Y20342148D01*
X26351077Y20349159D01*
X26362863Y20357693D01*
X26373480Y20367650D01*
X26382776Y20378877D01*
X26390549Y20391170D01*
X26396746Y20404328D01*
X26401268Y20418196D01*
X26403960Y20432471D01*
X26404874Y20447000D01*
X26403960Y20461528D01*
X26401268Y20475803D01*
X26396746Y20489672D01*
X26390549Y20502829D01*
X26382776Y20515122D01*
X26373480Y20526349D01*
X26362863Y20536306D01*
X26351077Y20544840D01*
X26338326Y20551851D01*
X26324814Y20557236D01*
X26310691Y20560842D01*
X26296264Y20562671D01*
X26281735Y20562671D01*
X26267308Y20560842D01*
X26253186Y20557236D01*
X26239673Y20551851D01*
X26226922Y20544840D01*
X26215136Y20536306D01*
X26204519Y20526349D01*
X26195223Y20515122D01*
X26187450Y20502829D01*
X26181253Y20489672D01*
X26176731Y20475803D01*
X26174039Y20461528D01*
X26173125Y20447000D01*
X26174039Y20432471D01*
X26176731Y20418196D01*
X26181253Y20404328D01*
X26187450Y20391170D01*
X26195223Y20378877D01*
X26204519Y20367650D01*
X26215136Y20357693D01*
X26226922Y20349159D01*
X26239673Y20342148D01*
X26253186Y20336764D01*
X26267308Y20333157D01*
G37*
G36*
X26911300Y20298613D02*
G01*
X26911300Y20561300D01*
X26648410Y20561300D01*
X26650289Y20539405D01*
X26654150Y20516646D01*
X26659890Y20494244D01*
X26667460Y20472450D01*
X26676858Y20451318D01*
X26687983Y20431099D01*
X26700784Y20411846D01*
X26715161Y20393710D01*
X26730960Y20376896D01*
X26748130Y20361402D01*
X26766520Y20347432D01*
X26786027Y20335087D01*
X26806499Y20324368D01*
X26827835Y20315428D01*
X26849781Y20308265D01*
X26872285Y20302982D01*
X26895145Y20299629D01*
G37*
G36*
X7874000Y16136162D02*
G01*
X7883804Y16137026D01*
X7893253Y16139566D01*
X7902194Y16143681D01*
X7910220Y16149319D01*
X7917180Y16156279D01*
X7922818Y16164306D01*
X7926933Y16173246D01*
X7929473Y16182695D01*
X7930337Y16192500D01*
X7929473Y16202304D01*
X7926933Y16211753D01*
X7922818Y16220694D01*
X7917180Y16228720D01*
X7915605Y16230295D01*
X7913370Y16233597D01*
X7912608Y16237508D01*
X7912608Y18446191D01*
X7913370Y18450102D01*
X7915605Y18453404D01*
X7917180Y18454979D01*
X7922818Y18463006D01*
X7926933Y18471946D01*
X7929473Y18481395D01*
X7930337Y18491200D01*
X7929473Y18501004D01*
X7926933Y18510453D01*
X7922818Y18519394D01*
X7917180Y18527420D01*
X7910220Y18534380D01*
X7902194Y18540018D01*
X7893253Y18544133D01*
X7883804Y18546673D01*
X7874000Y18547537D01*
X7864195Y18546673D01*
X7854746Y18544133D01*
X7845806Y18540018D01*
X7837779Y18534380D01*
X7830820Y18527420D01*
X7825181Y18519394D01*
X7821066Y18510453D01*
X7818526Y18501004D01*
X7817662Y18491200D01*
X7818526Y18481395D01*
X7821066Y18471946D01*
X7825181Y18463006D01*
X7830820Y18454979D01*
X7832394Y18453404D01*
X7834630Y18450102D01*
X7835392Y18446191D01*
X7835392Y16237508D01*
X7834630Y16233597D01*
X7832394Y16230295D01*
X7830820Y16228720D01*
X7825181Y16220694D01*
X7821066Y16211753D01*
X7818526Y16202304D01*
X7817662Y16192500D01*
X7818526Y16182695D01*
X7821066Y16173246D01*
X7825181Y16164306D01*
X7830820Y16156279D01*
X7837779Y16149319D01*
X7845806Y16143681D01*
X7854746Y16139566D01*
X7864195Y16137026D01*
G37*
G36*
X13462000Y16199662D02*
G01*
X13471804Y16200526D01*
X13481253Y16203066D01*
X13490194Y16207181D01*
X13498220Y16212819D01*
X13505180Y16219779D01*
X13510818Y16227806D01*
X13514933Y16236746D01*
X13517473Y16246195D01*
X13518337Y16256000D01*
X13517473Y16265804D01*
X13514933Y16275253D01*
X13510818Y16284194D01*
X13505180Y16292220D01*
X13503605Y16293795D01*
X13501369Y16297097D01*
X13500607Y16301008D01*
X13500607Y18446191D01*
X13501369Y18450102D01*
X13503605Y18453404D01*
X13505180Y18454979D01*
X13510818Y18463006D01*
X13514933Y18471946D01*
X13517473Y18481395D01*
X13518337Y18491200D01*
X13517473Y18501004D01*
X13514933Y18510453D01*
X13510818Y18519394D01*
X13505180Y18527420D01*
X13499388Y18533160D01*
X13497204Y18536462D01*
X13496442Y18540374D01*
X13497204Y18544235D01*
X13499388Y18547537D01*
X13505180Y18553277D01*
X13510818Y18561354D01*
X13514933Y18570244D01*
X13517473Y18579744D01*
X13518337Y18589498D01*
X13517473Y18599302D01*
X13514933Y18608802D01*
X13510818Y18617692D01*
X13505180Y18625769D01*
X13503605Y18627344D01*
X13501369Y18630646D01*
X13500607Y18634506D01*
X13500607Y18957493D01*
X13501369Y18961404D01*
X13503605Y18964706D01*
X13505180Y18966281D01*
X13510818Y18974308D01*
X13514933Y18983248D01*
X13517473Y18992697D01*
X13518337Y19002502D01*
X13517473Y19012306D01*
X13514933Y19021755D01*
X13510818Y19030696D01*
X13505180Y19038722D01*
X13498220Y19045682D01*
X13490194Y19051320D01*
X13481253Y19055435D01*
X13471804Y19057975D01*
X13462000Y19058839D01*
X13452195Y19057975D01*
X13442746Y19055435D01*
X13433806Y19051320D01*
X13425779Y19045682D01*
X13418819Y19038722D01*
X13413181Y19030696D01*
X13409066Y19021755D01*
X13406526Y19012306D01*
X13405662Y19002502D01*
X13406526Y18992697D01*
X13409066Y18983248D01*
X13413181Y18974308D01*
X13418819Y18966281D01*
X13420394Y18964706D01*
X13422630Y18961404D01*
X13423392Y18957493D01*
X13423392Y18634506D01*
X13422630Y18630646D01*
X13420394Y18627344D01*
X13418819Y18625769D01*
X13413181Y18617692D01*
X13409066Y18608802D01*
X13406983Y18601029D01*
X13405104Y18597372D01*
X13401954Y18594730D01*
X13398042Y18593562D01*
X13393978Y18594019D01*
X13390422Y18596102D01*
X13387933Y18599353D01*
X13383818Y18608294D01*
X13378180Y18616320D01*
X13371220Y18623280D01*
X13363194Y18628918D01*
X13354253Y18633033D01*
X13344804Y18635573D01*
X13335000Y18636437D01*
X13325195Y18635573D01*
X13315746Y18633033D01*
X13306806Y18628918D01*
X13298779Y18623280D01*
X13291819Y18616320D01*
X13286181Y18608294D01*
X13282066Y18599353D01*
X13279526Y18589904D01*
X13278662Y18580100D01*
X13279526Y18570295D01*
X13282066Y18560846D01*
X13286181Y18551906D01*
X13291819Y18543879D01*
X13293394Y18542304D01*
X13295630Y18539002D01*
X13296392Y18535091D01*
X13296392Y18126506D01*
X13295630Y18122595D01*
X13293394Y18119293D01*
X13291819Y18117718D01*
X13286181Y18109692D01*
X13282066Y18100751D01*
X13279526Y18091302D01*
X13278662Y18081498D01*
X13279526Y18071693D01*
X13282066Y18062244D01*
X13286181Y18053304D01*
X13291819Y18045277D01*
X13298779Y18038318D01*
X13306806Y18032679D01*
X13315746Y18028564D01*
X13325195Y18026024D01*
X13335000Y18025160D01*
X13344804Y18026024D01*
X13354253Y18028564D01*
X13363194Y18032679D01*
X13371220Y18038318D01*
X13378180Y18045277D01*
X13383818Y18053304D01*
X13387933Y18062244D01*
X13390473Y18071693D01*
X13391337Y18081498D01*
X13390473Y18091302D01*
X13387933Y18100751D01*
X13383818Y18109692D01*
X13378180Y18117718D01*
X13376605Y18119293D01*
X13374369Y18122595D01*
X13373607Y18126506D01*
X13373607Y18535091D01*
X13374369Y18539002D01*
X13376605Y18542304D01*
X13378180Y18543879D01*
X13383818Y18551906D01*
X13387933Y18560846D01*
X13390016Y18568568D01*
X13391896Y18572276D01*
X13395045Y18574918D01*
X13398957Y18576086D01*
X13403021Y18575578D01*
X13406577Y18573546D01*
X13409066Y18570244D01*
X13413181Y18561354D01*
X13418819Y18553277D01*
X13424611Y18547537D01*
X13426795Y18544235D01*
X13427557Y18540374D01*
X13426795Y18536462D01*
X13424611Y18533160D01*
X13418819Y18527420D01*
X13413181Y18519394D01*
X13409066Y18510453D01*
X13406526Y18501004D01*
X13405662Y18491200D01*
X13406526Y18481395D01*
X13409066Y18471946D01*
X13413181Y18463006D01*
X13418819Y18454979D01*
X13420394Y18453404D01*
X13422630Y18450102D01*
X13423392Y18446191D01*
X13423392Y16301008D01*
X13422630Y16297097D01*
X13420394Y16293795D01*
X13418819Y16292220D01*
X13413181Y16284194D01*
X13409066Y16275253D01*
X13406526Y16265804D01*
X13405662Y16256000D01*
X13406526Y16246195D01*
X13409066Y16236746D01*
X13413181Y16227806D01*
X13418819Y16219779D01*
X13425779Y16212819D01*
X13433806Y16207181D01*
X13442746Y16203066D01*
X13452195Y16200526D01*
G37*
G36*
X17272000Y16263162D02*
G01*
X17281804Y16264026D01*
X17291253Y16266566D01*
X17300194Y16270681D01*
X17308220Y16276319D01*
X17315180Y16283279D01*
X17320818Y16291306D01*
X17324933Y16300246D01*
X17327473Y16309695D01*
X17328337Y16319500D01*
X17327473Y16329304D01*
X17324933Y16338753D01*
X17320818Y16347694D01*
X17315180Y16355720D01*
X17313605Y16357295D01*
X17311370Y16360597D01*
X17310608Y16364508D01*
X17310608Y18446191D01*
X17311370Y18450102D01*
X17313605Y18453404D01*
X17315180Y18454979D01*
X17320818Y18463006D01*
X17324933Y18471946D01*
X17327473Y18481395D01*
X17328337Y18491200D01*
X17327473Y18501004D01*
X17324933Y18510453D01*
X17320818Y18519394D01*
X17315180Y18527420D01*
X17309388Y18533160D01*
X17307204Y18536462D01*
X17306442Y18540374D01*
X17307204Y18544235D01*
X17309388Y18547537D01*
X17315180Y18553277D01*
X17320818Y18561354D01*
X17324933Y18570244D01*
X17327473Y18579744D01*
X17328337Y18589498D01*
X17327473Y18599302D01*
X17324933Y18608802D01*
X17320818Y18617692D01*
X17315180Y18625769D01*
X17313605Y18627344D01*
X17311370Y18630646D01*
X17310608Y18634506D01*
X17310608Y18954191D01*
X17311370Y18958102D01*
X17313605Y18961404D01*
X17315180Y18962979D01*
X17320818Y18971006D01*
X17324933Y18979946D01*
X17327473Y18989395D01*
X17328337Y18999200D01*
X17327473Y19009004D01*
X17324933Y19018453D01*
X17320818Y19027394D01*
X17315180Y19035420D01*
X17308220Y19042380D01*
X17300194Y19048018D01*
X17291253Y19052133D01*
X17281804Y19054673D01*
X17272000Y19055537D01*
X17262195Y19054673D01*
X17252746Y19052133D01*
X17243806Y19048018D01*
X17235779Y19042380D01*
X17228820Y19035420D01*
X17223181Y19027394D01*
X17219066Y19018453D01*
X17216526Y19009004D01*
X17215662Y18999200D01*
X17216526Y18989395D01*
X17219066Y18979946D01*
X17223181Y18971006D01*
X17228820Y18962979D01*
X17230394Y18961404D01*
X17232630Y18958102D01*
X17233392Y18954191D01*
X17233392Y18634506D01*
X17232630Y18630646D01*
X17230394Y18627344D01*
X17228820Y18625769D01*
X17223181Y18617692D01*
X17219066Y18608802D01*
X17216983Y18601029D01*
X17215104Y18597372D01*
X17211954Y18594730D01*
X17208042Y18593562D01*
X17203978Y18594019D01*
X17200422Y18596102D01*
X17197933Y18599353D01*
X17193818Y18608294D01*
X17188180Y18616320D01*
X17181220Y18623280D01*
X17173194Y18628918D01*
X17164253Y18633033D01*
X17154804Y18635573D01*
X17145000Y18636437D01*
X17135195Y18635573D01*
X17125746Y18633033D01*
X17116806Y18628918D01*
X17108779Y18623280D01*
X17101820Y18616320D01*
X17096181Y18608294D01*
X17092066Y18599353D01*
X17089526Y18589904D01*
X17088662Y18580100D01*
X17089526Y18570295D01*
X17092066Y18560846D01*
X17096181Y18551906D01*
X17101820Y18543879D01*
X17103394Y18542304D01*
X17105630Y18539002D01*
X17106392Y18535091D01*
X17106392Y18126506D01*
X17105630Y18122595D01*
X17103394Y18119293D01*
X17101820Y18117718D01*
X17096181Y18109692D01*
X17092066Y18100751D01*
X17089526Y18091302D01*
X17088662Y18081498D01*
X17089526Y18071693D01*
X17092066Y18062244D01*
X17096181Y18053304D01*
X17101820Y18045277D01*
X17108779Y18038318D01*
X17116806Y18032679D01*
X17125746Y18028564D01*
X17135195Y18026024D01*
X17145000Y18025160D01*
X17154804Y18026024D01*
X17164253Y18028564D01*
X17173194Y18032679D01*
X17181220Y18038318D01*
X17188180Y18045277D01*
X17193818Y18053304D01*
X17197933Y18062244D01*
X17200473Y18071693D01*
X17201337Y18081498D01*
X17200473Y18091302D01*
X17197933Y18100751D01*
X17193818Y18109692D01*
X17188180Y18117718D01*
X17186605Y18119293D01*
X17184370Y18122595D01*
X17183608Y18126506D01*
X17183608Y18535091D01*
X17184370Y18539002D01*
X17186605Y18542304D01*
X17188180Y18543879D01*
X17193818Y18551906D01*
X17197933Y18560846D01*
X17200016Y18568568D01*
X17201896Y18572276D01*
X17205045Y18574918D01*
X17208957Y18576086D01*
X17213021Y18575578D01*
X17216577Y18573546D01*
X17219066Y18570244D01*
X17223181Y18561354D01*
X17228820Y18553277D01*
X17234611Y18547537D01*
X17236795Y18544235D01*
X17237557Y18540374D01*
X17236795Y18536462D01*
X17234611Y18533160D01*
X17228820Y18527420D01*
X17223181Y18519394D01*
X17219066Y18510453D01*
X17216526Y18501004D01*
X17215662Y18491200D01*
X17216526Y18481395D01*
X17219066Y18471946D01*
X17223181Y18463006D01*
X17228820Y18454979D01*
X17230394Y18453404D01*
X17232630Y18450102D01*
X17233392Y18446191D01*
X17233392Y16364508D01*
X17232630Y16360597D01*
X17230394Y16357295D01*
X17228820Y16355720D01*
X17223181Y16347694D01*
X17219066Y16338753D01*
X17216526Y16329304D01*
X17215662Y16319500D01*
X17216526Y16309695D01*
X17219066Y16300246D01*
X17223181Y16291306D01*
X17228820Y16283279D01*
X17235779Y16276319D01*
X17243806Y16270681D01*
X17252746Y16266566D01*
X17262195Y16264026D01*
G37*
G36*
X26047700Y16263162D02*
G01*
X26057504Y16264026D01*
X26066953Y16266566D01*
X26075893Y16270681D01*
X26083920Y16276319D01*
X26085495Y16277894D01*
X26088797Y16280130D01*
X26092708Y16280892D01*
X26682192Y16280892D01*
X26690218Y16281704D01*
X26697432Y16283889D01*
X26704137Y16287445D01*
X26710335Y16292576D01*
X26744422Y16326662D01*
X26749552Y16332860D01*
X26753108Y16339566D01*
X26755293Y16346779D01*
X26756106Y16354806D01*
X26756106Y18595898D01*
X26756868Y18599759D01*
X26759103Y18603061D01*
X26760677Y18604636D01*
X26766316Y18612713D01*
X26770431Y18621603D01*
X26772971Y18631103D01*
X26773835Y18640856D01*
X26772971Y18650661D01*
X26770431Y18660160D01*
X26766316Y18669050D01*
X26760677Y18677128D01*
X26753718Y18684036D01*
X26745692Y18689675D01*
X26736751Y18693841D01*
X26727302Y18696381D01*
X26717498Y18697244D01*
X26707693Y18696381D01*
X26698244Y18693841D01*
X26689303Y18689675D01*
X26681277Y18684036D01*
X26674318Y18677128D01*
X26668679Y18669050D01*
X26664564Y18660160D01*
X26662024Y18650661D01*
X26661160Y18640856D01*
X26662024Y18631103D01*
X26664564Y18621603D01*
X26668679Y18612713D01*
X26674318Y18604636D01*
X26675892Y18603061D01*
X26678127Y18599759D01*
X26678889Y18595898D01*
X26678889Y16374516D01*
X26678127Y16370604D01*
X26675892Y16367302D01*
X26669695Y16361105D01*
X26666393Y16358869D01*
X26662481Y16358107D01*
X26355954Y16358107D01*
X26352042Y16358869D01*
X26348740Y16361105D01*
X26346556Y16364356D01*
X26345794Y16368268D01*
X26346556Y16372179D01*
X26348740Y16375430D01*
X26363422Y16390162D01*
X26368552Y16396360D01*
X26372108Y16403066D01*
X26374293Y16410279D01*
X26375106Y16418306D01*
X26375106Y17577104D01*
X26375868Y17581016D01*
X26378103Y17584318D01*
X26379677Y17585893D01*
X26385316Y17593919D01*
X26389431Y17602860D01*
X26391971Y17612309D01*
X26392835Y17622113D01*
X26391971Y17631918D01*
X26389431Y17641366D01*
X26385316Y17650307D01*
X26379677Y17658334D01*
X26372718Y17665293D01*
X26364692Y17670932D01*
X26355751Y17675047D01*
X26346302Y17677587D01*
X26336498Y17678450D01*
X26326693Y17677587D01*
X26317244Y17675047D01*
X26308303Y17670932D01*
X26300277Y17665293D01*
X26293318Y17658334D01*
X26287679Y17650307D01*
X26283564Y17641366D01*
X26281024Y17631918D01*
X26280160Y17622113D01*
X26281024Y17612309D01*
X26283564Y17602860D01*
X26287679Y17593919D01*
X26293318Y17585893D01*
X26294892Y17584318D01*
X26297127Y17581016D01*
X26297889Y17577104D01*
X26297889Y16438016D01*
X26297127Y16434104D01*
X26294892Y16430802D01*
X26288695Y16424605D01*
X26285393Y16422369D01*
X26281481Y16421607D01*
X26041908Y16421607D01*
X26037997Y16422369D01*
X26034695Y16424605D01*
X26033120Y16426180D01*
X26025093Y16431818D01*
X26016153Y16435933D01*
X26006704Y16438473D01*
X25996900Y16439337D01*
X25987095Y16438473D01*
X25977646Y16435933D01*
X25968706Y16431818D01*
X25960679Y16426180D01*
X25953720Y16419220D01*
X25948081Y16411194D01*
X25943966Y16402253D01*
X25941426Y16392804D01*
X25940562Y16383000D01*
X25941426Y16373195D01*
X25943966Y16363746D01*
X25948081Y16354806D01*
X25953720Y16346779D01*
X25960679Y16339819D01*
X25968706Y16334181D01*
X25977646Y16330066D01*
X25983844Y16328390D01*
X25987552Y16326510D01*
X25990194Y16323360D01*
X25991362Y16319449D01*
X25992226Y16309695D01*
X25994766Y16300246D01*
X25998881Y16291306D01*
X26004520Y16283279D01*
X26011479Y16276319D01*
X26019506Y16270681D01*
X26028446Y16266566D01*
X26037895Y16264026D01*
G37*
G36*
X20828000Y16326662D02*
G01*
X20837804Y16327526D01*
X20847253Y16330066D01*
X20856194Y16334181D01*
X20864220Y16339819D01*
X20871180Y16346779D01*
X20876818Y16354806D01*
X20880933Y16363746D01*
X20883473Y16373195D01*
X20884337Y16383000D01*
X20883473Y16392804D01*
X20880933Y16402253D01*
X20876818Y16411194D01*
X20871180Y16419220D01*
X20869605Y16420795D01*
X20867370Y16424097D01*
X20866608Y16428008D01*
X20866608Y18446191D01*
X20867370Y18450102D01*
X20869605Y18453404D01*
X20871180Y18454979D01*
X20876818Y18463006D01*
X20880933Y18471946D01*
X20883473Y18481395D01*
X20884337Y18491200D01*
X20883473Y18501004D01*
X20880933Y18510453D01*
X20876818Y18519394D01*
X20871180Y18527420D01*
X20865388Y18533160D01*
X20863204Y18536462D01*
X20862442Y18540374D01*
X20863204Y18544235D01*
X20865388Y18547537D01*
X20871180Y18553277D01*
X20876818Y18561354D01*
X20880933Y18570244D01*
X20883473Y18579744D01*
X20884337Y18589498D01*
X20883473Y18599302D01*
X20880933Y18608802D01*
X20876818Y18617692D01*
X20871180Y18625769D01*
X20869605Y18627344D01*
X20867370Y18630646D01*
X20866608Y18634506D01*
X20866608Y18954191D01*
X20867370Y18958102D01*
X20869605Y18961404D01*
X20871180Y18962979D01*
X20876818Y18971006D01*
X20880933Y18979946D01*
X20883473Y18989395D01*
X20884337Y18999200D01*
X20883473Y19009004D01*
X20880933Y19018453D01*
X20876818Y19027394D01*
X20871180Y19035420D01*
X20864220Y19042380D01*
X20856194Y19048018D01*
X20847253Y19052133D01*
X20837804Y19054673D01*
X20828000Y19055537D01*
X20818195Y19054673D01*
X20808746Y19052133D01*
X20799806Y19048018D01*
X20791779Y19042380D01*
X20784820Y19035420D01*
X20779181Y19027394D01*
X20775066Y19018453D01*
X20772526Y19009004D01*
X20771662Y18999200D01*
X20772526Y18989395D01*
X20775066Y18979946D01*
X20779181Y18971006D01*
X20784820Y18962979D01*
X20786394Y18961404D01*
X20788630Y18958102D01*
X20789392Y18954191D01*
X20789392Y18634506D01*
X20788630Y18630646D01*
X20786394Y18627344D01*
X20784820Y18625769D01*
X20779181Y18617692D01*
X20775066Y18608802D01*
X20772983Y18601029D01*
X20771104Y18597372D01*
X20767954Y18594730D01*
X20764042Y18593562D01*
X20759978Y18594019D01*
X20756422Y18596102D01*
X20753933Y18599353D01*
X20749818Y18608294D01*
X20744180Y18616320D01*
X20737220Y18623280D01*
X20729194Y18628918D01*
X20720253Y18633033D01*
X20710804Y18635573D01*
X20701000Y18636437D01*
X20691195Y18635573D01*
X20681746Y18633033D01*
X20672806Y18628918D01*
X20664779Y18623280D01*
X20657820Y18616320D01*
X20652181Y18608294D01*
X20648066Y18599353D01*
X20645526Y18589904D01*
X20644662Y18580100D01*
X20645526Y18570295D01*
X20648066Y18560846D01*
X20652181Y18551906D01*
X20657820Y18543879D01*
X20659394Y18542304D01*
X20661630Y18539002D01*
X20662392Y18535091D01*
X20662392Y18126506D01*
X20661630Y18122595D01*
X20659394Y18119293D01*
X20657820Y18117718D01*
X20652181Y18109692D01*
X20648066Y18100751D01*
X20645526Y18091302D01*
X20644662Y18081498D01*
X20645526Y18071693D01*
X20648066Y18062244D01*
X20652181Y18053304D01*
X20657820Y18045277D01*
X20664779Y18038318D01*
X20672806Y18032679D01*
X20681746Y18028564D01*
X20691195Y18026024D01*
X20701000Y18025160D01*
X20710804Y18026024D01*
X20720253Y18028564D01*
X20729194Y18032679D01*
X20737220Y18038318D01*
X20744180Y18045277D01*
X20749818Y18053304D01*
X20753933Y18062244D01*
X20756473Y18071693D01*
X20757337Y18081498D01*
X20756473Y18091302D01*
X20753933Y18100751D01*
X20749818Y18109692D01*
X20744180Y18117718D01*
X20742605Y18119293D01*
X20740370Y18122595D01*
X20739608Y18126506D01*
X20739608Y18535091D01*
X20740370Y18539002D01*
X20742605Y18542304D01*
X20744180Y18543879D01*
X20749818Y18551906D01*
X20753933Y18560846D01*
X20756016Y18568568D01*
X20757896Y18572276D01*
X20761045Y18574918D01*
X20764957Y18576086D01*
X20769021Y18575578D01*
X20772577Y18573546D01*
X20775066Y18570244D01*
X20779181Y18561354D01*
X20784820Y18553277D01*
X20790611Y18547537D01*
X20792795Y18544235D01*
X20793557Y18540374D01*
X20792795Y18536462D01*
X20790611Y18533160D01*
X20784820Y18527420D01*
X20779181Y18519394D01*
X20775066Y18510453D01*
X20772526Y18501004D01*
X20771662Y18491200D01*
X20772526Y18481395D01*
X20775066Y18471946D01*
X20779181Y18463006D01*
X20784820Y18454979D01*
X20786394Y18453404D01*
X20788630Y18450102D01*
X20789392Y18446191D01*
X20789392Y16428008D01*
X20788630Y16424097D01*
X20786394Y16420795D01*
X20784820Y16419220D01*
X20779181Y16411194D01*
X20775066Y16402253D01*
X20772526Y16392804D01*
X20771662Y16383000D01*
X20772526Y16373195D01*
X20775066Y16363746D01*
X20779181Y16354806D01*
X20784820Y16346779D01*
X20791779Y16339819D01*
X20799806Y16334181D01*
X20808746Y16330066D01*
X20818195Y16327526D01*
G37*
G36*
X1003300Y20298613D02*
G01*
X1003300Y20561300D01*
X740410Y20561300D01*
X742289Y20539405D01*
X746150Y20516646D01*
X751890Y20494244D01*
X759460Y20472450D01*
X768858Y20451318D01*
X779983Y20431099D01*
X792784Y20411846D01*
X807161Y20393710D01*
X822960Y20376896D01*
X840130Y20361402D01*
X858519Y20347432D01*
X878027Y20335087D01*
X898499Y20324368D01*
X919835Y20315428D01*
X941781Y20308265D01*
X964285Y20302982D01*
X987145Y20299629D01*
G37*
G36*
X26936700Y20298562D02*
G01*
X26941322Y20298664D01*
X26964284Y20301051D01*
X26986992Y20305369D01*
X27009242Y20311618D01*
X27030934Y20319644D01*
X27051812Y20329499D01*
X27071827Y20341031D01*
X27090827Y20354239D01*
X27108607Y20368971D01*
X27125117Y20385125D01*
X27140204Y20402600D01*
X27153819Y20421295D01*
X27165757Y20441107D01*
X27176018Y20461782D01*
X27184553Y20483271D01*
X27191208Y20505369D01*
X27196034Y20527975D01*
X27198929Y20550936D01*
X27199336Y20561300D01*
X26936700Y20561300D01*
G37*
G36*
X25908000Y17285665D02*
G01*
X25917804Y17286528D01*
X25927253Y17289068D01*
X25936194Y17293183D01*
X25944220Y17298822D01*
X25951180Y17305782D01*
X25956818Y17313808D01*
X25960933Y17322749D01*
X25963473Y17332198D01*
X25964337Y17342002D01*
X25963473Y17351806D01*
X25960933Y17361255D01*
X25956818Y17370196D01*
X25951180Y17378222D01*
X25949605Y17379797D01*
X25947370Y17383099D01*
X25946608Y17387011D01*
X25946608Y18036540D01*
X25947370Y18040400D01*
X25949605Y18043702D01*
X25951180Y18045277D01*
X25956818Y18053354D01*
X25960933Y18062244D01*
X25963473Y18071744D01*
X25964337Y18081498D01*
X25963473Y18091302D01*
X25960933Y18100802D01*
X25956818Y18109692D01*
X25951180Y18117769D01*
X25944220Y18124678D01*
X25936194Y18130316D01*
X25927253Y18134482D01*
X25917804Y18137022D01*
X25908000Y18137886D01*
X25898195Y18137022D01*
X25888746Y18134482D01*
X25879806Y18130316D01*
X25871779Y18124678D01*
X25864820Y18117769D01*
X25859181Y18109692D01*
X25855066Y18100802D01*
X25852526Y18091302D01*
X25851662Y18081498D01*
X25852526Y18071744D01*
X25855066Y18062244D01*
X25859181Y18053354D01*
X25864820Y18045277D01*
X25866394Y18043702D01*
X25868630Y18040400D01*
X25869392Y18036540D01*
X25869392Y17387011D01*
X25868630Y17383099D01*
X25866394Y17379797D01*
X25864820Y17378222D01*
X25859181Y17370196D01*
X25855066Y17361255D01*
X25852526Y17351806D01*
X25851662Y17342002D01*
X25852526Y17332198D01*
X25855066Y17322749D01*
X25859181Y17313808D01*
X25864820Y17305782D01*
X25871779Y17298822D01*
X25879806Y17293183D01*
X25888746Y17289068D01*
X25898195Y17286528D01*
G37*
G36*
X18570702Y17285665D02*
G01*
X18580455Y17286528D01*
X18589955Y17289068D01*
X18598845Y17293183D01*
X18606922Y17298822D01*
X18613831Y17305782D01*
X18619470Y17313808D01*
X18623635Y17322749D01*
X18626175Y17332198D01*
X18627039Y17342002D01*
X18626175Y17351806D01*
X18623635Y17361255D01*
X18619470Y17370196D01*
X18613831Y17378222D01*
X18612256Y17379797D01*
X18610072Y17383099D01*
X18609310Y17387011D01*
X18609310Y18544540D01*
X18610072Y18548400D01*
X18612256Y18551702D01*
X18613831Y18553277D01*
X18619470Y18561354D01*
X18623635Y18570244D01*
X18626175Y18579744D01*
X18627039Y18589498D01*
X18626175Y18599302D01*
X18623635Y18608802D01*
X18619470Y18617692D01*
X18613831Y18625769D01*
X18606922Y18632678D01*
X18598845Y18638316D01*
X18589955Y18642482D01*
X18580455Y18645022D01*
X18570702Y18645886D01*
X18560897Y18645022D01*
X18551398Y18642482D01*
X18542508Y18638316D01*
X18534430Y18632678D01*
X18527522Y18625769D01*
X18521883Y18617692D01*
X18517717Y18608802D01*
X18515177Y18599302D01*
X18514314Y18589498D01*
X18515177Y18579744D01*
X18517717Y18570244D01*
X18521883Y18561354D01*
X18527522Y18553277D01*
X18529096Y18551702D01*
X18531281Y18548400D01*
X18532094Y18544540D01*
X18532094Y17387011D01*
X18531281Y17383099D01*
X18529096Y17379797D01*
X18527522Y17378222D01*
X18521883Y17370196D01*
X18517717Y17361255D01*
X18515177Y17351806D01*
X18514314Y17342002D01*
X18515177Y17332198D01*
X18517717Y17322749D01*
X18521883Y17313808D01*
X18527522Y17305782D01*
X18534430Y17298822D01*
X18542508Y17293183D01*
X18551398Y17289068D01*
X18560897Y17286528D01*
G37*
G36*
X11204702Y17285665D02*
G01*
X11214455Y17286528D01*
X11223955Y17289068D01*
X11232845Y17293183D01*
X11240922Y17298822D01*
X11247831Y17305782D01*
X11253470Y17313808D01*
X11257635Y17322749D01*
X11260175Y17332198D01*
X11261039Y17342002D01*
X11260175Y17351806D01*
X11257635Y17361255D01*
X11253470Y17370196D01*
X11247831Y17378222D01*
X11246256Y17379797D01*
X11244072Y17383099D01*
X11243310Y17387011D01*
X11243310Y18544540D01*
X11244072Y18548451D01*
X11246256Y18551702D01*
X11247831Y18553277D01*
X11253470Y18561354D01*
X11257635Y18570244D01*
X11260175Y18579744D01*
X11261039Y18589498D01*
X11260175Y18599302D01*
X11257635Y18608802D01*
X11253470Y18617692D01*
X11247831Y18625769D01*
X11240922Y18632678D01*
X11232845Y18638316D01*
X11223955Y18642482D01*
X11214455Y18645022D01*
X11204702Y18645886D01*
X11194897Y18645022D01*
X11185398Y18642482D01*
X11176508Y18638316D01*
X11168430Y18632678D01*
X11161522Y18625769D01*
X11155883Y18617692D01*
X11151717Y18608802D01*
X11149177Y18599302D01*
X11148314Y18589498D01*
X11149177Y18579744D01*
X11151717Y18570244D01*
X11155883Y18561354D01*
X11161522Y18553277D01*
X11163096Y18551702D01*
X11165281Y18548400D01*
X11166094Y18544540D01*
X11166094Y17387011D01*
X11165281Y17383099D01*
X11163096Y17379797D01*
X11161522Y17378222D01*
X11155883Y17370196D01*
X11151717Y17361255D01*
X11149177Y17351806D01*
X11148314Y17342002D01*
X11149177Y17332198D01*
X11151717Y17322749D01*
X11155883Y17313808D01*
X11161522Y17305782D01*
X11168430Y17298822D01*
X11176508Y17293183D01*
X11185398Y17289068D01*
X11194897Y17286528D01*
G37*
G36*
X15014701Y17285665D02*
G01*
X15024455Y17286528D01*
X15033955Y17289068D01*
X15042845Y17293183D01*
X15050922Y17298822D01*
X15057831Y17305782D01*
X15063469Y17313808D01*
X15067635Y17322749D01*
X15070175Y17332198D01*
X15071039Y17342002D01*
X15070175Y17351806D01*
X15067635Y17361255D01*
X15063469Y17370196D01*
X15057831Y17378222D01*
X15056256Y17379797D01*
X15054072Y17383099D01*
X15053310Y17387011D01*
X15053310Y18544540D01*
X15054072Y18548451D01*
X15056256Y18551702D01*
X15057831Y18553277D01*
X15063469Y18561354D01*
X15067635Y18570244D01*
X15070175Y18579744D01*
X15071039Y18589498D01*
X15070175Y18599302D01*
X15067635Y18608802D01*
X15063469Y18617692D01*
X15057831Y18625769D01*
X15050922Y18632678D01*
X15042845Y18638316D01*
X15033955Y18642482D01*
X15024455Y18645022D01*
X15014701Y18645886D01*
X15004897Y18645022D01*
X14995398Y18642482D01*
X14986507Y18638316D01*
X14978430Y18632678D01*
X14971522Y18625769D01*
X14965883Y18617692D01*
X14961717Y18608802D01*
X14959177Y18599302D01*
X14958313Y18589498D01*
X14959177Y18579744D01*
X14961717Y18570244D01*
X14965883Y18561354D01*
X14971522Y18553277D01*
X14973096Y18551702D01*
X14975281Y18548400D01*
X14976094Y18544540D01*
X14976094Y17387011D01*
X14975281Y17383099D01*
X14973096Y17379797D01*
X14971522Y17378222D01*
X14965883Y17370196D01*
X14961717Y17361255D01*
X14959177Y17351806D01*
X14958313Y17342002D01*
X14959177Y17332198D01*
X14961717Y17322749D01*
X14965883Y17313808D01*
X14971522Y17305782D01*
X14978430Y17298822D01*
X14986507Y17293183D01*
X14995398Y17289068D01*
X15004897Y17286528D01*
G37*
G36*
X5616702Y17285665D02*
G01*
X5626455Y17286528D01*
X5635955Y17289068D01*
X5644845Y17293183D01*
X5652922Y17298822D01*
X5659831Y17305782D01*
X5665470Y17313808D01*
X5669635Y17322749D01*
X5672175Y17332198D01*
X5673039Y17342002D01*
X5672175Y17351806D01*
X5669635Y17361255D01*
X5665470Y17370196D01*
X5659831Y17378222D01*
X5658256Y17379797D01*
X5656072Y17383099D01*
X5655259Y17387011D01*
X5655259Y18544540D01*
X5656072Y18548400D01*
X5658256Y18551702D01*
X5659831Y18553277D01*
X5665470Y18561354D01*
X5669635Y18570244D01*
X5672175Y18579744D01*
X5673039Y18589498D01*
X5672175Y18599302D01*
X5669635Y18608802D01*
X5665470Y18617692D01*
X5659831Y18625769D01*
X5652922Y18632678D01*
X5644845Y18638316D01*
X5635955Y18642482D01*
X5626455Y18645022D01*
X5616702Y18645886D01*
X5606897Y18645022D01*
X5597398Y18642482D01*
X5588508Y18638316D01*
X5580430Y18632678D01*
X5573522Y18625769D01*
X5567883Y18617692D01*
X5563717Y18608802D01*
X5561177Y18599302D01*
X5560314Y18589498D01*
X5561177Y18579744D01*
X5563717Y18570244D01*
X5567883Y18561354D01*
X5573522Y18553277D01*
X5575096Y18551702D01*
X5577281Y18548451D01*
X5578043Y18544540D01*
X5578043Y17387011D01*
X5577281Y17383099D01*
X5575096Y17379797D01*
X5573522Y17378222D01*
X5567883Y17370196D01*
X5563717Y17361255D01*
X5561177Y17351806D01*
X5560314Y17342002D01*
X5561177Y17332198D01*
X5563717Y17322749D01*
X5567883Y17313808D01*
X5573522Y17305782D01*
X5580430Y17298822D01*
X5588508Y17293183D01*
X5597398Y17289068D01*
X5606897Y17286528D01*
G37*
G36*
X23876152Y17285665D02*
G01*
X23885906Y17286528D01*
X23895405Y17289068D01*
X23904295Y17293183D01*
X23912372Y17298822D01*
X23919281Y17305782D01*
X23924920Y17313808D01*
X23929086Y17322749D01*
X23931626Y17332198D01*
X23932489Y17342002D01*
X23931626Y17351806D01*
X23929086Y17361255D01*
X23924920Y17370196D01*
X23919281Y17378222D01*
X23917706Y17379797D01*
X23915522Y17383099D01*
X23914709Y17387011D01*
X23914709Y17849291D01*
X23915522Y17853202D01*
X23917706Y17856504D01*
X23919281Y17858079D01*
X23924920Y17866106D01*
X23929086Y17875046D01*
X23931626Y17884495D01*
X23932489Y17894300D01*
X23931626Y17904104D01*
X23929086Y17913553D01*
X23924920Y17922494D01*
X23919281Y17930520D01*
X23917706Y17932095D01*
X23915522Y17935397D01*
X23914709Y17939308D01*
X23914709Y18039791D01*
X23915522Y18043702D01*
X23917706Y18047004D01*
X23919281Y18048579D01*
X23924920Y18056606D01*
X23929086Y18065546D01*
X23931626Y18074995D01*
X23932489Y18084800D01*
X23931626Y18094604D01*
X23929086Y18104053D01*
X23924920Y18112994D01*
X23919281Y18121020D01*
X23917605Y18122747D01*
X23915370Y18126049D01*
X23914608Y18129910D01*
X23914608Y18554192D01*
X23913795Y18562218D01*
X23911610Y18569432D01*
X23908054Y18576137D01*
X23902924Y18582335D01*
X23868837Y18616422D01*
X23862639Y18621552D01*
X23855934Y18625108D01*
X23848720Y18627293D01*
X23840694Y18628106D01*
X23714506Y18628106D01*
X23710595Y18628868D01*
X23707293Y18631103D01*
X23705718Y18632678D01*
X23697692Y18638316D01*
X23688751Y18642431D01*
X23679302Y18644971D01*
X23669498Y18645835D01*
X23659693Y18644971D01*
X23650244Y18642431D01*
X23641304Y18638316D01*
X23633277Y18632678D01*
X23626318Y18625718D01*
X23620679Y18617692D01*
X23616564Y18608751D01*
X23614024Y18599302D01*
X23613160Y18589498D01*
X23614024Y18579693D01*
X23616564Y18570244D01*
X23622254Y18557544D01*
X23622203Y18553480D01*
X23620577Y18549721D01*
X23617580Y18546978D01*
X23613719Y18545556D01*
X23609655Y18545810D01*
X23606404Y18546673D01*
X23596600Y18547537D01*
X23586795Y18546673D01*
X23577346Y18544133D01*
X23568406Y18540018D01*
X23560379Y18534380D01*
X23553420Y18527420D01*
X23547781Y18519394D01*
X23543666Y18510453D01*
X23541126Y18501004D01*
X23540262Y18491200D01*
X23541126Y18481395D01*
X23543666Y18471946D01*
X23547781Y18463006D01*
X23553420Y18454979D01*
X23560379Y18448020D01*
X23568406Y18442381D01*
X23577346Y18438266D01*
X23586795Y18435726D01*
X23594822Y18435015D01*
X23598225Y18434100D01*
X23601121Y18432068D01*
X23643894Y18389295D01*
X23646130Y18385993D01*
X23646892Y18382081D01*
X23646892Y18206008D01*
X23646130Y18202097D01*
X23643894Y18198795D01*
X23642320Y18197220D01*
X23636681Y18189194D01*
X23632566Y18180253D01*
X23630026Y18170804D01*
X23629162Y18161000D01*
X23630026Y18151195D01*
X23632566Y18141746D01*
X23636681Y18132806D01*
X23642320Y18124779D01*
X23649279Y18117820D01*
X23657306Y18112181D01*
X23666246Y18108066D01*
X23675695Y18105526D01*
X23685500Y18104662D01*
X23695304Y18105526D01*
X23704753Y18108066D01*
X23713694Y18112181D01*
X23721720Y18117820D01*
X23728680Y18124779D01*
X23734318Y18132806D01*
X23738433Y18141746D01*
X23740973Y18151195D01*
X23741837Y18161000D01*
X23740973Y18170804D01*
X23738433Y18180253D01*
X23734318Y18189194D01*
X23728680Y18197220D01*
X23727105Y18198795D01*
X23724870Y18202097D01*
X23724108Y18206008D01*
X23724108Y18401792D01*
X23723295Y18409818D01*
X23721110Y18417032D01*
X23717554Y18423737D01*
X23712424Y18429935D01*
X23655731Y18486678D01*
X23653699Y18489574D01*
X23652784Y18492978D01*
X23652073Y18501004D01*
X23649533Y18510453D01*
X23643844Y18523153D01*
X23643894Y18527217D01*
X23645520Y18530976D01*
X23648517Y18533719D01*
X23652378Y18535142D01*
X23656442Y18534888D01*
X23659693Y18534024D01*
X23669498Y18533160D01*
X23679302Y18534024D01*
X23688751Y18536564D01*
X23697692Y18540679D01*
X23705718Y18546318D01*
X23707293Y18547892D01*
X23710595Y18550128D01*
X23714506Y18550890D01*
X23820983Y18550890D01*
X23824895Y18550128D01*
X23828197Y18547892D01*
X23834394Y18541695D01*
X23836630Y18538393D01*
X23837392Y18534481D01*
X23837392Y18129656D01*
X23836630Y18125795D01*
X23834394Y18122493D01*
X23832972Y18121020D01*
X23827333Y18112994D01*
X23823168Y18104053D01*
X23820628Y18094604D01*
X23819764Y18084800D01*
X23820628Y18074995D01*
X23823168Y18065546D01*
X23827333Y18056606D01*
X23832972Y18048579D01*
X23834547Y18047004D01*
X23836731Y18043702D01*
X23837493Y18039791D01*
X23837493Y17939308D01*
X23836731Y17935397D01*
X23834547Y17932095D01*
X23832972Y17930520D01*
X23827333Y17922494D01*
X23823168Y17913553D01*
X23820628Y17904104D01*
X23819764Y17894300D01*
X23820628Y17884495D01*
X23823168Y17875046D01*
X23827333Y17866106D01*
X23832972Y17858079D01*
X23834547Y17856504D01*
X23836731Y17853202D01*
X23837493Y17849291D01*
X23837493Y17387011D01*
X23836731Y17383099D01*
X23834547Y17379797D01*
X23832972Y17378222D01*
X23827333Y17370196D01*
X23823168Y17361255D01*
X23820628Y17351806D01*
X23819764Y17342002D01*
X23820628Y17332198D01*
X23823168Y17322749D01*
X23827333Y17313808D01*
X23832972Y17305782D01*
X23839881Y17298822D01*
X23847958Y17293183D01*
X23856848Y17289068D01*
X23866348Y17286528D01*
G37*
G36*
X26924000Y17291862D02*
G01*
X26933804Y17292726D01*
X26943253Y17295266D01*
X26952194Y17299381D01*
X26960220Y17305020D01*
X26967180Y17311979D01*
X26972818Y17320006D01*
X26976933Y17328946D01*
X26979473Y17338395D01*
X26980337Y17348200D01*
X26979473Y17358004D01*
X26976933Y17367453D01*
X26975866Y17369790D01*
X26974901Y17374108D01*
X26974901Y19951192D01*
X26975866Y19955510D01*
X26976933Y19957846D01*
X26979473Y19967295D01*
X26980337Y19977100D01*
X26979473Y19986904D01*
X26976933Y19996353D01*
X26972818Y20005294D01*
X26967180Y20013320D01*
X26960220Y20020280D01*
X26952194Y20025918D01*
X26943253Y20030033D01*
X26933804Y20032573D01*
X26924000Y20033437D01*
X26914195Y20032573D01*
X26904746Y20030033D01*
X26895806Y20025918D01*
X26887779Y20020280D01*
X26880820Y20013320D01*
X26875181Y20005294D01*
X26871066Y19996353D01*
X26868526Y19986904D01*
X26867662Y19977100D01*
X26868526Y19967295D01*
X26871066Y19957846D01*
X26872133Y19955510D01*
X26873098Y19951192D01*
X26873098Y17374108D01*
X26872133Y17369790D01*
X26871066Y17367453D01*
X26868526Y17358004D01*
X26867662Y17348200D01*
X26868526Y17338395D01*
X26871066Y17328946D01*
X26875181Y17320006D01*
X26880820Y17311979D01*
X26887779Y17305020D01*
X26895806Y17299381D01*
X26904746Y17295266D01*
X26914195Y17292726D01*
G37*
G36*
X26543000Y17469662D02*
G01*
X26552804Y17470526D01*
X26562253Y17473066D01*
X26571194Y17477181D01*
X26579220Y17482820D01*
X26586180Y17489779D01*
X26591818Y17497806D01*
X26595933Y17506746D01*
X26598473Y17516195D01*
X26599337Y17526000D01*
X26598473Y17535804D01*
X26595933Y17545253D01*
X26591818Y17554194D01*
X26586180Y17562220D01*
X26584605Y17563795D01*
X26582370Y17567097D01*
X26581608Y17571008D01*
X26581608Y18954191D01*
X26582370Y18958102D01*
X26584605Y18961404D01*
X26586180Y18962979D01*
X26591818Y18971006D01*
X26595933Y18979946D01*
X26598473Y18989395D01*
X26599337Y18999200D01*
X26598473Y19009004D01*
X26595933Y19018453D01*
X26591818Y19027394D01*
X26586180Y19035420D01*
X26579220Y19042380D01*
X26571194Y19048018D01*
X26562253Y19052133D01*
X26552804Y19054673D01*
X26543000Y19055537D01*
X26533195Y19054673D01*
X26523746Y19052133D01*
X26514806Y19048018D01*
X26506779Y19042380D01*
X26499820Y19035420D01*
X26494181Y19027394D01*
X26490066Y19018453D01*
X26487526Y19009004D01*
X26486662Y18999200D01*
X26487526Y18989395D01*
X26490066Y18979946D01*
X26494181Y18971006D01*
X26499820Y18962979D01*
X26501394Y18961404D01*
X26503630Y18958102D01*
X26504392Y18954191D01*
X26504392Y17571008D01*
X26503630Y17567097D01*
X26501394Y17563795D01*
X26499820Y17562220D01*
X26494181Y17554194D01*
X26490066Y17545253D01*
X26487526Y17535804D01*
X26486662Y17526000D01*
X26487526Y17516195D01*
X26490066Y17506746D01*
X26494181Y17497806D01*
X26499820Y17489779D01*
X26506779Y17482820D01*
X26514806Y17477181D01*
X26523746Y17473066D01*
X26533195Y17470526D01*
G37*
G36*
X23320502Y17545862D02*
G01*
X23330255Y17546726D01*
X23339755Y17549266D01*
X23348645Y17553381D01*
X23356722Y17559020D01*
X23363631Y17565979D01*
X23369270Y17574006D01*
X23373435Y17582946D01*
X23375975Y17592395D01*
X23376839Y17602200D01*
X23375975Y17612004D01*
X23373435Y17621453D01*
X23369270Y17630394D01*
X23363631Y17638420D01*
X23362056Y17639995D01*
X23359872Y17643297D01*
X23359059Y17647208D01*
X23359059Y18103291D01*
X23359872Y18107202D01*
X23362056Y18110504D01*
X23363631Y18112079D01*
X23369270Y18120106D01*
X23373435Y18129046D01*
X23375975Y18138495D01*
X23376839Y18148300D01*
X23375975Y18158104D01*
X23373435Y18167553D01*
X23369270Y18176494D01*
X23363631Y18184520D01*
X23356722Y18191480D01*
X23348645Y18197118D01*
X23339755Y18201233D01*
X23330255Y18203773D01*
X23320502Y18204637D01*
X23310697Y18203773D01*
X23301198Y18201233D01*
X23292308Y18197118D01*
X23284230Y18191480D01*
X23277322Y18184520D01*
X23271683Y18176494D01*
X23267517Y18167553D01*
X23264977Y18158104D01*
X23264114Y18148300D01*
X23264977Y18138495D01*
X23267517Y18129046D01*
X23271683Y18120106D01*
X23277322Y18112079D01*
X23278896Y18110504D01*
X23281081Y18107202D01*
X23281843Y18103291D01*
X23281843Y17647208D01*
X23281081Y17643297D01*
X23278896Y17639995D01*
X23277322Y17638420D01*
X23271683Y17630394D01*
X23267517Y17621453D01*
X23264977Y17612004D01*
X23264114Y17602200D01*
X23264977Y17592395D01*
X23267517Y17582946D01*
X23271683Y17574006D01*
X23277322Y17565979D01*
X23284230Y17559020D01*
X23292308Y17553381D01*
X23301198Y17549266D01*
X23310697Y17546726D01*
G37*
G36*
X26085800Y17545862D02*
G01*
X26095604Y17546726D01*
X26105053Y17549266D01*
X26113993Y17553381D01*
X26122020Y17559020D01*
X26128980Y17565979D01*
X26134618Y17574006D01*
X26138733Y17582946D01*
X26141273Y17592395D01*
X26142137Y17602200D01*
X26141273Y17612004D01*
X26138733Y17621453D01*
X26134618Y17630394D01*
X26128980Y17638420D01*
X26127405Y17639995D01*
X26125170Y17643297D01*
X26124408Y17647208D01*
X26124408Y17922849D01*
X26125220Y17926812D01*
X26127506Y17930164D01*
X26130910Y17932349D01*
X26134923Y17933009D01*
X26138886Y17932044D01*
X26142746Y17930266D01*
X26152195Y17927726D01*
X26162000Y17926862D01*
X26171804Y17927726D01*
X26181253Y17930266D01*
X26190193Y17934381D01*
X26198220Y17940020D01*
X26205180Y17946979D01*
X26210818Y17955006D01*
X26214933Y17963946D01*
X26217473Y17973395D01*
X26218337Y17983200D01*
X26217473Y17993004D01*
X26214933Y18002453D01*
X26210818Y18011394D01*
X26205180Y18019420D01*
X26203605Y18020995D01*
X26201370Y18024297D01*
X26200608Y18028208D01*
X26200608Y19055791D01*
X26201370Y19059702D01*
X26203605Y19063004D01*
X26205180Y19064579D01*
X26210818Y19072606D01*
X26214933Y19081546D01*
X26217473Y19090995D01*
X26218337Y19100800D01*
X26217473Y19110604D01*
X26214933Y19120053D01*
X26210818Y19128994D01*
X26205180Y19137020D01*
X26198220Y19143980D01*
X26190193Y19149618D01*
X26181253Y19153733D01*
X26171804Y19156273D01*
X26162000Y19157137D01*
X26152195Y19156273D01*
X26142746Y19153733D01*
X26133806Y19149618D01*
X26125779Y19143980D01*
X26118820Y19137020D01*
X26113181Y19128994D01*
X26109066Y19120053D01*
X26106526Y19110604D01*
X26105662Y19100800D01*
X26106526Y19090995D01*
X26109066Y19081546D01*
X26113181Y19072606D01*
X26118820Y19064579D01*
X26120394Y19063004D01*
X26122630Y19059702D01*
X26123392Y19055791D01*
X26123392Y18449950D01*
X26122579Y18445988D01*
X26120293Y18442635D01*
X26116889Y18440450D01*
X26112876Y18439790D01*
X26108914Y18440755D01*
X26105053Y18442533D01*
X26095604Y18445073D01*
X26085800Y18445937D01*
X26075995Y18445073D01*
X26066546Y18442533D01*
X26057606Y18438418D01*
X26049579Y18432780D01*
X26042620Y18425820D01*
X26036981Y18417794D01*
X26032866Y18408853D01*
X26030326Y18399404D01*
X26029462Y18389600D01*
X26030326Y18379795D01*
X26032866Y18370346D01*
X26036981Y18361406D01*
X26042620Y18353379D01*
X26044194Y18351804D01*
X26046430Y18348502D01*
X26047192Y18344591D01*
X26047192Y17647208D01*
X26046430Y17643297D01*
X26044194Y17639995D01*
X26042620Y17638420D01*
X26036981Y17630394D01*
X26032866Y17621453D01*
X26030326Y17612004D01*
X26029462Y17602200D01*
X26030326Y17592395D01*
X26032866Y17582946D01*
X26036981Y17574006D01*
X26042620Y17565979D01*
X26049579Y17559020D01*
X26057606Y17553381D01*
X26066546Y17549266D01*
X26075995Y17546726D01*
G37*
G36*
X7251700Y17723662D02*
G01*
X7261504Y17724526D01*
X7270953Y17727066D01*
X7279894Y17731181D01*
X7287920Y17736820D01*
X7294880Y17743779D01*
X7300518Y17751806D01*
X7304633Y17760746D01*
X7307173Y17770195D01*
X7308037Y17780000D01*
X7307173Y17789804D01*
X7304633Y17799253D01*
X7300518Y17808194D01*
X7294880Y17816220D01*
X7293305Y17817795D01*
X7291070Y17821097D01*
X7290308Y17825008D01*
X7290308Y17938191D01*
X7291070Y17942102D01*
X7293305Y17945404D01*
X7294880Y17946979D01*
X7300518Y17955006D01*
X7304633Y17963946D01*
X7307173Y17973395D01*
X7308037Y17983200D01*
X7307173Y17993004D01*
X7304633Y18002453D01*
X7300518Y18011394D01*
X7294880Y18019420D01*
X7287920Y18026380D01*
X7279894Y18032018D01*
X7270953Y18036133D01*
X7261504Y18038673D01*
X7251700Y18039537D01*
X7241895Y18038673D01*
X7232446Y18036133D01*
X7223506Y18032018D01*
X7215479Y18026380D01*
X7208520Y18019420D01*
X7202881Y18011394D01*
X7198766Y18002453D01*
X7196226Y17993004D01*
X7195362Y17983200D01*
X7196226Y17973395D01*
X7198766Y17963946D01*
X7202881Y17955006D01*
X7208520Y17946979D01*
X7210094Y17945404D01*
X7212330Y17942102D01*
X7213092Y17938191D01*
X7213092Y17825008D01*
X7212330Y17821097D01*
X7210094Y17817795D01*
X7208520Y17816220D01*
X7202881Y17808194D01*
X7198766Y17799253D01*
X7196226Y17789804D01*
X7195362Y17780000D01*
X7196226Y17770195D01*
X7198766Y17760746D01*
X7202881Y17751806D01*
X7208520Y17743779D01*
X7215479Y17736820D01*
X7223506Y17731181D01*
X7232446Y17727066D01*
X7241895Y17724526D01*
G37*
G36*
X6985000Y17723662D02*
G01*
X6994804Y17724526D01*
X7004253Y17727066D01*
X7013194Y17731181D01*
X7021220Y17736820D01*
X7028180Y17743779D01*
X7033818Y17751806D01*
X7037933Y17760746D01*
X7040473Y17770195D01*
X7041337Y17780000D01*
X7040473Y17789804D01*
X7037933Y17799253D01*
X7033818Y17808194D01*
X7028180Y17816220D01*
X7026605Y17817795D01*
X7024370Y17821097D01*
X7023608Y17825008D01*
X7023608Y18544540D01*
X7024370Y18548400D01*
X7026605Y18551702D01*
X7028180Y18553277D01*
X7033818Y18561354D01*
X7037933Y18570244D01*
X7040473Y18579744D01*
X7041337Y18589498D01*
X7040473Y18599302D01*
X7037933Y18608802D01*
X7033818Y18617692D01*
X7028180Y18625769D01*
X7021220Y18632678D01*
X7013194Y18638316D01*
X7004253Y18642482D01*
X6994804Y18645022D01*
X6985000Y18645886D01*
X6975195Y18645022D01*
X6965746Y18642482D01*
X6956806Y18638316D01*
X6948779Y18632678D01*
X6941820Y18625769D01*
X6936181Y18617692D01*
X6932066Y18608802D01*
X6929526Y18599302D01*
X6928662Y18589498D01*
X6929526Y18579744D01*
X6932066Y18570244D01*
X6936181Y18561354D01*
X6941820Y18553277D01*
X6943394Y18551702D01*
X6945630Y18548400D01*
X6946392Y18544540D01*
X6946392Y17825008D01*
X6945630Y17821097D01*
X6943394Y17817795D01*
X6941820Y17816220D01*
X6936181Y17808194D01*
X6932066Y17799253D01*
X6929526Y17789804D01*
X6928662Y17780000D01*
X6929526Y17770195D01*
X6932066Y17760746D01*
X6936181Y17751806D01*
X6941820Y17743779D01*
X6948779Y17736820D01*
X6956806Y17731181D01*
X6965746Y17727066D01*
X6975195Y17724526D01*
G37*
G36*
X5413502Y17799862D02*
G01*
X5423306Y17800726D01*
X5432755Y17803266D01*
X5441696Y17807381D01*
X5449722Y17813020D01*
X5456682Y17819979D01*
X5462320Y17828006D01*
X5466435Y17836946D01*
X5468975Y17846395D01*
X5469839Y17856200D01*
X5468975Y17866004D01*
X5466435Y17875453D01*
X5462320Y17884394D01*
X5456682Y17892420D01*
X5455107Y17893995D01*
X5452872Y17897297D01*
X5452110Y17901208D01*
X5452110Y18611342D01*
X5452872Y18615202D01*
X5455107Y18618504D01*
X5456631Y18620079D01*
X5462270Y18628106D01*
X5466435Y18637046D01*
X5468975Y18646495D01*
X5469839Y18656300D01*
X5468975Y18666104D01*
X5466435Y18675553D01*
X5462270Y18684494D01*
X5456631Y18692520D01*
X5449722Y18699480D01*
X5441645Y18705118D01*
X5432755Y18709233D01*
X5423255Y18711773D01*
X5413502Y18712637D01*
X5403697Y18711773D01*
X5394198Y18709233D01*
X5385308Y18705118D01*
X5377230Y18699480D01*
X5370322Y18692520D01*
X5364683Y18684494D01*
X5360517Y18675553D01*
X5357977Y18666104D01*
X5357114Y18656300D01*
X5357977Y18646495D01*
X5360517Y18637046D01*
X5364683Y18628106D01*
X5370322Y18620079D01*
X5371896Y18618454D01*
X5374132Y18615152D01*
X5374894Y18611291D01*
X5374894Y17901208D01*
X5374132Y17897297D01*
X5371896Y17893995D01*
X5370322Y17892420D01*
X5364683Y17884394D01*
X5360568Y17875453D01*
X5358028Y17866004D01*
X5357164Y17856200D01*
X5358028Y17846395D01*
X5360568Y17836946D01*
X5364683Y17828006D01*
X5370322Y17819979D01*
X5377281Y17813020D01*
X5385308Y17807381D01*
X5394248Y17803266D01*
X5403697Y17800726D01*
G37*
G36*
X7112000Y17799862D02*
G01*
X7121804Y17800726D01*
X7131253Y17803266D01*
X7140194Y17807381D01*
X7148220Y17813020D01*
X7155180Y17819979D01*
X7160818Y17828006D01*
X7164933Y17836946D01*
X7167473Y17846395D01*
X7168337Y17856200D01*
X7167473Y17866004D01*
X7164933Y17875453D01*
X7160818Y17884394D01*
X7155180Y17892420D01*
X7153605Y17893995D01*
X7151370Y17897297D01*
X7150608Y17901208D01*
X7150608Y18363031D01*
X7151268Y18366638D01*
X7153198Y18369788D01*
X7156145Y18372074D01*
X7159701Y18373140D01*
X7163409Y18372836D01*
X7165695Y18372226D01*
X7175500Y18371362D01*
X7185304Y18372226D01*
X7194753Y18374766D01*
X7201916Y18378068D01*
X7205827Y18379033D01*
X7209840Y18378373D01*
X7213244Y18376188D01*
X7215581Y18372836D01*
X7216343Y18368873D01*
X7216343Y18282208D01*
X7215581Y18278297D01*
X7213396Y18274995D01*
X7211822Y18273420D01*
X7206183Y18265394D01*
X7202017Y18256453D01*
X7199477Y18247004D01*
X7198614Y18237200D01*
X7199477Y18227395D01*
X7202017Y18217946D01*
X7206183Y18209006D01*
X7211822Y18200979D01*
X7218730Y18194020D01*
X7226808Y18188381D01*
X7235698Y18184266D01*
X7245197Y18181726D01*
X7255002Y18180862D01*
X7264755Y18181726D01*
X7274255Y18184266D01*
X7283145Y18188381D01*
X7291222Y18194020D01*
X7294778Y18197626D01*
X7298080Y18199811D01*
X7301941Y18200573D01*
X7305852Y18199811D01*
X7309154Y18197626D01*
X7311339Y18194324D01*
X7312101Y18190413D01*
X7312101Y18126506D01*
X7311339Y18122595D01*
X7309154Y18119293D01*
X7307580Y18117718D01*
X7301941Y18109692D01*
X7297775Y18100751D01*
X7295235Y18091302D01*
X7294372Y18081498D01*
X7295235Y18071693D01*
X7297775Y18062244D01*
X7301941Y18053304D01*
X7307580Y18045277D01*
X7314488Y18038318D01*
X7322566Y18032679D01*
X7331456Y18028564D01*
X7340955Y18026024D01*
X7350759Y18025160D01*
X7360513Y18026024D01*
X7370013Y18028564D01*
X7378903Y18032679D01*
X7386980Y18038318D01*
X7393889Y18045277D01*
X7399528Y18053304D01*
X7403693Y18062244D01*
X7406233Y18071693D01*
X7407097Y18081498D01*
X7406233Y18091302D01*
X7403693Y18100751D01*
X7399528Y18109692D01*
X7393889Y18117718D01*
X7392314Y18119293D01*
X7390130Y18122595D01*
X7389317Y18126506D01*
X7389317Y18316397D01*
X7390130Y18320308D01*
X7392314Y18323610D01*
X7395616Y18325795D01*
X7399477Y18326557D01*
X7403388Y18325795D01*
X7406690Y18323610D01*
X7409230Y18321020D01*
X7417308Y18315381D01*
X7426198Y18311266D01*
X7435697Y18308726D01*
X7445502Y18307862D01*
X7455255Y18308726D01*
X7464755Y18311266D01*
X7473645Y18315381D01*
X7481722Y18321020D01*
X7488631Y18327979D01*
X7494270Y18336006D01*
X7498435Y18344946D01*
X7500975Y18354395D01*
X7501839Y18364200D01*
X7500975Y18374004D01*
X7498435Y18383453D01*
X7494270Y18392394D01*
X7488631Y18400420D01*
X7487056Y18401995D01*
X7484872Y18405297D01*
X7484059Y18409208D01*
X7484059Y18611291D01*
X7484872Y18615202D01*
X7487056Y18618504D01*
X7488631Y18620079D01*
X7494270Y18628106D01*
X7498435Y18637046D01*
X7500975Y18646495D01*
X7501839Y18656300D01*
X7500975Y18666104D01*
X7498435Y18675553D01*
X7494270Y18684494D01*
X7488631Y18692520D01*
X7481722Y18699480D01*
X7473645Y18705118D01*
X7464755Y18709233D01*
X7455255Y18711773D01*
X7445502Y18712637D01*
X7435697Y18711773D01*
X7426198Y18709233D01*
X7417308Y18705118D01*
X7409230Y18699480D01*
X7402322Y18692520D01*
X7396683Y18684494D01*
X7392517Y18675553D01*
X7389977Y18666104D01*
X7389114Y18656300D01*
X7389977Y18646495D01*
X7392517Y18637046D01*
X7396683Y18628106D01*
X7402322Y18620079D01*
X7403896Y18618504D01*
X7406081Y18615202D01*
X7406843Y18611291D01*
X7406843Y18589802D01*
X7406081Y18585891D01*
X7403896Y18582589D01*
X7400594Y18580404D01*
X7396683Y18579642D01*
X7392822Y18580404D01*
X7389520Y18582589D01*
X7386980Y18585180D01*
X7378903Y18590818D01*
X7370013Y18594933D01*
X7360513Y18597473D01*
X7350759Y18598337D01*
X7340955Y18597473D01*
X7331456Y18594933D01*
X7322566Y18590818D01*
X7314488Y18585180D01*
X7310018Y18580709D01*
X7306767Y18578474D01*
X7302855Y18577712D01*
X7298944Y18578474D01*
X7295692Y18580709D01*
X7291222Y18585180D01*
X7283145Y18590818D01*
X7274255Y18594933D01*
X7264755Y18597473D01*
X7255002Y18598337D01*
X7245197Y18597473D01*
X7235698Y18594933D01*
X7228586Y18591631D01*
X7224623Y18590666D01*
X7220610Y18591326D01*
X7217206Y18593511D01*
X7214920Y18596864D01*
X7214108Y18600826D01*
X7214108Y18649137D01*
X7214717Y18652591D01*
X7216394Y18655588D01*
X7220254Y18660262D01*
X7223810Y18666968D01*
X7225995Y18674181D01*
X7226808Y18682208D01*
X7226808Y19144691D01*
X7227570Y19148602D01*
X7229805Y19151904D01*
X7231380Y19153479D01*
X7237018Y19161506D01*
X7241133Y19170446D01*
X7243673Y19179895D01*
X7244537Y19189700D01*
X7243673Y19199504D01*
X7241133Y19208953D01*
X7237018Y19217894D01*
X7231380Y19225920D01*
X7224420Y19232880D01*
X7216394Y19238518D01*
X7207453Y19242633D01*
X7198004Y19245173D01*
X7188200Y19246037D01*
X7178395Y19245173D01*
X7168946Y19242633D01*
X7160006Y19238518D01*
X7151979Y19232880D01*
X7145020Y19225920D01*
X7139381Y19217894D01*
X7135266Y19208953D01*
X7132726Y19199504D01*
X7131862Y19189700D01*
X7132726Y19179895D01*
X7135266Y19170446D01*
X7139381Y19161506D01*
X7145020Y19153479D01*
X7146594Y19151904D01*
X7148830Y19148602D01*
X7149592Y19144691D01*
X7149592Y19059550D01*
X7148779Y19055588D01*
X7146493Y19052235D01*
X7143089Y19050050D01*
X7139076Y19049390D01*
X7135114Y19050355D01*
X7131253Y19052133D01*
X7121804Y19054673D01*
X7112000Y19055537D01*
X7102195Y19054673D01*
X7092746Y19052133D01*
X7083806Y19048018D01*
X7075779Y19042380D01*
X7068820Y19035420D01*
X7063181Y19027394D01*
X7059066Y19018453D01*
X7056526Y19009004D01*
X7055662Y18999200D01*
X7056526Y18989395D01*
X7059066Y18979946D01*
X7063181Y18971006D01*
X7068820Y18962979D01*
X7070394Y18961404D01*
X7072630Y18958102D01*
X7073392Y18954191D01*
X7073392Y17901208D01*
X7072630Y17897297D01*
X7070394Y17893995D01*
X7068820Y17892420D01*
X7063181Y17884394D01*
X7059066Y17875453D01*
X7056526Y17866004D01*
X7055662Y17856200D01*
X7056526Y17846395D01*
X7059066Y17836946D01*
X7063181Y17828006D01*
X7068820Y17819979D01*
X7075779Y17813020D01*
X7083806Y17807381D01*
X7092746Y17803266D01*
X7102195Y17800726D01*
G37*
G36*
X23164800Y17850662D02*
G01*
X23174604Y17851526D01*
X23184053Y17854066D01*
X23192994Y17858181D01*
X23201020Y17863820D01*
X23207980Y17870779D01*
X23213618Y17878806D01*
X23217733Y17887746D01*
X23220273Y17897195D01*
X23221137Y17907000D01*
X23220273Y17916804D01*
X23217733Y17926253D01*
X23213618Y17935194D01*
X23207980Y17943220D01*
X23206405Y17944795D01*
X23204170Y17948097D01*
X23203408Y17952008D01*
X23203408Y18496381D01*
X23204170Y18500293D01*
X23206405Y18503595D01*
X23236478Y18533668D01*
X23239374Y18535700D01*
X23242778Y18536615D01*
X23250804Y18537326D01*
X23260253Y18539866D01*
X23269194Y18543981D01*
X23277220Y18549620D01*
X23284180Y18556579D01*
X23289818Y18564606D01*
X23293933Y18573546D01*
X23296473Y18582995D01*
X23297337Y18592800D01*
X23296473Y18602604D01*
X23293933Y18612053D01*
X23289818Y18620994D01*
X23284180Y18629020D01*
X23277220Y18635980D01*
X23269194Y18641618D01*
X23260253Y18645733D01*
X23250804Y18648273D01*
X23241000Y18649137D01*
X23231195Y18648273D01*
X23221746Y18645733D01*
X23212806Y18641618D01*
X23204779Y18635980D01*
X23197820Y18629020D01*
X23192181Y18620994D01*
X23188066Y18612053D01*
X23185526Y18602604D01*
X23184815Y18594578D01*
X23183900Y18591174D01*
X23181868Y18588278D01*
X23137876Y18544235D01*
X23132745Y18538037D01*
X23129189Y18531332D01*
X23127004Y18524118D01*
X23126192Y18516092D01*
X23126192Y17952008D01*
X23125430Y17948097D01*
X23123194Y17944795D01*
X23121620Y17943220D01*
X23115981Y17935194D01*
X23111866Y17926253D01*
X23109326Y17916804D01*
X23108462Y17907000D01*
X23109326Y17897195D01*
X23111866Y17887746D01*
X23115981Y17878806D01*
X23121620Y17870779D01*
X23128579Y17863820D01*
X23136606Y17858181D01*
X23145546Y17854066D01*
X23154995Y17851526D01*
G37*
G36*
X24257000Y17926862D02*
G01*
X24266804Y17927726D01*
X24276253Y17930266D01*
X24285194Y17934381D01*
X24293220Y17940020D01*
X24300180Y17946979D01*
X24305818Y17955006D01*
X24309933Y17963946D01*
X24312473Y17973395D01*
X24313337Y17983200D01*
X24312473Y17993004D01*
X24309933Y18002453D01*
X24305818Y18011394D01*
X24300180Y18019420D01*
X24298605Y18020995D01*
X24296370Y18024297D01*
X24295608Y18028208D01*
X24295608Y18544540D01*
X24296370Y18548400D01*
X24298605Y18551702D01*
X24300180Y18553277D01*
X24305818Y18561354D01*
X24309933Y18570244D01*
X24312473Y18579744D01*
X24313337Y18589498D01*
X24312473Y18599302D01*
X24309933Y18608802D01*
X24305818Y18617692D01*
X24300180Y18625769D01*
X24293220Y18632678D01*
X24285194Y18638316D01*
X24276253Y18642482D01*
X24266804Y18645022D01*
X24257000Y18645886D01*
X24247195Y18645022D01*
X24237746Y18642482D01*
X24228806Y18638316D01*
X24220779Y18632678D01*
X24213820Y18625769D01*
X24208181Y18617692D01*
X24204066Y18608802D01*
X24201526Y18599302D01*
X24200662Y18589498D01*
X24201526Y18579744D01*
X24204066Y18570244D01*
X24208181Y18561354D01*
X24213820Y18553277D01*
X24215394Y18551702D01*
X24217630Y18548400D01*
X24218392Y18544540D01*
X24218392Y18028208D01*
X24217630Y18024297D01*
X24215394Y18020995D01*
X24213820Y18019420D01*
X24208181Y18011394D01*
X24204066Y18002453D01*
X24201526Y17993004D01*
X24200662Y17983200D01*
X24201526Y17973395D01*
X24204066Y17963946D01*
X24208181Y17955006D01*
X24213820Y17946979D01*
X24220779Y17940020D01*
X24228806Y17934381D01*
X24237746Y17930266D01*
X24247195Y17927726D01*
G37*
G36*
X20574000Y17926862D02*
G01*
X20583804Y17927726D01*
X20593253Y17930266D01*
X20602194Y17934381D01*
X20610220Y17940020D01*
X20617180Y17946979D01*
X20622818Y17955006D01*
X20626933Y17963946D01*
X20629473Y17973395D01*
X20630337Y17983200D01*
X20629473Y17993004D01*
X20626933Y18002453D01*
X20622818Y18011394D01*
X20617180Y18019420D01*
X20615605Y18020995D01*
X20613370Y18024297D01*
X20612608Y18028208D01*
X20612608Y19055791D01*
X20613370Y19059702D01*
X20615605Y19063004D01*
X20617180Y19064579D01*
X20622818Y19072606D01*
X20626933Y19081546D01*
X20629473Y19090995D01*
X20630337Y19100800D01*
X20629473Y19110604D01*
X20626933Y19120053D01*
X20622818Y19128994D01*
X20617180Y19137020D01*
X20610220Y19143980D01*
X20602194Y19149618D01*
X20593253Y19153733D01*
X20583804Y19156273D01*
X20574000Y19157137D01*
X20564195Y19156273D01*
X20554746Y19153733D01*
X20545806Y19149618D01*
X20537779Y19143980D01*
X20530820Y19137020D01*
X20525181Y19128994D01*
X20521066Y19120053D01*
X20518526Y19110604D01*
X20517662Y19100800D01*
X20518526Y19090995D01*
X20521066Y19081546D01*
X20525181Y19072606D01*
X20530820Y19064579D01*
X20532394Y19063004D01*
X20534630Y19059702D01*
X20535392Y19055791D01*
X20535392Y18028208D01*
X20534630Y18024297D01*
X20532394Y18020995D01*
X20530820Y18019420D01*
X20525181Y18011394D01*
X20521066Y18002453D01*
X20518526Y17993004D01*
X20517662Y17983200D01*
X20518526Y17973395D01*
X20521066Y17963946D01*
X20525181Y17955006D01*
X20530820Y17946979D01*
X20537779Y17940020D01*
X20545806Y17934381D01*
X20554746Y17930266D01*
X20564195Y17927726D01*
G37*
G36*
X13208000Y17926862D02*
G01*
X13217804Y17927726D01*
X13227253Y17930266D01*
X13236194Y17934381D01*
X13244220Y17940020D01*
X13251180Y17946979D01*
X13256818Y17955006D01*
X13260933Y17963946D01*
X13263473Y17973395D01*
X13264337Y17983200D01*
X13263473Y17993004D01*
X13260933Y18002453D01*
X13256818Y18011394D01*
X13251180Y18019420D01*
X13249605Y18020995D01*
X13247369Y18024297D01*
X13246607Y18028208D01*
X13246607Y19055791D01*
X13247369Y19059702D01*
X13249605Y19063004D01*
X13251180Y19064579D01*
X13256818Y19072606D01*
X13260933Y19081546D01*
X13263473Y19090995D01*
X13264337Y19100800D01*
X13263473Y19110604D01*
X13260933Y19120053D01*
X13256818Y19128994D01*
X13251180Y19137020D01*
X13244220Y19143980D01*
X13236194Y19149618D01*
X13227253Y19153733D01*
X13217804Y19156273D01*
X13208000Y19157137D01*
X13198195Y19156273D01*
X13188746Y19153733D01*
X13179806Y19149618D01*
X13171779Y19143980D01*
X13164819Y19137020D01*
X13159181Y19128994D01*
X13155066Y19120053D01*
X13152526Y19110604D01*
X13151662Y19100800D01*
X13152526Y19090995D01*
X13155066Y19081546D01*
X13159181Y19072606D01*
X13164819Y19064579D01*
X13166394Y19063004D01*
X13168630Y19059702D01*
X13169392Y19055791D01*
X13169392Y18028208D01*
X13168630Y18024297D01*
X13166394Y18020995D01*
X13164819Y18019420D01*
X13159181Y18011394D01*
X13155066Y18002453D01*
X13152526Y17993004D01*
X13151662Y17983200D01*
X13152526Y17973395D01*
X13155066Y17963946D01*
X13159181Y17955006D01*
X13164819Y17946979D01*
X13171779Y17940020D01*
X13179806Y17934381D01*
X13188746Y17930266D01*
X13198195Y17927726D01*
G37*
G36*
X17018000Y17926862D02*
G01*
X17027804Y17927726D01*
X17037253Y17930266D01*
X17046194Y17934381D01*
X17054220Y17940020D01*
X17061180Y17946979D01*
X17066818Y17955006D01*
X17070933Y17963946D01*
X17073473Y17973395D01*
X17074337Y17983200D01*
X17073473Y17993004D01*
X17070933Y18002453D01*
X17066818Y18011394D01*
X17061180Y18019420D01*
X17059605Y18020995D01*
X17057370Y18024297D01*
X17056608Y18028208D01*
X17056608Y19055791D01*
X17057370Y19059702D01*
X17059605Y19063004D01*
X17061180Y19064579D01*
X17066818Y19072606D01*
X17070933Y19081546D01*
X17073473Y19090995D01*
X17074337Y19100800D01*
X17073473Y19110604D01*
X17070933Y19120053D01*
X17066818Y19128994D01*
X17061180Y19137020D01*
X17054220Y19143980D01*
X17046194Y19149618D01*
X17037253Y19153733D01*
X17027804Y19156273D01*
X17018000Y19157137D01*
X17008195Y19156273D01*
X16998746Y19153733D01*
X16989806Y19149618D01*
X16981779Y19143980D01*
X16974820Y19137020D01*
X16969181Y19128994D01*
X16965066Y19120053D01*
X16962526Y19110604D01*
X16961662Y19100800D01*
X16962526Y19090995D01*
X16965066Y19081546D01*
X16969181Y19072606D01*
X16974820Y19064579D01*
X16976394Y19063004D01*
X16978630Y19059702D01*
X16979392Y19055791D01*
X16979392Y18028208D01*
X16978630Y18024297D01*
X16976394Y18020995D01*
X16974820Y18019420D01*
X16969181Y18011394D01*
X16965066Y18002453D01*
X16962526Y17993004D01*
X16961662Y17983200D01*
X16962526Y17973395D01*
X16965066Y17963946D01*
X16969181Y17955006D01*
X16974820Y17946979D01*
X16981779Y17940020D01*
X16989806Y17934381D01*
X16998746Y17930266D01*
X17008195Y17927726D01*
G37*
G36*
X1028700Y20298562D02*
G01*
X1033322Y20298664D01*
X1056284Y20301051D01*
X1078992Y20305369D01*
X1101242Y20311618D01*
X1122934Y20319644D01*
X1143812Y20329499D01*
X1163828Y20341031D01*
X1182827Y20354239D01*
X1200607Y20368971D01*
X1217117Y20385125D01*
X1232204Y20402600D01*
X1245819Y20421295D01*
X1257757Y20441107D01*
X1268018Y20461782D01*
X1276553Y20483271D01*
X1283208Y20505369D01*
X1288034Y20527975D01*
X1290929Y20550936D01*
X1291336Y20561300D01*
X1028700Y20561300D01*
G37*
G36*
X22987000Y18025160D02*
G01*
X22996804Y18026024D01*
X23006253Y18028564D01*
X23015194Y18032730D01*
X23023220Y18038368D01*
X23030180Y18045277D01*
X23035818Y18053354D01*
X23039933Y18062244D01*
X23042473Y18071744D01*
X23043337Y18081498D01*
X23042473Y18091302D01*
X23039933Y18100802D01*
X23035818Y18109692D01*
X23030180Y18117769D01*
X23028605Y18119344D01*
X23026370Y18122646D01*
X23025608Y18126506D01*
X23025608Y18446191D01*
X23026370Y18450102D01*
X23028605Y18453404D01*
X23030180Y18454979D01*
X23035818Y18463006D01*
X23039933Y18471946D01*
X23042473Y18481395D01*
X23043337Y18491200D01*
X23042473Y18501004D01*
X23039933Y18510453D01*
X23035818Y18519394D01*
X23030180Y18527420D01*
X23023220Y18534380D01*
X23015194Y18540018D01*
X23006253Y18544133D01*
X22996804Y18546673D01*
X22987000Y18547537D01*
X22977195Y18546673D01*
X22967746Y18544133D01*
X22958806Y18540018D01*
X22950779Y18534380D01*
X22943820Y18527420D01*
X22938181Y18519394D01*
X22934066Y18510453D01*
X22931526Y18501004D01*
X22930662Y18491200D01*
X22931526Y18481395D01*
X22934066Y18471946D01*
X22938181Y18463006D01*
X22943820Y18454979D01*
X22945394Y18453404D01*
X22947630Y18450102D01*
X22948392Y18446191D01*
X22948392Y18126506D01*
X22947630Y18122646D01*
X22945394Y18119344D01*
X22943820Y18117769D01*
X22938181Y18109692D01*
X22934066Y18100802D01*
X22931526Y18091302D01*
X22930662Y18081498D01*
X22931526Y18071744D01*
X22934066Y18062244D01*
X22938181Y18053354D01*
X22943820Y18045277D01*
X22950779Y18038368D01*
X22958806Y18032730D01*
X22967746Y18028564D01*
X22977195Y18026024D01*
G37*
G36*
X7747000Y18025160D02*
G01*
X7756804Y18026024D01*
X7766253Y18028564D01*
X7775194Y18032679D01*
X7783220Y18038318D01*
X7790180Y18045277D01*
X7795818Y18053304D01*
X7799933Y18062244D01*
X7802473Y18071693D01*
X7803337Y18081498D01*
X7802473Y18091302D01*
X7799933Y18100751D01*
X7795818Y18109692D01*
X7790180Y18117718D01*
X7788605Y18119293D01*
X7786370Y18122595D01*
X7785608Y18126506D01*
X7785608Y18535091D01*
X7786370Y18539002D01*
X7788605Y18542304D01*
X7790180Y18543879D01*
X7795818Y18551906D01*
X7799933Y18560846D01*
X7802473Y18570295D01*
X7803337Y18580100D01*
X7802473Y18589904D01*
X7799933Y18599353D01*
X7795818Y18608294D01*
X7790180Y18616320D01*
X7783220Y18623280D01*
X7775194Y18628918D01*
X7766253Y18633033D01*
X7756804Y18635573D01*
X7747000Y18636437D01*
X7737195Y18635573D01*
X7727746Y18633033D01*
X7718806Y18628918D01*
X7710779Y18623280D01*
X7703820Y18616320D01*
X7698181Y18608294D01*
X7694066Y18599353D01*
X7691526Y18589904D01*
X7690662Y18580100D01*
X7691526Y18570295D01*
X7694066Y18560846D01*
X7698181Y18551906D01*
X7703820Y18543879D01*
X7705394Y18542304D01*
X7707630Y18539002D01*
X7708392Y18535091D01*
X7708392Y18126506D01*
X7707630Y18122595D01*
X7705394Y18119293D01*
X7703820Y18117718D01*
X7698181Y18109692D01*
X7694066Y18100751D01*
X7691526Y18091302D01*
X7690662Y18081498D01*
X7691526Y18071693D01*
X7694066Y18062244D01*
X7698181Y18053304D01*
X7703820Y18045277D01*
X7710779Y18038318D01*
X7718806Y18032679D01*
X7727746Y18028564D01*
X7737195Y18026024D01*
G37*
G36*
X12573000Y18025160D02*
G01*
X12582804Y18026024D01*
X12592253Y18028564D01*
X12601194Y18032730D01*
X12609220Y18038368D01*
X12616180Y18045277D01*
X12621818Y18053354D01*
X12625933Y18062244D01*
X12628473Y18071744D01*
X12629337Y18081498D01*
X12628473Y18091302D01*
X12625933Y18100802D01*
X12621818Y18109692D01*
X12616180Y18117769D01*
X12614605Y18119344D01*
X12612370Y18122646D01*
X12611608Y18126506D01*
X12611608Y18216981D01*
X12612370Y18220893D01*
X12614605Y18224195D01*
X12758978Y18368568D01*
X12761874Y18370600D01*
X12765278Y18371515D01*
X12773304Y18372226D01*
X12782753Y18374766D01*
X12786614Y18376544D01*
X12790576Y18377509D01*
X12794589Y18376849D01*
X12797993Y18374664D01*
X12800279Y18371312D01*
X12801092Y18367349D01*
X12801092Y18285510D01*
X12800330Y18281599D01*
X12798094Y18278297D01*
X12796520Y18276722D01*
X12790881Y18268696D01*
X12786766Y18259755D01*
X12784226Y18250306D01*
X12783362Y18240502D01*
X12784226Y18230697D01*
X12786766Y18221248D01*
X12790881Y18212308D01*
X12796520Y18204281D01*
X12803479Y18197322D01*
X12811506Y18191683D01*
X12820446Y18187568D01*
X12829895Y18185028D01*
X12839700Y18184164D01*
X12849504Y18185028D01*
X12858953Y18187568D01*
X12867894Y18191683D01*
X12875920Y18197322D01*
X12882778Y18204180D01*
X12886080Y18206415D01*
X12889941Y18207177D01*
X12893852Y18206415D01*
X12897154Y18204180D01*
X12899339Y18200878D01*
X12900101Y18197017D01*
X12900101Y18126506D01*
X12899339Y18122595D01*
X12897154Y18119293D01*
X12895580Y18117718D01*
X12889941Y18109692D01*
X12885775Y18100751D01*
X12883235Y18091302D01*
X12882372Y18081498D01*
X12883235Y18071693D01*
X12885775Y18062244D01*
X12889941Y18053304D01*
X12895580Y18045277D01*
X12902488Y18038318D01*
X12910566Y18032679D01*
X12919456Y18028564D01*
X12928955Y18026024D01*
X12938760Y18025160D01*
X12948513Y18026024D01*
X12958013Y18028564D01*
X12966903Y18032679D01*
X12974980Y18038318D01*
X12981889Y18045277D01*
X12987528Y18053304D01*
X12991693Y18062244D01*
X12994233Y18071693D01*
X12995097Y18081498D01*
X12994233Y18091302D01*
X12991693Y18100751D01*
X12987528Y18109692D01*
X12981889Y18117718D01*
X12980314Y18119293D01*
X12978130Y18122595D01*
X12977317Y18126506D01*
X12977317Y18316448D01*
X12978282Y18320766D01*
X12980974Y18324271D01*
X12984886Y18326303D01*
X12989255Y18326455D01*
X12993319Y18324779D01*
X13002006Y18318683D01*
X13010946Y18314568D01*
X13020395Y18312028D01*
X13030200Y18311164D01*
X13040004Y18312028D01*
X13049453Y18314568D01*
X13058394Y18318683D01*
X13066420Y18324322D01*
X13073380Y18331281D01*
X13079018Y18339308D01*
X13083133Y18348248D01*
X13085673Y18357697D01*
X13086537Y18367502D01*
X13085673Y18377306D01*
X13083133Y18386755D01*
X13079018Y18395696D01*
X13073380Y18403722D01*
X13071805Y18405297D01*
X13069569Y18408599D01*
X13068808Y18412510D01*
X13068808Y18611291D01*
X13069569Y18615202D01*
X13071805Y18618504D01*
X13073380Y18620079D01*
X13079018Y18628106D01*
X13083133Y18637046D01*
X13085673Y18646495D01*
X13086537Y18656300D01*
X13085673Y18666104D01*
X13083133Y18675553D01*
X13079018Y18684494D01*
X13073380Y18692520D01*
X13066420Y18699480D01*
X13058394Y18705118D01*
X13049453Y18709233D01*
X13040004Y18711773D01*
X13030200Y18712637D01*
X13020395Y18711773D01*
X13010946Y18709233D01*
X13002006Y18705118D01*
X12993979Y18699480D01*
X12987020Y18692520D01*
X12981381Y18684494D01*
X12977266Y18675553D01*
X12974726Y18666104D01*
X12973862Y18656300D01*
X12974726Y18646495D01*
X12977266Y18637046D01*
X12981381Y18628106D01*
X12987020Y18620079D01*
X12988594Y18618504D01*
X12990830Y18615202D01*
X12991592Y18611291D01*
X12991592Y18593054D01*
X12990626Y18588736D01*
X12987985Y18585230D01*
X12984073Y18583198D01*
X12979654Y18583046D01*
X12975590Y18584722D01*
X12966903Y18590818D01*
X12958013Y18594933D01*
X12948513Y18597473D01*
X12938760Y18598337D01*
X12928955Y18597473D01*
X12919456Y18594933D01*
X12910566Y18590818D01*
X12902488Y18585180D01*
X12896392Y18579033D01*
X12893090Y18576848D01*
X12889230Y18576086D01*
X12885318Y18576848D01*
X12882016Y18579033D01*
X12875920Y18585180D01*
X12867894Y18590818D01*
X12858953Y18594933D01*
X12849504Y18597473D01*
X12839700Y18598337D01*
X12829895Y18597473D01*
X12820446Y18594933D01*
X12811506Y18590818D01*
X12803479Y18585180D01*
X12796520Y18578220D01*
X12790881Y18570194D01*
X12786766Y18561253D01*
X12784226Y18551804D01*
X12783362Y18542000D01*
X12784226Y18532195D01*
X12786766Y18522746D01*
X12790881Y18513806D01*
X12796520Y18505779D01*
X12798094Y18504204D01*
X12800330Y18500902D01*
X12801092Y18496991D01*
X12801092Y18488050D01*
X12800279Y18484088D01*
X12797993Y18480735D01*
X12794589Y18478550D01*
X12790576Y18477890D01*
X12786614Y18478855D01*
X12782753Y18480633D01*
X12773304Y18483173D01*
X12763500Y18484037D01*
X12753695Y18483173D01*
X12744246Y18480633D01*
X12735306Y18476518D01*
X12727279Y18470880D01*
X12720320Y18463920D01*
X12714681Y18455894D01*
X12710566Y18446953D01*
X12708026Y18437504D01*
X12707315Y18429478D01*
X12706400Y18426074D01*
X12704368Y18423178D01*
X12546076Y18264835D01*
X12540945Y18258637D01*
X12537389Y18251932D01*
X12535204Y18244718D01*
X12534392Y18236692D01*
X12534392Y18126506D01*
X12533630Y18122646D01*
X12531394Y18119344D01*
X12529820Y18117769D01*
X12524181Y18109692D01*
X12520066Y18100802D01*
X12517526Y18091302D01*
X12516662Y18081498D01*
X12517526Y18071744D01*
X12520066Y18062244D01*
X12524181Y18053354D01*
X12529820Y18045277D01*
X12536779Y18038368D01*
X12544806Y18032730D01*
X12553746Y18028564D01*
X12563195Y18026024D01*
G37*
G36*
X25463500Y20136612D02*
G01*
X25473304Y20137475D01*
X25482753Y20140015D01*
X25491694Y20144181D01*
X25499720Y20149820D01*
X25506680Y20156728D01*
X25512318Y20164806D01*
X25516433Y20173696D01*
X25518973Y20183195D01*
X25519837Y20192949D01*
X25518973Y20202753D01*
X25516433Y20212253D01*
X25515366Y20214590D01*
X25514401Y20218857D01*
X25514401Y20459192D01*
X25515366Y20463510D01*
X25516433Y20465846D01*
X25518973Y20475295D01*
X25519837Y20485100D01*
X25518973Y20494904D01*
X25516433Y20504353D01*
X25512318Y20513294D01*
X25506680Y20521320D01*
X25499720Y20528280D01*
X25491694Y20533918D01*
X25482753Y20538033D01*
X25473304Y20540573D01*
X25463500Y20541437D01*
X25453695Y20540573D01*
X25444246Y20538033D01*
X25435306Y20533918D01*
X25427279Y20528280D01*
X25420320Y20521320D01*
X25414681Y20513294D01*
X25410566Y20504353D01*
X25408026Y20494904D01*
X25407162Y20485100D01*
X25408026Y20475295D01*
X25410566Y20465846D01*
X25411633Y20463510D01*
X25412598Y20459192D01*
X25412598Y20218857D01*
X25411633Y20214590D01*
X25410566Y20212253D01*
X25408026Y20202753D01*
X25407162Y20192949D01*
X25408026Y20183195D01*
X25410566Y20173696D01*
X25414681Y20164806D01*
X25420320Y20156728D01*
X25427279Y20149820D01*
X25435306Y20144181D01*
X25444246Y20140015D01*
X25453695Y20137475D01*
G37*
G36*
X19939000Y18025160D02*
G01*
X19948804Y18026024D01*
X19958253Y18028564D01*
X19967194Y18032730D01*
X19975220Y18038368D01*
X19982180Y18045277D01*
X19987818Y18053354D01*
X19991933Y18062244D01*
X19994473Y18071744D01*
X19995337Y18081498D01*
X19994473Y18091302D01*
X19991933Y18100802D01*
X19987818Y18109692D01*
X19982180Y18117769D01*
X19980605Y18119344D01*
X19978370Y18122646D01*
X19977608Y18126506D01*
X19977608Y18216981D01*
X19978370Y18220893D01*
X19980605Y18224195D01*
X20124978Y18368568D01*
X20127874Y18370600D01*
X20131278Y18371515D01*
X20139304Y18372226D01*
X20148753Y18374766D01*
X20152614Y18376544D01*
X20156576Y18377509D01*
X20160589Y18376849D01*
X20163993Y18374664D01*
X20166279Y18371312D01*
X20167092Y18367349D01*
X20167092Y18285510D01*
X20166330Y18281599D01*
X20164094Y18278297D01*
X20162520Y18276722D01*
X20156881Y18268696D01*
X20152766Y18259755D01*
X20150226Y18250306D01*
X20149362Y18240502D01*
X20150226Y18230697D01*
X20152766Y18221248D01*
X20156881Y18212308D01*
X20162520Y18204281D01*
X20169479Y18197322D01*
X20177506Y18191683D01*
X20186446Y18187568D01*
X20195895Y18185028D01*
X20205700Y18184164D01*
X20215504Y18185028D01*
X20224953Y18187568D01*
X20233894Y18191683D01*
X20241920Y18197322D01*
X20248880Y18204281D01*
X20250200Y18206212D01*
X20253299Y18209107D01*
X20257363Y18210479D01*
X20261580Y18210072D01*
X20265288Y18207939D01*
X20267777Y18204535D01*
X20268692Y18200370D01*
X20268692Y18129046D01*
X20267930Y18125186D01*
X20265694Y18121884D01*
X20261580Y18117718D01*
X20255941Y18109692D01*
X20251775Y18100751D01*
X20249235Y18091302D01*
X20248372Y18081498D01*
X20249235Y18071693D01*
X20251775Y18062244D01*
X20255941Y18053304D01*
X20261580Y18045277D01*
X20268488Y18038318D01*
X20276566Y18032679D01*
X20285456Y18028564D01*
X20294955Y18026024D01*
X20304760Y18025160D01*
X20314513Y18026024D01*
X20324013Y18028564D01*
X20332903Y18032679D01*
X20340980Y18038318D01*
X20347889Y18045277D01*
X20353528Y18053304D01*
X20357693Y18062244D01*
X20360233Y18071693D01*
X20361097Y18081498D01*
X20360233Y18091302D01*
X20357693Y18100751D01*
X20353528Y18109692D01*
X20347736Y18117921D01*
X20346365Y18120715D01*
X20345908Y18123763D01*
X20345908Y18314670D01*
X20346873Y18318988D01*
X20349514Y18322442D01*
X20353426Y18324474D01*
X20357846Y18324677D01*
X20361910Y18323001D01*
X20368006Y18318683D01*
X20376946Y18314568D01*
X20386395Y18312028D01*
X20396200Y18311164D01*
X20406004Y18312028D01*
X20415453Y18314568D01*
X20424394Y18318683D01*
X20432420Y18324322D01*
X20439380Y18331281D01*
X20445018Y18339308D01*
X20449133Y18348248D01*
X20451673Y18357697D01*
X20452537Y18367502D01*
X20451673Y18377306D01*
X20449133Y18386755D01*
X20445018Y18395696D01*
X20439380Y18403722D01*
X20437805Y18405297D01*
X20435570Y18408599D01*
X20434808Y18412510D01*
X20434808Y18611291D01*
X20435570Y18615202D01*
X20437805Y18618504D01*
X20439380Y18620079D01*
X20445018Y18628106D01*
X20449133Y18637046D01*
X20451673Y18646495D01*
X20452537Y18656300D01*
X20451673Y18666104D01*
X20449133Y18675553D01*
X20445018Y18684494D01*
X20439380Y18692520D01*
X20432420Y18699480D01*
X20424394Y18705118D01*
X20415453Y18709233D01*
X20406004Y18711773D01*
X20396200Y18712637D01*
X20386395Y18711773D01*
X20376946Y18709233D01*
X20368006Y18705118D01*
X20359979Y18699480D01*
X20353020Y18692520D01*
X20347381Y18684494D01*
X20343266Y18675553D01*
X20340726Y18666104D01*
X20339862Y18656300D01*
X20340726Y18646495D01*
X20343266Y18637046D01*
X20347381Y18628106D01*
X20353020Y18620079D01*
X20354594Y18618504D01*
X20356830Y18615202D01*
X20357592Y18611291D01*
X20357592Y18594832D01*
X20356626Y18590514D01*
X20353985Y18587059D01*
X20350073Y18585027D01*
X20345654Y18584824D01*
X20341590Y18586500D01*
X20335494Y18590818D01*
X20326553Y18594933D01*
X20317104Y18597473D01*
X20307300Y18598337D01*
X20297495Y18597473D01*
X20288046Y18594933D01*
X20279106Y18590818D01*
X20271079Y18585180D01*
X20263662Y18577763D01*
X20260411Y18575578D01*
X20256500Y18574816D01*
X20252588Y18575578D01*
X20249337Y18577763D01*
X20241920Y18585180D01*
X20233894Y18590818D01*
X20224953Y18594933D01*
X20215504Y18597473D01*
X20205700Y18598337D01*
X20195895Y18597473D01*
X20186446Y18594933D01*
X20177506Y18590818D01*
X20169479Y18585180D01*
X20162520Y18578220D01*
X20156881Y18570194D01*
X20152766Y18561253D01*
X20150226Y18551804D01*
X20149362Y18542000D01*
X20150226Y18532195D01*
X20152766Y18522746D01*
X20156881Y18513806D01*
X20162520Y18505779D01*
X20164094Y18504204D01*
X20166330Y18500902D01*
X20167092Y18496991D01*
X20167092Y18488050D01*
X20166279Y18484088D01*
X20163993Y18480735D01*
X20160589Y18478550D01*
X20156576Y18477890D01*
X20152614Y18478855D01*
X20148753Y18480633D01*
X20139304Y18483173D01*
X20129500Y18484037D01*
X20119695Y18483173D01*
X20110246Y18480633D01*
X20101306Y18476518D01*
X20093279Y18470880D01*
X20086320Y18463920D01*
X20080681Y18455894D01*
X20076566Y18446953D01*
X20074026Y18437504D01*
X20073315Y18429478D01*
X20072400Y18426074D01*
X20070368Y18423178D01*
X19912076Y18264835D01*
X19906945Y18258637D01*
X19903389Y18251932D01*
X19901204Y18244718D01*
X19900392Y18236692D01*
X19900392Y18126506D01*
X19899630Y18122646D01*
X19897394Y18119344D01*
X19895820Y18117769D01*
X19890181Y18109692D01*
X19886066Y18100802D01*
X19883526Y18091302D01*
X19882662Y18081498D01*
X19883526Y18071744D01*
X19886066Y18062244D01*
X19890181Y18053354D01*
X19895820Y18045277D01*
X19902779Y18038368D01*
X19910806Y18032730D01*
X19919746Y18028564D01*
X19929195Y18026024D01*
G37*
G36*
X26543000Y19920762D02*
G01*
X26552804Y19921626D01*
X26562253Y19924166D01*
X26571194Y19928281D01*
X26579220Y19933920D01*
X26586180Y19940879D01*
X26591818Y19948906D01*
X26595933Y19957846D01*
X26598473Y19967295D01*
X26599337Y19977100D01*
X26598473Y19986904D01*
X26595933Y19996353D01*
X26594866Y19998690D01*
X26593901Y20003008D01*
X26593901Y20167092D01*
X26594866Y20171359D01*
X26595933Y20173696D01*
X26598473Y20183195D01*
X26599337Y20192949D01*
X26598473Y20202753D01*
X26595933Y20212253D01*
X26594866Y20214590D01*
X26593901Y20218908D01*
X26593901Y20675041D01*
X26594866Y20679359D01*
X26595933Y20681746D01*
X26598473Y20691195D01*
X26599337Y20701000D01*
X26598473Y20710804D01*
X26595933Y20720253D01*
X26591818Y20729194D01*
X26586180Y20737220D01*
X26579220Y20744180D01*
X26571194Y20749818D01*
X26562253Y20753933D01*
X26552804Y20756473D01*
X26543000Y20757337D01*
X26533195Y20756473D01*
X26523746Y20753933D01*
X26514806Y20749818D01*
X26506779Y20744180D01*
X26499820Y20737220D01*
X26494181Y20729194D01*
X26490066Y20720253D01*
X26487526Y20710804D01*
X26486662Y20701000D01*
X26487526Y20691195D01*
X26490066Y20681746D01*
X26491133Y20679410D01*
X26492098Y20675142D01*
X26492098Y20218857D01*
X26491133Y20214539D01*
X26490066Y20212253D01*
X26487526Y20202753D01*
X26486662Y20192949D01*
X26487526Y20183195D01*
X26490066Y20173696D01*
X26491133Y20171359D01*
X26492098Y20167092D01*
X26492098Y20003008D01*
X26491133Y19998690D01*
X26490066Y19996353D01*
X26487526Y19986904D01*
X26486662Y19977100D01*
X26487526Y19967295D01*
X26490066Y19957846D01*
X26494181Y19948906D01*
X26499820Y19940879D01*
X26506779Y19933920D01*
X26514806Y19928281D01*
X26523746Y19924166D01*
X26533195Y19921626D01*
G37*
G36*
X16383000Y18025160D02*
G01*
X16392804Y18026024D01*
X16402253Y18028564D01*
X16411194Y18032730D01*
X16419220Y18038368D01*
X16426180Y18045277D01*
X16431818Y18053354D01*
X16435933Y18062244D01*
X16438473Y18071744D01*
X16439337Y18081498D01*
X16438473Y18091302D01*
X16435933Y18100802D01*
X16431818Y18109692D01*
X16426180Y18117769D01*
X16424605Y18119344D01*
X16422369Y18122646D01*
X16421607Y18126506D01*
X16421607Y18216981D01*
X16422369Y18220893D01*
X16424605Y18224195D01*
X16568978Y18368568D01*
X16571874Y18370600D01*
X16575278Y18371515D01*
X16583304Y18372226D01*
X16592753Y18374766D01*
X16596613Y18376544D01*
X16600576Y18377509D01*
X16604589Y18376849D01*
X16607993Y18374664D01*
X16610279Y18371312D01*
X16611092Y18367349D01*
X16611092Y18285510D01*
X16610330Y18281599D01*
X16608094Y18278297D01*
X16606519Y18276722D01*
X16600881Y18268696D01*
X16596766Y18259755D01*
X16594226Y18250306D01*
X16593362Y18240502D01*
X16594226Y18230697D01*
X16596766Y18221248D01*
X16600881Y18212308D01*
X16606519Y18204281D01*
X16613479Y18197322D01*
X16621506Y18191683D01*
X16630446Y18187568D01*
X16639895Y18185028D01*
X16649700Y18184164D01*
X16659504Y18185028D01*
X16668953Y18187568D01*
X16677894Y18191683D01*
X16685920Y18197322D01*
X16692778Y18204180D01*
X16696080Y18206415D01*
X16699941Y18207177D01*
X16703852Y18206415D01*
X16707154Y18204180D01*
X16709339Y18200878D01*
X16710101Y18197017D01*
X16710101Y18126506D01*
X16709339Y18122595D01*
X16707154Y18119293D01*
X16705580Y18117718D01*
X16699941Y18109692D01*
X16695775Y18100751D01*
X16693235Y18091302D01*
X16692372Y18081498D01*
X16693235Y18071693D01*
X16695775Y18062244D01*
X16699941Y18053304D01*
X16705580Y18045277D01*
X16712488Y18038318D01*
X16720566Y18032679D01*
X16729456Y18028564D01*
X16738955Y18026024D01*
X16748760Y18025160D01*
X16758513Y18026024D01*
X16768013Y18028564D01*
X16776903Y18032679D01*
X16784980Y18038318D01*
X16791889Y18045277D01*
X16797528Y18053304D01*
X16801693Y18062244D01*
X16804233Y18071693D01*
X16805097Y18081498D01*
X16804233Y18091302D01*
X16801693Y18100751D01*
X16797528Y18109692D01*
X16791889Y18117718D01*
X16790314Y18119293D01*
X16788130Y18122595D01*
X16787317Y18126506D01*
X16787317Y18316448D01*
X16788282Y18320766D01*
X16790974Y18324271D01*
X16794886Y18326303D01*
X16799255Y18326455D01*
X16803319Y18324779D01*
X16812006Y18318683D01*
X16820946Y18314568D01*
X16830395Y18312028D01*
X16840200Y18311164D01*
X16850004Y18312028D01*
X16859453Y18314568D01*
X16868394Y18318683D01*
X16876420Y18324322D01*
X16883380Y18331281D01*
X16889018Y18339308D01*
X16893133Y18348248D01*
X16895673Y18357697D01*
X16896537Y18367502D01*
X16895673Y18377306D01*
X16893133Y18386755D01*
X16889018Y18395696D01*
X16883380Y18403722D01*
X16881805Y18405297D01*
X16879570Y18408599D01*
X16878808Y18412510D01*
X16878808Y18611291D01*
X16879570Y18615202D01*
X16881805Y18618504D01*
X16883380Y18620079D01*
X16889018Y18628106D01*
X16893133Y18637046D01*
X16895673Y18646495D01*
X16896537Y18656300D01*
X16895673Y18666104D01*
X16893133Y18675553D01*
X16889018Y18684494D01*
X16883380Y18692520D01*
X16876420Y18699480D01*
X16868394Y18705118D01*
X16859453Y18709233D01*
X16850004Y18711773D01*
X16840200Y18712637D01*
X16830395Y18711773D01*
X16820946Y18709233D01*
X16812006Y18705118D01*
X16803979Y18699480D01*
X16797020Y18692520D01*
X16791381Y18684494D01*
X16787266Y18675553D01*
X16784726Y18666104D01*
X16783862Y18656300D01*
X16784726Y18646495D01*
X16787266Y18637046D01*
X16791381Y18628106D01*
X16797020Y18620079D01*
X16798594Y18618504D01*
X16800830Y18615202D01*
X16801592Y18611291D01*
X16801592Y18593054D01*
X16800626Y18588736D01*
X16797985Y18585230D01*
X16794073Y18583198D01*
X16789654Y18583046D01*
X16785590Y18584722D01*
X16776903Y18590818D01*
X16768013Y18594933D01*
X16758513Y18597473D01*
X16748760Y18598337D01*
X16738955Y18597473D01*
X16729456Y18594933D01*
X16720566Y18590818D01*
X16712488Y18585180D01*
X16706392Y18579033D01*
X16703090Y18576848D01*
X16699230Y18576086D01*
X16695318Y18576848D01*
X16692016Y18579033D01*
X16685920Y18585180D01*
X16677894Y18590818D01*
X16668953Y18594933D01*
X16659504Y18597473D01*
X16649700Y18598337D01*
X16639895Y18597473D01*
X16630446Y18594933D01*
X16621506Y18590818D01*
X16613479Y18585180D01*
X16606519Y18578220D01*
X16600881Y18570194D01*
X16596766Y18561253D01*
X16594226Y18551804D01*
X16593362Y18542000D01*
X16594226Y18532195D01*
X16596766Y18522746D01*
X16600881Y18513806D01*
X16606519Y18505779D01*
X16608094Y18504204D01*
X16610330Y18500902D01*
X16611092Y18496991D01*
X16611092Y18488050D01*
X16610279Y18484088D01*
X16607993Y18480735D01*
X16604589Y18478550D01*
X16600576Y18477890D01*
X16596613Y18478855D01*
X16592753Y18480633D01*
X16583304Y18483173D01*
X16573500Y18484037D01*
X16563695Y18483173D01*
X16554246Y18480633D01*
X16545306Y18476518D01*
X16537279Y18470880D01*
X16530319Y18463920D01*
X16524681Y18455894D01*
X16520566Y18446953D01*
X16518026Y18437504D01*
X16517315Y18429478D01*
X16516400Y18426074D01*
X16514368Y18423178D01*
X16356076Y18264835D01*
X16350945Y18258637D01*
X16347389Y18251932D01*
X16345204Y18244718D01*
X16344392Y18236692D01*
X16344392Y18126506D01*
X16343630Y18122646D01*
X16341394Y18119344D01*
X16339819Y18117769D01*
X16334181Y18109692D01*
X16330066Y18100802D01*
X16327526Y18091302D01*
X16326662Y18081498D01*
X16327526Y18071744D01*
X16330066Y18062244D01*
X16334181Y18053354D01*
X16339819Y18045277D01*
X16346779Y18038368D01*
X16354806Y18032730D01*
X16363746Y18028564D01*
X16373195Y18026024D01*
G37*
G36*
X6283198Y19374662D02*
G01*
X6293002Y19375526D01*
X6302451Y19378066D01*
X6311392Y19382181D01*
X6319418Y19387820D01*
X6326378Y19394779D01*
X6332016Y19402806D01*
X6336131Y19411746D01*
X6338671Y19421195D01*
X6339535Y19431000D01*
X6338671Y19440804D01*
X6336131Y19450253D01*
X6332016Y19459194D01*
X6326378Y19467220D01*
X6324701Y19468846D01*
X6322517Y19472148D01*
X6321755Y19476059D01*
X6321094Y19925944D01*
X6321856Y19929856D01*
X6324092Y19933158D01*
X6325616Y19934682D01*
X6331254Y19942708D01*
X6335369Y19951649D01*
X6337909Y19961098D01*
X6338773Y19970902D01*
X6337909Y19980706D01*
X6335369Y19990155D01*
X6331254Y19999096D01*
X6325616Y20007122D01*
X6318656Y20014082D01*
X6310630Y20019721D01*
X6301689Y20023836D01*
X6292240Y20026376D01*
X6282436Y20027239D01*
X6272631Y20026376D01*
X6263182Y20023836D01*
X6254242Y20019721D01*
X6246215Y20014082D01*
X6239256Y20007122D01*
X6233617Y19999096D01*
X6229502Y19990155D01*
X6226962Y19980706D01*
X6226098Y19970902D01*
X6226962Y19961098D01*
X6229502Y19951649D01*
X6233617Y19942708D01*
X6239256Y19934682D01*
X6240932Y19933056D01*
X6243116Y19929754D01*
X6243878Y19925842D01*
X6244539Y19475958D01*
X6243777Y19472046D01*
X6241542Y19468744D01*
X6240018Y19467220D01*
X6234379Y19459194D01*
X6230264Y19450253D01*
X6227724Y19440804D01*
X6226860Y19431000D01*
X6227724Y19421195D01*
X6230264Y19411746D01*
X6234379Y19402806D01*
X6240018Y19394779D01*
X6246977Y19387820D01*
X6255004Y19382181D01*
X6263944Y19378066D01*
X6273393Y19375526D01*
G37*
G36*
X6375400Y18025160D02*
G01*
X6385204Y18026024D01*
X6394653Y18028564D01*
X6403594Y18032730D01*
X6411620Y18038368D01*
X6418580Y18045277D01*
X6424218Y18053354D01*
X6428333Y18062244D01*
X6430873Y18071744D01*
X6431737Y18081498D01*
X6430873Y18091302D01*
X6428333Y18100802D01*
X6424218Y18109692D01*
X6418580Y18117769D01*
X6417005Y18119344D01*
X6414770Y18122646D01*
X6414008Y18126506D01*
X6414008Y18870168D01*
X6414922Y18874333D01*
X6417411Y18877737D01*
X6421120Y18879870D01*
X6425336Y18880277D01*
X6429400Y18878905D01*
X6432499Y18876010D01*
X6433820Y18874079D01*
X6440779Y18867120D01*
X6448806Y18861481D01*
X6457746Y18857366D01*
X6467195Y18854826D01*
X6477000Y18853962D01*
X6486804Y18854826D01*
X6496253Y18857366D01*
X6505194Y18861481D01*
X6513220Y18867120D01*
X6520180Y18874079D01*
X6525818Y18882106D01*
X6529933Y18891046D01*
X6532473Y18900495D01*
X6533337Y18910300D01*
X6532473Y18920104D01*
X6529933Y18929553D01*
X6525818Y18938494D01*
X6520180Y18946520D01*
X6518605Y18948095D01*
X6516370Y18951397D01*
X6515607Y18955308D01*
X6515607Y19925893D01*
X6516370Y19929805D01*
X6518605Y19933107D01*
X6520180Y19934682D01*
X6525818Y19942708D01*
X6529933Y19951649D01*
X6532473Y19961098D01*
X6533337Y19970902D01*
X6532473Y19980706D01*
X6529933Y19990155D01*
X6525818Y19999096D01*
X6520180Y20007122D01*
X6513220Y20014082D01*
X6505194Y20019721D01*
X6496253Y20023836D01*
X6486804Y20026376D01*
X6477000Y20027239D01*
X6467195Y20026376D01*
X6457746Y20023836D01*
X6448806Y20019721D01*
X6440779Y20014082D01*
X6433820Y20007122D01*
X6428181Y19999096D01*
X6424066Y19990155D01*
X6421526Y19980706D01*
X6420662Y19970902D01*
X6421526Y19961098D01*
X6424066Y19951649D01*
X6428181Y19942708D01*
X6433820Y19934682D01*
X6435394Y19933107D01*
X6437630Y19929805D01*
X6438392Y19925893D01*
X6438392Y19293332D01*
X6437477Y19289166D01*
X6434988Y19285762D01*
X6431280Y19283629D01*
X6427063Y19283222D01*
X6422999Y19284594D01*
X6419900Y19287490D01*
X6418580Y19289420D01*
X6411620Y19296380D01*
X6403594Y19302018D01*
X6394653Y19306133D01*
X6385204Y19308673D01*
X6375400Y19309537D01*
X6365595Y19308673D01*
X6356146Y19306133D01*
X6347206Y19302018D01*
X6339179Y19296380D01*
X6332220Y19289420D01*
X6326581Y19281394D01*
X6322466Y19272453D01*
X6319926Y19263004D01*
X6319062Y19253200D01*
X6319926Y19243395D01*
X6322466Y19233946D01*
X6326581Y19225006D01*
X6332220Y19216979D01*
X6333794Y19215404D01*
X6336030Y19212102D01*
X6336792Y19208191D01*
X6336792Y18126506D01*
X6336030Y18122646D01*
X6333794Y18119344D01*
X6332220Y18117769D01*
X6326581Y18109692D01*
X6322466Y18100802D01*
X6319926Y18091302D01*
X6319062Y18081498D01*
X6319926Y18071744D01*
X6322466Y18062244D01*
X6326581Y18053354D01*
X6332220Y18045277D01*
X6339179Y18038368D01*
X6347206Y18032730D01*
X6356146Y18028564D01*
X6365595Y18026024D01*
G37*
G36*
X15189200Y18612662D02*
G01*
X15199004Y18613526D01*
X15208453Y18616066D01*
X15217394Y18620181D01*
X15225420Y18625820D01*
X15232380Y18632779D01*
X15238018Y18640806D01*
X15242133Y18649746D01*
X15244673Y18659195D01*
X15245537Y18669000D01*
X15244673Y18678804D01*
X15242133Y18688253D01*
X15238018Y18697194D01*
X15232380Y18705220D01*
X15230805Y18706795D01*
X15228569Y18710097D01*
X15227807Y18714008D01*
X15227807Y18922492D01*
X15226995Y18930518D01*
X15224810Y18937732D01*
X15221254Y18944437D01*
X15216124Y18950635D01*
X15172131Y18994678D01*
X15170099Y18997574D01*
X15169184Y19000978D01*
X15168473Y19009004D01*
X15165933Y19018453D01*
X15161818Y19027394D01*
X15156180Y19035420D01*
X15149220Y19042380D01*
X15141194Y19048018D01*
X15132253Y19052133D01*
X15122804Y19054673D01*
X15113000Y19055537D01*
X15103195Y19054673D01*
X15093746Y19052133D01*
X15084806Y19048018D01*
X15076779Y19042380D01*
X15069819Y19035420D01*
X15064181Y19027394D01*
X15060066Y19018453D01*
X15057526Y19009004D01*
X15056662Y18999200D01*
X15057526Y18989395D01*
X15060066Y18979946D01*
X15064181Y18971006D01*
X15069819Y18962979D01*
X15076779Y18956020D01*
X15084806Y18950381D01*
X15093746Y18946266D01*
X15103195Y18943726D01*
X15111222Y18943015D01*
X15114625Y18942100D01*
X15117521Y18940068D01*
X15147594Y18909995D01*
X15149830Y18906693D01*
X15150592Y18902781D01*
X15150592Y18714008D01*
X15149830Y18710097D01*
X15147594Y18706795D01*
X15146019Y18705220D01*
X15140381Y18697194D01*
X15136266Y18688253D01*
X15133726Y18678804D01*
X15132862Y18669000D01*
X15133726Y18659195D01*
X15136266Y18649746D01*
X15140381Y18640806D01*
X15146019Y18632779D01*
X15152979Y18625820D01*
X15161006Y18620181D01*
X15169946Y18616066D01*
X15179395Y18613526D01*
G37*
G36*
X22809200Y18612662D02*
G01*
X22819004Y18613526D01*
X22828453Y18616066D01*
X22837394Y18620181D01*
X22845420Y18625820D01*
X22852380Y18632779D01*
X22858018Y18640806D01*
X22862133Y18649746D01*
X22864673Y18659195D01*
X22865537Y18669000D01*
X22864673Y18678804D01*
X22862133Y18688253D01*
X22858018Y18697194D01*
X22852380Y18705220D01*
X22850805Y18706795D01*
X22848570Y18710097D01*
X22847808Y18714008D01*
X22847808Y18922492D01*
X22846995Y18930518D01*
X22844810Y18937732D01*
X22841254Y18944437D01*
X22836124Y18950635D01*
X22792131Y18994678D01*
X22790099Y18997574D01*
X22789184Y19000978D01*
X22788473Y19009004D01*
X22785933Y19018453D01*
X22781818Y19027394D01*
X22776180Y19035420D01*
X22769220Y19042380D01*
X22761194Y19048018D01*
X22752253Y19052133D01*
X22742804Y19054673D01*
X22733000Y19055537D01*
X22723195Y19054673D01*
X22713746Y19052133D01*
X22704806Y19048018D01*
X22696779Y19042380D01*
X22689820Y19035420D01*
X22684181Y19027394D01*
X22680066Y19018453D01*
X22677526Y19009004D01*
X22676662Y18999200D01*
X22677526Y18989395D01*
X22680066Y18979946D01*
X22684181Y18971006D01*
X22689820Y18962979D01*
X22696779Y18956020D01*
X22704806Y18950381D01*
X22713746Y18946266D01*
X22723195Y18943726D01*
X22731222Y18943015D01*
X22734625Y18942100D01*
X22737521Y18940068D01*
X22767594Y18909995D01*
X22769830Y18906693D01*
X22770592Y18902781D01*
X22770592Y18714008D01*
X22769830Y18710097D01*
X22767594Y18706795D01*
X22766020Y18705220D01*
X22760381Y18697194D01*
X22756266Y18688253D01*
X22753726Y18678804D01*
X22752862Y18669000D01*
X22753726Y18659195D01*
X22756266Y18649746D01*
X22760381Y18640806D01*
X22766020Y18632779D01*
X22772979Y18625820D01*
X22781006Y18620181D01*
X22789946Y18616066D01*
X22799395Y18613526D01*
G37*
G36*
X11379200Y18612662D02*
G01*
X11389004Y18613526D01*
X11398453Y18616066D01*
X11407394Y18620181D01*
X11415420Y18625820D01*
X11422380Y18632779D01*
X11428018Y18640806D01*
X11432133Y18649746D01*
X11434673Y18659195D01*
X11435537Y18669000D01*
X11434673Y18678804D01*
X11432133Y18688253D01*
X11428018Y18697194D01*
X11422380Y18705220D01*
X11420805Y18706795D01*
X11418570Y18710097D01*
X11417808Y18714008D01*
X11417808Y18922492D01*
X11416995Y18930518D01*
X11414810Y18937732D01*
X11411254Y18944437D01*
X11406124Y18950635D01*
X11362131Y18994678D01*
X11360099Y18997574D01*
X11359184Y19000978D01*
X11358473Y19009004D01*
X11355933Y19018453D01*
X11351818Y19027394D01*
X11346180Y19035420D01*
X11339220Y19042380D01*
X11331194Y19048018D01*
X11322253Y19052133D01*
X11312804Y19054673D01*
X11303000Y19055537D01*
X11293195Y19054673D01*
X11283746Y19052133D01*
X11274806Y19048018D01*
X11266779Y19042380D01*
X11259820Y19035420D01*
X11254181Y19027394D01*
X11250066Y19018453D01*
X11247526Y19009004D01*
X11246662Y18999200D01*
X11247526Y18989395D01*
X11250066Y18979946D01*
X11254181Y18971006D01*
X11259820Y18962979D01*
X11266779Y18956020D01*
X11274806Y18950381D01*
X11283746Y18946266D01*
X11293195Y18943726D01*
X11301222Y18943015D01*
X11304625Y18942100D01*
X11307521Y18940068D01*
X11337594Y18909995D01*
X11339830Y18906693D01*
X11340592Y18902781D01*
X11340592Y18714008D01*
X11339830Y18710097D01*
X11337594Y18706795D01*
X11336020Y18705220D01*
X11330381Y18697194D01*
X11326266Y18688253D01*
X11323726Y18678804D01*
X11322862Y18669000D01*
X11323726Y18659195D01*
X11326266Y18649746D01*
X11330381Y18640806D01*
X11336020Y18632779D01*
X11342979Y18625820D01*
X11351006Y18620181D01*
X11359946Y18616066D01*
X11369395Y18613526D01*
G37*
G36*
X18745200Y18612662D02*
G01*
X18755004Y18613526D01*
X18764453Y18616066D01*
X18773394Y18620181D01*
X18781420Y18625820D01*
X18788380Y18632779D01*
X18794018Y18640806D01*
X18798133Y18649746D01*
X18800673Y18659195D01*
X18801537Y18669000D01*
X18800673Y18678804D01*
X18798133Y18688253D01*
X18794018Y18697194D01*
X18788380Y18705220D01*
X18786805Y18706795D01*
X18784570Y18710097D01*
X18783808Y18714008D01*
X18783808Y18922492D01*
X18782995Y18930518D01*
X18780810Y18937732D01*
X18777254Y18944437D01*
X18772124Y18950635D01*
X18728131Y18994678D01*
X18726099Y18997574D01*
X18725184Y19000978D01*
X18724473Y19009004D01*
X18721933Y19018453D01*
X18717818Y19027394D01*
X18712180Y19035420D01*
X18705220Y19042380D01*
X18697194Y19048018D01*
X18688253Y19052133D01*
X18678804Y19054673D01*
X18669000Y19055537D01*
X18659195Y19054673D01*
X18649746Y19052133D01*
X18640806Y19048018D01*
X18632779Y19042380D01*
X18625820Y19035420D01*
X18620181Y19027394D01*
X18616066Y19018453D01*
X18613526Y19009004D01*
X18612662Y18999200D01*
X18613526Y18989395D01*
X18616066Y18979946D01*
X18620181Y18971006D01*
X18625820Y18962979D01*
X18632779Y18956020D01*
X18640806Y18950381D01*
X18649746Y18946266D01*
X18659195Y18943726D01*
X18667222Y18943015D01*
X18670625Y18942100D01*
X18673521Y18940068D01*
X18703594Y18909995D01*
X18705830Y18906693D01*
X18706592Y18902781D01*
X18706592Y18714008D01*
X18705830Y18710097D01*
X18703594Y18706795D01*
X18702020Y18705220D01*
X18696381Y18697194D01*
X18692266Y18688253D01*
X18689726Y18678804D01*
X18688862Y18669000D01*
X18689726Y18659195D01*
X18692266Y18649746D01*
X18696381Y18640806D01*
X18702020Y18632779D01*
X18708979Y18625820D01*
X18717006Y18620181D01*
X18725946Y18616066D01*
X18735395Y18613526D01*
G37*
G36*
X25527000Y18025160D02*
G01*
X25536804Y18026024D01*
X25546253Y18028564D01*
X25555194Y18032730D01*
X25563220Y18038368D01*
X25570180Y18045277D01*
X25575818Y18053354D01*
X25579933Y18062244D01*
X25582473Y18071744D01*
X25583337Y18081498D01*
X25582473Y18091302D01*
X25579933Y18100802D01*
X25575818Y18109692D01*
X25570180Y18117769D01*
X25568605Y18119344D01*
X25566370Y18122646D01*
X25565608Y18126506D01*
X25565608Y18216981D01*
X25566370Y18220893D01*
X25568605Y18224195D01*
X25712978Y18368568D01*
X25715874Y18370600D01*
X25719278Y18371515D01*
X25727304Y18372226D01*
X25736753Y18374766D01*
X25740614Y18376544D01*
X25744576Y18377509D01*
X25748589Y18376849D01*
X25751993Y18374664D01*
X25754279Y18371312D01*
X25755092Y18367349D01*
X25755092Y18285510D01*
X25754330Y18281599D01*
X25752094Y18278297D01*
X25750520Y18276722D01*
X25744881Y18268696D01*
X25740766Y18259755D01*
X25738226Y18250306D01*
X25737362Y18240502D01*
X25738226Y18230697D01*
X25740766Y18221248D01*
X25744881Y18212308D01*
X25750520Y18204281D01*
X25757479Y18197322D01*
X25765506Y18191683D01*
X25774446Y18187568D01*
X25783895Y18185028D01*
X25793700Y18184164D01*
X25803504Y18185028D01*
X25812953Y18187568D01*
X25821894Y18191683D01*
X25829920Y18197322D01*
X25836880Y18204281D01*
X25842518Y18212308D01*
X25846633Y18221248D01*
X25849173Y18230697D01*
X25850037Y18240502D01*
X25849173Y18250306D01*
X25846633Y18259755D01*
X25842518Y18268696D01*
X25836880Y18276722D01*
X25835305Y18278297D01*
X25833070Y18281599D01*
X25832308Y18285510D01*
X25832308Y18484291D01*
X25833070Y18488202D01*
X25835305Y18491504D01*
X25836880Y18493079D01*
X25840385Y18498108D01*
X25843636Y18501106D01*
X25847852Y18502426D01*
X25852170Y18501817D01*
X25864566Y18493181D01*
X25873506Y18489066D01*
X25882955Y18486526D01*
X25892760Y18485662D01*
X25902564Y18486526D01*
X25912013Y18489066D01*
X25920954Y18493181D01*
X25929590Y18499277D01*
X25933654Y18500953D01*
X25938073Y18500750D01*
X25941985Y18498718D01*
X25944626Y18495264D01*
X25945592Y18490946D01*
X25945592Y18486018D01*
X25944830Y18482106D01*
X25942594Y18478804D01*
X25919176Y18455335D01*
X25914045Y18449137D01*
X25910489Y18442432D01*
X25908304Y18435218D01*
X25907492Y18427192D01*
X25907492Y18307608D01*
X25906730Y18303697D01*
X25904494Y18300395D01*
X25902920Y18298820D01*
X25897281Y18290794D01*
X25893166Y18281853D01*
X25890626Y18272404D01*
X25889762Y18262600D01*
X25890626Y18252795D01*
X25893166Y18243346D01*
X25897281Y18234406D01*
X25902920Y18226379D01*
X25909879Y18219420D01*
X25917906Y18213781D01*
X25926846Y18209666D01*
X25936295Y18207126D01*
X25946100Y18206262D01*
X25955904Y18207126D01*
X25965353Y18209666D01*
X25974294Y18213781D01*
X25982320Y18219420D01*
X25989280Y18226379D01*
X25994918Y18234406D01*
X25999033Y18243346D01*
X26001573Y18252795D01*
X26002437Y18262600D01*
X26001573Y18272404D01*
X25999033Y18281853D01*
X25994918Y18290794D01*
X25989280Y18298820D01*
X25987705Y18300395D01*
X25985470Y18303697D01*
X25984708Y18307608D01*
X25984708Y18407481D01*
X25985470Y18411393D01*
X25987705Y18414695D01*
X26011124Y18438164D01*
X26016254Y18444362D01*
X26019810Y18451068D01*
X26021995Y18458281D01*
X26022808Y18466308D01*
X26022808Y18611291D01*
X26023570Y18615202D01*
X26025805Y18618504D01*
X26027380Y18620079D01*
X26033018Y18628106D01*
X26037133Y18637046D01*
X26039673Y18646495D01*
X26040537Y18656300D01*
X26039673Y18666104D01*
X26037133Y18675553D01*
X26033018Y18684494D01*
X26027380Y18692520D01*
X26020420Y18699480D01*
X26012393Y18705118D01*
X26003453Y18709233D01*
X25994004Y18711773D01*
X25984200Y18712637D01*
X25974395Y18711773D01*
X25964946Y18709233D01*
X25956006Y18705118D01*
X25947370Y18699022D01*
X25943306Y18697346D01*
X25938886Y18697549D01*
X25934974Y18699581D01*
X25932333Y18703036D01*
X25931368Y18707354D01*
X25931368Y19925893D01*
X25932130Y19929805D01*
X25934365Y19933107D01*
X25935940Y19934682D01*
X25941578Y19942708D01*
X25945693Y19951649D01*
X25948233Y19961098D01*
X25949097Y19970902D01*
X25948233Y19980706D01*
X25945693Y19990155D01*
X25941578Y19999096D01*
X25935940Y20007122D01*
X25928980Y20014082D01*
X25920954Y20019721D01*
X25912013Y20023836D01*
X25902564Y20026376D01*
X25892760Y20027239D01*
X25882955Y20026376D01*
X25873506Y20023836D01*
X25864566Y20019721D01*
X25856539Y20014082D01*
X25849580Y20007122D01*
X25843941Y19999096D01*
X25839826Y19990155D01*
X25837286Y19980706D01*
X25836422Y19970902D01*
X25837286Y19961098D01*
X25839826Y19951649D01*
X25843941Y19942708D01*
X25849580Y19934682D01*
X25851154Y19933107D01*
X25853390Y19929805D01*
X25854152Y19925893D01*
X25854152Y18587008D01*
X25853390Y18583097D01*
X25851154Y18579795D01*
X25849580Y18578220D01*
X25846074Y18573191D01*
X25842823Y18570194D01*
X25838607Y18568873D01*
X25834289Y18569482D01*
X25821894Y18578118D01*
X25812953Y18582233D01*
X25803504Y18584773D01*
X25793700Y18585637D01*
X25783895Y18584773D01*
X25774446Y18582233D01*
X25765506Y18578118D01*
X25757479Y18572480D01*
X25750520Y18565520D01*
X25744881Y18557494D01*
X25740766Y18548553D01*
X25738226Y18539104D01*
X25737362Y18529300D01*
X25738226Y18519495D01*
X25740766Y18510046D01*
X25744881Y18501106D01*
X25748437Y18496127D01*
X25750062Y18492317D01*
X25750062Y18488202D01*
X25748437Y18484443D01*
X25745440Y18481649D01*
X25741579Y18480227D01*
X25737464Y18480481D01*
X25727304Y18483173D01*
X25717500Y18484037D01*
X25707695Y18483173D01*
X25698246Y18480633D01*
X25689306Y18476518D01*
X25681279Y18470880D01*
X25674320Y18463920D01*
X25668681Y18455894D01*
X25664566Y18446953D01*
X25662026Y18437504D01*
X25661315Y18429478D01*
X25660400Y18426074D01*
X25658368Y18423178D01*
X25500076Y18264835D01*
X25494945Y18258637D01*
X25491389Y18251932D01*
X25489204Y18244718D01*
X25488392Y18236692D01*
X25488392Y18126506D01*
X25487630Y18122646D01*
X25485394Y18119344D01*
X25483820Y18117769D01*
X25478181Y18109692D01*
X25474066Y18100802D01*
X25471526Y18091302D01*
X25470662Y18081498D01*
X25471526Y18071744D01*
X25474066Y18062244D01*
X25478181Y18053354D01*
X25483820Y18045277D01*
X25490779Y18038368D01*
X25498806Y18032730D01*
X25507746Y18028564D01*
X25517195Y18026024D01*
G37*
G36*
X5791200Y18612662D02*
G01*
X5801004Y18613526D01*
X5810453Y18616066D01*
X5819394Y18620181D01*
X5827420Y18625820D01*
X5834380Y18632779D01*
X5840018Y18640806D01*
X5844133Y18649746D01*
X5846673Y18659195D01*
X5847537Y18669000D01*
X5846673Y18678804D01*
X5844133Y18688253D01*
X5840018Y18697194D01*
X5834380Y18705220D01*
X5832805Y18706795D01*
X5830570Y18710097D01*
X5829808Y18714008D01*
X5829808Y18954191D01*
X5830570Y18958102D01*
X5832805Y18961404D01*
X5834380Y18962979D01*
X5840018Y18971006D01*
X5844133Y18979946D01*
X5846673Y18989395D01*
X5847537Y18999200D01*
X5846673Y19009004D01*
X5844133Y19018453D01*
X5840018Y19027394D01*
X5834380Y19035420D01*
X5827420Y19042380D01*
X5819394Y19048018D01*
X5810453Y19052133D01*
X5801004Y19054673D01*
X5791200Y19055537D01*
X5781395Y19054673D01*
X5771946Y19052133D01*
X5763006Y19048018D01*
X5754979Y19042380D01*
X5748020Y19035420D01*
X5742381Y19027394D01*
X5738266Y19018453D01*
X5735726Y19009004D01*
X5734862Y18999200D01*
X5735726Y18989395D01*
X5738266Y18979946D01*
X5742381Y18971006D01*
X5748020Y18962979D01*
X5749594Y18961404D01*
X5751830Y18958102D01*
X5752592Y18954191D01*
X5752592Y18714008D01*
X5751830Y18710097D01*
X5749594Y18706795D01*
X5748020Y18705220D01*
X5742381Y18697194D01*
X5738266Y18688253D01*
X5735726Y18678804D01*
X5734862Y18669000D01*
X5735726Y18659195D01*
X5738266Y18649746D01*
X5742381Y18640806D01*
X5748020Y18632779D01*
X5754979Y18625820D01*
X5763006Y18620181D01*
X5771946Y18616066D01*
X5781395Y18613526D01*
G37*
G36*
X8001000Y18533160D02*
G01*
X8010804Y18534024D01*
X8020253Y18536564D01*
X8029194Y18540730D01*
X8037220Y18546368D01*
X8044180Y18553277D01*
X8049818Y18561354D01*
X8053933Y18570244D01*
X8056473Y18579744D01*
X8057337Y18589498D01*
X8056473Y18599302D01*
X8053933Y18608802D01*
X8049818Y18617692D01*
X8044180Y18625769D01*
X8042605Y18627344D01*
X8040370Y18630646D01*
X8039608Y18634506D01*
X8039608Y18954191D01*
X8040370Y18958102D01*
X8042605Y18961404D01*
X8044180Y18962979D01*
X8049818Y18971006D01*
X8053933Y18979946D01*
X8056473Y18989395D01*
X8057337Y18999200D01*
X8056473Y19009004D01*
X8053933Y19018453D01*
X8049818Y19027394D01*
X8044180Y19035420D01*
X8037220Y19042380D01*
X8029194Y19048018D01*
X8020253Y19052133D01*
X8010804Y19054673D01*
X8001000Y19055537D01*
X7991195Y19054673D01*
X7981746Y19052133D01*
X7972806Y19048018D01*
X7964779Y19042380D01*
X7957820Y19035420D01*
X7952181Y19027394D01*
X7948066Y19018453D01*
X7945526Y19009004D01*
X7944662Y18999200D01*
X7945526Y18989395D01*
X7948066Y18979946D01*
X7952181Y18971006D01*
X7957820Y18962979D01*
X7959394Y18961404D01*
X7961630Y18958102D01*
X7962392Y18954191D01*
X7962392Y18634506D01*
X7961630Y18630646D01*
X7959394Y18627344D01*
X7957820Y18625769D01*
X7952181Y18617692D01*
X7948066Y18608802D01*
X7945526Y18599302D01*
X7944662Y18589498D01*
X7945526Y18579744D01*
X7948066Y18570244D01*
X7952181Y18561354D01*
X7957820Y18553277D01*
X7964779Y18546368D01*
X7972806Y18540730D01*
X7981746Y18536564D01*
X7991195Y18534024D01*
G37*
G36*
X4191000Y18533160D02*
G01*
X4200804Y18534024D01*
X4210253Y18536564D01*
X4219194Y18540730D01*
X4227220Y18546368D01*
X4234180Y18553277D01*
X4239818Y18561354D01*
X4243933Y18570244D01*
X4246473Y18579744D01*
X4247337Y18589498D01*
X4246473Y18599302D01*
X4243933Y18608802D01*
X4239818Y18617692D01*
X4234180Y18625769D01*
X4232605Y18627344D01*
X4230370Y18630646D01*
X4229608Y18634506D01*
X4229608Y18954191D01*
X4230370Y18958102D01*
X4232605Y18961404D01*
X4234180Y18962979D01*
X4239818Y18971006D01*
X4243933Y18979946D01*
X4246473Y18989395D01*
X4247337Y18999200D01*
X4246473Y19009004D01*
X4243933Y19018453D01*
X4239818Y19027394D01*
X4234180Y19035420D01*
X4227220Y19042380D01*
X4219194Y19048018D01*
X4210253Y19052133D01*
X4200804Y19054673D01*
X4191000Y19055537D01*
X4181195Y19054673D01*
X4171746Y19052133D01*
X4162806Y19048018D01*
X4154779Y19042380D01*
X4147820Y19035420D01*
X4142181Y19027394D01*
X4138066Y19018453D01*
X4135526Y19009004D01*
X4134662Y18999200D01*
X4135526Y18989395D01*
X4138066Y18979946D01*
X4142181Y18971006D01*
X4147820Y18962979D01*
X4149394Y18961404D01*
X4151629Y18958102D01*
X4152392Y18954191D01*
X4152392Y18634506D01*
X4151629Y18630646D01*
X4149394Y18627344D01*
X4147820Y18625769D01*
X4142181Y18617692D01*
X4138066Y18608802D01*
X4135526Y18599302D01*
X4134662Y18589498D01*
X4135526Y18579744D01*
X4138066Y18570244D01*
X4142181Y18561354D01*
X4147820Y18553277D01*
X4154779Y18546368D01*
X4162806Y18540730D01*
X4171746Y18536564D01*
X4181195Y18534024D01*
G37*
G36*
X2667000Y18533160D02*
G01*
X2676804Y18534024D01*
X2686253Y18536564D01*
X2695194Y18540730D01*
X2703220Y18546368D01*
X2710180Y18553277D01*
X2715818Y18561354D01*
X2719933Y18570244D01*
X2722473Y18579744D01*
X2723337Y18589498D01*
X2722473Y18599302D01*
X2719933Y18608802D01*
X2715818Y18617692D01*
X2710180Y18625769D01*
X2708605Y18627344D01*
X2706370Y18630646D01*
X2705608Y18634506D01*
X2705608Y18954191D01*
X2706370Y18958102D01*
X2708605Y18961404D01*
X2710180Y18962979D01*
X2715818Y18971006D01*
X2719933Y18979946D01*
X2722473Y18989395D01*
X2723337Y18999200D01*
X2722473Y19009004D01*
X2719933Y19018453D01*
X2715818Y19027394D01*
X2710180Y19035420D01*
X2703220Y19042380D01*
X2695194Y19048018D01*
X2686253Y19052133D01*
X2676804Y19054673D01*
X2667000Y19055537D01*
X2657195Y19054673D01*
X2647746Y19052133D01*
X2638806Y19048018D01*
X2630779Y19042380D01*
X2623820Y19035420D01*
X2618181Y19027394D01*
X2614066Y19018453D01*
X2611526Y19009004D01*
X2610662Y18999200D01*
X2611526Y18989395D01*
X2614066Y18979946D01*
X2618181Y18971006D01*
X2623820Y18962979D01*
X2625394Y18961404D01*
X2627630Y18958102D01*
X2628392Y18954191D01*
X2628392Y18634506D01*
X2627630Y18630646D01*
X2625394Y18627344D01*
X2623820Y18625769D01*
X2618181Y18617692D01*
X2614066Y18608802D01*
X2611526Y18599302D01*
X2610662Y18589498D01*
X2611526Y18579744D01*
X2614066Y18570244D01*
X2618181Y18561354D01*
X2623820Y18553277D01*
X2630779Y18546368D01*
X2638806Y18540730D01*
X2647746Y18536564D01*
X2657195Y18534024D01*
G37*
G36*
X9537700Y18533160D02*
G01*
X9547504Y18534024D01*
X9556953Y18536564D01*
X9565894Y18540730D01*
X9573920Y18546368D01*
X9580880Y18553277D01*
X9586518Y18561354D01*
X9590633Y18570244D01*
X9593173Y18579744D01*
X9594037Y18589498D01*
X9593173Y18599302D01*
X9590633Y18608802D01*
X9586518Y18617692D01*
X9580880Y18625769D01*
X9579305Y18627344D01*
X9577070Y18630646D01*
X9576308Y18634506D01*
X9576308Y18954191D01*
X9577070Y18958102D01*
X9579305Y18961404D01*
X9580880Y18962979D01*
X9586518Y18971006D01*
X9590633Y18979946D01*
X9593173Y18989395D01*
X9594037Y18999200D01*
X9593173Y19009004D01*
X9590633Y19018453D01*
X9586518Y19027394D01*
X9580880Y19035420D01*
X9573920Y19042380D01*
X9565894Y19048018D01*
X9556953Y19052133D01*
X9547504Y19054673D01*
X9537700Y19055537D01*
X9527895Y19054673D01*
X9518446Y19052133D01*
X9509506Y19048018D01*
X9501479Y19042380D01*
X9494520Y19035420D01*
X9488881Y19027394D01*
X9484766Y19018453D01*
X9482226Y19009004D01*
X9481362Y18999200D01*
X9482226Y18989395D01*
X9484766Y18979946D01*
X9488881Y18971006D01*
X9494520Y18962979D01*
X9496094Y18961404D01*
X9498330Y18958102D01*
X9499092Y18954191D01*
X9499092Y18634506D01*
X9498330Y18630646D01*
X9496094Y18627344D01*
X9494520Y18625769D01*
X9488881Y18617692D01*
X9484766Y18608802D01*
X9482226Y18599302D01*
X9481362Y18589498D01*
X9482226Y18579744D01*
X9484766Y18570244D01*
X9488881Y18561354D01*
X9494520Y18553277D01*
X9501479Y18546368D01*
X9509506Y18540730D01*
X9518446Y18536564D01*
X9527895Y18534024D01*
G37*
G36*
X19022161Y18438164D02*
G01*
X19031966Y18439028D01*
X19041414Y18441568D01*
X19050355Y18445683D01*
X19058382Y18451322D01*
X19059956Y18452896D01*
X19063258Y18455132D01*
X19067170Y18455894D01*
X19795693Y18455894D01*
X19799604Y18455132D01*
X19802906Y18452896D01*
X19804481Y18451322D01*
X19812508Y18445683D01*
X19821448Y18441568D01*
X19830897Y18439028D01*
X19840702Y18438164D01*
X19850506Y18439028D01*
X19859955Y18441568D01*
X19868896Y18445683D01*
X19876922Y18451322D01*
X19883882Y18458281D01*
X19889520Y18466308D01*
X19893635Y18475248D01*
X19896175Y18484697D01*
X19897039Y18494502D01*
X19896175Y18504306D01*
X19893635Y18513755D01*
X19889520Y18522696D01*
X19883882Y18530722D01*
X19876922Y18537682D01*
X19868896Y18543320D01*
X19859955Y18547435D01*
X19850506Y18549975D01*
X19840702Y18550839D01*
X19830897Y18549975D01*
X19821448Y18547435D01*
X19812508Y18543320D01*
X19804481Y18537682D01*
X19802906Y18536107D01*
X19799604Y18533872D01*
X19795693Y18533110D01*
X19067170Y18533110D01*
X19063258Y18533872D01*
X19059956Y18536107D01*
X19058382Y18537682D01*
X19050355Y18543320D01*
X19041414Y18547435D01*
X19031966Y18549975D01*
X19022161Y18550839D01*
X19012357Y18549975D01*
X19002908Y18547435D01*
X18993967Y18543320D01*
X18985941Y18537682D01*
X18978981Y18530722D01*
X18973342Y18522696D01*
X18969228Y18513755D01*
X18966688Y18504306D01*
X18965824Y18494502D01*
X18966688Y18484697D01*
X18969228Y18475248D01*
X18973342Y18466308D01*
X18978981Y18458281D01*
X18985941Y18451322D01*
X18993967Y18445683D01*
X19002908Y18441568D01*
X19012357Y18439028D01*
G37*
G36*
X15467888Y18438164D02*
G01*
X15477642Y18439028D01*
X15487142Y18441568D01*
X15496032Y18445683D01*
X15504109Y18451322D01*
X15505684Y18452896D01*
X15508986Y18455132D01*
X15512846Y18455894D01*
X16226993Y18455894D01*
X16230904Y18455132D01*
X16234206Y18452896D01*
X16235781Y18451322D01*
X16243807Y18445683D01*
X16252748Y18441568D01*
X16262197Y18439028D01*
X16272001Y18438164D01*
X16281806Y18439028D01*
X16291255Y18441568D01*
X16300196Y18445683D01*
X16308222Y18451322D01*
X16315182Y18458281D01*
X16320820Y18466308D01*
X16324935Y18475248D01*
X16327475Y18484697D01*
X16328339Y18494502D01*
X16327475Y18504306D01*
X16324935Y18513755D01*
X16320820Y18522696D01*
X16315182Y18530722D01*
X16308222Y18537682D01*
X16300196Y18543320D01*
X16291255Y18547435D01*
X16281806Y18549975D01*
X16272001Y18550839D01*
X16262197Y18549975D01*
X16252748Y18547435D01*
X16243807Y18543320D01*
X16235781Y18537682D01*
X16234206Y18536107D01*
X16230904Y18533872D01*
X16226993Y18533110D01*
X15512846Y18533110D01*
X15508986Y18533872D01*
X15505684Y18536107D01*
X15504109Y18537682D01*
X15496032Y18543320D01*
X15487142Y18547435D01*
X15477642Y18549975D01*
X15467888Y18550839D01*
X15458084Y18549975D01*
X15448584Y18547435D01*
X15439694Y18543320D01*
X15431617Y18537682D01*
X15424708Y18530722D01*
X15419069Y18522696D01*
X15414904Y18513755D01*
X15412364Y18504306D01*
X15411500Y18494502D01*
X15412364Y18484697D01*
X15414904Y18475248D01*
X15419069Y18466308D01*
X15424708Y18458281D01*
X15431617Y18451322D01*
X15439694Y18445683D01*
X15448584Y18441568D01*
X15458084Y18439028D01*
G37*
G36*
X11657888Y18438164D02*
G01*
X11667693Y18439028D01*
X11677142Y18441568D01*
X11686082Y18445683D01*
X11694109Y18451322D01*
X11695684Y18452896D01*
X11698986Y18455132D01*
X11702897Y18455894D01*
X12416993Y18455894D01*
X12420904Y18455132D01*
X12424206Y18452896D01*
X12425781Y18451322D01*
X12433808Y18445683D01*
X12442748Y18441568D01*
X12452197Y18439028D01*
X12462002Y18438164D01*
X12471806Y18439028D01*
X12481255Y18441568D01*
X12490196Y18445683D01*
X12498222Y18451322D01*
X12505182Y18458281D01*
X12510820Y18466308D01*
X12514935Y18475248D01*
X12517475Y18484697D01*
X12518339Y18494502D01*
X12517475Y18504306D01*
X12514935Y18513755D01*
X12510820Y18522696D01*
X12505182Y18530722D01*
X12498222Y18537682D01*
X12490196Y18543320D01*
X12481255Y18547435D01*
X12471806Y18549975D01*
X12462002Y18550839D01*
X12452197Y18549975D01*
X12442748Y18547435D01*
X12433808Y18543320D01*
X12425781Y18537682D01*
X12424206Y18536107D01*
X12420904Y18533872D01*
X12416993Y18533110D01*
X11702897Y18533110D01*
X11698986Y18533872D01*
X11695684Y18536107D01*
X11694109Y18537682D01*
X11686082Y18543320D01*
X11677142Y18547435D01*
X11667693Y18549975D01*
X11657888Y18550839D01*
X11648084Y18549975D01*
X11638635Y18547435D01*
X11629694Y18543320D01*
X11621668Y18537682D01*
X11614708Y18530722D01*
X11609070Y18522696D01*
X11604955Y18513755D01*
X11602415Y18504306D01*
X11601551Y18494502D01*
X11602415Y18484697D01*
X11604955Y18475248D01*
X11609070Y18466308D01*
X11614708Y18458281D01*
X11621668Y18451322D01*
X11629694Y18445683D01*
X11638635Y18441568D01*
X11648084Y18439028D01*
G37*
G36*
X3937000Y18438164D02*
G01*
X3946804Y18439028D01*
X3956253Y18441568D01*
X3965194Y18445683D01*
X3973220Y18451322D01*
X3980179Y18458281D01*
X3985818Y18466308D01*
X3989933Y18475248D01*
X3992473Y18484697D01*
X3993337Y18494502D01*
X3992473Y18504306D01*
X3989933Y18513755D01*
X3985818Y18522696D01*
X3980179Y18530722D01*
X3978605Y18532297D01*
X3976370Y18535599D01*
X3975608Y18539510D01*
X3975608Y19052540D01*
X3976370Y19056400D01*
X3978605Y19059702D01*
X3980179Y19061277D01*
X3985818Y19069354D01*
X3989933Y19078244D01*
X3992473Y19087744D01*
X3993337Y19097498D01*
X3992473Y19107302D01*
X3989933Y19116802D01*
X3985818Y19125692D01*
X3980179Y19133769D01*
X3973220Y19140678D01*
X3965194Y19146316D01*
X3956253Y19150482D01*
X3946804Y19153022D01*
X3937000Y19153886D01*
X3927195Y19153022D01*
X3917746Y19150482D01*
X3908806Y19146316D01*
X3900779Y19140678D01*
X3893820Y19133769D01*
X3888181Y19125692D01*
X3884066Y19116802D01*
X3881526Y19107302D01*
X3880662Y19097498D01*
X3881526Y19087744D01*
X3884066Y19078244D01*
X3888181Y19069354D01*
X3893820Y19061277D01*
X3895394Y19059702D01*
X3897629Y19056400D01*
X3898392Y19052540D01*
X3898392Y18539510D01*
X3897629Y18535599D01*
X3895394Y18532297D01*
X3893820Y18530722D01*
X3888181Y18522696D01*
X3884066Y18513755D01*
X3881526Y18504306D01*
X3880662Y18494502D01*
X3881526Y18484697D01*
X3884066Y18475248D01*
X3888181Y18466308D01*
X3893820Y18458281D01*
X3900779Y18451322D01*
X3908806Y18445683D01*
X3917746Y18441568D01*
X3927195Y18439028D01*
G37*
G36*
X1028700Y15218562D02*
G01*
X1033322Y15218663D01*
X1056284Y15221051D01*
X1078992Y15225369D01*
X1101242Y15231618D01*
X1122934Y15239644D01*
X1143812Y15249499D01*
X1163828Y15261031D01*
X1182827Y15274239D01*
X1200607Y15288971D01*
X1217117Y15305125D01*
X1232204Y15322600D01*
X1245819Y15341295D01*
X1257757Y15361107D01*
X1268018Y15381782D01*
X1276553Y15403271D01*
X1283208Y15425369D01*
X1288034Y15447975D01*
X1290929Y15470936D01*
X1291336Y15481300D01*
X1028700Y15481300D01*
G37*
G36*
X6057900Y18434862D02*
G01*
X6067704Y18435726D01*
X6077153Y18438266D01*
X6086094Y18442381D01*
X6094120Y18448020D01*
X6101080Y18454979D01*
X6106718Y18463006D01*
X6110833Y18471946D01*
X6113373Y18481395D01*
X6114237Y18491200D01*
X6113373Y18501004D01*
X6110833Y18510453D01*
X6106718Y18519394D01*
X6101080Y18527420D01*
X6099505Y18528995D01*
X6097270Y18532297D01*
X6096508Y18536208D01*
X6096508Y19279870D01*
X6097219Y19283578D01*
X6099302Y19286829D01*
X6102350Y19289064D01*
X6111494Y19293281D01*
X6119520Y19298920D01*
X6126480Y19305879D01*
X6132118Y19313906D01*
X6136233Y19322846D01*
X6138773Y19332295D01*
X6139637Y19342100D01*
X6138773Y19351904D01*
X6136233Y19361353D01*
X6132118Y19370294D01*
X6126480Y19378320D01*
X6119520Y19385280D01*
X6111494Y19390918D01*
X6102553Y19395033D01*
X6093104Y19397573D01*
X6083300Y19398437D01*
X6073495Y19397573D01*
X6064046Y19395033D01*
X6055106Y19390918D01*
X6047079Y19385280D01*
X6040120Y19378320D01*
X6034481Y19370294D01*
X6030366Y19361353D01*
X6027826Y19351904D01*
X6026912Y19341896D01*
X6025794Y19337985D01*
X6022289Y19331432D01*
X6020104Y19324218D01*
X6019292Y19316192D01*
X6019292Y18536208D01*
X6018530Y18532297D01*
X6016294Y18528995D01*
X6014720Y18527420D01*
X6009081Y18519394D01*
X6004966Y18510453D01*
X6002426Y18501004D01*
X6001562Y18491200D01*
X6002426Y18481395D01*
X6004966Y18471946D01*
X6009081Y18463006D01*
X6014720Y18454979D01*
X6021679Y18448020D01*
X6029706Y18442381D01*
X6038646Y18438266D01*
X6048095Y18435726D01*
G37*
G36*
X14655800Y18358662D02*
G01*
X14665604Y18359526D01*
X14675053Y18362066D01*
X14683994Y18366181D01*
X14692020Y18371820D01*
X14698980Y18378779D01*
X14704618Y18386806D01*
X14708733Y18395746D01*
X14711273Y18405195D01*
X14712137Y18415000D01*
X14711273Y18424804D01*
X14708733Y18434253D01*
X14704618Y18443194D01*
X14698980Y18451220D01*
X14697405Y18452795D01*
X14695169Y18456097D01*
X14694407Y18460008D01*
X14694407Y19001130D01*
X14695169Y19004991D01*
X14697405Y19008293D01*
X14727478Y19038366D01*
X14730374Y19040398D01*
X14733778Y19041313D01*
X14741804Y19042024D01*
X14751253Y19044564D01*
X14760194Y19048730D01*
X14768220Y19054368D01*
X14775180Y19061277D01*
X14780818Y19069354D01*
X14784933Y19078244D01*
X14787473Y19087744D01*
X14788337Y19097498D01*
X14787473Y19107302D01*
X14784933Y19116802D01*
X14780818Y19125692D01*
X14775180Y19133769D01*
X14768220Y19140678D01*
X14760194Y19146316D01*
X14751253Y19150482D01*
X14741804Y19153022D01*
X14732000Y19153886D01*
X14722195Y19153022D01*
X14712746Y19150482D01*
X14703806Y19146316D01*
X14695779Y19140678D01*
X14688819Y19133769D01*
X14683181Y19125692D01*
X14679066Y19116802D01*
X14676526Y19107302D01*
X14675815Y19099276D01*
X14674900Y19095872D01*
X14672868Y19092976D01*
X14628876Y19048984D01*
X14623745Y19042735D01*
X14620189Y19036080D01*
X14618004Y19028867D01*
X14617192Y19020840D01*
X14617192Y18460008D01*
X14616430Y18456097D01*
X14614194Y18452795D01*
X14612619Y18451220D01*
X14606981Y18443194D01*
X14602866Y18434253D01*
X14600326Y18424804D01*
X14599462Y18415000D01*
X14600326Y18405195D01*
X14602866Y18395746D01*
X14606981Y18386806D01*
X14612619Y18378779D01*
X14619579Y18371820D01*
X14627606Y18366181D01*
X14636546Y18362066D01*
X14645995Y18359526D01*
G37*
G36*
X5257800Y18358662D02*
G01*
X5267604Y18359526D01*
X5277053Y18362066D01*
X5285994Y18366181D01*
X5294020Y18371820D01*
X5300980Y18378779D01*
X5306618Y18386806D01*
X5310733Y18395746D01*
X5313273Y18405195D01*
X5314137Y18415000D01*
X5313273Y18424804D01*
X5310733Y18434253D01*
X5306618Y18443194D01*
X5300980Y18451220D01*
X5299405Y18452795D01*
X5297170Y18456097D01*
X5296408Y18460008D01*
X5296408Y19001130D01*
X5297170Y19004991D01*
X5299405Y19008293D01*
X5329478Y19038366D01*
X5332374Y19040398D01*
X5335778Y19041313D01*
X5343804Y19042024D01*
X5353253Y19044564D01*
X5362194Y19048730D01*
X5370220Y19054368D01*
X5377180Y19061277D01*
X5382818Y19069354D01*
X5386933Y19078244D01*
X5389473Y19087744D01*
X5390337Y19097498D01*
X5389473Y19107302D01*
X5386933Y19116802D01*
X5382818Y19125692D01*
X5377180Y19133769D01*
X5370220Y19140678D01*
X5362194Y19146316D01*
X5353253Y19150482D01*
X5343804Y19153022D01*
X5334000Y19153886D01*
X5324195Y19153022D01*
X5314746Y19150482D01*
X5305806Y19146316D01*
X5297779Y19140678D01*
X5290820Y19133769D01*
X5285181Y19125692D01*
X5281066Y19116802D01*
X5278526Y19107302D01*
X5277815Y19099276D01*
X5276900Y19095872D01*
X5274868Y19092976D01*
X5230876Y19048984D01*
X5225745Y19042735D01*
X5222189Y19036080D01*
X5220004Y19028867D01*
X5219192Y19020840D01*
X5219192Y18460008D01*
X5218430Y18456097D01*
X5216194Y18452795D01*
X5214620Y18451220D01*
X5208981Y18443194D01*
X5204866Y18434253D01*
X5202326Y18424804D01*
X5201462Y18415000D01*
X5202326Y18405195D01*
X5204866Y18395746D01*
X5208981Y18386806D01*
X5214620Y18378779D01*
X5221579Y18371820D01*
X5229606Y18366181D01*
X5238546Y18362066D01*
X5247995Y18359526D01*
G37*
G36*
X18211800Y18358662D02*
G01*
X18221604Y18359526D01*
X18231053Y18362066D01*
X18239994Y18366181D01*
X18248020Y18371820D01*
X18254980Y18378779D01*
X18260618Y18386806D01*
X18264733Y18395746D01*
X18267273Y18405195D01*
X18268137Y18415000D01*
X18267273Y18424804D01*
X18264733Y18434253D01*
X18260618Y18443194D01*
X18254980Y18451220D01*
X18253405Y18452795D01*
X18251170Y18456097D01*
X18250408Y18460008D01*
X18250408Y19001130D01*
X18251170Y19004991D01*
X18253405Y19008293D01*
X18283478Y19038366D01*
X18286374Y19040398D01*
X18289778Y19041313D01*
X18297804Y19042024D01*
X18307253Y19044564D01*
X18316194Y19048730D01*
X18324220Y19054368D01*
X18331180Y19061277D01*
X18336818Y19069354D01*
X18340933Y19078244D01*
X18343473Y19087744D01*
X18344337Y19097498D01*
X18343473Y19107302D01*
X18340933Y19116802D01*
X18336818Y19125692D01*
X18331180Y19133769D01*
X18324220Y19140678D01*
X18316194Y19146316D01*
X18307253Y19150482D01*
X18297804Y19153022D01*
X18288000Y19153886D01*
X18278195Y19153022D01*
X18268746Y19150482D01*
X18259806Y19146316D01*
X18251779Y19140678D01*
X18244820Y19133769D01*
X18239181Y19125692D01*
X18235066Y19116802D01*
X18232526Y19107302D01*
X18231815Y19099276D01*
X18230900Y19095872D01*
X18228868Y19092976D01*
X18184876Y19048984D01*
X18179745Y19042735D01*
X18176189Y19036080D01*
X18174004Y19028867D01*
X18173192Y19020840D01*
X18173192Y18460008D01*
X18172430Y18456097D01*
X18170194Y18452795D01*
X18168620Y18451220D01*
X18162981Y18443194D01*
X18158866Y18434253D01*
X18156326Y18424804D01*
X18155462Y18415000D01*
X18156326Y18405195D01*
X18158866Y18395746D01*
X18162981Y18386806D01*
X18168620Y18378779D01*
X18175579Y18371820D01*
X18183606Y18366181D01*
X18192546Y18362066D01*
X18201995Y18359526D01*
G37*
G36*
X10845800Y18358662D02*
G01*
X10855604Y18359526D01*
X10865053Y18362066D01*
X10873994Y18366181D01*
X10882020Y18371820D01*
X10888980Y18378779D01*
X10894618Y18386806D01*
X10898733Y18395746D01*
X10901273Y18405195D01*
X10902137Y18415000D01*
X10901273Y18424804D01*
X10898733Y18434253D01*
X10894618Y18443194D01*
X10888980Y18451220D01*
X10887405Y18452795D01*
X10885170Y18456097D01*
X10884408Y18460008D01*
X10884408Y19001130D01*
X10885170Y19004991D01*
X10887405Y19008293D01*
X10917478Y19038366D01*
X10920374Y19040398D01*
X10923778Y19041313D01*
X10931804Y19042024D01*
X10941253Y19044564D01*
X10950194Y19048730D01*
X10958220Y19054368D01*
X10965180Y19061277D01*
X10970818Y19069354D01*
X10974933Y19078244D01*
X10977473Y19087744D01*
X10978337Y19097498D01*
X10977473Y19107302D01*
X10974933Y19116802D01*
X10970818Y19125692D01*
X10965180Y19133769D01*
X10958220Y19140678D01*
X10950194Y19146316D01*
X10941253Y19150482D01*
X10931804Y19153022D01*
X10922000Y19153886D01*
X10912195Y19153022D01*
X10902746Y19150482D01*
X10893806Y19146316D01*
X10885779Y19140678D01*
X10878820Y19133769D01*
X10873181Y19125692D01*
X10869066Y19116802D01*
X10866526Y19107302D01*
X10865815Y19099276D01*
X10864900Y19095872D01*
X10862868Y19092976D01*
X10818876Y19048984D01*
X10813745Y19042735D01*
X10810189Y19036080D01*
X10808004Y19028867D01*
X10807192Y19020840D01*
X10807192Y18460008D01*
X10806430Y18456097D01*
X10804194Y18452795D01*
X10802620Y18451220D01*
X10796981Y18443194D01*
X10792866Y18434253D01*
X10790326Y18424804D01*
X10789462Y18415000D01*
X10790326Y18405195D01*
X10792866Y18395746D01*
X10796981Y18386806D01*
X10802620Y18378779D01*
X10809579Y18371820D01*
X10817606Y18366181D01*
X10826546Y18362066D01*
X10835995Y18359526D01*
G37*
G36*
X2413000Y18434862D02*
G01*
X2422804Y18435726D01*
X2432253Y18438266D01*
X2441194Y18442381D01*
X2449220Y18448020D01*
X2456180Y18454979D01*
X2461818Y18463006D01*
X2465933Y18471946D01*
X2468473Y18481395D01*
X2469337Y18491200D01*
X2468473Y18501004D01*
X2465933Y18510453D01*
X2461818Y18519394D01*
X2456180Y18527420D01*
X2454605Y18528995D01*
X2452370Y18532297D01*
X2451608Y18536208D01*
X2451608Y19052540D01*
X2452370Y19056400D01*
X2454605Y19059702D01*
X2456180Y19061277D01*
X2461818Y19069354D01*
X2465933Y19078244D01*
X2468473Y19087744D01*
X2469337Y19097498D01*
X2468473Y19107302D01*
X2465933Y19116802D01*
X2461818Y19125692D01*
X2456180Y19133769D01*
X2449220Y19140678D01*
X2441194Y19146316D01*
X2432253Y19150482D01*
X2422804Y19153022D01*
X2413000Y19153886D01*
X2403195Y19153022D01*
X2393746Y19150482D01*
X2384806Y19146316D01*
X2376779Y19140678D01*
X2369820Y19133769D01*
X2364181Y19125692D01*
X2360066Y19116802D01*
X2357526Y19107302D01*
X2356662Y19097498D01*
X2357526Y19087744D01*
X2360066Y19078244D01*
X2364181Y19069354D01*
X2369820Y19061277D01*
X2371394Y19059702D01*
X2373630Y19056400D01*
X2374392Y19052540D01*
X2374392Y18536208D01*
X2373630Y18532297D01*
X2371394Y18528995D01*
X2369820Y18527420D01*
X2364181Y18519394D01*
X2360066Y18510453D01*
X2357526Y18501004D01*
X2356662Y18491200D01*
X2357526Y18481395D01*
X2360066Y18471946D01*
X2364181Y18463006D01*
X2369820Y18454979D01*
X2376779Y18448020D01*
X2384806Y18442381D01*
X2393746Y18438266D01*
X2403195Y18435726D01*
G37*
G36*
X22352000Y18434862D02*
G01*
X22361804Y18435726D01*
X22371253Y18438266D01*
X22380194Y18442381D01*
X22388220Y18448020D01*
X22395180Y18454979D01*
X22400818Y18463006D01*
X22404933Y18471946D01*
X22407473Y18481395D01*
X22408337Y18491200D01*
X22407473Y18501004D01*
X22404933Y18510453D01*
X22400818Y18519394D01*
X22395180Y18527420D01*
X22393605Y18528995D01*
X22391370Y18532297D01*
X22390608Y18536208D01*
X22390608Y19052540D01*
X22391370Y19056400D01*
X22393605Y19059702D01*
X22395180Y19061277D01*
X22400818Y19069354D01*
X22404933Y19078244D01*
X22407473Y19087744D01*
X22408337Y19097498D01*
X22407473Y19107302D01*
X22404933Y19116802D01*
X22400818Y19125692D01*
X22395180Y19133769D01*
X22388220Y19140678D01*
X22380194Y19146316D01*
X22371253Y19150482D01*
X22361804Y19153022D01*
X22352000Y19153886D01*
X22342195Y19153022D01*
X22332746Y19150482D01*
X22323806Y19146316D01*
X22315779Y19140678D01*
X22308820Y19133769D01*
X22303181Y19125692D01*
X22299066Y19116802D01*
X22296526Y19107302D01*
X22295662Y19097498D01*
X22296526Y19087744D01*
X22299066Y19078244D01*
X22303181Y19069354D01*
X22308820Y19061277D01*
X22310394Y19059702D01*
X22312630Y19056400D01*
X22313392Y19052540D01*
X22313392Y18536208D01*
X22312630Y18532297D01*
X22310394Y18528995D01*
X22308820Y18527420D01*
X22303181Y18519394D01*
X22299066Y18510453D01*
X22296526Y18501004D01*
X22295662Y18491200D01*
X22296526Y18481395D01*
X22299066Y18471946D01*
X22303181Y18463006D01*
X22308820Y18454979D01*
X22315779Y18448020D01*
X22323806Y18442381D01*
X22332746Y18438266D01*
X22342195Y18435726D01*
G37*
G36*
X9271000Y18434862D02*
G01*
X9280804Y18435726D01*
X9290253Y18438266D01*
X9299194Y18442381D01*
X9307220Y18448020D01*
X9314180Y18454979D01*
X9319818Y18463006D01*
X9323933Y18471946D01*
X9326473Y18481395D01*
X9327337Y18491200D01*
X9326473Y18501004D01*
X9323933Y18510453D01*
X9319818Y18519394D01*
X9314180Y18527420D01*
X9312605Y18528995D01*
X9310370Y18532297D01*
X9309608Y18536208D01*
X9309608Y19052540D01*
X9310370Y19056400D01*
X9312605Y19059702D01*
X9314180Y19061277D01*
X9319818Y19069354D01*
X9323933Y19078244D01*
X9326473Y19087744D01*
X9327337Y19097498D01*
X9326473Y19107302D01*
X9323933Y19116802D01*
X9319818Y19125692D01*
X9314180Y19133769D01*
X9307220Y19140678D01*
X9299194Y19146316D01*
X9290253Y19150482D01*
X9280804Y19153022D01*
X9271000Y19153886D01*
X9261195Y19153022D01*
X9251746Y19150482D01*
X9242806Y19146316D01*
X9234779Y19140678D01*
X9227820Y19133769D01*
X9222181Y19125692D01*
X9218066Y19116802D01*
X9215526Y19107302D01*
X9214662Y19097498D01*
X9215526Y19087744D01*
X9218066Y19078244D01*
X9222181Y19069354D01*
X9227820Y19061277D01*
X9229394Y19059702D01*
X9231630Y19056400D01*
X9232392Y19052540D01*
X9232392Y18536208D01*
X9231630Y18532297D01*
X9229394Y18528995D01*
X9227820Y18527420D01*
X9222181Y18519394D01*
X9218066Y18510453D01*
X9215526Y18501004D01*
X9214662Y18491200D01*
X9215526Y18481395D01*
X9218066Y18471946D01*
X9222181Y18463006D01*
X9227820Y18454979D01*
X9234779Y18448020D01*
X9242806Y18442381D01*
X9251746Y18438266D01*
X9261195Y18435726D01*
G37*

%LPD*%
D10*
X25463500Y20485100D02*
G01*
X25463500Y20192987D01*
X26542987Y20701000D02*
G01*
X26542987Y20192987D01*
D11*
X26047700Y16319500D02*
G01*
X26682700Y16319500D01*
X26717498Y16354297D01*
X26717498Y18640805D01*
X25793700Y18240499D02*
G01*
X25793700Y18529300D01*
X25996900Y16383000D02*
G01*
X26301700Y16383000D01*
X26336498Y16417797D01*
X26336498Y17622012D01*
X26543000Y17526000D02*
G01*
X26543000Y18999200D01*
X26162000Y19100800D02*
G01*
X26162000Y17983200D01*
X23241000Y18592800D02*
G01*
X23164800Y18516600D01*
X23164800Y17907000D01*
X23685500Y18161000D02*
G01*
X23685500Y18402300D01*
X23596600Y18491200D01*
X22987000Y18081525D02*
G01*
X22987000Y18491200D01*
X22809200Y18669000D02*
G01*
X22809200Y18923000D01*
X22733000Y18999200D01*
X22352000Y19097525D02*
G01*
X22352000Y18491200D01*
X20574000Y19100800D02*
G01*
X20574000Y17983200D01*
X20828000Y18589525D02*
G01*
X20828000Y18999200D01*
X23749000Y16002000D02*
G01*
X23749000Y17526000D01*
X23876124Y17894300D02*
G01*
X23876124Y18084800D01*
X20396200Y18367499D02*
G01*
X20396200Y18656300D01*
X20205700Y18240499D02*
G01*
X20205700Y18542000D01*
X18745200Y18669000D02*
G01*
X18745200Y18923000D01*
X18669000Y18999200D01*
X18288000Y19097525D02*
G01*
X18211800Y19021325D01*
X18211800Y18415000D01*
X17018000Y19100800D02*
G01*
X17018000Y17983200D01*
X17272000Y18589525D02*
G01*
X17272000Y18999200D01*
X17272000Y16319500D02*
G01*
X17272000Y18491200D01*
X16840200Y18367499D02*
G01*
X16840200Y18656300D01*
X16649700Y18240499D02*
G01*
X16649700Y18542000D01*
D10*
X26924000Y19977100D02*
G01*
X26924000Y17348200D01*
X26543000Y20193000D02*
G01*
X26543000Y19977100D01*
D11*
X20304732Y18081500D02*
G01*
X20307300Y18084068D01*
X20307300Y18542000D01*
X20701000Y18081500D02*
G01*
X20701000Y18580100D01*
X18570676Y18589523D02*
G01*
X18570676Y17342002D01*
X17145000Y18081500D02*
G01*
X17145000Y18580100D01*
X16748732Y18081498D02*
G01*
X16748732Y18542000D01*
X14732000Y19097525D02*
G01*
X14655800Y19021325D01*
X14655800Y18415000D01*
X13462000Y18589525D02*
G01*
X13462000Y19002499D01*
X13208000Y19100800D02*
G01*
X13208000Y17983200D01*
X12938732Y18081498D02*
G01*
X12938732Y18542000D01*
X13462000Y16256000D02*
G01*
X13462000Y18491200D01*
X13335000Y18081498D02*
G01*
X13335000Y18580100D01*
X13030200Y18367499D02*
G01*
X13030200Y18656300D01*
X12839700Y18240499D02*
G01*
X12839700Y18542000D01*
X15014679Y18589520D02*
G01*
X15014679Y17341999D01*
X15189200Y18669000D02*
G01*
X15189200Y18923000D01*
X15113000Y18999200D01*
X11379200Y18669000D02*
G01*
X11379200Y18923000D01*
X11303000Y18999200D01*
X10922000Y19097525D02*
G01*
X10845800Y19021325D01*
X10845800Y18415000D01*
X9537700Y18589525D02*
G01*
X9537700Y18999200D01*
X9271000Y19097525D02*
G01*
X9271000Y18491200D01*
X8001000Y18589525D02*
G01*
X8001000Y18999200D01*
X7874000Y16192500D02*
G01*
X7874000Y18491200D01*
X7747000Y18081500D02*
G01*
X7747000Y18580100D01*
X7350732Y18081500D02*
G01*
X7350732Y18542000D01*
X6375400Y18081525D02*
G01*
X6375400Y19253200D01*
X6083300Y19342100D02*
G01*
X6057900Y19316700D01*
X6057900Y18491200D01*
X5791200Y18669000D02*
G01*
X5791200Y18999200D01*
X3937000Y19097525D02*
G01*
X3937000Y18494499D01*
X4191000Y18589525D02*
G01*
X4191000Y18999200D01*
X2667000Y18589525D02*
G01*
X2667000Y18999200D01*
X2413000Y19097525D02*
G01*
X2413000Y18491200D01*
X5334000Y19097525D02*
G01*
X5257800Y19021325D01*
X5257800Y18415000D01*
X11204679Y18589520D02*
G01*
X11204679Y17341999D01*
X5616674Y18589518D02*
G01*
X5616674Y17341997D01*
X6477000Y18910300D02*
G01*
X6477000Y19970904D01*
X23876124Y17894300D02*
G01*
X23876124Y17342002D01*
X25908000Y18081525D02*
G01*
X25908000Y17342004D01*
X23669498Y18589498D02*
G01*
X23841202Y18589498D01*
X23876000Y18554700D01*
X23876000Y18084800D01*
X6283197Y19431000D02*
G01*
X6282436Y19971004D01*
X26085800Y17602200D02*
G01*
X26085800Y18389600D01*
X23320474Y18148300D02*
G01*
X23320474Y17602200D01*
X20828000Y16383000D02*
G01*
X20828000Y18491200D01*
X5413502Y17856200D02*
G01*
X5413502Y18656300D01*
X7112000Y18669000D02*
G01*
X7112000Y18999200D01*
X7188200Y19189700D02*
G01*
X7188200Y18681700D01*
X7175500Y18669000D01*
X7175500Y18427700D01*
X7251700Y17780000D02*
G01*
X7251700Y17983200D01*
X6985000Y18589525D02*
G01*
X6985000Y17780000D01*
X7112000Y17856200D02*
G01*
X7112000Y18669000D01*
X7445474Y18656300D02*
G01*
X7445474Y18364200D01*
X7254974Y18542000D02*
G01*
X7254974Y18237200D01*
X12573000Y18081525D02*
G01*
X12573000Y18237200D01*
X12763500Y18427700D01*
X16383000Y18081525D02*
G01*
X16383000Y18237200D01*
X16573500Y18427700D01*
X19939000Y18081525D02*
G01*
X19939000Y18237200D01*
X20129500Y18427700D01*
X25527000Y18081525D02*
G01*
X25527000Y18237200D01*
X25717500Y18427700D01*
X24257000Y18589525D02*
G01*
X24257000Y17983200D01*
X25892759Y18542000D02*
G01*
X25892759Y19970904D01*
X19840702Y18494502D02*
G01*
X19840702Y18494502D01*
X19022161Y18494502D01*
X11657876Y18494502D02*
G01*
X12462002Y18494502D01*
X15467868Y18494502D02*
G01*
X16272002Y18494502D01*
X25946100Y18262600D02*
G01*
X25946100Y18427700D01*
X25984200Y18465800D01*
X25984200Y18656300D01*
D12*
G01*
X1016000Y15494000D03*
G01*
X1016000Y20574000D03*
G01*
X26924000Y15494000D03*
G01*
X26924000Y20574000D03*
D13*
G01*
X26289000Y20701000D03*
G01*
X26289000Y20447000D03*
G01*
X26035000Y20447000D03*
G01*
X26035000Y20701000D03*
D14*
G01*
X25273000Y16002000D03*
G01*
X25019000Y16002000D03*
G01*
X24765000Y16002000D03*
G01*
X24511000Y16002000D03*
G01*
X24257000Y16002000D03*
G01*
X24003000Y16002000D03*
G01*
X23749000Y16002000D03*
G01*
X23495000Y16002000D03*
D15*
G01*
X26543000Y20192974D03*
G01*
X26543000Y20701000D03*
G01*
X26543000Y19977100D03*
G01*
X26924000Y17348200D03*
G01*
X26924000Y19977100D03*
G01*
X7874000Y16192500D03*
G01*
X13462000Y16256000D03*
G01*
X17272000Y16319500D03*
G01*
X20828000Y16383000D03*
G01*
X25996900Y16383000D03*
G01*
X26047700Y16319500D03*
G01*
X25463500Y20192974D03*
G01*
X26717498Y18640882D03*
G01*
X25793700Y18240502D03*
G01*
X25793700Y18529300D03*
G01*
X25946100Y18262600D03*
G01*
X25984200Y18656300D03*
G01*
X26336498Y17622113D03*
G01*
X26543000Y17526000D03*
G01*
X26543000Y18999200D03*
G01*
X23749000Y17526000D03*
G01*
X26162000Y19100800D03*
G01*
X26162000Y17983200D03*
G01*
X23241000Y18592800D03*
G01*
X23164800Y17907000D03*
G01*
X23685500Y18161000D03*
G01*
X23596600Y18491200D03*
G01*
X22987000Y18081523D03*
G01*
X22987000Y18491200D03*
G01*
X22809200Y18669000D03*
G01*
X22733000Y18999200D03*
G01*
X22352000Y19097523D03*
G01*
X22352000Y18491200D03*
G01*
X20574000Y19100800D03*
G01*
X20574000Y17983200D03*
G01*
X20828000Y18589523D03*
G01*
X20828000Y18999200D03*
G01*
X20828000Y18491200D03*
G01*
X23876127Y17894300D03*
G01*
X23876127Y18084800D03*
G01*
X20396200Y18367502D03*
G01*
X20396200Y18656300D03*
G01*
X20205700Y18240502D03*
G01*
X20205700Y18542000D03*
G01*
X18745200Y18669000D03*
G01*
X18669000Y18999200D03*
G01*
X18288000Y19097523D03*
G01*
X18211800Y18415000D03*
G01*
X17018000Y19100800D03*
G01*
X17018000Y17983200D03*
G01*
X17272000Y18589523D03*
G01*
X17272000Y18999200D03*
G01*
X17272000Y18491200D03*
G01*
X16840200Y18367502D03*
G01*
X16840200Y18656300D03*
G01*
X16649700Y18240502D03*
G01*
X16649700Y18542000D03*
G01*
X19939000Y18081523D03*
G01*
X20701000Y18081498D03*
G01*
X20307300Y18542000D03*
G01*
X20304734Y18081498D03*
G01*
X20701000Y18580100D03*
G01*
X18570676Y18589523D03*
G01*
X18570676Y17342002D03*
G01*
X15014676Y18589523D03*
G01*
X15014676Y17342002D03*
G01*
X17145000Y18081498D03*
G01*
X17145000Y18580100D03*
G01*
X16748734Y18081498D03*
G01*
X16748734Y18542000D03*
G01*
X14732000Y19097523D03*
G01*
X14655800Y18415000D03*
G01*
X13462000Y18589523D03*
G01*
X13462000Y19002502D03*
G01*
X13208000Y19100800D03*
G01*
X13208000Y17983200D03*
G01*
X13335000Y18081498D03*
G01*
X12938734Y18081498D03*
G01*
X13335000Y18580100D03*
G01*
X12938734Y18542000D03*
G01*
X13462000Y18491200D03*
G01*
X13030200Y18367502D03*
G01*
X13030200Y18656300D03*
G01*
X12839700Y18240502D03*
G01*
X12839700Y18542000D03*
G01*
X11204676Y17342002D03*
G01*
X11204676Y18589523D03*
G01*
X15189200Y18669000D03*
G01*
X15113000Y18999200D03*
G01*
X11379200Y18669000D03*
G01*
X11303000Y18999200D03*
G01*
X10922000Y19097523D03*
G01*
X10845800Y18415000D03*
G01*
X9537700Y18589523D03*
G01*
X9537700Y18999200D03*
G01*
X9271000Y19097523D03*
G01*
X9271000Y18491200D03*
G01*
X8001000Y18589523D03*
G01*
X8001000Y18999200D03*
G01*
X7874000Y18491200D03*
G01*
X7747000Y18081498D03*
G01*
X7747000Y18580100D03*
G01*
X7350734Y18081498D03*
G01*
X7350734Y18542000D03*
G01*
X12573000Y18081523D03*
G01*
X7188200Y19189700D03*
G01*
X6375400Y18081523D03*
G01*
X6375400Y19253200D03*
G01*
X6083300Y19342100D03*
G01*
X6057900Y18491200D03*
G01*
X5791200Y18669000D03*
G01*
X5791200Y18999200D03*
G01*
X5334000Y19097523D03*
G01*
X3937000Y19097523D03*
G01*
X3937000Y18494502D03*
G01*
X4191000Y18589523D03*
G01*
X4191000Y18999200D03*
G01*
X2667000Y18589523D03*
G01*
X2667000Y18999200D03*
G01*
X2413000Y19097523D03*
G01*
X2413000Y18491200D03*
G01*
X5257800Y18415000D03*
G01*
X5616676Y18589523D03*
G01*
X5616676Y17342002D03*
G01*
X7112000Y18999200D03*
G01*
X6477000Y18910300D03*
G01*
X6477000Y19970902D03*
G01*
X16383000Y18081523D03*
G01*
X26047700Y17233900D03*
G01*
X26250900Y19862800D03*
G01*
X8966200Y19862800D03*
G01*
X7277100Y19862800D03*
G01*
X4191000Y19862800D03*
G01*
X10490200Y19862800D03*
G01*
X12776200Y19862800D03*
G01*
X10490200Y17449800D03*
G01*
X8966200Y17449800D03*
G01*
X7277100Y17449800D03*
G01*
X3937000Y19862800D03*
G01*
X3937000Y17449800D03*
G01*
X3632200Y19862800D03*
G01*
X14300200Y19862800D03*
G01*
X16586200Y19862800D03*
G01*
X14287500Y17449800D03*
G01*
X16586200Y17449800D03*
G01*
X17856200Y19862800D03*
G01*
X20142200Y19862800D03*
G01*
X17856200Y17449800D03*
G01*
X20142200Y17449800D03*
G01*
X21920200Y19862800D03*
G01*
X21920200Y17449800D03*
G01*
X25742900Y19862800D03*
G01*
X26047700Y16090900D03*
G01*
X24003000Y18084800D03*
G01*
X24003000Y18630900D03*
G01*
X18923000Y18669000D03*
G01*
X23101300Y16459200D03*
G01*
X22212300Y16459200D03*
G01*
X25527000Y17983200D03*
G01*
X23669498Y18589498D03*
G01*
X23876127Y17342002D03*
G01*
X25908000Y18081523D03*
G01*
X25908000Y17342002D03*
G01*
X23507700Y18237200D03*
G01*
X25857200Y18288000D03*
G01*
X26009600Y18389600D03*
G01*
X26250900Y18503900D03*
G01*
X21920200Y17221200D03*
G01*
X23876000Y17221200D03*
G01*
X22898100Y17233900D03*
G01*
X22898100Y17449800D03*
G01*
X20142200Y17221200D03*
G01*
X17856200Y17208500D03*
G01*
X16586200Y17208500D03*
G01*
X14287500Y17208500D03*
G01*
X12852400Y17208500D03*
G01*
X12852400Y17449800D03*
G01*
X10490200Y17208500D03*
G01*
X7277100Y17208500D03*
G01*
X6959600Y17208500D03*
G01*
X6959600Y17449800D03*
G01*
X7251700Y18745200D03*
G01*
X6997700Y18745200D03*
G01*
X6743700Y18745200D03*
G01*
X6489700Y18745200D03*
G01*
X6235700Y18745200D03*
G01*
X7493000Y18935700D03*
G01*
X6858000Y18999200D03*
G01*
X6283197Y19431000D03*
G01*
X6282436Y19970902D03*
G01*
X15367000Y18669000D03*
G01*
X15087600Y18669000D03*
G01*
X5981700Y18745200D03*
G01*
X5473700Y18745200D03*
G01*
X22720300Y18669000D03*
G01*
X20955000Y18669000D03*
G01*
X18643600Y18669000D03*
G01*
X5727700Y18745200D03*
G01*
X23320476Y18148300D03*
G01*
X26085800Y17602200D03*
G01*
X26085800Y18389600D03*
G01*
X23320476Y17602200D03*
G01*
X23393400Y17703800D03*
G01*
X7112000Y17856200D03*
G01*
X5413476Y18656300D03*
G01*
X5413502Y17856200D03*
G01*
X7175500Y18427700D03*
G01*
X7251700Y17780000D03*
G01*
X7251700Y17983200D03*
G01*
X6985000Y18589523D03*
G01*
X6985000Y17780000D03*
G01*
X7445476Y18656300D03*
G01*
X7445476Y18364200D03*
G01*
X7254976Y18542000D03*
G01*
X7254976Y18237200D03*
G01*
X12763500Y18427700D03*
G01*
X12462002Y18494502D03*
G01*
X11657888Y18494502D03*
G01*
X12573000Y18491200D03*
G01*
X16573500Y18427700D03*
G01*
X16383000Y18491200D03*
G01*
X16272002Y18494502D03*
G01*
X15467863Y18494502D03*
G01*
X19840702Y18494502D03*
G01*
X19022161Y18494502D03*
G01*
X20129500Y18427700D03*
G01*
X25527000Y18081523D03*
G01*
X25717500Y18427700D03*
G01*
X24257000Y18589523D03*
G01*
X24257000Y17983200D03*
G01*
X25892759Y18542000D03*
G01*
X25892759Y19970902D03*
G01*
X19939000Y18491200D03*
G01*
X12839700Y18681700D03*
G01*
X11569700Y18681700D03*
G01*
X25463500Y20485100D03*
M02*
