G04 Layer: TopSilkscreenLayer*
G04 EasyEDA v6.5.32, 2023-07-25 14:04:49*
G04 e29bc2ffff424919aeca0c2d5bcb6023,5a6b42c53f6a479593ecc07194224c93,10*
G04 Gerber Generator version 0.2*
G04 Scale: 100 percent, Rotated: No, Reflected: No *
G04 Dimensions in millimeters *
G04 leading zeros omitted , absolute positions ,4 integer and 5 decimal *
%FSLAX45Y45*%
%MOMM*%

%ADD10C,0.1524*%
%ADD11C,0.2540*%
%ADD12C,0.1500*%
%ADD13C,0.1520*%

%LPD*%
D10*
X762000Y5423915D02*
G01*
X762000Y5314950D01*
X762000Y5423915D02*
G01*
X808736Y5423915D01*
X824229Y5418836D01*
X829563Y5413502D01*
X834644Y5403087D01*
X834644Y5387594D01*
X829563Y5377179D01*
X824229Y5372100D01*
X808736Y5366765D01*
X762000Y5366765D01*
X910589Y5423915D02*
G01*
X868934Y5314950D01*
X910589Y5423915D02*
G01*
X952245Y5314950D01*
X884681Y5351271D02*
G01*
X936497Y5351271D01*
X986536Y5423915D02*
G01*
X986536Y5314950D01*
X986536Y5423915D02*
G01*
X1033271Y5423915D01*
X1048765Y5418836D01*
X1054100Y5413502D01*
X1059179Y5403087D01*
X1059179Y5392673D01*
X1054100Y5382260D01*
X1048765Y5377179D01*
X1033271Y5372100D01*
X986536Y5372100D01*
X1022857Y5372100D02*
G01*
X1059179Y5314950D01*
X1129792Y5423915D02*
G01*
X1129792Y5314950D01*
X1093470Y5423915D02*
G01*
X1166113Y5423915D01*
X1280413Y5423915D02*
G01*
X1280413Y5314950D01*
X1280413Y5423915D02*
G01*
X1353312Y5314950D01*
X1353312Y5423915D02*
G01*
X1353312Y5314950D01*
X1387602Y5423915D02*
G01*
X1387602Y5345937D01*
X1392681Y5330444D01*
X1403095Y5320029D01*
X1418589Y5314950D01*
X1429004Y5314950D01*
X1444752Y5320029D01*
X1455165Y5330444D01*
X1460245Y5345937D01*
X1460245Y5423915D01*
X1494536Y5423915D02*
G01*
X1494536Y5314950D01*
X1494536Y5423915D02*
G01*
X1536192Y5314950D01*
X1577594Y5423915D02*
G01*
X1536192Y5314950D01*
X1577594Y5423915D02*
G01*
X1577594Y5314950D01*
X1611884Y5423915D02*
G01*
X1611884Y5314950D01*
X1611884Y5423915D02*
G01*
X1658620Y5423915D01*
X1674368Y5418836D01*
X1679447Y5413502D01*
X1684781Y5403087D01*
X1684781Y5392673D01*
X1679447Y5382260D01*
X1674368Y5377179D01*
X1658620Y5372100D01*
X1611884Y5372100D02*
G01*
X1658620Y5372100D01*
X1674368Y5366765D01*
X1679447Y5361686D01*
X1684781Y5351271D01*
X1684781Y5335523D01*
X1679447Y5325110D01*
X1674368Y5320029D01*
X1658620Y5314950D01*
X1611884Y5314950D01*
X1719071Y5423915D02*
G01*
X1719071Y5314950D01*
X1719071Y5423915D02*
G01*
X1786636Y5423915D01*
X1719071Y5372100D02*
G01*
X1760473Y5372100D01*
X1719071Y5314950D02*
G01*
X1786636Y5314950D01*
X1820926Y5423915D02*
G01*
X1820926Y5314950D01*
X1820926Y5423915D02*
G01*
X1867662Y5423915D01*
X1883155Y5418836D01*
X1888489Y5413502D01*
X1893570Y5403087D01*
X1893570Y5392673D01*
X1888489Y5382260D01*
X1883155Y5377179D01*
X1867662Y5372100D01*
X1820926Y5372100D01*
X1857247Y5372100D02*
G01*
X1893570Y5314950D01*
X2007870Y5403087D02*
G01*
X2018284Y5408421D01*
X2033777Y5423915D01*
X2033777Y5314950D01*
X2099309Y5423915D02*
G01*
X2083815Y5418836D01*
X2073402Y5403087D01*
X2068068Y5377179D01*
X2068068Y5361686D01*
X2073402Y5335523D01*
X2083815Y5320029D01*
X2099309Y5314950D01*
X2109724Y5314950D01*
X2125218Y5320029D01*
X2135631Y5335523D01*
X2140965Y5361686D01*
X2140965Y5377179D01*
X2135631Y5403087D01*
X2125218Y5418836D01*
X2109724Y5423915D01*
X2099309Y5423915D01*
X2237486Y5423915D02*
G01*
X2185670Y5423915D01*
X2180336Y5377179D01*
X2185670Y5382260D01*
X2201163Y5387594D01*
X2216658Y5387594D01*
X2232406Y5382260D01*
X2242820Y5372100D01*
X2247900Y5356352D01*
X2247900Y5345937D01*
X2242820Y5330444D01*
X2232406Y5320029D01*
X2216658Y5314950D01*
X2201163Y5314950D01*
X2185670Y5320029D01*
X2180336Y5325110D01*
X2175256Y5335523D01*
X2344420Y5408421D02*
G01*
X2339340Y5418836D01*
X2323845Y5423915D01*
X2313431Y5423915D01*
X2297684Y5418836D01*
X2287270Y5403087D01*
X2282190Y5377179D01*
X2282190Y5351271D01*
X2287270Y5330444D01*
X2297684Y5320029D01*
X2313431Y5314950D01*
X2318511Y5314950D01*
X2334259Y5320029D01*
X2344420Y5330444D01*
X2349754Y5345937D01*
X2349754Y5351271D01*
X2344420Y5366765D01*
X2334259Y5377179D01*
X2318511Y5382260D01*
X2313431Y5382260D01*
X2297684Y5377179D01*
X2287270Y5366765D01*
X2282190Y5351271D01*
X2384043Y5361686D02*
G01*
X2477515Y5361686D01*
X2543047Y5423915D02*
G01*
X2527300Y5418836D01*
X2517140Y5403087D01*
X2511806Y5377179D01*
X2511806Y5361686D01*
X2517140Y5335523D01*
X2527300Y5320029D01*
X2543047Y5314950D01*
X2553461Y5314950D01*
X2568956Y5320029D01*
X2579370Y5335523D01*
X2584450Y5361686D01*
X2584450Y5377179D01*
X2579370Y5403087D01*
X2568956Y5418836D01*
X2553461Y5423915D01*
X2543047Y5423915D01*
X2618740Y5403087D02*
G01*
X2629154Y5408421D01*
X2644902Y5423915D01*
X2644902Y5314950D01*
X2710179Y5423915D02*
G01*
X2694686Y5418836D01*
X2684272Y5403087D01*
X2679191Y5377179D01*
X2679191Y5361686D01*
X2684272Y5335523D01*
X2694686Y5320029D01*
X2710179Y5314950D01*
X2720593Y5314950D01*
X2736341Y5320029D01*
X2746756Y5335523D01*
X2751836Y5361686D01*
X2751836Y5377179D01*
X2746756Y5403087D01*
X2736341Y5418836D01*
X2720593Y5423915D01*
X2710179Y5423915D01*
X2786125Y5403087D02*
G01*
X2796540Y5408421D01*
X2812034Y5423915D01*
X2812034Y5314950D01*
X762000Y5601715D02*
G01*
X762000Y5492750D01*
X762000Y5601715D02*
G01*
X808736Y5601715D01*
X824229Y5596636D01*
X829563Y5591302D01*
X834644Y5580887D01*
X834644Y5565394D01*
X829563Y5554979D01*
X824229Y5549900D01*
X808736Y5544565D01*
X762000Y5544565D01*
X868934Y5601715D02*
G01*
X868934Y5492750D01*
X868934Y5601715D02*
G01*
X915670Y5601715D01*
X931418Y5596636D01*
X936497Y5591302D01*
X941831Y5580887D01*
X941831Y5570473D01*
X936497Y5560060D01*
X931418Y5554979D01*
X915670Y5549900D01*
X868934Y5549900D01*
X905510Y5549900D02*
G01*
X941831Y5492750D01*
X1007110Y5601715D02*
G01*
X996950Y5596636D01*
X986536Y5586221D01*
X981202Y5575807D01*
X976121Y5560060D01*
X976121Y5534152D01*
X981202Y5518657D01*
X986536Y5508244D01*
X996950Y5497829D01*
X1007110Y5492750D01*
X1027937Y5492750D01*
X1038352Y5497829D01*
X1048765Y5508244D01*
X1054100Y5518657D01*
X1059179Y5534152D01*
X1059179Y5560060D01*
X1054100Y5575807D01*
X1048765Y5586221D01*
X1038352Y5596636D01*
X1027937Y5601715D01*
X1007110Y5601715D01*
X1129792Y5601715D02*
G01*
X1129792Y5492750D01*
X1093470Y5601715D02*
G01*
X1166113Y5601715D01*
X1231645Y5601715D02*
G01*
X1221231Y5596636D01*
X1210818Y5586221D01*
X1205737Y5575807D01*
X1200404Y5560060D01*
X1200404Y5534152D01*
X1205737Y5518657D01*
X1210818Y5508244D01*
X1221231Y5497829D01*
X1231645Y5492750D01*
X1252473Y5492750D01*
X1262887Y5497829D01*
X1273302Y5508244D01*
X1278381Y5518657D01*
X1283715Y5534152D01*
X1283715Y5560060D01*
X1278381Y5575807D01*
X1273302Y5586221D01*
X1262887Y5596636D01*
X1252473Y5601715D01*
X1231645Y5601715D01*
X1318005Y5601715D02*
G01*
X1318005Y5492750D01*
X1318005Y5601715D02*
G01*
X1390650Y5492750D01*
X1390650Y5601715D02*
G01*
X1390650Y5492750D01*
X1424939Y5601715D02*
G01*
X1424939Y5492750D01*
X1424939Y5601715D02*
G01*
X1492504Y5601715D01*
X1424939Y5549900D02*
G01*
X1466595Y5549900D01*
X1424939Y5492750D02*
G01*
X1492504Y5492750D01*
X1526794Y5601715D02*
G01*
X1526794Y5492750D01*
X1526794Y5601715D02*
G01*
X1568450Y5492750D01*
X1609852Y5601715D02*
G01*
X1568450Y5492750D01*
X1609852Y5601715D02*
G01*
X1609852Y5492750D01*
X1685797Y5601715D02*
G01*
X1644142Y5492750D01*
X1685797Y5601715D02*
G01*
X1727200Y5492750D01*
X1659889Y5529071D02*
G01*
X1711705Y5529071D01*
X1841500Y5601715D02*
G01*
X1841500Y5492750D01*
X1841500Y5601715D02*
G01*
X1909063Y5601715D01*
X1841500Y5549900D02*
G01*
X1883155Y5549900D01*
X1841500Y5492750D02*
G01*
X1909063Y5492750D01*
X1943354Y5601715D02*
G01*
X1943354Y5523737D01*
X1948688Y5508244D01*
X1959102Y5497829D01*
X1974595Y5492750D01*
X1985009Y5492750D01*
X2000504Y5497829D01*
X2010918Y5508244D01*
X2016252Y5523737D01*
X2016252Y5601715D01*
X2050541Y5601715D02*
G01*
X2050541Y5492750D01*
X2050541Y5601715D02*
G01*
X2097277Y5601715D01*
X2112772Y5596636D01*
X2118106Y5591302D01*
X2123186Y5580887D01*
X2123186Y5570473D01*
X2118106Y5560060D01*
X2112772Y5554979D01*
X2097277Y5549900D01*
X2050541Y5549900D01*
X2086863Y5549900D02*
G01*
X2123186Y5492750D01*
X2188718Y5601715D02*
G01*
X2178304Y5596636D01*
X2167890Y5586221D01*
X2162809Y5575807D01*
X2157475Y5560060D01*
X2157475Y5534152D01*
X2162809Y5518657D01*
X2167890Y5508244D01*
X2178304Y5497829D01*
X2188718Y5492750D01*
X2209545Y5492750D01*
X2219959Y5497829D01*
X2230120Y5508244D01*
X2235454Y5518657D01*
X2240534Y5534152D01*
X2240534Y5560060D01*
X2235454Y5575807D01*
X2230120Y5586221D01*
X2219959Y5596636D01*
X2209545Y5601715D01*
X2188718Y5601715D01*
X2274824Y5601715D02*
G01*
X2274824Y5492750D01*
X2274824Y5601715D02*
G01*
X2321559Y5601715D01*
X2337308Y5596636D01*
X2342388Y5591302D01*
X2347722Y5580887D01*
X2347722Y5570473D01*
X2342388Y5560060D01*
X2337308Y5554979D01*
X2321559Y5549900D01*
X2274824Y5549900D01*
X2311400Y5549900D02*
G01*
X2347722Y5492750D01*
X2423413Y5601715D02*
G01*
X2382011Y5492750D01*
X2423413Y5601715D02*
G01*
X2465070Y5492750D01*
X2397506Y5529071D02*
G01*
X2449575Y5529071D01*
X2577338Y5575807D02*
G01*
X2572004Y5586221D01*
X2561590Y5596636D01*
X2551429Y5601715D01*
X2530602Y5601715D01*
X2520188Y5596636D01*
X2509774Y5586221D01*
X2504440Y5575807D01*
X2499359Y5560060D01*
X2499359Y5534152D01*
X2504440Y5518657D01*
X2509774Y5508244D01*
X2520188Y5497829D01*
X2530602Y5492750D01*
X2551429Y5492750D01*
X2561590Y5497829D01*
X2572004Y5508244D01*
X2577338Y5518657D01*
X2611627Y5601715D02*
G01*
X2611627Y5492750D01*
X2684272Y5601715D02*
G01*
X2611627Y5529071D01*
X2637536Y5554979D02*
G01*
X2684272Y5492750D01*
X2798572Y5601715D02*
G01*
X2798572Y5492750D01*
X2798572Y5601715D02*
G01*
X2845308Y5601715D01*
X2861056Y5596636D01*
X2866136Y5591302D01*
X2871470Y5580887D01*
X2871470Y5565394D01*
X2866136Y5554979D01*
X2861056Y5549900D01*
X2845308Y5544565D01*
X2798572Y5544565D01*
X2905759Y5601715D02*
G01*
X2931668Y5492750D01*
X2957575Y5601715D02*
G01*
X2931668Y5492750D01*
X2957575Y5601715D02*
G01*
X2983484Y5492750D01*
X3009645Y5601715D02*
G01*
X2983484Y5492750D01*
X3043936Y5601715D02*
G01*
X3043936Y5492750D01*
X3043936Y5601715D02*
G01*
X3090672Y5601715D01*
X3106165Y5596636D01*
X3111500Y5591302D01*
X3116579Y5580887D01*
X3116579Y5570473D01*
X3111500Y5560060D01*
X3106165Y5554979D01*
X3090672Y5549900D01*
X3043936Y5549900D01*
X3080258Y5549900D02*
G01*
X3116579Y5492750D01*
X3230879Y5601715D02*
G01*
X3230879Y5492750D01*
X3265170Y5601715D02*
G01*
X3265170Y5492750D01*
X3265170Y5601715D02*
G01*
X3337813Y5492750D01*
X3337813Y5601715D02*
G01*
X3337813Y5492750D01*
X3452113Y5601715D02*
G01*
X3493770Y5492750D01*
X3535425Y5601715D02*
G01*
X3493770Y5492750D01*
X3600704Y5601715D02*
G01*
X3585209Y5596636D01*
X3574795Y5580887D01*
X3569715Y5554979D01*
X3569715Y5539486D01*
X3574795Y5513323D01*
X3585209Y5497829D01*
X3600704Y5492750D01*
X3611118Y5492750D01*
X3626865Y5497829D01*
X3637279Y5513323D01*
X3642359Y5539486D01*
X3642359Y5554979D01*
X3637279Y5580887D01*
X3626865Y5596636D01*
X3611118Y5601715D01*
X3600704Y5601715D01*
X3681729Y5518657D02*
G01*
X3676650Y5513323D01*
X3681729Y5508244D01*
X3687063Y5513323D01*
X3681729Y5518657D01*
X3721354Y5580887D02*
G01*
X3731768Y5586221D01*
X3747261Y5601715D01*
X3747261Y5492750D01*
X286765Y4482337D02*
G01*
X286765Y4409694D01*
X282194Y4395978D01*
X277621Y4391405D01*
X268478Y4386834D01*
X259587Y4386834D01*
X250444Y4391405D01*
X245871Y4395978D01*
X241300Y4409694D01*
X241300Y4418837D01*
X321310Y4459731D02*
G01*
X321310Y4464304D01*
X325881Y4473194D01*
X330454Y4477765D01*
X339597Y4482337D01*
X357631Y4482337D01*
X366776Y4477765D01*
X371347Y4473194D01*
X375920Y4464304D01*
X375920Y4455160D01*
X371347Y4446015D01*
X362204Y4432300D01*
X316737Y4386834D01*
X380492Y4386834D01*
X4533879Y1410698D02*
G01*
X4533879Y1301595D01*
X4533879Y1410698D02*
G01*
X4601420Y1410698D01*
X4533879Y1358745D02*
G01*
X4575444Y1358745D01*
X4533879Y1301595D02*
G01*
X4601420Y1301595D01*
X4635710Y1410698D02*
G01*
X4635710Y1332765D01*
X4640905Y1317180D01*
X4651296Y1306789D01*
X4666884Y1301595D01*
X4677275Y1301595D01*
X4692860Y1306789D01*
X4703251Y1317180D01*
X4708446Y1332765D01*
X4708446Y1410698D01*
X4742736Y1410698D02*
G01*
X4742736Y1301595D01*
X4742736Y1410698D02*
G01*
X4789495Y1410698D01*
X4805083Y1405503D01*
X4810277Y1400307D01*
X4815474Y1389915D01*
X4815474Y1379524D01*
X4810277Y1369133D01*
X4805083Y1363939D01*
X4789495Y1358745D01*
X4742736Y1358745D01*
X4779103Y1358745D02*
G01*
X4815474Y1301595D01*
X4880935Y1410698D02*
G01*
X4870543Y1405503D01*
X4860155Y1395112D01*
X4854958Y1384721D01*
X4849764Y1369133D01*
X4849764Y1343157D01*
X4854958Y1327571D01*
X4860155Y1317180D01*
X4870543Y1306789D01*
X4880935Y1301595D01*
X4901717Y1301595D01*
X4912108Y1306789D01*
X4922499Y1317180D01*
X4927693Y1327571D01*
X4932890Y1343157D01*
X4932890Y1369133D01*
X4927693Y1384721D01*
X4922499Y1395112D01*
X4912108Y1405503D01*
X4901717Y1410698D01*
X4880935Y1410698D01*
X4967180Y1410698D02*
G01*
X4967180Y1301595D01*
X4967180Y1410698D02*
G01*
X5013939Y1410698D01*
X5029525Y1405503D01*
X5034721Y1400307D01*
X5039916Y1389915D01*
X5039916Y1379524D01*
X5034721Y1369133D01*
X5029525Y1363939D01*
X5013939Y1358745D01*
X4967180Y1358745D01*
X5003548Y1358745D02*
G01*
X5039916Y1301595D01*
X5115770Y1410698D02*
G01*
X5074206Y1301595D01*
X5115770Y1410698D02*
G01*
X5157335Y1301595D01*
X5089794Y1337962D02*
G01*
X5141747Y1337962D01*
X5269555Y1384721D02*
G01*
X5264360Y1395112D01*
X5253969Y1405503D01*
X5243578Y1410698D01*
X5222796Y1410698D01*
X5212405Y1405503D01*
X5202013Y1395112D01*
X5196819Y1384721D01*
X5191625Y1369133D01*
X5191625Y1343157D01*
X5196819Y1327571D01*
X5202013Y1317180D01*
X5212405Y1306789D01*
X5222796Y1301595D01*
X5243578Y1301595D01*
X5253969Y1306789D01*
X5264360Y1317180D01*
X5269555Y1327571D01*
X5303845Y1410698D02*
G01*
X5303845Y1301595D01*
X5376583Y1410698D02*
G01*
X5303845Y1337962D01*
X5329824Y1363939D02*
G01*
X5376583Y1301595D01*
X4572010Y1232954D02*
G01*
X4572010Y1123734D01*
X4572010Y1232954D02*
G01*
X4618746Y1232954D01*
X4634240Y1227620D01*
X4639574Y1222540D01*
X4644654Y1212126D01*
X4644654Y1196632D01*
X4639574Y1186218D01*
X4634240Y1180884D01*
X4618746Y1175804D01*
X4572010Y1175804D01*
X4710186Y1232954D02*
G01*
X4699772Y1227620D01*
X4689358Y1217460D01*
X4684278Y1207046D01*
X4678944Y1191298D01*
X4678944Y1165390D01*
X4684278Y1149896D01*
X4689358Y1139482D01*
X4699772Y1129068D01*
X4710186Y1123734D01*
X4731014Y1123734D01*
X4741428Y1129068D01*
X4751842Y1139482D01*
X4756922Y1149896D01*
X4762256Y1165390D01*
X4762256Y1191298D01*
X4756922Y1207046D01*
X4751842Y1217460D01*
X4741428Y1227620D01*
X4731014Y1232954D01*
X4710186Y1232954D01*
X4796546Y1232954D02*
G01*
X4822454Y1123734D01*
X4848362Y1232954D02*
G01*
X4822454Y1123734D01*
X4848362Y1232954D02*
G01*
X4874270Y1123734D01*
X4900432Y1232954D02*
G01*
X4874270Y1123734D01*
X4934722Y1232954D02*
G01*
X4934722Y1123734D01*
X4934722Y1232954D02*
G01*
X5002286Y1232954D01*
X4934722Y1180884D02*
G01*
X4976124Y1180884D01*
X4934722Y1123734D02*
G01*
X5002286Y1123734D01*
X5036576Y1232954D02*
G01*
X5036576Y1123734D01*
X5036576Y1232954D02*
G01*
X5083312Y1232954D01*
X5098806Y1227620D01*
X5103886Y1222540D01*
X5109220Y1212126D01*
X5109220Y1201712D01*
X5103886Y1191298D01*
X5098806Y1186218D01*
X5083312Y1180884D01*
X5036576Y1180884D01*
X5072898Y1180884D02*
G01*
X5109220Y1123734D01*
X5223520Y1232954D02*
G01*
X5223520Y1123734D01*
X5257810Y1232954D02*
G01*
X5257810Y1123734D01*
X5257810Y1232954D02*
G01*
X5330454Y1123734D01*
X5330454Y1232954D02*
G01*
X5330454Y1123734D01*
X4194797Y5790427D02*
G01*
X4149331Y5790427D01*
X4144759Y5749533D01*
X4149331Y5754105D01*
X4162793Y5758677D01*
X4176509Y5758677D01*
X4190225Y5754105D01*
X4199369Y5744961D01*
X4203941Y5731499D01*
X4203941Y5722355D01*
X4199369Y5708639D01*
X4190225Y5699495D01*
X4176509Y5694923D01*
X4162793Y5694923D01*
X4149331Y5699495D01*
X4144759Y5704067D01*
X4140187Y5713211D01*
X4233913Y5790427D02*
G01*
X4270235Y5694923D01*
X4306557Y5790427D02*
G01*
X4270235Y5694923D01*
X3481986Y2793992D02*
G01*
X3481986Y2700474D01*
X2973986Y2793992D02*
G01*
X2973986Y2700474D01*
X2465986Y2793992D02*
G01*
X2465986Y2700474D01*
X1168400Y2011426D02*
G01*
X1266697Y2011426D01*
X1302512Y2055113D02*
G01*
X1313434Y2060447D01*
X1329944Y2076957D01*
X1329944Y1962404D01*
X1371345Y2049526D02*
G01*
X1371345Y2055113D01*
X1376679Y2066036D01*
X1382268Y2071370D01*
X1393189Y2076957D01*
X1415034Y2076957D01*
X1425955Y2071370D01*
X1431289Y2066036D01*
X1436878Y2055113D01*
X1436878Y2044192D01*
X1431289Y2033270D01*
X1420368Y2017013D01*
X1365757Y1962404D01*
X1442212Y1962404D01*
X1478279Y2076957D02*
G01*
X1521968Y1962404D01*
X1565402Y2076957D02*
G01*
X1521968Y1962404D01*
X1250187Y2303526D02*
G01*
X1244854Y2314447D01*
X1233931Y2325370D01*
X1223010Y2330957D01*
X1201165Y2330957D01*
X1190244Y2325370D01*
X1179321Y2314447D01*
X1173734Y2303526D01*
X1168400Y2287270D01*
X1168400Y2260092D01*
X1173734Y2243581D01*
X1179321Y2232660D01*
X1190244Y2221737D01*
X1201165Y2216404D01*
X1223010Y2216404D01*
X1233931Y2221737D01*
X1244854Y2232660D01*
X1250187Y2243581D01*
X1250187Y2260092D01*
X1223010Y2260092D02*
G01*
X1250187Y2260092D01*
X1286255Y2330957D02*
G01*
X1286255Y2216404D01*
X1286255Y2330957D02*
G01*
X1362710Y2216404D01*
X1362710Y2330957D02*
G01*
X1362710Y2216404D01*
X1398523Y2330957D02*
G01*
X1398523Y2216404D01*
X1398523Y2330957D02*
G01*
X1436878Y2330957D01*
X1453134Y2325370D01*
X1464055Y2314447D01*
X1469389Y2303526D01*
X1474978Y2287270D01*
X1474978Y2260092D01*
X1469389Y2243581D01*
X1464055Y2232660D01*
X1453134Y2221737D01*
X1436878Y2216404D01*
X1398523Y2216404D01*
X1250187Y2557526D02*
G01*
X1244854Y2568447D01*
X1233931Y2579370D01*
X1223010Y2584957D01*
X1201165Y2584957D01*
X1190244Y2579370D01*
X1179321Y2568447D01*
X1173734Y2557526D01*
X1168400Y2541270D01*
X1168400Y2514092D01*
X1173734Y2497581D01*
X1179321Y2486660D01*
X1190244Y2475737D01*
X1201165Y2470404D01*
X1223010Y2470404D01*
X1233931Y2475737D01*
X1244854Y2486660D01*
X1250187Y2497581D01*
X1250187Y2514092D01*
X1223010Y2514092D02*
G01*
X1250187Y2514092D01*
X1286255Y2584957D02*
G01*
X1286255Y2470404D01*
X1286255Y2584957D02*
G01*
X1362710Y2470404D01*
X1362710Y2584957D02*
G01*
X1362710Y2470404D01*
X1398523Y2584957D02*
G01*
X1398523Y2470404D01*
X1398523Y2584957D02*
G01*
X1436878Y2584957D01*
X1453134Y2579370D01*
X1464055Y2568447D01*
X1469389Y2557526D01*
X1474978Y2541270D01*
X1474978Y2514092D01*
X1469389Y2497581D01*
X1464055Y2486660D01*
X1453134Y2475737D01*
X1436878Y2470404D01*
X1398523Y2470404D01*
X1250187Y2811526D02*
G01*
X1244854Y2822447D01*
X1233931Y2833370D01*
X1223010Y2838957D01*
X1201165Y2838957D01*
X1190244Y2833370D01*
X1179321Y2822447D01*
X1173734Y2811526D01*
X1168400Y2795270D01*
X1168400Y2768092D01*
X1173734Y2751581D01*
X1179321Y2740660D01*
X1190244Y2729737D01*
X1201165Y2724404D01*
X1223010Y2724404D01*
X1233931Y2729737D01*
X1244854Y2740660D01*
X1250187Y2751581D01*
X1250187Y2768092D01*
X1223010Y2768092D02*
G01*
X1250187Y2768092D01*
X1286255Y2838957D02*
G01*
X1286255Y2724404D01*
X1286255Y2838957D02*
G01*
X1362710Y2724404D01*
X1362710Y2838957D02*
G01*
X1362710Y2724404D01*
X1398523Y2838957D02*
G01*
X1398523Y2724404D01*
X1398523Y2838957D02*
G01*
X1436878Y2838957D01*
X1453134Y2833370D01*
X1464055Y2822447D01*
X1469389Y2811526D01*
X1474978Y2795270D01*
X1474978Y2768092D01*
X1469389Y2751581D01*
X1464055Y2740660D01*
X1453134Y2729737D01*
X1436878Y2724404D01*
X1398523Y2724404D01*
X1217421Y3076447D02*
G01*
X1217421Y2978404D01*
X1168400Y3027426D02*
G01*
X1266697Y3027426D01*
X1302512Y3071113D02*
G01*
X1313434Y3076447D01*
X1329944Y3092957D01*
X1329944Y2978404D01*
X1371345Y3065526D02*
G01*
X1371345Y3071113D01*
X1376679Y3082036D01*
X1382268Y3087370D01*
X1393189Y3092957D01*
X1415034Y3092957D01*
X1425955Y3087370D01*
X1431289Y3082036D01*
X1436878Y3071113D01*
X1436878Y3060192D01*
X1431289Y3049270D01*
X1420368Y3033013D01*
X1365757Y2978404D01*
X1442212Y2978404D01*
X1478279Y3092957D02*
G01*
X1521968Y2978404D01*
X1565402Y3092957D02*
G01*
X1521968Y2978404D01*
X1217421Y3330447D02*
G01*
X1217421Y3232404D01*
X1168400Y3281426D02*
G01*
X1266697Y3281426D01*
X1368044Y3346957D02*
G01*
X1313434Y3346957D01*
X1308100Y3297681D01*
X1313434Y3303270D01*
X1329944Y3308604D01*
X1346200Y3308604D01*
X1362710Y3303270D01*
X1373378Y3292347D01*
X1378965Y3276092D01*
X1378965Y3265170D01*
X1373378Y3248660D01*
X1362710Y3237737D01*
X1346200Y3232404D01*
X1329944Y3232404D01*
X1313434Y3237737D01*
X1308100Y3243326D01*
X1302512Y3254247D01*
X1415034Y3346957D02*
G01*
X1458468Y3232404D01*
X1502155Y3346957D02*
G01*
X1458468Y3232404D01*
X1250187Y3573526D02*
G01*
X1244854Y3584447D01*
X1233931Y3595370D01*
X1223010Y3600957D01*
X1201165Y3600957D01*
X1190244Y3595370D01*
X1179321Y3584447D01*
X1173734Y3573526D01*
X1168400Y3557270D01*
X1168400Y3530092D01*
X1173734Y3513581D01*
X1179321Y3502660D01*
X1190244Y3491737D01*
X1201165Y3486404D01*
X1223010Y3486404D01*
X1233931Y3491737D01*
X1244854Y3502660D01*
X1250187Y3513581D01*
X1286255Y3600957D02*
G01*
X1329944Y3486404D01*
X1373378Y3600957D02*
G01*
X1329944Y3486404D01*
X1250187Y3827526D02*
G01*
X1244854Y3838447D01*
X1233931Y3849370D01*
X1223010Y3854957D01*
X1201165Y3854957D01*
X1190244Y3849370D01*
X1179321Y3838447D01*
X1173734Y3827526D01*
X1168400Y3811270D01*
X1168400Y3784092D01*
X1173734Y3767581D01*
X1179321Y3756660D01*
X1190244Y3745737D01*
X1201165Y3740404D01*
X1223010Y3740404D01*
X1233931Y3745737D01*
X1244854Y3756660D01*
X1250187Y3767581D01*
X1250187Y3784092D01*
X1223010Y3784092D02*
G01*
X1250187Y3784092D01*
X1329944Y3854957D02*
G01*
X1286255Y3740404D01*
X1329944Y3854957D02*
G01*
X1373378Y3740404D01*
X1302512Y3778504D02*
G01*
X1357121Y3778504D01*
X1447800Y3854957D02*
G01*
X1447800Y3740404D01*
X1409445Y3854957D02*
G01*
X1485900Y3854957D01*
X1521968Y3854957D02*
G01*
X1521968Y3740404D01*
X1521968Y3854957D02*
G01*
X1592834Y3854957D01*
X1521968Y3800347D02*
G01*
X1565402Y3800347D01*
X1521968Y3740404D02*
G01*
X1592834Y3740404D01*
X152471Y3004118D02*
G01*
X79827Y3045012D01*
X152471Y3085906D01*
X152471Y3258118D02*
G01*
X79827Y3299012D01*
X152471Y3339906D01*
X152471Y1988118D02*
G01*
X79827Y2029012D01*
X152471Y2069906D01*
X5036565Y5714237D02*
G01*
X5036565Y5641594D01*
X5031993Y5627878D01*
X5027422Y5623305D01*
X5018277Y5618734D01*
X5009388Y5618734D01*
X5000243Y5623305D01*
X4995672Y5627878D01*
X4991100Y5641594D01*
X4991100Y5650737D01*
X5066538Y5696204D02*
G01*
X5075681Y5700776D01*
X5089397Y5714237D01*
X5089397Y5618734D01*
X3873500Y5434837D02*
G01*
X3873500Y5339334D01*
X3873500Y5434837D02*
G01*
X3914393Y5434837D01*
X3928109Y5430265D01*
X3932681Y5425694D01*
X3937254Y5416804D01*
X3937254Y5407660D01*
X3932681Y5398515D01*
X3928109Y5393944D01*
X3914393Y5389371D01*
X3873500Y5389371D01*
X3905250Y5389371D02*
G01*
X3937254Y5339334D01*
X3967225Y5416804D02*
G01*
X3976115Y5421376D01*
X3989831Y5434837D01*
X3989831Y5339334D01*
X3873500Y5625337D02*
G01*
X3873500Y5529834D01*
X3873500Y5625337D02*
G01*
X3905250Y5625337D01*
X3918965Y5620765D01*
X3928109Y5611876D01*
X3932681Y5602731D01*
X3937254Y5589015D01*
X3937254Y5566410D01*
X3932681Y5552694D01*
X3928109Y5543550D01*
X3918965Y5534405D01*
X3905250Y5529834D01*
X3873500Y5529834D01*
X3967225Y5607304D02*
G01*
X3976115Y5611876D01*
X3989831Y5625337D01*
X3989831Y5529834D01*
X4928631Y4509635D02*
G01*
X4928631Y4426323D01*
X4923551Y4410829D01*
X4918471Y4405495D01*
X4908057Y4400415D01*
X4897643Y4400415D01*
X4887229Y4405495D01*
X4881895Y4410829D01*
X4876815Y4426323D01*
X4876815Y4436737D01*
X4973335Y4509635D02*
G01*
X5030485Y4509635D01*
X4999497Y4467979D01*
X5014991Y4467979D01*
X5025405Y4462645D01*
X5030485Y4457565D01*
X5035819Y4442071D01*
X5035819Y4431657D01*
X5030485Y4415909D01*
X5020071Y4405495D01*
X5004577Y4400415D01*
X4989083Y4400415D01*
X4973335Y4405495D01*
X4968255Y4410829D01*
X4962921Y4421243D01*
X3137357Y2843062D02*
G01*
X3147748Y2848259D01*
X3158139Y2858650D01*
X3163333Y2869039D01*
X3163333Y2889821D01*
X3158139Y2900212D01*
X3147748Y2910603D01*
X3137357Y2915800D01*
X3121769Y2920994D01*
X3095792Y2920994D01*
X3080207Y2915800D01*
X3069816Y2910603D01*
X3059424Y2900212D01*
X3054230Y2889821D01*
X3054230Y2869039D01*
X3059424Y2858650D01*
X3069816Y2848259D01*
X3080207Y2843062D01*
X3163333Y2798381D02*
G01*
X3163333Y2741231D01*
X3121769Y2772404D01*
X3121769Y2756819D01*
X3116574Y2746428D01*
X3111380Y2741231D01*
X3095792Y2736037D01*
X3085401Y2736037D01*
X3069816Y2741231D01*
X3059424Y2751622D01*
X3054230Y2767210D01*
X3054230Y2782796D01*
X3059424Y2798381D01*
X3064619Y2803578D01*
X3075010Y2808772D01*
X3098779Y4269374D02*
G01*
X3192297Y4269374D01*
X3226587Y4310936D02*
G01*
X3236978Y4316133D01*
X3252563Y4331718D01*
X3252563Y4222615D01*
X3292050Y4305741D02*
G01*
X3292050Y4310936D01*
X3297245Y4321327D01*
X3302441Y4326524D01*
X3312833Y4331718D01*
X3333615Y4331718D01*
X3344003Y4326524D01*
X3349200Y4321327D01*
X3354395Y4310936D01*
X3354395Y4300545D01*
X3349200Y4290153D01*
X3338809Y4274568D01*
X3286853Y4222615D01*
X3359591Y4222615D01*
X3393881Y4331718D02*
G01*
X3435443Y4222615D01*
X3477008Y4331718D02*
G01*
X3435443Y4222615D01*
X2629357Y2843062D02*
G01*
X2639748Y2848259D01*
X2650139Y2858650D01*
X2655333Y2869039D01*
X2655333Y2889821D01*
X2650139Y2900212D01*
X2639748Y2910603D01*
X2629357Y2915800D01*
X2613769Y2920994D01*
X2587792Y2920994D01*
X2572207Y2915800D01*
X2561816Y2910603D01*
X2551424Y2900212D01*
X2546230Y2889821D01*
X2546230Y2869039D01*
X2551424Y2858650D01*
X2561816Y2848259D01*
X2572207Y2843062D01*
X2629357Y2803578D02*
G01*
X2634551Y2803578D01*
X2644942Y2798381D01*
X2650139Y2793187D01*
X2655333Y2782796D01*
X2655333Y2762013D01*
X2650139Y2751622D01*
X2644942Y2746428D01*
X2634551Y2741231D01*
X2624160Y2741231D01*
X2613769Y2746428D01*
X2598183Y2756819D01*
X2546230Y2808772D01*
X2546230Y2736037D01*
X2637553Y4316145D02*
G01*
X2637553Y4222628D01*
X2590794Y4269386D02*
G01*
X2684312Y4269386D01*
X2718602Y4310948D02*
G01*
X2728993Y4316145D01*
X2744579Y4331731D01*
X2744579Y4222628D01*
X2784066Y4305754D02*
G01*
X2784066Y4310948D01*
X2789260Y4321340D01*
X2794457Y4326536D01*
X2804848Y4331731D01*
X2825630Y4331731D01*
X2836019Y4326536D01*
X2841216Y4321340D01*
X2846410Y4310948D01*
X2846410Y4300557D01*
X2841216Y4290166D01*
X2830824Y4274581D01*
X2778869Y4222628D01*
X2851607Y4222628D01*
X2885897Y4331731D02*
G01*
X2927459Y4222628D01*
X2969023Y4331731D02*
G01*
X2927459Y4222628D01*
X2154953Y4316145D02*
G01*
X2154953Y4222628D01*
X2108194Y4269386D02*
G01*
X2201712Y4269386D01*
X2298349Y4331731D02*
G01*
X2246393Y4331731D01*
X2241199Y4284972D01*
X2246393Y4290166D01*
X2261979Y4295363D01*
X2277567Y4295363D01*
X2293152Y4290166D01*
X2303543Y4279778D01*
X2308740Y4264190D01*
X2308740Y4253798D01*
X2303543Y4238213D01*
X2293152Y4227822D01*
X2277567Y4222628D01*
X2261979Y4222628D01*
X2246393Y4227822D01*
X2241199Y4233016D01*
X2236002Y4243407D01*
X2343030Y4331731D02*
G01*
X2384592Y4222628D01*
X2426157Y4331731D02*
G01*
X2384592Y4222628D01*
X2121357Y2843062D02*
G01*
X2131748Y2848259D01*
X2142139Y2858650D01*
X2147333Y2869039D01*
X2147333Y2889821D01*
X2142139Y2900212D01*
X2131748Y2910603D01*
X2121357Y2915800D01*
X2105769Y2920994D01*
X2079792Y2920994D01*
X2064207Y2915800D01*
X2053816Y2910603D01*
X2043424Y2900212D01*
X2038230Y2889821D01*
X2038230Y2869039D01*
X2043424Y2858650D01*
X2053816Y2848259D01*
X2064207Y2843062D01*
X2126551Y2808772D02*
G01*
X2131748Y2798381D01*
X2147333Y2782796D01*
X2038230Y2782796D01*
X3366515Y4063984D02*
G01*
X3257550Y4063984D01*
X3366515Y4063984D02*
G01*
X3366515Y4017248D01*
X3361436Y4001754D01*
X3356102Y3996420D01*
X3345688Y3991340D01*
X3335274Y3991340D01*
X3324859Y3996420D01*
X3319779Y4001754D01*
X3314700Y4017248D01*
X3314700Y4063984D01*
X3314700Y4027662D02*
G01*
X3257550Y3991340D01*
X3366515Y3904980D02*
G01*
X3293872Y3957050D01*
X3293872Y3879072D01*
X3366515Y3904980D02*
G01*
X3257550Y3904980D01*
X2858518Y4063987D02*
G01*
X2749552Y4063987D01*
X2858518Y4063987D02*
G01*
X2858518Y4017251D01*
X2853438Y4001757D01*
X2848104Y3996423D01*
X2837690Y3991343D01*
X2827276Y3991343D01*
X2816862Y3996423D01*
X2811782Y4001757D01*
X2806702Y4017251D01*
X2806702Y4063987D01*
X2806702Y4027665D02*
G01*
X2749552Y3991343D01*
X2858518Y3946639D02*
G01*
X2858518Y3889489D01*
X2816862Y3920477D01*
X2816862Y3904983D01*
X2811782Y3894569D01*
X2806702Y3889489D01*
X2790954Y3884155D01*
X2780540Y3884155D01*
X2765046Y3889489D01*
X2754632Y3899903D01*
X2749552Y3915397D01*
X2749552Y3930891D01*
X2754632Y3946639D01*
X2759712Y3951719D01*
X2770126Y3957053D01*
X2350518Y4063987D02*
G01*
X2241552Y4063987D01*
X2350518Y4063987D02*
G01*
X2350518Y4017251D01*
X2345438Y4001757D01*
X2340104Y3996423D01*
X2329690Y3991343D01*
X2319276Y3991343D01*
X2308862Y3996423D01*
X2303782Y4001757D01*
X2298702Y4017251D01*
X2298702Y4063987D01*
X2298702Y4027665D02*
G01*
X2241552Y3991343D01*
X2324610Y3951719D02*
G01*
X2329690Y3951719D01*
X2340104Y3946639D01*
X2345438Y3941305D01*
X2350518Y3930891D01*
X2350518Y3910317D01*
X2345438Y3899903D01*
X2340104Y3894569D01*
X2329690Y3889489D01*
X2319276Y3889489D01*
X2308862Y3894569D01*
X2293368Y3904983D01*
X2241552Y3957053D01*
X2241552Y3884155D01*
G36*
X3446830Y3000502D02*
G01*
X3446830Y2954782D01*
X3532225Y2954782D01*
X3532225Y3000502D01*
G37*
G36*
X3071774Y3000502D02*
G01*
X3071774Y2954782D01*
X3157169Y2954782D01*
X3157169Y3000502D01*
G37*
G36*
X2938830Y3000502D02*
G01*
X2938830Y2954782D01*
X3024225Y2954782D01*
X3024225Y3000502D01*
G37*
G36*
X2563774Y3000502D02*
G01*
X2563774Y2954782D01*
X2649169Y2954782D01*
X2649169Y3000502D01*
G37*
G36*
X2430830Y3000502D02*
G01*
X2430830Y2954782D01*
X2516225Y2954782D01*
X2516225Y3000502D01*
G37*
G36*
X2055774Y3000502D02*
G01*
X2055774Y2954782D01*
X2141169Y2954782D01*
X2141169Y3000502D01*
G37*
G36*
X3493719Y2766974D02*
G01*
X3493719Y2736494D01*
X3523234Y2736494D01*
X3523234Y2766974D01*
G37*
G36*
X3334765Y2766974D02*
G01*
X3334765Y2736494D01*
X3364229Y2736494D01*
X3364229Y2766974D01*
G37*
G36*
X2985719Y2766974D02*
G01*
X2985719Y2736494D01*
X3015234Y2736494D01*
X3015234Y2766974D01*
G37*
G36*
X2826766Y2766974D02*
G01*
X2826766Y2736494D01*
X2856230Y2736494D01*
X2856230Y2766974D01*
G37*
G36*
X2477719Y2766974D02*
G01*
X2477719Y2736494D01*
X2507234Y2736494D01*
X2507234Y2766974D01*
G37*
G36*
X2318766Y2766974D02*
G01*
X2318766Y2736494D01*
X2348230Y2736494D01*
X2348230Y2766974D01*
G37*
D11*
X3555987Y4190994D02*
G01*
X3555987Y1650994D01*
X3047987Y1650994D01*
X3047987Y4190994D01*
X3555987Y4190994D01*
X3047987Y4190994D02*
G01*
X3047987Y1650994D01*
X2539987Y1650994D01*
X2539987Y4190994D01*
X3047987Y4190994D01*
X2793987Y1650994D02*
G01*
X3301987Y1650994D01*
X2539987Y4190994D02*
G01*
X2539987Y1650994D01*
X2031987Y1650994D01*
X2031987Y4190994D01*
X2539987Y4190994D01*
X3683000Y5461000D02*
G01*
X3683000Y5207000D01*
X3175000Y5207000D01*
X3175000Y5461000D01*
X3683000Y5461000D01*
X3683000Y5207000D01*
X4074038Y5291587D02*
G01*
X4074038Y5451591D01*
X4384095Y5292097D02*
G01*
X4384095Y5452102D01*
X4199034Y5451591D02*
G01*
X4074038Y5451591D01*
X4199034Y5291587D02*
G01*
X4074038Y5291587D01*
X4259092Y5452102D02*
G01*
X4384095Y5452102D01*
X4259092Y5292097D02*
G01*
X4384095Y5292097D01*
D12*
X4246100Y5575523D02*
G01*
X4212099Y5575523D01*
X4054093Y5540296D02*
G01*
X4054093Y5530293D01*
X4084088Y5500291D01*
X4269094Y5650298D02*
G01*
X4384095Y5650298D01*
X4269094Y5500291D02*
G01*
X4384095Y5500291D01*
X4189095Y5650298D02*
G01*
X4084088Y5650298D01*
X4189095Y5500291D02*
G01*
X4084088Y5500291D01*
X4384095Y5650285D02*
G01*
X4384095Y5502295D01*
X4054093Y5610288D02*
G01*
X4054093Y5540296D01*
X4054093Y5610288D02*
G01*
X4054093Y5620303D01*
X4084088Y5650298D01*
X4246100Y5610296D02*
G01*
X4246100Y5542297D01*
D11*
X4512990Y1525000D02*
G01*
X4512990Y4316991D01*
X4512990Y4316989D02*
G01*
X5392988Y4316991D01*
X5392988Y4316991D02*
G01*
X5392988Y1525000D01*
X5392988Y1525000D02*
G01*
X4512990Y1525000D01*
X5384789Y2666994D02*
G01*
X5257789Y2666994D01*
X5257789Y3174994D01*
X5384789Y3174994D01*
X5333989Y1574794D02*
G01*
X4571989Y1574794D01*
X4571989Y4267194D01*
X5333989Y4267194D01*
X5333989Y3174994D01*
X5333989Y2666994D02*
G01*
X5333989Y1574794D01*
X5335117Y1668018D02*
G01*
X5181589Y1752594D01*
X5335117Y1845818D01*
D13*
X3122216Y1752592D02*
G01*
X3477816Y1752592D01*
X3124192Y2311392D02*
G01*
X3479792Y2311392D01*
D10*
X3505192Y1904992D02*
G01*
X3505192Y1777992D01*
X3505192Y2158992D02*
G01*
X3505192Y2285992D01*
X3098792Y1777992D02*
G01*
X3098792Y1908497D01*
X3098792Y2285992D02*
G01*
X3098792Y2158992D01*
X3524613Y3738115D02*
G01*
X3524613Y2992869D01*
X3079371Y3738115D02*
G01*
X3079371Y2992869D01*
X3524613Y3145066D02*
G01*
X3079371Y3145066D01*
X3524613Y3738115D02*
G01*
X3451910Y3738115D01*
X3079371Y3738115D02*
G01*
X3152073Y3738115D01*
D12*
X3175215Y3983492D02*
G01*
X3175215Y4017492D01*
X3139988Y4175498D02*
G01*
X3129986Y4175498D01*
X3099983Y4145503D01*
X3249990Y3960497D02*
G01*
X3249990Y3845496D01*
X3099983Y3960497D02*
G01*
X3099983Y3845496D01*
X3249990Y4040497D02*
G01*
X3249990Y4145503D01*
X3099983Y4040497D02*
G01*
X3099983Y4145503D01*
X3249978Y3845496D02*
G01*
X3101987Y3845496D01*
X3209980Y4175498D02*
G01*
X3139988Y4175498D01*
X3209980Y4175498D02*
G01*
X3219996Y4175498D01*
X3249990Y4145503D01*
X3209988Y3983492D02*
G01*
X3141990Y3983492D01*
D13*
X2614216Y1752592D02*
G01*
X2969816Y1752592D01*
X2616192Y2311392D02*
G01*
X2971792Y2311392D01*
D10*
X2997192Y1904992D02*
G01*
X2997192Y1777992D01*
X2997192Y2158992D02*
G01*
X2997192Y2285992D01*
X2590792Y1777992D02*
G01*
X2590792Y1908497D01*
X2590792Y2285992D02*
G01*
X2590792Y2158992D01*
X3016613Y3738115D02*
G01*
X3016613Y2992869D01*
X2571371Y3738115D02*
G01*
X2571371Y2992869D01*
X3016613Y3145066D02*
G01*
X2571371Y3145066D01*
X3016613Y3738115D02*
G01*
X2943910Y3738115D01*
X2571371Y3738115D02*
G01*
X2644073Y3738115D01*
D12*
X2666768Y4017492D02*
G01*
X2666768Y3983492D01*
X2701996Y3825486D02*
G01*
X2711998Y3825486D01*
X2742001Y3855481D01*
X2591993Y4040487D02*
G01*
X2591993Y4155488D01*
X2742001Y4040487D02*
G01*
X2742001Y4155488D01*
X2591993Y3960487D02*
G01*
X2591993Y3855481D01*
X2742001Y3960487D02*
G01*
X2742001Y3855481D01*
X2592006Y4155488D02*
G01*
X2739997Y4155488D01*
X2632003Y3825486D02*
G01*
X2701996Y3825486D01*
X2632003Y3825486D02*
G01*
X2621988Y3825486D01*
X2591993Y3855481D01*
X2631996Y4017492D02*
G01*
X2699994Y4017492D01*
X2158768Y4017492D02*
G01*
X2158768Y3983492D01*
X2193996Y3825486D02*
G01*
X2203998Y3825486D01*
X2234001Y3855481D01*
X2083993Y4040487D02*
G01*
X2083993Y4155488D01*
X2234001Y4040487D02*
G01*
X2234001Y4155488D01*
X2083993Y3960487D02*
G01*
X2083993Y3855481D01*
X2234001Y3960487D02*
G01*
X2234001Y3855481D01*
X2084006Y4155488D02*
G01*
X2231997Y4155488D01*
X2124003Y3825486D02*
G01*
X2193996Y3825486D01*
X2124003Y3825486D02*
G01*
X2113988Y3825486D01*
X2083993Y3855481D01*
X2123996Y4017492D02*
G01*
X2191994Y4017492D01*
D10*
X2508613Y3738115D02*
G01*
X2508613Y2992869D01*
X2063371Y3738115D02*
G01*
X2063371Y2992869D01*
X2508613Y3145066D02*
G01*
X2063371Y3145066D01*
X2508613Y3738115D02*
G01*
X2435910Y3738115D01*
X2063371Y3738115D02*
G01*
X2136073Y3738115D01*
D13*
X2106216Y1752592D02*
G01*
X2461816Y1752592D01*
X2108192Y2311392D02*
G01*
X2463792Y2311392D01*
D10*
X2489192Y1904992D02*
G01*
X2489192Y1777992D01*
X2489192Y2158992D02*
G01*
X2489192Y2285992D01*
X2082792Y1777992D02*
G01*
X2082792Y1908497D01*
X2082792Y2285992D02*
G01*
X2082792Y2158992D01*
X3362932Y3957871D02*
G01*
X3362932Y3861983D01*
X3495052Y3861983D01*
X3495052Y3957871D01*
X3362932Y4043113D02*
G01*
X3362932Y4139001D01*
X3495052Y4139001D01*
X3495052Y4043113D01*
X2854932Y3957871D02*
G01*
X2854932Y3861983D01*
X2987052Y3861983D01*
X2987052Y3957871D01*
X2854932Y4043113D02*
G01*
X2854932Y4139001D01*
X2987052Y4139001D01*
X2987052Y4043113D01*
X2346932Y3957871D02*
G01*
X2346932Y3861983D01*
X2479052Y3861983D01*
X2479052Y3957871D01*
X2346932Y4043113D02*
G01*
X2346932Y4139001D01*
X2479052Y4139001D01*
X2479052Y4043113D01*
X3515611Y2744111D02*
G01*
X3515611Y2462872D01*
X3515611Y2462872D02*
G01*
X3498811Y2462872D01*
X3342373Y2744111D02*
G01*
X3342373Y2462872D01*
X3342373Y2462872D02*
G01*
X3359172Y2462872D01*
X3515611Y2708422D02*
G01*
X3342373Y2708422D01*
X3007611Y2744111D02*
G01*
X3007611Y2462872D01*
X3007611Y2462872D02*
G01*
X2990811Y2462872D01*
X2834373Y2744111D02*
G01*
X2834373Y2462872D01*
X2834373Y2462872D02*
G01*
X2851172Y2462872D01*
X3007611Y2708422D02*
G01*
X2834373Y2708422D01*
X2499611Y2744111D02*
G01*
X2499611Y2462872D01*
X2499611Y2462872D02*
G01*
X2482811Y2462872D01*
X2326373Y2744111D02*
G01*
X2326373Y2462872D01*
X2326373Y2462872D02*
G01*
X2343172Y2462872D01*
X2499611Y2708422D02*
G01*
X2326373Y2708422D01*
D11*
X3276579Y2582118D02*
G01*
X3276579Y2696418D01*
X3276579Y2709118D01*
X3251179Y2734518D01*
X3111479Y2734518D01*
X3098779Y2734518D01*
X3073379Y2709118D01*
X3073379Y2582118D01*
X3073379Y2505918D02*
G01*
X3073379Y2391618D01*
X3073379Y2378918D01*
X3098779Y2353518D01*
X3238479Y2353518D01*
X3251179Y2353518D01*
X3276579Y2378918D01*
X3276579Y2505918D01*
X2768579Y2582118D02*
G01*
X2768579Y2696418D01*
X2768579Y2709118D01*
X2743179Y2734518D01*
X2603479Y2734518D01*
X2590779Y2734518D01*
X2565379Y2709118D01*
X2565379Y2582118D01*
X2565379Y2505918D02*
G01*
X2565379Y2391618D01*
X2565379Y2378918D01*
X2590779Y2353518D01*
X2730479Y2353518D01*
X2743179Y2353518D01*
X2768579Y2378918D01*
X2768579Y2505918D01*
X2260579Y2582118D02*
G01*
X2260579Y2696418D01*
X2260579Y2709118D01*
X2235179Y2734518D01*
X2095479Y2734518D01*
X2082779Y2734518D01*
X2057379Y2709118D01*
X2057379Y2582118D01*
X2057379Y2505918D02*
G01*
X2057379Y2391618D01*
X2057379Y2378918D01*
X2082779Y2353518D01*
X2222479Y2353518D01*
X2235179Y2353518D01*
X2260579Y2378918D01*
X2260579Y2505918D01*
D13*
G75*
G01*
X3301992Y1701792D02*
G02*
X3365492Y1701792I31750J0D01*
G75*
G01*
X3301992Y1701792D02*
G02*
X3238492Y1701792I-31750J0D01*
G75*
G01*
X2793992Y1701792D02*
G02*
X2857492Y1701792I31750J0D01*
G75*
G01*
X2793992Y1701792D02*
G02*
X2730492Y1701792I-31750J0D01*
G75*
G01*
X2285992Y1701792D02*
G02*
X2349492Y1701792I31750J0D01*
G75*
G01*
X2285992Y1701792D02*
G02*
X2222492Y1701792I-31750J0D01*
D11*
X235407Y4343704D02*
G01*
X1085418Y4343704D01*
X1085418Y1493697D01*
X235407Y1493697D01*
X235407Y4343704D01*
X4445000Y5715000D02*
G01*
X4953000Y5715000D01*
X4953000Y5207000D01*
X4445000Y5207000D01*
X4445000Y5715000D01*
M02*
