G04 Layer: TopSilkscreenLayer*
G04 EasyEDA v6.5.34, 2023-08-21 18:11:39*
G04 170543c9dcd043ffafcefd08752301e1,5a6b42c53f6a479593ecc07194224c93,10*
G04 Gerber Generator version 0.2*
G04 Scale: 100 percent, Rotated: No, Reflected: No *
G04 Dimensions in millimeters *
G04 leading zeros omitted , absolute positions ,4 integer and 5 decimal *
%FSLAX45Y45*%
%MOMM*%

%ADD10C,0.1524*%

%LPD*%
D10*
X2610403Y1473197D02*
G01*
X2495849Y1473197D01*
X2610403Y1473197D02*
G01*
X2495849Y1396743D01*
X2610403Y1396743D02*
G01*
X2495849Y1396743D01*
X2582971Y1279141D02*
G01*
X2593893Y1284475D01*
X2604815Y1295397D01*
X2610403Y1306319D01*
X2610403Y1328163D01*
X2604815Y1339085D01*
X2593893Y1350007D01*
X2582971Y1355341D01*
X2566715Y1360929D01*
X2539283Y1360929D01*
X2523027Y1355341D01*
X2512105Y1350007D01*
X2501183Y1339085D01*
X2495849Y1328163D01*
X2495849Y1306319D01*
X2501183Y1295397D01*
X2512105Y1284475D01*
X2523027Y1279141D01*
X3372401Y1765292D02*
G01*
X3257847Y1765292D01*
X3257847Y1765292D02*
G01*
X3257847Y1699760D01*
X3372401Y1663946D02*
G01*
X3257847Y1663946D01*
X3372401Y1663946D02*
G01*
X3372401Y1592826D01*
X3317791Y1663946D02*
G01*
X3317791Y1620258D01*
X3257847Y1663946D02*
G01*
X3257847Y1592826D01*
X3372401Y1557012D02*
G01*
X3257847Y1557012D01*
X3372401Y1557012D02*
G01*
X3372401Y1518658D01*
X3366813Y1502402D01*
X3355891Y1491480D01*
X3344969Y1486146D01*
X3328713Y1480558D01*
X3301281Y1480558D01*
X3285025Y1486146D01*
X3274103Y1491480D01*
X3263181Y1502402D01*
X3257847Y1518658D01*
X3257847Y1557012D01*
X3372401Y1316982D02*
G01*
X3257847Y1360670D01*
X3372401Y1316982D02*
G01*
X3257847Y1273294D01*
X3295947Y1344160D02*
G01*
X3295947Y1289550D01*
X2077471Y1332755D02*
G01*
X2077471Y1260109D01*
X2072899Y1246393D01*
X2068327Y1241823D01*
X2059183Y1237249D01*
X2050293Y1237249D01*
X2041149Y1241823D01*
X2036577Y1246393D01*
X2032005Y1260109D01*
X2032005Y1269255D01*
X2112015Y1310147D02*
G01*
X2112015Y1314721D01*
X2116587Y1323609D01*
X2121159Y1328181D01*
X2130303Y1332755D01*
X2148337Y1332755D01*
X2157481Y1328181D01*
X2162053Y1323609D01*
X2166625Y1314721D01*
X2166625Y1305577D01*
X2162053Y1296431D01*
X2152909Y1282715D01*
X2107443Y1237249D01*
X2171197Y1237249D01*
X2864403Y1473197D02*
G01*
X2749849Y1473197D01*
X2864403Y1473197D02*
G01*
X2749849Y1396743D01*
X2864403Y1396743D02*
G01*
X2749849Y1396743D01*
X2836971Y1279141D02*
G01*
X2847893Y1284475D01*
X2858815Y1295397D01*
X2864403Y1306319D01*
X2864403Y1328163D01*
X2858815Y1339085D01*
X2847893Y1350007D01*
X2836971Y1355341D01*
X2820715Y1360929D01*
X2793283Y1360929D01*
X2777027Y1355341D01*
X2766105Y1350007D01*
X2755183Y1339085D01*
X2749849Y1328163D01*
X2749849Y1306319D01*
X2755183Y1295397D01*
X2766105Y1284475D01*
X2777027Y1279141D01*
X3118403Y1473197D02*
G01*
X3003849Y1473197D01*
X3118403Y1473197D02*
G01*
X3003849Y1396743D01*
X3118403Y1396743D02*
G01*
X3003849Y1396743D01*
X3090971Y1279141D02*
G01*
X3101893Y1284475D01*
X3112815Y1295397D01*
X3118403Y1306319D01*
X3118403Y1328163D01*
X3112815Y1339085D01*
X3101893Y1350007D01*
X3090971Y1355341D01*
X3074715Y1360929D01*
X3047283Y1360929D01*
X3031027Y1355341D01*
X3020105Y1350007D01*
X3009183Y1339085D01*
X3003849Y1328163D01*
X3003849Y1306319D01*
X3009183Y1295397D01*
X3020105Y1284475D01*
X3031027Y1279141D01*
X774692Y5703308D02*
G01*
X774692Y5594342D01*
X774692Y5703308D02*
G01*
X821428Y5703308D01*
X836922Y5698228D01*
X842256Y5692894D01*
X847336Y5682480D01*
X847336Y5666986D01*
X842256Y5656572D01*
X836922Y5651492D01*
X821428Y5646158D01*
X774692Y5646158D01*
X881626Y5703308D02*
G01*
X881626Y5594342D01*
X881626Y5703308D02*
G01*
X928362Y5703308D01*
X944110Y5698228D01*
X949190Y5692894D01*
X954524Y5682480D01*
X954524Y5672066D01*
X949190Y5661652D01*
X944110Y5656572D01*
X928362Y5651492D01*
X881626Y5651492D01*
X918202Y5651492D02*
G01*
X954524Y5594342D01*
X1019802Y5703308D02*
G01*
X1009642Y5698228D01*
X999228Y5687814D01*
X993894Y5677400D01*
X988814Y5661652D01*
X988814Y5635744D01*
X993894Y5620250D01*
X999228Y5609836D01*
X1009642Y5599422D01*
X1019802Y5594342D01*
X1040630Y5594342D01*
X1051044Y5599422D01*
X1061458Y5609836D01*
X1066792Y5620250D01*
X1071872Y5635744D01*
X1071872Y5661652D01*
X1066792Y5677400D01*
X1061458Y5687814D01*
X1051044Y5698228D01*
X1040630Y5703308D01*
X1019802Y5703308D01*
X1142484Y5703308D02*
G01*
X1142484Y5594342D01*
X1106162Y5703308D02*
G01*
X1178806Y5703308D01*
X1244338Y5703308D02*
G01*
X1233924Y5698228D01*
X1223510Y5687814D01*
X1218430Y5677400D01*
X1213096Y5661652D01*
X1213096Y5635744D01*
X1218430Y5620250D01*
X1223510Y5609836D01*
X1233924Y5599422D01*
X1244338Y5594342D01*
X1265166Y5594342D01*
X1275580Y5599422D01*
X1285994Y5609836D01*
X1291074Y5620250D01*
X1296408Y5635744D01*
X1296408Y5661652D01*
X1291074Y5677400D01*
X1285994Y5687814D01*
X1275580Y5698228D01*
X1265166Y5703308D01*
X1244338Y5703308D01*
X1330698Y5703308D02*
G01*
X1330698Y5594342D01*
X1330698Y5703308D02*
G01*
X1403342Y5594342D01*
X1403342Y5703308D02*
G01*
X1403342Y5594342D01*
X1437632Y5703308D02*
G01*
X1437632Y5594342D01*
X1437632Y5703308D02*
G01*
X1505196Y5703308D01*
X1437632Y5651492D02*
G01*
X1479288Y5651492D01*
X1437632Y5594342D02*
G01*
X1505196Y5594342D01*
X1539486Y5703308D02*
G01*
X1539486Y5594342D01*
X1539486Y5703308D02*
G01*
X1581142Y5594342D01*
X1622544Y5703308D02*
G01*
X1581142Y5594342D01*
X1622544Y5703308D02*
G01*
X1622544Y5594342D01*
X1698490Y5703308D02*
G01*
X1656834Y5594342D01*
X1698490Y5703308D02*
G01*
X1739892Y5594342D01*
X1672582Y5630664D02*
G01*
X1724398Y5630664D01*
X1927090Y5687814D02*
G01*
X1916676Y5698228D01*
X1901182Y5703308D01*
X1880354Y5703308D01*
X1864606Y5698228D01*
X1854192Y5687814D01*
X1854192Y5677400D01*
X1859526Y5666986D01*
X1864606Y5661652D01*
X1875020Y5656572D01*
X1906262Y5646158D01*
X1916676Y5641078D01*
X1921756Y5635744D01*
X1927090Y5625330D01*
X1927090Y5609836D01*
X1916676Y5599422D01*
X1901182Y5594342D01*
X1880354Y5594342D01*
X1864606Y5599422D01*
X1854192Y5609836D01*
X1997702Y5703308D02*
G01*
X1997702Y5594342D01*
X1961380Y5703308D02*
G01*
X2034024Y5703308D01*
X2109970Y5703308D02*
G01*
X2068314Y5594342D01*
X2109970Y5703308D02*
G01*
X2151372Y5594342D01*
X2084062Y5630664D02*
G01*
X2135878Y5630664D01*
X2185662Y5703308D02*
G01*
X2185662Y5594342D01*
X2185662Y5703308D02*
G01*
X2227318Y5594342D01*
X2268974Y5703308D02*
G01*
X2227318Y5594342D01*
X2268974Y5703308D02*
G01*
X2268974Y5594342D01*
X2303264Y5703308D02*
G01*
X2303264Y5594342D01*
X2303264Y5703308D02*
G01*
X2350000Y5703308D01*
X2365494Y5698228D01*
X2370828Y5692894D01*
X2375908Y5682480D01*
X2375908Y5666986D01*
X2370828Y5656572D01*
X2365494Y5651492D01*
X2350000Y5646158D01*
X2303264Y5646158D01*
X774692Y5512859D02*
G01*
X774692Y5403639D01*
X774692Y5512859D02*
G01*
X821428Y5512859D01*
X836922Y5507525D01*
X842256Y5502445D01*
X847336Y5492031D01*
X847336Y5481617D01*
X842256Y5471203D01*
X836922Y5466123D01*
X821428Y5460789D01*
X774692Y5460789D01*
X811014Y5460789D02*
G01*
X847336Y5403639D01*
X959604Y5486951D02*
G01*
X954524Y5497365D01*
X944110Y5507525D01*
X933696Y5512859D01*
X912868Y5512859D01*
X902454Y5507525D01*
X892040Y5497365D01*
X886960Y5486951D01*
X881626Y5471203D01*
X881626Y5445295D01*
X886960Y5429801D01*
X892040Y5419387D01*
X902454Y5408973D01*
X912868Y5403639D01*
X933696Y5403639D01*
X944110Y5408973D01*
X954524Y5419387D01*
X959604Y5429801D01*
X959604Y5445295D01*
X933696Y5445295D02*
G01*
X959604Y5445295D01*
X993894Y5512859D02*
G01*
X993894Y5403639D01*
X993894Y5512859D02*
G01*
X1040630Y5512859D01*
X1056378Y5507525D01*
X1061458Y5502445D01*
X1066792Y5492031D01*
X1066792Y5481617D01*
X1061458Y5471203D01*
X1056378Y5466123D01*
X1040630Y5460789D01*
X993894Y5460789D02*
G01*
X1040630Y5460789D01*
X1056378Y5455709D01*
X1061458Y5450375D01*
X1066792Y5440215D01*
X1066792Y5424467D01*
X1061458Y5414053D01*
X1056378Y5408973D01*
X1040630Y5403639D01*
X993894Y5403639D01*
X1181092Y5512859D02*
G01*
X1181092Y5403639D01*
X1181092Y5512859D02*
G01*
X1222494Y5403639D01*
X1264150Y5512859D02*
G01*
X1222494Y5403639D01*
X1264150Y5512859D02*
G01*
X1264150Y5403639D01*
X1339842Y5512859D02*
G01*
X1298440Y5403639D01*
X1339842Y5512859D02*
G01*
X1381498Y5403639D01*
X1313934Y5440215D02*
G01*
X1366004Y5440215D01*
X1452110Y5512859D02*
G01*
X1452110Y5403639D01*
X1415788Y5512859D02*
G01*
X1488432Y5512859D01*
X1522722Y5512859D02*
G01*
X1522722Y5403639D01*
X1522722Y5512859D02*
G01*
X1569712Y5512859D01*
X1585206Y5507525D01*
X1590286Y5502445D01*
X1595620Y5492031D01*
X1595620Y5481617D01*
X1590286Y5471203D01*
X1585206Y5466123D01*
X1569712Y5460789D01*
X1522722Y5460789D01*
X1559298Y5460789D02*
G01*
X1595620Y5403639D01*
X1629910Y5512859D02*
G01*
X1629910Y5403639D01*
X1664200Y5512859D02*
G01*
X1736844Y5403639D01*
X1736844Y5512859D02*
G01*
X1664200Y5403639D01*
X1851144Y5512859D02*
G01*
X1851144Y5403639D01*
X1851144Y5512859D02*
G01*
X1918708Y5512859D01*
X1851144Y5460789D02*
G01*
X1892800Y5460789D01*
X1952998Y5512859D02*
G01*
X1952998Y5403639D01*
X1952998Y5512859D02*
G01*
X1999734Y5512859D01*
X2015482Y5507525D01*
X2020562Y5502445D01*
X2025642Y5492031D01*
X2025642Y5481617D01*
X2020562Y5471203D01*
X2015482Y5466123D01*
X1999734Y5460789D01*
X1952998Y5460789D01*
X1989320Y5460789D02*
G01*
X2025642Y5403639D01*
X2091174Y5512859D02*
G01*
X2080760Y5507525D01*
X2070346Y5497365D01*
X2065266Y5486951D01*
X2059932Y5471203D01*
X2059932Y5445295D01*
X2065266Y5429801D01*
X2070346Y5419387D01*
X2080760Y5408973D01*
X2091174Y5403639D01*
X2112002Y5403639D01*
X2122416Y5408973D01*
X2132830Y5419387D01*
X2137910Y5429801D01*
X2143244Y5445295D01*
X2143244Y5471203D01*
X2137910Y5486951D01*
X2132830Y5497365D01*
X2122416Y5507525D01*
X2112002Y5512859D01*
X2091174Y5512859D01*
X2177534Y5512859D02*
G01*
X2177534Y5403639D01*
X2177534Y5512859D02*
G01*
X2250178Y5403639D01*
X2250178Y5512859D02*
G01*
X2250178Y5403639D01*
X2320790Y5512859D02*
G01*
X2320790Y5403639D01*
X2284468Y5512859D02*
G01*
X2357112Y5512859D01*
X2471412Y5512859D02*
G01*
X2471412Y5403639D01*
X2471412Y5512859D02*
G01*
X2518402Y5512859D01*
X2533896Y5507525D01*
X2538976Y5502445D01*
X2544310Y5492031D01*
X2544310Y5476537D01*
X2538976Y5466123D01*
X2533896Y5460789D01*
X2518402Y5455709D01*
X2471412Y5455709D01*
X2620002Y5512859D02*
G01*
X2578600Y5403639D01*
X2620002Y5512859D02*
G01*
X2661658Y5403639D01*
X2594094Y5440215D02*
G01*
X2646164Y5440215D01*
X2695948Y5512859D02*
G01*
X2695948Y5403639D01*
X2695948Y5512859D02*
G01*
X2768592Y5403639D01*
X2768592Y5512859D02*
G01*
X2768592Y5403639D01*
X2802882Y5512859D02*
G01*
X2802882Y5403639D01*
X2802882Y5512859D02*
G01*
X2870446Y5512859D01*
X2802882Y5460789D02*
G01*
X2844538Y5460789D01*
X2802882Y5403639D02*
G01*
X2870446Y5403639D01*
X2904736Y5512859D02*
G01*
X2904736Y5403639D01*
X2904736Y5403639D02*
G01*
X2967220Y5403639D01*
X774692Y5322359D02*
G01*
X774692Y5213139D01*
X774692Y5322359D02*
G01*
X821428Y5322359D01*
X836922Y5317025D01*
X842256Y5311945D01*
X847336Y5301531D01*
X847336Y5286037D01*
X842256Y5275623D01*
X836922Y5270289D01*
X821428Y5265209D01*
X774692Y5265209D01*
X923282Y5322359D02*
G01*
X881626Y5213139D01*
X923282Y5322359D02*
G01*
X964938Y5213139D01*
X897374Y5249715D02*
G01*
X949190Y5249715D01*
X999228Y5322359D02*
G01*
X999228Y5213139D01*
X999228Y5322359D02*
G01*
X1045964Y5322359D01*
X1061458Y5317025D01*
X1066792Y5311945D01*
X1071872Y5301531D01*
X1071872Y5291117D01*
X1066792Y5280703D01*
X1061458Y5275623D01*
X1045964Y5270289D01*
X999228Y5270289D01*
X1035550Y5270289D02*
G01*
X1071872Y5213139D01*
X1142484Y5322359D02*
G01*
X1142484Y5213139D01*
X1106162Y5322359D02*
G01*
X1178806Y5322359D01*
X1293106Y5322359D02*
G01*
X1293106Y5213139D01*
X1293106Y5322359D02*
G01*
X1366004Y5213139D01*
X1366004Y5322359D02*
G01*
X1366004Y5213139D01*
X1400294Y5322359D02*
G01*
X1400294Y5244381D01*
X1405374Y5228887D01*
X1415788Y5218473D01*
X1431282Y5213139D01*
X1441696Y5213139D01*
X1457444Y5218473D01*
X1467858Y5228887D01*
X1472938Y5244381D01*
X1472938Y5322359D01*
X1507228Y5322359D02*
G01*
X1507228Y5213139D01*
X1507228Y5322359D02*
G01*
X1548884Y5213139D01*
X1590286Y5322359D02*
G01*
X1548884Y5213139D01*
X1590286Y5322359D02*
G01*
X1590286Y5213139D01*
X1704586Y5301531D02*
G01*
X1715000Y5306865D01*
X1730748Y5322359D01*
X1730748Y5213139D01*
X1765038Y5301531D02*
G01*
X1775452Y5306865D01*
X1790946Y5322359D01*
X1790946Y5213139D01*
X1825236Y5301531D02*
G01*
X1835650Y5306865D01*
X1851144Y5322359D01*
X1851144Y5213139D01*
X1947918Y5306865D02*
G01*
X1942584Y5317025D01*
X1927090Y5322359D01*
X1916676Y5322359D01*
X1901182Y5317025D01*
X1890768Y5301531D01*
X1885434Y5275623D01*
X1885434Y5249715D01*
X1890768Y5228887D01*
X1901182Y5218473D01*
X1916676Y5213139D01*
X1921756Y5213139D01*
X1937504Y5218473D01*
X1947918Y5228887D01*
X1952998Y5244381D01*
X1952998Y5249715D01*
X1947918Y5265209D01*
X1937504Y5275623D01*
X1921756Y5280703D01*
X1916676Y5280703D01*
X1901182Y5275623D01*
X1890768Y5265209D01*
X1885434Y5249715D01*
X1987288Y5259875D02*
G01*
X2080760Y5259875D01*
X2146292Y5322359D02*
G01*
X2130798Y5317025D01*
X2120384Y5301531D01*
X2115050Y5275623D01*
X2115050Y5259875D01*
X2120384Y5233967D01*
X2130798Y5218473D01*
X2146292Y5213139D01*
X2156706Y5213139D01*
X2172200Y5218473D01*
X2182614Y5233967D01*
X2187948Y5259875D01*
X2187948Y5275623D01*
X2182614Y5301531D01*
X2172200Y5317025D01*
X2156706Y5322359D01*
X2146292Y5322359D01*
X2227318Y5296451D02*
G01*
X2227318Y5301531D01*
X2232652Y5311945D01*
X2237732Y5317025D01*
X2248146Y5322359D01*
X2268974Y5322359D01*
X2279388Y5317025D01*
X2284468Y5311945D01*
X2289802Y5301531D01*
X2289802Y5291117D01*
X2284468Y5280703D01*
X2274054Y5265209D01*
X2222238Y5213139D01*
X2294882Y5213139D01*
X2360414Y5322359D02*
G01*
X2344666Y5317025D01*
X2334252Y5301531D01*
X2329172Y5275623D01*
X2329172Y5259875D01*
X2334252Y5233967D01*
X2344666Y5218473D01*
X2360414Y5213139D01*
X2370828Y5213139D01*
X2386322Y5218473D01*
X2396736Y5233967D01*
X2401816Y5259875D01*
X2401816Y5275623D01*
X2396736Y5301531D01*
X2386322Y5317025D01*
X2370828Y5322359D01*
X2360414Y5322359D01*
X2446520Y5322359D02*
G01*
X2503670Y5322359D01*
X2472682Y5280703D01*
X2488176Y5280703D01*
X2498590Y5275623D01*
X2503670Y5270289D01*
X2509004Y5254795D01*
X2509004Y5244381D01*
X2503670Y5228887D01*
X2493256Y5218473D01*
X2477762Y5213139D01*
X2462268Y5213139D01*
X2446520Y5218473D01*
X2441440Y5223553D01*
X2436106Y5233967D01*
X2623304Y5322359D02*
G01*
X2664706Y5213139D01*
X2706362Y5322359D02*
G01*
X2664706Y5213139D01*
X2771894Y5322359D02*
G01*
X2756146Y5317025D01*
X2745732Y5301531D01*
X2740652Y5275623D01*
X2740652Y5259875D01*
X2745732Y5233967D01*
X2756146Y5218473D01*
X2771894Y5213139D01*
X2782308Y5213139D01*
X2797802Y5218473D01*
X2808216Y5233967D01*
X2813296Y5259875D01*
X2813296Y5275623D01*
X2808216Y5301531D01*
X2797802Y5317025D01*
X2782308Y5322359D01*
X2771894Y5322359D01*
X2852920Y5239301D02*
G01*
X2847586Y5233967D01*
X2852920Y5228887D01*
X2858000Y5233967D01*
X2852920Y5239301D01*
X2892290Y5301531D02*
G01*
X2902704Y5306865D01*
X2918452Y5322359D01*
X2918452Y5213139D01*
G36*
X0Y5842000D02*
G01*
X0Y5588000D01*
X254000Y5842000D01*
G37*
G36*
X0Y254000D02*
G01*
X0Y0D01*
X254000Y0D01*
G37*
G36*
X5842000Y254000D02*
G01*
X5588000Y0D01*
X5842000Y0D01*
G37*
G36*
X5588000Y5842000D02*
G01*
X5842000Y5588000D01*
X5842000Y5842000D01*
G37*
M02*
