M48
METRIC,LZ,000.000
;FILE_FORMAT=3:3
;TYPE=PLATED
;Layer: PTH_Through
;EasyEDA v6.5.22, 2022-11-04 13:25:20
;85924a54d7f443bcb71dc3a66c5b611b,5a6b42c53f6a479593ecc07194224c93,10
;Gerber Generator version 0.2
;Holesize 1 = 0.901 mm
T01C0.901
;Holesize 2 = 1.101 mm
T02C1.101
;Holesize 3 = 1.301 mm
T03C1.301
;Holesize 4 = 3.000 mm
T04C3.000
%
G05
G90
T01
X021590Y030480
X024130Y030480
X031750Y030480
X034290Y030480
X026670Y030480
X029210Y030480
X036830Y030480
X036830Y038100
X034290Y038100
X031750Y038100
X029210Y038100
X026670Y038100
X024130Y038100
X021590Y038100
T02
X045720Y055880
X045720Y053340
X048260Y053340
X048260Y055880
T03
X030480Y009144
X027940Y009144
X025400Y009144
X033020Y009144
T04
X003810Y054610
X054610Y054610
X054610Y003810
X003810Y003810
M30
