M48
METRIC,LZ,000.000
;FILE_FORMAT=3:3
;TYPE=PLATED
;Layer: PTH_Through
;EasyEDA v6.5.29, 2023-07-09 11:22:14
;af5271567b5646799a1a99fc6926053b,5a6b42c53f6a479593ecc07194224c93,10
;Gerber Generator version 0.2
;Holesize 1 = 0.915 mm
T01C0.915
;Holesize 2 = 1.101 mm
T02C1.101
;Holesize 3 = 3.000 mm
T03C3.000
%
G05
G90
T01
X116939Y084162
X119479Y084162
X119479Y086702
X116939Y086702
X116939Y038954
X119479Y038954
X119479Y041494
X116939Y041494
T02
X125321Y010160
X122781Y010160
X122781Y012700
X125321Y012700
T03
X124051Y003810
X124051Y054610
X003810Y003810
X003810Y054610
X003810Y118110
X124051Y118110
X003810Y067310
X124051Y067310
X124051Y088734
X124051Y037684
M30
