G04 Layer: BottomLayer*
G04 Panelize: V-CUT, Column: 2, Row: 2, Board Size: 58.42mm x 58.42mm, Panelized Board Size: 118.84mm x 118.84mm*
G04 EasyEDA v6.5.34, 2023-09-17 23:44:37*
G04 cd246424f58644acbb11c68d5f65e239,5a6b42c53f6a479593ecc07194224c93,10*
G04 Gerber Generator version 0.2*
G04 Scale: 100 percent, Rotated: No, Reflected: No *
G04 Dimensions in millimeters *
G04 leading zeros omitted , absolute positions ,4 integer and 5 decimal *
%FSLAX45Y45*%
%MOMM*%

%ADD10C,0.2540*%
%ADD11C,1.0000*%
%ADD12C,5.0000*%
%ADD13C,2.0000*%
%ADD14C,1.8000*%
%ADD15C,0.6096*%
%ADD16C,0.0153*%

%LPD*%
G36*
X5805932Y25908D02*
G01*
X36068Y26416D01*
X32156Y27178D01*
X28905Y29362D01*
X26670Y32664D01*
X25908Y36576D01*
X25908Y5805932D01*
X26670Y5809843D01*
X28905Y5813094D01*
X32156Y5815330D01*
X36068Y5816092D01*
X5805932Y5816092D01*
X5809843Y5815330D01*
X5813094Y5813094D01*
X5815330Y5809843D01*
X5816092Y5805932D01*
X5816092Y36068D01*
X5815330Y32207D01*
X5813094Y28905D01*
X5809843Y26670D01*
G37*

%LPC*%
G36*
X4584700Y5600700D02*
G01*
X4687112Y5600700D01*
X4686960Y5602528D01*
X4684268Y5616803D01*
X4679746Y5630672D01*
X4673549Y5643829D01*
X4665776Y5656122D01*
X4656480Y5667349D01*
X4645863Y5677306D01*
X4634077Y5685840D01*
X4621326Y5692851D01*
X4607814Y5698236D01*
X4593691Y5701842D01*
X4584700Y5702960D01*
G37*
G36*
X393700Y105562D02*
G01*
X398322Y105664D01*
X421284Y108051D01*
X443992Y112369D01*
X466242Y118618D01*
X487934Y126644D01*
X508812Y136499D01*
X528828Y148031D01*
X547827Y161239D01*
X565607Y175971D01*
X582117Y192125D01*
X597204Y209600D01*
X610819Y228295D01*
X622757Y248107D01*
X633018Y268782D01*
X641553Y290271D01*
X648208Y312369D01*
X653034Y334975D01*
X655929Y357936D01*
X656336Y368300D01*
X393700Y368300D01*
G37*
G36*
X5448300Y105613D02*
G01*
X5448300Y368300D01*
X5185410Y368300D01*
X5187289Y346405D01*
X5191150Y323646D01*
X5196890Y301244D01*
X5204460Y279450D01*
X5213858Y258317D01*
X5224983Y238099D01*
X5237784Y218846D01*
X5252161Y200710D01*
X5267960Y183896D01*
X5285130Y168402D01*
X5303520Y154432D01*
X5323027Y142087D01*
X5343499Y131368D01*
X5364835Y122428D01*
X5386781Y115265D01*
X5409285Y109982D01*
X5432145Y106629D01*
G37*
G36*
X368300Y105613D02*
G01*
X368300Y368300D01*
X105410Y368300D01*
X107289Y346405D01*
X111150Y323646D01*
X116890Y301244D01*
X124460Y279450D01*
X133858Y258317D01*
X144983Y238099D01*
X157784Y218846D01*
X172161Y200710D01*
X187960Y183896D01*
X205130Y168402D01*
X223520Y154432D01*
X243027Y142087D01*
X263499Y131368D01*
X284835Y122428D01*
X306781Y115265D01*
X329285Y109982D01*
X352145Y106629D01*
G37*
G36*
X5473700Y393700D02*
G01*
X5736336Y393700D01*
X5735929Y404063D01*
X5733034Y427024D01*
X5728208Y449630D01*
X5721553Y471728D01*
X5713018Y493217D01*
X5702757Y513892D01*
X5690819Y533704D01*
X5677204Y552348D01*
X5662117Y569874D01*
X5645607Y586028D01*
X5627827Y600760D01*
X5608828Y613968D01*
X5588812Y625500D01*
X5567934Y635355D01*
X5546242Y643382D01*
X5523992Y649630D01*
X5501284Y653948D01*
X5478322Y656336D01*
X5473700Y656437D01*
G37*
G36*
X393700Y393700D02*
G01*
X656336Y393700D01*
X655929Y404063D01*
X653034Y427024D01*
X648208Y449630D01*
X641553Y471728D01*
X633018Y493217D01*
X622757Y513892D01*
X610819Y533704D01*
X597204Y552348D01*
X582117Y569874D01*
X565607Y586028D01*
X547827Y600760D01*
X528828Y613968D01*
X508812Y625500D01*
X487934Y635355D01*
X466242Y643382D01*
X443992Y649630D01*
X421284Y653948D01*
X398322Y656336D01*
X393700Y656437D01*
G37*
G36*
X5185410Y393700D02*
G01*
X5448300Y393700D01*
X5448300Y656386D01*
X5432145Y655370D01*
X5409285Y652018D01*
X5386781Y646734D01*
X5364835Y639572D01*
X5343499Y630631D01*
X5323027Y619912D01*
X5303520Y607568D01*
X5285130Y593598D01*
X5267960Y578104D01*
X5252161Y561289D01*
X5237784Y543153D01*
X5224983Y523900D01*
X5213858Y503682D01*
X5204460Y482549D01*
X5196890Y460756D01*
X5191150Y438353D01*
X5187289Y415594D01*
G37*
G36*
X105410Y393700D02*
G01*
X368300Y393700D01*
X368300Y656386D01*
X352145Y655370D01*
X329285Y652018D01*
X306781Y646734D01*
X284835Y639572D01*
X263499Y630631D01*
X243027Y619912D01*
X223520Y607568D01*
X205130Y593598D01*
X187960Y578104D01*
X172161Y561289D01*
X157784Y543153D01*
X144983Y523900D01*
X133858Y503682D01*
X124460Y482549D01*
X116890Y460756D01*
X111150Y438353D01*
X107289Y415594D01*
G37*
G36*
X660400Y1539900D02*
G01*
X674217Y1540814D01*
X687781Y1543507D01*
X700938Y1547977D01*
X713333Y1554073D01*
X724865Y1561795D01*
X735279Y1570939D01*
X744423Y1581353D01*
X752094Y1592834D01*
X758240Y1605280D01*
X762660Y1618386D01*
X765403Y1631950D01*
X766267Y1645767D01*
X765403Y1659636D01*
X762660Y1673199D01*
X758240Y1686306D01*
X752094Y1698752D01*
X744423Y1710232D01*
X735279Y1720646D01*
X724865Y1729790D01*
X713333Y1737512D01*
X700938Y1743608D01*
X687781Y1748078D01*
X674217Y1750771D01*
X660400Y1751685D01*
X646582Y1750771D01*
X633018Y1748078D01*
X619861Y1743608D01*
X607466Y1737512D01*
X595934Y1729790D01*
X585520Y1720646D01*
X576376Y1710232D01*
X568706Y1698752D01*
X562559Y1686306D01*
X558139Y1673199D01*
X555396Y1659636D01*
X554532Y1645767D01*
X555396Y1631950D01*
X558139Y1618386D01*
X562559Y1605280D01*
X568706Y1592834D01*
X576376Y1581353D01*
X585520Y1570939D01*
X595934Y1561795D01*
X607466Y1554073D01*
X619861Y1547977D01*
X633018Y1543507D01*
X646582Y1540814D01*
G37*
G36*
X5181600Y1551736D02*
G01*
X5195417Y1552600D01*
X5208981Y1555343D01*
X5222138Y1559763D01*
X5234533Y1565910D01*
X5246065Y1573580D01*
X5256479Y1582724D01*
X5265623Y1593138D01*
X5273294Y1604670D01*
X5279440Y1617065D01*
X5283860Y1630222D01*
X5286603Y1643786D01*
X5287467Y1657604D01*
X5286603Y1671421D01*
X5283860Y1684985D01*
X5279440Y1698142D01*
X5273294Y1710537D01*
X5265623Y1722069D01*
X5256479Y1732483D01*
X5246065Y1741627D01*
X5234533Y1749298D01*
X5222138Y1755444D01*
X5208981Y1759864D01*
X5195417Y1762607D01*
X5181600Y1763471D01*
X5167782Y1762607D01*
X5154218Y1759864D01*
X5141061Y1755444D01*
X5128666Y1749298D01*
X5117134Y1741627D01*
X5106720Y1732483D01*
X5097576Y1722069D01*
X5089906Y1710537D01*
X5083759Y1698142D01*
X5079339Y1684985D01*
X5076596Y1671421D01*
X5075732Y1657604D01*
X5076596Y1643786D01*
X5079339Y1630222D01*
X5083759Y1617065D01*
X5089906Y1604670D01*
X5097576Y1593138D01*
X5106720Y1582724D01*
X5117134Y1573580D01*
X5128666Y1565910D01*
X5141061Y1559763D01*
X5154218Y1555343D01*
X5167782Y1552600D01*
G37*
G36*
X885393Y1891538D02*
G01*
X900582Y1892452D01*
X915517Y1895195D01*
X930046Y1899716D01*
X943914Y1905914D01*
X956919Y1913788D01*
X968908Y1923186D01*
X979627Y1933905D01*
X989025Y1945893D01*
X996899Y1958898D01*
X1003096Y1972767D01*
X1007618Y1987296D01*
X1010361Y2002231D01*
X1011275Y2017420D01*
X1010361Y2032558D01*
X1007618Y2047544D01*
X1003096Y2062022D01*
X996899Y2075891D01*
X989025Y2088896D01*
X979627Y2100884D01*
X968908Y2111654D01*
X956919Y2121001D01*
X943914Y2128875D01*
X929995Y2135124D01*
X926846Y2137359D01*
X924712Y2140610D01*
X924001Y2144420D01*
X924712Y2148179D01*
X926846Y2151430D01*
X929995Y2153666D01*
X943914Y2159914D01*
X956919Y2167788D01*
X968908Y2177186D01*
X979627Y2187905D01*
X989025Y2199894D01*
X996899Y2212898D01*
X1003096Y2226767D01*
X1007618Y2241296D01*
X1010361Y2256231D01*
X1011275Y2271420D01*
X1010361Y2286558D01*
X1007618Y2301544D01*
X1003096Y2316022D01*
X996899Y2329891D01*
X989025Y2342896D01*
X979627Y2354884D01*
X968908Y2365654D01*
X956919Y2375001D01*
X943914Y2382875D01*
X929995Y2389124D01*
X926846Y2391359D01*
X924712Y2394610D01*
X924001Y2398420D01*
X924712Y2402179D01*
X926846Y2405430D01*
X929995Y2407666D01*
X943914Y2413914D01*
X956919Y2421788D01*
X968908Y2431186D01*
X979627Y2441905D01*
X989025Y2453894D01*
X996899Y2466898D01*
X1003096Y2480767D01*
X1007618Y2495296D01*
X1010361Y2510231D01*
X1011275Y2525420D01*
X1010361Y2540558D01*
X1007618Y2555544D01*
X1003096Y2570022D01*
X996899Y2583891D01*
X989025Y2596896D01*
X979627Y2608884D01*
X968908Y2619654D01*
X956919Y2629001D01*
X943914Y2636875D01*
X929995Y2643124D01*
X926846Y2645359D01*
X924712Y2648610D01*
X924001Y2652420D01*
X924712Y2656179D01*
X926846Y2659430D01*
X929995Y2661666D01*
X943914Y2667914D01*
X956919Y2675788D01*
X968908Y2685186D01*
X979627Y2695905D01*
X989025Y2707894D01*
X996899Y2720898D01*
X1003096Y2734767D01*
X1007618Y2749296D01*
X1010361Y2764231D01*
X1011275Y2779420D01*
X1010361Y2794558D01*
X1007618Y2809544D01*
X1003096Y2824022D01*
X996899Y2837891D01*
X989025Y2850896D01*
X979627Y2862884D01*
X968908Y2873654D01*
X956919Y2883001D01*
X943914Y2890875D01*
X929995Y2897124D01*
X926846Y2899359D01*
X924712Y2902610D01*
X924001Y2906420D01*
X924712Y2910179D01*
X926846Y2913430D01*
X929995Y2915666D01*
X943914Y2921914D01*
X956919Y2929788D01*
X968908Y2939186D01*
X979627Y2949905D01*
X989025Y2961894D01*
X996899Y2974898D01*
X1003096Y2988767D01*
X1007618Y3003296D01*
X1010361Y3018231D01*
X1011275Y3033420D01*
X1010361Y3048558D01*
X1007618Y3063544D01*
X1003096Y3078022D01*
X996899Y3091891D01*
X989025Y3104896D01*
X979627Y3116884D01*
X968908Y3127654D01*
X956919Y3137001D01*
X943914Y3144875D01*
X929995Y3151124D01*
X926846Y3153359D01*
X924712Y3156610D01*
X924001Y3160420D01*
X924712Y3164179D01*
X926846Y3167430D01*
X929995Y3169666D01*
X943914Y3175914D01*
X956919Y3183788D01*
X968908Y3193186D01*
X979627Y3203905D01*
X989025Y3215894D01*
X996899Y3228898D01*
X1003096Y3242767D01*
X1007618Y3257296D01*
X1010361Y3272231D01*
X1011275Y3287420D01*
X1010361Y3302558D01*
X1007618Y3317544D01*
X1003096Y3332022D01*
X996899Y3345891D01*
X989025Y3358896D01*
X979627Y3370884D01*
X968908Y3381654D01*
X956919Y3391001D01*
X943914Y3398875D01*
X929995Y3405124D01*
X926846Y3407359D01*
X924712Y3410610D01*
X924001Y3414420D01*
X924712Y3418179D01*
X926846Y3421430D01*
X929995Y3423665D01*
X943914Y3429914D01*
X956919Y3437788D01*
X968908Y3447186D01*
X979627Y3457905D01*
X989025Y3469894D01*
X996899Y3482898D01*
X1003096Y3496767D01*
X1007618Y3511296D01*
X1010361Y3526231D01*
X1011275Y3541420D01*
X1010361Y3556558D01*
X1007618Y3571544D01*
X1003096Y3586022D01*
X996899Y3599891D01*
X989025Y3612896D01*
X979627Y3624884D01*
X968908Y3635654D01*
X956919Y3645001D01*
X943914Y3652875D01*
X929995Y3659124D01*
X926846Y3661359D01*
X924712Y3664610D01*
X924001Y3668420D01*
X924712Y3672179D01*
X926846Y3675430D01*
X929995Y3677665D01*
X943914Y3683914D01*
X956919Y3691788D01*
X968908Y3701186D01*
X979627Y3711905D01*
X989025Y3723894D01*
X996899Y3736898D01*
X1003096Y3750767D01*
X1007618Y3765296D01*
X1010361Y3780231D01*
X1011275Y3795420D01*
X1010361Y3810558D01*
X1007618Y3825544D01*
X1003096Y3840022D01*
X996899Y3853891D01*
X989025Y3866896D01*
X979627Y3878884D01*
X968908Y3889654D01*
X956919Y3899001D01*
X943914Y3906875D01*
X930046Y3913124D01*
X915517Y3917645D01*
X900582Y3920388D01*
X885393Y3921302D01*
X870254Y3920388D01*
X855268Y3917645D01*
X840790Y3913124D01*
X826922Y3906875D01*
X813917Y3899001D01*
X801928Y3889654D01*
X791159Y3878884D01*
X781812Y3866896D01*
X773938Y3853891D01*
X767689Y3840022D01*
X763168Y3825544D01*
X760425Y3810558D01*
X759510Y3795420D01*
X760425Y3780231D01*
X763168Y3765296D01*
X767689Y3750767D01*
X773938Y3736898D01*
X781812Y3723894D01*
X791159Y3711905D01*
X801928Y3701186D01*
X813917Y3691788D01*
X826922Y3683914D01*
X840841Y3677665D01*
X843991Y3675430D01*
X846074Y3672179D01*
X846836Y3668420D01*
X846074Y3664610D01*
X843991Y3661359D01*
X840841Y3659124D01*
X826922Y3652875D01*
X813917Y3645001D01*
X801928Y3635654D01*
X791159Y3624884D01*
X781812Y3612896D01*
X773938Y3599891D01*
X767689Y3586022D01*
X763168Y3571544D01*
X760425Y3556558D01*
X759510Y3541420D01*
X760425Y3526231D01*
X763168Y3511296D01*
X767689Y3496767D01*
X773938Y3482898D01*
X781812Y3469894D01*
X791159Y3457905D01*
X801928Y3447186D01*
X813917Y3437788D01*
X826922Y3429914D01*
X840841Y3423665D01*
X843991Y3421430D01*
X846074Y3418179D01*
X846836Y3414420D01*
X846074Y3410610D01*
X843991Y3407359D01*
X840841Y3405124D01*
X826922Y3398875D01*
X813917Y3391001D01*
X801928Y3381654D01*
X791159Y3370884D01*
X781812Y3358896D01*
X773938Y3345891D01*
X767689Y3332022D01*
X763168Y3317544D01*
X760425Y3302558D01*
X759510Y3287420D01*
X760425Y3272231D01*
X763168Y3257296D01*
X767689Y3242767D01*
X773938Y3228898D01*
X781812Y3215894D01*
X791159Y3203905D01*
X801928Y3193186D01*
X813917Y3183788D01*
X826922Y3175914D01*
X840841Y3169666D01*
X843991Y3167430D01*
X846074Y3164179D01*
X846836Y3160420D01*
X846074Y3156610D01*
X843991Y3153359D01*
X840841Y3151124D01*
X826922Y3144875D01*
X813917Y3137001D01*
X801928Y3127654D01*
X791159Y3116884D01*
X781812Y3104896D01*
X773938Y3091891D01*
X767689Y3078022D01*
X763168Y3063544D01*
X760425Y3048558D01*
X759510Y3033420D01*
X760425Y3018231D01*
X763168Y3003296D01*
X767689Y2988767D01*
X773938Y2974898D01*
X781812Y2961894D01*
X791159Y2949905D01*
X801928Y2939186D01*
X813917Y2929788D01*
X826922Y2921914D01*
X840841Y2915666D01*
X843991Y2913430D01*
X846074Y2910179D01*
X846836Y2906420D01*
X846074Y2902610D01*
X843991Y2899359D01*
X840841Y2897124D01*
X826922Y2890875D01*
X813917Y2883001D01*
X801928Y2873654D01*
X791159Y2862884D01*
X781812Y2850896D01*
X773938Y2837891D01*
X767689Y2824022D01*
X763168Y2809544D01*
X760425Y2794558D01*
X759510Y2779420D01*
X760425Y2764231D01*
X763168Y2749296D01*
X767689Y2734767D01*
X773938Y2720898D01*
X781812Y2707894D01*
X791159Y2695905D01*
X801928Y2685186D01*
X813917Y2675788D01*
X826922Y2667914D01*
X840841Y2661666D01*
X843991Y2659430D01*
X846074Y2656179D01*
X846836Y2652420D01*
X846074Y2648610D01*
X843991Y2645359D01*
X840841Y2643124D01*
X826922Y2636875D01*
X813917Y2629001D01*
X801928Y2619654D01*
X791159Y2608884D01*
X781812Y2596896D01*
X773938Y2583891D01*
X767689Y2570022D01*
X763168Y2555544D01*
X760425Y2540558D01*
X759510Y2525420D01*
X760425Y2510231D01*
X763168Y2495296D01*
X767689Y2480767D01*
X773938Y2466898D01*
X781812Y2453894D01*
X791159Y2441905D01*
X801928Y2431186D01*
X813917Y2421788D01*
X826922Y2413914D01*
X840841Y2407666D01*
X843991Y2405430D01*
X846074Y2402179D01*
X846836Y2398420D01*
X846074Y2394610D01*
X843991Y2391359D01*
X840841Y2389124D01*
X826922Y2382875D01*
X813917Y2375001D01*
X801928Y2365654D01*
X791159Y2354884D01*
X781812Y2342896D01*
X773938Y2329891D01*
X767689Y2316022D01*
X763168Y2301544D01*
X760425Y2286558D01*
X759510Y2271420D01*
X760425Y2256231D01*
X763168Y2241296D01*
X767689Y2226767D01*
X773938Y2212898D01*
X781812Y2199894D01*
X791159Y2187905D01*
X801928Y2177186D01*
X813917Y2167788D01*
X826922Y2159914D01*
X840841Y2153666D01*
X843991Y2151430D01*
X846074Y2148179D01*
X846836Y2144420D01*
X846074Y2140610D01*
X843991Y2137359D01*
X840841Y2135124D01*
X826922Y2128875D01*
X813917Y2121001D01*
X801928Y2111654D01*
X791159Y2100884D01*
X781812Y2088896D01*
X773938Y2075891D01*
X767689Y2062022D01*
X763168Y2047544D01*
X760425Y2032558D01*
X759510Y2017420D01*
X760425Y2002231D01*
X763168Y1987296D01*
X767689Y1972767D01*
X773938Y1958898D01*
X781812Y1945893D01*
X791159Y1933905D01*
X801928Y1923186D01*
X813917Y1913788D01*
X826922Y1905914D01*
X840790Y1899716D01*
X855268Y1895195D01*
X870254Y1892452D01*
G37*
G36*
X4956606Y1903323D02*
G01*
X4971745Y1904238D01*
X4986731Y1906981D01*
X5001209Y1911502D01*
X5015077Y1917750D01*
X5028082Y1925574D01*
X5040071Y1934972D01*
X5050840Y1945741D01*
X5060188Y1957679D01*
X5068062Y1970684D01*
X5074310Y1984552D01*
X5078831Y1999081D01*
X5081574Y2014016D01*
X5082489Y2029206D01*
X5081574Y2044395D01*
X5078831Y2059330D01*
X5074310Y2073859D01*
X5068062Y2087676D01*
X5060188Y2100732D01*
X5050840Y2112670D01*
X5040071Y2123440D01*
X5028082Y2132787D01*
X5015077Y2140661D01*
X5001158Y2146909D01*
X4998008Y2149144D01*
X4995926Y2152396D01*
X4995164Y2156206D01*
X4995926Y2160016D01*
X4998008Y2163216D01*
X5001158Y2165451D01*
X5015077Y2171750D01*
X5028082Y2179574D01*
X5040071Y2188972D01*
X5050840Y2199741D01*
X5060188Y2211679D01*
X5068062Y2224684D01*
X5074310Y2238552D01*
X5078831Y2253081D01*
X5081574Y2268016D01*
X5082489Y2283206D01*
X5081574Y2298395D01*
X5078831Y2313330D01*
X5074310Y2327859D01*
X5068062Y2341676D01*
X5060188Y2354732D01*
X5050840Y2366670D01*
X5040071Y2377440D01*
X5028082Y2386787D01*
X5015077Y2394661D01*
X5001158Y2400909D01*
X4998008Y2403144D01*
X4995926Y2406396D01*
X4995164Y2410206D01*
X4995926Y2414016D01*
X4998008Y2417216D01*
X5001158Y2419451D01*
X5015077Y2425750D01*
X5028082Y2433574D01*
X5040071Y2442972D01*
X5050840Y2453741D01*
X5060188Y2465679D01*
X5068062Y2478684D01*
X5074310Y2492552D01*
X5078831Y2507081D01*
X5081574Y2522016D01*
X5082489Y2537206D01*
X5081574Y2552395D01*
X5078831Y2567330D01*
X5074310Y2581859D01*
X5068062Y2595676D01*
X5060188Y2608732D01*
X5050840Y2620670D01*
X5040071Y2631440D01*
X5028082Y2640787D01*
X5015077Y2648661D01*
X5001158Y2654909D01*
X4998008Y2657144D01*
X4995926Y2660396D01*
X4995164Y2664206D01*
X4995926Y2668016D01*
X4998008Y2671216D01*
X5001158Y2673451D01*
X5015077Y2679750D01*
X5028082Y2687574D01*
X5040071Y2696972D01*
X5050840Y2707741D01*
X5060188Y2719679D01*
X5068062Y2732684D01*
X5074310Y2746552D01*
X5078831Y2761081D01*
X5081574Y2776016D01*
X5082489Y2791206D01*
X5081574Y2806395D01*
X5078831Y2821330D01*
X5074310Y2835859D01*
X5068062Y2849676D01*
X5060188Y2862732D01*
X5050840Y2874670D01*
X5040071Y2885440D01*
X5028082Y2894787D01*
X5015077Y2902661D01*
X5001158Y2908909D01*
X4998008Y2911144D01*
X4995926Y2914396D01*
X4995164Y2918206D01*
X4995926Y2922016D01*
X4998008Y2925216D01*
X5001158Y2927451D01*
X5015077Y2933750D01*
X5028082Y2941574D01*
X5040071Y2950972D01*
X5050840Y2961741D01*
X5060188Y2973679D01*
X5068062Y2986684D01*
X5074310Y3000552D01*
X5078831Y3015081D01*
X5081574Y3030016D01*
X5082489Y3045206D01*
X5081574Y3060395D01*
X5078831Y3075330D01*
X5074310Y3089859D01*
X5068062Y3103676D01*
X5060188Y3116732D01*
X5050840Y3128670D01*
X5040071Y3139440D01*
X5028082Y3148787D01*
X5015077Y3156661D01*
X5001158Y3162909D01*
X4998008Y3165144D01*
X4995926Y3168396D01*
X4995164Y3172206D01*
X4995926Y3176016D01*
X4998008Y3179216D01*
X5001158Y3181451D01*
X5015077Y3187750D01*
X5028082Y3195574D01*
X5040071Y3204972D01*
X5050840Y3215741D01*
X5060188Y3227679D01*
X5068062Y3240684D01*
X5074310Y3254552D01*
X5078831Y3269081D01*
X5081574Y3284016D01*
X5082489Y3299206D01*
X5081574Y3314395D01*
X5078831Y3329330D01*
X5074310Y3343859D01*
X5068062Y3357676D01*
X5060188Y3370732D01*
X5050840Y3382670D01*
X5040071Y3393440D01*
X5028082Y3402787D01*
X5015077Y3410661D01*
X5001158Y3416909D01*
X4998008Y3419144D01*
X4995926Y3422396D01*
X4995164Y3426206D01*
X4995926Y3430015D01*
X4998008Y3433216D01*
X5001158Y3435451D01*
X5015077Y3441750D01*
X5028082Y3449574D01*
X5040071Y3458972D01*
X5050840Y3469741D01*
X5060188Y3481679D01*
X5068062Y3494684D01*
X5074310Y3508552D01*
X5078831Y3523081D01*
X5081574Y3538016D01*
X5082489Y3553206D01*
X5081574Y3568395D01*
X5078831Y3583330D01*
X5074310Y3597859D01*
X5068062Y3611676D01*
X5060188Y3624732D01*
X5050840Y3636670D01*
X5040071Y3647440D01*
X5028082Y3656787D01*
X5015077Y3664661D01*
X5001158Y3670909D01*
X4998008Y3673144D01*
X4995926Y3676396D01*
X4995164Y3680206D01*
X4995926Y3684015D01*
X4998008Y3687216D01*
X5001158Y3689451D01*
X5015077Y3695750D01*
X5028082Y3703574D01*
X5040071Y3712972D01*
X5050840Y3723741D01*
X5060188Y3735679D01*
X5068062Y3748684D01*
X5074310Y3762552D01*
X5078831Y3777081D01*
X5081574Y3792016D01*
X5082489Y3807206D01*
X5081574Y3822395D01*
X5078831Y3837330D01*
X5074310Y3851859D01*
X5068062Y3865676D01*
X5060188Y3878732D01*
X5050840Y3890670D01*
X5040071Y3901440D01*
X5028082Y3910787D01*
X5015077Y3918661D01*
X5001209Y3924909D01*
X4986731Y3929430D01*
X4971745Y3932174D01*
X4956606Y3933088D01*
X4941417Y3932174D01*
X4926482Y3929430D01*
X4911953Y3924909D01*
X4898085Y3918661D01*
X4885080Y3910787D01*
X4873091Y3901440D01*
X4862372Y3890670D01*
X4852974Y3878732D01*
X4845100Y3865676D01*
X4838903Y3851859D01*
X4834382Y3837330D01*
X4831638Y3822395D01*
X4830724Y3807206D01*
X4831638Y3792016D01*
X4834382Y3777081D01*
X4838903Y3762552D01*
X4845100Y3748684D01*
X4852974Y3735679D01*
X4862372Y3723741D01*
X4873091Y3712972D01*
X4885080Y3703574D01*
X4898085Y3695750D01*
X4912004Y3689451D01*
X4915154Y3687216D01*
X4917287Y3684015D01*
X4917998Y3680206D01*
X4917287Y3676396D01*
X4915154Y3673144D01*
X4912004Y3670909D01*
X4898085Y3664661D01*
X4885080Y3656787D01*
X4873091Y3647440D01*
X4862372Y3636670D01*
X4852974Y3624732D01*
X4845100Y3611676D01*
X4838903Y3597859D01*
X4834382Y3583330D01*
X4831638Y3568395D01*
X4830724Y3553206D01*
X4831638Y3538016D01*
X4834382Y3523081D01*
X4838903Y3508552D01*
X4845100Y3494684D01*
X4852974Y3481679D01*
X4862372Y3469741D01*
X4873091Y3458972D01*
X4885080Y3449574D01*
X4898085Y3441750D01*
X4912004Y3435451D01*
X4915154Y3433216D01*
X4917287Y3430015D01*
X4917998Y3426206D01*
X4917287Y3422396D01*
X4915154Y3419144D01*
X4912004Y3416909D01*
X4898085Y3410661D01*
X4885080Y3402787D01*
X4873091Y3393440D01*
X4862372Y3382670D01*
X4852974Y3370732D01*
X4845100Y3357676D01*
X4838903Y3343859D01*
X4834382Y3329330D01*
X4831638Y3314395D01*
X4830724Y3299206D01*
X4831638Y3284016D01*
X4834382Y3269081D01*
X4838903Y3254552D01*
X4845100Y3240684D01*
X4852974Y3227679D01*
X4862372Y3215741D01*
X4873091Y3204972D01*
X4885080Y3195574D01*
X4898085Y3187750D01*
X4912004Y3181451D01*
X4915154Y3179216D01*
X4917287Y3176016D01*
X4917998Y3172206D01*
X4917287Y3168396D01*
X4915154Y3165144D01*
X4912004Y3162909D01*
X4898085Y3156661D01*
X4885080Y3148787D01*
X4873091Y3139440D01*
X4862372Y3128670D01*
X4852974Y3116732D01*
X4845100Y3103676D01*
X4838903Y3089859D01*
X4834382Y3075330D01*
X4831638Y3060395D01*
X4830724Y3045206D01*
X4831638Y3030016D01*
X4834382Y3015081D01*
X4838903Y3000552D01*
X4845100Y2986684D01*
X4852974Y2973679D01*
X4862372Y2961741D01*
X4873091Y2950972D01*
X4885080Y2941574D01*
X4898085Y2933750D01*
X4912004Y2927451D01*
X4915154Y2925216D01*
X4917287Y2922016D01*
X4917998Y2918206D01*
X4917287Y2914396D01*
X4915154Y2911144D01*
X4912004Y2908909D01*
X4898085Y2902661D01*
X4885080Y2894787D01*
X4873091Y2885440D01*
X4862372Y2874670D01*
X4852974Y2862732D01*
X4845100Y2849676D01*
X4838903Y2835859D01*
X4834382Y2821330D01*
X4831638Y2806395D01*
X4830724Y2791206D01*
X4831638Y2776016D01*
X4834382Y2761081D01*
X4838903Y2746552D01*
X4845100Y2732684D01*
X4852974Y2719679D01*
X4862372Y2707741D01*
X4873091Y2696972D01*
X4885080Y2687574D01*
X4898085Y2679750D01*
X4912004Y2673451D01*
X4915154Y2671216D01*
X4917287Y2668016D01*
X4917998Y2664206D01*
X4917287Y2660396D01*
X4915154Y2657144D01*
X4912004Y2654909D01*
X4898085Y2648661D01*
X4885080Y2640787D01*
X4873091Y2631440D01*
X4862372Y2620670D01*
X4852974Y2608732D01*
X4845100Y2595676D01*
X4838903Y2581859D01*
X4834382Y2567330D01*
X4831638Y2552395D01*
X4830724Y2537206D01*
X4831638Y2522016D01*
X4834382Y2507081D01*
X4838903Y2492552D01*
X4845100Y2478684D01*
X4852974Y2465679D01*
X4862372Y2453741D01*
X4873091Y2442972D01*
X4885080Y2433574D01*
X4898085Y2425750D01*
X4912004Y2419451D01*
X4915154Y2417216D01*
X4917287Y2414016D01*
X4917998Y2410206D01*
X4917287Y2406396D01*
X4915154Y2403144D01*
X4912004Y2400909D01*
X4898085Y2394661D01*
X4885080Y2386787D01*
X4873091Y2377440D01*
X4862372Y2366670D01*
X4852974Y2354732D01*
X4845100Y2341676D01*
X4838903Y2327859D01*
X4834382Y2313330D01*
X4831638Y2298395D01*
X4830724Y2283206D01*
X4831638Y2268016D01*
X4834382Y2253081D01*
X4838903Y2238552D01*
X4845100Y2224684D01*
X4852974Y2211679D01*
X4862372Y2199741D01*
X4873091Y2188972D01*
X4885080Y2179574D01*
X4898085Y2171750D01*
X4912004Y2165451D01*
X4915154Y2163216D01*
X4917287Y2160016D01*
X4917998Y2156206D01*
X4917287Y2152396D01*
X4915154Y2149144D01*
X4912004Y2146909D01*
X4898085Y2140661D01*
X4885080Y2132787D01*
X4873091Y2123440D01*
X4862372Y2112670D01*
X4852974Y2100732D01*
X4845100Y2087676D01*
X4838903Y2073859D01*
X4834382Y2059330D01*
X4831638Y2044395D01*
X4830724Y2029206D01*
X4831638Y2014016D01*
X4834382Y1999081D01*
X4838903Y1984552D01*
X4845100Y1970684D01*
X4852974Y1957679D01*
X4862372Y1945741D01*
X4873091Y1934972D01*
X4885080Y1925574D01*
X4898085Y1917750D01*
X4911953Y1911502D01*
X4926482Y1906981D01*
X4941417Y1904238D01*
G37*
G36*
X3378200Y2039162D02*
G01*
X3388004Y2040026D01*
X3397453Y2042566D01*
X3406394Y2046681D01*
X3414420Y2052320D01*
X3421379Y2059279D01*
X3427018Y2067306D01*
X3431133Y2076246D01*
X3433673Y2085695D01*
X3434537Y2095500D01*
X3433673Y2105304D01*
X3431133Y2114753D01*
X3427018Y2123694D01*
X3421379Y2131720D01*
X3419805Y2133295D01*
X3417570Y2136597D01*
X3416808Y2140508D01*
X3416808Y2558491D01*
X3417570Y2562402D01*
X3419805Y2565704D01*
X3421379Y2567279D01*
X3427018Y2575306D01*
X3431133Y2584246D01*
X3433673Y2593695D01*
X3434537Y2603500D01*
X3433673Y2613304D01*
X3431133Y2622753D01*
X3427018Y2631694D01*
X3421379Y2639720D01*
X3419805Y2641295D01*
X3417570Y2644597D01*
X3416808Y2648508D01*
X3416808Y3066491D01*
X3417570Y3070402D01*
X3419805Y3073704D01*
X3421379Y3075279D01*
X3427018Y3083306D01*
X3431133Y3092246D01*
X3433673Y3101695D01*
X3434537Y3111500D01*
X3433673Y3121304D01*
X3431133Y3130753D01*
X3427018Y3139694D01*
X3421379Y3147720D01*
X3419805Y3149295D01*
X3417570Y3152597D01*
X3416808Y3156508D01*
X3416808Y3574491D01*
X3417570Y3578402D01*
X3419805Y3581704D01*
X3421379Y3583279D01*
X3427018Y3591306D01*
X3431133Y3600246D01*
X3433673Y3609695D01*
X3434537Y3619500D01*
X3433673Y3629304D01*
X3431133Y3638753D01*
X3427018Y3647694D01*
X3421379Y3655720D01*
X3419805Y3657295D01*
X3417570Y3660597D01*
X3416808Y3664508D01*
X3416808Y4874666D01*
X3417519Y4878374D01*
X3419500Y4881524D01*
X3422497Y4883810D01*
X3435553Y4887366D01*
X3444494Y4891481D01*
X3452520Y4897120D01*
X3459479Y4904079D01*
X3465118Y4912106D01*
X3469233Y4921046D01*
X3471773Y4930495D01*
X3472637Y4940300D01*
X3471773Y4950104D01*
X3469233Y4959553D01*
X3465118Y4968494D01*
X3459479Y4976520D01*
X3457905Y4978095D01*
X3455670Y4981397D01*
X3454908Y4985308D01*
X3454908Y5327091D01*
X3455670Y5331002D01*
X3457905Y5334304D01*
X3459479Y5335879D01*
X3465118Y5343906D01*
X3469233Y5352846D01*
X3471773Y5362295D01*
X3472637Y5372100D01*
X3471773Y5381904D01*
X3469233Y5391353D01*
X3465118Y5400294D01*
X3459479Y5408320D01*
X3452520Y5415280D01*
X3444494Y5420918D01*
X3435553Y5425033D01*
X3426104Y5427573D01*
X3416300Y5428437D01*
X3406495Y5427573D01*
X3397046Y5425033D01*
X3388106Y5420918D01*
X3380079Y5415280D01*
X3373120Y5408320D01*
X3367481Y5400294D01*
X3363366Y5391353D01*
X3360826Y5381904D01*
X3359962Y5372100D01*
X3360826Y5362295D01*
X3363366Y5352846D01*
X3367481Y5343906D01*
X3373120Y5335879D01*
X3374694Y5334304D01*
X3376929Y5331002D01*
X3377692Y5327091D01*
X3377692Y4985308D01*
X3376929Y4981397D01*
X3374694Y4978095D01*
X3373120Y4976520D01*
X3367481Y4968494D01*
X3363366Y4959553D01*
X3360826Y4950104D01*
X3360115Y4942078D01*
X3359200Y4938674D01*
X3357168Y4935778D01*
X3351276Y4929835D01*
X3346145Y4923637D01*
X3342589Y4916932D01*
X3340404Y4909718D01*
X3339592Y4901692D01*
X3339592Y3664508D01*
X3338829Y3660597D01*
X3336594Y3657295D01*
X3335020Y3655720D01*
X3329381Y3647694D01*
X3325266Y3638753D01*
X3322726Y3629304D01*
X3321862Y3619500D01*
X3322726Y3609695D01*
X3325266Y3600246D01*
X3329381Y3591306D01*
X3335020Y3583279D01*
X3336594Y3581704D01*
X3338829Y3578402D01*
X3339592Y3574491D01*
X3339592Y3156508D01*
X3338829Y3152597D01*
X3336594Y3149295D01*
X3335020Y3147720D01*
X3329381Y3139694D01*
X3325266Y3130753D01*
X3322726Y3121304D01*
X3321862Y3111500D01*
X3322726Y3101695D01*
X3325266Y3092246D01*
X3329381Y3083306D01*
X3335020Y3075279D01*
X3336594Y3073704D01*
X3338829Y3070402D01*
X3339592Y3066491D01*
X3339592Y2648508D01*
X3338829Y2644597D01*
X3336594Y2641295D01*
X3335020Y2639720D01*
X3329381Y2631694D01*
X3325266Y2622753D01*
X3322726Y2613304D01*
X3321862Y2603500D01*
X3322726Y2593695D01*
X3325266Y2584246D01*
X3329381Y2575306D01*
X3335020Y2567279D01*
X3336594Y2565704D01*
X3338829Y2562402D01*
X3339592Y2558491D01*
X3339592Y2140508D01*
X3338829Y2136597D01*
X3336594Y2133295D01*
X3335020Y2131720D01*
X3329381Y2123694D01*
X3325266Y2114753D01*
X3322726Y2105304D01*
X3321862Y2095500D01*
X3322726Y2085695D01*
X3325266Y2076246D01*
X3329381Y2067306D01*
X3335020Y2059279D01*
X3341979Y2052320D01*
X3350006Y2046681D01*
X3358946Y2042566D01*
X3368395Y2040026D01*
G37*
G36*
X2819400Y2153462D02*
G01*
X2829204Y2154326D01*
X2838653Y2156866D01*
X2847594Y2160981D01*
X2855620Y2166620D01*
X2862580Y2173579D01*
X2868218Y2181606D01*
X2872333Y2190546D01*
X2874873Y2199995D01*
X2875737Y2209800D01*
X2874873Y2219604D01*
X2872333Y2229053D01*
X2868218Y2237994D01*
X2862580Y2246020D01*
X2861005Y2247595D01*
X2858770Y2250897D01*
X2858008Y2254808D01*
X2858008Y2672791D01*
X2858770Y2676702D01*
X2861005Y2680004D01*
X2862580Y2681579D01*
X2868218Y2689606D01*
X2872333Y2698546D01*
X2874873Y2707995D01*
X2875737Y2717800D01*
X2874873Y2727604D01*
X2872333Y2737053D01*
X2868218Y2745994D01*
X2862580Y2754020D01*
X2861005Y2755595D01*
X2858770Y2758897D01*
X2858008Y2762808D01*
X2858008Y3180791D01*
X2858770Y3184702D01*
X2861005Y3188004D01*
X2862580Y3189579D01*
X2868218Y3197606D01*
X2872333Y3206546D01*
X2874873Y3215995D01*
X2875737Y3225800D01*
X2874873Y3235604D01*
X2872333Y3245053D01*
X2868218Y3253994D01*
X2862580Y3262020D01*
X2861005Y3263595D01*
X2858770Y3266897D01*
X2858008Y3270808D01*
X2858008Y3688791D01*
X2858770Y3692702D01*
X2861005Y3696004D01*
X2862580Y3697579D01*
X2868218Y3705606D01*
X2872333Y3714546D01*
X2874873Y3723995D01*
X2875737Y3733800D01*
X2874873Y3743604D01*
X2872333Y3753053D01*
X2868218Y3761994D01*
X2862580Y3770020D01*
X2861005Y3771595D01*
X2858770Y3774897D01*
X2858008Y3778808D01*
X2858008Y5034991D01*
X2858770Y5038902D01*
X2861005Y5042204D01*
X2862580Y5043779D01*
X2868218Y5051806D01*
X2872333Y5060746D01*
X2874873Y5070195D01*
X2875737Y5080000D01*
X2874873Y5089804D01*
X2872333Y5099253D01*
X2868218Y5108194D01*
X2862580Y5116220D01*
X2855620Y5123180D01*
X2847594Y5128818D01*
X2838653Y5132933D01*
X2829204Y5135473D01*
X2819400Y5136337D01*
X2809595Y5135473D01*
X2800146Y5132933D01*
X2791206Y5128818D01*
X2783179Y5123180D01*
X2776220Y5116220D01*
X2770581Y5108194D01*
X2766466Y5099253D01*
X2763926Y5089804D01*
X2763062Y5080000D01*
X2763926Y5070195D01*
X2766466Y5060746D01*
X2770581Y5051806D01*
X2776220Y5043779D01*
X2777794Y5042204D01*
X2780030Y5038902D01*
X2780792Y5034991D01*
X2780792Y3778808D01*
X2780030Y3774897D01*
X2777794Y3771595D01*
X2776220Y3770020D01*
X2770581Y3761994D01*
X2766466Y3753053D01*
X2763926Y3743604D01*
X2763062Y3733800D01*
X2763926Y3723995D01*
X2766466Y3714546D01*
X2770581Y3705606D01*
X2776220Y3697579D01*
X2777794Y3696004D01*
X2780030Y3692702D01*
X2780792Y3688791D01*
X2780792Y3270808D01*
X2780030Y3266897D01*
X2777794Y3263595D01*
X2776220Y3262020D01*
X2770581Y3253994D01*
X2766466Y3245053D01*
X2763926Y3235604D01*
X2763062Y3225800D01*
X2763926Y3215995D01*
X2766466Y3206546D01*
X2770581Y3197606D01*
X2776220Y3189579D01*
X2777794Y3188004D01*
X2780030Y3184702D01*
X2780792Y3180791D01*
X2780792Y2762808D01*
X2780030Y2758897D01*
X2777794Y2755595D01*
X2776220Y2754020D01*
X2770581Y2745994D01*
X2766466Y2737053D01*
X2763926Y2727604D01*
X2763062Y2717800D01*
X2763926Y2707995D01*
X2766466Y2698546D01*
X2770581Y2689606D01*
X2776220Y2681579D01*
X2777794Y2680004D01*
X2780030Y2676702D01*
X2780792Y2672791D01*
X2780792Y2254808D01*
X2780030Y2250897D01*
X2777794Y2247595D01*
X2776220Y2246020D01*
X2770581Y2237994D01*
X2766466Y2229053D01*
X2763926Y2219604D01*
X2763062Y2209800D01*
X2763926Y2199995D01*
X2766466Y2190546D01*
X2770581Y2181606D01*
X2776220Y2173579D01*
X2783179Y2166620D01*
X2791206Y2160981D01*
X2800146Y2156866D01*
X2809595Y2154326D01*
G37*
G36*
X660400Y4061104D02*
G01*
X674217Y4062018D01*
X687781Y4064711D01*
X700938Y4069181D01*
X713333Y4075277D01*
X724865Y4082999D01*
X735279Y4092143D01*
X744423Y4102557D01*
X752094Y4114037D01*
X758240Y4126484D01*
X762660Y4139590D01*
X765403Y4153154D01*
X766267Y4166971D01*
X765403Y4180840D01*
X762660Y4194403D01*
X758240Y4207510D01*
X752094Y4219956D01*
X744423Y4231436D01*
X735279Y4241850D01*
X724865Y4250994D01*
X713333Y4258716D01*
X700938Y4264812D01*
X687781Y4269282D01*
X674217Y4271975D01*
X660400Y4272889D01*
X646582Y4271975D01*
X633018Y4269282D01*
X619861Y4264812D01*
X607466Y4258716D01*
X595934Y4250994D01*
X585520Y4241850D01*
X576376Y4231436D01*
X568706Y4219956D01*
X562559Y4207510D01*
X558139Y4194403D01*
X555396Y4180840D01*
X554532Y4166971D01*
X555396Y4153154D01*
X558139Y4139590D01*
X562559Y4126484D01*
X568706Y4114037D01*
X576376Y4102557D01*
X585520Y4092143D01*
X595934Y4082999D01*
X607466Y4075277D01*
X619861Y4069181D01*
X633018Y4064711D01*
X646582Y4062018D01*
G37*
G36*
X5181600Y4072890D02*
G01*
X5195417Y4073804D01*
X5208981Y4076496D01*
X5222138Y4080967D01*
X5234533Y4087063D01*
X5246065Y4094784D01*
X5256479Y4103928D01*
X5265623Y4114342D01*
X5273294Y4125823D01*
X5279440Y4138269D01*
X5283860Y4151376D01*
X5286603Y4164939D01*
X5287467Y4178757D01*
X5286603Y4192625D01*
X5283860Y4206189D01*
X5279440Y4219295D01*
X5273294Y4231741D01*
X5265623Y4243222D01*
X5256479Y4253636D01*
X5246065Y4262780D01*
X5234533Y4270502D01*
X5222138Y4276598D01*
X5208981Y4281068D01*
X5195417Y4283760D01*
X5181600Y4284675D01*
X5167782Y4283760D01*
X5154218Y4281068D01*
X5141061Y4276598D01*
X5128666Y4270502D01*
X5117134Y4262780D01*
X5106720Y4253636D01*
X5097576Y4243222D01*
X5089906Y4231741D01*
X5083759Y4219295D01*
X5079339Y4206189D01*
X5076596Y4192625D01*
X5075732Y4178757D01*
X5076596Y4164939D01*
X5079339Y4151376D01*
X5083759Y4138269D01*
X5089906Y4125823D01*
X5097576Y4114342D01*
X5106720Y4103928D01*
X5117134Y4094784D01*
X5128666Y4087063D01*
X5141061Y4080967D01*
X5154218Y4076496D01*
X5167782Y4073804D01*
G37*
G36*
X5080000Y4883962D02*
G01*
X5089804Y4884826D01*
X5099253Y4887366D01*
X5108194Y4891481D01*
X5116220Y4897120D01*
X5123180Y4904079D01*
X5128818Y4912106D01*
X5132933Y4921046D01*
X5135473Y4930495D01*
X5136337Y4940300D01*
X5135473Y4950104D01*
X5132933Y4959553D01*
X5128818Y4968494D01*
X5123180Y4976520D01*
X5121605Y4978095D01*
X5119370Y4981397D01*
X5118608Y4985308D01*
X5118608Y5542991D01*
X5119370Y5546902D01*
X5121605Y5550204D01*
X5123180Y5551779D01*
X5128818Y5559806D01*
X5132933Y5568746D01*
X5135473Y5578195D01*
X5136337Y5588000D01*
X5135473Y5597804D01*
X5132933Y5607253D01*
X5128818Y5616194D01*
X5123180Y5624220D01*
X5116220Y5631180D01*
X5108194Y5636818D01*
X5099253Y5640933D01*
X5089804Y5643473D01*
X5080000Y5644337D01*
X5070195Y5643473D01*
X5060746Y5640933D01*
X5051806Y5636818D01*
X5043779Y5631180D01*
X5036820Y5624220D01*
X5031181Y5616194D01*
X5027066Y5607253D01*
X5024526Y5597804D01*
X5023662Y5588000D01*
X5024526Y5578195D01*
X5027066Y5568746D01*
X5031181Y5559806D01*
X5036820Y5551779D01*
X5038394Y5550204D01*
X5040630Y5546902D01*
X5041392Y5542991D01*
X5041392Y4985308D01*
X5040630Y4981397D01*
X5038394Y4978095D01*
X5036820Y4976520D01*
X5031181Y4968494D01*
X5027066Y4959553D01*
X5024526Y4950104D01*
X5023662Y4940300D01*
X5024526Y4930495D01*
X5027066Y4921046D01*
X5031181Y4912106D01*
X5036820Y4904079D01*
X5043779Y4897120D01*
X5051806Y4891481D01*
X5060746Y4887366D01*
X5070195Y4884826D01*
G37*
G36*
X5473700Y105562D02*
G01*
X5478322Y105664D01*
X5501284Y108051D01*
X5523992Y112369D01*
X5546242Y118618D01*
X5567934Y126644D01*
X5588812Y136499D01*
X5608828Y148031D01*
X5627827Y161239D01*
X5645607Y175971D01*
X5662117Y192125D01*
X5677204Y209600D01*
X5690819Y228295D01*
X5702757Y248107D01*
X5713018Y268782D01*
X5721553Y290271D01*
X5728208Y312369D01*
X5733034Y334975D01*
X5735929Y357936D01*
X5736336Y368300D01*
X5473700Y368300D01*
G37*
G36*
X4000500Y5023662D02*
G01*
X4010304Y5024526D01*
X4019753Y5027066D01*
X4028694Y5031181D01*
X4036720Y5036820D01*
X4043679Y5043779D01*
X4049318Y5051806D01*
X4053433Y5060746D01*
X4055973Y5070195D01*
X4056837Y5080000D01*
X4055973Y5089804D01*
X4053433Y5099253D01*
X4049318Y5108194D01*
X4043679Y5116220D01*
X4042105Y5117795D01*
X4039870Y5121097D01*
X4039108Y5125008D01*
X4039108Y5327091D01*
X4039870Y5331002D01*
X4042105Y5334304D01*
X4043679Y5335879D01*
X4049318Y5343906D01*
X4053433Y5352846D01*
X4055973Y5362295D01*
X4056837Y5372100D01*
X4055973Y5381904D01*
X4053433Y5391353D01*
X4049318Y5400294D01*
X4043679Y5408320D01*
X4036720Y5415280D01*
X4028694Y5420918D01*
X4019753Y5425033D01*
X4010304Y5427573D01*
X4000500Y5428437D01*
X3990695Y5427573D01*
X3981246Y5425033D01*
X3972306Y5420918D01*
X3964279Y5415280D01*
X3957320Y5408320D01*
X3951681Y5400294D01*
X3947566Y5391353D01*
X3945026Y5381904D01*
X3944162Y5372100D01*
X3945026Y5362295D01*
X3947566Y5352846D01*
X3951681Y5343906D01*
X3957320Y5335879D01*
X3958894Y5334304D01*
X3961129Y5331002D01*
X3961892Y5327091D01*
X3961892Y5125008D01*
X3961129Y5121097D01*
X3958894Y5117795D01*
X3957320Y5116220D01*
X3951681Y5108194D01*
X3947566Y5099253D01*
X3945026Y5089804D01*
X3944162Y5080000D01*
X3945026Y5070195D01*
X3947566Y5060746D01*
X3951681Y5051806D01*
X3957320Y5043779D01*
X3964279Y5036820D01*
X3972306Y5031181D01*
X3981246Y5027066D01*
X3990695Y5024526D01*
G37*
G36*
X5473700Y5185562D02*
G01*
X5478322Y5185664D01*
X5501284Y5188051D01*
X5523992Y5192369D01*
X5546242Y5198618D01*
X5567934Y5206644D01*
X5588812Y5216499D01*
X5608828Y5228031D01*
X5627827Y5241239D01*
X5645607Y5255971D01*
X5662117Y5272125D01*
X5677204Y5289600D01*
X5690819Y5308295D01*
X5702757Y5328107D01*
X5713018Y5348782D01*
X5721553Y5370271D01*
X5728208Y5392369D01*
X5733034Y5414975D01*
X5735929Y5437936D01*
X5736336Y5448300D01*
X5473700Y5448300D01*
G37*
G36*
X393700Y5185562D02*
G01*
X398322Y5185664D01*
X421284Y5188051D01*
X443992Y5192369D01*
X466242Y5198618D01*
X487934Y5206644D01*
X508812Y5216499D01*
X528828Y5228031D01*
X547827Y5241239D01*
X565607Y5255971D01*
X582117Y5272125D01*
X597204Y5289600D01*
X610819Y5308295D01*
X622757Y5328107D01*
X633018Y5348782D01*
X641553Y5370271D01*
X648208Y5392369D01*
X653034Y5414975D01*
X655929Y5437936D01*
X656336Y5448300D01*
X393700Y5448300D01*
G37*
G36*
X5448300Y5185613D02*
G01*
X5448300Y5448300D01*
X5185410Y5448300D01*
X5187289Y5426405D01*
X5191150Y5403646D01*
X5196890Y5381244D01*
X5204460Y5359450D01*
X5213858Y5338318D01*
X5224983Y5318099D01*
X5237784Y5298846D01*
X5252161Y5280710D01*
X5267960Y5263896D01*
X5285130Y5248402D01*
X5303520Y5234432D01*
X5323027Y5222087D01*
X5343499Y5211368D01*
X5364835Y5202428D01*
X5386781Y5195265D01*
X5409285Y5189982D01*
X5432145Y5186629D01*
G37*
G36*
X368300Y5185613D02*
G01*
X368300Y5448300D01*
X105410Y5448300D01*
X107289Y5426405D01*
X111150Y5403646D01*
X116890Y5381244D01*
X124460Y5359450D01*
X133858Y5338318D01*
X144983Y5318099D01*
X157784Y5298846D01*
X172161Y5280710D01*
X187960Y5263896D01*
X205130Y5248402D01*
X223520Y5234432D01*
X243027Y5222087D01*
X263499Y5211368D01*
X284835Y5202428D01*
X306781Y5195265D01*
X329285Y5189982D01*
X352145Y5186629D01*
G37*
G36*
X4559300Y5219039D02*
G01*
X4559300Y5321300D01*
X4456887Y5321300D01*
X4457039Y5319471D01*
X4459732Y5305196D01*
X4464253Y5291328D01*
X4470450Y5278170D01*
X4478223Y5265877D01*
X4487519Y5254650D01*
X4498136Y5244693D01*
X4509922Y5236159D01*
X4522673Y5229148D01*
X4536186Y5223764D01*
X4550308Y5220157D01*
G37*
G36*
X4584700Y5219039D02*
G01*
X4593691Y5220157D01*
X4607814Y5223764D01*
X4621326Y5229148D01*
X4634077Y5236159D01*
X4645863Y5244693D01*
X4656480Y5254650D01*
X4665776Y5265877D01*
X4673549Y5278170D01*
X4679746Y5291328D01*
X4684268Y5305196D01*
X4686960Y5319471D01*
X4687112Y5321300D01*
X4584700Y5321300D01*
G37*
G36*
X4584700Y5346700D02*
G01*
X4687112Y5346700D01*
X4686960Y5348528D01*
X4684268Y5362803D01*
X4679746Y5376672D01*
X4673549Y5389829D01*
X4665776Y5402122D01*
X4656480Y5413349D01*
X4645863Y5423306D01*
X4634077Y5431840D01*
X4621326Y5438851D01*
X4607814Y5444236D01*
X4593691Y5447842D01*
X4584700Y5448960D01*
G37*
G36*
X4456887Y5346700D02*
G01*
X4559300Y5346700D01*
X4559300Y5448960D01*
X4550308Y5447842D01*
X4536186Y5444236D01*
X4522673Y5438851D01*
X4509922Y5431840D01*
X4498136Y5423306D01*
X4487519Y5413349D01*
X4478223Y5402122D01*
X4470450Y5389829D01*
X4464253Y5376672D01*
X4459732Y5362803D01*
X4457039Y5348528D01*
G37*
G36*
X4818735Y5472328D02*
G01*
X4833264Y5472328D01*
X4847691Y5474157D01*
X4861814Y5477764D01*
X4875326Y5483148D01*
X4888077Y5490159D01*
X4899863Y5498693D01*
X4910480Y5508650D01*
X4919776Y5519877D01*
X4927549Y5532170D01*
X4933746Y5545328D01*
X4938268Y5559196D01*
X4940960Y5573471D01*
X4941874Y5588000D01*
X4940960Y5602528D01*
X4938268Y5616803D01*
X4933746Y5630672D01*
X4927549Y5643829D01*
X4919776Y5656122D01*
X4910480Y5667349D01*
X4899863Y5677306D01*
X4888077Y5685840D01*
X4875326Y5692851D01*
X4861814Y5698236D01*
X4847691Y5701842D01*
X4833264Y5703671D01*
X4818735Y5703671D01*
X4804308Y5701842D01*
X4790186Y5698236D01*
X4776673Y5692851D01*
X4763922Y5685840D01*
X4752136Y5677306D01*
X4741519Y5667349D01*
X4732223Y5656122D01*
X4724450Y5643829D01*
X4718253Y5630672D01*
X4713732Y5616803D01*
X4711039Y5602528D01*
X4710125Y5588000D01*
X4711039Y5573471D01*
X4713732Y5559196D01*
X4718253Y5545328D01*
X4724450Y5532170D01*
X4732223Y5519877D01*
X4741519Y5508650D01*
X4752136Y5498693D01*
X4763922Y5490159D01*
X4776673Y5483148D01*
X4790186Y5477764D01*
X4804308Y5474157D01*
G37*
G36*
X4584700Y5473039D02*
G01*
X4593691Y5474157D01*
X4607814Y5477764D01*
X4621326Y5483148D01*
X4634077Y5490159D01*
X4645863Y5498693D01*
X4656480Y5508650D01*
X4665776Y5519877D01*
X4673549Y5532170D01*
X4679746Y5545328D01*
X4684268Y5559196D01*
X4686960Y5573471D01*
X4687112Y5575300D01*
X4584700Y5575300D01*
G37*
G36*
X4559300Y5473039D02*
G01*
X4559300Y5575300D01*
X4456887Y5575300D01*
X4457039Y5573471D01*
X4459732Y5559196D01*
X4464253Y5545328D01*
X4470450Y5532170D01*
X4478223Y5519877D01*
X4487519Y5508650D01*
X4498136Y5498693D01*
X4509922Y5490159D01*
X4522673Y5483148D01*
X4536186Y5477764D01*
X4550308Y5474157D01*
G37*
G36*
X393700Y5473700D02*
G01*
X656336Y5473700D01*
X655929Y5484063D01*
X653034Y5507024D01*
X648208Y5529630D01*
X641553Y5551728D01*
X633018Y5573217D01*
X622757Y5593892D01*
X610819Y5613704D01*
X597204Y5632348D01*
X582117Y5649874D01*
X565607Y5666028D01*
X547827Y5680760D01*
X528828Y5693968D01*
X508812Y5705500D01*
X487934Y5715355D01*
X466242Y5723382D01*
X443992Y5729630D01*
X421284Y5733948D01*
X398322Y5736336D01*
X393700Y5736437D01*
G37*
G36*
X5473700Y5473700D02*
G01*
X5736336Y5473700D01*
X5735929Y5484063D01*
X5733034Y5507024D01*
X5728208Y5529630D01*
X5721553Y5551728D01*
X5713018Y5573217D01*
X5702757Y5593892D01*
X5690819Y5613704D01*
X5677204Y5632348D01*
X5662117Y5649874D01*
X5645607Y5666028D01*
X5627827Y5680760D01*
X5608828Y5693968D01*
X5588812Y5705500D01*
X5567934Y5715355D01*
X5546242Y5723382D01*
X5523992Y5729630D01*
X5501284Y5733948D01*
X5478322Y5736336D01*
X5473700Y5736437D01*
G37*
G36*
X5185410Y5473700D02*
G01*
X5448300Y5473700D01*
X5448300Y5736386D01*
X5432145Y5735370D01*
X5409285Y5732018D01*
X5386781Y5726734D01*
X5364835Y5719572D01*
X5343499Y5710631D01*
X5323027Y5699912D01*
X5303520Y5687568D01*
X5285130Y5673598D01*
X5267960Y5658104D01*
X5252161Y5641289D01*
X5237784Y5623153D01*
X5224983Y5603900D01*
X5213858Y5583682D01*
X5204460Y5562549D01*
X5196890Y5540756D01*
X5191150Y5518353D01*
X5187289Y5495594D01*
G37*
G36*
X105410Y5473700D02*
G01*
X368300Y5473700D01*
X368300Y5736386D01*
X352145Y5735370D01*
X329285Y5732018D01*
X306781Y5726734D01*
X284835Y5719572D01*
X263499Y5710631D01*
X243027Y5699912D01*
X223520Y5687568D01*
X205130Y5673598D01*
X187960Y5658104D01*
X172161Y5641289D01*
X157784Y5623153D01*
X144983Y5603900D01*
X133858Y5583682D01*
X124460Y5562549D01*
X116890Y5540756D01*
X111150Y5518353D01*
X107289Y5495594D01*
G37*
G36*
X4456887Y5600700D02*
G01*
X4559300Y5600700D01*
X4559300Y5702960D01*
X4550308Y5701842D01*
X4536186Y5698236D01*
X4522673Y5692851D01*
X4509922Y5685840D01*
X4498136Y5677306D01*
X4487519Y5667349D01*
X4478223Y5656122D01*
X4470450Y5643829D01*
X4464253Y5630672D01*
X4459732Y5616803D01*
X4457039Y5602528D01*
G37*
G36*
X4826000Y5022138D02*
G01*
X4835804Y5023002D01*
X4845253Y5025542D01*
X4854194Y5029708D01*
X4862220Y5035346D01*
X4869180Y5042255D01*
X4874818Y5050332D01*
X4878933Y5059222D01*
X4881473Y5068722D01*
X4882337Y5078476D01*
X4881473Y5088280D01*
X4878933Y5097780D01*
X4874818Y5106670D01*
X4869180Y5114747D01*
X4867605Y5116322D01*
X4865370Y5119624D01*
X4864608Y5123484D01*
X4864608Y5217972D01*
X4865420Y5221935D01*
X4867656Y5225237D01*
X4871008Y5227421D01*
X4875326Y5229148D01*
X4888077Y5236159D01*
X4899863Y5244693D01*
X4910480Y5254650D01*
X4919776Y5265877D01*
X4927549Y5278170D01*
X4933746Y5291328D01*
X4938268Y5305196D01*
X4940960Y5319471D01*
X4941874Y5334000D01*
X4940960Y5348528D01*
X4938268Y5362803D01*
X4933746Y5376672D01*
X4927549Y5389829D01*
X4919776Y5402122D01*
X4910480Y5413349D01*
X4899863Y5423306D01*
X4888077Y5431840D01*
X4875326Y5438851D01*
X4861814Y5444236D01*
X4847691Y5447842D01*
X4833264Y5449671D01*
X4818735Y5449671D01*
X4804308Y5447842D01*
X4790186Y5444236D01*
X4776673Y5438851D01*
X4763922Y5431840D01*
X4752136Y5423306D01*
X4741519Y5413349D01*
X4732223Y5402122D01*
X4724450Y5389829D01*
X4718253Y5376672D01*
X4713732Y5362803D01*
X4711039Y5348528D01*
X4710125Y5334000D01*
X4711039Y5319471D01*
X4713732Y5305196D01*
X4718253Y5291328D01*
X4724450Y5278170D01*
X4732223Y5265877D01*
X4741519Y5254650D01*
X4752136Y5244693D01*
X4763922Y5236159D01*
X4776673Y5229148D01*
X4780991Y5227421D01*
X4784344Y5225237D01*
X4786579Y5221935D01*
X4787392Y5217972D01*
X4787392Y5123484D01*
X4786630Y5119624D01*
X4784394Y5116322D01*
X4782820Y5114747D01*
X4777181Y5106670D01*
X4773066Y5097780D01*
X4770526Y5088280D01*
X4769662Y5078476D01*
X4770526Y5068722D01*
X4773066Y5059222D01*
X4777181Y5050332D01*
X4782820Y5042255D01*
X4789779Y5035346D01*
X4797806Y5029708D01*
X4806746Y5025542D01*
X4816195Y5023002D01*
G37*

%LPD*%
D10*
X3416300Y5372100D02*
G01*
X3416300Y4940300D01*
X4826000Y5078498D02*
G01*
X4826000Y5334000D01*
X3378200Y3619500D02*
G01*
X3378200Y4902200D01*
X3416300Y4940300D01*
X3378200Y3619500D02*
G01*
X3378200Y3111500D01*
X3378200Y3111500D02*
G01*
X3378200Y2603500D01*
X3378200Y2603500D02*
G01*
X3378200Y2095500D01*
X2819400Y2209800D02*
G01*
X2819400Y2717800D01*
X2819400Y2717800D02*
G01*
X2819400Y3225800D01*
X2819400Y3225800D02*
G01*
X2819400Y3733800D01*
X2819400Y3733800D02*
G01*
X2819400Y5080000D01*
X5080000Y4940300D02*
G01*
X5080000Y5588000D01*
X4000500Y5372100D02*
G01*
X4000500Y5080000D01*
D11*
G01*
X999997Y6041999D03*
G01*
X10884001Y6041999D03*
G01*
X1499996Y-6241999D03*
G01*
X10384002Y-6241999D03*
D12*
G01*
X381000Y5461000D03*
G01*
X5461000Y5461000D03*
G01*
X5461000Y381000D03*
G01*
X381000Y381000D03*
D13*
G01*
X4956581Y2029205D03*
G01*
X4956581Y2283205D03*
G01*
X4956581Y2537205D03*
G01*
X4956581Y2791205D03*
G01*
X4956581Y3045205D03*
G01*
X4956581Y3299205D03*
G01*
X4956581Y3553205D03*
G01*
X4956581Y3807205D03*
G01*
X885418Y2017395D03*
G01*
X885418Y2271395D03*
G01*
X885418Y2525395D03*
G01*
X885418Y2779395D03*
G01*
X885418Y3033395D03*
G01*
X885418Y3287395D03*
G01*
X885418Y3541395D03*
G01*
X885418Y3795395D03*
D14*
G01*
X4826000Y5588000D03*
G01*
X4826000Y5334000D03*
G01*
X4572000Y5334000D03*
G01*
X4572000Y5588000D03*
D15*
G01*
X3416300Y4940300D03*
G01*
X3416300Y5372100D03*
G01*
X5080000Y4940300D03*
G01*
X5080000Y5588000D03*
G01*
X4000500Y5080000D03*
G01*
X4826000Y5078501D03*
G01*
X2819400Y3733800D03*
G01*
X3378200Y3619500D03*
G01*
X3378200Y3111500D03*
G01*
X2819400Y3225800D03*
G01*
X3378200Y2603500D03*
G01*
X2819400Y2717800D03*
G01*
X3378200Y2095500D03*
G01*
X2819400Y2209800D03*
G01*
X2819400Y5080000D03*
G01*
X3632200Y3619500D03*
G01*
X3632200Y3111500D03*
G01*
X3632200Y2603500D03*
G01*
X3632200Y2095500D03*
G01*
X2571597Y3733800D03*
G01*
X2571597Y3225800D03*
G01*
X2571597Y2717800D03*
G01*
X2571597Y2209800D03*
G01*
X1003300Y3162300D03*
G01*
X1003300Y3670300D03*
G01*
X1003300Y3416300D03*
G01*
X1003300Y2908300D03*
G01*
X1003300Y2654300D03*
G01*
X1003300Y2400300D03*
G01*
X1003300Y2146300D03*
G01*
X4838700Y3678301D03*
G01*
X4838700Y3424301D03*
G01*
X4838700Y3170301D03*
G01*
X4838700Y2916301D03*
G01*
X4838700Y2662301D03*
G01*
X4838700Y2408301D03*
G01*
X4838700Y2154301D03*
G01*
X4000500Y5372100D03*
M02*
