G04 Layer: BottomSilkscreenLayer*
G04 EasyEDA v6.5.32, 2023-07-25 14:04:49*
G04 e29bc2ffff424919aeca0c2d5bcb6023,5a6b42c53f6a479593ecc07194224c93,10*
G04 Gerber Generator version 0.2*
G04 Scale: 100 percent, Rotated: No, Reflected: No *
G04 Dimensions in millimeters *
G04 leading zeros omitted , absolute positions ,4 integer and 5 decimal *
%FSLAX45Y45*%
%MOMM*%

%ADD10C,0.1520*%
%ADD11C,0.1524*%
%ADD12C,0.2540*%

%LPD*%
D10*
X1878444Y5423938D02*
G01*
X1878444Y5340812D01*
X1883641Y5325224D01*
X1888835Y5320029D01*
X1899226Y5314835D01*
X1909617Y5314835D01*
X1920008Y5320029D01*
X1925205Y5325224D01*
X1930400Y5340812D01*
X1930400Y5351203D01*
X1844154Y5423938D02*
G01*
X1844154Y5314835D01*
X1844154Y5314835D02*
G01*
X1781810Y5314835D01*
X1669587Y5397962D02*
G01*
X1674784Y5408353D01*
X1685175Y5418744D01*
X1695564Y5423938D01*
X1716346Y5423938D01*
X1726737Y5418744D01*
X1737128Y5408353D01*
X1742325Y5397962D01*
X1747520Y5382374D01*
X1747520Y5356397D01*
X1742325Y5340812D01*
X1737128Y5330421D01*
X1726737Y5320029D01*
X1716346Y5314835D01*
X1695564Y5314835D01*
X1685175Y5320029D01*
X1674784Y5330421D01*
X1669587Y5340812D01*
X1583344Y5423938D02*
G01*
X1583344Y5340812D01*
X1588538Y5325224D01*
X1593735Y5320029D01*
X1604124Y5314835D01*
X1614515Y5314835D01*
X1624906Y5320029D01*
X1630103Y5325224D01*
X1635297Y5340812D01*
X1635297Y5351203D01*
X1549054Y5423938D02*
G01*
X1549054Y5314835D01*
X1549054Y5314835D02*
G01*
X1486707Y5314835D01*
X1374485Y5397962D02*
G01*
X1379682Y5408353D01*
X1390073Y5418744D01*
X1400464Y5423938D01*
X1421244Y5423938D01*
X1431635Y5418744D01*
X1442026Y5408353D01*
X1447223Y5397962D01*
X1452417Y5382374D01*
X1452417Y5356397D01*
X1447223Y5340812D01*
X1442026Y5330421D01*
X1431635Y5320029D01*
X1421244Y5314835D01*
X1400464Y5314835D01*
X1390073Y5320029D01*
X1379682Y5330421D01*
X1374485Y5340812D01*
X1288242Y5423938D02*
G01*
X1288242Y5340812D01*
X1293436Y5325224D01*
X1298633Y5320029D01*
X1309024Y5314835D01*
X1319415Y5314835D01*
X1329804Y5320029D01*
X1335001Y5325224D01*
X1340195Y5340812D01*
X1340195Y5351203D01*
X1253952Y5423938D02*
G01*
X1253952Y5314835D01*
X1253952Y5314835D02*
G01*
X1191605Y5314835D01*
X1079385Y5397962D02*
G01*
X1084579Y5408353D01*
X1094971Y5418744D01*
X1105362Y5423938D01*
X1126144Y5423938D01*
X1136535Y5418744D01*
X1146924Y5408353D01*
X1152121Y5397962D01*
X1157315Y5382374D01*
X1157315Y5356397D01*
X1152121Y5340812D01*
X1146924Y5330421D01*
X1136535Y5320029D01*
X1126144Y5314835D01*
X1105362Y5314835D01*
X1094971Y5320029D01*
X1084579Y5330421D01*
X1079385Y5340812D01*
X993139Y5423938D02*
G01*
X993139Y5340812D01*
X998334Y5325224D01*
X1003531Y5320029D01*
X1013922Y5314835D01*
X1024313Y5314835D01*
X1034704Y5320029D01*
X1039898Y5325224D01*
X1045095Y5340812D01*
X1045095Y5351203D01*
X958850Y5423938D02*
G01*
X958850Y5314835D01*
X958850Y5314835D02*
G01*
X896505Y5314835D01*
X784283Y5397962D02*
G01*
X789477Y5408353D01*
X799868Y5418744D01*
X810260Y5423938D01*
X831042Y5423938D01*
X841433Y5418744D01*
X851824Y5408353D01*
X857018Y5397962D01*
X862215Y5382374D01*
X862215Y5356397D01*
X857018Y5340812D01*
X851824Y5330421D01*
X841433Y5320029D01*
X831042Y5314835D01*
X810260Y5314835D01*
X799868Y5320029D01*
X789477Y5330421D01*
X784283Y5340812D01*
D11*
X2766822Y5575807D02*
G01*
X2772156Y5586221D01*
X2782570Y5596636D01*
X2792729Y5601715D01*
X2813558Y5601715D01*
X2823972Y5596636D01*
X2834386Y5586221D01*
X2839720Y5575807D01*
X2844800Y5560060D01*
X2844800Y5534152D01*
X2839720Y5518657D01*
X2834386Y5508244D01*
X2823972Y5497829D01*
X2813558Y5492750D01*
X2792729Y5492750D01*
X2782570Y5497829D01*
X2772156Y5508244D01*
X2766822Y5518657D01*
X2701290Y5601715D02*
G01*
X2711704Y5596636D01*
X2722118Y5586221D01*
X2727452Y5575807D01*
X2732531Y5560060D01*
X2732531Y5534152D01*
X2727452Y5518657D01*
X2722118Y5508244D01*
X2711704Y5497829D01*
X2701290Y5492750D01*
X2680715Y5492750D01*
X2670302Y5497829D01*
X2659888Y5508244D01*
X2654554Y5518657D01*
X2649474Y5534152D01*
X2649474Y5560060D01*
X2654554Y5575807D01*
X2659888Y5586221D01*
X2670302Y5596636D01*
X2680715Y5601715D01*
X2701290Y5601715D01*
X2615184Y5601715D02*
G01*
X2615184Y5492750D01*
X2615184Y5601715D02*
G01*
X2568447Y5601715D01*
X2552700Y5596636D01*
X2547620Y5591302D01*
X2542540Y5580887D01*
X2542540Y5565394D01*
X2547620Y5554979D01*
X2552700Y5549900D01*
X2568447Y5544565D01*
X2615184Y5544565D01*
X2508250Y5601715D02*
G01*
X2466593Y5549900D01*
X2466593Y5492750D01*
X2424938Y5601715D02*
G01*
X2466593Y5549900D01*
X2390647Y5601715D02*
G01*
X2390647Y5492750D01*
X2390647Y5601715D02*
G01*
X2343911Y5601715D01*
X2328418Y5596636D01*
X2323084Y5591302D01*
X2318004Y5580887D01*
X2318004Y5570473D01*
X2323084Y5560060D01*
X2328418Y5554979D01*
X2343911Y5549900D01*
X2390647Y5549900D01*
X2354325Y5549900D02*
G01*
X2318004Y5492750D01*
X2283713Y5601715D02*
G01*
X2283713Y5492750D01*
X2171445Y5575807D02*
G01*
X2176779Y5586221D01*
X2186940Y5596636D01*
X2197354Y5601715D01*
X2218181Y5601715D01*
X2228595Y5596636D01*
X2239009Y5586221D01*
X2244090Y5575807D01*
X2249424Y5560060D01*
X2249424Y5534152D01*
X2244090Y5518657D01*
X2239009Y5508244D01*
X2228595Y5497829D01*
X2218181Y5492750D01*
X2197354Y5492750D01*
X2186940Y5497829D01*
X2176779Y5508244D01*
X2171445Y5518657D01*
X2171445Y5534152D01*
X2197354Y5534152D02*
G01*
X2171445Y5534152D01*
X2137156Y5601715D02*
G01*
X2137156Y5492750D01*
X2064511Y5601715D02*
G01*
X2064511Y5492750D01*
X2137156Y5549900D02*
G01*
X2064511Y5549900D01*
X1993900Y5601715D02*
G01*
X1993900Y5492750D01*
X2030222Y5601715D02*
G01*
X1957324Y5601715D01*
X1837944Y5575807D02*
G01*
X1837944Y5580887D01*
X1832610Y5591302D01*
X1827529Y5596636D01*
X1817115Y5601715D01*
X1796287Y5601715D01*
X1785873Y5596636D01*
X1780794Y5591302D01*
X1775460Y5580887D01*
X1775460Y5570473D01*
X1780794Y5560060D01*
X1791207Y5544565D01*
X1843023Y5492750D01*
X1770379Y5492750D01*
X1704847Y5601715D02*
G01*
X1720595Y5596636D01*
X1731010Y5580887D01*
X1736089Y5554979D01*
X1736089Y5539486D01*
X1731010Y5513323D01*
X1720595Y5497829D01*
X1704847Y5492750D01*
X1694434Y5492750D01*
X1678939Y5497829D01*
X1668526Y5513323D01*
X1663445Y5539486D01*
X1663445Y5554979D01*
X1668526Y5580887D01*
X1678939Y5596636D01*
X1694434Y5601715D01*
X1704847Y5601715D01*
X1623821Y5575807D02*
G01*
X1623821Y5580887D01*
X1618742Y5591302D01*
X1613407Y5596636D01*
X1602994Y5601715D01*
X1582420Y5601715D01*
X1572005Y5596636D01*
X1566671Y5591302D01*
X1561592Y5580887D01*
X1561592Y5570473D01*
X1566671Y5560060D01*
X1577086Y5544565D01*
X1629155Y5492750D01*
X1556257Y5492750D01*
X1516887Y5575807D02*
G01*
X1516887Y5580887D01*
X1511554Y5591302D01*
X1506473Y5596636D01*
X1496060Y5601715D01*
X1475231Y5601715D01*
X1464818Y5596636D01*
X1459737Y5591302D01*
X1454404Y5580887D01*
X1454404Y5570473D01*
X1459737Y5560060D01*
X1470152Y5544565D01*
X1521968Y5492750D01*
X1449323Y5492750D01*
X1335023Y5601715D02*
G01*
X1293368Y5492750D01*
X1251965Y5601715D02*
G01*
X1293368Y5492750D01*
X1217676Y5601715D02*
G01*
X1217676Y5492750D01*
X1217676Y5601715D02*
G01*
X1150112Y5601715D01*
X1217676Y5549900D02*
G01*
X1176020Y5549900D01*
X1217676Y5492750D02*
G01*
X1150112Y5492750D01*
X1042923Y5601715D02*
G01*
X1094994Y5492750D01*
X1115821Y5601715D02*
G01*
X1042923Y5601715D01*
X1008634Y5601715D02*
G01*
X1008634Y5492750D01*
X1008634Y5601715D02*
G01*
X941070Y5601715D01*
X1008634Y5549900D02*
G01*
X967231Y5549900D01*
X906779Y5601715D02*
G01*
X906779Y5492750D01*
X872489Y5601715D02*
G01*
X872489Y5492750D01*
X872489Y5601715D02*
G01*
X831087Y5492750D01*
X789431Y5601715D02*
G01*
X831087Y5492750D01*
X789431Y5601715D02*
G01*
X789431Y5492750D01*
X4128648Y5169928D02*
G01*
X4180601Y5169928D01*
X4185798Y5123169D01*
X4180601Y5128364D01*
X4165015Y5133560D01*
X4149427Y5133560D01*
X4133842Y5128364D01*
X4123451Y5117975D01*
X4118256Y5102387D01*
X4118256Y5091996D01*
X4123451Y5076410D01*
X4133842Y5066019D01*
X4149427Y5060825D01*
X4165015Y5060825D01*
X4180601Y5066019D01*
X4185798Y5071214D01*
X4190992Y5081605D01*
X4083966Y5169928D02*
G01*
X4042402Y5060825D01*
X4000837Y5169928D02*
G01*
X4042402Y5060825D01*
X3855366Y5169928D02*
G01*
X3865758Y5164734D01*
X3876146Y5154343D01*
X3881343Y5143952D01*
X3886537Y5128364D01*
X3886537Y5102387D01*
X3881343Y5086802D01*
X3876146Y5076410D01*
X3865758Y5066019D01*
X3855366Y5060825D01*
X3834584Y5060825D01*
X3824193Y5066019D01*
X3813802Y5076410D01*
X3808608Y5086802D01*
X3803411Y5102387D01*
X3803411Y5128364D01*
X3808608Y5143952D01*
X3813802Y5154343D01*
X3824193Y5164734D01*
X3834584Y5169928D01*
X3855366Y5169928D01*
X3769121Y5169928D02*
G01*
X3769121Y5091996D01*
X3763926Y5076410D01*
X3753535Y5066019D01*
X3737947Y5060825D01*
X3727556Y5060825D01*
X3711971Y5066019D01*
X3701580Y5076410D01*
X3696385Y5091996D01*
X3696385Y5169928D01*
X3625728Y5169928D02*
G01*
X3625728Y5060825D01*
X3662095Y5169928D02*
G01*
X3589357Y5169928D01*
X3555067Y5169928D02*
G01*
X3555067Y5060825D01*
X3555067Y5169928D02*
G01*
X3508308Y5169928D01*
X3492723Y5164734D01*
X3487526Y5159537D01*
X3482332Y5149146D01*
X3482332Y5133560D01*
X3487526Y5123169D01*
X3492723Y5117975D01*
X3508308Y5112778D01*
X3555067Y5112778D01*
X3448042Y5169928D02*
G01*
X3448042Y5091996D01*
X3442848Y5076410D01*
X3432456Y5066019D01*
X3416868Y5060825D01*
X3406477Y5060825D01*
X3390892Y5066019D01*
X3380501Y5076410D01*
X3375306Y5091996D01*
X3375306Y5169928D01*
X3304646Y5169928D02*
G01*
X3304646Y5060825D01*
X3341016Y5169928D02*
G01*
X3268278Y5169928D01*
X3153978Y5169928D02*
G01*
X3153978Y5060825D01*
X3153978Y5169928D02*
G01*
X3086437Y5169928D01*
X3153978Y5117975D02*
G01*
X3112416Y5117975D01*
X3153978Y5060825D02*
G01*
X3086437Y5060825D01*
X3052147Y5169928D02*
G01*
X3052147Y5060825D01*
X3052147Y5169928D02*
G01*
X2979412Y5060825D01*
X2979412Y5169928D02*
G01*
X2979412Y5060825D01*
X2903557Y5169928D02*
G01*
X2945122Y5060825D01*
X2903557Y5169928D02*
G01*
X2861995Y5060825D01*
X2929536Y5097193D02*
G01*
X2877581Y5097193D01*
X2827705Y5169928D02*
G01*
X2827705Y5060825D01*
X2827705Y5169928D02*
G01*
X2780946Y5169928D01*
X2765358Y5164734D01*
X2760164Y5159537D01*
X2754967Y5149146D01*
X2754967Y5138755D01*
X2760164Y5128364D01*
X2765358Y5123169D01*
X2780946Y5117975D01*
X2827705Y5117975D02*
G01*
X2780946Y5117975D01*
X2765358Y5112778D01*
X2760164Y5107584D01*
X2754967Y5097193D01*
X2754967Y5081605D01*
X2760164Y5071214D01*
X2765358Y5066019D01*
X2780946Y5060825D01*
X2827705Y5060825D01*
X2720677Y5169928D02*
G01*
X2720677Y5060825D01*
X2720677Y5060825D02*
G01*
X2658333Y5060825D01*
X2624043Y5169928D02*
G01*
X2624043Y5060825D01*
X2624043Y5169928D02*
G01*
X2556502Y5169928D01*
X2624043Y5117975D02*
G01*
X2582478Y5117975D01*
X2624043Y5060825D02*
G01*
X2556502Y5060825D01*
X5740402Y4992138D02*
G01*
X5740402Y4883035D01*
X5740402Y4992138D02*
G01*
X5693643Y4992138D01*
X5678058Y4986944D01*
X5672861Y4981747D01*
X5667667Y4971356D01*
X5667667Y4960965D01*
X5672861Y4950574D01*
X5678058Y4945379D01*
X5693643Y4940185D01*
X5740402Y4940185D01*
X5704034Y4940185D02*
G01*
X5667667Y4883035D01*
X5633377Y4992138D02*
G01*
X5633377Y4883035D01*
X5633377Y4992138D02*
G01*
X5565835Y4992138D01*
X5633377Y4940185D02*
G01*
X5591812Y4940185D01*
X5633377Y4883035D02*
G01*
X5565835Y4883035D01*
X5531545Y4992138D02*
G01*
X5531545Y4883035D01*
X5531545Y4992138D02*
G01*
X5489981Y4883035D01*
X5448416Y4992138D02*
G01*
X5489981Y4883035D01*
X5448416Y4992138D02*
G01*
X5448416Y4883035D01*
X5382955Y4992138D02*
G01*
X5393347Y4986944D01*
X5403738Y4976553D01*
X5408932Y4966162D01*
X5414126Y4950574D01*
X5414126Y4924597D01*
X5408932Y4909012D01*
X5403738Y4898621D01*
X5393347Y4888229D01*
X5382955Y4883035D01*
X5362173Y4883035D01*
X5351782Y4888229D01*
X5341391Y4898621D01*
X5336197Y4909012D01*
X5331000Y4924597D01*
X5331000Y4950574D01*
X5336197Y4966162D01*
X5341391Y4976553D01*
X5351782Y4986944D01*
X5362173Y4992138D01*
X5382955Y4992138D01*
X5296710Y4992138D02*
G01*
X5255148Y4883035D01*
X5213583Y4992138D02*
G01*
X5255148Y4883035D01*
X5179293Y4992138D02*
G01*
X5179293Y4883035D01*
X5179293Y4992138D02*
G01*
X5111752Y4992138D01*
X5179293Y4940185D02*
G01*
X5137729Y4940185D01*
X5179293Y4883035D02*
G01*
X5111752Y4883035D01*
X4997452Y4992138D02*
G01*
X4997452Y4883035D01*
X4963162Y4992138D02*
G01*
X4963162Y4883035D01*
X4963162Y4992138D02*
G01*
X4895621Y4992138D01*
X4963162Y4940185D02*
G01*
X4921597Y4940185D01*
X4750147Y4992138D02*
G01*
X4760539Y4986944D01*
X4770930Y4976553D01*
X4776127Y4966162D01*
X4781321Y4950574D01*
X4781321Y4924597D01*
X4776127Y4909012D01*
X4770930Y4898621D01*
X4760539Y4888229D01*
X4750147Y4883035D01*
X4729368Y4883035D01*
X4718977Y4888229D01*
X4708585Y4898621D01*
X4703389Y4909012D01*
X4698194Y4924597D01*
X4698194Y4950574D01*
X4703389Y4966162D01*
X4708585Y4976553D01*
X4718977Y4986944D01*
X4729368Y4992138D01*
X4750147Y4992138D01*
X4627537Y4992138D02*
G01*
X4627537Y4883035D01*
X4663904Y4992138D02*
G01*
X4591166Y4992138D01*
X4556876Y4992138D02*
G01*
X4556876Y4883035D01*
X4484141Y4992138D02*
G01*
X4484141Y4883035D01*
X4556876Y4940185D02*
G01*
X4484141Y4940185D01*
X4449851Y4992138D02*
G01*
X4449851Y4883035D01*
X4449851Y4992138D02*
G01*
X4382307Y4992138D01*
X4449851Y4940185D02*
G01*
X4408286Y4940185D01*
X4449851Y4883035D02*
G01*
X4382307Y4883035D01*
X4348020Y4992138D02*
G01*
X4348020Y4883035D01*
X4348020Y4992138D02*
G01*
X4301261Y4992138D01*
X4285675Y4986944D01*
X4280479Y4981747D01*
X4275284Y4971356D01*
X4275284Y4960965D01*
X4280479Y4950574D01*
X4285675Y4945379D01*
X4301261Y4940185D01*
X4348020Y4940185D01*
X4311652Y4940185D02*
G01*
X4275284Y4883035D01*
X4160984Y4992138D02*
G01*
X4160984Y4883035D01*
X4160984Y4992138D02*
G01*
X4114225Y4992138D01*
X4098637Y4986944D01*
X4093441Y4981747D01*
X4088244Y4971356D01*
X4088244Y4955771D01*
X4093441Y4945379D01*
X4098637Y4940185D01*
X4114225Y4934988D01*
X4160984Y4934988D01*
X4022785Y4992138D02*
G01*
X4033177Y4986944D01*
X4043565Y4976553D01*
X4048762Y4966162D01*
X4053956Y4950574D01*
X4053956Y4924597D01*
X4048762Y4909012D01*
X4043565Y4898621D01*
X4033177Y4888229D01*
X4022785Y4883035D01*
X4002003Y4883035D01*
X3991612Y4888229D01*
X3981218Y4898621D01*
X3976027Y4909012D01*
X3970830Y4924597D01*
X3970830Y4950574D01*
X3976027Y4966162D01*
X3981218Y4976553D01*
X3991612Y4986944D01*
X4002003Y4992138D01*
X4022785Y4992138D01*
X3936540Y4992138D02*
G01*
X3910563Y4883035D01*
X3884587Y4992138D02*
G01*
X3910563Y4883035D01*
X3884587Y4992138D02*
G01*
X3858605Y4883035D01*
X3832631Y4992138D02*
G01*
X3858605Y4883035D01*
X3798341Y4992138D02*
G01*
X3798341Y4883035D01*
X3798341Y4992138D02*
G01*
X3730800Y4992138D01*
X3798341Y4940185D02*
G01*
X3756776Y4940185D01*
X3798341Y4883035D02*
G01*
X3730800Y4883035D01*
X3696507Y4992138D02*
G01*
X3696507Y4883035D01*
X3696507Y4992138D02*
G01*
X3649751Y4992138D01*
X3634165Y4986944D01*
X3628969Y4981747D01*
X3623774Y4971356D01*
X3623774Y4960965D01*
X3628969Y4950574D01*
X3634165Y4945379D01*
X3649751Y4940185D01*
X3696507Y4940185D01*
X3660142Y4940185D02*
G01*
X3623774Y4883035D01*
X3589484Y4929794D02*
G01*
X3495967Y4929794D01*
X3388939Y4976553D02*
G01*
X3399330Y4986944D01*
X3414915Y4992138D01*
X3435697Y4992138D01*
X3451285Y4986944D01*
X3461677Y4976553D01*
X3461677Y4966162D01*
X3456480Y4955771D01*
X3451285Y4950574D01*
X3440894Y4945379D01*
X3409718Y4934988D01*
X3399330Y4929794D01*
X3394135Y4924597D01*
X3388939Y4914206D01*
X3388939Y4898621D01*
X3399330Y4888229D01*
X3414915Y4883035D01*
X3435697Y4883035D01*
X3451285Y4888229D01*
X3461677Y4898621D01*
X3354649Y4992138D02*
G01*
X3354649Y4914206D01*
X3349454Y4898621D01*
X3339063Y4888229D01*
X3323478Y4883035D01*
X3313087Y4883035D01*
X3297499Y4888229D01*
X3287105Y4898621D01*
X3281913Y4914206D01*
X3281913Y4992138D01*
X3247623Y4992138D02*
G01*
X3247623Y4883035D01*
X3247623Y4992138D02*
G01*
X3200864Y4992138D01*
X3185276Y4986944D01*
X3180079Y4981747D01*
X3174888Y4971356D01*
X3174888Y4955771D01*
X3180079Y4945379D01*
X3185276Y4940185D01*
X3200864Y4934988D01*
X3247623Y4934988D01*
X3140598Y4992138D02*
G01*
X3140598Y4883035D01*
X3140598Y4992138D02*
G01*
X3093836Y4992138D01*
X3078251Y4986944D01*
X3073054Y4981747D01*
X3067857Y4971356D01*
X3067857Y4955771D01*
X3073054Y4945379D01*
X3078251Y4940185D01*
X3093836Y4934988D01*
X3140598Y4934988D01*
X3033570Y4992138D02*
G01*
X3033570Y4883035D01*
X3033570Y4883035D02*
G01*
X2971225Y4883035D01*
X2936935Y4992138D02*
G01*
X2895371Y4940185D01*
X2895371Y4883035D01*
X2853806Y4992138D02*
G01*
X2895371Y4940185D01*
X2819516Y4992138D02*
G01*
X2819516Y4883035D01*
X2785226Y4992138D02*
G01*
X2785226Y4883035D01*
X2785226Y4992138D02*
G01*
X2712491Y4883035D01*
X2712491Y4992138D02*
G01*
X2712491Y4883035D01*
X2600269Y4966162D02*
G01*
X2605465Y4976553D01*
X2615857Y4986944D01*
X2626248Y4992138D01*
X2647027Y4992138D01*
X2657419Y4986944D01*
X2667810Y4976553D01*
X2673007Y4966162D01*
X2678201Y4950574D01*
X2678201Y4924597D01*
X2673007Y4909012D01*
X2667810Y4898621D01*
X2657419Y4888229D01*
X2647027Y4883035D01*
X2626248Y4883035D01*
X2615857Y4888229D01*
X2605465Y4898621D01*
X2600269Y4909012D01*
X2600269Y4924597D01*
X2626248Y4924597D02*
G01*
X2600269Y4924597D01*
X2485969Y4992138D02*
G01*
X2485969Y4883035D01*
X2485969Y4992138D02*
G01*
X2444407Y4883035D01*
X2402842Y4992138D02*
G01*
X2444407Y4883035D01*
X2402842Y4992138D02*
G01*
X2402842Y4883035D01*
X2337379Y4992138D02*
G01*
X2347770Y4986944D01*
X2358161Y4976553D01*
X2363358Y4966162D01*
X2368552Y4950574D01*
X2368552Y4924597D01*
X2363358Y4909012D01*
X2358161Y4898621D01*
X2347770Y4888229D01*
X2337379Y4883035D01*
X2316596Y4883035D01*
X2306208Y4888229D01*
X2295817Y4898621D01*
X2290620Y4909012D01*
X2285425Y4924597D01*
X2285425Y4950574D01*
X2290620Y4966162D01*
X2295817Y4976553D01*
X2306208Y4986944D01*
X2316596Y4992138D01*
X2337379Y4992138D01*
X2251135Y4992138D02*
G01*
X2251135Y4883035D01*
X2251135Y4992138D02*
G01*
X2214768Y4992138D01*
X2199180Y4986944D01*
X2188789Y4976553D01*
X2183594Y4966162D01*
X2178397Y4950574D01*
X2178397Y4924597D01*
X2183594Y4909012D01*
X2188789Y4898621D01*
X2199180Y4888229D01*
X2214768Y4883035D01*
X2251135Y4883035D01*
X2144107Y4992138D02*
G01*
X2144107Y4914206D01*
X2138913Y4898621D01*
X2128522Y4888229D01*
X2112937Y4883035D01*
X2102545Y4883035D01*
X2086957Y4888229D01*
X2076566Y4898621D01*
X2071372Y4914206D01*
X2071372Y4992138D01*
X2037082Y4992138D02*
G01*
X2037082Y4883035D01*
X2037082Y4883035D02*
G01*
X1974738Y4883035D01*
X1940448Y4992138D02*
G01*
X1940448Y4883035D01*
X1940448Y4992138D02*
G01*
X1872907Y4992138D01*
X1940448Y4940185D02*
G01*
X1898883Y4940185D01*
X1940448Y4883035D02*
G01*
X1872907Y4883035D01*
X1802246Y5012921D02*
G01*
X1812637Y5002529D01*
X1823029Y4986944D01*
X1833420Y4966162D01*
X1838617Y4940185D01*
X1838617Y4919403D01*
X1833420Y4893424D01*
X1823029Y4872644D01*
X1812637Y4857056D01*
X1802246Y4846665D01*
X1695221Y4976553D02*
G01*
X1705612Y4986944D01*
X1721197Y4992138D01*
X1741980Y4992138D01*
X1757568Y4986944D01*
X1767956Y4976553D01*
X1767956Y4966162D01*
X1762762Y4955771D01*
X1757568Y4950574D01*
X1747177Y4945379D01*
X1716003Y4934988D01*
X1705612Y4929794D01*
X1700418Y4924597D01*
X1695221Y4914206D01*
X1695221Y4898621D01*
X1705612Y4888229D01*
X1721197Y4883035D01*
X1741980Y4883035D01*
X1757568Y4888229D01*
X1767956Y4898621D01*
X1660931Y5012921D02*
G01*
X1650540Y5002529D01*
X1640149Y4986944D01*
X1629757Y4966162D01*
X1624563Y4940185D01*
X1624563Y4919403D01*
X1629757Y4893424D01*
X1640149Y4872644D01*
X1650540Y4857056D01*
X1660931Y4846665D01*
X1510263Y4992138D02*
G01*
X1510263Y4883035D01*
X1510263Y4992138D02*
G01*
X1463504Y4992138D01*
X1447916Y4986944D01*
X1442722Y4981747D01*
X1437528Y4971356D01*
X1437528Y4955771D01*
X1442722Y4945379D01*
X1447916Y4940185D01*
X1463504Y4934988D01*
X1510263Y4934988D01*
X1403238Y4992138D02*
G01*
X1403238Y4883035D01*
X1403238Y4992138D02*
G01*
X1356476Y4992138D01*
X1340891Y4986944D01*
X1335697Y4981747D01*
X1330500Y4971356D01*
X1330500Y4960965D01*
X1335697Y4950574D01*
X1340891Y4945379D01*
X1356476Y4940185D01*
X1403238Y4940185D01*
X1366867Y4940185D02*
G01*
X1330500Y4883035D01*
X1296210Y4992138D02*
G01*
X1296210Y4883035D01*
X1296210Y4992138D02*
G01*
X1228669Y4992138D01*
X1296210Y4940185D02*
G01*
X1254648Y4940185D01*
X1296210Y4883035D02*
G01*
X1228669Y4883035D01*
X1121643Y4976553D02*
G01*
X1132034Y4986944D01*
X1147620Y4992138D01*
X1168402Y4992138D01*
X1183987Y4986944D01*
X1194379Y4976553D01*
X1194379Y4966162D01*
X1189184Y4955771D01*
X1183987Y4950574D01*
X1173596Y4945379D01*
X1142425Y4934988D01*
X1132034Y4929794D01*
X1126837Y4924597D01*
X1121643Y4914206D01*
X1121643Y4898621D01*
X1132034Y4888229D01*
X1147620Y4883035D01*
X1168402Y4883035D01*
X1183987Y4888229D01*
X1194379Y4898621D01*
X1087353Y4992138D02*
G01*
X1087353Y4883035D01*
X1087353Y4992138D02*
G01*
X1019812Y4992138D01*
X1087353Y4940185D02*
G01*
X1045789Y4940185D01*
X1087353Y4883035D02*
G01*
X1019812Y4883035D01*
X985522Y4992138D02*
G01*
X985522Y4883035D01*
X985522Y4992138D02*
G01*
X912787Y4883035D01*
X912787Y4992138D02*
G01*
X912787Y4883035D01*
X842126Y4992138D02*
G01*
X842126Y4883035D01*
X878497Y4992138D02*
G01*
X805759Y4992138D01*
D12*
X3683000Y5461000D02*
G01*
X3683000Y5207000D01*
X3175000Y5207000D01*
X3175000Y5461000D01*
X3683000Y5461000D01*
X3683000Y5207000D01*
X4445000Y5715000D02*
G01*
X4953000Y5715000D01*
X4953000Y5207000D01*
X4445000Y5207000D01*
X4445000Y5715000D01*
M02*
