G04 Layer: BottomLayer*
G04 EasyEDA v6.5.29, 2023-07-09 11:22:14*
G04 cfc9732f681849a493c23aee7f3b8659,5a6b42c53f6a479593ecc07194224c93,10*
G04 Gerber Generator version 0.2*
G04 Scale: 100 percent, Rotated: No, Reflected: No *
G04 Dimensions in millimeters *
G04 leading zeros omitted , absolute positions ,4 integer and 5 decimal *
%FSLAX45Y45*%
%MOMM*%

%ADD10C,0.1524*%
%ADD11C,0.6350*%
%ADD12C,5.0000*%
%ADD13C,1.5240*%
%ADD14C,1.8000*%
%ADD15C,0.0164*%

%LPD*%
G36*
X12752781Y25908D02*
G01*
X36068Y26416D01*
X32156Y27178D01*
X28905Y29362D01*
X26670Y32664D01*
X25908Y36576D01*
X25908Y2555240D01*
X26670Y2559100D01*
X28905Y2562402D01*
X32156Y2564638D01*
X36068Y2565400D01*
X32156Y2566162D01*
X28905Y2568397D01*
X26670Y2571648D01*
X25908Y2575560D01*
X25908Y5805932D01*
X26670Y5809843D01*
X28905Y5813094D01*
X32156Y5815330D01*
X36068Y5816092D01*
X12752832Y5816092D01*
X12756692Y5815330D01*
X12759994Y5813094D01*
X12762179Y5809843D01*
X12762992Y5805932D01*
X12762992Y36068D01*
X12762179Y32156D01*
X12759994Y28905D01*
X12756692Y26670D01*
G37*

%LPC*%
G36*
X393700Y5473700D02*
G01*
X656539Y5473700D01*
X654710Y5495594D01*
X650849Y5518353D01*
X645109Y5540756D01*
X637540Y5562549D01*
X628142Y5583682D01*
X616966Y5603900D01*
X604215Y5623153D01*
X589838Y5641289D01*
X574040Y5658104D01*
X556869Y5673598D01*
X538429Y5687568D01*
X518922Y5699912D01*
X498449Y5710631D01*
X477164Y5719572D01*
X455168Y5726734D01*
X432714Y5732018D01*
X409854Y5735370D01*
X393700Y5736386D01*
G37*
G36*
X368300Y105562D02*
G01*
X368300Y368300D01*
X105613Y368300D01*
X106070Y357936D01*
X108966Y334975D01*
X113741Y312369D01*
X120446Y290271D01*
X128930Y268782D01*
X139242Y248107D01*
X151180Y228346D01*
X164795Y209651D01*
X179882Y192125D01*
X196392Y175971D01*
X214172Y161239D01*
X233171Y148031D01*
X253187Y136499D01*
X274066Y126644D01*
X295757Y118618D01*
X318008Y112369D01*
X340664Y108051D01*
X363677Y105664D01*
G37*
G36*
X12417806Y105613D02*
G01*
X12433960Y106629D01*
X12456820Y109982D01*
X12479274Y115265D01*
X12501270Y122428D01*
X12522555Y131368D01*
X12543028Y142087D01*
X12562535Y154432D01*
X12580975Y168402D01*
X12598146Y183896D01*
X12613944Y200710D01*
X12628321Y218846D01*
X12641072Y238099D01*
X12652248Y258317D01*
X12661646Y279450D01*
X12669215Y301244D01*
X12674955Y323646D01*
X12678816Y346405D01*
X12680645Y368300D01*
X12417806Y368300D01*
G37*
G36*
X393700Y105613D02*
G01*
X409854Y106629D01*
X432714Y109982D01*
X455168Y115265D01*
X477164Y122428D01*
X498449Y131368D01*
X518922Y142087D01*
X538429Y154432D01*
X556869Y168402D01*
X574040Y183896D01*
X589838Y200710D01*
X604215Y218846D01*
X616966Y238099D01*
X628142Y258317D01*
X637540Y279450D01*
X645109Y301244D01*
X650849Y323646D01*
X654710Y346405D01*
X656539Y368300D01*
X393700Y368300D01*
G37*
G36*
X105613Y393700D02*
G01*
X368300Y393700D01*
X368300Y656437D01*
X363677Y656336D01*
X340664Y653948D01*
X318008Y649630D01*
X295757Y643382D01*
X274066Y635355D01*
X253187Y625500D01*
X233171Y613968D01*
X214172Y600760D01*
X196392Y586028D01*
X179882Y569874D01*
X164795Y552399D01*
X151180Y533704D01*
X139242Y513892D01*
X128930Y493217D01*
X120446Y471728D01*
X113741Y449630D01*
X108966Y427024D01*
X106070Y404114D01*
G37*
G36*
X12129719Y393700D02*
G01*
X12392406Y393700D01*
X12392406Y656437D01*
X12387783Y656336D01*
X12364770Y653948D01*
X12342114Y649630D01*
X12319863Y643382D01*
X12298172Y635355D01*
X12277293Y625500D01*
X12257278Y613968D01*
X12238278Y600760D01*
X12220498Y586028D01*
X12203988Y569874D01*
X12188901Y552399D01*
X12175286Y533704D01*
X12163348Y513892D01*
X12153036Y493217D01*
X12144552Y471728D01*
X12137847Y449630D01*
X12133072Y427024D01*
X12130176Y404114D01*
G37*
G36*
X12417806Y393700D02*
G01*
X12680645Y393700D01*
X12678816Y415594D01*
X12674955Y438353D01*
X12669215Y460756D01*
X12661646Y482549D01*
X12652248Y503682D01*
X12641072Y523900D01*
X12628321Y543153D01*
X12613944Y561289D01*
X12598146Y578104D01*
X12580975Y593598D01*
X12562535Y607568D01*
X12543028Y619912D01*
X12522555Y630631D01*
X12501270Y639572D01*
X12479274Y646734D01*
X12456820Y652018D01*
X12433960Y655370D01*
X12417806Y656386D01*
G37*
G36*
X393700Y393700D02*
G01*
X656539Y393700D01*
X654710Y415594D01*
X650849Y438353D01*
X645109Y460756D01*
X637540Y482549D01*
X628142Y503682D01*
X616966Y523900D01*
X604215Y543153D01*
X589838Y561289D01*
X574040Y578104D01*
X556869Y593598D01*
X538429Y607568D01*
X518922Y619912D01*
X498449Y630631D01*
X477164Y639572D01*
X455168Y646734D01*
X432714Y652018D01*
X409854Y655370D01*
X393700Y656386D01*
G37*
G36*
X11941048Y406146D02*
G01*
X11954713Y406146D01*
X11968226Y407974D01*
X11981383Y411581D01*
X11993930Y416915D01*
X12005665Y423875D01*
X12016384Y432308D01*
X12025833Y442112D01*
X12033910Y453085D01*
X12040463Y465074D01*
X12045391Y477774D01*
X12048540Y491032D01*
X12049912Y504596D01*
X12049455Y518261D01*
X12047169Y531672D01*
X12043156Y544728D01*
X12037415Y557072D01*
X12030049Y568553D01*
X12021261Y578967D01*
X12011152Y588162D01*
X11999925Y595833D01*
X11987733Y602030D01*
X11974830Y606501D01*
X11961469Y609193D01*
X11947906Y610108D01*
X11934291Y609193D01*
X11920931Y606501D01*
X11908028Y602030D01*
X11895836Y595833D01*
X11884609Y588162D01*
X11874500Y578967D01*
X11865711Y568553D01*
X11858345Y557072D01*
X11852605Y544728D01*
X11848592Y531672D01*
X11846306Y518261D01*
X11845848Y504596D01*
X11847220Y491032D01*
X11850370Y477774D01*
X11855297Y465074D01*
X11861850Y453085D01*
X11869928Y442112D01*
X11879427Y432308D01*
X11890095Y423875D01*
X11901830Y416915D01*
X11914378Y411581D01*
X11927535Y407974D01*
G37*
G36*
X11681206Y406958D02*
G01*
X11681206Y495300D01*
X11592814Y495300D01*
X11593220Y491032D01*
X11596370Y477774D01*
X11601297Y465074D01*
X11607850Y453085D01*
X11615928Y442112D01*
X11625427Y432308D01*
X11636095Y423875D01*
X11647830Y416915D01*
X11660378Y411581D01*
X11673535Y407974D01*
G37*
G36*
X11706606Y406958D02*
G01*
X11714226Y407974D01*
X11727383Y411581D01*
X11739930Y416915D01*
X11751665Y423875D01*
X11762384Y432308D01*
X11771833Y442112D01*
X11779910Y453085D01*
X11786463Y465074D01*
X11791391Y477774D01*
X11794540Y491032D01*
X11794998Y495300D01*
X11706606Y495300D01*
G37*
G36*
X11001095Y472744D02*
G01*
X11019942Y472744D01*
X11038687Y474624D01*
X11057128Y478434D01*
X11075060Y484073D01*
X11092383Y491490D01*
X11108842Y500634D01*
X11124285Y511403D01*
X11138611Y523646D01*
X11151565Y537311D01*
X11163096Y552196D01*
X11173053Y568198D01*
X11181334Y585063D01*
X11187887Y602742D01*
X11192611Y620979D01*
X11195456Y639572D01*
X11196421Y658368D01*
X11195456Y677214D01*
X11192611Y695807D01*
X11187887Y714044D01*
X11181334Y731723D01*
X11173053Y748588D01*
X11163096Y764590D01*
X11151565Y779475D01*
X11138611Y793140D01*
X11124285Y805383D01*
X11108842Y816152D01*
X11092383Y825296D01*
X11075060Y832713D01*
X11057128Y838352D01*
X11038687Y842162D01*
X11019942Y844042D01*
X11001095Y844042D01*
X10982350Y842162D01*
X10963910Y838352D01*
X10945977Y832713D01*
X10928654Y825296D01*
X10912195Y816152D01*
X10896752Y805383D01*
X10882426Y793140D01*
X10869472Y779475D01*
X10857941Y764590D01*
X10847984Y748588D01*
X10839704Y731723D01*
X10833150Y714044D01*
X10828426Y695807D01*
X10825581Y677214D01*
X10824616Y658368D01*
X10825581Y639572D01*
X10828426Y620979D01*
X10833150Y602742D01*
X10839704Y585063D01*
X10847984Y568198D01*
X10857941Y552196D01*
X10869472Y537311D01*
X10882426Y523646D01*
X10896752Y511403D01*
X10912195Y500634D01*
X10928654Y491490D01*
X10945977Y484073D01*
X10963910Y478434D01*
X10982350Y474624D01*
G37*
G36*
X1317955Y472744D02*
G01*
X1336751Y472744D01*
X1355496Y474624D01*
X1373936Y478434D01*
X1391920Y484073D01*
X1409242Y491490D01*
X1425702Y500634D01*
X1441145Y511403D01*
X1455420Y523646D01*
X1468424Y537311D01*
X1479905Y552196D01*
X1489913Y568198D01*
X1498193Y585063D01*
X1504746Y602742D01*
X1509420Y620979D01*
X1512316Y639572D01*
X1513230Y658368D01*
X1512316Y677214D01*
X1509420Y695807D01*
X1504746Y714044D01*
X1498193Y731723D01*
X1489913Y748588D01*
X1479905Y764590D01*
X1468424Y779475D01*
X1455420Y793140D01*
X1441145Y805383D01*
X1425702Y816152D01*
X1409242Y825296D01*
X1391920Y832713D01*
X1373936Y838352D01*
X1355496Y842162D01*
X1336751Y844042D01*
X1317955Y844042D01*
X1299210Y842162D01*
X1280769Y838352D01*
X1262786Y832713D01*
X1245463Y825296D01*
X1229004Y816152D01*
X1213561Y805383D01*
X1199286Y793140D01*
X1186281Y779475D01*
X1174800Y764590D01*
X1164793Y748588D01*
X1156512Y731723D01*
X1149959Y714044D01*
X1145286Y695807D01*
X1142390Y677214D01*
X1141476Y658368D01*
X1142390Y639572D01*
X1145286Y620979D01*
X1149959Y602742D01*
X1156512Y585063D01*
X1164793Y568198D01*
X1174800Y552196D01*
X1186281Y537311D01*
X1199286Y523646D01*
X1213561Y511403D01*
X1229004Y500634D01*
X1245463Y491490D01*
X1262786Y484073D01*
X1280769Y478434D01*
X1299210Y474624D01*
G37*
G36*
X11706606Y520700D02*
G01*
X11795048Y520700D01*
X11793169Y531672D01*
X11789156Y544728D01*
X11783415Y557072D01*
X11776049Y568553D01*
X11767261Y578967D01*
X11757152Y588162D01*
X11745925Y595833D01*
X11733733Y602030D01*
X11720830Y606501D01*
X11706606Y609244D01*
G37*
G36*
X11592712Y520700D02*
G01*
X11681206Y520700D01*
X11681206Y609244D01*
X11666931Y606501D01*
X11654028Y602030D01*
X11641836Y595833D01*
X11630609Y588162D01*
X11620500Y578967D01*
X11611711Y568553D01*
X11604345Y557072D01*
X11598605Y544728D01*
X11594592Y531672D01*
G37*
G36*
X11941048Y660146D02*
G01*
X11954713Y660146D01*
X11968226Y661974D01*
X11981383Y665581D01*
X11993930Y670915D01*
X12005665Y677875D01*
X12016384Y686308D01*
X12025833Y696112D01*
X12028881Y700227D01*
X12031116Y702411D01*
X12033910Y703834D01*
X12037060Y704342D01*
X12277648Y704342D01*
X12287554Y705154D01*
X12296800Y707491D01*
X12305538Y711301D01*
X12313564Y716584D01*
X12319101Y721461D01*
X12497866Y900277D01*
X12500559Y902157D01*
X12503708Y903122D01*
X12506960Y903071D01*
X12517577Y901039D01*
X12532106Y900125D01*
X12546634Y901039D01*
X12560909Y903732D01*
X12574778Y908253D01*
X12587935Y914450D01*
X12600228Y922223D01*
X12611404Y931519D01*
X12621361Y942136D01*
X12629946Y953922D01*
X12636957Y966673D01*
X12642291Y980186D01*
X12645948Y994308D01*
X12647777Y1008735D01*
X12647777Y1023264D01*
X12645948Y1037742D01*
X12642291Y1051814D01*
X12636957Y1065326D01*
X12629946Y1078077D01*
X12621361Y1089863D01*
X12611404Y1100480D01*
X12600228Y1109776D01*
X12587935Y1117549D01*
X12574778Y1123746D01*
X12560909Y1128268D01*
X12546634Y1130960D01*
X12532106Y1131874D01*
X12517577Y1130960D01*
X12503251Y1128268D01*
X12489434Y1123746D01*
X12476276Y1117549D01*
X12463983Y1109776D01*
X12452756Y1100480D01*
X12442799Y1089863D01*
X12434265Y1078077D01*
X12427254Y1065326D01*
X12421870Y1051814D01*
X12418263Y1037742D01*
X12416434Y1023264D01*
X12416434Y1008735D01*
X12418263Y994308D01*
X12418974Y991463D01*
X12419228Y988009D01*
X12418314Y984656D01*
X12416332Y981760D01*
X12405461Y970889D01*
X12401753Y968552D01*
X12397384Y967943D01*
X12393218Y969264D01*
X12389967Y972210D01*
X12388291Y976223D01*
X12388392Y980592D01*
X12391948Y994308D01*
X12393777Y1008735D01*
X12393777Y1023264D01*
X12391948Y1037742D01*
X12388291Y1051814D01*
X12382957Y1065326D01*
X12375946Y1078077D01*
X12367361Y1089863D01*
X12357404Y1100480D01*
X12346228Y1109776D01*
X12333935Y1117549D01*
X12320778Y1123746D01*
X12306909Y1128268D01*
X12292634Y1130960D01*
X12278106Y1131874D01*
X12263577Y1130960D01*
X12249251Y1128268D01*
X12235434Y1123746D01*
X12222276Y1117549D01*
X12209983Y1109776D01*
X12198756Y1100480D01*
X12188799Y1089863D01*
X12180265Y1078077D01*
X12173254Y1065326D01*
X12167870Y1051814D01*
X12164263Y1037742D01*
X12162434Y1023264D01*
X12162434Y1008735D01*
X12164263Y994308D01*
X12167870Y980186D01*
X12173254Y966673D01*
X12180265Y953922D01*
X12188799Y942136D01*
X12198756Y931519D01*
X12209983Y922223D01*
X12222276Y914450D01*
X12235434Y908253D01*
X12249251Y903732D01*
X12263577Y901039D01*
X12278106Y900125D01*
X12292634Y901039D01*
X12306909Y903732D01*
X12313158Y905764D01*
X12317628Y906170D01*
X12321844Y904646D01*
X12324943Y901446D01*
X12326416Y897178D01*
X12325858Y892708D01*
X12323470Y888949D01*
X12257176Y822655D01*
X12253874Y820419D01*
X12250013Y819658D01*
X12037263Y819658D01*
X12032996Y820623D01*
X12029490Y823264D01*
X12021261Y832967D01*
X12007596Y845210D01*
X12006072Y848106D01*
X12005564Y851357D01*
X12005564Y4721707D01*
X12006326Y4725568D01*
X12008510Y4728870D01*
X12140793Y4861153D01*
X12147194Y4868722D01*
X12152071Y4876901D01*
X12155525Y4885740D01*
X12157506Y4895189D01*
X12157964Y4902504D01*
X12157964Y5104993D01*
X12157151Y5114899D01*
X12154814Y5124094D01*
X12151004Y5132832D01*
X12145721Y5140858D01*
X12140844Y5146395D01*
X12051741Y5235498D01*
X12049353Y5239258D01*
X12048845Y5243728D01*
X12049912Y5254396D01*
X12049455Y5268061D01*
X12047169Y5281472D01*
X12043156Y5294528D01*
X12037415Y5306872D01*
X12030049Y5318353D01*
X12021261Y5328767D01*
X12011152Y5337962D01*
X11999925Y5345633D01*
X11987733Y5351830D01*
X11974830Y5356301D01*
X11961469Y5358993D01*
X11947906Y5359908D01*
X11934291Y5358993D01*
X11920931Y5356301D01*
X11908028Y5351830D01*
X11895836Y5345633D01*
X11884609Y5337962D01*
X11874500Y5328767D01*
X11865711Y5318353D01*
X11858345Y5306872D01*
X11852605Y5294528D01*
X11848592Y5281472D01*
X11846306Y5268061D01*
X11845848Y5254396D01*
X11847220Y5240832D01*
X11850370Y5227574D01*
X11855297Y5214874D01*
X11861850Y5202885D01*
X11869928Y5191912D01*
X11879427Y5182108D01*
X11890095Y5173675D01*
X11901830Y5166715D01*
X11914378Y5161381D01*
X11927535Y5157774D01*
X11941048Y5155946D01*
X11954713Y5155946D01*
X11961622Y5156911D01*
X11964720Y5156860D01*
X11967667Y5155844D01*
X11970156Y5154015D01*
X12029033Y5095138D01*
X12031421Y5091379D01*
X12031980Y5086959D01*
X12030557Y5082743D01*
X12027509Y5079492D01*
X12023344Y5077917D01*
X12018924Y5078222D01*
X12015063Y5080406D01*
X12011152Y5083962D01*
X11999925Y5091633D01*
X11987733Y5097830D01*
X11974830Y5102301D01*
X11961469Y5104993D01*
X11947906Y5105908D01*
X11934291Y5104993D01*
X11920931Y5102301D01*
X11908028Y5097830D01*
X11895836Y5091633D01*
X11884609Y5083962D01*
X11874500Y5074767D01*
X11865711Y5064353D01*
X11858345Y5052872D01*
X11852605Y5040528D01*
X11848592Y5027472D01*
X11846306Y5014061D01*
X11845848Y5000396D01*
X11847220Y4986832D01*
X11850370Y4973574D01*
X11855297Y4960874D01*
X11861850Y4948885D01*
X11869928Y4937912D01*
X11879427Y4928108D01*
X11890095Y4919675D01*
X11901830Y4912715D01*
X11914378Y4907381D01*
X11927535Y4903774D01*
X11941048Y4901946D01*
X11954713Y4901946D01*
X11968226Y4903774D01*
X11981383Y4907381D01*
X11993930Y4912715D01*
X12005665Y4919675D01*
X12014860Y4926939D01*
X12018772Y4928819D01*
X12023140Y4928920D01*
X12027154Y4927193D01*
X12030049Y4923942D01*
X12031319Y4919776D01*
X12030710Y4915458D01*
X12028373Y4911801D01*
X11907418Y4790846D01*
X11901017Y4783277D01*
X11896140Y4775098D01*
X11892686Y4766208D01*
X11890705Y4756810D01*
X11890248Y4749444D01*
X11890248Y851357D01*
X11889689Y848106D01*
X11888165Y845210D01*
X11874500Y832967D01*
X11865711Y822553D01*
X11858345Y811072D01*
X11852605Y798728D01*
X11848592Y785672D01*
X11846306Y772261D01*
X11845848Y758596D01*
X11847220Y745032D01*
X11850370Y731774D01*
X11855297Y719074D01*
X11861850Y707085D01*
X11869928Y696112D01*
X11879427Y686308D01*
X11890095Y677875D01*
X11901830Y670915D01*
X11914378Y665581D01*
X11927535Y661974D01*
G37*
G36*
X11681206Y660958D02*
G01*
X11681206Y749300D01*
X11592814Y749300D01*
X11593220Y745032D01*
X11596370Y731774D01*
X11601297Y719074D01*
X11607850Y707085D01*
X11615928Y696112D01*
X11625427Y686308D01*
X11636095Y677875D01*
X11647830Y670915D01*
X11660378Y665581D01*
X11673535Y661974D01*
G37*
G36*
X11706606Y660958D02*
G01*
X11714226Y661974D01*
X11727383Y665581D01*
X11739930Y670915D01*
X11751665Y677875D01*
X11762384Y686308D01*
X11771833Y696112D01*
X11779910Y707085D01*
X11786463Y719074D01*
X11791391Y731774D01*
X11794540Y745032D01*
X11794998Y749300D01*
X11706606Y749300D01*
G37*
G36*
X11706606Y774700D02*
G01*
X11795048Y774700D01*
X11793169Y785672D01*
X11789156Y798728D01*
X11783415Y811072D01*
X11776049Y822553D01*
X11767261Y832967D01*
X11757152Y842162D01*
X11745925Y849833D01*
X11733733Y856030D01*
X11720830Y860501D01*
X11706606Y863244D01*
G37*
G36*
X11592712Y774700D02*
G01*
X11681206Y774700D01*
X11681206Y863244D01*
X11666931Y860501D01*
X11654028Y856030D01*
X11641836Y849833D01*
X11630609Y842162D01*
X11620500Y832967D01*
X11611711Y822553D01*
X11604345Y811072D01*
X11598605Y798728D01*
X11594592Y785672D01*
G37*
G36*
X12417806Y5473700D02*
G01*
X12680645Y5473700D01*
X12678816Y5495594D01*
X12674955Y5518353D01*
X12669215Y5540756D01*
X12661646Y5562549D01*
X12652248Y5583682D01*
X12641072Y5603900D01*
X12628321Y5623153D01*
X12613944Y5641289D01*
X12598146Y5658104D01*
X12580975Y5673598D01*
X12562535Y5687568D01*
X12543028Y5699912D01*
X12522555Y5710631D01*
X12501270Y5719572D01*
X12479274Y5726734D01*
X12456820Y5732018D01*
X12433960Y5735370D01*
X12417806Y5736386D01*
G37*
G36*
X12129719Y5473700D02*
G01*
X12392406Y5473700D01*
X12392406Y5736437D01*
X12387783Y5736336D01*
X12364770Y5733948D01*
X12342114Y5729630D01*
X12319863Y5723382D01*
X12298172Y5715355D01*
X12277293Y5705500D01*
X12257278Y5693968D01*
X12238278Y5680760D01*
X12220498Y5666028D01*
X12203988Y5649874D01*
X12188901Y5632399D01*
X12175286Y5613704D01*
X12163348Y5593892D01*
X12153036Y5573217D01*
X12144552Y5551728D01*
X12137847Y5529630D01*
X12133072Y5507024D01*
X12130176Y5484114D01*
G37*
G36*
X105613Y5473700D02*
G01*
X368300Y5473700D01*
X368300Y5736437D01*
X363677Y5736336D01*
X340664Y5733948D01*
X318008Y5729630D01*
X295757Y5723382D01*
X274066Y5715355D01*
X253187Y5705500D01*
X233171Y5693968D01*
X214172Y5680760D01*
X196392Y5666028D01*
X179882Y5649874D01*
X164795Y5632399D01*
X151180Y5613704D01*
X139242Y5593892D01*
X128930Y5573217D01*
X120446Y5551728D01*
X113741Y5529630D01*
X108966Y5507024D01*
X106070Y5484114D01*
G37*
G36*
X11706606Y5270500D02*
G01*
X11795048Y5270500D01*
X11793169Y5281472D01*
X11789156Y5294528D01*
X11783415Y5306872D01*
X11776049Y5318353D01*
X11767261Y5328767D01*
X11757152Y5337962D01*
X11745925Y5345633D01*
X11733733Y5351830D01*
X11720830Y5356301D01*
X11706606Y5359044D01*
G37*
G36*
X12519406Y1154938D02*
G01*
X12519406Y1257300D01*
X12417094Y1257300D01*
X12418263Y1248308D01*
X12421870Y1234186D01*
X12427254Y1220673D01*
X12434265Y1207922D01*
X12442799Y1196136D01*
X12452756Y1185519D01*
X12463983Y1176223D01*
X12476276Y1168450D01*
X12489434Y1162253D01*
X12503251Y1157732D01*
X12517577Y1155039D01*
G37*
G36*
X12290806Y1154938D02*
G01*
X12292634Y1155039D01*
X12306909Y1157732D01*
X12320778Y1162253D01*
X12333935Y1168450D01*
X12346228Y1176223D01*
X12357404Y1185519D01*
X12367361Y1196136D01*
X12375946Y1207922D01*
X12382957Y1220673D01*
X12388291Y1234186D01*
X12391948Y1248308D01*
X12393066Y1257300D01*
X12290806Y1257300D01*
G37*
G36*
X12544806Y1154938D02*
G01*
X12546634Y1155039D01*
X12560909Y1157732D01*
X12574778Y1162253D01*
X12587935Y1168450D01*
X12600228Y1176223D01*
X12611404Y1185519D01*
X12621361Y1196136D01*
X12629946Y1207922D01*
X12636957Y1220673D01*
X12642291Y1234186D01*
X12645948Y1248308D01*
X12647066Y1257300D01*
X12544806Y1257300D01*
G37*
G36*
X12265406Y1154938D02*
G01*
X12265406Y1257300D01*
X12163094Y1257300D01*
X12164263Y1248308D01*
X12167870Y1234186D01*
X12173254Y1220673D01*
X12180265Y1207922D01*
X12188799Y1196136D01*
X12198756Y1185519D01*
X12209983Y1176223D01*
X12222276Y1168450D01*
X12235434Y1162253D01*
X12249251Y1157732D01*
X12263577Y1155039D01*
G37*
G36*
X12392406Y105562D02*
G01*
X12392406Y368300D01*
X12129719Y368300D01*
X12130176Y357936D01*
X12133072Y334975D01*
X12137847Y312369D01*
X12144552Y290271D01*
X12153036Y268782D01*
X12163348Y248107D01*
X12175286Y228346D01*
X12188901Y209651D01*
X12203988Y192125D01*
X12220498Y175971D01*
X12238278Y161239D01*
X12257278Y148031D01*
X12277293Y136499D01*
X12298172Y126644D01*
X12319863Y118618D01*
X12342114Y112369D01*
X12364770Y108051D01*
X12387783Y105664D01*
G37*
G36*
X12290806Y1282700D02*
G01*
X12393066Y1282700D01*
X12391948Y1291742D01*
X12388291Y1305814D01*
X12382957Y1319326D01*
X12375946Y1332077D01*
X12367361Y1343863D01*
X12357404Y1354480D01*
X12346228Y1363776D01*
X12333935Y1371549D01*
X12320778Y1377746D01*
X12306909Y1382268D01*
X12292634Y1384960D01*
X12290806Y1385112D01*
G37*
G36*
X12163094Y1282700D02*
G01*
X12265406Y1282700D01*
X12265406Y1385112D01*
X12263577Y1384960D01*
X12249251Y1382268D01*
X12235434Y1377746D01*
X12222276Y1371549D01*
X12209983Y1363776D01*
X12198756Y1354480D01*
X12188799Y1343863D01*
X12180265Y1332077D01*
X12173254Y1319326D01*
X12167870Y1305814D01*
X12164263Y1291742D01*
G37*
G36*
X12544806Y1282700D02*
G01*
X12647066Y1282700D01*
X12645948Y1291742D01*
X12642291Y1305814D01*
X12636957Y1319326D01*
X12629946Y1332077D01*
X12621361Y1343863D01*
X12611404Y1354480D01*
X12600228Y1363776D01*
X12587935Y1371549D01*
X12574778Y1377746D01*
X12560909Y1382268D01*
X12546634Y1384960D01*
X12544806Y1385112D01*
G37*
G36*
X11001095Y1862734D02*
G01*
X11019942Y1862734D01*
X11038687Y1864614D01*
X11057128Y1868424D01*
X11075060Y1874062D01*
X11092383Y1881479D01*
X11108842Y1890623D01*
X11124285Y1901393D01*
X11138611Y1913636D01*
X11151565Y1927301D01*
X11163096Y1942185D01*
X11173053Y1958187D01*
X11181334Y1975053D01*
X11187887Y1992731D01*
X11192611Y2010968D01*
X11195456Y2029561D01*
X11196421Y2048357D01*
X11195456Y2067204D01*
X11192611Y2085797D01*
X11187887Y2104034D01*
X11181334Y2121712D01*
X11173053Y2138578D01*
X11163096Y2154580D01*
X11151565Y2169464D01*
X11138611Y2183130D01*
X11124285Y2195372D01*
X11108842Y2206142D01*
X11092383Y2215286D01*
X11075060Y2222703D01*
X11057128Y2228342D01*
X11038687Y2232152D01*
X11019942Y2234031D01*
X11001095Y2234031D01*
X10982350Y2232152D01*
X10963910Y2228342D01*
X10945977Y2222703D01*
X10928654Y2215286D01*
X10912195Y2206142D01*
X10896752Y2195372D01*
X10882426Y2183130D01*
X10869472Y2169464D01*
X10857941Y2154580D01*
X10847984Y2138578D01*
X10839704Y2121712D01*
X10833150Y2104034D01*
X10828426Y2085797D01*
X10825581Y2067204D01*
X10824616Y2048357D01*
X10825581Y2029561D01*
X10828426Y2010968D01*
X10833150Y1992731D01*
X10839704Y1975053D01*
X10847984Y1958187D01*
X10857941Y1942185D01*
X10869472Y1927301D01*
X10882426Y1913636D01*
X10896752Y1901393D01*
X10912195Y1890623D01*
X10928654Y1881479D01*
X10945977Y1874062D01*
X10963910Y1868424D01*
X10982350Y1864614D01*
G37*
G36*
X1317955Y1862734D02*
G01*
X1336751Y1862734D01*
X1355496Y1864614D01*
X1373936Y1868424D01*
X1391920Y1874062D01*
X1409242Y1881479D01*
X1425702Y1890623D01*
X1441145Y1901393D01*
X1455420Y1913636D01*
X1468424Y1927301D01*
X1479905Y1942185D01*
X1489913Y1958187D01*
X1498193Y1975053D01*
X1504746Y1992731D01*
X1509420Y2010968D01*
X1512316Y2029561D01*
X1513230Y2048357D01*
X1512316Y2067204D01*
X1509420Y2085797D01*
X1504746Y2104034D01*
X1498193Y2121712D01*
X1489913Y2138578D01*
X1479905Y2154580D01*
X1468424Y2169464D01*
X1455420Y2183130D01*
X1441145Y2195372D01*
X1425702Y2206142D01*
X1409242Y2215286D01*
X1391920Y2222703D01*
X1373936Y2228342D01*
X1355496Y2232152D01*
X1336751Y2234031D01*
X1317955Y2234031D01*
X1299210Y2232152D01*
X1280769Y2228342D01*
X1262786Y2222703D01*
X1245463Y2215286D01*
X1229004Y2206142D01*
X1213561Y2195372D01*
X1199286Y2183130D01*
X1186281Y2169464D01*
X1174800Y2154580D01*
X1164793Y2138578D01*
X1156512Y2121712D01*
X1149959Y2104034D01*
X1145286Y2085797D01*
X1142390Y2067204D01*
X1141476Y2048357D01*
X1142390Y2029561D01*
X1145286Y2010968D01*
X1149959Y1992731D01*
X1156512Y1975053D01*
X1164793Y1958187D01*
X1174800Y1942185D01*
X1186281Y1927301D01*
X1199286Y1913636D01*
X1213561Y1901393D01*
X1229004Y1890623D01*
X1245463Y1881479D01*
X1262786Y1874062D01*
X1280769Y1868424D01*
X1299210Y1864614D01*
G37*
G36*
X116839Y2565400D02*
G01*
X252984Y2565400D01*
X254000Y2566416D01*
X254000Y2674315D01*
X254406Y2677109D01*
X255676Y2679903D01*
X257606Y2685389D01*
X258317Y2691688D01*
X258317Y2750261D01*
X257606Y2756560D01*
X254406Y2764840D01*
X254000Y2767634D01*
X254000Y2970784D01*
X252984Y2971800D01*
X128016Y2971800D01*
X127000Y2970784D01*
X127000Y2763520D01*
X126441Y2760167D01*
X125171Y2756560D01*
X124460Y2750261D01*
X124460Y2691688D01*
X125171Y2685389D01*
X126441Y2681782D01*
X127000Y2678430D01*
X127000Y2575560D01*
X126237Y2571648D01*
X124002Y2568397D01*
X120751Y2566162D01*
G37*
G36*
X11001095Y3578555D02*
G01*
X11019942Y3578555D01*
X11038687Y3580434D01*
X11057128Y3584244D01*
X11075060Y3589883D01*
X11092383Y3597300D01*
X11108842Y3606444D01*
X11124285Y3617214D01*
X11138611Y3629456D01*
X11151565Y3643122D01*
X11163096Y3658006D01*
X11173053Y3674008D01*
X11181334Y3690874D01*
X11187887Y3708552D01*
X11192611Y3726789D01*
X11195456Y3745382D01*
X11196421Y3764178D01*
X11195456Y3783025D01*
X11192611Y3801618D01*
X11187887Y3819855D01*
X11181334Y3837533D01*
X11173053Y3854399D01*
X11163096Y3870401D01*
X11151565Y3885285D01*
X11138611Y3898950D01*
X11124285Y3911193D01*
X11108842Y3921963D01*
X11092383Y3931107D01*
X11075060Y3938524D01*
X11057128Y3944162D01*
X11038687Y3947972D01*
X11019942Y3949852D01*
X11001095Y3949852D01*
X10982350Y3947972D01*
X10963910Y3944162D01*
X10945977Y3938524D01*
X10928654Y3931107D01*
X10912195Y3921963D01*
X10896752Y3911193D01*
X10882426Y3898950D01*
X10869472Y3885285D01*
X10857941Y3870401D01*
X10847984Y3854399D01*
X10839704Y3837533D01*
X10833150Y3819855D01*
X10828426Y3801618D01*
X10825581Y3783025D01*
X10824616Y3764178D01*
X10825581Y3745382D01*
X10828426Y3726789D01*
X10833150Y3708552D01*
X10839704Y3690874D01*
X10847984Y3674008D01*
X10857941Y3658006D01*
X10869472Y3643122D01*
X10882426Y3629456D01*
X10896752Y3617214D01*
X10912195Y3606444D01*
X10928654Y3597300D01*
X10945977Y3589883D01*
X10963910Y3584244D01*
X10982350Y3580434D01*
G37*
G36*
X1317955Y3578555D02*
G01*
X1336751Y3578555D01*
X1355496Y3580434D01*
X1373936Y3584244D01*
X1391920Y3589883D01*
X1409242Y3597300D01*
X1425702Y3606444D01*
X1441145Y3617214D01*
X1455420Y3629456D01*
X1468424Y3643122D01*
X1479905Y3658006D01*
X1489913Y3674008D01*
X1498193Y3690874D01*
X1504746Y3708552D01*
X1509420Y3726789D01*
X1512316Y3745382D01*
X1513230Y3764178D01*
X1512316Y3783025D01*
X1509420Y3801618D01*
X1504746Y3819855D01*
X1498193Y3837533D01*
X1489913Y3854399D01*
X1479905Y3870401D01*
X1468424Y3885285D01*
X1455420Y3898950D01*
X1441145Y3911193D01*
X1425702Y3921963D01*
X1409242Y3931107D01*
X1391920Y3938524D01*
X1373936Y3944162D01*
X1355496Y3947972D01*
X1336751Y3949852D01*
X1317955Y3949852D01*
X1299210Y3947972D01*
X1280769Y3944162D01*
X1262786Y3938524D01*
X1245463Y3931107D01*
X1229004Y3921963D01*
X1213561Y3911193D01*
X1199286Y3898950D01*
X1186281Y3885285D01*
X1174800Y3870401D01*
X1164793Y3854399D01*
X1156512Y3837533D01*
X1149959Y3819855D01*
X1145286Y3801618D01*
X1142390Y3783025D01*
X1141476Y3764178D01*
X1142390Y3745382D01*
X1145286Y3726789D01*
X1149959Y3708552D01*
X1156512Y3690874D01*
X1164793Y3674008D01*
X1174800Y3658006D01*
X1186281Y3643122D01*
X1199286Y3629456D01*
X1213561Y3617214D01*
X1229004Y3606444D01*
X1245463Y3597300D01*
X1262786Y3589883D01*
X1280769Y3584244D01*
X1299210Y3580434D01*
G37*
G36*
X11592712Y5270500D02*
G01*
X11681206Y5270500D01*
X11681206Y5359044D01*
X11666931Y5356301D01*
X11654028Y5351830D01*
X11641836Y5345633D01*
X11630609Y5337962D01*
X11620500Y5328767D01*
X11611711Y5318353D01*
X11604345Y5306872D01*
X11598605Y5294528D01*
X11594592Y5281472D01*
G37*
G36*
X11681206Y4902758D02*
G01*
X11681206Y4991100D01*
X11592814Y4991100D01*
X11593220Y4986832D01*
X11596370Y4973574D01*
X11601297Y4960874D01*
X11607850Y4948885D01*
X11615928Y4937912D01*
X11625427Y4928108D01*
X11636095Y4919675D01*
X11647830Y4912715D01*
X11660378Y4907381D01*
X11673535Y4903774D01*
G37*
G36*
X11706606Y4902758D02*
G01*
X11714226Y4903774D01*
X11727383Y4907381D01*
X11739930Y4912715D01*
X11751665Y4919675D01*
X11762384Y4928108D01*
X11771833Y4937912D01*
X11779910Y4948885D01*
X11786463Y4960874D01*
X11791391Y4973574D01*
X11794540Y4986832D01*
X11794998Y4991100D01*
X11706606Y4991100D01*
G37*
G36*
X11001095Y4968544D02*
G01*
X11019942Y4968544D01*
X11038687Y4970424D01*
X11057128Y4974234D01*
X11075060Y4979873D01*
X11092383Y4987290D01*
X11108842Y4996434D01*
X11124285Y5007203D01*
X11138611Y5019446D01*
X11151565Y5033111D01*
X11163096Y5047996D01*
X11173053Y5063998D01*
X11181334Y5080863D01*
X11187887Y5098542D01*
X11192611Y5116779D01*
X11195456Y5135372D01*
X11196421Y5154168D01*
X11195456Y5173014D01*
X11192611Y5191607D01*
X11187887Y5209844D01*
X11181334Y5227523D01*
X11173053Y5244388D01*
X11163096Y5260390D01*
X11151565Y5275275D01*
X11138611Y5288940D01*
X11124285Y5301183D01*
X11108842Y5311952D01*
X11092383Y5321096D01*
X11075060Y5328513D01*
X11057128Y5334152D01*
X11038687Y5337962D01*
X11019942Y5339842D01*
X11001095Y5339842D01*
X10982350Y5337962D01*
X10963910Y5334152D01*
X10945977Y5328513D01*
X10928654Y5321096D01*
X10912195Y5311952D01*
X10896752Y5301183D01*
X10882426Y5288940D01*
X10869472Y5275275D01*
X10857941Y5260390D01*
X10847984Y5244388D01*
X10839704Y5227523D01*
X10833150Y5209844D01*
X10828426Y5191607D01*
X10825581Y5173014D01*
X10824616Y5154168D01*
X10825581Y5135372D01*
X10828426Y5116779D01*
X10833150Y5098542D01*
X10839704Y5080863D01*
X10847984Y5063998D01*
X10857941Y5047996D01*
X10869472Y5033111D01*
X10882426Y5019446D01*
X10896752Y5007203D01*
X10912195Y4996434D01*
X10928654Y4987290D01*
X10945977Y4979873D01*
X10963910Y4974234D01*
X10982350Y4970424D01*
G37*
G36*
X1317955Y4968544D02*
G01*
X1336751Y4968544D01*
X1355496Y4970424D01*
X1373936Y4974234D01*
X1391920Y4979873D01*
X1409242Y4987290D01*
X1425702Y4996434D01*
X1441145Y5007203D01*
X1455420Y5019446D01*
X1468424Y5033111D01*
X1479905Y5047996D01*
X1489913Y5063998D01*
X1498193Y5080863D01*
X1504746Y5098542D01*
X1509420Y5116779D01*
X1512316Y5135372D01*
X1513230Y5154168D01*
X1512316Y5173014D01*
X1509420Y5191607D01*
X1504746Y5209844D01*
X1498193Y5227523D01*
X1489913Y5244388D01*
X1479905Y5260390D01*
X1468424Y5275275D01*
X1455420Y5288940D01*
X1441145Y5301183D01*
X1425702Y5311952D01*
X1409242Y5321096D01*
X1391920Y5328513D01*
X1373936Y5334152D01*
X1355496Y5337962D01*
X1336751Y5339842D01*
X1317955Y5339842D01*
X1299210Y5337962D01*
X1280769Y5334152D01*
X1262786Y5328513D01*
X1245463Y5321096D01*
X1229004Y5311952D01*
X1213561Y5301183D01*
X1199286Y5288940D01*
X1186281Y5275275D01*
X1174800Y5260390D01*
X1164793Y5244388D01*
X1156512Y5227523D01*
X1149959Y5209844D01*
X1145286Y5191607D01*
X1142390Y5173014D01*
X1141476Y5154168D01*
X1142390Y5135372D01*
X1145286Y5116779D01*
X1149959Y5098542D01*
X1156512Y5080863D01*
X1164793Y5063998D01*
X1174800Y5047996D01*
X1186281Y5033111D01*
X1199286Y5019446D01*
X1213561Y5007203D01*
X1229004Y4996434D01*
X1245463Y4987290D01*
X1262786Y4979873D01*
X1280769Y4974234D01*
X1299210Y4970424D01*
G37*
G36*
X11592712Y5016500D02*
G01*
X11681206Y5016500D01*
X11681206Y5105044D01*
X11666931Y5102301D01*
X11654028Y5097830D01*
X11641836Y5091633D01*
X11630609Y5083962D01*
X11620500Y5074767D01*
X11611711Y5064353D01*
X11604345Y5052872D01*
X11598605Y5040528D01*
X11594592Y5027472D01*
G37*
G36*
X11706606Y5016500D02*
G01*
X11795048Y5016500D01*
X11793169Y5027472D01*
X11789156Y5040528D01*
X11783415Y5052872D01*
X11776049Y5064353D01*
X11767261Y5074767D01*
X11757152Y5083962D01*
X11745925Y5091633D01*
X11733733Y5097830D01*
X11720830Y5102301D01*
X11706606Y5105044D01*
G37*
G36*
X393700Y5185613D02*
G01*
X409854Y5186629D01*
X432714Y5189982D01*
X455168Y5195265D01*
X477164Y5202428D01*
X498449Y5211368D01*
X518922Y5222087D01*
X538429Y5234432D01*
X556869Y5248402D01*
X574040Y5263896D01*
X589838Y5280710D01*
X604215Y5298846D01*
X616966Y5318099D01*
X628142Y5338318D01*
X637540Y5359450D01*
X645109Y5381244D01*
X650849Y5403646D01*
X654710Y5426405D01*
X656539Y5448300D01*
X393700Y5448300D01*
G37*
G36*
X12417806Y5185613D02*
G01*
X12433960Y5186629D01*
X12456820Y5189982D01*
X12479274Y5195265D01*
X12501270Y5202428D01*
X12522555Y5211368D01*
X12543028Y5222087D01*
X12562535Y5234432D01*
X12580975Y5248402D01*
X12598146Y5263896D01*
X12613944Y5280710D01*
X12628321Y5298846D01*
X12641072Y5318099D01*
X12652248Y5338318D01*
X12661646Y5359450D01*
X12669215Y5381244D01*
X12674955Y5403646D01*
X12678816Y5426405D01*
X12680645Y5448300D01*
X12417806Y5448300D01*
G37*
G36*
X11681206Y5156758D02*
G01*
X11681206Y5245100D01*
X11592814Y5245100D01*
X11593220Y5240832D01*
X11596370Y5227574D01*
X11601297Y5214874D01*
X11607850Y5202885D01*
X11615928Y5191912D01*
X11625427Y5182108D01*
X11636095Y5173675D01*
X11647830Y5166715D01*
X11660378Y5161381D01*
X11673535Y5157774D01*
G37*
G36*
X11706606Y5156758D02*
G01*
X11714226Y5157774D01*
X11727383Y5161381D01*
X11739930Y5166715D01*
X11751665Y5173675D01*
X11762384Y5182108D01*
X11771833Y5191912D01*
X11779910Y5202885D01*
X11786463Y5214874D01*
X11791391Y5227574D01*
X11794540Y5240832D01*
X11794998Y5245100D01*
X11706606Y5245100D01*
G37*
G36*
X368300Y5185562D02*
G01*
X368300Y5448300D01*
X105613Y5448300D01*
X106070Y5437936D01*
X108966Y5414975D01*
X113741Y5392369D01*
X120446Y5370271D01*
X128930Y5348782D01*
X139242Y5328107D01*
X151180Y5308346D01*
X164795Y5289651D01*
X179882Y5272125D01*
X196392Y5255971D01*
X214172Y5241239D01*
X233171Y5228031D01*
X253187Y5216499D01*
X274066Y5206644D01*
X295757Y5198618D01*
X318008Y5192369D01*
X340664Y5188051D01*
X363677Y5185664D01*
G37*
G36*
X12392406Y5185562D02*
G01*
X12392406Y5448300D01*
X12129719Y5448300D01*
X12130176Y5437936D01*
X12133072Y5414975D01*
X12137847Y5392369D01*
X12144552Y5370271D01*
X12153036Y5348782D01*
X12163348Y5328107D01*
X12175286Y5308346D01*
X12188901Y5289651D01*
X12203988Y5272125D01*
X12220498Y5255971D01*
X12238278Y5241239D01*
X12257278Y5228031D01*
X12277293Y5216499D01*
X12298172Y5206644D01*
X12319863Y5198618D01*
X12342114Y5192369D01*
X12364770Y5188051D01*
X12387783Y5185664D01*
G37*
G36*
X12417094Y1282700D02*
G01*
X12519406Y1282700D01*
X12519406Y1385112D01*
X12517577Y1384960D01*
X12503251Y1382268D01*
X12489434Y1377746D01*
X12476276Y1371549D01*
X12463983Y1363776D01*
X12452756Y1354480D01*
X12442799Y1343863D01*
X12434265Y1332077D01*
X12427254Y1319326D01*
X12421870Y1305814D01*
X12418263Y1291742D01*
G37*

%LPD*%
D10*
X173989Y2739897D02*
G01*
X170687Y2739897D01*
X164337Y2736850D01*
X161036Y2733547D01*
X157987Y2727197D01*
X157987Y2714497D01*
X161036Y2708147D01*
X164337Y2705100D01*
X170687Y2701797D01*
X177037Y2701797D01*
X183387Y2705100D01*
X193039Y2711450D01*
X224789Y2743200D01*
X224789Y2698750D01*
D11*
X11947893Y762002D02*
G01*
X11947893Y4749777D01*
X12100318Y4902202D01*
X11947918Y5257802D02*
G01*
X12100318Y5105402D01*
X12100318Y4902202D01*
X11947893Y762002D02*
G01*
X12278088Y762002D01*
X12532088Y1016002D01*
D12*
G01*
X12405106Y381000D03*
G01*
X12405106Y5461000D03*
G01*
X381000Y381000D03*
G01*
X381000Y5461000D03*
D13*
G01*
X11693880Y762000D03*
G01*
X11947880Y762000D03*
G01*
X11947880Y508000D03*
G01*
X11693880Y508000D03*
G01*
X11693906Y5257800D03*
G01*
X11947906Y5257800D03*
G01*
X11947906Y5003800D03*
G01*
X11693906Y5003800D03*
D14*
G01*
X12532080Y1016000D03*
G01*
X12278080Y1016000D03*
G01*
X12278080Y1270000D03*
G01*
X12532080Y1270000D03*
M02*
