G04 Layer: TopSilkscreenLayer*
G04 EasyEDA v6.5.32, 2023-07-25 14:04:49*
G04 3427a68e04624d36b5ebd798919f52c8,5a6b42c53f6a479593ecc07194224c93,10*
G04 Gerber Generator version 0.2*
G04 Scale: 100 percent, Rotated: No, Reflected: No *
G04 Dimensions in millimeters *
G04 leading zeros omitted , absolute positions ,4 integer and 5 decimal *
%FSLAX45Y45*%
%MOMM*%

%ADD10C,0.1524*%
%ADD11C,0.1500*%
%ADD12C,0.2540*%

%LPD*%
G36*
X4410405Y3619398D02*
G01*
X4401058Y3619195D01*
X4396282Y3617823D01*
X4394454Y3614064D01*
X4394200Y3606800D01*
X4394454Y3599535D01*
X4396282Y3595776D01*
X4401058Y3594404D01*
X4410405Y3594201D01*
X4419752Y3594404D01*
X4424578Y3595776D01*
X4426407Y3599535D01*
X4426661Y3606800D01*
X4426407Y3614064D01*
X4424578Y3617823D01*
X4419752Y3619195D01*
G37*
G36*
X4444695Y3619398D02*
G01*
X4444695Y3474770D01*
X4471720Y3477006D01*
X4475327Y3518458D01*
X4498492Y3489807D01*
X4503064Y3484524D01*
X4506874Y3480714D01*
X4510278Y3478072D01*
X4513732Y3476447D01*
X4517593Y3475583D01*
X4527956Y3475177D01*
X4534814Y3475380D01*
X4540453Y3475888D01*
X4544263Y3476650D01*
X4545634Y3477564D01*
X4543958Y3480409D01*
X4539386Y3486302D01*
X4532630Y3494430D01*
X4503064Y3527907D01*
X4545431Y3574338D01*
X4522825Y3575862D01*
X4518355Y3575812D01*
X4514596Y3575202D01*
X4511141Y3573779D01*
X4507585Y3571341D01*
X4503572Y3567684D01*
X4492447Y3555695D01*
X4473549Y3534664D01*
X4473549Y3619398D01*
G37*
G36*
X3827373Y3615791D02*
G01*
X3817975Y3615334D01*
X3810812Y3613404D01*
X3804005Y3609187D01*
X3795826Y3601974D01*
X3791305Y3597605D01*
X3787851Y3593896D01*
X3785311Y3590544D01*
X3783482Y3587292D01*
X3782314Y3583838D01*
X3781602Y3579825D01*
X3781298Y3575050D01*
X3781247Y3569157D01*
X3781602Y3561029D01*
X3782669Y3553663D01*
X3784498Y3547008D01*
X3787038Y3541064D01*
X3790391Y3535730D01*
X3794556Y3531006D01*
X3799535Y3526891D01*
X3805326Y3523284D01*
X3817315Y3516833D01*
X3817315Y3442766D01*
X3716324Y3442766D01*
X3716172Y3350818D01*
X3704590Y3345383D01*
X3699256Y3342538D01*
X3694531Y3339236D01*
X3690365Y3335477D01*
X3686759Y3331362D01*
X3683762Y3326993D01*
X3681272Y3322320D01*
X3679393Y3317392D01*
X3678072Y3312363D01*
X3677361Y3307181D01*
X3677158Y3301949D01*
X3677513Y3296665D01*
X3678478Y3291484D01*
X3680002Y3286302D01*
X3682085Y3281273D01*
X3684676Y3276447D01*
X3687876Y3271875D01*
X3691636Y3267506D01*
X3695954Y3263544D01*
X3700830Y3259886D01*
X3706215Y3256686D01*
X3711041Y3254552D01*
X3715918Y3252978D01*
X3720795Y3251962D01*
X3725672Y3251555D01*
X3730498Y3251657D01*
X3735222Y3252266D01*
X3739896Y3253384D01*
X3744366Y3255010D01*
X3748684Y3257042D01*
X3752799Y3259480D01*
X3756660Y3262376D01*
X3760266Y3265627D01*
X3763568Y3269234D01*
X3766515Y3273145D01*
X3769055Y3277412D01*
X3771239Y3281984D01*
X3772966Y3286810D01*
X3774186Y3291890D01*
X3774948Y3297224D01*
X3775100Y3302762D01*
X3774440Y3310280D01*
X3772712Y3317646D01*
X3770071Y3324606D01*
X3766616Y3331006D01*
X3762451Y3336594D01*
X3757777Y3341217D01*
X3752596Y3344672D01*
X3747109Y3346856D01*
X3744112Y3347669D01*
X3741877Y3348786D01*
X3740251Y3350666D01*
X3739134Y3353663D01*
X3738473Y3358387D01*
X3738118Y3365195D01*
X3737965Y3374542D01*
X3737965Y3424732D01*
X3921861Y3424732D01*
X3921810Y3375304D01*
X3921353Y3359454D01*
X3920693Y3354730D01*
X3919728Y3351580D01*
X3918254Y3349650D01*
X3916273Y3348482D01*
X3913632Y3347720D01*
X3909618Y3346043D01*
X3904691Y3342995D01*
X3899509Y3338982D01*
X3894734Y3334461D01*
X3889095Y3327908D01*
X3885844Y3321659D01*
X3884371Y3313887D01*
X3884015Y3302762D01*
X3884371Y3294227D01*
X3885488Y3286658D01*
X3887470Y3280003D01*
X3890314Y3274161D01*
X3894124Y3269030D01*
X3898900Y3264458D01*
X3904792Y3260445D01*
X3911803Y3256788D01*
X3916781Y3254806D01*
X3921760Y3253333D01*
X3926687Y3252419D01*
X3931615Y3252063D01*
X3936390Y3252215D01*
X3941114Y3252876D01*
X3945686Y3253994D01*
X3950106Y3255670D01*
X3954373Y3257803D01*
X3958437Y3260394D01*
X3962298Y3263442D01*
X3965905Y3266998D01*
X3969258Y3270961D01*
X3972306Y3275329D01*
X3975100Y3280156D01*
X3977487Y3285337D01*
X3981399Y3295243D01*
X3982669Y3302152D01*
X3981399Y3309112D01*
X3977487Y3319272D01*
X3973372Y3328009D01*
X3968902Y3334410D01*
X3963111Y3339287D01*
X3955338Y3343605D01*
X3940149Y3350818D01*
X3939895Y3424732D01*
X4123791Y3424732D01*
X4123588Y3366820D01*
X4123232Y3360115D01*
X4122674Y3355187D01*
X4121759Y3351784D01*
X4120540Y3349548D01*
X4118914Y3348177D01*
X4113276Y3345535D01*
X4108704Y3342386D01*
X4103674Y3338322D01*
X4098798Y3333750D01*
X4093006Y3327146D01*
X4089654Y3320948D01*
X4088079Y3313480D01*
X4087723Y3302914D01*
X4088129Y3294583D01*
X4089450Y3286963D01*
X4091584Y3280105D01*
X4094581Y3273958D01*
X4098442Y3268522D01*
X4103166Y3263849D01*
X4108754Y3259886D01*
X4115206Y3256635D01*
X4121251Y3254400D01*
X4126941Y3252876D01*
X4132427Y3252063D01*
X4137812Y3252012D01*
X4143095Y3252673D01*
X4148429Y3254095D01*
X4153915Y3256279D01*
X4159656Y3259175D01*
X4165752Y3263036D01*
X4170984Y3267354D01*
X4175353Y3272078D01*
X4178858Y3277311D01*
X4181601Y3283000D01*
X4183532Y3289249D01*
X4184700Y3296056D01*
X4185056Y3303473D01*
X4184599Y3312160D01*
X4182872Y3319170D01*
X4179417Y3325622D01*
X4173829Y3332683D01*
X4168800Y3337814D01*
X4163415Y3342335D01*
X4158234Y3345789D01*
X4154017Y3347618D01*
X4151223Y3348431D01*
X4149090Y3349650D01*
X4147565Y3351834D01*
X4146499Y3355492D01*
X4145889Y3361232D01*
X4145534Y3369564D01*
X4145432Y3442766D01*
X4044442Y3442766D01*
X4044442Y3516833D01*
X4056176Y3523234D01*
X4062628Y3527196D01*
X4068064Y3531463D01*
X4072483Y3536086D01*
X4076039Y3541166D01*
X4078732Y3546805D01*
X4080510Y3553002D01*
X4081526Y3559860D01*
X4081779Y3567480D01*
X4081322Y3574796D01*
X4080052Y3581552D01*
X4078122Y3587750D01*
X4075480Y3593439D01*
X4072178Y3598519D01*
X4068216Y3602990D01*
X4063644Y3606800D01*
X4058462Y3610000D01*
X4052671Y3612489D01*
X4046321Y3614318D01*
X4039463Y3615436D01*
X4032046Y3615791D01*
X4022851Y3615334D01*
X4015689Y3613353D01*
X4008831Y3609187D01*
X4000550Y3602075D01*
X3992930Y3594303D01*
X3988206Y3587546D01*
X3985564Y3580180D01*
X3984193Y3570528D01*
X3983990Y3562756D01*
X3984853Y3555390D01*
X3986784Y3548430D01*
X3989781Y3541979D01*
X3993692Y3536086D01*
X3998569Y3530803D01*
X4004360Y3526231D01*
X4011015Y3522370D01*
X4022648Y3516680D01*
X4022801Y3442766D01*
X3838905Y3442766D01*
X3839108Y3516680D01*
X3850741Y3522370D01*
X3856532Y3525774D01*
X3861866Y3530092D01*
X3866591Y3535070D01*
X3870655Y3540658D01*
X3874008Y3546703D01*
X3876497Y3553053D01*
X3878072Y3559505D01*
X3878579Y3566058D01*
X3878326Y3571494D01*
X3877665Y3576726D01*
X3876497Y3581654D01*
X3874871Y3586327D01*
X3872839Y3590747D01*
X3870451Y3594811D01*
X3867607Y3598621D01*
X3864457Y3602024D01*
X3860901Y3605123D01*
X3856990Y3607866D01*
X3852773Y3610203D01*
X3848252Y3612184D01*
X3843426Y3613759D01*
X3838346Y3614877D01*
X3832961Y3615588D01*
G37*
G36*
X4810455Y3587038D02*
G01*
X4807305Y3586327D01*
X4804003Y3583127D01*
X4800752Y3577437D01*
X4796383Y3567887D01*
X4794351Y3576523D01*
X4792573Y3581247D01*
X4788865Y3583990D01*
X4781346Y3585413D01*
X4768138Y3586226D01*
X4755997Y3586530D01*
X4748580Y3586022D01*
X4744923Y3584498D01*
X4743958Y3581704D01*
X4744364Y3579571D01*
X4745532Y3577793D01*
X4747260Y3576574D01*
X4749342Y3576167D01*
X4751832Y3575354D01*
X4753508Y3572865D01*
X4754473Y3568395D01*
X4755083Y3555085D01*
X4755997Y3550615D01*
X4757674Y3548075D01*
X4760163Y3547313D01*
X4762652Y3548075D01*
X4764328Y3550615D01*
X4765294Y3555085D01*
X4765903Y3568395D01*
X4766818Y3572865D01*
X4768494Y3575354D01*
X4770983Y3576167D01*
X4773472Y3575354D01*
X4775149Y3572865D01*
X4776114Y3568395D01*
X4776419Y3561740D01*
X4777333Y3552799D01*
X4779670Y3547922D01*
X4782769Y3547719D01*
X4785969Y3552799D01*
X4787239Y3555492D01*
X4788509Y3556254D01*
X4790287Y3555085D01*
X4792827Y3551936D01*
X4796739Y3548481D01*
X4800447Y3548735D01*
X4803698Y3552596D01*
X4806289Y3559911D01*
X4807102Y3562858D01*
X4807712Y3563416D01*
X4808169Y3561587D01*
X4808423Y3557219D01*
X4809083Y3552393D01*
X4810455Y3549091D01*
X4812284Y3547313D01*
X4814265Y3546906D01*
X4816297Y3547922D01*
X4817973Y3550310D01*
X4819192Y3554018D01*
X4819599Y3559048D01*
X4819142Y3568395D01*
X4817821Y3576015D01*
X4815840Y3581755D01*
X4813350Y3585514D01*
G37*
G36*
X4682896Y3579215D02*
G01*
X4675327Y3578098D01*
X4665776Y3574999D01*
X4660442Y3572764D01*
X4655515Y3570173D01*
X4650994Y3567226D01*
X4646930Y3564026D01*
X4643221Y3560470D01*
X4640021Y3556660D01*
X4637227Y3552647D01*
X4634890Y3548329D01*
X4633010Y3543858D01*
X4631639Y3539236D01*
X4630724Y3534410D01*
X4630318Y3529482D01*
X4630432Y3525672D01*
X4661712Y3525672D01*
X4661865Y3531108D01*
X4662830Y3536238D01*
X4664557Y3540861D01*
X4666945Y3544925D01*
X4669942Y3548379D01*
X4673549Y3551072D01*
X4677562Y3552850D01*
X4681982Y3553714D01*
X4686757Y3553510D01*
X4691786Y3552190D01*
X4694732Y3550361D01*
X4697526Y3547414D01*
X4700066Y3543503D01*
X4702251Y3539032D01*
X4703927Y3534156D01*
X4705045Y3529126D01*
X4705451Y3524250D01*
X4705045Y3519728D01*
X4703572Y3514902D01*
X4701184Y3510737D01*
X4698034Y3507384D01*
X4694326Y3504742D01*
X4690262Y3502914D01*
X4685893Y3501898D01*
X4681524Y3501694D01*
X4677206Y3502355D01*
X4673142Y3503929D01*
X4669536Y3506368D01*
X4666488Y3509721D01*
X4664252Y3514039D01*
X4662474Y3519932D01*
X4661712Y3525672D01*
X4630432Y3525672D01*
X4631131Y3519271D01*
X4632299Y3514039D01*
X4634026Y3508806D01*
X4636262Y3503676D01*
X4638954Y3499002D01*
X4642002Y3494684D01*
X4645355Y3490823D01*
X4649063Y3487369D01*
X4653026Y3484321D01*
X4657191Y3481730D01*
X4661611Y3479546D01*
X4666183Y3477818D01*
X4670856Y3476498D01*
X4675632Y3475634D01*
X4680508Y3475177D01*
X4685385Y3475126D01*
X4690211Y3475583D01*
X4695037Y3476396D01*
X4699812Y3477717D01*
X4704435Y3479444D01*
X4708906Y3481628D01*
X4713173Y3484270D01*
X4717237Y3487318D01*
X4721047Y3490823D01*
X4724603Y3494836D01*
X4727803Y3499256D01*
X4730648Y3504133D01*
X4732883Y3509162D01*
X4734458Y3514394D01*
X4735423Y3519779D01*
X4735779Y3525215D01*
X4735525Y3530701D01*
X4734763Y3536086D01*
X4733442Y3541420D01*
X4731664Y3546551D01*
X4729327Y3551529D01*
X4726584Y3556203D01*
X4723384Y3560521D01*
X4719726Y3564534D01*
X4715713Y3568039D01*
X4711293Y3571087D01*
X4706569Y3573576D01*
X4701489Y3575456D01*
X4690872Y3578351D01*
G37*
G36*
X4235348Y3576726D02*
G01*
X4237329Y3477006D01*
X4264406Y3474770D01*
X4264406Y3550920D01*
X4289399Y3550920D01*
X4291431Y3477006D01*
X4322064Y3474770D01*
X4322064Y3551377D01*
X4345533Y3549091D01*
X4349140Y3477006D01*
X4376166Y3474770D01*
X4376013Y3535426D01*
X4375607Y3545840D01*
X4375200Y3550259D01*
X4374591Y3554171D01*
X4373727Y3557676D01*
X4372610Y3560724D01*
X4371238Y3563416D01*
X4369460Y3565702D01*
X4367326Y3567684D01*
X4364786Y3569360D01*
X4361789Y3570732D01*
X4358284Y3571849D01*
X4354271Y3572764D01*
X4344517Y3574034D01*
X4332224Y3574796D01*
G37*
G36*
X4393996Y3576167D02*
G01*
X4395978Y3477006D01*
X4424832Y3477006D01*
X4426864Y3576167D01*
G37*
G36*
X4552848Y3576167D02*
G01*
X4552848Y3475177D01*
X4581702Y3475177D01*
X4581702Y3527247D01*
X4581855Y3536746D01*
X4582210Y3543757D01*
X4582769Y3548634D01*
X4583633Y3551783D01*
X4584903Y3553561D01*
X4586630Y3554323D01*
X4588916Y3554526D01*
X4592421Y3554018D01*
X4594606Y3552240D01*
X4595774Y3548938D01*
X4596434Y3537712D01*
X4598212Y3534460D01*
X4602530Y3533140D01*
X4610557Y3532886D01*
X4624984Y3532886D01*
X4624984Y3547313D01*
X4624781Y3552748D01*
X4624171Y3557473D01*
X4623104Y3561587D01*
X4621479Y3565093D01*
X4619244Y3568039D01*
X4616399Y3570427D01*
X4612741Y3572357D01*
X4608372Y3573830D01*
X4603140Y3574897D01*
X4596993Y3575608D01*
X4589830Y3576015D01*
G37*
G36*
X4235551Y3424732D02*
G01*
X4235551Y3392271D01*
X4303776Y3392271D01*
X4317492Y3391966D01*
X4327296Y3391001D01*
X4333900Y3389274D01*
X4338066Y3386582D01*
X4341977Y3381095D01*
X4343501Y3375101D01*
X4342638Y3369208D01*
X4339386Y3364128D01*
X4335526Y3362350D01*
X4328210Y3360978D01*
X4317898Y3360115D01*
X4305147Y3359810D01*
X4275226Y3359810D01*
X4275226Y3392271D01*
X4235551Y3392271D01*
X4235551Y3327349D01*
X4302506Y3327349D01*
X4313631Y3327044D01*
X4323791Y3326282D01*
X4331868Y3325063D01*
X4336745Y3323640D01*
X4339742Y3321304D01*
X4341926Y3318103D01*
X4343247Y3313988D01*
X4343704Y3309112D01*
X4343247Y3304387D01*
X4341672Y3300526D01*
X4338828Y3297428D01*
X4334611Y3295040D01*
X4328820Y3293313D01*
X4321251Y3292144D01*
X4311751Y3291484D01*
X4300220Y3291281D01*
X4275226Y3291281D01*
X4275226Y3327349D01*
X4235551Y3327349D01*
X4235551Y3258362D01*
X4308906Y3259785D01*
X4329582Y3260547D01*
X4345584Y3261817D01*
X4352036Y3262731D01*
X4357624Y3263900D01*
X4362348Y3265322D01*
X4366463Y3266998D01*
X4369917Y3269030D01*
X4372813Y3271469D01*
X4375353Y3274263D01*
X4377537Y3277463D01*
X4379468Y3281172D01*
X4381296Y3285337D01*
X4383024Y3290062D01*
X4384903Y3296412D01*
X4385970Y3302457D01*
X4386122Y3308197D01*
X4385462Y3313684D01*
X4383887Y3318916D01*
X4381449Y3323945D01*
X4378147Y3328771D01*
X4373981Y3333496D01*
X4364888Y3342589D01*
X4372254Y3350463D01*
X4376572Y3355746D01*
X4380026Y3361385D01*
X4382516Y3367227D01*
X4384141Y3373272D01*
X4384852Y3379317D01*
X4384700Y3385413D01*
X4383684Y3391357D01*
X4381754Y3397097D01*
X4379010Y3402584D01*
X4375404Y3407664D01*
X4370984Y3412337D01*
X4365701Y3416452D01*
X4360316Y3419754D01*
X4357522Y3421024D01*
X4354474Y3422040D01*
X4350867Y3422853D01*
X4346600Y3423513D01*
X4335068Y3424275D01*
X4318254Y3424631D01*
G37*
G36*
X4408170Y3424732D02*
G01*
X4409541Y3344164D01*
X4410100Y3321964D01*
X4410913Y3306419D01*
X4411421Y3300679D01*
X4412081Y3295954D01*
X4412894Y3292144D01*
X4413859Y3288995D01*
X4414977Y3286302D01*
X4416348Y3283915D01*
X4421124Y3277666D01*
X4424527Y3274161D01*
X4428134Y3271062D01*
X4432096Y3268370D01*
X4436364Y3266084D01*
X4441088Y3264153D01*
X4446219Y3262528D01*
X4451908Y3261309D01*
X4458157Y3260344D01*
X4464964Y3259683D01*
X4480763Y3259175D01*
X4489297Y3259328D01*
X4497070Y3259734D01*
X4504080Y3260445D01*
X4510430Y3261410D01*
X4516221Y3262782D01*
X4521454Y3264509D01*
X4526178Y3266592D01*
X4530445Y3269132D01*
X4534408Y3272078D01*
X4538014Y3275482D01*
X4541418Y3279343D01*
X4544618Y3283712D01*
X4547920Y3289198D01*
X4549190Y3291992D01*
X4550206Y3295192D01*
X4551019Y3298951D01*
X4551680Y3303473D01*
X4552442Y3315919D01*
X4552797Y3334258D01*
X4552848Y3424732D01*
X4516780Y3424732D01*
X4516729Y3362299D01*
X4516374Y3343351D01*
X4515561Y3328162D01*
X4515002Y3321862D01*
X4514240Y3316274D01*
X4513326Y3311448D01*
X4512259Y3307283D01*
X4510989Y3303676D01*
X4509465Y3300577D01*
X4507788Y3297986D01*
X4505858Y3295853D01*
X4503724Y3294024D01*
X4501337Y3292500D01*
X4498644Y3291230D01*
X4492955Y3289503D01*
X4486503Y3288588D01*
X4479696Y3288385D01*
X4472889Y3288944D01*
X4466386Y3290112D01*
X4460697Y3291941D01*
X4456074Y3294278D01*
X4452924Y3297174D01*
X4452112Y3298596D01*
X4451400Y3300679D01*
X4450232Y3306826D01*
X4449368Y3315970D01*
X4448759Y3328365D01*
X4448403Y3344316D01*
X4448302Y3424732D01*
G37*
G36*
X4725924Y3424732D02*
G01*
X4655413Y3424529D01*
X4637836Y3424275D01*
X4623511Y3423716D01*
X4612335Y3422954D01*
X4604054Y3421938D01*
X4598568Y3420618D01*
X4596790Y3419856D01*
X4591608Y3416401D01*
X4587087Y3412286D01*
X4583226Y3407460D01*
X4580077Y3401923D01*
X4577638Y3395726D01*
X4575911Y3388868D01*
X4574844Y3381248D01*
X4574489Y3372967D01*
X4574844Y3361232D01*
X4575403Y3356914D01*
X4576419Y3353257D01*
X4577943Y3350006D01*
X4580128Y3346856D01*
X4583023Y3343452D01*
X4599025Y3327349D01*
X4646015Y3327298D01*
X4663389Y3326637D01*
X4670094Y3325977D01*
X4675682Y3325012D01*
X4680153Y3323793D01*
X4683607Y3322269D01*
X4686147Y3320389D01*
X4687925Y3318103D01*
X4688941Y3315360D01*
X4689348Y3312210D01*
X4689195Y3308553D01*
X4688738Y3305098D01*
X4687874Y3302152D01*
X4686554Y3299663D01*
X4684572Y3297631D01*
X4681728Y3295954D01*
X4677867Y3294634D01*
X4672838Y3293668D01*
X4666488Y3292906D01*
X4648962Y3292043D01*
X4624070Y3291636D01*
X4578096Y3291281D01*
X4578096Y3258870D01*
X4649216Y3258921D01*
X4668977Y3259175D01*
X4683048Y3259734D01*
X4688433Y3260191D01*
X4692954Y3260852D01*
X4696815Y3261664D01*
X4700168Y3262629D01*
X4703318Y3263849D01*
X4709515Y3267049D01*
X4714189Y3270148D01*
X4718304Y3273806D01*
X4721961Y3277920D01*
X4725060Y3282543D01*
X4727651Y3287471D01*
X4729683Y3292754D01*
X4731156Y3298240D01*
X4732121Y3303828D01*
X4732477Y3309569D01*
X4732324Y3315258D01*
X4731562Y3320948D01*
X4730191Y3326485D01*
X4728210Y3331819D01*
X4725670Y3336848D01*
X4722520Y3341624D01*
X4718710Y3345942D01*
X4715306Y3349244D01*
X4712157Y3351733D01*
X4708804Y3353562D01*
X4704689Y3354832D01*
X4699355Y3355594D01*
X4692243Y3356000D01*
X4650181Y3356508D01*
X4642053Y3356914D01*
X4635195Y3357524D01*
X4629454Y3358438D01*
X4624832Y3359607D01*
X4621174Y3361029D01*
X4618380Y3362858D01*
X4616399Y3364992D01*
X4615078Y3367582D01*
X4614367Y3370579D01*
X4614164Y3374034D01*
X4614621Y3378860D01*
X4615942Y3382975D01*
X4618126Y3386226D01*
X4621123Y3388512D01*
X4623511Y3389274D01*
X4627676Y3389985D01*
X4640427Y3391154D01*
X4657445Y3391966D01*
X4677003Y3392271D01*
X4725924Y3392271D01*
G37*
D10*
X1778000Y1391157D02*
G01*
X1778000Y1276604D01*
X1778000Y1391157D02*
G01*
X1821687Y1276604D01*
X1865121Y1391157D02*
G01*
X1821687Y1276604D01*
X1865121Y1391157D02*
G01*
X1865121Y1276604D01*
X1901189Y1391157D02*
G01*
X1901189Y1276604D01*
X2013711Y1374647D02*
G01*
X2002790Y1385570D01*
X1986279Y1391157D01*
X1964436Y1391157D01*
X1948179Y1385570D01*
X1937258Y1374647D01*
X1937258Y1363726D01*
X1942591Y1352804D01*
X1948179Y1347470D01*
X1959102Y1341881D01*
X1991868Y1331213D01*
X2002790Y1325626D01*
X2008124Y1320292D01*
X2013711Y1309370D01*
X2013711Y1292860D01*
X2002790Y1281937D01*
X1986279Y1276604D01*
X1964436Y1276604D01*
X1948179Y1281937D01*
X1937258Y1292860D01*
X2082291Y1391157D02*
G01*
X2071370Y1385570D01*
X2060447Y1374647D01*
X2055113Y1363726D01*
X2049525Y1347470D01*
X2049525Y1320292D01*
X2055113Y1303781D01*
X2060447Y1292860D01*
X2071370Y1281937D01*
X2082291Y1276604D01*
X2104136Y1276604D01*
X2115058Y1281937D01*
X2125979Y1292860D01*
X2131313Y1303781D01*
X2136902Y1320292D01*
X2136902Y1347470D01*
X2131313Y1363726D01*
X2125979Y1374647D01*
X2115058Y1385570D01*
X2104136Y1391157D01*
X2082291Y1391157D01*
X2271013Y1413002D02*
G01*
X2172970Y1238250D01*
X2307081Y1391157D02*
G01*
X2307081Y1276604D01*
X2307081Y1391157D02*
G01*
X2356104Y1391157D01*
X2372613Y1385570D01*
X2377947Y1380236D01*
X2383536Y1369313D01*
X2383536Y1358392D01*
X2377947Y1347470D01*
X2372613Y1341881D01*
X2356104Y1336547D01*
X2307081Y1336547D01*
X2345181Y1336547D02*
G01*
X2383536Y1276604D01*
X2501138Y1363726D02*
G01*
X2495804Y1374647D01*
X2484881Y1385570D01*
X2473959Y1391157D01*
X2452115Y1391157D01*
X2441193Y1385570D01*
X2430272Y1374647D01*
X2424938Y1363726D01*
X2419350Y1347470D01*
X2419350Y1320292D01*
X2424938Y1303781D01*
X2430272Y1292860D01*
X2441193Y1281937D01*
X2452115Y1276604D01*
X2473959Y1276604D01*
X2484881Y1281937D01*
X2495804Y1292860D01*
X2501138Y1303781D01*
X2591815Y1391157D02*
G01*
X2537206Y1314704D01*
X2618993Y1314704D01*
X2591815Y1391157D02*
G01*
X2591815Y1276604D01*
X1854454Y1628647D02*
G01*
X1843531Y1639570D01*
X1827021Y1645157D01*
X1805178Y1645157D01*
X1788921Y1639570D01*
X1778000Y1628647D01*
X1778000Y1617726D01*
X1783334Y1606804D01*
X1788921Y1601470D01*
X1799844Y1595881D01*
X1832610Y1585213D01*
X1843531Y1579626D01*
X1848865Y1574292D01*
X1854454Y1563370D01*
X1854454Y1546860D01*
X1843531Y1535937D01*
X1827021Y1530604D01*
X1805178Y1530604D01*
X1788921Y1535937D01*
X1778000Y1546860D01*
X1972056Y1617726D02*
G01*
X1966722Y1628647D01*
X1955800Y1639570D01*
X1944877Y1645157D01*
X1923034Y1645157D01*
X1912112Y1639570D01*
X1901189Y1628647D01*
X1895855Y1617726D01*
X1890268Y1601470D01*
X1890268Y1574292D01*
X1895855Y1557781D01*
X1901189Y1546860D01*
X1912112Y1535937D01*
X1923034Y1530604D01*
X1944877Y1530604D01*
X1955800Y1535937D01*
X1966722Y1546860D01*
X1972056Y1557781D01*
X2008124Y1645157D02*
G01*
X2008124Y1530604D01*
X2084577Y1645157D02*
G01*
X2008124Y1568704D01*
X2035302Y1595881D02*
G01*
X2084577Y1530604D01*
X2218690Y1667002D02*
G01*
X2120645Y1492250D01*
X2254758Y1645157D02*
G01*
X2254758Y1530604D01*
X2254758Y1645157D02*
G01*
X2303779Y1645157D01*
X2320036Y1639570D01*
X2325624Y1634236D01*
X2330958Y1623313D01*
X2330958Y1612392D01*
X2325624Y1601470D01*
X2320036Y1595881D01*
X2303779Y1590547D01*
X2254758Y1590547D01*
X2292858Y1590547D02*
G01*
X2330958Y1530604D01*
X2448813Y1617726D02*
G01*
X2443479Y1628647D01*
X2432558Y1639570D01*
X2421636Y1645157D01*
X2399791Y1645157D01*
X2388870Y1639570D01*
X2377947Y1628647D01*
X2372613Y1617726D01*
X2367025Y1601470D01*
X2367025Y1574292D01*
X2372613Y1557781D01*
X2377947Y1546860D01*
X2388870Y1535937D01*
X2399791Y1530604D01*
X2421636Y1530604D01*
X2432558Y1535937D01*
X2443479Y1546860D01*
X2448813Y1557781D01*
X2495804Y1645157D02*
G01*
X2555747Y1645157D01*
X2522981Y1601470D01*
X2539491Y1601470D01*
X2550413Y1595881D01*
X2555747Y1590547D01*
X2561336Y1574292D01*
X2561336Y1563370D01*
X2555747Y1546860D01*
X2544825Y1535937D01*
X2528570Y1530604D01*
X2512059Y1530604D01*
X2495804Y1535937D01*
X2490215Y1541526D01*
X2484881Y1552447D01*
X1859787Y1871726D02*
G01*
X1854454Y1882647D01*
X1843531Y1893570D01*
X1832610Y1899157D01*
X1810765Y1899157D01*
X1799844Y1893570D01*
X1788921Y1882647D01*
X1783334Y1871726D01*
X1778000Y1855470D01*
X1778000Y1828292D01*
X1783334Y1811781D01*
X1788921Y1800860D01*
X1799844Y1789937D01*
X1810765Y1784604D01*
X1832610Y1784604D01*
X1843531Y1789937D01*
X1854454Y1800860D01*
X1859787Y1811781D01*
X1972056Y1882647D02*
G01*
X1961134Y1893570D01*
X1944877Y1899157D01*
X1923034Y1899157D01*
X1906778Y1893570D01*
X1895855Y1882647D01*
X1895855Y1871726D01*
X1901189Y1860804D01*
X1906778Y1855470D01*
X1917700Y1849881D01*
X1950211Y1839213D01*
X1961134Y1833626D01*
X1966722Y1828292D01*
X1972056Y1817370D01*
X1972056Y1800860D01*
X1961134Y1789937D01*
X1944877Y1784604D01*
X1923034Y1784604D01*
X1906778Y1789937D01*
X1895855Y1800860D01*
X2106422Y1921002D02*
G01*
X2008124Y1746250D01*
X2142236Y1899157D02*
G01*
X2142236Y1784604D01*
X2142236Y1899157D02*
G01*
X2191511Y1899157D01*
X2207768Y1893570D01*
X2213356Y1888236D01*
X2218690Y1877313D01*
X2218690Y1866392D01*
X2213356Y1855470D01*
X2207768Y1849881D01*
X2191511Y1844547D01*
X2142236Y1844547D01*
X2180590Y1844547D02*
G01*
X2218690Y1784604D01*
X2254758Y1899157D02*
G01*
X2254758Y1784604D01*
X2254758Y1899157D02*
G01*
X2325624Y1899157D01*
X2254758Y1844547D02*
G01*
X2298445Y1844547D01*
X2254758Y1784604D02*
G01*
X2325624Y1784604D01*
X2394458Y1899157D02*
G01*
X2377947Y1893570D01*
X2367025Y1877313D01*
X2361691Y1849881D01*
X2361691Y1833626D01*
X2367025Y1806447D01*
X2377947Y1789937D01*
X2394458Y1784604D01*
X2405125Y1784604D01*
X2421636Y1789937D01*
X2432558Y1806447D01*
X2437891Y1833626D01*
X2437891Y1849881D01*
X2432558Y1877313D01*
X2421636Y1893570D01*
X2405125Y1899157D01*
X2394458Y1899157D01*
X1778000Y2153157D02*
G01*
X1778000Y2038604D01*
X1778000Y2153157D02*
G01*
X1827021Y2153157D01*
X1843531Y2147570D01*
X1848865Y2142236D01*
X1854454Y2131313D01*
X1854454Y2120392D01*
X1848865Y2109470D01*
X1843531Y2103881D01*
X1827021Y2098547D01*
X1778000Y2098547D01*
X1816100Y2098547D02*
G01*
X1854454Y2038604D01*
X1966722Y2136647D02*
G01*
X1955800Y2147570D01*
X1939543Y2153157D01*
X1917700Y2153157D01*
X1901189Y2147570D01*
X1890268Y2136647D01*
X1890268Y2125726D01*
X1895855Y2114804D01*
X1901189Y2109470D01*
X1912112Y2103881D01*
X1944877Y2093213D01*
X1955800Y2087626D01*
X1961134Y2082292D01*
X1966722Y2071370D01*
X1966722Y2054860D01*
X1955800Y2043937D01*
X1939543Y2038604D01*
X1917700Y2038604D01*
X1901189Y2043937D01*
X1890268Y2054860D01*
X2040890Y2153157D02*
G01*
X2040890Y2038604D01*
X2002790Y2153157D02*
G01*
X2078990Y2153157D01*
X2213356Y2175002D02*
G01*
X2115058Y2000250D01*
X2249170Y2153157D02*
G01*
X2249170Y2038604D01*
X2249170Y2153157D02*
G01*
X2298445Y2153157D01*
X2314702Y2147570D01*
X2320036Y2142236D01*
X2325624Y2131313D01*
X2325624Y2120392D01*
X2320036Y2109470D01*
X2314702Y2103881D01*
X2298445Y2098547D01*
X2249170Y2098547D01*
X2287524Y2098547D02*
G01*
X2325624Y2038604D01*
X2361691Y2153157D02*
G01*
X2361691Y2038604D01*
X2361691Y2153157D02*
G01*
X2432558Y2153157D01*
X2361691Y2098547D02*
G01*
X2405125Y2098547D01*
X2361691Y2038604D02*
G01*
X2432558Y2038604D01*
X2468625Y2131313D02*
G01*
X2479547Y2136647D01*
X2495804Y2153157D01*
X2495804Y2038604D01*
X1821687Y2407157D02*
G01*
X1778000Y2292604D01*
X1821687Y2407157D02*
G01*
X1865121Y2292604D01*
X1794255Y2330704D02*
G01*
X1848865Y2330704D01*
X1901189Y2407157D02*
G01*
X1901189Y2292604D01*
X1901189Y2407157D02*
G01*
X1977643Y2292604D01*
X1977643Y2407157D02*
G01*
X1977643Y2292604D01*
X2111756Y2429002D02*
G01*
X2013711Y2254250D01*
X2147824Y2407157D02*
G01*
X2147824Y2292604D01*
X2147824Y2407157D02*
G01*
X2196845Y2407157D01*
X2213356Y2401570D01*
X2218690Y2396236D01*
X2224277Y2385313D01*
X2224277Y2374392D01*
X2218690Y2363470D01*
X2213356Y2357881D01*
X2196845Y2352547D01*
X2147824Y2352547D01*
X2185924Y2352547D02*
G01*
X2224277Y2292604D01*
X2303779Y2407157D02*
G01*
X2260091Y2292604D01*
X2303779Y2407157D02*
G01*
X2347468Y2292604D01*
X2276602Y2330704D02*
G01*
X2330958Y2330704D01*
X2388870Y2379726D02*
G01*
X2388870Y2385313D01*
X2394458Y2396236D01*
X2399791Y2401570D01*
X2410713Y2407157D01*
X2432558Y2407157D01*
X2443479Y2401570D01*
X2448813Y2396236D01*
X2454402Y2385313D01*
X2454402Y2374392D01*
X2448813Y2363470D01*
X2437891Y2347213D01*
X2383536Y2292604D01*
X2459736Y2292604D01*
X1778000Y1137157D02*
G01*
X1778000Y1022604D01*
X1778000Y1137157D02*
G01*
X1821687Y1022604D01*
X1865121Y1137157D02*
G01*
X1821687Y1022604D01*
X1865121Y1137157D02*
G01*
X1865121Y1022604D01*
X1933956Y1137157D02*
G01*
X1923034Y1131570D01*
X1912112Y1120647D01*
X1906778Y1109726D01*
X1901189Y1093470D01*
X1901189Y1066292D01*
X1906778Y1049781D01*
X1912112Y1038860D01*
X1923034Y1027937D01*
X1933956Y1022604D01*
X1955800Y1022604D01*
X1966722Y1027937D01*
X1977643Y1038860D01*
X1982977Y1049781D01*
X1988565Y1066292D01*
X1988565Y1093470D01*
X1982977Y1109726D01*
X1977643Y1120647D01*
X1966722Y1131570D01*
X1955800Y1137157D01*
X1933956Y1137157D01*
X2100834Y1120647D02*
G01*
X2089911Y1131570D01*
X2073656Y1137157D01*
X2051811Y1137157D01*
X2035302Y1131570D01*
X2024634Y1120647D01*
X2024634Y1109726D01*
X2029968Y1098804D01*
X2035302Y1093470D01*
X2046224Y1087881D01*
X2078990Y1077213D01*
X2089911Y1071626D01*
X2095500Y1066292D01*
X2100834Y1055370D01*
X2100834Y1038860D01*
X2089911Y1027937D01*
X2073656Y1022604D01*
X2051811Y1022604D01*
X2035302Y1027937D01*
X2024634Y1038860D01*
X2136902Y1137157D02*
G01*
X2136902Y1022604D01*
X2271013Y1159002D02*
G01*
X2172970Y984250D01*
X2307081Y1137157D02*
G01*
X2307081Y1022604D01*
X2307081Y1137157D02*
G01*
X2356104Y1137157D01*
X2372613Y1131570D01*
X2377947Y1126236D01*
X2383536Y1115313D01*
X2383536Y1104392D01*
X2377947Y1093470D01*
X2372613Y1087881D01*
X2356104Y1082547D01*
X2307081Y1082547D01*
X2345181Y1082547D02*
G01*
X2383536Y1022604D01*
X2501138Y1109726D02*
G01*
X2495804Y1120647D01*
X2484881Y1131570D01*
X2473959Y1137157D01*
X2452115Y1137157D01*
X2441193Y1131570D01*
X2430272Y1120647D01*
X2424938Y1109726D01*
X2419350Y1093470D01*
X2419350Y1066292D01*
X2424938Y1049781D01*
X2430272Y1038860D01*
X2441193Y1027937D01*
X2452115Y1022604D01*
X2473959Y1022604D01*
X2484881Y1027937D01*
X2495804Y1038860D01*
X2501138Y1049781D01*
X2602738Y1137157D02*
G01*
X2548127Y1137157D01*
X2542793Y1087881D01*
X2548127Y1093470D01*
X2564638Y1098804D01*
X2580893Y1098804D01*
X2597150Y1093470D01*
X2608072Y1082547D01*
X2613659Y1066292D01*
X2613659Y1055370D01*
X2608072Y1038860D01*
X2597150Y1027937D01*
X2580893Y1022604D01*
X2564638Y1022604D01*
X2548127Y1027937D01*
X2542793Y1033526D01*
X2537206Y1044447D01*
X1778000Y4807457D02*
G01*
X1778000Y4692904D01*
X1778000Y4807457D02*
G01*
X1827021Y4807457D01*
X1843531Y4801870D01*
X1848865Y4796536D01*
X1854454Y4785613D01*
X1854454Y4774692D01*
X1848865Y4763770D01*
X1843531Y4758181D01*
X1827021Y4752847D01*
X1778000Y4752847D01*
X1816100Y4752847D02*
G01*
X1854454Y4692904D01*
X1890268Y4807457D02*
G01*
X1966722Y4692904D01*
X1966722Y4807457D02*
G01*
X1890268Y4692904D01*
X2100834Y4829302D02*
G01*
X2002790Y4654550D01*
X2136902Y4807457D02*
G01*
X2136902Y4692904D01*
X2136902Y4807457D02*
G01*
X2185924Y4807457D01*
X2202434Y4801870D01*
X2207768Y4796536D01*
X2213356Y4785613D01*
X2213356Y4774692D01*
X2207768Y4763770D01*
X2202434Y4758181D01*
X2185924Y4752847D01*
X2136902Y4752847D01*
X2175002Y4752847D02*
G01*
X2213356Y4692904D01*
X2330958Y4780026D02*
G01*
X2325624Y4790947D01*
X2314702Y4801870D01*
X2303779Y4807457D01*
X2281936Y4807457D01*
X2271013Y4801870D01*
X2260091Y4790947D01*
X2254758Y4780026D01*
X2249170Y4763770D01*
X2249170Y4736592D01*
X2254758Y4720081D01*
X2260091Y4709160D01*
X2271013Y4698237D01*
X2281936Y4692904D01*
X2303779Y4692904D01*
X2314702Y4698237D01*
X2325624Y4709160D01*
X2330958Y4720081D01*
X2443479Y4807457D02*
G01*
X2388870Y4692904D01*
X2367025Y4807457D02*
G01*
X2443479Y4807457D01*
X1816100Y4553457D02*
G01*
X1816100Y4438904D01*
X1778000Y4553457D02*
G01*
X1854454Y4553457D01*
X1890268Y4553457D02*
G01*
X1966722Y4438904D01*
X1966722Y4553457D02*
G01*
X1890268Y4438904D01*
X2100834Y4575302D02*
G01*
X2002790Y4400550D01*
X2136902Y4553457D02*
G01*
X2136902Y4438904D01*
X2136902Y4553457D02*
G01*
X2185924Y4553457D01*
X2202434Y4547870D01*
X2207768Y4542536D01*
X2213356Y4531613D01*
X2213356Y4520692D01*
X2207768Y4509770D01*
X2202434Y4504181D01*
X2185924Y4498847D01*
X2136902Y4498847D01*
X2175002Y4498847D02*
G01*
X2213356Y4438904D01*
X2330958Y4526026D02*
G01*
X2325624Y4536947D01*
X2314702Y4547870D01*
X2303779Y4553457D01*
X2281936Y4553457D01*
X2271013Y4547870D01*
X2260091Y4536947D01*
X2254758Y4526026D01*
X2249170Y4509770D01*
X2249170Y4482592D01*
X2254758Y4466081D01*
X2260091Y4455160D01*
X2271013Y4444237D01*
X2281936Y4438904D01*
X2303779Y4438904D01*
X2314702Y4444237D01*
X2325624Y4455160D01*
X2330958Y4466081D01*
X2432558Y4536947D02*
G01*
X2426970Y4547870D01*
X2410713Y4553457D01*
X2399791Y4553457D01*
X2383536Y4547870D01*
X2372613Y4531613D01*
X2367025Y4504181D01*
X2367025Y4477004D01*
X2372613Y4455160D01*
X2383536Y4444237D01*
X2399791Y4438904D01*
X2405125Y4438904D01*
X2421636Y4444237D01*
X2432558Y4455160D01*
X2437891Y4471670D01*
X2437891Y4477004D01*
X2432558Y4493513D01*
X2421636Y4504181D01*
X2405125Y4509770D01*
X2399791Y4509770D01*
X2383536Y4504181D01*
X2372613Y4493513D01*
X2367025Y4477004D01*
X1854454Y4282947D02*
G01*
X1843531Y4293870D01*
X1827021Y4299457D01*
X1805178Y4299457D01*
X1788921Y4293870D01*
X1778000Y4282947D01*
X1778000Y4272026D01*
X1783334Y4261104D01*
X1788921Y4255770D01*
X1799844Y4250181D01*
X1832610Y4239513D01*
X1843531Y4233926D01*
X1848865Y4228592D01*
X1854454Y4217670D01*
X1854454Y4201160D01*
X1843531Y4190237D01*
X1827021Y4184904D01*
X1805178Y4184904D01*
X1788921Y4190237D01*
X1778000Y4201160D01*
X1972056Y4272026D02*
G01*
X1966722Y4282947D01*
X1955800Y4293870D01*
X1944877Y4299457D01*
X1923034Y4299457D01*
X1912112Y4293870D01*
X1901189Y4282947D01*
X1895855Y4272026D01*
X1890268Y4255770D01*
X1890268Y4228592D01*
X1895855Y4212081D01*
X1901189Y4201160D01*
X1912112Y4190237D01*
X1923034Y4184904D01*
X1944877Y4184904D01*
X1955800Y4190237D01*
X1966722Y4201160D01*
X1972056Y4212081D01*
X2008124Y4299457D02*
G01*
X2008124Y4184904D01*
X2008124Y4184904D02*
G01*
X2073656Y4184904D01*
X2207768Y4321302D02*
G01*
X2109724Y4146550D01*
X2243836Y4299457D02*
G01*
X2243836Y4184904D01*
X2243836Y4299457D02*
G01*
X2292858Y4299457D01*
X2309368Y4293870D01*
X2314702Y4288536D01*
X2320036Y4277613D01*
X2320036Y4266692D01*
X2314702Y4255770D01*
X2309368Y4250181D01*
X2292858Y4244847D01*
X2243836Y4244847D01*
X2281936Y4244847D02*
G01*
X2320036Y4184904D01*
X2437891Y4272026D02*
G01*
X2432558Y4282947D01*
X2421636Y4293870D01*
X2410713Y4299457D01*
X2388870Y4299457D01*
X2377947Y4293870D01*
X2367025Y4282947D01*
X2361691Y4272026D01*
X2356104Y4255770D01*
X2356104Y4228592D01*
X2361691Y4212081D01*
X2367025Y4201160D01*
X2377947Y4190237D01*
X2388870Y4184904D01*
X2410713Y4184904D01*
X2421636Y4190237D01*
X2432558Y4201160D01*
X2437891Y4212081D01*
X2484881Y4299457D02*
G01*
X2544825Y4299457D01*
X2512059Y4255770D01*
X2528570Y4255770D01*
X2539491Y4250181D01*
X2544825Y4244847D01*
X2550413Y4228592D01*
X2550413Y4217670D01*
X2544825Y4201160D01*
X2533904Y4190237D01*
X2517647Y4184904D01*
X2501138Y4184904D01*
X2484881Y4190237D01*
X2479547Y4195826D01*
X2473959Y4206747D01*
X1854454Y4028947D02*
G01*
X1843531Y4039870D01*
X1827021Y4045457D01*
X1805178Y4045457D01*
X1788921Y4039870D01*
X1778000Y4028947D01*
X1778000Y4018026D01*
X1783334Y4007104D01*
X1788921Y4001770D01*
X1799844Y3996181D01*
X1832610Y3985513D01*
X1843531Y3979926D01*
X1848865Y3974592D01*
X1854454Y3963670D01*
X1854454Y3947160D01*
X1843531Y3936237D01*
X1827021Y3930904D01*
X1805178Y3930904D01*
X1788921Y3936237D01*
X1778000Y3947160D01*
X1890268Y4045457D02*
G01*
X1890268Y3930904D01*
X1890268Y4045457D02*
G01*
X1928621Y4045457D01*
X1944877Y4039870D01*
X1955800Y4028947D01*
X1961134Y4018026D01*
X1966722Y4001770D01*
X1966722Y3974592D01*
X1961134Y3958081D01*
X1955800Y3947160D01*
X1944877Y3936237D01*
X1928621Y3930904D01*
X1890268Y3930904D01*
X2046224Y4045457D02*
G01*
X2002790Y3930904D01*
X2046224Y4045457D02*
G01*
X2089911Y3930904D01*
X2019045Y3969004D02*
G01*
X2073656Y3969004D01*
X2224277Y4067302D02*
G01*
X2125979Y3892550D01*
X2260091Y4045457D02*
G01*
X2260091Y3930904D01*
X2260091Y4045457D02*
G01*
X2309368Y4045457D01*
X2325624Y4039870D01*
X2330958Y4034536D01*
X2336545Y4023613D01*
X2336545Y4012692D01*
X2330958Y4001770D01*
X2325624Y3996181D01*
X2309368Y3990847D01*
X2260091Y3990847D01*
X2298445Y3990847D02*
G01*
X2336545Y3930904D01*
X2454402Y4018026D02*
G01*
X2448813Y4028947D01*
X2437891Y4039870D01*
X2426970Y4045457D01*
X2405125Y4045457D01*
X2394458Y4039870D01*
X2383536Y4028947D01*
X2377947Y4018026D01*
X2372613Y4001770D01*
X2372613Y3974592D01*
X2377947Y3958081D01*
X2383536Y3947160D01*
X2394458Y3936237D01*
X2405125Y3930904D01*
X2426970Y3930904D01*
X2437891Y3936237D01*
X2448813Y3947160D01*
X2454402Y3958081D01*
X2544825Y4045457D02*
G01*
X2490215Y3969004D01*
X2572258Y3969004D01*
X2544825Y4045457D02*
G01*
X2544825Y3930904D01*
X1827021Y3774947D02*
G01*
X1827021Y3676904D01*
X1778000Y3725926D02*
G01*
X1876044Y3725926D01*
X1977643Y3791457D02*
G01*
X1923034Y3791457D01*
X1917700Y3742181D01*
X1923034Y3747770D01*
X1939543Y3753104D01*
X1955800Y3753104D01*
X1972056Y3747770D01*
X1982977Y3736847D01*
X1988565Y3720592D01*
X1988565Y3709670D01*
X1982977Y3693160D01*
X1972056Y3682237D01*
X1955800Y3676904D01*
X1939543Y3676904D01*
X1923034Y3682237D01*
X1917700Y3687826D01*
X1912112Y3698747D01*
X2024634Y3791457D02*
G01*
X2068068Y3676904D01*
X2111756Y3791457D02*
G01*
X2068068Y3676904D01*
X1859787Y3510026D02*
G01*
X1854454Y3520947D01*
X1843531Y3531870D01*
X1832610Y3537457D01*
X1810765Y3537457D01*
X1799844Y3531870D01*
X1788921Y3520947D01*
X1783334Y3510026D01*
X1778000Y3493770D01*
X1778000Y3466592D01*
X1783334Y3450081D01*
X1788921Y3439160D01*
X1799844Y3428237D01*
X1810765Y3422904D01*
X1832610Y3422904D01*
X1843531Y3428237D01*
X1854454Y3439160D01*
X1859787Y3450081D01*
X1859787Y3466592D01*
X1832610Y3466592D02*
G01*
X1859787Y3466592D01*
X1895855Y3537457D02*
G01*
X1895855Y3422904D01*
X1895855Y3537457D02*
G01*
X1972056Y3422904D01*
X1972056Y3537457D02*
G01*
X1972056Y3422904D01*
X2008124Y3537457D02*
G01*
X2008124Y3422904D01*
X2008124Y3537457D02*
G01*
X2046224Y3537457D01*
X2062734Y3531870D01*
X2073656Y3520947D01*
X2078990Y3510026D01*
X2084577Y3493770D01*
X2084577Y3466592D01*
X2078990Y3450081D01*
X2073656Y3439160D01*
X2062734Y3428237D01*
X2046224Y3422904D01*
X2008124Y3422904D01*
X1721865Y2869437D02*
G01*
X1721865Y2796794D01*
X1717294Y2783078D01*
X1712721Y2778505D01*
X1703578Y2773934D01*
X1694687Y2773934D01*
X1685544Y2778505D01*
X1680971Y2783078D01*
X1676400Y2796794D01*
X1676400Y2805937D01*
X1760981Y2869437D02*
G01*
X1811020Y2869437D01*
X1783587Y2833115D01*
X1797304Y2833115D01*
X1806447Y2828544D01*
X1811020Y2823971D01*
X1815592Y2810510D01*
X1815592Y2801365D01*
X1811020Y2787650D01*
X1801876Y2778505D01*
X1788160Y2773934D01*
X1774697Y2773934D01*
X1760981Y2778505D01*
X1756410Y2783078D01*
X1751837Y2792221D01*
X1721865Y5765037D02*
G01*
X1721865Y5692394D01*
X1717294Y5678678D01*
X1712721Y5674105D01*
X1703578Y5669534D01*
X1694687Y5669534D01*
X1685544Y5674105D01*
X1680971Y5678678D01*
X1676400Y5692394D01*
X1676400Y5701537D01*
X1756410Y5742431D02*
G01*
X1756410Y5747004D01*
X1760981Y5755894D01*
X1765554Y5760465D01*
X1774697Y5765037D01*
X1792731Y5765037D01*
X1801876Y5760465D01*
X1806447Y5755894D01*
X1811020Y5747004D01*
X1811020Y5737860D01*
X1806447Y5728715D01*
X1797304Y5715000D01*
X1751837Y5669534D01*
X1815592Y5669534D01*
X1778000Y5061457D02*
G01*
X1778000Y4946904D01*
X1814068Y5061457D02*
G01*
X1814068Y4946904D01*
X1814068Y5061457D02*
G01*
X1890268Y4946904D01*
X1890268Y5061457D02*
G01*
X1890268Y4946904D01*
X1964436Y5061457D02*
G01*
X1964436Y4946904D01*
X1926336Y5061457D02*
G01*
X2002790Y5061457D01*
X2136902Y5083302D02*
G01*
X2038604Y4908550D01*
X2172970Y5061457D02*
G01*
X2172970Y4946904D01*
X2172970Y5061457D02*
G01*
X2221991Y5061457D01*
X2238247Y5055870D01*
X2243836Y5050536D01*
X2249170Y5039613D01*
X2249170Y5028692D01*
X2243836Y5017770D01*
X2238247Y5012181D01*
X2221991Y5006847D01*
X2172970Y5006847D01*
X2211070Y5006847D02*
G01*
X2249170Y4946904D01*
X2285238Y5061457D02*
G01*
X2285238Y4946904D01*
X2285238Y5061457D02*
G01*
X2334259Y5061457D01*
X2350770Y5055870D01*
X2356104Y5050536D01*
X2361691Y5039613D01*
X2361691Y5028692D01*
X2356104Y5017770D01*
X2350770Y5012181D01*
X2334259Y5006847D01*
X2285238Y5006847D02*
G01*
X2334259Y5006847D01*
X2350770Y5001513D01*
X2356104Y4995926D01*
X2361691Y4985004D01*
X2361691Y4968747D01*
X2356104Y4957826D01*
X2350770Y4952237D01*
X2334259Y4946904D01*
X2285238Y4946904D01*
X2430272Y5061457D02*
G01*
X2414015Y5055870D01*
X2403093Y5039613D01*
X2397506Y5012181D01*
X2397506Y4995926D01*
X2403093Y4968747D01*
X2414015Y4952237D01*
X2430272Y4946904D01*
X2441193Y4946904D01*
X2457704Y4952237D01*
X2468625Y4968747D01*
X2473959Y4995926D01*
X2473959Y5012181D01*
X2468625Y5039613D01*
X2457704Y5055870D01*
X2441193Y5061457D01*
X2430272Y5061457D01*
X1778000Y5315457D02*
G01*
X1778000Y5200904D01*
X1778000Y5315457D02*
G01*
X1827021Y5315457D01*
X1843531Y5309870D01*
X1848865Y5304536D01*
X1854454Y5293613D01*
X1854454Y5277104D01*
X1848865Y5266181D01*
X1843531Y5260847D01*
X1827021Y5255513D01*
X1778000Y5255513D01*
X1890268Y5315457D02*
G01*
X1917700Y5200904D01*
X1944877Y5315457D02*
G01*
X1917700Y5200904D01*
X1944877Y5315457D02*
G01*
X1972056Y5200904D01*
X1999488Y5315457D02*
G01*
X1972056Y5200904D01*
X2035302Y5315457D02*
G01*
X2035302Y5200904D01*
X2035302Y5315457D02*
G01*
X2078990Y5200904D01*
X2122677Y5315457D02*
G01*
X2078990Y5200904D01*
X2122677Y5315457D02*
G01*
X2122677Y5200904D01*
X2256790Y5337302D02*
G01*
X2158745Y5162550D01*
X2292858Y5315457D02*
G01*
X2292858Y5200904D01*
X2292858Y5315457D02*
G01*
X2341879Y5315457D01*
X2358390Y5309870D01*
X2363724Y5304536D01*
X2369311Y5293613D01*
X2369311Y5282692D01*
X2363724Y5271770D01*
X2358390Y5266181D01*
X2341879Y5260847D01*
X2292858Y5260847D01*
X2330958Y5260847D02*
G01*
X2369311Y5200904D01*
X2487168Y5288026D02*
G01*
X2481579Y5298947D01*
X2470658Y5309870D01*
X2459736Y5315457D01*
X2437891Y5315457D01*
X2426970Y5309870D01*
X2416047Y5298947D01*
X2410713Y5288026D01*
X2405125Y5271770D01*
X2405125Y5244592D01*
X2410713Y5228081D01*
X2416047Y5217160D01*
X2426970Y5206237D01*
X2437891Y5200904D01*
X2459736Y5200904D01*
X2470658Y5206237D01*
X2481579Y5217160D01*
X2487168Y5228081D01*
X2555747Y5315457D02*
G01*
X2539491Y5309870D01*
X2528570Y5293613D01*
X2522981Y5266181D01*
X2522981Y5249926D01*
X2528570Y5222747D01*
X2539491Y5206237D01*
X2555747Y5200904D01*
X2566670Y5200904D01*
X2583179Y5206237D01*
X2593847Y5222747D01*
X2599436Y5249926D01*
X2599436Y5266181D01*
X2593847Y5293613D01*
X2583179Y5309870D01*
X2566670Y5315457D01*
X2555747Y5315457D01*
X1827021Y866647D02*
G01*
X1827021Y768604D01*
X1778000Y817626D02*
G01*
X1876297Y817626D01*
X1923034Y883157D02*
G01*
X1982977Y883157D01*
X1950465Y839470D01*
X1966722Y839470D01*
X1977643Y833881D01*
X1982977Y828547D01*
X1988565Y812292D01*
X1988565Y801370D01*
X1982977Y784860D01*
X1972056Y773937D01*
X1955800Y768604D01*
X1939543Y768604D01*
X1923034Y773937D01*
X1917700Y779526D01*
X1912112Y790447D01*
X2029968Y795781D02*
G01*
X2024634Y790447D01*
X2029968Y784860D01*
X2035556Y790447D01*
X2029968Y795781D01*
X2082291Y883157D02*
G01*
X2142236Y883157D01*
X2109724Y839470D01*
X2125979Y839470D01*
X2136902Y833881D01*
X2142236Y828547D01*
X2147824Y812292D01*
X2147824Y801370D01*
X2142236Y784860D01*
X2131568Y773937D01*
X2115058Y768604D01*
X2098802Y768604D01*
X2082291Y773937D01*
X2076958Y779526D01*
X2071370Y790447D01*
X2183891Y883157D02*
G01*
X2227579Y768604D01*
X2271013Y883157D02*
G01*
X2227579Y768604D01*
X1859762Y601726D02*
G01*
X1854428Y612647D01*
X1843506Y623570D01*
X1832584Y629157D01*
X1810740Y629157D01*
X1799818Y623570D01*
X1788896Y612647D01*
X1783562Y601726D01*
X1777974Y585470D01*
X1777974Y558292D01*
X1783562Y541781D01*
X1788896Y530860D01*
X1799818Y519937D01*
X1810740Y514604D01*
X1832584Y514604D01*
X1843506Y519937D01*
X1854428Y530860D01*
X1859762Y541781D01*
X1859762Y558292D01*
X1832584Y558292D02*
G01*
X1859762Y558292D01*
X1895830Y629157D02*
G01*
X1895830Y514604D01*
X1895830Y629157D02*
G01*
X1972284Y514604D01*
X1972284Y629157D02*
G01*
X1972284Y514604D01*
X2008098Y629157D02*
G01*
X2008098Y514604D01*
X2008098Y629157D02*
G01*
X2046452Y629157D01*
X2062708Y623570D01*
X2073630Y612647D01*
X2078964Y601726D01*
X2084552Y585470D01*
X2084552Y558292D01*
X2078964Y541781D01*
X2073630Y530860D01*
X2062708Y519937D01*
X2046452Y514604D01*
X2008098Y514604D01*
X3225800Y4611115D02*
G01*
X3225800Y4502150D01*
X3225800Y4611115D02*
G01*
X3267456Y4502150D01*
X3308858Y4611115D02*
G01*
X3267456Y4502150D01*
X3308858Y4611115D02*
G01*
X3308858Y4502150D01*
X3343147Y4611115D02*
G01*
X3343147Y4502150D01*
X3377438Y4611115D02*
G01*
X3377438Y4502150D01*
X3450336Y4611115D02*
G01*
X3377438Y4538471D01*
X3403600Y4564379D02*
G01*
X3450336Y4502150D01*
X3484625Y4611115D02*
G01*
X3484625Y4502150D01*
X3484625Y4611115D02*
G01*
X3531361Y4611115D01*
X3546856Y4606036D01*
X3552190Y4600702D01*
X3557270Y4590287D01*
X3557270Y4579873D01*
X3552190Y4569460D01*
X3546856Y4564379D01*
X3531361Y4559300D01*
X3484625Y4559300D01*
X3520947Y4559300D02*
G01*
X3557270Y4502150D01*
X3622802Y4611115D02*
G01*
X3612388Y4606036D01*
X3601974Y4595621D01*
X3596640Y4585207D01*
X3591559Y4569460D01*
X3591559Y4543552D01*
X3596640Y4528057D01*
X3601974Y4517644D01*
X3612388Y4507229D01*
X3622802Y4502150D01*
X3643629Y4502150D01*
X3653790Y4507229D01*
X3664204Y4517644D01*
X3669538Y4528057D01*
X3674618Y4543552D01*
X3674618Y4569460D01*
X3669538Y4585207D01*
X3664204Y4595621D01*
X3653790Y4606036D01*
X3643629Y4611115D01*
X3622802Y4611115D01*
X3708908Y4611115D02*
G01*
X3708908Y4502150D01*
X3708908Y4611115D02*
G01*
X3755643Y4611115D01*
X3771391Y4606036D01*
X3776472Y4600702D01*
X3781806Y4590287D01*
X3781806Y4579873D01*
X3776472Y4569460D01*
X3771391Y4564379D01*
X3755643Y4559300D01*
X3708908Y4559300D02*
G01*
X3755643Y4559300D01*
X3771391Y4553965D01*
X3776472Y4548886D01*
X3781806Y4538471D01*
X3781806Y4522723D01*
X3776472Y4512310D01*
X3771391Y4507229D01*
X3755643Y4502150D01*
X3708908Y4502150D01*
X3816095Y4611115D02*
G01*
X3816095Y4533137D01*
X3821175Y4517644D01*
X3831590Y4507229D01*
X3847084Y4502150D01*
X3857497Y4502150D01*
X3873245Y4507229D01*
X3883659Y4517644D01*
X3888740Y4533137D01*
X3888740Y4611115D01*
X3995674Y4595621D02*
G01*
X3985259Y4606036D01*
X3969765Y4611115D01*
X3948938Y4611115D01*
X3933443Y4606036D01*
X3923029Y4595621D01*
X3923029Y4585207D01*
X3928109Y4574794D01*
X3933443Y4569460D01*
X3943858Y4564379D01*
X3975100Y4553965D01*
X3985259Y4548886D01*
X3990593Y4543552D01*
X3995674Y4533137D01*
X3995674Y4517644D01*
X3985259Y4507229D01*
X3969765Y4502150D01*
X3948938Y4502150D01*
X3933443Y4507229D01*
X3923029Y4517644D01*
X4187952Y4585207D02*
G01*
X4182872Y4595621D01*
X4172458Y4606036D01*
X4162043Y4611115D01*
X4141215Y4611115D01*
X4130802Y4606036D01*
X4120388Y4595621D01*
X4115308Y4585207D01*
X4109974Y4569460D01*
X4109974Y4543552D01*
X4115308Y4528057D01*
X4120388Y4517644D01*
X4130802Y4507229D01*
X4141215Y4502150D01*
X4162043Y4502150D01*
X4172458Y4507229D01*
X4182872Y4517644D01*
X4187952Y4528057D01*
X4263897Y4611115D02*
G01*
X4222241Y4502150D01*
X4263897Y4611115D02*
G01*
X4305300Y4502150D01*
X4237990Y4538471D02*
G01*
X4289806Y4538471D01*
X4339590Y4611115D02*
G01*
X4339590Y4502150D01*
X4339590Y4611115D02*
G01*
X4386579Y4611115D01*
X4402074Y4606036D01*
X4407154Y4600702D01*
X4412488Y4590287D01*
X4412488Y4579873D01*
X4407154Y4569460D01*
X4402074Y4564379D01*
X4386579Y4559300D01*
X4339590Y4559300D01*
X4376165Y4559300D02*
G01*
X4412488Y4502150D01*
X4446777Y4611115D02*
G01*
X4446777Y4502150D01*
X4446777Y4611115D02*
G01*
X4493513Y4611115D01*
X4509008Y4606036D01*
X4514341Y4600702D01*
X4519422Y4590287D01*
X4519422Y4579873D01*
X4514341Y4569460D01*
X4509008Y4564379D01*
X4493513Y4559300D01*
X4446777Y4559300D01*
X4483100Y4559300D02*
G01*
X4519422Y4502150D01*
X4553711Y4611115D02*
G01*
X4553711Y4502150D01*
X4588002Y4611115D02*
G01*
X4588002Y4502150D01*
X4588002Y4611115D02*
G01*
X4655565Y4611115D01*
X4588002Y4559300D02*
G01*
X4629658Y4559300D01*
X4588002Y4502150D02*
G01*
X4655565Y4502150D01*
X4689856Y4611115D02*
G01*
X4689856Y4502150D01*
X4689856Y4611115D02*
G01*
X4736591Y4611115D01*
X4752340Y4606036D01*
X4757420Y4600702D01*
X4762500Y4590287D01*
X4762500Y4579873D01*
X4757420Y4569460D01*
X4752340Y4564379D01*
X4736591Y4559300D01*
X4689856Y4559300D01*
X4726177Y4559300D02*
G01*
X4762500Y4502150D01*
X4876800Y4611115D02*
G01*
X4918456Y4502150D01*
X4960111Y4611115D02*
G01*
X4918456Y4502150D01*
X5025390Y4611115D02*
G01*
X5009895Y4606036D01*
X4999481Y4590287D01*
X4994402Y4564379D01*
X4994402Y4548886D01*
X4999481Y4522723D01*
X5009895Y4507229D01*
X5025390Y4502150D01*
X5035804Y4502150D01*
X5051552Y4507229D01*
X5061965Y4522723D01*
X5067045Y4548886D01*
X5067045Y4564379D01*
X5061965Y4590287D01*
X5051552Y4606036D01*
X5035804Y4611115D01*
X5025390Y4611115D01*
X5106670Y4528057D02*
G01*
X5101336Y4522723D01*
X5106670Y4517644D01*
X5111750Y4522723D01*
X5106670Y4528057D01*
X5146040Y4590287D02*
G01*
X5156454Y4595621D01*
X5171947Y4611115D01*
X5171947Y4502150D01*
X3695700Y4788915D02*
G01*
X3695700Y4679950D01*
X3695700Y4788915D02*
G01*
X3742436Y4788915D01*
X3757929Y4783836D01*
X3763263Y4778502D01*
X3768343Y4768087D01*
X3768343Y4752594D01*
X3763263Y4742179D01*
X3757929Y4737100D01*
X3742436Y4731765D01*
X3695700Y4731765D01*
X3802634Y4788915D02*
G01*
X3802634Y4679950D01*
X3802634Y4788915D02*
G01*
X3849370Y4788915D01*
X3865118Y4783836D01*
X3870197Y4778502D01*
X3875531Y4768087D01*
X3875531Y4757673D01*
X3870197Y4747260D01*
X3865118Y4742179D01*
X3849370Y4737100D01*
X3802634Y4737100D01*
X3839209Y4737100D02*
G01*
X3875531Y4679950D01*
X3940809Y4788915D02*
G01*
X3930650Y4783836D01*
X3920236Y4773421D01*
X3914902Y4763007D01*
X3909822Y4747260D01*
X3909822Y4721352D01*
X3914902Y4705857D01*
X3920236Y4695444D01*
X3930650Y4685029D01*
X3940809Y4679950D01*
X3961638Y4679950D01*
X3972052Y4685029D01*
X3982465Y4695444D01*
X3987800Y4705857D01*
X3992879Y4721352D01*
X3992879Y4747260D01*
X3987800Y4763007D01*
X3982465Y4773421D01*
X3972052Y4783836D01*
X3961638Y4788915D01*
X3940809Y4788915D01*
X4063491Y4788915D02*
G01*
X4063491Y4679950D01*
X4027170Y4788915D02*
G01*
X4099813Y4788915D01*
X4165345Y4788915D02*
G01*
X4154931Y4783836D01*
X4144518Y4773421D01*
X4139438Y4763007D01*
X4134104Y4747260D01*
X4134104Y4721352D01*
X4139438Y4705857D01*
X4144518Y4695444D01*
X4154931Y4685029D01*
X4165345Y4679950D01*
X4186174Y4679950D01*
X4196588Y4685029D01*
X4207002Y4695444D01*
X4212081Y4705857D01*
X4217415Y4721352D01*
X4217415Y4747260D01*
X4212081Y4763007D01*
X4207002Y4773421D01*
X4196588Y4783836D01*
X4186174Y4788915D01*
X4165345Y4788915D01*
X4251706Y4788915D02*
G01*
X4251706Y4679950D01*
X4251706Y4788915D02*
G01*
X4324350Y4679950D01*
X4324350Y4788915D02*
G01*
X4324350Y4679950D01*
X4358640Y4788915D02*
G01*
X4358640Y4679950D01*
X4358640Y4788915D02*
G01*
X4426204Y4788915D01*
X4358640Y4737100D02*
G01*
X4400295Y4737100D01*
X4358640Y4679950D02*
G01*
X4426204Y4679950D01*
X4460493Y4788915D02*
G01*
X4460493Y4679950D01*
X4460493Y4788915D02*
G01*
X4502150Y4679950D01*
X4543552Y4788915D02*
G01*
X4502150Y4679950D01*
X4543552Y4788915D02*
G01*
X4543552Y4679950D01*
X4619497Y4788915D02*
G01*
X4577841Y4679950D01*
X4619497Y4788915D02*
G01*
X4660900Y4679950D01*
X4593590Y4716271D02*
G01*
X4645406Y4716271D01*
X3162300Y4433315D02*
G01*
X3162300Y4324350D01*
X3162300Y4433315D02*
G01*
X3209036Y4433315D01*
X3224529Y4428236D01*
X3229863Y4422902D01*
X3234943Y4412487D01*
X3234943Y4396994D01*
X3229863Y4386579D01*
X3224529Y4381500D01*
X3209036Y4376165D01*
X3162300Y4376165D01*
X3310890Y4433315D02*
G01*
X3269234Y4324350D01*
X3310890Y4433315D02*
G01*
X3352545Y4324350D01*
X3284981Y4360671D02*
G01*
X3336797Y4360671D01*
X3386836Y4433315D02*
G01*
X3386836Y4324350D01*
X3386836Y4433315D02*
G01*
X3433572Y4433315D01*
X3449065Y4428236D01*
X3454400Y4422902D01*
X3459479Y4412487D01*
X3459479Y4402073D01*
X3454400Y4391660D01*
X3449065Y4386579D01*
X3433572Y4381500D01*
X3386836Y4381500D01*
X3423158Y4381500D02*
G01*
X3459479Y4324350D01*
X3530091Y4433315D02*
G01*
X3530091Y4324350D01*
X3493770Y4433315D02*
G01*
X3566413Y4433315D01*
X3680713Y4433315D02*
G01*
X3680713Y4324350D01*
X3680713Y4433315D02*
G01*
X3753611Y4324350D01*
X3753611Y4433315D02*
G01*
X3753611Y4324350D01*
X3787902Y4433315D02*
G01*
X3787902Y4355337D01*
X3792981Y4339844D01*
X3803395Y4329429D01*
X3818890Y4324350D01*
X3829304Y4324350D01*
X3845052Y4329429D01*
X3855465Y4339844D01*
X3860545Y4355337D01*
X3860545Y4433315D01*
X3894836Y4433315D02*
G01*
X3894836Y4324350D01*
X3894836Y4433315D02*
G01*
X3936491Y4324350D01*
X3977893Y4433315D02*
G01*
X3936491Y4324350D01*
X3977893Y4433315D02*
G01*
X3977893Y4324350D01*
X4012184Y4433315D02*
G01*
X4012184Y4324350D01*
X4012184Y4433315D02*
G01*
X4058920Y4433315D01*
X4074668Y4428236D01*
X4079747Y4422902D01*
X4085081Y4412487D01*
X4085081Y4402073D01*
X4079747Y4391660D01*
X4074668Y4386579D01*
X4058920Y4381500D01*
X4012184Y4381500D02*
G01*
X4058920Y4381500D01*
X4074668Y4376165D01*
X4079747Y4371086D01*
X4085081Y4360671D01*
X4085081Y4344923D01*
X4079747Y4334510D01*
X4074668Y4329429D01*
X4058920Y4324350D01*
X4012184Y4324350D01*
X4119372Y4433315D02*
G01*
X4119372Y4324350D01*
X4119372Y4433315D02*
G01*
X4186936Y4433315D01*
X4119372Y4381500D02*
G01*
X4160774Y4381500D01*
X4119372Y4324350D02*
G01*
X4186936Y4324350D01*
X4221225Y4433315D02*
G01*
X4221225Y4324350D01*
X4221225Y4433315D02*
G01*
X4267961Y4433315D01*
X4283456Y4428236D01*
X4288790Y4422902D01*
X4293870Y4412487D01*
X4293870Y4402073D01*
X4288790Y4391660D01*
X4283456Y4386579D01*
X4267961Y4381500D01*
X4221225Y4381500D01*
X4257547Y4381500D02*
G01*
X4293870Y4324350D01*
X4408170Y4412487D02*
G01*
X4418584Y4417821D01*
X4434077Y4433315D01*
X4434077Y4324350D01*
X4499609Y4433315D02*
G01*
X4484115Y4428236D01*
X4473702Y4412487D01*
X4468368Y4386579D01*
X4468368Y4371086D01*
X4473702Y4344923D01*
X4484115Y4329429D01*
X4499609Y4324350D01*
X4510024Y4324350D01*
X4525518Y4329429D01*
X4535931Y4344923D01*
X4541265Y4371086D01*
X4541265Y4386579D01*
X4535931Y4412487D01*
X4525518Y4428236D01*
X4510024Y4433315D01*
X4499609Y4433315D01*
X4627372Y4433315D02*
G01*
X4575556Y4360671D01*
X4653279Y4360671D01*
X4627372Y4433315D02*
G01*
X4627372Y4324350D01*
X4692904Y4407407D02*
G01*
X4692904Y4412487D01*
X4697984Y4422902D01*
X4703318Y4428236D01*
X4713731Y4433315D01*
X4734559Y4433315D01*
X4744720Y4428236D01*
X4750054Y4422902D01*
X4755134Y4412487D01*
X4755134Y4402073D01*
X4750054Y4391660D01*
X4739640Y4376165D01*
X4687570Y4324350D01*
X4760468Y4324350D01*
X4794758Y4371086D02*
G01*
X4888229Y4371086D01*
X4953761Y4433315D02*
G01*
X4938013Y4428236D01*
X4927600Y4412487D01*
X4922520Y4386579D01*
X4922520Y4371086D01*
X4927600Y4344923D01*
X4938013Y4329429D01*
X4953761Y4324350D01*
X4964175Y4324350D01*
X4979670Y4329429D01*
X4990084Y4344923D01*
X4995163Y4371086D01*
X4995163Y4386579D01*
X4990084Y4412487D01*
X4979670Y4428236D01*
X4964175Y4433315D01*
X4953761Y4433315D01*
X5029454Y4412487D02*
G01*
X5039868Y4417821D01*
X5055615Y4433315D01*
X5055615Y4324350D01*
X5120893Y4433315D02*
G01*
X5105400Y4428236D01*
X5094986Y4412487D01*
X5089906Y4386579D01*
X5089906Y4371086D01*
X5094986Y4344923D01*
X5105400Y4329429D01*
X5120893Y4324350D01*
X5131308Y4324350D01*
X5147056Y4329429D01*
X5157470Y4344923D01*
X5162550Y4371086D01*
X5162550Y4386579D01*
X5157470Y4412487D01*
X5147056Y4428236D01*
X5131308Y4433315D01*
X5120893Y4433315D01*
X5196840Y4412487D02*
G01*
X5207254Y4417821D01*
X5222747Y4433315D01*
X5222747Y4324350D01*
X4111243Y5790437D02*
G01*
X4161281Y5790437D01*
X4133850Y5754115D01*
X4147565Y5754115D01*
X4156709Y5749544D01*
X4161281Y5744971D01*
X4165854Y5731510D01*
X4165854Y5722365D01*
X4161281Y5708650D01*
X4152138Y5699505D01*
X4138422Y5694934D01*
X4124706Y5694934D01*
X4111243Y5699505D01*
X4106672Y5704078D01*
X4102100Y5713221D01*
X4195825Y5790437D02*
G01*
X4232147Y5694934D01*
X4268470Y5790437D02*
G01*
X4232147Y5694934D01*
X4307586Y5790437D02*
G01*
X4357624Y5790437D01*
X4330191Y5754115D01*
X4343908Y5754115D01*
X4353052Y5749544D01*
X4357624Y5744971D01*
X4362195Y5731510D01*
X4362195Y5722365D01*
X4357624Y5708650D01*
X4348479Y5699505D01*
X4334763Y5694934D01*
X4321302Y5694934D01*
X4307586Y5699505D01*
X4303013Y5704078D01*
X4298441Y5713221D01*
X3623309Y5790437D02*
G01*
X3577843Y5790437D01*
X3573272Y5749544D01*
X3577843Y5754115D01*
X3591306Y5758687D01*
X3605022Y5758687D01*
X3618738Y5754115D01*
X3627881Y5744971D01*
X3632454Y5731510D01*
X3632454Y5722365D01*
X3627881Y5708650D01*
X3618738Y5699505D01*
X3605022Y5694934D01*
X3591306Y5694934D01*
X3577843Y5699505D01*
X3573272Y5704078D01*
X3568700Y5713221D01*
X3662425Y5790437D02*
G01*
X3698747Y5694934D01*
X3735070Y5790437D02*
G01*
X3698747Y5694934D01*
X5036565Y5714237D02*
G01*
X5036565Y5641594D01*
X5031993Y5627878D01*
X5027422Y5623305D01*
X5018277Y5618734D01*
X5009388Y5618734D01*
X5000243Y5623305D01*
X4995672Y5627878D01*
X4991100Y5641594D01*
X4991100Y5650737D01*
X5066538Y5696204D02*
G01*
X5075681Y5700776D01*
X5089397Y5714237D01*
X5089397Y5618734D01*
X3289300Y5625337D02*
G01*
X3289300Y5529834D01*
X3289300Y5625337D02*
G01*
X3321050Y5625337D01*
X3334765Y5620765D01*
X3343909Y5611876D01*
X3348481Y5602731D01*
X3353054Y5589015D01*
X3353054Y5566410D01*
X3348481Y5552694D01*
X3343909Y5543550D01*
X3334765Y5534405D01*
X3321050Y5529834D01*
X3289300Y5529834D01*
X3383025Y5607304D02*
G01*
X3391915Y5611876D01*
X3405631Y5625337D01*
X3405631Y5529834D01*
X3289300Y5434837D02*
G01*
X3289300Y5339334D01*
X3289300Y5434837D02*
G01*
X3330193Y5434837D01*
X3343909Y5430265D01*
X3348481Y5425694D01*
X3353054Y5416804D01*
X3353054Y5407660D01*
X3348481Y5398515D01*
X3343909Y5393944D01*
X3330193Y5389371D01*
X3289300Y5389371D01*
X3321050Y5389371D02*
G01*
X3353054Y5339334D01*
X3383025Y5416804D02*
G01*
X3391915Y5421376D01*
X3405631Y5434837D01*
X3405631Y5339334D01*
X2712211Y3668521D02*
G01*
X2670556Y3559555D01*
X2712211Y3668521D02*
G01*
X2753613Y3559555D01*
X2686304Y3595878D02*
G01*
X2738120Y3595878D01*
X2787904Y3647694D02*
G01*
X2798318Y3653028D01*
X2814065Y3668521D01*
X2814065Y3559555D01*
X3314700Y2832862D02*
G01*
X3314700Y2759963D01*
X3314700Y2832862D02*
G01*
X3345941Y2832862D01*
X3356356Y2829305D01*
X3359658Y2825750D01*
X3363213Y2818892D01*
X3363213Y2812034D01*
X3359658Y2805176D01*
X3356356Y2801620D01*
X3345941Y2798063D01*
X3314700Y2798063D01*
X3338829Y2798063D02*
G01*
X3363213Y2759963D01*
X3434588Y2822447D02*
G01*
X3427729Y2829305D01*
X3417315Y2832862D01*
X3403345Y2832862D01*
X3392931Y2829305D01*
X3386074Y2822447D01*
X3386074Y2815589D01*
X3389629Y2808478D01*
X3392931Y2805176D01*
X3399790Y2801620D01*
X3420618Y2794762D01*
X3427729Y2791205D01*
X3431031Y2787650D01*
X3434588Y2780792D01*
X3434588Y2770378D01*
X3427729Y2763520D01*
X3417315Y2759963D01*
X3403345Y2759963D01*
X3392931Y2763520D01*
X3386074Y2770378D01*
X3481577Y2832862D02*
G01*
X3481577Y2759963D01*
X3457447Y2832862D02*
G01*
X3505961Y2832862D01*
X3591052Y2846578D02*
G01*
X3528822Y2735834D01*
X3613911Y2832862D02*
G01*
X3613911Y2759963D01*
X3613911Y2832862D02*
G01*
X3645154Y2832862D01*
X3655568Y2829305D01*
X3658870Y2825750D01*
X3662425Y2818892D01*
X3662425Y2812034D01*
X3658870Y2805176D01*
X3655568Y2801620D01*
X3645154Y2798063D01*
X3613911Y2798063D01*
X3638295Y2798063D02*
G01*
X3662425Y2759963D01*
X3685286Y2832862D02*
G01*
X3685286Y2759963D01*
X3685286Y2832862D02*
G01*
X3730243Y2832862D01*
X3685286Y2798063D02*
G01*
X3712972Y2798063D01*
X3685286Y2759963D02*
G01*
X3730243Y2759963D01*
X3753104Y2818892D02*
G01*
X3760215Y2822447D01*
X3770629Y2832862D01*
X3770629Y2759963D01*
X3354070Y2561589D02*
G01*
X3350513Y2568447D01*
X3343656Y2575305D01*
X3336543Y2578862D01*
X3322827Y2578862D01*
X3315970Y2575305D01*
X3308858Y2568447D01*
X3305556Y2561589D01*
X3302000Y2551176D01*
X3302000Y2533650D01*
X3305556Y2523489D01*
X3308858Y2516378D01*
X3315970Y2509520D01*
X3322827Y2505963D01*
X3336543Y2505963D01*
X3343656Y2509520D01*
X3350513Y2516378D01*
X3354070Y2523489D01*
X3425190Y2568447D02*
G01*
X3418331Y2575305D01*
X3407918Y2578862D01*
X3394202Y2578862D01*
X3383788Y2575305D01*
X3376929Y2568447D01*
X3376929Y2561589D01*
X3380231Y2554478D01*
X3383788Y2551176D01*
X3390645Y2547620D01*
X3411474Y2540762D01*
X3418331Y2537205D01*
X3421888Y2533650D01*
X3425190Y2526792D01*
X3425190Y2516378D01*
X3418331Y2509520D01*
X3407918Y2505963D01*
X3394202Y2505963D01*
X3383788Y2509520D01*
X3376929Y2516378D01*
X3510534Y2592578D02*
G01*
X3448050Y2481834D01*
X3533393Y2578862D02*
G01*
X3533393Y2505963D01*
X3533393Y2578862D02*
G01*
X3564636Y2578862D01*
X3575050Y2575305D01*
X3578352Y2571750D01*
X3581908Y2564892D01*
X3581908Y2558034D01*
X3578352Y2551176D01*
X3575050Y2547620D01*
X3564636Y2544063D01*
X3533393Y2544063D01*
X3557524Y2544063D02*
G01*
X3581908Y2505963D01*
X3604768Y2578862D02*
G01*
X3604768Y2505963D01*
X3604768Y2578862D02*
G01*
X3649725Y2578862D01*
X3604768Y2544063D02*
G01*
X3632454Y2544063D01*
X3604768Y2505963D02*
G01*
X3649725Y2505963D01*
X3693413Y2578862D02*
G01*
X3683000Y2575305D01*
X3676141Y2564892D01*
X3672586Y2547620D01*
X3672586Y2537205D01*
X3676141Y2519934D01*
X3683000Y2509520D01*
X3693413Y2505963D01*
X3700272Y2505963D01*
X3710686Y2509520D01*
X3717543Y2519934D01*
X3721100Y2537205D01*
X3721100Y2547620D01*
X3717543Y2564892D01*
X3710686Y2575305D01*
X3700272Y2578862D01*
X3693413Y2578862D01*
X3342386Y3086862D02*
G01*
X3314700Y3013963D01*
X3342386Y3086862D02*
G01*
X3370072Y3013963D01*
X3325113Y3038347D02*
G01*
X3359658Y3038347D01*
X3392931Y3086862D02*
G01*
X3392931Y3013963D01*
X3392931Y3086862D02*
G01*
X3441445Y3013963D01*
X3441445Y3086862D02*
G01*
X3441445Y3013963D01*
X3526790Y3100578D02*
G01*
X3464306Y2989834D01*
X3549650Y3086862D02*
G01*
X3549650Y3013963D01*
X3549650Y3086862D02*
G01*
X3580638Y3086862D01*
X3591052Y3083305D01*
X3594608Y3079750D01*
X3597909Y3072892D01*
X3597909Y3066034D01*
X3594608Y3059176D01*
X3591052Y3055620D01*
X3580638Y3052063D01*
X3549650Y3052063D01*
X3573779Y3052063D02*
G01*
X3597909Y3013963D01*
X3648709Y3086862D02*
G01*
X3620770Y3013963D01*
X3648709Y3086862D02*
G01*
X3676395Y3013963D01*
X3631184Y3038347D02*
G01*
X3665981Y3038347D01*
X3702558Y3069589D02*
G01*
X3702558Y3072892D01*
X3706113Y3079750D01*
X3709670Y3083305D01*
X3716527Y3086862D01*
X3730243Y3086862D01*
X3737356Y3083305D01*
X3740658Y3079750D01*
X3744213Y3072892D01*
X3744213Y3066034D01*
X3740658Y3059176D01*
X3733800Y3048762D01*
X3699256Y3013963D01*
X3747770Y3013963D01*
X3350513Y2314447D02*
G01*
X3343656Y2321305D01*
X3333241Y2324862D01*
X3319272Y2324862D01*
X3308858Y2321305D01*
X3302000Y2314447D01*
X3302000Y2307589D01*
X3305556Y2300478D01*
X3308858Y2297176D01*
X3315970Y2293620D01*
X3336543Y2286762D01*
X3343656Y2283205D01*
X3346958Y2279650D01*
X3350513Y2272792D01*
X3350513Y2262378D01*
X3343656Y2255520D01*
X3333241Y2251963D01*
X3319272Y2251963D01*
X3308858Y2255520D01*
X3302000Y2262378D01*
X3425190Y2307589D02*
G01*
X3421888Y2314447D01*
X3415029Y2321305D01*
X3407918Y2324862D01*
X3394202Y2324862D01*
X3387090Y2321305D01*
X3380231Y2314447D01*
X3376929Y2307589D01*
X3373374Y2297176D01*
X3373374Y2279650D01*
X3376929Y2269489D01*
X3380231Y2262378D01*
X3387090Y2255520D01*
X3394202Y2251963D01*
X3407918Y2251963D01*
X3415029Y2255520D01*
X3421888Y2262378D01*
X3425190Y2269489D01*
X3448050Y2324862D02*
G01*
X3448050Y2251963D01*
X3496563Y2324862D02*
G01*
X3448050Y2276347D01*
X3465575Y2293620D02*
G01*
X3496563Y2251963D01*
X3581908Y2338578D02*
G01*
X3519424Y2227834D01*
X3604768Y2324862D02*
G01*
X3604768Y2251963D01*
X3604768Y2324862D02*
G01*
X3636009Y2324862D01*
X3646170Y2321305D01*
X3649725Y2317750D01*
X3653281Y2310892D01*
X3653281Y2304034D01*
X3649725Y2297176D01*
X3646170Y2293620D01*
X3636009Y2290063D01*
X3604768Y2290063D01*
X3628897Y2290063D02*
G01*
X3653281Y2251963D01*
X3727958Y2307589D02*
G01*
X3724656Y2314447D01*
X3717543Y2321305D01*
X3710686Y2324862D01*
X3696970Y2324862D01*
X3689858Y2321305D01*
X3683000Y2314447D01*
X3679443Y2307589D01*
X3676141Y2297176D01*
X3676141Y2279650D01*
X3679443Y2269489D01*
X3683000Y2262378D01*
X3689858Y2255520D01*
X3696970Y2251963D01*
X3710686Y2251963D01*
X3717543Y2255520D01*
X3724656Y2262378D01*
X3727958Y2269489D01*
X3757929Y2324862D02*
G01*
X3796029Y2324862D01*
X3775202Y2297176D01*
X3785615Y2297176D01*
X3792474Y2293620D01*
X3796029Y2290063D01*
X3799331Y2279650D01*
X3799331Y2272792D01*
X3796029Y2262378D01*
X3788918Y2255520D01*
X3778504Y2251963D01*
X3768090Y2251963D01*
X3757929Y2255520D01*
X3754374Y2259076D01*
X3750818Y2265934D01*
X3314700Y2070862D02*
G01*
X3314700Y1997963D01*
X3314700Y2070862D02*
G01*
X3342386Y1997963D01*
X3370072Y2070862D02*
G01*
X3342386Y1997963D01*
X3370072Y2070862D02*
G01*
X3370072Y1997963D01*
X3392931Y2070862D02*
G01*
X3392931Y1997963D01*
X3464306Y2060447D02*
G01*
X3457447Y2067305D01*
X3447034Y2070862D01*
X3433063Y2070862D01*
X3422650Y2067305D01*
X3415791Y2060447D01*
X3415791Y2053589D01*
X3419347Y2046478D01*
X3422650Y2043176D01*
X3429761Y2039620D01*
X3450590Y2032762D01*
X3457447Y2029205D01*
X3460750Y2025650D01*
X3464306Y2018792D01*
X3464306Y2008378D01*
X3457447Y2001520D01*
X3447034Y1997963D01*
X3433063Y1997963D01*
X3422650Y2001520D01*
X3415791Y2008378D01*
X3507993Y2070862D02*
G01*
X3501136Y2067305D01*
X3494024Y2060447D01*
X3490722Y2053589D01*
X3487165Y2043176D01*
X3487165Y2025650D01*
X3490722Y2015489D01*
X3494024Y2008378D01*
X3501136Y2001520D01*
X3507993Y1997963D01*
X3521709Y1997963D01*
X3528822Y2001520D01*
X3535679Y2008378D01*
X3539236Y2015489D01*
X3542538Y2025650D01*
X3542538Y2043176D01*
X3539236Y2053589D01*
X3535679Y2060447D01*
X3528822Y2067305D01*
X3521709Y2070862D01*
X3507993Y2070862D01*
X3627881Y2084578D02*
G01*
X3565397Y1973834D01*
X3650741Y2070862D02*
G01*
X3650741Y1997963D01*
X3650741Y2070862D02*
G01*
X3681729Y2070862D01*
X3692143Y2067305D01*
X3695700Y2063750D01*
X3699256Y2056892D01*
X3699256Y2050034D01*
X3695700Y2043176D01*
X3692143Y2039620D01*
X3681729Y2036063D01*
X3650741Y2036063D01*
X3674872Y2036063D02*
G01*
X3699256Y1997963D01*
X3773931Y2053589D02*
G01*
X3770629Y2060447D01*
X3763518Y2067305D01*
X3756659Y2070862D01*
X3742690Y2070862D01*
X3735831Y2067305D01*
X3728974Y2060447D01*
X3725418Y2053589D01*
X3722115Y2043176D01*
X3722115Y2025650D01*
X3725418Y2015489D01*
X3728974Y2008378D01*
X3735831Y2001520D01*
X3742690Y1997963D01*
X3756659Y1997963D01*
X3763518Y2001520D01*
X3770629Y2008378D01*
X3773931Y2015489D01*
X3831590Y2070862D02*
G01*
X3796791Y2022347D01*
X3848861Y2022347D01*
X3831590Y2070862D02*
G01*
X3831590Y1997963D01*
X3314700Y1816862D02*
G01*
X3314700Y1743963D01*
X3314700Y1816862D02*
G01*
X3342386Y1743963D01*
X3370072Y1816862D02*
G01*
X3342386Y1743963D01*
X3370072Y1816862D02*
G01*
X3370072Y1743963D01*
X3413759Y1816862D02*
G01*
X3406902Y1813305D01*
X3399790Y1806447D01*
X3396488Y1799589D01*
X3392931Y1789176D01*
X3392931Y1771650D01*
X3396488Y1761489D01*
X3399790Y1754378D01*
X3406902Y1747520D01*
X3413759Y1743963D01*
X3427729Y1743963D01*
X3434588Y1747520D01*
X3441445Y1754378D01*
X3445002Y1761489D01*
X3448304Y1771650D01*
X3448304Y1789176D01*
X3445002Y1799589D01*
X3441445Y1806447D01*
X3434588Y1813305D01*
X3427729Y1816862D01*
X3413759Y1816862D01*
X3519677Y1806447D02*
G01*
X3512820Y1813305D01*
X3502406Y1816862D01*
X3488690Y1816862D01*
X3478275Y1813305D01*
X3471163Y1806447D01*
X3471163Y1799589D01*
X3474720Y1792478D01*
X3478275Y1789176D01*
X3485134Y1785620D01*
X3505961Y1778762D01*
X3512820Y1775205D01*
X3516375Y1771650D01*
X3519677Y1764792D01*
X3519677Y1754378D01*
X3512820Y1747520D01*
X3502406Y1743963D01*
X3488690Y1743963D01*
X3478275Y1747520D01*
X3471163Y1754378D01*
X3542538Y1816862D02*
G01*
X3542538Y1743963D01*
X3627881Y1830578D02*
G01*
X3565397Y1719834D01*
X3650741Y1816862D02*
G01*
X3650741Y1743963D01*
X3650741Y1816862D02*
G01*
X3681729Y1816862D01*
X3692143Y1813305D01*
X3695700Y1809750D01*
X3699256Y1802892D01*
X3699256Y1796034D01*
X3695700Y1789176D01*
X3692143Y1785620D01*
X3681729Y1782063D01*
X3650741Y1782063D01*
X3674872Y1782063D02*
G01*
X3699256Y1743963D01*
X3773931Y1799589D02*
G01*
X3770629Y1806447D01*
X3763518Y1813305D01*
X3756659Y1816862D01*
X3742690Y1816862D01*
X3735831Y1813305D01*
X3728974Y1806447D01*
X3725418Y1799589D01*
X3722115Y1789176D01*
X3722115Y1771650D01*
X3725418Y1761489D01*
X3728974Y1754378D01*
X3735831Y1747520D01*
X3742690Y1743963D01*
X3756659Y1743963D01*
X3763518Y1747520D01*
X3770629Y1754378D01*
X3773931Y1761489D01*
X3838447Y1816862D02*
G01*
X3803650Y1816862D01*
X3800347Y1785620D01*
X3803650Y1789176D01*
X3814063Y1792478D01*
X3824477Y1792478D01*
X3834891Y1789176D01*
X3841750Y1782063D01*
X3845306Y1771650D01*
X3845306Y1764792D01*
X3841750Y1754378D01*
X3834891Y1747520D01*
X3824477Y1743963D01*
X3814063Y1743963D01*
X3803650Y1747520D01*
X3800347Y1751076D01*
X3796791Y1757934D01*
X3333241Y1555242D02*
G01*
X3333241Y1492757D01*
X3302000Y1524000D02*
G01*
X3364229Y1524000D01*
X3394202Y1565655D02*
G01*
X3432302Y1565655D01*
X3411474Y1537970D01*
X3421888Y1537970D01*
X3428745Y1534413D01*
X3432302Y1530857D01*
X3435604Y1520444D01*
X3435604Y1513586D01*
X3432302Y1503171D01*
X3425190Y1496313D01*
X3415029Y1492757D01*
X3404615Y1492757D01*
X3394202Y1496313D01*
X3390645Y1499870D01*
X3387090Y1506728D01*
X3462020Y1510029D02*
G01*
X3458463Y1506728D01*
X3462020Y1503171D01*
X3465575Y1506728D01*
X3462020Y1510029D01*
X3495293Y1565655D02*
G01*
X3533393Y1565655D01*
X3512565Y1537970D01*
X3522979Y1537970D01*
X3529838Y1534413D01*
X3533393Y1530857D01*
X3536950Y1520444D01*
X3536950Y1513586D01*
X3533393Y1503171D01*
X3526536Y1496313D01*
X3516122Y1492757D01*
X3505708Y1492757D01*
X3495293Y1496313D01*
X3491738Y1499870D01*
X3488436Y1506728D01*
X3559809Y1565655D02*
G01*
X3587495Y1492757D01*
X3615181Y1565655D02*
G01*
X3587495Y1492757D01*
X3354070Y1294129D02*
G01*
X3350513Y1301242D01*
X3343656Y1308100D01*
X3336543Y1311655D01*
X3322827Y1311655D01*
X3315970Y1308100D01*
X3308858Y1301242D01*
X3305556Y1294129D01*
X3302000Y1283970D01*
X3302000Y1266444D01*
X3305556Y1256029D01*
X3308858Y1249171D01*
X3315970Y1242313D01*
X3322827Y1238757D01*
X3336543Y1238757D01*
X3343656Y1242313D01*
X3350513Y1249171D01*
X3354070Y1256029D01*
X3354070Y1266444D01*
X3336543Y1266444D02*
G01*
X3354070Y1266444D01*
X3376929Y1311655D02*
G01*
X3376929Y1238757D01*
X3376929Y1311655D02*
G01*
X3425190Y1238757D01*
X3425190Y1311655D02*
G01*
X3425190Y1238757D01*
X3448050Y1311655D02*
G01*
X3448050Y1238757D01*
X3448050Y1311655D02*
G01*
X3472434Y1311655D01*
X3482847Y1308100D01*
X3489706Y1301242D01*
X3493261Y1294129D01*
X3496563Y1283970D01*
X3496563Y1266444D01*
X3493261Y1256029D01*
X3489706Y1249171D01*
X3482847Y1242313D01*
X3472434Y1238757D01*
X3448050Y1238757D01*
X4928870Y1294129D02*
G01*
X4925313Y1301242D01*
X4918456Y1308100D01*
X4911343Y1311655D01*
X4897627Y1311655D01*
X4890770Y1308100D01*
X4883658Y1301242D01*
X4880356Y1294129D01*
X4876800Y1283970D01*
X4876800Y1266444D01*
X4880356Y1256029D01*
X4883658Y1249171D01*
X4890770Y1242313D01*
X4897627Y1238757D01*
X4911343Y1238757D01*
X4918456Y1242313D01*
X4925313Y1249171D01*
X4928870Y1256029D01*
X4928870Y1266444D01*
X4911343Y1266444D02*
G01*
X4928870Y1266444D01*
X4951729Y1311655D02*
G01*
X4951729Y1238757D01*
X4951729Y1311655D02*
G01*
X4999990Y1238757D01*
X4999990Y1311655D02*
G01*
X4999990Y1238757D01*
X5022850Y1311655D02*
G01*
X5022850Y1238757D01*
X5022850Y1311655D02*
G01*
X5047234Y1311655D01*
X5057647Y1308100D01*
X5064506Y1301242D01*
X5068061Y1294129D01*
X5071363Y1283970D01*
X5071363Y1266444D01*
X5068061Y1256029D01*
X5064506Y1249171D01*
X5057647Y1242313D01*
X5047234Y1238757D01*
X5022850Y1238757D01*
X4882641Y1555242D02*
G01*
X4882641Y1492757D01*
X4851400Y1524000D02*
G01*
X4913629Y1524000D01*
X4978145Y1565655D02*
G01*
X4943602Y1565655D01*
X4940045Y1534413D01*
X4943602Y1537970D01*
X4954015Y1541271D01*
X4964429Y1541271D01*
X4974590Y1537970D01*
X4981702Y1530857D01*
X4985004Y1520444D01*
X4985004Y1513586D01*
X4981702Y1503171D01*
X4974590Y1496313D01*
X4964429Y1492757D01*
X4954015Y1492757D01*
X4943602Y1496313D01*
X4940045Y1499870D01*
X4936490Y1506728D01*
X5007863Y1565655D02*
G01*
X5035550Y1492757D01*
X5063490Y1565655D02*
G01*
X5035550Y1492757D01*
X4572000Y1816862D02*
G01*
X4572000Y1743963D01*
X4572000Y1816862D02*
G01*
X4603241Y1816862D01*
X4613656Y1813305D01*
X4616958Y1809750D01*
X4620513Y1802892D01*
X4620513Y1796034D01*
X4616958Y1789176D01*
X4613656Y1785620D01*
X4603241Y1782063D01*
X4572000Y1782063D01*
X4596129Y1782063D02*
G01*
X4620513Y1743963D01*
X4695190Y1799589D02*
G01*
X4691888Y1806447D01*
X4685029Y1813305D01*
X4677918Y1816862D01*
X4664202Y1816862D01*
X4657090Y1813305D01*
X4650231Y1806447D01*
X4646929Y1799589D01*
X4643374Y1789176D01*
X4643374Y1771650D01*
X4646929Y1761489D01*
X4650231Y1754378D01*
X4657090Y1747520D01*
X4664202Y1743963D01*
X4677918Y1743963D01*
X4685029Y1747520D01*
X4691888Y1754378D01*
X4695190Y1761489D01*
X4752847Y1816862D02*
G01*
X4718050Y1768347D01*
X4770120Y1768347D01*
X4752847Y1816862D02*
G01*
X4752847Y1743963D01*
X4855209Y1830578D02*
G01*
X4792979Y1719834D01*
X4926584Y1806447D02*
G01*
X4919725Y1813305D01*
X4909311Y1816862D01*
X4895595Y1816862D01*
X4885181Y1813305D01*
X4878070Y1806447D01*
X4878070Y1799589D01*
X4881625Y1792478D01*
X4885181Y1789176D01*
X4892040Y1785620D01*
X4912868Y1778762D01*
X4919725Y1775205D01*
X4923281Y1771650D01*
X4926584Y1764792D01*
X4926584Y1754378D01*
X4919725Y1747520D01*
X4909311Y1743963D01*
X4895595Y1743963D01*
X4885181Y1747520D01*
X4878070Y1754378D01*
X4949443Y1816862D02*
G01*
X4949443Y1743963D01*
X4949443Y1816862D02*
G01*
X4973827Y1816862D01*
X4984241Y1813305D01*
X4991100Y1806447D01*
X4994656Y1799589D01*
X4997958Y1789176D01*
X4997958Y1771650D01*
X4994656Y1761489D01*
X4991100Y1754378D01*
X4984241Y1747520D01*
X4973827Y1743963D01*
X4949443Y1743963D01*
X5048504Y1816862D02*
G01*
X5020818Y1743963D01*
X5048504Y1816862D02*
G01*
X5076190Y1743963D01*
X5031231Y1768347D02*
G01*
X5066029Y1768347D01*
X4584700Y2070862D02*
G01*
X4584700Y1997963D01*
X4584700Y2070862D02*
G01*
X4615941Y2070862D01*
X4626356Y2067305D01*
X4629658Y2063750D01*
X4633213Y2056892D01*
X4633213Y2050034D01*
X4629658Y2043176D01*
X4626356Y2039620D01*
X4615941Y2036063D01*
X4584700Y2036063D01*
X4608829Y2036063D02*
G01*
X4633213Y1997963D01*
X4707890Y2053589D02*
G01*
X4704588Y2060447D01*
X4697729Y2067305D01*
X4690618Y2070862D01*
X4676902Y2070862D01*
X4669790Y2067305D01*
X4662931Y2060447D01*
X4659629Y2053589D01*
X4656074Y2043176D01*
X4656074Y2025650D01*
X4659629Y2015489D01*
X4662931Y2008378D01*
X4669790Y2001520D01*
X4676902Y1997963D01*
X4690618Y1997963D01*
X4697729Y2001520D01*
X4704588Y2008378D01*
X4707890Y2015489D01*
X4737861Y2070862D02*
G01*
X4775961Y2070862D01*
X4755134Y2043176D01*
X4765547Y2043176D01*
X4772406Y2039620D01*
X4775961Y2036063D01*
X4779263Y2025650D01*
X4779263Y2018792D01*
X4775961Y2008378D01*
X4768850Y2001520D01*
X4758690Y1997963D01*
X4748275Y1997963D01*
X4737861Y2001520D01*
X4734306Y2005076D01*
X4730750Y2011934D01*
X4864608Y2084578D02*
G01*
X4802124Y1973834D01*
X4935981Y2060447D02*
G01*
X4928870Y2067305D01*
X4918709Y2070862D01*
X4904740Y2070862D01*
X4894325Y2067305D01*
X4887468Y2060447D01*
X4887468Y2053589D01*
X4890770Y2046478D01*
X4894325Y2043176D01*
X4901184Y2039620D01*
X4922011Y2032762D01*
X4928870Y2029205D01*
X4932425Y2025650D01*
X4935981Y2018792D01*
X4935981Y2008378D01*
X4928870Y2001520D01*
X4918709Y1997963D01*
X4904740Y1997963D01*
X4894325Y2001520D01*
X4887468Y2008378D01*
X5010658Y2053589D02*
G01*
X5007356Y2060447D01*
X5000243Y2067305D01*
X4993386Y2070862D01*
X4979670Y2070862D01*
X4972558Y2067305D01*
X4965700Y2060447D01*
X4962143Y2053589D01*
X4958841Y2043176D01*
X4958841Y2025650D01*
X4962143Y2015489D01*
X4965700Y2008378D01*
X4972558Y2001520D01*
X4979670Y1997963D01*
X4993386Y1997963D01*
X5000243Y2001520D01*
X5007356Y2008378D01*
X5010658Y2015489D01*
X5033518Y2070862D02*
G01*
X5033518Y1997963D01*
X5033518Y1997963D02*
G01*
X5075174Y1997963D01*
X4648200Y2324862D02*
G01*
X4648200Y2251963D01*
X4648200Y2324862D02*
G01*
X4679441Y2324862D01*
X4689856Y2321305D01*
X4693158Y2317750D01*
X4696713Y2310892D01*
X4696713Y2304034D01*
X4693158Y2297176D01*
X4689856Y2293620D01*
X4679441Y2290063D01*
X4648200Y2290063D01*
X4672329Y2290063D02*
G01*
X4696713Y2251963D01*
X4771390Y2307589D02*
G01*
X4768088Y2314447D01*
X4761229Y2321305D01*
X4754118Y2324862D01*
X4740402Y2324862D01*
X4733290Y2321305D01*
X4726431Y2314447D01*
X4723129Y2307589D01*
X4719574Y2297176D01*
X4719574Y2279650D01*
X4723129Y2269489D01*
X4726431Y2262378D01*
X4733290Y2255520D01*
X4740402Y2251963D01*
X4754118Y2251963D01*
X4761229Y2255520D01*
X4768088Y2262378D01*
X4771390Y2269489D01*
X4835906Y2314447D02*
G01*
X4832350Y2321305D01*
X4822190Y2324862D01*
X4815077Y2324862D01*
X4804663Y2321305D01*
X4797806Y2310892D01*
X4794250Y2293620D01*
X4794250Y2276347D01*
X4797806Y2262378D01*
X4804663Y2255520D01*
X4815077Y2251963D01*
X4818634Y2251963D01*
X4829047Y2255520D01*
X4835906Y2262378D01*
X4839461Y2272792D01*
X4839461Y2276347D01*
X4835906Y2286762D01*
X4829047Y2293620D01*
X4818634Y2297176D01*
X4815077Y2297176D01*
X4804663Y2293620D01*
X4797806Y2286762D01*
X4794250Y2276347D01*
X4924552Y2338578D02*
G01*
X4862322Y2227834D01*
X4971795Y2324862D02*
G01*
X4971795Y2251963D01*
X4947411Y2324862D02*
G01*
X4995925Y2324862D01*
X5018786Y2324862D02*
G01*
X5067300Y2251963D01*
X5067300Y2324862D02*
G01*
X5018786Y2251963D01*
X4648200Y2578862D02*
G01*
X4648200Y2505963D01*
X4648200Y2578862D02*
G01*
X4679441Y2578862D01*
X4689856Y2575305D01*
X4693158Y2571750D01*
X4696713Y2564892D01*
X4696713Y2558034D01*
X4693158Y2551176D01*
X4689856Y2547620D01*
X4679441Y2544063D01*
X4648200Y2544063D01*
X4672329Y2544063D02*
G01*
X4696713Y2505963D01*
X4771390Y2561589D02*
G01*
X4768088Y2568447D01*
X4761229Y2575305D01*
X4754118Y2578862D01*
X4740402Y2578862D01*
X4733290Y2575305D01*
X4726431Y2568447D01*
X4723129Y2561589D01*
X4719574Y2551176D01*
X4719574Y2533650D01*
X4723129Y2523489D01*
X4726431Y2516378D01*
X4733290Y2509520D01*
X4740402Y2505963D01*
X4754118Y2505963D01*
X4761229Y2509520D01*
X4768088Y2516378D01*
X4771390Y2523489D01*
X4842763Y2578862D02*
G01*
X4808220Y2505963D01*
X4794250Y2578862D02*
G01*
X4842763Y2578862D01*
X4928108Y2592578D02*
G01*
X4865624Y2481834D01*
X4950968Y2578862D02*
G01*
X4950968Y2505963D01*
X4950968Y2578862D02*
G01*
X4982209Y2578862D01*
X4992370Y2575305D01*
X4995925Y2571750D01*
X4999481Y2564892D01*
X4999481Y2558034D01*
X4995925Y2551176D01*
X4992370Y2547620D01*
X4982209Y2544063D01*
X4950968Y2544063D01*
X4975097Y2544063D02*
G01*
X4999481Y2505963D01*
X5022341Y2578862D02*
G01*
X5070856Y2505963D01*
X5070856Y2578862D02*
G01*
X5022341Y2505963D01*
X4635500Y2832862D02*
G01*
X4635500Y2759963D01*
X4635500Y2832862D02*
G01*
X4666741Y2832862D01*
X4677156Y2829305D01*
X4680458Y2825750D01*
X4684013Y2818892D01*
X4684013Y2812034D01*
X4680458Y2805176D01*
X4677156Y2801620D01*
X4666741Y2798063D01*
X4635500Y2798063D01*
X4659629Y2798063D02*
G01*
X4684013Y2759963D01*
X4706874Y2832862D02*
G01*
X4706874Y2759963D01*
X4706874Y2832862D02*
G01*
X4738115Y2832862D01*
X4748529Y2829305D01*
X4751831Y2825750D01*
X4755388Y2818892D01*
X4755388Y2812034D01*
X4751831Y2805176D01*
X4748529Y2801620D01*
X4738115Y2798063D01*
X4706874Y2798063D02*
G01*
X4738115Y2798063D01*
X4748529Y2794762D01*
X4751831Y2791205D01*
X4755388Y2784347D01*
X4755388Y2773934D01*
X4751831Y2767076D01*
X4748529Y2763520D01*
X4738115Y2759963D01*
X4706874Y2759963D01*
X4799075Y2832862D02*
G01*
X4788661Y2829305D01*
X4781550Y2818892D01*
X4778247Y2801620D01*
X4778247Y2791205D01*
X4781550Y2773934D01*
X4788661Y2763520D01*
X4799075Y2759963D01*
X4805934Y2759963D01*
X4816347Y2763520D01*
X4823206Y2773934D01*
X4826761Y2791205D01*
X4826761Y2801620D01*
X4823206Y2818892D01*
X4816347Y2829305D01*
X4805934Y2832862D01*
X4799075Y2832862D01*
X4911852Y2846578D02*
G01*
X4849622Y2735834D01*
X4934711Y2832862D02*
G01*
X4934711Y2759963D01*
X4957572Y2832862D02*
G01*
X4957572Y2759963D01*
X4957572Y2832862D02*
G01*
X5006086Y2759963D01*
X5006086Y2832862D02*
G01*
X5006086Y2759963D01*
X5053329Y2832862D02*
G01*
X5053329Y2759963D01*
X5028945Y2832862D02*
G01*
X5077459Y2832862D01*
X4546600Y3086862D02*
G01*
X4546600Y3013963D01*
X4546600Y3086862D02*
G01*
X4577841Y3086862D01*
X4588256Y3083305D01*
X4591558Y3079750D01*
X4595113Y3072892D01*
X4595113Y3066034D01*
X4591558Y3059176D01*
X4588256Y3055620D01*
X4577841Y3052063D01*
X4546600Y3052063D01*
X4570729Y3052063D02*
G01*
X4595113Y3013963D01*
X4669790Y3069589D02*
G01*
X4666488Y3076447D01*
X4659629Y3083305D01*
X4652518Y3086862D01*
X4638802Y3086862D01*
X4631690Y3083305D01*
X4624831Y3076447D01*
X4621529Y3069589D01*
X4617974Y3059176D01*
X4617974Y3041650D01*
X4621529Y3031489D01*
X4624831Y3024378D01*
X4631690Y3017520D01*
X4638802Y3013963D01*
X4652518Y3013963D01*
X4659629Y3017520D01*
X4666488Y3024378D01*
X4669790Y3031489D01*
X4713477Y3086862D02*
G01*
X4703063Y3083305D01*
X4696206Y3072892D01*
X4692650Y3055620D01*
X4692650Y3045205D01*
X4696206Y3027934D01*
X4703063Y3017520D01*
X4713477Y3013963D01*
X4720590Y3013963D01*
X4730750Y3017520D01*
X4737861Y3027934D01*
X4741163Y3045205D01*
X4741163Y3055620D01*
X4737861Y3072892D01*
X4730750Y3083305D01*
X4720590Y3086862D01*
X4713477Y3086862D01*
X4826508Y3100578D02*
G01*
X4764024Y2989834D01*
X4849368Y3086862D02*
G01*
X4849368Y3013963D01*
X4849368Y3086862D02*
G01*
X4880609Y3086862D01*
X4890770Y3083305D01*
X4894325Y3079750D01*
X4897881Y3072892D01*
X4897881Y3062478D01*
X4894325Y3055620D01*
X4890770Y3052063D01*
X4880609Y3048762D01*
X4849368Y3048762D01*
X4920741Y3086862D02*
G01*
X4938013Y3013963D01*
X4955286Y3086862D02*
G01*
X4938013Y3013963D01*
X4955286Y3086862D02*
G01*
X4972558Y3013963D01*
X4989829Y3086862D02*
G01*
X4972558Y3013963D01*
X5012690Y3086862D02*
G01*
X5012690Y3013963D01*
X5012690Y3086862D02*
G01*
X5040629Y3013963D01*
X5068315Y3086862D02*
G01*
X5040629Y3013963D01*
X5068315Y3086862D02*
G01*
X5068315Y3013963D01*
X3873500Y5434837D02*
G01*
X3873500Y5339334D01*
X3873500Y5434837D02*
G01*
X3914393Y5434837D01*
X3928109Y5430265D01*
X3932681Y5425694D01*
X3937254Y5416804D01*
X3937254Y5407660D01*
X3932681Y5398515D01*
X3928109Y5393944D01*
X3914393Y5389371D01*
X3873500Y5389371D01*
X3905250Y5389371D02*
G01*
X3937254Y5339334D01*
X3971797Y5412231D02*
G01*
X3971797Y5416804D01*
X3976115Y5425694D01*
X3980688Y5430265D01*
X3989831Y5434837D01*
X4008120Y5434837D01*
X4017009Y5430265D01*
X4021581Y5425694D01*
X4026154Y5416804D01*
X4026154Y5407660D01*
X4021581Y5398515D01*
X4012691Y5384800D01*
X3967225Y5339334D01*
X4030725Y5339334D01*
X3873500Y5625337D02*
G01*
X3873500Y5529834D01*
X3873500Y5625337D02*
G01*
X3905250Y5625337D01*
X3918965Y5620765D01*
X3928109Y5611876D01*
X3932681Y5602731D01*
X3937254Y5589015D01*
X3937254Y5566410D01*
X3932681Y5552694D01*
X3928109Y5543550D01*
X3918965Y5534405D01*
X3905250Y5529834D01*
X3873500Y5529834D01*
X3971797Y5602731D02*
G01*
X3971797Y5607304D01*
X3976115Y5616194D01*
X3980688Y5620765D01*
X3989831Y5625337D01*
X4008120Y5625337D01*
X4017009Y5620765D01*
X4021581Y5616194D01*
X4026154Y5607304D01*
X4026154Y5598160D01*
X4021581Y5589015D01*
X4012691Y5575300D01*
X3967225Y5529834D01*
X4030725Y5529834D01*
D11*
X3661900Y5575523D02*
G01*
X3627899Y5575523D01*
X3469893Y5540296D02*
G01*
X3469893Y5530293D01*
X3499888Y5500291D01*
X3684894Y5650298D02*
G01*
X3799895Y5650298D01*
X3684894Y5500291D02*
G01*
X3799895Y5500291D01*
X3604895Y5650298D02*
G01*
X3499888Y5650298D01*
X3604895Y5500291D02*
G01*
X3499888Y5500291D01*
X3799895Y5650285D02*
G01*
X3799895Y5502295D01*
X3469893Y5610288D02*
G01*
X3469893Y5540296D01*
X3469893Y5610288D02*
G01*
X3469893Y5620303D01*
X3499888Y5650298D01*
X3661900Y5610296D02*
G01*
X3661900Y5542297D01*
D12*
X3489838Y5291587D02*
G01*
X3489838Y5451591D01*
X3799895Y5292097D02*
G01*
X3799895Y5452102D01*
X3614834Y5451591D02*
G01*
X3489838Y5451591D01*
X3614834Y5291587D02*
G01*
X3489838Y5291587D01*
X3674892Y5452102D02*
G01*
X3799895Y5452102D01*
X3674892Y5292097D02*
G01*
X3799895Y5292097D01*
X2921000Y1143000D02*
G01*
X3175000Y1143000D01*
X3175000Y2921000D01*
X3175000Y3175000D01*
X2921000Y3175000D01*
X2921000Y2921000D01*
X2921000Y1143000D01*
X3175000Y2921000D02*
G01*
X2921000Y2921000D01*
X5207000Y1143000D02*
G01*
X5461000Y1143000D01*
X5461000Y2921000D01*
X5461000Y3175000D01*
X5207000Y3175000D01*
X5207000Y2921000D01*
X5207000Y1143000D01*
X5461000Y2921000D02*
G01*
X5207000Y2921000D01*
X2794000Y3302000D02*
G01*
X2794000Y1028700D01*
X2794000Y1016000D01*
X5588000Y3302000D02*
G01*
X5588000Y3289300D01*
X5588000Y1016000D01*
X3048000Y762000D02*
G01*
X5334000Y762000D01*
X5461000Y1143000D02*
G01*
X5207000Y889000D01*
X2921000Y889000D01*
X2921000Y1143000D01*
X4074038Y5291587D02*
G01*
X4074038Y5451591D01*
X4384095Y5292097D02*
G01*
X4384095Y5452102D01*
X4199034Y5451591D02*
G01*
X4074038Y5451591D01*
X4199034Y5291587D02*
G01*
X4074038Y5291587D01*
X4259092Y5452102D02*
G01*
X4384095Y5452102D01*
X4259092Y5292097D02*
G01*
X4384095Y5292097D01*
D11*
X4246100Y5575523D02*
G01*
X4212099Y5575523D01*
X4054093Y5540296D02*
G01*
X4054093Y5530293D01*
X4084088Y5500291D01*
X4269094Y5650298D02*
G01*
X4384095Y5650298D01*
X4269094Y5500291D02*
G01*
X4384095Y5500291D01*
X4189095Y5650298D02*
G01*
X4084088Y5650298D01*
X4189095Y5500291D02*
G01*
X4084088Y5500291D01*
X4384095Y5650285D02*
G01*
X4384095Y5502295D01*
X4054093Y5610288D02*
G01*
X4054093Y5540296D01*
X4054093Y5610288D02*
G01*
X4054093Y5620303D01*
X4084088Y5650298D01*
X4246100Y5610296D02*
G01*
X4246100Y5542297D01*
D12*
G75*
G01*
X5587997Y1016003D02*
G02*
X5333997Y762003I-266700J12700D01*
G75*
G01*
X3048003Y762003D02*
G02*
X2794003Y1028703I-153J254157D01*
G75*
G01*
X5308600Y3606800D02*
G02*
X5588000Y3302000I-19840J-298645D01*
G75*
G01*
X3073400Y3606800D02*
G03*
X2794000Y3302000I19840J-298645D01*
X768781Y5799201D02*
G01*
X1618792Y5799201D01*
X1618792Y2949194D01*
X768781Y2949194D01*
X768781Y5799201D01*
X768807Y2890901D02*
G01*
X1618818Y2890901D01*
X1618818Y40894D01*
X768807Y40894D01*
X768807Y2890901D01*
X4445000Y5715000D02*
G01*
X4953000Y5715000D01*
X4953000Y5207000D01*
X4445000Y5207000D01*
X4445000Y5715000D01*
M02*
