G04 Layer: BottomLayer*
G04 EasyEDA v6.5.34, 2023-09-10 21:38:17*
G04 5915201a24e44bbb9a238a9ce508910a,5a6b42c53f6a479593ecc07194224c93,10*
G04 Gerber Generator version 0.2*
G04 Scale: 100 percent, Rotated: No, Reflected: No *
G04 Dimensions in millimeters *
G04 leading zeros omitted , absolute positions ,4 integer and 5 decimal *
%FSLAX45Y45*%
%MOMM*%

%ADD10C,0.2540*%
%ADD11C,0.5000*%
%ADD12C,3.0000*%
%ADD13C,1.5240*%
%ADD14C,1.4310*%
%ADD15C,3.4501*%
%ADD16C,5.0000*%
%ADD17C,2.0000*%
%ADD18C,1.8000*%
%ADD19C,0.6096*%
%ADD20C,0.0183*%

%LPD*%
G36*
X5805932Y25908D02*
G01*
X36068Y26416D01*
X32156Y27178D01*
X28905Y29362D01*
X26670Y32664D01*
X25908Y36576D01*
X25908Y5805932D01*
X26670Y5809792D01*
X28905Y5813094D01*
X32156Y5815330D01*
X36068Y5816092D01*
X5805932Y5816092D01*
X5809792Y5815330D01*
X5813094Y5813094D01*
X5815330Y5809792D01*
X5816092Y5805932D01*
X5816092Y36068D01*
X5815330Y32156D01*
X5813094Y28905D01*
X5809792Y26670D01*
G37*

%LPC*%
G36*
X4584700Y5600700D02*
G01*
X4687112Y5600700D01*
X4686960Y5602528D01*
X4684268Y5616803D01*
X4679746Y5630672D01*
X4673549Y5643829D01*
X4665776Y5656122D01*
X4656480Y5667349D01*
X4645863Y5677306D01*
X4634077Y5685840D01*
X4621326Y5692851D01*
X4607814Y5698236D01*
X4593691Y5701842D01*
X4584700Y5702960D01*
G37*
G36*
X393700Y105562D02*
G01*
X398322Y105664D01*
X421284Y108051D01*
X443992Y112369D01*
X466242Y118618D01*
X487883Y126644D01*
X508812Y136499D01*
X528828Y148031D01*
X547776Y161239D01*
X565607Y175971D01*
X582117Y192125D01*
X597204Y209600D01*
X610819Y228295D01*
X622757Y248107D01*
X633018Y268782D01*
X641553Y290271D01*
X648208Y312369D01*
X653034Y334975D01*
X655929Y357886D01*
X656336Y368300D01*
X393700Y368300D01*
G37*
G36*
X5448300Y105613D02*
G01*
X5448300Y368300D01*
X5185410Y368300D01*
X5187289Y346405D01*
X5191099Y323646D01*
X5196890Y301244D01*
X5204460Y279450D01*
X5213858Y258317D01*
X5224983Y238099D01*
X5237784Y218846D01*
X5252161Y200710D01*
X5267960Y183896D01*
X5285130Y168402D01*
X5303520Y154432D01*
X5323027Y142036D01*
X5343499Y131368D01*
X5364835Y122377D01*
X5386781Y115265D01*
X5409285Y109982D01*
X5432145Y106629D01*
G37*
G36*
X368300Y105613D02*
G01*
X368300Y368300D01*
X105410Y368300D01*
X107289Y346405D01*
X111099Y323646D01*
X116890Y301244D01*
X124460Y279450D01*
X133858Y258317D01*
X144983Y238099D01*
X157784Y218846D01*
X172161Y200710D01*
X187960Y183896D01*
X205130Y168402D01*
X223520Y154432D01*
X243027Y142036D01*
X263499Y131368D01*
X284835Y122377D01*
X306781Y115265D01*
X329285Y109982D01*
X352145Y106629D01*
G37*
G36*
X393700Y393700D02*
G01*
X656336Y393700D01*
X655929Y404063D01*
X653034Y427024D01*
X648208Y449630D01*
X641553Y471728D01*
X633018Y493217D01*
X622757Y513892D01*
X610819Y533654D01*
X597204Y552348D01*
X582117Y569874D01*
X565607Y586028D01*
X547776Y600760D01*
X528828Y613968D01*
X508812Y625500D01*
X487883Y635355D01*
X466242Y643382D01*
X443992Y649630D01*
X421284Y653948D01*
X398322Y656336D01*
X393700Y656437D01*
G37*
G36*
X5473700Y393700D02*
G01*
X5736336Y393700D01*
X5735929Y404063D01*
X5733034Y427024D01*
X5728208Y449630D01*
X5721553Y471728D01*
X5713018Y493217D01*
X5702757Y513892D01*
X5690819Y533654D01*
X5677204Y552348D01*
X5662117Y569874D01*
X5645607Y586028D01*
X5627776Y600760D01*
X5608828Y613968D01*
X5588812Y625500D01*
X5567883Y635355D01*
X5546242Y643382D01*
X5523992Y649630D01*
X5501284Y653948D01*
X5478322Y656336D01*
X5473700Y656437D01*
G37*
G36*
X105410Y393700D02*
G01*
X368300Y393700D01*
X368300Y656386D01*
X352145Y655370D01*
X329285Y652018D01*
X306781Y646734D01*
X284835Y639572D01*
X263499Y630631D01*
X243027Y619912D01*
X223520Y607568D01*
X205130Y593598D01*
X187960Y578104D01*
X172161Y561289D01*
X157784Y543153D01*
X144983Y523900D01*
X133858Y503682D01*
X124460Y482549D01*
X116890Y460756D01*
X111099Y438353D01*
X107289Y415594D01*
G37*
G36*
X5185410Y393700D02*
G01*
X5448300Y393700D01*
X5448300Y656386D01*
X5432145Y655370D01*
X5409285Y652018D01*
X5386781Y646734D01*
X5364835Y639572D01*
X5343499Y630631D01*
X5323027Y619912D01*
X5303520Y607568D01*
X5285130Y593598D01*
X5267960Y578104D01*
X5252161Y561289D01*
X5237784Y543153D01*
X5224983Y523900D01*
X5213858Y503682D01*
X5204460Y482549D01*
X5196890Y460756D01*
X5191099Y438353D01*
X5187289Y415594D01*
G37*
G36*
X4047083Y451662D02*
G01*
X4056887Y452526D01*
X4066336Y455066D01*
X4075277Y459232D01*
X4083304Y464820D01*
X4090263Y471779D01*
X4095902Y479856D01*
X4100017Y488746D01*
X4102557Y498246D01*
X4103420Y508000D01*
X4102557Y517804D01*
X4100017Y527304D01*
X4095902Y536194D01*
X4090263Y544220D01*
X4088688Y545795D01*
X4086453Y549097D01*
X4085691Y553008D01*
X4085691Y2279091D01*
X4086453Y2283002D01*
X4088688Y2286304D01*
X4090263Y2287879D01*
X4093768Y2292908D01*
X4096562Y2295601D01*
X4100169Y2297023D01*
X4104030Y2297023D01*
X4107637Y2295601D01*
X4110431Y2292908D01*
X4113936Y2287879D01*
X4120845Y2280920D01*
X4128922Y2275281D01*
X4137812Y2271166D01*
X4147312Y2268626D01*
X4157116Y2267762D01*
X4166870Y2268626D01*
X4176369Y2271166D01*
X4185259Y2275281D01*
X4193336Y2280920D01*
X4200245Y2287879D01*
X4205884Y2295906D01*
X4210050Y2304846D01*
X4212590Y2314295D01*
X4213453Y2324100D01*
X4212590Y2333904D01*
X4210050Y2343353D01*
X4205884Y2352294D01*
X4200245Y2360320D01*
X4193336Y2367280D01*
X4185259Y2372918D01*
X4176369Y2377033D01*
X4166870Y2379573D01*
X4157116Y2380437D01*
X4147312Y2379573D01*
X4137812Y2377033D01*
X4128922Y2372918D01*
X4120845Y2367280D01*
X4113936Y2360320D01*
X4110431Y2355291D01*
X4107637Y2352598D01*
X4104030Y2351176D01*
X4100169Y2351176D01*
X4096562Y2352598D01*
X4093768Y2355291D01*
X4090263Y2360320D01*
X4083304Y2367280D01*
X4075277Y2372918D01*
X4066336Y2377033D01*
X4056887Y2379573D01*
X4047083Y2380437D01*
X4037279Y2379573D01*
X4027830Y2377033D01*
X4018889Y2372918D01*
X4010863Y2367280D01*
X4003903Y2360320D01*
X3998264Y2352294D01*
X3994150Y2343353D01*
X3991610Y2333904D01*
X3990746Y2324100D01*
X3991610Y2314295D01*
X3994150Y2304846D01*
X3998264Y2295906D01*
X4003903Y2287879D01*
X4005478Y2286304D01*
X4007713Y2283002D01*
X4008475Y2279091D01*
X4008475Y553008D01*
X4007713Y549097D01*
X4005478Y545795D01*
X4003903Y544220D01*
X3998264Y536194D01*
X3994150Y527304D01*
X3991610Y517804D01*
X3990746Y508000D01*
X3991610Y498246D01*
X3994150Y488746D01*
X3998264Y479856D01*
X4003903Y471779D01*
X4010863Y464820D01*
X4018889Y459232D01*
X4027830Y455066D01*
X4037279Y452526D01*
G37*
G36*
X3048000Y451713D02*
G01*
X3057804Y452577D01*
X3067253Y455117D01*
X3076194Y459232D01*
X3084220Y464870D01*
X3091180Y471830D01*
X3096818Y479856D01*
X3100933Y488797D01*
X3103473Y498246D01*
X3104337Y508050D01*
X3103473Y517855D01*
X3100933Y527304D01*
X3096818Y536244D01*
X3091180Y544271D01*
X3089605Y545846D01*
X3087370Y549148D01*
X3086608Y553059D01*
X3086608Y787400D01*
X3087319Y791210D01*
X3089452Y794410D01*
X3092602Y796645D01*
X3106521Y802894D01*
X3119526Y810768D01*
X3131464Y820166D01*
X3142234Y830884D01*
X3151581Y842873D01*
X3159455Y855878D01*
X3165754Y869797D01*
X3167938Y872947D01*
X3171190Y875080D01*
X3175000Y875792D01*
X3178810Y875080D01*
X3182010Y872947D01*
X3184245Y869797D01*
X3190544Y855878D01*
X3198368Y842873D01*
X3207766Y830884D01*
X3218535Y820166D01*
X3230473Y810768D01*
X3243478Y802894D01*
X3257346Y796696D01*
X3271875Y792175D01*
X3286810Y789432D01*
X3302000Y788517D01*
X3317189Y789432D01*
X3332124Y792175D01*
X3346653Y796696D01*
X3360521Y802894D01*
X3373526Y810768D01*
X3385464Y820166D01*
X3396234Y830884D01*
X3405581Y842873D01*
X3413455Y855878D01*
X3419703Y869746D01*
X3424224Y884275D01*
X3426968Y899210D01*
X3427882Y914400D01*
X3426968Y929538D01*
X3424224Y944524D01*
X3419703Y959002D01*
X3413455Y972870D01*
X3405581Y985875D01*
X3396234Y997864D01*
X3385464Y1008634D01*
X3373526Y1017981D01*
X3360521Y1025855D01*
X3346602Y1032103D01*
X3343452Y1034338D01*
X3341319Y1037590D01*
X3340608Y1041400D01*
X3340608Y2545791D01*
X3341370Y2549702D01*
X3343605Y2553004D01*
X3345179Y2554579D01*
X3350818Y2562606D01*
X3354933Y2571546D01*
X3357473Y2580995D01*
X3358337Y2590800D01*
X3357473Y2600604D01*
X3354933Y2610053D01*
X3350818Y2618994D01*
X3345179Y2627020D01*
X3338220Y2633980D01*
X3330194Y2639618D01*
X3321253Y2643733D01*
X3311804Y2646273D01*
X3302000Y2647137D01*
X3292195Y2646273D01*
X3282746Y2643733D01*
X3273806Y2639618D01*
X3265779Y2633980D01*
X3258820Y2627020D01*
X3253181Y2618994D01*
X3249066Y2610053D01*
X3246526Y2600604D01*
X3245662Y2590800D01*
X3246526Y2580995D01*
X3249066Y2571546D01*
X3253181Y2562606D01*
X3258820Y2554579D01*
X3260394Y2553004D01*
X3262629Y2549702D01*
X3263392Y2545791D01*
X3263392Y1041400D01*
X3262680Y1037590D01*
X3260547Y1034338D01*
X3257397Y1032103D01*
X3243478Y1025855D01*
X3230473Y1017981D01*
X3218535Y1008634D01*
X3207766Y997864D01*
X3198368Y985875D01*
X3190544Y972870D01*
X3184245Y958951D01*
X3182010Y955802D01*
X3178810Y953719D01*
X3175000Y952957D01*
X3171190Y953719D01*
X3167938Y955802D01*
X3165754Y958951D01*
X3159455Y972870D01*
X3151581Y985875D01*
X3142234Y997864D01*
X3131464Y1008634D01*
X3119526Y1017981D01*
X3106521Y1025855D01*
X3092653Y1032103D01*
X3078124Y1036624D01*
X3063189Y1039368D01*
X3048000Y1040282D01*
X3032810Y1039368D01*
X3017875Y1036624D01*
X3003346Y1032103D01*
X2989478Y1025855D01*
X2976473Y1017981D01*
X2964535Y1008634D01*
X2953766Y997864D01*
X2944368Y985875D01*
X2936544Y972870D01*
X2930245Y958951D01*
X2928010Y955802D01*
X2924810Y953719D01*
X2921000Y952957D01*
X2917190Y953719D01*
X2913938Y955802D01*
X2911754Y958951D01*
X2905455Y972870D01*
X2897581Y985875D01*
X2888234Y997864D01*
X2877464Y1008634D01*
X2865526Y1017981D01*
X2852521Y1025855D01*
X2838602Y1032103D01*
X2835452Y1034338D01*
X2833319Y1037590D01*
X2832608Y1041400D01*
X2832608Y2939491D01*
X2833370Y2943402D01*
X2835605Y2946704D01*
X2837180Y2948279D01*
X2842818Y2956306D01*
X2846933Y2965246D01*
X2849473Y2974695D01*
X2850337Y2984500D01*
X2849473Y2994304D01*
X2846933Y3003753D01*
X2842818Y3012694D01*
X2837180Y3020720D01*
X2830220Y3027680D01*
X2822194Y3033318D01*
X2813253Y3037433D01*
X2803804Y3039973D01*
X2794000Y3040837D01*
X2784195Y3039973D01*
X2774746Y3037433D01*
X2765806Y3033318D01*
X2757779Y3027680D01*
X2750820Y3020720D01*
X2745181Y3012694D01*
X2741066Y3003753D01*
X2738526Y2994304D01*
X2737662Y2984500D01*
X2738526Y2974695D01*
X2741066Y2965246D01*
X2745181Y2956306D01*
X2750820Y2948279D01*
X2752394Y2946704D01*
X2754630Y2943402D01*
X2755392Y2939542D01*
X2755392Y1041400D01*
X2754680Y1037590D01*
X2752547Y1034338D01*
X2749397Y1032103D01*
X2735478Y1025855D01*
X2722473Y1017981D01*
X2710535Y1008634D01*
X2699766Y997864D01*
X2690368Y985875D01*
X2682544Y972870D01*
X2676245Y958951D01*
X2674010Y955802D01*
X2670810Y953719D01*
X2667000Y952957D01*
X2663190Y953719D01*
X2659938Y955802D01*
X2657754Y958951D01*
X2651455Y972870D01*
X2643581Y985875D01*
X2634234Y997864D01*
X2623464Y1008634D01*
X2611526Y1017981D01*
X2598521Y1025855D01*
X2584602Y1032103D01*
X2581452Y1034338D01*
X2579319Y1037590D01*
X2578608Y1041400D01*
X2578608Y2837891D01*
X2579370Y2841802D01*
X2581605Y2845104D01*
X2583180Y2846679D01*
X2588818Y2854706D01*
X2592933Y2863646D01*
X2595473Y2873095D01*
X2596337Y2882900D01*
X2595473Y2892704D01*
X2592933Y2902153D01*
X2588818Y2911094D01*
X2583180Y2919120D01*
X2576220Y2926080D01*
X2568194Y2931718D01*
X2559253Y2935833D01*
X2549804Y2938373D01*
X2540000Y2939237D01*
X2530195Y2938373D01*
X2520746Y2935833D01*
X2511806Y2931718D01*
X2503779Y2926080D01*
X2496820Y2919120D01*
X2491181Y2911094D01*
X2487066Y2902153D01*
X2484526Y2892704D01*
X2483662Y2882900D01*
X2484526Y2873095D01*
X2487066Y2863646D01*
X2491181Y2854706D01*
X2496820Y2846679D01*
X2498394Y2845104D01*
X2500630Y2841802D01*
X2501392Y2837942D01*
X2501392Y1041400D01*
X2500680Y1037590D01*
X2498547Y1034338D01*
X2495397Y1032103D01*
X2481478Y1025855D01*
X2468473Y1017981D01*
X2456535Y1008634D01*
X2445766Y997864D01*
X2436368Y985875D01*
X2428544Y972870D01*
X2422296Y959002D01*
X2417775Y944524D01*
X2415032Y929538D01*
X2414117Y914400D01*
X2415032Y899210D01*
X2417775Y884275D01*
X2422296Y869746D01*
X2428544Y855878D01*
X2436368Y842873D01*
X2445766Y830884D01*
X2456535Y820166D01*
X2468473Y810768D01*
X2481478Y802894D01*
X2495346Y796696D01*
X2509875Y792175D01*
X2524810Y789432D01*
X2540000Y788517D01*
X2555189Y789432D01*
X2570124Y792175D01*
X2584653Y796696D01*
X2598521Y802894D01*
X2611526Y810768D01*
X2623464Y820166D01*
X2634234Y830884D01*
X2643581Y842873D01*
X2651455Y855878D01*
X2657754Y869797D01*
X2659938Y872947D01*
X2663190Y875080D01*
X2667000Y875792D01*
X2670810Y875080D01*
X2674010Y872947D01*
X2676245Y869797D01*
X2682544Y855878D01*
X2690368Y842873D01*
X2699766Y830884D01*
X2710535Y820166D01*
X2722473Y810768D01*
X2735478Y802894D01*
X2749346Y796696D01*
X2763875Y792175D01*
X2778810Y789432D01*
X2794000Y788517D01*
X2809189Y789432D01*
X2824124Y792175D01*
X2838653Y796696D01*
X2852521Y802894D01*
X2865526Y810768D01*
X2877464Y820166D01*
X2888234Y830884D01*
X2897581Y842873D01*
X2905455Y855878D01*
X2911754Y869797D01*
X2913938Y872947D01*
X2917190Y875080D01*
X2921000Y875792D01*
X2924810Y875080D01*
X2928010Y872947D01*
X2930245Y869797D01*
X2936544Y855878D01*
X2944368Y842873D01*
X2953766Y830884D01*
X2964535Y820166D01*
X2976473Y810768D01*
X2989478Y802894D01*
X3003397Y796645D01*
X3006547Y794410D01*
X3008680Y791159D01*
X3009392Y787400D01*
X3009392Y553059D01*
X3008630Y549148D01*
X3006394Y545846D01*
X3004820Y544271D01*
X2999181Y536244D01*
X2995066Y527304D01*
X2992526Y517855D01*
X2991662Y508050D01*
X2992526Y498246D01*
X2995066Y488797D01*
X2999181Y479856D01*
X3004820Y471830D01*
X3011779Y464870D01*
X3019806Y459232D01*
X3028746Y455117D01*
X3038195Y452577D01*
G37*
G36*
X2177440Y583488D02*
G01*
X2191258Y584403D01*
X2204821Y587095D01*
X2217978Y591566D01*
X2230374Y597662D01*
X2241905Y605383D01*
X2252319Y614527D01*
X2261463Y624941D01*
X2269134Y636422D01*
X2275281Y648868D01*
X2279700Y661974D01*
X2282444Y675538D01*
X2283307Y689356D01*
X2282444Y703224D01*
X2279700Y716788D01*
X2275281Y729894D01*
X2269134Y742340D01*
X2261463Y753821D01*
X2252319Y764235D01*
X2241905Y773379D01*
X2230374Y781100D01*
X2217978Y787196D01*
X2204821Y791667D01*
X2191258Y794359D01*
X2177440Y795274D01*
X2163622Y794359D01*
X2150059Y791667D01*
X2136902Y787196D01*
X2124506Y781100D01*
X2112975Y773379D01*
X2102561Y764235D01*
X2093417Y753821D01*
X2085746Y742340D01*
X2079599Y729894D01*
X2075180Y716788D01*
X2072436Y703224D01*
X2071573Y689356D01*
X2072436Y675538D01*
X2075180Y661974D01*
X2079599Y648868D01*
X2085746Y636422D01*
X2093417Y624941D01*
X2102561Y614527D01*
X2112975Y605383D01*
X2124506Y597662D01*
X2136902Y591566D01*
X2150059Y587095D01*
X2163622Y584403D01*
G37*
G36*
X3664559Y583488D02*
G01*
X3678377Y584403D01*
X3691940Y587095D01*
X3705047Y591566D01*
X3717493Y597662D01*
X3728974Y605383D01*
X3739387Y614527D01*
X3748532Y624941D01*
X3756253Y636422D01*
X3762349Y648868D01*
X3766820Y661974D01*
X3769512Y675538D01*
X3770426Y689356D01*
X3769512Y703224D01*
X3766820Y716788D01*
X3762349Y729894D01*
X3756253Y742340D01*
X3748532Y753821D01*
X3739387Y764235D01*
X3728974Y773379D01*
X3717493Y781100D01*
X3705047Y787196D01*
X3691940Y791667D01*
X3678377Y794359D01*
X3664559Y795274D01*
X3650691Y794359D01*
X3637127Y791667D01*
X3624021Y787196D01*
X3611575Y781100D01*
X3600094Y773379D01*
X3589680Y764235D01*
X3580536Y753821D01*
X3572814Y742340D01*
X3566718Y729894D01*
X3562248Y716788D01*
X3559556Y703224D01*
X3558641Y689356D01*
X3559556Y675538D01*
X3562248Y661974D01*
X3566718Y648868D01*
X3572814Y636422D01*
X3580536Y624941D01*
X3589680Y614527D01*
X3600094Y605383D01*
X3611575Y597662D01*
X3624021Y591566D01*
X3637127Y587095D01*
X3650691Y584403D01*
G37*
G36*
X4456887Y5600700D02*
G01*
X4559300Y5600700D01*
X4559300Y5702960D01*
X4550308Y5701842D01*
X4536186Y5698236D01*
X4522673Y5692851D01*
X4509922Y5685840D01*
X4498136Y5677306D01*
X4487519Y5667349D01*
X4478223Y5656122D01*
X4470450Y5643829D01*
X4464253Y5630672D01*
X4459732Y5616803D01*
X4457039Y5602528D01*
G37*
G36*
X105410Y5473700D02*
G01*
X368300Y5473700D01*
X368300Y5736386D01*
X352145Y5735370D01*
X329285Y5732018D01*
X306781Y5726734D01*
X284835Y5719572D01*
X263499Y5710631D01*
X243027Y5699912D01*
X223520Y5687568D01*
X205130Y5673598D01*
X187960Y5658104D01*
X172161Y5641289D01*
X157784Y5623153D01*
X144983Y5603900D01*
X133858Y5583682D01*
X124460Y5562549D01*
X116890Y5540756D01*
X111099Y5518353D01*
X107289Y5495594D01*
G37*
G36*
X5185410Y5473700D02*
G01*
X5448300Y5473700D01*
X5448300Y5736386D01*
X5432145Y5735370D01*
X5409285Y5732018D01*
X5386781Y5726734D01*
X5364835Y5719572D01*
X5343499Y5710631D01*
X5323027Y5699912D01*
X5303520Y5687568D01*
X5285130Y5673598D01*
X5267960Y5658104D01*
X5252161Y5641289D01*
X5237784Y5623153D01*
X5224983Y5603900D01*
X5213858Y5583682D01*
X5204460Y5562549D01*
X5196890Y5540756D01*
X5191099Y5518353D01*
X5187289Y5495594D01*
G37*
G36*
X393700Y5473700D02*
G01*
X656336Y5473700D01*
X655929Y5484063D01*
X653034Y5507024D01*
X648208Y5529630D01*
X641553Y5551728D01*
X633018Y5573217D01*
X622757Y5593892D01*
X610819Y5613654D01*
X597204Y5632348D01*
X582117Y5649874D01*
X565607Y5666028D01*
X547776Y5680760D01*
X528828Y5693968D01*
X508812Y5705500D01*
X487883Y5715355D01*
X466242Y5723382D01*
X443992Y5729630D01*
X421284Y5733948D01*
X398322Y5736336D01*
X393700Y5736437D01*
G37*
G36*
X5473700Y5473700D02*
G01*
X5736336Y5473700D01*
X5735929Y5484063D01*
X5733034Y5507024D01*
X5728208Y5529630D01*
X5721553Y5551728D01*
X5713018Y5573217D01*
X5702757Y5593892D01*
X5690819Y5613654D01*
X5677204Y5632348D01*
X5662117Y5649874D01*
X5645607Y5666028D01*
X5627776Y5680760D01*
X5608828Y5693968D01*
X5588812Y5705500D01*
X5567883Y5715355D01*
X5546242Y5723382D01*
X5523992Y5729630D01*
X5501284Y5733948D01*
X5478322Y5736336D01*
X5473700Y5736437D01*
G37*
G36*
X4584700Y5473039D02*
G01*
X4593691Y5474157D01*
X4607814Y5477764D01*
X4621326Y5483148D01*
X4634077Y5490159D01*
X4645863Y5498693D01*
X4656480Y5508650D01*
X4665776Y5519877D01*
X4673549Y5532170D01*
X4679746Y5545328D01*
X4684268Y5559196D01*
X4686960Y5573471D01*
X4687112Y5575300D01*
X4584700Y5575300D01*
G37*
G36*
X1034491Y1635099D02*
G01*
X1052576Y1636014D01*
X1070508Y1638807D01*
X1087983Y1643430D01*
X1104950Y1649831D01*
X1121156Y1657908D01*
X1136446Y1667662D01*
X1150620Y1678889D01*
X1163574Y1691538D01*
X1175207Y1705406D01*
X1185316Y1720443D01*
X1193800Y1736445D01*
X1200658Y1753209D01*
X1205687Y1770583D01*
X1208938Y1788414D01*
X1210360Y1806448D01*
X1209903Y1824583D01*
X1207566Y1842516D01*
X1203401Y1860143D01*
X1197457Y1877263D01*
X1189786Y1893671D01*
X1180439Y1909165D01*
X1169568Y1923694D01*
X1157274Y1936953D01*
X1143660Y1948942D01*
X1128928Y1959406D01*
X1113129Y1968347D01*
X1096568Y1975561D01*
X1092504Y1976882D01*
X1088796Y1978964D01*
X1086307Y1982419D01*
X1085443Y1986534D01*
X1085443Y2839466D01*
X1086256Y2843428D01*
X1088542Y2846781D01*
X1091996Y2848965D01*
X1104950Y2853842D01*
X1121156Y2861919D01*
X1136446Y2871673D01*
X1150620Y2882900D01*
X1163574Y2895549D01*
X1175207Y2909417D01*
X1185316Y2924454D01*
X1193800Y2940456D01*
X1200658Y2957220D01*
X1205687Y2974594D01*
X1208938Y2992424D01*
X1210360Y3010458D01*
X1209903Y3028594D01*
X1207566Y3046526D01*
X1203401Y3064154D01*
X1197457Y3081274D01*
X1189786Y3097682D01*
X1180439Y3113176D01*
X1169568Y3127705D01*
X1157274Y3140964D01*
X1143660Y3152952D01*
X1128928Y3163417D01*
X1113129Y3172358D01*
X1096568Y3179572D01*
X1079296Y3185109D01*
X1061567Y3188817D01*
X1043584Y3190646D01*
X1025448Y3190646D01*
X1007465Y3188817D01*
X989736Y3185109D01*
X972464Y3179572D01*
X955852Y3172358D01*
X940104Y3163417D01*
X925321Y3152952D01*
X911758Y3140964D01*
X899464Y3127705D01*
X888593Y3113176D01*
X879246Y3097682D01*
X871575Y3081274D01*
X865632Y3064154D01*
X861466Y3046526D01*
X859129Y3028594D01*
X858672Y3010458D01*
X860094Y2992424D01*
X863295Y2974594D01*
X868375Y2957220D01*
X875182Y2940456D01*
X883716Y2924454D01*
X893826Y2909417D01*
X905408Y2895549D01*
X918413Y2882900D01*
X932586Y2871673D01*
X947877Y2861919D01*
X964082Y2853842D01*
X977036Y2848965D01*
X980490Y2846781D01*
X982776Y2843428D01*
X983589Y2839415D01*
X983589Y1986584D01*
X982726Y1982419D01*
X980236Y1979015D01*
X976528Y1976882D01*
X972464Y1975561D01*
X955852Y1968347D01*
X940104Y1959406D01*
X925321Y1948942D01*
X911758Y1936953D01*
X899464Y1923694D01*
X888593Y1909165D01*
X879246Y1893671D01*
X871575Y1877263D01*
X865632Y1860143D01*
X861466Y1842516D01*
X859129Y1824583D01*
X858672Y1806448D01*
X860094Y1788414D01*
X863295Y1770583D01*
X868375Y1753209D01*
X875182Y1736445D01*
X883716Y1720443D01*
X893826Y1705406D01*
X905408Y1691538D01*
X918413Y1678889D01*
X932586Y1667662D01*
X947877Y1657908D01*
X964082Y1649831D01*
X980998Y1643430D01*
X998524Y1638807D01*
X1016406Y1636014D01*
G37*
G36*
X3429000Y1975662D02*
G01*
X3438804Y1976526D01*
X3448253Y1979066D01*
X3457194Y1983181D01*
X3465220Y1988820D01*
X3472179Y1995779D01*
X3477818Y2003806D01*
X3481933Y2012746D01*
X3484473Y2022195D01*
X3485337Y2032000D01*
X3484473Y2041804D01*
X3481933Y2051253D01*
X3480866Y2053589D01*
X3479901Y2057907D01*
X3479901Y2437892D01*
X3480866Y2442210D01*
X3481933Y2444546D01*
X3484473Y2453995D01*
X3485337Y2463800D01*
X3484473Y2473604D01*
X3481933Y2483053D01*
X3477818Y2491994D01*
X3472179Y2500020D01*
X3465220Y2506980D01*
X3457194Y2512618D01*
X3448253Y2516733D01*
X3438804Y2519273D01*
X3429000Y2520137D01*
X3419195Y2519273D01*
X3409746Y2516733D01*
X3400806Y2512618D01*
X3392779Y2506980D01*
X3385820Y2500020D01*
X3380181Y2491994D01*
X3376066Y2483053D01*
X3373526Y2473604D01*
X3372662Y2463800D01*
X3373526Y2453995D01*
X3376066Y2444546D01*
X3377133Y2442210D01*
X3378098Y2437892D01*
X3378098Y2057907D01*
X3377133Y2053589D01*
X3376066Y2051253D01*
X3373526Y2041804D01*
X3372662Y2032000D01*
X3373526Y2022195D01*
X3376066Y2012746D01*
X3380181Y2003806D01*
X3385820Y1995779D01*
X3392779Y1988820D01*
X3400806Y1983181D01*
X3409746Y1979066D01*
X3419195Y1976526D01*
G37*
G36*
X5080000Y1975662D02*
G01*
X5089804Y1976526D01*
X5099253Y1979066D01*
X5108194Y1983181D01*
X5116220Y1988820D01*
X5123180Y1995779D01*
X5128818Y2003806D01*
X5132933Y2012746D01*
X5135473Y2022195D01*
X5136337Y2032000D01*
X5135473Y2041804D01*
X5132933Y2051253D01*
X5131866Y2053589D01*
X5130901Y2057907D01*
X5130901Y2298192D01*
X5131866Y2302510D01*
X5132933Y2304846D01*
X5135473Y2314295D01*
X5136337Y2324100D01*
X5135473Y2333904D01*
X5132933Y2343353D01*
X5131866Y2345690D01*
X5130901Y2350008D01*
X5130901Y4914392D01*
X5131866Y4918710D01*
X5132933Y4921046D01*
X5135473Y4930495D01*
X5136337Y4940300D01*
X5135473Y4950104D01*
X5132933Y4959553D01*
X5131866Y4961890D01*
X5130901Y4966208D01*
X5130901Y5562092D01*
X5131866Y5566410D01*
X5132933Y5568746D01*
X5135473Y5578195D01*
X5136337Y5588000D01*
X5135473Y5597804D01*
X5132933Y5607253D01*
X5128818Y5616194D01*
X5123180Y5624220D01*
X5116220Y5631180D01*
X5108194Y5636818D01*
X5099253Y5640933D01*
X5089804Y5643473D01*
X5080000Y5644337D01*
X5070195Y5643473D01*
X5060746Y5640933D01*
X5051806Y5636818D01*
X5043779Y5631180D01*
X5036820Y5624220D01*
X5031181Y5616194D01*
X5027066Y5607253D01*
X5024526Y5597804D01*
X5023662Y5588000D01*
X5024526Y5578195D01*
X5027066Y5568746D01*
X5028133Y5566410D01*
X5029098Y5562092D01*
X5029098Y4966208D01*
X5028133Y4961890D01*
X5027066Y4959553D01*
X5024526Y4950104D01*
X5023662Y4940300D01*
X5024526Y4930495D01*
X5027066Y4921046D01*
X5028133Y4918659D01*
X5029098Y4914392D01*
X5029098Y2350008D01*
X5028133Y2345690D01*
X5027066Y2343353D01*
X5024526Y2333904D01*
X5023662Y2324100D01*
X5024526Y2314295D01*
X5027066Y2304846D01*
X5028133Y2302510D01*
X5029098Y2298192D01*
X5029098Y2057907D01*
X5028133Y2053589D01*
X5027066Y2051253D01*
X5024526Y2041804D01*
X5023662Y2032000D01*
X5024526Y2022195D01*
X5027066Y2012746D01*
X5031181Y2003806D01*
X5036820Y1995779D01*
X5043779Y1988820D01*
X5051806Y1983181D01*
X5060746Y1979066D01*
X5070195Y1976526D01*
G37*
G36*
X2413000Y2178862D02*
G01*
X2422804Y2179726D01*
X2432253Y2182266D01*
X2441194Y2186381D01*
X2449220Y2192020D01*
X2456180Y2198979D01*
X2461818Y2207006D01*
X2465933Y2215946D01*
X2468473Y2225395D01*
X2469337Y2235200D01*
X2468473Y2245004D01*
X2465933Y2254453D01*
X2461818Y2263394D01*
X2456180Y2271420D01*
X2454605Y2272995D01*
X2452370Y2276297D01*
X2451608Y2280208D01*
X2451608Y2685491D01*
X2452370Y2689402D01*
X2454605Y2692704D01*
X2456180Y2694279D01*
X2461818Y2702306D01*
X2465933Y2711246D01*
X2468473Y2720695D01*
X2469337Y2730500D01*
X2468473Y2740304D01*
X2465933Y2749753D01*
X2461818Y2758694D01*
X2456180Y2766720D01*
X2449220Y2773680D01*
X2441194Y2779318D01*
X2432253Y2783433D01*
X2422804Y2785973D01*
X2413000Y2786837D01*
X2403195Y2785973D01*
X2393746Y2783433D01*
X2384806Y2779318D01*
X2376779Y2773680D01*
X2369820Y2766720D01*
X2364181Y2758694D01*
X2360066Y2749753D01*
X2357526Y2740304D01*
X2356662Y2730500D01*
X2357526Y2720695D01*
X2360066Y2711246D01*
X2364181Y2702306D01*
X2369820Y2694279D01*
X2371394Y2692704D01*
X2373630Y2689402D01*
X2374392Y2685542D01*
X2374392Y2280208D01*
X2373630Y2276297D01*
X2371394Y2272995D01*
X2369820Y2271420D01*
X2364181Y2263394D01*
X2360066Y2254453D01*
X2357526Y2245004D01*
X2356662Y2235200D01*
X2357526Y2225395D01*
X2360066Y2215946D01*
X2364181Y2207006D01*
X2369820Y2198979D01*
X2376779Y2192020D01*
X2384806Y2186381D01*
X2393746Y2182266D01*
X2403195Y2179726D01*
G37*
G36*
X1505508Y2185924D02*
G01*
X1519123Y2186838D01*
X1532483Y2189530D01*
X1545336Y2194001D01*
X1557528Y2200198D01*
X1568754Y2207869D01*
X1578864Y2217064D01*
X1587703Y2227478D01*
X1595018Y2238959D01*
X1600758Y2251303D01*
X1604822Y2264359D01*
X1607058Y2277770D01*
X1607515Y2291435D01*
X1606143Y2304999D01*
X1602994Y2318258D01*
X1598117Y2330958D01*
X1591564Y2342946D01*
X1583436Y2353919D01*
X1573987Y2363724D01*
X1563268Y2372156D01*
X1551533Y2379116D01*
X1538986Y2384450D01*
X1525828Y2388057D01*
X1512316Y2389886D01*
X1498701Y2389886D01*
X1485188Y2388057D01*
X1472031Y2384450D01*
X1459484Y2379116D01*
X1447749Y2372156D01*
X1437030Y2363724D01*
X1427530Y2353919D01*
X1419453Y2342946D01*
X1414424Y2333752D01*
X1411579Y2330500D01*
X1407668Y2328672D01*
X1403350Y2328672D01*
X1399438Y2330500D01*
X1396593Y2333752D01*
X1391564Y2342946D01*
X1383436Y2353919D01*
X1373987Y2363724D01*
X1363268Y2372156D01*
X1351534Y2379116D01*
X1338986Y2384450D01*
X1325829Y2388057D01*
X1318209Y2389073D01*
X1318209Y2300732D01*
X1393342Y2300732D01*
X1397152Y2299970D01*
X1400403Y2297836D01*
X1402638Y2294686D01*
X1403502Y2290876D01*
X1403654Y2285796D01*
X1402994Y2281834D01*
X1400810Y2278430D01*
X1397457Y2276094D01*
X1393494Y2275332D01*
X1318209Y2275332D01*
X1318209Y2186787D01*
X1332484Y2189530D01*
X1345336Y2194001D01*
X1357528Y2200198D01*
X1368755Y2207869D01*
X1378864Y2217064D01*
X1387703Y2227478D01*
X1395018Y2238959D01*
X1396288Y2241651D01*
X1398524Y2244750D01*
X1401724Y2246833D01*
X1405483Y2247544D01*
X1409242Y2246833D01*
X1412494Y2244750D01*
X1414729Y2241651D01*
X1415999Y2238959D01*
X1423314Y2227478D01*
X1432102Y2217064D01*
X1442212Y2207869D01*
X1453489Y2200198D01*
X1465630Y2194001D01*
X1478534Y2189530D01*
X1491894Y2186838D01*
G37*
G36*
X1292809Y2186787D02*
G01*
X1292809Y2275332D01*
X1204366Y2275332D01*
X1206195Y2264359D01*
X1210259Y2251303D01*
X1215999Y2238959D01*
X1223314Y2227478D01*
X1232103Y2217064D01*
X1242212Y2207869D01*
X1253490Y2200198D01*
X1265631Y2194001D01*
X1278534Y2189530D01*
G37*
G36*
X4559300Y5473039D02*
G01*
X4559300Y5575300D01*
X4456887Y5575300D01*
X4457039Y5573471D01*
X4459732Y5559196D01*
X4464253Y5545328D01*
X4470450Y5532170D01*
X4478223Y5519877D01*
X4487519Y5508650D01*
X4498136Y5498693D01*
X4509922Y5490159D01*
X4522673Y5483148D01*
X4536186Y5477764D01*
X4550308Y5474157D01*
G37*
G36*
X2286000Y2267762D02*
G01*
X2295804Y2268626D01*
X2305253Y2271166D01*
X2314194Y2275281D01*
X2322220Y2280920D01*
X2329180Y2287879D01*
X2334818Y2295906D01*
X2338933Y2304846D01*
X2341473Y2314295D01*
X2342337Y2324100D01*
X2341473Y2333904D01*
X2338933Y2343353D01*
X2334818Y2352294D01*
X2329180Y2360320D01*
X2327605Y2361895D01*
X2325370Y2365197D01*
X2324608Y2369108D01*
X2324608Y4044391D01*
X2325370Y4048302D01*
X2327605Y4051604D01*
X2329180Y4053179D01*
X2334818Y4061206D01*
X2338933Y4070146D01*
X2341473Y4079595D01*
X2342337Y4089400D01*
X2341473Y4099204D01*
X2338933Y4108653D01*
X2334818Y4117594D01*
X2329180Y4125620D01*
X2327605Y4127195D01*
X2325370Y4130497D01*
X2324608Y4134408D01*
X2324608Y4895291D01*
X2325370Y4899202D01*
X2327605Y4902504D01*
X2329180Y4904079D01*
X2334818Y4912106D01*
X2338933Y4921046D01*
X2341473Y4930495D01*
X2342337Y4940300D01*
X2341473Y4950104D01*
X2338933Y4959553D01*
X2334818Y4968494D01*
X2329180Y4976520D01*
X2322220Y4983480D01*
X2314194Y4989118D01*
X2305253Y4993233D01*
X2295804Y4995773D01*
X2286000Y4996637D01*
X2276195Y4995773D01*
X2266746Y4993233D01*
X2257806Y4989118D01*
X2249779Y4983480D01*
X2242820Y4976520D01*
X2237181Y4968494D01*
X2233066Y4959553D01*
X2230526Y4950104D01*
X2229662Y4940300D01*
X2230526Y4930495D01*
X2233066Y4921046D01*
X2237181Y4912106D01*
X2242820Y4904079D01*
X2244394Y4902504D01*
X2246630Y4899202D01*
X2247392Y4895291D01*
X2247392Y4134408D01*
X2246630Y4130497D01*
X2244394Y4127195D01*
X2242820Y4125620D01*
X2237181Y4117594D01*
X2233066Y4108653D01*
X2230526Y4099204D01*
X2229662Y4089400D01*
X2230526Y4079595D01*
X2233066Y4070146D01*
X2237181Y4061206D01*
X2242820Y4053179D01*
X2244394Y4051604D01*
X2246630Y4048302D01*
X2247392Y4044391D01*
X2247392Y2369108D01*
X2246630Y2365197D01*
X2244394Y2361895D01*
X2242820Y2360320D01*
X2237181Y2352294D01*
X2233066Y2343353D01*
X2230526Y2333904D01*
X2229662Y2324100D01*
X2230526Y2314295D01*
X2233066Y2304846D01*
X2237181Y2295906D01*
X2242820Y2287879D01*
X2249779Y2280920D01*
X2257806Y2275281D01*
X2266746Y2271166D01*
X2276195Y2268626D01*
G37*
G36*
X4818735Y5472328D02*
G01*
X4833264Y5472328D01*
X4847691Y5474157D01*
X4861814Y5477764D01*
X4875326Y5483148D01*
X4888077Y5490159D01*
X4899863Y5498693D01*
X4910480Y5508650D01*
X4919776Y5519877D01*
X4927549Y5532170D01*
X4933746Y5545328D01*
X4938268Y5559196D01*
X4940960Y5573471D01*
X4941874Y5588000D01*
X4940960Y5602528D01*
X4938268Y5616803D01*
X4933746Y5630672D01*
X4927549Y5643829D01*
X4919776Y5656122D01*
X4910480Y5667349D01*
X4899863Y5677306D01*
X4888077Y5685840D01*
X4875326Y5692851D01*
X4861814Y5698236D01*
X4847691Y5701842D01*
X4833264Y5703671D01*
X4818735Y5703671D01*
X4804308Y5701842D01*
X4790186Y5698236D01*
X4776673Y5692851D01*
X4763922Y5685840D01*
X4752136Y5677306D01*
X4741519Y5667349D01*
X4732223Y5656122D01*
X4724450Y5643829D01*
X4718253Y5630672D01*
X4713732Y5616803D01*
X4711039Y5602528D01*
X4710125Y5588000D01*
X4711039Y5573471D01*
X4713732Y5559196D01*
X4718253Y5545328D01*
X4724450Y5532170D01*
X4732223Y5519877D01*
X4741519Y5508650D01*
X4752136Y5498693D01*
X4763922Y5490159D01*
X4776673Y5483148D01*
X4790186Y5477764D01*
X4804308Y5474157D01*
G37*
G36*
X3746500Y2280462D02*
G01*
X3756304Y2281326D01*
X3765753Y2283866D01*
X3774694Y2287981D01*
X3782720Y2293620D01*
X3789679Y2300579D01*
X3795318Y2308606D01*
X3799433Y2317546D01*
X3801973Y2326995D01*
X3802837Y2336800D01*
X3801973Y2346604D01*
X3799433Y2356053D01*
X3798366Y2358390D01*
X3797401Y2362708D01*
X3797401Y2564892D01*
X3798366Y2569210D01*
X3799433Y2571546D01*
X3801973Y2580995D01*
X3802837Y2590800D01*
X3801973Y2600604D01*
X3799433Y2610053D01*
X3798366Y2612390D01*
X3797401Y2616708D01*
X3797401Y2933192D01*
X3798366Y2937510D01*
X3799433Y2939846D01*
X3801973Y2949295D01*
X3802837Y2959100D01*
X3801973Y2968904D01*
X3799433Y2978353D01*
X3795318Y2987294D01*
X3789679Y2995320D01*
X3788105Y2996895D01*
X3785870Y3000197D01*
X3785108Y3004108D01*
X3785108Y3714191D01*
X3785870Y3718102D01*
X3788105Y3721404D01*
X3789679Y3722979D01*
X3795318Y3731006D01*
X3799433Y3739946D01*
X3801973Y3749395D01*
X3802837Y3759200D01*
X3801973Y3769004D01*
X3799433Y3778453D01*
X3795318Y3787394D01*
X3789679Y3795420D01*
X3782720Y3802379D01*
X3774694Y3808018D01*
X3765753Y3812133D01*
X3756304Y3814673D01*
X3746500Y3815537D01*
X3736695Y3814673D01*
X3727246Y3812133D01*
X3718306Y3808018D01*
X3710279Y3802379D01*
X3703320Y3795420D01*
X3697681Y3787394D01*
X3693566Y3778453D01*
X3691026Y3769004D01*
X3690162Y3759200D01*
X3691026Y3749395D01*
X3693566Y3739946D01*
X3697681Y3731006D01*
X3703320Y3722979D01*
X3704894Y3721404D01*
X3707129Y3718102D01*
X3707892Y3714191D01*
X3707892Y3004108D01*
X3707129Y3000197D01*
X3704894Y2996895D01*
X3703320Y2995320D01*
X3697681Y2987294D01*
X3693566Y2978353D01*
X3691026Y2968904D01*
X3690162Y2959100D01*
X3691026Y2949295D01*
X3693566Y2939846D01*
X3694633Y2937510D01*
X3695598Y2933192D01*
X3695598Y2616708D01*
X3694633Y2612390D01*
X3693566Y2610053D01*
X3691026Y2600604D01*
X3690162Y2590800D01*
X3691026Y2580995D01*
X3693566Y2571546D01*
X3694633Y2569210D01*
X3695598Y2564892D01*
X3695598Y2362708D01*
X3694633Y2358390D01*
X3693566Y2356053D01*
X3691026Y2346604D01*
X3690162Y2336800D01*
X3691026Y2326995D01*
X3693566Y2317546D01*
X3697681Y2308606D01*
X3703320Y2300579D01*
X3710279Y2293620D01*
X3718306Y2287981D01*
X3727246Y2283866D01*
X3736695Y2281326D01*
G37*
G36*
X1204417Y2300732D02*
G01*
X1292809Y2300732D01*
X1292809Y2389073D01*
X1285189Y2388057D01*
X1272032Y2384450D01*
X1259484Y2379116D01*
X1247749Y2372156D01*
X1237030Y2363724D01*
X1227531Y2353919D01*
X1219454Y2342946D01*
X1212900Y2330958D01*
X1208024Y2318258D01*
X1204823Y2304999D01*
G37*
G36*
X4456887Y5346700D02*
G01*
X4559300Y5346700D01*
X4559300Y5448960D01*
X4550308Y5447842D01*
X4536186Y5444236D01*
X4522673Y5438851D01*
X4509922Y5431840D01*
X4498136Y5423306D01*
X4487519Y5413349D01*
X4478223Y5402122D01*
X4470450Y5389829D01*
X4464253Y5376672D01*
X4459732Y5362803D01*
X4457039Y5348528D01*
G37*
G36*
X4584700Y5346700D02*
G01*
X4687112Y5346700D01*
X4686960Y5348528D01*
X4684268Y5362803D01*
X4679746Y5376672D01*
X4673549Y5389829D01*
X4665776Y5402122D01*
X4656480Y5413349D01*
X4645863Y5423306D01*
X4634077Y5431840D01*
X4621326Y5438851D01*
X4607814Y5444236D01*
X4593691Y5447842D01*
X4584700Y5448960D01*
G37*
G36*
X1305509Y2435910D02*
G01*
X1319123Y2436825D01*
X1332484Y2439517D01*
X1345336Y2443988D01*
X1357528Y2450185D01*
X1368755Y2457856D01*
X1378864Y2467051D01*
X1387703Y2477465D01*
X1395018Y2488946D01*
X1396288Y2491638D01*
X1398524Y2494737D01*
X1401724Y2496820D01*
X1405483Y2497531D01*
X1409242Y2496820D01*
X1412494Y2494737D01*
X1414729Y2491638D01*
X1415999Y2488946D01*
X1423314Y2477465D01*
X1432102Y2467051D01*
X1442212Y2457856D01*
X1453489Y2450185D01*
X1465630Y2443988D01*
X1478534Y2439517D01*
X1491894Y2436825D01*
X1505508Y2435910D01*
X1519123Y2436825D01*
X1532483Y2439517D01*
X1545336Y2443988D01*
X1557528Y2450185D01*
X1568754Y2457856D01*
X1578864Y2467051D01*
X1587703Y2477465D01*
X1595018Y2488946D01*
X1600758Y2501290D01*
X1604822Y2514346D01*
X1607058Y2527757D01*
X1607515Y2541422D01*
X1606143Y2554986D01*
X1602994Y2568244D01*
X1598117Y2580944D01*
X1591564Y2592933D01*
X1583436Y2603906D01*
X1573987Y2613710D01*
X1563268Y2622143D01*
X1551533Y2629103D01*
X1538986Y2634437D01*
X1525828Y2638044D01*
X1512316Y2639872D01*
X1498701Y2639872D01*
X1485188Y2638044D01*
X1472031Y2634437D01*
X1459484Y2629103D01*
X1447749Y2622143D01*
X1437030Y2613710D01*
X1427530Y2603906D01*
X1419453Y2592933D01*
X1414424Y2583738D01*
X1411579Y2580487D01*
X1407668Y2578658D01*
X1403350Y2578658D01*
X1399438Y2580487D01*
X1396593Y2583738D01*
X1391564Y2592933D01*
X1383436Y2603906D01*
X1373987Y2613710D01*
X1363268Y2622143D01*
X1351534Y2629103D01*
X1338986Y2634437D01*
X1325829Y2638044D01*
X1312316Y2639872D01*
X1298702Y2639872D01*
X1285189Y2638044D01*
X1272032Y2634437D01*
X1259484Y2629103D01*
X1247749Y2622143D01*
X1237030Y2613710D01*
X1227531Y2603906D01*
X1219454Y2592933D01*
X1212900Y2580944D01*
X1208024Y2568244D01*
X1204823Y2554986D01*
X1203452Y2541422D01*
X1203909Y2527757D01*
X1206195Y2514346D01*
X1210259Y2501290D01*
X1215999Y2488946D01*
X1223314Y2477465D01*
X1232103Y2467051D01*
X1242212Y2457856D01*
X1253490Y2450185D01*
X1265631Y2443988D01*
X1278534Y2439517D01*
X1291894Y2436825D01*
G37*
G36*
X4559300Y5219039D02*
G01*
X4559300Y5321300D01*
X4456887Y5321300D01*
X4457039Y5319471D01*
X4459732Y5305196D01*
X4464253Y5291328D01*
X4470450Y5278170D01*
X4478223Y5265877D01*
X4487519Y5254650D01*
X4498136Y5244693D01*
X4509922Y5236159D01*
X4522673Y5229148D01*
X4536186Y5223764D01*
X4550308Y5220157D01*
G37*
G36*
X2159000Y2448153D02*
G01*
X2168804Y2449017D01*
X2178253Y2451557D01*
X2187194Y2455672D01*
X2195220Y2461310D01*
X2202180Y2468270D01*
X2207818Y2476296D01*
X2211933Y2485237D01*
X2214473Y2494686D01*
X2215337Y2504490D01*
X2214473Y2514295D01*
X2211933Y2523744D01*
X2207818Y2532684D01*
X2202180Y2540711D01*
X2200605Y2542286D01*
X2198370Y2545588D01*
X2197608Y2549499D01*
X2197608Y3955491D01*
X2198370Y3959402D01*
X2200605Y3962704D01*
X2202180Y3964279D01*
X2207818Y3972306D01*
X2211933Y3981246D01*
X2214473Y3990695D01*
X2215337Y4000500D01*
X2214473Y4010304D01*
X2211933Y4019753D01*
X2207818Y4028694D01*
X2202180Y4036720D01*
X2195220Y4043679D01*
X2187194Y4049318D01*
X2178253Y4053433D01*
X2168804Y4055973D01*
X2159000Y4056837D01*
X2149195Y4055973D01*
X2139746Y4053433D01*
X2130806Y4049318D01*
X2122779Y4043679D01*
X2115820Y4036720D01*
X2110181Y4028694D01*
X2106066Y4019753D01*
X2103526Y4010304D01*
X2102662Y4000500D01*
X2103526Y3990695D01*
X2106066Y3981246D01*
X2110181Y3972306D01*
X2115820Y3964279D01*
X2117394Y3962704D01*
X2119630Y3959402D01*
X2120392Y3955491D01*
X2120392Y2549499D01*
X2119630Y2545588D01*
X2117394Y2542286D01*
X2115820Y2540711D01*
X2110181Y2532684D01*
X2106066Y2523744D01*
X2103526Y2514295D01*
X2102662Y2504490D01*
X2103526Y2494686D01*
X2106066Y2485237D01*
X2110181Y2476296D01*
X2115820Y2468270D01*
X2122779Y2461310D01*
X2130806Y2455672D01*
X2139746Y2451557D01*
X2149195Y2449017D01*
G37*
G36*
X4792167Y2454300D02*
G01*
X4792167Y2639415D01*
X4607102Y2639415D01*
X4607458Y2632659D01*
X4610303Y2613406D01*
X4615027Y2594508D01*
X4621580Y2576169D01*
X4629912Y2558592D01*
X4639919Y2541879D01*
X4651502Y2526233D01*
X4664608Y2511806D01*
X4679035Y2498750D01*
X4694682Y2487117D01*
X4711344Y2477109D01*
X4728972Y2468778D01*
X4747310Y2462225D01*
X4766208Y2457500D01*
X4785461Y2454656D01*
G37*
G36*
X4817567Y2454300D02*
G01*
X4824323Y2454656D01*
X4843576Y2457500D01*
X4862474Y2462225D01*
X4880813Y2468778D01*
X4898390Y2477109D01*
X4915103Y2487117D01*
X4930749Y2498750D01*
X4945176Y2511806D01*
X4958232Y2526233D01*
X4969865Y2541879D01*
X4979873Y2558592D01*
X4988204Y2576169D01*
X4994757Y2594508D01*
X4999482Y2613406D01*
X5002326Y2632659D01*
X5002682Y2639415D01*
X4817567Y2639415D01*
G37*
G36*
X4584700Y5219039D02*
G01*
X4593691Y5220157D01*
X4607814Y5223764D01*
X4621326Y5229148D01*
X4634077Y5236159D01*
X4645863Y5244693D01*
X4656480Y5254650D01*
X4665776Y5265877D01*
X4673549Y5278170D01*
X4679746Y5291328D01*
X4684268Y5305196D01*
X4686960Y5319471D01*
X4687112Y5321300D01*
X4584700Y5321300D01*
G37*
G36*
X4607102Y2664815D02*
G01*
X4792167Y2664815D01*
X4792167Y2849880D01*
X4785461Y2849524D01*
X4766208Y2846679D01*
X4747310Y2841955D01*
X4728972Y2835402D01*
X4711344Y2827070D01*
X4694682Y2817063D01*
X4679035Y2805480D01*
X4664608Y2792374D01*
X4651502Y2777947D01*
X4639919Y2762300D01*
X4629912Y2745638D01*
X4621580Y2728010D01*
X4615027Y2709672D01*
X4610303Y2690774D01*
X4607458Y2671521D01*
G37*
G36*
X4817567Y2664815D02*
G01*
X5002682Y2664815D01*
X5002326Y2671521D01*
X4999482Y2690774D01*
X4994757Y2709672D01*
X4988204Y2728010D01*
X4979873Y2745638D01*
X4969865Y2762300D01*
X4958232Y2777947D01*
X4945176Y2792374D01*
X4930749Y2805480D01*
X4915103Y2817063D01*
X4898390Y2827070D01*
X4880813Y2835402D01*
X4862474Y2841955D01*
X4843576Y2846679D01*
X4824323Y2849524D01*
X4817567Y2849880D01*
G37*
G36*
X3213100Y2826562D02*
G01*
X3222904Y2827426D01*
X3232353Y2829966D01*
X3241294Y2834081D01*
X3249320Y2839720D01*
X3256279Y2846679D01*
X3261918Y2854706D01*
X3266033Y2863646D01*
X3268573Y2873095D01*
X3269437Y2882900D01*
X3268573Y2892704D01*
X3266033Y2902153D01*
X3261918Y2911094D01*
X3256279Y2919120D01*
X3254705Y2920695D01*
X3252470Y2923997D01*
X3251708Y2927908D01*
X3251708Y3409391D01*
X3252470Y3413302D01*
X3254705Y3416604D01*
X3256279Y3418179D01*
X3261918Y3426206D01*
X3266033Y3435146D01*
X3268573Y3444595D01*
X3269437Y3454400D01*
X3268573Y3464204D01*
X3266033Y3473653D01*
X3261918Y3482594D01*
X3256279Y3490620D01*
X3249320Y3497579D01*
X3241294Y3503218D01*
X3232353Y3507333D01*
X3222904Y3509873D01*
X3213100Y3510737D01*
X3203295Y3509873D01*
X3193846Y3507333D01*
X3184906Y3503218D01*
X3176879Y3497579D01*
X3169920Y3490620D01*
X3164281Y3482594D01*
X3160166Y3473653D01*
X3157626Y3464204D01*
X3156762Y3454400D01*
X3157626Y3444595D01*
X3160166Y3435146D01*
X3164281Y3426206D01*
X3169920Y3418179D01*
X3171494Y3416604D01*
X3173730Y3413302D01*
X3174492Y3409391D01*
X3174492Y2927908D01*
X3173730Y2923997D01*
X3171494Y2920695D01*
X3169920Y2919120D01*
X3164281Y2911094D01*
X3160166Y2902153D01*
X3157626Y2892704D01*
X3156762Y2882900D01*
X3157626Y2873095D01*
X3160166Y2863646D01*
X3164281Y2854706D01*
X3169920Y2846679D01*
X3176879Y2839720D01*
X3184906Y2834081D01*
X3193846Y2829966D01*
X3203295Y2827426D01*
G37*
G36*
X5473700Y105562D02*
G01*
X5478322Y105664D01*
X5501284Y108051D01*
X5523992Y112369D01*
X5546242Y118618D01*
X5567883Y126644D01*
X5588812Y136499D01*
X5608828Y148031D01*
X5627776Y161239D01*
X5645607Y175971D01*
X5662117Y192125D01*
X5677204Y209600D01*
X5690819Y228295D01*
X5702757Y248107D01*
X5713018Y268782D01*
X5721553Y290271D01*
X5728208Y312369D01*
X5733034Y334975D01*
X5735929Y357886D01*
X5736336Y368300D01*
X5473700Y368300D01*
G37*
G36*
X3073400Y2928162D02*
G01*
X3083204Y2929026D01*
X3092653Y2931566D01*
X3101594Y2935681D01*
X3109620Y2941320D01*
X3116580Y2948279D01*
X3122218Y2956306D01*
X3126333Y2965246D01*
X3128873Y2974695D01*
X3129737Y2984500D01*
X3128873Y2994304D01*
X3126333Y3003753D01*
X3122218Y3012694D01*
X3116580Y3020720D01*
X3115005Y3022295D01*
X3112770Y3025597D01*
X3112008Y3029508D01*
X3112008Y3142691D01*
X3112770Y3146602D01*
X3115005Y3149904D01*
X3116580Y3151479D01*
X3122218Y3159506D01*
X3126333Y3168446D01*
X3128873Y3177895D01*
X3129737Y3187700D01*
X3128873Y3197504D01*
X3126333Y3206953D01*
X3122218Y3215894D01*
X3116580Y3223920D01*
X3109620Y3230880D01*
X3101594Y3236518D01*
X3092653Y3240633D01*
X3083204Y3243173D01*
X3073400Y3244037D01*
X3063595Y3243173D01*
X3054146Y3240633D01*
X3045206Y3236518D01*
X3037179Y3230880D01*
X3030220Y3223920D01*
X3024581Y3215894D01*
X3020466Y3206953D01*
X3017926Y3197504D01*
X3017062Y3187700D01*
X3017926Y3177895D01*
X3020466Y3168446D01*
X3024581Y3159506D01*
X3030220Y3151479D01*
X3031794Y3149904D01*
X3034030Y3146602D01*
X3034792Y3142691D01*
X3034792Y3029508D01*
X3034030Y3025597D01*
X3031794Y3022295D01*
X3030220Y3020720D01*
X3024581Y3012694D01*
X3020466Y3003753D01*
X3017926Y2994304D01*
X3017062Y2984500D01*
X3017926Y2974695D01*
X3020466Y2965246D01*
X3024581Y2956306D01*
X3030220Y2948279D01*
X3037179Y2941320D01*
X3045206Y2935681D01*
X3054146Y2931566D01*
X3063595Y2929026D01*
G37*
G36*
X4533900Y3111652D02*
G01*
X4547158Y3112566D01*
X4560163Y3115259D01*
X4572711Y3119729D01*
X4584547Y3125825D01*
X4595368Y3133496D01*
X4605121Y3142589D01*
X4613503Y3152902D01*
X4620412Y3164281D01*
X4625695Y3176473D01*
X4629302Y3189274D01*
X4631131Y3202432D01*
X4631131Y3215741D01*
X4629302Y3228898D01*
X4625695Y3241700D01*
X4620412Y3253892D01*
X4613503Y3265271D01*
X4605121Y3275584D01*
X4595368Y3284677D01*
X4584547Y3292348D01*
X4572711Y3298444D01*
X4569764Y3299510D01*
X4566208Y3301644D01*
X4563821Y3305048D01*
X4563008Y3309112D01*
X4563821Y3313125D01*
X4566208Y3316528D01*
X4569764Y3318662D01*
X4572711Y3319729D01*
X4584547Y3325825D01*
X4595368Y3333496D01*
X4605121Y3342589D01*
X4613503Y3352901D01*
X4620412Y3364280D01*
X4625695Y3376472D01*
X4629302Y3389274D01*
X4631131Y3402431D01*
X4631131Y3415741D01*
X4629302Y3428898D01*
X4625695Y3441700D01*
X4620412Y3453892D01*
X4613503Y3465271D01*
X4605121Y3475583D01*
X4595368Y3484676D01*
X4584547Y3492347D01*
X4572711Y3498443D01*
X4560163Y3502914D01*
X4547158Y3505606D01*
X4533900Y3506520D01*
X4520641Y3505606D01*
X4507585Y3502914D01*
X4495088Y3498443D01*
X4483252Y3492347D01*
X4472432Y3484676D01*
X4462678Y3475583D01*
X4454296Y3465271D01*
X4447387Y3453892D01*
X4442104Y3441700D01*
X4438497Y3428898D01*
X4436668Y3415741D01*
X4436668Y3402431D01*
X4438497Y3389274D01*
X4442104Y3376472D01*
X4447387Y3364280D01*
X4454296Y3352901D01*
X4462678Y3342589D01*
X4472432Y3333496D01*
X4483252Y3325825D01*
X4495088Y3319729D01*
X4498035Y3318662D01*
X4501591Y3316528D01*
X4503978Y3313125D01*
X4504791Y3309112D01*
X4503978Y3305048D01*
X4501591Y3301644D01*
X4498035Y3299510D01*
X4495088Y3298444D01*
X4483252Y3292348D01*
X4472432Y3284677D01*
X4462678Y3275584D01*
X4454296Y3265271D01*
X4447387Y3253892D01*
X4442104Y3241700D01*
X4438497Y3228898D01*
X4436668Y3215741D01*
X4436668Y3202432D01*
X4438497Y3189274D01*
X4442104Y3176473D01*
X4447387Y3164281D01*
X4454296Y3152902D01*
X4462678Y3142589D01*
X4472432Y3133496D01*
X4483252Y3125825D01*
X4495088Y3119729D01*
X4507585Y3115259D01*
X4520641Y3112566D01*
G37*
G36*
X1034491Y3413099D02*
G01*
X1052576Y3414014D01*
X1070508Y3416808D01*
X1087983Y3421430D01*
X1104950Y3427831D01*
X1121156Y3435908D01*
X1136446Y3445611D01*
X1150620Y3456889D01*
X1163574Y3469538D01*
X1175207Y3483406D01*
X1185316Y3498443D01*
X1193800Y3514445D01*
X1200658Y3531209D01*
X1205687Y3548583D01*
X1208938Y3566414D01*
X1210360Y3584448D01*
X1209903Y3602583D01*
X1207566Y3620515D01*
X1203401Y3638143D01*
X1197457Y3655263D01*
X1189786Y3671671D01*
X1180439Y3687165D01*
X1169568Y3701694D01*
X1157274Y3714953D01*
X1143660Y3726942D01*
X1128928Y3737406D01*
X1113129Y3746347D01*
X1096568Y3753561D01*
X1092504Y3754882D01*
X1088796Y3756964D01*
X1086307Y3760419D01*
X1085443Y3764534D01*
X1085443Y4617466D01*
X1086256Y4621428D01*
X1088542Y4624781D01*
X1091996Y4626965D01*
X1104950Y4631842D01*
X1121156Y4639919D01*
X1136446Y4649622D01*
X1150620Y4660900D01*
X1163574Y4673549D01*
X1175207Y4687417D01*
X1185316Y4702454D01*
X1193800Y4718456D01*
X1200658Y4735220D01*
X1205687Y4752594D01*
X1208938Y4770424D01*
X1210360Y4788458D01*
X1209903Y4806594D01*
X1207566Y4824526D01*
X1203401Y4842154D01*
X1197457Y4859274D01*
X1189786Y4875682D01*
X1180439Y4891176D01*
X1169568Y4905705D01*
X1157274Y4918964D01*
X1143660Y4930952D01*
X1128928Y4941417D01*
X1113129Y4950358D01*
X1096568Y4957572D01*
X1079296Y4963109D01*
X1061567Y4966817D01*
X1043584Y4968646D01*
X1025448Y4968646D01*
X1007465Y4966817D01*
X989736Y4963109D01*
X972464Y4957572D01*
X955852Y4950358D01*
X940104Y4941417D01*
X925321Y4930952D01*
X911758Y4918964D01*
X899464Y4905705D01*
X888593Y4891176D01*
X879246Y4875682D01*
X871575Y4859274D01*
X865632Y4842154D01*
X861466Y4824526D01*
X859129Y4806594D01*
X858672Y4788458D01*
X860094Y4770424D01*
X863295Y4752594D01*
X868375Y4735220D01*
X875182Y4718456D01*
X883716Y4702454D01*
X893826Y4687417D01*
X905408Y4673549D01*
X918413Y4660900D01*
X932586Y4649622D01*
X947877Y4639919D01*
X964082Y4631842D01*
X977036Y4626965D01*
X980490Y4624781D01*
X982776Y4621428D01*
X983589Y4617415D01*
X983589Y3764584D01*
X982726Y3760419D01*
X980236Y3756964D01*
X976528Y3754882D01*
X972464Y3753561D01*
X955852Y3746347D01*
X940104Y3737406D01*
X925321Y3726942D01*
X911758Y3714953D01*
X899464Y3701694D01*
X888593Y3687165D01*
X879246Y3671671D01*
X871575Y3655263D01*
X865632Y3638143D01*
X861466Y3620515D01*
X859129Y3602583D01*
X858672Y3584448D01*
X860094Y3566414D01*
X863295Y3548583D01*
X868375Y3531209D01*
X875182Y3514445D01*
X883716Y3498443D01*
X893826Y3483406D01*
X905408Y3469538D01*
X918413Y3456889D01*
X932586Y3445611D01*
X947877Y3435908D01*
X964082Y3427831D01*
X980998Y3421430D01*
X998524Y3416808D01*
X1016406Y3414014D01*
G37*
G36*
X4521200Y3562553D02*
G01*
X4521200Y3646424D01*
X4437532Y3646424D01*
X4438497Y3639261D01*
X4442104Y3626459D01*
X4447387Y3614267D01*
X4454296Y3602888D01*
X4462678Y3592576D01*
X4472432Y3583533D01*
X4483252Y3575862D01*
X4495088Y3569715D01*
X4507585Y3565296D01*
G37*
G36*
X4546600Y3562553D02*
G01*
X4560163Y3565296D01*
X4572711Y3569715D01*
X4584547Y3575862D01*
X4595368Y3583533D01*
X4605121Y3592576D01*
X4613503Y3602888D01*
X4620412Y3614267D01*
X4625695Y3626459D01*
X4629302Y3639261D01*
X4630267Y3646424D01*
X4546600Y3646424D01*
G37*
G36*
X2927197Y3588562D02*
G01*
X2937002Y3589426D01*
X2946450Y3591966D01*
X2955391Y3596081D01*
X2963418Y3601720D01*
X2970377Y3608679D01*
X2976016Y3616706D01*
X2980131Y3625646D01*
X2982671Y3635095D01*
X2983534Y3644900D01*
X2982671Y3654704D01*
X2980131Y3664153D01*
X2976016Y3673094D01*
X2970377Y3681120D01*
X2968802Y3682695D01*
X2966567Y3685997D01*
X2965805Y3689908D01*
X2965805Y5034991D01*
X2966567Y5038902D01*
X2968802Y5042204D01*
X2970377Y5043779D01*
X2976016Y5051806D01*
X2980131Y5060746D01*
X2982671Y5070195D01*
X2983534Y5080000D01*
X2982671Y5089804D01*
X2980131Y5099253D01*
X2976016Y5108194D01*
X2970377Y5116220D01*
X2963418Y5123180D01*
X2955391Y5128818D01*
X2946450Y5132933D01*
X2937002Y5135473D01*
X2927197Y5136337D01*
X2917393Y5135473D01*
X2907944Y5132933D01*
X2899003Y5128818D01*
X2890977Y5123180D01*
X2884017Y5116220D01*
X2878378Y5108194D01*
X2874264Y5099253D01*
X2871724Y5089804D01*
X2870860Y5080000D01*
X2871724Y5070195D01*
X2874264Y5060746D01*
X2878378Y5051806D01*
X2884017Y5043779D01*
X2885592Y5042204D01*
X2887827Y5038902D01*
X2888589Y5034991D01*
X2888589Y3689908D01*
X2887827Y3685997D01*
X2885592Y3682695D01*
X2884017Y3681120D01*
X2878378Y3673094D01*
X2874264Y3664153D01*
X2871724Y3654704D01*
X2870860Y3644900D01*
X2871724Y3635095D01*
X2874264Y3625646D01*
X2878378Y3616706D01*
X2884017Y3608679D01*
X2890977Y3601720D01*
X2899003Y3596081D01*
X2907944Y3591966D01*
X2917393Y3589426D01*
G37*
G36*
X4437532Y3671824D02*
G01*
X4521200Y3671824D01*
X4521200Y3755644D01*
X4507585Y3752900D01*
X4495088Y3748481D01*
X4483252Y3742334D01*
X4472432Y3734663D01*
X4462678Y3725621D01*
X4454296Y3715308D01*
X4447387Y3703929D01*
X4442104Y3691737D01*
X4438497Y3678936D01*
G37*
G36*
X4546600Y3671824D02*
G01*
X4630267Y3671824D01*
X4629302Y3678936D01*
X4625695Y3691737D01*
X4620412Y3703929D01*
X4613503Y3715308D01*
X4605121Y3725621D01*
X4595368Y3734663D01*
X4584547Y3742334D01*
X4572711Y3748481D01*
X4560163Y3752900D01*
X4546600Y3755644D01*
G37*
G36*
X4792167Y3768344D02*
G01*
X4792167Y3953408D01*
X4607102Y3953408D01*
X4607458Y3946651D01*
X4610303Y3927398D01*
X4615027Y3908501D01*
X4621580Y3890162D01*
X4629912Y3872585D01*
X4639919Y3855872D01*
X4651502Y3840226D01*
X4664608Y3825798D01*
X4679035Y3812743D01*
X4694682Y3801160D01*
X4711344Y3791153D01*
X4728972Y3782822D01*
X4747310Y3776268D01*
X4766208Y3771544D01*
X4785461Y3768648D01*
G37*
G36*
X4817567Y3768344D02*
G01*
X4824323Y3768648D01*
X4843576Y3771544D01*
X4862474Y3776268D01*
X4880813Y3782822D01*
X4898390Y3791153D01*
X4915103Y3801160D01*
X4930749Y3812743D01*
X4945176Y3825798D01*
X4958232Y3840226D01*
X4969865Y3855872D01*
X4979873Y3872585D01*
X4988204Y3890162D01*
X4994757Y3908501D01*
X4999482Y3927398D01*
X5002326Y3946651D01*
X5002682Y3953408D01*
X4817567Y3953408D01*
G37*
G36*
X1505508Y3963924D02*
G01*
X1519123Y3964838D01*
X1532483Y3967530D01*
X1545336Y3972001D01*
X1557528Y3978148D01*
X1568754Y3985869D01*
X1578864Y3995013D01*
X1587703Y4005427D01*
X1595018Y4016959D01*
X1600758Y4029303D01*
X1604822Y4042359D01*
X1607058Y4055770D01*
X1607515Y4069435D01*
X1606143Y4082999D01*
X1602994Y4096258D01*
X1598117Y4108958D01*
X1591564Y4120946D01*
X1583436Y4131919D01*
X1573987Y4141724D01*
X1563268Y4150156D01*
X1551533Y4157116D01*
X1538986Y4162450D01*
X1525828Y4166057D01*
X1512316Y4167886D01*
X1498701Y4167886D01*
X1485188Y4166057D01*
X1472031Y4162450D01*
X1459484Y4157116D01*
X1447749Y4150156D01*
X1437030Y4141724D01*
X1427530Y4131919D01*
X1419453Y4120946D01*
X1414424Y4111751D01*
X1411579Y4108500D01*
X1407668Y4106672D01*
X1403350Y4106672D01*
X1399438Y4108500D01*
X1396593Y4111751D01*
X1391564Y4120946D01*
X1383436Y4131919D01*
X1373987Y4141724D01*
X1363268Y4150156D01*
X1351534Y4157116D01*
X1338986Y4162450D01*
X1325829Y4166057D01*
X1318209Y4167073D01*
X1318209Y4078681D01*
X1393342Y4078681D01*
X1397152Y4077970D01*
X1400403Y4075836D01*
X1402638Y4072686D01*
X1403502Y4068876D01*
X1403654Y4063796D01*
X1402994Y4059834D01*
X1400810Y4056379D01*
X1397457Y4054094D01*
X1393494Y4053281D01*
X1318209Y4053281D01*
X1318209Y3964787D01*
X1332484Y3967530D01*
X1345336Y3972001D01*
X1357528Y3978148D01*
X1368755Y3985869D01*
X1378864Y3995013D01*
X1387703Y4005427D01*
X1395018Y4016959D01*
X1396288Y4019651D01*
X1398524Y4022750D01*
X1401724Y4024833D01*
X1405483Y4025544D01*
X1409242Y4024833D01*
X1412494Y4022750D01*
X1414729Y4019651D01*
X1415999Y4016959D01*
X1423314Y4005427D01*
X1432102Y3995013D01*
X1442212Y3985869D01*
X1453489Y3978148D01*
X1465630Y3972001D01*
X1478534Y3967530D01*
X1491894Y3964838D01*
G37*
G36*
X1292809Y3964787D02*
G01*
X1292809Y4053281D01*
X1204366Y4053281D01*
X1206195Y4042359D01*
X1210259Y4029303D01*
X1215999Y4016959D01*
X1223314Y4005427D01*
X1232103Y3995013D01*
X1242212Y3985869D01*
X1253490Y3978148D01*
X1265631Y3972001D01*
X1278534Y3967530D01*
G37*
G36*
X5448300Y5185613D02*
G01*
X5448300Y5448300D01*
X5185410Y5448300D01*
X5187289Y5426405D01*
X5191099Y5403646D01*
X5196890Y5381244D01*
X5204460Y5359450D01*
X5213858Y5338318D01*
X5224983Y5318099D01*
X5237784Y5298846D01*
X5252161Y5280710D01*
X5267960Y5263896D01*
X5285130Y5248402D01*
X5303520Y5234432D01*
X5323027Y5222036D01*
X5343499Y5211368D01*
X5364835Y5202377D01*
X5386781Y5195265D01*
X5409285Y5189982D01*
X5432145Y5186629D01*
G37*
G36*
X4817567Y3978808D02*
G01*
X5002682Y3978808D01*
X5002326Y3985564D01*
X4999482Y4004818D01*
X4994757Y4023715D01*
X4988204Y4042054D01*
X4979873Y4059631D01*
X4969865Y4076344D01*
X4958232Y4091990D01*
X4945176Y4106418D01*
X4930749Y4119473D01*
X4915103Y4131056D01*
X4898390Y4141063D01*
X4880813Y4149394D01*
X4862474Y4155948D01*
X4843576Y4160723D01*
X4824323Y4163568D01*
X4817567Y4163872D01*
G37*
G36*
X4607102Y3978808D02*
G01*
X4792167Y3978808D01*
X4792167Y4163872D01*
X4785461Y4163568D01*
X4766208Y4160723D01*
X4747310Y4155948D01*
X4728972Y4149394D01*
X4711344Y4141063D01*
X4694682Y4131056D01*
X4679035Y4119473D01*
X4664608Y4106418D01*
X4651502Y4091990D01*
X4639919Y4076344D01*
X4629912Y4059631D01*
X4621580Y4042054D01*
X4615027Y4023715D01*
X4610303Y4004818D01*
X4607458Y3985564D01*
G37*
G36*
X1204417Y4078681D02*
G01*
X1292809Y4078681D01*
X1292809Y4167073D01*
X1285189Y4166057D01*
X1272032Y4162450D01*
X1259484Y4157116D01*
X1247749Y4150156D01*
X1237030Y4141724D01*
X1227531Y4131919D01*
X1219454Y4120946D01*
X1212900Y4108958D01*
X1208024Y4096258D01*
X1204823Y4082999D01*
G37*
G36*
X368300Y5185613D02*
G01*
X368300Y5448300D01*
X105410Y5448300D01*
X107289Y5426405D01*
X111099Y5403646D01*
X116890Y5381244D01*
X124460Y5359450D01*
X133858Y5338318D01*
X144983Y5318099D01*
X157784Y5298846D01*
X172161Y5280710D01*
X187960Y5263896D01*
X205130Y5248402D01*
X223520Y5234432D01*
X243027Y5222036D01*
X263499Y5211368D01*
X284835Y5202377D01*
X306781Y5195265D01*
X329285Y5189982D01*
X352145Y5186629D01*
G37*
G36*
X1305509Y4213910D02*
G01*
X1319123Y4214825D01*
X1332484Y4217517D01*
X1345336Y4221988D01*
X1357528Y4228134D01*
X1368755Y4235856D01*
X1378864Y4245000D01*
X1387703Y4255414D01*
X1395018Y4266946D01*
X1396288Y4269638D01*
X1398524Y4272737D01*
X1401724Y4274820D01*
X1405483Y4275531D01*
X1409242Y4274820D01*
X1412494Y4272737D01*
X1414729Y4269638D01*
X1415999Y4266946D01*
X1423314Y4255414D01*
X1432102Y4245000D01*
X1442212Y4235856D01*
X1453489Y4228134D01*
X1465630Y4221988D01*
X1478534Y4217517D01*
X1491894Y4214825D01*
X1505508Y4213910D01*
X1519123Y4214825D01*
X1532483Y4217517D01*
X1545336Y4221988D01*
X1557528Y4228134D01*
X1568754Y4235856D01*
X1578864Y4245000D01*
X1587703Y4255414D01*
X1595018Y4266946D01*
X1600758Y4279290D01*
X1604822Y4292346D01*
X1607058Y4305757D01*
X1607515Y4319422D01*
X1606143Y4332986D01*
X1602994Y4346244D01*
X1598117Y4358944D01*
X1591564Y4370933D01*
X1583436Y4381906D01*
X1573987Y4391710D01*
X1563268Y4400143D01*
X1551533Y4407103D01*
X1538986Y4412437D01*
X1525828Y4416044D01*
X1512316Y4417872D01*
X1498701Y4417872D01*
X1485188Y4416044D01*
X1472031Y4412437D01*
X1459484Y4407103D01*
X1447749Y4400143D01*
X1437030Y4391710D01*
X1427530Y4381906D01*
X1419453Y4370933D01*
X1414424Y4361738D01*
X1411579Y4358487D01*
X1407668Y4356658D01*
X1403350Y4356658D01*
X1399438Y4358487D01*
X1396593Y4361738D01*
X1391564Y4370933D01*
X1383436Y4381906D01*
X1373987Y4391710D01*
X1363268Y4400143D01*
X1351534Y4407103D01*
X1338986Y4412437D01*
X1325829Y4416044D01*
X1312316Y4417872D01*
X1298702Y4417872D01*
X1285189Y4416044D01*
X1272032Y4412437D01*
X1259484Y4407103D01*
X1247749Y4400143D01*
X1237030Y4391710D01*
X1227531Y4381906D01*
X1219454Y4370933D01*
X1212900Y4358944D01*
X1208024Y4346244D01*
X1204823Y4332986D01*
X1203452Y4319422D01*
X1203909Y4305757D01*
X1206195Y4292346D01*
X1210259Y4279290D01*
X1215999Y4266946D01*
X1223314Y4255414D01*
X1232103Y4245000D01*
X1242212Y4235856D01*
X1253490Y4228134D01*
X1265631Y4221988D01*
X1278534Y4217517D01*
X1291894Y4214825D01*
G37*
G36*
X5473700Y5185562D02*
G01*
X5478322Y5185664D01*
X5501284Y5188051D01*
X5523992Y5192369D01*
X5546242Y5198618D01*
X5567883Y5206644D01*
X5588812Y5216499D01*
X5608828Y5228031D01*
X5627776Y5241239D01*
X5645607Y5255971D01*
X5662117Y5272125D01*
X5677204Y5289600D01*
X5690819Y5308295D01*
X5702757Y5328107D01*
X5713018Y5348782D01*
X5721553Y5370271D01*
X5728208Y5392369D01*
X5733034Y5414975D01*
X5735929Y5437886D01*
X5736336Y5448300D01*
X5473700Y5448300D01*
G37*
G36*
X393700Y5185562D02*
G01*
X398322Y5185664D01*
X421284Y5188051D01*
X443992Y5192369D01*
X466242Y5198618D01*
X487883Y5206644D01*
X508812Y5216499D01*
X528828Y5228031D01*
X547776Y5241239D01*
X565607Y5255971D01*
X582117Y5272125D01*
X597204Y5289600D01*
X610819Y5308295D01*
X622757Y5328107D01*
X633018Y5348782D01*
X641553Y5370271D01*
X648208Y5392369D01*
X653034Y5414975D01*
X655929Y5437886D01*
X656336Y5448300D01*
X393700Y5448300D01*
G37*
G36*
X3416300Y4883962D02*
G01*
X3426104Y4884826D01*
X3435553Y4887366D01*
X3444494Y4891481D01*
X3452520Y4897120D01*
X3459479Y4904079D01*
X3465118Y4912106D01*
X3469233Y4921046D01*
X3471773Y4930495D01*
X3472637Y4940300D01*
X3471773Y4950104D01*
X3469233Y4959553D01*
X3465118Y4968494D01*
X3459479Y4976520D01*
X3457905Y4978095D01*
X3455670Y4981397D01*
X3454908Y4985308D01*
X3454908Y5327091D01*
X3455670Y5331002D01*
X3457905Y5334304D01*
X3459479Y5335879D01*
X3465118Y5343906D01*
X3469233Y5352846D01*
X3471773Y5362295D01*
X3472637Y5372100D01*
X3471773Y5381904D01*
X3469233Y5391353D01*
X3465118Y5400294D01*
X3459479Y5408320D01*
X3452520Y5415280D01*
X3444494Y5420918D01*
X3435553Y5425033D01*
X3426104Y5427573D01*
X3416300Y5428437D01*
X3406495Y5427573D01*
X3397046Y5425033D01*
X3388106Y5420918D01*
X3380079Y5415280D01*
X3373120Y5408320D01*
X3367481Y5400294D01*
X3363366Y5391353D01*
X3360826Y5381904D01*
X3359962Y5372100D01*
X3360826Y5362295D01*
X3363366Y5352846D01*
X3367481Y5343906D01*
X3373120Y5335879D01*
X3374694Y5334304D01*
X3376929Y5331002D01*
X3377692Y5327091D01*
X3377692Y4985308D01*
X3376929Y4981397D01*
X3374694Y4978095D01*
X3373120Y4976520D01*
X3367481Y4968494D01*
X3363366Y4959553D01*
X3360826Y4950104D01*
X3359962Y4940300D01*
X3360826Y4930495D01*
X3363366Y4921046D01*
X3367481Y4912106D01*
X3373120Y4904079D01*
X3380079Y4897120D01*
X3388106Y4891481D01*
X3397046Y4887366D01*
X3406495Y4884826D01*
G37*
G36*
X4826000Y5022138D02*
G01*
X4835804Y5023002D01*
X4845253Y5025542D01*
X4854194Y5029708D01*
X4862220Y5035346D01*
X4869180Y5042255D01*
X4874818Y5050332D01*
X4878933Y5059222D01*
X4881473Y5068722D01*
X4882337Y5078476D01*
X4881473Y5088280D01*
X4878933Y5097780D01*
X4874818Y5106670D01*
X4869180Y5114747D01*
X4867605Y5116322D01*
X4865370Y5119624D01*
X4864608Y5123484D01*
X4864608Y5217972D01*
X4865420Y5221935D01*
X4867656Y5225237D01*
X4871008Y5227421D01*
X4875326Y5229148D01*
X4888077Y5236159D01*
X4899863Y5244693D01*
X4910480Y5254650D01*
X4919776Y5265877D01*
X4927549Y5278170D01*
X4933746Y5291328D01*
X4938268Y5305196D01*
X4940960Y5319471D01*
X4941874Y5334000D01*
X4940960Y5348528D01*
X4938268Y5362803D01*
X4933746Y5376672D01*
X4927549Y5389829D01*
X4919776Y5402122D01*
X4910480Y5413349D01*
X4899863Y5423306D01*
X4888077Y5431840D01*
X4875326Y5438851D01*
X4861814Y5444236D01*
X4847691Y5447842D01*
X4833264Y5449671D01*
X4818735Y5449671D01*
X4804308Y5447842D01*
X4790186Y5444236D01*
X4776673Y5438851D01*
X4763922Y5431840D01*
X4752136Y5423306D01*
X4741519Y5413349D01*
X4732223Y5402122D01*
X4724450Y5389829D01*
X4718253Y5376672D01*
X4713732Y5362803D01*
X4711039Y5348528D01*
X4710125Y5334000D01*
X4711039Y5319471D01*
X4713732Y5305196D01*
X4718253Y5291328D01*
X4724450Y5278170D01*
X4732223Y5265877D01*
X4741519Y5254650D01*
X4752136Y5244693D01*
X4763922Y5236159D01*
X4776673Y5229148D01*
X4780991Y5227421D01*
X4784344Y5225237D01*
X4786579Y5221935D01*
X4787392Y5217972D01*
X4787392Y5123484D01*
X4786630Y5119624D01*
X4784394Y5116322D01*
X4782820Y5114747D01*
X4777181Y5106670D01*
X4773066Y5097780D01*
X4770526Y5088280D01*
X4769662Y5078476D01*
X4770526Y5068722D01*
X4773066Y5059222D01*
X4777181Y5050332D01*
X4782820Y5042255D01*
X4789779Y5035346D01*
X4797806Y5029708D01*
X4806746Y5025542D01*
X4816195Y5023002D01*
G37*
G36*
X4149090Y5023662D02*
G01*
X4158894Y5024526D01*
X4168343Y5027066D01*
X4177284Y5031181D01*
X4185310Y5036820D01*
X4192270Y5043779D01*
X4197908Y5051806D01*
X4202023Y5060746D01*
X4204563Y5070195D01*
X4205427Y5080000D01*
X4204563Y5089804D01*
X4202023Y5099253D01*
X4197908Y5108194D01*
X4192270Y5116220D01*
X4185310Y5123180D01*
X4177284Y5128818D01*
X4168343Y5132933D01*
X4158894Y5135473D01*
X4149090Y5136337D01*
X4139285Y5135473D01*
X4129836Y5132933D01*
X4120896Y5128818D01*
X4112869Y5123180D01*
X4105910Y5116220D01*
X4100271Y5108194D01*
X4096156Y5099253D01*
X4093616Y5089804D01*
X4092752Y5080000D01*
X4093616Y5070195D01*
X4096156Y5060746D01*
X4100271Y5051806D01*
X4105910Y5043779D01*
X4112869Y5036820D01*
X4120896Y5031181D01*
X4129836Y5027066D01*
X4139285Y5024526D01*
G37*
G36*
X4533900Y2861665D02*
G01*
X4547158Y2862580D01*
X4560163Y2865272D01*
X4572711Y2869742D01*
X4584547Y2875838D01*
X4595368Y2883509D01*
X4605121Y2892602D01*
X4613503Y2902915D01*
X4620412Y2914294D01*
X4625695Y2926486D01*
X4629302Y2939288D01*
X4631131Y2952445D01*
X4631131Y2965754D01*
X4629302Y2978912D01*
X4625695Y2991713D01*
X4620412Y3003905D01*
X4613503Y3015284D01*
X4605121Y3025597D01*
X4595368Y3034690D01*
X4584547Y3042361D01*
X4572711Y3048457D01*
X4560163Y3052927D01*
X4547158Y3055620D01*
X4533900Y3056534D01*
X4520641Y3055620D01*
X4507585Y3052927D01*
X4495088Y3048457D01*
X4483252Y3042361D01*
X4472432Y3034690D01*
X4462678Y3025597D01*
X4454296Y3015284D01*
X4447387Y3003905D01*
X4442104Y2991713D01*
X4438497Y2978912D01*
X4436668Y2965754D01*
X4436668Y2952445D01*
X4438497Y2939288D01*
X4442104Y2926486D01*
X4447387Y2914294D01*
X4454296Y2902915D01*
X4462678Y2892602D01*
X4472432Y2883509D01*
X4483252Y2875838D01*
X4495088Y2869742D01*
X4507585Y2865272D01*
X4520641Y2862580D01*
G37*

%LPD*%
D10*
X4152892Y5076184D02*
G01*
X4149084Y5079992D01*
X4825992Y5078491D02*
G01*
X4825992Y5333992D01*
X2927192Y3644892D02*
G01*
X2927192Y5079992D01*
X4047075Y508000D02*
G01*
X4047075Y2324092D01*
X3047992Y914443D02*
G01*
X3047992Y508043D01*
X2793992Y2984492D02*
G01*
X2793992Y914443D01*
X3073392Y3187743D02*
G01*
X3073392Y2984492D01*
X2539992Y2882892D02*
G01*
X2539992Y914443D01*
X3213092Y3454392D02*
G01*
X3213092Y2882892D01*
D11*
X5079992Y2031992D02*
G01*
X5079992Y2324092D01*
X5079992Y5587992D02*
G01*
X5079992Y2324092D01*
X3428992Y2463792D02*
G01*
X3428992Y2031992D01*
X3746492Y2590792D02*
G01*
X3746492Y2336792D01*
X3746492Y2590792D02*
G01*
X3746492Y2959092D01*
D10*
X3301992Y914392D02*
G01*
X3301992Y2590792D01*
X2158992Y2504485D02*
G01*
X2158992Y4000492D01*
X2273292Y4089392D02*
G01*
X2285992Y4076692D01*
X2285992Y2324092D01*
X2412992Y2730492D02*
G01*
X2412992Y2235192D01*
X2285994Y4940289D02*
G01*
X2285994Y4089392D01*
X3746492Y2959092D02*
G01*
X3746492Y3759192D01*
X3416292Y5372092D02*
G01*
X3416292Y4940292D01*
D11*
X1034514Y4792997D02*
G01*
X1034514Y3588986D01*
X1034514Y1810989D02*
G01*
X1034514Y3015000D01*
D12*
G01*
X1034508Y4792997D03*
G01*
X1034508Y3588986D03*
D13*
G01*
X1305501Y4065998D03*
G01*
X1305501Y4315985D03*
G01*
X1505501Y4315985D03*
G01*
X1505501Y4065998D03*
D12*
G01*
X1034508Y3014997D03*
G01*
X1034508Y1810986D03*
D13*
G01*
X1305501Y2287998D03*
G01*
X1305501Y2537985D03*
G01*
X1505501Y2537985D03*
G01*
X1505501Y2287998D03*
D14*
G01*
X4533892Y2959092D03*
G01*
X4533892Y3209079D03*
G01*
X4533892Y3409078D03*
G01*
X4533892Y3659090D03*
D15*
G01*
X4804884Y2652082D03*
G01*
X4804884Y3966100D03*
D16*
G01*
X380992Y5460992D03*
G01*
X380992Y380992D03*
G01*
X5460992Y380992D03*
G01*
X5460992Y5460992D03*
D17*
G01*
X3301992Y914392D03*
G01*
X2539992Y914392D03*
G01*
X2793992Y914392D03*
G01*
X3047992Y914392D03*
D18*
G01*
X4571992Y5587992D03*
G01*
X4571992Y5333992D03*
G01*
X4825992Y5333992D03*
G01*
X4825992Y5587992D03*
D19*
G01*
X4825992Y5078493D03*
G01*
X4149082Y5079992D03*
G01*
X2927189Y3644892D03*
G01*
X2927189Y5079992D03*
G01*
X4047075Y2324092D03*
G01*
X4047075Y507992D03*
G01*
X3047992Y508043D03*
G01*
X1777992Y3670292D03*
G01*
X1777992Y1892292D03*
G01*
X3962392Y2603492D03*
G01*
X4157083Y2324092D03*
G01*
X5079992Y5587992D03*
G01*
X5079992Y2324092D03*
G01*
X3073392Y3187692D03*
G01*
X2717792Y3162292D03*
G01*
X2717792Y3441692D03*
G01*
X2870192Y3111492D03*
G01*
X2984492Y3111492D03*
G01*
X3276592Y3200392D03*
G01*
X2793992Y2984492D03*
G01*
X3073392Y2984492D03*
G01*
X2539992Y2882892D03*
G01*
X3213092Y2882892D03*
G01*
X3213092Y3454392D03*
G01*
X3149592Y3200392D03*
G01*
X3149592Y3390892D03*
G01*
X3276592Y3390892D03*
G01*
X5079992Y2031992D03*
G01*
X3428992Y2463792D03*
G01*
X3428992Y2031992D03*
G01*
X3746492Y2590792D03*
G01*
X3746492Y2336792D03*
G01*
X3746492Y2959092D03*
G01*
X3301992Y2590792D03*
G01*
X2158992Y2504483D03*
G01*
X2158992Y4000492D03*
G01*
X5079992Y4940292D03*
G01*
X2285992Y4089392D03*
G01*
X2285992Y4940292D03*
G01*
X2285992Y2324092D03*
G01*
X2349492Y3340092D03*
G01*
X2349492Y3162292D03*
G01*
X2095492Y3162292D03*
G01*
X2095492Y3340092D03*
G01*
X2349492Y4724392D03*
G01*
X2222492Y4724392D03*
G01*
X2222492Y4546592D03*
G01*
X2349492Y4546592D03*
G01*
X2412992Y2730492D03*
G01*
X2412992Y2235192D03*
G01*
X2222492Y3162292D03*
G01*
X2222492Y3340092D03*
G01*
X3746492Y3759192D03*
G01*
X3682992Y3390892D03*
G01*
X3682992Y3200392D03*
G01*
X3809992Y3200392D03*
G01*
X3809992Y3390892D03*
G01*
X3416292Y5372092D03*
G01*
X3416292Y4940292D03*
M02*
