M48
METRIC,LZ,000.000
;FILE_FORMAT=3:3
;TYPE=PLATED
;Layer: PTH_Through
;EasyEDA v6.5.32, 2023-07-30 20:55:49
;df3d2865ddba4bfc9c966cc034514575,5a6b42c53f6a479593ecc07194224c93,10
;Gerber Generator version 0.2
;Holesize 1 = 0.305 mm
T01C0.305
;Holesize 2 = 1.000 mm
T02C1.000
;Holesize 3 = 1.101 mm
T03C1.101
;Holesize 4 = 1.200 mm
T04C1.200
;Holesize 5 = 1.301 mm
T05C1.301
;Holesize 6 = 3.000 mm
T06C3.000
%
G05
G90
T01
X041491Y050800
X048260Y050785
X038415Y035687
X038415Y050800
X045720Y021590
X035560Y032893
X035560Y021590
X044450Y031623
X045720Y011557
X025400Y011557
X025400Y024130
X025400Y044323
X025400Y047244
X044450Y044323
X042672Y050800
X042672Y018034
X042672Y045765
X042672Y012827
X053340Y025122
X053340Y030226
X053340Y019177
X053340Y039116
X045720Y024130
X045720Y027686
X030480Y029083
X030480Y024130
X034290Y031623
X034290Y030353
X034290Y027813
X036830Y029083
X036830Y026543
X036830Y030353
X040640Y027813
X040640Y032766
X054229Y038100
X036830Y037211
X041910Y025273
X041910Y035560
X049149Y035560
X029210Y020701
X029210Y026543
X049149Y020701
X034290Y022860
X054229Y022860
T02
X049149Y017272
X051689Y017272
X054229Y017272
X054229Y040640
X051689Y040640
X049149Y040640
T03
X048260Y055880
X048260Y053340
X045720Y053340
X045720Y055880
T04
X003531Y022530
X003531Y012522
X012522Y017196
X012522Y025171
X012522Y009881
X015519Y012395
X015519Y022682
X003531Y045898
X003531Y035890
X012522Y040564
X012522Y048539
X012522Y033249
X015519Y035763
X015519Y046050
X002540Y043503
X002540Y020135
X002540Y014986
X002540Y038354
T05
X049312Y032742
X049312Y025122
X049312Y027662
X049312Y030202
T06
X003810Y054610
X054610Y054610
X054610Y003810
X003810Y003810
M30
