G04 Layer: TopLayer*
G04 EasyEDA v6.5.32, 2023-07-25 14:04:49*
G04 c9cfb0145de049638fc0d3ee16389aac,5a6b42c53f6a479593ecc07194224c93,10*
G04 Gerber Generator version 0.2*
G04 Scale: 100 percent, Rotated: No, Reflected: No *
G04 Dimensions in millimeters *
G04 leading zeros omitted , absolute positions ,4 integer and 5 decimal *
%FSLAX45Y45*%
%MOMM*%

%ADD10C,0.2540*%
%ADD11R,1.0000X1.1000*%
%ADD12R,0.9000X0.8000*%
%ADD13R,0.8000X0.9000*%
%ADD14R,1.0000X0.6000*%
%ADD15C,5.0000*%
%ADD16C,1.8000*%
%ADD17C,1.5240*%
%ADD18C,2.0000*%
%ADD19C,0.6096*%
%ADD20C,0.0166*%

%LPD*%
G36*
X5805932Y25908D02*
G01*
X36068Y26416D01*
X32156Y27178D01*
X28905Y29362D01*
X26670Y32664D01*
X25908Y36576D01*
X25908Y5805932D01*
X26670Y5809843D01*
X28905Y5813094D01*
X32156Y5815330D01*
X36068Y5816092D01*
X5805932Y5816092D01*
X5809843Y5815330D01*
X5813094Y5813094D01*
X5815330Y5809843D01*
X5816092Y5805932D01*
X5816092Y36068D01*
X5815330Y32207D01*
X5813094Y28905D01*
X5809843Y26670D01*
G37*

%LPC*%
G36*
X4584700Y5600700D02*
G01*
X4687112Y5600700D01*
X4686960Y5602528D01*
X4684268Y5616803D01*
X4679746Y5630672D01*
X4673549Y5643829D01*
X4665776Y5656122D01*
X4656480Y5667349D01*
X4645863Y5677306D01*
X4634077Y5685840D01*
X4621326Y5692851D01*
X4607814Y5698236D01*
X4593691Y5701842D01*
X4584700Y5702960D01*
G37*
G36*
X393700Y105562D02*
G01*
X398322Y105664D01*
X421284Y108051D01*
X443992Y112369D01*
X466242Y118618D01*
X487934Y126644D01*
X508812Y136499D01*
X528828Y148031D01*
X547827Y161239D01*
X565607Y175971D01*
X582117Y192125D01*
X597204Y209600D01*
X610819Y228295D01*
X622757Y248107D01*
X633018Y268782D01*
X641553Y290271D01*
X648208Y312369D01*
X653034Y334975D01*
X655929Y357936D01*
X656336Y368300D01*
X393700Y368300D01*
G37*
G36*
X5448300Y105613D02*
G01*
X5448300Y368300D01*
X5185410Y368300D01*
X5187289Y346405D01*
X5191150Y323646D01*
X5196890Y301244D01*
X5204460Y279450D01*
X5213858Y258317D01*
X5224983Y238099D01*
X5237784Y218846D01*
X5252161Y200710D01*
X5267960Y183896D01*
X5285130Y168402D01*
X5303520Y154432D01*
X5323027Y142087D01*
X5343499Y131368D01*
X5364835Y122428D01*
X5386781Y115265D01*
X5409285Y109982D01*
X5432145Y106629D01*
G37*
G36*
X368300Y105613D02*
G01*
X368300Y368300D01*
X105410Y368300D01*
X107289Y346405D01*
X111150Y323646D01*
X116890Y301244D01*
X124460Y279450D01*
X133858Y258317D01*
X144983Y238099D01*
X157784Y218846D01*
X172161Y200710D01*
X187960Y183896D01*
X205130Y168402D01*
X223520Y154432D01*
X243027Y142087D01*
X263499Y131368D01*
X284835Y122428D01*
X306781Y115265D01*
X329285Y109982D01*
X352145Y106629D01*
G37*
G36*
X5473700Y393700D02*
G01*
X5736336Y393700D01*
X5735929Y404063D01*
X5733034Y427024D01*
X5728208Y449630D01*
X5721553Y471728D01*
X5713018Y493217D01*
X5702757Y513892D01*
X5690819Y533704D01*
X5677204Y552348D01*
X5662117Y569874D01*
X5645607Y586028D01*
X5627827Y600760D01*
X5608828Y613968D01*
X5588812Y625500D01*
X5567934Y635355D01*
X5546242Y643382D01*
X5523992Y649630D01*
X5501284Y653948D01*
X5478322Y656336D01*
X5473700Y656437D01*
G37*
G36*
X393700Y393700D02*
G01*
X656336Y393700D01*
X655929Y404063D01*
X653034Y427024D01*
X648208Y449630D01*
X641553Y471728D01*
X633018Y493217D01*
X622757Y513892D01*
X610819Y533704D01*
X597204Y552348D01*
X582117Y569874D01*
X565607Y586028D01*
X547827Y600760D01*
X528828Y613968D01*
X508812Y625500D01*
X487934Y635355D01*
X466242Y643382D01*
X443992Y649630D01*
X421284Y653948D01*
X398322Y656336D01*
X393700Y656437D01*
G37*
G36*
X5185410Y393700D02*
G01*
X5448300Y393700D01*
X5448300Y656386D01*
X5432145Y655370D01*
X5409285Y652018D01*
X5386781Y646734D01*
X5364835Y639572D01*
X5343499Y630631D01*
X5323027Y619912D01*
X5303520Y607568D01*
X5285130Y593598D01*
X5267960Y578104D01*
X5252161Y561289D01*
X5237784Y543153D01*
X5224983Y523900D01*
X5213858Y503682D01*
X5204460Y482549D01*
X5196890Y460756D01*
X5191150Y438353D01*
X5187289Y415594D01*
G37*
G36*
X105410Y393700D02*
G01*
X368300Y393700D01*
X368300Y656386D01*
X352145Y655370D01*
X329285Y652018D01*
X306781Y646734D01*
X284835Y639572D01*
X263499Y630631D01*
X243027Y619912D01*
X223520Y607568D01*
X205130Y593598D01*
X187960Y578104D01*
X172161Y561289D01*
X157784Y543153D01*
X144983Y523900D01*
X133858Y503682D01*
X124460Y482549D01*
X116890Y460756D01*
X111150Y438353D01*
X107289Y415594D01*
G37*
G36*
X2149602Y579882D02*
G01*
X2163419Y580796D01*
X2176983Y583488D01*
X2190140Y587959D01*
X2202535Y594055D01*
X2214067Y601776D01*
X2224481Y610920D01*
X2233625Y621334D01*
X2241296Y632815D01*
X2247442Y645261D01*
X2251862Y658368D01*
X2254605Y671931D01*
X2255469Y685749D01*
X2254605Y699617D01*
X2251862Y713181D01*
X2247442Y726287D01*
X2241296Y738733D01*
X2233625Y750214D01*
X2224481Y760628D01*
X2214067Y769772D01*
X2202535Y777494D01*
X2190140Y783590D01*
X2176983Y788060D01*
X2163419Y790752D01*
X2149602Y791667D01*
X2135784Y790752D01*
X2122220Y788060D01*
X2109063Y783590D01*
X2096668Y777494D01*
X2085136Y769772D01*
X2074722Y760628D01*
X2065578Y750214D01*
X2057907Y738733D01*
X2051761Y726287D01*
X2047341Y713181D01*
X2044598Y699617D01*
X2043734Y685749D01*
X2044598Y671931D01*
X2047341Y658368D01*
X2051761Y645261D01*
X2057907Y632815D01*
X2065578Y621334D01*
X2074722Y610920D01*
X2085136Y601776D01*
X2096668Y594055D01*
X2109063Y587959D01*
X2122220Y583488D01*
X2135784Y580796D01*
G37*
G36*
X3636772Y579882D02*
G01*
X3650640Y580796D01*
X3664204Y583488D01*
X3677310Y587959D01*
X3689756Y594055D01*
X3701237Y601776D01*
X3711651Y610920D01*
X3720795Y621334D01*
X3728516Y632815D01*
X3734612Y645261D01*
X3739083Y658368D01*
X3741775Y671931D01*
X3742690Y685749D01*
X3741775Y699617D01*
X3739083Y713181D01*
X3734612Y726287D01*
X3728516Y738733D01*
X3720795Y750214D01*
X3711651Y760628D01*
X3701237Y769772D01*
X3689756Y777494D01*
X3677310Y783590D01*
X3664204Y788060D01*
X3650640Y790752D01*
X3636772Y791667D01*
X3622954Y790752D01*
X3609390Y788060D01*
X3596284Y783590D01*
X3583838Y777494D01*
X3572357Y769772D01*
X3561943Y760628D01*
X3552799Y750214D01*
X3545078Y738733D01*
X3538982Y726287D01*
X3534511Y713181D01*
X3531819Y699617D01*
X3530904Y685749D01*
X3531819Y671931D01*
X3534511Y658368D01*
X3538982Y645261D01*
X3545078Y632815D01*
X3552799Y621334D01*
X3561943Y610920D01*
X3572357Y601776D01*
X3583838Y594055D01*
X3596284Y587959D01*
X3609390Y583488D01*
X3622954Y580796D01*
G37*
G36*
X2512161Y784910D02*
G01*
X2527350Y785825D01*
X2542286Y788568D01*
X2556814Y793089D01*
X2570683Y799338D01*
X2583688Y807161D01*
X2595626Y816559D01*
X2606395Y827278D01*
X2615793Y839266D01*
X2623616Y852271D01*
X2629916Y866190D01*
X2632151Y869340D01*
X2635351Y871474D01*
X2639161Y872185D01*
X2642971Y871474D01*
X2646222Y869340D01*
X2648458Y866190D01*
X2654706Y852271D01*
X2662580Y839266D01*
X2671927Y827278D01*
X2682697Y816559D01*
X2694635Y807161D01*
X2707690Y799338D01*
X2721508Y793089D01*
X2736037Y788568D01*
X2750972Y785825D01*
X2766161Y784910D01*
X2781350Y785825D01*
X2796286Y788568D01*
X2810814Y793089D01*
X2824683Y799338D01*
X2837688Y807161D01*
X2849626Y816559D01*
X2860395Y827278D01*
X2869793Y839266D01*
X2877616Y852271D01*
X2883916Y866190D01*
X2886151Y869340D01*
X2889351Y871474D01*
X2893161Y872185D01*
X2896971Y871474D01*
X2900222Y869340D01*
X2902458Y866190D01*
X2908706Y852271D01*
X2916580Y839266D01*
X2925927Y827278D01*
X2936697Y816559D01*
X2948635Y807161D01*
X2961690Y799338D01*
X2975508Y793089D01*
X2990037Y788568D01*
X3004972Y785825D01*
X3020161Y784910D01*
X3035350Y785825D01*
X3050286Y788568D01*
X3064814Y793089D01*
X3078683Y799338D01*
X3091688Y807161D01*
X3103626Y816559D01*
X3114395Y827278D01*
X3123793Y839266D01*
X3131616Y852271D01*
X3137916Y866190D01*
X3140151Y869340D01*
X3143351Y871474D01*
X3147161Y872185D01*
X3150971Y871474D01*
X3154222Y869340D01*
X3156458Y866190D01*
X3162706Y852271D01*
X3170580Y839266D01*
X3179927Y827278D01*
X3190697Y816559D01*
X3202635Y807161D01*
X3215690Y799338D01*
X3229508Y793089D01*
X3244037Y788568D01*
X3258972Y785825D01*
X3274161Y784910D01*
X3289350Y785825D01*
X3304286Y788568D01*
X3318814Y793089D01*
X3332683Y799338D01*
X3345687Y807161D01*
X3357626Y816559D01*
X3368395Y827278D01*
X3377793Y839266D01*
X3385616Y852271D01*
X3391865Y866140D01*
X3396386Y880668D01*
X3399129Y895603D01*
X3400044Y910793D01*
X3399129Y925982D01*
X3396386Y940917D01*
X3391865Y955446D01*
X3385616Y969264D01*
X3377793Y982319D01*
X3368395Y994257D01*
X3357626Y1005027D01*
X3345687Y1014374D01*
X3332683Y1022248D01*
X3318814Y1028496D01*
X3304286Y1033018D01*
X3289350Y1035761D01*
X3274161Y1036675D01*
X3258972Y1035761D01*
X3244037Y1033018D01*
X3229508Y1028496D01*
X3215690Y1022248D01*
X3202635Y1014374D01*
X3190697Y1005027D01*
X3179927Y994257D01*
X3170580Y982319D01*
X3162706Y969264D01*
X3156458Y955344D01*
X3154222Y952195D01*
X3150971Y950112D01*
X3147161Y949350D01*
X3143351Y950112D01*
X3140151Y952195D01*
X3137916Y955344D01*
X3131616Y969264D01*
X3123793Y982319D01*
X3114395Y994257D01*
X3103626Y1005027D01*
X3091688Y1014374D01*
X3078683Y1022248D01*
X3064814Y1028496D01*
X3050286Y1033018D01*
X3035350Y1035761D01*
X3020161Y1036675D01*
X3004972Y1035761D01*
X2990037Y1033018D01*
X2975508Y1028496D01*
X2961690Y1022248D01*
X2948635Y1014374D01*
X2936697Y1005027D01*
X2925927Y994257D01*
X2916580Y982319D01*
X2908706Y969264D01*
X2902458Y955344D01*
X2900222Y952195D01*
X2896971Y950112D01*
X2893161Y949350D01*
X2889351Y950112D01*
X2886151Y952195D01*
X2883916Y955344D01*
X2877616Y969264D01*
X2869793Y982319D01*
X2860395Y994257D01*
X2849626Y1005027D01*
X2837688Y1014374D01*
X2824683Y1022248D01*
X2810814Y1028496D01*
X2796286Y1033018D01*
X2781350Y1035761D01*
X2766161Y1036675D01*
X2750972Y1035761D01*
X2736037Y1033018D01*
X2721508Y1028496D01*
X2707690Y1022248D01*
X2694635Y1014374D01*
X2682697Y1005027D01*
X2671927Y994257D01*
X2662580Y982319D01*
X2654706Y969264D01*
X2648458Y955344D01*
X2646222Y952195D01*
X2642971Y950112D01*
X2639161Y949350D01*
X2635351Y950112D01*
X2632151Y952195D01*
X2629916Y955344D01*
X2623616Y969264D01*
X2615793Y982319D01*
X2606395Y994257D01*
X2595626Y1005027D01*
X2583688Y1014374D01*
X2570683Y1022248D01*
X2556814Y1028496D01*
X2542286Y1033018D01*
X2527350Y1035761D01*
X2512161Y1036675D01*
X2496972Y1035761D01*
X2482037Y1033018D01*
X2467508Y1028496D01*
X2453690Y1022248D01*
X2440635Y1014374D01*
X2428697Y1005027D01*
X2417927Y994257D01*
X2408580Y982319D01*
X2400706Y969264D01*
X2394458Y955446D01*
X2389936Y940917D01*
X2387193Y925982D01*
X2386279Y910793D01*
X2387193Y895603D01*
X2389936Y880668D01*
X2394458Y866140D01*
X2400706Y852271D01*
X2408580Y839266D01*
X2417927Y827278D01*
X2428697Y816559D01*
X2440635Y807161D01*
X2453690Y799338D01*
X2467508Y793089D01*
X2482037Y788568D01*
X2496972Y785825D01*
G37*
G36*
X4456887Y5600700D02*
G01*
X4559300Y5600700D01*
X4559300Y5702960D01*
X4550308Y5701842D01*
X4536186Y5698236D01*
X4522673Y5692851D01*
X4509922Y5685840D01*
X4498136Y5677306D01*
X4487519Y5667349D01*
X4478223Y5656122D01*
X4470450Y5643829D01*
X4464253Y5630672D01*
X4459732Y5616803D01*
X4457039Y5602528D01*
G37*
G36*
X105410Y5473700D02*
G01*
X368300Y5473700D01*
X368300Y5736386D01*
X352145Y5735370D01*
X329285Y5732018D01*
X306781Y5726734D01*
X284835Y5719572D01*
X263499Y5710631D01*
X243027Y5699912D01*
X223520Y5687568D01*
X205130Y5673598D01*
X187960Y5658104D01*
X172161Y5641289D01*
X157784Y5623153D01*
X144983Y5603900D01*
X133858Y5583682D01*
X124460Y5562549D01*
X116890Y5540756D01*
X111150Y5518353D01*
X107289Y5495594D01*
G37*
G36*
X5185410Y5473700D02*
G01*
X5448300Y5473700D01*
X5448300Y5736386D01*
X5432145Y5735370D01*
X5409285Y5732018D01*
X5386781Y5726734D01*
X5364835Y5719572D01*
X5343499Y5710631D01*
X5323027Y5699912D01*
X5303520Y5687568D01*
X5285130Y5673598D01*
X5267960Y5658104D01*
X5252161Y5641289D01*
X5237784Y5623153D01*
X5224983Y5603900D01*
X5213858Y5583682D01*
X5204460Y5562549D01*
X5196890Y5540756D01*
X5191150Y5518353D01*
X5187289Y5495594D01*
G37*
G36*
X5473700Y5473700D02*
G01*
X5736336Y5473700D01*
X5735929Y5484063D01*
X5733034Y5507024D01*
X5728208Y5529630D01*
X5721553Y5551728D01*
X5713018Y5573217D01*
X5702757Y5593892D01*
X5690819Y5613704D01*
X5677204Y5632348D01*
X5662117Y5649874D01*
X5645607Y5666028D01*
X5627827Y5680760D01*
X5608828Y5693968D01*
X5588812Y5705500D01*
X5567934Y5715355D01*
X5546242Y5723382D01*
X5523992Y5729630D01*
X5501284Y5733948D01*
X5478322Y5736336D01*
X5473700Y5736437D01*
G37*
G36*
X393700Y5473700D02*
G01*
X656336Y5473700D01*
X655929Y5484063D01*
X653034Y5507024D01*
X648208Y5529630D01*
X641553Y5551728D01*
X633018Y5573217D01*
X622757Y5593892D01*
X610819Y5613704D01*
X597204Y5632348D01*
X582117Y5649874D01*
X565607Y5666028D01*
X547827Y5680760D01*
X528828Y5693968D01*
X508812Y5705500D01*
X487934Y5715355D01*
X466242Y5723382D01*
X443992Y5729630D01*
X421284Y5733948D01*
X398322Y5736336D01*
X393700Y5736437D01*
G37*
G36*
X4559300Y5473039D02*
G01*
X4559300Y5575300D01*
X4456887Y5575300D01*
X4457039Y5573471D01*
X4459732Y5559196D01*
X4464253Y5545328D01*
X4470450Y5532170D01*
X4478223Y5519877D01*
X4487519Y5508650D01*
X4498136Y5498693D01*
X4509922Y5490159D01*
X4522673Y5483148D01*
X4536186Y5477764D01*
X4550308Y5474157D01*
G37*
G36*
X1520596Y2183892D02*
G01*
X1534210Y2184349D01*
X1547672Y2186635D01*
X1560677Y2190648D01*
X1573072Y2196388D01*
X1584553Y2203754D01*
X1594967Y2212543D01*
X1604111Y2222652D01*
X1611833Y2233879D01*
X1617980Y2246071D01*
X1622450Y2258974D01*
X1625193Y2272334D01*
X1626107Y2285949D01*
X1625193Y2299512D01*
X1622450Y2312873D01*
X1620215Y2319426D01*
X1619656Y2323134D01*
X1620469Y2326843D01*
X1622602Y2329942D01*
X1854606Y2561894D01*
X1857908Y2564130D01*
X1861769Y2564892D01*
X1865934Y2564892D01*
X1869846Y2564130D01*
X1873148Y2561894D01*
X1875332Y2558643D01*
X1876094Y2554732D01*
X1876094Y2549093D01*
X1876806Y2542743D01*
X1878736Y2537307D01*
X1881784Y2532380D01*
X1885899Y2528316D01*
X1890775Y2525217D01*
X1896262Y2523286D01*
X1902561Y2522575D01*
X2001418Y2522575D01*
X2007768Y2523286D01*
X2013204Y2525217D01*
X2018131Y2528316D01*
X2022195Y2532380D01*
X2023414Y2534259D01*
X2026208Y2537206D01*
X2029968Y2538831D01*
X2034032Y2538831D01*
X2037791Y2537206D01*
X2040585Y2534259D01*
X2041804Y2532380D01*
X2045868Y2528316D01*
X2050796Y2525217D01*
X2056231Y2523286D01*
X2062581Y2522575D01*
X2161438Y2522575D01*
X2167737Y2523286D01*
X2173224Y2525217D01*
X2178100Y2528316D01*
X2182215Y2532380D01*
X2185263Y2537307D01*
X2187194Y2542743D01*
X2187905Y2549093D01*
X2187905Y2554732D01*
X2188667Y2558643D01*
X2190902Y2561894D01*
X2194153Y2564130D01*
X2198065Y2564892D01*
X2881934Y2564892D01*
X2885846Y2564130D01*
X2889148Y2561894D01*
X2891332Y2558643D01*
X2892094Y2554732D01*
X2892094Y2549093D01*
X2892806Y2542743D01*
X2894736Y2537307D01*
X2897784Y2532380D01*
X2901899Y2528316D01*
X2906776Y2525217D01*
X2912262Y2523286D01*
X2918561Y2522575D01*
X3017418Y2522575D01*
X3023768Y2523286D01*
X3029204Y2525217D01*
X3034131Y2528316D01*
X3038195Y2532380D01*
X3039414Y2534259D01*
X3042208Y2537206D01*
X3045968Y2538831D01*
X3050032Y2538831D01*
X3053791Y2537206D01*
X3056585Y2534259D01*
X3057804Y2532380D01*
X3061868Y2528316D01*
X3066796Y2525217D01*
X3072231Y2523286D01*
X3078581Y2522575D01*
X3177438Y2522575D01*
X3183737Y2523286D01*
X3189224Y2525217D01*
X3194100Y2528316D01*
X3198215Y2532380D01*
X3201263Y2537307D01*
X3203194Y2542743D01*
X3203905Y2549093D01*
X3203905Y2554732D01*
X3204667Y2558643D01*
X3206902Y2561894D01*
X3210153Y2564130D01*
X3214065Y2564892D01*
X3507232Y2564892D01*
X3511143Y2564130D01*
X3514394Y2561894D01*
X3516629Y2558643D01*
X3517392Y2554732D01*
X3517392Y2540406D01*
X3518204Y2532380D01*
X3520389Y2525166D01*
X3523945Y2518511D01*
X3528720Y2512669D01*
X3534562Y2507843D01*
X3541268Y2504287D01*
X3548481Y2502103D01*
X3556000Y2501392D01*
X3563518Y2502103D01*
X3570732Y2504287D01*
X3577437Y2507843D01*
X3583279Y2512669D01*
X3588054Y2518511D01*
X3591610Y2525166D01*
X3593795Y2532380D01*
X3594608Y2540406D01*
X3594608Y2554732D01*
X3595370Y2558643D01*
X3597605Y2561894D01*
X3600856Y2564130D01*
X3604768Y2564892D01*
X3918356Y2564892D01*
X3922014Y2564231D01*
X3925112Y2562301D01*
X3927398Y2559405D01*
X3928465Y2555849D01*
X3928821Y2552750D01*
X3930700Y2547264D01*
X3933799Y2542387D01*
X3937914Y2538272D01*
X3942791Y2535224D01*
X3948277Y2533294D01*
X3954576Y2532583D01*
X4033418Y2532583D01*
X4039768Y2533294D01*
X4045204Y2535224D01*
X4050131Y2538272D01*
X4054195Y2542387D01*
X4055414Y2544267D01*
X4058208Y2547213D01*
X4061968Y2548839D01*
X4066032Y2548839D01*
X4069791Y2547213D01*
X4072585Y2544267D01*
X4073804Y2542387D01*
X4077868Y2538272D01*
X4082796Y2535224D01*
X4088231Y2533294D01*
X4094581Y2532583D01*
X4121302Y2532583D01*
X4121302Y2590800D01*
X4070096Y2590800D01*
X4066184Y2591562D01*
X4062882Y2593797D01*
X4060698Y2597048D01*
X4059936Y2600960D01*
X4059936Y2606040D01*
X4060698Y2609951D01*
X4062882Y2613202D01*
X4066184Y2615438D01*
X4070096Y2616200D01*
X4121302Y2616200D01*
X4121302Y2674416D01*
X4094581Y2674416D01*
X4088231Y2673705D01*
X4082796Y2671775D01*
X4077868Y2668727D01*
X4073804Y2664612D01*
X4072585Y2662732D01*
X4069791Y2659786D01*
X4066032Y2658160D01*
X4061968Y2658160D01*
X4058208Y2659786D01*
X4055414Y2662732D01*
X4054195Y2664612D01*
X4050131Y2668727D01*
X4045204Y2671775D01*
X4039768Y2673705D01*
X4033418Y2674416D01*
X3954576Y2674416D01*
X3948277Y2673705D01*
X3942791Y2671775D01*
X3937914Y2668727D01*
X3933799Y2664612D01*
X3930700Y2659735D01*
X3928821Y2654249D01*
X3928465Y2651150D01*
X3927398Y2647594D01*
X3925112Y2644698D01*
X3922014Y2642768D01*
X3918356Y2642108D01*
X3604768Y2642108D01*
X3600856Y2642870D01*
X3597605Y2645105D01*
X3595370Y2648356D01*
X3594608Y2652268D01*
X3594608Y3784092D01*
X3593795Y3792118D01*
X3591610Y3799332D01*
X3588054Y3806037D01*
X3582924Y3812235D01*
X3539439Y3855720D01*
X3533241Y3860850D01*
X3530193Y3862476D01*
X3527247Y3864864D01*
X3525367Y3868115D01*
X3524707Y3869994D01*
X3521608Y3874922D01*
X3517544Y3878986D01*
X3512616Y3882085D01*
X3507181Y3884015D01*
X3500831Y3884726D01*
X3401974Y3884726D01*
X3395675Y3884015D01*
X3390188Y3882085D01*
X3385312Y3878986D01*
X3381197Y3874922D01*
X3378149Y3869994D01*
X3376218Y3864559D01*
X3375507Y3858209D01*
X3375507Y3799382D01*
X3376218Y3793032D01*
X3378149Y3787597D01*
X3380079Y3783177D01*
X3380079Y3779418D01*
X3378098Y3774998D01*
X3376218Y3769563D01*
X3375507Y3763213D01*
X3375507Y3704386D01*
X3376218Y3698138D01*
X3378809Y3691077D01*
X3379419Y3687267D01*
X3378555Y3683457D01*
X3376371Y3680256D01*
X3373069Y3678174D01*
X3369259Y3677412D01*
X3309620Y3677412D01*
X3301593Y3676599D01*
X3294379Y3674414D01*
X3287674Y3670858D01*
X3281476Y3665728D01*
X3276803Y3661105D01*
X3273501Y3658870D01*
X3269589Y3658108D01*
X2839008Y3658108D01*
X2835097Y3658870D01*
X2831795Y3661105D01*
X2830220Y3662679D01*
X2822194Y3668318D01*
X2813253Y3672433D01*
X2803804Y3674973D01*
X2794000Y3675837D01*
X2784195Y3674973D01*
X2774746Y3672433D01*
X2765806Y3668318D01*
X2757779Y3662679D01*
X2756204Y3661105D01*
X2752902Y3658870D01*
X2748991Y3658108D01*
X2588768Y3658108D01*
X2584856Y3658870D01*
X2581605Y3661105D01*
X2579370Y3664356D01*
X2578608Y3668268D01*
X2578608Y3709060D01*
X2579319Y3712819D01*
X2581402Y3716070D01*
X2584500Y3718306D01*
X2589072Y3720388D01*
X2600553Y3727754D01*
X2610967Y3736543D01*
X2620111Y3746652D01*
X2627833Y3757879D01*
X2633980Y3770071D01*
X2638450Y3782974D01*
X2641193Y3796334D01*
X2642108Y3809949D01*
X2641193Y3823512D01*
X2638450Y3836873D01*
X2633980Y3849776D01*
X2627833Y3861968D01*
X2620111Y3873195D01*
X2610967Y3883304D01*
X2600553Y3892092D01*
X2589072Y3899458D01*
X2576677Y3905199D01*
X2563672Y3909212D01*
X2550210Y3911498D01*
X2536596Y3911955D01*
X2523032Y3910584D01*
X2509774Y3907434D01*
X2497023Y3902506D01*
X2485085Y3895953D01*
X2474112Y3887876D01*
X2464308Y3878427D01*
X2455824Y3867708D01*
X2448864Y3855974D01*
X2443581Y3843426D01*
X2439974Y3830269D01*
X2438146Y3816756D01*
X2438146Y3803091D01*
X2439974Y3789578D01*
X2443581Y3776421D01*
X2448864Y3763873D01*
X2455824Y3752138D01*
X2464308Y3741470D01*
X2474112Y3731971D01*
X2485085Y3723894D01*
X2496108Y3717848D01*
X2498902Y3715562D01*
X2500731Y3712464D01*
X2501392Y3708908D01*
X2501392Y3668268D01*
X2500630Y3664356D01*
X2498394Y3661105D01*
X2495143Y3658870D01*
X2491232Y3658108D01*
X2198065Y3658108D01*
X2194153Y3658870D01*
X2190902Y3661105D01*
X2188667Y3664356D01*
X2187905Y3668268D01*
X2187905Y3673906D01*
X2187194Y3680256D01*
X2185263Y3685692D01*
X2182215Y3690620D01*
X2178100Y3694684D01*
X2173224Y3697782D01*
X2167737Y3699713D01*
X2161438Y3700424D01*
X2062581Y3700424D01*
X2056231Y3699713D01*
X2050796Y3697782D01*
X2045868Y3694684D01*
X2041804Y3690620D01*
X2040585Y3688740D01*
X2037791Y3685794D01*
X2034032Y3684168D01*
X2029968Y3684168D01*
X2026208Y3685794D01*
X2023414Y3688740D01*
X2022195Y3690620D01*
X2018131Y3694684D01*
X2013204Y3697782D01*
X2007768Y3699713D01*
X2001418Y3700424D01*
X1902561Y3700424D01*
X1896262Y3699713D01*
X1890775Y3697782D01*
X1885899Y3694684D01*
X1881784Y3690620D01*
X1878736Y3685692D01*
X1876806Y3680256D01*
X1876094Y3673906D01*
X1876094Y3668268D01*
X1875332Y3664356D01*
X1873148Y3661105D01*
X1869846Y3658870D01*
X1865934Y3658108D01*
X1569008Y3658108D01*
X1565097Y3658870D01*
X1561795Y3661105D01*
X1560220Y3662679D01*
X1552194Y3668318D01*
X1543253Y3672433D01*
X1533804Y3674973D01*
X1524000Y3675837D01*
X1514195Y3674973D01*
X1504746Y3672433D01*
X1495806Y3668318D01*
X1487779Y3662679D01*
X1480820Y3655720D01*
X1475181Y3647694D01*
X1471066Y3638753D01*
X1468526Y3629304D01*
X1467662Y3619500D01*
X1468526Y3609695D01*
X1471066Y3600246D01*
X1475181Y3591306D01*
X1480820Y3583279D01*
X1487779Y3576320D01*
X1495806Y3570681D01*
X1504746Y3566566D01*
X1514195Y3564026D01*
X1524000Y3563162D01*
X1533804Y3564026D01*
X1543253Y3566566D01*
X1552194Y3570681D01*
X1560220Y3576320D01*
X1561795Y3577894D01*
X1565097Y3580129D01*
X1569008Y3580892D01*
X1865934Y3580892D01*
X1869846Y3580129D01*
X1873148Y3577894D01*
X1875332Y3574643D01*
X1876094Y3570732D01*
X1876094Y3565093D01*
X1876806Y3558743D01*
X1878736Y3553307D01*
X1881784Y3548379D01*
X1885899Y3544315D01*
X1890775Y3541217D01*
X1896262Y3539286D01*
X1902561Y3538575D01*
X2001418Y3538575D01*
X2007768Y3539286D01*
X2013204Y3541217D01*
X2018131Y3544315D01*
X2022195Y3548379D01*
X2023414Y3550259D01*
X2026208Y3553206D01*
X2029968Y3554831D01*
X2034032Y3554831D01*
X2037791Y3553206D01*
X2040585Y3550259D01*
X2041804Y3548379D01*
X2045868Y3544315D01*
X2050796Y3541217D01*
X2056231Y3539286D01*
X2062581Y3538575D01*
X2161438Y3538575D01*
X2167737Y3539286D01*
X2173224Y3541217D01*
X2178100Y3544315D01*
X2182215Y3548379D01*
X2185263Y3553307D01*
X2187194Y3558743D01*
X2187905Y3565093D01*
X2187905Y3570732D01*
X2188667Y3574643D01*
X2190902Y3577894D01*
X2194153Y3580129D01*
X2198065Y3580892D01*
X2745232Y3580892D01*
X2749143Y3580129D01*
X2752394Y3577894D01*
X2754630Y3574643D01*
X2755392Y3570732D01*
X2755392Y2926943D01*
X2754731Y2923286D01*
X2752801Y2920187D01*
X2749905Y2917901D01*
X2746349Y2916834D01*
X2743250Y2916478D01*
X2737764Y2914599D01*
X2732887Y2911500D01*
X2728772Y2907385D01*
X2725724Y2902508D01*
X2723794Y2897022D01*
X2723083Y2890723D01*
X2723083Y2811881D01*
X2723794Y2805531D01*
X2725724Y2800096D01*
X2728772Y2795168D01*
X2732887Y2791104D01*
X2734767Y2789885D01*
X2737713Y2787091D01*
X2739339Y2783332D01*
X2739339Y2779268D01*
X2737713Y2775508D01*
X2734767Y2772714D01*
X2732887Y2771495D01*
X2728772Y2767431D01*
X2725724Y2762504D01*
X2723794Y2757068D01*
X2723083Y2750718D01*
X2723083Y2671876D01*
X2723794Y2665577D01*
X2725724Y2660091D01*
X2727248Y2657652D01*
X2728722Y2653639D01*
X2728366Y2649321D01*
X2726283Y2645562D01*
X2722829Y2643022D01*
X2718612Y2642108D01*
X2198065Y2642108D01*
X2194153Y2642870D01*
X2190902Y2645105D01*
X2188667Y2648356D01*
X2187905Y2652268D01*
X2187905Y2657906D01*
X2187194Y2664256D01*
X2185263Y2669692D01*
X2182215Y2674620D01*
X2178100Y2678684D01*
X2173224Y2681782D01*
X2167737Y2683713D01*
X2161438Y2684424D01*
X2062581Y2684424D01*
X2056231Y2683713D01*
X2050796Y2681782D01*
X2045868Y2678684D01*
X2041804Y2674620D01*
X2040585Y2672740D01*
X2037791Y2669794D01*
X2034032Y2668168D01*
X2029968Y2668168D01*
X2026208Y2669794D01*
X2023414Y2672740D01*
X2022195Y2674620D01*
X2018131Y2678684D01*
X2013204Y2681782D01*
X2007768Y2683713D01*
X2001418Y2684424D01*
X1902561Y2684424D01*
X1896262Y2683713D01*
X1890775Y2681782D01*
X1885899Y2678684D01*
X1881784Y2674620D01*
X1878736Y2669692D01*
X1876806Y2664256D01*
X1876094Y2657906D01*
X1876094Y2652268D01*
X1875332Y2648356D01*
X1873148Y2645105D01*
X1869846Y2642870D01*
X1865934Y2642108D01*
X1842058Y2642108D01*
X1834032Y2641295D01*
X1826818Y2639110D01*
X1820164Y2635554D01*
X1813915Y2630424D01*
X1568043Y2384602D01*
X1565046Y2382520D01*
X1561490Y2381605D01*
X1557883Y2382062D01*
X1547672Y2385212D01*
X1534210Y2387498D01*
X1520596Y2387955D01*
X1507032Y2386584D01*
X1493774Y2383434D01*
X1481023Y2378506D01*
X1469085Y2371953D01*
X1458112Y2363876D01*
X1448308Y2354427D01*
X1439824Y2343708D01*
X1432864Y2331974D01*
X1427581Y2319426D01*
X1423974Y2306269D01*
X1422146Y2292756D01*
X1422146Y2279091D01*
X1423974Y2265578D01*
X1427581Y2252421D01*
X1432864Y2239873D01*
X1439824Y2228138D01*
X1448308Y2217470D01*
X1458112Y2207971D01*
X1469085Y2199894D01*
X1481023Y2193340D01*
X1493774Y2188413D01*
X1507032Y2185263D01*
G37*
G36*
X4584700Y5473039D02*
G01*
X4593691Y5474157D01*
X4607814Y5477764D01*
X4621326Y5483148D01*
X4634077Y5490159D01*
X4645863Y5498693D01*
X4656480Y5508650D01*
X4665776Y5519877D01*
X4673549Y5532170D01*
X4679746Y5545328D01*
X4684268Y5559196D01*
X4686960Y5573471D01*
X4687112Y5575300D01*
X4584700Y5575300D01*
G37*
G36*
X4584700Y5346700D02*
G01*
X4687112Y5346700D01*
X4686960Y5348528D01*
X4684268Y5362803D01*
X4679746Y5376672D01*
X4673549Y5389829D01*
X4665776Y5402122D01*
X4656480Y5413349D01*
X4645863Y5423306D01*
X4634077Y5431840D01*
X4621326Y5438851D01*
X4607814Y5444236D01*
X4593691Y5447842D01*
X4584700Y5448960D01*
G37*
G36*
X4456887Y5346700D02*
G01*
X4559300Y5346700D01*
X4559300Y5448960D01*
X4550308Y5447842D01*
X4536186Y5444236D01*
X4522673Y5438851D01*
X4509922Y5431840D01*
X4498136Y5423306D01*
X4487519Y5413349D01*
X4478223Y5402122D01*
X4470450Y5389829D01*
X4464253Y5376672D01*
X4459732Y5362803D01*
X4457039Y5348528D01*
G37*
G36*
X4559300Y5219039D02*
G01*
X4559300Y5321300D01*
X4456887Y5321300D01*
X4457039Y5319471D01*
X4459732Y5305196D01*
X4464253Y5291328D01*
X4470450Y5278170D01*
X4478223Y5265877D01*
X4487519Y5254650D01*
X4498136Y5244693D01*
X4509922Y5236159D01*
X4522673Y5229148D01*
X4536186Y5223764D01*
X4550308Y5220157D01*
G37*
G36*
X4584700Y5219039D02*
G01*
X4593691Y5220157D01*
X4607814Y5223764D01*
X4621326Y5229148D01*
X4634077Y5236159D01*
X4645863Y5244693D01*
X4656480Y5254650D01*
X4665776Y5265877D01*
X4673549Y5278170D01*
X4679746Y5291328D01*
X4684268Y5305196D01*
X4686960Y5319471D01*
X4687112Y5321300D01*
X4584700Y5321300D01*
G37*
G36*
X368300Y5185613D02*
G01*
X368300Y5448300D01*
X105410Y5448300D01*
X107289Y5426405D01*
X111150Y5403646D01*
X116890Y5381244D01*
X124460Y5359450D01*
X133858Y5338318D01*
X144983Y5318099D01*
X157784Y5298846D01*
X172161Y5280710D01*
X187960Y5263896D01*
X205130Y5248402D01*
X223520Y5234432D01*
X243027Y5222087D01*
X263499Y5211368D01*
X284835Y5202428D01*
X306781Y5195265D01*
X329285Y5189982D01*
X352145Y5186629D01*
G37*
G36*
X4146702Y2532583D02*
G01*
X4173423Y2532583D01*
X4179722Y2533294D01*
X4185208Y2535224D01*
X4190085Y2538272D01*
X4194200Y2542387D01*
X4197299Y2547264D01*
X4199178Y2552750D01*
X4199890Y2559050D01*
X4199890Y2590800D01*
X4146702Y2590800D01*
G37*
G36*
X5448300Y5185613D02*
G01*
X5448300Y5448300D01*
X5185410Y5448300D01*
X5187289Y5426405D01*
X5191150Y5403646D01*
X5196890Y5381244D01*
X5204460Y5359450D01*
X5213858Y5338318D01*
X5224983Y5318099D01*
X5237784Y5298846D01*
X5252161Y5280710D01*
X5267960Y5263896D01*
X5285130Y5248402D01*
X5303520Y5234432D01*
X5323027Y5222087D01*
X5343499Y5211368D01*
X5364835Y5202428D01*
X5386781Y5195265D01*
X5409285Y5189982D01*
X5432145Y5186629D01*
G37*
G36*
X393700Y5185562D02*
G01*
X398322Y5185664D01*
X421284Y5188051D01*
X443992Y5192369D01*
X466242Y5198618D01*
X487934Y5206644D01*
X508812Y5216499D01*
X528828Y5228031D01*
X547827Y5241239D01*
X565607Y5255971D01*
X582117Y5272125D01*
X597204Y5289600D01*
X610819Y5308295D01*
X622757Y5328107D01*
X633018Y5348782D01*
X641553Y5370271D01*
X648208Y5392369D01*
X653034Y5414975D01*
X655929Y5437936D01*
X656336Y5448300D01*
X393700Y5448300D01*
G37*
G36*
X4146702Y2616200D02*
G01*
X4199890Y2616200D01*
X4199890Y2647950D01*
X4199178Y2654249D01*
X4197299Y2659735D01*
X4194200Y2664612D01*
X4190085Y2668727D01*
X4185208Y2671775D01*
X4179722Y2673705D01*
X4173423Y2674416D01*
X4146702Y2674416D01*
G37*
G36*
X5473700Y5185562D02*
G01*
X5478322Y5185664D01*
X5501284Y5188051D01*
X5523992Y5192369D01*
X5546242Y5198618D01*
X5567934Y5206644D01*
X5588812Y5216499D01*
X5608828Y5228031D01*
X5627827Y5241239D01*
X5645607Y5255971D01*
X5662117Y5272125D01*
X5677204Y5289600D01*
X5690819Y5308295D01*
X5702757Y5328107D01*
X5713018Y5348782D01*
X5721553Y5370271D01*
X5728208Y5392369D01*
X5733034Y5414975D01*
X5735929Y5437936D01*
X5736336Y5448300D01*
X5473700Y5448300D01*
G37*
G36*
X3661968Y3582873D02*
G01*
X3760825Y3582873D01*
X3767175Y3583584D01*
X3772611Y3585514D01*
X3777538Y3588562D01*
X3781602Y3592677D01*
X3784701Y3597554D01*
X3786581Y3603040D01*
X3787292Y3609340D01*
X3787292Y3668217D01*
X3786581Y3674567D01*
X3784701Y3680002D01*
X3781602Y3684879D01*
X3777538Y3688994D01*
X3772611Y3692093D01*
X3767175Y3693972D01*
X3760825Y3694684D01*
X3661968Y3694684D01*
X3655669Y3693972D01*
X3650183Y3692093D01*
X3645306Y3688994D01*
X3641191Y3684879D01*
X3638092Y3680002D01*
X3636213Y3674567D01*
X3635501Y3668217D01*
X3635501Y3609340D01*
X3636213Y3603040D01*
X3638092Y3597554D01*
X3641191Y3592677D01*
X3645306Y3588562D01*
X3650183Y3585514D01*
X3655669Y3583584D01*
G37*
G36*
X4572000Y3499561D02*
G01*
X4581804Y3500424D01*
X4591253Y3502964D01*
X4600194Y3507130D01*
X4608220Y3512769D01*
X4615180Y3519678D01*
X4620818Y3527755D01*
X4624933Y3536645D01*
X4627473Y3546144D01*
X4628337Y3555898D01*
X4627473Y3565702D01*
X4624933Y3575202D01*
X4620818Y3584092D01*
X4615180Y3592169D01*
X4608220Y3599078D01*
X4600194Y3604717D01*
X4591253Y3608882D01*
X4581804Y3611422D01*
X4572000Y3612286D01*
X4562195Y3611422D01*
X4552746Y3608882D01*
X4543806Y3604717D01*
X4535779Y3599078D01*
X4534204Y3597503D01*
X4530902Y3595319D01*
X4526991Y3594557D01*
X4084269Y3594557D01*
X4080408Y3595319D01*
X4077106Y3597503D01*
X3818839Y3855720D01*
X3812641Y3860850D01*
X3805936Y3864406D01*
X3798722Y3866591D01*
X3791000Y3867353D01*
X3788003Y3868115D01*
X3785412Y3869740D01*
X3783380Y3872077D01*
X3781602Y3874871D01*
X3777538Y3878986D01*
X3772611Y3882085D01*
X3767175Y3883964D01*
X3760825Y3884676D01*
X3661968Y3884676D01*
X3655669Y3883964D01*
X3650183Y3882085D01*
X3645306Y3878986D01*
X3641191Y3874871D01*
X3638143Y3869994D01*
X3636213Y3864559D01*
X3635501Y3858209D01*
X3635501Y3799332D01*
X3636213Y3793032D01*
X3638143Y3787546D01*
X3641191Y3782669D01*
X3645306Y3778554D01*
X3650183Y3775506D01*
X3655669Y3773576D01*
X3661968Y3772865D01*
X3760825Y3772865D01*
X3767175Y3773576D01*
X3772611Y3775506D01*
X3776370Y3777843D01*
X3779520Y3779164D01*
X3782923Y3779367D01*
X3786174Y3778402D01*
X3788968Y3776421D01*
X4036415Y3528974D01*
X4042664Y3523843D01*
X4049318Y3520287D01*
X4056532Y3518103D01*
X4064558Y3517341D01*
X4526991Y3517341D01*
X4530902Y3516528D01*
X4534204Y3514344D01*
X4535779Y3512769D01*
X4543806Y3507130D01*
X4552746Y3502964D01*
X4562195Y3500424D01*
G37*
G36*
X5473700Y105562D02*
G01*
X5478322Y105664D01*
X5501284Y108051D01*
X5523992Y112369D01*
X5546242Y118618D01*
X5567934Y126644D01*
X5588812Y136499D01*
X5608828Y148031D01*
X5627827Y161239D01*
X5645607Y175971D01*
X5662117Y192125D01*
X5677204Y209600D01*
X5690819Y228295D01*
X5702757Y248107D01*
X5713018Y268782D01*
X5721553Y290271D01*
X5728208Y312369D01*
X5733034Y334975D01*
X5735929Y357936D01*
X5736336Y368300D01*
X5473700Y368300D01*
G37*

%LPD*%
G36*
X2869387Y2642108D02*
G01*
X2865170Y2643022D01*
X2861716Y2645562D01*
X2859633Y2649321D01*
X2859278Y2653639D01*
X2860751Y2657652D01*
X2862275Y2660091D01*
X2864205Y2665577D01*
X2864916Y2671876D01*
X2864916Y2750718D01*
X2864205Y2757068D01*
X2862275Y2762504D01*
X2859227Y2767431D01*
X2855112Y2771495D01*
X2853232Y2772714D01*
X2850286Y2775508D01*
X2848660Y2779268D01*
X2848660Y2783332D01*
X2850286Y2787091D01*
X2853232Y2789885D01*
X2855112Y2791104D01*
X2859227Y2795168D01*
X2862275Y2800096D01*
X2864205Y2805531D01*
X2864916Y2811881D01*
X2864916Y2890723D01*
X2864205Y2897022D01*
X2862275Y2902508D01*
X2859227Y2907385D01*
X2855112Y2911500D01*
X2850235Y2914599D01*
X2844749Y2916478D01*
X2841650Y2916834D01*
X2838094Y2917901D01*
X2835198Y2920187D01*
X2833268Y2923286D01*
X2832608Y2926943D01*
X2832608Y3570732D01*
X2833370Y3574643D01*
X2835605Y3577894D01*
X2838856Y3580129D01*
X2842768Y3580892D01*
X3289300Y3580892D01*
X3297326Y3581704D01*
X3304540Y3583889D01*
X3311245Y3587445D01*
X3317443Y3592576D01*
X3322116Y3597198D01*
X3325418Y3599434D01*
X3329330Y3600196D01*
X3370884Y3600196D01*
X3374237Y3599637D01*
X3377184Y3597960D01*
X3379470Y3595420D01*
X3381197Y3592677D01*
X3385312Y3588613D01*
X3390188Y3585514D01*
X3395675Y3583635D01*
X3401974Y3582873D01*
X3500831Y3582873D01*
X3506114Y3583482D01*
X3510330Y3583076D01*
X3513988Y3580993D01*
X3516528Y3577539D01*
X3517392Y3573373D01*
X3517392Y2652268D01*
X3516629Y2648356D01*
X3514394Y2645105D01*
X3511143Y2642870D01*
X3507232Y2642108D01*
X3214065Y2642108D01*
X3210153Y2642870D01*
X3206902Y2645105D01*
X3204667Y2648356D01*
X3203905Y2652268D01*
X3203905Y2657906D01*
X3203194Y2664256D01*
X3201263Y2669692D01*
X3198215Y2674620D01*
X3194100Y2678684D01*
X3189224Y2681782D01*
X3183737Y2683713D01*
X3177438Y2684424D01*
X3078581Y2684424D01*
X3072231Y2683713D01*
X3066796Y2681782D01*
X3061868Y2678684D01*
X3057804Y2674620D01*
X3056585Y2672740D01*
X3053791Y2669794D01*
X3050032Y2668168D01*
X3045968Y2668168D01*
X3042208Y2669794D01*
X3039414Y2672740D01*
X3038195Y2674620D01*
X3034131Y2678684D01*
X3029204Y2681782D01*
X3023768Y2683713D01*
X3017418Y2684424D01*
X2918561Y2684424D01*
X2912262Y2683713D01*
X2906776Y2681782D01*
X2901899Y2678684D01*
X2897784Y2674620D01*
X2894736Y2669692D01*
X2892806Y2664256D01*
X2892094Y2657906D01*
X2892094Y2652268D01*
X2891332Y2648356D01*
X2889148Y2645105D01*
X2885846Y2642870D01*
X2881934Y2642108D01*
G37*

%LPD*%
D10*
X1952017Y3619500D02*
G01*
X1524000Y3619500D01*
X2794000Y2851304D02*
G01*
X2794000Y3619500D01*
X2112009Y3619500D02*
G01*
X2540000Y3619500D01*
X2540000Y3809926D01*
X1952015Y2603500D02*
G01*
X1841573Y2603500D01*
X1524000Y2285926D01*
X2968015Y2603500D02*
G01*
X2112007Y2603500D01*
X3128007Y2603500D02*
G01*
X3993997Y2603500D01*
X2794000Y2711297D02*
G01*
X2794000Y2603500D01*
X4572000Y3555926D02*
G01*
X4064073Y3555926D01*
X3791204Y3828795D01*
X3711422Y3828795D01*
X3451377Y3638804D02*
G01*
X3309111Y3638804D01*
X3289808Y3619500D01*
X2794000Y3619500D01*
X2540000Y3619500D01*
X3451377Y3828795D02*
G01*
X3511804Y3828795D01*
X3556000Y3784600D01*
X3556000Y2539926D01*
D11*
G01*
X2112009Y2603500D03*
G01*
X1952015Y2603500D03*
G01*
X3128009Y2603500D03*
G01*
X2968015Y2603500D03*
D12*
G01*
X2794000Y2851302D03*
G01*
X2794000Y2711297D03*
D13*
G01*
X3993997Y2603500D03*
G01*
X4134002Y2603500D03*
D14*
G01*
X3711422Y3828795D03*
G01*
X3711422Y3638804D03*
G01*
X3451377Y3638804D03*
G01*
X3451377Y3733800D03*
G01*
X3451377Y3828795D03*
D11*
G01*
X2112009Y3619500D03*
G01*
X1952015Y3619500D03*
D15*
G01*
X381000Y5461000D03*
G01*
X5461000Y5461000D03*
G01*
X5461000Y381000D03*
G01*
X381000Y381000D03*
D16*
G01*
X4572000Y5588000D03*
G01*
X4572000Y5334000D03*
D17*
G01*
X1524000Y2285923D03*
G01*
X2540000Y3809923D03*
D18*
G01*
X3274186Y910793D03*
G01*
X2512186Y910793D03*
G01*
X2766186Y910793D03*
G01*
X3020186Y910793D03*
D19*
G01*
X1524000Y3619500D03*
G01*
X4572000Y3555923D03*
G01*
X2794000Y3619500D03*
G01*
X3175000Y3035300D03*
M02*
