G04 Layer: TopSilkscreenLayer*
G04 EasyEDA v6.5.22, 2022-12-26 15:03:30*
G04 af2be31372914f20b411737621dd261a,5a6b42c53f6a479593ecc07194224c93,10*
G04 Gerber Generator version 0.2*
G04 Scale: 100 percent, Rotated: No, Reflected: No *
G04 Dimensions in millimeters *
G04 leading zeros omitted , absolute positions ,4 integer and 5 decimal *
%FSLAX45Y45*%
%MOMM*%

%ADD10C,0.1524*%
%ADD11C,0.2540*%

%LPD*%
D10*
X762000Y5423915D02*
G01*
X762000Y5314950D01*
X762000Y5423915D02*
G01*
X808736Y5423915D01*
X824229Y5418836D01*
X829563Y5413502D01*
X834644Y5403087D01*
X834644Y5387594D01*
X829563Y5377179D01*
X824229Y5372100D01*
X808736Y5366765D01*
X762000Y5366765D01*
X910589Y5423915D02*
G01*
X868934Y5314950D01*
X910589Y5423915D02*
G01*
X952245Y5314950D01*
X884681Y5351271D02*
G01*
X936497Y5351271D01*
X986536Y5423915D02*
G01*
X986536Y5314950D01*
X986536Y5423915D02*
G01*
X1033271Y5423915D01*
X1048765Y5418836D01*
X1054100Y5413502D01*
X1059179Y5403087D01*
X1059179Y5392673D01*
X1054100Y5382260D01*
X1048765Y5377179D01*
X1033271Y5372100D01*
X986536Y5372100D01*
X1022857Y5372100D02*
G01*
X1059179Y5314950D01*
X1129792Y5423915D02*
G01*
X1129792Y5314950D01*
X1093470Y5423915D02*
G01*
X1166113Y5423915D01*
X1280413Y5423915D02*
G01*
X1280413Y5314950D01*
X1280413Y5423915D02*
G01*
X1353312Y5314950D01*
X1353312Y5423915D02*
G01*
X1353312Y5314950D01*
X1387602Y5423915D02*
G01*
X1387602Y5345937D01*
X1392681Y5330444D01*
X1403095Y5320029D01*
X1418589Y5314950D01*
X1429004Y5314950D01*
X1444752Y5320029D01*
X1455165Y5330444D01*
X1460245Y5345937D01*
X1460245Y5423915D01*
X1494536Y5423915D02*
G01*
X1494536Y5314950D01*
X1494536Y5423915D02*
G01*
X1536192Y5314950D01*
X1577594Y5423915D02*
G01*
X1536192Y5314950D01*
X1577594Y5423915D02*
G01*
X1577594Y5314950D01*
X1611884Y5423915D02*
G01*
X1611884Y5314950D01*
X1611884Y5423915D02*
G01*
X1658620Y5423915D01*
X1674368Y5418836D01*
X1679447Y5413502D01*
X1684781Y5403087D01*
X1684781Y5392673D01*
X1679447Y5382260D01*
X1674368Y5377179D01*
X1658620Y5372100D01*
X1611884Y5372100D02*
G01*
X1658620Y5372100D01*
X1674368Y5366765D01*
X1679447Y5361686D01*
X1684781Y5351271D01*
X1684781Y5335523D01*
X1679447Y5325110D01*
X1674368Y5320029D01*
X1658620Y5314950D01*
X1611884Y5314950D01*
X1719071Y5423915D02*
G01*
X1719071Y5314950D01*
X1719071Y5423915D02*
G01*
X1786636Y5423915D01*
X1719071Y5372100D02*
G01*
X1760473Y5372100D01*
X1719071Y5314950D02*
G01*
X1786636Y5314950D01*
X1820926Y5423915D02*
G01*
X1820926Y5314950D01*
X1820926Y5423915D02*
G01*
X1867662Y5423915D01*
X1883155Y5418836D01*
X1888489Y5413502D01*
X1893570Y5403087D01*
X1893570Y5392673D01*
X1888489Y5382260D01*
X1883155Y5377179D01*
X1867662Y5372100D01*
X1820926Y5372100D01*
X1857247Y5372100D02*
G01*
X1893570Y5314950D01*
X2007870Y5403087D02*
G01*
X2018284Y5408421D01*
X2033777Y5423915D01*
X2033777Y5314950D01*
X2099309Y5423915D02*
G01*
X2083815Y5418836D01*
X2073402Y5403087D01*
X2068068Y5377179D01*
X2068068Y5361686D01*
X2073402Y5335523D01*
X2083815Y5320029D01*
X2099309Y5314950D01*
X2109724Y5314950D01*
X2125218Y5320029D01*
X2135631Y5335523D01*
X2140965Y5361686D01*
X2140965Y5377179D01*
X2135631Y5403087D01*
X2125218Y5418836D01*
X2109724Y5423915D01*
X2099309Y5423915D01*
X2237486Y5408421D02*
G01*
X2232406Y5418836D01*
X2216658Y5423915D01*
X2206243Y5423915D01*
X2190750Y5418836D01*
X2180336Y5403087D01*
X2175256Y5377179D01*
X2175256Y5351271D01*
X2180336Y5330444D01*
X2190750Y5320029D01*
X2206243Y5314950D01*
X2211577Y5314950D01*
X2227072Y5320029D01*
X2237486Y5330444D01*
X2242820Y5345937D01*
X2242820Y5351271D01*
X2237486Y5366765D01*
X2227072Y5377179D01*
X2211577Y5382260D01*
X2206243Y5382260D01*
X2190750Y5377179D01*
X2180336Y5366765D01*
X2175256Y5351271D01*
X2308097Y5423915D02*
G01*
X2292604Y5418836D01*
X2282190Y5403087D01*
X2277109Y5377179D01*
X2277109Y5361686D01*
X2282190Y5335523D01*
X2292604Y5320029D01*
X2308097Y5314950D01*
X2318511Y5314950D01*
X2334259Y5320029D01*
X2344420Y5335523D01*
X2349754Y5361686D01*
X2349754Y5377179D01*
X2344420Y5403087D01*
X2334259Y5418836D01*
X2318511Y5423915D01*
X2308097Y5423915D01*
X2384043Y5361686D02*
G01*
X2477515Y5361686D01*
X2543047Y5423915D02*
G01*
X2527300Y5418836D01*
X2517140Y5403087D01*
X2511806Y5377179D01*
X2511806Y5361686D01*
X2517140Y5335523D01*
X2527300Y5320029D01*
X2543047Y5314950D01*
X2553461Y5314950D01*
X2568956Y5320029D01*
X2579370Y5335523D01*
X2584450Y5361686D01*
X2584450Y5377179D01*
X2579370Y5403087D01*
X2568956Y5418836D01*
X2553461Y5423915D01*
X2543047Y5423915D01*
X2624074Y5398007D02*
G01*
X2624074Y5403087D01*
X2629154Y5413502D01*
X2634488Y5418836D01*
X2644902Y5423915D01*
X2665729Y5423915D01*
X2675890Y5418836D01*
X2681224Y5413502D01*
X2686304Y5403087D01*
X2686304Y5392673D01*
X2681224Y5382260D01*
X2670809Y5366765D01*
X2618740Y5314950D01*
X2691638Y5314950D01*
X2757170Y5423915D02*
G01*
X2741422Y5418836D01*
X2731008Y5403087D01*
X2725927Y5377179D01*
X2725927Y5361686D01*
X2731008Y5335523D01*
X2741422Y5320029D01*
X2757170Y5314950D01*
X2767329Y5314950D01*
X2783077Y5320029D01*
X2793491Y5335523D01*
X2798572Y5361686D01*
X2798572Y5377179D01*
X2793491Y5403087D01*
X2783077Y5418836D01*
X2767329Y5423915D01*
X2757170Y5423915D01*
X2832861Y5403087D02*
G01*
X2843275Y5408421D01*
X2858770Y5423915D01*
X2858770Y5314950D01*
X762000Y5601715D02*
G01*
X762000Y5492750D01*
X762000Y5601715D02*
G01*
X808736Y5601715D01*
X824229Y5596636D01*
X829563Y5591302D01*
X834644Y5580887D01*
X834644Y5565394D01*
X829563Y5554979D01*
X824229Y5549900D01*
X808736Y5544565D01*
X762000Y5544565D01*
X868934Y5601715D02*
G01*
X868934Y5492750D01*
X868934Y5601715D02*
G01*
X915670Y5601715D01*
X931418Y5596636D01*
X936497Y5591302D01*
X941831Y5580887D01*
X941831Y5570473D01*
X936497Y5560060D01*
X931418Y5554979D01*
X915670Y5549900D01*
X868934Y5549900D01*
X905510Y5549900D02*
G01*
X941831Y5492750D01*
X1007110Y5601715D02*
G01*
X996950Y5596636D01*
X986536Y5586221D01*
X981202Y5575807D01*
X976121Y5560060D01*
X976121Y5534152D01*
X981202Y5518657D01*
X986536Y5508244D01*
X996950Y5497829D01*
X1007110Y5492750D01*
X1027937Y5492750D01*
X1038352Y5497829D01*
X1048765Y5508244D01*
X1054100Y5518657D01*
X1059179Y5534152D01*
X1059179Y5560060D01*
X1054100Y5575807D01*
X1048765Y5586221D01*
X1038352Y5596636D01*
X1027937Y5601715D01*
X1007110Y5601715D01*
X1129792Y5601715D02*
G01*
X1129792Y5492750D01*
X1093470Y5601715D02*
G01*
X1166113Y5601715D01*
X1231645Y5601715D02*
G01*
X1221231Y5596636D01*
X1210818Y5586221D01*
X1205737Y5575807D01*
X1200404Y5560060D01*
X1200404Y5534152D01*
X1205737Y5518657D01*
X1210818Y5508244D01*
X1221231Y5497829D01*
X1231645Y5492750D01*
X1252473Y5492750D01*
X1262887Y5497829D01*
X1273302Y5508244D01*
X1278381Y5518657D01*
X1283715Y5534152D01*
X1283715Y5560060D01*
X1278381Y5575807D01*
X1273302Y5586221D01*
X1262887Y5596636D01*
X1252473Y5601715D01*
X1231645Y5601715D01*
X1318005Y5601715D02*
G01*
X1318005Y5492750D01*
X1318005Y5601715D02*
G01*
X1390650Y5492750D01*
X1390650Y5601715D02*
G01*
X1390650Y5492750D01*
X1424939Y5601715D02*
G01*
X1424939Y5492750D01*
X1424939Y5601715D02*
G01*
X1492504Y5601715D01*
X1424939Y5549900D02*
G01*
X1466595Y5549900D01*
X1424939Y5492750D02*
G01*
X1492504Y5492750D01*
X1526794Y5601715D02*
G01*
X1526794Y5492750D01*
X1526794Y5601715D02*
G01*
X1568450Y5492750D01*
X1609852Y5601715D02*
G01*
X1568450Y5492750D01*
X1609852Y5601715D02*
G01*
X1609852Y5492750D01*
X1685797Y5601715D02*
G01*
X1644142Y5492750D01*
X1685797Y5601715D02*
G01*
X1727200Y5492750D01*
X1659889Y5529071D02*
G01*
X1711705Y5529071D01*
X1841500Y5601715D02*
G01*
X1841500Y5492750D01*
X1841500Y5601715D02*
G01*
X1888489Y5601715D01*
X1903984Y5596636D01*
X1909063Y5591302D01*
X1914397Y5580887D01*
X1914397Y5565394D01*
X1909063Y5554979D01*
X1903984Y5549900D01*
X1888489Y5544565D01*
X1841500Y5544565D01*
X1979929Y5601715D02*
G01*
X1969515Y5596636D01*
X1959102Y5586221D01*
X1953768Y5575807D01*
X1948688Y5560060D01*
X1948688Y5534152D01*
X1953768Y5518657D01*
X1959102Y5508244D01*
X1969515Y5497829D01*
X1979929Y5492750D01*
X2000504Y5492750D01*
X2010918Y5497829D01*
X2021331Y5508244D01*
X2026665Y5518657D01*
X2031745Y5534152D01*
X2031745Y5560060D01*
X2026665Y5575807D01*
X2021331Y5586221D01*
X2010918Y5596636D01*
X2000504Y5601715D01*
X1979929Y5601715D01*
X2102358Y5601715D02*
G01*
X2102358Y5492750D01*
X2066036Y5601715D02*
G01*
X2138679Y5601715D01*
X2172970Y5601715D02*
G01*
X2172970Y5492750D01*
X2172970Y5601715D02*
G01*
X2240534Y5601715D01*
X2172970Y5549900D02*
G01*
X2214625Y5549900D01*
X2172970Y5492750D02*
G01*
X2240534Y5492750D01*
X2274824Y5601715D02*
G01*
X2274824Y5492750D01*
X2274824Y5601715D02*
G01*
X2347722Y5492750D01*
X2347722Y5601715D02*
G01*
X2347722Y5492750D01*
X2418334Y5601715D02*
G01*
X2418334Y5492750D01*
X2382011Y5601715D02*
G01*
X2454656Y5601715D01*
X2488945Y5601715D02*
G01*
X2488945Y5492750D01*
X2554477Y5601715D02*
G01*
X2544063Y5596636D01*
X2533650Y5586221D01*
X2528570Y5575807D01*
X2523236Y5560060D01*
X2523236Y5534152D01*
X2528570Y5518657D01*
X2533650Y5508244D01*
X2544063Y5497829D01*
X2554477Y5492750D01*
X2575306Y5492750D01*
X2585720Y5497829D01*
X2595879Y5508244D01*
X2601213Y5518657D01*
X2606293Y5534152D01*
X2606293Y5560060D01*
X2601213Y5575807D01*
X2595879Y5586221D01*
X2585720Y5596636D01*
X2575306Y5601715D01*
X2554477Y5601715D01*
X2640584Y5601715D02*
G01*
X2640584Y5492750D01*
X2640584Y5601715D02*
G01*
X2682240Y5492750D01*
X2723895Y5601715D02*
G01*
X2682240Y5492750D01*
X2723895Y5601715D02*
G01*
X2723895Y5492750D01*
X2758186Y5601715D02*
G01*
X2758186Y5492750D01*
X2758186Y5601715D02*
G01*
X2825750Y5601715D01*
X2758186Y5549900D02*
G01*
X2799588Y5549900D01*
X2758186Y5492750D02*
G01*
X2825750Y5492750D01*
X2896361Y5601715D02*
G01*
X2896361Y5492750D01*
X2860040Y5601715D02*
G01*
X2932684Y5601715D01*
X2966974Y5601715D02*
G01*
X2966974Y5492750D01*
X2966974Y5601715D02*
G01*
X3034538Y5601715D01*
X2966974Y5549900D02*
G01*
X3008629Y5549900D01*
X2966974Y5492750D02*
G01*
X3034538Y5492750D01*
X3068827Y5601715D02*
G01*
X3068827Y5492750D01*
X3068827Y5601715D02*
G01*
X3115563Y5601715D01*
X3131058Y5596636D01*
X3136391Y5591302D01*
X3141472Y5580887D01*
X3141472Y5570473D01*
X3136391Y5560060D01*
X3131058Y5554979D01*
X3115563Y5549900D01*
X3068827Y5549900D01*
X3105150Y5549900D02*
G01*
X3141472Y5492750D01*
X3255772Y5601715D02*
G01*
X3255772Y5492750D01*
X3255772Y5601715D02*
G01*
X3302508Y5601715D01*
X3318256Y5596636D01*
X3323336Y5591302D01*
X3328670Y5580887D01*
X3328670Y5565394D01*
X3323336Y5554979D01*
X3318256Y5549900D01*
X3302508Y5544565D01*
X3255772Y5544565D01*
X3404361Y5601715D02*
G01*
X3362959Y5492750D01*
X3404361Y5601715D02*
G01*
X3446018Y5492750D01*
X3378454Y5529071D02*
G01*
X3430270Y5529071D01*
X3480308Y5601715D02*
G01*
X3480308Y5492750D01*
X3480308Y5601715D02*
G01*
X3552952Y5492750D01*
X3552952Y5601715D02*
G01*
X3552952Y5492750D01*
X3587241Y5601715D02*
G01*
X3587241Y5492750D01*
X3587241Y5601715D02*
G01*
X3654806Y5601715D01*
X3587241Y5549900D02*
G01*
X3628897Y5549900D01*
X3587241Y5492750D02*
G01*
X3654806Y5492750D01*
X3689095Y5601715D02*
G01*
X3689095Y5492750D01*
X3689095Y5492750D02*
G01*
X3751579Y5492750D01*
X3865879Y5601715D02*
G01*
X3907281Y5492750D01*
X3948938Y5601715D02*
G01*
X3907281Y5492750D01*
X3983227Y5580887D02*
G01*
X3993641Y5586221D01*
X4009136Y5601715D01*
X4009136Y5492750D01*
X4820645Y4571220D02*
G01*
X4820645Y4498576D01*
X4816073Y4484860D01*
X4811501Y4480288D01*
X4802357Y4475716D01*
X4793467Y4475716D01*
X4784323Y4480288D01*
X4779751Y4484860D01*
X4775179Y4498576D01*
X4775179Y4507720D01*
X4855189Y4548614D02*
G01*
X4855189Y4553186D01*
X4859761Y4562076D01*
X4864333Y4566648D01*
X4873477Y4571220D01*
X4891511Y4571220D01*
X4900655Y4566648D01*
X4905227Y4562076D01*
X4909799Y4553186D01*
X4909799Y4544042D01*
X4905227Y4534898D01*
X4896083Y4521182D01*
X4850617Y4475716D01*
X4914371Y4475716D01*
X4216400Y3867657D02*
G01*
X4216400Y3753104D01*
X4216400Y3867657D02*
G01*
X4265422Y3867657D01*
X4281931Y3862070D01*
X4287265Y3856736D01*
X4292854Y3845813D01*
X4292854Y3834892D01*
X4287265Y3823970D01*
X4281931Y3818381D01*
X4265422Y3813047D01*
X4216400Y3813047D01*
X4254500Y3813047D02*
G01*
X4292854Y3753104D01*
X4328668Y3845813D02*
G01*
X4339590Y3851147D01*
X4356100Y3867657D01*
X4356100Y3753104D01*
X4475988Y3845813D02*
G01*
X4486909Y3851147D01*
X4503420Y3867657D01*
X4503420Y3753104D01*
X4216400Y3613657D02*
G01*
X4216400Y3499104D01*
X4216400Y3613657D02*
G01*
X4265422Y3613657D01*
X4281931Y3608070D01*
X4287265Y3602736D01*
X4292854Y3591813D01*
X4292854Y3580892D01*
X4287265Y3569970D01*
X4281931Y3564381D01*
X4265422Y3559047D01*
X4216400Y3559047D01*
X4254500Y3559047D02*
G01*
X4292854Y3499104D01*
X4328668Y3591813D02*
G01*
X4339590Y3597147D01*
X4356100Y3613657D01*
X4356100Y3499104D01*
X4481575Y3586226D02*
G01*
X4481575Y3591813D01*
X4486909Y3602736D01*
X4492497Y3608070D01*
X4503420Y3613657D01*
X4525009Y3613657D01*
X4535931Y3608070D01*
X4541520Y3602736D01*
X4546854Y3591813D01*
X4546854Y3580892D01*
X4541520Y3569970D01*
X4530597Y3553713D01*
X4475988Y3499104D01*
X4552441Y3499104D01*
X4216400Y3359657D02*
G01*
X4216400Y3245104D01*
X4216400Y3359657D02*
G01*
X4265422Y3359657D01*
X4281931Y3354070D01*
X4287265Y3348736D01*
X4292854Y3337813D01*
X4292854Y3326892D01*
X4287265Y3315970D01*
X4281931Y3310381D01*
X4265422Y3305047D01*
X4216400Y3305047D01*
X4254500Y3305047D02*
G01*
X4292854Y3245104D01*
X4328668Y3337813D02*
G01*
X4339590Y3343147D01*
X4356100Y3359657D01*
X4356100Y3245104D01*
X4486909Y3359657D02*
G01*
X4546854Y3359657D01*
X4514341Y3315970D01*
X4530597Y3315970D01*
X4541520Y3310381D01*
X4546854Y3305047D01*
X4552441Y3288792D01*
X4552441Y3277870D01*
X4546854Y3261360D01*
X4535931Y3250437D01*
X4519675Y3245104D01*
X4503420Y3245104D01*
X4486909Y3250437D01*
X4481575Y3256026D01*
X4475988Y3266947D01*
X4298188Y3078226D02*
G01*
X4292854Y3089147D01*
X4281931Y3100070D01*
X4271009Y3105657D01*
X4249165Y3105657D01*
X4238243Y3100070D01*
X4227322Y3089147D01*
X4221734Y3078226D01*
X4216400Y3061970D01*
X4216400Y3034792D01*
X4221734Y3018281D01*
X4227322Y3007360D01*
X4238243Y2996437D01*
X4249165Y2991104D01*
X4271009Y2991104D01*
X4281931Y2996437D01*
X4292854Y3007360D01*
X4298188Y3018281D01*
X4298188Y3034792D01*
X4271009Y3034792D02*
G01*
X4298188Y3034792D01*
X4334256Y3105657D02*
G01*
X4334256Y2991104D01*
X4334256Y3105657D02*
G01*
X4410456Y2991104D01*
X4410456Y3105657D02*
G01*
X4410456Y2991104D01*
X4446524Y3105657D02*
G01*
X4446524Y2991104D01*
X4446524Y3105657D02*
G01*
X4484877Y3105657D01*
X4501134Y3100070D01*
X4512056Y3089147D01*
X4517390Y3078226D01*
X4522977Y3061970D01*
X4522977Y3034792D01*
X4517390Y3018281D01*
X4512056Y3007360D01*
X4501134Y2996437D01*
X4484877Y2991104D01*
X4446524Y2991104D01*
X4298188Y2824226D02*
G01*
X4292854Y2835147D01*
X4281931Y2846070D01*
X4271009Y2851657D01*
X4249165Y2851657D01*
X4238243Y2846070D01*
X4227322Y2835147D01*
X4221734Y2824226D01*
X4216400Y2807970D01*
X4216400Y2780792D01*
X4221734Y2764281D01*
X4227322Y2753360D01*
X4238243Y2742437D01*
X4249165Y2737104D01*
X4271009Y2737104D01*
X4281931Y2742437D01*
X4292854Y2753360D01*
X4298188Y2764281D01*
X4298188Y2780792D01*
X4271009Y2780792D02*
G01*
X4298188Y2780792D01*
X4334256Y2851657D02*
G01*
X4334256Y2737104D01*
X4334256Y2851657D02*
G01*
X4410456Y2737104D01*
X4410456Y2851657D02*
G01*
X4410456Y2737104D01*
X4446524Y2851657D02*
G01*
X4446524Y2737104D01*
X4446524Y2851657D02*
G01*
X4484877Y2851657D01*
X4501134Y2846070D01*
X4512056Y2835147D01*
X4517390Y2824226D01*
X4522977Y2807970D01*
X4522977Y2780792D01*
X4517390Y2764281D01*
X4512056Y2753360D01*
X4501134Y2742437D01*
X4484877Y2737104D01*
X4446524Y2737104D01*
X4216400Y2597657D02*
G01*
X4216400Y2483104D01*
X4216400Y2597657D02*
G01*
X4265422Y2597657D01*
X4281931Y2592070D01*
X4287265Y2586736D01*
X4292854Y2575813D01*
X4292854Y2564892D01*
X4287265Y2553970D01*
X4281931Y2548381D01*
X4265422Y2543047D01*
X4216400Y2543047D01*
X4254500Y2543047D02*
G01*
X4292854Y2483104D01*
X4334256Y2570226D02*
G01*
X4334256Y2575813D01*
X4339590Y2586736D01*
X4345177Y2592070D01*
X4356100Y2597657D01*
X4377943Y2597657D01*
X4388865Y2592070D01*
X4394200Y2586736D01*
X4399788Y2575813D01*
X4399788Y2564892D01*
X4394200Y2553970D01*
X4383277Y2537713D01*
X4328668Y2483104D01*
X4405122Y2483104D01*
X4525009Y2575813D02*
G01*
X4535931Y2581147D01*
X4552441Y2597657D01*
X4552441Y2483104D01*
X4216400Y2343657D02*
G01*
X4216400Y2229104D01*
X4216400Y2343657D02*
G01*
X4265422Y2343657D01*
X4281931Y2338070D01*
X4287265Y2332736D01*
X4292854Y2321813D01*
X4292854Y2310892D01*
X4287265Y2299970D01*
X4281931Y2294381D01*
X4265422Y2289047D01*
X4216400Y2289047D01*
X4254500Y2289047D02*
G01*
X4292854Y2229104D01*
X4334256Y2316226D02*
G01*
X4334256Y2321813D01*
X4339590Y2332736D01*
X4345177Y2338070D01*
X4356100Y2343657D01*
X4377943Y2343657D01*
X4388865Y2338070D01*
X4394200Y2332736D01*
X4399788Y2321813D01*
X4399788Y2310892D01*
X4394200Y2299970D01*
X4383277Y2283713D01*
X4328668Y2229104D01*
X4405122Y2229104D01*
X4530597Y2316226D02*
G01*
X4530597Y2321813D01*
X4535931Y2332736D01*
X4541520Y2338070D01*
X4552441Y2343657D01*
X4574286Y2343657D01*
X4585208Y2338070D01*
X4590541Y2332736D01*
X4596129Y2321813D01*
X4596129Y2310892D01*
X4590541Y2299970D01*
X4579620Y2283713D01*
X4525009Y2229104D01*
X4601463Y2229104D01*
X4216400Y2089657D02*
G01*
X4216400Y1975104D01*
X4216400Y2089657D02*
G01*
X4265422Y2089657D01*
X4281931Y2084070D01*
X4287265Y2078736D01*
X4292854Y2067813D01*
X4292854Y2056892D01*
X4287265Y2045970D01*
X4281931Y2040381D01*
X4265422Y2035047D01*
X4216400Y2035047D01*
X4254500Y2035047D02*
G01*
X4292854Y1975104D01*
X4334256Y2062226D02*
G01*
X4334256Y2067813D01*
X4339590Y2078736D01*
X4345177Y2084070D01*
X4356100Y2089657D01*
X4377943Y2089657D01*
X4388865Y2084070D01*
X4394200Y2078736D01*
X4399788Y2067813D01*
X4399788Y2056892D01*
X4394200Y2045970D01*
X4383277Y2029713D01*
X4328668Y1975104D01*
X4405122Y1975104D01*
X4535931Y2089657D02*
G01*
X4596129Y2089657D01*
X4563363Y2045970D01*
X4579620Y2045970D01*
X4590541Y2040381D01*
X4596129Y2035047D01*
X4601463Y2018792D01*
X4601463Y2007870D01*
X4596129Y1991360D01*
X4585208Y1980437D01*
X4568697Y1975104D01*
X4552441Y1975104D01*
X4535931Y1980437D01*
X4530597Y1986026D01*
X4525009Y1996947D01*
X2717794Y4489950D02*
G01*
X2717794Y4375396D01*
X2717794Y4489950D02*
G01*
X2766816Y4489950D01*
X2783326Y4484362D01*
X2788660Y4479028D01*
X2794248Y4468106D01*
X2794248Y4457184D01*
X2788660Y4446262D01*
X2783326Y4440674D01*
X2766816Y4435340D01*
X2717794Y4435340D01*
X2755894Y4435340D02*
G01*
X2794248Y4375396D01*
X2830062Y4468106D02*
G01*
X2840984Y4473440D01*
X2857494Y4489950D01*
X2857494Y4375396D01*
X2692400Y2559557D02*
G01*
X2692400Y2445004D01*
X2692400Y2559557D02*
G01*
X2741422Y2559557D01*
X2757931Y2553970D01*
X2763265Y2548636D01*
X2768854Y2537713D01*
X2768854Y2526792D01*
X2763265Y2515870D01*
X2757931Y2510281D01*
X2741422Y2504947D01*
X2692400Y2504947D01*
X2730500Y2504947D02*
G01*
X2768854Y2445004D01*
X2810256Y2532126D02*
G01*
X2810256Y2537713D01*
X2815590Y2548636D01*
X2821177Y2553970D01*
X2832100Y2559557D01*
X2853943Y2559557D01*
X2864865Y2553970D01*
X2870200Y2548636D01*
X2875788Y2537713D01*
X2875788Y2526792D01*
X2870200Y2515870D01*
X2859277Y2499613D01*
X2804668Y2445004D01*
X2881122Y2445004D01*
D11*
X3746487Y2552682D02*
G01*
X4076687Y2552682D01*
X3733787Y2019294D02*
G01*
X3733787Y2095494D01*
X3809987Y2133594D01*
X3657587Y2209794D01*
X3809987Y2285994D01*
X3657587Y2362194D01*
X3809987Y2438394D01*
X3733787Y2476494D01*
X3733774Y2552687D01*
X4063987Y2285994D02*
G01*
X3835387Y2285994D01*
X3733774Y2019287D02*
G01*
X4063974Y2019287D01*
X3835374Y2285982D02*
G01*
X3886174Y2247887D01*
X3835387Y2285994D02*
G01*
X3886174Y2324087D01*
X3746487Y3822682D02*
G01*
X4076687Y3822682D01*
X3733787Y3289294D02*
G01*
X3733787Y3365494D01*
X3809987Y3403594D01*
X3657587Y3479794D01*
X3809987Y3555994D01*
X3657587Y3632194D01*
X3809987Y3708394D01*
X3733787Y3746494D01*
X3733774Y3822687D01*
X4063987Y3555994D02*
G01*
X3835387Y3555994D01*
X3733774Y3289287D02*
G01*
X4063974Y3289287D01*
X3835374Y3555982D02*
G01*
X3886174Y3517887D01*
X3835387Y3555994D02*
G01*
X3886174Y3594087D01*
M02*
