G04 Layer: TopLayer*
G04 Panelize: , Column: 2, Row: 2, Board Size: 58.42mm x 58.42mm, Panelized Board Size: 118.84mm x 118.84mm*
G04 EasyEDA v6.5.34, 2023-08-21 18:11:39*
G04 cee4ee92fcc340cbb195a6d854c32cc1,5a6b42c53f6a479593ecc07194224c93,10*
G04 Gerber Generator version 0.2*
G04 Scale: 100 percent, Rotated: No, Reflected: No *
G04 Dimensions in millimeters *
G04 leading zeros omitted , absolute positions ,4 integer and 5 decimal *
%FSLAX45Y45*%
%MOMM*%

%ADD10C,0.1524*%
%ADD11C,0.2540*%
%ADD12C,0.5000*%
%ADD13O,2.3599902X0.5949949999999999*%
%ADD14R,0.8999X1.0000*%
%ADD15R,1.0000X1.1000*%
%ADD16R,0.8000X0.9000*%
%ADD17C,5.0000*%
%ADD18C,1.8000*%
%ADD19C,2.0000*%
%ADD20C,0.6096*%
%ADD21C,0.0191*%

%LPD*%
G36*
X5805932Y25908D02*
G01*
X36068Y26416D01*
X32156Y27178D01*
X28905Y29413D01*
X26670Y32664D01*
X25908Y36576D01*
X25908Y5805932D01*
X26670Y5809843D01*
X28905Y5813094D01*
X32156Y5815330D01*
X36068Y5816092D01*
X2555240Y5816092D01*
X2559151Y5815330D01*
X2562402Y5813094D01*
X2564638Y5809843D01*
X2565400Y5805932D01*
X2566162Y5809843D01*
X2568397Y5813094D01*
X2571648Y5815330D01*
X2575560Y5816092D01*
X3050540Y5816092D01*
X3054451Y5815330D01*
X3057702Y5813094D01*
X3059938Y5809843D01*
X3060700Y5805932D01*
X3061462Y5809843D01*
X3063697Y5813094D01*
X3066948Y5815330D01*
X3070860Y5816092D01*
X5805932Y5816092D01*
X5809843Y5815330D01*
X5813094Y5813094D01*
X5815330Y5809843D01*
X5816092Y5805932D01*
X5816092Y36068D01*
X5815330Y32207D01*
X5813094Y28905D01*
X5809843Y26670D01*
G37*

%LPC*%
G36*
X3717594Y5664200D02*
G01*
X3775811Y5664200D01*
X3775811Y5727395D01*
X3744061Y5727395D01*
X3737762Y5726684D01*
X3732276Y5724804D01*
X3727399Y5721705D01*
X3723284Y5717590D01*
X3720185Y5712714D01*
X3718306Y5707227D01*
X3717594Y5700928D01*
G37*
G36*
X5448300Y105613D02*
G01*
X5448300Y368300D01*
X5185410Y368300D01*
X5187289Y346405D01*
X5191150Y323646D01*
X5196890Y301244D01*
X5204460Y279450D01*
X5213858Y258317D01*
X5224983Y238099D01*
X5237784Y218846D01*
X5252161Y200710D01*
X5267960Y183896D01*
X5285130Y168402D01*
X5303520Y154432D01*
X5323027Y142087D01*
X5343499Y131368D01*
X5364835Y122428D01*
X5386781Y115265D01*
X5409285Y109982D01*
X5432145Y106629D01*
G37*
G36*
X368300Y105613D02*
G01*
X368300Y368300D01*
X105410Y368300D01*
X107289Y346405D01*
X111150Y323646D01*
X116890Y301244D01*
X124460Y279450D01*
X133858Y258317D01*
X144983Y238099D01*
X157784Y218846D01*
X172161Y200710D01*
X187960Y183896D01*
X205130Y168402D01*
X223520Y154432D01*
X243027Y142087D01*
X263499Y131368D01*
X284835Y122428D01*
X306781Y115265D01*
X329285Y109982D01*
X352145Y106629D01*
G37*
G36*
X393700Y393700D02*
G01*
X656336Y393700D01*
X655929Y404063D01*
X653034Y427024D01*
X648208Y449630D01*
X641553Y471728D01*
X633018Y493217D01*
X622757Y513892D01*
X610819Y533704D01*
X597204Y552348D01*
X582117Y569874D01*
X565607Y586028D01*
X547827Y600760D01*
X528828Y613968D01*
X508812Y625500D01*
X487934Y635355D01*
X466242Y643382D01*
X443992Y649630D01*
X421284Y653948D01*
X398322Y656336D01*
X393700Y656437D01*
G37*
G36*
X5473700Y393700D02*
G01*
X5736336Y393700D01*
X5735929Y404063D01*
X5733034Y427024D01*
X5728208Y449630D01*
X5721553Y471728D01*
X5713018Y493217D01*
X5702757Y513892D01*
X5690819Y533704D01*
X5677204Y552348D01*
X5662117Y569874D01*
X5645607Y586028D01*
X5627827Y600760D01*
X5608828Y613968D01*
X5588812Y625500D01*
X5567934Y635355D01*
X5546242Y643382D01*
X5523992Y649630D01*
X5501284Y653948D01*
X5478322Y656336D01*
X5473700Y656437D01*
G37*
G36*
X5185410Y393700D02*
G01*
X5448300Y393700D01*
X5448300Y656386D01*
X5432145Y655370D01*
X5409285Y652018D01*
X5386781Y646734D01*
X5364835Y639572D01*
X5343499Y630631D01*
X5323027Y619912D01*
X5303520Y607568D01*
X5285130Y593598D01*
X5267960Y578104D01*
X5252161Y561289D01*
X5237784Y543153D01*
X5224983Y523900D01*
X5213858Y503682D01*
X5204460Y482549D01*
X5196890Y460756D01*
X5191150Y438353D01*
X5187289Y415594D01*
G37*
G36*
X105410Y393700D02*
G01*
X368300Y393700D01*
X368300Y656386D01*
X352145Y655370D01*
X329285Y652018D01*
X306781Y646734D01*
X284835Y639572D01*
X263499Y630631D01*
X243027Y619912D01*
X223520Y607568D01*
X205130Y593598D01*
X187960Y578104D01*
X172161Y561289D01*
X157784Y543153D01*
X144983Y523900D01*
X133858Y503682D01*
X124460Y482549D01*
X116890Y460756D01*
X111150Y438353D01*
X107289Y415594D01*
G37*
G36*
X209804Y999032D02*
G01*
X223621Y999896D01*
X237185Y1002639D01*
X250342Y1007059D01*
X262737Y1013206D01*
X274269Y1020876D01*
X284683Y1030020D01*
X293827Y1040434D01*
X301498Y1051966D01*
X307644Y1064361D01*
X312064Y1077518D01*
X314807Y1091082D01*
X315671Y1104900D01*
X314807Y1118717D01*
X312064Y1132281D01*
X307644Y1145438D01*
X301498Y1157833D01*
X293827Y1169365D01*
X284683Y1179779D01*
X274269Y1188923D01*
X262737Y1196594D01*
X250342Y1202740D01*
X237185Y1207160D01*
X223621Y1209903D01*
X209804Y1210767D01*
X195986Y1209903D01*
X182422Y1207160D01*
X169265Y1202740D01*
X156870Y1196594D01*
X145338Y1188923D01*
X134924Y1179779D01*
X125780Y1169365D01*
X118110Y1157833D01*
X111963Y1145438D01*
X107543Y1132281D01*
X104800Y1118717D01*
X103936Y1104900D01*
X104800Y1091082D01*
X107543Y1077518D01*
X111963Y1064361D01*
X118110Y1051966D01*
X125780Y1040434D01*
X134924Y1030020D01*
X145338Y1020876D01*
X156870Y1013206D01*
X169265Y1007059D01*
X182422Y1002639D01*
X195986Y999896D01*
G37*
G36*
X3105404Y999032D02*
G01*
X3119221Y999896D01*
X3132785Y1002639D01*
X3145942Y1007059D01*
X3158337Y1013206D01*
X3169869Y1020876D01*
X3180283Y1030020D01*
X3189427Y1040434D01*
X3197098Y1051966D01*
X3203244Y1064361D01*
X3207664Y1077518D01*
X3210407Y1091082D01*
X3211271Y1104900D01*
X3210407Y1118717D01*
X3207664Y1132281D01*
X3203244Y1145438D01*
X3197098Y1157833D01*
X3189427Y1169365D01*
X3180283Y1179779D01*
X3169869Y1188923D01*
X3158337Y1196594D01*
X3145942Y1202740D01*
X3132785Y1207160D01*
X3119221Y1209903D01*
X3105404Y1210767D01*
X3091586Y1209903D01*
X3078022Y1207160D01*
X3064865Y1202740D01*
X3052470Y1196594D01*
X3040938Y1188923D01*
X3030524Y1179779D01*
X3021380Y1169365D01*
X3013710Y1157833D01*
X3007563Y1145438D01*
X3003143Y1132281D01*
X3000400Y1118717D01*
X2999536Y1104900D01*
X3000400Y1091082D01*
X3003143Y1077518D01*
X3007563Y1064361D01*
X3013710Y1051966D01*
X3021380Y1040434D01*
X3030524Y1030020D01*
X3040938Y1020876D01*
X3052470Y1013206D01*
X3064865Y1007059D01*
X3078022Y1002639D01*
X3091586Y999896D01*
G37*
G36*
X2731008Y999032D02*
G01*
X2744825Y999896D01*
X2758389Y1002639D01*
X2771546Y1007059D01*
X2783941Y1013206D01*
X2795473Y1020876D01*
X2805887Y1030020D01*
X2815031Y1040434D01*
X2822702Y1051966D01*
X2828848Y1064361D01*
X2833268Y1077518D01*
X2836011Y1091082D01*
X2836875Y1104900D01*
X2836011Y1118717D01*
X2833268Y1132281D01*
X2828848Y1145438D01*
X2822702Y1157833D01*
X2815031Y1169365D01*
X2805887Y1179779D01*
X2795473Y1188923D01*
X2783941Y1196594D01*
X2771546Y1202740D01*
X2758389Y1207160D01*
X2744825Y1209903D01*
X2731008Y1210767D01*
X2717190Y1209903D01*
X2703626Y1207160D01*
X2690469Y1202740D01*
X2678074Y1196594D01*
X2666542Y1188923D01*
X2656128Y1179779D01*
X2646984Y1169365D01*
X2639314Y1157833D01*
X2633167Y1145438D01*
X2628747Y1132281D01*
X2626004Y1118717D01*
X2625140Y1104900D01*
X2626004Y1091082D01*
X2628747Y1077518D01*
X2633167Y1064361D01*
X2639314Y1051966D01*
X2646984Y1040434D01*
X2656128Y1030020D01*
X2666542Y1020876D01*
X2678074Y1013206D01*
X2690469Y1007059D01*
X2703626Y1002639D01*
X2717190Y999896D01*
G37*
G36*
X5626608Y999032D02*
G01*
X5640425Y999896D01*
X5653989Y1002639D01*
X5667095Y1007059D01*
X5679541Y1013206D01*
X5691022Y1020876D01*
X5701436Y1030020D01*
X5710580Y1040434D01*
X5718302Y1051966D01*
X5724398Y1064361D01*
X5728868Y1077518D01*
X5731560Y1091082D01*
X5732475Y1104900D01*
X5731560Y1118717D01*
X5728868Y1132281D01*
X5724398Y1145438D01*
X5718302Y1157833D01*
X5710580Y1169365D01*
X5701436Y1179779D01*
X5691022Y1188923D01*
X5679541Y1196594D01*
X5667095Y1202740D01*
X5653989Y1207160D01*
X5640425Y1209903D01*
X5626608Y1210767D01*
X5612739Y1209903D01*
X5599176Y1207160D01*
X5586069Y1202740D01*
X5573623Y1196594D01*
X5562142Y1188923D01*
X5551728Y1179779D01*
X5542584Y1169365D01*
X5534863Y1157833D01*
X5528767Y1145438D01*
X5524296Y1132281D01*
X5521604Y1118717D01*
X5520690Y1104900D01*
X5521604Y1091082D01*
X5524296Y1077518D01*
X5528767Y1064361D01*
X5534863Y1051966D01*
X5542584Y1040434D01*
X5551728Y1030020D01*
X5562142Y1020876D01*
X5573623Y1013206D01*
X5586069Y1007059D01*
X5599176Y1002639D01*
X5612739Y999896D01*
G37*
G36*
X3477006Y1204010D02*
G01*
X3492195Y1204925D01*
X3507130Y1207668D01*
X3521659Y1212189D01*
X3535527Y1218438D01*
X3548532Y1226312D01*
X3560470Y1235659D01*
X3571240Y1246428D01*
X3580587Y1258366D01*
X3588461Y1271371D01*
X3594760Y1285290D01*
X3596944Y1288491D01*
X3600196Y1290574D01*
X3604006Y1291285D01*
X3607815Y1290574D01*
X3611067Y1288491D01*
X3613251Y1285290D01*
X3619550Y1271371D01*
X3627424Y1258366D01*
X3636772Y1246428D01*
X3647541Y1235659D01*
X3659479Y1226312D01*
X3672484Y1218438D01*
X3686352Y1212189D01*
X3700881Y1207668D01*
X3715816Y1204925D01*
X3731006Y1204010D01*
X3746195Y1204925D01*
X3761130Y1207668D01*
X3775659Y1212189D01*
X3789527Y1218438D01*
X3802532Y1226312D01*
X3814470Y1235659D01*
X3825240Y1246428D01*
X3834587Y1258366D01*
X3842461Y1271371D01*
X3848760Y1285290D01*
X3850944Y1288491D01*
X3854196Y1290574D01*
X3858006Y1291285D01*
X3861815Y1290574D01*
X3865067Y1288491D01*
X3867251Y1285290D01*
X3873550Y1271371D01*
X3881424Y1258366D01*
X3890772Y1246428D01*
X3901541Y1235659D01*
X3913479Y1226312D01*
X3926484Y1218438D01*
X3940352Y1212189D01*
X3954881Y1207668D01*
X3969816Y1204925D01*
X3985006Y1204010D01*
X4000195Y1204925D01*
X4015130Y1207668D01*
X4029659Y1212189D01*
X4043527Y1218438D01*
X4056532Y1226312D01*
X4068470Y1235659D01*
X4079240Y1246428D01*
X4088587Y1258366D01*
X4096461Y1271371D01*
X4102760Y1285290D01*
X4104944Y1288491D01*
X4108196Y1290574D01*
X4112006Y1291285D01*
X4115815Y1290574D01*
X4119067Y1288491D01*
X4121251Y1285290D01*
X4127550Y1271371D01*
X4135424Y1258366D01*
X4144772Y1246428D01*
X4155541Y1235659D01*
X4167479Y1226312D01*
X4180484Y1218438D01*
X4194352Y1212189D01*
X4208881Y1207668D01*
X4223816Y1204925D01*
X4239006Y1204010D01*
X4254195Y1204925D01*
X4269130Y1207668D01*
X4283659Y1212189D01*
X4297527Y1218438D01*
X4310532Y1226312D01*
X4322470Y1235659D01*
X4333240Y1246428D01*
X4342587Y1258366D01*
X4350461Y1271371D01*
X4356760Y1285290D01*
X4358944Y1288491D01*
X4362196Y1290574D01*
X4366006Y1291285D01*
X4369816Y1290574D01*
X4373067Y1288491D01*
X4375251Y1285290D01*
X4381550Y1271371D01*
X4389424Y1258366D01*
X4398772Y1246428D01*
X4409541Y1235659D01*
X4421479Y1226312D01*
X4434484Y1218438D01*
X4448352Y1212189D01*
X4462881Y1207668D01*
X4477816Y1204925D01*
X4493006Y1204010D01*
X4508195Y1204925D01*
X4523130Y1207668D01*
X4537659Y1212189D01*
X4551527Y1218438D01*
X4564532Y1226312D01*
X4576470Y1235659D01*
X4587240Y1246428D01*
X4596587Y1258366D01*
X4604461Y1271371D01*
X4610760Y1285290D01*
X4612944Y1288491D01*
X4616196Y1290574D01*
X4620006Y1291285D01*
X4623816Y1290574D01*
X4627067Y1288491D01*
X4629251Y1285290D01*
X4635550Y1271371D01*
X4643424Y1258366D01*
X4652772Y1246428D01*
X4663541Y1235659D01*
X4675479Y1226312D01*
X4688484Y1218438D01*
X4702352Y1212189D01*
X4716881Y1207668D01*
X4731816Y1204925D01*
X4747006Y1204010D01*
X4762195Y1204925D01*
X4777130Y1207668D01*
X4791659Y1212189D01*
X4805527Y1218438D01*
X4818532Y1226312D01*
X4830470Y1235659D01*
X4841240Y1246428D01*
X4850587Y1258366D01*
X4858461Y1271371D01*
X4864760Y1285290D01*
X4866944Y1288491D01*
X4870196Y1290574D01*
X4874006Y1291285D01*
X4877816Y1290574D01*
X4881067Y1288491D01*
X4883251Y1285290D01*
X4889550Y1271371D01*
X4897424Y1258366D01*
X4906772Y1246428D01*
X4917541Y1235659D01*
X4929479Y1226312D01*
X4942484Y1218438D01*
X4956352Y1212189D01*
X4970881Y1207668D01*
X4985816Y1204925D01*
X5001006Y1204010D01*
X5016195Y1204925D01*
X5031130Y1207668D01*
X5045659Y1212189D01*
X5059527Y1218438D01*
X5072532Y1226312D01*
X5084470Y1235659D01*
X5095240Y1246428D01*
X5104587Y1258366D01*
X5112461Y1271371D01*
X5118760Y1285290D01*
X5120944Y1288491D01*
X5124196Y1290574D01*
X5128006Y1291285D01*
X5131816Y1290574D01*
X5135067Y1288491D01*
X5137251Y1285290D01*
X5143550Y1271371D01*
X5151424Y1258366D01*
X5160772Y1246428D01*
X5171541Y1235659D01*
X5183479Y1226312D01*
X5196484Y1218438D01*
X5210352Y1212189D01*
X5224881Y1207668D01*
X5239816Y1204925D01*
X5255006Y1204010D01*
X5270195Y1204925D01*
X5285130Y1207668D01*
X5299659Y1212189D01*
X5313527Y1218438D01*
X5326532Y1226312D01*
X5338470Y1235659D01*
X5349240Y1246428D01*
X5358587Y1258366D01*
X5366461Y1271371D01*
X5372709Y1285240D01*
X5377230Y1299768D01*
X5379974Y1314704D01*
X5380888Y1329893D01*
X5379974Y1345082D01*
X5377230Y1360017D01*
X5372709Y1374546D01*
X5366461Y1388414D01*
X5358587Y1401419D01*
X5349240Y1413357D01*
X5338470Y1424127D01*
X5326532Y1433474D01*
X5313527Y1441348D01*
X5299659Y1447596D01*
X5285130Y1452118D01*
X5270195Y1454861D01*
X5255006Y1455775D01*
X5239816Y1454861D01*
X5224881Y1452118D01*
X5210352Y1447596D01*
X5196484Y1441348D01*
X5183479Y1433474D01*
X5171541Y1424127D01*
X5160772Y1413357D01*
X5151424Y1401419D01*
X5143550Y1388414D01*
X5137251Y1374495D01*
X5135067Y1371295D01*
X5131816Y1369212D01*
X5128006Y1368501D01*
X5124196Y1369212D01*
X5120944Y1371295D01*
X5118760Y1374495D01*
X5112461Y1388414D01*
X5104587Y1401419D01*
X5095240Y1413357D01*
X5084470Y1424127D01*
X5072532Y1433474D01*
X5059527Y1441348D01*
X5045659Y1447596D01*
X5031130Y1452118D01*
X5016195Y1454861D01*
X5001006Y1455775D01*
X4985816Y1454861D01*
X4970881Y1452118D01*
X4956352Y1447596D01*
X4942484Y1441348D01*
X4929479Y1433474D01*
X4917541Y1424127D01*
X4906772Y1413357D01*
X4897424Y1401419D01*
X4889550Y1388414D01*
X4883251Y1374495D01*
X4881067Y1371295D01*
X4877816Y1369212D01*
X4874006Y1368501D01*
X4870196Y1369212D01*
X4866944Y1371295D01*
X4864760Y1374495D01*
X4858461Y1388414D01*
X4850587Y1401419D01*
X4841240Y1413357D01*
X4830470Y1424127D01*
X4818532Y1433474D01*
X4805527Y1441348D01*
X4791659Y1447596D01*
X4777130Y1452118D01*
X4762195Y1454861D01*
X4747006Y1455775D01*
X4731816Y1454861D01*
X4716881Y1452118D01*
X4702352Y1447596D01*
X4688484Y1441348D01*
X4675479Y1433474D01*
X4663541Y1424127D01*
X4652772Y1413357D01*
X4643424Y1401419D01*
X4635550Y1388414D01*
X4629251Y1374495D01*
X4627067Y1371295D01*
X4623816Y1369212D01*
X4620006Y1368501D01*
X4616196Y1369212D01*
X4612944Y1371295D01*
X4610760Y1374495D01*
X4604461Y1388414D01*
X4596587Y1401419D01*
X4587240Y1413357D01*
X4576470Y1424127D01*
X4564532Y1433474D01*
X4551527Y1441348D01*
X4537659Y1447596D01*
X4523130Y1452118D01*
X4508195Y1454861D01*
X4493006Y1455775D01*
X4477816Y1454861D01*
X4462881Y1452118D01*
X4448352Y1447596D01*
X4434484Y1441348D01*
X4421479Y1433474D01*
X4409541Y1424127D01*
X4398772Y1413357D01*
X4389424Y1401419D01*
X4381550Y1388414D01*
X4375251Y1374495D01*
X4373067Y1371295D01*
X4369816Y1369212D01*
X4366006Y1368501D01*
X4362196Y1369212D01*
X4358944Y1371295D01*
X4356760Y1374495D01*
X4350461Y1388414D01*
X4342587Y1401419D01*
X4333240Y1413357D01*
X4322470Y1424127D01*
X4310532Y1433474D01*
X4297527Y1441348D01*
X4283659Y1447596D01*
X4269130Y1452118D01*
X4254195Y1454861D01*
X4239006Y1455775D01*
X4223816Y1454861D01*
X4208881Y1452118D01*
X4194352Y1447596D01*
X4180484Y1441348D01*
X4167479Y1433474D01*
X4155541Y1424127D01*
X4144772Y1413357D01*
X4135424Y1401419D01*
X4127550Y1388414D01*
X4121251Y1374495D01*
X4119067Y1371295D01*
X4115815Y1369212D01*
X4112006Y1368501D01*
X4108196Y1369212D01*
X4104944Y1371295D01*
X4102760Y1374495D01*
X4096461Y1388414D01*
X4088587Y1401419D01*
X4079240Y1413357D01*
X4068470Y1424127D01*
X4056532Y1433474D01*
X4043527Y1441348D01*
X4029659Y1447596D01*
X4015130Y1452118D01*
X4000195Y1454861D01*
X3985006Y1455775D01*
X3969816Y1454861D01*
X3954881Y1452118D01*
X3940352Y1447596D01*
X3926484Y1441348D01*
X3913479Y1433474D01*
X3901541Y1424127D01*
X3890772Y1413357D01*
X3881424Y1401419D01*
X3873550Y1388414D01*
X3867251Y1374495D01*
X3865067Y1371295D01*
X3861815Y1369212D01*
X3858006Y1368501D01*
X3854196Y1369212D01*
X3850944Y1371295D01*
X3848760Y1374495D01*
X3842461Y1388414D01*
X3834587Y1401419D01*
X3825240Y1413357D01*
X3814470Y1424127D01*
X3802532Y1433474D01*
X3789527Y1441348D01*
X3775659Y1447596D01*
X3761130Y1452118D01*
X3746195Y1454861D01*
X3731006Y1455775D01*
X3715816Y1454861D01*
X3700881Y1452118D01*
X3686352Y1447596D01*
X3672484Y1441348D01*
X3659479Y1433474D01*
X3647541Y1424127D01*
X3636772Y1413357D01*
X3627424Y1401419D01*
X3619550Y1388414D01*
X3613251Y1374495D01*
X3611067Y1371295D01*
X3607815Y1369212D01*
X3604006Y1368501D01*
X3600196Y1369212D01*
X3596944Y1371295D01*
X3594760Y1374495D01*
X3588461Y1388414D01*
X3580587Y1401419D01*
X3571240Y1413357D01*
X3560470Y1424127D01*
X3548532Y1433474D01*
X3535527Y1441348D01*
X3521659Y1447596D01*
X3507130Y1452118D01*
X3492195Y1454861D01*
X3477006Y1455775D01*
X3461816Y1454861D01*
X3446881Y1452118D01*
X3432352Y1447596D01*
X3418484Y1441348D01*
X3405479Y1433474D01*
X3393541Y1424127D01*
X3382772Y1413357D01*
X3373424Y1401419D01*
X3365550Y1388414D01*
X3359302Y1374546D01*
X3354781Y1360017D01*
X3352037Y1345082D01*
X3351123Y1329893D01*
X3352037Y1314704D01*
X3354781Y1299768D01*
X3359302Y1285240D01*
X3365550Y1271371D01*
X3373424Y1258366D01*
X3382772Y1246428D01*
X3393541Y1235659D01*
X3405479Y1226312D01*
X3418484Y1218438D01*
X3432352Y1212189D01*
X3446881Y1207668D01*
X3461816Y1204925D01*
G37*
G36*
X581406Y1204010D02*
G01*
X596595Y1204925D01*
X611530Y1207668D01*
X626059Y1212189D01*
X639927Y1218438D01*
X652932Y1226312D01*
X664870Y1235659D01*
X675640Y1246428D01*
X684987Y1258366D01*
X692861Y1271371D01*
X699160Y1285290D01*
X701344Y1288491D01*
X704596Y1290574D01*
X708406Y1291285D01*
X712216Y1290574D01*
X715467Y1288491D01*
X717651Y1285290D01*
X723950Y1271371D01*
X731824Y1258366D01*
X741172Y1246428D01*
X751941Y1235659D01*
X763879Y1226312D01*
X776884Y1218438D01*
X790752Y1212189D01*
X805281Y1207668D01*
X820216Y1204925D01*
X835406Y1204010D01*
X850595Y1204925D01*
X865530Y1207668D01*
X880059Y1212189D01*
X893927Y1218438D01*
X906932Y1226312D01*
X918870Y1235659D01*
X929640Y1246428D01*
X938987Y1258366D01*
X946861Y1271371D01*
X953160Y1285290D01*
X955344Y1288491D01*
X958596Y1290574D01*
X962406Y1291285D01*
X966216Y1290574D01*
X969467Y1288491D01*
X971651Y1285290D01*
X977950Y1271371D01*
X985824Y1258366D01*
X995171Y1246428D01*
X1005941Y1235659D01*
X1017879Y1226312D01*
X1030884Y1218438D01*
X1044752Y1212189D01*
X1059281Y1207668D01*
X1074216Y1204925D01*
X1089406Y1204010D01*
X1104595Y1204925D01*
X1119530Y1207668D01*
X1134059Y1212189D01*
X1147927Y1218438D01*
X1160932Y1226312D01*
X1172870Y1235659D01*
X1183640Y1246428D01*
X1192987Y1258366D01*
X1200861Y1271371D01*
X1207160Y1285290D01*
X1209344Y1288491D01*
X1212596Y1290574D01*
X1216406Y1291285D01*
X1220216Y1290574D01*
X1223467Y1288491D01*
X1225651Y1285290D01*
X1231950Y1271371D01*
X1239824Y1258366D01*
X1249172Y1246428D01*
X1259941Y1235659D01*
X1271879Y1226312D01*
X1284884Y1218438D01*
X1298752Y1212189D01*
X1313281Y1207668D01*
X1328216Y1204925D01*
X1343406Y1204010D01*
X1358595Y1204925D01*
X1373530Y1207668D01*
X1388059Y1212189D01*
X1401927Y1218438D01*
X1414932Y1226312D01*
X1426870Y1235659D01*
X1437640Y1246428D01*
X1446987Y1258366D01*
X1454861Y1271371D01*
X1461160Y1285290D01*
X1463344Y1288491D01*
X1466596Y1290574D01*
X1470406Y1291285D01*
X1474216Y1290574D01*
X1477467Y1288491D01*
X1479651Y1285290D01*
X1485950Y1271371D01*
X1493824Y1258366D01*
X1503172Y1246428D01*
X1513941Y1235659D01*
X1525879Y1226312D01*
X1538884Y1218438D01*
X1552752Y1212189D01*
X1567281Y1207668D01*
X1582216Y1204925D01*
X1597406Y1204010D01*
X1612595Y1204925D01*
X1627530Y1207668D01*
X1642059Y1212189D01*
X1655927Y1218438D01*
X1668932Y1226312D01*
X1680870Y1235659D01*
X1691639Y1246428D01*
X1700987Y1258366D01*
X1708861Y1271371D01*
X1715160Y1285290D01*
X1717344Y1288491D01*
X1720596Y1290574D01*
X1724406Y1291285D01*
X1728216Y1290574D01*
X1731467Y1288491D01*
X1733651Y1285290D01*
X1739950Y1271371D01*
X1747824Y1258366D01*
X1757172Y1246428D01*
X1767941Y1235659D01*
X1779879Y1226312D01*
X1792884Y1218438D01*
X1806752Y1212189D01*
X1821281Y1207668D01*
X1836216Y1204925D01*
X1851406Y1204010D01*
X1866595Y1204925D01*
X1881530Y1207668D01*
X1896059Y1212189D01*
X1909927Y1218438D01*
X1922932Y1226312D01*
X1934870Y1235659D01*
X1945639Y1246428D01*
X1954987Y1258366D01*
X1962861Y1271371D01*
X1969160Y1285290D01*
X1971344Y1288491D01*
X1974596Y1290574D01*
X1978406Y1291285D01*
X1982216Y1290574D01*
X1985467Y1288491D01*
X1987651Y1285290D01*
X1993950Y1271371D01*
X2001824Y1258366D01*
X2011172Y1246428D01*
X2021941Y1235659D01*
X2033879Y1226312D01*
X2046884Y1218438D01*
X2060752Y1212189D01*
X2075281Y1207668D01*
X2090216Y1204925D01*
X2105406Y1204010D01*
X2120595Y1204925D01*
X2135530Y1207668D01*
X2150059Y1212189D01*
X2163927Y1218438D01*
X2176932Y1226312D01*
X2188870Y1235659D01*
X2199640Y1246428D01*
X2208987Y1258366D01*
X2216861Y1271371D01*
X2223160Y1285290D01*
X2225344Y1288491D01*
X2228596Y1290574D01*
X2232406Y1291285D01*
X2236216Y1290574D01*
X2239467Y1288491D01*
X2241651Y1285290D01*
X2247950Y1271371D01*
X2255824Y1258366D01*
X2265172Y1246428D01*
X2275941Y1235659D01*
X2287879Y1226312D01*
X2300884Y1218438D01*
X2314752Y1212189D01*
X2329281Y1207668D01*
X2344216Y1204925D01*
X2359406Y1204010D01*
X2374595Y1204925D01*
X2389530Y1207668D01*
X2404059Y1212189D01*
X2417927Y1218438D01*
X2430932Y1226312D01*
X2442870Y1235659D01*
X2453640Y1246428D01*
X2462987Y1258366D01*
X2470861Y1271371D01*
X2477109Y1285240D01*
X2481630Y1299768D01*
X2484374Y1314704D01*
X2485288Y1329893D01*
X2484374Y1345082D01*
X2481630Y1360017D01*
X2477109Y1374546D01*
X2470861Y1388414D01*
X2462987Y1401419D01*
X2453640Y1413357D01*
X2442870Y1424127D01*
X2430932Y1433474D01*
X2417927Y1441348D01*
X2404059Y1447596D01*
X2389530Y1452118D01*
X2374595Y1454861D01*
X2359406Y1455775D01*
X2344216Y1454861D01*
X2329281Y1452118D01*
X2314752Y1447596D01*
X2300884Y1441348D01*
X2287879Y1433474D01*
X2275941Y1424127D01*
X2265172Y1413357D01*
X2255824Y1401419D01*
X2247950Y1388414D01*
X2241651Y1374495D01*
X2239467Y1371295D01*
X2236216Y1369212D01*
X2232406Y1368501D01*
X2228596Y1369212D01*
X2225344Y1371295D01*
X2223160Y1374495D01*
X2216861Y1388414D01*
X2208987Y1401419D01*
X2199640Y1413357D01*
X2188870Y1424127D01*
X2176932Y1433474D01*
X2163927Y1441348D01*
X2150059Y1447596D01*
X2135530Y1452118D01*
X2120595Y1454861D01*
X2105406Y1455775D01*
X2090216Y1454861D01*
X2075281Y1452118D01*
X2060752Y1447596D01*
X2046884Y1441348D01*
X2033879Y1433474D01*
X2021941Y1424127D01*
X2011172Y1413357D01*
X2001824Y1401419D01*
X1993950Y1388414D01*
X1987651Y1374495D01*
X1985467Y1371295D01*
X1982216Y1369212D01*
X1978406Y1368501D01*
X1974596Y1369212D01*
X1971344Y1371295D01*
X1969160Y1374495D01*
X1962861Y1388414D01*
X1954987Y1401419D01*
X1945639Y1413357D01*
X1934870Y1424127D01*
X1922932Y1433474D01*
X1909927Y1441348D01*
X1896059Y1447596D01*
X1881530Y1452118D01*
X1866595Y1454861D01*
X1851406Y1455775D01*
X1836216Y1454861D01*
X1821281Y1452118D01*
X1806752Y1447596D01*
X1792884Y1441348D01*
X1779879Y1433474D01*
X1767941Y1424127D01*
X1757172Y1413357D01*
X1747824Y1401419D01*
X1739950Y1388414D01*
X1733651Y1374495D01*
X1731467Y1371295D01*
X1728216Y1369212D01*
X1724406Y1368501D01*
X1720596Y1369212D01*
X1717344Y1371295D01*
X1715160Y1374495D01*
X1708861Y1388414D01*
X1700987Y1401419D01*
X1691639Y1413357D01*
X1680870Y1424127D01*
X1668932Y1433474D01*
X1655927Y1441348D01*
X1642059Y1447596D01*
X1627530Y1452118D01*
X1612595Y1454861D01*
X1597406Y1455775D01*
X1582216Y1454861D01*
X1567281Y1452118D01*
X1552752Y1447596D01*
X1538884Y1441348D01*
X1525879Y1433474D01*
X1513941Y1424127D01*
X1503172Y1413357D01*
X1493824Y1401419D01*
X1485950Y1388414D01*
X1479651Y1374495D01*
X1477467Y1371295D01*
X1474216Y1369212D01*
X1470406Y1368501D01*
X1466596Y1369212D01*
X1463344Y1371295D01*
X1461160Y1374495D01*
X1454861Y1388414D01*
X1446987Y1401419D01*
X1437640Y1413357D01*
X1426870Y1424127D01*
X1414932Y1433474D01*
X1401927Y1441348D01*
X1388059Y1447596D01*
X1373530Y1452118D01*
X1358595Y1454861D01*
X1343406Y1455775D01*
X1328216Y1454861D01*
X1313281Y1452118D01*
X1298752Y1447596D01*
X1284884Y1441348D01*
X1271879Y1433474D01*
X1259941Y1424127D01*
X1249172Y1413357D01*
X1239824Y1401419D01*
X1231950Y1388414D01*
X1225651Y1374495D01*
X1223467Y1371295D01*
X1220216Y1369212D01*
X1216406Y1368501D01*
X1212596Y1369212D01*
X1209344Y1371295D01*
X1207160Y1374495D01*
X1200861Y1388414D01*
X1192987Y1401419D01*
X1183640Y1413357D01*
X1172870Y1424127D01*
X1160932Y1433474D01*
X1147927Y1441348D01*
X1134059Y1447596D01*
X1119530Y1452118D01*
X1104595Y1454861D01*
X1089406Y1455775D01*
X1074216Y1454861D01*
X1059281Y1452118D01*
X1044752Y1447596D01*
X1030884Y1441348D01*
X1017879Y1433474D01*
X1005941Y1424127D01*
X995171Y1413357D01*
X985824Y1401419D01*
X977950Y1388414D01*
X971651Y1374495D01*
X969467Y1371295D01*
X966216Y1369212D01*
X962406Y1368501D01*
X958596Y1369212D01*
X955344Y1371295D01*
X953160Y1374495D01*
X946861Y1388414D01*
X938987Y1401419D01*
X929640Y1413357D01*
X918870Y1424127D01*
X906932Y1433474D01*
X893927Y1441348D01*
X880059Y1447596D01*
X865530Y1452118D01*
X850595Y1454861D01*
X835406Y1455775D01*
X820216Y1454861D01*
X805281Y1452118D01*
X790752Y1447596D01*
X776884Y1441348D01*
X763879Y1433474D01*
X751941Y1424127D01*
X741172Y1413357D01*
X731824Y1401419D01*
X723950Y1388414D01*
X717651Y1374495D01*
X715467Y1371295D01*
X712216Y1369212D01*
X708406Y1368501D01*
X704596Y1369212D01*
X701344Y1371295D01*
X699160Y1374495D01*
X692861Y1388414D01*
X684987Y1401419D01*
X675640Y1413357D01*
X664870Y1424127D01*
X652932Y1433474D01*
X639927Y1441348D01*
X626059Y1447596D01*
X611530Y1452118D01*
X596595Y1454861D01*
X581406Y1455775D01*
X566216Y1454861D01*
X551281Y1452118D01*
X536752Y1447596D01*
X522884Y1441348D01*
X509879Y1433474D01*
X497941Y1424127D01*
X487172Y1413357D01*
X477824Y1401419D01*
X469950Y1388414D01*
X463702Y1374546D01*
X459181Y1360017D01*
X456438Y1345082D01*
X455523Y1329893D01*
X456438Y1314704D01*
X459181Y1299768D01*
X463702Y1285240D01*
X469950Y1271371D01*
X477824Y1258366D01*
X487172Y1246428D01*
X497941Y1235659D01*
X509879Y1226312D01*
X522884Y1218438D01*
X536752Y1212189D01*
X551281Y1207668D01*
X566216Y1204925D01*
G37*
G36*
X4493006Y2039162D02*
G01*
X4502810Y2040026D01*
X4512259Y2042566D01*
X4521200Y2046681D01*
X4529226Y2052320D01*
X4536186Y2059279D01*
X4541824Y2067306D01*
X4545939Y2076246D01*
X4548479Y2085695D01*
X4549343Y2095500D01*
X4548479Y2105304D01*
X4547870Y2107590D01*
X4547565Y2111298D01*
X4548632Y2114854D01*
X4550918Y2117801D01*
X4554067Y2119731D01*
X4557674Y2120392D01*
X4701997Y2120392D01*
X4705908Y2119630D01*
X4709210Y2117394D01*
X4710785Y2115820D01*
X4718812Y2110181D01*
X4727752Y2106066D01*
X4737201Y2103526D01*
X4747006Y2102662D01*
X4756810Y2103526D01*
X4766259Y2106066D01*
X4775200Y2110181D01*
X4783226Y2115820D01*
X4790186Y2122779D01*
X4795824Y2130806D01*
X4799939Y2139746D01*
X4802479Y2149195D01*
X4803343Y2159000D01*
X4802479Y2168804D01*
X4799939Y2178253D01*
X4795824Y2187194D01*
X4790186Y2195220D01*
X4783226Y2202180D01*
X4775200Y2207818D01*
X4766259Y2211933D01*
X4756810Y2214473D01*
X4747006Y2215337D01*
X4737201Y2214473D01*
X4727752Y2211933D01*
X4718812Y2207818D01*
X4710785Y2202180D01*
X4709210Y2200605D01*
X4705908Y2198370D01*
X4701997Y2197608D01*
X4303674Y2197608D01*
X4300067Y2198268D01*
X4296918Y2200198D01*
X4294632Y2203145D01*
X4293565Y2206701D01*
X4293870Y2210409D01*
X4294479Y2212695D01*
X4295343Y2222500D01*
X4294479Y2232304D01*
X4293870Y2234590D01*
X4293565Y2238298D01*
X4294632Y2241854D01*
X4296918Y2244801D01*
X4300067Y2246731D01*
X4303674Y2247392D01*
X4955997Y2247392D01*
X4959908Y2246630D01*
X4963210Y2244394D01*
X4964785Y2242820D01*
X4972812Y2237181D01*
X4981752Y2233066D01*
X4991201Y2230526D01*
X5001006Y2229662D01*
X5010810Y2230526D01*
X5020259Y2233066D01*
X5029200Y2237181D01*
X5037226Y2242820D01*
X5044186Y2249779D01*
X5049824Y2257806D01*
X5053939Y2266746D01*
X5056479Y2276195D01*
X5057343Y2286000D01*
X5056479Y2295804D01*
X5053939Y2305253D01*
X5049824Y2314194D01*
X5044186Y2322220D01*
X5037226Y2329180D01*
X5029200Y2334818D01*
X5020259Y2338933D01*
X5010810Y2341473D01*
X5001006Y2342337D01*
X4991201Y2341473D01*
X4981752Y2338933D01*
X4972812Y2334818D01*
X4964785Y2329180D01*
X4963210Y2327605D01*
X4959908Y2325370D01*
X4955997Y2324608D01*
X4049674Y2324608D01*
X4046067Y2325268D01*
X4042918Y2327198D01*
X4040632Y2330145D01*
X4039565Y2333701D01*
X4039870Y2337409D01*
X4040479Y2339695D01*
X4041343Y2349500D01*
X4040479Y2359304D01*
X4039870Y2361590D01*
X4039565Y2365298D01*
X4040632Y2368854D01*
X4042918Y2371801D01*
X4046067Y2373731D01*
X4049674Y2374392D01*
X5209997Y2374392D01*
X5213908Y2373630D01*
X5217210Y2371394D01*
X5218785Y2369820D01*
X5226812Y2364181D01*
X5235752Y2360066D01*
X5245201Y2357526D01*
X5255006Y2356662D01*
X5264810Y2357526D01*
X5274259Y2360066D01*
X5283200Y2364181D01*
X5291226Y2369820D01*
X5298186Y2376779D01*
X5303824Y2384806D01*
X5307939Y2393746D01*
X5310479Y2403195D01*
X5311343Y2413000D01*
X5310479Y2422804D01*
X5307939Y2432253D01*
X5303824Y2441194D01*
X5298186Y2449220D01*
X5291226Y2456180D01*
X5283200Y2461818D01*
X5274259Y2465933D01*
X5264810Y2468473D01*
X5255006Y2469337D01*
X5245201Y2468473D01*
X5235752Y2465933D01*
X5226812Y2461818D01*
X5218785Y2456180D01*
X5217210Y2454605D01*
X5213908Y2452370D01*
X5209997Y2451608D01*
X3795674Y2451608D01*
X3792067Y2452268D01*
X3788918Y2454198D01*
X3786632Y2457145D01*
X3785565Y2460701D01*
X3785870Y2464409D01*
X3786479Y2466695D01*
X3787343Y2476500D01*
X3786479Y2486304D01*
X3783939Y2495753D01*
X3779824Y2504694D01*
X3774186Y2512720D01*
X3767226Y2519680D01*
X3759200Y2525318D01*
X3750259Y2529433D01*
X3740810Y2531973D01*
X3731006Y2532837D01*
X3721201Y2531973D01*
X3711752Y2529433D01*
X3702812Y2525318D01*
X3694785Y2519680D01*
X3693210Y2518105D01*
X3689908Y2515870D01*
X3685997Y2515108D01*
X3513531Y2515108D01*
X3509619Y2515870D01*
X3497376Y2524658D01*
X3488588Y2528773D01*
X3483254Y2530195D01*
X3479342Y2532227D01*
X3476701Y2535682D01*
X3475736Y2540000D01*
X3476701Y2544318D01*
X3479342Y2547772D01*
X3483254Y2549804D01*
X3488588Y2551226D01*
X3497376Y2555341D01*
X3509619Y2564130D01*
X3513531Y2564892D01*
X3561791Y2564892D01*
X3565702Y2564130D01*
X3569004Y2561894D01*
X3570579Y2560320D01*
X3578606Y2554681D01*
X3587546Y2550566D01*
X3596995Y2548026D01*
X3606800Y2547162D01*
X3616604Y2548026D01*
X3626053Y2550566D01*
X3634994Y2554681D01*
X3643020Y2560320D01*
X3649979Y2567279D01*
X3655618Y2575306D01*
X3659733Y2584246D01*
X3662273Y2593695D01*
X3663137Y2603500D01*
X3662273Y2613304D01*
X3659733Y2622753D01*
X3655618Y2631694D01*
X3649979Y2639720D01*
X3643020Y2646680D01*
X3634994Y2652318D01*
X3626053Y2656433D01*
X3616604Y2658973D01*
X3606800Y2659837D01*
X3596995Y2658973D01*
X3587546Y2656433D01*
X3578606Y2652318D01*
X3570579Y2646680D01*
X3569004Y2645105D01*
X3565702Y2642870D01*
X3561791Y2642108D01*
X3513531Y2642108D01*
X3509619Y2642870D01*
X3497376Y2651658D01*
X3488588Y2655773D01*
X3483254Y2657195D01*
X3479342Y2659227D01*
X3476701Y2662682D01*
X3475736Y2667000D01*
X3476701Y2671318D01*
X3479342Y2674772D01*
X3483254Y2676804D01*
X3488588Y2678226D01*
X3497376Y2682341D01*
X3505301Y2687878D01*
X3512159Y2694736D01*
X3517696Y2702712D01*
X3521811Y2711500D01*
X3524300Y2720848D01*
X3525164Y2730500D01*
X3524300Y2740152D01*
X3521811Y2749499D01*
X3517696Y2758287D01*
X3512159Y2766263D01*
X3505301Y2773121D01*
X3497376Y2778658D01*
X3488588Y2782773D01*
X3483254Y2784195D01*
X3479342Y2786227D01*
X3476701Y2789682D01*
X3475736Y2794000D01*
X3476701Y2798318D01*
X3479342Y2801772D01*
X3483254Y2803804D01*
X3488588Y2805226D01*
X3497376Y2809341D01*
X3505301Y2814878D01*
X3512159Y2821736D01*
X3517696Y2829712D01*
X3521811Y2838500D01*
X3524300Y2847848D01*
X3525164Y2857500D01*
X3524300Y2867152D01*
X3521811Y2876499D01*
X3517696Y2885287D01*
X3512159Y2893263D01*
X3505301Y2900121D01*
X3497376Y2905658D01*
X3488588Y2909773D01*
X3483254Y2911195D01*
X3479342Y2913227D01*
X3476701Y2916682D01*
X3475736Y2921000D01*
X3476701Y2925318D01*
X3479342Y2928772D01*
X3483254Y2930804D01*
X3488588Y2932226D01*
X3497376Y2936341D01*
X3505301Y2941878D01*
X3512159Y2948736D01*
X3517696Y2956712D01*
X3521811Y2965500D01*
X3524300Y2974848D01*
X3525164Y2984500D01*
X3524300Y2994152D01*
X3521811Y3003499D01*
X3517696Y3012287D01*
X3512159Y3020263D01*
X3505301Y3027121D01*
X3497376Y3032658D01*
X3488588Y3036773D01*
X3483254Y3038195D01*
X3479342Y3040227D01*
X3476701Y3043682D01*
X3475736Y3048000D01*
X3476701Y3052318D01*
X3479342Y3055772D01*
X3483254Y3057804D01*
X3488588Y3059226D01*
X3497376Y3063341D01*
X3505301Y3068878D01*
X3512159Y3075736D01*
X3517696Y3083712D01*
X3521811Y3092500D01*
X3524300Y3101848D01*
X3525164Y3111500D01*
X3524300Y3121152D01*
X3521811Y3130499D01*
X3517696Y3139287D01*
X3512159Y3147263D01*
X3505301Y3154121D01*
X3497376Y3159658D01*
X3488588Y3163773D01*
X3483254Y3165195D01*
X3479342Y3167227D01*
X3476701Y3170682D01*
X3475736Y3175000D01*
X3476701Y3179318D01*
X3479342Y3182772D01*
X3483254Y3184804D01*
X3488588Y3186226D01*
X3497376Y3190341D01*
X3509619Y3199130D01*
X3513531Y3199892D01*
X3575456Y3199892D01*
X3579114Y3199231D01*
X3582212Y3197301D01*
X3584498Y3194405D01*
X3585565Y3190900D01*
X3585921Y3187750D01*
X3587800Y3182264D01*
X3590899Y3177387D01*
X3595014Y3173272D01*
X3599891Y3170224D01*
X3605377Y3168294D01*
X3611676Y3167583D01*
X3690518Y3167583D01*
X3696868Y3168294D01*
X3702304Y3170224D01*
X3707231Y3173272D01*
X3711295Y3177387D01*
X3712514Y3179267D01*
X3715308Y3182213D01*
X3719068Y3183839D01*
X3723132Y3183839D01*
X3726891Y3182213D01*
X3729685Y3179267D01*
X3730904Y3177387D01*
X3734968Y3173272D01*
X3739896Y3170224D01*
X3745331Y3168294D01*
X3751681Y3167583D01*
X3778402Y3167583D01*
X3778402Y3225800D01*
X3727196Y3225800D01*
X3723284Y3226562D01*
X3719982Y3228797D01*
X3717798Y3232048D01*
X3717036Y3235960D01*
X3717036Y3241040D01*
X3717798Y3244951D01*
X3719982Y3248202D01*
X3723284Y3250438D01*
X3727196Y3251200D01*
X3778402Y3251200D01*
X3778402Y3309416D01*
X3751681Y3309416D01*
X3745331Y3308705D01*
X3739896Y3306775D01*
X3734968Y3303727D01*
X3730904Y3299612D01*
X3729685Y3297732D01*
X3726891Y3294786D01*
X3723132Y3293160D01*
X3719068Y3293160D01*
X3715308Y3294786D01*
X3712514Y3297732D01*
X3711295Y3299612D01*
X3707942Y3302965D01*
X3705910Y3305860D01*
X3704996Y3309264D01*
X3705301Y3312820D01*
X3706622Y3317595D01*
X3707434Y3327400D01*
X3706622Y3337204D01*
X3704031Y3346653D01*
X3699916Y3355594D01*
X3694277Y3363620D01*
X3687318Y3370579D01*
X3679291Y3376218D01*
X3670401Y3380333D01*
X3660901Y3382873D01*
X3651097Y3383737D01*
X3641344Y3382873D01*
X3631844Y3380333D01*
X3622954Y3376218D01*
X3614877Y3370579D01*
X3607917Y3363620D01*
X3602329Y3355594D01*
X3598164Y3346653D01*
X3595624Y3337204D01*
X3594760Y3327400D01*
X3595624Y3317595D01*
X3596894Y3312820D01*
X3597198Y3309264D01*
X3596284Y3305860D01*
X3594252Y3302965D01*
X3590899Y3299612D01*
X3587800Y3294735D01*
X3585921Y3289249D01*
X3585565Y3286150D01*
X3584498Y3282594D01*
X3582212Y3279698D01*
X3579114Y3277768D01*
X3575456Y3277108D01*
X3513480Y3277108D01*
X3509619Y3277870D01*
X3497376Y3286658D01*
X3488588Y3290773D01*
X3479190Y3293262D01*
X3469081Y3294176D01*
X3293516Y3294176D01*
X3283407Y3293262D01*
X3274009Y3290773D01*
X3265220Y3286658D01*
X3257296Y3281121D01*
X3250438Y3274263D01*
X3244900Y3266287D01*
X3240786Y3257499D01*
X3238296Y3248152D01*
X3237433Y3238500D01*
X3238296Y3228848D01*
X3240786Y3219500D01*
X3244900Y3210712D01*
X3250438Y3202736D01*
X3257296Y3195878D01*
X3265220Y3190341D01*
X3274009Y3186226D01*
X3279343Y3184804D01*
X3283254Y3182772D01*
X3285896Y3179318D01*
X3286861Y3175000D01*
X3285896Y3170682D01*
X3283254Y3167227D01*
X3279343Y3165195D01*
X3274009Y3163773D01*
X3265220Y3159658D01*
X3252978Y3150870D01*
X3249066Y3150108D01*
X2992018Y3150108D01*
X2988106Y3150870D01*
X2984804Y3153105D01*
X2935935Y3201924D01*
X2929737Y3207054D01*
X2923032Y3210610D01*
X2915818Y3212795D01*
X2907792Y3213608D01*
X2587498Y3213608D01*
X2583840Y3214268D01*
X2580690Y3216198D01*
X2578455Y3219145D01*
X2577388Y3222701D01*
X2577693Y3226409D01*
X2578303Y3228848D01*
X2579166Y3238500D01*
X2578303Y3248152D01*
X2575814Y3257499D01*
X2571699Y3266287D01*
X2566162Y3274263D01*
X2559304Y3281121D01*
X2551379Y3286658D01*
X2542590Y3290773D01*
X2533192Y3293262D01*
X2523083Y3294176D01*
X2347518Y3294176D01*
X2337409Y3293262D01*
X2328011Y3290773D01*
X2319223Y3286658D01*
X2306980Y3277870D01*
X2303068Y3277108D01*
X626414Y3277108D01*
X622503Y3277870D01*
X619201Y3280105D01*
X617626Y3281679D01*
X609600Y3287318D01*
X600659Y3291433D01*
X591210Y3293973D01*
X581406Y3294837D01*
X571601Y3293973D01*
X562152Y3291433D01*
X553212Y3287318D01*
X545185Y3281679D01*
X538226Y3274720D01*
X532587Y3266694D01*
X528472Y3257753D01*
X525932Y3248304D01*
X525068Y3238500D01*
X525932Y3228695D01*
X528472Y3219246D01*
X532587Y3210306D01*
X538226Y3202279D01*
X545185Y3195320D01*
X553212Y3189681D01*
X562152Y3185566D01*
X571601Y3183026D01*
X581406Y3182162D01*
X591210Y3183026D01*
X600659Y3185566D01*
X609600Y3189681D01*
X617626Y3195320D01*
X619201Y3196894D01*
X622503Y3199130D01*
X626414Y3199892D01*
X770737Y3199892D01*
X774344Y3199231D01*
X777494Y3197301D01*
X779780Y3194354D01*
X780846Y3190798D01*
X780542Y3187090D01*
X779932Y3184804D01*
X779068Y3175000D01*
X779932Y3165195D01*
X782472Y3155746D01*
X786587Y3146806D01*
X792226Y3138779D01*
X799185Y3131820D01*
X807212Y3126181D01*
X816152Y3122066D01*
X825601Y3119526D01*
X835406Y3118662D01*
X845210Y3119526D01*
X854659Y3122066D01*
X863600Y3126181D01*
X871626Y3131820D01*
X873201Y3133394D01*
X876503Y3135630D01*
X880414Y3136392D01*
X2283104Y3136392D01*
X2286762Y3135731D01*
X2289911Y3133801D01*
X2292146Y3130854D01*
X2293213Y3127298D01*
X2292908Y3123590D01*
X2292299Y3121152D01*
X2291435Y3111500D01*
X2292299Y3101848D01*
X2292908Y3099409D01*
X2293213Y3095701D01*
X2292146Y3092145D01*
X2289911Y3089198D01*
X2286762Y3087268D01*
X2283104Y3086608D01*
X1134414Y3086608D01*
X1130503Y3087370D01*
X1127201Y3089605D01*
X1125626Y3091180D01*
X1117600Y3096818D01*
X1108659Y3100933D01*
X1099210Y3103473D01*
X1089406Y3104337D01*
X1079601Y3103473D01*
X1070152Y3100933D01*
X1061212Y3096818D01*
X1053185Y3091180D01*
X1046226Y3084220D01*
X1040587Y3076194D01*
X1036472Y3067253D01*
X1033932Y3057804D01*
X1033068Y3048000D01*
X1033932Y3038195D01*
X1036472Y3028746D01*
X1040587Y3019806D01*
X1046226Y3011779D01*
X1053185Y3004820D01*
X1061212Y2999181D01*
X1070152Y2995066D01*
X1079601Y2992526D01*
X1089406Y2991662D01*
X1099210Y2992526D01*
X1108659Y2995066D01*
X1117600Y2999181D01*
X1125626Y3004820D01*
X1127201Y3006394D01*
X1130503Y3008630D01*
X1134414Y3009392D01*
X2283104Y3009392D01*
X2286762Y3008731D01*
X2289911Y3006801D01*
X2292146Y3003854D01*
X2293213Y3000298D01*
X2292908Y2996590D01*
X2292299Y2994152D01*
X2291435Y2984500D01*
X2292299Y2974848D01*
X2292908Y2972409D01*
X2293213Y2968701D01*
X2292146Y2965145D01*
X2289911Y2962198D01*
X2286762Y2960268D01*
X2283104Y2959608D01*
X1388414Y2959608D01*
X1384503Y2960370D01*
X1381201Y2962605D01*
X1379626Y2964180D01*
X1371600Y2969818D01*
X1362659Y2973933D01*
X1353210Y2976473D01*
X1343406Y2977337D01*
X1333601Y2976473D01*
X1324152Y2973933D01*
X1315212Y2969818D01*
X1307185Y2964180D01*
X1300226Y2957220D01*
X1294587Y2949194D01*
X1290472Y2940253D01*
X1287932Y2930804D01*
X1287068Y2921000D01*
X1287932Y2911195D01*
X1290472Y2901746D01*
X1294587Y2892806D01*
X1300226Y2884779D01*
X1307185Y2877820D01*
X1315212Y2872181D01*
X1324152Y2868066D01*
X1333601Y2865526D01*
X1343406Y2864662D01*
X1353210Y2865526D01*
X1362659Y2868066D01*
X1371600Y2872181D01*
X1379626Y2877820D01*
X1381201Y2879394D01*
X1384503Y2881630D01*
X1388414Y2882392D01*
X1532737Y2882392D01*
X1536344Y2881731D01*
X1539494Y2879801D01*
X1541780Y2876854D01*
X1542846Y2873298D01*
X1542542Y2869590D01*
X1541932Y2867304D01*
X1541068Y2857500D01*
X1541932Y2847695D01*
X1544472Y2838246D01*
X1548587Y2829306D01*
X1554226Y2821279D01*
X1561185Y2814320D01*
X1569212Y2808681D01*
X1578152Y2804566D01*
X1587601Y2802026D01*
X1597406Y2801162D01*
X1607210Y2802026D01*
X1616659Y2804566D01*
X1625600Y2808681D01*
X1633626Y2814320D01*
X1635201Y2815894D01*
X1638503Y2818130D01*
X1642414Y2818892D01*
X1786737Y2818892D01*
X1790344Y2818231D01*
X1793493Y2816301D01*
X1795780Y2813354D01*
X1796846Y2809798D01*
X1796542Y2806090D01*
X1795932Y2803804D01*
X1795068Y2794000D01*
X1795932Y2784195D01*
X1798472Y2774746D01*
X1802587Y2765806D01*
X1808225Y2757779D01*
X1815185Y2750820D01*
X1823212Y2745181D01*
X1832152Y2741066D01*
X1841601Y2738526D01*
X1851406Y2737662D01*
X1861210Y2738526D01*
X1870659Y2741066D01*
X1879600Y2745181D01*
X1887626Y2750820D01*
X1889201Y2752394D01*
X1892503Y2754630D01*
X1896414Y2755392D01*
X2040686Y2755392D01*
X2044344Y2754731D01*
X2047493Y2752801D01*
X2049780Y2749854D01*
X2050796Y2746298D01*
X2050542Y2742590D01*
X2049881Y2740304D01*
X2049068Y2730500D01*
X2049881Y2720695D01*
X2052421Y2711246D01*
X2056587Y2702306D01*
X2062225Y2694279D01*
X2069185Y2687320D01*
X2077212Y2681681D01*
X2086102Y2677566D01*
X2095601Y2675026D01*
X2105406Y2674162D01*
X2115159Y2675026D01*
X2124659Y2677566D01*
X2133549Y2681681D01*
X2141626Y2687320D01*
X2143201Y2688894D01*
X2146503Y2691130D01*
X2150364Y2691892D01*
X2303068Y2691892D01*
X2306980Y2691130D01*
X2319223Y2682341D01*
X2328011Y2678226D01*
X2333345Y2676804D01*
X2337257Y2674772D01*
X2339898Y2671318D01*
X2340864Y2667000D01*
X2339898Y2662682D01*
X2337257Y2659227D01*
X2333345Y2657195D01*
X2328011Y2655773D01*
X2319223Y2651658D01*
X2306980Y2642870D01*
X2303068Y2642108D01*
X2292908Y2642108D01*
X2288997Y2642870D01*
X2285695Y2645105D01*
X2284120Y2646680D01*
X2276094Y2652318D01*
X2267153Y2656433D01*
X2257704Y2658973D01*
X2247900Y2659837D01*
X2238095Y2658973D01*
X2228646Y2656433D01*
X2219706Y2652318D01*
X2211679Y2646680D01*
X2204720Y2639720D01*
X2199081Y2631694D01*
X2194966Y2622753D01*
X2192426Y2613304D01*
X2191562Y2603500D01*
X2192426Y2593695D01*
X2194966Y2584246D01*
X2199081Y2575306D01*
X2204720Y2567279D01*
X2211679Y2560320D01*
X2219706Y2554681D01*
X2228646Y2550566D01*
X2238095Y2548026D01*
X2247900Y2547162D01*
X2257704Y2548026D01*
X2267153Y2550566D01*
X2276094Y2554681D01*
X2284120Y2560320D01*
X2285695Y2561894D01*
X2288997Y2564130D01*
X2292908Y2564892D01*
X2303068Y2564892D01*
X2306980Y2564130D01*
X2319223Y2555341D01*
X2328011Y2551226D01*
X2333345Y2549804D01*
X2337257Y2547772D01*
X2339898Y2544318D01*
X2340864Y2540000D01*
X2339898Y2535682D01*
X2337257Y2532227D01*
X2333345Y2530195D01*
X2328011Y2528773D01*
X2319223Y2524658D01*
X2311298Y2519121D01*
X2304440Y2512263D01*
X2298903Y2504287D01*
X2294788Y2495499D01*
X2292299Y2486152D01*
X2291435Y2476500D01*
X2292299Y2466848D01*
X2294788Y2457500D01*
X2298903Y2448712D01*
X2304440Y2440736D01*
X2311298Y2433878D01*
X2319223Y2428341D01*
X2328011Y2424226D01*
X2333345Y2422804D01*
X2337257Y2420772D01*
X2339898Y2417318D01*
X2340864Y2413000D01*
X2339898Y2408682D01*
X2337257Y2405227D01*
X2333345Y2403195D01*
X2328011Y2401773D01*
X2319223Y2397658D01*
X2311298Y2392121D01*
X2304440Y2385263D01*
X2298903Y2377287D01*
X2294788Y2368499D01*
X2292299Y2359152D01*
X2291435Y2349500D01*
X2292299Y2339848D01*
X2294788Y2330500D01*
X2298903Y2321712D01*
X2304440Y2313736D01*
X2311298Y2306878D01*
X2319223Y2301341D01*
X2328011Y2297226D01*
X2333345Y2295804D01*
X2337257Y2293772D01*
X2339898Y2290318D01*
X2340864Y2286000D01*
X2339898Y2281682D01*
X2337257Y2278227D01*
X2333345Y2276195D01*
X2328011Y2274773D01*
X2319223Y2270658D01*
X2311298Y2265121D01*
X2304440Y2258263D01*
X2298903Y2250287D01*
X2294788Y2241499D01*
X2292299Y2232152D01*
X2291435Y2222500D01*
X2292299Y2212848D01*
X2294788Y2203500D01*
X2298903Y2194712D01*
X2304440Y2186736D01*
X2311298Y2179878D01*
X2319223Y2174341D01*
X2328011Y2170226D01*
X2333345Y2168804D01*
X2337257Y2166772D01*
X2339898Y2163318D01*
X2340864Y2159000D01*
X2339898Y2154682D01*
X2337257Y2151227D01*
X2333345Y2149195D01*
X2328011Y2147773D01*
X2319223Y2143658D01*
X2311298Y2138121D01*
X2304440Y2131263D01*
X2298903Y2123287D01*
X2294788Y2114499D01*
X2293112Y2108200D01*
X2422601Y2108200D01*
X2422601Y2156663D01*
X2423363Y2160574D01*
X2425598Y2163876D01*
X2428849Y2166061D01*
X2432761Y2166823D01*
X2437841Y2166823D01*
X2441752Y2166061D01*
X2445004Y2163876D01*
X2447239Y2160574D01*
X2448001Y2156663D01*
X2448001Y2108200D01*
X2577490Y2108200D01*
X2575814Y2114499D01*
X2571699Y2123287D01*
X2566162Y2131263D01*
X2559304Y2138121D01*
X2551379Y2143658D01*
X2542590Y2147773D01*
X2537256Y2149195D01*
X2533345Y2151227D01*
X2530703Y2154682D01*
X2529738Y2159000D01*
X2530703Y2163318D01*
X2533345Y2166772D01*
X2537256Y2168804D01*
X2542590Y2170226D01*
X2551379Y2174341D01*
X2563622Y2183130D01*
X2567533Y2183892D01*
X2888081Y2183892D01*
X2891993Y2183130D01*
X2895295Y2180894D01*
X2944164Y2132076D01*
X2950362Y2126945D01*
X2957068Y2123389D01*
X2964281Y2121204D01*
X2972308Y2120392D01*
X3229102Y2120392D01*
X3232759Y2119731D01*
X3235909Y2117801D01*
X3238144Y2114854D01*
X3239211Y2111298D01*
X3238906Y2107590D01*
X3238296Y2105152D01*
X3237433Y2095500D01*
X3238296Y2085848D01*
X3240786Y2076500D01*
X3244900Y2067712D01*
X3250438Y2059736D01*
X3257296Y2052878D01*
X3265220Y2047341D01*
X3274009Y2043226D01*
X3283407Y2040737D01*
X3293516Y2039823D01*
X3469081Y2039823D01*
X3479190Y2040737D01*
X3488588Y2043226D01*
X3497376Y2047341D01*
X3509619Y2056130D01*
X3513531Y2056892D01*
X4447997Y2056892D01*
X4451908Y2056130D01*
X4455210Y2053894D01*
X4456785Y2052320D01*
X4464812Y2046681D01*
X4473752Y2042566D01*
X4483201Y2040026D01*
G37*
G36*
X2347518Y2039823D02*
G01*
X2422601Y2039823D01*
X2422601Y2082800D01*
X2293112Y2082800D01*
X2294788Y2076500D01*
X2298903Y2067712D01*
X2304440Y2059736D01*
X2311298Y2052878D01*
X2319223Y2047341D01*
X2328011Y2043226D01*
X2337409Y2040737D01*
G37*
G36*
X2448001Y2039823D02*
G01*
X2523083Y2039823D01*
X2533192Y2040737D01*
X2542590Y2043226D01*
X2551379Y2047341D01*
X2559304Y2052878D01*
X2566162Y2059736D01*
X2571699Y2067712D01*
X2575814Y2076500D01*
X2577490Y2082800D01*
X2448001Y2082800D01*
G37*
G36*
X5473700Y105562D02*
G01*
X5478322Y105664D01*
X5501284Y108051D01*
X5523992Y112369D01*
X5546242Y118618D01*
X5567934Y126644D01*
X5588812Y136499D01*
X5608828Y148031D01*
X5627827Y161239D01*
X5645607Y175971D01*
X5662117Y192125D01*
X5677204Y209600D01*
X5690819Y228295D01*
X5702757Y248107D01*
X5713018Y268782D01*
X5721553Y290271D01*
X5728208Y312369D01*
X5733034Y334975D01*
X5735929Y357936D01*
X5736336Y368300D01*
X5473700Y368300D01*
G37*
G36*
X3803802Y3167583D02*
G01*
X3830523Y3167583D01*
X3836822Y3168294D01*
X3842308Y3170224D01*
X3847185Y3173272D01*
X3851300Y3177387D01*
X3854399Y3182264D01*
X3856278Y3187750D01*
X3856990Y3194050D01*
X3856990Y3225800D01*
X3803802Y3225800D01*
G37*
G36*
X3803802Y3251200D02*
G01*
X3856990Y3251200D01*
X3856990Y3282950D01*
X3856278Y3289249D01*
X3854399Y3294735D01*
X3851300Y3299612D01*
X3847185Y3303727D01*
X3842308Y3306775D01*
X3836822Y3308705D01*
X3830523Y3309416D01*
X3803802Y3309416D01*
G37*
G36*
X2489708Y3682492D02*
G01*
X3356101Y3682492D01*
X3364128Y3683304D01*
X3371342Y3685489D01*
X3378047Y3689045D01*
X3384245Y3694176D01*
X3428949Y3738829D01*
X3432200Y3741013D01*
X3436112Y3741775D01*
X3507638Y3741775D01*
X3513937Y3742486D01*
X3519424Y3744417D01*
X3524300Y3747515D01*
X3528415Y3751579D01*
X3531463Y3756507D01*
X3533394Y3761943D01*
X3534105Y3768293D01*
X3534105Y3773932D01*
X3534867Y3777843D01*
X3537051Y3781094D01*
X3540353Y3783329D01*
X3544265Y3784092D01*
X3606088Y3784092D01*
X3610000Y3783329D01*
X3613302Y3781094D01*
X3614877Y3779520D01*
X3622903Y3773881D01*
X3631844Y3769766D01*
X3641293Y3767226D01*
X3651097Y3766362D01*
X3660901Y3767226D01*
X3670350Y3769766D01*
X3679291Y3773881D01*
X3687318Y3779520D01*
X3688892Y3781094D01*
X3692194Y3783329D01*
X3696106Y3784092D01*
X5034991Y3784092D01*
X5038902Y3783329D01*
X5042204Y3781094D01*
X5043779Y3779520D01*
X5051806Y3773881D01*
X5060746Y3769766D01*
X5070195Y3767226D01*
X5080000Y3766362D01*
X5089804Y3767226D01*
X5099253Y3769766D01*
X5108194Y3773881D01*
X5116220Y3779520D01*
X5123180Y3786479D01*
X5128818Y3794506D01*
X5132933Y3803446D01*
X5135473Y3812895D01*
X5136337Y3822700D01*
X5135473Y3832504D01*
X5132933Y3841953D01*
X5128818Y3850894D01*
X5123180Y3858920D01*
X5116220Y3865879D01*
X5108194Y3871518D01*
X5099253Y3875633D01*
X5089804Y3878173D01*
X5080000Y3879037D01*
X5070195Y3878173D01*
X5060746Y3875633D01*
X5051806Y3871518D01*
X5043779Y3865879D01*
X5042204Y3864305D01*
X5038902Y3862070D01*
X5034991Y3861308D01*
X3696106Y3861308D01*
X3692194Y3862070D01*
X3688892Y3864305D01*
X3687318Y3865879D01*
X3679291Y3871518D01*
X3670350Y3875633D01*
X3660901Y3878173D01*
X3651097Y3879037D01*
X3641293Y3878173D01*
X3631844Y3875633D01*
X3622903Y3871518D01*
X3614877Y3865879D01*
X3613302Y3864305D01*
X3610000Y3862070D01*
X3606088Y3861308D01*
X3544265Y3861308D01*
X3540353Y3862070D01*
X3537051Y3864305D01*
X3534867Y3867556D01*
X3534105Y3871468D01*
X3534105Y3877106D01*
X3533394Y3883456D01*
X3531463Y3888892D01*
X3528415Y3893820D01*
X3524300Y3897884D01*
X3519424Y3900982D01*
X3513937Y3902913D01*
X3507638Y3903624D01*
X3408781Y3903624D01*
X3402431Y3902913D01*
X3396996Y3900982D01*
X3392068Y3897884D01*
X3388004Y3893820D01*
X3386785Y3891940D01*
X3383991Y3888994D01*
X3380232Y3887368D01*
X3376168Y3887368D01*
X3372408Y3888994D01*
X3369614Y3891940D01*
X3368395Y3893820D01*
X3364331Y3897884D01*
X3359404Y3900982D01*
X3354019Y3902862D01*
X3345992Y3903675D01*
X3342386Y3904691D01*
X3339439Y3906926D01*
X3337458Y3910126D01*
X3336798Y3913784D01*
X3336798Y4050080D01*
X3337712Y4054246D01*
X3340201Y4057650D01*
X3343960Y4059783D01*
X3346653Y4060596D01*
X3360470Y4066844D01*
X3373526Y4074718D01*
X3385464Y4084065D01*
X3396234Y4094835D01*
X3405581Y4106773D01*
X3413455Y4119829D01*
X3419703Y4133646D01*
X3424224Y4148175D01*
X3426968Y4163110D01*
X3427882Y4178300D01*
X3426968Y4193489D01*
X3424224Y4208424D01*
X3419703Y4222953D01*
X3413455Y4236821D01*
X3405581Y4249826D01*
X3396234Y4261815D01*
X3385464Y4272534D01*
X3373526Y4281932D01*
X3360470Y4289755D01*
X3346653Y4296003D01*
X3332124Y4300524D01*
X3317189Y4303268D01*
X3302000Y4304182D01*
X3286810Y4303268D01*
X3271875Y4300524D01*
X3257346Y4296003D01*
X3243478Y4289755D01*
X3230473Y4281932D01*
X3218535Y4272534D01*
X3207766Y4261815D01*
X3198368Y4249826D01*
X3190544Y4236821D01*
X3184245Y4222902D01*
X3182010Y4219752D01*
X3178810Y4217619D01*
X3175000Y4216908D01*
X3171190Y4217619D01*
X3167938Y4219752D01*
X3165703Y4222902D01*
X3159455Y4236821D01*
X3151581Y4249826D01*
X3142234Y4261815D01*
X3131464Y4272534D01*
X3119526Y4281932D01*
X3106470Y4289755D01*
X3092653Y4296003D01*
X3078124Y4300524D01*
X3063189Y4303268D01*
X3048000Y4304182D01*
X3032810Y4303268D01*
X3017875Y4300524D01*
X3003346Y4296003D01*
X2989478Y4289755D01*
X2976473Y4281932D01*
X2964535Y4272534D01*
X2953766Y4261815D01*
X2944368Y4249826D01*
X2936544Y4236821D01*
X2930245Y4222902D01*
X2928010Y4219752D01*
X2924810Y4217619D01*
X2921000Y4216908D01*
X2917190Y4217619D01*
X2913938Y4219752D01*
X2911703Y4222902D01*
X2905455Y4236821D01*
X2897581Y4249826D01*
X2888234Y4261815D01*
X2877464Y4272534D01*
X2865526Y4281932D01*
X2852470Y4289755D01*
X2838653Y4296003D01*
X2824124Y4300524D01*
X2809189Y4303268D01*
X2794000Y4304182D01*
X2778810Y4303268D01*
X2763875Y4300524D01*
X2749346Y4296003D01*
X2735478Y4289755D01*
X2722473Y4281932D01*
X2710535Y4272534D01*
X2699766Y4261815D01*
X2690368Y4249826D01*
X2682544Y4236821D01*
X2676245Y4222902D01*
X2674010Y4219752D01*
X2670810Y4217619D01*
X2667000Y4216908D01*
X2663190Y4217619D01*
X2659938Y4219752D01*
X2657703Y4222902D01*
X2651455Y4236821D01*
X2643581Y4249826D01*
X2634234Y4261815D01*
X2623464Y4272534D01*
X2611526Y4281932D01*
X2598470Y4289755D01*
X2584653Y4296003D01*
X2570124Y4300524D01*
X2555189Y4303268D01*
X2540000Y4304182D01*
X2524810Y4303268D01*
X2509875Y4300524D01*
X2495346Y4296003D01*
X2481478Y4289755D01*
X2468473Y4281932D01*
X2456535Y4272534D01*
X2445766Y4261815D01*
X2436368Y4249826D01*
X2428544Y4236821D01*
X2422296Y4222953D01*
X2417775Y4208424D01*
X2415032Y4193489D01*
X2414117Y4178300D01*
X2415032Y4163110D01*
X2417775Y4148175D01*
X2422296Y4133646D01*
X2428544Y4119829D01*
X2436368Y4106773D01*
X2445766Y4094835D01*
X2456535Y4084065D01*
X2468473Y4074718D01*
X2481478Y4066844D01*
X2495346Y4060596D01*
X2498039Y4059783D01*
X2501747Y4057650D01*
X2504287Y4054246D01*
X2505202Y4050080D01*
X2505202Y3926484D01*
X2504490Y3922826D01*
X2502560Y3919626D01*
X2499563Y3917391D01*
X2496007Y3916375D01*
X2487980Y3915562D01*
X2482596Y3913682D01*
X2477668Y3910584D01*
X2473604Y3906520D01*
X2472385Y3904640D01*
X2469591Y3901694D01*
X2465832Y3900068D01*
X2461768Y3900068D01*
X2458008Y3901694D01*
X2455214Y3904640D01*
X2453995Y3906520D01*
X2449931Y3910584D01*
X2445004Y3913682D01*
X2439568Y3915613D01*
X2433218Y3916324D01*
X2334361Y3916324D01*
X2328062Y3915613D01*
X2322576Y3913682D01*
X2317699Y3910584D01*
X2313584Y3906520D01*
X2310536Y3901592D01*
X2308606Y3896156D01*
X2307894Y3889806D01*
X2307894Y3780993D01*
X2308606Y3774643D01*
X2310536Y3769207D01*
X2313584Y3764279D01*
X2317699Y3760215D01*
X2322576Y3757117D01*
X2328062Y3755186D01*
X2334361Y3754475D01*
X2396998Y3754475D01*
X2400909Y3753713D01*
X2404160Y3751529D01*
X2461564Y3694176D01*
X2467762Y3689045D01*
X2474468Y3685489D01*
X2481681Y3683304D01*
G37*
G36*
X2177491Y4297426D02*
G01*
X2191308Y4298340D01*
X2204872Y4301032D01*
X2217978Y4305503D01*
X2230424Y4311599D01*
X2241905Y4319320D01*
X2252319Y4328464D01*
X2261463Y4338878D01*
X2269185Y4350359D01*
X2275281Y4362805D01*
X2279751Y4375912D01*
X2282444Y4389475D01*
X2283358Y4403293D01*
X2282444Y4417161D01*
X2279751Y4430725D01*
X2275281Y4443831D01*
X2269185Y4456277D01*
X2261463Y4467758D01*
X2252319Y4478172D01*
X2241905Y4487316D01*
X2230424Y4495038D01*
X2217978Y4501134D01*
X2204872Y4505604D01*
X2191308Y4508296D01*
X2177491Y4509211D01*
X2163622Y4508296D01*
X2150059Y4505604D01*
X2136952Y4501134D01*
X2124506Y4495038D01*
X2113026Y4487316D01*
X2102612Y4478172D01*
X2093468Y4467758D01*
X2085746Y4456277D01*
X2079650Y4443831D01*
X2075180Y4430725D01*
X2072487Y4417161D01*
X2071573Y4403293D01*
X2072487Y4389475D01*
X2075180Y4375912D01*
X2079650Y4362805D01*
X2085746Y4350359D01*
X2093468Y4338878D01*
X2102612Y4328464D01*
X2113026Y4319320D01*
X2124506Y4311599D01*
X2136952Y4305503D01*
X2150059Y4301032D01*
X2163622Y4298340D01*
G37*
G36*
X393700Y105562D02*
G01*
X398322Y105664D01*
X421284Y108051D01*
X443992Y112369D01*
X466242Y118618D01*
X487934Y126644D01*
X508812Y136499D01*
X528828Y148031D01*
X547827Y161239D01*
X565607Y175971D01*
X582117Y192125D01*
X597204Y209600D01*
X610819Y228295D01*
X622757Y248107D01*
X633018Y268782D01*
X641553Y290271D01*
X648208Y312369D01*
X653034Y334975D01*
X655929Y357936D01*
X656336Y368300D01*
X393700Y368300D01*
G37*
G36*
X3076905Y5181092D02*
G01*
X3583787Y5181092D01*
X3590086Y5181803D01*
X3595573Y5183682D01*
X3600450Y5186781D01*
X3604564Y5190896D01*
X3607612Y5195773D01*
X3609543Y5201208D01*
X3610254Y5207558D01*
X3610254Y5714441D01*
X3609543Y5720740D01*
X3607358Y5726938D01*
X3606800Y5730290D01*
X3606800Y5739384D01*
X3605784Y5740400D01*
X3587648Y5740450D01*
X3583787Y5740908D01*
X3076803Y5740908D01*
X3071774Y5740450D01*
X3067608Y5740908D01*
X3064002Y5743041D01*
X3061563Y5746445D01*
X3060700Y5750560D01*
X3060700Y5739892D01*
X3059938Y5735980D01*
X3057702Y5732678D01*
X3056128Y5731103D01*
X3053080Y5726226D01*
X3051149Y5720740D01*
X3050438Y5714441D01*
X3050438Y5207558D01*
X3051149Y5201208D01*
X3053080Y5195773D01*
X3056128Y5190896D01*
X3060242Y5186781D01*
X3065119Y5183682D01*
X3070606Y5181803D01*
G37*
G36*
X5473700Y5185562D02*
G01*
X5478322Y5185664D01*
X5501284Y5188051D01*
X5523992Y5192369D01*
X5546242Y5198618D01*
X5567934Y5206644D01*
X5588812Y5216499D01*
X5608828Y5228031D01*
X5627827Y5241239D01*
X5645607Y5255971D01*
X5662117Y5272125D01*
X5677204Y5289600D01*
X5690819Y5308295D01*
X5702757Y5328107D01*
X5713018Y5348782D01*
X5721553Y5370271D01*
X5728208Y5392369D01*
X5733034Y5414975D01*
X5735929Y5437936D01*
X5736336Y5448300D01*
X5473700Y5448300D01*
G37*
G36*
X393700Y5185562D02*
G01*
X398322Y5185664D01*
X421284Y5188051D01*
X443992Y5192369D01*
X466242Y5198618D01*
X487934Y5206644D01*
X508812Y5216499D01*
X528828Y5228031D01*
X547827Y5241239D01*
X565607Y5255971D01*
X582117Y5272125D01*
X597204Y5289600D01*
X610819Y5308295D01*
X622757Y5328107D01*
X633018Y5348782D01*
X641553Y5370271D01*
X648208Y5392369D01*
X653034Y5414975D01*
X655929Y5437936D01*
X656336Y5448300D01*
X393700Y5448300D01*
G37*
G36*
X5448300Y5185613D02*
G01*
X5448300Y5448300D01*
X5185410Y5448300D01*
X5187289Y5426405D01*
X5191150Y5403646D01*
X5196890Y5381244D01*
X5204460Y5359450D01*
X5213858Y5338318D01*
X5224983Y5318099D01*
X5237784Y5298846D01*
X5252161Y5280710D01*
X5267960Y5263896D01*
X5285130Y5248402D01*
X5303520Y5234432D01*
X5323027Y5222087D01*
X5343499Y5211368D01*
X5364835Y5202428D01*
X5386781Y5195265D01*
X5409285Y5189982D01*
X5432145Y5186629D01*
G37*
G36*
X368300Y5185613D02*
G01*
X368300Y5448300D01*
X105410Y5448300D01*
X107289Y5426405D01*
X111150Y5403646D01*
X116890Y5381244D01*
X124460Y5359450D01*
X133858Y5338318D01*
X144983Y5318099D01*
X157784Y5298846D01*
X172161Y5280710D01*
X187960Y5263896D01*
X205130Y5248402D01*
X223520Y5234432D01*
X243027Y5222087D01*
X263499Y5211368D01*
X284835Y5202428D01*
X306781Y5195265D01*
X329285Y5189982D01*
X352145Y5186629D01*
G37*
G36*
X4818735Y5218328D02*
G01*
X4833264Y5218328D01*
X4847691Y5220157D01*
X4861814Y5223764D01*
X4875326Y5229148D01*
X4888077Y5236159D01*
X4899863Y5244693D01*
X4910480Y5254650D01*
X4919776Y5265877D01*
X4927549Y5278170D01*
X4933746Y5291328D01*
X4938268Y5305196D01*
X4940960Y5319471D01*
X4941874Y5334000D01*
X4940960Y5348528D01*
X4938268Y5362803D01*
X4933746Y5376672D01*
X4927549Y5389829D01*
X4919776Y5402122D01*
X4910480Y5413349D01*
X4899863Y5423306D01*
X4888077Y5431840D01*
X4875326Y5438851D01*
X4861814Y5444236D01*
X4847691Y5447842D01*
X4833264Y5449671D01*
X4818735Y5449671D01*
X4804308Y5447842D01*
X4790186Y5444236D01*
X4776673Y5438851D01*
X4763922Y5431840D01*
X4752136Y5423306D01*
X4741519Y5413349D01*
X4732223Y5402122D01*
X4724450Y5389829D01*
X4718253Y5376672D01*
X4713732Y5362803D01*
X4711039Y5348528D01*
X4710125Y5334000D01*
X4711039Y5319471D01*
X4713732Y5305196D01*
X4718253Y5291328D01*
X4724450Y5278170D01*
X4732223Y5265877D01*
X4741519Y5254650D01*
X4752136Y5244693D01*
X4763922Y5236159D01*
X4776673Y5229148D01*
X4790186Y5223764D01*
X4804308Y5220157D01*
G37*
G36*
X4559300Y5219039D02*
G01*
X4559300Y5321300D01*
X4456887Y5321300D01*
X4457039Y5319471D01*
X4459732Y5305196D01*
X4464253Y5291328D01*
X4470450Y5278170D01*
X4478223Y5265877D01*
X4487519Y5254650D01*
X4498136Y5244693D01*
X4509922Y5236159D01*
X4522673Y5229148D01*
X4536186Y5223764D01*
X4550308Y5220157D01*
G37*
G36*
X4584700Y5219039D02*
G01*
X4593691Y5220157D01*
X4607814Y5223764D01*
X4621326Y5229148D01*
X4634077Y5236159D01*
X4645863Y5244693D01*
X4656480Y5254650D01*
X4665776Y5265877D01*
X4673549Y5278170D01*
X4679746Y5291328D01*
X4684268Y5305196D01*
X4686960Y5319471D01*
X4687112Y5321300D01*
X4584700Y5321300D01*
G37*
G36*
X4584700Y5346700D02*
G01*
X4687112Y5346700D01*
X4686960Y5348528D01*
X4684268Y5362803D01*
X4679746Y5376672D01*
X4673549Y5389829D01*
X4665776Y5402122D01*
X4656480Y5413349D01*
X4645863Y5423306D01*
X4634077Y5431840D01*
X4621326Y5438851D01*
X4607814Y5444236D01*
X4593691Y5447842D01*
X4584700Y5448960D01*
G37*
G36*
X4456887Y5346700D02*
G01*
X4559300Y5346700D01*
X4559300Y5448960D01*
X4550308Y5447842D01*
X4536186Y5444236D01*
X4522673Y5438851D01*
X4509922Y5431840D01*
X4498136Y5423306D01*
X4487519Y5413349D01*
X4478223Y5402122D01*
X4470450Y5389829D01*
X4464253Y5376672D01*
X4459732Y5362803D01*
X4457039Y5348528D01*
G37*
G36*
X4818735Y5472328D02*
G01*
X4833264Y5472328D01*
X4847691Y5474157D01*
X4861814Y5477764D01*
X4875326Y5483148D01*
X4888077Y5490159D01*
X4899863Y5498693D01*
X4910480Y5508650D01*
X4919776Y5519877D01*
X4927549Y5532170D01*
X4932934Y5543550D01*
X4935169Y5546648D01*
X4938369Y5548680D01*
X4942128Y5549392D01*
X5034991Y5549392D01*
X5038902Y5548630D01*
X5042204Y5546394D01*
X5043779Y5544820D01*
X5051806Y5539181D01*
X5060746Y5535066D01*
X5070195Y5532526D01*
X5080000Y5531662D01*
X5089804Y5532526D01*
X5099253Y5535066D01*
X5108194Y5539181D01*
X5116220Y5544820D01*
X5123180Y5551779D01*
X5128818Y5559806D01*
X5132933Y5568746D01*
X5135473Y5578195D01*
X5136337Y5588000D01*
X5135473Y5597804D01*
X5132933Y5607253D01*
X5128818Y5616194D01*
X5123180Y5624220D01*
X5116220Y5631180D01*
X5108194Y5636818D01*
X5099253Y5640933D01*
X5089804Y5643473D01*
X5080000Y5644337D01*
X5070195Y5643473D01*
X5060746Y5640933D01*
X5051806Y5636818D01*
X5043779Y5631180D01*
X5042204Y5629605D01*
X5038902Y5627370D01*
X5034991Y5626608D01*
X4942128Y5626608D01*
X4938369Y5627319D01*
X4935169Y5629351D01*
X4932934Y5632450D01*
X4927549Y5643829D01*
X4919776Y5656122D01*
X4910480Y5667349D01*
X4899863Y5677306D01*
X4888077Y5685840D01*
X4880762Y5689854D01*
X4877816Y5692292D01*
X4875987Y5695645D01*
X4875530Y5699404D01*
X4876444Y5703062D01*
X4878933Y5708446D01*
X4881473Y5717895D01*
X4882337Y5727700D01*
X4881473Y5737504D01*
X4878933Y5746953D01*
X4874818Y5755894D01*
X4869180Y5763920D01*
X4862220Y5770880D01*
X4854194Y5776518D01*
X4845253Y5780633D01*
X4835804Y5783173D01*
X4826000Y5784037D01*
X4816195Y5783173D01*
X4806746Y5780633D01*
X4804410Y5779566D01*
X4800092Y5778601D01*
X4385513Y5778601D01*
X4380839Y5778398D01*
X4376420Y5777839D01*
X4372102Y5776874D01*
X4367885Y5775553D01*
X4363770Y5773826D01*
X4359808Y5771794D01*
X4356100Y5769406D01*
X4352544Y5766714D01*
X4349140Y5763564D01*
X4320946Y5735370D01*
X4317695Y5733186D01*
X4313783Y5732424D01*
X4259681Y5732424D01*
X4253331Y5731713D01*
X4247896Y5729782D01*
X4242968Y5726684D01*
X4238904Y5722620D01*
X4237685Y5720740D01*
X4234891Y5717794D01*
X4231132Y5716168D01*
X4227068Y5716168D01*
X4223308Y5717794D01*
X4220514Y5720740D01*
X4219295Y5722620D01*
X4215231Y5726684D01*
X4210304Y5729782D01*
X4204868Y5731713D01*
X4198518Y5732424D01*
X4099661Y5732424D01*
X4093362Y5731713D01*
X4087876Y5729782D01*
X4082999Y5726684D01*
X4078884Y5722620D01*
X4075836Y5717692D01*
X4073906Y5712256D01*
X4073194Y5705906D01*
X4073194Y5700268D01*
X4072432Y5696356D01*
X4070197Y5693105D01*
X4066895Y5690870D01*
X4063034Y5690108D01*
X4039565Y5690108D01*
X4035907Y5690768D01*
X4032707Y5692749D01*
X4030472Y5695696D01*
X4029456Y5699302D01*
X4028643Y5707329D01*
X4026763Y5712714D01*
X4023664Y5717590D01*
X4019600Y5721705D01*
X4014673Y5724804D01*
X4009237Y5726684D01*
X4002887Y5727395D01*
X3914038Y5727395D01*
X3907739Y5726684D01*
X3902252Y5724804D01*
X3897376Y5721705D01*
X3893261Y5717590D01*
X3890213Y5712714D01*
X3888282Y5707227D01*
X3887571Y5700928D01*
X3887571Y5602071D01*
X3888282Y5595721D01*
X3890213Y5590286D01*
X3893261Y5585358D01*
X3897376Y5581294D01*
X3902252Y5578195D01*
X3907739Y5576316D01*
X3914038Y5575604D01*
X4002887Y5575604D01*
X4009237Y5576316D01*
X4014673Y5578195D01*
X4019600Y5581294D01*
X4023664Y5585358D01*
X4026763Y5590286D01*
X4028643Y5595670D01*
X4029456Y5603697D01*
X4030472Y5607304D01*
X4032707Y5610250D01*
X4035907Y5612231D01*
X4039565Y5612892D01*
X4063034Y5612892D01*
X4066895Y5612130D01*
X4070197Y5609894D01*
X4072432Y5606643D01*
X4073194Y5602732D01*
X4073194Y5597093D01*
X4073906Y5590743D01*
X4075836Y5585307D01*
X4078884Y5580380D01*
X4082999Y5576316D01*
X4087876Y5573217D01*
X4093362Y5571286D01*
X4099661Y5570575D01*
X4198518Y5570575D01*
X4204868Y5571286D01*
X4210304Y5573217D01*
X4215231Y5576316D01*
X4219295Y5580380D01*
X4220514Y5582259D01*
X4223308Y5585206D01*
X4227068Y5586831D01*
X4231132Y5586831D01*
X4234891Y5585206D01*
X4237685Y5582259D01*
X4238904Y5580380D01*
X4242968Y5576316D01*
X4247896Y5573217D01*
X4253331Y5571286D01*
X4259681Y5570575D01*
X4358538Y5570575D01*
X4364837Y5571286D01*
X4370324Y5573217D01*
X4375200Y5576316D01*
X4379315Y5580380D01*
X4382363Y5585307D01*
X4384294Y5590743D01*
X4385005Y5597093D01*
X4385005Y5651195D01*
X4385767Y5655106D01*
X4387951Y5658408D01*
X4403394Y5673801D01*
X4406696Y5676036D01*
X4410557Y5676798D01*
X4473752Y5676798D01*
X4477512Y5676087D01*
X4480712Y5674055D01*
X4482947Y5670956D01*
X4483912Y5667248D01*
X4483404Y5663488D01*
X4481576Y5660136D01*
X4478223Y5656122D01*
X4470450Y5643829D01*
X4464253Y5630672D01*
X4459732Y5616803D01*
X4457039Y5602528D01*
X4456887Y5600700D01*
X4559300Y5600700D01*
X4559300Y5666638D01*
X4560062Y5670499D01*
X4562297Y5673801D01*
X4565548Y5676036D01*
X4569460Y5676798D01*
X4574540Y5676798D01*
X4578451Y5676036D01*
X4581702Y5673801D01*
X4583938Y5670499D01*
X4584700Y5666638D01*
X4584700Y5600700D01*
X4687112Y5600700D01*
X4686960Y5602528D01*
X4684268Y5616803D01*
X4679746Y5630672D01*
X4673549Y5643829D01*
X4665776Y5656122D01*
X4662424Y5660136D01*
X4660595Y5663488D01*
X4660087Y5667248D01*
X4661052Y5670956D01*
X4663287Y5674055D01*
X4666488Y5676087D01*
X4670247Y5676798D01*
X4727752Y5676798D01*
X4731512Y5676087D01*
X4734712Y5674055D01*
X4736947Y5670956D01*
X4737912Y5667248D01*
X4737404Y5663488D01*
X4735576Y5660136D01*
X4732223Y5656122D01*
X4724450Y5643829D01*
X4718253Y5630672D01*
X4713732Y5616803D01*
X4711039Y5602528D01*
X4710125Y5588000D01*
X4711039Y5573471D01*
X4713732Y5559196D01*
X4718253Y5545328D01*
X4724450Y5532170D01*
X4732223Y5519877D01*
X4741519Y5508650D01*
X4752136Y5498693D01*
X4763922Y5490159D01*
X4776673Y5483148D01*
X4790186Y5477764D01*
X4804308Y5474157D01*
G37*
G36*
X4559300Y5473039D02*
G01*
X4559300Y5575300D01*
X4456887Y5575300D01*
X4457039Y5573471D01*
X4459732Y5559196D01*
X4464253Y5545328D01*
X4470450Y5532170D01*
X4478223Y5519877D01*
X4487519Y5508650D01*
X4498136Y5498693D01*
X4509922Y5490159D01*
X4522673Y5483148D01*
X4536186Y5477764D01*
X4550308Y5474157D01*
G37*
G36*
X4584700Y5473039D02*
G01*
X4593691Y5474157D01*
X4607814Y5477764D01*
X4621326Y5483148D01*
X4634077Y5490159D01*
X4645863Y5498693D01*
X4656480Y5508650D01*
X4665776Y5519877D01*
X4673549Y5532170D01*
X4679746Y5545328D01*
X4684268Y5559196D01*
X4686960Y5573471D01*
X4687112Y5575300D01*
X4584700Y5575300D01*
G37*
G36*
X393700Y5473700D02*
G01*
X656336Y5473700D01*
X655929Y5484063D01*
X653034Y5507024D01*
X648208Y5529630D01*
X641553Y5551728D01*
X633018Y5573217D01*
X622757Y5593892D01*
X610819Y5613704D01*
X597204Y5632348D01*
X582117Y5649874D01*
X565607Y5666028D01*
X547827Y5680760D01*
X528828Y5693968D01*
X508812Y5705500D01*
X487934Y5715355D01*
X466242Y5723382D01*
X443992Y5729630D01*
X421284Y5733948D01*
X398322Y5736336D01*
X393700Y5736437D01*
G37*
G36*
X5473700Y5473700D02*
G01*
X5736336Y5473700D01*
X5735929Y5484063D01*
X5733034Y5507024D01*
X5728208Y5529630D01*
X5721553Y5551728D01*
X5713018Y5573217D01*
X5702757Y5593892D01*
X5690819Y5613704D01*
X5677204Y5632348D01*
X5662117Y5649874D01*
X5645607Y5666028D01*
X5627827Y5680760D01*
X5608828Y5693968D01*
X5588812Y5705500D01*
X5567934Y5715355D01*
X5546242Y5723382D01*
X5523992Y5729630D01*
X5501284Y5733948D01*
X5478322Y5736336D01*
X5473700Y5736437D01*
G37*
G36*
X5185410Y5473700D02*
G01*
X5448300Y5473700D01*
X5448300Y5736386D01*
X5432145Y5735370D01*
X5409285Y5732018D01*
X5386781Y5726734D01*
X5364835Y5719572D01*
X5343499Y5710631D01*
X5323027Y5699912D01*
X5303520Y5687568D01*
X5285130Y5673598D01*
X5267960Y5658104D01*
X5252161Y5641289D01*
X5237784Y5623153D01*
X5224983Y5603900D01*
X5213858Y5583682D01*
X5204460Y5562549D01*
X5196890Y5540756D01*
X5191150Y5518353D01*
X5187289Y5495594D01*
G37*
G36*
X105410Y5473700D02*
G01*
X368300Y5473700D01*
X368300Y5736386D01*
X352145Y5735370D01*
X329285Y5732018D01*
X306781Y5726734D01*
X284835Y5719572D01*
X263499Y5710631D01*
X243027Y5699912D01*
X223520Y5687568D01*
X205130Y5673598D01*
X187960Y5658104D01*
X172161Y5641289D01*
X157784Y5623153D01*
X144983Y5603900D01*
X133858Y5583682D01*
X124460Y5562549D01*
X116890Y5540756D01*
X111150Y5518353D01*
X107289Y5495594D01*
G37*
G36*
X3801211Y5575604D02*
G01*
X3832910Y5575604D01*
X3839210Y5576316D01*
X3844696Y5578195D01*
X3849573Y5581294D01*
X3853687Y5585358D01*
X3856786Y5590286D01*
X3858666Y5595721D01*
X3859377Y5602071D01*
X3859377Y5638800D01*
X3801211Y5638800D01*
G37*
G36*
X3744061Y5575604D02*
G01*
X3775811Y5575604D01*
X3775811Y5638800D01*
X3717594Y5638800D01*
X3717594Y5602071D01*
X3718306Y5595721D01*
X3720185Y5590286D01*
X3723284Y5585358D01*
X3727399Y5581294D01*
X3732276Y5578195D01*
X3737762Y5576316D01*
G37*
G36*
X2596438Y5583682D02*
G01*
X2626563Y5583682D01*
X2632862Y5584393D01*
X2641142Y5587593D01*
X2643936Y5588000D01*
X2970784Y5588000D01*
X2971800Y5589016D01*
X2971800Y5713984D01*
X2970784Y5715000D01*
X2639822Y5715000D01*
X2636469Y5715558D01*
X2632862Y5716828D01*
X2626563Y5717540D01*
X2596438Y5717540D01*
X2590139Y5716828D01*
X2586532Y5715558D01*
X2583180Y5715000D01*
X2575560Y5715000D01*
X2571648Y5715762D01*
X2568397Y5717997D01*
X2566162Y5721248D01*
X2565400Y5725160D01*
X2565400Y5589016D01*
X2566416Y5588000D01*
X2579065Y5588000D01*
X2581859Y5587593D01*
X2584653Y5586323D01*
X2590139Y5584393D01*
G37*
G36*
X3801211Y5664200D02*
G01*
X3859377Y5664200D01*
X3859377Y5700928D01*
X3858666Y5707227D01*
X3856786Y5712714D01*
X3853687Y5717590D01*
X3849573Y5721705D01*
X3844696Y5724804D01*
X3839210Y5726684D01*
X3832910Y5727395D01*
X3801211Y5727395D01*
G37*
G36*
X3664559Y4297426D02*
G01*
X3678377Y4298340D01*
X3691940Y4301032D01*
X3705098Y4305503D01*
X3717493Y4311599D01*
X3729024Y4319320D01*
X3739438Y4328464D01*
X3748582Y4338878D01*
X3756253Y4350359D01*
X3762400Y4362805D01*
X3766820Y4375912D01*
X3769563Y4389475D01*
X3770426Y4403293D01*
X3769563Y4417161D01*
X3766820Y4430725D01*
X3762400Y4443831D01*
X3756253Y4456277D01*
X3748582Y4467758D01*
X3739438Y4478172D01*
X3729024Y4487316D01*
X3717493Y4495038D01*
X3705098Y4501134D01*
X3691940Y4505604D01*
X3678377Y4508296D01*
X3664559Y4509211D01*
X3650742Y4508296D01*
X3637178Y4505604D01*
X3624021Y4501134D01*
X3611626Y4495038D01*
X3600094Y4487316D01*
X3589680Y4478172D01*
X3580536Y4467758D01*
X3572865Y4456277D01*
X3566718Y4443831D01*
X3562299Y4430725D01*
X3559556Y4417161D01*
X3558692Y4403293D01*
X3559556Y4389475D01*
X3562299Y4375912D01*
X3566718Y4362805D01*
X3572865Y4350359D01*
X3580536Y4338878D01*
X3589680Y4328464D01*
X3600094Y4319320D01*
X3611626Y4311599D01*
X3624021Y4305503D01*
X3637178Y4301032D01*
X3650742Y4298340D01*
G37*

%LPD*%
G36*
X3251200Y5715000D02*
G01*
X3251200Y5680151D01*
X3267760Y5680151D01*
X3267760Y5715000D01*
G37*
G36*
X3286150Y5715000D02*
G01*
X3286150Y5696661D01*
X3302762Y5696661D01*
X3302762Y5680151D01*
X3339541Y5680151D01*
X3339541Y5663641D01*
X3321151Y5663641D01*
X3321151Y5680151D01*
X3286150Y5680151D01*
X3286150Y5645302D01*
X3302762Y5645302D01*
X3302762Y5663641D01*
X3321151Y5663641D01*
X3321151Y5645302D01*
X3339541Y5645302D01*
X3339541Y5610453D01*
X3356101Y5610453D01*
X3356101Y5575604D01*
X3339541Y5575604D01*
X3339541Y5610453D01*
X3321151Y5610453D01*
X3321151Y5575604D01*
X3339541Y5575604D01*
X3339541Y5557266D01*
X3286150Y5557266D01*
X3286150Y5592114D01*
X3302762Y5592114D01*
X3302762Y5626963D01*
X3267760Y5626963D01*
X3267760Y5610453D01*
X3286150Y5610453D01*
X3286150Y5592114D01*
X3267760Y5592114D01*
X3267760Y5610453D01*
X3251200Y5610453D01*
X3251200Y5645302D01*
X3267760Y5645302D01*
X3267760Y5663641D01*
X3216249Y5663641D01*
X3216249Y5645302D01*
X3234639Y5645302D01*
X3234639Y5626963D01*
X3216249Y5626963D01*
X3216249Y5610453D01*
X3251200Y5610453D01*
X3251200Y5592114D01*
X3234639Y5592114D01*
X3234639Y5610453D01*
X3216249Y5610453D01*
X3216249Y5592114D01*
X3234639Y5592114D01*
X3234639Y5575604D01*
X3181248Y5575604D01*
X3181248Y5557266D01*
X3197809Y5557266D01*
X3197809Y5540756D01*
X3181248Y5540756D01*
X3181248Y5522417D01*
X3144469Y5522417D01*
X3144469Y5540756D01*
X3127908Y5540756D01*
X3127908Y5557266D01*
X3162858Y5557266D01*
X3162858Y5575604D01*
X3076346Y5575604D01*
X3076346Y5557266D01*
X3109468Y5557266D01*
X3109468Y5540756D01*
X3092907Y5540756D01*
X3092907Y5522417D01*
X3144469Y5522417D01*
X3144469Y5505907D01*
X3181248Y5505907D01*
X3181248Y5522417D01*
X3197809Y5522417D01*
X3197809Y5540756D01*
X3234639Y5540756D01*
X3234639Y5557266D01*
X3251200Y5557266D01*
X3251200Y5575604D01*
X3267760Y5575604D01*
X3267760Y5557266D01*
X3286150Y5557266D01*
X3286150Y5540756D01*
X3302762Y5540756D01*
X3302762Y5522417D01*
X3286150Y5522417D01*
X3286150Y5487568D01*
X3302762Y5487568D01*
X3302762Y5505907D01*
X3321151Y5505907D01*
X3321151Y5522417D01*
X3339541Y5522417D01*
X3339541Y5540756D01*
X3374542Y5540756D01*
X3374542Y5575604D01*
X3391103Y5575604D01*
X3391103Y5557266D01*
X3409492Y5557266D01*
X3409492Y5575604D01*
X3426053Y5575604D01*
X3426053Y5557266D01*
X3409492Y5557266D01*
X3409492Y5522417D01*
X3391103Y5522417D01*
X3391103Y5540756D01*
X3374542Y5540756D01*
X3374542Y5522417D01*
X3356101Y5522417D01*
X3356101Y5505907D01*
X3321151Y5505907D01*
X3321151Y5487568D01*
X3339541Y5487568D01*
X3339541Y5452719D01*
X3356101Y5452719D01*
X3356101Y5469229D01*
X3374542Y5469229D01*
X3374542Y5487568D01*
X3409492Y5487568D01*
X3409492Y5505907D01*
X3426053Y5505907D01*
X3426053Y5469229D01*
X3461054Y5469229D01*
X3461054Y5487568D01*
X3514394Y5487568D01*
X3514394Y5452719D01*
X3461054Y5452719D01*
X3461054Y5434380D01*
X3479444Y5434380D01*
X3479444Y5399532D01*
X3514394Y5399532D01*
X3514394Y5383022D01*
X3549396Y5383022D01*
X3549396Y5364683D01*
X3514394Y5364683D01*
X3514394Y5383022D01*
X3426053Y5383022D01*
X3426053Y5399532D01*
X3444443Y5399532D01*
X3444443Y5452719D01*
X3426053Y5452719D01*
X3426053Y5469229D01*
X3374542Y5469229D01*
X3374542Y5452719D01*
X3356101Y5452719D01*
X3356101Y5434380D01*
X3374542Y5434380D01*
X3374542Y5416042D01*
X3391103Y5416042D01*
X3391103Y5434380D01*
X3426053Y5434380D01*
X3426053Y5416042D01*
X3409492Y5416042D01*
X3409492Y5364683D01*
X3426053Y5364683D01*
X3426053Y5346344D01*
X3549396Y5346344D01*
X3549396Y5329834D01*
X3514394Y5329834D01*
X3514394Y5346344D01*
X3497834Y5346344D01*
X3497834Y5293156D01*
X3444443Y5293156D01*
X3444443Y5346344D01*
X3409492Y5346344D01*
X3409492Y5364683D01*
X3391103Y5364683D01*
X3391103Y5329834D01*
X3409492Y5329834D01*
X3409492Y5311495D01*
X3426053Y5311495D01*
X3426053Y5276646D01*
X3479444Y5276646D01*
X3479444Y5260187D01*
X3461054Y5260187D01*
X3461054Y5276646D01*
X3426053Y5276646D01*
X3426053Y5260187D01*
X3444443Y5260187D01*
X3444443Y5241848D01*
X3426053Y5241848D01*
X3426053Y5225338D01*
X3409492Y5225338D01*
X3409492Y5241848D01*
X3391103Y5241848D01*
X3391103Y5260187D01*
X3374542Y5260187D01*
X3374542Y5276646D01*
X3356101Y5276646D01*
X3356101Y5293156D01*
X3374542Y5293156D01*
X3374542Y5311495D01*
X3391103Y5311495D01*
X3391103Y5329834D01*
X3374542Y5329834D01*
X3374542Y5383022D01*
X3356101Y5383022D01*
X3356101Y5364683D01*
X3321151Y5364683D01*
X3321151Y5383022D01*
X3339541Y5383022D01*
X3339541Y5416042D01*
X3286150Y5416042D01*
X3286150Y5452719D01*
X3302762Y5452719D01*
X3302762Y5469229D01*
X3251200Y5469229D01*
X3251200Y5487568D01*
X3267760Y5487568D01*
X3267760Y5505907D01*
X3234639Y5505907D01*
X3234639Y5522417D01*
X3216249Y5522417D01*
X3216249Y5487568D01*
X3197809Y5487568D01*
X3197809Y5505907D01*
X3162858Y5505907D01*
X3162858Y5487568D01*
X3144469Y5487568D01*
X3144469Y5505907D01*
X3127908Y5505907D01*
X3127908Y5522417D01*
X3092907Y5522417D01*
X3092907Y5487568D01*
X3076346Y5487568D01*
X3076346Y5452719D01*
X3109468Y5452719D01*
X3109468Y5469229D01*
X3092907Y5469229D01*
X3092907Y5487568D01*
X3109468Y5487568D01*
X3109468Y5505907D01*
X3127908Y5505907D01*
X3127908Y5469229D01*
X3162858Y5469229D01*
X3162858Y5487568D01*
X3197809Y5487568D01*
X3197809Y5469229D01*
X3181248Y5469229D01*
X3181248Y5452719D01*
X3197809Y5452719D01*
X3197809Y5469229D01*
X3216249Y5469229D01*
X3216249Y5452719D01*
X3267760Y5452719D01*
X3267760Y5434380D01*
X3251200Y5434380D01*
X3251200Y5452719D01*
X3234639Y5452719D01*
X3234639Y5434380D01*
X3181248Y5434380D01*
X3181248Y5416042D01*
X3197809Y5416042D01*
X3197809Y5399532D01*
X3181248Y5399532D01*
X3181248Y5416042D01*
X3162858Y5416042D01*
X3162858Y5399532D01*
X3181248Y5399532D01*
X3181248Y5383022D01*
X3162858Y5383022D01*
X3162858Y5364683D01*
X3181248Y5364683D01*
X3181248Y5383022D01*
X3234639Y5383022D01*
X3234639Y5416042D01*
X3251200Y5416042D01*
X3251200Y5383022D01*
X3234639Y5383022D01*
X3234639Y5364683D01*
X3181248Y5364683D01*
X3181248Y5346344D01*
X3216249Y5346344D01*
X3216249Y5311495D01*
X3234639Y5311495D01*
X3234639Y5364683D01*
X3267760Y5364683D01*
X3267760Y5416042D01*
X3286150Y5416042D01*
X3286150Y5399532D01*
X3302762Y5399532D01*
X3302762Y5383022D01*
X3286150Y5383022D01*
X3286150Y5346344D01*
X3302762Y5346344D01*
X3302762Y5364683D01*
X3321151Y5364683D01*
X3321151Y5346344D01*
X3356101Y5346344D01*
X3356101Y5329834D01*
X3374542Y5329834D01*
X3374542Y5311495D01*
X3356101Y5311495D01*
X3356101Y5293156D01*
X3339541Y5293156D01*
X3339541Y5311495D01*
X3321151Y5311495D01*
X3321151Y5293156D01*
X3339541Y5293156D01*
X3339541Y5276646D01*
X3286150Y5276646D01*
X3286150Y5311495D01*
X3302762Y5311495D01*
X3302762Y5329834D01*
X3267760Y5329834D01*
X3267760Y5346344D01*
X3251200Y5346344D01*
X3251200Y5329834D01*
X3267760Y5329834D01*
X3267760Y5311495D01*
X3251403Y5311495D01*
X3250285Y5294122D01*
X3216249Y5293055D01*
X3216249Y5276646D01*
X3251200Y5276646D01*
X3251200Y5260187D01*
X3234639Y5260187D01*
X3234639Y5276646D01*
X3216249Y5276646D01*
X3216249Y5207000D01*
X3234639Y5207000D01*
X3234639Y5241848D01*
X3267760Y5241848D01*
X3267760Y5276646D01*
X3286150Y5276646D01*
X3286150Y5260187D01*
X3302762Y5260187D01*
X3302762Y5241848D01*
X3286150Y5241848D01*
X3286150Y5207000D01*
X3302558Y5207000D01*
X3303676Y5224424D01*
X3321151Y5225542D01*
X3321151Y5241848D01*
X3356101Y5241848D01*
X3356101Y5225338D01*
X3321151Y5225338D01*
X3321151Y5207000D01*
X3391103Y5207000D01*
X3391103Y5225338D01*
X3409492Y5225338D01*
X3409492Y5207000D01*
X3479444Y5207000D01*
X3479444Y5225338D01*
X3461054Y5225338D01*
X3461054Y5241848D01*
X3497834Y5241848D01*
X3497834Y5276646D01*
X3514394Y5276646D01*
X3514394Y5311495D01*
X3530955Y5311495D01*
X3530955Y5276646D01*
X3584346Y5276646D01*
X3584346Y5311495D01*
X3549396Y5311495D01*
X3549396Y5329834D01*
X3567785Y5329834D01*
X3567785Y5364683D01*
X3584346Y5364683D01*
X3584346Y5383022D01*
X3567785Y5383022D01*
X3567785Y5399532D01*
X3584346Y5399532D01*
X3584346Y5416042D01*
X3549396Y5416042D01*
X3549396Y5399532D01*
X3530955Y5399532D01*
X3530955Y5416042D01*
X3497834Y5416042D01*
X3497834Y5434380D01*
X3514394Y5434380D01*
X3514394Y5452719D01*
X3549396Y5452719D01*
X3549396Y5434380D01*
X3584346Y5434380D01*
X3584346Y5469229D01*
X3567785Y5469229D01*
X3567785Y5487568D01*
X3549396Y5487568D01*
X3549396Y5469229D01*
X3530955Y5469229D01*
X3530955Y5487568D01*
X3514394Y5487568D01*
X3514394Y5505907D01*
X3530955Y5505907D01*
X3530955Y5522417D01*
X3549396Y5522417D01*
X3549396Y5540756D01*
X3567785Y5540756D01*
X3567785Y5575604D01*
X3549396Y5575604D01*
X3549396Y5540756D01*
X3530955Y5540756D01*
X3530955Y5575604D01*
X3514394Y5575604D01*
X3514394Y5557266D01*
X3497834Y5557266D01*
X3497834Y5575604D01*
X3479444Y5575604D01*
X3479444Y5540756D01*
X3514394Y5540756D01*
X3514394Y5522417D01*
X3497834Y5522417D01*
X3497834Y5540756D01*
X3479444Y5540756D01*
X3479444Y5522417D01*
X3444443Y5522417D01*
X3444443Y5505907D01*
X3426053Y5505907D01*
X3426053Y5540756D01*
X3461054Y5540756D01*
X3461054Y5575604D01*
X3444443Y5575604D01*
X3444443Y5610453D01*
X3426053Y5610453D01*
X3426053Y5592114D01*
X3409492Y5592114D01*
X3409492Y5610453D01*
X3391103Y5610453D01*
X3391103Y5626963D01*
X3409492Y5626963D01*
X3409492Y5645302D01*
X3391103Y5645302D01*
X3391103Y5626963D01*
X3374542Y5626963D01*
X3374542Y5610453D01*
X3391103Y5610453D01*
X3391103Y5592114D01*
X3374542Y5592114D01*
X3374542Y5610453D01*
X3356101Y5610453D01*
X3356101Y5645302D01*
X3374542Y5645302D01*
X3374542Y5663641D01*
X3444443Y5663641D01*
X3444443Y5696661D01*
X3426053Y5696661D01*
X3426053Y5715000D01*
X3409492Y5715000D01*
X3409492Y5696661D01*
X3426053Y5696661D01*
X3426053Y5680151D01*
X3391103Y5680151D01*
X3391103Y5696661D01*
X3374542Y5696661D01*
X3374542Y5663641D01*
X3356101Y5663641D01*
X3356101Y5715000D01*
X3339541Y5715000D01*
X3339541Y5696661D01*
X3321151Y5696661D01*
X3321151Y5715000D01*
G37*
G36*
X3076346Y5713171D02*
G01*
X3076346Y5698490D01*
X3181248Y5698490D01*
X3181248Y5608624D01*
X3092907Y5608624D01*
X3092907Y5698490D01*
X3076346Y5698490D01*
X3076346Y5593943D01*
X3197809Y5593943D01*
X3197809Y5713171D01*
G37*
G36*
X3462883Y5713171D02*
G01*
X3462883Y5698490D01*
X3567785Y5698490D01*
X3567785Y5608624D01*
X3477564Y5608624D01*
X3477564Y5698490D01*
X3462883Y5698490D01*
X3462883Y5593943D01*
X3584346Y5593943D01*
X3584346Y5713171D01*
G37*
G36*
X3216249Y5696661D02*
G01*
X3216249Y5680151D01*
X3234639Y5680151D01*
X3234639Y5696661D01*
G37*
G36*
X3111296Y5680151D02*
G01*
X3111296Y5628792D01*
X3161030Y5628792D01*
X3161030Y5680151D01*
G37*
G36*
X3497834Y5680151D02*
G01*
X3497834Y5628792D01*
X3547516Y5628792D01*
X3547516Y5680151D01*
G37*
G36*
X3426053Y5645302D02*
G01*
X3426053Y5626963D01*
X3444443Y5626963D01*
X3444443Y5645302D01*
G37*
G36*
X3251200Y5557266D02*
G01*
X3251200Y5522417D01*
X3267760Y5522417D01*
X3267760Y5557266D01*
G37*
G36*
X3567785Y5522417D02*
G01*
X3567785Y5505907D01*
X3584346Y5505907D01*
X3584346Y5522417D01*
G37*
G36*
X3144469Y5452719D02*
G01*
X3144469Y5434380D01*
X3162858Y5434380D01*
X3162858Y5452719D01*
G37*
G36*
X3321151Y5452719D02*
G01*
X3321151Y5434380D01*
X3339541Y5434380D01*
X3339541Y5416042D01*
X3356101Y5416042D01*
X3356101Y5399532D01*
X3374542Y5399532D01*
X3374542Y5383022D01*
X3391103Y5383022D01*
X3391103Y5399532D01*
X3374542Y5399532D01*
X3374542Y5416042D01*
X3356101Y5416042D01*
X3356101Y5434380D01*
X3339541Y5434380D01*
X3339541Y5452719D01*
G37*
G36*
X3076346Y5434380D02*
G01*
X3076346Y5346344D01*
X3092907Y5346344D01*
X3092907Y5399532D01*
X3109468Y5399532D01*
X3109468Y5383022D01*
X3127908Y5383022D01*
X3127908Y5364683D01*
X3109468Y5364683D01*
X3109468Y5346344D01*
X3127908Y5346344D01*
X3127908Y5364683D01*
X3144469Y5364683D01*
X3144469Y5416042D01*
X3092907Y5416042D01*
X3092907Y5434380D01*
G37*
G36*
X3461054Y5329834D02*
G01*
X3461054Y5311495D01*
X3479444Y5311495D01*
X3479444Y5329834D01*
G37*
G36*
X3076346Y5328005D02*
G01*
X3076346Y5313375D01*
X3181248Y5313375D01*
X3181248Y5223510D01*
X3092907Y5223510D01*
X3092907Y5313375D01*
X3076346Y5313375D01*
X3076346Y5208828D01*
X3197809Y5208828D01*
X3197809Y5328005D01*
G37*
G36*
X3111296Y5293156D02*
G01*
X3111296Y5243677D01*
X3161030Y5243677D01*
X3161030Y5293156D01*
G37*
G36*
X3374542Y5293156D02*
G01*
X3374542Y5276646D01*
X3391103Y5276646D01*
X3391103Y5260187D01*
X3409492Y5260187D01*
X3409492Y5241848D01*
X3426053Y5241848D01*
X3426053Y5260187D01*
X3409492Y5260187D01*
X3409492Y5293156D01*
G37*
G36*
X3530955Y5260187D02*
G01*
X3530955Y5241848D01*
X3514394Y5241848D01*
X3514394Y5225338D01*
X3497834Y5225338D01*
X3497834Y5207000D01*
X3549396Y5207000D01*
X3549396Y5241848D01*
X3567785Y5241848D01*
X3567785Y5225338D01*
X3584346Y5225338D01*
X3584346Y5241848D01*
X3567785Y5241848D01*
X3567785Y5260187D01*
G37*
D10*
X2603500Y5671312D02*
G01*
X2609850Y5674613D01*
X2619502Y5684012D01*
X2619502Y5617210D01*
D11*
X4149092Y5651500D02*
G01*
X3958493Y5651500D01*
D12*
X4826000Y5727700D02*
G01*
X4385282Y5727700D01*
X4309082Y5651500D01*
D11*
X3302000Y4178300D02*
G01*
X3298190Y4174489D01*
X3298190Y3822700D01*
X2540000Y4178300D02*
G01*
X2543784Y4174515D01*
X2543784Y3835400D01*
X2435301Y3111500D02*
G01*
X2794000Y3111500D01*
X2435301Y2984500D02*
G01*
X3048000Y2984500D01*
X2435352Y3238500D02*
G01*
X581405Y3238500D01*
X5080000Y5588000D02*
G01*
X4826000Y5588000D01*
X3458184Y3822700D02*
G01*
X5080000Y3822700D01*
X2383790Y3835400D02*
G01*
X2383790Y3826510D01*
X2489200Y3721100D01*
X3356609Y3721100D01*
X3458209Y3822700D01*
X835405Y3175000D02*
G01*
X2908300Y3175000D01*
X2971800Y3111500D01*
X3381247Y3111500D01*
X1089405Y3048000D02*
G01*
X3136900Y3048000D01*
X3200400Y2984500D01*
X3381247Y2984500D01*
X1343405Y2921000D02*
G01*
X3149600Y2921000D01*
X3213100Y2857500D01*
X3381247Y2857500D01*
X2435352Y2857500D02*
G01*
X1597405Y2857500D01*
X3381247Y2730500D02*
G01*
X3213100Y2730500D01*
X3149600Y2794000D01*
X1851405Y2794000D01*
X2105406Y2730500D02*
G01*
X2435352Y2730500D01*
X2435298Y2603500D02*
G01*
X2247900Y2603500D01*
X3381301Y2603500D02*
G01*
X3606800Y2603500D01*
X3731006Y2476500D02*
G01*
X3381247Y2476500D01*
X3985006Y2349500D02*
G01*
X3381247Y2349500D01*
X4239006Y2222500D02*
G01*
X3381247Y2222500D01*
X4493006Y2095500D02*
G01*
X3381247Y2095500D01*
X4747006Y2159000D02*
G01*
X2971800Y2159000D01*
X2908300Y2222500D01*
X2435301Y2222500D01*
X5255006Y2413000D02*
G01*
X2984500Y2413000D01*
X2921000Y2476500D01*
X2435352Y2476500D01*
X5001006Y2286000D02*
G01*
X2984500Y2286000D01*
X2921000Y2349500D01*
X2435301Y2349500D01*
X3381298Y3238500D02*
G01*
X3651105Y3238510D01*
X3651105Y3238510D02*
G01*
X3651105Y3327400D01*
D13*
G01*
X2435301Y3238500D03*
G01*
X2435301Y3111500D03*
G01*
X2435301Y2984500D03*
G01*
X2435301Y2857500D03*
G01*
X2435301Y2730500D03*
G01*
X2435301Y2603500D03*
G01*
X2435301Y2476500D03*
G01*
X2435301Y2349500D03*
G01*
X2435301Y2222500D03*
G01*
X2435301Y2095500D03*
G01*
X3381298Y3238500D03*
G01*
X3381298Y3111500D03*
G01*
X3381298Y2984500D03*
G01*
X3381298Y2857500D03*
G01*
X3381298Y2730500D03*
G01*
X3381298Y2603500D03*
G01*
X3381298Y2476500D03*
G01*
X3381298Y2349500D03*
G01*
X3381298Y2222500D03*
G01*
X3381298Y2095500D03*
D14*
G01*
X3788486Y5651500D03*
G01*
X3958488Y5651500D03*
D15*
G01*
X4149090Y5651500D03*
G01*
X4309084Y5651500D03*
G01*
X2383790Y3835400D03*
G01*
X2543784Y3835400D03*
G01*
X3298190Y3822700D03*
G01*
X3458184Y3822700D03*
D16*
G01*
X3791102Y3238500D03*
G01*
X3651097Y3238500D03*
D17*
G01*
X381000Y5461000D03*
G01*
X5461000Y5461000D03*
G01*
X5461000Y381000D03*
G01*
X381000Y381000D03*
D18*
G01*
X4572000Y5588000D03*
G01*
X4572000Y5334000D03*
G01*
X4826000Y5334000D03*
G01*
X4826000Y5588000D03*
D19*
G01*
X2359406Y1329893D03*
G01*
X2105406Y1329893D03*
G01*
X1851405Y1329893D03*
G01*
X1597405Y1329893D03*
G01*
X1343405Y1329893D03*
G01*
X1089405Y1329893D03*
G01*
X835405Y1329893D03*
G01*
X581405Y1329893D03*
G01*
X3477006Y1329893D03*
G01*
X3731006Y1329893D03*
G01*
X3985006Y1329893D03*
G01*
X4239006Y1329893D03*
G01*
X4493006Y1329893D03*
G01*
X4747006Y1329893D03*
G01*
X5001006Y1329893D03*
G01*
X5255006Y1329893D03*
G01*
X2794000Y4178300D03*
G01*
X3048000Y4178300D03*
G01*
X3302000Y4178300D03*
G01*
X2540000Y4178300D03*
D20*
G01*
X4826000Y5727700D03*
G01*
X2794000Y3111500D03*
G01*
X3048000Y2984500D03*
G01*
X581405Y3238500D03*
G01*
X5080000Y5588000D03*
G01*
X5080000Y3822700D03*
G01*
X835405Y3175000D03*
G01*
X1089405Y3048000D03*
G01*
X1343405Y2921000D03*
G01*
X1597405Y2857500D03*
G01*
X1851405Y2794000D03*
G01*
X2105406Y2730500D03*
G01*
X2247900Y2603500D03*
G01*
X3606800Y2603500D03*
G01*
X3731006Y2476500D03*
G01*
X3985006Y2349500D03*
G01*
X4239006Y2222500D03*
G01*
X4493006Y2095500D03*
G01*
X4747006Y2159000D03*
G01*
X5255006Y2413000D03*
G01*
X5001006Y2286000D03*
G01*
X3651097Y3327400D03*
G01*
X3651097Y3822700D03*
M02*
