M48
METRIC,LZ,000.000
;FILE_FORMAT=3:3
;TYPE=PLATED
;Layer: PTH_Through
;EasyEDA v6.5.32, 2023-07-25 14:04:49
;318043db9db14eaab2a862ada9992c2d,5a6b42c53f6a479593ecc07194224c93,10
;Gerber Generator version 0.2
;Holesize 1 = 0.305 mm
T01C0.305
;Holesize 2 = 1.101 mm
T02C1.101
;Holesize 3 = 1.301 mm
T03C1.301
;Holesize 4 = 1.600 mm
T04C1.600
;Holesize 5 = 3.000 mm
T05C3.000
%
G05
G90
T01
X037592Y027559
X028448Y027559
X013970Y022987
X021463Y024257
X013970Y025527
X021463Y036957
X013970Y035687
X013970Y038227
X052451Y027686
X052451Y034417
X029083Y031496
X029083Y030226
X034036Y033655
X033401Y032766
X033401Y027559
X032258Y024892
X034163Y030226
T02
X045720Y055880
X045720Y053340
T03
X049312Y030202
X049312Y027662
X049312Y025122
X049312Y032742
T04
X007620Y038227
X033020Y036957
T05
X003810Y054610
X054610Y054610
X054610Y003810
X003810Y003810
M30
