G04 Layer: BottomLayer*
G04 EasyEDA v6.5.34, 2023-09-25 23:45:59*
G04 c5930d253d39478cbfd5350cf3090093,5a6b42c53f6a479593ecc07194224c93,10*
G04 Gerber Generator version 0.2*
G04 Scale: 100 percent, Rotated: No, Reflected: No *
G04 Dimensions in millimeters *
G04 leading zeros omitted , absolute positions ,4 integer and 5 decimal *
%FSLAX45Y45*%
%MOMM*%

%ADD10C,0.2540*%
%ADD11C,5.0000*%
%ADD12C,1.8000*%
%ADD13C,2.0000*%
%ADD14C,0.6096*%
%ADD15C,0.0122*%

%LPD*%
G36*
X5805932Y25908D02*
G01*
X36068Y26416D01*
X32156Y27178D01*
X28905Y29362D01*
X26670Y32664D01*
X25908Y36576D01*
X25908Y5805932D01*
X26670Y5809792D01*
X28905Y5813094D01*
X32156Y5815330D01*
X36068Y5816092D01*
X5805932Y5816092D01*
X5809792Y5815330D01*
X5813094Y5813094D01*
X5815330Y5809792D01*
X5816092Y5805932D01*
X5816092Y36068D01*
X5815330Y32156D01*
X5813094Y28905D01*
X5809792Y26670D01*
G37*

%LPC*%
G36*
X4838700Y5600700D02*
G01*
X4941062Y5600700D01*
X4940960Y5602528D01*
X4938268Y5616803D01*
X4933746Y5630672D01*
X4927549Y5643829D01*
X4919776Y5656122D01*
X4910480Y5667349D01*
X4899863Y5677306D01*
X4888077Y5685840D01*
X4875326Y5692851D01*
X4861814Y5698236D01*
X4847691Y5701842D01*
X4838700Y5702960D01*
G37*
G36*
X375208Y105156D02*
G01*
X398322Y105664D01*
X421284Y108051D01*
X443992Y112369D01*
X466242Y118618D01*
X487883Y126644D01*
X508812Y136499D01*
X528828Y148031D01*
X547776Y161239D01*
X565607Y175971D01*
X582117Y192125D01*
X597204Y209600D01*
X610819Y228295D01*
X622757Y248107D01*
X633018Y268782D01*
X641553Y290271D01*
X648208Y312369D01*
X653034Y334975D01*
X655929Y357886D01*
X656894Y381000D01*
X655929Y404063D01*
X653034Y427024D01*
X648208Y449630D01*
X641553Y471728D01*
X633018Y493217D01*
X622757Y513892D01*
X610819Y533654D01*
X597204Y552348D01*
X582117Y569874D01*
X565607Y586028D01*
X547776Y600760D01*
X528828Y613968D01*
X508812Y625500D01*
X487883Y635355D01*
X466242Y643382D01*
X443992Y649630D01*
X421284Y653948D01*
X398322Y656336D01*
X375208Y656844D01*
X352145Y655370D01*
X329285Y652018D01*
X306781Y646734D01*
X284835Y639572D01*
X263499Y630631D01*
X243027Y619912D01*
X223520Y607568D01*
X205130Y593598D01*
X187960Y578104D01*
X172161Y561289D01*
X157784Y543153D01*
X144983Y523900D01*
X133858Y503682D01*
X124460Y482549D01*
X116890Y460756D01*
X111099Y438353D01*
X107289Y415594D01*
X105359Y392531D01*
X105359Y369468D01*
X107289Y346405D01*
X111099Y323646D01*
X116890Y301244D01*
X124460Y279450D01*
X133858Y258317D01*
X144983Y238099D01*
X157784Y218846D01*
X172161Y200710D01*
X187960Y183896D01*
X205130Y168402D01*
X223520Y154432D01*
X243027Y142036D01*
X263499Y131368D01*
X284835Y122377D01*
X306781Y115265D01*
X329285Y109982D01*
X352145Y106629D01*
G37*
G36*
X3664559Y583488D02*
G01*
X3678377Y584403D01*
X3691940Y587095D01*
X3705047Y591566D01*
X3717493Y597662D01*
X3728974Y605383D01*
X3739387Y614527D01*
X3748532Y624941D01*
X3756253Y636422D01*
X3762349Y648868D01*
X3766820Y661974D01*
X3769512Y675538D01*
X3770426Y689356D01*
X3769512Y703224D01*
X3766820Y716788D01*
X3762349Y729894D01*
X3756253Y742340D01*
X3748532Y753821D01*
X3739387Y764235D01*
X3728974Y773379D01*
X3717493Y781100D01*
X3705047Y787196D01*
X3691940Y791667D01*
X3678377Y794359D01*
X3664559Y795274D01*
X3650691Y794359D01*
X3637127Y791667D01*
X3624021Y787196D01*
X3611575Y781100D01*
X3600094Y773379D01*
X3589680Y764235D01*
X3580536Y753821D01*
X3572814Y742340D01*
X3566718Y729894D01*
X3562248Y716788D01*
X3559556Y703224D01*
X3558641Y689356D01*
X3559556Y675538D01*
X3562248Y661974D01*
X3566718Y648868D01*
X3572814Y636422D01*
X3580536Y624941D01*
X3589680Y614527D01*
X3600094Y605383D01*
X3611575Y597662D01*
X3624021Y591566D01*
X3637127Y587095D01*
X3650691Y584403D01*
G37*
G36*
X2177440Y583488D02*
G01*
X2191258Y584403D01*
X2204821Y587095D01*
X2217978Y591566D01*
X2230374Y597662D01*
X2241905Y605383D01*
X2252319Y614527D01*
X2261463Y624941D01*
X2269134Y636422D01*
X2275281Y648868D01*
X2279700Y661974D01*
X2282444Y675538D01*
X2283307Y689356D01*
X2282444Y703224D01*
X2279700Y716788D01*
X2275281Y729894D01*
X2269134Y742340D01*
X2261463Y753821D01*
X2252319Y764235D01*
X2241905Y773379D01*
X2230374Y781100D01*
X2217978Y787196D01*
X2204821Y791667D01*
X2191258Y794359D01*
X2177440Y795274D01*
X2163622Y794359D01*
X2150059Y791667D01*
X2136902Y787196D01*
X2124506Y781100D01*
X2112975Y773379D01*
X2102561Y764235D01*
X2093417Y753821D01*
X2085746Y742340D01*
X2079599Y729894D01*
X2075180Y716788D01*
X2072436Y703224D01*
X2071573Y689356D01*
X2072436Y675538D01*
X2075180Y661974D01*
X2079599Y648868D01*
X2085746Y636422D01*
X2093417Y624941D01*
X2102561Y614527D01*
X2112975Y605383D01*
X2124506Y597662D01*
X2136902Y591566D01*
X2150059Y587095D01*
X2163622Y584403D01*
G37*
G36*
X2540000Y788517D02*
G01*
X2555189Y789432D01*
X2570124Y792175D01*
X2584653Y796696D01*
X2598521Y802894D01*
X2611526Y810768D01*
X2623464Y820166D01*
X2634234Y830884D01*
X2643581Y842873D01*
X2651455Y855878D01*
X2657754Y869797D01*
X2659938Y872947D01*
X2663190Y875080D01*
X2667000Y875792D01*
X2670810Y875080D01*
X2674010Y872947D01*
X2676245Y869797D01*
X2682544Y855878D01*
X2690368Y842873D01*
X2699766Y830884D01*
X2710535Y820166D01*
X2722473Y810768D01*
X2735478Y802894D01*
X2749346Y796696D01*
X2763875Y792175D01*
X2778810Y789432D01*
X2794000Y788517D01*
X2809189Y789432D01*
X2824124Y792175D01*
X2838653Y796696D01*
X2852521Y802894D01*
X2865526Y810768D01*
X2877464Y820166D01*
X2888234Y830884D01*
X2897581Y842873D01*
X2905455Y855878D01*
X2911754Y869797D01*
X2913938Y872947D01*
X2917190Y875080D01*
X2921000Y875792D01*
X2924810Y875080D01*
X2928010Y872947D01*
X2930245Y869797D01*
X2936544Y855878D01*
X2944368Y842873D01*
X2953766Y830884D01*
X2964535Y820166D01*
X2976473Y810768D01*
X2989478Y802894D01*
X3003346Y796696D01*
X3017875Y792175D01*
X3032810Y789432D01*
X3048000Y788517D01*
X3063189Y789432D01*
X3078124Y792175D01*
X3092653Y796696D01*
X3106521Y802894D01*
X3119526Y810768D01*
X3131464Y820166D01*
X3142234Y830884D01*
X3151581Y842873D01*
X3159455Y855878D01*
X3165754Y869797D01*
X3167938Y872947D01*
X3171190Y875080D01*
X3175000Y875792D01*
X3178810Y875080D01*
X3182010Y872947D01*
X3184245Y869797D01*
X3190544Y855878D01*
X3198368Y842873D01*
X3207766Y830884D01*
X3218535Y820166D01*
X3230473Y810768D01*
X3243478Y802894D01*
X3257346Y796696D01*
X3271875Y792175D01*
X3286810Y789432D01*
X3302000Y788517D01*
X3317189Y789432D01*
X3332124Y792175D01*
X3346653Y796696D01*
X3360521Y802894D01*
X3373526Y810768D01*
X3385464Y820166D01*
X3396234Y830884D01*
X3405581Y842873D01*
X3413455Y855878D01*
X3419703Y869746D01*
X3424224Y884275D01*
X3426968Y899210D01*
X3427882Y914400D01*
X3426968Y929538D01*
X3424224Y944524D01*
X3419703Y959002D01*
X3413455Y972870D01*
X3405581Y985875D01*
X3396234Y997864D01*
X3385464Y1008634D01*
X3373526Y1017981D01*
X3360521Y1025855D01*
X3346653Y1032103D01*
X3332124Y1036624D01*
X3317189Y1039368D01*
X3302000Y1040282D01*
X3286810Y1039368D01*
X3271875Y1036624D01*
X3257346Y1032103D01*
X3243478Y1025855D01*
X3230473Y1017981D01*
X3218535Y1008634D01*
X3207766Y997864D01*
X3198368Y985875D01*
X3190544Y972870D01*
X3184245Y958951D01*
X3182010Y955802D01*
X3178810Y953719D01*
X3175000Y952957D01*
X3171190Y953719D01*
X3167938Y955802D01*
X3165754Y958951D01*
X3159455Y972870D01*
X3151581Y985875D01*
X3142234Y997864D01*
X3131464Y1008634D01*
X3119526Y1017981D01*
X3106521Y1025855D01*
X3092653Y1032103D01*
X3078124Y1036624D01*
X3063189Y1039368D01*
X3048000Y1040282D01*
X3032810Y1039368D01*
X3017875Y1036624D01*
X3003346Y1032103D01*
X2989478Y1025855D01*
X2976473Y1017981D01*
X2964535Y1008634D01*
X2953766Y997864D01*
X2944368Y985875D01*
X2936544Y972870D01*
X2930245Y958951D01*
X2928010Y955802D01*
X2924810Y953719D01*
X2921000Y952957D01*
X2917190Y953719D01*
X2913938Y955802D01*
X2911754Y958951D01*
X2905455Y972870D01*
X2897581Y985875D01*
X2888234Y997864D01*
X2877464Y1008634D01*
X2865526Y1017981D01*
X2852521Y1025855D01*
X2838653Y1032103D01*
X2824124Y1036624D01*
X2809189Y1039368D01*
X2794000Y1040282D01*
X2778810Y1039368D01*
X2763875Y1036624D01*
X2749346Y1032103D01*
X2735478Y1025855D01*
X2722473Y1017981D01*
X2710535Y1008634D01*
X2699766Y997864D01*
X2690368Y985875D01*
X2682544Y972870D01*
X2676245Y958951D01*
X2674010Y955802D01*
X2670810Y953719D01*
X2667000Y952957D01*
X2663190Y953719D01*
X2659938Y955802D01*
X2657754Y958951D01*
X2651455Y972870D01*
X2643581Y985875D01*
X2634234Y997864D01*
X2623464Y1008634D01*
X2611526Y1017981D01*
X2598521Y1025855D01*
X2584653Y1032103D01*
X2570124Y1036624D01*
X2555189Y1039368D01*
X2540000Y1040282D01*
X2524810Y1039368D01*
X2509875Y1036624D01*
X2495346Y1032103D01*
X2481478Y1025855D01*
X2468473Y1017981D01*
X2456535Y1008634D01*
X2445766Y997864D01*
X2436368Y985875D01*
X2428544Y972870D01*
X2422296Y959002D01*
X2417775Y944524D01*
X2415032Y929538D01*
X2414117Y914400D01*
X2415032Y899210D01*
X2417775Y884275D01*
X2422296Y869746D01*
X2428544Y855878D01*
X2436368Y842873D01*
X2445766Y830884D01*
X2456535Y820166D01*
X2468473Y810768D01*
X2481478Y802894D01*
X2495346Y796696D01*
X2509875Y792175D01*
X2524810Y789432D01*
G37*
G36*
X4710887Y5600700D02*
G01*
X4813300Y5600700D01*
X4813300Y5702960D01*
X4804257Y5701842D01*
X4790186Y5698236D01*
X4776673Y5692851D01*
X4763922Y5685840D01*
X4752136Y5677306D01*
X4741519Y5667349D01*
X4732223Y5656122D01*
X4724450Y5643829D01*
X4718253Y5630672D01*
X4713732Y5616803D01*
X4711039Y5602528D01*
G37*
G36*
X4838700Y5473039D02*
G01*
X4847691Y5474157D01*
X4861814Y5477764D01*
X4875326Y5483148D01*
X4888077Y5490159D01*
X4899863Y5498693D01*
X4910480Y5508650D01*
X4919776Y5519877D01*
X4927549Y5532170D01*
X4933746Y5545328D01*
X4938268Y5559196D01*
X4940960Y5573471D01*
X4941062Y5575300D01*
X4838700Y5575300D01*
G37*
G36*
X4813300Y5473039D02*
G01*
X4813300Y5575300D01*
X4710887Y5575300D01*
X4711039Y5573471D01*
X4713732Y5559196D01*
X4718253Y5545328D01*
X4724450Y5532170D01*
X4732223Y5519877D01*
X4741519Y5508650D01*
X4752136Y5498693D01*
X4763922Y5490159D01*
X4776673Y5483148D01*
X4790186Y5477764D01*
X4804257Y5474157D01*
G37*
G36*
X5321300Y858062D02*
G01*
X5331104Y858926D01*
X5340553Y861466D01*
X5349494Y865581D01*
X5357520Y871219D01*
X5364480Y878179D01*
X5370118Y886206D01*
X5374233Y895146D01*
X5376773Y904595D01*
X5377637Y914400D01*
X5376773Y924204D01*
X5374233Y933653D01*
X5370118Y942594D01*
X5364480Y950620D01*
X5362905Y952195D01*
X5360670Y955497D01*
X5359908Y959408D01*
X5359908Y2958185D01*
X5360670Y2962097D01*
X5362905Y2965399D01*
X5364480Y2966974D01*
X5370118Y2975000D01*
X5374233Y2983890D01*
X5376773Y2993390D01*
X5377637Y3003194D01*
X5376773Y3012948D01*
X5374233Y3022447D01*
X5370118Y3031337D01*
X5364480Y3039414D01*
X5357520Y3046323D01*
X5349494Y3051962D01*
X5340553Y3056128D01*
X5331104Y3058668D01*
X5321300Y3059531D01*
X5311495Y3058668D01*
X5302046Y3056128D01*
X5293106Y3051962D01*
X5285079Y3046323D01*
X5278120Y3039414D01*
X5272481Y3031337D01*
X5268366Y3022447D01*
X5265826Y3012948D01*
X5264962Y3003194D01*
X5265826Y2993390D01*
X5268366Y2983890D01*
X5272481Y2975000D01*
X5278120Y2966974D01*
X5279694Y2965399D01*
X5281930Y2962097D01*
X5282692Y2958185D01*
X5282692Y959408D01*
X5281930Y955497D01*
X5279694Y952195D01*
X5278120Y950620D01*
X5272481Y942594D01*
X5268366Y933653D01*
X5265826Y924204D01*
X5264962Y914400D01*
X5265826Y904595D01*
X5268366Y895146D01*
X5272481Y886206D01*
X5278120Y878179D01*
X5285079Y871219D01*
X5293106Y865581D01*
X5302046Y861466D01*
X5311495Y858926D01*
G37*
G36*
X4564735Y5472328D02*
G01*
X4579264Y5472328D01*
X4593691Y5474157D01*
X4607814Y5477764D01*
X4621326Y5483148D01*
X4634077Y5490159D01*
X4645863Y5498693D01*
X4656480Y5508650D01*
X4665776Y5519877D01*
X4673549Y5532170D01*
X4679746Y5545328D01*
X4684268Y5559196D01*
X4686960Y5573471D01*
X4687874Y5588000D01*
X4686960Y5602528D01*
X4684268Y5616803D01*
X4679746Y5630672D01*
X4673549Y5643829D01*
X4665776Y5656122D01*
X4656480Y5667349D01*
X4645863Y5677306D01*
X4634077Y5685840D01*
X4621326Y5692851D01*
X4607814Y5698236D01*
X4593691Y5701842D01*
X4579264Y5703671D01*
X4564735Y5703671D01*
X4550257Y5701842D01*
X4536186Y5698236D01*
X4522673Y5692851D01*
X4509922Y5685840D01*
X4498136Y5677306D01*
X4487519Y5667349D01*
X4478223Y5656122D01*
X4470450Y5643829D01*
X4464253Y5630672D01*
X4459732Y5616803D01*
X4457039Y5602528D01*
X4456125Y5588000D01*
X4457039Y5573471D01*
X4459732Y5559196D01*
X4464253Y5545328D01*
X4470450Y5532170D01*
X4478223Y5519877D01*
X4487519Y5508650D01*
X4498136Y5498693D01*
X4509922Y5490159D01*
X4522673Y5483148D01*
X4536186Y5477764D01*
X4550257Y5474157D01*
G37*
G36*
X4564735Y5218328D02*
G01*
X4579264Y5218328D01*
X4593691Y5220157D01*
X4607814Y5223764D01*
X4621326Y5229148D01*
X4634077Y5236159D01*
X4645863Y5244693D01*
X4656480Y5254650D01*
X4665776Y5265877D01*
X4673549Y5278170D01*
X4679746Y5291328D01*
X4684268Y5305196D01*
X4686960Y5319471D01*
X4687874Y5334000D01*
X4686960Y5348528D01*
X4684268Y5362803D01*
X4679746Y5376672D01*
X4673549Y5389829D01*
X4665776Y5402122D01*
X4656480Y5413349D01*
X4645863Y5423306D01*
X4634077Y5431840D01*
X4621326Y5438851D01*
X4607814Y5444236D01*
X4593691Y5447842D01*
X4579264Y5449671D01*
X4564735Y5449671D01*
X4550257Y5447842D01*
X4536186Y5444236D01*
X4522673Y5438851D01*
X4509922Y5431840D01*
X4498136Y5423306D01*
X4487519Y5413349D01*
X4478223Y5402122D01*
X4470450Y5389829D01*
X4464253Y5376672D01*
X4459732Y5362803D01*
X4457039Y5348528D01*
X4456125Y5334000D01*
X4457039Y5319471D01*
X4459732Y5305196D01*
X4464253Y5291328D01*
X4470450Y5278170D01*
X4478223Y5265877D01*
X4487519Y5254650D01*
X4498136Y5244693D01*
X4509922Y5236159D01*
X4522673Y5229148D01*
X4536186Y5223764D01*
X4550257Y5220157D01*
G37*
G36*
X4818735Y5218328D02*
G01*
X4833264Y5218328D01*
X4847691Y5220157D01*
X4861814Y5223764D01*
X4875326Y5229148D01*
X4888077Y5236159D01*
X4899863Y5244693D01*
X4910480Y5254650D01*
X4919776Y5265877D01*
X4927549Y5278170D01*
X4933746Y5291328D01*
X4938268Y5305196D01*
X4940960Y5319471D01*
X4941874Y5334000D01*
X4940960Y5348528D01*
X4938268Y5362803D01*
X4933746Y5376672D01*
X4927549Y5389829D01*
X4919776Y5402122D01*
X4910480Y5413349D01*
X4899863Y5423306D01*
X4888077Y5431840D01*
X4875326Y5438851D01*
X4861814Y5444236D01*
X4847691Y5447842D01*
X4833264Y5449671D01*
X4818735Y5449671D01*
X4804257Y5447842D01*
X4790186Y5444236D01*
X4776673Y5438851D01*
X4763922Y5431840D01*
X4752136Y5423306D01*
X4741519Y5413349D01*
X4732223Y5402122D01*
X4724450Y5389829D01*
X4718253Y5376672D01*
X4713732Y5362803D01*
X4711039Y5348528D01*
X4710125Y5334000D01*
X4711039Y5319471D01*
X4713732Y5305196D01*
X4718253Y5291328D01*
X4724450Y5278170D01*
X4732223Y5265877D01*
X4741519Y5254650D01*
X4752136Y5244693D01*
X4763922Y5236159D01*
X4776673Y5229148D01*
X4790186Y5223764D01*
X4804257Y5220157D01*
G37*
G36*
X254000Y1302562D02*
G01*
X263804Y1303426D01*
X273304Y1305966D01*
X282194Y1310081D01*
X290220Y1315720D01*
X297180Y1322679D01*
X302818Y1330706D01*
X306933Y1339646D01*
X309524Y1349095D01*
X310337Y1358900D01*
X309524Y1368704D01*
X306933Y1378153D01*
X302818Y1387094D01*
X297180Y1395120D01*
X295605Y1396695D01*
X293370Y1399997D01*
X292608Y1403908D01*
X292608Y4170781D01*
X293370Y4174693D01*
X295605Y4177995D01*
X302869Y4185208D01*
X306324Y4187444D01*
X310337Y4188155D01*
X314350Y4187240D01*
X323646Y4182872D01*
X333146Y4180332D01*
X342900Y4179468D01*
X352704Y4180332D01*
X362204Y4182872D01*
X371094Y4187037D01*
X379120Y4192676D01*
X386080Y4199636D01*
X391718Y4207662D01*
X395884Y4216552D01*
X398424Y4226052D01*
X399237Y4235856D01*
X398424Y4245610D01*
X395884Y4255109D01*
X391718Y4263999D01*
X386080Y4272076D01*
X379120Y4278985D01*
X371094Y4284624D01*
X362204Y4288790D01*
X352704Y4291330D01*
X342900Y4292193D01*
X333146Y4291330D01*
X323646Y4288790D01*
X314756Y4284624D01*
X306679Y4278985D01*
X304901Y4277207D01*
X302056Y4275226D01*
X298704Y4274312D01*
X291541Y4273600D01*
X284327Y4271416D01*
X277622Y4267860D01*
X271373Y4262780D01*
X227126Y4218787D01*
X221996Y4212539D01*
X218440Y4205884D01*
X216204Y4198670D01*
X215392Y4190542D01*
X215392Y1403908D01*
X214629Y1399997D01*
X212394Y1396695D01*
X210820Y1395120D01*
X205232Y1387094D01*
X201066Y1378153D01*
X198526Y1368704D01*
X197662Y1358900D01*
X198526Y1349095D01*
X201066Y1339646D01*
X205232Y1330706D01*
X210820Y1322679D01*
X217779Y1315720D01*
X225856Y1310081D01*
X234746Y1305966D01*
X244246Y1303426D01*
G37*
G36*
X890473Y1420164D02*
G01*
X900277Y1421028D01*
X909726Y1423568D01*
X918667Y1427683D01*
X926693Y1433322D01*
X928268Y1434896D01*
X931570Y1437132D01*
X935482Y1437894D01*
X1011834Y1437894D01*
X1014882Y1437436D01*
X1017676Y1436065D01*
X1025753Y1430375D01*
X1034643Y1426210D01*
X1044143Y1423670D01*
X1053947Y1422857D01*
X1063701Y1423670D01*
X1073200Y1426210D01*
X1082090Y1430375D01*
X1090168Y1436014D01*
X1097076Y1442974D01*
X1102715Y1451000D01*
X1106881Y1459890D01*
X1109421Y1469390D01*
X1110284Y1479194D01*
X1109421Y1488948D01*
X1106881Y1498447D01*
X1102715Y1507337D01*
X1097076Y1515414D01*
X1090168Y1522374D01*
X1082090Y1527962D01*
X1073200Y1532128D01*
X1063701Y1534668D01*
X1060907Y1534922D01*
X1057198Y1535988D01*
X1054150Y1538376D01*
X1052220Y1541729D01*
X1051661Y1545590D01*
X1055573Y1559712D01*
X1056386Y1569516D01*
X1055573Y1579270D01*
X1052982Y1588770D01*
X1048867Y1597660D01*
X1043228Y1605737D01*
X1036269Y1612646D01*
X1028242Y1618284D01*
X1019352Y1622450D01*
X1009853Y1624990D01*
X1000048Y1625854D01*
X990295Y1624990D01*
X980795Y1622450D01*
X971905Y1618284D01*
X963828Y1612646D01*
X962253Y1611122D01*
X959002Y1608886D01*
X955090Y1608124D01*
X483616Y1608124D01*
X479704Y1608886D01*
X476453Y1611122D01*
X474218Y1614373D01*
X473456Y1618284D01*
X473456Y1795678D01*
X474421Y1799945D01*
X477062Y1803450D01*
X480974Y1805482D01*
X485393Y1805686D01*
X489458Y1804009D01*
X495808Y1799539D01*
X504748Y1795373D01*
X514197Y1792833D01*
X524001Y1791970D01*
X533806Y1792833D01*
X543255Y1795373D01*
X552196Y1799539D01*
X560222Y1805178D01*
X567182Y1812086D01*
X572820Y1820164D01*
X576935Y1829054D01*
X579475Y1838553D01*
X580339Y1848307D01*
X579475Y1858111D01*
X576935Y1867611D01*
X572820Y1876501D01*
X567182Y1884527D01*
X565607Y1886102D01*
X563372Y1889404D01*
X562610Y1893316D01*
X562610Y1912112D01*
X563524Y1916277D01*
X566013Y1919681D01*
X569722Y1921814D01*
X573938Y1922221D01*
X578002Y1920849D01*
X581101Y1917954D01*
X582218Y1916277D01*
X589178Y1909368D01*
X597255Y1903730D01*
X606145Y1899564D01*
X615645Y1897024D01*
X625398Y1896160D01*
X635203Y1897024D01*
X644702Y1899564D01*
X653592Y1903730D01*
X661619Y1909368D01*
X663194Y1910943D01*
X666496Y1913128D01*
X670407Y1913889D01*
X955040Y1913889D01*
X958900Y1913128D01*
X962202Y1910943D01*
X963777Y1909368D01*
X971803Y1903730D01*
X980744Y1899564D01*
X990193Y1897024D01*
X999998Y1896211D01*
X1009802Y1897024D01*
X1019251Y1899564D01*
X1028192Y1903730D01*
X1036218Y1909368D01*
X1043178Y1916328D01*
X1048816Y1924354D01*
X1052931Y1933244D01*
X1055471Y1942744D01*
X1056335Y1952548D01*
X1055471Y1962302D01*
X1052931Y1971802D01*
X1048816Y1980692D01*
X1043178Y1988769D01*
X1036218Y1995728D01*
X1028192Y2001316D01*
X1019251Y2005482D01*
X1009802Y2008022D01*
X999998Y2008886D01*
X990193Y2008022D01*
X980744Y2005482D01*
X971803Y2001316D01*
X963777Y1995728D01*
X962202Y1994103D01*
X958900Y1991918D01*
X954989Y1991106D01*
X748842Y1991106D01*
X744982Y1991918D01*
X741680Y1994103D01*
X739444Y1997405D01*
X738682Y2001266D01*
X739444Y2005177D01*
X747318Y2016506D01*
X751433Y2025446D01*
X753973Y2034895D01*
X754837Y2044700D01*
X753973Y2054504D01*
X751433Y2063953D01*
X747318Y2072893D01*
X741680Y2080920D01*
X734720Y2087880D01*
X726694Y2093518D01*
X717753Y2097633D01*
X708304Y2100173D01*
X698500Y2101037D01*
X688695Y2100173D01*
X679246Y2097633D01*
X670306Y2093518D01*
X662279Y2087880D01*
X660755Y2086356D01*
X657453Y2084120D01*
X653542Y2083358D01*
X559308Y2083358D01*
X551281Y2082546D01*
X544068Y2080361D01*
X537362Y2076805D01*
X531164Y2071674D01*
X497078Y2037588D01*
X491490Y2030780D01*
X488238Y2028189D01*
X484276Y2027123D01*
X480212Y2027682D01*
X476656Y2029815D01*
X474319Y2033219D01*
X473456Y2037232D01*
X473456Y2095906D01*
X474218Y2099767D01*
X476453Y2103069D01*
X478078Y2104745D01*
X483717Y2112772D01*
X487883Y2121662D01*
X490423Y2131161D01*
X491235Y2140966D01*
X490423Y2150719D01*
X487883Y2160219D01*
X483717Y2169109D01*
X478078Y2177186D01*
X471119Y2184095D01*
X463092Y2189734D01*
X454202Y2193899D01*
X444703Y2196439D01*
X434898Y2197303D01*
X425145Y2196439D01*
X415645Y2193899D01*
X406755Y2189734D01*
X398678Y2184095D01*
X391718Y2177186D01*
X386130Y2169109D01*
X381965Y2160219D01*
X379425Y2150719D01*
X378561Y2140966D01*
X379425Y2131161D01*
X381965Y2121662D01*
X386130Y2112772D01*
X391718Y2104745D01*
X393242Y2103221D01*
X395478Y2099919D01*
X396240Y2096007D01*
X396240Y1597710D01*
X397052Y1589684D01*
X399237Y1582470D01*
X402793Y1575765D01*
X407924Y1569567D01*
X434898Y1542592D01*
X441096Y1537462D01*
X447801Y1533906D01*
X455015Y1531721D01*
X463042Y1530908D01*
X840943Y1530908D01*
X844854Y1530146D01*
X848156Y1527911D01*
X850341Y1524660D01*
X851103Y1520748D01*
X850341Y1516837D01*
X841654Y1504696D01*
X837539Y1495755D01*
X834999Y1486306D01*
X834136Y1476502D01*
X834999Y1466697D01*
X837539Y1457248D01*
X841654Y1448308D01*
X847293Y1440281D01*
X854252Y1433322D01*
X862279Y1427683D01*
X871219Y1423568D01*
X880668Y1421028D01*
G37*
G36*
X375208Y5185156D02*
G01*
X398322Y5185664D01*
X421284Y5188051D01*
X443992Y5192369D01*
X466242Y5198618D01*
X487883Y5206644D01*
X508812Y5216499D01*
X528828Y5228031D01*
X547776Y5241239D01*
X565607Y5255971D01*
X582117Y5272125D01*
X597204Y5289600D01*
X610819Y5308295D01*
X622757Y5328107D01*
X633018Y5348782D01*
X641553Y5370271D01*
X648208Y5392369D01*
X653034Y5414975D01*
X655929Y5437886D01*
X656894Y5461000D01*
X655929Y5484063D01*
X653034Y5507024D01*
X648208Y5529630D01*
X641553Y5551728D01*
X633018Y5573217D01*
X622757Y5593892D01*
X610819Y5613654D01*
X597204Y5632348D01*
X582117Y5649874D01*
X565607Y5666028D01*
X547776Y5680760D01*
X528828Y5693968D01*
X508812Y5705500D01*
X487883Y5715355D01*
X466242Y5723382D01*
X443992Y5729630D01*
X421284Y5733948D01*
X398322Y5736336D01*
X375208Y5736844D01*
X352145Y5735370D01*
X329285Y5732018D01*
X306781Y5726734D01*
X284835Y5719572D01*
X263499Y5710631D01*
X243027Y5699912D01*
X223520Y5687568D01*
X205130Y5673598D01*
X187960Y5658104D01*
X172161Y5641289D01*
X157784Y5623153D01*
X144983Y5603900D01*
X133858Y5583682D01*
X124460Y5562549D01*
X116890Y5540756D01*
X111099Y5518353D01*
X107289Y5495594D01*
X105359Y5472531D01*
X105359Y5449468D01*
X107289Y5426405D01*
X111099Y5403646D01*
X116890Y5381244D01*
X124460Y5359450D01*
X133858Y5338318D01*
X144983Y5318099D01*
X157784Y5298846D01*
X172161Y5280710D01*
X187960Y5263896D01*
X205130Y5248402D01*
X223520Y5234432D01*
X243027Y5222036D01*
X263499Y5211368D01*
X284835Y5202377D01*
X306781Y5195265D01*
X329285Y5189982D01*
X352145Y5186629D01*
G37*
G36*
X5455208Y5185156D02*
G01*
X5478322Y5185664D01*
X5501284Y5188051D01*
X5523992Y5192369D01*
X5546242Y5198618D01*
X5567883Y5206644D01*
X5588812Y5216499D01*
X5608828Y5228031D01*
X5627776Y5241239D01*
X5645607Y5255971D01*
X5662117Y5272125D01*
X5677204Y5289600D01*
X5690819Y5308295D01*
X5702757Y5328107D01*
X5713018Y5348782D01*
X5721553Y5370271D01*
X5728208Y5392369D01*
X5733034Y5414975D01*
X5735929Y5437886D01*
X5736894Y5461000D01*
X5735929Y5484063D01*
X5733034Y5507024D01*
X5728208Y5529630D01*
X5721553Y5551728D01*
X5713018Y5573217D01*
X5702757Y5593892D01*
X5690819Y5613654D01*
X5677204Y5632348D01*
X5662117Y5649874D01*
X5645607Y5666028D01*
X5627776Y5680760D01*
X5608828Y5693968D01*
X5588812Y5705500D01*
X5567883Y5715355D01*
X5546242Y5723382D01*
X5523992Y5729630D01*
X5501284Y5733948D01*
X5478322Y5736336D01*
X5455208Y5736844D01*
X5432145Y5735370D01*
X5409285Y5732018D01*
X5386781Y5726734D01*
X5364835Y5719572D01*
X5343499Y5710631D01*
X5323027Y5699912D01*
X5303520Y5687568D01*
X5285130Y5673598D01*
X5267960Y5658104D01*
X5252161Y5641289D01*
X5237784Y5623153D01*
X5224983Y5603900D01*
X5213858Y5583682D01*
X5204460Y5562549D01*
X5196890Y5540756D01*
X5191099Y5518353D01*
X5187289Y5495594D01*
X5185359Y5472531D01*
X5185359Y5449468D01*
X5187289Y5426405D01*
X5191099Y5403646D01*
X5196890Y5381244D01*
X5204460Y5359450D01*
X5213858Y5338318D01*
X5224983Y5318099D01*
X5237784Y5298846D01*
X5252161Y5280710D01*
X5267960Y5263896D01*
X5285130Y5248402D01*
X5303520Y5234432D01*
X5323027Y5222036D01*
X5343499Y5211368D01*
X5364835Y5202377D01*
X5386781Y5195265D01*
X5409285Y5189982D01*
X5432145Y5186629D01*
G37*
G36*
X4406900Y3616045D02*
G01*
X4416704Y3616909D01*
X4426153Y3619449D01*
X4435094Y3623564D01*
X4443120Y3629202D01*
X4444695Y3630777D01*
X4447997Y3633012D01*
X4451908Y3633774D01*
X4926990Y3633774D01*
X4930902Y3633012D01*
X4934204Y3630828D01*
X4935778Y3629253D01*
X4943805Y3623614D01*
X4952695Y3619449D01*
X4962194Y3616909D01*
X4971999Y3616045D01*
X4981752Y3616909D01*
X4991252Y3619449D01*
X5000142Y3623614D01*
X5008219Y3629253D01*
X5015179Y3636162D01*
X5020767Y3644239D01*
X5024932Y3653129D01*
X5027472Y3662629D01*
X5028336Y3672382D01*
X5027472Y3682187D01*
X5024932Y3691686D01*
X5020767Y3700576D01*
X5015179Y3708603D01*
X5008219Y3715562D01*
X5000142Y3721201D01*
X4991252Y3725367D01*
X4981752Y3727907D01*
X4971999Y3728720D01*
X4962194Y3727907D01*
X4952695Y3725367D01*
X4943805Y3721201D01*
X4935778Y3715562D01*
X4934204Y3713987D01*
X4930902Y3711752D01*
X4926990Y3710990D01*
X4451908Y3710990D01*
X4447997Y3711752D01*
X4444695Y3713987D01*
X4443120Y3715562D01*
X4435094Y3721201D01*
X4426153Y3725316D01*
X4416704Y3727856D01*
X4406900Y3728720D01*
X4397095Y3727856D01*
X4387646Y3725316D01*
X4378706Y3721201D01*
X4370679Y3715562D01*
X4363720Y3708603D01*
X4358081Y3700576D01*
X4353966Y3691636D01*
X4351426Y3682187D01*
X4350562Y3672382D01*
X4351426Y3662578D01*
X4353966Y3653129D01*
X4358081Y3644188D01*
X4363720Y3636162D01*
X4370679Y3629202D01*
X4378706Y3623564D01*
X4387646Y3619449D01*
X4397095Y3616909D01*
G37*
G36*
X3238500Y3613353D02*
G01*
X3248304Y3614216D01*
X3257753Y3616756D01*
X3266694Y3620922D01*
X3274720Y3626510D01*
X3276295Y3628136D01*
X3279597Y3630320D01*
X3283508Y3631082D01*
X3758641Y3631082D01*
X3762501Y3630320D01*
X3765804Y3628136D01*
X3767378Y3626561D01*
X3775405Y3620922D01*
X3784295Y3616756D01*
X3793794Y3614216D01*
X3803599Y3613353D01*
X3813352Y3614216D01*
X3822852Y3616756D01*
X3831742Y3620922D01*
X3839819Y3626561D01*
X3846779Y3633470D01*
X3852367Y3641547D01*
X3856532Y3650437D01*
X3859072Y3659936D01*
X3859936Y3669690D01*
X3859072Y3679494D01*
X3856532Y3688994D01*
X3852367Y3697884D01*
X3846779Y3705961D01*
X3839819Y3712870D01*
X3831742Y3718509D01*
X3822852Y3722674D01*
X3813352Y3725214D01*
X3803599Y3726078D01*
X3793794Y3725214D01*
X3784295Y3722674D01*
X3775405Y3718509D01*
X3767378Y3712870D01*
X3765753Y3711295D01*
X3762501Y3709060D01*
X3758590Y3708298D01*
X3283508Y3708298D01*
X3279597Y3709060D01*
X3276295Y3711295D01*
X3274720Y3712870D01*
X3266694Y3718509D01*
X3257753Y3722674D01*
X3248304Y3725214D01*
X3238500Y3726027D01*
X3228695Y3725214D01*
X3219246Y3722674D01*
X3210306Y3718509D01*
X3202279Y3712870D01*
X3195320Y3705910D01*
X3189681Y3697884D01*
X3185566Y3688994D01*
X3183026Y3679494D01*
X3182162Y3669690D01*
X3183026Y3659936D01*
X3185566Y3650437D01*
X3189681Y3641547D01*
X3195320Y3633470D01*
X3202279Y3626510D01*
X3210306Y3620922D01*
X3219246Y3616756D01*
X3228695Y3614216D01*
G37*
G36*
X2070100Y3610660D02*
G01*
X2079904Y3611524D01*
X2089353Y3614064D01*
X2098294Y3618229D01*
X2106320Y3623868D01*
X2107895Y3625443D01*
X2111197Y3627628D01*
X2115108Y3628390D01*
X2590241Y3628390D01*
X2594102Y3627628D01*
X2597404Y3625443D01*
X2598978Y3623868D01*
X2607005Y3618229D01*
X2615946Y3614064D01*
X2625394Y3611524D01*
X2635199Y3610711D01*
X2645003Y3611524D01*
X2654452Y3614064D01*
X2663393Y3618229D01*
X2671419Y3623868D01*
X2678379Y3630828D01*
X2684018Y3638854D01*
X2688132Y3647744D01*
X2690672Y3657244D01*
X2691536Y3667048D01*
X2690672Y3676802D01*
X2688132Y3686301D01*
X2684018Y3695192D01*
X2678379Y3703269D01*
X2671419Y3710178D01*
X2663393Y3715816D01*
X2654452Y3719982D01*
X2645003Y3722522D01*
X2635199Y3723386D01*
X2625394Y3722522D01*
X2615946Y3719982D01*
X2607005Y3715816D01*
X2598978Y3710178D01*
X2597353Y3708603D01*
X2594102Y3706418D01*
X2590190Y3705606D01*
X2115108Y3705606D01*
X2111197Y3706418D01*
X2107895Y3708603D01*
X2106320Y3710178D01*
X2098294Y3715816D01*
X2089353Y3719982D01*
X2079904Y3722522D01*
X2070100Y3723386D01*
X2060295Y3722522D01*
X2050846Y3719982D01*
X2041906Y3715816D01*
X2033879Y3710178D01*
X2026920Y3703218D01*
X2021281Y3695192D01*
X2017166Y3686301D01*
X2014626Y3676802D01*
X2013762Y3666998D01*
X2014626Y3657244D01*
X2017166Y3647744D01*
X2021281Y3638854D01*
X2026920Y3630777D01*
X2033879Y3623868D01*
X2041906Y3618229D01*
X2050846Y3614064D01*
X2060295Y3611524D01*
G37*
G36*
X901700Y3607968D02*
G01*
X911504Y3608832D01*
X921003Y3611372D01*
X929894Y3615537D01*
X937920Y3621176D01*
X939495Y3622751D01*
X942797Y3624935D01*
X946708Y3625748D01*
X1421841Y3625748D01*
X1425702Y3624935D01*
X1429004Y3622751D01*
X1430578Y3621176D01*
X1438605Y3615537D01*
X1447546Y3611422D01*
X1456994Y3608882D01*
X1466799Y3608019D01*
X1476603Y3608882D01*
X1486052Y3611422D01*
X1494993Y3615537D01*
X1503019Y3621176D01*
X1509979Y3628136D01*
X1515618Y3636162D01*
X1519732Y3645103D01*
X1522272Y3654551D01*
X1523136Y3664356D01*
X1522272Y3674160D01*
X1519732Y3683609D01*
X1515618Y3692550D01*
X1509979Y3700576D01*
X1503019Y3707536D01*
X1494993Y3713175D01*
X1486052Y3717290D01*
X1476603Y3719829D01*
X1466799Y3720693D01*
X1456994Y3719829D01*
X1447546Y3717290D01*
X1438605Y3713175D01*
X1430578Y3707536D01*
X1429004Y3705910D01*
X1425702Y3703726D01*
X1421790Y3702964D01*
X946708Y3702964D01*
X942797Y3703726D01*
X939495Y3705910D01*
X937920Y3707485D01*
X929894Y3713124D01*
X921003Y3717290D01*
X911504Y3719829D01*
X901700Y3720693D01*
X891946Y3719829D01*
X882446Y3717290D01*
X873556Y3713124D01*
X865479Y3707485D01*
X858519Y3700576D01*
X852932Y3692499D01*
X848766Y3683609D01*
X846226Y3674110D01*
X845362Y3664356D01*
X846226Y3654551D01*
X848766Y3645052D01*
X852932Y3636162D01*
X858519Y3628136D01*
X865479Y3621176D01*
X873556Y3615537D01*
X882446Y3611372D01*
X891946Y3608832D01*
G37*
G36*
X5455208Y105156D02*
G01*
X5478322Y105664D01*
X5501284Y108051D01*
X5523992Y112369D01*
X5546242Y118618D01*
X5567883Y126644D01*
X5588812Y136499D01*
X5608828Y148031D01*
X5627776Y161239D01*
X5645607Y175971D01*
X5662117Y192125D01*
X5677204Y209600D01*
X5690819Y228295D01*
X5702757Y248107D01*
X5713018Y268782D01*
X5721553Y290271D01*
X5728208Y312369D01*
X5733034Y334975D01*
X5735929Y357886D01*
X5736894Y381000D01*
X5735929Y404063D01*
X5733034Y427024D01*
X5728208Y449630D01*
X5721553Y471728D01*
X5713018Y493217D01*
X5702757Y513892D01*
X5690819Y533654D01*
X5677204Y552348D01*
X5662117Y569874D01*
X5645607Y586028D01*
X5627776Y600760D01*
X5608828Y613968D01*
X5588812Y625500D01*
X5567883Y635355D01*
X5546242Y643382D01*
X5523992Y649630D01*
X5501284Y653948D01*
X5478322Y656336D01*
X5455208Y656844D01*
X5432145Y655370D01*
X5409285Y652018D01*
X5386781Y646734D01*
X5364835Y639572D01*
X5343499Y630631D01*
X5323027Y619912D01*
X5303520Y607568D01*
X5285130Y593598D01*
X5267960Y578104D01*
X5252161Y561289D01*
X5237784Y543153D01*
X5224983Y523900D01*
X5213858Y503682D01*
X5204460Y482549D01*
X5196890Y460756D01*
X5191099Y438353D01*
X5187289Y415594D01*
X5185359Y392531D01*
X5185359Y369468D01*
X5187289Y346405D01*
X5191099Y323646D01*
X5196890Y301244D01*
X5204460Y279450D01*
X5213858Y258317D01*
X5224983Y238099D01*
X5237784Y218846D01*
X5252161Y200710D01*
X5267960Y183896D01*
X5285130Y168402D01*
X5303520Y154432D01*
X5323027Y142036D01*
X5343499Y131368D01*
X5364835Y122377D01*
X5386781Y115265D01*
X5409285Y109982D01*
X5432145Y106629D01*
G37*
G36*
X1816100Y2938780D02*
G01*
X1825904Y2939643D01*
X1835353Y2942183D01*
X1844293Y2946349D01*
X1852320Y2951988D01*
X1859280Y2958896D01*
X1864918Y2966974D01*
X1869033Y2975864D01*
X1871573Y2985363D01*
X1872437Y2995117D01*
X1871573Y3004921D01*
X1869033Y3014421D01*
X1864918Y3023311D01*
X1859280Y3031388D01*
X1857705Y3032963D01*
X1855470Y3036265D01*
X1854707Y3040126D01*
X1854707Y3082696D01*
X1855470Y3086608D01*
X1857705Y3089910D01*
X1860956Y3092094D01*
X1864868Y3092856D01*
X1868779Y3092094D01*
X1872030Y3089910D01*
X1895398Y3066592D01*
X1901596Y3061462D01*
X1908302Y3057906D01*
X1915515Y3055721D01*
X1923542Y3054908D01*
X2476144Y3054908D01*
X2480056Y3054146D01*
X2483358Y3051911D01*
X2485542Y3048660D01*
X2486304Y3044748D01*
X2485542Y3040837D01*
X2476855Y3028696D01*
X2472740Y3019755D01*
X2470200Y3010306D01*
X2469337Y3000502D01*
X2470200Y2990697D01*
X2472740Y2981248D01*
X2476855Y2972308D01*
X2482494Y2964281D01*
X2489454Y2957322D01*
X2497480Y2951683D01*
X2506421Y2947568D01*
X2515870Y2945028D01*
X2525674Y2944164D01*
X2535478Y2945028D01*
X2544927Y2947568D01*
X2553868Y2951683D01*
X2561894Y2957322D01*
X2563469Y2958896D01*
X2566771Y2961132D01*
X2570632Y2961894D01*
X2672638Y2961894D01*
X2676550Y2961132D01*
X2679852Y2958896D01*
X2681427Y2957322D01*
X2689453Y2951683D01*
X2698343Y2947568D01*
X2707843Y2945028D01*
X2717647Y2944164D01*
X2727401Y2945028D01*
X2736900Y2947568D01*
X2745790Y2951683D01*
X2753868Y2957322D01*
X2760776Y2964281D01*
X2766415Y2972308D01*
X2770581Y2981248D01*
X2773121Y2990697D01*
X2773984Y3000502D01*
X2773121Y3010306D01*
X2770581Y3019755D01*
X2766415Y3028696D01*
X2760776Y3036722D01*
X2753868Y3043682D01*
X2745790Y3049320D01*
X2736900Y3053435D01*
X2727401Y3055975D01*
X2717647Y3056839D01*
X2707843Y3055975D01*
X2694330Y3052470D01*
X2690266Y3053181D01*
X2686812Y3055467D01*
X2684576Y3058871D01*
X2683865Y3062935D01*
X2684830Y3066948D01*
X2688183Y3074212D01*
X2690723Y3083712D01*
X2691587Y3093466D01*
X2690723Y3103270D01*
X2688183Y3112770D01*
X2684068Y3121660D01*
X2678430Y3129737D01*
X2671470Y3136646D01*
X2663444Y3142284D01*
X2654503Y3146450D01*
X2645054Y3148990D01*
X2635250Y3149854D01*
X2625445Y3148990D01*
X2615996Y3146450D01*
X2607056Y3142284D01*
X2599029Y3136646D01*
X2597454Y3135122D01*
X2594203Y3132886D01*
X2590292Y3132124D01*
X1943252Y3132124D01*
X1939340Y3132886D01*
X1936038Y3135122D01*
X1921205Y3149955D01*
X1918970Y3153257D01*
X1918207Y3157169D01*
X1918207Y4000957D01*
X1918970Y4004818D01*
X1921205Y4008120D01*
X1922780Y4009694D01*
X1928418Y4017772D01*
X1932533Y4026662D01*
X1935073Y4036161D01*
X1935937Y4045915D01*
X1935073Y4055719D01*
X1932533Y4065219D01*
X1928418Y4074109D01*
X1922780Y4082186D01*
X1915820Y4089095D01*
X1907793Y4094734D01*
X1898853Y4098899D01*
X1889404Y4101439D01*
X1879600Y4102303D01*
X1869795Y4101439D01*
X1867509Y4100829D01*
X1863801Y4100525D01*
X1860245Y4101592D01*
X1857298Y4103827D01*
X1855368Y4106976D01*
X1854707Y4110634D01*
X1854707Y4170832D01*
X1855470Y4174744D01*
X1857705Y4178046D01*
X1876602Y4196943D01*
X1879904Y4199178D01*
X1883816Y4199940D01*
X2025091Y4199940D01*
X2029002Y4199178D01*
X2032254Y4196943D01*
X2033879Y4195368D01*
X2041906Y4189729D01*
X2050846Y4185564D01*
X2060295Y4183024D01*
X2070100Y4182160D01*
X2079904Y4183024D01*
X2089353Y4185564D01*
X2098294Y4189729D01*
X2106320Y4195368D01*
X2113280Y4202277D01*
X2118918Y4210354D01*
X2123033Y4219244D01*
X2125573Y4228744D01*
X2126437Y4238498D01*
X2125573Y4248302D01*
X2123033Y4257802D01*
X2118918Y4266692D01*
X2113280Y4274718D01*
X2106320Y4281678D01*
X2098294Y4287316D01*
X2089353Y4291482D01*
X2079904Y4294022D01*
X2070100Y4294886D01*
X2060295Y4294022D01*
X2050846Y4291482D01*
X2041906Y4287316D01*
X2033879Y4281678D01*
X2032355Y4280154D01*
X2029053Y4277918D01*
X2025142Y4277156D01*
X1864106Y4277156D01*
X1856079Y4276344D01*
X1848866Y4274159D01*
X1842160Y4270603D01*
X1835962Y4265472D01*
X1789175Y4218686D01*
X1784045Y4212488D01*
X1780489Y4205782D01*
X1778304Y4198569D01*
X1777492Y4190542D01*
X1777492Y3040126D01*
X1776730Y3036214D01*
X1774494Y3032963D01*
X1772920Y3031388D01*
X1767281Y3023311D01*
X1763166Y3014421D01*
X1760626Y3004921D01*
X1759762Y2995117D01*
X1760626Y2985363D01*
X1763166Y2975864D01*
X1767281Y2966974D01*
X1772920Y2958896D01*
X1779879Y2951988D01*
X1787906Y2946349D01*
X1796846Y2942183D01*
X1806295Y2939643D01*
G37*
G36*
X1357274Y2941472D02*
G01*
X1367078Y2942336D01*
X1376527Y2944876D01*
X1385468Y2949041D01*
X1393494Y2954680D01*
X1395069Y2956255D01*
X1398371Y2958439D01*
X1402283Y2959201D01*
X1504238Y2959201D01*
X1508150Y2958439D01*
X1511452Y2956255D01*
X1513027Y2954680D01*
X1521053Y2949041D01*
X1529943Y2944876D01*
X1539443Y2942336D01*
X1549247Y2941472D01*
X1559001Y2942336D01*
X1568500Y2944876D01*
X1577390Y2949041D01*
X1585468Y2954680D01*
X1592376Y2961589D01*
X1598015Y2969666D01*
X1602181Y2978556D01*
X1604721Y2988056D01*
X1605584Y2997809D01*
X1604721Y3007614D01*
X1602181Y3017113D01*
X1598015Y3026003D01*
X1592376Y3034030D01*
X1585468Y3040989D01*
X1577390Y3046628D01*
X1568500Y3050794D01*
X1559001Y3053334D01*
X1549247Y3054146D01*
X1539443Y3053334D01*
X1525930Y3049828D01*
X1521866Y3050540D01*
X1518412Y3052775D01*
X1516176Y3056229D01*
X1515465Y3060242D01*
X1516430Y3064256D01*
X1519783Y3071520D01*
X1522374Y3081020D01*
X1523187Y3090824D01*
X1522374Y3100578D01*
X1519783Y3110077D01*
X1515668Y3118967D01*
X1510030Y3127044D01*
X1503070Y3133953D01*
X1495044Y3139592D01*
X1486154Y3143758D01*
X1476654Y3146298D01*
X1466850Y3147161D01*
X1457096Y3146298D01*
X1447596Y3143758D01*
X1438706Y3139592D01*
X1430629Y3133953D01*
X1428953Y3132328D01*
X1425651Y3130092D01*
X1421790Y3129330D01*
X777443Y3129330D01*
X773531Y3130092D01*
X770229Y3132328D01*
X752754Y3149904D01*
X750570Y3153206D01*
X749808Y3157067D01*
X749808Y3998264D01*
X750570Y4002176D01*
X752805Y4005427D01*
X754380Y4007053D01*
X760018Y4015079D01*
X764133Y4023969D01*
X766724Y4033469D01*
X767537Y4043273D01*
X766724Y4053027D01*
X764133Y4062526D01*
X760018Y4071416D01*
X754380Y4079494D01*
X747420Y4086402D01*
X739394Y4092041D01*
X730504Y4096207D01*
X721004Y4098747D01*
X711200Y4099610D01*
X701446Y4098747D01*
X691946Y4096207D01*
X683056Y4092041D01*
X674979Y4086402D01*
X668020Y4079494D01*
X662432Y4071416D01*
X658266Y4062526D01*
X655726Y4053027D01*
X654862Y4043273D01*
X655726Y4033469D01*
X658266Y4023969D01*
X662432Y4015079D01*
X668020Y4007053D01*
X669594Y4005478D01*
X671830Y4002176D01*
X672592Y3998264D01*
X672592Y3137458D01*
X673354Y3129534D01*
X675538Y3122269D01*
X679094Y3115614D01*
X684174Y3109366D01*
X729437Y3063849D01*
X735685Y3058718D01*
X742340Y3055162D01*
X749554Y3052927D01*
X757682Y3052114D01*
X1307642Y3052114D01*
X1311554Y3051352D01*
X1314856Y3049117D01*
X1317040Y3045866D01*
X1317802Y3041954D01*
X1317040Y3038043D01*
X1308455Y3026003D01*
X1304340Y3017113D01*
X1301800Y3007614D01*
X1300937Y2997809D01*
X1301800Y2988056D01*
X1304340Y2978556D01*
X1308455Y2969666D01*
X1314094Y2961589D01*
X1321054Y2954680D01*
X1329080Y2949041D01*
X1338021Y2944876D01*
X1347470Y2942336D01*
G37*
G36*
X4152900Y2944164D02*
G01*
X4162704Y2945028D01*
X4172153Y2947568D01*
X4181094Y2951683D01*
X4189120Y2957322D01*
X4196080Y2964281D01*
X4201718Y2972308D01*
X4205833Y2981248D01*
X4208373Y2990697D01*
X4209237Y3000502D01*
X4208373Y3010306D01*
X4205833Y3019755D01*
X4201718Y3028696D01*
X4196080Y3036722D01*
X4194505Y3038297D01*
X4192270Y3041599D01*
X4191508Y3045510D01*
X4191508Y3082645D01*
X4192270Y3086557D01*
X4194505Y3089859D01*
X4197756Y3092043D01*
X4201668Y3092805D01*
X4205579Y3092043D01*
X4208830Y3089859D01*
X4226814Y3071926D01*
X4233011Y3066796D01*
X4239717Y3063240D01*
X4246930Y3061055D01*
X4254957Y3060242D01*
X4812944Y3060242D01*
X4816805Y3059480D01*
X4820107Y3057245D01*
X4822342Y3053994D01*
X4823104Y3050082D01*
X4822342Y3046171D01*
X4813655Y3034030D01*
X4809490Y3025140D01*
X4806950Y3015640D01*
X4806137Y3005836D01*
X4806950Y2996082D01*
X4809490Y2986582D01*
X4813655Y2977692D01*
X4819294Y2969615D01*
X4826254Y2962706D01*
X4834280Y2957068D01*
X4843170Y2952902D01*
X4852670Y2950362D01*
X4862474Y2949498D01*
X4872228Y2950362D01*
X4881727Y2952902D01*
X4890617Y2957068D01*
X4898694Y2962706D01*
X4900269Y2964281D01*
X4903571Y2966466D01*
X4907432Y2967228D01*
X5009438Y2967228D01*
X5013350Y2966466D01*
X5016601Y2964281D01*
X5018227Y2962706D01*
X5026253Y2957068D01*
X5035143Y2952902D01*
X5044643Y2950362D01*
X5054447Y2949498D01*
X5064201Y2950362D01*
X5073700Y2952902D01*
X5082590Y2957068D01*
X5090668Y2962706D01*
X5097576Y2969615D01*
X5103215Y2977692D01*
X5107381Y2986582D01*
X5109921Y2996082D01*
X5110784Y3005836D01*
X5109921Y3015640D01*
X5107381Y3025140D01*
X5103215Y3034030D01*
X5097576Y3042107D01*
X5090668Y3049016D01*
X5082590Y3054654D01*
X5073700Y3058820D01*
X5064201Y3061360D01*
X5054447Y3062224D01*
X5044643Y3061360D01*
X5031130Y3057855D01*
X5027066Y3058566D01*
X5023612Y3060801D01*
X5021376Y3064256D01*
X5020665Y3068269D01*
X5021580Y3072282D01*
X5024983Y3079597D01*
X5027523Y3089046D01*
X5028387Y3098850D01*
X5027523Y3108655D01*
X5024983Y3118104D01*
X5020868Y3127044D01*
X5015230Y3135071D01*
X5008270Y3142030D01*
X5000244Y3147669D01*
X4991303Y3151784D01*
X4981854Y3154324D01*
X4972050Y3155188D01*
X4962245Y3154324D01*
X4952796Y3151784D01*
X4943856Y3147669D01*
X4935829Y3142030D01*
X4934254Y3140456D01*
X4930952Y3138220D01*
X4927041Y3137458D01*
X4274667Y3137458D01*
X4270756Y3138220D01*
X4267454Y3140456D01*
X4258005Y3149904D01*
X4255770Y3153206D01*
X4255008Y3157118D01*
X4255008Y4006291D01*
X4255770Y4010202D01*
X4258005Y4013504D01*
X4259580Y4015079D01*
X4265218Y4023106D01*
X4269333Y4032046D01*
X4271873Y4041495D01*
X4272737Y4051300D01*
X4271873Y4061104D01*
X4269333Y4070553D01*
X4265218Y4079494D01*
X4259580Y4087520D01*
X4252620Y4094479D01*
X4244594Y4100118D01*
X4235653Y4104233D01*
X4226204Y4106773D01*
X4216400Y4107637D01*
X4206595Y4106773D01*
X4204309Y4106164D01*
X4200601Y4105859D01*
X4197045Y4106926D01*
X4194098Y4109212D01*
X4192168Y4112361D01*
X4191508Y4115968D01*
X4191508Y4183532D01*
X4192270Y4187444D01*
X4194505Y4190746D01*
X4206036Y4202277D01*
X4209338Y4204512D01*
X4213250Y4205274D01*
X4361891Y4205274D01*
X4365802Y4204512D01*
X4369104Y4202277D01*
X4370679Y4200702D01*
X4378706Y4195064D01*
X4387646Y4190949D01*
X4397095Y4188409D01*
X4406900Y4187545D01*
X4416704Y4188409D01*
X4426153Y4190949D01*
X4435094Y4195064D01*
X4443120Y4200702D01*
X4450080Y4207662D01*
X4455718Y4215688D01*
X4459833Y4224629D01*
X4462373Y4234078D01*
X4463237Y4243882D01*
X4462373Y4253687D01*
X4459833Y4263136D01*
X4455718Y4272076D01*
X4450080Y4280103D01*
X4443120Y4287062D01*
X4435094Y4292701D01*
X4426153Y4296816D01*
X4416704Y4299356D01*
X4406900Y4300220D01*
X4397095Y4299356D01*
X4387646Y4296816D01*
X4378706Y4292701D01*
X4370679Y4287062D01*
X4369104Y4285488D01*
X4365802Y4283252D01*
X4361891Y4282490D01*
X4193540Y4282490D01*
X4185513Y4281678D01*
X4178300Y4279493D01*
X4171594Y4275937D01*
X4165396Y4270806D01*
X4125976Y4231386D01*
X4120845Y4225188D01*
X4117289Y4218482D01*
X4115104Y4211269D01*
X4114292Y4203242D01*
X4114292Y3045510D01*
X4113529Y3041599D01*
X4111294Y3038297D01*
X4109720Y3036722D01*
X4104081Y3028696D01*
X4099966Y3019755D01*
X4097426Y3010306D01*
X4096562Y3000502D01*
X4097426Y2990697D01*
X4099966Y2981248D01*
X4104081Y2972308D01*
X4109720Y2964281D01*
X4116679Y2957322D01*
X4124706Y2951683D01*
X4133646Y2947568D01*
X4143095Y2945028D01*
G37*
G36*
X2984500Y2941472D02*
G01*
X2994304Y2942336D01*
X3003753Y2944876D01*
X3012694Y2949041D01*
X3020720Y2954680D01*
X3027680Y2961589D01*
X3033318Y2969666D01*
X3037433Y2978556D01*
X3039973Y2988056D01*
X3040837Y2997809D01*
X3039973Y3007614D01*
X3037433Y3017113D01*
X3033318Y3026003D01*
X3027680Y3034030D01*
X3026105Y3035604D01*
X3023870Y3038906D01*
X3023108Y3042818D01*
X3023108Y3082594D01*
X3023870Y3086506D01*
X3026105Y3089757D01*
X3029407Y3091992D01*
X3033268Y3092754D01*
X3037179Y3091942D01*
X3040481Y3089757D01*
X3060903Y3069183D01*
X3067100Y3064052D01*
X3073755Y3060496D01*
X3080969Y3058261D01*
X3089148Y3057448D01*
X3644442Y3057448D01*
X3648303Y3056686D01*
X3651605Y3054451D01*
X3653790Y3051200D01*
X3654602Y3047288D01*
X3653790Y3043377D01*
X3645255Y3031337D01*
X3641140Y3022447D01*
X3638550Y3012948D01*
X3637737Y3003194D01*
X3638550Y2993390D01*
X3641140Y2983890D01*
X3645255Y2975000D01*
X3650894Y2966974D01*
X3657854Y2960014D01*
X3665880Y2954375D01*
X3674770Y2950210D01*
X3684270Y2947670D01*
X3694074Y2946857D01*
X3703828Y2947670D01*
X3713327Y2950210D01*
X3722217Y2954375D01*
X3730294Y2960014D01*
X3731869Y2961589D01*
X3735171Y2963824D01*
X3739032Y2964586D01*
X3841038Y2964586D01*
X3844950Y2963824D01*
X3848201Y2961589D01*
X3849827Y2960014D01*
X3857853Y2954375D01*
X3866743Y2950210D01*
X3876243Y2947670D01*
X3886047Y2946857D01*
X3895801Y2947670D01*
X3905300Y2950210D01*
X3914190Y2954375D01*
X3922268Y2960014D01*
X3929176Y2966974D01*
X3934815Y2975000D01*
X3938981Y2983890D01*
X3941521Y2993390D01*
X3942384Y3003194D01*
X3941521Y3012948D01*
X3938981Y3022447D01*
X3934815Y3031337D01*
X3929176Y3039414D01*
X3922268Y3046323D01*
X3914190Y3051962D01*
X3905300Y3056128D01*
X3895801Y3058668D01*
X3886047Y3059531D01*
X3876243Y3058668D01*
X3862730Y3055162D01*
X3858666Y3055874D01*
X3855212Y3058109D01*
X3852976Y3061563D01*
X3852265Y3065627D01*
X3853230Y3069590D01*
X3856583Y3076905D01*
X3859123Y3086404D01*
X3859987Y3096158D01*
X3859123Y3105962D01*
X3856583Y3115462D01*
X3852468Y3124352D01*
X3846829Y3132378D01*
X3839870Y3139338D01*
X3831844Y3144977D01*
X3822903Y3149142D01*
X3813454Y3151682D01*
X3803650Y3152495D01*
X3793845Y3151682D01*
X3784396Y3149142D01*
X3775456Y3144977D01*
X3767429Y3139338D01*
X3765753Y3137662D01*
X3762451Y3135426D01*
X3758539Y3134664D01*
X3108909Y3134664D01*
X3105048Y3135426D01*
X3101746Y3137662D01*
X3089554Y3149904D01*
X3087370Y3153206D01*
X3086608Y3157067D01*
X3086608Y4003649D01*
X3087370Y4007510D01*
X3089605Y4010812D01*
X3091180Y4012387D01*
X3096818Y4020464D01*
X3100933Y4029354D01*
X3103473Y4038854D01*
X3104337Y4048607D01*
X3103473Y4058412D01*
X3100933Y4067911D01*
X3096818Y4076801D01*
X3091180Y4084828D01*
X3084220Y4091787D01*
X3076194Y4097426D01*
X3067253Y4101592D01*
X3057804Y4104132D01*
X3048000Y4104944D01*
X3038195Y4104132D01*
X3035909Y4103471D01*
X3032201Y4103217D01*
X3028645Y4104233D01*
X3025698Y4106519D01*
X3023768Y4109669D01*
X3023108Y4113326D01*
X3023108Y4183430D01*
X3023870Y4187342D01*
X3026105Y4190644D01*
X3035046Y4199534D01*
X3038348Y4201718D01*
X3042208Y4202480D01*
X3193643Y4202480D01*
X3197504Y4201718D01*
X3200806Y4199483D01*
X3202279Y4198010D01*
X3210306Y4192422D01*
X3219246Y4188256D01*
X3228695Y4185716D01*
X3238500Y4184853D01*
X3248304Y4185716D01*
X3257753Y4188256D01*
X3266694Y4192422D01*
X3274720Y4198010D01*
X3281679Y4204970D01*
X3287318Y4213047D01*
X3291433Y4221937D01*
X3293973Y4231436D01*
X3294837Y4241190D01*
X3293973Y4250994D01*
X3291433Y4260494D01*
X3287318Y4269384D01*
X3281679Y4277410D01*
X3274720Y4284370D01*
X3266694Y4290009D01*
X3257753Y4294174D01*
X3248304Y4296714D01*
X3238500Y4297527D01*
X3228695Y4296714D01*
X3219246Y4294174D01*
X3210306Y4290009D01*
X3202279Y4284370D01*
X3200603Y4282694D01*
X3197301Y4280458D01*
X3193389Y4279696D01*
X3022600Y4279696D01*
X3014726Y4278934D01*
X3007461Y4276750D01*
X3000756Y4273245D01*
X2994507Y4268114D01*
X2957626Y4231487D01*
X2952496Y4225290D01*
X2948940Y4218635D01*
X2946704Y4211421D01*
X2945892Y4203242D01*
X2945892Y3042818D01*
X2945130Y3038906D01*
X2942894Y3035604D01*
X2941320Y3034030D01*
X2935681Y3026003D01*
X2931566Y3017113D01*
X2929026Y3007614D01*
X2928162Y2997809D01*
X2929026Y2988056D01*
X2931566Y2978556D01*
X2935681Y2969666D01*
X2941320Y2961589D01*
X2948279Y2954680D01*
X2956306Y2949041D01*
X2965246Y2944876D01*
X2974695Y2942336D01*
G37*

%LPD*%
D10*
X342892Y4235747D02*
G01*
X298950Y4235747D01*
X253992Y4191043D01*
X253992Y1358943D01*
X523994Y1848401D02*
G01*
X523994Y2009945D01*
X558792Y2044743D01*
X698492Y2044743D01*
X625398Y1952515D02*
G01*
X999972Y1952515D01*
X434840Y2141009D02*
G01*
X434840Y1597195D01*
X462526Y1569509D01*
X999990Y1569509D01*
X711192Y4043215D02*
G01*
X711192Y3136943D01*
X757166Y3090715D01*
X1466842Y3090715D01*
X890463Y1476496D02*
G01*
X1051245Y1476496D01*
X1053924Y1479176D01*
X1549224Y2997814D02*
G01*
X1549224Y2997814D01*
X1357264Y2997814D01*
X2717622Y3000494D02*
G01*
X2717622Y3000494D01*
X2525661Y3000494D01*
X3886019Y3003174D02*
G01*
X3886019Y3003174D01*
X3694059Y3003174D01*
X5054417Y3005853D02*
G01*
X5054417Y3005853D01*
X4862456Y3005853D01*
X5321292Y914392D02*
G01*
X5321292Y3003176D01*
X901700Y3664333D02*
G01*
X1466773Y3664333D01*
X2070092Y4238541D02*
G01*
X1863590Y4238541D01*
X1816092Y4191043D01*
X1816092Y2995211D01*
X2070097Y3667013D02*
G01*
X2635171Y3667013D01*
X1879592Y4046009D02*
G01*
X1879592Y3136943D01*
X1923026Y3093509D01*
X2635242Y3093509D01*
X3047992Y4048549D02*
G01*
X3047992Y3136943D01*
X3088632Y3096049D01*
X3803642Y3096049D01*
X3238492Y4241081D02*
G01*
X3022084Y4241081D01*
X2984492Y4203743D01*
X2984492Y2997751D01*
X3238494Y3669692D02*
G01*
X3803568Y3669692D01*
X4152892Y3000545D02*
G01*
X4152892Y4203743D01*
X4193024Y4243875D01*
X4406892Y4243875D01*
X4216392Y4051292D02*
G01*
X4216392Y3136892D01*
X4254441Y3098843D01*
X4972042Y3098843D01*
X4406892Y3672370D02*
G01*
X4971981Y3672387D01*
D11*
G01*
X380992Y5460992D03*
D12*
G01*
X4571992Y5587992D03*
G01*
X4571992Y5333992D03*
G01*
X4825992Y5333992D03*
G01*
X4825992Y5587992D03*
D11*
G01*
X380992Y380992D03*
G01*
X5460992Y380992D03*
G01*
X5460992Y5460992D03*
D13*
G01*
X3301992Y914392D03*
G01*
X2539992Y914392D03*
G01*
X2793992Y914392D03*
G01*
X3047992Y914392D03*
D14*
G01*
X4000492Y5372092D03*
G01*
X4972042Y3098843D03*
G01*
X4406892Y3672375D03*
G01*
X4971991Y3672375D03*
G01*
X4406892Y4243875D03*
G01*
X4152892Y3000494D03*
G01*
X4216392Y4051292D03*
G01*
X4470392Y4025892D03*
G01*
X4470392Y3862875D03*
G01*
X4470392Y3441692D03*
G01*
X4470392Y3291375D03*
G01*
X5041892Y3291375D03*
G01*
X5041892Y3481875D03*
G01*
X5041892Y3862875D03*
G01*
X5041892Y4053375D03*
G01*
X4590991Y3174992D03*
G01*
X4749792Y3174992D03*
G01*
X4590991Y3746492D03*
G01*
X4749792Y3746492D03*
G01*
X4590991Y4317992D03*
G01*
X4781491Y4317992D03*
G01*
X5241790Y3172299D03*
G01*
X4073390Y3169632D03*
G01*
X3581392Y3174992D03*
G01*
X3422591Y3172299D03*
G01*
X2904990Y3166940D03*
G01*
X2254191Y3169632D03*
G01*
X1736590Y3164273D03*
G01*
X1085791Y3166940D03*
G01*
X1085791Y3738440D03*
G01*
X2254191Y3741132D03*
G01*
X3422591Y3743799D03*
G01*
X3581392Y3746492D03*
G01*
X3873492Y3288682D03*
G01*
X3873492Y3479182D03*
G01*
X3873492Y3860182D03*
G01*
X3873492Y4050682D03*
G01*
X3301992Y3288682D03*
G01*
X3301992Y3441692D03*
G01*
X3301992Y3860182D03*
G01*
X3301992Y4025892D03*
G01*
X2705092Y3286015D03*
G01*
X2705092Y3476515D03*
G01*
X2705092Y3857515D03*
G01*
X2705092Y4048015D03*
G01*
X2133592Y3286015D03*
G01*
X2133592Y3441692D03*
G01*
X2133592Y3857515D03*
G01*
X2133592Y4013192D03*
G01*
X1536692Y3283323D03*
G01*
X1536692Y3473823D03*
G01*
X1536692Y3854823D03*
G01*
X1536692Y4045323D03*
G01*
X965192Y4013192D03*
G01*
X965192Y3854823D03*
G01*
X965192Y3441692D03*
G01*
X965192Y3283323D03*
G01*
X3613091Y4315299D03*
G01*
X3422591Y4315299D03*
G01*
X2444691Y4312632D03*
G01*
X1276291Y4309940D03*
G01*
X1085791Y4309940D03*
G01*
X3238492Y3669682D03*
G01*
X3803591Y3669708D03*
G01*
X3238492Y4241182D03*
G01*
X2984492Y2997801D03*
G01*
X1816092Y2995134D03*
G01*
X2070092Y4238515D03*
G01*
X901692Y3664323D03*
G01*
X2070092Y3667015D03*
G01*
X2635191Y3667015D03*
G01*
X1466791Y3664348D03*
G01*
X3803642Y3096150D03*
G01*
X3047992Y4048599D03*
G01*
X1879592Y4045932D03*
G01*
X711192Y4043240D03*
G01*
X2635242Y3093483D03*
G01*
X1466842Y3090791D03*
G01*
X5321292Y3003161D03*
G01*
X5321292Y914392D03*
G01*
X4862466Y3005853D03*
G01*
X5054414Y3005853D03*
G01*
X3694066Y3003161D03*
G01*
X2525666Y3000494D03*
G01*
X1357266Y2997801D03*
G01*
X1549214Y2997801D03*
G01*
X2717614Y3000494D03*
G01*
X3886014Y3003161D03*
G01*
X2412992Y3743799D03*
G01*
X2412992Y3172299D03*
G01*
X1244592Y3169632D03*
G01*
X1244592Y3741132D03*
G01*
X2254191Y4312632D03*
G01*
X342917Y4235823D03*
G01*
X253992Y1358892D03*
G01*
X809490Y2407632D03*
G01*
X1241290Y1645632D03*
G01*
X890465Y1476494D03*
G01*
X1053914Y1479186D03*
G01*
X777791Y1648325D03*
G01*
X777791Y2029299D03*
G01*
X1069891Y1762015D03*
G01*
X1069891Y2143015D03*
G01*
X688891Y1762015D03*
G01*
X688891Y2143015D03*
G01*
X434891Y2140932D03*
G01*
X1000041Y1569483D03*
G01*
X625391Y1952515D03*
G01*
X999990Y1952541D03*
G01*
X698492Y2044692D03*
G01*
X523994Y1848299D03*
M02*
